G04 #@! TF.GenerationSoftware,KiCad,Pcbnew,5.1.9-73d0e3b20d~88~ubuntu20.04.1*
G04 #@! TF.CreationDate,2021-05-11T14:41:41+03:00*
G04 #@! TF.ProjectId,tweezer-tips,74776565-7a65-4722-9d74-6970732e6b69,rev?*
G04 #@! TF.SameCoordinates,Original*
G04 #@! TF.FileFunction,Soldermask,Top*
G04 #@! TF.FilePolarity,Negative*
%FSLAX46Y46*%
G04 Gerber Fmt 4.6, Leading zero omitted, Abs format (unit mm)*
G04 Created by KiCad (PCBNEW 5.1.9-73d0e3b20d~88~ubuntu20.04.1) date 2021-05-11 14:41:41*
%MOMM*%
%LPD*%
G01*
G04 APERTURE LIST*
%ADD10C,0.100000*%
%ADD11C,1.102000*%
G04 APERTURE END LIST*
D10*
G36*
X110200000Y-7500000D02*
G01*
X110500000Y-7800000D01*
X110600000Y-8000000D01*
X110600000Y-12000000D01*
X110500000Y-12200000D01*
X110200000Y-12500000D01*
X110000000Y-12600000D01*
X105500000Y-12600000D01*
X105300000Y-12500000D01*
X105000000Y-12200000D01*
X104900000Y-12000000D01*
X104900000Y-8000000D01*
X105000000Y-7800000D01*
X105300000Y-7500000D01*
X105500000Y-7400000D01*
X110000000Y-7400000D01*
X110200000Y-7500000D01*
G37*
X110200000Y-7500000D02*
X110500000Y-7800000D01*
X110600000Y-8000000D01*
X110600000Y-12000000D01*
X110500000Y-12200000D01*
X110200000Y-12500000D01*
X110000000Y-12600000D01*
X105500000Y-12600000D01*
X105300000Y-12500000D01*
X105000000Y-12200000D01*
X104900000Y-12000000D01*
X104900000Y-8000000D01*
X105000000Y-7800000D01*
X105300000Y-7500000D01*
X105500000Y-7400000D01*
X110000000Y-7400000D01*
X110200000Y-7500000D01*
G36*
X19750000Y-11500000D02*
G01*
X4500000Y-10500000D01*
X4500000Y-9500000D01*
X19750000Y-8500000D01*
X19750000Y-11500000D01*
G37*
X19750000Y-11500000D02*
X4500000Y-10500000D01*
X4500000Y-9500000D01*
X19750000Y-8500000D01*
X19750000Y-11500000D01*
G36*
X110200000Y-7500000D02*
G01*
X110500000Y-7800000D01*
X110600000Y-8000000D01*
X110600000Y-12000000D01*
X110500000Y-12200000D01*
X110200000Y-12500000D01*
X110000000Y-12600000D01*
X105500000Y-12600000D01*
X105300000Y-12500000D01*
X105000000Y-12200000D01*
X104900000Y-12000000D01*
X104900000Y-8000000D01*
X105000000Y-7800000D01*
X105300000Y-7500000D01*
X105500000Y-7400000D01*
X110000000Y-7400000D01*
X110200000Y-7500000D01*
G37*
X110200000Y-7500000D02*
X110500000Y-7800000D01*
X110600000Y-8000000D01*
X110600000Y-12000000D01*
X110500000Y-12200000D01*
X110200000Y-12500000D01*
X110000000Y-12600000D01*
X105500000Y-12600000D01*
X105300000Y-12500000D01*
X105000000Y-12200000D01*
X104900000Y-12000000D01*
X104900000Y-8000000D01*
X105000000Y-7800000D01*
X105300000Y-7500000D01*
X105500000Y-7400000D01*
X110000000Y-7400000D01*
X110200000Y-7500000D01*
G36*
X19750000Y-11500000D02*
G01*
X4500000Y-10500000D01*
X4500000Y-9500000D01*
X19750000Y-8500000D01*
X19750000Y-11500000D01*
G37*
X19750000Y-11500000D02*
X4500000Y-10500000D01*
X4500000Y-9500000D01*
X19750000Y-8500000D01*
X19750000Y-11500000D01*
D11*
G04 #@! TO.C,J2*
X108900000Y-10000000D03*
G04 #@! TD*
G04 #@! TO.C,R2*
G36*
G01*
X27701000Y-9718250D02*
X27701000Y-10281750D01*
G75*
G02*
X27456750Y-10526000I-244250J0D01*
G01*
X26968250Y-10526000D01*
G75*
G02*
X26724000Y-10281750I0J244250D01*
G01*
X26724000Y-9718250D01*
G75*
G02*
X26968250Y-9474000I244250J0D01*
G01*
X27456750Y-9474000D01*
G75*
G02*
X27701000Y-9718250I0J-244250D01*
G01*
G37*
G36*
G01*
X29276000Y-9718250D02*
X29276000Y-10281750D01*
G75*
G02*
X29031750Y-10526000I-244250J0D01*
G01*
X28543250Y-10526000D01*
G75*
G02*
X28299000Y-10281750I0J244250D01*
G01*
X28299000Y-9718250D01*
G75*
G02*
X28543250Y-9474000I244250J0D01*
G01*
X29031750Y-9474000D01*
G75*
G02*
X29276000Y-9718250I0J-244250D01*
G01*
G37*
G04 #@! TD*
G04 #@! TO.C,J3*
X106200000Y-11400000D03*
G04 #@! TD*
G04 #@! TO.C,J1*
X15000000Y-10000000D03*
G04 #@! TD*
G04 #@! TO.C,R1*
G36*
G01*
X30701000Y-10518250D02*
X30701000Y-11081750D01*
G75*
G02*
X30456750Y-11326000I-244250J0D01*
G01*
X29968250Y-11326000D01*
G75*
G02*
X29724000Y-11081750I0J244250D01*
G01*
X29724000Y-10518250D01*
G75*
G02*
X29968250Y-10274000I244250J0D01*
G01*
X30456750Y-10274000D01*
G75*
G02*
X30701000Y-10518250I0J-244250D01*
G01*
G37*
G36*
G01*
X32276000Y-10518250D02*
X32276000Y-11081750D01*
G75*
G02*
X32031750Y-11326000I-244250J0D01*
G01*
X31543250Y-11326000D01*
G75*
G02*
X31299000Y-11081750I0J244250D01*
G01*
X31299000Y-10518250D01*
G75*
G02*
X31543250Y-10274000I244250J0D01*
G01*
X32031750Y-10274000D01*
G75*
G02*
X32276000Y-10518250I0J-244250D01*
G01*
G37*
G04 #@! TD*
G04 #@! TO.C,C1*
G36*
G01*
X31299000Y-9481750D02*
X31299000Y-8918250D01*
G75*
G02*
X31543250Y-8674000I244250J0D01*
G01*
X32031750Y-8674000D01*
G75*
G02*
X32276000Y-8918250I0J-244250D01*
G01*
X32276000Y-9481750D01*
G75*
G02*
X32031750Y-9726000I-244250J0D01*
G01*
X31543250Y-9726000D01*
G75*
G02*
X31299000Y-9481750I0J244250D01*
G01*
G37*
G36*
G01*
X29724000Y-9481750D02*
X29724000Y-8918250D01*
G75*
G02*
X29968250Y-8674000I244250J0D01*
G01*
X30456750Y-8674000D01*
G75*
G02*
X30701000Y-8918250I0J-244250D01*
G01*
X30701000Y-9481750D01*
G75*
G02*
X30456750Y-9726000I-244250J0D01*
G01*
X29968250Y-9726000D01*
G75*
G02*
X29724000Y-9481750I0J244250D01*
G01*
G37*
G04 #@! TD*
M02*
