G04 #@! TF.GenerationSoftware,KiCad,Pcbnew,5.1.5+dfsg1-2build2*
G04 #@! TF.CreationDate,2021-01-13T09:23:00+02:00*
G04 #@! TF.ProjectId,tweezer-tips,74776565-7a65-4722-9d74-6970732e6b69,rev?*
G04 #@! TF.SameCoordinates,Original*
G04 #@! TF.FileFunction,Paste,Top*
G04 #@! TF.FilePolarity,Positive*
%FSLAX46Y46*%
G04 Gerber Fmt 4.6, Leading zero omitted, Abs format (unit mm)*
G04 Created by KiCad (PCBNEW 5.1.5+dfsg1-2build2) date 2021-01-13 09:23:00*
%MOMM*%
%LPD*%
G04 APERTURE LIST*
%ADD10C,0.350000*%
G04 APERTURE END LIST*
D10*
G36*
X37252691Y-10326053D02*
G01*
X37273926Y-10329203D01*
X37294750Y-10334419D01*
X37314962Y-10341651D01*
X37334368Y-10350830D01*
X37352781Y-10361866D01*
X37370024Y-10374654D01*
X37385930Y-10389070D01*
X37400346Y-10404976D01*
X37413134Y-10422219D01*
X37424170Y-10440632D01*
X37433349Y-10460038D01*
X37440581Y-10480250D01*
X37445797Y-10501074D01*
X37448947Y-10522309D01*
X37450000Y-10543750D01*
X37450000Y-11056250D01*
X37448947Y-11077691D01*
X37445797Y-11098926D01*
X37440581Y-11119750D01*
X37433349Y-11139962D01*
X37424170Y-11159368D01*
X37413134Y-11177781D01*
X37400346Y-11195024D01*
X37385930Y-11210930D01*
X37370024Y-11225346D01*
X37352781Y-11238134D01*
X37334368Y-11249170D01*
X37314962Y-11258349D01*
X37294750Y-11265581D01*
X37273926Y-11270797D01*
X37252691Y-11273947D01*
X37231250Y-11275000D01*
X36793750Y-11275000D01*
X36772309Y-11273947D01*
X36751074Y-11270797D01*
X36730250Y-11265581D01*
X36710038Y-11258349D01*
X36690632Y-11249170D01*
X36672219Y-11238134D01*
X36654976Y-11225346D01*
X36639070Y-11210930D01*
X36624654Y-11195024D01*
X36611866Y-11177781D01*
X36600830Y-11159368D01*
X36591651Y-11139962D01*
X36584419Y-11119750D01*
X36579203Y-11098926D01*
X36576053Y-11077691D01*
X36575000Y-11056250D01*
X36575000Y-10543750D01*
X36576053Y-10522309D01*
X36579203Y-10501074D01*
X36584419Y-10480250D01*
X36591651Y-10460038D01*
X36600830Y-10440632D01*
X36611866Y-10422219D01*
X36624654Y-10404976D01*
X36639070Y-10389070D01*
X36654976Y-10374654D01*
X36672219Y-10361866D01*
X36690632Y-10350830D01*
X36710038Y-10341651D01*
X36730250Y-10334419D01*
X36751074Y-10329203D01*
X36772309Y-10326053D01*
X36793750Y-10325000D01*
X37231250Y-10325000D01*
X37252691Y-10326053D01*
G37*
G36*
X38827691Y-10326053D02*
G01*
X38848926Y-10329203D01*
X38869750Y-10334419D01*
X38889962Y-10341651D01*
X38909368Y-10350830D01*
X38927781Y-10361866D01*
X38945024Y-10374654D01*
X38960930Y-10389070D01*
X38975346Y-10404976D01*
X38988134Y-10422219D01*
X38999170Y-10440632D01*
X39008349Y-10460038D01*
X39015581Y-10480250D01*
X39020797Y-10501074D01*
X39023947Y-10522309D01*
X39025000Y-10543750D01*
X39025000Y-11056250D01*
X39023947Y-11077691D01*
X39020797Y-11098926D01*
X39015581Y-11119750D01*
X39008349Y-11139962D01*
X38999170Y-11159368D01*
X38988134Y-11177781D01*
X38975346Y-11195024D01*
X38960930Y-11210930D01*
X38945024Y-11225346D01*
X38927781Y-11238134D01*
X38909368Y-11249170D01*
X38889962Y-11258349D01*
X38869750Y-11265581D01*
X38848926Y-11270797D01*
X38827691Y-11273947D01*
X38806250Y-11275000D01*
X38368750Y-11275000D01*
X38347309Y-11273947D01*
X38326074Y-11270797D01*
X38305250Y-11265581D01*
X38285038Y-11258349D01*
X38265632Y-11249170D01*
X38247219Y-11238134D01*
X38229976Y-11225346D01*
X38214070Y-11210930D01*
X38199654Y-11195024D01*
X38186866Y-11177781D01*
X38175830Y-11159368D01*
X38166651Y-11139962D01*
X38159419Y-11119750D01*
X38154203Y-11098926D01*
X38151053Y-11077691D01*
X38150000Y-11056250D01*
X38150000Y-10543750D01*
X38151053Y-10522309D01*
X38154203Y-10501074D01*
X38159419Y-10480250D01*
X38166651Y-10460038D01*
X38175830Y-10440632D01*
X38186866Y-10422219D01*
X38199654Y-10404976D01*
X38214070Y-10389070D01*
X38229976Y-10374654D01*
X38247219Y-10361866D01*
X38265632Y-10350830D01*
X38285038Y-10341651D01*
X38305250Y-10334419D01*
X38326074Y-10329203D01*
X38347309Y-10326053D01*
X38368750Y-10325000D01*
X38806250Y-10325000D01*
X38827691Y-10326053D01*
G37*
G36*
X38827691Y-8726053D02*
G01*
X38848926Y-8729203D01*
X38869750Y-8734419D01*
X38889962Y-8741651D01*
X38909368Y-8750830D01*
X38927781Y-8761866D01*
X38945024Y-8774654D01*
X38960930Y-8789070D01*
X38975346Y-8804976D01*
X38988134Y-8822219D01*
X38999170Y-8840632D01*
X39008349Y-8860038D01*
X39015581Y-8880250D01*
X39020797Y-8901074D01*
X39023947Y-8922309D01*
X39025000Y-8943750D01*
X39025000Y-9456250D01*
X39023947Y-9477691D01*
X39020797Y-9498926D01*
X39015581Y-9519750D01*
X39008349Y-9539962D01*
X38999170Y-9559368D01*
X38988134Y-9577781D01*
X38975346Y-9595024D01*
X38960930Y-9610930D01*
X38945024Y-9625346D01*
X38927781Y-9638134D01*
X38909368Y-9649170D01*
X38889962Y-9658349D01*
X38869750Y-9665581D01*
X38848926Y-9670797D01*
X38827691Y-9673947D01*
X38806250Y-9675000D01*
X38368750Y-9675000D01*
X38347309Y-9673947D01*
X38326074Y-9670797D01*
X38305250Y-9665581D01*
X38285038Y-9658349D01*
X38265632Y-9649170D01*
X38247219Y-9638134D01*
X38229976Y-9625346D01*
X38214070Y-9610930D01*
X38199654Y-9595024D01*
X38186866Y-9577781D01*
X38175830Y-9559368D01*
X38166651Y-9539962D01*
X38159419Y-9519750D01*
X38154203Y-9498926D01*
X38151053Y-9477691D01*
X38150000Y-9456250D01*
X38150000Y-8943750D01*
X38151053Y-8922309D01*
X38154203Y-8901074D01*
X38159419Y-8880250D01*
X38166651Y-8860038D01*
X38175830Y-8840632D01*
X38186866Y-8822219D01*
X38199654Y-8804976D01*
X38214070Y-8789070D01*
X38229976Y-8774654D01*
X38247219Y-8761866D01*
X38265632Y-8750830D01*
X38285038Y-8741651D01*
X38305250Y-8734419D01*
X38326074Y-8729203D01*
X38347309Y-8726053D01*
X38368750Y-8725000D01*
X38806250Y-8725000D01*
X38827691Y-8726053D01*
G37*
G36*
X37252691Y-8726053D02*
G01*
X37273926Y-8729203D01*
X37294750Y-8734419D01*
X37314962Y-8741651D01*
X37334368Y-8750830D01*
X37352781Y-8761866D01*
X37370024Y-8774654D01*
X37385930Y-8789070D01*
X37400346Y-8804976D01*
X37413134Y-8822219D01*
X37424170Y-8840632D01*
X37433349Y-8860038D01*
X37440581Y-8880250D01*
X37445797Y-8901074D01*
X37448947Y-8922309D01*
X37450000Y-8943750D01*
X37450000Y-9456250D01*
X37448947Y-9477691D01*
X37445797Y-9498926D01*
X37440581Y-9519750D01*
X37433349Y-9539962D01*
X37424170Y-9559368D01*
X37413134Y-9577781D01*
X37400346Y-9595024D01*
X37385930Y-9610930D01*
X37370024Y-9625346D01*
X37352781Y-9638134D01*
X37334368Y-9649170D01*
X37314962Y-9658349D01*
X37294750Y-9665581D01*
X37273926Y-9670797D01*
X37252691Y-9673947D01*
X37231250Y-9675000D01*
X36793750Y-9675000D01*
X36772309Y-9673947D01*
X36751074Y-9670797D01*
X36730250Y-9665581D01*
X36710038Y-9658349D01*
X36690632Y-9649170D01*
X36672219Y-9638134D01*
X36654976Y-9625346D01*
X36639070Y-9610930D01*
X36624654Y-9595024D01*
X36611866Y-9577781D01*
X36600830Y-9559368D01*
X36591651Y-9539962D01*
X36584419Y-9519750D01*
X36579203Y-9498926D01*
X36576053Y-9477691D01*
X36575000Y-9456250D01*
X36575000Y-8943750D01*
X36576053Y-8922309D01*
X36579203Y-8901074D01*
X36584419Y-8880250D01*
X36591651Y-8860038D01*
X36600830Y-8840632D01*
X36611866Y-8822219D01*
X36624654Y-8804976D01*
X36639070Y-8789070D01*
X36654976Y-8774654D01*
X36672219Y-8761866D01*
X36690632Y-8750830D01*
X36710038Y-8741651D01*
X36730250Y-8734419D01*
X36751074Y-8729203D01*
X36772309Y-8726053D01*
X36793750Y-8725000D01*
X37231250Y-8725000D01*
X37252691Y-8726053D01*
G37*
M02*
