G04 #@! TF.GenerationSoftware,KiCad,Pcbnew,5.1.9-73d0e3b20d~88~ubuntu20.04.1*
G04 #@! TF.CreationDate,2021-05-11T14:41:41+03:00*
G04 #@! TF.ProjectId,tweezer-tips,74776565-7a65-4722-9d74-6970732e6b69,rev?*
G04 #@! TF.SameCoordinates,Original*
G04 #@! TF.FileFunction,Legend,Top*
G04 #@! TF.FilePolarity,Positive*
%FSLAX46Y46*%
G04 Gerber Fmt 4.6, Leading zero omitted, Abs format (unit mm)*
G04 Created by KiCad (PCBNEW 5.1.9-73d0e3b20d~88~ubuntu20.04.1) date 2021-05-11 14:41:41*
%MOMM*%
%LPD*%
G01*
G04 APERTURE LIST*
%ADD10C,0.150000*%
%ADD11C,0.120000*%
%ADD12C,0.100000*%
%ADD13C,1.102000*%
G04 APERTURE END LIST*
D10*
X75738095Y-11702380D02*
X75166666Y-11702380D01*
X75452380Y-11702380D02*
X75452380Y-10702380D01*
X75357142Y-10845238D01*
X75261904Y-10940476D01*
X75166666Y-10988095D01*
X76166666Y-11607142D02*
X76214285Y-11654761D01*
X76166666Y-11702380D01*
X76119047Y-11654761D01*
X76166666Y-11607142D01*
X76166666Y-11702380D01*
X76166666Y-11083333D02*
X76214285Y-11130952D01*
X76166666Y-11178571D01*
X76119047Y-11130952D01*
X76166666Y-11083333D01*
X76166666Y-11178571D01*
X77166666Y-11702380D02*
X76595238Y-11702380D01*
X76880952Y-11702380D02*
X76880952Y-10702380D01*
X76785714Y-10845238D01*
X76690476Y-10940476D01*
X76595238Y-10988095D01*
X77785714Y-10702380D02*
X77880952Y-10702380D01*
X77976190Y-10750000D01*
X78023809Y-10797619D01*
X78071428Y-10892857D01*
X78119047Y-11083333D01*
X78119047Y-11321428D01*
X78071428Y-11511904D01*
X78023809Y-11607142D01*
X77976190Y-11654761D01*
X77880952Y-11702380D01*
X77785714Y-11702380D01*
X77690476Y-11654761D01*
X77642857Y-11607142D01*
X77595238Y-11511904D01*
X77547619Y-11321428D01*
X77547619Y-11083333D01*
X77595238Y-10892857D01*
X77642857Y-10797619D01*
X77690476Y-10750000D01*
X77785714Y-10702380D01*
X79833333Y-11702380D02*
X79261904Y-11702380D01*
X79547619Y-11702380D02*
X79547619Y-10702380D01*
X79452380Y-10845238D01*
X79357142Y-10940476D01*
X79261904Y-10988095D01*
X80452380Y-10702380D02*
X80547619Y-10702380D01*
X80642857Y-10750000D01*
X80690476Y-10797619D01*
X80738095Y-10892857D01*
X80785714Y-11083333D01*
X80785714Y-11321428D01*
X80738095Y-11511904D01*
X80690476Y-11607142D01*
X80642857Y-11654761D01*
X80547619Y-11702380D01*
X80452380Y-11702380D01*
X80357142Y-11654761D01*
X80309523Y-11607142D01*
X80261904Y-11511904D01*
X80214285Y-11321428D01*
X80214285Y-11083333D01*
X80261904Y-10892857D01*
X80309523Y-10797619D01*
X80357142Y-10750000D01*
X80452380Y-10702380D01*
X81976190Y-11702380D02*
X81976190Y-10702380D01*
X82309523Y-11416666D01*
X82642857Y-10702380D01*
X82642857Y-11702380D01*
X83071428Y-11702380D02*
X83309523Y-11702380D01*
X83309523Y-11511904D01*
X83214285Y-11464285D01*
X83119047Y-11369047D01*
X83071428Y-11226190D01*
X83071428Y-10988095D01*
X83119047Y-10845238D01*
X83214285Y-10750000D01*
X83357142Y-10702380D01*
X83547619Y-10702380D01*
X83690476Y-10750000D01*
X83785714Y-10845238D01*
X83833333Y-10988095D01*
X83833333Y-11226190D01*
X83785714Y-11369047D01*
X83690476Y-11464285D01*
X83595238Y-11511904D01*
X83595238Y-11702380D01*
X83833333Y-11702380D01*
X76059523Y-9202380D02*
X75488095Y-9202380D01*
X75773809Y-9202380D02*
X75773809Y-8202380D01*
X75678571Y-8345238D01*
X75583333Y-8440476D01*
X75488095Y-8488095D01*
X76488095Y-9107142D02*
X76535714Y-9154761D01*
X76488095Y-9202380D01*
X76440476Y-9154761D01*
X76488095Y-9107142D01*
X76488095Y-9202380D01*
X76488095Y-8583333D02*
X76535714Y-8630952D01*
X76488095Y-8678571D01*
X76440476Y-8630952D01*
X76488095Y-8583333D01*
X76488095Y-8678571D01*
X77488095Y-9202380D02*
X76916666Y-9202380D01*
X77202380Y-9202380D02*
X77202380Y-8202380D01*
X77107142Y-8345238D01*
X77011904Y-8440476D01*
X76916666Y-8488095D01*
X79964285Y-9202380D02*
X79392857Y-9202380D01*
X79678571Y-9202380D02*
X79678571Y-8202380D01*
X79583333Y-8345238D01*
X79488095Y-8440476D01*
X79392857Y-8488095D01*
X81154761Y-9202380D02*
X81154761Y-8202380D01*
X81488095Y-8916666D01*
X81821428Y-8202380D01*
X81821428Y-9202380D01*
X82250000Y-9202380D02*
X82488095Y-9202380D01*
X82488095Y-9011904D01*
X82392857Y-8964285D01*
X82297619Y-8869047D01*
X82250000Y-8726190D01*
X82250000Y-8488095D01*
X82297619Y-8345238D01*
X82392857Y-8250000D01*
X82535714Y-8202380D01*
X82726190Y-8202380D01*
X82869047Y-8250000D01*
X82964285Y-8345238D01*
X83011904Y-8488095D01*
X83011904Y-8726190D01*
X82964285Y-8869047D01*
X82869047Y-8964285D01*
X82773809Y-9011904D01*
X82773809Y-9202380D01*
X83011904Y-9202380D01*
D11*
X74500000Y-12000000D02*
X73000000Y-12000000D01*
X74500000Y-10500000D02*
X74500000Y-12000000D01*
X73000000Y-10500000D02*
X74500000Y-10500000D01*
X73000000Y-12000000D02*
X73000000Y-10500000D01*
X73000000Y-8000000D02*
X73000000Y-9500000D01*
X74500000Y-8000000D02*
X73000000Y-8000000D01*
X74500000Y-9500000D02*
X74500000Y-8000000D01*
X73000000Y-9500000D02*
X74500000Y-9500000D01*
G04 #@! TO.C,R2*
X28162779Y-9490000D02*
X27837221Y-9490000D01*
X28162779Y-10510000D02*
X27837221Y-10510000D01*
G04 #@! TO.C,R1*
X31162779Y-10290000D02*
X30837221Y-10290000D01*
X31162779Y-11310000D02*
X30837221Y-11310000D01*
G04 #@! TO.C,C1*
X30837221Y-9710000D02*
X31162779Y-9710000D01*
X30837221Y-8690000D02*
X31162779Y-8690000D01*
G04 #@! TO.C,R2*
D10*
X25333333Y-10452380D02*
X25000000Y-9976190D01*
X24761904Y-10452380D02*
X24761904Y-9452380D01*
X25142857Y-9452380D01*
X25238095Y-9500000D01*
X25285714Y-9547619D01*
X25333333Y-9642857D01*
X25333333Y-9785714D01*
X25285714Y-9880952D01*
X25238095Y-9928571D01*
X25142857Y-9976190D01*
X24761904Y-9976190D01*
X25714285Y-9547619D02*
X25761904Y-9500000D01*
X25857142Y-9452380D01*
X26095238Y-9452380D01*
X26190476Y-9500000D01*
X26238095Y-9547619D01*
X26285714Y-9642857D01*
X26285714Y-9738095D01*
X26238095Y-9880952D01*
X25666666Y-10452380D01*
X26285714Y-10452380D01*
G04 #@! TO.C,R1*
X33333333Y-11252380D02*
X33000000Y-10776190D01*
X32761904Y-11252380D02*
X32761904Y-10252380D01*
X33142857Y-10252380D01*
X33238095Y-10300000D01*
X33285714Y-10347619D01*
X33333333Y-10442857D01*
X33333333Y-10585714D01*
X33285714Y-10680952D01*
X33238095Y-10728571D01*
X33142857Y-10776190D01*
X32761904Y-10776190D01*
X34285714Y-11252380D02*
X33714285Y-11252380D01*
X34000000Y-11252380D02*
X34000000Y-10252380D01*
X33904761Y-10395238D01*
X33809523Y-10490476D01*
X33714285Y-10538095D01*
G04 #@! TO.C,C1*
X33333333Y-9557142D02*
X33285714Y-9604761D01*
X33142857Y-9652380D01*
X33047619Y-9652380D01*
X32904761Y-9604761D01*
X32809523Y-9509523D01*
X32761904Y-9414285D01*
X32714285Y-9223809D01*
X32714285Y-9080952D01*
X32761904Y-8890476D01*
X32809523Y-8795238D01*
X32904761Y-8700000D01*
X33047619Y-8652380D01*
X33142857Y-8652380D01*
X33285714Y-8700000D01*
X33333333Y-8747619D01*
X34285714Y-9652380D02*
X33714285Y-9652380D01*
X34000000Y-9652380D02*
X34000000Y-8652380D01*
X33904761Y-8795238D01*
X33809523Y-8890476D01*
X33714285Y-8938095D01*
G04 #@! TD*
%LPC*%
D12*
G36*
X110200000Y-7500000D02*
G01*
X110500000Y-7800000D01*
X110600000Y-8000000D01*
X110600000Y-12000000D01*
X110500000Y-12200000D01*
X110200000Y-12500000D01*
X110000000Y-12600000D01*
X105500000Y-12600000D01*
X105300000Y-12500000D01*
X105000000Y-12200000D01*
X104900000Y-12000000D01*
X104900000Y-8000000D01*
X105000000Y-7800000D01*
X105300000Y-7500000D01*
X105500000Y-7400000D01*
X110000000Y-7400000D01*
X110200000Y-7500000D01*
G37*
X110200000Y-7500000D02*
X110500000Y-7800000D01*
X110600000Y-8000000D01*
X110600000Y-12000000D01*
X110500000Y-12200000D01*
X110200000Y-12500000D01*
X110000000Y-12600000D01*
X105500000Y-12600000D01*
X105300000Y-12500000D01*
X105000000Y-12200000D01*
X104900000Y-12000000D01*
X104900000Y-8000000D01*
X105000000Y-7800000D01*
X105300000Y-7500000D01*
X105500000Y-7400000D01*
X110000000Y-7400000D01*
X110200000Y-7500000D01*
G36*
X19750000Y-11500000D02*
G01*
X4500000Y-10500000D01*
X4500000Y-9500000D01*
X19750000Y-8500000D01*
X19750000Y-11500000D01*
G37*
X19750000Y-11500000D02*
X4500000Y-10500000D01*
X4500000Y-9500000D01*
X19750000Y-8500000D01*
X19750000Y-11500000D01*
D13*
G04 #@! TO.C,J2*
X108900000Y-10000000D03*
G04 #@! TD*
G04 #@! TO.C,R2*
G36*
G01*
X27701000Y-9718250D02*
X27701000Y-10281750D01*
G75*
G02*
X27456750Y-10526000I-244250J0D01*
G01*
X26968250Y-10526000D01*
G75*
G02*
X26724000Y-10281750I0J244250D01*
G01*
X26724000Y-9718250D01*
G75*
G02*
X26968250Y-9474000I244250J0D01*
G01*
X27456750Y-9474000D01*
G75*
G02*
X27701000Y-9718250I0J-244250D01*
G01*
G37*
G36*
G01*
X29276000Y-9718250D02*
X29276000Y-10281750D01*
G75*
G02*
X29031750Y-10526000I-244250J0D01*
G01*
X28543250Y-10526000D01*
G75*
G02*
X28299000Y-10281750I0J244250D01*
G01*
X28299000Y-9718250D01*
G75*
G02*
X28543250Y-9474000I244250J0D01*
G01*
X29031750Y-9474000D01*
G75*
G02*
X29276000Y-9718250I0J-244250D01*
G01*
G37*
G04 #@! TD*
G04 #@! TO.C,J3*
X106200000Y-11400000D03*
G04 #@! TD*
G04 #@! TO.C,J1*
X15000000Y-10000000D03*
G04 #@! TD*
G04 #@! TO.C,R1*
G36*
G01*
X30701000Y-10518250D02*
X30701000Y-11081750D01*
G75*
G02*
X30456750Y-11326000I-244250J0D01*
G01*
X29968250Y-11326000D01*
G75*
G02*
X29724000Y-11081750I0J244250D01*
G01*
X29724000Y-10518250D01*
G75*
G02*
X29968250Y-10274000I244250J0D01*
G01*
X30456750Y-10274000D01*
G75*
G02*
X30701000Y-10518250I0J-244250D01*
G01*
G37*
G36*
G01*
X32276000Y-10518250D02*
X32276000Y-11081750D01*
G75*
G02*
X32031750Y-11326000I-244250J0D01*
G01*
X31543250Y-11326000D01*
G75*
G02*
X31299000Y-11081750I0J244250D01*
G01*
X31299000Y-10518250D01*
G75*
G02*
X31543250Y-10274000I244250J0D01*
G01*
X32031750Y-10274000D01*
G75*
G02*
X32276000Y-10518250I0J-244250D01*
G01*
G37*
G04 #@! TD*
G04 #@! TO.C,C1*
G36*
G01*
X31299000Y-9481750D02*
X31299000Y-8918250D01*
G75*
G02*
X31543250Y-8674000I244250J0D01*
G01*
X32031750Y-8674000D01*
G75*
G02*
X32276000Y-8918250I0J-244250D01*
G01*
X32276000Y-9481750D01*
G75*
G02*
X32031750Y-9726000I-244250J0D01*
G01*
X31543250Y-9726000D01*
G75*
G02*
X31299000Y-9481750I0J244250D01*
G01*
G37*
G36*
G01*
X29724000Y-9481750D02*
X29724000Y-8918250D01*
G75*
G02*
X29968250Y-8674000I244250J0D01*
G01*
X30456750Y-8674000D01*
G75*
G02*
X30701000Y-8918250I0J-244250D01*
G01*
X30701000Y-9481750D01*
G75*
G02*
X30456750Y-9726000I-244250J0D01*
G01*
X29968250Y-9726000D01*
G75*
G02*
X29724000Y-9481750I0J244250D01*
G01*
G37*
G04 #@! TD*
M02*
