G04 #@! TF.GenerationSoftware,KiCad,Pcbnew,5.1.5+dfsg1-2build2*
G04 #@! TF.CreationDate,2021-01-13T09:23:00+02:00*
G04 #@! TF.ProjectId,tweezer-tips,74776565-7a65-4722-9d74-6970732e6b69,rev?*
G04 #@! TF.SameCoordinates,Original*
G04 #@! TF.FileFunction,Soldermask,Top*
G04 #@! TF.FilePolarity,Negative*
%FSLAX46Y46*%
G04 Gerber Fmt 4.6, Leading zero omitted, Abs format (unit mm)*
G04 Created by KiCad (PCBNEW 5.1.5+dfsg1-2build2) date 2021-01-13 09:23:00*
%MOMM*%
%LPD*%
G04 APERTURE LIST*
%ADD10C,0.100000*%
%ADD11C,0.350000*%
G04 APERTURE END LIST*
D10*
G36*
X131000000Y-15000000D02*
G01*
X127000000Y-15000000D01*
X127000000Y-12000000D01*
X131000000Y-12000000D01*
X131000000Y-15000000D01*
G37*
X131000000Y-15000000D02*
X127000000Y-15000000D01*
X127000000Y-12000000D01*
X131000000Y-12000000D01*
X131000000Y-15000000D01*
G36*
X131000000Y-8000000D02*
G01*
X127000000Y-8000000D01*
X127000000Y-5000000D01*
X131000000Y-5000000D01*
X131000000Y-8000000D01*
G37*
X131000000Y-8000000D02*
X127000000Y-8000000D01*
X127000000Y-5000000D01*
X131000000Y-5000000D01*
X131000000Y-8000000D01*
G36*
X19750000Y-11500000D02*
G01*
X4500000Y-10500000D01*
X4500000Y-9500000D01*
X19750000Y-8500000D01*
X19750000Y-11500000D01*
G37*
X19750000Y-11500000D02*
X4500000Y-10500000D01*
X4500000Y-9500000D01*
X19750000Y-8500000D01*
X19750000Y-11500000D01*
G36*
X121000000Y-12500000D02*
G01*
X118000000Y-12500000D01*
X118000000Y-7500000D01*
X121000000Y-7500000D01*
X121000000Y-12500000D01*
G37*
X121000000Y-12500000D02*
X118000000Y-12500000D01*
X118000000Y-7500000D01*
X121000000Y-7500000D01*
X121000000Y-12500000D01*
G36*
X117000000Y-8000000D02*
G01*
X113000000Y-8000000D01*
X113000000Y-5000000D01*
X117000000Y-5000000D01*
X117000000Y-8000000D01*
G37*
X117000000Y-8000000D02*
X113000000Y-8000000D01*
X113000000Y-5000000D01*
X117000000Y-5000000D01*
X117000000Y-8000000D01*
G36*
X117000000Y-15000000D02*
G01*
X113000000Y-15000000D01*
X113000000Y-12000000D01*
X117000000Y-12000000D01*
X117000000Y-15000000D01*
G37*
X117000000Y-15000000D02*
X113000000Y-15000000D01*
X113000000Y-12000000D01*
X117000000Y-12000000D01*
X117000000Y-15000000D01*
G36*
X145000000Y-15000000D02*
G01*
X141000000Y-15000000D01*
X141000000Y-12000000D01*
X145000000Y-12000000D01*
X145000000Y-15000000D01*
G37*
X145000000Y-15000000D02*
X141000000Y-15000000D01*
X141000000Y-12000000D01*
X145000000Y-12000000D01*
X145000000Y-15000000D01*
G36*
X145000000Y-8000000D02*
G01*
X141000000Y-8000000D01*
X141000000Y-5000000D01*
X145000000Y-5000000D01*
X145000000Y-8000000D01*
G37*
X145000000Y-8000000D02*
X141000000Y-8000000D01*
X141000000Y-5000000D01*
X145000000Y-5000000D01*
X145000000Y-8000000D01*
D11*
G36*
X38929591Y-10278085D02*
G01*
X38963569Y-10288393D01*
X38994890Y-10305134D01*
X39022339Y-10327661D01*
X39044866Y-10355110D01*
X39061607Y-10386431D01*
X39071915Y-10420409D01*
X39076000Y-10461890D01*
X39076000Y-11138110D01*
X39071915Y-11179591D01*
X39061607Y-11213569D01*
X39044866Y-11244890D01*
X39022339Y-11272339D01*
X38994890Y-11294866D01*
X38963569Y-11311607D01*
X38929591Y-11321915D01*
X38888110Y-11326000D01*
X38286890Y-11326000D01*
X38245409Y-11321915D01*
X38211431Y-11311607D01*
X38180110Y-11294866D01*
X38152661Y-11272339D01*
X38130134Y-11244890D01*
X38113393Y-11213569D01*
X38103085Y-11179591D01*
X38099000Y-11138110D01*
X38099000Y-10461890D01*
X38103085Y-10420409D01*
X38113393Y-10386431D01*
X38130134Y-10355110D01*
X38152661Y-10327661D01*
X38180110Y-10305134D01*
X38211431Y-10288393D01*
X38245409Y-10278085D01*
X38286890Y-10274000D01*
X38888110Y-10274000D01*
X38929591Y-10278085D01*
G37*
G36*
X37354591Y-10278085D02*
G01*
X37388569Y-10288393D01*
X37419890Y-10305134D01*
X37447339Y-10327661D01*
X37469866Y-10355110D01*
X37486607Y-10386431D01*
X37496915Y-10420409D01*
X37501000Y-10461890D01*
X37501000Y-11138110D01*
X37496915Y-11179591D01*
X37486607Y-11213569D01*
X37469866Y-11244890D01*
X37447339Y-11272339D01*
X37419890Y-11294866D01*
X37388569Y-11311607D01*
X37354591Y-11321915D01*
X37313110Y-11326000D01*
X36711890Y-11326000D01*
X36670409Y-11321915D01*
X36636431Y-11311607D01*
X36605110Y-11294866D01*
X36577661Y-11272339D01*
X36555134Y-11244890D01*
X36538393Y-11213569D01*
X36528085Y-11179591D01*
X36524000Y-11138110D01*
X36524000Y-10461890D01*
X36528085Y-10420409D01*
X36538393Y-10386431D01*
X36555134Y-10355110D01*
X36577661Y-10327661D01*
X36605110Y-10305134D01*
X36636431Y-10288393D01*
X36670409Y-10278085D01*
X36711890Y-10274000D01*
X37313110Y-10274000D01*
X37354591Y-10278085D01*
G37*
G36*
X118660721Y-9470174D02*
G01*
X118760995Y-9511709D01*
X118760996Y-9511710D01*
X118851242Y-9572010D01*
X118927990Y-9648758D01*
X118943746Y-9672339D01*
X118988291Y-9739005D01*
X119029826Y-9839279D01*
X119051000Y-9945730D01*
X119051000Y-10054270D01*
X119029826Y-10160721D01*
X118988291Y-10260995D01*
X118969984Y-10288393D01*
X118927990Y-10351242D01*
X118851242Y-10427990D01*
X118848494Y-10429826D01*
X118760995Y-10488291D01*
X118660721Y-10529826D01*
X118554270Y-10551000D01*
X118445730Y-10551000D01*
X118339279Y-10529826D01*
X118239005Y-10488291D01*
X118151506Y-10429826D01*
X118148758Y-10427990D01*
X118072010Y-10351242D01*
X118030016Y-10288393D01*
X118011709Y-10260995D01*
X117970174Y-10160721D01*
X117949000Y-10054270D01*
X117949000Y-9945730D01*
X117970174Y-9839279D01*
X118011709Y-9739005D01*
X118056254Y-9672339D01*
X118072010Y-9648758D01*
X118148758Y-9572010D01*
X118239004Y-9511710D01*
X118239005Y-9511709D01*
X118339279Y-9470174D01*
X118445730Y-9449000D01*
X118554270Y-9449000D01*
X118660721Y-9470174D01*
G37*
G36*
X15160721Y-9470174D02*
G01*
X15260995Y-9511709D01*
X15260996Y-9511710D01*
X15351242Y-9572010D01*
X15427990Y-9648758D01*
X15443746Y-9672339D01*
X15488291Y-9739005D01*
X15529826Y-9839279D01*
X15551000Y-9945730D01*
X15551000Y-10054270D01*
X15529826Y-10160721D01*
X15488291Y-10260995D01*
X15469984Y-10288393D01*
X15427990Y-10351242D01*
X15351242Y-10427990D01*
X15348494Y-10429826D01*
X15260995Y-10488291D01*
X15160721Y-10529826D01*
X15054270Y-10551000D01*
X14945730Y-10551000D01*
X14839279Y-10529826D01*
X14739005Y-10488291D01*
X14651506Y-10429826D01*
X14648758Y-10427990D01*
X14572010Y-10351242D01*
X14530016Y-10288393D01*
X14511709Y-10260995D01*
X14470174Y-10160721D01*
X14449000Y-10054270D01*
X14449000Y-9945730D01*
X14470174Y-9839279D01*
X14511709Y-9739005D01*
X14556254Y-9672339D01*
X14572010Y-9648758D01*
X14648758Y-9572010D01*
X14739004Y-9511710D01*
X14739005Y-9511709D01*
X14839279Y-9470174D01*
X14945730Y-9449000D01*
X15054270Y-9449000D01*
X15160721Y-9470174D01*
G37*
G36*
X143160721Y-9370174D02*
G01*
X143260995Y-9411709D01*
X143260996Y-9411710D01*
X143351242Y-9472010D01*
X143427990Y-9548758D01*
X143427991Y-9548760D01*
X143488291Y-9639005D01*
X143529826Y-9739279D01*
X143551000Y-9845730D01*
X143551000Y-9954270D01*
X143529826Y-10060721D01*
X143488291Y-10160995D01*
X143488290Y-10160996D01*
X143427990Y-10251242D01*
X143351242Y-10327990D01*
X143324978Y-10345539D01*
X143260995Y-10388291D01*
X143160721Y-10429826D01*
X143054270Y-10451000D01*
X142945730Y-10451000D01*
X142839279Y-10429826D01*
X142739005Y-10388291D01*
X142675022Y-10345539D01*
X142648758Y-10327990D01*
X142572010Y-10251242D01*
X142511710Y-10160996D01*
X142511709Y-10160995D01*
X142470174Y-10060721D01*
X142449000Y-9954270D01*
X142449000Y-9845730D01*
X142470174Y-9739279D01*
X142511709Y-9639005D01*
X142572009Y-9548760D01*
X142572010Y-9548758D01*
X142648758Y-9472010D01*
X142739004Y-9411710D01*
X142739005Y-9411709D01*
X142839279Y-9370174D01*
X142945730Y-9349000D01*
X143054270Y-9349000D01*
X143160721Y-9370174D01*
G37*
G36*
X38929591Y-8678085D02*
G01*
X38963569Y-8688393D01*
X38994890Y-8705134D01*
X39022339Y-8727661D01*
X39044866Y-8755110D01*
X39061607Y-8786431D01*
X39071915Y-8820409D01*
X39076000Y-8861890D01*
X39076000Y-9538110D01*
X39071915Y-9579591D01*
X39061607Y-9613569D01*
X39044866Y-9644890D01*
X39022339Y-9672339D01*
X38994890Y-9694866D01*
X38963569Y-9711607D01*
X38929591Y-9721915D01*
X38888110Y-9726000D01*
X38286890Y-9726000D01*
X38245409Y-9721915D01*
X38211431Y-9711607D01*
X38180110Y-9694866D01*
X38152661Y-9672339D01*
X38130134Y-9644890D01*
X38113393Y-9613569D01*
X38103085Y-9579591D01*
X38099000Y-9538110D01*
X38099000Y-8861890D01*
X38103085Y-8820409D01*
X38113393Y-8786431D01*
X38130134Y-8755110D01*
X38152661Y-8727661D01*
X38180110Y-8705134D01*
X38211431Y-8688393D01*
X38245409Y-8678085D01*
X38286890Y-8674000D01*
X38888110Y-8674000D01*
X38929591Y-8678085D01*
G37*
G36*
X37354591Y-8678085D02*
G01*
X37388569Y-8688393D01*
X37419890Y-8705134D01*
X37447339Y-8727661D01*
X37469866Y-8755110D01*
X37486607Y-8786431D01*
X37496915Y-8820409D01*
X37501000Y-8861890D01*
X37501000Y-9538110D01*
X37496915Y-9579591D01*
X37486607Y-9613569D01*
X37469866Y-9644890D01*
X37447339Y-9672339D01*
X37419890Y-9694866D01*
X37388569Y-9711607D01*
X37354591Y-9721915D01*
X37313110Y-9726000D01*
X36711890Y-9726000D01*
X36670409Y-9721915D01*
X36636431Y-9711607D01*
X36605110Y-9694866D01*
X36577661Y-9672339D01*
X36555134Y-9644890D01*
X36538393Y-9613569D01*
X36528085Y-9579591D01*
X36524000Y-9538110D01*
X36524000Y-8861890D01*
X36528085Y-8820409D01*
X36538393Y-8786431D01*
X36555134Y-8755110D01*
X36577661Y-8727661D01*
X36605110Y-8705134D01*
X36636431Y-8688393D01*
X36670409Y-8678085D01*
X36711890Y-8674000D01*
X37313110Y-8674000D01*
X37354591Y-8678085D01*
G37*
M02*
