G04 #@! TF.GenerationSoftware,KiCad,Pcbnew,5.1.9-73d0e3b20d~88~ubuntu20.04.1*
G04 #@! TF.CreationDate,2021-06-04T14:44:12+03:00*
G04 #@! TF.ProjectId,tweezer-tips,74776565-7a65-4722-9d74-6970732e6b69,rev?*
G04 #@! TF.SameCoordinates,Original*
G04 #@! TF.FileFunction,Copper,L1,Top*
G04 #@! TF.FilePolarity,Positive*
%FSLAX46Y46*%
G04 Gerber Fmt 4.6, Leading zero omitted, Abs format (unit mm)*
G04 Created by KiCad (PCBNEW 5.1.9-73d0e3b20d~88~ubuntu20.04.1) date 2021-06-04 14:44:12*
%MOMM*%
%LPD*%
G01*
G04 APERTURE LIST*
G04 #@! TA.AperFunction,SMDPad,CuDef*
%ADD10C,0.350000*%
G04 #@! TD*
G04 #@! TA.AperFunction,SMDPad,CuDef*
%ADD11R,2.000000X0.500000*%
G04 #@! TD*
G04 #@! TA.AperFunction,ComponentPad*
%ADD12C,1.000000*%
G04 #@! TD*
G04 #@! TA.AperFunction,SMDPad,CuDef*
%ADD13C,1.000000*%
G04 #@! TD*
G04 #@! TA.AperFunction,ViaPad*
%ADD14C,0.800000*%
G04 #@! TD*
G04 #@! TA.AperFunction,Conductor*
%ADD15C,0.500000*%
G04 #@! TD*
G04 #@! TA.AperFunction,Conductor*
%ADD16C,0.200000*%
G04 #@! TD*
G04 #@! TA.AperFunction,Conductor*
%ADD17C,0.350000*%
G04 #@! TD*
G04 #@! TA.AperFunction,Conductor*
%ADD18C,0.150000*%
G04 #@! TD*
%ADD19C,0.350000*%
G04 APERTURE END LIST*
G04 #@! TA.AperFunction,SMDPad,CuDef*
D10*
G04 #@! TO.P,E2,2*
G04 #@! TO.N,GND*
G36*
X41500000Y-10400005D02*
G01*
X41999995Y-10900000D01*
X41500000Y-11399995D01*
X41000005Y-10900000D01*
X41500000Y-10400005D01*
G37*
G04 #@! TD.AperFunction*
G04 #@! TA.AperFunction,SMDPad,CuDef*
G36*
X40500000Y-10400005D02*
G01*
X40999995Y-10900000D01*
X40500000Y-11399995D01*
X40000005Y-10900000D01*
X40500000Y-10400005D01*
G37*
G04 #@! TD.AperFunction*
G04 #@! TA.AperFunction,SMDPad,CuDef*
G36*
X41000000Y-10400005D02*
G01*
X41499995Y-10900000D01*
X41000000Y-11399995D01*
X40500005Y-10900000D01*
X41000000Y-10400005D01*
G37*
G04 #@! TD.AperFunction*
G04 #@! TA.AperFunction,SMDPad,CuDef*
G04 #@! TO.P,E2,1*
G04 #@! TO.N,/AMP*
G36*
X41250000Y-9646447D02*
G01*
X41603553Y-10000000D01*
X41250000Y-10353553D01*
X40896447Y-10000000D01*
X41250000Y-9646447D01*
G37*
G04 #@! TD.AperFunction*
G04 #@! TA.AperFunction,SMDPad,CuDef*
G36*
X40750000Y-9646447D02*
G01*
X41103553Y-10000000D01*
X40750000Y-10353553D01*
X40396447Y-10000000D01*
X40750000Y-9646447D01*
G37*
G04 #@! TD.AperFunction*
G04 #@! TO.P,E2,2*
G04 #@! TO.N,GND*
G04 #@! TA.AperFunction,SMDPad,CuDef*
G36*
G01*
X42000000Y-10600000D02*
X42000000Y-11400000D01*
G75*
G02*
X41900000Y-11500000I-100000J0D01*
G01*
X40100000Y-11500000D01*
G75*
G02*
X40000000Y-11400000I0J100000D01*
G01*
X40000000Y-10600000D01*
G75*
G02*
X40100000Y-10500000I100000J0D01*
G01*
X41900000Y-10500000D01*
G75*
G02*
X42000000Y-10600000I0J-100000D01*
G01*
G37*
G04 #@! TD.AperFunction*
G04 #@! TA.AperFunction,SMDPad,CuDef*
G36*
G01*
X40000000Y-9400000D02*
X40000000Y-8600000D01*
G75*
G02*
X40100000Y-8500000I100000J0D01*
G01*
X41900000Y-8500000D01*
G75*
G02*
X42000000Y-8600000I0J-100000D01*
G01*
X42000000Y-9400000D01*
G75*
G02*
X41900000Y-9500000I-100000J0D01*
G01*
X40100000Y-9500000D01*
G75*
G02*
X40000000Y-9400000I0J100000D01*
G01*
G37*
G04 #@! TD.AperFunction*
G04 #@! TA.AperFunction,SMDPad,CuDef*
G36*
X41500000Y-9599995D02*
G01*
X41000005Y-9100000D01*
X41500000Y-8600005D01*
X41999995Y-9100000D01*
X41500000Y-9599995D01*
G37*
G04 #@! TD.AperFunction*
G04 #@! TA.AperFunction,SMDPad,CuDef*
G36*
X41000000Y-9599995D02*
G01*
X40500005Y-9100000D01*
X41000000Y-8600005D01*
X41499995Y-9100000D01*
X41000000Y-9599995D01*
G37*
G04 #@! TD.AperFunction*
G04 #@! TA.AperFunction,SMDPad,CuDef*
G36*
X40500000Y-9599995D02*
G01*
X40000005Y-9100000D01*
X40500000Y-8600005D01*
X40999995Y-9100000D01*
X40500000Y-9599995D01*
G37*
G04 #@! TD.AperFunction*
D11*
G04 #@! TO.P,E2,1*
G04 #@! TO.N,/AMP*
X41000000Y-10000000D03*
G04 #@! TD*
G04 #@! TA.AperFunction,SMDPad,CuDef*
D10*
G04 #@! TO.P,E1,2*
G04 #@! TO.N,GND*
G36*
X23900000Y-10400005D02*
G01*
X24399995Y-10900000D01*
X23900000Y-11399995D01*
X23400005Y-10900000D01*
X23900000Y-10400005D01*
G37*
G04 #@! TD.AperFunction*
G04 #@! TA.AperFunction,SMDPad,CuDef*
G36*
X22900000Y-10400005D02*
G01*
X23399995Y-10900000D01*
X22900000Y-11399995D01*
X22400005Y-10900000D01*
X22900000Y-10400005D01*
G37*
G04 #@! TD.AperFunction*
G04 #@! TA.AperFunction,SMDPad,CuDef*
G36*
X23400000Y-10400005D02*
G01*
X23899995Y-10900000D01*
X23400000Y-11399995D01*
X22900005Y-10900000D01*
X23400000Y-10400005D01*
G37*
G04 #@! TD.AperFunction*
G04 #@! TA.AperFunction,SMDPad,CuDef*
G04 #@! TO.P,E1,1*
G04 #@! TO.N,/TIP*
G36*
X23650000Y-9646447D02*
G01*
X24003553Y-10000000D01*
X23650000Y-10353553D01*
X23296447Y-10000000D01*
X23650000Y-9646447D01*
G37*
G04 #@! TD.AperFunction*
G04 #@! TA.AperFunction,SMDPad,CuDef*
G36*
X23150000Y-9646447D02*
G01*
X23503553Y-10000000D01*
X23150000Y-10353553D01*
X22796447Y-10000000D01*
X23150000Y-9646447D01*
G37*
G04 #@! TD.AperFunction*
G04 #@! TO.P,E1,2*
G04 #@! TO.N,GND*
G04 #@! TA.AperFunction,SMDPad,CuDef*
G36*
G01*
X24400000Y-10600000D02*
X24400000Y-11400000D01*
G75*
G02*
X24300000Y-11500000I-100000J0D01*
G01*
X22500000Y-11500000D01*
G75*
G02*
X22400000Y-11400000I0J100000D01*
G01*
X22400000Y-10600000D01*
G75*
G02*
X22500000Y-10500000I100000J0D01*
G01*
X24300000Y-10500000D01*
G75*
G02*
X24400000Y-10600000I0J-100000D01*
G01*
G37*
G04 #@! TD.AperFunction*
G04 #@! TA.AperFunction,SMDPad,CuDef*
G36*
G01*
X22400000Y-9400000D02*
X22400000Y-8600000D01*
G75*
G02*
X22500000Y-8500000I100000J0D01*
G01*
X24300000Y-8500000D01*
G75*
G02*
X24400000Y-8600000I0J-100000D01*
G01*
X24400000Y-9400000D01*
G75*
G02*
X24300000Y-9500000I-100000J0D01*
G01*
X22500000Y-9500000D01*
G75*
G02*
X22400000Y-9400000I0J100000D01*
G01*
G37*
G04 #@! TD.AperFunction*
G04 #@! TA.AperFunction,SMDPad,CuDef*
G36*
X23900000Y-9599995D02*
G01*
X23400005Y-9100000D01*
X23900000Y-8600005D01*
X24399995Y-9100000D01*
X23900000Y-9599995D01*
G37*
G04 #@! TD.AperFunction*
G04 #@! TA.AperFunction,SMDPad,CuDef*
G36*
X23400000Y-9599995D02*
G01*
X22900005Y-9100000D01*
X23400000Y-8600005D01*
X23899995Y-9100000D01*
X23400000Y-9599995D01*
G37*
G04 #@! TD.AperFunction*
G04 #@! TA.AperFunction,SMDPad,CuDef*
G36*
X22900000Y-9599995D02*
G01*
X22400005Y-9100000D01*
X22900000Y-8600005D01*
X23399995Y-9100000D01*
X22900000Y-9599995D01*
G37*
G04 #@! TD.AperFunction*
D11*
G04 #@! TO.P,E1,1*
G04 #@! TO.N,/TIP*
X23400000Y-10000000D03*
G04 #@! TD*
G04 #@! TO.P,C2,2*
G04 #@! TO.N,GND*
G04 #@! TA.AperFunction,SMDPad,CuDef*
G36*
G01*
X33343750Y-11150000D02*
X33856250Y-11150000D01*
G75*
G02*
X34075000Y-11368750I0J-218750D01*
G01*
X34075000Y-11806250D01*
G75*
G02*
X33856250Y-12025000I-218750J0D01*
G01*
X33343750Y-12025000D01*
G75*
G02*
X33125000Y-11806250I0J218750D01*
G01*
X33125000Y-11368750D01*
G75*
G02*
X33343750Y-11150000I218750J0D01*
G01*
G37*
G04 #@! TD.AperFunction*
G04 #@! TO.P,C2,1*
G04 #@! TO.N,/AMP*
G04 #@! TA.AperFunction,SMDPad,CuDef*
G36*
G01*
X33343750Y-9575000D02*
X33856250Y-9575000D01*
G75*
G02*
X34075000Y-9793750I0J-218750D01*
G01*
X34075000Y-10231250D01*
G75*
G02*
X33856250Y-10450000I-218750J0D01*
G01*
X33343750Y-10450000D01*
G75*
G02*
X33125000Y-10231250I0J218750D01*
G01*
X33125000Y-9793750D01*
G75*
G02*
X33343750Y-9575000I218750J0D01*
G01*
G37*
G04 #@! TD.AperFunction*
G04 #@! TD*
D12*
G04 #@! TO.P,J2,1*
G04 #@! TO.N,/AMP*
X108900000Y-10000000D03*
G04 #@! TD*
G04 #@! TO.P,R2,2*
G04 #@! TO.N,/TIP*
G04 #@! TA.AperFunction,SMDPad,CuDef*
G36*
G01*
X27650000Y-9743750D02*
X27650000Y-10256250D01*
G75*
G02*
X27431250Y-10475000I-218750J0D01*
G01*
X26993750Y-10475000D01*
G75*
G02*
X26775000Y-10256250I0J218750D01*
G01*
X26775000Y-9743750D01*
G75*
G02*
X26993750Y-9525000I218750J0D01*
G01*
X27431250Y-9525000D01*
G75*
G02*
X27650000Y-9743750I0J-218750D01*
G01*
G37*
G04 #@! TD.AperFunction*
G04 #@! TO.P,R2,1*
G04 #@! TO.N,Net-(C1-Pad1)*
G04 #@! TA.AperFunction,SMDPad,CuDef*
G36*
G01*
X29225000Y-9743750D02*
X29225000Y-10256250D01*
G75*
G02*
X29006250Y-10475000I-218750J0D01*
G01*
X28568750Y-10475000D01*
G75*
G02*
X28350000Y-10256250I0J218750D01*
G01*
X28350000Y-9743750D01*
G75*
G02*
X28568750Y-9525000I218750J0D01*
G01*
X29006250Y-9525000D01*
G75*
G02*
X29225000Y-9743750I0J-218750D01*
G01*
G37*
G04 #@! TD.AperFunction*
G04 #@! TD*
D13*
G04 #@! TO.P,J3,1*
G04 #@! TO.N,GND*
X106200000Y-11400000D03*
G04 #@! TD*
G04 #@! TO.P,J1,1*
G04 #@! TO.N,/TIP*
X15000000Y-10000000D03*
G04 #@! TD*
G04 #@! TO.P,R1,2*
G04 #@! TO.N,Net-(C1-Pad1)*
G04 #@! TA.AperFunction,SMDPad,CuDef*
G36*
G01*
X30650000Y-10543750D02*
X30650000Y-11056250D01*
G75*
G02*
X30431250Y-11275000I-218750J0D01*
G01*
X29993750Y-11275000D01*
G75*
G02*
X29775000Y-11056250I0J218750D01*
G01*
X29775000Y-10543750D01*
G75*
G02*
X29993750Y-10325000I218750J0D01*
G01*
X30431250Y-10325000D01*
G75*
G02*
X30650000Y-10543750I0J-218750D01*
G01*
G37*
G04 #@! TD.AperFunction*
G04 #@! TO.P,R1,1*
G04 #@! TO.N,/AMP*
G04 #@! TA.AperFunction,SMDPad,CuDef*
G36*
G01*
X32225000Y-10543750D02*
X32225000Y-11056250D01*
G75*
G02*
X32006250Y-11275000I-218750J0D01*
G01*
X31568750Y-11275000D01*
G75*
G02*
X31350000Y-11056250I0J218750D01*
G01*
X31350000Y-10543750D01*
G75*
G02*
X31568750Y-10325000I218750J0D01*
G01*
X32006250Y-10325000D01*
G75*
G02*
X32225000Y-10543750I0J-218750D01*
G01*
G37*
G04 #@! TD.AperFunction*
G04 #@! TD*
G04 #@! TO.P,C1,2*
G04 #@! TO.N,/AMP*
G04 #@! TA.AperFunction,SMDPad,CuDef*
G36*
G01*
X31350000Y-9456250D02*
X31350000Y-8943750D01*
G75*
G02*
X31568750Y-8725000I218750J0D01*
G01*
X32006250Y-8725000D01*
G75*
G02*
X32225000Y-8943750I0J-218750D01*
G01*
X32225000Y-9456250D01*
G75*
G02*
X32006250Y-9675000I-218750J0D01*
G01*
X31568750Y-9675000D01*
G75*
G02*
X31350000Y-9456250I0J218750D01*
G01*
G37*
G04 #@! TD.AperFunction*
G04 #@! TO.P,C1,1*
G04 #@! TO.N,Net-(C1-Pad1)*
G04 #@! TA.AperFunction,SMDPad,CuDef*
G36*
G01*
X29775000Y-9456250D02*
X29775000Y-8943750D01*
G75*
G02*
X29993750Y-8725000I218750J0D01*
G01*
X30431250Y-8725000D01*
G75*
G02*
X30650000Y-8943750I0J-218750D01*
G01*
X30650000Y-9456250D01*
G75*
G02*
X30431250Y-9675000I-218750J0D01*
G01*
X29993750Y-9675000D01*
G75*
G02*
X29775000Y-9456250I0J218750D01*
G01*
G37*
G04 #@! TD.AperFunction*
G04 #@! TD*
D14*
G04 #@! TO.N,GND*
X41000000Y-8000000D03*
X103500000Y-8500000D03*
X112400000Y-8500000D03*
X41000000Y-12000000D03*
X103500000Y-11500000D03*
X112400000Y-11600000D03*
X23400000Y-11000000D03*
X23400000Y-8999996D03*
G04 #@! TD*
D15*
G04 #@! TO.N,GND*
X102900000Y-7900000D02*
X103500000Y-8500000D01*
X91700000Y-6600000D02*
X93000000Y-7900000D01*
X63900000Y-6600000D02*
X91700000Y-6600000D01*
X93000000Y-7900000D02*
X102900000Y-7900000D01*
X62500000Y-8000000D02*
X63900000Y-6600000D01*
X41000000Y-8000000D02*
X62500000Y-8000000D01*
X103100000Y-11900000D02*
X103500000Y-11500000D01*
X62100000Y-12000000D02*
X63500000Y-13400000D01*
X63500000Y-13400000D02*
X91900000Y-13400000D01*
X41000000Y-12000000D02*
X62100000Y-12000000D01*
X93400000Y-11900000D02*
X103100000Y-11900000D01*
X91900000Y-13400000D02*
X93400000Y-11900000D01*
X23400000Y-10900000D02*
X23400000Y-11000000D01*
X23400000Y-9000000D02*
X23400000Y-8999996D01*
G04 #@! TO.N,/AMP*
X106700000Y-10000000D02*
X108900000Y-10000000D01*
X32587500Y-10000000D02*
X31787500Y-9200000D01*
X106700000Y-10000000D02*
X32587500Y-10000000D01*
X31787500Y-10800000D02*
X32587500Y-10000000D01*
G04 #@! TO.N,/TIP*
X20800000Y-10000000D02*
X20600000Y-10000000D01*
X27212500Y-10000000D02*
X20800000Y-10000000D01*
X20800000Y-10000000D02*
X15000000Y-10000000D01*
X20600000Y-10000000D02*
X19800000Y-9200000D01*
X20600000Y-10000000D02*
X19900000Y-10700000D01*
X19900000Y-10700000D02*
X19700000Y-10900000D01*
G04 #@! TO.N,Net-(C1-Pad1)*
X29412500Y-10000000D02*
X30212500Y-9200000D01*
X29412500Y-10000000D02*
X30212500Y-10800000D01*
X28787500Y-10000000D02*
X29412500Y-10000000D01*
G04 #@! TD*
D16*
G04 #@! TO.N,/TIP*
X19900000Y-11222063D02*
X5027296Y-10176118D01*
X4966311Y-10170139D01*
X4933910Y-10160356D01*
X4904016Y-10144462D01*
X4877786Y-10123068D01*
X4856211Y-10096989D01*
X4840111Y-10067213D01*
X4830101Y-10034875D01*
X4826563Y-10001212D01*
X4829631Y-9967498D01*
X4839187Y-9935030D01*
X4854872Y-9905027D01*
X4876081Y-9878648D01*
X4902011Y-9856891D01*
X4931674Y-9840584D01*
X4963937Y-9830349D01*
X5012011Y-9824957D01*
X19900000Y-8777937D01*
X19900000Y-11222063D01*
G04 #@! TA.AperFunction,Conductor*
D17*
G36*
X19900000Y-11222063D02*
G01*
X5027296Y-10176118D01*
X4966311Y-10170139D01*
X4933910Y-10160356D01*
X4904016Y-10144462D01*
X4877786Y-10123068D01*
X4856211Y-10096989D01*
X4840111Y-10067213D01*
X4830101Y-10034875D01*
X4826563Y-10001212D01*
X4829631Y-9967498D01*
X4839187Y-9935030D01*
X4854872Y-9905027D01*
X4876081Y-9878648D01*
X4902011Y-9856891D01*
X4931674Y-9840584D01*
X4963937Y-9830349D01*
X5012011Y-9824957D01*
X19900000Y-8777937D01*
X19900000Y-11222063D01*
G37*
G04 #@! TD.AperFunction*
G04 #@! TD*
D16*
G04 #@! TO.N,/AMP*
X110009732Y-7678779D02*
X110136351Y-7703943D01*
X110242753Y-7762300D01*
X110326679Y-7849954D01*
X110380359Y-7958792D01*
X110400000Y-8086385D01*
X110400000Y-11913615D01*
X110380359Y-12041208D01*
X110326679Y-12150046D01*
X110242753Y-12237700D01*
X110136351Y-12296057D01*
X110009732Y-12321221D01*
X108724105Y-12377118D01*
X108610731Y-12366765D01*
X108510550Y-12329043D01*
X108423999Y-12266050D01*
X108357305Y-12182317D01*
X108315269Y-12083871D01*
X108300000Y-11971049D01*
X108300000Y-11207107D01*
X108299145Y-11194054D01*
X108282108Y-11064644D01*
X108275351Y-11039429D01*
X108225401Y-10918839D01*
X108212348Y-10896231D01*
X108132888Y-10792677D01*
X108124264Y-10782842D01*
X107616767Y-10275345D01*
X107552039Y-10190989D01*
X107513879Y-10098864D01*
X107500863Y-10000000D01*
X107513879Y-9901136D01*
X107552039Y-9809011D01*
X107616767Y-9724655D01*
X108124264Y-9217158D01*
X108132888Y-9207323D01*
X108212348Y-9103769D01*
X108225401Y-9081161D01*
X108275351Y-8960571D01*
X108282108Y-8935356D01*
X108299145Y-8805946D01*
X108300000Y-8792893D01*
X108300000Y-8028951D01*
X108315269Y-7916129D01*
X108357305Y-7817683D01*
X108423999Y-7733950D01*
X108510550Y-7670957D01*
X108610731Y-7633235D01*
X108724105Y-7622882D01*
X110009732Y-7678779D01*
G04 #@! TA.AperFunction,Conductor*
D17*
G36*
X110009732Y-7678779D02*
G01*
X110136351Y-7703943D01*
X110242753Y-7762300D01*
X110326679Y-7849954D01*
X110380359Y-7958792D01*
X110400000Y-8086385D01*
X110400000Y-11913615D01*
X110380359Y-12041208D01*
X110326679Y-12150046D01*
X110242753Y-12237700D01*
X110136351Y-12296057D01*
X110009732Y-12321221D01*
X108724105Y-12377118D01*
X108610731Y-12366765D01*
X108510550Y-12329043D01*
X108423999Y-12266050D01*
X108357305Y-12182317D01*
X108315269Y-12083871D01*
X108300000Y-11971049D01*
X108300000Y-11207107D01*
X108299145Y-11194054D01*
X108282108Y-11064644D01*
X108275351Y-11039429D01*
X108225401Y-10918839D01*
X108212348Y-10896231D01*
X108132888Y-10792677D01*
X108124264Y-10782842D01*
X107616767Y-10275345D01*
X107552039Y-10190989D01*
X107513879Y-10098864D01*
X107500863Y-10000000D01*
X107513879Y-9901136D01*
X107552039Y-9809011D01*
X107616767Y-9724655D01*
X108124264Y-9217158D01*
X108132888Y-9207323D01*
X108212348Y-9103769D01*
X108225401Y-9081161D01*
X108275351Y-8960571D01*
X108282108Y-8935356D01*
X108299145Y-8805946D01*
X108300000Y-8792893D01*
X108300000Y-8028951D01*
X108315269Y-7916129D01*
X108357305Y-7817683D01*
X108423999Y-7733950D01*
X108510550Y-7670957D01*
X108610731Y-7633235D01*
X108724105Y-7622882D01*
X110009732Y-7678779D01*
G37*
G04 #@! TD.AperFunction*
G04 #@! TD*
D18*
G04 #@! TO.N,GND*
X40000000Y-10827782D02*
X40421473Y-10827782D01*
X40429002Y-10833961D01*
X40528892Y-10887354D01*
X40637280Y-10920233D01*
X40750000Y-10931335D01*
X40862720Y-10920233D01*
X40971108Y-10887354D01*
X41000000Y-10871911D01*
X41028892Y-10887354D01*
X41137280Y-10920233D01*
X41250000Y-10931335D01*
X41362720Y-10920233D01*
X41471108Y-10887354D01*
X41570998Y-10833961D01*
X41578527Y-10827782D01*
X42000000Y-10827782D01*
X42028246Y-10825000D01*
X107211828Y-10825000D01*
X107620315Y-11233487D01*
X107624173Y-11238515D01*
X107625000Y-11244795D01*
X107625000Y-11977789D01*
X107630195Y-12054906D01*
X107648182Y-12187809D01*
X107689177Y-12336490D01*
X107741843Y-12459832D01*
X107820889Y-12592276D01*
X107904447Y-12697181D01*
X108015846Y-12803842D01*
X108124281Y-12882763D01*
X108260026Y-12955977D01*
X108359609Y-12993473D01*
X94751970Y-13700277D01*
X94732287Y-13680456D01*
X94725795Y-13675162D01*
X94725792Y-13675159D01*
X94725788Y-13675156D01*
X94649745Y-13614016D01*
X94604278Y-13584263D01*
X94559156Y-13553828D01*
X94551764Y-13549899D01*
X94551760Y-13549896D01*
X94551756Y-13549894D01*
X94465280Y-13504686D01*
X94414892Y-13484327D01*
X94364730Y-13463241D01*
X94356710Y-13460820D01*
X94263099Y-13433268D01*
X94209726Y-13423087D01*
X94156407Y-13412142D01*
X94148069Y-13411325D01*
X94050887Y-13402481D01*
X93996542Y-13402861D01*
X93942130Y-13402481D01*
X93933793Y-13403299D01*
X93933790Y-13403299D01*
X93933787Y-13403300D01*
X93836745Y-13413499D01*
X93783525Y-13424423D01*
X93730056Y-13434623D01*
X93722037Y-13437045D01*
X93628818Y-13465901D01*
X93578740Y-13486952D01*
X93528261Y-13507347D01*
X93520864Y-13511281D01*
X93435027Y-13557693D01*
X93389963Y-13588090D01*
X93344440Y-13617879D01*
X93337951Y-13623172D01*
X93337947Y-13623175D01*
X93337943Y-13623179D01*
X93262760Y-13685376D01*
X93224469Y-13723935D01*
X93185591Y-13762007D01*
X93180251Y-13768462D01*
X93118575Y-13844083D01*
X93088489Y-13889366D01*
X93057753Y-13934255D01*
X93053769Y-13941624D01*
X93007957Y-14027785D01*
X92987246Y-14078035D01*
X92965813Y-14128041D01*
X92963336Y-14136043D01*
X92935131Y-14229461D01*
X92924582Y-14282740D01*
X92913260Y-14336004D01*
X92912385Y-14344335D01*
X92906927Y-14400000D01*
X70009945Y-14400000D01*
X67715259Y-14323877D01*
X66592659Y-14230492D01*
X66588863Y-14229847D01*
X32375000Y-11823706D01*
X32375000Y-11757978D01*
X32448779Y-11718542D01*
X32569483Y-11619483D01*
X32668542Y-11498779D01*
X32742150Y-11361070D01*
X32787477Y-11211646D01*
X32802782Y-11056250D01*
X32802782Y-10951444D01*
X32878956Y-10875270D01*
X32901221Y-10893542D01*
X33038930Y-10967150D01*
X33188354Y-11012477D01*
X33343750Y-11027782D01*
X33856250Y-11027782D01*
X34011646Y-11012477D01*
X34161070Y-10967150D01*
X34298779Y-10893542D01*
X34382298Y-10825000D01*
X39971754Y-10825000D01*
X40000000Y-10827782D01*
G04 #@! TA.AperFunction,Conductor*
D17*
G36*
X40000000Y-10827782D02*
G01*
X40421473Y-10827782D01*
X40429002Y-10833961D01*
X40528892Y-10887354D01*
X40637280Y-10920233D01*
X40750000Y-10931335D01*
X40862720Y-10920233D01*
X40971108Y-10887354D01*
X41000000Y-10871911D01*
X41028892Y-10887354D01*
X41137280Y-10920233D01*
X41250000Y-10931335D01*
X41362720Y-10920233D01*
X41471108Y-10887354D01*
X41570998Y-10833961D01*
X41578527Y-10827782D01*
X42000000Y-10827782D01*
X42028246Y-10825000D01*
X107211828Y-10825000D01*
X107620315Y-11233487D01*
X107624173Y-11238515D01*
X107625000Y-11244795D01*
X107625000Y-11977789D01*
X107630195Y-12054906D01*
X107648182Y-12187809D01*
X107689177Y-12336490D01*
X107741843Y-12459832D01*
X107820889Y-12592276D01*
X107904447Y-12697181D01*
X108015846Y-12803842D01*
X108124281Y-12882763D01*
X108260026Y-12955977D01*
X108359609Y-12993473D01*
X94751970Y-13700277D01*
X94732287Y-13680456D01*
X94725795Y-13675162D01*
X94725792Y-13675159D01*
X94725788Y-13675156D01*
X94649745Y-13614016D01*
X94604278Y-13584263D01*
X94559156Y-13553828D01*
X94551764Y-13549899D01*
X94551760Y-13549896D01*
X94551756Y-13549894D01*
X94465280Y-13504686D01*
X94414892Y-13484327D01*
X94364730Y-13463241D01*
X94356710Y-13460820D01*
X94263099Y-13433268D01*
X94209726Y-13423087D01*
X94156407Y-13412142D01*
X94148069Y-13411325D01*
X94050887Y-13402481D01*
X93996542Y-13402861D01*
X93942130Y-13402481D01*
X93933793Y-13403299D01*
X93933790Y-13403299D01*
X93933787Y-13403300D01*
X93836745Y-13413499D01*
X93783525Y-13424423D01*
X93730056Y-13434623D01*
X93722037Y-13437045D01*
X93628818Y-13465901D01*
X93578740Y-13486952D01*
X93528261Y-13507347D01*
X93520864Y-13511281D01*
X93435027Y-13557693D01*
X93389963Y-13588090D01*
X93344440Y-13617879D01*
X93337951Y-13623172D01*
X93337947Y-13623175D01*
X93337943Y-13623179D01*
X93262760Y-13685376D01*
X93224469Y-13723935D01*
X93185591Y-13762007D01*
X93180251Y-13768462D01*
X93118575Y-13844083D01*
X93088489Y-13889366D01*
X93057753Y-13934255D01*
X93053769Y-13941624D01*
X93007957Y-14027785D01*
X92987246Y-14078035D01*
X92965813Y-14128041D01*
X92963336Y-14136043D01*
X92935131Y-14229461D01*
X92924582Y-14282740D01*
X92913260Y-14336004D01*
X92912385Y-14344335D01*
X92906927Y-14400000D01*
X70009945Y-14400000D01*
X67715259Y-14323877D01*
X66592659Y-14230492D01*
X66588863Y-14229847D01*
X32375000Y-11823706D01*
X32375000Y-11757978D01*
X32448779Y-11718542D01*
X32569483Y-11619483D01*
X32668542Y-11498779D01*
X32742150Y-11361070D01*
X32787477Y-11211646D01*
X32802782Y-11056250D01*
X32802782Y-10951444D01*
X32878956Y-10875270D01*
X32901221Y-10893542D01*
X33038930Y-10967150D01*
X33188354Y-11012477D01*
X33343750Y-11027782D01*
X33856250Y-11027782D01*
X34011646Y-11012477D01*
X34161070Y-10967150D01*
X34298779Y-10893542D01*
X34382298Y-10825000D01*
X39971754Y-10825000D01*
X40000000Y-10827782D01*
G37*
G04 #@! TD.AperFunction*
D18*
X112055012Y-7198472D02*
X112070526Y-7200000D01*
X112084430Y-7200000D01*
X112098311Y-7200721D01*
X112113878Y-7200000D01*
X133900001Y-7200000D01*
X133900000Y-12800000D01*
X112113878Y-12800000D01*
X112098311Y-12799279D01*
X112084430Y-12800000D01*
X112070526Y-12800000D01*
X112055012Y-12801528D01*
X110468118Y-12883954D01*
X110580842Y-12822130D01*
X110634100Y-12789020D01*
X110719660Y-12715635D01*
X110824878Y-12605743D01*
X110865714Y-12558148D01*
X110925243Y-12462429D01*
X110992541Y-12325981D01*
X111017173Y-12268309D01*
X111045159Y-12159118D01*
X111068306Y-12008748D01*
X111075000Y-11921267D01*
X111075000Y-8078733D01*
X111068306Y-7991252D01*
X111045159Y-7840882D01*
X111032252Y-7779512D01*
X110992541Y-7674019D01*
X110925243Y-7537571D01*
X110894477Y-7482923D01*
X110824878Y-7394257D01*
X110719660Y-7284365D01*
X110673884Y-7241501D01*
X110580842Y-7177870D01*
X110468118Y-7116046D01*
X112055012Y-7198472D01*
G04 #@! TA.AperFunction,Conductor*
D17*
G36*
X112055012Y-7198472D02*
G01*
X112070526Y-7200000D01*
X112084430Y-7200000D01*
X112098311Y-7200721D01*
X112113878Y-7200000D01*
X133900001Y-7200000D01*
X133900000Y-12800000D01*
X112113878Y-12800000D01*
X112098311Y-12799279D01*
X112084430Y-12800000D01*
X112070526Y-12800000D01*
X112055012Y-12801528D01*
X110468118Y-12883954D01*
X110580842Y-12822130D01*
X110634100Y-12789020D01*
X110719660Y-12715635D01*
X110824878Y-12605743D01*
X110865714Y-12558148D01*
X110925243Y-12462429D01*
X110992541Y-12325981D01*
X111017173Y-12268309D01*
X111045159Y-12159118D01*
X111068306Y-12008748D01*
X111075000Y-11921267D01*
X111075000Y-8078733D01*
X111068306Y-7991252D01*
X111045159Y-7840882D01*
X111032252Y-7779512D01*
X110992541Y-7674019D01*
X110925243Y-7537571D01*
X110894477Y-7482923D01*
X110824878Y-7394257D01*
X110719660Y-7284365D01*
X110673884Y-7241501D01*
X110580842Y-7177870D01*
X110468118Y-7116046D01*
X112055012Y-7198472D01*
G37*
G04 #@! TD.AperFunction*
D18*
X92907830Y-5608971D02*
X92908682Y-5617621D01*
X92908843Y-5618153D01*
X92911556Y-5652272D01*
X92913089Y-5660507D01*
X92931618Y-5756315D01*
X92947107Y-5808452D01*
X92961862Y-5860784D01*
X92964966Y-5868565D01*
X93001751Y-5958949D01*
X93027045Y-6007034D01*
X93051709Y-6055554D01*
X93056265Y-6062584D01*
X93109905Y-6144102D01*
X93144068Y-6186372D01*
X93177676Y-6229163D01*
X93183511Y-6235174D01*
X93251963Y-6304721D01*
X93293702Y-6339564D01*
X93334963Y-6374998D01*
X93341851Y-6379759D01*
X93341857Y-6379764D01*
X93341864Y-6379768D01*
X93422510Y-6434689D01*
X93470223Y-6460762D01*
X93517587Y-6487510D01*
X93525272Y-6490844D01*
X93615061Y-6529058D01*
X93666942Y-6545370D01*
X93718584Y-6562404D01*
X93726770Y-6564182D01*
X93822272Y-6584228D01*
X93876325Y-6590152D01*
X93930296Y-6596831D01*
X93938671Y-6596985D01*
X94036248Y-6598100D01*
X94090407Y-6593414D01*
X94144673Y-6589480D01*
X94152919Y-6588004D01*
X94248853Y-6570144D01*
X94301046Y-6555034D01*
X94353521Y-6540634D01*
X94361323Y-6537584D01*
X94361330Y-6537581D01*
X94361334Y-6537580D01*
X94361337Y-6537578D01*
X94451962Y-6501432D01*
X94500229Y-6476472D01*
X94548920Y-6452147D01*
X94555982Y-6447640D01*
X94637873Y-6394570D01*
X94680374Y-6360708D01*
X94723406Y-6327394D01*
X94729458Y-6321601D01*
X94751997Y-6299724D01*
X108359609Y-7006527D01*
X108260026Y-7044023D01*
X108124281Y-7117237D01*
X108015846Y-7196158D01*
X107904447Y-7302819D01*
X107820889Y-7407724D01*
X107741843Y-7540168D01*
X107689177Y-7663510D01*
X107648182Y-7812191D01*
X107630195Y-7945094D01*
X107625000Y-8022211D01*
X107625000Y-8755205D01*
X107624173Y-8761485D01*
X107620315Y-8766513D01*
X107211828Y-9175000D01*
X42028246Y-9175000D01*
X42000000Y-9172218D01*
X41578527Y-9172218D01*
X41570998Y-9166039D01*
X41471108Y-9112646D01*
X41362720Y-9079767D01*
X41250000Y-9068665D01*
X41137280Y-9079767D01*
X41028892Y-9112646D01*
X41000000Y-9128089D01*
X40971108Y-9112646D01*
X40862720Y-9079767D01*
X40750000Y-9068665D01*
X40637280Y-9079767D01*
X40528892Y-9112646D01*
X40429002Y-9166039D01*
X40421473Y-9172218D01*
X40000000Y-9172218D01*
X39971754Y-9175000D01*
X34351835Y-9175000D01*
X34298779Y-9131458D01*
X34161070Y-9057850D01*
X34011646Y-9012523D01*
X33856250Y-8997218D01*
X33343750Y-8997218D01*
X33188354Y-9012523D01*
X33038930Y-9057850D01*
X32901221Y-9131458D01*
X32892687Y-9138462D01*
X32802782Y-9048556D01*
X32802782Y-8943750D01*
X32787477Y-8788354D01*
X32742150Y-8638930D01*
X32668542Y-8501221D01*
X32569483Y-8380517D01*
X32448779Y-8281458D01*
X32375000Y-8242022D01*
X32375000Y-8176294D01*
X66558477Y-5772290D01*
X68858058Y-5619125D01*
X70005025Y-5600000D01*
X92906526Y-5600000D01*
X92907830Y-5608971D01*
G04 #@! TA.AperFunction,Conductor*
D17*
G36*
X92907830Y-5608971D02*
G01*
X92908682Y-5617621D01*
X92908843Y-5618153D01*
X92911556Y-5652272D01*
X92913089Y-5660507D01*
X92931618Y-5756315D01*
X92947107Y-5808452D01*
X92961862Y-5860784D01*
X92964966Y-5868565D01*
X93001751Y-5958949D01*
X93027045Y-6007034D01*
X93051709Y-6055554D01*
X93056265Y-6062584D01*
X93109905Y-6144102D01*
X93144068Y-6186372D01*
X93177676Y-6229163D01*
X93183511Y-6235174D01*
X93251963Y-6304721D01*
X93293702Y-6339564D01*
X93334963Y-6374998D01*
X93341851Y-6379759D01*
X93341857Y-6379764D01*
X93341864Y-6379768D01*
X93422510Y-6434689D01*
X93470223Y-6460762D01*
X93517587Y-6487510D01*
X93525272Y-6490844D01*
X93615061Y-6529058D01*
X93666942Y-6545370D01*
X93718584Y-6562404D01*
X93726770Y-6564182D01*
X93822272Y-6584228D01*
X93876325Y-6590152D01*
X93930296Y-6596831D01*
X93938671Y-6596985D01*
X94036248Y-6598100D01*
X94090407Y-6593414D01*
X94144673Y-6589480D01*
X94152919Y-6588004D01*
X94248853Y-6570144D01*
X94301046Y-6555034D01*
X94353521Y-6540634D01*
X94361323Y-6537584D01*
X94361330Y-6537581D01*
X94361334Y-6537580D01*
X94361337Y-6537578D01*
X94451962Y-6501432D01*
X94500229Y-6476472D01*
X94548920Y-6452147D01*
X94555982Y-6447640D01*
X94637873Y-6394570D01*
X94680374Y-6360708D01*
X94723406Y-6327394D01*
X94729458Y-6321601D01*
X94751997Y-6299724D01*
X108359609Y-7006527D01*
X108260026Y-7044023D01*
X108124281Y-7117237D01*
X108015846Y-7196158D01*
X107904447Y-7302819D01*
X107820889Y-7407724D01*
X107741843Y-7540168D01*
X107689177Y-7663510D01*
X107648182Y-7812191D01*
X107630195Y-7945094D01*
X107625000Y-8022211D01*
X107625000Y-8755205D01*
X107624173Y-8761485D01*
X107620315Y-8766513D01*
X107211828Y-9175000D01*
X42028246Y-9175000D01*
X42000000Y-9172218D01*
X41578527Y-9172218D01*
X41570998Y-9166039D01*
X41471108Y-9112646D01*
X41362720Y-9079767D01*
X41250000Y-9068665D01*
X41137280Y-9079767D01*
X41028892Y-9112646D01*
X41000000Y-9128089D01*
X40971108Y-9112646D01*
X40862720Y-9079767D01*
X40750000Y-9068665D01*
X40637280Y-9079767D01*
X40528892Y-9112646D01*
X40429002Y-9166039D01*
X40421473Y-9172218D01*
X40000000Y-9172218D01*
X39971754Y-9175000D01*
X34351835Y-9175000D01*
X34298779Y-9131458D01*
X34161070Y-9057850D01*
X34011646Y-9012523D01*
X33856250Y-8997218D01*
X33343750Y-8997218D01*
X33188354Y-9012523D01*
X33038930Y-9057850D01*
X32901221Y-9131458D01*
X32892687Y-9138462D01*
X32802782Y-9048556D01*
X32802782Y-8943750D01*
X32787477Y-8788354D01*
X32742150Y-8638930D01*
X32668542Y-8501221D01*
X32569483Y-8380517D01*
X32448779Y-8281458D01*
X32375000Y-8242022D01*
X32375000Y-8176294D01*
X66558477Y-5772290D01*
X68858058Y-5619125D01*
X70005025Y-5600000D01*
X92906526Y-5600000D01*
X92907830Y-5608971D01*
G37*
G04 #@! TD.AperFunction*
G04 #@! TD*
D16*
G04 #@! TO.N,GND*
X111100000Y-7195278D02*
X111100000Y-12804722D01*
X105100000Y-13095044D01*
X105100000Y-10550000D01*
X107326173Y-10550000D01*
X107329289Y-10553553D01*
X107827515Y-11051779D01*
X107870964Y-11108402D01*
X107890684Y-11156011D01*
X107900000Y-11226774D01*
X107900000Y-11977789D01*
X107902710Y-12018024D01*
X107920697Y-12150927D01*
X107942086Y-12228499D01*
X107994752Y-12351841D01*
X108035994Y-12420943D01*
X108119552Y-12525848D01*
X108177673Y-12581497D01*
X108286108Y-12660418D01*
X108356931Y-12698617D01*
X108482444Y-12745877D01*
X108560876Y-12763877D01*
X108694436Y-12776074D01*
X108734750Y-12777034D01*
X110034750Y-12720512D01*
X110080198Y-12715040D01*
X110229421Y-12685383D01*
X110261117Y-12677265D01*
X110315205Y-12654174D01*
X110448600Y-12581013D01*
X110476387Y-12563738D01*
X110521027Y-12525451D01*
X110626245Y-12415559D01*
X110647551Y-12390726D01*
X110678610Y-12340786D01*
X110745908Y-12204338D01*
X110758759Y-12174248D01*
X110773361Y-12117279D01*
X110796508Y-11966909D01*
X110800000Y-11921267D01*
X110800000Y-8078733D01*
X110796508Y-8033091D01*
X110773361Y-7882721D01*
X110766626Y-7850701D01*
X110745908Y-7795662D01*
X110678610Y-7659214D01*
X110662558Y-7630702D01*
X110626245Y-7584441D01*
X110521027Y-7474549D01*
X110497144Y-7452185D01*
X110448600Y-7418987D01*
X110315205Y-7345826D01*
X110285702Y-7331679D01*
X110229421Y-7314617D01*
X110080198Y-7284960D01*
X110034750Y-7279488D01*
X108734750Y-7222966D01*
X108694436Y-7223926D01*
X108560876Y-7236123D01*
X108482444Y-7254123D01*
X108356931Y-7301383D01*
X108286108Y-7339582D01*
X108177673Y-7418503D01*
X108119552Y-7474152D01*
X108035994Y-7579057D01*
X107994752Y-7648159D01*
X107942086Y-7771501D01*
X107920697Y-7849073D01*
X107902710Y-7981976D01*
X107900000Y-8022211D01*
X107900000Y-8773226D01*
X107890684Y-8843989D01*
X107870964Y-8891598D01*
X107827515Y-8948221D01*
X107329289Y-9446447D01*
X107326173Y-9450000D01*
X105100000Y-9450000D01*
X105100000Y-6904956D01*
X111100000Y-7195278D01*
G04 #@! TA.AperFunction,Conductor*
D17*
G36*
X111100000Y-7195278D02*
G01*
X111100000Y-12804722D01*
X105100000Y-13095044D01*
X105100000Y-10550000D01*
X107326173Y-10550000D01*
X107329289Y-10553553D01*
X107827515Y-11051779D01*
X107870964Y-11108402D01*
X107890684Y-11156011D01*
X107900000Y-11226774D01*
X107900000Y-11977789D01*
X107902710Y-12018024D01*
X107920697Y-12150927D01*
X107942086Y-12228499D01*
X107994752Y-12351841D01*
X108035994Y-12420943D01*
X108119552Y-12525848D01*
X108177673Y-12581497D01*
X108286108Y-12660418D01*
X108356931Y-12698617D01*
X108482444Y-12745877D01*
X108560876Y-12763877D01*
X108694436Y-12776074D01*
X108734750Y-12777034D01*
X110034750Y-12720512D01*
X110080198Y-12715040D01*
X110229421Y-12685383D01*
X110261117Y-12677265D01*
X110315205Y-12654174D01*
X110448600Y-12581013D01*
X110476387Y-12563738D01*
X110521027Y-12525451D01*
X110626245Y-12415559D01*
X110647551Y-12390726D01*
X110678610Y-12340786D01*
X110745908Y-12204338D01*
X110758759Y-12174248D01*
X110773361Y-12117279D01*
X110796508Y-11966909D01*
X110800000Y-11921267D01*
X110800000Y-8078733D01*
X110796508Y-8033091D01*
X110773361Y-7882721D01*
X110766626Y-7850701D01*
X110745908Y-7795662D01*
X110678610Y-7659214D01*
X110662558Y-7630702D01*
X110626245Y-7584441D01*
X110521027Y-7474549D01*
X110497144Y-7452185D01*
X110448600Y-7418987D01*
X110315205Y-7345826D01*
X110285702Y-7331679D01*
X110229421Y-7314617D01*
X110080198Y-7284960D01*
X110034750Y-7279488D01*
X108734750Y-7222966D01*
X108694436Y-7223926D01*
X108560876Y-7236123D01*
X108482444Y-7254123D01*
X108356931Y-7301383D01*
X108286108Y-7339582D01*
X108177673Y-7418503D01*
X108119552Y-7474152D01*
X108035994Y-7579057D01*
X107994752Y-7648159D01*
X107942086Y-7771501D01*
X107920697Y-7849073D01*
X107902710Y-7981976D01*
X107900000Y-8022211D01*
X107900000Y-8773226D01*
X107890684Y-8843989D01*
X107870964Y-8891598D01*
X107827515Y-8948221D01*
X107329289Y-9446447D01*
X107326173Y-9450000D01*
X105100000Y-9450000D01*
X105100000Y-6904956D01*
X111100000Y-7195278D01*
G37*
G04 #@! TD.AperFunction*
G04 #@! TD*
D19*
X41000000Y-8000000D03*
X103500000Y-8500000D03*
X112400000Y-8500000D03*
X41000000Y-12000000D03*
X103500000Y-11500000D03*
X112400000Y-11600000D03*
X23400000Y-11000000D03*
X23400000Y-8999996D03*
X108900000Y-10000000D03*
M02*
