G04 #@! TF.GenerationSoftware,KiCad,Pcbnew,5.1.9-73d0e3b20d~88~ubuntu20.04.1*
G04 #@! TF.CreationDate,2021-06-04T14:44:12+03:00*
G04 #@! TF.ProjectId,tweezer-tips,74776565-7a65-4722-9d74-6970732e6b69,rev?*
G04 #@! TF.SameCoordinates,Original*
G04 #@! TF.FileFunction,Legend,Top*
G04 #@! TF.FilePolarity,Positive*
%FSLAX46Y46*%
G04 Gerber Fmt 4.6, Leading zero omitted, Abs format (unit mm)*
G04 Created by KiCad (PCBNEW 5.1.9-73d0e3b20d~88~ubuntu20.04.1) date 2021-06-04 14:44:12*
%MOMM*%
%LPD*%
G01*
G04 APERTURE LIST*
%ADD10C,0.150000*%
%ADD11C,0.120000*%
%ADD12C,0.010000*%
%ADD13C,0.100000*%
%ADD14C,1.102000*%
G04 APERTURE END LIST*
D10*
X63180952Y-9632142D02*
X63133333Y-9679761D01*
X62990476Y-9727380D01*
X62895238Y-9727380D01*
X62752380Y-9679761D01*
X62657142Y-9584523D01*
X62609523Y-9489285D01*
X62561904Y-9298809D01*
X62561904Y-9155952D01*
X62609523Y-8965476D01*
X62657142Y-8870238D01*
X62752380Y-8775000D01*
X62895238Y-8727380D01*
X62990476Y-8727380D01*
X63133333Y-8775000D01*
X63180952Y-8822619D01*
X63561904Y-9441666D02*
X64038095Y-9441666D01*
X63466666Y-9727380D02*
X63800000Y-8727380D01*
X64133333Y-9727380D01*
X64323809Y-8727380D02*
X64895238Y-8727380D01*
X64609523Y-9727380D02*
X64609523Y-8727380D01*
X65990476Y-9727380D02*
X65990476Y-8727380D01*
X61966666Y-11377380D02*
X61395238Y-11377380D01*
X61680952Y-11377380D02*
X61680952Y-10377380D01*
X61585714Y-10520238D01*
X61490476Y-10615476D01*
X61395238Y-10663095D01*
X62585714Y-10377380D02*
X62680952Y-10377380D01*
X62776190Y-10425000D01*
X62823809Y-10472619D01*
X62871428Y-10567857D01*
X62919047Y-10758333D01*
X62919047Y-10996428D01*
X62871428Y-11186904D01*
X62823809Y-11282142D01*
X62776190Y-11329761D01*
X62680952Y-11377380D01*
X62585714Y-11377380D01*
X62490476Y-11329761D01*
X62442857Y-11282142D01*
X62395238Y-11186904D01*
X62347619Y-10996428D01*
X62347619Y-10758333D01*
X62395238Y-10567857D01*
X62442857Y-10472619D01*
X62490476Y-10425000D01*
X62585714Y-10377380D01*
X63538095Y-10377380D02*
X63633333Y-10377380D01*
X63728571Y-10425000D01*
X63776190Y-10472619D01*
X63823809Y-10567857D01*
X63871428Y-10758333D01*
X63871428Y-10996428D01*
X63823809Y-11186904D01*
X63776190Y-11282142D01*
X63728571Y-11329761D01*
X63633333Y-11377380D01*
X63538095Y-11377380D01*
X63442857Y-11329761D01*
X63395238Y-11282142D01*
X63347619Y-11186904D01*
X63300000Y-10996428D01*
X63300000Y-10758333D01*
X63347619Y-10567857D01*
X63395238Y-10472619D01*
X63442857Y-10425000D01*
X63538095Y-10377380D01*
X64919047Y-10377380D02*
X65252380Y-11377380D01*
X65585714Y-10377380D01*
X65919047Y-10710714D02*
X65919047Y-11710714D01*
X65919047Y-10758333D02*
X66014285Y-10710714D01*
X66204761Y-10710714D01*
X66300000Y-10758333D01*
X66347619Y-10805952D01*
X66395238Y-10901190D01*
X66395238Y-11186904D01*
X66347619Y-11282142D01*
X66300000Y-11329761D01*
X66204761Y-11377380D01*
X66014285Y-11377380D01*
X65919047Y-11329761D01*
X66823809Y-11377380D02*
X66823809Y-10377380D01*
X66919047Y-10996428D02*
X67204761Y-11377380D01*
X67204761Y-10710714D02*
X66823809Y-11091666D01*
X75738095Y-11702380D02*
X75166666Y-11702380D01*
X75452380Y-11702380D02*
X75452380Y-10702380D01*
X75357142Y-10845238D01*
X75261904Y-10940476D01*
X75166666Y-10988095D01*
X76166666Y-11607142D02*
X76214285Y-11654761D01*
X76166666Y-11702380D01*
X76119047Y-11654761D01*
X76166666Y-11607142D01*
X76166666Y-11702380D01*
X76166666Y-11083333D02*
X76214285Y-11130952D01*
X76166666Y-11178571D01*
X76119047Y-11130952D01*
X76166666Y-11083333D01*
X76166666Y-11178571D01*
X76595238Y-10797619D02*
X76642857Y-10750000D01*
X76738095Y-10702380D01*
X76976190Y-10702380D01*
X77071428Y-10750000D01*
X77119047Y-10797619D01*
X77166666Y-10892857D01*
X77166666Y-10988095D01*
X77119047Y-11130952D01*
X76547619Y-11702380D01*
X77166666Y-11702380D01*
X77785714Y-10702380D02*
X77880952Y-10702380D01*
X77976190Y-10750000D01*
X78023809Y-10797619D01*
X78071428Y-10892857D01*
X78119047Y-11083333D01*
X78119047Y-11321428D01*
X78071428Y-11511904D01*
X78023809Y-11607142D01*
X77976190Y-11654761D01*
X77880952Y-11702380D01*
X77785714Y-11702380D01*
X77690476Y-11654761D01*
X77642857Y-11607142D01*
X77595238Y-11511904D01*
X77547619Y-11321428D01*
X77547619Y-11083333D01*
X77595238Y-10892857D01*
X77642857Y-10797619D01*
X77690476Y-10750000D01*
X77785714Y-10702380D01*
X79833333Y-11702380D02*
X79261904Y-11702380D01*
X79547619Y-11702380D02*
X79547619Y-10702380D01*
X79452380Y-10845238D01*
X79357142Y-10940476D01*
X79261904Y-10988095D01*
X80452380Y-10702380D02*
X80547619Y-10702380D01*
X80642857Y-10750000D01*
X80690476Y-10797619D01*
X80738095Y-10892857D01*
X80785714Y-11083333D01*
X80785714Y-11321428D01*
X80738095Y-11511904D01*
X80690476Y-11607142D01*
X80642857Y-11654761D01*
X80547619Y-11702380D01*
X80452380Y-11702380D01*
X80357142Y-11654761D01*
X80309523Y-11607142D01*
X80261904Y-11511904D01*
X80214285Y-11321428D01*
X80214285Y-11083333D01*
X80261904Y-10892857D01*
X80309523Y-10797619D01*
X80357142Y-10750000D01*
X80452380Y-10702380D01*
X81976190Y-11702380D02*
X81976190Y-10702380D01*
X82309523Y-11416666D01*
X82642857Y-10702380D01*
X82642857Y-11702380D01*
X83071428Y-11702380D02*
X83309523Y-11702380D01*
X83309523Y-11511904D01*
X83214285Y-11464285D01*
X83119047Y-11369047D01*
X83071428Y-11226190D01*
X83071428Y-10988095D01*
X83119047Y-10845238D01*
X83214285Y-10750000D01*
X83357142Y-10702380D01*
X83547619Y-10702380D01*
X83690476Y-10750000D01*
X83785714Y-10845238D01*
X83833333Y-10988095D01*
X83833333Y-11226190D01*
X83785714Y-11369047D01*
X83690476Y-11464285D01*
X83595238Y-11511904D01*
X83595238Y-11702380D01*
X83833333Y-11702380D01*
X76059523Y-9202380D02*
X75488095Y-9202380D01*
X75773809Y-9202380D02*
X75773809Y-8202380D01*
X75678571Y-8345238D01*
X75583333Y-8440476D01*
X75488095Y-8488095D01*
X76488095Y-9107142D02*
X76535714Y-9154761D01*
X76488095Y-9202380D01*
X76440476Y-9154761D01*
X76488095Y-9107142D01*
X76488095Y-9202380D01*
X76488095Y-8583333D02*
X76535714Y-8630952D01*
X76488095Y-8678571D01*
X76440476Y-8630952D01*
X76488095Y-8583333D01*
X76488095Y-8678571D01*
X76916666Y-8297619D02*
X76964285Y-8250000D01*
X77059523Y-8202380D01*
X77297619Y-8202380D01*
X77392857Y-8250000D01*
X77440476Y-8297619D01*
X77488095Y-8392857D01*
X77488095Y-8488095D01*
X77440476Y-8630952D01*
X76869047Y-9202380D01*
X77488095Y-9202380D01*
X79964285Y-9202380D02*
X79392857Y-9202380D01*
X79678571Y-9202380D02*
X79678571Y-8202380D01*
X79583333Y-8345238D01*
X79488095Y-8440476D01*
X79392857Y-8488095D01*
X81154761Y-9202380D02*
X81154761Y-8202380D01*
X81488095Y-8916666D01*
X81821428Y-8202380D01*
X81821428Y-9202380D01*
X82250000Y-9202380D02*
X82488095Y-9202380D01*
X82488095Y-9011904D01*
X82392857Y-8964285D01*
X82297619Y-8869047D01*
X82250000Y-8726190D01*
X82250000Y-8488095D01*
X82297619Y-8345238D01*
X82392857Y-8250000D01*
X82535714Y-8202380D01*
X82726190Y-8202380D01*
X82869047Y-8250000D01*
X82964285Y-8345238D01*
X83011904Y-8488095D01*
X83011904Y-8726190D01*
X82964285Y-8869047D01*
X82869047Y-8964285D01*
X82773809Y-9011904D01*
X82773809Y-9202380D01*
X83011904Y-9202380D01*
D11*
X74500000Y-12000000D02*
X73000000Y-12000000D01*
X74500000Y-10500000D02*
X74500000Y-12000000D01*
X73000000Y-10500000D02*
X74500000Y-10500000D01*
X73000000Y-12000000D02*
X73000000Y-10500000D01*
X73000000Y-8000000D02*
X73000000Y-9500000D01*
X74500000Y-8000000D02*
X73000000Y-8000000D01*
X74500000Y-9500000D02*
X74500000Y-8000000D01*
X73000000Y-9500000D02*
X74500000Y-9500000D01*
G04 #@! TO.C,C2*
X33090000Y-10637221D02*
X33090000Y-10962779D01*
X34110000Y-10637221D02*
X34110000Y-10962779D01*
G04 #@! TO.C,R2*
X28162779Y-9490000D02*
X27837221Y-9490000D01*
X28162779Y-10510000D02*
X27837221Y-10510000D01*
G04 #@! TO.C,R1*
X31162779Y-10290000D02*
X30837221Y-10290000D01*
X31162779Y-11310000D02*
X30837221Y-11310000D01*
G04 #@! TO.C,C1*
X30837221Y-9710000D02*
X31162779Y-9710000D01*
X30837221Y-8690000D02*
X31162779Y-8690000D01*
G04 #@! TO.C,C2*
D10*
X35387142Y-10966666D02*
X35434761Y-11014285D01*
X35482380Y-11157142D01*
X35482380Y-11252380D01*
X35434761Y-11395238D01*
X35339523Y-11490476D01*
X35244285Y-11538095D01*
X35053809Y-11585714D01*
X34910952Y-11585714D01*
X34720476Y-11538095D01*
X34625238Y-11490476D01*
X34530000Y-11395238D01*
X34482380Y-11252380D01*
X34482380Y-11157142D01*
X34530000Y-11014285D01*
X34577619Y-10966666D01*
X34577619Y-10585714D02*
X34530000Y-10538095D01*
X34482380Y-10442857D01*
X34482380Y-10204761D01*
X34530000Y-10109523D01*
X34577619Y-10061904D01*
X34672857Y-10014285D01*
X34768095Y-10014285D01*
X34910952Y-10061904D01*
X35482380Y-10633333D01*
X35482380Y-10014285D01*
G04 #@! TO.C,R2*
X25333333Y-10452380D02*
X25000000Y-9976190D01*
X24761904Y-10452380D02*
X24761904Y-9452380D01*
X25142857Y-9452380D01*
X25238095Y-9500000D01*
X25285714Y-9547619D01*
X25333333Y-9642857D01*
X25333333Y-9785714D01*
X25285714Y-9880952D01*
X25238095Y-9928571D01*
X25142857Y-9976190D01*
X24761904Y-9976190D01*
X25714285Y-9547619D02*
X25761904Y-9500000D01*
X25857142Y-9452380D01*
X26095238Y-9452380D01*
X26190476Y-9500000D01*
X26238095Y-9547619D01*
X26285714Y-9642857D01*
X26285714Y-9738095D01*
X26238095Y-9880952D01*
X25666666Y-10452380D01*
X26285714Y-10452380D01*
G04 #@! TO.C,R1*
X28333333Y-11852380D02*
X28000000Y-11376190D01*
X27761904Y-11852380D02*
X27761904Y-10852380D01*
X28142857Y-10852380D01*
X28238095Y-10900000D01*
X28285714Y-10947619D01*
X28333333Y-11042857D01*
X28333333Y-11185714D01*
X28285714Y-11280952D01*
X28238095Y-11328571D01*
X28142857Y-11376190D01*
X27761904Y-11376190D01*
X29285714Y-11852380D02*
X28714285Y-11852380D01*
X29000000Y-11852380D02*
X29000000Y-10852380D01*
X28904761Y-10995238D01*
X28809523Y-11090476D01*
X28714285Y-11138095D01*
G04 #@! TO.C,C1*
X28333333Y-8957142D02*
X28285714Y-9004761D01*
X28142857Y-9052380D01*
X28047619Y-9052380D01*
X27904761Y-9004761D01*
X27809523Y-8909523D01*
X27761904Y-8814285D01*
X27714285Y-8623809D01*
X27714285Y-8480952D01*
X27761904Y-8290476D01*
X27809523Y-8195238D01*
X27904761Y-8100000D01*
X28047619Y-8052380D01*
X28142857Y-8052380D01*
X28285714Y-8100000D01*
X28333333Y-8147619D01*
X29285714Y-9052380D02*
X28714285Y-9052380D01*
X29000000Y-9052380D02*
X29000000Y-8052380D01*
X28904761Y-8195238D01*
X28809523Y-8290476D01*
X28714285Y-8338095D01*
G04 #@! TD*
%LPC*%
D12*
G36*
X110100000Y-7600000D02*
G01*
X110400000Y-7800000D01*
X110500000Y-8100000D01*
X110500000Y-11950000D01*
X110350000Y-12250000D01*
X110100000Y-12400000D01*
X108700000Y-12500000D01*
X108500000Y-12350000D01*
X108400000Y-12100000D01*
X108400000Y-7900000D01*
X108500000Y-7650000D01*
X108700000Y-7500000D01*
X110100000Y-7600000D01*
G37*
X110100000Y-7600000D02*
X110400000Y-7800000D01*
X110500000Y-8100000D01*
X110500000Y-11950000D01*
X110350000Y-12250000D01*
X110100000Y-12400000D01*
X108700000Y-12500000D01*
X108500000Y-12350000D01*
X108400000Y-12100000D01*
X108400000Y-7900000D01*
X108500000Y-7650000D01*
X108700000Y-7500000D01*
X110100000Y-7600000D01*
G36*
X107800000Y-7200000D02*
G01*
X107800000Y-8900000D01*
X107300000Y-9400000D01*
X105100000Y-9400000D01*
X105100000Y-7100000D01*
X107800000Y-7200000D01*
G37*
X107800000Y-7200000D02*
X107800000Y-8900000D01*
X107300000Y-9400000D01*
X105100000Y-9400000D01*
X105100000Y-7100000D01*
X107800000Y-7200000D01*
G36*
X107800000Y-11100000D02*
G01*
X107800000Y-12800000D01*
X105100000Y-12900000D01*
X105100000Y-10600000D01*
X107300000Y-10600000D01*
X107800000Y-11100000D01*
G37*
X107800000Y-11100000D02*
X107800000Y-12800000D01*
X105100000Y-12900000D01*
X105100000Y-10600000D01*
X107300000Y-10600000D01*
X107800000Y-11100000D01*
D13*
G36*
X19750000Y-11500000D02*
G01*
X4500000Y-10500000D01*
X4500000Y-9500000D01*
X19750000Y-8500000D01*
X19750000Y-11500000D01*
G37*
X19750000Y-11500000D02*
X4500000Y-10500000D01*
X4500000Y-9500000D01*
X19750000Y-8500000D01*
X19750000Y-11500000D01*
D12*
G04 #@! TO.C,E2*
G36*
X42000000Y-10650000D02*
G01*
X40000000Y-10650000D01*
X40000000Y-9350000D01*
X42000000Y-9350000D01*
X42000000Y-10650000D01*
G37*
X42000000Y-10650000D02*
X40000000Y-10650000D01*
X40000000Y-9350000D01*
X42000000Y-9350000D01*
X42000000Y-10650000D01*
G04 #@! TO.C,E1*
G36*
X24400000Y-10650000D02*
G01*
X22400000Y-10650000D01*
X22400000Y-9350000D01*
X24400000Y-9350000D01*
X24400000Y-10650000D01*
G37*
X24400000Y-10650000D02*
X22400000Y-10650000D01*
X22400000Y-9350000D01*
X24400000Y-9350000D01*
X24400000Y-10650000D01*
G04 #@! TD*
G04 #@! TO.C,E2*
G36*
G01*
X41286062Y-9610385D02*
X41639615Y-9963938D01*
G75*
G02*
X41639615Y-10036062I-36062J-36062D01*
G01*
X41286062Y-10389615D01*
G75*
G02*
X41213938Y-10389615I-36062J36062D01*
G01*
X40860385Y-10036062D01*
G75*
G02*
X40860385Y-9963938I36062J36062D01*
G01*
X41213938Y-9610385D01*
G75*
G02*
X41286062Y-9610385I36062J-36062D01*
G01*
G37*
G36*
G01*
X40786062Y-9610385D02*
X41139615Y-9963938D01*
G75*
G02*
X41139615Y-10036062I-36062J-36062D01*
G01*
X40786062Y-10389615D01*
G75*
G02*
X40713938Y-10389615I-36062J36062D01*
G01*
X40360385Y-10036062D01*
G75*
G02*
X40360385Y-9963938I36062J36062D01*
G01*
X40713938Y-9610385D01*
G75*
G02*
X40786062Y-9610385I36062J-36062D01*
G01*
G37*
G36*
G01*
X39949000Y-10250000D02*
X39949000Y-9750000D01*
G75*
G02*
X40000000Y-9699000I51000J0D01*
G01*
X42000000Y-9699000D01*
G75*
G02*
X42051000Y-9750000I0J-51000D01*
G01*
X42051000Y-10250000D01*
G75*
G02*
X42000000Y-10301000I-51000J0D01*
G01*
X40000000Y-10301000D01*
G75*
G02*
X39949000Y-10250000I0J51000D01*
G01*
G37*
G04 #@! TD*
G04 #@! TO.C,E1*
G36*
G01*
X23686062Y-9610385D02*
X24039615Y-9963938D01*
G75*
G02*
X24039615Y-10036062I-36062J-36062D01*
G01*
X23686062Y-10389615D01*
G75*
G02*
X23613938Y-10389615I-36062J36062D01*
G01*
X23260385Y-10036062D01*
G75*
G02*
X23260385Y-9963938I36062J36062D01*
G01*
X23613938Y-9610385D01*
G75*
G02*
X23686062Y-9610385I36062J-36062D01*
G01*
G37*
G36*
G01*
X23186062Y-9610385D02*
X23539615Y-9963938D01*
G75*
G02*
X23539615Y-10036062I-36062J-36062D01*
G01*
X23186062Y-10389615D01*
G75*
G02*
X23113938Y-10389615I-36062J36062D01*
G01*
X22760385Y-10036062D01*
G75*
G02*
X22760385Y-9963938I36062J36062D01*
G01*
X23113938Y-9610385D01*
G75*
G02*
X23186062Y-9610385I36062J-36062D01*
G01*
G37*
G36*
G01*
X22349000Y-10250000D02*
X22349000Y-9750000D01*
G75*
G02*
X22400000Y-9699000I51000J0D01*
G01*
X24400000Y-9699000D01*
G75*
G02*
X24451000Y-9750000I0J-51000D01*
G01*
X24451000Y-10250000D01*
G75*
G02*
X24400000Y-10301000I-51000J0D01*
G01*
X22400000Y-10301000D01*
G75*
G02*
X22349000Y-10250000I0J51000D01*
G01*
G37*
G04 #@! TD*
G04 #@! TO.C,C2*
G36*
G01*
X33318250Y-11099000D02*
X33881750Y-11099000D01*
G75*
G02*
X34126000Y-11343250I0J-244250D01*
G01*
X34126000Y-11831750D01*
G75*
G02*
X33881750Y-12076000I-244250J0D01*
G01*
X33318250Y-12076000D01*
G75*
G02*
X33074000Y-11831750I0J244250D01*
G01*
X33074000Y-11343250D01*
G75*
G02*
X33318250Y-11099000I244250J0D01*
G01*
G37*
G36*
G01*
X33318250Y-9524000D02*
X33881750Y-9524000D01*
G75*
G02*
X34126000Y-9768250I0J-244250D01*
G01*
X34126000Y-10256750D01*
G75*
G02*
X33881750Y-10501000I-244250J0D01*
G01*
X33318250Y-10501000D01*
G75*
G02*
X33074000Y-10256750I0J244250D01*
G01*
X33074000Y-9768250D01*
G75*
G02*
X33318250Y-9524000I244250J0D01*
G01*
G37*
G04 #@! TD*
D14*
G04 #@! TO.C,J2*
X108900000Y-10000000D03*
G04 #@! TD*
G04 #@! TO.C,R2*
G36*
G01*
X27701000Y-9718250D02*
X27701000Y-10281750D01*
G75*
G02*
X27456750Y-10526000I-244250J0D01*
G01*
X26968250Y-10526000D01*
G75*
G02*
X26724000Y-10281750I0J244250D01*
G01*
X26724000Y-9718250D01*
G75*
G02*
X26968250Y-9474000I244250J0D01*
G01*
X27456750Y-9474000D01*
G75*
G02*
X27701000Y-9718250I0J-244250D01*
G01*
G37*
G36*
G01*
X29276000Y-9718250D02*
X29276000Y-10281750D01*
G75*
G02*
X29031750Y-10526000I-244250J0D01*
G01*
X28543250Y-10526000D01*
G75*
G02*
X28299000Y-10281750I0J244250D01*
G01*
X28299000Y-9718250D01*
G75*
G02*
X28543250Y-9474000I244250J0D01*
G01*
X29031750Y-9474000D01*
G75*
G02*
X29276000Y-9718250I0J-244250D01*
G01*
G37*
G04 #@! TD*
G04 #@! TO.C,J3*
X106200000Y-11400000D03*
G04 #@! TD*
G04 #@! TO.C,J1*
X15000000Y-10000000D03*
G04 #@! TD*
G04 #@! TO.C,R1*
G36*
G01*
X30701000Y-10518250D02*
X30701000Y-11081750D01*
G75*
G02*
X30456750Y-11326000I-244250J0D01*
G01*
X29968250Y-11326000D01*
G75*
G02*
X29724000Y-11081750I0J244250D01*
G01*
X29724000Y-10518250D01*
G75*
G02*
X29968250Y-10274000I244250J0D01*
G01*
X30456750Y-10274000D01*
G75*
G02*
X30701000Y-10518250I0J-244250D01*
G01*
G37*
G36*
G01*
X32276000Y-10518250D02*
X32276000Y-11081750D01*
G75*
G02*
X32031750Y-11326000I-244250J0D01*
G01*
X31543250Y-11326000D01*
G75*
G02*
X31299000Y-11081750I0J244250D01*
G01*
X31299000Y-10518250D01*
G75*
G02*
X31543250Y-10274000I244250J0D01*
G01*
X32031750Y-10274000D01*
G75*
G02*
X32276000Y-10518250I0J-244250D01*
G01*
G37*
G04 #@! TD*
G04 #@! TO.C,C1*
G36*
G01*
X31299000Y-9481750D02*
X31299000Y-8918250D01*
G75*
G02*
X31543250Y-8674000I244250J0D01*
G01*
X32031750Y-8674000D01*
G75*
G02*
X32276000Y-8918250I0J-244250D01*
G01*
X32276000Y-9481750D01*
G75*
G02*
X32031750Y-9726000I-244250J0D01*
G01*
X31543250Y-9726000D01*
G75*
G02*
X31299000Y-9481750I0J244250D01*
G01*
G37*
G36*
G01*
X29724000Y-9481750D02*
X29724000Y-8918250D01*
G75*
G02*
X29968250Y-8674000I244250J0D01*
G01*
X30456750Y-8674000D01*
G75*
G02*
X30701000Y-8918250I0J-244250D01*
G01*
X30701000Y-9481750D01*
G75*
G02*
X30456750Y-9726000I-244250J0D01*
G01*
X29968250Y-9726000D01*
G75*
G02*
X29724000Y-9481750I0J244250D01*
G01*
G37*
G04 #@! TD*
M02*
