G04 #@! TF.GenerationSoftware,KiCad,Pcbnew,5.1.5+dfsg1-2build2*
G04 #@! TF.CreationDate,2021-01-13T09:23:00+02:00*
G04 #@! TF.ProjectId,tweezer-tips,74776565-7a65-4722-9d74-6970732e6b69,rev?*
G04 #@! TF.SameCoordinates,Original*
G04 #@! TF.FileFunction,Profile,NP*
%FSLAX46Y46*%
G04 Gerber Fmt 4.6, Leading zero omitted, Abs format (unit mm)*
G04 Created by KiCad (PCBNEW 5.1.5+dfsg1-2build2) date 2021-01-13 09:23:00*
%MOMM*%
%LPD*%
G04 APERTURE LIST*
%ADD10C,0.050000*%
G04 APERTURE END LIST*
D10*
X131500000Y-12500000D02*
X140500000Y-12500000D01*
X131000000Y-13000000D02*
X131000000Y-14500000D01*
X127500000Y-15000000D02*
G75*
G02X127000000Y-14500000I0J500000D01*
G01*
X131000000Y-14500000D02*
G75*
G02X130500000Y-15000000I-500000J0D01*
G01*
X131000000Y-13000000D02*
G75*
G02X131500000Y-12500000I500000J0D01*
G01*
X130500000Y-15000000D02*
X127500000Y-15000000D01*
X127000000Y-13000000D02*
X127000000Y-14500000D01*
X126500000Y-12500000D02*
G75*
G02X127000000Y-13000000I0J-500000D01*
G01*
X131500000Y-7500000D02*
X140500000Y-7500000D01*
X131500000Y-7500000D02*
G75*
G02X131000000Y-7000000I0J500000D01*
G01*
X127000000Y-7000000D02*
G75*
G02X126500000Y-7500000I-500000J0D01*
G01*
X127500000Y-5000000D02*
X130500000Y-5000000D01*
X130500000Y-5000000D02*
G75*
G02X131000000Y-5500000I0J-500000D01*
G01*
X127000000Y-5500000D02*
G75*
G02X127500000Y-5000000I500000J0D01*
G01*
X131000000Y-7000000D02*
X131000000Y-5500000D01*
X127000000Y-7000000D02*
X127000000Y-5500000D01*
X141500000Y-15000000D02*
X144500000Y-15000000D01*
X141500000Y-5000000D02*
X144500000Y-5000000D01*
X141000000Y-5500000D02*
G75*
G02X141500000Y-5000000I500000J0D01*
G01*
X141500000Y-15000000D02*
G75*
G02X141000000Y-14500000I0J500000D01*
G01*
X116500000Y-5000000D02*
G75*
G02X117000000Y-5500000I0J-500000D01*
G01*
X117000000Y-14500000D02*
G75*
G02X116500000Y-15000000I-500000J0D01*
G01*
X145000000Y-14500000D02*
X145000000Y-5500000D01*
X144500000Y-5000000D02*
G75*
G02X145000000Y-5500000I0J-500000D01*
G01*
X145000000Y-14500000D02*
G75*
G02X144500000Y-15000000I-500000J0D01*
G01*
X117500000Y-7500000D02*
G75*
G02X117000000Y-7000000I0J500000D01*
G01*
X141000000Y-7000000D02*
G75*
G02X140500000Y-7500000I-500000J0D01*
G01*
X140500000Y-12500000D02*
G75*
G02X141000000Y-13000000I0J-500000D01*
G01*
X117000000Y-13000000D02*
G75*
G02X117500000Y-12500000I500000J0D01*
G01*
X117000000Y-7000000D02*
X117000000Y-5500000D01*
X126500000Y-7500000D02*
X117500000Y-7500000D01*
X141000000Y-5500000D02*
X141000000Y-7000000D01*
X117000000Y-13000000D02*
X117000000Y-14500000D01*
X126500000Y-12500000D02*
X117500000Y-12500000D01*
X141000000Y-14500000D02*
X141000000Y-13000000D01*
X5000000Y-10500000D02*
X66517370Y-14826302D01*
X70000000Y-15000000D02*
X116500000Y-15000000D01*
X66517370Y-14826302D02*
G75*
G03X70000000Y-15000000I3482630J34826302D01*
G01*
X66517370Y-5173698D02*
G75*
G02X70000000Y-5000000I3482630J-34826302D01*
G01*
X5000000Y-9500000D02*
X66517370Y-5173698D01*
X70000000Y-5000000D02*
X116500000Y-5000000D01*
X5000000Y-10500000D02*
G75*
G02X5000000Y-9500000I0J500000D01*
G01*
M02*
