G04 #@! TF.GenerationSoftware,KiCad,Pcbnew,5.1.9-73d0e3b20d~88~ubuntu20.04.1*
G04 #@! TF.CreationDate,2021-05-11T14:41:41+03:00*
G04 #@! TF.ProjectId,tweezer-tips,74776565-7a65-4722-9d74-6970732e6b69,rev?*
G04 #@! TF.SameCoordinates,Original*
G04 #@! TF.FileFunction,Copper,L1,Top*
G04 #@! TF.FilePolarity,Positive*
%FSLAX46Y46*%
G04 Gerber Fmt 4.6, Leading zero omitted, Abs format (unit mm)*
G04 Created by KiCad (PCBNEW 5.1.9-73d0e3b20d~88~ubuntu20.04.1) date 2021-05-11 14:41:41*
%MOMM*%
%LPD*%
G01*
G04 APERTURE LIST*
G04 #@! TA.AperFunction,ComponentPad*
%ADD10C,1.000000*%
G04 #@! TD*
G04 #@! TA.AperFunction,SMDPad,CuDef*
%ADD11C,1.000000*%
G04 #@! TD*
G04 #@! TA.AperFunction,ViaPad*
%ADD12C,0.800000*%
G04 #@! TD*
G04 #@! TA.AperFunction,Conductor*
%ADD13C,0.500000*%
G04 #@! TD*
G04 #@! TA.AperFunction,Conductor*
%ADD14C,0.200000*%
G04 #@! TD*
G04 #@! TA.AperFunction,Conductor*
%ADD15C,0.350000*%
G04 #@! TD*
G04 #@! TA.AperFunction,Conductor*
%ADD16C,0.150000*%
G04 #@! TD*
%ADD17C,0.350000*%
G04 APERTURE END LIST*
D10*
G04 #@! TO.P,J2,1*
G04 #@! TO.N,/AMP*
X108900000Y-10000000D03*
G04 #@! TD*
G04 #@! TO.P,R2,2*
G04 #@! TO.N,/TIP*
G04 #@! TA.AperFunction,SMDPad,CuDef*
G36*
G01*
X27650000Y-9743750D02*
X27650000Y-10256250D01*
G75*
G02*
X27431250Y-10475000I-218750J0D01*
G01*
X26993750Y-10475000D01*
G75*
G02*
X26775000Y-10256250I0J218750D01*
G01*
X26775000Y-9743750D01*
G75*
G02*
X26993750Y-9525000I218750J0D01*
G01*
X27431250Y-9525000D01*
G75*
G02*
X27650000Y-9743750I0J-218750D01*
G01*
G37*
G04 #@! TD.AperFunction*
G04 #@! TO.P,R2,1*
G04 #@! TO.N,Net-(C1-Pad1)*
G04 #@! TA.AperFunction,SMDPad,CuDef*
G36*
G01*
X29225000Y-9743750D02*
X29225000Y-10256250D01*
G75*
G02*
X29006250Y-10475000I-218750J0D01*
G01*
X28568750Y-10475000D01*
G75*
G02*
X28350000Y-10256250I0J218750D01*
G01*
X28350000Y-9743750D01*
G75*
G02*
X28568750Y-9525000I218750J0D01*
G01*
X29006250Y-9525000D01*
G75*
G02*
X29225000Y-9743750I0J-218750D01*
G01*
G37*
G04 #@! TD.AperFunction*
G04 #@! TD*
D11*
G04 #@! TO.P,J3,1*
G04 #@! TO.N,GND*
X106200000Y-11400000D03*
G04 #@! TD*
G04 #@! TO.P,J1,1*
G04 #@! TO.N,/TIP*
X15000000Y-10000000D03*
G04 #@! TD*
G04 #@! TO.P,R1,2*
G04 #@! TO.N,Net-(C1-Pad1)*
G04 #@! TA.AperFunction,SMDPad,CuDef*
G36*
G01*
X30650000Y-10543750D02*
X30650000Y-11056250D01*
G75*
G02*
X30431250Y-11275000I-218750J0D01*
G01*
X29993750Y-11275000D01*
G75*
G02*
X29775000Y-11056250I0J218750D01*
G01*
X29775000Y-10543750D01*
G75*
G02*
X29993750Y-10325000I218750J0D01*
G01*
X30431250Y-10325000D01*
G75*
G02*
X30650000Y-10543750I0J-218750D01*
G01*
G37*
G04 #@! TD.AperFunction*
G04 #@! TO.P,R1,1*
G04 #@! TO.N,/AMP*
G04 #@! TA.AperFunction,SMDPad,CuDef*
G36*
G01*
X32225000Y-10543750D02*
X32225000Y-11056250D01*
G75*
G02*
X32006250Y-11275000I-218750J0D01*
G01*
X31568750Y-11275000D01*
G75*
G02*
X31350000Y-11056250I0J218750D01*
G01*
X31350000Y-10543750D01*
G75*
G02*
X31568750Y-10325000I218750J0D01*
G01*
X32006250Y-10325000D01*
G75*
G02*
X32225000Y-10543750I0J-218750D01*
G01*
G37*
G04 #@! TD.AperFunction*
G04 #@! TD*
G04 #@! TO.P,C1,2*
G04 #@! TO.N,/AMP*
G04 #@! TA.AperFunction,SMDPad,CuDef*
G36*
G01*
X31350000Y-9456250D02*
X31350000Y-8943750D01*
G75*
G02*
X31568750Y-8725000I218750J0D01*
G01*
X32006250Y-8725000D01*
G75*
G02*
X32225000Y-8943750I0J-218750D01*
G01*
X32225000Y-9456250D01*
G75*
G02*
X32006250Y-9675000I-218750J0D01*
G01*
X31568750Y-9675000D01*
G75*
G02*
X31350000Y-9456250I0J218750D01*
G01*
G37*
G04 #@! TD.AperFunction*
G04 #@! TO.P,C1,1*
G04 #@! TO.N,Net-(C1-Pad1)*
G04 #@! TA.AperFunction,SMDPad,CuDef*
G36*
G01*
X29775000Y-9456250D02*
X29775000Y-8943750D01*
G75*
G02*
X29993750Y-8725000I218750J0D01*
G01*
X30431250Y-8725000D01*
G75*
G02*
X30650000Y-8943750I0J-218750D01*
G01*
X30650000Y-9456250D01*
G75*
G02*
X30431250Y-9675000I-218750J0D01*
G01*
X29993750Y-9675000D01*
G75*
G02*
X29775000Y-9456250I0J218750D01*
G01*
G37*
G04 #@! TD.AperFunction*
G04 #@! TD*
D12*
G04 #@! TO.N,GND*
X41000000Y-8000000D03*
X103500000Y-8500000D03*
X112400000Y-8500000D03*
X41000000Y-12000000D03*
X103500000Y-11500000D03*
X112400000Y-11600000D03*
G04 #@! TD*
D13*
G04 #@! TO.N,GND*
X102900000Y-7900000D02*
X103500000Y-8500000D01*
X91700000Y-6600000D02*
X93000000Y-7900000D01*
X63900000Y-6600000D02*
X91700000Y-6600000D01*
X93000000Y-7900000D02*
X102900000Y-7900000D01*
X62500000Y-8000000D02*
X63900000Y-6600000D01*
X41000000Y-8000000D02*
X62500000Y-8000000D01*
X103100000Y-11900000D02*
X103500000Y-11500000D01*
X62100000Y-12000000D02*
X63500000Y-13400000D01*
X63500000Y-13400000D02*
X91900000Y-13400000D01*
X41000000Y-12000000D02*
X62100000Y-12000000D01*
X93400000Y-11900000D02*
X103100000Y-11900000D01*
X91900000Y-13400000D02*
X93400000Y-11900000D01*
G04 #@! TO.N,/AMP*
X106700000Y-10000000D02*
X106900000Y-10000000D01*
X106700000Y-10000000D02*
X108900000Y-10000000D01*
X107000000Y-10000000D02*
X107800000Y-10800000D01*
X107800000Y-10800000D02*
X107800000Y-10900000D01*
X106900000Y-10000000D02*
X107000000Y-10000000D01*
X108200000Y-8800000D02*
X108300000Y-8800000D01*
X107000000Y-10000000D02*
X108200000Y-8800000D01*
X32587500Y-10000000D02*
X31787500Y-9200000D01*
X106700000Y-10000000D02*
X32587500Y-10000000D01*
X31787500Y-10800000D02*
X32587500Y-10000000D01*
G04 #@! TO.N,/TIP*
X20800000Y-10000000D02*
X20600000Y-10000000D01*
X27212500Y-10000000D02*
X20800000Y-10000000D01*
X20800000Y-10000000D02*
X15000000Y-10000000D01*
X20600000Y-10000000D02*
X19800000Y-9200000D01*
X20600000Y-10000000D02*
X19900000Y-10700000D01*
X19900000Y-10700000D02*
X19700000Y-10900000D01*
G04 #@! TO.N,Net-(C1-Pad1)*
X29412500Y-10000000D02*
X30212500Y-9200000D01*
X29412500Y-10000000D02*
X30212500Y-10800000D01*
X28787500Y-10000000D02*
X29412500Y-10000000D01*
G04 #@! TD*
D14*
G04 #@! TO.N,/TIP*
X19900000Y-11222063D02*
X5027296Y-10176118D01*
X4966311Y-10170139D01*
X4933910Y-10160356D01*
X4904016Y-10144462D01*
X4877786Y-10123068D01*
X4856211Y-10096989D01*
X4840111Y-10067213D01*
X4830101Y-10034875D01*
X4826563Y-10001212D01*
X4829631Y-9967498D01*
X4839187Y-9935030D01*
X4854872Y-9905027D01*
X4876081Y-9878648D01*
X4902011Y-9856891D01*
X4931674Y-9840584D01*
X4963937Y-9830349D01*
X5012011Y-9824957D01*
X19900000Y-8777937D01*
X19900000Y-11222063D01*
G04 #@! TA.AperFunction,Conductor*
D15*
G36*
X19900000Y-11222063D02*
G01*
X5027296Y-10176118D01*
X4966311Y-10170139D01*
X4933910Y-10160356D01*
X4904016Y-10144462D01*
X4877786Y-10123068D01*
X4856211Y-10096989D01*
X4840111Y-10067213D01*
X4830101Y-10034875D01*
X4826563Y-10001212D01*
X4829631Y-9967498D01*
X4839187Y-9935030D01*
X4854872Y-9905027D01*
X4876081Y-9878648D01*
X4902011Y-9856891D01*
X4931674Y-9840584D01*
X4963937Y-9830349D01*
X5012011Y-9824957D01*
X19900000Y-8777937D01*
X19900000Y-11222063D01*
G37*
G04 #@! TD.AperFunction*
G04 #@! TD*
D14*
G04 #@! TO.N,/AMP*
X110103307Y-7814464D02*
X110199567Y-7854336D01*
X110282232Y-7917768D01*
X110345664Y-8000433D01*
X110385536Y-8096693D01*
X110400000Y-8206559D01*
X110400000Y-11793441D01*
X110385536Y-11903307D01*
X110345664Y-11999567D01*
X110282232Y-12082232D01*
X110199567Y-12145664D01*
X110103307Y-12185536D01*
X109993441Y-12200000D01*
X108106559Y-12200000D01*
X107996693Y-12185536D01*
X107900433Y-12145664D01*
X107817768Y-12082232D01*
X107754336Y-11999567D01*
X107714464Y-11903307D01*
X107700000Y-11793441D01*
X107700000Y-8206559D01*
X107714464Y-8096693D01*
X107754336Y-8000433D01*
X107817768Y-7917768D01*
X107900433Y-7854336D01*
X107996693Y-7814464D01*
X108106559Y-7800000D01*
X109993441Y-7800000D01*
X110103307Y-7814464D01*
G04 #@! TA.AperFunction,Conductor*
D15*
G36*
X110103307Y-7814464D02*
G01*
X110199567Y-7854336D01*
X110282232Y-7917768D01*
X110345664Y-8000433D01*
X110385536Y-8096693D01*
X110400000Y-8206559D01*
X110400000Y-11793441D01*
X110385536Y-11903307D01*
X110345664Y-11999567D01*
X110282232Y-12082232D01*
X110199567Y-12145664D01*
X110103307Y-12185536D01*
X109993441Y-12200000D01*
X108106559Y-12200000D01*
X107996693Y-12185536D01*
X107900433Y-12145664D01*
X107817768Y-12082232D01*
X107754336Y-11999567D01*
X107714464Y-11903307D01*
X107700000Y-11793441D01*
X107700000Y-8206559D01*
X107714464Y-8096693D01*
X107754336Y-8000433D01*
X107817768Y-7917768D01*
X107900433Y-7854336D01*
X107996693Y-7814464D01*
X108106559Y-7800000D01*
X109993441Y-7800000D01*
X110103307Y-7814464D01*
G37*
G04 #@! TD.AperFunction*
G04 #@! TD*
D16*
G04 #@! TO.N,GND*
X92907830Y-5608971D02*
X92908682Y-5617621D01*
X92908843Y-5618153D01*
X92911556Y-5652272D01*
X92913089Y-5660507D01*
X92931618Y-5756315D01*
X92947107Y-5808452D01*
X92961862Y-5860784D01*
X92964966Y-5868565D01*
X93001751Y-5958949D01*
X93027045Y-6007034D01*
X93051709Y-6055554D01*
X93056265Y-6062584D01*
X93109905Y-6144102D01*
X93144068Y-6186372D01*
X93177676Y-6229163D01*
X93183511Y-6235174D01*
X93251963Y-6304721D01*
X93293702Y-6339564D01*
X93334963Y-6374998D01*
X93341851Y-6379759D01*
X93341857Y-6379764D01*
X93341864Y-6379768D01*
X93422510Y-6434689D01*
X93470223Y-6460762D01*
X93517587Y-6487510D01*
X93525272Y-6490844D01*
X93615061Y-6529058D01*
X93666942Y-6545370D01*
X93718584Y-6562404D01*
X93726770Y-6564182D01*
X93822272Y-6584228D01*
X93876325Y-6590152D01*
X93930296Y-6596831D01*
X93938671Y-6596985D01*
X94036248Y-6598100D01*
X94090407Y-6593414D01*
X94144673Y-6589480D01*
X94152919Y-6588004D01*
X94248853Y-6570144D01*
X94301046Y-6555034D01*
X94353521Y-6540634D01*
X94361323Y-6537584D01*
X94361330Y-6537581D01*
X94361334Y-6537580D01*
X94361337Y-6537578D01*
X94451962Y-6501432D01*
X94500229Y-6476472D01*
X94548920Y-6452147D01*
X94555982Y-6447640D01*
X94637873Y-6394570D01*
X94680374Y-6360708D01*
X94723406Y-6327394D01*
X94729458Y-6321601D01*
X94751922Y-6299797D01*
X133900001Y-8345592D01*
X133900000Y-11654408D01*
X94751898Y-13700204D01*
X94732287Y-13680456D01*
X94725795Y-13675162D01*
X94725792Y-13675159D01*
X94725788Y-13675156D01*
X94649745Y-13614016D01*
X94604278Y-13584263D01*
X94559156Y-13553828D01*
X94551764Y-13549899D01*
X94551760Y-13549896D01*
X94551756Y-13549894D01*
X94465280Y-13504686D01*
X94414892Y-13484327D01*
X94364730Y-13463241D01*
X94356710Y-13460820D01*
X94263099Y-13433268D01*
X94209726Y-13423087D01*
X94156407Y-13412142D01*
X94148069Y-13411325D01*
X94050887Y-13402481D01*
X93996542Y-13402861D01*
X93942130Y-13402481D01*
X93933793Y-13403299D01*
X93933790Y-13403299D01*
X93933787Y-13403300D01*
X93836745Y-13413499D01*
X93783525Y-13424423D01*
X93730056Y-13434623D01*
X93722037Y-13437045D01*
X93628818Y-13465901D01*
X93578740Y-13486952D01*
X93528261Y-13507347D01*
X93520864Y-13511281D01*
X93435027Y-13557693D01*
X93389963Y-13588090D01*
X93344440Y-13617879D01*
X93337951Y-13623172D01*
X93337947Y-13623175D01*
X93337943Y-13623179D01*
X93262760Y-13685376D01*
X93224469Y-13723935D01*
X93185591Y-13762007D01*
X93180251Y-13768462D01*
X93118575Y-13844083D01*
X93088489Y-13889366D01*
X93057753Y-13934255D01*
X93053769Y-13941624D01*
X93007957Y-14027785D01*
X92987246Y-14078035D01*
X92965813Y-14128041D01*
X92963336Y-14136043D01*
X92935131Y-14229461D01*
X92924582Y-14282740D01*
X92913260Y-14336004D01*
X92912385Y-14344335D01*
X92906927Y-14400000D01*
X70009945Y-14400000D01*
X67715259Y-14323877D01*
X66592659Y-14230492D01*
X66588863Y-14229847D01*
X32375000Y-11823706D01*
X32375000Y-11757978D01*
X32448779Y-11718542D01*
X32569483Y-11619483D01*
X32668542Y-11498779D01*
X32742150Y-11361070D01*
X32787477Y-11211646D01*
X32802782Y-11056250D01*
X32802782Y-10951444D01*
X32929226Y-10825000D01*
X106658275Y-10825000D01*
X107025000Y-11191726D01*
X107025000Y-11800000D01*
X107029919Y-11875052D01*
X107046956Y-12004462D01*
X107085806Y-12149453D01*
X107135756Y-12270043D01*
X107210811Y-12400041D01*
X107290271Y-12503594D01*
X107396406Y-12609729D01*
X107499959Y-12689189D01*
X107629957Y-12764244D01*
X107750547Y-12814194D01*
X107895538Y-12853044D01*
X108024948Y-12870081D01*
X108100000Y-12875000D01*
X110000000Y-12875000D01*
X110075052Y-12870081D01*
X110204462Y-12853044D01*
X110349453Y-12814194D01*
X110470043Y-12764244D01*
X110600041Y-12689189D01*
X110703594Y-12609729D01*
X110809729Y-12503594D01*
X110889189Y-12400041D01*
X110964244Y-12270043D01*
X111014194Y-12149453D01*
X111053044Y-12004462D01*
X111070081Y-11875052D01*
X111075000Y-11800000D01*
X111075000Y-8200000D01*
X111070081Y-8124948D01*
X111053044Y-7995538D01*
X111014194Y-7850547D01*
X110964244Y-7729957D01*
X110889189Y-7599959D01*
X110809729Y-7496406D01*
X110703594Y-7390271D01*
X110600041Y-7310811D01*
X110470043Y-7235756D01*
X110349453Y-7185806D01*
X110204462Y-7146956D01*
X110075052Y-7129919D01*
X110000000Y-7125000D01*
X108100000Y-7125000D01*
X108024948Y-7129919D01*
X107895538Y-7146956D01*
X107750547Y-7185806D01*
X107629957Y-7235756D01*
X107499959Y-7310811D01*
X107396406Y-7390271D01*
X107290271Y-7496406D01*
X107210811Y-7599959D01*
X107135756Y-7729957D01*
X107085806Y-7850547D01*
X107046956Y-7995538D01*
X107029919Y-8124948D01*
X107025000Y-8200000D01*
X107025000Y-8808274D01*
X106658275Y-9175000D01*
X32929226Y-9175000D01*
X32802782Y-9048556D01*
X32802782Y-8943750D01*
X32787477Y-8788354D01*
X32742150Y-8638930D01*
X32668542Y-8501221D01*
X32569483Y-8380517D01*
X32448779Y-8281458D01*
X32375000Y-8242022D01*
X32375000Y-8176294D01*
X66558477Y-5772290D01*
X68858058Y-5619125D01*
X70005025Y-5600000D01*
X92906526Y-5600000D01*
X92907830Y-5608971D01*
G04 #@! TA.AperFunction,Conductor*
D15*
G36*
X92907830Y-5608971D02*
G01*
X92908682Y-5617621D01*
X92908843Y-5618153D01*
X92911556Y-5652272D01*
X92913089Y-5660507D01*
X92931618Y-5756315D01*
X92947107Y-5808452D01*
X92961862Y-5860784D01*
X92964966Y-5868565D01*
X93001751Y-5958949D01*
X93027045Y-6007034D01*
X93051709Y-6055554D01*
X93056265Y-6062584D01*
X93109905Y-6144102D01*
X93144068Y-6186372D01*
X93177676Y-6229163D01*
X93183511Y-6235174D01*
X93251963Y-6304721D01*
X93293702Y-6339564D01*
X93334963Y-6374998D01*
X93341851Y-6379759D01*
X93341857Y-6379764D01*
X93341864Y-6379768D01*
X93422510Y-6434689D01*
X93470223Y-6460762D01*
X93517587Y-6487510D01*
X93525272Y-6490844D01*
X93615061Y-6529058D01*
X93666942Y-6545370D01*
X93718584Y-6562404D01*
X93726770Y-6564182D01*
X93822272Y-6584228D01*
X93876325Y-6590152D01*
X93930296Y-6596831D01*
X93938671Y-6596985D01*
X94036248Y-6598100D01*
X94090407Y-6593414D01*
X94144673Y-6589480D01*
X94152919Y-6588004D01*
X94248853Y-6570144D01*
X94301046Y-6555034D01*
X94353521Y-6540634D01*
X94361323Y-6537584D01*
X94361330Y-6537581D01*
X94361334Y-6537580D01*
X94361337Y-6537578D01*
X94451962Y-6501432D01*
X94500229Y-6476472D01*
X94548920Y-6452147D01*
X94555982Y-6447640D01*
X94637873Y-6394570D01*
X94680374Y-6360708D01*
X94723406Y-6327394D01*
X94729458Y-6321601D01*
X94751922Y-6299797D01*
X133900001Y-8345592D01*
X133900000Y-11654408D01*
X94751898Y-13700204D01*
X94732287Y-13680456D01*
X94725795Y-13675162D01*
X94725792Y-13675159D01*
X94725788Y-13675156D01*
X94649745Y-13614016D01*
X94604278Y-13584263D01*
X94559156Y-13553828D01*
X94551764Y-13549899D01*
X94551760Y-13549896D01*
X94551756Y-13549894D01*
X94465280Y-13504686D01*
X94414892Y-13484327D01*
X94364730Y-13463241D01*
X94356710Y-13460820D01*
X94263099Y-13433268D01*
X94209726Y-13423087D01*
X94156407Y-13412142D01*
X94148069Y-13411325D01*
X94050887Y-13402481D01*
X93996542Y-13402861D01*
X93942130Y-13402481D01*
X93933793Y-13403299D01*
X93933790Y-13403299D01*
X93933787Y-13403300D01*
X93836745Y-13413499D01*
X93783525Y-13424423D01*
X93730056Y-13434623D01*
X93722037Y-13437045D01*
X93628818Y-13465901D01*
X93578740Y-13486952D01*
X93528261Y-13507347D01*
X93520864Y-13511281D01*
X93435027Y-13557693D01*
X93389963Y-13588090D01*
X93344440Y-13617879D01*
X93337951Y-13623172D01*
X93337947Y-13623175D01*
X93337943Y-13623179D01*
X93262760Y-13685376D01*
X93224469Y-13723935D01*
X93185591Y-13762007D01*
X93180251Y-13768462D01*
X93118575Y-13844083D01*
X93088489Y-13889366D01*
X93057753Y-13934255D01*
X93053769Y-13941624D01*
X93007957Y-14027785D01*
X92987246Y-14078035D01*
X92965813Y-14128041D01*
X92963336Y-14136043D01*
X92935131Y-14229461D01*
X92924582Y-14282740D01*
X92913260Y-14336004D01*
X92912385Y-14344335D01*
X92906927Y-14400000D01*
X70009945Y-14400000D01*
X67715259Y-14323877D01*
X66592659Y-14230492D01*
X66588863Y-14229847D01*
X32375000Y-11823706D01*
X32375000Y-11757978D01*
X32448779Y-11718542D01*
X32569483Y-11619483D01*
X32668542Y-11498779D01*
X32742150Y-11361070D01*
X32787477Y-11211646D01*
X32802782Y-11056250D01*
X32802782Y-10951444D01*
X32929226Y-10825000D01*
X106658275Y-10825000D01*
X107025000Y-11191726D01*
X107025000Y-11800000D01*
X107029919Y-11875052D01*
X107046956Y-12004462D01*
X107085806Y-12149453D01*
X107135756Y-12270043D01*
X107210811Y-12400041D01*
X107290271Y-12503594D01*
X107396406Y-12609729D01*
X107499959Y-12689189D01*
X107629957Y-12764244D01*
X107750547Y-12814194D01*
X107895538Y-12853044D01*
X108024948Y-12870081D01*
X108100000Y-12875000D01*
X110000000Y-12875000D01*
X110075052Y-12870081D01*
X110204462Y-12853044D01*
X110349453Y-12814194D01*
X110470043Y-12764244D01*
X110600041Y-12689189D01*
X110703594Y-12609729D01*
X110809729Y-12503594D01*
X110889189Y-12400041D01*
X110964244Y-12270043D01*
X111014194Y-12149453D01*
X111053044Y-12004462D01*
X111070081Y-11875052D01*
X111075000Y-11800000D01*
X111075000Y-8200000D01*
X111070081Y-8124948D01*
X111053044Y-7995538D01*
X111014194Y-7850547D01*
X110964244Y-7729957D01*
X110889189Y-7599959D01*
X110809729Y-7496406D01*
X110703594Y-7390271D01*
X110600041Y-7310811D01*
X110470043Y-7235756D01*
X110349453Y-7185806D01*
X110204462Y-7146956D01*
X110075052Y-7129919D01*
X110000000Y-7125000D01*
X108100000Y-7125000D01*
X108024948Y-7129919D01*
X107895538Y-7146956D01*
X107750547Y-7185806D01*
X107629957Y-7235756D01*
X107499959Y-7310811D01*
X107396406Y-7390271D01*
X107290271Y-7496406D01*
X107210811Y-7599959D01*
X107135756Y-7729957D01*
X107085806Y-7850547D01*
X107046956Y-7995538D01*
X107029919Y-8124948D01*
X107025000Y-8200000D01*
X107025000Y-8808274D01*
X106658275Y-9175000D01*
X32929226Y-9175000D01*
X32802782Y-9048556D01*
X32802782Y-8943750D01*
X32787477Y-8788354D01*
X32742150Y-8638930D01*
X32668542Y-8501221D01*
X32569483Y-8380517D01*
X32448779Y-8281458D01*
X32375000Y-8242022D01*
X32375000Y-8176294D01*
X66558477Y-5772290D01*
X68858058Y-5619125D01*
X70005025Y-5600000D01*
X92906526Y-5600000D01*
X92907830Y-5608971D01*
G37*
G04 #@! TD.AperFunction*
G04 #@! TD*
D17*
X41000000Y-8000000D03*
X103500000Y-8500000D03*
X112400000Y-8500000D03*
X41000000Y-12000000D03*
X103500000Y-11500000D03*
X112400000Y-11600000D03*
X108900000Y-10000000D03*
M02*
