G04 #@! TF.GenerationSoftware,KiCad,Pcbnew,5.1.9-73d0e3b20d~88~ubuntu20.04.1*
G04 #@! TF.CreationDate,2021-08-20T12:19:55+03:00*
G04 #@! TF.ProjectId,diff_probe_amplifier,64696666-5f70-4726-9f62-655f616d706c,rev?*
G04 #@! TF.SameCoordinates,Original*
G04 #@! TF.FileFunction,Copper,L4,Bot*
G04 #@! TF.FilePolarity,Positive*
%FSLAX46Y46*%
G04 Gerber Fmt 4.6, Leading zero omitted, Abs format (unit mm)*
G04 Created by KiCad (PCBNEW 5.1.9-73d0e3b20d~88~ubuntu20.04.1) date 2021-08-20 12:19:55*
%MOMM*%
%LPD*%
G01*
G04 APERTURE LIST*
G04 #@! TA.AperFunction,SMDPad,CuDef*
%ADD10C,2.500000*%
G04 #@! TD*
G04 #@! TA.AperFunction,ComponentPad*
%ADD11R,1.000000X0.800000*%
G04 #@! TD*
G04 #@! TA.AperFunction,ComponentPad*
%ADD12C,1.500000*%
G04 #@! TD*
G04 #@! TA.AperFunction,SMDPad,CuDef*
%ADD13C,0.350000*%
G04 #@! TD*
G04 #@! TA.AperFunction,ComponentPad*
%ADD14C,0.600000*%
G04 #@! TD*
G04 #@! TA.AperFunction,ComponentPad*
%ADD15C,4.200000*%
G04 #@! TD*
G04 #@! TA.AperFunction,SMDPad,CuDef*
%ADD16R,2.400000X1.650000*%
G04 #@! TD*
G04 #@! TA.AperFunction,SMDPad,CuDef*
%ADD17R,1.650000X2.400000*%
G04 #@! TD*
G04 #@! TA.AperFunction,ViaPad*
%ADD18C,0.600000*%
G04 #@! TD*
G04 #@! TA.AperFunction,Conductor*
%ADD19C,0.300000*%
G04 #@! TD*
G04 #@! TA.AperFunction,Conductor*
%ADD20C,0.500000*%
G04 #@! TD*
G04 #@! TA.AperFunction,Conductor*
%ADD21C,1.000000*%
G04 #@! TD*
G04 #@! TA.AperFunction,Conductor*
%ADD22C,0.200000*%
G04 #@! TD*
G04 #@! TA.AperFunction,Conductor*
%ADD23C,0.350000*%
G04 #@! TD*
%ADD24C,0.300000*%
%ADD25C,0.350000*%
G04 APERTURE END LIST*
D10*
G04 #@! TO.P,TP8,1*
G04 #@! TO.N,/CONN_IN-*
X8200000Y-4200000D03*
G04 #@! TD*
G04 #@! TO.P,TP7,1*
G04 #@! TO.N,/CONN_IN+*
X19800000Y-4200000D03*
G04 #@! TD*
D11*
G04 #@! TO.P,J1,2*
G04 #@! TO.N,GNDA*
X13500000Y-33100000D03*
X13500000Y-32300000D03*
X13500000Y-31500000D03*
X14500000Y-31500000D03*
X14500000Y-32300000D03*
G04 #@! TO.P,J1,3*
G04 #@! TO.N,+5V*
X15700000Y-34700000D03*
X15700000Y-35500000D03*
X15700000Y-36300000D03*
X12300000Y-34700000D03*
X12300000Y-35500000D03*
X12300000Y-36300000D03*
D12*
G04 #@! TO.P,J1,1*
G04 #@! TO.N,/OUT*
X14000000Y-29400000D03*
D11*
G04 #@! TO.P,J1,2*
G04 #@! TO.N,GNDA*
X14500000Y-33100000D03*
G04 #@! TD*
G04 #@! TA.AperFunction,SMDPad,CuDef*
D13*
G04 #@! TO.P,J4,1*
G04 #@! TO.N,GNDA*
G36*
X24484916Y-10123962D02*
G01*
X25084094Y-10092560D01*
X25115496Y-10691738D01*
X24516318Y-10723140D01*
X24484916Y-10123962D01*
G37*
G04 #@! TD.AperFunction*
G04 #@! TA.AperFunction,SMDPad,CuDef*
G36*
X24800205Y-10407850D02*
G01*
X25399383Y-10376448D01*
X25430785Y-10975626D01*
X24831607Y-11007028D01*
X24800205Y-10407850D01*
G37*
G04 #@! TD.AperFunction*
D14*
X25099794Y-10392150D03*
X24500617Y-10423551D03*
X25131196Y-10991327D03*
G04 #@! TD*
G04 #@! TA.AperFunction,SMDPad,CuDef*
D13*
G04 #@! TO.P,J3,1*
G04 #@! TO.N,/IN+*
G36*
X24734916Y-15123962D02*
G01*
X25334094Y-15092560D01*
X25365496Y-15691738D01*
X24766318Y-15723140D01*
X24734916Y-15123962D01*
G37*
G04 #@! TD.AperFunction*
G04 #@! TA.AperFunction,SMDPad,CuDef*
G36*
X25050205Y-15407850D02*
G01*
X25649383Y-15376448D01*
X25680785Y-15975626D01*
X25081607Y-16007028D01*
X25050205Y-15407850D01*
G37*
G04 #@! TD.AperFunction*
D14*
X25349794Y-15392150D03*
X24750617Y-15423551D03*
X25381196Y-15991327D03*
G04 #@! TD*
G04 #@! TO.P,J6,1*
G04 #@! TO.N,/IN-*
X2618804Y-15991327D03*
X3249383Y-15423551D03*
X2650206Y-15392150D03*
G04 #@! TA.AperFunction,SMDPad,CuDef*
D13*
G36*
X2918393Y-16007028D02*
G01*
X2319215Y-15975626D01*
X2350617Y-15376448D01*
X2949795Y-15407850D01*
X2918393Y-16007028D01*
G37*
G04 #@! TD.AperFunction*
G04 #@! TA.AperFunction,SMDPad,CuDef*
G36*
X3233682Y-15723140D02*
G01*
X2634504Y-15691738D01*
X2665906Y-15092560D01*
X3265084Y-15123962D01*
X3233682Y-15723140D01*
G37*
G04 #@! TD.AperFunction*
G04 #@! TD*
D14*
G04 #@! TO.P,J5,1*
G04 #@! TO.N,GNDA*
X2868804Y-10991327D03*
X3499383Y-10423551D03*
X2900206Y-10392150D03*
G04 #@! TA.AperFunction,SMDPad,CuDef*
D13*
G36*
X3168393Y-11007028D02*
G01*
X2569215Y-10975626D01*
X2600617Y-10376448D01*
X3199795Y-10407850D01*
X3168393Y-11007028D01*
G37*
G04 #@! TD.AperFunction*
G04 #@! TA.AperFunction,SMDPad,CuDef*
G36*
X3483682Y-10723140D02*
G01*
X2884504Y-10691738D01*
X2915906Y-10092560D01*
X3515084Y-10123962D01*
X3483682Y-10723140D01*
G37*
G04 #@! TD.AperFunction*
G04 #@! TD*
D15*
G04 #@! TO.P,H1,1*
G04 #@! TO.N,GNDA*
X19000000Y-34700000D03*
G04 #@! TD*
D10*
G04 #@! TO.P,TP4,1*
G04 #@! TO.N,GNDA*
X14000000Y-20000000D03*
G04 #@! TD*
G04 #@! TO.P,TP3,1*
G04 #@! TO.N,-6V*
X17000000Y-29400000D03*
G04 #@! TD*
G04 #@! TO.P,TP2,1*
G04 #@! TO.N,+6V*
X11000000Y-29400000D03*
G04 #@! TD*
G04 #@! TO.P,TP1,1*
G04 #@! TO.N,+5V*
X11000000Y-32900000D03*
G04 #@! TD*
D14*
G04 #@! TO.P,U4,9*
G04 #@! TO.N,-6V*
X18550000Y-24600000D03*
X18550000Y-23600000D03*
X20050000Y-24600000D03*
X20050000Y-23600000D03*
X19300000Y-24100000D03*
D16*
X19300000Y-24100000D03*
G04 #@! TD*
D14*
G04 #@! TO.P,U3,9*
G04 #@! TO.N,-6V*
X10400000Y-12750000D03*
X9400000Y-12750000D03*
X10400000Y-11250000D03*
X9400000Y-11250000D03*
X9900000Y-12000000D03*
D17*
X9900000Y-12000000D03*
G04 #@! TD*
D14*
G04 #@! TO.P,U2,9*
G04 #@! TO.N,-6V*
X17600000Y-11250000D03*
X18600000Y-11250000D03*
X17600000Y-12750000D03*
X18600000Y-12750000D03*
X18100000Y-12000000D03*
D17*
X18100000Y-12000000D03*
G04 #@! TD*
D18*
G04 #@! TO.N,GND*
X9100000Y-30700000D03*
X9800000Y-31400000D03*
X8356250Y-29243750D03*
X6800000Y-32900000D03*
X8000000Y-23400000D03*
X9000000Y-21200000D03*
X11400000Y-23591048D03*
X5900000Y-29200000D03*
X5100000Y-29200000D03*
X5900000Y-29800000D03*
X5100000Y-29800000D03*
X5100000Y-30400000D03*
X5900000Y-30400000D03*
X5900000Y-28600000D03*
X5100000Y-28600000D03*
X5100000Y-28000000D03*
X5900000Y-28000000D03*
X2169305Y-35459689D03*
X6800000Y-24800000D03*
X9800000Y-30700000D03*
X2350000Y-23350000D03*
X11400000Y-22950000D03*
X2850027Y-19550027D03*
X13749990Y-22945864D03*
X10249967Y-19550027D03*
X7950027Y-19550027D03*
X12200000Y-21000004D03*
G04 #@! TO.N,Net-(C4-Pad1)*
X6700000Y-34600000D03*
X6100000Y-21600013D03*
X10018750Y-24831250D03*
G04 #@! TO.N,Net-(C5-Pad1)*
X6100000Y-20800000D03*
X5189209Y-34610791D03*
X12650000Y-24950000D03*
G04 #@! TO.N,+6V*
X12790380Y-10809620D03*
X15009620Y-10809620D03*
X19000000Y-27700000D03*
X15700000Y-27700000D03*
X11093750Y-28906250D03*
X22900000Y-27600000D03*
X21800000Y-26400000D03*
X11503370Y-16203370D03*
G04 #@! TO.N,-6V*
X17199986Y-13500000D03*
X17800000Y-13500000D03*
X18400004Y-13500000D03*
X19000000Y-13500006D03*
X17500000Y-14000000D03*
X18100000Y-14000000D03*
X18700000Y-14000000D03*
X9000000Y-13500000D03*
X9600000Y-13500000D03*
X10200000Y-13500000D03*
X10800000Y-13500000D03*
X9300000Y-14000000D03*
X9900000Y-14000000D03*
X10500000Y-14000000D03*
X8712500Y-14012500D03*
X11100000Y-14000000D03*
X16900000Y-14000000D03*
X19300000Y-14000000D03*
X9000000Y-10500000D03*
X9600000Y-10500000D03*
X10200000Y-10500000D03*
X10800000Y-10500000D03*
X17200000Y-10500000D03*
X17800000Y-10500000D03*
X18400000Y-10500000D03*
X19000000Y-10500000D03*
X20800000Y-23200000D03*
X20800000Y-23800000D03*
X20800000Y-24400000D03*
X20800000Y-25000000D03*
X17800000Y-23200000D03*
X17800000Y-23800000D03*
X17800000Y-24400000D03*
X17800000Y-25000000D03*
X17300000Y-23500000D03*
X17300000Y-22900000D03*
X17300000Y-24100000D03*
X17300000Y-24700000D03*
X17300000Y-25300000D03*
X16800000Y-23200000D03*
X16800000Y-22600000D03*
X16800000Y-23800000D03*
X16800000Y-24400000D03*
X16800000Y-25000000D03*
X16800000Y-25600000D03*
X23500000Y-31000000D03*
X16300000Y-22900000D03*
X16300004Y-22300000D03*
X16300000Y-23500000D03*
X16300000Y-24100000D03*
X16300000Y-24700000D03*
X16300000Y-25300000D03*
X16300000Y-25900000D03*
X14088897Y-27149573D03*
G04 #@! TO.N,Net-(C26-Pad1)*
X7675000Y-31115908D03*
X7800000Y-28300000D03*
X3487095Y-31027421D03*
X10000002Y-35700000D03*
X10000000Y-36299984D03*
X7800000Y-27700000D03*
G04 #@! TO.N,/CONN_IN+*
X19800000Y-3850000D03*
G04 #@! TO.N,/CONN_IN-*
X8200000Y-3850000D03*
G04 #@! TO.N,GNDA*
X24200000Y-24600000D03*
X9600000Y-15600000D03*
X22900000Y-8850012D03*
X14800000Y-13600000D03*
X12999987Y-13578597D03*
X16700000Y-20500000D03*
X5900000Y-16200000D03*
X22100000Y-16200000D03*
X22100000Y-17700000D03*
X12500000Y-19100000D03*
X6080000Y-2415000D03*
X10320000Y-2415000D03*
X17808782Y-2536827D03*
X21920000Y-2415000D03*
X6174990Y-4874990D03*
X17700000Y-4900000D03*
X21825010Y-4825010D03*
X15500000Y-19100000D03*
X10300000Y-4900000D03*
X15000000Y-8700000D03*
X12800000Y-8700000D03*
X17524882Y1000000D03*
X17524966Y-750000D03*
X10475030Y1000000D03*
X10475020Y-700000D03*
X24000000Y-33800000D03*
X5900000Y-17700000D03*
X2900000Y-18100000D03*
X10200000Y-18100000D03*
X23600000Y-24600000D03*
X13749990Y-20600000D03*
X15270711Y-26210049D03*
X8000000Y-18100000D03*
X15270711Y-22929289D03*
X14900000Y-28450006D03*
G04 #@! TD*
D19*
G04 #@! TO.N,GND*
X9000000Y-21200000D02*
X10249967Y-19950033D01*
X10249967Y-19950033D02*
X10249967Y-19550027D01*
G04 #@! TO.N,+6V*
X21800000Y-26500000D02*
X21800000Y-26400000D01*
D20*
G04 #@! TO.N,-6V*
X17599999Y-22600001D02*
X17300000Y-22900000D01*
X17599999Y-14699999D02*
X17599999Y-22600001D01*
X16900000Y-14000000D02*
X17599999Y-14699999D01*
D19*
X15250427Y-27149573D02*
X14088897Y-27149573D01*
X16800000Y-25600000D02*
X15250427Y-27149573D01*
D21*
X14730233Y-27149573D02*
X14750329Y-27169669D01*
X14088897Y-27149573D02*
X14730233Y-27149573D01*
D19*
G04 #@! TO.N,Net-(C26-Pad1)*
X7800000Y-28300000D02*
X7675000Y-28425000D01*
G04 #@! TO.N,+5V*
X12300000Y-34700000D02*
X12200000Y-34700000D01*
X12719999Y-30749999D02*
X12300000Y-31169998D01*
X15280001Y-30749999D02*
X12719999Y-30749999D01*
X15700000Y-31169998D02*
X15280001Y-30749999D01*
X15700000Y-34700000D02*
X15700000Y-31169998D01*
D20*
X11800000Y-32900000D02*
X11000000Y-32900000D01*
X12200000Y-33300000D02*
X11800000Y-32900000D01*
X12200000Y-34700000D02*
X12200000Y-33300000D01*
D19*
X12300000Y-31169998D02*
X12300000Y-32000000D01*
X11000000Y-32900000D02*
X11600000Y-32900000D01*
X11600000Y-32300000D02*
X11000000Y-32900000D01*
X12300000Y-32000000D02*
X12300000Y-32300000D01*
X12300000Y-32300000D02*
X11600000Y-32300000D01*
X12300000Y-32300000D02*
X12300000Y-34700000D01*
G04 #@! TD*
D22*
G04 #@! TO.N,-6V*
X16690000Y-5500000D02*
X16695957Y-5560478D01*
X16713597Y-5618632D01*
X16742244Y-5672227D01*
X16780797Y-5719203D01*
X16827773Y-5757756D01*
X16881368Y-5786403D01*
X16939522Y-5804043D01*
X17000000Y-5810000D01*
X23000000Y-5810000D01*
X23060478Y-5804043D01*
X23118632Y-5786403D01*
X23172227Y-5757756D01*
X23219203Y-5719203D01*
X23257756Y-5672227D01*
X23286403Y-5618632D01*
X23304043Y-5560478D01*
X23310000Y-5500000D01*
X23310000Y-3593750D01*
X23694746Y-3798323D01*
X23721956Y-3809538D01*
X23749053Y-3821152D01*
X23753389Y-3822494D01*
X24220478Y-3963517D01*
X24249376Y-3969239D01*
X24278186Y-3975362D01*
X24282700Y-3975837D01*
X24768286Y-4023449D01*
X24768287Y-4023449D01*
X24833689Y-4029861D01*
X24866090Y-4039644D01*
X24895982Y-4055537D01*
X24922213Y-4076932D01*
X24943791Y-4103015D01*
X24959888Y-4132786D01*
X24969899Y-4165125D01*
X24975526Y-4218665D01*
X25251033Y-9810479D01*
X25158889Y-9792150D01*
X25082012Y-9792150D01*
X25068317Y-9791522D01*
X25056334Y-9792150D01*
X25040699Y-9792150D01*
X25035106Y-9793263D01*
X24469139Y-9822924D01*
X24465005Y-9823551D01*
X24441522Y-9823551D01*
X24325603Y-9846609D01*
X24216410Y-9891838D01*
X24118139Y-9957501D01*
X24034567Y-10041073D01*
X23968904Y-10139344D01*
X23923675Y-10248537D01*
X23900617Y-10364456D01*
X23900617Y-10482646D01*
X23923675Y-10598565D01*
X23968904Y-10707758D01*
X24034567Y-10806029D01*
X24118139Y-10889601D01*
X24216410Y-10955264D01*
X24325603Y-11000493D01*
X24441522Y-11023551D01*
X24518422Y-11023551D01*
X24530768Y-11024117D01*
X24531196Y-11026939D01*
X24531196Y-11050422D01*
X24554254Y-11166341D01*
X24599483Y-11275534D01*
X24665146Y-11373805D01*
X24748718Y-11457377D01*
X24846989Y-11523040D01*
X24956182Y-11568269D01*
X25072101Y-11591327D01*
X25190291Y-11591327D01*
X25306210Y-11568269D01*
X25337010Y-11555511D01*
X25405850Y-12952728D01*
X23929289Y-14429289D01*
X23916853Y-14444443D01*
X23907612Y-14461732D01*
X23901921Y-14480491D01*
X23900000Y-14500000D01*
X23900000Y-16500000D01*
X23901921Y-16519509D01*
X23907612Y-16538268D01*
X23916853Y-16555557D01*
X23929289Y-16570711D01*
X25669864Y-18311286D01*
X25698869Y-18900000D01*
X16066593Y-18900000D01*
X16031713Y-18815793D01*
X15966050Y-18717522D01*
X15882478Y-18633950D01*
X15784207Y-18568287D01*
X15675014Y-18523058D01*
X15559095Y-18500000D01*
X15440905Y-18500000D01*
X15324986Y-18523058D01*
X15215793Y-18568287D01*
X15117522Y-18633950D01*
X15033950Y-18717522D01*
X14983519Y-18792997D01*
X14734200Y-18626408D01*
X14452118Y-18509565D01*
X14152662Y-18450000D01*
X13847338Y-18450000D01*
X13547882Y-18509565D01*
X13265800Y-18626408D01*
X13016481Y-18792997D01*
X12966050Y-18717522D01*
X12882478Y-18633950D01*
X12784207Y-18568287D01*
X12675014Y-18523058D01*
X12559095Y-18500000D01*
X12440905Y-18500000D01*
X12324986Y-18523058D01*
X12215793Y-18568287D01*
X12117522Y-18633950D01*
X12033950Y-18717522D01*
X11968287Y-18815793D01*
X11933407Y-18900000D01*
X2301130Y-18900000D01*
X2330135Y-18311287D01*
X2335754Y-18305668D01*
X2368287Y-18384207D01*
X2433950Y-18482478D01*
X2517522Y-18566050D01*
X2615793Y-18631713D01*
X2724986Y-18676942D01*
X2840905Y-18700000D01*
X2959095Y-18700000D01*
X3075014Y-18676942D01*
X3184207Y-18631713D01*
X3282478Y-18566050D01*
X3366050Y-18482478D01*
X3431713Y-18384207D01*
X3476942Y-18275014D01*
X3500000Y-18159095D01*
X3500000Y-18040905D01*
X3476942Y-17924986D01*
X3431713Y-17815793D01*
X3366050Y-17717522D01*
X3289433Y-17640905D01*
X5300000Y-17640905D01*
X5300000Y-17759095D01*
X5323058Y-17875014D01*
X5368287Y-17984207D01*
X5433950Y-18082478D01*
X5517522Y-18166050D01*
X5615793Y-18231713D01*
X5724986Y-18276942D01*
X5840905Y-18300000D01*
X5959095Y-18300000D01*
X6075014Y-18276942D01*
X6184207Y-18231713D01*
X6282478Y-18166050D01*
X6366050Y-18082478D01*
X6393828Y-18040905D01*
X7400000Y-18040905D01*
X7400000Y-18159095D01*
X7423058Y-18275014D01*
X7468287Y-18384207D01*
X7533950Y-18482478D01*
X7617522Y-18566050D01*
X7715793Y-18631713D01*
X7824986Y-18676942D01*
X7940905Y-18700000D01*
X8059095Y-18700000D01*
X8175014Y-18676942D01*
X8284207Y-18631713D01*
X8382478Y-18566050D01*
X8466050Y-18482478D01*
X8531713Y-18384207D01*
X8576942Y-18275014D01*
X8600000Y-18159095D01*
X8600000Y-18040905D01*
X9600000Y-18040905D01*
X9600000Y-18159095D01*
X9623058Y-18275014D01*
X9668287Y-18384207D01*
X9733950Y-18482478D01*
X9817522Y-18566050D01*
X9915793Y-18631713D01*
X10024986Y-18676942D01*
X10140905Y-18700000D01*
X10259095Y-18700000D01*
X10375014Y-18676942D01*
X10484207Y-18631713D01*
X10582478Y-18566050D01*
X10666050Y-18482478D01*
X10731713Y-18384207D01*
X10776942Y-18275014D01*
X10800000Y-18159095D01*
X10800000Y-18040905D01*
X10776942Y-17924986D01*
X10731713Y-17815793D01*
X10666050Y-17717522D01*
X10589433Y-17640905D01*
X21500000Y-17640905D01*
X21500000Y-17759095D01*
X21523058Y-17875014D01*
X21568287Y-17984207D01*
X21633950Y-18082478D01*
X21717522Y-18166050D01*
X21815793Y-18231713D01*
X21924986Y-18276942D01*
X22040905Y-18300000D01*
X22159095Y-18300000D01*
X22275014Y-18276942D01*
X22384207Y-18231713D01*
X22482478Y-18166050D01*
X22566050Y-18082478D01*
X22631713Y-17984207D01*
X22676942Y-17875014D01*
X22700000Y-17759095D01*
X22700000Y-17640905D01*
X22676942Y-17524986D01*
X22631713Y-17415793D01*
X22566050Y-17317522D01*
X22482478Y-17233950D01*
X22384207Y-17168287D01*
X22275014Y-17123058D01*
X22159095Y-17100000D01*
X22040905Y-17100000D01*
X21924986Y-17123058D01*
X21815793Y-17168287D01*
X21717522Y-17233950D01*
X21633950Y-17317522D01*
X21568287Y-17415793D01*
X21523058Y-17524986D01*
X21500000Y-17640905D01*
X10589433Y-17640905D01*
X10582478Y-17633950D01*
X10484207Y-17568287D01*
X10375014Y-17523058D01*
X10259095Y-17500000D01*
X10140905Y-17500000D01*
X10024986Y-17523058D01*
X9915793Y-17568287D01*
X9817522Y-17633950D01*
X9733950Y-17717522D01*
X9668287Y-17815793D01*
X9623058Y-17924986D01*
X9600000Y-18040905D01*
X8600000Y-18040905D01*
X8576942Y-17924986D01*
X8531713Y-17815793D01*
X8466050Y-17717522D01*
X8382478Y-17633950D01*
X8284207Y-17568287D01*
X8175014Y-17523058D01*
X8059095Y-17500000D01*
X7940905Y-17500000D01*
X7824986Y-17523058D01*
X7715793Y-17568287D01*
X7617522Y-17633950D01*
X7533950Y-17717522D01*
X7468287Y-17815793D01*
X7423058Y-17924986D01*
X7400000Y-18040905D01*
X6393828Y-18040905D01*
X6431713Y-17984207D01*
X6476942Y-17875014D01*
X6500000Y-17759095D01*
X6500000Y-17640905D01*
X6476942Y-17524986D01*
X6431713Y-17415793D01*
X6366050Y-17317522D01*
X6282478Y-17233950D01*
X6184207Y-17168287D01*
X6075014Y-17123058D01*
X5959095Y-17100000D01*
X5840905Y-17100000D01*
X5724986Y-17123058D01*
X5615793Y-17168287D01*
X5517522Y-17233950D01*
X5433950Y-17317522D01*
X5368287Y-17415793D01*
X5323058Y-17524986D01*
X5300000Y-17640905D01*
X3289433Y-17640905D01*
X3282478Y-17633950D01*
X3184207Y-17568287D01*
X3105667Y-17535755D01*
X4070711Y-16570711D01*
X4083147Y-16555557D01*
X4092388Y-16538268D01*
X4098079Y-16519509D01*
X4100000Y-16500000D01*
X4100000Y-16140905D01*
X5300000Y-16140905D01*
X5300000Y-16259095D01*
X5323058Y-16375014D01*
X5368287Y-16484207D01*
X5433950Y-16582478D01*
X5517522Y-16666050D01*
X5615793Y-16731713D01*
X5724986Y-16776942D01*
X5840905Y-16800000D01*
X5959095Y-16800000D01*
X6075014Y-16776942D01*
X6184207Y-16731713D01*
X6282478Y-16666050D01*
X6366050Y-16582478D01*
X6431713Y-16484207D01*
X6476942Y-16375014D01*
X6500000Y-16259095D01*
X6500000Y-16140905D01*
X6476942Y-16024986D01*
X6431713Y-15915793D01*
X6366050Y-15817522D01*
X6282478Y-15733950D01*
X6184207Y-15668287D01*
X6075014Y-15623058D01*
X5959095Y-15600000D01*
X5840905Y-15600000D01*
X5724986Y-15623058D01*
X5615793Y-15668287D01*
X5517522Y-15733950D01*
X5433950Y-15817522D01*
X5368287Y-15915793D01*
X5323058Y-16024986D01*
X5300000Y-16140905D01*
X4100000Y-16140905D01*
X4100000Y-15540905D01*
X9000000Y-15540905D01*
X9000000Y-15659095D01*
X9023058Y-15775014D01*
X9068287Y-15884207D01*
X9133950Y-15982478D01*
X9217522Y-16066050D01*
X9315793Y-16131713D01*
X9424986Y-16176942D01*
X9540905Y-16200000D01*
X9659095Y-16200000D01*
X9775014Y-16176942D01*
X9853879Y-16144275D01*
X10903370Y-16144275D01*
X10903370Y-16262465D01*
X10926428Y-16378384D01*
X10971657Y-16487577D01*
X11037320Y-16585848D01*
X11120892Y-16669420D01*
X11219163Y-16735083D01*
X11328356Y-16780312D01*
X11444275Y-16803370D01*
X11562465Y-16803370D01*
X11678384Y-16780312D01*
X11787577Y-16735083D01*
X11885848Y-16669420D01*
X11969420Y-16585848D01*
X12035083Y-16487577D01*
X12080312Y-16378384D01*
X12103370Y-16262465D01*
X12103370Y-16144275D01*
X12102700Y-16140905D01*
X21500000Y-16140905D01*
X21500000Y-16259095D01*
X21523058Y-16375014D01*
X21568287Y-16484207D01*
X21633950Y-16582478D01*
X21717522Y-16666050D01*
X21815793Y-16731713D01*
X21924986Y-16776942D01*
X22040905Y-16800000D01*
X22159095Y-16800000D01*
X22275014Y-16776942D01*
X22384207Y-16731713D01*
X22482478Y-16666050D01*
X22566050Y-16582478D01*
X22631713Y-16484207D01*
X22676942Y-16375014D01*
X22700000Y-16259095D01*
X22700000Y-16140905D01*
X22676942Y-16024986D01*
X22631713Y-15915793D01*
X22566050Y-15817522D01*
X22482478Y-15733950D01*
X22384207Y-15668287D01*
X22275014Y-15623058D01*
X22159095Y-15600000D01*
X22040905Y-15600000D01*
X21924986Y-15623058D01*
X21815793Y-15668287D01*
X21717522Y-15733950D01*
X21633950Y-15817522D01*
X21568287Y-15915793D01*
X21523058Y-16024986D01*
X21500000Y-16140905D01*
X12102700Y-16140905D01*
X12080312Y-16028356D01*
X12035083Y-15919163D01*
X11969420Y-15820892D01*
X11885848Y-15737320D01*
X11787577Y-15671657D01*
X11678384Y-15626428D01*
X11562465Y-15603370D01*
X11444275Y-15603370D01*
X11328356Y-15626428D01*
X11219163Y-15671657D01*
X11120892Y-15737320D01*
X11037320Y-15820892D01*
X10971657Y-15919163D01*
X10926428Y-16028356D01*
X10903370Y-16144275D01*
X9853879Y-16144275D01*
X9884207Y-16131713D01*
X9982478Y-16066050D01*
X10066050Y-15982478D01*
X10131713Y-15884207D01*
X10176942Y-15775014D01*
X10200000Y-15659095D01*
X10200000Y-15540905D01*
X10176942Y-15424986D01*
X10131713Y-15315793D01*
X10066050Y-15217522D01*
X9982478Y-15133950D01*
X9884207Y-15068287D01*
X9775014Y-15023058D01*
X9659095Y-15000000D01*
X9540905Y-15000000D01*
X9424986Y-15023058D01*
X9315793Y-15068287D01*
X9217522Y-15133950D01*
X9133950Y-15217522D01*
X9068287Y-15315793D01*
X9023058Y-15424986D01*
X9000000Y-15540905D01*
X4100000Y-15540905D01*
X4100000Y-14500000D01*
X4098079Y-14480491D01*
X4092388Y-14461732D01*
X4083147Y-14444443D01*
X4070711Y-14429289D01*
X3160924Y-13519502D01*
X12399987Y-13519502D01*
X12399987Y-13637692D01*
X12423045Y-13753611D01*
X12468274Y-13862804D01*
X12533937Y-13961075D01*
X12617509Y-14044647D01*
X12715780Y-14110310D01*
X12824973Y-14155539D01*
X12940892Y-14178597D01*
X13059082Y-14178597D01*
X13175001Y-14155539D01*
X13284194Y-14110310D01*
X13382465Y-14044647D01*
X13466037Y-13961075D01*
X13531700Y-13862804D01*
X13576929Y-13753611D01*
X13599987Y-13637692D01*
X13599987Y-13540905D01*
X14200000Y-13540905D01*
X14200000Y-13659095D01*
X14223058Y-13775014D01*
X14268287Y-13884207D01*
X14333950Y-13982478D01*
X14417522Y-14066050D01*
X14515793Y-14131713D01*
X14624986Y-14176942D01*
X14740905Y-14200000D01*
X14859095Y-14200000D01*
X14975014Y-14176942D01*
X15084207Y-14131713D01*
X15182478Y-14066050D01*
X15266050Y-13982478D01*
X15331713Y-13884207D01*
X15376942Y-13775014D01*
X15400000Y-13659095D01*
X15400000Y-13540905D01*
X15376942Y-13424986D01*
X15331713Y-13315793D01*
X15266050Y-13217522D01*
X15182478Y-13133950D01*
X15084207Y-13068287D01*
X14975014Y-13023058D01*
X14859095Y-13000000D01*
X14740905Y-13000000D01*
X14624986Y-13023058D01*
X14515793Y-13068287D01*
X14417522Y-13133950D01*
X14333950Y-13217522D01*
X14268287Y-13315793D01*
X14223058Y-13424986D01*
X14200000Y-13540905D01*
X13599987Y-13540905D01*
X13599987Y-13519502D01*
X13576929Y-13403583D01*
X13531700Y-13294390D01*
X13466037Y-13196119D01*
X13382465Y-13112547D01*
X13284194Y-13046884D01*
X13175001Y-13001655D01*
X13059082Y-12978597D01*
X12940892Y-12978597D01*
X12824973Y-13001655D01*
X12715780Y-13046884D01*
X12617509Y-13112547D01*
X12533937Y-13196119D01*
X12468274Y-13294390D01*
X12423045Y-13403583D01*
X12399987Y-13519502D01*
X3160924Y-13519502D01*
X2594150Y-12952728D01*
X2662990Y-11555511D01*
X2693790Y-11568269D01*
X2809709Y-11591327D01*
X2927899Y-11591327D01*
X3043818Y-11568269D01*
X3153011Y-11523040D01*
X3251282Y-11457377D01*
X3334854Y-11373805D01*
X3400517Y-11275534D01*
X3445746Y-11166341D01*
X3468804Y-11050422D01*
X3468804Y-11026939D01*
X3469232Y-11024117D01*
X3481578Y-11023551D01*
X3558478Y-11023551D01*
X3674397Y-11000493D01*
X3783590Y-10955264D01*
X3881861Y-10889601D01*
X3965433Y-10806029D01*
X4002519Y-10750525D01*
X12190380Y-10750525D01*
X12190380Y-10868715D01*
X12213438Y-10984634D01*
X12258667Y-11093827D01*
X12324330Y-11192098D01*
X12407902Y-11275670D01*
X12506173Y-11341333D01*
X12615366Y-11386562D01*
X12731285Y-11409620D01*
X12849475Y-11409620D01*
X12965394Y-11386562D01*
X13074587Y-11341333D01*
X13172858Y-11275670D01*
X13256430Y-11192098D01*
X13322093Y-11093827D01*
X13367322Y-10984634D01*
X13390380Y-10868715D01*
X13390380Y-10750525D01*
X14409620Y-10750525D01*
X14409620Y-10868715D01*
X14432678Y-10984634D01*
X14477907Y-11093827D01*
X14543570Y-11192098D01*
X14627142Y-11275670D01*
X14725413Y-11341333D01*
X14834606Y-11386562D01*
X14950525Y-11409620D01*
X15068715Y-11409620D01*
X15184634Y-11386562D01*
X15293827Y-11341333D01*
X15392098Y-11275670D01*
X15475670Y-11192098D01*
X15541333Y-11093827D01*
X15586562Y-10984634D01*
X15609620Y-10868715D01*
X15609620Y-10750525D01*
X15586562Y-10634606D01*
X15541333Y-10525413D01*
X15475670Y-10427142D01*
X15392098Y-10343570D01*
X15293827Y-10277907D01*
X15184634Y-10232678D01*
X15068715Y-10209620D01*
X14950525Y-10209620D01*
X14834606Y-10232678D01*
X14725413Y-10277907D01*
X14627142Y-10343570D01*
X14543570Y-10427142D01*
X14477907Y-10525413D01*
X14432678Y-10634606D01*
X14409620Y-10750525D01*
X13390380Y-10750525D01*
X13367322Y-10634606D01*
X13322093Y-10525413D01*
X13256430Y-10427142D01*
X13172858Y-10343570D01*
X13074587Y-10277907D01*
X12965394Y-10232678D01*
X12849475Y-10209620D01*
X12731285Y-10209620D01*
X12615366Y-10232678D01*
X12506173Y-10277907D01*
X12407902Y-10343570D01*
X12324330Y-10427142D01*
X12258667Y-10525413D01*
X12213438Y-10634606D01*
X12190380Y-10750525D01*
X4002519Y-10750525D01*
X4031096Y-10707758D01*
X4076325Y-10598565D01*
X4099383Y-10482646D01*
X4099383Y-10364456D01*
X4076325Y-10248537D01*
X4031096Y-10139344D01*
X3965433Y-10041073D01*
X3881861Y-9957501D01*
X3783590Y-9891838D01*
X3674397Y-9846609D01*
X3558478Y-9823551D01*
X3534995Y-9823551D01*
X3530861Y-9822924D01*
X2964894Y-9793263D01*
X2959301Y-9792150D01*
X2943666Y-9792150D01*
X2931683Y-9791522D01*
X2917988Y-9792150D01*
X2841111Y-9792150D01*
X2748967Y-9810479D01*
X2806591Y-8640905D01*
X12200000Y-8640905D01*
X12200000Y-8759095D01*
X12223058Y-8875014D01*
X12268287Y-8984207D01*
X12333950Y-9082478D01*
X12417522Y-9166050D01*
X12515793Y-9231713D01*
X12624986Y-9276942D01*
X12740905Y-9300000D01*
X12859095Y-9300000D01*
X12975014Y-9276942D01*
X13084207Y-9231713D01*
X13182478Y-9166050D01*
X13266050Y-9082478D01*
X13331713Y-8984207D01*
X13376942Y-8875014D01*
X13400000Y-8759095D01*
X13400000Y-8640905D01*
X14400000Y-8640905D01*
X14400000Y-8759095D01*
X14423058Y-8875014D01*
X14468287Y-8984207D01*
X14533950Y-9082478D01*
X14617522Y-9166050D01*
X14715793Y-9231713D01*
X14824986Y-9276942D01*
X14940905Y-9300000D01*
X15059095Y-9300000D01*
X15175014Y-9276942D01*
X15284207Y-9231713D01*
X15382478Y-9166050D01*
X15466050Y-9082478D01*
X15531713Y-8984207D01*
X15576942Y-8875014D01*
X15593670Y-8790917D01*
X22300000Y-8790917D01*
X22300000Y-8909107D01*
X22323058Y-9025026D01*
X22368287Y-9134219D01*
X22433950Y-9232490D01*
X22517522Y-9316062D01*
X22615793Y-9381725D01*
X22724986Y-9426954D01*
X22840905Y-9450012D01*
X22959095Y-9450012D01*
X23075014Y-9426954D01*
X23184207Y-9381725D01*
X23282478Y-9316062D01*
X23366050Y-9232490D01*
X23431713Y-9134219D01*
X23476942Y-9025026D01*
X23500000Y-8909107D01*
X23500000Y-8790917D01*
X23476942Y-8674998D01*
X23431713Y-8565805D01*
X23366050Y-8467534D01*
X23282478Y-8383962D01*
X23184207Y-8318299D01*
X23075014Y-8273070D01*
X22959095Y-8250012D01*
X22840905Y-8250012D01*
X22724986Y-8273070D01*
X22615793Y-8318299D01*
X22517522Y-8383962D01*
X22433950Y-8467534D01*
X22368287Y-8565805D01*
X22323058Y-8674998D01*
X22300000Y-8790917D01*
X15593670Y-8790917D01*
X15600000Y-8759095D01*
X15600000Y-8640905D01*
X15576942Y-8524986D01*
X15531713Y-8415793D01*
X15466050Y-8317522D01*
X15382478Y-8233950D01*
X15284207Y-8168287D01*
X15175014Y-8123058D01*
X15059095Y-8100000D01*
X14940905Y-8100000D01*
X14824986Y-8123058D01*
X14715793Y-8168287D01*
X14617522Y-8233950D01*
X14533950Y-8317522D01*
X14468287Y-8415793D01*
X14423058Y-8524986D01*
X14400000Y-8640905D01*
X13400000Y-8640905D01*
X13376942Y-8524986D01*
X13331713Y-8415793D01*
X13266050Y-8317522D01*
X13182478Y-8233950D01*
X13084207Y-8168287D01*
X12975014Y-8123058D01*
X12859095Y-8100000D01*
X12740905Y-8100000D01*
X12624986Y-8123058D01*
X12515793Y-8168287D01*
X12417522Y-8233950D01*
X12333950Y-8317522D01*
X12268287Y-8415793D01*
X12223058Y-8524986D01*
X12200000Y-8640905D01*
X2806591Y-8640905D01*
X3024217Y-4223880D01*
X3029861Y-4166311D01*
X3039644Y-4133910D01*
X3055537Y-4104018D01*
X3076932Y-4077787D01*
X3103015Y-4056209D01*
X3132786Y-4040112D01*
X3165125Y-4030101D01*
X3214110Y-4024953D01*
X3218589Y-4024937D01*
X3232713Y-4023502D01*
X3246908Y-4023601D01*
X3251425Y-4023159D01*
X3736667Y-3972158D01*
X3765541Y-3966231D01*
X3794455Y-3960715D01*
X3798800Y-3959404D01*
X4264894Y-3815124D01*
X4292069Y-3803700D01*
X4319360Y-3792674D01*
X4323367Y-3790544D01*
X4690000Y-3592306D01*
X4690000Y-5500000D01*
X4695957Y-5560478D01*
X4713597Y-5618632D01*
X4742244Y-5672227D01*
X4780797Y-5719203D01*
X4827773Y-5757756D01*
X4881368Y-5786403D01*
X4939522Y-5804043D01*
X5000000Y-5810000D01*
X11000000Y-5810000D01*
X11060478Y-5804043D01*
X11118632Y-5786403D01*
X11172227Y-5757756D01*
X11219203Y-5719203D01*
X11257756Y-5672227D01*
X11286403Y-5618632D01*
X11304043Y-5560478D01*
X11310000Y-5500000D01*
X11310000Y1275000D01*
X16690000Y1275000D01*
X16690000Y-5500000D01*
G04 #@! TA.AperFunction,Conductor*
D23*
G36*
X16690000Y-5500000D02*
G01*
X16695957Y-5560478D01*
X16713597Y-5618632D01*
X16742244Y-5672227D01*
X16780797Y-5719203D01*
X16827773Y-5757756D01*
X16881368Y-5786403D01*
X16939522Y-5804043D01*
X17000000Y-5810000D01*
X23000000Y-5810000D01*
X23060478Y-5804043D01*
X23118632Y-5786403D01*
X23172227Y-5757756D01*
X23219203Y-5719203D01*
X23257756Y-5672227D01*
X23286403Y-5618632D01*
X23304043Y-5560478D01*
X23310000Y-5500000D01*
X23310000Y-3593750D01*
X23694746Y-3798323D01*
X23721956Y-3809538D01*
X23749053Y-3821152D01*
X23753389Y-3822494D01*
X24220478Y-3963517D01*
X24249376Y-3969239D01*
X24278186Y-3975362D01*
X24282700Y-3975837D01*
X24768286Y-4023449D01*
X24768287Y-4023449D01*
X24833689Y-4029861D01*
X24866090Y-4039644D01*
X24895982Y-4055537D01*
X24922213Y-4076932D01*
X24943791Y-4103015D01*
X24959888Y-4132786D01*
X24969899Y-4165125D01*
X24975526Y-4218665D01*
X25251033Y-9810479D01*
X25158889Y-9792150D01*
X25082012Y-9792150D01*
X25068317Y-9791522D01*
X25056334Y-9792150D01*
X25040699Y-9792150D01*
X25035106Y-9793263D01*
X24469139Y-9822924D01*
X24465005Y-9823551D01*
X24441522Y-9823551D01*
X24325603Y-9846609D01*
X24216410Y-9891838D01*
X24118139Y-9957501D01*
X24034567Y-10041073D01*
X23968904Y-10139344D01*
X23923675Y-10248537D01*
X23900617Y-10364456D01*
X23900617Y-10482646D01*
X23923675Y-10598565D01*
X23968904Y-10707758D01*
X24034567Y-10806029D01*
X24118139Y-10889601D01*
X24216410Y-10955264D01*
X24325603Y-11000493D01*
X24441522Y-11023551D01*
X24518422Y-11023551D01*
X24530768Y-11024117D01*
X24531196Y-11026939D01*
X24531196Y-11050422D01*
X24554254Y-11166341D01*
X24599483Y-11275534D01*
X24665146Y-11373805D01*
X24748718Y-11457377D01*
X24846989Y-11523040D01*
X24956182Y-11568269D01*
X25072101Y-11591327D01*
X25190291Y-11591327D01*
X25306210Y-11568269D01*
X25337010Y-11555511D01*
X25405850Y-12952728D01*
X23929289Y-14429289D01*
X23916853Y-14444443D01*
X23907612Y-14461732D01*
X23901921Y-14480491D01*
X23900000Y-14500000D01*
X23900000Y-16500000D01*
X23901921Y-16519509D01*
X23907612Y-16538268D01*
X23916853Y-16555557D01*
X23929289Y-16570711D01*
X25669864Y-18311286D01*
X25698869Y-18900000D01*
X16066593Y-18900000D01*
X16031713Y-18815793D01*
X15966050Y-18717522D01*
X15882478Y-18633950D01*
X15784207Y-18568287D01*
X15675014Y-18523058D01*
X15559095Y-18500000D01*
X15440905Y-18500000D01*
X15324986Y-18523058D01*
X15215793Y-18568287D01*
X15117522Y-18633950D01*
X15033950Y-18717522D01*
X14983519Y-18792997D01*
X14734200Y-18626408D01*
X14452118Y-18509565D01*
X14152662Y-18450000D01*
X13847338Y-18450000D01*
X13547882Y-18509565D01*
X13265800Y-18626408D01*
X13016481Y-18792997D01*
X12966050Y-18717522D01*
X12882478Y-18633950D01*
X12784207Y-18568287D01*
X12675014Y-18523058D01*
X12559095Y-18500000D01*
X12440905Y-18500000D01*
X12324986Y-18523058D01*
X12215793Y-18568287D01*
X12117522Y-18633950D01*
X12033950Y-18717522D01*
X11968287Y-18815793D01*
X11933407Y-18900000D01*
X2301130Y-18900000D01*
X2330135Y-18311287D01*
X2335754Y-18305668D01*
X2368287Y-18384207D01*
X2433950Y-18482478D01*
X2517522Y-18566050D01*
X2615793Y-18631713D01*
X2724986Y-18676942D01*
X2840905Y-18700000D01*
X2959095Y-18700000D01*
X3075014Y-18676942D01*
X3184207Y-18631713D01*
X3282478Y-18566050D01*
X3366050Y-18482478D01*
X3431713Y-18384207D01*
X3476942Y-18275014D01*
X3500000Y-18159095D01*
X3500000Y-18040905D01*
X3476942Y-17924986D01*
X3431713Y-17815793D01*
X3366050Y-17717522D01*
X3289433Y-17640905D01*
X5300000Y-17640905D01*
X5300000Y-17759095D01*
X5323058Y-17875014D01*
X5368287Y-17984207D01*
X5433950Y-18082478D01*
X5517522Y-18166050D01*
X5615793Y-18231713D01*
X5724986Y-18276942D01*
X5840905Y-18300000D01*
X5959095Y-18300000D01*
X6075014Y-18276942D01*
X6184207Y-18231713D01*
X6282478Y-18166050D01*
X6366050Y-18082478D01*
X6393828Y-18040905D01*
X7400000Y-18040905D01*
X7400000Y-18159095D01*
X7423058Y-18275014D01*
X7468287Y-18384207D01*
X7533950Y-18482478D01*
X7617522Y-18566050D01*
X7715793Y-18631713D01*
X7824986Y-18676942D01*
X7940905Y-18700000D01*
X8059095Y-18700000D01*
X8175014Y-18676942D01*
X8284207Y-18631713D01*
X8382478Y-18566050D01*
X8466050Y-18482478D01*
X8531713Y-18384207D01*
X8576942Y-18275014D01*
X8600000Y-18159095D01*
X8600000Y-18040905D01*
X9600000Y-18040905D01*
X9600000Y-18159095D01*
X9623058Y-18275014D01*
X9668287Y-18384207D01*
X9733950Y-18482478D01*
X9817522Y-18566050D01*
X9915793Y-18631713D01*
X10024986Y-18676942D01*
X10140905Y-18700000D01*
X10259095Y-18700000D01*
X10375014Y-18676942D01*
X10484207Y-18631713D01*
X10582478Y-18566050D01*
X10666050Y-18482478D01*
X10731713Y-18384207D01*
X10776942Y-18275014D01*
X10800000Y-18159095D01*
X10800000Y-18040905D01*
X10776942Y-17924986D01*
X10731713Y-17815793D01*
X10666050Y-17717522D01*
X10589433Y-17640905D01*
X21500000Y-17640905D01*
X21500000Y-17759095D01*
X21523058Y-17875014D01*
X21568287Y-17984207D01*
X21633950Y-18082478D01*
X21717522Y-18166050D01*
X21815793Y-18231713D01*
X21924986Y-18276942D01*
X22040905Y-18300000D01*
X22159095Y-18300000D01*
X22275014Y-18276942D01*
X22384207Y-18231713D01*
X22482478Y-18166050D01*
X22566050Y-18082478D01*
X22631713Y-17984207D01*
X22676942Y-17875014D01*
X22700000Y-17759095D01*
X22700000Y-17640905D01*
X22676942Y-17524986D01*
X22631713Y-17415793D01*
X22566050Y-17317522D01*
X22482478Y-17233950D01*
X22384207Y-17168287D01*
X22275014Y-17123058D01*
X22159095Y-17100000D01*
X22040905Y-17100000D01*
X21924986Y-17123058D01*
X21815793Y-17168287D01*
X21717522Y-17233950D01*
X21633950Y-17317522D01*
X21568287Y-17415793D01*
X21523058Y-17524986D01*
X21500000Y-17640905D01*
X10589433Y-17640905D01*
X10582478Y-17633950D01*
X10484207Y-17568287D01*
X10375014Y-17523058D01*
X10259095Y-17500000D01*
X10140905Y-17500000D01*
X10024986Y-17523058D01*
X9915793Y-17568287D01*
X9817522Y-17633950D01*
X9733950Y-17717522D01*
X9668287Y-17815793D01*
X9623058Y-17924986D01*
X9600000Y-18040905D01*
X8600000Y-18040905D01*
X8576942Y-17924986D01*
X8531713Y-17815793D01*
X8466050Y-17717522D01*
X8382478Y-17633950D01*
X8284207Y-17568287D01*
X8175014Y-17523058D01*
X8059095Y-17500000D01*
X7940905Y-17500000D01*
X7824986Y-17523058D01*
X7715793Y-17568287D01*
X7617522Y-17633950D01*
X7533950Y-17717522D01*
X7468287Y-17815793D01*
X7423058Y-17924986D01*
X7400000Y-18040905D01*
X6393828Y-18040905D01*
X6431713Y-17984207D01*
X6476942Y-17875014D01*
X6500000Y-17759095D01*
X6500000Y-17640905D01*
X6476942Y-17524986D01*
X6431713Y-17415793D01*
X6366050Y-17317522D01*
X6282478Y-17233950D01*
X6184207Y-17168287D01*
X6075014Y-17123058D01*
X5959095Y-17100000D01*
X5840905Y-17100000D01*
X5724986Y-17123058D01*
X5615793Y-17168287D01*
X5517522Y-17233950D01*
X5433950Y-17317522D01*
X5368287Y-17415793D01*
X5323058Y-17524986D01*
X5300000Y-17640905D01*
X3289433Y-17640905D01*
X3282478Y-17633950D01*
X3184207Y-17568287D01*
X3105667Y-17535755D01*
X4070711Y-16570711D01*
X4083147Y-16555557D01*
X4092388Y-16538268D01*
X4098079Y-16519509D01*
X4100000Y-16500000D01*
X4100000Y-16140905D01*
X5300000Y-16140905D01*
X5300000Y-16259095D01*
X5323058Y-16375014D01*
X5368287Y-16484207D01*
X5433950Y-16582478D01*
X5517522Y-16666050D01*
X5615793Y-16731713D01*
X5724986Y-16776942D01*
X5840905Y-16800000D01*
X5959095Y-16800000D01*
X6075014Y-16776942D01*
X6184207Y-16731713D01*
X6282478Y-16666050D01*
X6366050Y-16582478D01*
X6431713Y-16484207D01*
X6476942Y-16375014D01*
X6500000Y-16259095D01*
X6500000Y-16140905D01*
X6476942Y-16024986D01*
X6431713Y-15915793D01*
X6366050Y-15817522D01*
X6282478Y-15733950D01*
X6184207Y-15668287D01*
X6075014Y-15623058D01*
X5959095Y-15600000D01*
X5840905Y-15600000D01*
X5724986Y-15623058D01*
X5615793Y-15668287D01*
X5517522Y-15733950D01*
X5433950Y-15817522D01*
X5368287Y-15915793D01*
X5323058Y-16024986D01*
X5300000Y-16140905D01*
X4100000Y-16140905D01*
X4100000Y-15540905D01*
X9000000Y-15540905D01*
X9000000Y-15659095D01*
X9023058Y-15775014D01*
X9068287Y-15884207D01*
X9133950Y-15982478D01*
X9217522Y-16066050D01*
X9315793Y-16131713D01*
X9424986Y-16176942D01*
X9540905Y-16200000D01*
X9659095Y-16200000D01*
X9775014Y-16176942D01*
X9853879Y-16144275D01*
X10903370Y-16144275D01*
X10903370Y-16262465D01*
X10926428Y-16378384D01*
X10971657Y-16487577D01*
X11037320Y-16585848D01*
X11120892Y-16669420D01*
X11219163Y-16735083D01*
X11328356Y-16780312D01*
X11444275Y-16803370D01*
X11562465Y-16803370D01*
X11678384Y-16780312D01*
X11787577Y-16735083D01*
X11885848Y-16669420D01*
X11969420Y-16585848D01*
X12035083Y-16487577D01*
X12080312Y-16378384D01*
X12103370Y-16262465D01*
X12103370Y-16144275D01*
X12102700Y-16140905D01*
X21500000Y-16140905D01*
X21500000Y-16259095D01*
X21523058Y-16375014D01*
X21568287Y-16484207D01*
X21633950Y-16582478D01*
X21717522Y-16666050D01*
X21815793Y-16731713D01*
X21924986Y-16776942D01*
X22040905Y-16800000D01*
X22159095Y-16800000D01*
X22275014Y-16776942D01*
X22384207Y-16731713D01*
X22482478Y-16666050D01*
X22566050Y-16582478D01*
X22631713Y-16484207D01*
X22676942Y-16375014D01*
X22700000Y-16259095D01*
X22700000Y-16140905D01*
X22676942Y-16024986D01*
X22631713Y-15915793D01*
X22566050Y-15817522D01*
X22482478Y-15733950D01*
X22384207Y-15668287D01*
X22275014Y-15623058D01*
X22159095Y-15600000D01*
X22040905Y-15600000D01*
X21924986Y-15623058D01*
X21815793Y-15668287D01*
X21717522Y-15733950D01*
X21633950Y-15817522D01*
X21568287Y-15915793D01*
X21523058Y-16024986D01*
X21500000Y-16140905D01*
X12102700Y-16140905D01*
X12080312Y-16028356D01*
X12035083Y-15919163D01*
X11969420Y-15820892D01*
X11885848Y-15737320D01*
X11787577Y-15671657D01*
X11678384Y-15626428D01*
X11562465Y-15603370D01*
X11444275Y-15603370D01*
X11328356Y-15626428D01*
X11219163Y-15671657D01*
X11120892Y-15737320D01*
X11037320Y-15820892D01*
X10971657Y-15919163D01*
X10926428Y-16028356D01*
X10903370Y-16144275D01*
X9853879Y-16144275D01*
X9884207Y-16131713D01*
X9982478Y-16066050D01*
X10066050Y-15982478D01*
X10131713Y-15884207D01*
X10176942Y-15775014D01*
X10200000Y-15659095D01*
X10200000Y-15540905D01*
X10176942Y-15424986D01*
X10131713Y-15315793D01*
X10066050Y-15217522D01*
X9982478Y-15133950D01*
X9884207Y-15068287D01*
X9775014Y-15023058D01*
X9659095Y-15000000D01*
X9540905Y-15000000D01*
X9424986Y-15023058D01*
X9315793Y-15068287D01*
X9217522Y-15133950D01*
X9133950Y-15217522D01*
X9068287Y-15315793D01*
X9023058Y-15424986D01*
X9000000Y-15540905D01*
X4100000Y-15540905D01*
X4100000Y-14500000D01*
X4098079Y-14480491D01*
X4092388Y-14461732D01*
X4083147Y-14444443D01*
X4070711Y-14429289D01*
X3160924Y-13519502D01*
X12399987Y-13519502D01*
X12399987Y-13637692D01*
X12423045Y-13753611D01*
X12468274Y-13862804D01*
X12533937Y-13961075D01*
X12617509Y-14044647D01*
X12715780Y-14110310D01*
X12824973Y-14155539D01*
X12940892Y-14178597D01*
X13059082Y-14178597D01*
X13175001Y-14155539D01*
X13284194Y-14110310D01*
X13382465Y-14044647D01*
X13466037Y-13961075D01*
X13531700Y-13862804D01*
X13576929Y-13753611D01*
X13599987Y-13637692D01*
X13599987Y-13540905D01*
X14200000Y-13540905D01*
X14200000Y-13659095D01*
X14223058Y-13775014D01*
X14268287Y-13884207D01*
X14333950Y-13982478D01*
X14417522Y-14066050D01*
X14515793Y-14131713D01*
X14624986Y-14176942D01*
X14740905Y-14200000D01*
X14859095Y-14200000D01*
X14975014Y-14176942D01*
X15084207Y-14131713D01*
X15182478Y-14066050D01*
X15266050Y-13982478D01*
X15331713Y-13884207D01*
X15376942Y-13775014D01*
X15400000Y-13659095D01*
X15400000Y-13540905D01*
X15376942Y-13424986D01*
X15331713Y-13315793D01*
X15266050Y-13217522D01*
X15182478Y-13133950D01*
X15084207Y-13068287D01*
X14975014Y-13023058D01*
X14859095Y-13000000D01*
X14740905Y-13000000D01*
X14624986Y-13023058D01*
X14515793Y-13068287D01*
X14417522Y-13133950D01*
X14333950Y-13217522D01*
X14268287Y-13315793D01*
X14223058Y-13424986D01*
X14200000Y-13540905D01*
X13599987Y-13540905D01*
X13599987Y-13519502D01*
X13576929Y-13403583D01*
X13531700Y-13294390D01*
X13466037Y-13196119D01*
X13382465Y-13112547D01*
X13284194Y-13046884D01*
X13175001Y-13001655D01*
X13059082Y-12978597D01*
X12940892Y-12978597D01*
X12824973Y-13001655D01*
X12715780Y-13046884D01*
X12617509Y-13112547D01*
X12533937Y-13196119D01*
X12468274Y-13294390D01*
X12423045Y-13403583D01*
X12399987Y-13519502D01*
X3160924Y-13519502D01*
X2594150Y-12952728D01*
X2662990Y-11555511D01*
X2693790Y-11568269D01*
X2809709Y-11591327D01*
X2927899Y-11591327D01*
X3043818Y-11568269D01*
X3153011Y-11523040D01*
X3251282Y-11457377D01*
X3334854Y-11373805D01*
X3400517Y-11275534D01*
X3445746Y-11166341D01*
X3468804Y-11050422D01*
X3468804Y-11026939D01*
X3469232Y-11024117D01*
X3481578Y-11023551D01*
X3558478Y-11023551D01*
X3674397Y-11000493D01*
X3783590Y-10955264D01*
X3881861Y-10889601D01*
X3965433Y-10806029D01*
X4002519Y-10750525D01*
X12190380Y-10750525D01*
X12190380Y-10868715D01*
X12213438Y-10984634D01*
X12258667Y-11093827D01*
X12324330Y-11192098D01*
X12407902Y-11275670D01*
X12506173Y-11341333D01*
X12615366Y-11386562D01*
X12731285Y-11409620D01*
X12849475Y-11409620D01*
X12965394Y-11386562D01*
X13074587Y-11341333D01*
X13172858Y-11275670D01*
X13256430Y-11192098D01*
X13322093Y-11093827D01*
X13367322Y-10984634D01*
X13390380Y-10868715D01*
X13390380Y-10750525D01*
X14409620Y-10750525D01*
X14409620Y-10868715D01*
X14432678Y-10984634D01*
X14477907Y-11093827D01*
X14543570Y-11192098D01*
X14627142Y-11275670D01*
X14725413Y-11341333D01*
X14834606Y-11386562D01*
X14950525Y-11409620D01*
X15068715Y-11409620D01*
X15184634Y-11386562D01*
X15293827Y-11341333D01*
X15392098Y-11275670D01*
X15475670Y-11192098D01*
X15541333Y-11093827D01*
X15586562Y-10984634D01*
X15609620Y-10868715D01*
X15609620Y-10750525D01*
X15586562Y-10634606D01*
X15541333Y-10525413D01*
X15475670Y-10427142D01*
X15392098Y-10343570D01*
X15293827Y-10277907D01*
X15184634Y-10232678D01*
X15068715Y-10209620D01*
X14950525Y-10209620D01*
X14834606Y-10232678D01*
X14725413Y-10277907D01*
X14627142Y-10343570D01*
X14543570Y-10427142D01*
X14477907Y-10525413D01*
X14432678Y-10634606D01*
X14409620Y-10750525D01*
X13390380Y-10750525D01*
X13367322Y-10634606D01*
X13322093Y-10525413D01*
X13256430Y-10427142D01*
X13172858Y-10343570D01*
X13074587Y-10277907D01*
X12965394Y-10232678D01*
X12849475Y-10209620D01*
X12731285Y-10209620D01*
X12615366Y-10232678D01*
X12506173Y-10277907D01*
X12407902Y-10343570D01*
X12324330Y-10427142D01*
X12258667Y-10525413D01*
X12213438Y-10634606D01*
X12190380Y-10750525D01*
X4002519Y-10750525D01*
X4031096Y-10707758D01*
X4076325Y-10598565D01*
X4099383Y-10482646D01*
X4099383Y-10364456D01*
X4076325Y-10248537D01*
X4031096Y-10139344D01*
X3965433Y-10041073D01*
X3881861Y-9957501D01*
X3783590Y-9891838D01*
X3674397Y-9846609D01*
X3558478Y-9823551D01*
X3534995Y-9823551D01*
X3530861Y-9822924D01*
X2964894Y-9793263D01*
X2959301Y-9792150D01*
X2943666Y-9792150D01*
X2931683Y-9791522D01*
X2917988Y-9792150D01*
X2841111Y-9792150D01*
X2748967Y-9810479D01*
X2806591Y-8640905D01*
X12200000Y-8640905D01*
X12200000Y-8759095D01*
X12223058Y-8875014D01*
X12268287Y-8984207D01*
X12333950Y-9082478D01*
X12417522Y-9166050D01*
X12515793Y-9231713D01*
X12624986Y-9276942D01*
X12740905Y-9300000D01*
X12859095Y-9300000D01*
X12975014Y-9276942D01*
X13084207Y-9231713D01*
X13182478Y-9166050D01*
X13266050Y-9082478D01*
X13331713Y-8984207D01*
X13376942Y-8875014D01*
X13400000Y-8759095D01*
X13400000Y-8640905D01*
X14400000Y-8640905D01*
X14400000Y-8759095D01*
X14423058Y-8875014D01*
X14468287Y-8984207D01*
X14533950Y-9082478D01*
X14617522Y-9166050D01*
X14715793Y-9231713D01*
X14824986Y-9276942D01*
X14940905Y-9300000D01*
X15059095Y-9300000D01*
X15175014Y-9276942D01*
X15284207Y-9231713D01*
X15382478Y-9166050D01*
X15466050Y-9082478D01*
X15531713Y-8984207D01*
X15576942Y-8875014D01*
X15593670Y-8790917D01*
X22300000Y-8790917D01*
X22300000Y-8909107D01*
X22323058Y-9025026D01*
X22368287Y-9134219D01*
X22433950Y-9232490D01*
X22517522Y-9316062D01*
X22615793Y-9381725D01*
X22724986Y-9426954D01*
X22840905Y-9450012D01*
X22959095Y-9450012D01*
X23075014Y-9426954D01*
X23184207Y-9381725D01*
X23282478Y-9316062D01*
X23366050Y-9232490D01*
X23431713Y-9134219D01*
X23476942Y-9025026D01*
X23500000Y-8909107D01*
X23500000Y-8790917D01*
X23476942Y-8674998D01*
X23431713Y-8565805D01*
X23366050Y-8467534D01*
X23282478Y-8383962D01*
X23184207Y-8318299D01*
X23075014Y-8273070D01*
X22959095Y-8250012D01*
X22840905Y-8250012D01*
X22724986Y-8273070D01*
X22615793Y-8318299D01*
X22517522Y-8383962D01*
X22433950Y-8467534D01*
X22368287Y-8565805D01*
X22323058Y-8674998D01*
X22300000Y-8790917D01*
X15593670Y-8790917D01*
X15600000Y-8759095D01*
X15600000Y-8640905D01*
X15576942Y-8524986D01*
X15531713Y-8415793D01*
X15466050Y-8317522D01*
X15382478Y-8233950D01*
X15284207Y-8168287D01*
X15175014Y-8123058D01*
X15059095Y-8100000D01*
X14940905Y-8100000D01*
X14824986Y-8123058D01*
X14715793Y-8168287D01*
X14617522Y-8233950D01*
X14533950Y-8317522D01*
X14468287Y-8415793D01*
X14423058Y-8524986D01*
X14400000Y-8640905D01*
X13400000Y-8640905D01*
X13376942Y-8524986D01*
X13331713Y-8415793D01*
X13266050Y-8317522D01*
X13182478Y-8233950D01*
X13084207Y-8168287D01*
X12975014Y-8123058D01*
X12859095Y-8100000D01*
X12740905Y-8100000D01*
X12624986Y-8123058D01*
X12515793Y-8168287D01*
X12417522Y-8233950D01*
X12333950Y-8317522D01*
X12268287Y-8415793D01*
X12223058Y-8524986D01*
X12200000Y-8640905D01*
X2806591Y-8640905D01*
X3024217Y-4223880D01*
X3029861Y-4166311D01*
X3039644Y-4133910D01*
X3055537Y-4104018D01*
X3076932Y-4077787D01*
X3103015Y-4056209D01*
X3132786Y-4040112D01*
X3165125Y-4030101D01*
X3214110Y-4024953D01*
X3218589Y-4024937D01*
X3232713Y-4023502D01*
X3246908Y-4023601D01*
X3251425Y-4023159D01*
X3736667Y-3972158D01*
X3765541Y-3966231D01*
X3794455Y-3960715D01*
X3798800Y-3959404D01*
X4264894Y-3815124D01*
X4292069Y-3803700D01*
X4319360Y-3792674D01*
X4323367Y-3790544D01*
X4690000Y-3592306D01*
X4690000Y-5500000D01*
X4695957Y-5560478D01*
X4713597Y-5618632D01*
X4742244Y-5672227D01*
X4780797Y-5719203D01*
X4827773Y-5757756D01*
X4881368Y-5786403D01*
X4939522Y-5804043D01*
X5000000Y-5810000D01*
X11000000Y-5810000D01*
X11060478Y-5804043D01*
X11118632Y-5786403D01*
X11172227Y-5757756D01*
X11219203Y-5719203D01*
X11257756Y-5672227D01*
X11286403Y-5618632D01*
X11304043Y-5560478D01*
X11310000Y-5500000D01*
X11310000Y1275000D01*
X16690000Y1275000D01*
X16690000Y-5500000D01*
G37*
G04 #@! TD.AperFunction*
G04 #@! TD*
D19*
G04 #@! TO.N,-6V*
X26422487Y-34602969D02*
X26400491Y-34994687D01*
X26307056Y-35358221D01*
X26144795Y-35696672D01*
X25919883Y-35997165D01*
X25640884Y-36248254D01*
X25318432Y-36440366D01*
X24964806Y-36566190D01*
X24579765Y-36622950D01*
X24495450Y-36625000D01*
X20528918Y-36625000D01*
X20561784Y-36603040D01*
X20903040Y-36261784D01*
X21171162Y-35860510D01*
X21355848Y-35414639D01*
X21450000Y-34941304D01*
X21450000Y-34458696D01*
X21355848Y-33985361D01*
X21252552Y-33735981D01*
X23350000Y-33735981D01*
X23350000Y-33864019D01*
X23374979Y-33989598D01*
X23423978Y-34107890D01*
X23495112Y-34214351D01*
X23585649Y-34304888D01*
X23692110Y-34376022D01*
X23810402Y-34425021D01*
X23935981Y-34450000D01*
X24064019Y-34450000D01*
X24189598Y-34425021D01*
X24307890Y-34376022D01*
X24414351Y-34304888D01*
X24504888Y-34214351D01*
X24576022Y-34107890D01*
X24625021Y-33989598D01*
X24650000Y-33864019D01*
X24650000Y-33735981D01*
X24625021Y-33610402D01*
X24576022Y-33492110D01*
X24504888Y-33385649D01*
X24414351Y-33295112D01*
X24307890Y-33223978D01*
X24189598Y-33174979D01*
X24064019Y-33150000D01*
X23935981Y-33150000D01*
X23810402Y-33174979D01*
X23692110Y-33223978D01*
X23585649Y-33295112D01*
X23495112Y-33385649D01*
X23423978Y-33492110D01*
X23374979Y-33610402D01*
X23350000Y-33735981D01*
X21252552Y-33735981D01*
X21171162Y-33539490D01*
X20903040Y-33138216D01*
X20561784Y-32796960D01*
X20160510Y-32528838D01*
X19714639Y-32344152D01*
X19241304Y-32250000D01*
X18758696Y-32250000D01*
X18285361Y-32344152D01*
X17839490Y-32528838D01*
X17438216Y-32796960D01*
X17096960Y-33138216D01*
X16828838Y-33539490D01*
X16644152Y-33985361D01*
X16551693Y-34450185D01*
X16551693Y-34300000D01*
X16544935Y-34231388D01*
X16524922Y-34165413D01*
X16492422Y-34104610D01*
X16448685Y-34051315D01*
X16395390Y-34007578D01*
X16334587Y-33975078D01*
X16268612Y-33955065D01*
X16200000Y-33948307D01*
X16200000Y-31194547D01*
X16202418Y-31169997D01*
X16200000Y-31145447D01*
X16200000Y-31145438D01*
X16192765Y-31071981D01*
X16164175Y-30977731D01*
X16117746Y-30890869D01*
X16055264Y-30814734D01*
X16036186Y-30799077D01*
X15650929Y-30413822D01*
X15635265Y-30394735D01*
X15559130Y-30332253D01*
X15472268Y-30285824D01*
X15378018Y-30257234D01*
X15304561Y-30249999D01*
X15280001Y-30247580D01*
X15255441Y-30249999D01*
X14705635Y-30249999D01*
X14854425Y-30101209D01*
X14974807Y-29921045D01*
X15057727Y-29720858D01*
X15100000Y-29508341D01*
X15100000Y-29291659D01*
X15058153Y-29081282D01*
X15089598Y-29075027D01*
X15207890Y-29026028D01*
X15314351Y-28954894D01*
X15404888Y-28864357D01*
X15476022Y-28757896D01*
X15525021Y-28639604D01*
X15550000Y-28514025D01*
X15550000Y-28385987D01*
X15539005Y-28330710D01*
X15635981Y-28350000D01*
X15764019Y-28350000D01*
X15889598Y-28325021D01*
X16007890Y-28276022D01*
X16114351Y-28204888D01*
X16204888Y-28114351D01*
X16276022Y-28007890D01*
X16325021Y-27889598D01*
X16350000Y-27764019D01*
X16350000Y-27635981D01*
X18350000Y-27635981D01*
X18350000Y-27764019D01*
X18374979Y-27889598D01*
X18423978Y-28007890D01*
X18495112Y-28114351D01*
X18585649Y-28204888D01*
X18692110Y-28276022D01*
X18810402Y-28325021D01*
X18935981Y-28350000D01*
X19064019Y-28350000D01*
X19189598Y-28325021D01*
X19307890Y-28276022D01*
X19414351Y-28204888D01*
X19504888Y-28114351D01*
X19576022Y-28007890D01*
X19625021Y-27889598D01*
X19650000Y-27764019D01*
X19650000Y-27635981D01*
X19630109Y-27535981D01*
X22250000Y-27535981D01*
X22250000Y-27664019D01*
X22274979Y-27789598D01*
X22323978Y-27907890D01*
X22395112Y-28014351D01*
X22485649Y-28104888D01*
X22592110Y-28176022D01*
X22710402Y-28225021D01*
X22835981Y-28250000D01*
X22964019Y-28250000D01*
X23089598Y-28225021D01*
X23207890Y-28176022D01*
X23314351Y-28104888D01*
X23404888Y-28014351D01*
X23476022Y-27907890D01*
X23525021Y-27789598D01*
X23550000Y-27664019D01*
X23550000Y-27535981D01*
X23525021Y-27410402D01*
X23476022Y-27292110D01*
X23404888Y-27185649D01*
X23314351Y-27095112D01*
X23207890Y-27023978D01*
X23089598Y-26974979D01*
X22964019Y-26950000D01*
X22835981Y-26950000D01*
X22710402Y-26974979D01*
X22592110Y-27023978D01*
X22485649Y-27095112D01*
X22395112Y-27185649D01*
X22323978Y-27292110D01*
X22274979Y-27410402D01*
X22250000Y-27535981D01*
X19630109Y-27535981D01*
X19625021Y-27510402D01*
X19576022Y-27392110D01*
X19504888Y-27285649D01*
X19414351Y-27195112D01*
X19307890Y-27123978D01*
X19189598Y-27074979D01*
X19064019Y-27050000D01*
X18935981Y-27050000D01*
X18810402Y-27074979D01*
X18692110Y-27123978D01*
X18585649Y-27195112D01*
X18495112Y-27285649D01*
X18423978Y-27392110D01*
X18374979Y-27510402D01*
X18350000Y-27635981D01*
X16350000Y-27635981D01*
X16325021Y-27510402D01*
X16276022Y-27392110D01*
X16204888Y-27285649D01*
X16114351Y-27195112D01*
X16007890Y-27123978D01*
X15889598Y-27074979D01*
X15764019Y-27050000D01*
X15635981Y-27050000D01*
X15510402Y-27074979D01*
X15392110Y-27123978D01*
X15285649Y-27195112D01*
X15195112Y-27285649D01*
X15123978Y-27392110D01*
X15074979Y-27510402D01*
X15050000Y-27635981D01*
X15050000Y-27764019D01*
X15060995Y-27819296D01*
X14964019Y-27800006D01*
X14835981Y-27800006D01*
X14710402Y-27824985D01*
X14592110Y-27873984D01*
X14485649Y-27945118D01*
X14450000Y-27980767D01*
X14450000Y-26146030D01*
X14620711Y-26146030D01*
X14620711Y-26274068D01*
X14645690Y-26399647D01*
X14694689Y-26517939D01*
X14765823Y-26624400D01*
X14856360Y-26714937D01*
X14962821Y-26786071D01*
X15081113Y-26835070D01*
X15206692Y-26860049D01*
X15334730Y-26860049D01*
X15460309Y-26835070D01*
X15578601Y-26786071D01*
X15685062Y-26714937D01*
X15775599Y-26624400D01*
X15846733Y-26517939D01*
X15895732Y-26399647D01*
X15908395Y-26335981D01*
X21150000Y-26335981D01*
X21150000Y-26464019D01*
X21174979Y-26589598D01*
X21223978Y-26707890D01*
X21295112Y-26814351D01*
X21385649Y-26904888D01*
X21492110Y-26976022D01*
X21610402Y-27025021D01*
X21735981Y-27050000D01*
X21864019Y-27050000D01*
X21989598Y-27025021D01*
X22107890Y-26976022D01*
X22214351Y-26904888D01*
X22304888Y-26814351D01*
X22376022Y-26707890D01*
X22425021Y-26589598D01*
X22450000Y-26464019D01*
X22450000Y-26335981D01*
X22425021Y-26210402D01*
X22376022Y-26092110D01*
X22304888Y-25985649D01*
X22214351Y-25895112D01*
X22107890Y-25823978D01*
X21989598Y-25774979D01*
X21864019Y-25750000D01*
X21735981Y-25750000D01*
X21610402Y-25774979D01*
X21492110Y-25823978D01*
X21385649Y-25895112D01*
X21295112Y-25985649D01*
X21223978Y-26092110D01*
X21174979Y-26210402D01*
X21150000Y-26335981D01*
X15908395Y-26335981D01*
X15920711Y-26274068D01*
X15920711Y-26146030D01*
X15895732Y-26020451D01*
X15846733Y-25902159D01*
X15775599Y-25795698D01*
X15685062Y-25705161D01*
X15578601Y-25634027D01*
X15460309Y-25585028D01*
X15334730Y-25560049D01*
X15206692Y-25560049D01*
X15081113Y-25585028D01*
X14962821Y-25634027D01*
X14856360Y-25705161D01*
X14765823Y-25795698D01*
X14694689Y-25902159D01*
X14645690Y-26020451D01*
X14620711Y-26146030D01*
X14450000Y-26146030D01*
X14450000Y-24535981D01*
X22950000Y-24535981D01*
X22950000Y-24664019D01*
X22974979Y-24789598D01*
X23023978Y-24907890D01*
X23095112Y-25014351D01*
X23185649Y-25104888D01*
X23292110Y-25176022D01*
X23410402Y-25225021D01*
X23535981Y-25250000D01*
X23664019Y-25250000D01*
X23789598Y-25225021D01*
X23900000Y-25179290D01*
X24010402Y-25225021D01*
X24135981Y-25250000D01*
X24264019Y-25250000D01*
X24389598Y-25225021D01*
X24507890Y-25176022D01*
X24614351Y-25104888D01*
X24704888Y-25014351D01*
X24776022Y-24907890D01*
X24825021Y-24789598D01*
X24850000Y-24664019D01*
X24850000Y-24535981D01*
X24825021Y-24410402D01*
X24776022Y-24292110D01*
X24704888Y-24185649D01*
X24614351Y-24095112D01*
X24507890Y-24023978D01*
X24389598Y-23974979D01*
X24264019Y-23950000D01*
X24135981Y-23950000D01*
X24010402Y-23974979D01*
X23900000Y-24020710D01*
X23789598Y-23974979D01*
X23664019Y-23950000D01*
X23535981Y-23950000D01*
X23410402Y-23974979D01*
X23292110Y-24023978D01*
X23185649Y-24095112D01*
X23095112Y-24185649D01*
X23023978Y-24292110D01*
X22974979Y-24410402D01*
X22950000Y-24535981D01*
X14450000Y-24535981D01*
X14450000Y-22865270D01*
X14620711Y-22865270D01*
X14620711Y-22993308D01*
X14645690Y-23118887D01*
X14694689Y-23237179D01*
X14765823Y-23343640D01*
X14856360Y-23434177D01*
X14962821Y-23505311D01*
X15081113Y-23554310D01*
X15206692Y-23579289D01*
X15334730Y-23579289D01*
X15460309Y-23554310D01*
X15578601Y-23505311D01*
X15685062Y-23434177D01*
X15775599Y-23343640D01*
X15846733Y-23237179D01*
X15895732Y-23118887D01*
X15920711Y-22993308D01*
X15920711Y-22865270D01*
X15895732Y-22739691D01*
X15846733Y-22621399D01*
X15775599Y-22514938D01*
X15685062Y-22424401D01*
X15578601Y-22353267D01*
X15460309Y-22304268D01*
X15334730Y-22279289D01*
X15206692Y-22279289D01*
X15081113Y-22304268D01*
X14962821Y-22353267D01*
X14856360Y-22424401D01*
X14765823Y-22514938D01*
X14694689Y-22621399D01*
X14645690Y-22739691D01*
X14620711Y-22865270D01*
X14450000Y-22865270D01*
X14450000Y-21541835D01*
X14466703Y-21538513D01*
X14757884Y-21417902D01*
X15019941Y-21242801D01*
X15242801Y-21019941D01*
X15417902Y-20757884D01*
X15538513Y-20466703D01*
X15544623Y-20435981D01*
X16050000Y-20435981D01*
X16050000Y-20564019D01*
X16074979Y-20689598D01*
X16123978Y-20807890D01*
X16195112Y-20914351D01*
X16285649Y-21004888D01*
X16392110Y-21076022D01*
X16510402Y-21125021D01*
X16635981Y-21150000D01*
X16764019Y-21150000D01*
X16889598Y-21125021D01*
X17007890Y-21076022D01*
X17114351Y-21004888D01*
X17204888Y-20914351D01*
X17276022Y-20807890D01*
X17325021Y-20689598D01*
X17350000Y-20564019D01*
X17350000Y-20435981D01*
X17325021Y-20310402D01*
X17276022Y-20192110D01*
X17204888Y-20085649D01*
X17114351Y-19995112D01*
X17007890Y-19923978D01*
X16889598Y-19874979D01*
X16764019Y-19850000D01*
X16635981Y-19850000D01*
X16510402Y-19874979D01*
X16392110Y-19923978D01*
X16285649Y-19995112D01*
X16195112Y-20085649D01*
X16123978Y-20192110D01*
X16074979Y-20310402D01*
X16050000Y-20435981D01*
X15544623Y-20435981D01*
X15600000Y-20157586D01*
X15600000Y-19842414D01*
X15580948Y-19746633D01*
X15689598Y-19725021D01*
X15807890Y-19676022D01*
X15914351Y-19604888D01*
X16004888Y-19514351D01*
X16047885Y-19450000D01*
X25675906Y-19450000D01*
X26422487Y-34602969D01*
G04 #@! TA.AperFunction,Conductor*
D23*
G36*
X26422487Y-34602969D02*
G01*
X26400491Y-34994687D01*
X26307056Y-35358221D01*
X26144795Y-35696672D01*
X25919883Y-35997165D01*
X25640884Y-36248254D01*
X25318432Y-36440366D01*
X24964806Y-36566190D01*
X24579765Y-36622950D01*
X24495450Y-36625000D01*
X20528918Y-36625000D01*
X20561784Y-36603040D01*
X20903040Y-36261784D01*
X21171162Y-35860510D01*
X21355848Y-35414639D01*
X21450000Y-34941304D01*
X21450000Y-34458696D01*
X21355848Y-33985361D01*
X21252552Y-33735981D01*
X23350000Y-33735981D01*
X23350000Y-33864019D01*
X23374979Y-33989598D01*
X23423978Y-34107890D01*
X23495112Y-34214351D01*
X23585649Y-34304888D01*
X23692110Y-34376022D01*
X23810402Y-34425021D01*
X23935981Y-34450000D01*
X24064019Y-34450000D01*
X24189598Y-34425021D01*
X24307890Y-34376022D01*
X24414351Y-34304888D01*
X24504888Y-34214351D01*
X24576022Y-34107890D01*
X24625021Y-33989598D01*
X24650000Y-33864019D01*
X24650000Y-33735981D01*
X24625021Y-33610402D01*
X24576022Y-33492110D01*
X24504888Y-33385649D01*
X24414351Y-33295112D01*
X24307890Y-33223978D01*
X24189598Y-33174979D01*
X24064019Y-33150000D01*
X23935981Y-33150000D01*
X23810402Y-33174979D01*
X23692110Y-33223978D01*
X23585649Y-33295112D01*
X23495112Y-33385649D01*
X23423978Y-33492110D01*
X23374979Y-33610402D01*
X23350000Y-33735981D01*
X21252552Y-33735981D01*
X21171162Y-33539490D01*
X20903040Y-33138216D01*
X20561784Y-32796960D01*
X20160510Y-32528838D01*
X19714639Y-32344152D01*
X19241304Y-32250000D01*
X18758696Y-32250000D01*
X18285361Y-32344152D01*
X17839490Y-32528838D01*
X17438216Y-32796960D01*
X17096960Y-33138216D01*
X16828838Y-33539490D01*
X16644152Y-33985361D01*
X16551693Y-34450185D01*
X16551693Y-34300000D01*
X16544935Y-34231388D01*
X16524922Y-34165413D01*
X16492422Y-34104610D01*
X16448685Y-34051315D01*
X16395390Y-34007578D01*
X16334587Y-33975078D01*
X16268612Y-33955065D01*
X16200000Y-33948307D01*
X16200000Y-31194547D01*
X16202418Y-31169997D01*
X16200000Y-31145447D01*
X16200000Y-31145438D01*
X16192765Y-31071981D01*
X16164175Y-30977731D01*
X16117746Y-30890869D01*
X16055264Y-30814734D01*
X16036186Y-30799077D01*
X15650929Y-30413822D01*
X15635265Y-30394735D01*
X15559130Y-30332253D01*
X15472268Y-30285824D01*
X15378018Y-30257234D01*
X15304561Y-30249999D01*
X15280001Y-30247580D01*
X15255441Y-30249999D01*
X14705635Y-30249999D01*
X14854425Y-30101209D01*
X14974807Y-29921045D01*
X15057727Y-29720858D01*
X15100000Y-29508341D01*
X15100000Y-29291659D01*
X15058153Y-29081282D01*
X15089598Y-29075027D01*
X15207890Y-29026028D01*
X15314351Y-28954894D01*
X15404888Y-28864357D01*
X15476022Y-28757896D01*
X15525021Y-28639604D01*
X15550000Y-28514025D01*
X15550000Y-28385987D01*
X15539005Y-28330710D01*
X15635981Y-28350000D01*
X15764019Y-28350000D01*
X15889598Y-28325021D01*
X16007890Y-28276022D01*
X16114351Y-28204888D01*
X16204888Y-28114351D01*
X16276022Y-28007890D01*
X16325021Y-27889598D01*
X16350000Y-27764019D01*
X16350000Y-27635981D01*
X18350000Y-27635981D01*
X18350000Y-27764019D01*
X18374979Y-27889598D01*
X18423978Y-28007890D01*
X18495112Y-28114351D01*
X18585649Y-28204888D01*
X18692110Y-28276022D01*
X18810402Y-28325021D01*
X18935981Y-28350000D01*
X19064019Y-28350000D01*
X19189598Y-28325021D01*
X19307890Y-28276022D01*
X19414351Y-28204888D01*
X19504888Y-28114351D01*
X19576022Y-28007890D01*
X19625021Y-27889598D01*
X19650000Y-27764019D01*
X19650000Y-27635981D01*
X19630109Y-27535981D01*
X22250000Y-27535981D01*
X22250000Y-27664019D01*
X22274979Y-27789598D01*
X22323978Y-27907890D01*
X22395112Y-28014351D01*
X22485649Y-28104888D01*
X22592110Y-28176022D01*
X22710402Y-28225021D01*
X22835981Y-28250000D01*
X22964019Y-28250000D01*
X23089598Y-28225021D01*
X23207890Y-28176022D01*
X23314351Y-28104888D01*
X23404888Y-28014351D01*
X23476022Y-27907890D01*
X23525021Y-27789598D01*
X23550000Y-27664019D01*
X23550000Y-27535981D01*
X23525021Y-27410402D01*
X23476022Y-27292110D01*
X23404888Y-27185649D01*
X23314351Y-27095112D01*
X23207890Y-27023978D01*
X23089598Y-26974979D01*
X22964019Y-26950000D01*
X22835981Y-26950000D01*
X22710402Y-26974979D01*
X22592110Y-27023978D01*
X22485649Y-27095112D01*
X22395112Y-27185649D01*
X22323978Y-27292110D01*
X22274979Y-27410402D01*
X22250000Y-27535981D01*
X19630109Y-27535981D01*
X19625021Y-27510402D01*
X19576022Y-27392110D01*
X19504888Y-27285649D01*
X19414351Y-27195112D01*
X19307890Y-27123978D01*
X19189598Y-27074979D01*
X19064019Y-27050000D01*
X18935981Y-27050000D01*
X18810402Y-27074979D01*
X18692110Y-27123978D01*
X18585649Y-27195112D01*
X18495112Y-27285649D01*
X18423978Y-27392110D01*
X18374979Y-27510402D01*
X18350000Y-27635981D01*
X16350000Y-27635981D01*
X16325021Y-27510402D01*
X16276022Y-27392110D01*
X16204888Y-27285649D01*
X16114351Y-27195112D01*
X16007890Y-27123978D01*
X15889598Y-27074979D01*
X15764019Y-27050000D01*
X15635981Y-27050000D01*
X15510402Y-27074979D01*
X15392110Y-27123978D01*
X15285649Y-27195112D01*
X15195112Y-27285649D01*
X15123978Y-27392110D01*
X15074979Y-27510402D01*
X15050000Y-27635981D01*
X15050000Y-27764019D01*
X15060995Y-27819296D01*
X14964019Y-27800006D01*
X14835981Y-27800006D01*
X14710402Y-27824985D01*
X14592110Y-27873984D01*
X14485649Y-27945118D01*
X14450000Y-27980767D01*
X14450000Y-26146030D01*
X14620711Y-26146030D01*
X14620711Y-26274068D01*
X14645690Y-26399647D01*
X14694689Y-26517939D01*
X14765823Y-26624400D01*
X14856360Y-26714937D01*
X14962821Y-26786071D01*
X15081113Y-26835070D01*
X15206692Y-26860049D01*
X15334730Y-26860049D01*
X15460309Y-26835070D01*
X15578601Y-26786071D01*
X15685062Y-26714937D01*
X15775599Y-26624400D01*
X15846733Y-26517939D01*
X15895732Y-26399647D01*
X15908395Y-26335981D01*
X21150000Y-26335981D01*
X21150000Y-26464019D01*
X21174979Y-26589598D01*
X21223978Y-26707890D01*
X21295112Y-26814351D01*
X21385649Y-26904888D01*
X21492110Y-26976022D01*
X21610402Y-27025021D01*
X21735981Y-27050000D01*
X21864019Y-27050000D01*
X21989598Y-27025021D01*
X22107890Y-26976022D01*
X22214351Y-26904888D01*
X22304888Y-26814351D01*
X22376022Y-26707890D01*
X22425021Y-26589598D01*
X22450000Y-26464019D01*
X22450000Y-26335981D01*
X22425021Y-26210402D01*
X22376022Y-26092110D01*
X22304888Y-25985649D01*
X22214351Y-25895112D01*
X22107890Y-25823978D01*
X21989598Y-25774979D01*
X21864019Y-25750000D01*
X21735981Y-25750000D01*
X21610402Y-25774979D01*
X21492110Y-25823978D01*
X21385649Y-25895112D01*
X21295112Y-25985649D01*
X21223978Y-26092110D01*
X21174979Y-26210402D01*
X21150000Y-26335981D01*
X15908395Y-26335981D01*
X15920711Y-26274068D01*
X15920711Y-26146030D01*
X15895732Y-26020451D01*
X15846733Y-25902159D01*
X15775599Y-25795698D01*
X15685062Y-25705161D01*
X15578601Y-25634027D01*
X15460309Y-25585028D01*
X15334730Y-25560049D01*
X15206692Y-25560049D01*
X15081113Y-25585028D01*
X14962821Y-25634027D01*
X14856360Y-25705161D01*
X14765823Y-25795698D01*
X14694689Y-25902159D01*
X14645690Y-26020451D01*
X14620711Y-26146030D01*
X14450000Y-26146030D01*
X14450000Y-24535981D01*
X22950000Y-24535981D01*
X22950000Y-24664019D01*
X22974979Y-24789598D01*
X23023978Y-24907890D01*
X23095112Y-25014351D01*
X23185649Y-25104888D01*
X23292110Y-25176022D01*
X23410402Y-25225021D01*
X23535981Y-25250000D01*
X23664019Y-25250000D01*
X23789598Y-25225021D01*
X23900000Y-25179290D01*
X24010402Y-25225021D01*
X24135981Y-25250000D01*
X24264019Y-25250000D01*
X24389598Y-25225021D01*
X24507890Y-25176022D01*
X24614351Y-25104888D01*
X24704888Y-25014351D01*
X24776022Y-24907890D01*
X24825021Y-24789598D01*
X24850000Y-24664019D01*
X24850000Y-24535981D01*
X24825021Y-24410402D01*
X24776022Y-24292110D01*
X24704888Y-24185649D01*
X24614351Y-24095112D01*
X24507890Y-24023978D01*
X24389598Y-23974979D01*
X24264019Y-23950000D01*
X24135981Y-23950000D01*
X24010402Y-23974979D01*
X23900000Y-24020710D01*
X23789598Y-23974979D01*
X23664019Y-23950000D01*
X23535981Y-23950000D01*
X23410402Y-23974979D01*
X23292110Y-24023978D01*
X23185649Y-24095112D01*
X23095112Y-24185649D01*
X23023978Y-24292110D01*
X22974979Y-24410402D01*
X22950000Y-24535981D01*
X14450000Y-24535981D01*
X14450000Y-22865270D01*
X14620711Y-22865270D01*
X14620711Y-22993308D01*
X14645690Y-23118887D01*
X14694689Y-23237179D01*
X14765823Y-23343640D01*
X14856360Y-23434177D01*
X14962821Y-23505311D01*
X15081113Y-23554310D01*
X15206692Y-23579289D01*
X15334730Y-23579289D01*
X15460309Y-23554310D01*
X15578601Y-23505311D01*
X15685062Y-23434177D01*
X15775599Y-23343640D01*
X15846733Y-23237179D01*
X15895732Y-23118887D01*
X15920711Y-22993308D01*
X15920711Y-22865270D01*
X15895732Y-22739691D01*
X15846733Y-22621399D01*
X15775599Y-22514938D01*
X15685062Y-22424401D01*
X15578601Y-22353267D01*
X15460309Y-22304268D01*
X15334730Y-22279289D01*
X15206692Y-22279289D01*
X15081113Y-22304268D01*
X14962821Y-22353267D01*
X14856360Y-22424401D01*
X14765823Y-22514938D01*
X14694689Y-22621399D01*
X14645690Y-22739691D01*
X14620711Y-22865270D01*
X14450000Y-22865270D01*
X14450000Y-21541835D01*
X14466703Y-21538513D01*
X14757884Y-21417902D01*
X15019941Y-21242801D01*
X15242801Y-21019941D01*
X15417902Y-20757884D01*
X15538513Y-20466703D01*
X15544623Y-20435981D01*
X16050000Y-20435981D01*
X16050000Y-20564019D01*
X16074979Y-20689598D01*
X16123978Y-20807890D01*
X16195112Y-20914351D01*
X16285649Y-21004888D01*
X16392110Y-21076022D01*
X16510402Y-21125021D01*
X16635981Y-21150000D01*
X16764019Y-21150000D01*
X16889598Y-21125021D01*
X17007890Y-21076022D01*
X17114351Y-21004888D01*
X17204888Y-20914351D01*
X17276022Y-20807890D01*
X17325021Y-20689598D01*
X17350000Y-20564019D01*
X17350000Y-20435981D01*
X17325021Y-20310402D01*
X17276022Y-20192110D01*
X17204888Y-20085649D01*
X17114351Y-19995112D01*
X17007890Y-19923978D01*
X16889598Y-19874979D01*
X16764019Y-19850000D01*
X16635981Y-19850000D01*
X16510402Y-19874979D01*
X16392110Y-19923978D01*
X16285649Y-19995112D01*
X16195112Y-20085649D01*
X16123978Y-20192110D01*
X16074979Y-20310402D01*
X16050000Y-20435981D01*
X15544623Y-20435981D01*
X15600000Y-20157586D01*
X15600000Y-19842414D01*
X15580948Y-19746633D01*
X15689598Y-19725021D01*
X15807890Y-19676022D01*
X15914351Y-19604888D01*
X16004888Y-19514351D01*
X16047885Y-19450000D01*
X25675906Y-19450000D01*
X26422487Y-34602969D01*
G37*
G04 #@! TD.AperFunction*
G04 #@! TD*
D19*
G04 #@! TO.N,GND*
X13850000Y-22562132D02*
X13850000Y-25937868D01*
X11786590Y-28001278D01*
X11757884Y-27982098D01*
X11466703Y-27861487D01*
X11157586Y-27800000D01*
X10842414Y-27800000D01*
X10533297Y-27861487D01*
X10242116Y-27982098D01*
X9980059Y-28157199D01*
X9757199Y-28380059D01*
X9582098Y-28642116D01*
X9461487Y-28933297D01*
X9400000Y-29242414D01*
X9400000Y-29557586D01*
X9461487Y-29866703D01*
X9582098Y-30157884D01*
X9757199Y-30419941D01*
X9980059Y-30642801D01*
X10242116Y-30817902D01*
X10350000Y-30862589D01*
X10350000Y-31437411D01*
X10242116Y-31482098D01*
X9980059Y-31657199D01*
X9757199Y-31880059D01*
X9582098Y-32142116D01*
X9461487Y-32433297D01*
X9400000Y-32742414D01*
X9400000Y-33057586D01*
X9461487Y-33366703D01*
X9582098Y-33657884D01*
X9757199Y-33919941D01*
X9980059Y-34142801D01*
X10242116Y-34317902D01*
X10350000Y-34362589D01*
X10350000Y-35152113D01*
X10307892Y-35123978D01*
X10189600Y-35074979D01*
X10064021Y-35050000D01*
X9935983Y-35050000D01*
X9810404Y-35074979D01*
X9692112Y-35123978D01*
X9585651Y-35195112D01*
X9495114Y-35285649D01*
X9423980Y-35392110D01*
X9374981Y-35510402D01*
X9350002Y-35635981D01*
X9350002Y-35764019D01*
X9374981Y-35889598D01*
X9420707Y-35999990D01*
X9374979Y-36110386D01*
X9350000Y-36235965D01*
X9350000Y-36364003D01*
X9374979Y-36489582D01*
X9423978Y-36607874D01*
X9435421Y-36625000D01*
X3518337Y-36625000D01*
X3126449Y-36586575D01*
X2767123Y-36478088D01*
X2435716Y-36301876D01*
X2144848Y-36064650D01*
X1905592Y-35775438D01*
X1727071Y-35445270D01*
X1616080Y-35086716D01*
X1575397Y-34699647D01*
X1576835Y-34616710D01*
X1580280Y-34546772D01*
X4539209Y-34546772D01*
X4539209Y-34674810D01*
X4564188Y-34800389D01*
X4613187Y-34918681D01*
X4684321Y-35025142D01*
X4774858Y-35115679D01*
X4881319Y-35186813D01*
X4999611Y-35235812D01*
X5125190Y-35260791D01*
X5253228Y-35260791D01*
X5378807Y-35235812D01*
X5497099Y-35186813D01*
X5603560Y-35115679D01*
X5694097Y-35025142D01*
X5765231Y-34918681D01*
X5814230Y-34800389D01*
X5839209Y-34674810D01*
X5839209Y-34546772D01*
X5837063Y-34535981D01*
X6050000Y-34535981D01*
X6050000Y-34664019D01*
X6074979Y-34789598D01*
X6123978Y-34907890D01*
X6195112Y-35014351D01*
X6285649Y-35104888D01*
X6392110Y-35176022D01*
X6510402Y-35225021D01*
X6635981Y-35250000D01*
X6764019Y-35250000D01*
X6889598Y-35225021D01*
X7007890Y-35176022D01*
X7114351Y-35104888D01*
X7204888Y-35014351D01*
X7276022Y-34907890D01*
X7325021Y-34789598D01*
X7350000Y-34664019D01*
X7350000Y-34535981D01*
X7325021Y-34410402D01*
X7276022Y-34292110D01*
X7204888Y-34185649D01*
X7114351Y-34095112D01*
X7007890Y-34023978D01*
X6889598Y-33974979D01*
X6764019Y-33950000D01*
X6635981Y-33950000D01*
X6510402Y-33974979D01*
X6392110Y-34023978D01*
X6285649Y-34095112D01*
X6195112Y-34185649D01*
X6123978Y-34292110D01*
X6074979Y-34410402D01*
X6050000Y-34535981D01*
X5837063Y-34535981D01*
X5814230Y-34421193D01*
X5765231Y-34302901D01*
X5694097Y-34196440D01*
X5603560Y-34105903D01*
X5497099Y-34034769D01*
X5378807Y-33985770D01*
X5253228Y-33960791D01*
X5125190Y-33960791D01*
X4999611Y-33985770D01*
X4881319Y-34034769D01*
X4774858Y-34105903D01*
X4684321Y-34196440D01*
X4613187Y-34302901D01*
X4564188Y-34421193D01*
X4539209Y-34546772D01*
X1580280Y-34546772D01*
X1756832Y-30963402D01*
X2837095Y-30963402D01*
X2837095Y-31091440D01*
X2862074Y-31217019D01*
X2911073Y-31335311D01*
X2982207Y-31441772D01*
X3072744Y-31532309D01*
X3179205Y-31603443D01*
X3297497Y-31652442D01*
X3423076Y-31677421D01*
X3551114Y-31677421D01*
X3676693Y-31652442D01*
X3794985Y-31603443D01*
X3901446Y-31532309D01*
X3991983Y-31441772D01*
X4063117Y-31335311D01*
X4112116Y-31217019D01*
X4137095Y-31091440D01*
X4137095Y-31051889D01*
X7025000Y-31051889D01*
X7025000Y-31179927D01*
X7049979Y-31305506D01*
X7098978Y-31423798D01*
X7170112Y-31530259D01*
X7260649Y-31620796D01*
X7367110Y-31691930D01*
X7485402Y-31740929D01*
X7610981Y-31765908D01*
X7739019Y-31765908D01*
X7864598Y-31740929D01*
X7982890Y-31691930D01*
X8089351Y-31620796D01*
X8179888Y-31530259D01*
X8251022Y-31423798D01*
X8300021Y-31305506D01*
X8325000Y-31179927D01*
X8325000Y-31051889D01*
X8300021Y-30926310D01*
X8251022Y-30808018D01*
X8179888Y-30701557D01*
X8089351Y-30611020D01*
X7982890Y-30539886D01*
X7864598Y-30490887D01*
X7739019Y-30465908D01*
X7610981Y-30465908D01*
X7485402Y-30490887D01*
X7367110Y-30539886D01*
X7260649Y-30611020D01*
X7170112Y-30701557D01*
X7098978Y-30808018D01*
X7049979Y-30926310D01*
X7025000Y-31051889D01*
X4137095Y-31051889D01*
X4137095Y-30963402D01*
X4112116Y-30837823D01*
X4063117Y-30719531D01*
X3991983Y-30613070D01*
X3901446Y-30522533D01*
X3794985Y-30451399D01*
X3676693Y-30402400D01*
X3551114Y-30377421D01*
X3423076Y-30377421D01*
X3297497Y-30402400D01*
X3179205Y-30451399D01*
X3072744Y-30522533D01*
X2982207Y-30613070D01*
X2911073Y-30719531D01*
X2862074Y-30837823D01*
X2837095Y-30963402D01*
X1756832Y-30963402D01*
X1920772Y-27635981D01*
X7150000Y-27635981D01*
X7150000Y-27764019D01*
X7174979Y-27889598D01*
X7220710Y-28000000D01*
X7174979Y-28110402D01*
X7150000Y-28235981D01*
X7150000Y-28364019D01*
X7174979Y-28489598D01*
X7180180Y-28502155D01*
X7182235Y-28523017D01*
X7210826Y-28617267D01*
X7257255Y-28704128D01*
X7319737Y-28780263D01*
X7395872Y-28842745D01*
X7482733Y-28889174D01*
X7576983Y-28917765D01*
X7597845Y-28919820D01*
X7610402Y-28925021D01*
X7735981Y-28950000D01*
X7864019Y-28950000D01*
X7989598Y-28925021D01*
X8107890Y-28876022D01*
X8214351Y-28804888D01*
X8304888Y-28714351D01*
X8376022Y-28607890D01*
X8425021Y-28489598D01*
X8450000Y-28364019D01*
X8450000Y-28235981D01*
X8425021Y-28110402D01*
X8379290Y-28000000D01*
X8425021Y-27889598D01*
X8450000Y-27764019D01*
X8450000Y-27635981D01*
X8425021Y-27510402D01*
X8376022Y-27392110D01*
X8304888Y-27285649D01*
X8214351Y-27195112D01*
X8107890Y-27123978D01*
X7989598Y-27074979D01*
X7864019Y-27050000D01*
X7735981Y-27050000D01*
X7610402Y-27074979D01*
X7492110Y-27123978D01*
X7385649Y-27195112D01*
X7295112Y-27285649D01*
X7223978Y-27392110D01*
X7174979Y-27510402D01*
X7150000Y-27635981D01*
X1920772Y-27635981D01*
X2062114Y-24767231D01*
X9368750Y-24767231D01*
X9368750Y-24895269D01*
X9393729Y-25020848D01*
X9442728Y-25139140D01*
X9513862Y-25245601D01*
X9604399Y-25336138D01*
X9710860Y-25407272D01*
X9829152Y-25456271D01*
X9954731Y-25481250D01*
X10082769Y-25481250D01*
X10208348Y-25456271D01*
X10326640Y-25407272D01*
X10433101Y-25336138D01*
X10523638Y-25245601D01*
X10594772Y-25139140D01*
X10643771Y-25020848D01*
X10668750Y-24895269D01*
X10668750Y-24885981D01*
X12000000Y-24885981D01*
X12000000Y-25014019D01*
X12024979Y-25139598D01*
X12073978Y-25257890D01*
X12145112Y-25364351D01*
X12235649Y-25454888D01*
X12342110Y-25526022D01*
X12460402Y-25575021D01*
X12585981Y-25600000D01*
X12714019Y-25600000D01*
X12839598Y-25575021D01*
X12957890Y-25526022D01*
X13064351Y-25454888D01*
X13154888Y-25364351D01*
X13226022Y-25257890D01*
X13275021Y-25139598D01*
X13300000Y-25014019D01*
X13300000Y-24885981D01*
X13275021Y-24760402D01*
X13226022Y-24642110D01*
X13154888Y-24535649D01*
X13064351Y-24445112D01*
X12957890Y-24373978D01*
X12839598Y-24324979D01*
X12714019Y-24300000D01*
X12585981Y-24300000D01*
X12460402Y-24324979D01*
X12342110Y-24373978D01*
X12235649Y-24445112D01*
X12145112Y-24535649D01*
X12073978Y-24642110D01*
X12024979Y-24760402D01*
X12000000Y-24885981D01*
X10668750Y-24885981D01*
X10668750Y-24767231D01*
X10643771Y-24641652D01*
X10594772Y-24523360D01*
X10523638Y-24416899D01*
X10433101Y-24326362D01*
X10326640Y-24255228D01*
X10208348Y-24206229D01*
X10082769Y-24181250D01*
X9954731Y-24181250D01*
X9829152Y-24206229D01*
X9710860Y-24255228D01*
X9604399Y-24326362D01*
X9513862Y-24416899D01*
X9442728Y-24523360D01*
X9393729Y-24641652D01*
X9368750Y-24767231D01*
X2062114Y-24767231D01*
X2260733Y-20735981D01*
X5450000Y-20735981D01*
X5450000Y-20864019D01*
X5474979Y-20989598D01*
X5523978Y-21107890D01*
X5585527Y-21200007D01*
X5523978Y-21292123D01*
X5474979Y-21410415D01*
X5450000Y-21535994D01*
X5450000Y-21664032D01*
X5474979Y-21789611D01*
X5523978Y-21907903D01*
X5595112Y-22014364D01*
X5685649Y-22104901D01*
X5792110Y-22176035D01*
X5910402Y-22225034D01*
X6035981Y-22250013D01*
X6164019Y-22250013D01*
X6289598Y-22225034D01*
X6407890Y-22176035D01*
X6514351Y-22104901D01*
X6604888Y-22014364D01*
X6676022Y-21907903D01*
X6725021Y-21789611D01*
X6750000Y-21664032D01*
X6750000Y-21535994D01*
X6725021Y-21410415D01*
X6676022Y-21292123D01*
X6614473Y-21200007D01*
X6676022Y-21107890D01*
X6725021Y-20989598D01*
X6750000Y-20864019D01*
X6750000Y-20735981D01*
X6725021Y-20610402D01*
X6676022Y-20492110D01*
X6604888Y-20385649D01*
X6514351Y-20295112D01*
X6407890Y-20223978D01*
X6289598Y-20174979D01*
X6164019Y-20150000D01*
X6035981Y-20150000D01*
X5910402Y-20174979D01*
X5792110Y-20223978D01*
X5685649Y-20295112D01*
X5595112Y-20385649D01*
X5523978Y-20492110D01*
X5474979Y-20610402D01*
X5450000Y-20735981D01*
X2260733Y-20735981D01*
X2324093Y-19450000D01*
X10737868Y-19450000D01*
X13850000Y-22562132D01*
G04 #@! TA.AperFunction,Conductor*
D23*
G36*
X13850000Y-22562132D02*
G01*
X13850000Y-25937868D01*
X11786590Y-28001278D01*
X11757884Y-27982098D01*
X11466703Y-27861487D01*
X11157586Y-27800000D01*
X10842414Y-27800000D01*
X10533297Y-27861487D01*
X10242116Y-27982098D01*
X9980059Y-28157199D01*
X9757199Y-28380059D01*
X9582098Y-28642116D01*
X9461487Y-28933297D01*
X9400000Y-29242414D01*
X9400000Y-29557586D01*
X9461487Y-29866703D01*
X9582098Y-30157884D01*
X9757199Y-30419941D01*
X9980059Y-30642801D01*
X10242116Y-30817902D01*
X10350000Y-30862589D01*
X10350000Y-31437411D01*
X10242116Y-31482098D01*
X9980059Y-31657199D01*
X9757199Y-31880059D01*
X9582098Y-32142116D01*
X9461487Y-32433297D01*
X9400000Y-32742414D01*
X9400000Y-33057586D01*
X9461487Y-33366703D01*
X9582098Y-33657884D01*
X9757199Y-33919941D01*
X9980059Y-34142801D01*
X10242116Y-34317902D01*
X10350000Y-34362589D01*
X10350000Y-35152113D01*
X10307892Y-35123978D01*
X10189600Y-35074979D01*
X10064021Y-35050000D01*
X9935983Y-35050000D01*
X9810404Y-35074979D01*
X9692112Y-35123978D01*
X9585651Y-35195112D01*
X9495114Y-35285649D01*
X9423980Y-35392110D01*
X9374981Y-35510402D01*
X9350002Y-35635981D01*
X9350002Y-35764019D01*
X9374981Y-35889598D01*
X9420707Y-35999990D01*
X9374979Y-36110386D01*
X9350000Y-36235965D01*
X9350000Y-36364003D01*
X9374979Y-36489582D01*
X9423978Y-36607874D01*
X9435421Y-36625000D01*
X3518337Y-36625000D01*
X3126449Y-36586575D01*
X2767123Y-36478088D01*
X2435716Y-36301876D01*
X2144848Y-36064650D01*
X1905592Y-35775438D01*
X1727071Y-35445270D01*
X1616080Y-35086716D01*
X1575397Y-34699647D01*
X1576835Y-34616710D01*
X1580280Y-34546772D01*
X4539209Y-34546772D01*
X4539209Y-34674810D01*
X4564188Y-34800389D01*
X4613187Y-34918681D01*
X4684321Y-35025142D01*
X4774858Y-35115679D01*
X4881319Y-35186813D01*
X4999611Y-35235812D01*
X5125190Y-35260791D01*
X5253228Y-35260791D01*
X5378807Y-35235812D01*
X5497099Y-35186813D01*
X5603560Y-35115679D01*
X5694097Y-35025142D01*
X5765231Y-34918681D01*
X5814230Y-34800389D01*
X5839209Y-34674810D01*
X5839209Y-34546772D01*
X5837063Y-34535981D01*
X6050000Y-34535981D01*
X6050000Y-34664019D01*
X6074979Y-34789598D01*
X6123978Y-34907890D01*
X6195112Y-35014351D01*
X6285649Y-35104888D01*
X6392110Y-35176022D01*
X6510402Y-35225021D01*
X6635981Y-35250000D01*
X6764019Y-35250000D01*
X6889598Y-35225021D01*
X7007890Y-35176022D01*
X7114351Y-35104888D01*
X7204888Y-35014351D01*
X7276022Y-34907890D01*
X7325021Y-34789598D01*
X7350000Y-34664019D01*
X7350000Y-34535981D01*
X7325021Y-34410402D01*
X7276022Y-34292110D01*
X7204888Y-34185649D01*
X7114351Y-34095112D01*
X7007890Y-34023978D01*
X6889598Y-33974979D01*
X6764019Y-33950000D01*
X6635981Y-33950000D01*
X6510402Y-33974979D01*
X6392110Y-34023978D01*
X6285649Y-34095112D01*
X6195112Y-34185649D01*
X6123978Y-34292110D01*
X6074979Y-34410402D01*
X6050000Y-34535981D01*
X5837063Y-34535981D01*
X5814230Y-34421193D01*
X5765231Y-34302901D01*
X5694097Y-34196440D01*
X5603560Y-34105903D01*
X5497099Y-34034769D01*
X5378807Y-33985770D01*
X5253228Y-33960791D01*
X5125190Y-33960791D01*
X4999611Y-33985770D01*
X4881319Y-34034769D01*
X4774858Y-34105903D01*
X4684321Y-34196440D01*
X4613187Y-34302901D01*
X4564188Y-34421193D01*
X4539209Y-34546772D01*
X1580280Y-34546772D01*
X1756832Y-30963402D01*
X2837095Y-30963402D01*
X2837095Y-31091440D01*
X2862074Y-31217019D01*
X2911073Y-31335311D01*
X2982207Y-31441772D01*
X3072744Y-31532309D01*
X3179205Y-31603443D01*
X3297497Y-31652442D01*
X3423076Y-31677421D01*
X3551114Y-31677421D01*
X3676693Y-31652442D01*
X3794985Y-31603443D01*
X3901446Y-31532309D01*
X3991983Y-31441772D01*
X4063117Y-31335311D01*
X4112116Y-31217019D01*
X4137095Y-31091440D01*
X4137095Y-31051889D01*
X7025000Y-31051889D01*
X7025000Y-31179927D01*
X7049979Y-31305506D01*
X7098978Y-31423798D01*
X7170112Y-31530259D01*
X7260649Y-31620796D01*
X7367110Y-31691930D01*
X7485402Y-31740929D01*
X7610981Y-31765908D01*
X7739019Y-31765908D01*
X7864598Y-31740929D01*
X7982890Y-31691930D01*
X8089351Y-31620796D01*
X8179888Y-31530259D01*
X8251022Y-31423798D01*
X8300021Y-31305506D01*
X8325000Y-31179927D01*
X8325000Y-31051889D01*
X8300021Y-30926310D01*
X8251022Y-30808018D01*
X8179888Y-30701557D01*
X8089351Y-30611020D01*
X7982890Y-30539886D01*
X7864598Y-30490887D01*
X7739019Y-30465908D01*
X7610981Y-30465908D01*
X7485402Y-30490887D01*
X7367110Y-30539886D01*
X7260649Y-30611020D01*
X7170112Y-30701557D01*
X7098978Y-30808018D01*
X7049979Y-30926310D01*
X7025000Y-31051889D01*
X4137095Y-31051889D01*
X4137095Y-30963402D01*
X4112116Y-30837823D01*
X4063117Y-30719531D01*
X3991983Y-30613070D01*
X3901446Y-30522533D01*
X3794985Y-30451399D01*
X3676693Y-30402400D01*
X3551114Y-30377421D01*
X3423076Y-30377421D01*
X3297497Y-30402400D01*
X3179205Y-30451399D01*
X3072744Y-30522533D01*
X2982207Y-30613070D01*
X2911073Y-30719531D01*
X2862074Y-30837823D01*
X2837095Y-30963402D01*
X1756832Y-30963402D01*
X1920772Y-27635981D01*
X7150000Y-27635981D01*
X7150000Y-27764019D01*
X7174979Y-27889598D01*
X7220710Y-28000000D01*
X7174979Y-28110402D01*
X7150000Y-28235981D01*
X7150000Y-28364019D01*
X7174979Y-28489598D01*
X7180180Y-28502155D01*
X7182235Y-28523017D01*
X7210826Y-28617267D01*
X7257255Y-28704128D01*
X7319737Y-28780263D01*
X7395872Y-28842745D01*
X7482733Y-28889174D01*
X7576983Y-28917765D01*
X7597845Y-28919820D01*
X7610402Y-28925021D01*
X7735981Y-28950000D01*
X7864019Y-28950000D01*
X7989598Y-28925021D01*
X8107890Y-28876022D01*
X8214351Y-28804888D01*
X8304888Y-28714351D01*
X8376022Y-28607890D01*
X8425021Y-28489598D01*
X8450000Y-28364019D01*
X8450000Y-28235981D01*
X8425021Y-28110402D01*
X8379290Y-28000000D01*
X8425021Y-27889598D01*
X8450000Y-27764019D01*
X8450000Y-27635981D01*
X8425021Y-27510402D01*
X8376022Y-27392110D01*
X8304888Y-27285649D01*
X8214351Y-27195112D01*
X8107890Y-27123978D01*
X7989598Y-27074979D01*
X7864019Y-27050000D01*
X7735981Y-27050000D01*
X7610402Y-27074979D01*
X7492110Y-27123978D01*
X7385649Y-27195112D01*
X7295112Y-27285649D01*
X7223978Y-27392110D01*
X7174979Y-27510402D01*
X7150000Y-27635981D01*
X1920772Y-27635981D01*
X2062114Y-24767231D01*
X9368750Y-24767231D01*
X9368750Y-24895269D01*
X9393729Y-25020848D01*
X9442728Y-25139140D01*
X9513862Y-25245601D01*
X9604399Y-25336138D01*
X9710860Y-25407272D01*
X9829152Y-25456271D01*
X9954731Y-25481250D01*
X10082769Y-25481250D01*
X10208348Y-25456271D01*
X10326640Y-25407272D01*
X10433101Y-25336138D01*
X10523638Y-25245601D01*
X10594772Y-25139140D01*
X10643771Y-25020848D01*
X10668750Y-24895269D01*
X10668750Y-24885981D01*
X12000000Y-24885981D01*
X12000000Y-25014019D01*
X12024979Y-25139598D01*
X12073978Y-25257890D01*
X12145112Y-25364351D01*
X12235649Y-25454888D01*
X12342110Y-25526022D01*
X12460402Y-25575021D01*
X12585981Y-25600000D01*
X12714019Y-25600000D01*
X12839598Y-25575021D01*
X12957890Y-25526022D01*
X13064351Y-25454888D01*
X13154888Y-25364351D01*
X13226022Y-25257890D01*
X13275021Y-25139598D01*
X13300000Y-25014019D01*
X13300000Y-24885981D01*
X13275021Y-24760402D01*
X13226022Y-24642110D01*
X13154888Y-24535649D01*
X13064351Y-24445112D01*
X12957890Y-24373978D01*
X12839598Y-24324979D01*
X12714019Y-24300000D01*
X12585981Y-24300000D01*
X12460402Y-24324979D01*
X12342110Y-24373978D01*
X12235649Y-24445112D01*
X12145112Y-24535649D01*
X12073978Y-24642110D01*
X12024979Y-24760402D01*
X12000000Y-24885981D01*
X10668750Y-24885981D01*
X10668750Y-24767231D01*
X10643771Y-24641652D01*
X10594772Y-24523360D01*
X10523638Y-24416899D01*
X10433101Y-24326362D01*
X10326640Y-24255228D01*
X10208348Y-24206229D01*
X10082769Y-24181250D01*
X9954731Y-24181250D01*
X9829152Y-24206229D01*
X9710860Y-24255228D01*
X9604399Y-24326362D01*
X9513862Y-24416899D01*
X9442728Y-24523360D01*
X9393729Y-24641652D01*
X9368750Y-24767231D01*
X2062114Y-24767231D01*
X2260733Y-20735981D01*
X5450000Y-20735981D01*
X5450000Y-20864019D01*
X5474979Y-20989598D01*
X5523978Y-21107890D01*
X5585527Y-21200007D01*
X5523978Y-21292123D01*
X5474979Y-21410415D01*
X5450000Y-21535994D01*
X5450000Y-21664032D01*
X5474979Y-21789611D01*
X5523978Y-21907903D01*
X5595112Y-22014364D01*
X5685649Y-22104901D01*
X5792110Y-22176035D01*
X5910402Y-22225034D01*
X6035981Y-22250013D01*
X6164019Y-22250013D01*
X6289598Y-22225034D01*
X6407890Y-22176035D01*
X6514351Y-22104901D01*
X6604888Y-22014364D01*
X6676022Y-21907903D01*
X6725021Y-21789611D01*
X6750000Y-21664032D01*
X6750000Y-21535994D01*
X6725021Y-21410415D01*
X6676022Y-21292123D01*
X6614473Y-21200007D01*
X6676022Y-21107890D01*
X6725021Y-20989598D01*
X6750000Y-20864019D01*
X6750000Y-20735981D01*
X6725021Y-20610402D01*
X6676022Y-20492110D01*
X6604888Y-20385649D01*
X6514351Y-20295112D01*
X6407890Y-20223978D01*
X6289598Y-20174979D01*
X6164019Y-20150000D01*
X6035981Y-20150000D01*
X5910402Y-20174979D01*
X5792110Y-20223978D01*
X5685649Y-20295112D01*
X5595112Y-20385649D01*
X5523978Y-20492110D01*
X5474979Y-20610402D01*
X5450000Y-20735981D01*
X2260733Y-20735981D01*
X2324093Y-19450000D01*
X10737868Y-19450000D01*
X13850000Y-22562132D01*
G37*
G04 #@! TD.AperFunction*
G04 #@! TD*
D19*
G04 #@! TO.N,GNDA*
X10850000Y-5350000D02*
X9326884Y-5350000D01*
X9450569Y-5226315D01*
X9626763Y-4962621D01*
X9748129Y-4669620D01*
X9810000Y-4358571D01*
X9810000Y-4041429D01*
X9748129Y-3730380D01*
X9626763Y-3437379D01*
X9450569Y-3173685D01*
X9226315Y-2949431D01*
X8962621Y-2773237D01*
X8669620Y-2651871D01*
X8358571Y-2590000D01*
X8041429Y-2590000D01*
X7730380Y-2651871D01*
X7437379Y-2773237D01*
X7173685Y-2949431D01*
X6949431Y-3173685D01*
X6773237Y-3437379D01*
X6651871Y-3730380D01*
X6590000Y-4041429D01*
X6590000Y-4358571D01*
X6651871Y-4669620D01*
X6773237Y-4962621D01*
X6949431Y-5226315D01*
X7073116Y-5350000D01*
X5150000Y-5350000D01*
X5150000Y-3315593D01*
X5219335Y-3258234D01*
X5243964Y-3233433D01*
X5268854Y-3209058D01*
X5272276Y-3204923D01*
X5272281Y-3204918D01*
X5272285Y-3204913D01*
X5580657Y-2826810D01*
X5599975Y-2797734D01*
X5619681Y-2768954D01*
X5622238Y-2764226D01*
X5851300Y-2333422D01*
X5864605Y-2301143D01*
X5878343Y-2269088D01*
X5879933Y-2263953D01*
X6020956Y-1796864D01*
X6027741Y-1762598D01*
X6034988Y-1728501D01*
X6035551Y-1723155D01*
X6065001Y-1422801D01*
X6065001Y-1668906D01*
X6066618Y-1685328D01*
X6066597Y-1688384D01*
X6067121Y-1693734D01*
X6077321Y-1790782D01*
X6084346Y-1825009D01*
X6090877Y-1859240D01*
X6092427Y-1864376D01*
X6092429Y-1864386D01*
X6092433Y-1864395D01*
X6121286Y-1957605D01*
X6134815Y-1989790D01*
X6147881Y-2022129D01*
X6150404Y-2026875D01*
X6196817Y-2112713D01*
X6216344Y-2141663D01*
X6235437Y-2170839D01*
X6238834Y-2175005D01*
X6301036Y-2250194D01*
X6325815Y-2274801D01*
X6350208Y-2299710D01*
X6354349Y-2303137D01*
X6429970Y-2364813D01*
X6459043Y-2384129D01*
X6487831Y-2403840D01*
X6492559Y-2406397D01*
X6578720Y-2452209D01*
X6611024Y-2465524D01*
X6643052Y-2479251D01*
X6648186Y-2480841D01*
X6741604Y-2509046D01*
X6775907Y-2515838D01*
X6809970Y-2523078D01*
X6815309Y-2523640D01*
X6815312Y-2523641D01*
X6815315Y-2523641D01*
X6912432Y-2533163D01*
X6912441Y-2533163D01*
X6931094Y-2535000D01*
X9468906Y-2535000D01*
X9485337Y-2533382D01*
X9488384Y-2533403D01*
X9493734Y-2532879D01*
X9590782Y-2522679D01*
X9625009Y-2515654D01*
X9659240Y-2509123D01*
X9664376Y-2507573D01*
X9664386Y-2507571D01*
X9664395Y-2507567D01*
X9757605Y-2478714D01*
X9789790Y-2465185D01*
X9822129Y-2452119D01*
X9826875Y-2449596D01*
X9912713Y-2403183D01*
X9941663Y-2383656D01*
X9970839Y-2364563D01*
X9975005Y-2361166D01*
X10050194Y-2298964D01*
X10074801Y-2274185D01*
X10099710Y-2249792D01*
X10103137Y-2245651D01*
X10164813Y-2170030D01*
X10184129Y-2140957D01*
X10203840Y-2112169D01*
X10206397Y-2107441D01*
X10252209Y-2021280D01*
X10265524Y-1988976D01*
X10279251Y-1956948D01*
X10280841Y-1951814D01*
X10309046Y-1858396D01*
X10315838Y-1824093D01*
X10323078Y-1790030D01*
X10323641Y-1784685D01*
X10333163Y-1687568D01*
X10333163Y-1687559D01*
X10335000Y-1668906D01*
X10335000Y1215000D01*
X10850000Y1215000D01*
X10850000Y-5350000D01*
G04 #@! TA.AperFunction,Conductor*
D23*
G36*
X10850000Y-5350000D02*
G01*
X9326884Y-5350000D01*
X9450569Y-5226315D01*
X9626763Y-4962621D01*
X9748129Y-4669620D01*
X9810000Y-4358571D01*
X9810000Y-4041429D01*
X9748129Y-3730380D01*
X9626763Y-3437379D01*
X9450569Y-3173685D01*
X9226315Y-2949431D01*
X8962621Y-2773237D01*
X8669620Y-2651871D01*
X8358571Y-2590000D01*
X8041429Y-2590000D01*
X7730380Y-2651871D01*
X7437379Y-2773237D01*
X7173685Y-2949431D01*
X6949431Y-3173685D01*
X6773237Y-3437379D01*
X6651871Y-3730380D01*
X6590000Y-4041429D01*
X6590000Y-4358571D01*
X6651871Y-4669620D01*
X6773237Y-4962621D01*
X6949431Y-5226315D01*
X7073116Y-5350000D01*
X5150000Y-5350000D01*
X5150000Y-3315593D01*
X5219335Y-3258234D01*
X5243964Y-3233433D01*
X5268854Y-3209058D01*
X5272276Y-3204923D01*
X5272281Y-3204918D01*
X5272285Y-3204913D01*
X5580657Y-2826810D01*
X5599975Y-2797734D01*
X5619681Y-2768954D01*
X5622238Y-2764226D01*
X5851300Y-2333422D01*
X5864605Y-2301143D01*
X5878343Y-2269088D01*
X5879933Y-2263953D01*
X6020956Y-1796864D01*
X6027741Y-1762598D01*
X6034988Y-1728501D01*
X6035551Y-1723155D01*
X6065001Y-1422801D01*
X6065001Y-1668906D01*
X6066618Y-1685328D01*
X6066597Y-1688384D01*
X6067121Y-1693734D01*
X6077321Y-1790782D01*
X6084346Y-1825009D01*
X6090877Y-1859240D01*
X6092427Y-1864376D01*
X6092429Y-1864386D01*
X6092433Y-1864395D01*
X6121286Y-1957605D01*
X6134815Y-1989790D01*
X6147881Y-2022129D01*
X6150404Y-2026875D01*
X6196817Y-2112713D01*
X6216344Y-2141663D01*
X6235437Y-2170839D01*
X6238834Y-2175005D01*
X6301036Y-2250194D01*
X6325815Y-2274801D01*
X6350208Y-2299710D01*
X6354349Y-2303137D01*
X6429970Y-2364813D01*
X6459043Y-2384129D01*
X6487831Y-2403840D01*
X6492559Y-2406397D01*
X6578720Y-2452209D01*
X6611024Y-2465524D01*
X6643052Y-2479251D01*
X6648186Y-2480841D01*
X6741604Y-2509046D01*
X6775907Y-2515838D01*
X6809970Y-2523078D01*
X6815309Y-2523640D01*
X6815312Y-2523641D01*
X6815315Y-2523641D01*
X6912432Y-2533163D01*
X6912441Y-2533163D01*
X6931094Y-2535000D01*
X9468906Y-2535000D01*
X9485337Y-2533382D01*
X9488384Y-2533403D01*
X9493734Y-2532879D01*
X9590782Y-2522679D01*
X9625009Y-2515654D01*
X9659240Y-2509123D01*
X9664376Y-2507573D01*
X9664386Y-2507571D01*
X9664395Y-2507567D01*
X9757605Y-2478714D01*
X9789790Y-2465185D01*
X9822129Y-2452119D01*
X9826875Y-2449596D01*
X9912713Y-2403183D01*
X9941663Y-2383656D01*
X9970839Y-2364563D01*
X9975005Y-2361166D01*
X10050194Y-2298964D01*
X10074801Y-2274185D01*
X10099710Y-2249792D01*
X10103137Y-2245651D01*
X10164813Y-2170030D01*
X10184129Y-2140957D01*
X10203840Y-2112169D01*
X10206397Y-2107441D01*
X10252209Y-2021280D01*
X10265524Y-1988976D01*
X10279251Y-1956948D01*
X10280841Y-1951814D01*
X10309046Y-1858396D01*
X10315838Y-1824093D01*
X10323078Y-1790030D01*
X10323641Y-1784685D01*
X10333163Y-1687568D01*
X10333163Y-1687559D01*
X10335000Y-1668906D01*
X10335000Y1215000D01*
X10850000Y1215000D01*
X10850000Y-5350000D01*
G37*
G04 #@! TD.AperFunction*
G04 #@! TD*
D19*
G04 #@! TO.N,GNDA*
X17665001Y-1668906D02*
X17666618Y-1685328D01*
X17666597Y-1688384D01*
X17667121Y-1693734D01*
X17677321Y-1790782D01*
X17684346Y-1825009D01*
X17690877Y-1859240D01*
X17692427Y-1864376D01*
X17692429Y-1864386D01*
X17692433Y-1864395D01*
X17721286Y-1957605D01*
X17734815Y-1989790D01*
X17747881Y-2022129D01*
X17750404Y-2026875D01*
X17796817Y-2112713D01*
X17816344Y-2141663D01*
X17835437Y-2170839D01*
X17838834Y-2175005D01*
X17901036Y-2250194D01*
X17925815Y-2274801D01*
X17950208Y-2299710D01*
X17954349Y-2303137D01*
X18029970Y-2364813D01*
X18059043Y-2384129D01*
X18087831Y-2403840D01*
X18092559Y-2406397D01*
X18178720Y-2452209D01*
X18211024Y-2465524D01*
X18243052Y-2479251D01*
X18248186Y-2480841D01*
X18341604Y-2509046D01*
X18375907Y-2515838D01*
X18409970Y-2523078D01*
X18415309Y-2523640D01*
X18415312Y-2523641D01*
X18415315Y-2523641D01*
X18512432Y-2533163D01*
X18512441Y-2533163D01*
X18531094Y-2535000D01*
X21068906Y-2535000D01*
X21085337Y-2533382D01*
X21088384Y-2533403D01*
X21093734Y-2532879D01*
X21190782Y-2522679D01*
X21225009Y-2515654D01*
X21259240Y-2509123D01*
X21264376Y-2507573D01*
X21264386Y-2507571D01*
X21264395Y-2507567D01*
X21357605Y-2478714D01*
X21389790Y-2465185D01*
X21422129Y-2452119D01*
X21426875Y-2449596D01*
X21512713Y-2403183D01*
X21541663Y-2383656D01*
X21570839Y-2364563D01*
X21575005Y-2361166D01*
X21650194Y-2298964D01*
X21674801Y-2274185D01*
X21699710Y-2249792D01*
X21703137Y-2245651D01*
X21764813Y-2170030D01*
X21784129Y-2140957D01*
X21803840Y-2112169D01*
X21806397Y-2107441D01*
X21852209Y-2021280D01*
X21865524Y-1988976D01*
X21879251Y-1956948D01*
X21880841Y-1951814D01*
X21909046Y-1858396D01*
X21915838Y-1824093D01*
X21923078Y-1790030D01*
X21923641Y-1784685D01*
X21933163Y-1687568D01*
X21933163Y-1687559D01*
X21935000Y-1668906D01*
X21935000Y-1427337D01*
X21968171Y-1742939D01*
X21975192Y-1777140D01*
X21981727Y-1811397D01*
X21983280Y-1816542D01*
X22127560Y-2282636D01*
X22141079Y-2314798D01*
X22154154Y-2347158D01*
X22156677Y-2351904D01*
X22388741Y-2781097D01*
X22408257Y-2810030D01*
X22427361Y-2839224D01*
X22430758Y-2843390D01*
X22741766Y-3219335D01*
X22766567Y-3243964D01*
X22790942Y-3268854D01*
X22795077Y-3272276D01*
X22795082Y-3272281D01*
X22795084Y-3272282D01*
X22850000Y-3317070D01*
X22850000Y-5350000D01*
X20926884Y-5350000D01*
X21050569Y-5226315D01*
X21226763Y-4962621D01*
X21348129Y-4669620D01*
X21410000Y-4358571D01*
X21410000Y-4041429D01*
X21348129Y-3730380D01*
X21226763Y-3437379D01*
X21050569Y-3173685D01*
X20826315Y-2949431D01*
X20562621Y-2773237D01*
X20269620Y-2651871D01*
X19958571Y-2590000D01*
X19641429Y-2590000D01*
X19330380Y-2651871D01*
X19037379Y-2773237D01*
X18773685Y-2949431D01*
X18549431Y-3173685D01*
X18373237Y-3437379D01*
X18251871Y-3730380D01*
X18190000Y-4041429D01*
X18190000Y-4358571D01*
X18251871Y-4669620D01*
X18373237Y-4962621D01*
X18549431Y-5226315D01*
X18673116Y-5350000D01*
X17150000Y-5350000D01*
X17150000Y1215000D01*
X17665000Y1215000D01*
X17665001Y-1668906D01*
G04 #@! TA.AperFunction,Conductor*
D23*
G36*
X17665001Y-1668906D02*
G01*
X17666618Y-1685328D01*
X17666597Y-1688384D01*
X17667121Y-1693734D01*
X17677321Y-1790782D01*
X17684346Y-1825009D01*
X17690877Y-1859240D01*
X17692427Y-1864376D01*
X17692429Y-1864386D01*
X17692433Y-1864395D01*
X17721286Y-1957605D01*
X17734815Y-1989790D01*
X17747881Y-2022129D01*
X17750404Y-2026875D01*
X17796817Y-2112713D01*
X17816344Y-2141663D01*
X17835437Y-2170839D01*
X17838834Y-2175005D01*
X17901036Y-2250194D01*
X17925815Y-2274801D01*
X17950208Y-2299710D01*
X17954349Y-2303137D01*
X18029970Y-2364813D01*
X18059043Y-2384129D01*
X18087831Y-2403840D01*
X18092559Y-2406397D01*
X18178720Y-2452209D01*
X18211024Y-2465524D01*
X18243052Y-2479251D01*
X18248186Y-2480841D01*
X18341604Y-2509046D01*
X18375907Y-2515838D01*
X18409970Y-2523078D01*
X18415309Y-2523640D01*
X18415312Y-2523641D01*
X18415315Y-2523641D01*
X18512432Y-2533163D01*
X18512441Y-2533163D01*
X18531094Y-2535000D01*
X21068906Y-2535000D01*
X21085337Y-2533382D01*
X21088384Y-2533403D01*
X21093734Y-2532879D01*
X21190782Y-2522679D01*
X21225009Y-2515654D01*
X21259240Y-2509123D01*
X21264376Y-2507573D01*
X21264386Y-2507571D01*
X21264395Y-2507567D01*
X21357605Y-2478714D01*
X21389790Y-2465185D01*
X21422129Y-2452119D01*
X21426875Y-2449596D01*
X21512713Y-2403183D01*
X21541663Y-2383656D01*
X21570839Y-2364563D01*
X21575005Y-2361166D01*
X21650194Y-2298964D01*
X21674801Y-2274185D01*
X21699710Y-2249792D01*
X21703137Y-2245651D01*
X21764813Y-2170030D01*
X21784129Y-2140957D01*
X21803840Y-2112169D01*
X21806397Y-2107441D01*
X21852209Y-2021280D01*
X21865524Y-1988976D01*
X21879251Y-1956948D01*
X21880841Y-1951814D01*
X21909046Y-1858396D01*
X21915838Y-1824093D01*
X21923078Y-1790030D01*
X21923641Y-1784685D01*
X21933163Y-1687568D01*
X21933163Y-1687559D01*
X21935000Y-1668906D01*
X21935000Y-1427337D01*
X21968171Y-1742939D01*
X21975192Y-1777140D01*
X21981727Y-1811397D01*
X21983280Y-1816542D01*
X22127560Y-2282636D01*
X22141079Y-2314798D01*
X22154154Y-2347158D01*
X22156677Y-2351904D01*
X22388741Y-2781097D01*
X22408257Y-2810030D01*
X22427361Y-2839224D01*
X22430758Y-2843390D01*
X22741766Y-3219335D01*
X22766567Y-3243964D01*
X22790942Y-3268854D01*
X22795077Y-3272276D01*
X22795082Y-3272281D01*
X22795084Y-3272282D01*
X22850000Y-3317070D01*
X22850000Y-5350000D01*
X20926884Y-5350000D01*
X21050569Y-5226315D01*
X21226763Y-4962621D01*
X21348129Y-4669620D01*
X21410000Y-4358571D01*
X21410000Y-4041429D01*
X21348129Y-3730380D01*
X21226763Y-3437379D01*
X21050569Y-3173685D01*
X20826315Y-2949431D01*
X20562621Y-2773237D01*
X20269620Y-2651871D01*
X19958571Y-2590000D01*
X19641429Y-2590000D01*
X19330380Y-2651871D01*
X19037379Y-2773237D01*
X18773685Y-2949431D01*
X18549431Y-3173685D01*
X18373237Y-3437379D01*
X18251871Y-3730380D01*
X18190000Y-4041429D01*
X18190000Y-4358571D01*
X18251871Y-4669620D01*
X18373237Y-4962621D01*
X18549431Y-5226315D01*
X18673116Y-5350000D01*
X17150000Y-5350000D01*
X17150000Y1215000D01*
X17665000Y1215000D01*
X17665001Y-1668906D01*
G37*
G04 #@! TD.AperFunction*
G04 #@! TD*
D24*
X9100000Y-30700000D03*
X9800000Y-31400000D03*
X8356250Y-29243750D03*
X6800000Y-32900000D03*
X8000000Y-23400000D03*
X9000000Y-21200000D03*
X11400000Y-23591048D03*
X5900000Y-29200000D03*
X5100000Y-29200000D03*
X5900000Y-29800000D03*
X5100000Y-29800000D03*
X5100000Y-30400000D03*
X5900000Y-30400000D03*
X5900000Y-28600000D03*
X5100000Y-28600000D03*
X5100000Y-28000000D03*
X5900000Y-28000000D03*
X2169305Y-35459689D03*
X6800000Y-24800000D03*
X9800000Y-30700000D03*
X2350000Y-23350000D03*
X11400000Y-22950000D03*
X2850027Y-19550027D03*
X13749990Y-22945864D03*
X10249967Y-19550027D03*
X7950027Y-19550027D03*
X12200000Y-21000004D03*
X6700000Y-34600000D03*
X6100000Y-21600013D03*
X10018750Y-24831250D03*
X6100000Y-20800000D03*
X5189209Y-34610791D03*
X12650000Y-24950000D03*
X12790380Y-10809620D03*
X15009620Y-10809620D03*
X19000000Y-27700000D03*
X15700000Y-27700000D03*
X11093750Y-28906250D03*
X22900000Y-27600000D03*
X21800000Y-26400000D03*
X11503370Y-16203370D03*
X17199986Y-13500000D03*
X17800000Y-13500000D03*
X18400004Y-13500000D03*
X19000000Y-13500006D03*
X17500000Y-14000000D03*
X18100000Y-14000000D03*
X18700000Y-14000000D03*
X9000000Y-13500000D03*
X9600000Y-13500000D03*
X10200000Y-13500000D03*
X10800000Y-13500000D03*
X9300000Y-14000000D03*
X9900000Y-14000000D03*
X10500000Y-14000000D03*
X8712500Y-14012500D03*
X11100000Y-14000000D03*
X16900000Y-14000000D03*
X19300000Y-14000000D03*
X9000000Y-10500000D03*
X9600000Y-10500000D03*
X10200000Y-10500000D03*
X10800000Y-10500000D03*
X17200000Y-10500000D03*
X17800000Y-10500000D03*
X18400000Y-10500000D03*
X19000000Y-10500000D03*
X20800000Y-23200000D03*
X20800000Y-23800000D03*
X20800000Y-24400000D03*
X20800000Y-25000000D03*
X17800000Y-23200000D03*
X17800000Y-23800000D03*
X17800000Y-24400000D03*
X17800000Y-25000000D03*
X17300000Y-23500000D03*
X17300000Y-22900000D03*
X17300000Y-24100000D03*
X17300000Y-24700000D03*
X17300000Y-25300000D03*
X16800000Y-23200000D03*
X16800000Y-22600000D03*
X16800000Y-23800000D03*
X16800000Y-24400000D03*
X16800000Y-25000000D03*
X16800000Y-25600000D03*
X23500000Y-31000000D03*
X16300000Y-22900000D03*
X16300004Y-22300000D03*
X16300000Y-23500000D03*
X16300000Y-24100000D03*
X16300000Y-24700000D03*
X16300000Y-25300000D03*
X16300000Y-25900000D03*
X14088897Y-27149573D03*
X7675000Y-31115908D03*
X7800000Y-28300000D03*
X3487095Y-31027421D03*
X10000002Y-35700000D03*
X10000000Y-36299984D03*
X7800000Y-27700000D03*
X19800000Y-3850000D03*
X8200000Y-3850000D03*
X24200000Y-24600000D03*
X9600000Y-15600000D03*
X22900000Y-8850012D03*
X14800000Y-13600000D03*
X12999987Y-13578597D03*
X16700000Y-20500000D03*
X5900000Y-16200000D03*
X22100000Y-16200000D03*
X22100000Y-17700000D03*
X12500000Y-19100000D03*
X6080000Y-2415000D03*
X10320000Y-2415000D03*
X17808782Y-2536827D03*
X21920000Y-2415000D03*
X6174990Y-4874990D03*
X17700000Y-4900000D03*
X21825010Y-4825010D03*
X15500000Y-19100000D03*
X10300000Y-4900000D03*
X15000000Y-8700000D03*
X12800000Y-8700000D03*
X17524882Y1000000D03*
X17524966Y-750000D03*
X10475030Y1000000D03*
X10475020Y-700000D03*
X24000000Y-33800000D03*
X5900000Y-17700000D03*
X2900000Y-18100000D03*
X10200000Y-18100000D03*
X23600000Y-24600000D03*
X13749990Y-20600000D03*
X15270711Y-26210049D03*
X8000000Y-18100000D03*
X15270711Y-22929289D03*
X14900000Y-28450006D03*
D25*
X13400000Y-33100000D03*
X13400000Y-32300000D03*
X13400000Y-31500000D03*
X14600000Y-31500000D03*
X14600000Y-32300000D03*
X15700000Y-34700000D03*
X15700000Y-35500000D03*
X15700000Y-36300000D03*
X12300000Y-34700000D03*
X12300000Y-35500000D03*
X12300000Y-36300000D03*
X14000000Y-29400000D03*
X14600000Y-33100000D03*
D24*
X25099794Y-10392150D03*
X24500617Y-10423551D03*
X25131196Y-10991327D03*
X25349794Y-15392150D03*
X24750617Y-15423551D03*
X25381196Y-15991327D03*
X2618804Y-15991327D03*
X3249383Y-15423551D03*
X2650206Y-15392150D03*
X2868804Y-10991327D03*
X3499383Y-10423551D03*
X2900206Y-10392150D03*
D25*
X19000000Y-34700000D03*
D24*
X18550000Y-24600000D03*
X18550000Y-23600000D03*
X20050000Y-24600000D03*
X20050000Y-23600000D03*
X19300000Y-24100000D03*
X10400000Y-12750000D03*
X9400000Y-12750000D03*
X10400000Y-11250000D03*
X9400000Y-11250000D03*
X9900000Y-12000000D03*
X17600000Y-11250000D03*
X18600000Y-11250000D03*
X17600000Y-12750000D03*
X18600000Y-12750000D03*
X18100000Y-12000000D03*
M02*
