G04 #@! TF.GenerationSoftware,KiCad,Pcbnew,5.1.9-73d0e3b20d~88~ubuntu20.04.1*
G04 #@! TF.CreationDate,2021-06-04T11:55:54+03:00*
G04 #@! TF.ProjectId,differential-tweezer,64696666-6572-4656-9e74-69616c2d7477,rev?*
G04 #@! TF.SameCoordinates,Original*
G04 #@! TF.FileFunction,Copper,L2,Inr*
G04 #@! TF.FilePolarity,Positive*
%FSLAX46Y46*%
G04 Gerber Fmt 4.6, Leading zero omitted, Abs format (unit mm)*
G04 Created by KiCad (PCBNEW 5.1.9-73d0e3b20d~88~ubuntu20.04.1) date 2021-06-04 11:55:54*
%MOMM*%
%LPD*%
G01*
G04 APERTURE LIST*
G04 #@! TA.AperFunction,ComponentPad*
%ADD10C,2.800000*%
G04 #@! TD*
G04 #@! TA.AperFunction,ComponentPad*
%ADD11C,2.000000*%
G04 #@! TD*
G04 #@! TA.AperFunction,ComponentPad*
%ADD12C,0.600000*%
G04 #@! TD*
G04 #@! TA.AperFunction,ComponentPad*
%ADD13C,4.200000*%
G04 #@! TD*
G04 #@! TA.AperFunction,ViaPad*
%ADD14C,0.600000*%
G04 #@! TD*
G04 #@! TA.AperFunction,Conductor*
%ADD15C,0.400000*%
G04 #@! TD*
G04 #@! TA.AperFunction,Conductor*
%ADD16C,0.200000*%
G04 #@! TD*
G04 #@! TA.AperFunction,Conductor*
%ADD17C,0.350000*%
G04 #@! TD*
%ADD18C,0.300000*%
%ADD19C,0.350000*%
G04 APERTURE END LIST*
D10*
G04 #@! TO.N,GNDA*
G04 #@! TO.C,J8*
X7500000Y-1700000D03*
X7500000Y-6100000D03*
X11900000Y-6100000D03*
X11900000Y-1700000D03*
D11*
G04 #@! TO.N,/CONN_IN-*
X9700000Y-3900000D03*
G04 #@! TD*
D12*
G04 #@! TO.N,+5V*
G04 #@! TO.C,J2*
X15600000Y-31300000D03*
X15600000Y-33400000D03*
X15600000Y-35500000D03*
X12400000Y-31300000D03*
X12400000Y-33400000D03*
X12400000Y-35500000D03*
G04 #@! TD*
G04 #@! TO.N,GNDA*
G04 #@! TO.C,J4*
X25099794Y-10392150D03*
X24500617Y-10423551D03*
X25131196Y-10991327D03*
G04 #@! TD*
G04 #@! TO.N,/IN+*
G04 #@! TO.C,J3*
X25249794Y-13192150D03*
X24650617Y-13223551D03*
X25281196Y-13791327D03*
G04 #@! TD*
G04 #@! TO.N,/IN-*
G04 #@! TO.C,J6*
X2718804Y-13791327D03*
X3349383Y-13223551D03*
X2750206Y-13192150D03*
G04 #@! TD*
G04 #@! TO.N,GNDA*
G04 #@! TO.C,J5*
X2868804Y-10991327D03*
X3499383Y-10423551D03*
X2900206Y-10392150D03*
G04 #@! TD*
D11*
G04 #@! TO.N,/OUT*
G04 #@! TO.C,J1*
X14000000Y-21700000D03*
D12*
G04 #@! TO.N,GNDA*
X15100000Y-28400000D03*
X12900000Y-28400000D03*
X12900000Y-24200000D03*
X12900000Y-26300000D03*
X15100000Y-26300000D03*
X15100000Y-24200000D03*
G04 #@! TD*
D10*
G04 #@! TO.N,GNDA*
G04 #@! TO.C,J7*
X16100000Y-1700000D03*
X16100000Y-6100000D03*
X20500000Y-6100000D03*
X20500000Y-1700000D03*
D11*
G04 #@! TO.N,/CONN_IN+*
X18300000Y-3900000D03*
G04 #@! TD*
D13*
G04 #@! TO.N,GNDA*
G04 #@! TO.C,H1*
X19400000Y-34700000D03*
G04 #@! TD*
D12*
G04 #@! TO.N,-6V*
G04 #@! TO.C,U4*
X20800000Y-29350000D03*
X20800000Y-28350000D03*
X22300000Y-29350000D03*
X22300000Y-28350000D03*
X21550000Y-28850000D03*
G04 #@! TD*
G04 #@! TO.N,-6V*
G04 #@! TO.C,U3*
X11400000Y-11300000D03*
X10400000Y-11300000D03*
X11400000Y-9800000D03*
X10400000Y-9800000D03*
X10900000Y-10550000D03*
G04 #@! TD*
G04 #@! TO.N,-6V*
G04 #@! TO.C,U2*
X16600000Y-9850000D03*
X17600000Y-9850000D03*
X16600000Y-11350000D03*
X17600000Y-11350000D03*
X17100000Y-10600000D03*
G04 #@! TD*
D14*
G04 #@! TO.N,GND*
X5900000Y-23000010D03*
X8300000Y-23000000D03*
X5800000Y-25699942D03*
X6799999Y-32300001D03*
X8399998Y-25700002D03*
X6700000Y-35800000D03*
X10699998Y-32700000D03*
X6500000Y-33900000D03*
X4100000Y-29800000D03*
X5700000Y-28500000D03*
X6300000Y-28500000D03*
X6900000Y-28500000D03*
X7500000Y-28500000D03*
X8100000Y-28500000D03*
X8100000Y-29300000D03*
X7500000Y-29300000D03*
X6900000Y-29300000D03*
X6300000Y-29300000D03*
X5700000Y-29300000D03*
X6500000Y-32800000D03*
G04 #@! TO.N,Net-(C4-Pad1)*
X8843750Y-24956250D03*
X4709169Y-34729766D03*
G04 #@! TO.N,+6V*
X11300000Y-21400000D03*
X22198192Y-31251808D03*
X22400000Y-33600000D03*
X24000000Y-21650000D03*
X12500466Y-12525005D03*
G04 #@! TO.N,-6V*
X22600000Y-21500000D03*
X5299992Y-21000000D03*
X10400000Y-12250000D03*
X9800000Y-12250000D03*
X9200000Y-12250000D03*
X9200000Y-12850000D03*
X9800000Y-12850000D03*
X10400000Y-12850000D03*
X11000000Y-12850000D03*
X11000000Y-12250000D03*
X17600000Y-12250000D03*
X18200000Y-12250000D03*
X18800000Y-12275002D03*
X18800000Y-12850000D03*
X18200000Y-12850000D03*
X17600000Y-12850000D03*
X17000000Y-12850000D03*
X16400000Y-12850000D03*
X16400000Y-12250000D03*
X17000000Y-12250000D03*
X11600000Y-12850000D03*
X11600000Y-12250000D03*
X9200000Y-13450000D03*
X9800000Y-13450000D03*
X10400000Y-13450000D03*
X11000000Y-13450000D03*
X11600000Y-13450000D03*
X16400000Y-13450000D03*
X17000000Y-13450000D03*
X17600000Y-13450000D03*
X18200000Y-13450000D03*
X18800000Y-13450000D03*
X20050000Y-28350000D03*
X20050000Y-28950000D03*
X20050000Y-29550000D03*
X19450000Y-29550000D03*
X18850000Y-29550000D03*
X19750000Y-27450000D03*
X19150000Y-27450000D03*
X18550000Y-27450000D03*
X18550000Y-26850000D03*
X19150000Y-26850000D03*
X19750000Y-26850000D03*
X23100000Y-28350000D03*
X23100000Y-28950000D03*
X23225000Y-29575000D03*
X16950000Y-30250000D03*
G04 #@! TO.N,Net-(C26-Pad1)*
X5000000Y-26949989D03*
X8400000Y-31200000D03*
X5075022Y-30917992D03*
G04 #@! TO.N,/CONN_IN+*
X21850032Y-3900000D03*
G04 #@! TO.N,/CONN_IN-*
X6149952Y-3900000D03*
G04 #@! TO.N,Net-(C1-Pad2)*
X15109998Y-8930000D03*
X21350000Y-24150000D03*
G04 #@! TO.N,GNDA*
X22600000Y-6300000D03*
X5400000Y-6400000D03*
X5100000Y-18500000D03*
X22900000Y-18500000D03*
X18600010Y-24469549D03*
X8200000Y-8100000D03*
X19150000Y-8150000D03*
X25637500Y-31012500D03*
X25650000Y-32500000D03*
X17300000Y-26450000D03*
X13900487Y-11250000D03*
X22300000Y-35899998D03*
X24800000Y-22600000D03*
X14000002Y-7700002D03*
G04 #@! TO.N,Net-(C11-Pad1)*
X13075461Y-10898645D03*
X7800000Y-8999992D03*
X24987500Y-25800000D03*
G04 #@! TD*
D15*
G04 #@! TO.N,Net-(C4-Pad1)*
X7870234Y-34729766D02*
X4709169Y-34729766D01*
X8843750Y-24956250D02*
X9143749Y-25256249D01*
X9143749Y-25256249D02*
X9143749Y-33456251D01*
X9143749Y-33456251D02*
X7870234Y-34729766D01*
G04 #@! TO.N,+6V*
X10923779Y-21776221D02*
X11300000Y-21400000D01*
X21846384Y-30900000D02*
X22198192Y-31251808D01*
X17312500Y-29400000D02*
X18812500Y-30900000D01*
X12500000Y-29400000D02*
X17312500Y-29400000D01*
X10923779Y-27823779D02*
X12500000Y-29400000D01*
X10923779Y-21776221D02*
X10923779Y-27823779D01*
X21846384Y-33046384D02*
X22400000Y-33600000D01*
X21846384Y-31196384D02*
X21550000Y-30900000D01*
X21550000Y-30900000D02*
X21846384Y-30900000D01*
X21846384Y-30900000D02*
X21846384Y-31203616D01*
X21846384Y-31203616D02*
X21846384Y-31196384D01*
X18812500Y-30900000D02*
X21550000Y-30900000D01*
X21846384Y-31203616D02*
X21846384Y-33046384D01*
X10923779Y-21776221D02*
X10923779Y-21376221D01*
X12500466Y-13849534D02*
X12500466Y-12525005D01*
X12100000Y-14250000D02*
X12500466Y-13849534D01*
X12100000Y-14250000D02*
X12100000Y-20200000D01*
X12100000Y-20200000D02*
X12000000Y-20300000D01*
X10923779Y-21376221D02*
X12000000Y-20300000D01*
X12100000Y-20600000D02*
X11300000Y-21400000D01*
X12100000Y-20200000D02*
X12100000Y-20600000D01*
X24000000Y-22836002D02*
X24000000Y-21650000D01*
X25800000Y-24636002D02*
X24000000Y-22836002D01*
X25800000Y-29350000D02*
X25800000Y-24636002D01*
X24250000Y-30900000D02*
X25800000Y-29350000D01*
X21846384Y-30900000D02*
X24250000Y-30900000D01*
G04 #@! TO.N,-6V*
X11400000Y-13500000D02*
X11600000Y-13300000D01*
X11400000Y-19800000D02*
X11400000Y-13500000D01*
X10200000Y-21000000D02*
X11400000Y-19800000D01*
X9900000Y-21000000D02*
X10200000Y-21000000D01*
X9900000Y-21000000D02*
X5299992Y-21000000D01*
X12200000Y-30250000D02*
X16950000Y-30250000D01*
X10200000Y-28250000D02*
X12200000Y-30250000D01*
X10200000Y-21100000D02*
X10200000Y-28250000D01*
X10100000Y-21000000D02*
X10200000Y-21100000D01*
X9900000Y-21000000D02*
X10100000Y-21000000D01*
G04 #@! TO.N,Net-(C26-Pad1)*
X5000000Y-26949989D02*
X5000000Y-30842970D01*
X5000000Y-30842970D02*
X5075022Y-30917992D01*
X5357030Y-31200000D02*
X5075022Y-30917992D01*
X8400000Y-31200000D02*
X5357030Y-31200000D01*
G04 #@! TO.N,/CONN_IN+*
X18300000Y-3900000D02*
X21850032Y-3900000D01*
G04 #@! TO.N,/CONN_IN-*
X9700000Y-3900000D02*
X6149952Y-3900000D01*
G04 #@! TO.N,Net-(C1-Pad2)*
X15700000Y-14400000D02*
X21350000Y-24150000D01*
X15100000Y-12850000D02*
X15700000Y-14400000D01*
X15109998Y-8930000D02*
X15100000Y-12850000D01*
G04 #@! TO.N,Net-(C11-Pad1)*
X7999992Y-8800000D02*
X7800000Y-8999992D01*
X12150000Y-8800000D02*
X7999992Y-8800000D01*
X13075461Y-9725461D02*
X12150000Y-8800000D01*
X13075461Y-10898645D02*
X13075461Y-9725461D01*
X13100000Y-11700000D02*
X13075461Y-10898645D01*
X13200000Y-12150000D02*
X13100000Y-11700000D01*
X21100000Y-25200000D02*
X20450000Y-24650000D01*
X21800000Y-25500000D02*
X21100000Y-25200000D01*
X22750000Y-25650000D02*
X21800000Y-25500000D01*
X20450000Y-24650000D02*
X13200000Y-12150000D01*
X24987500Y-25800000D02*
X22750000Y-25650000D01*
G04 #@! TD*
D16*
G04 #@! TO.N,-6V*
X11900000Y-13700000D02*
X9000000Y-13700000D01*
X9000000Y-11900000D01*
X9900000Y-11900000D01*
X9919509Y-11898079D01*
X9938268Y-11892388D01*
X9955557Y-11883147D01*
X9970711Y-11870711D01*
X9983147Y-11855557D01*
X9992388Y-11838268D01*
X9998079Y-11819509D01*
X10000000Y-11800000D01*
X10000000Y-9300000D01*
X11900000Y-9300000D01*
X11900000Y-13700000D01*
G04 #@! TA.AperFunction,Conductor*
D17*
G36*
X11900000Y-13700000D02*
G01*
X9000000Y-13700000D01*
X9000000Y-11900000D01*
X9900000Y-11900000D01*
X9919509Y-11898079D01*
X9938268Y-11892388D01*
X9955557Y-11883147D01*
X9970711Y-11870711D01*
X9983147Y-11855557D01*
X9992388Y-11838268D01*
X9998079Y-11819509D01*
X10000000Y-11800000D01*
X10000000Y-9300000D01*
X11900000Y-9300000D01*
X11900000Y-13700000D01*
G37*
G04 #@! TD.AperFunction*
G04 #@! TD*
D16*
G04 #@! TO.N,-6V*
X18000000Y-11900000D02*
X18001921Y-11919509D01*
X18007612Y-11938268D01*
X18016853Y-11955557D01*
X18029289Y-11970711D01*
X18044443Y-11983147D01*
X18061732Y-11992388D01*
X18080491Y-11998079D01*
X18100000Y-12000000D01*
X19000000Y-12000000D01*
X19000000Y-13700000D01*
X16200000Y-13700000D01*
X16200000Y-9300000D01*
X18000000Y-9300000D01*
X18000000Y-11900000D01*
G04 #@! TA.AperFunction,Conductor*
D17*
G36*
X18000000Y-11900000D02*
G01*
X18001921Y-11919509D01*
X18007612Y-11938268D01*
X18016853Y-11955557D01*
X18029289Y-11970711D01*
X18044443Y-11983147D01*
X18061732Y-11992388D01*
X18080491Y-11998079D01*
X18100000Y-12000000D01*
X19000000Y-12000000D01*
X19000000Y-13700000D01*
X16200000Y-13700000D01*
X16200000Y-9300000D01*
X18000000Y-9300000D01*
X18000000Y-11900000D01*
G37*
G04 #@! TD.AperFunction*
G04 #@! TD*
D16*
G04 #@! TO.N,-6V*
X16600000Y-26518944D02*
X16626901Y-26654182D01*
X16679668Y-26781574D01*
X16756274Y-26896224D01*
X16853776Y-26993726D01*
X16968426Y-27070332D01*
X17095818Y-27123099D01*
X17231056Y-27150000D01*
X17368944Y-27150000D01*
X17504182Y-27123099D01*
X17631574Y-27070332D01*
X17746224Y-26993726D01*
X17843726Y-26896224D01*
X17920332Y-26781574D01*
X17973099Y-26654182D01*
X18000000Y-26518944D01*
X18000000Y-26500000D01*
X20550000Y-26500000D01*
X20550000Y-27850000D01*
X20551921Y-27869509D01*
X20557612Y-27888268D01*
X20566853Y-27905557D01*
X20579289Y-27920711D01*
X20594443Y-27933147D01*
X20611732Y-27942388D01*
X20630491Y-27948079D01*
X20650000Y-27950000D01*
X25200000Y-27950000D01*
X25200000Y-29101472D01*
X24001473Y-30300000D01*
X21875858Y-30300000D01*
X21846384Y-30297097D01*
X21816910Y-30300000D01*
X21579474Y-30300000D01*
X21550000Y-30297097D01*
X21520526Y-30300000D01*
X19061029Y-30300000D01*
X17757613Y-28996586D01*
X17738817Y-28973683D01*
X17647455Y-28898704D01*
X17543221Y-28842990D01*
X17430121Y-28808682D01*
X17341974Y-28800000D01*
X17312500Y-28797097D01*
X17283026Y-28800000D01*
X16000000Y-28800000D01*
X16000000Y-26500000D01*
X16600000Y-26500000D01*
X16600000Y-26518944D01*
G04 #@! TA.AperFunction,Conductor*
D17*
G36*
X16600000Y-26518944D02*
G01*
X16626901Y-26654182D01*
X16679668Y-26781574D01*
X16756274Y-26896224D01*
X16853776Y-26993726D01*
X16968426Y-27070332D01*
X17095818Y-27123099D01*
X17231056Y-27150000D01*
X17368944Y-27150000D01*
X17504182Y-27123099D01*
X17631574Y-27070332D01*
X17746224Y-26993726D01*
X17843726Y-26896224D01*
X17920332Y-26781574D01*
X17973099Y-26654182D01*
X18000000Y-26518944D01*
X18000000Y-26500000D01*
X20550000Y-26500000D01*
X20550000Y-27850000D01*
X20551921Y-27869509D01*
X20557612Y-27888268D01*
X20566853Y-27905557D01*
X20579289Y-27920711D01*
X20594443Y-27933147D01*
X20611732Y-27942388D01*
X20630491Y-27948079D01*
X20650000Y-27950000D01*
X25200000Y-27950000D01*
X25200000Y-29101472D01*
X24001473Y-30300000D01*
X21875858Y-30300000D01*
X21846384Y-30297097D01*
X21816910Y-30300000D01*
X21579474Y-30300000D01*
X21550000Y-30297097D01*
X21520526Y-30300000D01*
X19061029Y-30300000D01*
X17757613Y-28996586D01*
X17738817Y-28973683D01*
X17647455Y-28898704D01*
X17543221Y-28842990D01*
X17430121Y-28808682D01*
X17341974Y-28800000D01*
X17312500Y-28797097D01*
X17283026Y-28800000D01*
X16000000Y-28800000D01*
X16000000Y-26500000D01*
X16600000Y-26500000D01*
X16600000Y-26518944D01*
G37*
G04 #@! TD.AperFunction*
G04 #@! TD*
D18*
X5900000Y-23000010D03*
X8300000Y-23000000D03*
X5800000Y-25699942D03*
X6799999Y-32300001D03*
X8399998Y-25700002D03*
X6700000Y-35800000D03*
X10699998Y-32700000D03*
X6500000Y-33900000D03*
X4100000Y-29800000D03*
X5700000Y-28500000D03*
X6300000Y-28500000D03*
X6900000Y-28500000D03*
X7500000Y-28500000D03*
X8100000Y-28500000D03*
X8100000Y-29300000D03*
X7500000Y-29300000D03*
X6900000Y-29300000D03*
X6300000Y-29300000D03*
X5700000Y-29300000D03*
X6500000Y-32800000D03*
X8843750Y-24956250D03*
X4709169Y-34729766D03*
X11300000Y-21400000D03*
X22198192Y-31251808D03*
X22400000Y-33600000D03*
X24000000Y-21650000D03*
X12500466Y-12525005D03*
X22600000Y-21500000D03*
X5299992Y-21000000D03*
X10400000Y-12250000D03*
X9800000Y-12250000D03*
X9200000Y-12250000D03*
X9200000Y-12850000D03*
X9800000Y-12850000D03*
X10400000Y-12850000D03*
X11000000Y-12850000D03*
X11000000Y-12250000D03*
X17600000Y-12250000D03*
X18200000Y-12250000D03*
X18800000Y-12275002D03*
X18800000Y-12850000D03*
X18200000Y-12850000D03*
X17600000Y-12850000D03*
X17000000Y-12850000D03*
X16400000Y-12850000D03*
X16400000Y-12250000D03*
X17000000Y-12250000D03*
X11600000Y-12850000D03*
X11600000Y-12250000D03*
X9200000Y-13450000D03*
X9800000Y-13450000D03*
X10400000Y-13450000D03*
X11000000Y-13450000D03*
X11600000Y-13450000D03*
X16400000Y-13450000D03*
X17000000Y-13450000D03*
X17600000Y-13450000D03*
X18200000Y-13450000D03*
X18800000Y-13450000D03*
X20050000Y-28350000D03*
X20050000Y-28950000D03*
X20050000Y-29550000D03*
X19450000Y-29550000D03*
X18850000Y-29550000D03*
X19750000Y-27450000D03*
X19150000Y-27450000D03*
X18550000Y-27450000D03*
X18550000Y-26850000D03*
X19150000Y-26850000D03*
X19750000Y-26850000D03*
X23100000Y-28350000D03*
X23100000Y-28950000D03*
X23225000Y-29575000D03*
X16950000Y-30250000D03*
X5000000Y-26949989D03*
X8400000Y-31200000D03*
X5075022Y-30917992D03*
X21850032Y-3900000D03*
X6149952Y-3900000D03*
X15109998Y-8930000D03*
X21350000Y-24150000D03*
X22600000Y-6300000D03*
X5400000Y-6400000D03*
X5100000Y-18500000D03*
X22900000Y-18500000D03*
X18600010Y-24469549D03*
X8200000Y-8100000D03*
X19150000Y-8150000D03*
X25637500Y-31012500D03*
X25650000Y-32500000D03*
X17300000Y-26450000D03*
X13900487Y-11250000D03*
X22300000Y-35899998D03*
X24800000Y-22600000D03*
X14000002Y-7700002D03*
X13075461Y-10898645D03*
X7800000Y-8999992D03*
X24987500Y-25800000D03*
D19*
X7500000Y-1700000D03*
X7500000Y-6100000D03*
X11900000Y-6100000D03*
X11900000Y-1700000D03*
X9700000Y-3900000D03*
D18*
X15600000Y-31300000D03*
X15600000Y-33400000D03*
X15600000Y-35500000D03*
X12400000Y-31300000D03*
X12400000Y-33400000D03*
X12400000Y-35500000D03*
X25099794Y-10392150D03*
X24500617Y-10423551D03*
X25131196Y-10991327D03*
X25249794Y-13192150D03*
X24650617Y-13223551D03*
X25281196Y-13791327D03*
X2718804Y-13791327D03*
X3349383Y-13223551D03*
X2750206Y-13192150D03*
X2868804Y-10991327D03*
X3499383Y-10423551D03*
X2900206Y-10392150D03*
D19*
X14000000Y-21700000D03*
D18*
X15100000Y-28400000D03*
X12900000Y-28400000D03*
X12900000Y-24200000D03*
X12900000Y-26300000D03*
X15100000Y-26300000D03*
X15100000Y-24200000D03*
D19*
X16100000Y-1700000D03*
X16100000Y-6100000D03*
X20500000Y-6100000D03*
X20500000Y-1700000D03*
X18300000Y-3900000D03*
X19400000Y-34700000D03*
D18*
X20800000Y-29350000D03*
X20800000Y-28350000D03*
X22300000Y-29350000D03*
X22300000Y-28350000D03*
X21550000Y-28850000D03*
X11400000Y-11300000D03*
X10400000Y-11300000D03*
X11400000Y-9800000D03*
X10400000Y-9800000D03*
X10900000Y-10550000D03*
X16600000Y-9850000D03*
X17600000Y-9850000D03*
X16600000Y-11350000D03*
X17600000Y-11350000D03*
X17100000Y-10600000D03*
M02*
