M48
METRIC
T1C0.300
T2C0.400
T3C2.300
%
G90
G05
T1
X2.169Y-35.46
X2.35Y-23.35
X2.619Y-15.991
X2.65Y-15.392
X2.85Y-19.55
X2.869Y-10.991
X2.9Y-18.1
X2.9Y-10.392
X3.249Y-15.424
X3.487Y-31.027
X3.499Y-10.424
X5.1Y-28.0
X5.1Y-28.6
X5.1Y-29.2
X5.1Y-29.8
X5.1Y-30.4
X5.189Y-34.611
X5.9Y-16.2
X5.9Y-17.7
X5.9Y-28.0
X5.9Y-28.6
X5.9Y-29.2
X5.9Y-29.8
X5.9Y-30.4
X6.08Y-2.415
X6.1Y-20.8
X6.1Y-21.6
X6.175Y-4.875
X6.7Y-34.6
X6.8Y-24.8
X6.8Y-32.9
X7.675Y-31.116
X7.8Y-27.7
X7.8Y-28.3
X7.95Y-19.55
X8.0Y-18.1
X8.0Y-23.4
X8.2Y-3.85
X8.356Y-29.244
X8.713Y-14.012
X9.0Y-10.5
X9.0Y-13.5
X9.0Y-21.2
X9.1Y-30.7
X9.3Y-14.0
X9.4Y-11.25
X9.4Y-12.75
X9.6Y-10.5
X9.6Y-13.5
X9.6Y-15.6
X9.8Y-30.7
X9.8Y-31.4
X9.9Y-12.0
X9.9Y-14.0
X10.0Y-36.3
X10.0Y-35.7
X10.019Y-24.831
X10.2Y-10.5
X10.2Y-13.5
X10.2Y-18.1
X10.25Y-19.55
X10.3Y-4.9
X10.32Y-2.415
X10.4Y-11.25
X10.4Y-12.75
X10.475Y-0.7
X10.475Y1.0
X10.5Y-14.0
X10.8Y-10.5
X10.8Y-13.5
X11.094Y-28.906
X11.1Y-14.0
X11.4Y-22.95
X11.4Y-23.591
X11.503Y-16.203
X12.2Y-21.0
X12.5Y-19.1
X12.65Y-24.95
X12.79Y-10.81
X12.8Y-8.7
X13.0Y-13.579
X13.75Y-20.6
X13.75Y-22.946
X14.089Y-27.15
X14.8Y-13.6
X14.9Y-28.45
X15.0Y-8.7
X15.01Y-10.81
X15.271Y-22.929
X15.271Y-26.21
X15.5Y-19.1
X15.7Y-27.7
X16.3Y-22.9
X16.3Y-23.5
X16.3Y-24.1
X16.3Y-24.7
X16.3Y-25.3
X16.3Y-25.9
X16.3Y-22.3
X16.7Y-20.5
X16.8Y-22.6
X16.8Y-23.2
X16.8Y-23.8
X16.8Y-24.4
X16.8Y-25.0
X16.8Y-25.6
X16.9Y-14.0
X17.2Y-13.5
X17.2Y-10.5
X17.3Y-22.9
X17.3Y-23.5
X17.3Y-24.1
X17.3Y-24.7
X17.3Y-25.3
X17.5Y-14.0
X17.525Y1.0
X17.525Y-0.75
X17.6Y-11.25
X17.6Y-12.75
X17.7Y-4.9
X17.8Y-10.5
X17.8Y-13.5
X17.8Y-23.2
X17.8Y-23.8
X17.8Y-24.4
X17.8Y-25.0
X17.809Y-2.537
X18.1Y-12.0
X18.1Y-14.0
X18.4Y-10.5
X18.4Y-13.5
X18.55Y-23.6
X18.55Y-24.6
X18.6Y-11.25
X18.6Y-12.75
X18.7Y-14.0
X19.0Y-10.5
X19.0Y-13.5
X19.0Y-27.7
X19.3Y-14.0
X19.3Y-24.1
X19.8Y-3.85
X20.05Y-23.6
X20.05Y-24.6
X20.8Y-23.2
X20.8Y-23.8
X20.8Y-24.4
X20.8Y-25.0
X21.8Y-26.4
X21.825Y-4.825
X21.92Y-2.415
X22.1Y-16.2
X22.1Y-17.7
X22.9Y-8.85
X22.9Y-27.6
X23.5Y-31.0
X23.6Y-24.6
X24.0Y-33.8
X24.2Y-24.6
X24.501Y-10.424
X24.751Y-15.424
X25.1Y-10.392
X25.131Y-10.991
X25.35Y-15.392
X25.381Y-15.991
T2
X12.3Y-34.7
X12.3Y-35.5
X12.3Y-36.3
X13.4Y-31.5
X13.4Y-32.3
X13.4Y-33.1
X14.0Y-29.4
X14.6Y-31.5
X14.6Y-32.3
X14.6Y-33.1
X15.7Y-34.7
X15.7Y-35.5
X15.7Y-36.3
T3
X19.0Y-34.7
T0
M30
