G04 #@! TF.GenerationSoftware,KiCad,Pcbnew,5.1.9-73d0e3b20d~88~ubuntu20.04.1*
G04 #@! TF.CreationDate,2021-08-23T09:26:19+03:00*
G04 #@! TF.ProjectId,diff_probe_amplifier,64696666-5f70-4726-9f62-655f616d706c,rev?*
G04 #@! TF.SameCoordinates,Original*
G04 #@! TF.FileFunction,Legend,Top*
G04 #@! TF.FilePolarity,Positive*
%FSLAX46Y46*%
G04 Gerber Fmt 4.6, Leading zero omitted, Abs format (unit mm)*
G04 Created by KiCad (PCBNEW 5.1.9-73d0e3b20d~88~ubuntu20.04.1) date 2021-08-23 09:26:19*
%MOMM*%
%LPD*%
G01*
G04 APERTURE LIST*
%ADD10C,0.120000*%
%ADD11C,0.150000*%
%ADD12C,0.050000*%
%ADD13C,1.800000*%
%ADD14R,1.400000X1.200000*%
%ADD15R,1.500000X3.300000*%
%ADD16R,0.700000X0.250000*%
%ADD17C,0.350000*%
%ADD18R,1.100000X2.600000*%
%ADD19R,2.000000X1.300000*%
%ADD20R,2.000000X2.000000*%
%ADD21R,1.100000X2.000000*%
%ADD22R,1.000000X0.800000*%
%ADD23C,1.500000*%
%ADD24R,0.800000X0.900000*%
%ADD25C,0.600000*%
%ADD26C,4.200000*%
%ADD27R,0.600000X0.700000*%
%ADD28O,0.400000X0.650000*%
%ADD29R,0.400000X0.300000*%
%ADD30R,2.400000X1.650000*%
%ADD31R,1.000000X0.650000*%
%ADD32O,0.650000X0.400000*%
%ADD33R,0.300000X0.400000*%
%ADD34R,1.650000X2.400000*%
%ADD35R,0.650000X1.000000*%
G04 APERTURE END LIST*
D10*
X3141421Y-27300000D02*
G75*
G03*
X3141421Y-27300000I-141421J0D01*
G01*
X7830278Y-9950000D02*
G75*
G03*
X7830278Y-9950000I-180278J0D01*
G01*
X20080278Y-14150000D02*
G75*
G03*
X20080278Y-14150000I-180278J0D01*
G01*
X21730278Y-22500000D02*
G75*
G03*
X21730278Y-22500000I-180278J0D01*
G01*
X19500000Y-11000000D02*
G75*
G03*
X19500000Y-11000000I-100000J0D01*
G01*
G04 #@! TO.C,C17*
X7200000Y-12450000D02*
X7700000Y-12950000D01*
X4600000Y-12450000D02*
X4100000Y-12950000D01*
X7700000Y-17350000D02*
X7700000Y-16850000D01*
X7700000Y-17350000D02*
X7200000Y-17350000D01*
X4100000Y-17350000D02*
X4100000Y-16850000D01*
X4100000Y-17350000D02*
X4600000Y-17350000D01*
G04 #@! TO.C,C16*
X20300000Y-17350000D02*
X20800000Y-17350000D01*
X20300000Y-17350000D02*
X20300000Y-16850000D01*
X23900000Y-17350000D02*
X23400000Y-17350000D01*
X23900000Y-17350000D02*
X23900000Y-16850000D01*
X20800000Y-12450000D02*
X20300000Y-12950000D01*
X23400000Y-12450000D02*
X23900000Y-12950000D01*
D11*
G04 #@! TO.C,U1*
X3625000Y-27075000D02*
X6600000Y-27075000D01*
X4400000Y-31325000D02*
X6600000Y-31325000D01*
D10*
G04 #@! TO.C,J8*
X8750000Y-5610000D02*
X7650000Y-5610000D01*
X5640000Y2290000D02*
X5640000Y-5410000D01*
X5640000Y-5410000D02*
X10760000Y-5410000D01*
X10760000Y2290000D02*
X10760000Y-5410000D01*
G04 #@! TO.C,J7*
X20350000Y-5610000D02*
X19250000Y-5610000D01*
X17240000Y2290000D02*
X17240000Y-5410000D01*
X17240000Y-5410000D02*
X22360000Y-5410000D01*
X22360000Y2290000D02*
X22360000Y-5410000D01*
G04 #@! TO.C,RV2*
X24870000Y-31570000D02*
X20130000Y-31570000D01*
X24870000Y-26830000D02*
X20130000Y-26830000D01*
X20130000Y-30440000D02*
X20130000Y-31570000D01*
X20130000Y-26830000D02*
X20130000Y-27960000D01*
X24870000Y-28941000D02*
X24870000Y-29460000D01*
X24870000Y-26830000D02*
X24870000Y-27161000D01*
X24870000Y-31240000D02*
X24870000Y-31570000D01*
G04 #@! TO.C,RV1*
X16370000Y-14730000D02*
X16370000Y-19470000D01*
X11630000Y-14730000D02*
X11630000Y-19470000D01*
X15240000Y-19470000D02*
X16370000Y-19470000D01*
X11630000Y-19470000D02*
X12760000Y-19470000D01*
X13741000Y-14730000D02*
X14260000Y-14730000D01*
X11630000Y-14730000D02*
X11961000Y-14730000D01*
X16040000Y-14730000D02*
X16370000Y-14730000D01*
D11*
G04 #@! TO.C,J1*
X14200000Y-30700000D02*
X14200000Y-30300000D01*
X13700000Y-30700000D02*
X13700000Y-30300000D01*
X15500000Y-33700000D02*
X15500000Y-34200000D01*
X15200000Y-33700000D02*
X15500000Y-33700000D01*
X15200000Y-30800000D02*
X15200000Y-33700000D01*
X12800000Y-30800000D02*
X15200000Y-30800000D01*
X12800000Y-33700000D02*
X12800000Y-30800000D01*
X12500000Y-33700000D02*
X12800000Y-33700000D01*
X12500000Y-34200000D02*
X12500000Y-33700000D01*
G04 #@! TO.C,SW1*
X16000000Y-1000000D02*
X16000000Y-500000D01*
X16000000Y-500000D02*
X12000000Y-500000D01*
X12000000Y-500000D02*
X12000000Y-1000000D01*
X12000000Y-9000000D02*
X12000000Y-9500000D01*
X12000000Y-9500000D02*
X16000000Y-9500000D01*
X16000000Y-9500000D02*
X16000000Y-9000000D01*
D10*
G04 #@! TO.C,R8*
X24510000Y-35562779D02*
X24510000Y-35237221D01*
X23490000Y-35562779D02*
X23490000Y-35237221D01*
G04 #@! TO.C,R7*
X17462779Y-27990000D02*
X17137221Y-27990000D01*
X17462779Y-29010000D02*
X17137221Y-29010000D01*
G04 #@! TO.C,R4*
X14162779Y1310000D02*
X13837221Y1310000D01*
X14162779Y290000D02*
X13837221Y290000D01*
G04 #@! TO.C,D6*
X15820000Y-31760000D02*
X15820000Y-30300000D01*
X18980000Y-31760000D02*
X18980000Y-29600000D01*
X18980000Y-31760000D02*
X18050000Y-31760000D01*
X15820000Y-31760000D02*
X16750000Y-31760000D01*
G04 #@! TO.C,D5*
X6080000Y-6140000D02*
X6080000Y-7600000D01*
X2920000Y-6140000D02*
X2920000Y-8300000D01*
X2920000Y-6140000D02*
X3850000Y-6140000D01*
X6080000Y-6140000D02*
X5150000Y-6140000D01*
G04 #@! TO.C,D4*
X25080000Y-6140000D02*
X25080000Y-7600000D01*
X21920000Y-6140000D02*
X21920000Y-8300000D01*
X21920000Y-6140000D02*
X22850000Y-6140000D01*
X25080000Y-6140000D02*
X24150000Y-6140000D01*
G04 #@! TO.C,D3*
X21765000Y-33915000D02*
X21765000Y-36200000D01*
X23235000Y-33915000D02*
X21765000Y-33915000D01*
X23235000Y-36200000D02*
X23235000Y-33915000D01*
G04 #@! TO.C,C18*
X17937221Y-21710000D02*
X18262779Y-21710000D01*
X17937221Y-20690000D02*
X18262779Y-20690000D01*
G04 #@! TO.C,C21*
X9662779Y-14490000D02*
X9337221Y-14490000D01*
X9662779Y-15510000D02*
X9337221Y-15510000D01*
G04 #@! TO.C,C20*
X12290000Y-12187221D02*
X12290000Y-12512779D01*
X13310000Y-12187221D02*
X13310000Y-12512779D01*
G04 #@! TO.C,L4*
X5261252Y-23090000D02*
X4738748Y-23090000D01*
X5261252Y-24510000D02*
X4738748Y-24510000D01*
G04 #@! TO.C,L3*
X5261252Y-25190000D02*
X4738748Y-25190000D01*
X5261252Y-26610000D02*
X4738748Y-26610000D01*
G04 #@! TO.C,C22*
X14490000Y-12187221D02*
X14490000Y-12512779D01*
X15510000Y-12187221D02*
X15510000Y-12512779D01*
D11*
G04 #@! TO.C,J4*
X25194636Y-9335738D02*
X25210337Y-9635327D01*
X25086923Y-9191177D02*
X25194636Y-9335738D01*
X24934512Y-9149096D02*
X25086923Y-9191177D01*
X24335334Y-9180498D02*
X24934512Y-9149096D01*
X24190773Y-9288211D02*
X24335334Y-9180498D01*
X24148692Y-9440622D02*
X24190773Y-9288211D01*
X24177477Y-9989869D02*
X24148692Y-9440622D01*
X24255981Y-11487813D02*
X24224579Y-10888635D01*
G04 #@! TO.C,J3*
X25444636Y-14335738D02*
X25460337Y-14635327D01*
X25336923Y-14191177D02*
X25444636Y-14335738D01*
X25184512Y-14149096D02*
X25336923Y-14191177D01*
X24585334Y-14180498D02*
X25184512Y-14149096D01*
X24440773Y-14288211D02*
X24585334Y-14180498D01*
X24398692Y-14440622D02*
X24440773Y-14288211D01*
X24427477Y-14989869D02*
X24398692Y-14440622D01*
X24505981Y-16487813D02*
X24474579Y-15888635D01*
G04 #@! TO.C,J6*
X3494019Y-16487813D02*
X3525421Y-15888635D01*
X3572523Y-14989869D02*
X3601308Y-14440622D01*
X3601308Y-14440622D02*
X3559227Y-14288211D01*
X3559227Y-14288211D02*
X3414666Y-14180498D01*
X3414666Y-14180498D02*
X2815488Y-14149096D01*
X2815488Y-14149096D02*
X2663077Y-14191177D01*
X2663077Y-14191177D02*
X2555364Y-14335738D01*
X2555364Y-14335738D02*
X2523962Y-14934916D01*
G04 #@! TO.C,J5*
X3744019Y-11487813D02*
X3775421Y-10888635D01*
X3822523Y-9989869D02*
X3851308Y-9440622D01*
X3851308Y-9440622D02*
X3809227Y-9288211D01*
X3809227Y-9288211D02*
X3664666Y-9180498D01*
X3664666Y-9180498D02*
X3065488Y-9149096D01*
X3065488Y-9149096D02*
X2913077Y-9191177D01*
X2913077Y-9191177D02*
X2805364Y-9335738D01*
X2805364Y-9335738D02*
X2773962Y-9934916D01*
D10*
G04 #@! TO.C,R23*
X21537221Y-11710000D02*
X21862779Y-11710000D01*
X21537221Y-10690000D02*
X21862779Y-10690000D01*
G04 #@! TO.C,R11*
X6062779Y-10590000D02*
X5737221Y-10590000D01*
X6062779Y-11610000D02*
X5737221Y-11610000D01*
G04 #@! TO.C,L9*
X11462779Y-30890000D02*
X11137221Y-30890000D01*
X11462779Y-31910000D02*
X11137221Y-31910000D01*
G04 #@! TO.C,C11*
X9462779Y-7390000D02*
X9137221Y-7390000D01*
X9462779Y-8410000D02*
X9137221Y-8410000D01*
G04 #@! TO.C,C1*
X18862779Y-7390000D02*
X18537221Y-7390000D01*
X18862779Y-8410000D02*
X18537221Y-8410000D01*
G04 #@! TO.C,R12*
X18662779Y-14790000D02*
X18337221Y-14790000D01*
X18662779Y-15810000D02*
X18337221Y-15810000D01*
G04 #@! TO.C,L8*
X13090000Y-26037221D02*
X13090000Y-26362779D01*
X14110000Y-26037221D02*
X14110000Y-26362779D01*
G04 #@! TO.C,L7*
X8590000Y-26037221D02*
X8590000Y-26362779D01*
X9610000Y-26037221D02*
X9610000Y-26362779D01*
G04 #@! TO.C,L1*
X11110000Y-33762779D02*
X11110000Y-33437221D01*
X10090000Y-33762779D02*
X10090000Y-33437221D01*
G04 #@! TO.C,R15*
X9137221Y-9910000D02*
X9462779Y-9910000D01*
X9137221Y-8890000D02*
X9462779Y-8890000D01*
G04 #@! TO.C,C26*
X8590000Y-29037221D02*
X8590000Y-29362779D01*
X9610000Y-29037221D02*
X9610000Y-29362779D01*
G04 #@! TO.C,D2*
X4100000Y-21400000D02*
X5950000Y-21400000D01*
X4100000Y-22600000D02*
X5950000Y-22600000D01*
X5950000Y-22600000D02*
X5950000Y-21400000D01*
G04 #@! TO.C,D1*
X5500000Y-21100000D02*
X3650000Y-21100000D01*
X5500000Y-19900000D02*
X3650000Y-19900000D01*
X3650000Y-19900000D02*
X3650000Y-21100000D01*
G04 #@! TO.C,U4*
X17650000Y-22450000D02*
X17850000Y-22450000D01*
X17850000Y-25750000D02*
X17650000Y-25750000D01*
X20750000Y-25750000D02*
X20950000Y-25750000D01*
X17650000Y-22450000D02*
X17650000Y-23400000D01*
X20950000Y-24800000D02*
X20950000Y-25750000D01*
X20950000Y-22100000D02*
X20950000Y-23400000D01*
X17650000Y-24800000D02*
X17650000Y-25750000D01*
G04 #@! TO.C,U3*
X8250000Y-13650000D02*
X8250000Y-13450000D01*
X11550000Y-13450000D02*
X11550000Y-13650000D01*
X11550000Y-10550000D02*
X11550000Y-10350000D01*
X8250000Y-13650000D02*
X9200000Y-13650000D01*
X10600000Y-10350000D02*
X11550000Y-10350000D01*
X7900000Y-10350000D02*
X9200000Y-10350000D01*
X10600000Y-13650000D02*
X11550000Y-13650000D01*
G04 #@! TO.C,U2*
X19750000Y-10350000D02*
X19750000Y-10550000D01*
X16450000Y-10550000D02*
X16450000Y-10350000D01*
X16450000Y-13450000D02*
X16450000Y-13650000D01*
X19750000Y-10350000D02*
X18800000Y-10350000D01*
X17400000Y-13650000D02*
X16450000Y-13650000D01*
X20100000Y-13650000D02*
X18800000Y-13650000D01*
X17400000Y-10350000D02*
X16450000Y-10350000D01*
G04 #@! TO.C,R22*
X17137221Y-27510000D02*
X17462779Y-27510000D01*
X17137221Y-26490000D02*
X17462779Y-26490000D01*
G04 #@! TO.C,R21*
X20924721Y-20210000D02*
X21250279Y-20210000D01*
X20924721Y-19190000D02*
X21250279Y-19190000D01*
G04 #@! TO.C,R20*
X18262779Y-19190000D02*
X17937221Y-19190000D01*
X18262779Y-20210000D02*
X17937221Y-20210000D01*
G04 #@! TO.C,R19*
X18690000Y-17337221D02*
X18690000Y-17662779D01*
X19710000Y-17337221D02*
X19710000Y-17662779D01*
G04 #@! TO.C,R18*
X17190000Y-17337221D02*
X17190000Y-17662779D01*
X18210000Y-17337221D02*
X18210000Y-17662779D01*
G04 #@! TO.C,R17*
X9137221Y-6910000D02*
X9462779Y-6910000D01*
X9137221Y-5890000D02*
X9462779Y-5890000D01*
G04 #@! TO.C,R16*
X18862779Y-5890000D02*
X18537221Y-5890000D01*
X18862779Y-6910000D02*
X18537221Y-6910000D01*
G04 #@! TO.C,R14*
X18537221Y-9910000D02*
X18862779Y-9910000D01*
X18537221Y-8890000D02*
X18862779Y-8890000D01*
G04 #@! TO.C,R13*
X9337221Y-17010000D02*
X9662779Y-17010000D01*
X9337221Y-15990000D02*
X9662779Y-15990000D01*
G04 #@! TO.C,R10*
X7610000Y-7362779D02*
X7610000Y-7037221D01*
X6590000Y-7362779D02*
X6590000Y-7037221D01*
G04 #@! TO.C,R9*
X21410000Y-7362779D02*
X21410000Y-7037221D01*
X20390000Y-7362779D02*
X20390000Y-7037221D01*
G04 #@! TO.C,R6*
X6737221Y-32810000D02*
X7062779Y-32810000D01*
X6737221Y-31790000D02*
X7062779Y-31790000D01*
G04 #@! TO.C,R3*
X4062779Y-33290000D02*
X3737221Y-33290000D01*
X4062779Y-34310000D02*
X3737221Y-34310000D01*
G04 #@! TO.C,R2*
X6737221Y-34310000D02*
X7062779Y-34310000D01*
X6737221Y-33290000D02*
X7062779Y-33290000D01*
G04 #@! TO.C,R1*
X3737221Y-32810000D02*
X4062779Y-32810000D01*
X3737221Y-31790000D02*
X4062779Y-31790000D01*
G04 #@! TO.C,L6*
X11590000Y-26037221D02*
X11590000Y-26362779D01*
X12610000Y-26037221D02*
X12610000Y-26362779D01*
G04 #@! TO.C,L5*
X10090000Y-26037221D02*
X10090000Y-26362779D01*
X11110000Y-26037221D02*
X11110000Y-26362779D01*
G04 #@! TO.C,L2*
X8590000Y-35037221D02*
X8590000Y-35362779D01*
X9610000Y-35037221D02*
X9610000Y-35362779D01*
G04 #@! TO.C,C25*
X22762779Y-23390000D02*
X22437221Y-23390000D01*
X22762779Y-24410000D02*
X22437221Y-24410000D01*
G04 #@! TO.C,C24*
X22437221Y-25910000D02*
X22762779Y-25910000D01*
X22437221Y-24890000D02*
X22762779Y-24890000D01*
G04 #@! TO.C,C23*
X21862779Y-9190000D02*
X21537221Y-9190000D01*
X21862779Y-10210000D02*
X21537221Y-10210000D01*
G04 #@! TO.C,C19*
X21262779Y-20690000D02*
X20937221Y-20690000D01*
X21262779Y-21710000D02*
X20937221Y-21710000D01*
G04 #@! TO.C,C13*
X11590000Y-29037221D02*
X11590000Y-29362779D01*
X12610000Y-29037221D02*
X12610000Y-29362779D01*
G04 #@! TO.C,C12*
X10090000Y-29037221D02*
X10090000Y-29362779D01*
X11110000Y-29037221D02*
X11110000Y-29362779D01*
G04 #@! TO.C,C9*
X13062779Y-23490000D02*
X12737221Y-23490000D01*
X13062779Y-24510000D02*
X12737221Y-24510000D01*
G04 #@! TO.C,C8*
X9737221Y-24510000D02*
X10062779Y-24510000D01*
X9737221Y-23490000D02*
X10062779Y-23490000D01*
G04 #@! TO.C,C7*
X7437221Y-21010000D02*
X7762779Y-21010000D01*
X7437221Y-19990000D02*
X7762779Y-19990000D01*
G04 #@! TO.C,C6*
X7437221Y-22510000D02*
X7762779Y-22510000D01*
X7437221Y-21490000D02*
X7762779Y-21490000D01*
G04 #@! TO.C,C5*
X4062779Y-34790000D02*
X3737221Y-34790000D01*
X4062779Y-35810000D02*
X3737221Y-35810000D01*
G04 #@! TO.C,C4*
X6737221Y-35810000D02*
X7062779Y-35810000D01*
X6737221Y-34790000D02*
X7062779Y-34790000D01*
G04 #@! TO.C,C3*
X8110000Y-25075279D02*
X8110000Y-24749721D01*
X7090000Y-25075279D02*
X7090000Y-24749721D01*
G04 #@! TO.C,C2*
X9610000Y-32362779D02*
X9610000Y-32037221D01*
X8590000Y-32362779D02*
X8590000Y-32037221D01*
G04 #@! TO.C,C17*
D11*
X5385714Y-18485714D02*
X5347619Y-18523809D01*
X5233333Y-18561904D01*
X5157142Y-18561904D01*
X5042857Y-18523809D01*
X4966666Y-18447619D01*
X4928571Y-18371428D01*
X4890476Y-18219047D01*
X4890476Y-18104761D01*
X4928571Y-17952380D01*
X4966666Y-17876190D01*
X5042857Y-17800000D01*
X5157142Y-17761904D01*
X5233333Y-17761904D01*
X5347619Y-17800000D01*
X5385714Y-17838095D01*
X6147619Y-18561904D02*
X5690476Y-18561904D01*
X5919047Y-18561904D02*
X5919047Y-17761904D01*
X5842857Y-17876190D01*
X5766666Y-17952380D01*
X5690476Y-17990476D01*
X6414285Y-17761904D02*
X6947619Y-17761904D01*
X6604761Y-18561904D01*
G04 #@! TO.C,C16*
X21485714Y-18485714D02*
X21447619Y-18523809D01*
X21333333Y-18561904D01*
X21257142Y-18561904D01*
X21142857Y-18523809D01*
X21066666Y-18447619D01*
X21028571Y-18371428D01*
X20990476Y-18219047D01*
X20990476Y-18104761D01*
X21028571Y-17952380D01*
X21066666Y-17876190D01*
X21142857Y-17800000D01*
X21257142Y-17761904D01*
X21333333Y-17761904D01*
X21447619Y-17800000D01*
X21485714Y-17838095D01*
X22247619Y-18561904D02*
X21790476Y-18561904D01*
X22019047Y-18561904D02*
X22019047Y-17761904D01*
X21942857Y-17876190D01*
X21866666Y-17952380D01*
X21790476Y-17990476D01*
X22933333Y-17761904D02*
X22780952Y-17761904D01*
X22704761Y-17800000D01*
X22666666Y-17838095D01*
X22590476Y-17952380D01*
X22552380Y-18104761D01*
X22552380Y-18409523D01*
X22590476Y-18485714D01*
X22628571Y-18523809D01*
X22704761Y-18561904D01*
X22857142Y-18561904D01*
X22933333Y-18523809D01*
X22971428Y-18485714D01*
X23009523Y-18409523D01*
X23009523Y-18219047D01*
X22971428Y-18142857D01*
X22933333Y-18104761D01*
X22857142Y-18066666D01*
X22704761Y-18066666D01*
X22628571Y-18104761D01*
X22590476Y-18142857D01*
X22552380Y-18219047D01*
G04 #@! TO.C,U1*
X2311904Y-29059523D02*
X2959523Y-29059523D01*
X3035714Y-29021428D01*
X3073809Y-28983333D01*
X3111904Y-28907142D01*
X3111904Y-28754761D01*
X3073809Y-28678571D01*
X3035714Y-28640476D01*
X2959523Y-28602380D01*
X2311904Y-28602380D01*
X3111904Y-27802380D02*
X3111904Y-28259523D01*
X3111904Y-28030952D02*
X2311904Y-28030952D01*
X2426190Y-28107142D01*
X2502380Y-28183333D01*
X2540476Y-28259523D01*
G04 #@! TO.C,J8*
X4561904Y-1266666D02*
X5133333Y-1266666D01*
X5247619Y-1304761D01*
X5323809Y-1380952D01*
X5361904Y-1495238D01*
X5361904Y-1571428D01*
X4904761Y-771428D02*
X4866666Y-847619D01*
X4828571Y-885714D01*
X4752380Y-923809D01*
X4714285Y-923809D01*
X4638095Y-885714D01*
X4600000Y-847619D01*
X4561904Y-771428D01*
X4561904Y-619047D01*
X4600000Y-542857D01*
X4638095Y-504761D01*
X4714285Y-466666D01*
X4752380Y-466666D01*
X4828571Y-504761D01*
X4866666Y-542857D01*
X4904761Y-619047D01*
X4904761Y-771428D01*
X4942857Y-847619D01*
X4980952Y-885714D01*
X5057142Y-923809D01*
X5209523Y-923809D01*
X5285714Y-885714D01*
X5323809Y-847619D01*
X5361904Y-771428D01*
X5361904Y-619047D01*
X5323809Y-542857D01*
X5285714Y-504761D01*
X5209523Y-466666D01*
X5057142Y-466666D01*
X4980952Y-504761D01*
X4942857Y-542857D01*
X4904761Y-619047D01*
G04 #@! TO.C,J7*
X22661904Y-1266666D02*
X23233333Y-1266666D01*
X23347619Y-1304761D01*
X23423809Y-1380952D01*
X23461904Y-1495238D01*
X23461904Y-1571428D01*
X22661904Y-961904D02*
X22661904Y-428571D01*
X23461904Y-771428D01*
G04 #@! TO.C,RV2*
X24573809Y-26561904D02*
X24307142Y-26180952D01*
X24116666Y-26561904D02*
X24116666Y-25761904D01*
X24421428Y-25761904D01*
X24497619Y-25800000D01*
X24535714Y-25838095D01*
X24573809Y-25914285D01*
X24573809Y-26028571D01*
X24535714Y-26104761D01*
X24497619Y-26142857D01*
X24421428Y-26180952D01*
X24116666Y-26180952D01*
X24802380Y-25761904D02*
X25069047Y-26561904D01*
X25335714Y-25761904D01*
X25564285Y-25838095D02*
X25602380Y-25800000D01*
X25678571Y-25761904D01*
X25869047Y-25761904D01*
X25945238Y-25800000D01*
X25983333Y-25838095D01*
X26021428Y-25914285D01*
X26021428Y-25990476D01*
X25983333Y-26104761D01*
X25526190Y-26561904D01*
X26021428Y-26561904D01*
G04 #@! TO.C,RV1*
X15023809Y-21361904D02*
X14757142Y-20980952D01*
X14566666Y-21361904D02*
X14566666Y-20561904D01*
X14871428Y-20561904D01*
X14947619Y-20600000D01*
X14985714Y-20638095D01*
X15023809Y-20714285D01*
X15023809Y-20828571D01*
X14985714Y-20904761D01*
X14947619Y-20942857D01*
X14871428Y-20980952D01*
X14566666Y-20980952D01*
X15252380Y-20561904D02*
X15519047Y-21361904D01*
X15785714Y-20561904D01*
X16471428Y-21361904D02*
X16014285Y-21361904D01*
X16242857Y-21361904D02*
X16242857Y-20561904D01*
X16166666Y-20676190D01*
X16090476Y-20752380D01*
X16014285Y-20790476D01*
G04 #@! TO.C,J1*
X15461904Y-33266666D02*
X16033333Y-33266666D01*
X16147619Y-33304761D01*
X16223809Y-33380952D01*
X16261904Y-33495238D01*
X16261904Y-33571428D01*
X16261904Y-32466666D02*
X16261904Y-32923809D01*
X16261904Y-32695238D02*
X15461904Y-32695238D01*
X15576190Y-32771428D01*
X15652380Y-32847619D01*
X15690476Y-32923809D01*
G04 #@! TO.C,SW1*
X12883333Y-10423809D02*
X12997619Y-10461904D01*
X13188095Y-10461904D01*
X13264285Y-10423809D01*
X13302380Y-10385714D01*
X13340476Y-10309523D01*
X13340476Y-10233333D01*
X13302380Y-10157142D01*
X13264285Y-10119047D01*
X13188095Y-10080952D01*
X13035714Y-10042857D01*
X12959523Y-10004761D01*
X12921428Y-9966666D01*
X12883333Y-9890476D01*
X12883333Y-9814285D01*
X12921428Y-9738095D01*
X12959523Y-9700000D01*
X13035714Y-9661904D01*
X13226190Y-9661904D01*
X13340476Y-9700000D01*
X13607142Y-9661904D02*
X13797619Y-10461904D01*
X13950000Y-9890476D01*
X14102380Y-10461904D01*
X14292857Y-9661904D01*
X15016666Y-10461904D02*
X14559523Y-10461904D01*
X14788095Y-10461904D02*
X14788095Y-9661904D01*
X14711904Y-9776190D01*
X14635714Y-9852380D01*
X14559523Y-9890476D01*
G04 #@! TO.C,J4*
X25323538Y-12060770D02*
X24752893Y-12090676D01*
X24636770Y-12058615D01*
X24556696Y-11986516D01*
X24512672Y-11874381D01*
X24508684Y-11798295D01*
X25095118Y-12797544D02*
X24562516Y-12825456D01*
X25389494Y-12591379D02*
X24808879Y-12431070D01*
X24834798Y-12925629D01*
G04 #@! TO.C,J3*
X25723538Y-16810770D02*
X25152893Y-16840676D01*
X25036770Y-16808615D01*
X24956696Y-16736516D01*
X24912672Y-16624381D01*
X24908684Y-16548295D01*
X25739488Y-17115114D02*
X25765407Y-17609674D01*
X25447106Y-17359323D01*
X25453088Y-17473452D01*
X25419032Y-17551531D01*
X25382983Y-17591568D01*
X25308890Y-17633599D01*
X25118675Y-17643568D01*
X25040596Y-17609512D01*
X25000559Y-17573463D01*
X24958528Y-17499370D01*
X24946566Y-17271112D01*
X24980621Y-17193032D01*
X25016671Y-17152996D01*
G04 #@! TO.C,J6*
X2448548Y-17443373D02*
X3019194Y-17473279D01*
X3131329Y-17517303D01*
X3203428Y-17597377D01*
X3235490Y-17713500D01*
X3231502Y-17789586D01*
X2486430Y-16720555D02*
X2478455Y-16872727D01*
X2512510Y-16950807D01*
X2548559Y-16990844D01*
X2658701Y-17072911D01*
X2808879Y-17118929D01*
X3113224Y-17134879D01*
X3191303Y-17100824D01*
X3231340Y-17064774D01*
X3273371Y-16990682D01*
X3281346Y-16838510D01*
X3247290Y-16760430D01*
X3211241Y-16720393D01*
X3137149Y-16678363D01*
X2946934Y-16668394D01*
X2868854Y-16702449D01*
X2828817Y-16738499D01*
X2786786Y-16812591D01*
X2778811Y-16964763D01*
X2812867Y-17042843D01*
X2848916Y-17082880D01*
X2923009Y-17124910D01*
G04 #@! TO.C,J5*
X2748548Y-12543373D02*
X3319194Y-12573279D01*
X3431329Y-12617303D01*
X3503428Y-12697377D01*
X3535490Y-12813500D01*
X3531502Y-12889586D01*
X2788423Y-11782512D02*
X2768486Y-12162942D01*
X3146922Y-12220923D01*
X3110873Y-12180886D01*
X3076818Y-12102806D01*
X3086786Y-11912591D01*
X3128817Y-11838499D01*
X3168854Y-11802449D01*
X3246934Y-11768394D01*
X3437149Y-11778363D01*
X3511241Y-11820393D01*
X3547290Y-11860430D01*
X3581346Y-11938510D01*
X3571377Y-12128725D01*
X3529347Y-12202817D01*
X3489310Y-12238867D01*
G04 #@! TO.C,U4*
X21940476Y-22161904D02*
X21940476Y-22809523D01*
X21978571Y-22885714D01*
X22016666Y-22923809D01*
X22092857Y-22961904D01*
X22245238Y-22961904D01*
X22321428Y-22923809D01*
X22359523Y-22885714D01*
X22397619Y-22809523D01*
X22397619Y-22161904D01*
X23121428Y-22428571D02*
X23121428Y-22961904D01*
X22930952Y-22123809D02*
X22740476Y-22695238D01*
X23235714Y-22695238D01*
G04 #@! TO.C,U3*
X6090476Y-9011904D02*
X6090476Y-9659523D01*
X6128571Y-9735714D01*
X6166666Y-9773809D01*
X6242857Y-9811904D01*
X6395238Y-9811904D01*
X6471428Y-9773809D01*
X6509523Y-9735714D01*
X6547619Y-9659523D01*
X6547619Y-9011904D01*
X6852380Y-9011904D02*
X7347619Y-9011904D01*
X7080952Y-9316666D01*
X7195238Y-9316666D01*
X7271428Y-9354761D01*
X7309523Y-9392857D01*
X7347619Y-9469047D01*
X7347619Y-9659523D01*
X7309523Y-9735714D01*
X7271428Y-9773809D01*
X7195238Y-9811904D01*
X6966666Y-9811904D01*
X6890476Y-9773809D01*
X6852380Y-9735714D01*
G04 #@! TO.C,U2*
X17590476Y-13761904D02*
X17590476Y-14409523D01*
X17628571Y-14485714D01*
X17666666Y-14523809D01*
X17742857Y-14561904D01*
X17895238Y-14561904D01*
X17971428Y-14523809D01*
X18009523Y-14485714D01*
X18047619Y-14409523D01*
X18047619Y-13761904D01*
X18390476Y-13838095D02*
X18428571Y-13800000D01*
X18504761Y-13761904D01*
X18695238Y-13761904D01*
X18771428Y-13800000D01*
X18809523Y-13838095D01*
X18847619Y-13914285D01*
X18847619Y-13990476D01*
X18809523Y-14104761D01*
X18352380Y-14561904D01*
X18847619Y-14561904D01*
G04 #@! TD*
%LPC*%
D12*
G36*
X14800000Y-22300000D02*
G01*
X14800000Y-23400000D01*
X13600000Y-23400000D01*
X13600000Y-22600000D01*
X10700000Y-19700000D01*
X1800000Y-19700000D01*
X1800000Y-18700000D01*
X11200000Y-18700000D01*
X14800000Y-22300000D01*
G37*
X14800000Y-22300000D02*
X14800000Y-23400000D01*
X13600000Y-23400000D01*
X13600000Y-22600000D01*
X10700000Y-19700000D01*
X1800000Y-19700000D01*
X1800000Y-18700000D01*
X11200000Y-18700000D01*
X14800000Y-22300000D01*
D13*
G04 #@! TO.C,H2*
X23300000Y-3800000D03*
G04 #@! TD*
G04 #@! TO.C,H2*
X4700000Y-3800000D03*
G04 #@! TD*
D14*
G04 #@! TO.C,C17*
X5900000Y-13000000D03*
X5900000Y-16850000D03*
G04 #@! TD*
G04 #@! TO.C,C16*
X22100000Y-16850000D03*
X22100000Y-13000000D03*
G04 #@! TD*
D15*
G04 #@! TO.C,U1*
X5500000Y-29200000D03*
D16*
X6950000Y-27950000D03*
X6950000Y-28450000D03*
X6950000Y-28950000D03*
X6950000Y-29450000D03*
X6950000Y-29950000D03*
X6950000Y-30450000D03*
X4050000Y-30450000D03*
X4050000Y-29950000D03*
X4050000Y-29450000D03*
X4050000Y-28950000D03*
X4050000Y-28450000D03*
X4050000Y-27950000D03*
G04 #@! TD*
D17*
G04 #@! TO.C,J8*
G36*
X5900000Y-5150000D02*
G01*
X5900000Y850000D01*
X6250000Y1350000D01*
X6250000Y-2350000D01*
X7450000Y-2350000D01*
X7450000Y-5150000D01*
X5900000Y-5150000D01*
G37*
G36*
X8950000Y-5150000D02*
G01*
X8950000Y-2350000D01*
X10150000Y-2350000D01*
X10150000Y1350000D01*
X10500000Y1350000D01*
X10500000Y-5150000D01*
X8950000Y-5150000D01*
G37*
D18*
X8200000Y-3850000D03*
G04 #@! TD*
D17*
G04 #@! TO.C,J7*
G36*
X17500000Y-5150000D02*
G01*
X17500000Y1350000D01*
X17850000Y1350000D01*
X17850000Y-2350000D01*
X19050000Y-2350000D01*
X19050000Y-5150000D01*
X17500000Y-5150000D01*
G37*
G36*
X20550000Y-5150000D02*
G01*
X20550000Y-2350000D01*
X21750000Y-2350000D01*
X21750000Y1350000D01*
X22100000Y850000D01*
X22100000Y-5150000D01*
X20550000Y-5150000D01*
G37*
D18*
X19800000Y-3850000D03*
G04 #@! TD*
D19*
G04 #@! TO.C,RV2*
X24500000Y-28050000D03*
D20*
X20500000Y-29200000D03*
D19*
X24500000Y-30350000D03*
G04 #@! TD*
D21*
G04 #@! TO.C,RV1*
X12750000Y-15100000D03*
D20*
X14000000Y-19100000D03*
D21*
X15250000Y-15100000D03*
G04 #@! TD*
D22*
G04 #@! TO.C,J1*
X13500000Y-33100000D03*
X13500000Y-32300000D03*
X13500000Y-31500000D03*
X14500000Y-31500000D03*
X14500000Y-32300000D03*
X15700000Y-34700000D03*
X15700000Y-35500000D03*
X15700000Y-36300000D03*
X12300000Y-34700000D03*
X12300000Y-35500000D03*
X12300000Y-36300000D03*
D23*
X14000000Y-29400000D03*
D22*
X14500000Y-33100000D03*
G04 #@! TD*
G04 #@! TO.C,SW1*
G36*
G01*
X11750000Y-7000000D02*
X13250000Y-7000000D01*
G75*
G02*
X13500000Y-7250000I0J-250000D01*
G01*
X13500000Y-7750000D01*
G75*
G02*
X13250000Y-8000000I-250000J0D01*
G01*
X11750000Y-8000000D01*
G75*
G02*
X11500000Y-7750000I0J250000D01*
G01*
X11500000Y-7250000D01*
G75*
G02*
X11750000Y-7000000I250000J0D01*
G01*
G37*
G36*
G01*
X11750000Y-4500000D02*
X15250000Y-4500000D01*
G75*
G02*
X15500000Y-4750000I0J-250000D01*
G01*
X15500000Y-5250000D01*
G75*
G02*
X15250000Y-5500000I-250000J0D01*
G01*
X11750000Y-5500000D01*
G75*
G02*
X11500000Y-5250000I0J250000D01*
G01*
X11500000Y-4750000D01*
G75*
G02*
X11750000Y-4500000I250000J0D01*
G01*
G37*
G36*
G01*
X11750000Y-2000000D02*
X13250000Y-2000000D01*
G75*
G02*
X13500000Y-2250000I0J-250000D01*
G01*
X13500000Y-2750000D01*
G75*
G02*
X13250000Y-3000000I-250000J0D01*
G01*
X11750000Y-3000000D01*
G75*
G02*
X11500000Y-2750000I0J250000D01*
G01*
X11500000Y-2250000D01*
G75*
G02*
X11750000Y-2000000I250000J0D01*
G01*
G37*
G36*
G01*
X14750000Y-7000000D02*
X16250000Y-7000000D01*
G75*
G02*
X16500000Y-7250000I0J-250000D01*
G01*
X16500000Y-7750000D01*
G75*
G02*
X16250000Y-8000000I-250000J0D01*
G01*
X14750000Y-8000000D01*
G75*
G02*
X14500000Y-7750000I0J250000D01*
G01*
X14500000Y-7250000D01*
G75*
G02*
X14750000Y-7000000I250000J0D01*
G01*
G37*
G36*
G01*
X14750000Y-4500000D02*
X16250000Y-4500000D01*
G75*
G02*
X16500000Y-4750000I0J-250000D01*
G01*
X16500000Y-5250000D01*
G75*
G02*
X16250000Y-5500000I-250000J0D01*
G01*
X14750000Y-5500000D01*
G75*
G02*
X14500000Y-5250000I0J250000D01*
G01*
X14500000Y-4750000D01*
G75*
G02*
X14750000Y-4500000I250000J0D01*
G01*
G37*
G36*
G01*
X14750000Y-2000000D02*
X16250000Y-2000000D01*
G75*
G02*
X16500000Y-2250000I0J-250000D01*
G01*
X16500000Y-2750000D01*
G75*
G02*
X16250000Y-3000000I-250000J0D01*
G01*
X14750000Y-3000000D01*
G75*
G02*
X14500000Y-2750000I0J250000D01*
G01*
X14500000Y-2250000D01*
G75*
G02*
X14750000Y-2000000I250000J0D01*
G01*
G37*
G04 #@! TD*
G04 #@! TO.C,R8*
G36*
G01*
X24256250Y-35050000D02*
X23743750Y-35050000D01*
G75*
G02*
X23525000Y-34831250I0J218750D01*
G01*
X23525000Y-34393750D01*
G75*
G02*
X23743750Y-34175000I218750J0D01*
G01*
X24256250Y-34175000D01*
G75*
G02*
X24475000Y-34393750I0J-218750D01*
G01*
X24475000Y-34831250D01*
G75*
G02*
X24256250Y-35050000I-218750J0D01*
G01*
G37*
G36*
G01*
X24256250Y-36625000D02*
X23743750Y-36625000D01*
G75*
G02*
X23525000Y-36406250I0J218750D01*
G01*
X23525000Y-35968750D01*
G75*
G02*
X23743750Y-35750000I218750J0D01*
G01*
X24256250Y-35750000D01*
G75*
G02*
X24475000Y-35968750I0J-218750D01*
G01*
X24475000Y-36406250D01*
G75*
G02*
X24256250Y-36625000I-218750J0D01*
G01*
G37*
G04 #@! TD*
G04 #@! TO.C,R7*
G36*
G01*
X16950000Y-28243750D02*
X16950000Y-28756250D01*
G75*
G02*
X16731250Y-28975000I-218750J0D01*
G01*
X16293750Y-28975000D01*
G75*
G02*
X16075000Y-28756250I0J218750D01*
G01*
X16075000Y-28243750D01*
G75*
G02*
X16293750Y-28025000I218750J0D01*
G01*
X16731250Y-28025000D01*
G75*
G02*
X16950000Y-28243750I0J-218750D01*
G01*
G37*
G36*
G01*
X18525000Y-28243750D02*
X18525000Y-28756250D01*
G75*
G02*
X18306250Y-28975000I-218750J0D01*
G01*
X17868750Y-28975000D01*
G75*
G02*
X17650000Y-28756250I0J218750D01*
G01*
X17650000Y-28243750D01*
G75*
G02*
X17868750Y-28025000I218750J0D01*
G01*
X18306250Y-28025000D01*
G75*
G02*
X18525000Y-28243750I0J-218750D01*
G01*
G37*
G04 #@! TD*
G04 #@! TO.C,R4*
G36*
G01*
X13650000Y1056250D02*
X13650000Y543750D01*
G75*
G02*
X13431250Y325000I-218750J0D01*
G01*
X12993750Y325000D01*
G75*
G02*
X12775000Y543750I0J218750D01*
G01*
X12775000Y1056250D01*
G75*
G02*
X12993750Y1275000I218750J0D01*
G01*
X13431250Y1275000D01*
G75*
G02*
X13650000Y1056250I0J-218750D01*
G01*
G37*
G36*
G01*
X15225000Y1056250D02*
X15225000Y543750D01*
G75*
G02*
X15006250Y325000I-218750J0D01*
G01*
X14568750Y325000D01*
G75*
G02*
X14350000Y543750I0J218750D01*
G01*
X14350000Y1056250D01*
G75*
G02*
X14568750Y1275000I218750J0D01*
G01*
X15006250Y1275000D01*
G75*
G02*
X15225000Y1056250I0J-218750D01*
G01*
G37*
G04 #@! TD*
D24*
G04 #@! TO.C,D6*
X17400000Y-32000000D03*
X16450000Y-30000000D03*
X18350000Y-30000000D03*
G04 #@! TD*
G04 #@! TO.C,D5*
X4500000Y-5900000D03*
X5450000Y-7900000D03*
X3550000Y-7900000D03*
G04 #@! TD*
G04 #@! TO.C,D4*
X23500000Y-5900000D03*
X24450000Y-7900000D03*
X22550000Y-7900000D03*
G04 #@! TD*
G04 #@! TO.C,D3*
G36*
G01*
X22243750Y-35750000D02*
X22756250Y-35750000D01*
G75*
G02*
X22975000Y-35968750I0J-218750D01*
G01*
X22975000Y-36406250D01*
G75*
G02*
X22756250Y-36625000I-218750J0D01*
G01*
X22243750Y-36625000D01*
G75*
G02*
X22025000Y-36406250I0J218750D01*
G01*
X22025000Y-35968750D01*
G75*
G02*
X22243750Y-35750000I218750J0D01*
G01*
G37*
G36*
G01*
X22243750Y-34175000D02*
X22756250Y-34175000D01*
G75*
G02*
X22975000Y-34393750I0J-218750D01*
G01*
X22975000Y-34831250D01*
G75*
G02*
X22756250Y-35050000I-218750J0D01*
G01*
X22243750Y-35050000D01*
G75*
G02*
X22025000Y-34831250I0J218750D01*
G01*
X22025000Y-34393750D01*
G75*
G02*
X22243750Y-34175000I218750J0D01*
G01*
G37*
G04 #@! TD*
G04 #@! TO.C,C18*
G36*
G01*
X18450000Y-21456250D02*
X18450000Y-20943750D01*
G75*
G02*
X18668750Y-20725000I218750J0D01*
G01*
X19106250Y-20725000D01*
G75*
G02*
X19325000Y-20943750I0J-218750D01*
G01*
X19325000Y-21456250D01*
G75*
G02*
X19106250Y-21675000I-218750J0D01*
G01*
X18668750Y-21675000D01*
G75*
G02*
X18450000Y-21456250I0J218750D01*
G01*
G37*
G36*
G01*
X16875000Y-21456250D02*
X16875000Y-20943750D01*
G75*
G02*
X17093750Y-20725000I218750J0D01*
G01*
X17531250Y-20725000D01*
G75*
G02*
X17750000Y-20943750I0J-218750D01*
G01*
X17750000Y-21456250D01*
G75*
G02*
X17531250Y-21675000I-218750J0D01*
G01*
X17093750Y-21675000D01*
G75*
G02*
X16875000Y-21456250I0J218750D01*
G01*
G37*
G04 #@! TD*
G04 #@! TO.C,C21*
G36*
G01*
X9150000Y-14743750D02*
X9150000Y-15256250D01*
G75*
G02*
X8931250Y-15475000I-218750J0D01*
G01*
X8493750Y-15475000D01*
G75*
G02*
X8275000Y-15256250I0J218750D01*
G01*
X8275000Y-14743750D01*
G75*
G02*
X8493750Y-14525000I218750J0D01*
G01*
X8931250Y-14525000D01*
G75*
G02*
X9150000Y-14743750I0J-218750D01*
G01*
G37*
G36*
G01*
X10725000Y-14743750D02*
X10725000Y-15256250D01*
G75*
G02*
X10506250Y-15475000I-218750J0D01*
G01*
X10068750Y-15475000D01*
G75*
G02*
X9850000Y-15256250I0J218750D01*
G01*
X9850000Y-14743750D01*
G75*
G02*
X10068750Y-14525000I218750J0D01*
G01*
X10506250Y-14525000D01*
G75*
G02*
X10725000Y-14743750I0J-218750D01*
G01*
G37*
G04 #@! TD*
G04 #@! TO.C,C20*
G36*
G01*
X12543750Y-12700000D02*
X13056250Y-12700000D01*
G75*
G02*
X13275000Y-12918750I0J-218750D01*
G01*
X13275000Y-13356250D01*
G75*
G02*
X13056250Y-13575000I-218750J0D01*
G01*
X12543750Y-13575000D01*
G75*
G02*
X12325000Y-13356250I0J218750D01*
G01*
X12325000Y-12918750D01*
G75*
G02*
X12543750Y-12700000I218750J0D01*
G01*
G37*
G36*
G01*
X12543750Y-11125000D02*
X13056250Y-11125000D01*
G75*
G02*
X13275000Y-11343750I0J-218750D01*
G01*
X13275000Y-11781250D01*
G75*
G02*
X13056250Y-12000000I-218750J0D01*
G01*
X12543750Y-12000000D01*
G75*
G02*
X12325000Y-11781250I0J218750D01*
G01*
X12325000Y-11343750D01*
G75*
G02*
X12543750Y-11125000I218750J0D01*
G01*
G37*
G04 #@! TD*
G04 #@! TO.C,L4*
G36*
G01*
X4550000Y-23349999D02*
X4550000Y-24250001D01*
G75*
G02*
X4300001Y-24500000I-249999J0D01*
G01*
X3649999Y-24500000D01*
G75*
G02*
X3400000Y-24250001I0J249999D01*
G01*
X3400000Y-23349999D01*
G75*
G02*
X3649999Y-23100000I249999J0D01*
G01*
X4300001Y-23100000D01*
G75*
G02*
X4550000Y-23349999I0J-249999D01*
G01*
G37*
G36*
G01*
X6600000Y-23349999D02*
X6600000Y-24250001D01*
G75*
G02*
X6350001Y-24500000I-249999J0D01*
G01*
X5699999Y-24500000D01*
G75*
G02*
X5450000Y-24250001I0J249999D01*
G01*
X5450000Y-23349999D01*
G75*
G02*
X5699999Y-23100000I249999J0D01*
G01*
X6350001Y-23100000D01*
G75*
G02*
X6600000Y-23349999I0J-249999D01*
G01*
G37*
G04 #@! TD*
G04 #@! TO.C,L3*
G36*
G01*
X4550000Y-25449999D02*
X4550000Y-26350001D01*
G75*
G02*
X4300001Y-26600000I-249999J0D01*
G01*
X3649999Y-26600000D01*
G75*
G02*
X3400000Y-26350001I0J249999D01*
G01*
X3400000Y-25449999D01*
G75*
G02*
X3649999Y-25200000I249999J0D01*
G01*
X4300001Y-25200000D01*
G75*
G02*
X4550000Y-25449999I0J-249999D01*
G01*
G37*
G36*
G01*
X6600000Y-25449999D02*
X6600000Y-26350001D01*
G75*
G02*
X6350001Y-26600000I-249999J0D01*
G01*
X5699999Y-26600000D01*
G75*
G02*
X5450000Y-26350001I0J249999D01*
G01*
X5450000Y-25449999D01*
G75*
G02*
X5699999Y-25200000I249999J0D01*
G01*
X6350001Y-25200000D01*
G75*
G02*
X6600000Y-25449999I0J-249999D01*
G01*
G37*
G04 #@! TD*
G04 #@! TO.C,C22*
G36*
G01*
X14743750Y-12700000D02*
X15256250Y-12700000D01*
G75*
G02*
X15475000Y-12918750I0J-218750D01*
G01*
X15475000Y-13356250D01*
G75*
G02*
X15256250Y-13575000I-218750J0D01*
G01*
X14743750Y-13575000D01*
G75*
G02*
X14525000Y-13356250I0J218750D01*
G01*
X14525000Y-12918750D01*
G75*
G02*
X14743750Y-12700000I218750J0D01*
G01*
G37*
G36*
G01*
X14743750Y-11125000D02*
X15256250Y-11125000D01*
G75*
G02*
X15475000Y-11343750I0J-218750D01*
G01*
X15475000Y-11781250D01*
G75*
G02*
X15256250Y-12000000I-218750J0D01*
G01*
X14743750Y-12000000D01*
G75*
G02*
X14525000Y-11781250I0J218750D01*
G01*
X14525000Y-11343750D01*
G75*
G02*
X14743750Y-11125000I218750J0D01*
G01*
G37*
G04 #@! TD*
G04 #@! TO.C,J4*
G36*
G01*
X25299309Y-11332997D02*
X24899857Y-11353932D01*
G75*
G02*
X24847309Y-11306618I-2617J49931D01*
G01*
X24842075Y-11206755D01*
G75*
G02*
X24889389Y-11154207I49931J2617D01*
G01*
X25288841Y-11133272D01*
G75*
G02*
X25341389Y-11180586I2617J-49931D01*
G01*
X25346623Y-11280449D01*
G75*
G02*
X25299309Y-11332997I-49931J-2617D01*
G01*
G37*
G36*
G01*
X25270524Y-10783750D02*
X24871072Y-10804685D01*
G75*
G02*
X24818524Y-10757371I-2617J49931D01*
G01*
X24813290Y-10657508D01*
G75*
G02*
X24860604Y-10604960I49931J2617D01*
G01*
X25260056Y-10584025D01*
G75*
G02*
X25312604Y-10631339I2617J-49931D01*
G01*
X25317838Y-10731202D01*
G75*
G02*
X25270524Y-10783750I-49931J-2617D01*
G01*
G37*
G36*
G01*
X24111633Y-10644212D02*
X24090698Y-10244760D01*
G75*
G02*
X24138012Y-10192212I49931J2617D01*
G01*
X24237875Y-10186978D01*
G75*
G02*
X24290423Y-10234292I2617J-49931D01*
G01*
X24311358Y-10633744D01*
G75*
G02*
X24264044Y-10686292I-49931J-2617D01*
G01*
X24164181Y-10691526D01*
G75*
G02*
X24111633Y-10644212I-2617J49931D01*
G01*
G37*
G36*
G01*
X24891016Y-9752199D02*
X25140673Y-9739115D01*
G75*
G02*
X25272044Y-9857402I6542J-124829D01*
G01*
X25295595Y-10306786D01*
G75*
G02*
X25177308Y-10438157I-124829J-6542D01*
G01*
X24927651Y-10451241D01*
G75*
G02*
X24796280Y-10332954I-6542J124829D01*
G01*
X24772729Y-9883570D01*
G75*
G02*
X24891016Y-9752199I124829J6542D01*
G01*
G37*
G36*
G01*
X24110324Y-10619246D02*
X24092006Y-10269725D01*
G75*
G02*
X24257607Y-10085806I174760J9159D01*
G01*
X25206305Y-10036087D01*
G75*
G02*
X25390224Y-10201688I9159J-174760D01*
G01*
X25408542Y-10551209D01*
G75*
G02*
X25242941Y-10735128I-174760J-9159D01*
G01*
X24294243Y-10784847D01*
G75*
G02*
X24110324Y-10619246I-9159J174760D01*
G01*
G37*
G36*
G01*
X24856785Y-10054405D02*
X25206306Y-10036087D01*
G75*
G02*
X25390225Y-10201688I9159J-174760D01*
G01*
X25439944Y-11150386D01*
G75*
G02*
X25274343Y-11334305I-174760J-9159D01*
G01*
X24924822Y-11352623D01*
G75*
G02*
X24740903Y-11187022I-9159J174760D01*
G01*
X24691184Y-10238324D01*
G75*
G02*
X24856785Y-10054405I174760J9159D01*
G01*
G37*
D25*
X25099794Y-10392150D03*
X24500617Y-10423551D03*
X25131196Y-10991327D03*
G04 #@! TD*
G04 #@! TO.C,J3*
G36*
G01*
X25549309Y-16332997D02*
X25149857Y-16353932D01*
G75*
G02*
X25097309Y-16306618I-2617J49931D01*
G01*
X25092075Y-16206755D01*
G75*
G02*
X25139389Y-16154207I49931J2617D01*
G01*
X25538841Y-16133272D01*
G75*
G02*
X25591389Y-16180586I2617J-49931D01*
G01*
X25596623Y-16280449D01*
G75*
G02*
X25549309Y-16332997I-49931J-2617D01*
G01*
G37*
G36*
G01*
X25520524Y-15783750D02*
X25121072Y-15804685D01*
G75*
G02*
X25068524Y-15757371I-2617J49931D01*
G01*
X25063290Y-15657508D01*
G75*
G02*
X25110604Y-15604960I49931J2617D01*
G01*
X25510056Y-15584025D01*
G75*
G02*
X25562604Y-15631339I2617J-49931D01*
G01*
X25567838Y-15731202D01*
G75*
G02*
X25520524Y-15783750I-49931J-2617D01*
G01*
G37*
G36*
G01*
X24361633Y-15644212D02*
X24340698Y-15244760D01*
G75*
G02*
X24388012Y-15192212I49931J2617D01*
G01*
X24487875Y-15186978D01*
G75*
G02*
X24540423Y-15234292I2617J-49931D01*
G01*
X24561358Y-15633744D01*
G75*
G02*
X24514044Y-15686292I-49931J-2617D01*
G01*
X24414181Y-15691526D01*
G75*
G02*
X24361633Y-15644212I-2617J49931D01*
G01*
G37*
G36*
G01*
X25141016Y-14752199D02*
X25390673Y-14739115D01*
G75*
G02*
X25522044Y-14857402I6542J-124829D01*
G01*
X25545595Y-15306786D01*
G75*
G02*
X25427308Y-15438157I-124829J-6542D01*
G01*
X25177651Y-15451241D01*
G75*
G02*
X25046280Y-15332954I-6542J124829D01*
G01*
X25022729Y-14883570D01*
G75*
G02*
X25141016Y-14752199I124829J6542D01*
G01*
G37*
G36*
G01*
X24360324Y-15619246D02*
X24342006Y-15269725D01*
G75*
G02*
X24507607Y-15085806I174760J9159D01*
G01*
X25456305Y-15036087D01*
G75*
G02*
X25640224Y-15201688I9159J-174760D01*
G01*
X25658542Y-15551209D01*
G75*
G02*
X25492941Y-15735128I-174760J-9159D01*
G01*
X24544243Y-15784847D01*
G75*
G02*
X24360324Y-15619246I-9159J174760D01*
G01*
G37*
G36*
G01*
X25106785Y-15054405D02*
X25456306Y-15036087D01*
G75*
G02*
X25640225Y-15201688I9159J-174760D01*
G01*
X25689944Y-16150386D01*
G75*
G02*
X25524343Y-16334305I-174760J-9159D01*
G01*
X25174822Y-16352623D01*
G75*
G02*
X24990903Y-16187022I-9159J174760D01*
G01*
X24941184Y-15238324D01*
G75*
G02*
X25106785Y-15054405I174760J9159D01*
G01*
G37*
X25349794Y-15392150D03*
X24750617Y-15423551D03*
X25381196Y-15991327D03*
G04 #@! TD*
G04 #@! TO.C,J6*
G36*
G01*
X3659302Y-15244760D02*
X3638367Y-15644212D01*
G75*
G02*
X3585819Y-15691526I-49931J2617D01*
G01*
X3485956Y-15686292D01*
G75*
G02*
X3438642Y-15633744I2617J49931D01*
G01*
X3459577Y-15234292D01*
G75*
G02*
X3512125Y-15186978I49931J-2617D01*
G01*
X3611988Y-15192212D01*
G75*
G02*
X3659302Y-15244760I-2617J-49931D01*
G01*
G37*
G36*
G01*
X2850143Y-16353932D02*
X2450691Y-16332997D01*
G75*
G02*
X2403377Y-16280449I2617J49931D01*
G01*
X2408611Y-16180586D01*
G75*
G02*
X2461159Y-16133272I49931J-2617D01*
G01*
X2860611Y-16154207D01*
G75*
G02*
X2907925Y-16206755I-2617J-49931D01*
G01*
X2902691Y-16306618D01*
G75*
G02*
X2850143Y-16353932I-49931J2617D01*
G01*
G37*
X2618804Y-15991327D03*
X3249383Y-15423551D03*
X2650206Y-15392150D03*
G36*
G01*
X2825178Y-16352623D02*
X2475657Y-16334305D01*
G75*
G02*
X2310056Y-16150386I9159J174760D01*
G01*
X2359775Y-15201688D01*
G75*
G02*
X2543694Y-15036087I174760J-9159D01*
G01*
X2893215Y-15054405D01*
G75*
G02*
X3058816Y-15238324I-9159J-174760D01*
G01*
X3009097Y-16187022D01*
G75*
G02*
X2825178Y-16352623I-174760J9159D01*
G01*
G37*
G36*
G01*
X2341458Y-15551209D02*
X2359776Y-15201688D01*
G75*
G02*
X2543695Y-15036087I174760J-9159D01*
G01*
X3492393Y-15085806D01*
G75*
G02*
X3657994Y-15269725I-9159J-174760D01*
G01*
X3639676Y-15619246D01*
G75*
G02*
X3455757Y-15784847I-174760J9159D01*
G01*
X2507059Y-15735128D01*
G75*
G02*
X2341458Y-15551209I9159J174760D01*
G01*
G37*
G04 #@! TD*
G04 #@! TO.C,J5*
G36*
G01*
X3909302Y-10244760D02*
X3888367Y-10644212D01*
G75*
G02*
X3835819Y-10691526I-49931J2617D01*
G01*
X3735956Y-10686292D01*
G75*
G02*
X3688642Y-10633744I2617J49931D01*
G01*
X3709577Y-10234292D01*
G75*
G02*
X3762125Y-10186978I49931J-2617D01*
G01*
X3861988Y-10192212D01*
G75*
G02*
X3909302Y-10244760I-2617J-49931D01*
G01*
G37*
G36*
G01*
X3100143Y-11353932D02*
X2700691Y-11332997D01*
G75*
G02*
X2653377Y-11280449I2617J49931D01*
G01*
X2658611Y-11180586D01*
G75*
G02*
X2711159Y-11133272I49931J-2617D01*
G01*
X3110611Y-11154207D01*
G75*
G02*
X3157925Y-11206755I-2617J-49931D01*
G01*
X3152691Y-11306618D01*
G75*
G02*
X3100143Y-11353932I-49931J2617D01*
G01*
G37*
X2868804Y-10991327D03*
X3499383Y-10423551D03*
X2900206Y-10392150D03*
G36*
G01*
X3075178Y-11352623D02*
X2725657Y-11334305D01*
G75*
G02*
X2560056Y-11150386I9159J174760D01*
G01*
X2609775Y-10201688D01*
G75*
G02*
X2793694Y-10036087I174760J-9159D01*
G01*
X3143215Y-10054405D01*
G75*
G02*
X3308816Y-10238324I-9159J-174760D01*
G01*
X3259097Y-11187022D01*
G75*
G02*
X3075178Y-11352623I-174760J9159D01*
G01*
G37*
G36*
G01*
X2591458Y-10551209D02*
X2609776Y-10201688D01*
G75*
G02*
X2793695Y-10036087I174760J-9159D01*
G01*
X3742393Y-10085806D01*
G75*
G02*
X3907994Y-10269725I-9159J-174760D01*
G01*
X3889676Y-10619246D01*
G75*
G02*
X3705757Y-10784847I-174760J9159D01*
G01*
X2757059Y-10735128D01*
G75*
G02*
X2591458Y-10551209I9159J174760D01*
G01*
G37*
G04 #@! TD*
G04 #@! TO.C,R23*
G36*
G01*
X22050000Y-11456250D02*
X22050000Y-10943750D01*
G75*
G02*
X22268750Y-10725000I218750J0D01*
G01*
X22706250Y-10725000D01*
G75*
G02*
X22925000Y-10943750I0J-218750D01*
G01*
X22925000Y-11456250D01*
G75*
G02*
X22706250Y-11675000I-218750J0D01*
G01*
X22268750Y-11675000D01*
G75*
G02*
X22050000Y-11456250I0J218750D01*
G01*
G37*
G36*
G01*
X20475000Y-11456250D02*
X20475000Y-10943750D01*
G75*
G02*
X20693750Y-10725000I218750J0D01*
G01*
X21131250Y-10725000D01*
G75*
G02*
X21350000Y-10943750I0J-218750D01*
G01*
X21350000Y-11456250D01*
G75*
G02*
X21131250Y-11675000I-218750J0D01*
G01*
X20693750Y-11675000D01*
G75*
G02*
X20475000Y-11456250I0J218750D01*
G01*
G37*
G04 #@! TD*
G04 #@! TO.C,R11*
G36*
G01*
X5550000Y-10843750D02*
X5550000Y-11356250D01*
G75*
G02*
X5331250Y-11575000I-218750J0D01*
G01*
X4893750Y-11575000D01*
G75*
G02*
X4675000Y-11356250I0J218750D01*
G01*
X4675000Y-10843750D01*
G75*
G02*
X4893750Y-10625000I218750J0D01*
G01*
X5331250Y-10625000D01*
G75*
G02*
X5550000Y-10843750I0J-218750D01*
G01*
G37*
G36*
G01*
X7125000Y-10843750D02*
X7125000Y-11356250D01*
G75*
G02*
X6906250Y-11575000I-218750J0D01*
G01*
X6468750Y-11575000D01*
G75*
G02*
X6250000Y-11356250I0J218750D01*
G01*
X6250000Y-10843750D01*
G75*
G02*
X6468750Y-10625000I218750J0D01*
G01*
X6906250Y-10625000D01*
G75*
G02*
X7125000Y-10843750I0J-218750D01*
G01*
G37*
G04 #@! TD*
G04 #@! TO.C,L9*
G36*
G01*
X10950000Y-31143750D02*
X10950000Y-31656250D01*
G75*
G02*
X10731250Y-31875000I-218750J0D01*
G01*
X10293750Y-31875000D01*
G75*
G02*
X10075000Y-31656250I0J218750D01*
G01*
X10075000Y-31143750D01*
G75*
G02*
X10293750Y-30925000I218750J0D01*
G01*
X10731250Y-30925000D01*
G75*
G02*
X10950000Y-31143750I0J-218750D01*
G01*
G37*
G36*
G01*
X12525000Y-31143750D02*
X12525000Y-31656250D01*
G75*
G02*
X12306250Y-31875000I-218750J0D01*
G01*
X11868750Y-31875000D01*
G75*
G02*
X11650000Y-31656250I0J218750D01*
G01*
X11650000Y-31143750D01*
G75*
G02*
X11868750Y-30925000I218750J0D01*
G01*
X12306250Y-30925000D01*
G75*
G02*
X12525000Y-31143750I0J-218750D01*
G01*
G37*
G04 #@! TD*
G04 #@! TO.C,C11*
G36*
G01*
X8950000Y-7643750D02*
X8950000Y-8156250D01*
G75*
G02*
X8731250Y-8375000I-218750J0D01*
G01*
X8293750Y-8375000D01*
G75*
G02*
X8075000Y-8156250I0J218750D01*
G01*
X8075000Y-7643750D01*
G75*
G02*
X8293750Y-7425000I218750J0D01*
G01*
X8731250Y-7425000D01*
G75*
G02*
X8950000Y-7643750I0J-218750D01*
G01*
G37*
G36*
G01*
X10525000Y-7643750D02*
X10525000Y-8156250D01*
G75*
G02*
X10306250Y-8375000I-218750J0D01*
G01*
X9868750Y-8375000D01*
G75*
G02*
X9650000Y-8156250I0J218750D01*
G01*
X9650000Y-7643750D01*
G75*
G02*
X9868750Y-7425000I218750J0D01*
G01*
X10306250Y-7425000D01*
G75*
G02*
X10525000Y-7643750I0J-218750D01*
G01*
G37*
G04 #@! TD*
G04 #@! TO.C,C1*
G36*
G01*
X18350000Y-7643750D02*
X18350000Y-8156250D01*
G75*
G02*
X18131250Y-8375000I-218750J0D01*
G01*
X17693750Y-8375000D01*
G75*
G02*
X17475000Y-8156250I0J218750D01*
G01*
X17475000Y-7643750D01*
G75*
G02*
X17693750Y-7425000I218750J0D01*
G01*
X18131250Y-7425000D01*
G75*
G02*
X18350000Y-7643750I0J-218750D01*
G01*
G37*
G36*
G01*
X19925000Y-7643750D02*
X19925000Y-8156250D01*
G75*
G02*
X19706250Y-8375000I-218750J0D01*
G01*
X19268750Y-8375000D01*
G75*
G02*
X19050000Y-8156250I0J218750D01*
G01*
X19050000Y-7643750D01*
G75*
G02*
X19268750Y-7425000I218750J0D01*
G01*
X19706250Y-7425000D01*
G75*
G02*
X19925000Y-7643750I0J-218750D01*
G01*
G37*
G04 #@! TD*
D26*
G04 #@! TO.C,H1*
X19000000Y-34700000D03*
G04 #@! TD*
G04 #@! TO.C,R12*
G36*
G01*
X18150000Y-15043750D02*
X18150000Y-15556250D01*
G75*
G02*
X17931250Y-15775000I-218750J0D01*
G01*
X17493750Y-15775000D01*
G75*
G02*
X17275000Y-15556250I0J218750D01*
G01*
X17275000Y-15043750D01*
G75*
G02*
X17493750Y-14825000I218750J0D01*
G01*
X17931250Y-14825000D01*
G75*
G02*
X18150000Y-15043750I0J-218750D01*
G01*
G37*
G36*
G01*
X19725000Y-15043750D02*
X19725000Y-15556250D01*
G75*
G02*
X19506250Y-15775000I-218750J0D01*
G01*
X19068750Y-15775000D01*
G75*
G02*
X18850000Y-15556250I0J218750D01*
G01*
X18850000Y-15043750D01*
G75*
G02*
X19068750Y-14825000I218750J0D01*
G01*
X19506250Y-14825000D01*
G75*
G02*
X19725000Y-15043750I0J-218750D01*
G01*
G37*
G04 #@! TD*
G04 #@! TO.C,L8*
G36*
G01*
X13343750Y-26550000D02*
X13856250Y-26550000D01*
G75*
G02*
X14075000Y-26768750I0J-218750D01*
G01*
X14075000Y-27206250D01*
G75*
G02*
X13856250Y-27425000I-218750J0D01*
G01*
X13343750Y-27425000D01*
G75*
G02*
X13125000Y-27206250I0J218750D01*
G01*
X13125000Y-26768750D01*
G75*
G02*
X13343750Y-26550000I218750J0D01*
G01*
G37*
G36*
G01*
X13343750Y-24975000D02*
X13856250Y-24975000D01*
G75*
G02*
X14075000Y-25193750I0J-218750D01*
G01*
X14075000Y-25631250D01*
G75*
G02*
X13856250Y-25850000I-218750J0D01*
G01*
X13343750Y-25850000D01*
G75*
G02*
X13125000Y-25631250I0J218750D01*
G01*
X13125000Y-25193750D01*
G75*
G02*
X13343750Y-24975000I218750J0D01*
G01*
G37*
G04 #@! TD*
G04 #@! TO.C,L7*
G36*
G01*
X8843750Y-26550000D02*
X9356250Y-26550000D01*
G75*
G02*
X9575000Y-26768750I0J-218750D01*
G01*
X9575000Y-27206250D01*
G75*
G02*
X9356250Y-27425000I-218750J0D01*
G01*
X8843750Y-27425000D01*
G75*
G02*
X8625000Y-27206250I0J218750D01*
G01*
X8625000Y-26768750D01*
G75*
G02*
X8843750Y-26550000I218750J0D01*
G01*
G37*
G36*
G01*
X8843750Y-24975000D02*
X9356250Y-24975000D01*
G75*
G02*
X9575000Y-25193750I0J-218750D01*
G01*
X9575000Y-25631250D01*
G75*
G02*
X9356250Y-25850000I-218750J0D01*
G01*
X8843750Y-25850000D01*
G75*
G02*
X8625000Y-25631250I0J218750D01*
G01*
X8625000Y-25193750D01*
G75*
G02*
X8843750Y-24975000I218750J0D01*
G01*
G37*
G04 #@! TD*
G04 #@! TO.C,L1*
G36*
G01*
X10856250Y-33250000D02*
X10343750Y-33250000D01*
G75*
G02*
X10125000Y-33031250I0J218750D01*
G01*
X10125000Y-32593750D01*
G75*
G02*
X10343750Y-32375000I218750J0D01*
G01*
X10856250Y-32375000D01*
G75*
G02*
X11075000Y-32593750I0J-218750D01*
G01*
X11075000Y-33031250D01*
G75*
G02*
X10856250Y-33250000I-218750J0D01*
G01*
G37*
G36*
G01*
X10856250Y-34825000D02*
X10343750Y-34825000D01*
G75*
G02*
X10125000Y-34606250I0J218750D01*
G01*
X10125000Y-34168750D01*
G75*
G02*
X10343750Y-33950000I218750J0D01*
G01*
X10856250Y-33950000D01*
G75*
G02*
X11075000Y-34168750I0J-218750D01*
G01*
X11075000Y-34606250D01*
G75*
G02*
X10856250Y-34825000I-218750J0D01*
G01*
G37*
G04 #@! TD*
G04 #@! TO.C,R15*
G36*
G01*
X9650000Y-9656250D02*
X9650000Y-9143750D01*
G75*
G02*
X9868750Y-8925000I218750J0D01*
G01*
X10306250Y-8925000D01*
G75*
G02*
X10525000Y-9143750I0J-218750D01*
G01*
X10525000Y-9656250D01*
G75*
G02*
X10306250Y-9875000I-218750J0D01*
G01*
X9868750Y-9875000D01*
G75*
G02*
X9650000Y-9656250I0J218750D01*
G01*
G37*
G36*
G01*
X8075000Y-9656250D02*
X8075000Y-9143750D01*
G75*
G02*
X8293750Y-8925000I218750J0D01*
G01*
X8731250Y-8925000D01*
G75*
G02*
X8950000Y-9143750I0J-218750D01*
G01*
X8950000Y-9656250D01*
G75*
G02*
X8731250Y-9875000I-218750J0D01*
G01*
X8293750Y-9875000D01*
G75*
G02*
X8075000Y-9656250I0J218750D01*
G01*
G37*
G04 #@! TD*
G04 #@! TO.C,C26*
G36*
G01*
X8843750Y-29550000D02*
X9356250Y-29550000D01*
G75*
G02*
X9575000Y-29768750I0J-218750D01*
G01*
X9575000Y-30206250D01*
G75*
G02*
X9356250Y-30425000I-218750J0D01*
G01*
X8843750Y-30425000D01*
G75*
G02*
X8625000Y-30206250I0J218750D01*
G01*
X8625000Y-29768750D01*
G75*
G02*
X8843750Y-29550000I218750J0D01*
G01*
G37*
G36*
G01*
X8843750Y-27975000D02*
X9356250Y-27975000D01*
G75*
G02*
X9575000Y-28193750I0J-218750D01*
G01*
X9575000Y-28631250D01*
G75*
G02*
X9356250Y-28850000I-218750J0D01*
G01*
X8843750Y-28850000D01*
G75*
G02*
X8625000Y-28631250I0J218750D01*
G01*
X8625000Y-28193750D01*
G75*
G02*
X8843750Y-27975000I218750J0D01*
G01*
G37*
G04 #@! TD*
D27*
G04 #@! TO.C,D2*
X5500000Y-22000000D03*
X4100000Y-22000000D03*
G04 #@! TD*
G04 #@! TO.C,D1*
X4100000Y-20500000D03*
X5500000Y-20500000D03*
G04 #@! TD*
D28*
G04 #@! TO.C,U4*
X20275000Y-25650000D03*
X19625000Y-25650000D03*
D29*
X18975000Y-25850000D03*
X18325000Y-25850000D03*
X18325000Y-22350000D03*
D28*
X18975000Y-22550000D03*
D29*
X19625000Y-22350000D03*
X20275000Y-22350000D03*
D30*
X19300000Y-24100000D03*
D31*
X18675000Y-24550000D03*
X18675000Y-23650000D03*
X19925000Y-24550000D03*
X19925000Y-23650000D03*
D29*
X20275000Y-25850000D03*
X19625000Y-25850000D03*
D28*
X18975000Y-25650000D03*
X18325000Y-25650000D03*
X18325000Y-22550000D03*
D29*
X18975000Y-22350000D03*
D28*
X19625000Y-22550000D03*
X20275000Y-22550000D03*
G04 #@! TD*
D32*
G04 #@! TO.C,U3*
X11450000Y-11025000D03*
X11450000Y-11675000D03*
D33*
X11650000Y-12325000D03*
X11650000Y-12975000D03*
X8150000Y-12975000D03*
D32*
X8350000Y-12325000D03*
D33*
X8150000Y-11675000D03*
X8150000Y-11025000D03*
D34*
X9900000Y-12000000D03*
D35*
X10350000Y-12625000D03*
X9450000Y-12625000D03*
X10350000Y-11375000D03*
X9450000Y-11375000D03*
D33*
X11650000Y-11025000D03*
X11650000Y-11675000D03*
D32*
X11450000Y-12325000D03*
X11450000Y-12975000D03*
X8350000Y-12975000D03*
D33*
X8150000Y-12325000D03*
D32*
X8350000Y-11675000D03*
X8350000Y-11025000D03*
G04 #@! TD*
G04 #@! TO.C,U2*
X16550000Y-12975000D03*
X16550000Y-12325000D03*
D33*
X16350000Y-11675000D03*
X16350000Y-11025000D03*
X19850000Y-11025000D03*
D32*
X19650000Y-11675000D03*
D33*
X19850000Y-12325000D03*
X19850000Y-12975000D03*
D34*
X18100000Y-12000000D03*
D35*
X17650000Y-11375000D03*
X18550000Y-11375000D03*
X17650000Y-12625000D03*
X18550000Y-12625000D03*
D33*
X16350000Y-12975000D03*
X16350000Y-12325000D03*
D32*
X16550000Y-11675000D03*
X16550000Y-11025000D03*
X19650000Y-11025000D03*
D33*
X19850000Y-11675000D03*
D32*
X19650000Y-12325000D03*
X19650000Y-12975000D03*
G04 #@! TD*
G04 #@! TO.C,R22*
G36*
G01*
X17650000Y-27256250D02*
X17650000Y-26743750D01*
G75*
G02*
X17868750Y-26525000I218750J0D01*
G01*
X18306250Y-26525000D01*
G75*
G02*
X18525000Y-26743750I0J-218750D01*
G01*
X18525000Y-27256250D01*
G75*
G02*
X18306250Y-27475000I-218750J0D01*
G01*
X17868750Y-27475000D01*
G75*
G02*
X17650000Y-27256250I0J218750D01*
G01*
G37*
G36*
G01*
X16075000Y-27256250D02*
X16075000Y-26743750D01*
G75*
G02*
X16293750Y-26525000I218750J0D01*
G01*
X16731250Y-26525000D01*
G75*
G02*
X16950000Y-26743750I0J-218750D01*
G01*
X16950000Y-27256250D01*
G75*
G02*
X16731250Y-27475000I-218750J0D01*
G01*
X16293750Y-27475000D01*
G75*
G02*
X16075000Y-27256250I0J218750D01*
G01*
G37*
G04 #@! TD*
G04 #@! TO.C,R21*
G36*
G01*
X21437500Y-19956250D02*
X21437500Y-19443750D01*
G75*
G02*
X21656250Y-19225000I218750J0D01*
G01*
X22093750Y-19225000D01*
G75*
G02*
X22312500Y-19443750I0J-218750D01*
G01*
X22312500Y-19956250D01*
G75*
G02*
X22093750Y-20175000I-218750J0D01*
G01*
X21656250Y-20175000D01*
G75*
G02*
X21437500Y-19956250I0J218750D01*
G01*
G37*
G36*
G01*
X19862500Y-19956250D02*
X19862500Y-19443750D01*
G75*
G02*
X20081250Y-19225000I218750J0D01*
G01*
X20518750Y-19225000D01*
G75*
G02*
X20737500Y-19443750I0J-218750D01*
G01*
X20737500Y-19956250D01*
G75*
G02*
X20518750Y-20175000I-218750J0D01*
G01*
X20081250Y-20175000D01*
G75*
G02*
X19862500Y-19956250I0J218750D01*
G01*
G37*
G04 #@! TD*
G04 #@! TO.C,R20*
G36*
G01*
X17750000Y-19443750D02*
X17750000Y-19956250D01*
G75*
G02*
X17531250Y-20175000I-218750J0D01*
G01*
X17093750Y-20175000D01*
G75*
G02*
X16875000Y-19956250I0J218750D01*
G01*
X16875000Y-19443750D01*
G75*
G02*
X17093750Y-19225000I218750J0D01*
G01*
X17531250Y-19225000D01*
G75*
G02*
X17750000Y-19443750I0J-218750D01*
G01*
G37*
G36*
G01*
X19325000Y-19443750D02*
X19325000Y-19956250D01*
G75*
G02*
X19106250Y-20175000I-218750J0D01*
G01*
X18668750Y-20175000D01*
G75*
G02*
X18450000Y-19956250I0J218750D01*
G01*
X18450000Y-19443750D01*
G75*
G02*
X18668750Y-19225000I218750J0D01*
G01*
X19106250Y-19225000D01*
G75*
G02*
X19325000Y-19443750I0J-218750D01*
G01*
G37*
G04 #@! TD*
G04 #@! TO.C,R19*
G36*
G01*
X18943750Y-17850000D02*
X19456250Y-17850000D01*
G75*
G02*
X19675000Y-18068750I0J-218750D01*
G01*
X19675000Y-18506250D01*
G75*
G02*
X19456250Y-18725000I-218750J0D01*
G01*
X18943750Y-18725000D01*
G75*
G02*
X18725000Y-18506250I0J218750D01*
G01*
X18725000Y-18068750D01*
G75*
G02*
X18943750Y-17850000I218750J0D01*
G01*
G37*
G36*
G01*
X18943750Y-16275000D02*
X19456250Y-16275000D01*
G75*
G02*
X19675000Y-16493750I0J-218750D01*
G01*
X19675000Y-16931250D01*
G75*
G02*
X19456250Y-17150000I-218750J0D01*
G01*
X18943750Y-17150000D01*
G75*
G02*
X18725000Y-16931250I0J218750D01*
G01*
X18725000Y-16493750D01*
G75*
G02*
X18943750Y-16275000I218750J0D01*
G01*
G37*
G04 #@! TD*
G04 #@! TO.C,R18*
G36*
G01*
X17443750Y-17850000D02*
X17956250Y-17850000D01*
G75*
G02*
X18175000Y-18068750I0J-218750D01*
G01*
X18175000Y-18506250D01*
G75*
G02*
X17956250Y-18725000I-218750J0D01*
G01*
X17443750Y-18725000D01*
G75*
G02*
X17225000Y-18506250I0J218750D01*
G01*
X17225000Y-18068750D01*
G75*
G02*
X17443750Y-17850000I218750J0D01*
G01*
G37*
G36*
G01*
X17443750Y-16275000D02*
X17956250Y-16275000D01*
G75*
G02*
X18175000Y-16493750I0J-218750D01*
G01*
X18175000Y-16931250D01*
G75*
G02*
X17956250Y-17150000I-218750J0D01*
G01*
X17443750Y-17150000D01*
G75*
G02*
X17225000Y-16931250I0J218750D01*
G01*
X17225000Y-16493750D01*
G75*
G02*
X17443750Y-16275000I218750J0D01*
G01*
G37*
G04 #@! TD*
G04 #@! TO.C,R17*
G36*
G01*
X9650000Y-6656250D02*
X9650000Y-6143750D01*
G75*
G02*
X9868750Y-5925000I218750J0D01*
G01*
X10306250Y-5925000D01*
G75*
G02*
X10525000Y-6143750I0J-218750D01*
G01*
X10525000Y-6656250D01*
G75*
G02*
X10306250Y-6875000I-218750J0D01*
G01*
X9868750Y-6875000D01*
G75*
G02*
X9650000Y-6656250I0J218750D01*
G01*
G37*
G36*
G01*
X8075000Y-6656250D02*
X8075000Y-6143750D01*
G75*
G02*
X8293750Y-5925000I218750J0D01*
G01*
X8731250Y-5925000D01*
G75*
G02*
X8950000Y-6143750I0J-218750D01*
G01*
X8950000Y-6656250D01*
G75*
G02*
X8731250Y-6875000I-218750J0D01*
G01*
X8293750Y-6875000D01*
G75*
G02*
X8075000Y-6656250I0J218750D01*
G01*
G37*
G04 #@! TD*
G04 #@! TO.C,R16*
G36*
G01*
X18350000Y-6143750D02*
X18350000Y-6656250D01*
G75*
G02*
X18131250Y-6875000I-218750J0D01*
G01*
X17693750Y-6875000D01*
G75*
G02*
X17475000Y-6656250I0J218750D01*
G01*
X17475000Y-6143750D01*
G75*
G02*
X17693750Y-5925000I218750J0D01*
G01*
X18131250Y-5925000D01*
G75*
G02*
X18350000Y-6143750I0J-218750D01*
G01*
G37*
G36*
G01*
X19925000Y-6143750D02*
X19925000Y-6656250D01*
G75*
G02*
X19706250Y-6875000I-218750J0D01*
G01*
X19268750Y-6875000D01*
G75*
G02*
X19050000Y-6656250I0J218750D01*
G01*
X19050000Y-6143750D01*
G75*
G02*
X19268750Y-5925000I218750J0D01*
G01*
X19706250Y-5925000D01*
G75*
G02*
X19925000Y-6143750I0J-218750D01*
G01*
G37*
G04 #@! TD*
G04 #@! TO.C,R14*
G36*
G01*
X19050000Y-9656250D02*
X19050000Y-9143750D01*
G75*
G02*
X19268750Y-8925000I218750J0D01*
G01*
X19706250Y-8925000D01*
G75*
G02*
X19925000Y-9143750I0J-218750D01*
G01*
X19925000Y-9656250D01*
G75*
G02*
X19706250Y-9875000I-218750J0D01*
G01*
X19268750Y-9875000D01*
G75*
G02*
X19050000Y-9656250I0J218750D01*
G01*
G37*
G36*
G01*
X17475000Y-9656250D02*
X17475000Y-9143750D01*
G75*
G02*
X17693750Y-8925000I218750J0D01*
G01*
X18131250Y-8925000D01*
G75*
G02*
X18350000Y-9143750I0J-218750D01*
G01*
X18350000Y-9656250D01*
G75*
G02*
X18131250Y-9875000I-218750J0D01*
G01*
X17693750Y-9875000D01*
G75*
G02*
X17475000Y-9656250I0J218750D01*
G01*
G37*
G04 #@! TD*
G04 #@! TO.C,R13*
G36*
G01*
X9850000Y-16756250D02*
X9850000Y-16243750D01*
G75*
G02*
X10068750Y-16025000I218750J0D01*
G01*
X10506250Y-16025000D01*
G75*
G02*
X10725000Y-16243750I0J-218750D01*
G01*
X10725000Y-16756250D01*
G75*
G02*
X10506250Y-16975000I-218750J0D01*
G01*
X10068750Y-16975000D01*
G75*
G02*
X9850000Y-16756250I0J218750D01*
G01*
G37*
G36*
G01*
X8275000Y-16756250D02*
X8275000Y-16243750D01*
G75*
G02*
X8493750Y-16025000I218750J0D01*
G01*
X8931250Y-16025000D01*
G75*
G02*
X9150000Y-16243750I0J-218750D01*
G01*
X9150000Y-16756250D01*
G75*
G02*
X8931250Y-16975000I-218750J0D01*
G01*
X8493750Y-16975000D01*
G75*
G02*
X8275000Y-16756250I0J218750D01*
G01*
G37*
G04 #@! TD*
G04 #@! TO.C,R10*
G36*
G01*
X7356250Y-6850000D02*
X6843750Y-6850000D01*
G75*
G02*
X6625000Y-6631250I0J218750D01*
G01*
X6625000Y-6193750D01*
G75*
G02*
X6843750Y-5975000I218750J0D01*
G01*
X7356250Y-5975000D01*
G75*
G02*
X7575000Y-6193750I0J-218750D01*
G01*
X7575000Y-6631250D01*
G75*
G02*
X7356250Y-6850000I-218750J0D01*
G01*
G37*
G36*
G01*
X7356250Y-8425000D02*
X6843750Y-8425000D01*
G75*
G02*
X6625000Y-8206250I0J218750D01*
G01*
X6625000Y-7768750D01*
G75*
G02*
X6843750Y-7550000I218750J0D01*
G01*
X7356250Y-7550000D01*
G75*
G02*
X7575000Y-7768750I0J-218750D01*
G01*
X7575000Y-8206250D01*
G75*
G02*
X7356250Y-8425000I-218750J0D01*
G01*
G37*
G04 #@! TD*
G04 #@! TO.C,R9*
G36*
G01*
X21156250Y-6850000D02*
X20643750Y-6850000D01*
G75*
G02*
X20425000Y-6631250I0J218750D01*
G01*
X20425000Y-6193750D01*
G75*
G02*
X20643750Y-5975000I218750J0D01*
G01*
X21156250Y-5975000D01*
G75*
G02*
X21375000Y-6193750I0J-218750D01*
G01*
X21375000Y-6631250D01*
G75*
G02*
X21156250Y-6850000I-218750J0D01*
G01*
G37*
G36*
G01*
X21156250Y-8425000D02*
X20643750Y-8425000D01*
G75*
G02*
X20425000Y-8206250I0J218750D01*
G01*
X20425000Y-7768750D01*
G75*
G02*
X20643750Y-7550000I218750J0D01*
G01*
X21156250Y-7550000D01*
G75*
G02*
X21375000Y-7768750I0J-218750D01*
G01*
X21375000Y-8206250D01*
G75*
G02*
X21156250Y-8425000I-218750J0D01*
G01*
G37*
G04 #@! TD*
G04 #@! TO.C,R6*
G36*
G01*
X7250000Y-32556250D02*
X7250000Y-32043750D01*
G75*
G02*
X7468750Y-31825000I218750J0D01*
G01*
X7906250Y-31825000D01*
G75*
G02*
X8125000Y-32043750I0J-218750D01*
G01*
X8125000Y-32556250D01*
G75*
G02*
X7906250Y-32775000I-218750J0D01*
G01*
X7468750Y-32775000D01*
G75*
G02*
X7250000Y-32556250I0J218750D01*
G01*
G37*
G36*
G01*
X5675000Y-32556250D02*
X5675000Y-32043750D01*
G75*
G02*
X5893750Y-31825000I218750J0D01*
G01*
X6331250Y-31825000D01*
G75*
G02*
X6550000Y-32043750I0J-218750D01*
G01*
X6550000Y-32556250D01*
G75*
G02*
X6331250Y-32775000I-218750J0D01*
G01*
X5893750Y-32775000D01*
G75*
G02*
X5675000Y-32556250I0J218750D01*
G01*
G37*
G04 #@! TD*
G04 #@! TO.C,R3*
G36*
G01*
X3550000Y-33543750D02*
X3550000Y-34056250D01*
G75*
G02*
X3331250Y-34275000I-218750J0D01*
G01*
X2893750Y-34275000D01*
G75*
G02*
X2675000Y-34056250I0J218750D01*
G01*
X2675000Y-33543750D01*
G75*
G02*
X2893750Y-33325000I218750J0D01*
G01*
X3331250Y-33325000D01*
G75*
G02*
X3550000Y-33543750I0J-218750D01*
G01*
G37*
G36*
G01*
X5125000Y-33543750D02*
X5125000Y-34056250D01*
G75*
G02*
X4906250Y-34275000I-218750J0D01*
G01*
X4468750Y-34275000D01*
G75*
G02*
X4250000Y-34056250I0J218750D01*
G01*
X4250000Y-33543750D01*
G75*
G02*
X4468750Y-33325000I218750J0D01*
G01*
X4906250Y-33325000D01*
G75*
G02*
X5125000Y-33543750I0J-218750D01*
G01*
G37*
G04 #@! TD*
G04 #@! TO.C,R2*
G36*
G01*
X7250000Y-34056250D02*
X7250000Y-33543750D01*
G75*
G02*
X7468750Y-33325000I218750J0D01*
G01*
X7906250Y-33325000D01*
G75*
G02*
X8125000Y-33543750I0J-218750D01*
G01*
X8125000Y-34056250D01*
G75*
G02*
X7906250Y-34275000I-218750J0D01*
G01*
X7468750Y-34275000D01*
G75*
G02*
X7250000Y-34056250I0J218750D01*
G01*
G37*
G36*
G01*
X5675000Y-34056250D02*
X5675000Y-33543750D01*
G75*
G02*
X5893750Y-33325000I218750J0D01*
G01*
X6331250Y-33325000D01*
G75*
G02*
X6550000Y-33543750I0J-218750D01*
G01*
X6550000Y-34056250D01*
G75*
G02*
X6331250Y-34275000I-218750J0D01*
G01*
X5893750Y-34275000D01*
G75*
G02*
X5675000Y-34056250I0J218750D01*
G01*
G37*
G04 #@! TD*
G04 #@! TO.C,R1*
G36*
G01*
X4250000Y-32556250D02*
X4250000Y-32043750D01*
G75*
G02*
X4468750Y-31825000I218750J0D01*
G01*
X4906250Y-31825000D01*
G75*
G02*
X5125000Y-32043750I0J-218750D01*
G01*
X5125000Y-32556250D01*
G75*
G02*
X4906250Y-32775000I-218750J0D01*
G01*
X4468750Y-32775000D01*
G75*
G02*
X4250000Y-32556250I0J218750D01*
G01*
G37*
G36*
G01*
X2675000Y-32556250D02*
X2675000Y-32043750D01*
G75*
G02*
X2893750Y-31825000I218750J0D01*
G01*
X3331250Y-31825000D01*
G75*
G02*
X3550000Y-32043750I0J-218750D01*
G01*
X3550000Y-32556250D01*
G75*
G02*
X3331250Y-32775000I-218750J0D01*
G01*
X2893750Y-32775000D01*
G75*
G02*
X2675000Y-32556250I0J218750D01*
G01*
G37*
G04 #@! TD*
G04 #@! TO.C,L6*
G36*
G01*
X11843750Y-26550000D02*
X12356250Y-26550000D01*
G75*
G02*
X12575000Y-26768750I0J-218750D01*
G01*
X12575000Y-27206250D01*
G75*
G02*
X12356250Y-27425000I-218750J0D01*
G01*
X11843750Y-27425000D01*
G75*
G02*
X11625000Y-27206250I0J218750D01*
G01*
X11625000Y-26768750D01*
G75*
G02*
X11843750Y-26550000I218750J0D01*
G01*
G37*
G36*
G01*
X11843750Y-24975000D02*
X12356250Y-24975000D01*
G75*
G02*
X12575000Y-25193750I0J-218750D01*
G01*
X12575000Y-25631250D01*
G75*
G02*
X12356250Y-25850000I-218750J0D01*
G01*
X11843750Y-25850000D01*
G75*
G02*
X11625000Y-25631250I0J218750D01*
G01*
X11625000Y-25193750D01*
G75*
G02*
X11843750Y-24975000I218750J0D01*
G01*
G37*
G04 #@! TD*
G04 #@! TO.C,L5*
G36*
G01*
X10343750Y-26550000D02*
X10856250Y-26550000D01*
G75*
G02*
X11075000Y-26768750I0J-218750D01*
G01*
X11075000Y-27206250D01*
G75*
G02*
X10856250Y-27425000I-218750J0D01*
G01*
X10343750Y-27425000D01*
G75*
G02*
X10125000Y-27206250I0J218750D01*
G01*
X10125000Y-26768750D01*
G75*
G02*
X10343750Y-26550000I218750J0D01*
G01*
G37*
G36*
G01*
X10343750Y-24975000D02*
X10856250Y-24975000D01*
G75*
G02*
X11075000Y-25193750I0J-218750D01*
G01*
X11075000Y-25631250D01*
G75*
G02*
X10856250Y-25850000I-218750J0D01*
G01*
X10343750Y-25850000D01*
G75*
G02*
X10125000Y-25631250I0J218750D01*
G01*
X10125000Y-25193750D01*
G75*
G02*
X10343750Y-24975000I218750J0D01*
G01*
G37*
G04 #@! TD*
G04 #@! TO.C,L2*
G36*
G01*
X8843750Y-35550000D02*
X9356250Y-35550000D01*
G75*
G02*
X9575000Y-35768750I0J-218750D01*
G01*
X9575000Y-36206250D01*
G75*
G02*
X9356250Y-36425000I-218750J0D01*
G01*
X8843750Y-36425000D01*
G75*
G02*
X8625000Y-36206250I0J218750D01*
G01*
X8625000Y-35768750D01*
G75*
G02*
X8843750Y-35550000I218750J0D01*
G01*
G37*
G36*
G01*
X8843750Y-33975000D02*
X9356250Y-33975000D01*
G75*
G02*
X9575000Y-34193750I0J-218750D01*
G01*
X9575000Y-34631250D01*
G75*
G02*
X9356250Y-34850000I-218750J0D01*
G01*
X8843750Y-34850000D01*
G75*
G02*
X8625000Y-34631250I0J218750D01*
G01*
X8625000Y-34193750D01*
G75*
G02*
X8843750Y-33975000I218750J0D01*
G01*
G37*
G04 #@! TD*
G04 #@! TO.C,C25*
G36*
G01*
X22250000Y-23643750D02*
X22250000Y-24156250D01*
G75*
G02*
X22031250Y-24375000I-218750J0D01*
G01*
X21593750Y-24375000D01*
G75*
G02*
X21375000Y-24156250I0J218750D01*
G01*
X21375000Y-23643750D01*
G75*
G02*
X21593750Y-23425000I218750J0D01*
G01*
X22031250Y-23425000D01*
G75*
G02*
X22250000Y-23643750I0J-218750D01*
G01*
G37*
G36*
G01*
X23825000Y-23643750D02*
X23825000Y-24156250D01*
G75*
G02*
X23606250Y-24375000I-218750J0D01*
G01*
X23168750Y-24375000D01*
G75*
G02*
X22950000Y-24156250I0J218750D01*
G01*
X22950000Y-23643750D01*
G75*
G02*
X23168750Y-23425000I218750J0D01*
G01*
X23606250Y-23425000D01*
G75*
G02*
X23825000Y-23643750I0J-218750D01*
G01*
G37*
G04 #@! TD*
G04 #@! TO.C,C24*
G36*
G01*
X22950000Y-25656250D02*
X22950000Y-25143750D01*
G75*
G02*
X23168750Y-24925000I218750J0D01*
G01*
X23606250Y-24925000D01*
G75*
G02*
X23825000Y-25143750I0J-218750D01*
G01*
X23825000Y-25656250D01*
G75*
G02*
X23606250Y-25875000I-218750J0D01*
G01*
X23168750Y-25875000D01*
G75*
G02*
X22950000Y-25656250I0J218750D01*
G01*
G37*
G36*
G01*
X21375000Y-25656250D02*
X21375000Y-25143750D01*
G75*
G02*
X21593750Y-24925000I218750J0D01*
G01*
X22031250Y-24925000D01*
G75*
G02*
X22250000Y-25143750I0J-218750D01*
G01*
X22250000Y-25656250D01*
G75*
G02*
X22031250Y-25875000I-218750J0D01*
G01*
X21593750Y-25875000D01*
G75*
G02*
X21375000Y-25656250I0J218750D01*
G01*
G37*
G04 #@! TD*
G04 #@! TO.C,C23*
G36*
G01*
X21350000Y-9443750D02*
X21350000Y-9956250D01*
G75*
G02*
X21131250Y-10175000I-218750J0D01*
G01*
X20693750Y-10175000D01*
G75*
G02*
X20475000Y-9956250I0J218750D01*
G01*
X20475000Y-9443750D01*
G75*
G02*
X20693750Y-9225000I218750J0D01*
G01*
X21131250Y-9225000D01*
G75*
G02*
X21350000Y-9443750I0J-218750D01*
G01*
G37*
G36*
G01*
X22925000Y-9443750D02*
X22925000Y-9956250D01*
G75*
G02*
X22706250Y-10175000I-218750J0D01*
G01*
X22268750Y-10175000D01*
G75*
G02*
X22050000Y-9956250I0J218750D01*
G01*
X22050000Y-9443750D01*
G75*
G02*
X22268750Y-9225000I218750J0D01*
G01*
X22706250Y-9225000D01*
G75*
G02*
X22925000Y-9443750I0J-218750D01*
G01*
G37*
G04 #@! TD*
G04 #@! TO.C,C19*
G36*
G01*
X20750000Y-20943750D02*
X20750000Y-21456250D01*
G75*
G02*
X20531250Y-21675000I-218750J0D01*
G01*
X20093750Y-21675000D01*
G75*
G02*
X19875000Y-21456250I0J218750D01*
G01*
X19875000Y-20943750D01*
G75*
G02*
X20093750Y-20725000I218750J0D01*
G01*
X20531250Y-20725000D01*
G75*
G02*
X20750000Y-20943750I0J-218750D01*
G01*
G37*
G36*
G01*
X22325000Y-20943750D02*
X22325000Y-21456250D01*
G75*
G02*
X22106250Y-21675000I-218750J0D01*
G01*
X21668750Y-21675000D01*
G75*
G02*
X21450000Y-21456250I0J218750D01*
G01*
X21450000Y-20943750D01*
G75*
G02*
X21668750Y-20725000I218750J0D01*
G01*
X22106250Y-20725000D01*
G75*
G02*
X22325000Y-20943750I0J-218750D01*
G01*
G37*
G04 #@! TD*
G04 #@! TO.C,C13*
G36*
G01*
X11843750Y-29550000D02*
X12356250Y-29550000D01*
G75*
G02*
X12575000Y-29768750I0J-218750D01*
G01*
X12575000Y-30206250D01*
G75*
G02*
X12356250Y-30425000I-218750J0D01*
G01*
X11843750Y-30425000D01*
G75*
G02*
X11625000Y-30206250I0J218750D01*
G01*
X11625000Y-29768750D01*
G75*
G02*
X11843750Y-29550000I218750J0D01*
G01*
G37*
G36*
G01*
X11843750Y-27975000D02*
X12356250Y-27975000D01*
G75*
G02*
X12575000Y-28193750I0J-218750D01*
G01*
X12575000Y-28631250D01*
G75*
G02*
X12356250Y-28850000I-218750J0D01*
G01*
X11843750Y-28850000D01*
G75*
G02*
X11625000Y-28631250I0J218750D01*
G01*
X11625000Y-28193750D01*
G75*
G02*
X11843750Y-27975000I218750J0D01*
G01*
G37*
G04 #@! TD*
G04 #@! TO.C,C12*
G36*
G01*
X10343750Y-29550000D02*
X10856250Y-29550000D01*
G75*
G02*
X11075000Y-29768750I0J-218750D01*
G01*
X11075000Y-30206250D01*
G75*
G02*
X10856250Y-30425000I-218750J0D01*
G01*
X10343750Y-30425000D01*
G75*
G02*
X10125000Y-30206250I0J218750D01*
G01*
X10125000Y-29768750D01*
G75*
G02*
X10343750Y-29550000I218750J0D01*
G01*
G37*
G36*
G01*
X10343750Y-27975000D02*
X10856250Y-27975000D01*
G75*
G02*
X11075000Y-28193750I0J-218750D01*
G01*
X11075000Y-28631250D01*
G75*
G02*
X10856250Y-28850000I-218750J0D01*
G01*
X10343750Y-28850000D01*
G75*
G02*
X10125000Y-28631250I0J218750D01*
G01*
X10125000Y-28193750D01*
G75*
G02*
X10343750Y-27975000I218750J0D01*
G01*
G37*
G04 #@! TD*
G04 #@! TO.C,C9*
G36*
G01*
X12550000Y-23743750D02*
X12550000Y-24256250D01*
G75*
G02*
X12331250Y-24475000I-218750J0D01*
G01*
X11893750Y-24475000D01*
G75*
G02*
X11675000Y-24256250I0J218750D01*
G01*
X11675000Y-23743750D01*
G75*
G02*
X11893750Y-23525000I218750J0D01*
G01*
X12331250Y-23525000D01*
G75*
G02*
X12550000Y-23743750I0J-218750D01*
G01*
G37*
G36*
G01*
X14125000Y-23743750D02*
X14125000Y-24256250D01*
G75*
G02*
X13906250Y-24475000I-218750J0D01*
G01*
X13468750Y-24475000D01*
G75*
G02*
X13250000Y-24256250I0J218750D01*
G01*
X13250000Y-23743750D01*
G75*
G02*
X13468750Y-23525000I218750J0D01*
G01*
X13906250Y-23525000D01*
G75*
G02*
X14125000Y-23743750I0J-218750D01*
G01*
G37*
G04 #@! TD*
G04 #@! TO.C,C8*
G36*
G01*
X10250000Y-24256250D02*
X10250000Y-23743750D01*
G75*
G02*
X10468750Y-23525000I218750J0D01*
G01*
X10906250Y-23525000D01*
G75*
G02*
X11125000Y-23743750I0J-218750D01*
G01*
X11125000Y-24256250D01*
G75*
G02*
X10906250Y-24475000I-218750J0D01*
G01*
X10468750Y-24475000D01*
G75*
G02*
X10250000Y-24256250I0J218750D01*
G01*
G37*
G36*
G01*
X8675000Y-24256250D02*
X8675000Y-23743750D01*
G75*
G02*
X8893750Y-23525000I218750J0D01*
G01*
X9331250Y-23525000D01*
G75*
G02*
X9550000Y-23743750I0J-218750D01*
G01*
X9550000Y-24256250D01*
G75*
G02*
X9331250Y-24475000I-218750J0D01*
G01*
X8893750Y-24475000D01*
G75*
G02*
X8675000Y-24256250I0J218750D01*
G01*
G37*
G04 #@! TD*
G04 #@! TO.C,C7*
G36*
G01*
X7950000Y-20756250D02*
X7950000Y-20243750D01*
G75*
G02*
X8168750Y-20025000I218750J0D01*
G01*
X8606250Y-20025000D01*
G75*
G02*
X8825000Y-20243750I0J-218750D01*
G01*
X8825000Y-20756250D01*
G75*
G02*
X8606250Y-20975000I-218750J0D01*
G01*
X8168750Y-20975000D01*
G75*
G02*
X7950000Y-20756250I0J218750D01*
G01*
G37*
G36*
G01*
X6375000Y-20756250D02*
X6375000Y-20243750D01*
G75*
G02*
X6593750Y-20025000I218750J0D01*
G01*
X7031250Y-20025000D01*
G75*
G02*
X7250000Y-20243750I0J-218750D01*
G01*
X7250000Y-20756250D01*
G75*
G02*
X7031250Y-20975000I-218750J0D01*
G01*
X6593750Y-20975000D01*
G75*
G02*
X6375000Y-20756250I0J218750D01*
G01*
G37*
G04 #@! TD*
G04 #@! TO.C,C6*
G36*
G01*
X7950000Y-22256250D02*
X7950000Y-21743750D01*
G75*
G02*
X8168750Y-21525000I218750J0D01*
G01*
X8606250Y-21525000D01*
G75*
G02*
X8825000Y-21743750I0J-218750D01*
G01*
X8825000Y-22256250D01*
G75*
G02*
X8606250Y-22475000I-218750J0D01*
G01*
X8168750Y-22475000D01*
G75*
G02*
X7950000Y-22256250I0J218750D01*
G01*
G37*
G36*
G01*
X6375000Y-22256250D02*
X6375000Y-21743750D01*
G75*
G02*
X6593750Y-21525000I218750J0D01*
G01*
X7031250Y-21525000D01*
G75*
G02*
X7250000Y-21743750I0J-218750D01*
G01*
X7250000Y-22256250D01*
G75*
G02*
X7031250Y-22475000I-218750J0D01*
G01*
X6593750Y-22475000D01*
G75*
G02*
X6375000Y-22256250I0J218750D01*
G01*
G37*
G04 #@! TD*
G04 #@! TO.C,C5*
G36*
G01*
X3550000Y-35043750D02*
X3550000Y-35556250D01*
G75*
G02*
X3331250Y-35775000I-218750J0D01*
G01*
X2893750Y-35775000D01*
G75*
G02*
X2675000Y-35556250I0J218750D01*
G01*
X2675000Y-35043750D01*
G75*
G02*
X2893750Y-34825000I218750J0D01*
G01*
X3331250Y-34825000D01*
G75*
G02*
X3550000Y-35043750I0J-218750D01*
G01*
G37*
G36*
G01*
X5125000Y-35043750D02*
X5125000Y-35556250D01*
G75*
G02*
X4906250Y-35775000I-218750J0D01*
G01*
X4468750Y-35775000D01*
G75*
G02*
X4250000Y-35556250I0J218750D01*
G01*
X4250000Y-35043750D01*
G75*
G02*
X4468750Y-34825000I218750J0D01*
G01*
X4906250Y-34825000D01*
G75*
G02*
X5125000Y-35043750I0J-218750D01*
G01*
G37*
G04 #@! TD*
G04 #@! TO.C,C4*
G36*
G01*
X7250000Y-35556250D02*
X7250000Y-35043750D01*
G75*
G02*
X7468750Y-34825000I218750J0D01*
G01*
X7906250Y-34825000D01*
G75*
G02*
X8125000Y-35043750I0J-218750D01*
G01*
X8125000Y-35556250D01*
G75*
G02*
X7906250Y-35775000I-218750J0D01*
G01*
X7468750Y-35775000D01*
G75*
G02*
X7250000Y-35556250I0J218750D01*
G01*
G37*
G36*
G01*
X5675000Y-35556250D02*
X5675000Y-35043750D01*
G75*
G02*
X5893750Y-34825000I218750J0D01*
G01*
X6331250Y-34825000D01*
G75*
G02*
X6550000Y-35043750I0J-218750D01*
G01*
X6550000Y-35556250D01*
G75*
G02*
X6331250Y-35775000I-218750J0D01*
G01*
X5893750Y-35775000D01*
G75*
G02*
X5675000Y-35556250I0J218750D01*
G01*
G37*
G04 #@! TD*
G04 #@! TO.C,C3*
G36*
G01*
X7856250Y-24562500D02*
X7343750Y-24562500D01*
G75*
G02*
X7125000Y-24343750I0J218750D01*
G01*
X7125000Y-23906250D01*
G75*
G02*
X7343750Y-23687500I218750J0D01*
G01*
X7856250Y-23687500D01*
G75*
G02*
X8075000Y-23906250I0J-218750D01*
G01*
X8075000Y-24343750D01*
G75*
G02*
X7856250Y-24562500I-218750J0D01*
G01*
G37*
G36*
G01*
X7856250Y-26137500D02*
X7343750Y-26137500D01*
G75*
G02*
X7125000Y-25918750I0J218750D01*
G01*
X7125000Y-25481250D01*
G75*
G02*
X7343750Y-25262500I218750J0D01*
G01*
X7856250Y-25262500D01*
G75*
G02*
X8075000Y-25481250I0J-218750D01*
G01*
X8075000Y-25918750D01*
G75*
G02*
X7856250Y-26137500I-218750J0D01*
G01*
G37*
G04 #@! TD*
G04 #@! TO.C,C2*
G36*
G01*
X9356250Y-31850000D02*
X8843750Y-31850000D01*
G75*
G02*
X8625000Y-31631250I0J218750D01*
G01*
X8625000Y-31193750D01*
G75*
G02*
X8843750Y-30975000I218750J0D01*
G01*
X9356250Y-30975000D01*
G75*
G02*
X9575000Y-31193750I0J-218750D01*
G01*
X9575000Y-31631250D01*
G75*
G02*
X9356250Y-31850000I-218750J0D01*
G01*
G37*
G36*
G01*
X9356250Y-33425000D02*
X8843750Y-33425000D01*
G75*
G02*
X8625000Y-33206250I0J218750D01*
G01*
X8625000Y-32768750D01*
G75*
G02*
X8843750Y-32550000I218750J0D01*
G01*
X9356250Y-32550000D01*
G75*
G02*
X9575000Y-32768750I0J-218750D01*
G01*
X9575000Y-33206250D01*
G75*
G02*
X9356250Y-33425000I-218750J0D01*
G01*
G37*
G04 #@! TD*
M02*
