G04 #@! TF.GenerationSoftware,KiCad,Pcbnew,5.1.9-73d0e3b20d~88~ubuntu20.04.1*
G04 #@! TF.CreationDate,2021-08-20T12:19:55+03:00*
G04 #@! TF.ProjectId,diff_probe_amplifier,64696666-5f70-4726-9f62-655f616d706c,rev?*
G04 #@! TF.SameCoordinates,Original*
G04 #@! TF.FileFunction,Copper,L1,Top*
G04 #@! TF.FilePolarity,Positive*
%FSLAX46Y46*%
G04 Gerber Fmt 4.6, Leading zero omitted, Abs format (unit mm)*
G04 Created by KiCad (PCBNEW 5.1.9-73d0e3b20d~88~ubuntu20.04.1) date 2021-08-20 12:19:55*
%MOMM*%
%LPD*%
G01*
G04 APERTURE LIST*
G04 #@! TA.AperFunction,SMDPad,CuDef*
%ADD10R,1.400000X1.200000*%
G04 #@! TD*
G04 #@! TA.AperFunction,SMDPad,CuDef*
%ADD11R,1.500000X3.300000*%
G04 #@! TD*
G04 #@! TA.AperFunction,SMDPad,CuDef*
%ADD12R,0.700000X0.250000*%
G04 #@! TD*
G04 #@! TA.AperFunction,SMDPad,CuDef*
%ADD13C,0.350000*%
G04 #@! TD*
G04 #@! TA.AperFunction,SMDPad,CuDef*
%ADD14R,1.100000X2.600000*%
G04 #@! TD*
G04 #@! TA.AperFunction,SMDPad,CuDef*
%ADD15R,2.000000X1.300000*%
G04 #@! TD*
G04 #@! TA.AperFunction,SMDPad,CuDef*
%ADD16R,2.000000X2.000000*%
G04 #@! TD*
G04 #@! TA.AperFunction,SMDPad,CuDef*
%ADD17R,1.100000X2.000000*%
G04 #@! TD*
G04 #@! TA.AperFunction,ComponentPad*
%ADD18R,1.000000X0.800000*%
G04 #@! TD*
G04 #@! TA.AperFunction,ComponentPad*
%ADD19C,1.500000*%
G04 #@! TD*
G04 #@! TA.AperFunction,SMDPad,CuDef*
%ADD20R,0.800000X0.900000*%
G04 #@! TD*
G04 #@! TA.AperFunction,ComponentPad*
%ADD21C,0.600000*%
G04 #@! TD*
G04 #@! TA.AperFunction,ComponentPad*
%ADD22C,4.200000*%
G04 #@! TD*
G04 #@! TA.AperFunction,SMDPad,CuDef*
%ADD23R,0.600000X0.700000*%
G04 #@! TD*
G04 #@! TA.AperFunction,SMDPad,CuDef*
%ADD24O,0.400000X0.650000*%
G04 #@! TD*
G04 #@! TA.AperFunction,SMDPad,CuDef*
%ADD25R,0.400000X0.300000*%
G04 #@! TD*
G04 #@! TA.AperFunction,SMDPad,CuDef*
%ADD26R,2.400000X1.650000*%
G04 #@! TD*
G04 #@! TA.AperFunction,SMDPad,CuDef*
%ADD27R,1.000000X0.650000*%
G04 #@! TD*
G04 #@! TA.AperFunction,SMDPad,CuDef*
%ADD28O,0.650000X0.400000*%
G04 #@! TD*
G04 #@! TA.AperFunction,SMDPad,CuDef*
%ADD29R,0.300000X0.400000*%
G04 #@! TD*
G04 #@! TA.AperFunction,SMDPad,CuDef*
%ADD30R,1.650000X2.400000*%
G04 #@! TD*
G04 #@! TA.AperFunction,SMDPad,CuDef*
%ADD31R,0.650000X1.000000*%
G04 #@! TD*
G04 #@! TA.AperFunction,ViaPad*
%ADD32C,0.600000*%
G04 #@! TD*
G04 #@! TA.AperFunction,Conductor*
%ADD33C,0.500000*%
G04 #@! TD*
G04 #@! TA.AperFunction,Conductor*
%ADD34C,0.250000*%
G04 #@! TD*
G04 #@! TA.AperFunction,Conductor*
%ADD35C,0.300000*%
G04 #@! TD*
G04 #@! TA.AperFunction,Conductor*
%ADD36C,0.350000*%
G04 #@! TD*
%ADD37C,0.300000*%
%ADD38C,0.350000*%
G04 APERTURE END LIST*
D10*
G04 #@! TO.P,C17,1*
G04 #@! TO.N,/IN-*
X5900000Y-13000000D03*
G04 #@! TO.P,C17,2*
G04 #@! TO.N,GNDA*
X5900000Y-16850000D03*
G04 #@! TD*
G04 #@! TO.P,C16,2*
G04 #@! TO.N,GNDA*
X22100000Y-16850000D03*
G04 #@! TO.P,C16,1*
G04 #@! TO.N,/IN+*
X22100000Y-13000000D03*
G04 #@! TD*
D11*
G04 #@! TO.P,U1,13*
G04 #@! TO.N,GND*
X5500000Y-29200000D03*
D12*
G04 #@! TO.P,U1,12*
X6950000Y-27950000D03*
G04 #@! TO.P,U1,11*
G04 #@! TO.N,Net-(C26-Pad1)*
X6950000Y-28450000D03*
G04 #@! TO.P,U1,10*
G04 #@! TO.N,GND*
X6950000Y-28950000D03*
G04 #@! TO.P,U1,9*
G04 #@! TO.N,Net-(C4-Pad2)*
X6950000Y-29450000D03*
G04 #@! TO.P,U1,8*
G04 #@! TO.N,Net-(C26-Pad1)*
X6950000Y-29950000D03*
G04 #@! TO.P,U1,7*
G04 #@! TO.N,Net-(R1-Pad2)*
X6950000Y-30450000D03*
G04 #@! TO.P,U1,6*
G04 #@! TO.N,Net-(C5-Pad2)*
X4050000Y-30450000D03*
G04 #@! TO.P,U1,5*
G04 #@! TO.N,Net-(C26-Pad1)*
X4050000Y-29950000D03*
G04 #@! TO.P,U1,4*
G04 #@! TO.N,Net-(U1-Pad4)*
X4050000Y-29450000D03*
G04 #@! TO.P,U1,3*
G04 #@! TO.N,Net-(D1-Pad1)*
X4050000Y-28950000D03*
G04 #@! TO.P,U1,2*
G04 #@! TO.N,Net-(D2-Pad2)*
X4050000Y-28450000D03*
G04 #@! TO.P,U1,1*
G04 #@! TO.N,N/C*
X4050000Y-27950000D03*
G04 #@! TD*
G04 #@! TA.AperFunction,SMDPad,CuDef*
D13*
G04 #@! TO.P,J8,2*
G04 #@! TO.N,GNDA*
G36*
X5900000Y-5150000D02*
G01*
X5900000Y850000D01*
X6250000Y1350000D01*
X6250000Y-2350000D01*
X7450000Y-2350000D01*
X7450000Y-5150000D01*
X5900000Y-5150000D01*
G37*
G04 #@! TD.AperFunction*
G04 #@! TA.AperFunction,SMDPad,CuDef*
G36*
X8950000Y-5150000D02*
G01*
X8950000Y-2350000D01*
X10150000Y-2350000D01*
X10150000Y1350000D01*
X10500000Y1350000D01*
X10500000Y-5150000D01*
X8950000Y-5150000D01*
G37*
G04 #@! TD.AperFunction*
D14*
G04 #@! TO.P,J8,1*
G04 #@! TO.N,/CONN_IN-*
X8200000Y-3850000D03*
G04 #@! TD*
G04 #@! TA.AperFunction,SMDPad,CuDef*
D13*
G04 #@! TO.P,J7,2*
G04 #@! TO.N,GNDA*
G36*
X17500000Y-5150000D02*
G01*
X17500000Y1350000D01*
X17850000Y1350000D01*
X17850000Y-2350000D01*
X19050000Y-2350000D01*
X19050000Y-5150000D01*
X17500000Y-5150000D01*
G37*
G04 #@! TD.AperFunction*
G04 #@! TA.AperFunction,SMDPad,CuDef*
G36*
X20550000Y-5150000D02*
G01*
X20550000Y-2350000D01*
X21750000Y-2350000D01*
X21750000Y1350000D01*
X22100000Y850000D01*
X22100000Y-5150000D01*
X20550000Y-5150000D01*
G37*
G04 #@! TD.AperFunction*
D14*
G04 #@! TO.P,J7,1*
G04 #@! TO.N,/CONN_IN+*
X19800000Y-3850000D03*
G04 #@! TD*
D15*
G04 #@! TO.P,RV2,3*
G04 #@! TO.N,+6V*
X24500000Y-28050000D03*
D16*
G04 #@! TO.P,RV2,2*
G04 #@! TO.N,/OFFSET_TRIM*
X20500000Y-29200000D03*
D15*
G04 #@! TO.P,RV2,1*
G04 #@! TO.N,-6V*
X24500000Y-30350000D03*
G04 #@! TD*
D17*
G04 #@! TO.P,RV1,3*
G04 #@! TO.N,Net-(R13-Pad2)*
X12750000Y-15100000D03*
D16*
G04 #@! TO.P,RV1,2*
G04 #@! TO.N,GNDA*
X14000000Y-19100000D03*
D17*
G04 #@! TO.P,RV1,1*
G04 #@! TO.N,Net-(R12-Pad2)*
X15250000Y-15100000D03*
G04 #@! TD*
D18*
G04 #@! TO.P,J1,2*
G04 #@! TO.N,GNDA*
X13500000Y-33100000D03*
X13500000Y-32300000D03*
X13500000Y-31500000D03*
X14500000Y-31500000D03*
X14500000Y-32300000D03*
G04 #@! TO.P,J1,3*
G04 #@! TO.N,+5V*
X15700000Y-34700000D03*
X15700000Y-35500000D03*
X15700000Y-36300000D03*
X12300000Y-34700000D03*
X12300000Y-35500000D03*
X12300000Y-36300000D03*
D19*
G04 #@! TO.P,J1,1*
G04 #@! TO.N,/OUT*
X14000000Y-29400000D03*
D18*
G04 #@! TO.P,J1,2*
G04 #@! TO.N,GNDA*
X14500000Y-33100000D03*
G04 #@! TD*
G04 #@! TO.P,SW1,4*
G04 #@! TO.N,N/C*
G04 #@! TA.AperFunction,SMDPad,CuDef*
G36*
G01*
X11750000Y-7000000D02*
X13250000Y-7000000D01*
G75*
G02*
X13500000Y-7250000I0J-250000D01*
G01*
X13500000Y-7750000D01*
G75*
G02*
X13250000Y-8000000I-250000J0D01*
G01*
X11750000Y-8000000D01*
G75*
G02*
X11500000Y-7750000I0J250000D01*
G01*
X11500000Y-7250000D01*
G75*
G02*
X11750000Y-7000000I250000J0D01*
G01*
G37*
G04 #@! TD.AperFunction*
G04 #@! TO.P,SW1,3*
G04 #@! TA.AperFunction,SMDPad,CuDef*
G36*
G01*
X11750000Y-4500000D02*
X15250000Y-4500000D01*
G75*
G02*
X15500000Y-4750000I0J-250000D01*
G01*
X15500000Y-5250000D01*
G75*
G02*
X15250000Y-5500000I-250000J0D01*
G01*
X11750000Y-5500000D01*
G75*
G02*
X11500000Y-5250000I0J250000D01*
G01*
X11500000Y-4750000D01*
G75*
G02*
X11750000Y-4500000I250000J0D01*
G01*
G37*
G04 #@! TD.AperFunction*
G04 #@! TO.P,SW1,1*
G04 #@! TO.N,Net-(R17-Pad2)*
G04 #@! TA.AperFunction,SMDPad,CuDef*
G36*
G01*
X11750000Y-2000000D02*
X13250000Y-2000000D01*
G75*
G02*
X13500000Y-2250000I0J-250000D01*
G01*
X13500000Y-2750000D01*
G75*
G02*
X13250000Y-3000000I-250000J0D01*
G01*
X11750000Y-3000000D01*
G75*
G02*
X11500000Y-2750000I0J250000D01*
G01*
X11500000Y-2250000D01*
G75*
G02*
X11750000Y-2000000I250000J0D01*
G01*
G37*
G04 #@! TD.AperFunction*
G04 #@! TO.P,SW1,4*
G04 #@! TO.N,N/C*
G04 #@! TA.AperFunction,SMDPad,CuDef*
G36*
G01*
X14750000Y-7000000D02*
X16250000Y-7000000D01*
G75*
G02*
X16500000Y-7250000I0J-250000D01*
G01*
X16500000Y-7750000D01*
G75*
G02*
X16250000Y-8000000I-250000J0D01*
G01*
X14750000Y-8000000D01*
G75*
G02*
X14500000Y-7750000I0J250000D01*
G01*
X14500000Y-7250000D01*
G75*
G02*
X14750000Y-7000000I250000J0D01*
G01*
G37*
G04 #@! TD.AperFunction*
G04 #@! TO.P,SW1,3*
G04 #@! TA.AperFunction,SMDPad,CuDef*
G36*
G01*
X14750000Y-4500000D02*
X16250000Y-4500000D01*
G75*
G02*
X16500000Y-4750000I0J-250000D01*
G01*
X16500000Y-5250000D01*
G75*
G02*
X16250000Y-5500000I-250000J0D01*
G01*
X14750000Y-5500000D01*
G75*
G02*
X14500000Y-5250000I0J250000D01*
G01*
X14500000Y-4750000D01*
G75*
G02*
X14750000Y-4500000I250000J0D01*
G01*
G37*
G04 #@! TD.AperFunction*
G04 #@! TO.P,SW1,2*
G04 #@! TO.N,Net-(R16-Pad2)*
G04 #@! TA.AperFunction,SMDPad,CuDef*
G36*
G01*
X14750000Y-2000000D02*
X16250000Y-2000000D01*
G75*
G02*
X16500000Y-2250000I0J-250000D01*
G01*
X16500000Y-2750000D01*
G75*
G02*
X16250000Y-3000000I-250000J0D01*
G01*
X14750000Y-3000000D01*
G75*
G02*
X14500000Y-2750000I0J250000D01*
G01*
X14500000Y-2250000D01*
G75*
G02*
X14750000Y-2000000I250000J0D01*
G01*
G37*
G04 #@! TD.AperFunction*
G04 #@! TD*
G04 #@! TO.P,R8,2*
G04 #@! TO.N,GNDA*
G04 #@! TA.AperFunction,SMDPad,CuDef*
G36*
G01*
X24256250Y-35050000D02*
X23743750Y-35050000D01*
G75*
G02*
X23525000Y-34831250I0J218750D01*
G01*
X23525000Y-34393750D01*
G75*
G02*
X23743750Y-34175000I218750J0D01*
G01*
X24256250Y-34175000D01*
G75*
G02*
X24475000Y-34393750I0J-218750D01*
G01*
X24475000Y-34831250D01*
G75*
G02*
X24256250Y-35050000I-218750J0D01*
G01*
G37*
G04 #@! TD.AperFunction*
G04 #@! TO.P,R8,1*
G04 #@! TO.N,Net-(D3-Pad2)*
G04 #@! TA.AperFunction,SMDPad,CuDef*
G36*
G01*
X24256250Y-36625000D02*
X23743750Y-36625000D01*
G75*
G02*
X23525000Y-36406250I0J218750D01*
G01*
X23525000Y-35968750D01*
G75*
G02*
X23743750Y-35750000I218750J0D01*
G01*
X24256250Y-35750000D01*
G75*
G02*
X24475000Y-35968750I0J-218750D01*
G01*
X24475000Y-36406250D01*
G75*
G02*
X24256250Y-36625000I-218750J0D01*
G01*
G37*
G04 #@! TD.AperFunction*
G04 #@! TD*
G04 #@! TO.P,R7,2*
G04 #@! TO.N,/OUT*
G04 #@! TA.AperFunction,SMDPad,CuDef*
G36*
G01*
X16950000Y-28243750D02*
X16950000Y-28756250D01*
G75*
G02*
X16731250Y-28975000I-218750J0D01*
G01*
X16293750Y-28975000D01*
G75*
G02*
X16075000Y-28756250I0J218750D01*
G01*
X16075000Y-28243750D01*
G75*
G02*
X16293750Y-28025000I218750J0D01*
G01*
X16731250Y-28025000D01*
G75*
G02*
X16950000Y-28243750I0J-218750D01*
G01*
G37*
G04 #@! TD.AperFunction*
G04 #@! TO.P,R7,1*
G04 #@! TO.N,/OFFSET_TRIM*
G04 #@! TA.AperFunction,SMDPad,CuDef*
G36*
G01*
X18525000Y-28243750D02*
X18525000Y-28756250D01*
G75*
G02*
X18306250Y-28975000I-218750J0D01*
G01*
X17868750Y-28975000D01*
G75*
G02*
X17650000Y-28756250I0J218750D01*
G01*
X17650000Y-28243750D01*
G75*
G02*
X17868750Y-28025000I218750J0D01*
G01*
X18306250Y-28025000D01*
G75*
G02*
X18525000Y-28243750I0J-218750D01*
G01*
G37*
G04 #@! TD.AperFunction*
G04 #@! TD*
G04 #@! TO.P,R4,2*
G04 #@! TO.N,Net-(R17-Pad2)*
G04 #@! TA.AperFunction,SMDPad,CuDef*
G36*
G01*
X13650000Y1056250D02*
X13650000Y543750D01*
G75*
G02*
X13431250Y325000I-218750J0D01*
G01*
X12993750Y325000D01*
G75*
G02*
X12775000Y543750I0J218750D01*
G01*
X12775000Y1056250D01*
G75*
G02*
X12993750Y1275000I218750J0D01*
G01*
X13431250Y1275000D01*
G75*
G02*
X13650000Y1056250I0J-218750D01*
G01*
G37*
G04 #@! TD.AperFunction*
G04 #@! TO.P,R4,1*
G04 #@! TO.N,Net-(R16-Pad2)*
G04 #@! TA.AperFunction,SMDPad,CuDef*
G36*
G01*
X15225000Y1056250D02*
X15225000Y543750D01*
G75*
G02*
X15006250Y325000I-218750J0D01*
G01*
X14568750Y325000D01*
G75*
G02*
X14350000Y543750I0J218750D01*
G01*
X14350000Y1056250D01*
G75*
G02*
X14568750Y1275000I218750J0D01*
G01*
X15006250Y1275000D01*
G75*
G02*
X15225000Y1056250I0J-218750D01*
G01*
G37*
G04 #@! TD.AperFunction*
G04 #@! TD*
D20*
G04 #@! TO.P,D6,3*
G04 #@! TO.N,Net-(D6-Pad3)*
X17400000Y-32000000D03*
G04 #@! TO.P,D6,2*
G04 #@! TO.N,GNDA*
X16450000Y-30000000D03*
G04 #@! TO.P,D6,1*
G04 #@! TO.N,/OUT*
X18350000Y-30000000D03*
G04 #@! TD*
G04 #@! TO.P,D5,3*
G04 #@! TO.N,Net-(D5-Pad3)*
X4500000Y-5900000D03*
G04 #@! TO.P,D5,2*
G04 #@! TO.N,/IN-*
X5450000Y-7900000D03*
G04 #@! TO.P,D5,1*
G04 #@! TO.N,GNDA*
X3550000Y-7900000D03*
G04 #@! TD*
G04 #@! TO.P,D4,3*
G04 #@! TO.N,Net-(D4-Pad3)*
X23500000Y-5900000D03*
G04 #@! TO.P,D4,2*
G04 #@! TO.N,GNDA*
X24450000Y-7900000D03*
G04 #@! TO.P,D4,1*
G04 #@! TO.N,/IN+*
X22550000Y-7900000D03*
G04 #@! TD*
G04 #@! TO.P,D3,2*
G04 #@! TO.N,Net-(D3-Pad2)*
G04 #@! TA.AperFunction,SMDPad,CuDef*
G36*
G01*
X22243750Y-35750000D02*
X22756250Y-35750000D01*
G75*
G02*
X22975000Y-35968750I0J-218750D01*
G01*
X22975000Y-36406250D01*
G75*
G02*
X22756250Y-36625000I-218750J0D01*
G01*
X22243750Y-36625000D01*
G75*
G02*
X22025000Y-36406250I0J218750D01*
G01*
X22025000Y-35968750D01*
G75*
G02*
X22243750Y-35750000I218750J0D01*
G01*
G37*
G04 #@! TD.AperFunction*
G04 #@! TO.P,D3,1*
G04 #@! TO.N,-6V*
G04 #@! TA.AperFunction,SMDPad,CuDef*
G36*
G01*
X22243750Y-34175000D02*
X22756250Y-34175000D01*
G75*
G02*
X22975000Y-34393750I0J-218750D01*
G01*
X22975000Y-34831250D01*
G75*
G02*
X22756250Y-35050000I-218750J0D01*
G01*
X22243750Y-35050000D01*
G75*
G02*
X22025000Y-34831250I0J218750D01*
G01*
X22025000Y-34393750D01*
G75*
G02*
X22243750Y-34175000I218750J0D01*
G01*
G37*
G04 #@! TD.AperFunction*
G04 #@! TD*
G04 #@! TO.P,C18,2*
G04 #@! TO.N,Net-(C18-Pad2)*
G04 #@! TA.AperFunction,SMDPad,CuDef*
G36*
G01*
X18450000Y-21456250D02*
X18450000Y-20943750D01*
G75*
G02*
X18668750Y-20725000I218750J0D01*
G01*
X19106250Y-20725000D01*
G75*
G02*
X19325000Y-20943750I0J-218750D01*
G01*
X19325000Y-21456250D01*
G75*
G02*
X19106250Y-21675000I-218750J0D01*
G01*
X18668750Y-21675000D01*
G75*
G02*
X18450000Y-21456250I0J218750D01*
G01*
G37*
G04 #@! TD.AperFunction*
G04 #@! TO.P,C18,1*
G04 #@! TO.N,GNDA*
G04 #@! TA.AperFunction,SMDPad,CuDef*
G36*
G01*
X16875000Y-21456250D02*
X16875000Y-20943750D01*
G75*
G02*
X17093750Y-20725000I218750J0D01*
G01*
X17531250Y-20725000D01*
G75*
G02*
X17750000Y-20943750I0J-218750D01*
G01*
X17750000Y-21456250D01*
G75*
G02*
X17531250Y-21675000I-218750J0D01*
G01*
X17093750Y-21675000D01*
G75*
G02*
X16875000Y-21456250I0J218750D01*
G01*
G37*
G04 #@! TD.AperFunction*
G04 #@! TD*
G04 #@! TO.P,C21,2*
G04 #@! TO.N,-6V*
G04 #@! TA.AperFunction,SMDPad,CuDef*
G36*
G01*
X9150000Y-14743750D02*
X9150000Y-15256250D01*
G75*
G02*
X8931250Y-15475000I-218750J0D01*
G01*
X8493750Y-15475000D01*
G75*
G02*
X8275000Y-15256250I0J218750D01*
G01*
X8275000Y-14743750D01*
G75*
G02*
X8493750Y-14525000I218750J0D01*
G01*
X8931250Y-14525000D01*
G75*
G02*
X9150000Y-14743750I0J-218750D01*
G01*
G37*
G04 #@! TD.AperFunction*
G04 #@! TO.P,C21,1*
G04 #@! TO.N,GNDA*
G04 #@! TA.AperFunction,SMDPad,CuDef*
G36*
G01*
X10725000Y-14743750D02*
X10725000Y-15256250D01*
G75*
G02*
X10506250Y-15475000I-218750J0D01*
G01*
X10068750Y-15475000D01*
G75*
G02*
X9850000Y-15256250I0J218750D01*
G01*
X9850000Y-14743750D01*
G75*
G02*
X10068750Y-14525000I218750J0D01*
G01*
X10506250Y-14525000D01*
G75*
G02*
X10725000Y-14743750I0J-218750D01*
G01*
G37*
G04 #@! TD.AperFunction*
G04 #@! TD*
G04 #@! TO.P,C20,2*
G04 #@! TO.N,GNDA*
G04 #@! TA.AperFunction,SMDPad,CuDef*
G36*
G01*
X12543750Y-12700000D02*
X13056250Y-12700000D01*
G75*
G02*
X13275000Y-12918750I0J-218750D01*
G01*
X13275000Y-13356250D01*
G75*
G02*
X13056250Y-13575000I-218750J0D01*
G01*
X12543750Y-13575000D01*
G75*
G02*
X12325000Y-13356250I0J218750D01*
G01*
X12325000Y-12918750D01*
G75*
G02*
X12543750Y-12700000I218750J0D01*
G01*
G37*
G04 #@! TD.AperFunction*
G04 #@! TO.P,C20,1*
G04 #@! TO.N,+6V*
G04 #@! TA.AperFunction,SMDPad,CuDef*
G36*
G01*
X12543750Y-11125000D02*
X13056250Y-11125000D01*
G75*
G02*
X13275000Y-11343750I0J-218750D01*
G01*
X13275000Y-11781250D01*
G75*
G02*
X13056250Y-12000000I-218750J0D01*
G01*
X12543750Y-12000000D01*
G75*
G02*
X12325000Y-11781250I0J218750D01*
G01*
X12325000Y-11343750D01*
G75*
G02*
X12543750Y-11125000I218750J0D01*
G01*
G37*
G04 #@! TD.AperFunction*
G04 #@! TD*
G04 #@! TO.P,L4,2*
G04 #@! TO.N,Net-(D1-Pad1)*
G04 #@! TA.AperFunction,SMDPad,CuDef*
G36*
G01*
X4550000Y-23349999D02*
X4550000Y-24250001D01*
G75*
G02*
X4300001Y-24500000I-249999J0D01*
G01*
X3649999Y-24500000D01*
G75*
G02*
X3400000Y-24250001I0J249999D01*
G01*
X3400000Y-23349999D01*
G75*
G02*
X3649999Y-23100000I249999J0D01*
G01*
X4300001Y-23100000D01*
G75*
G02*
X4550000Y-23349999I0J-249999D01*
G01*
G37*
G04 #@! TD.AperFunction*
G04 #@! TO.P,L4,1*
G04 #@! TO.N,GND*
G04 #@! TA.AperFunction,SMDPad,CuDef*
G36*
G01*
X6600000Y-23349999D02*
X6600000Y-24250001D01*
G75*
G02*
X6350001Y-24500000I-249999J0D01*
G01*
X5699999Y-24500000D01*
G75*
G02*
X5450000Y-24250001I0J249999D01*
G01*
X5450000Y-23349999D01*
G75*
G02*
X5699999Y-23100000I249999J0D01*
G01*
X6350001Y-23100000D01*
G75*
G02*
X6600000Y-23349999I0J-249999D01*
G01*
G37*
G04 #@! TD.AperFunction*
G04 #@! TD*
G04 #@! TO.P,L3,2*
G04 #@! TO.N,Net-(D2-Pad2)*
G04 #@! TA.AperFunction,SMDPad,CuDef*
G36*
G01*
X4550000Y-25449999D02*
X4550000Y-26350001D01*
G75*
G02*
X4300001Y-26600000I-249999J0D01*
G01*
X3649999Y-26600000D01*
G75*
G02*
X3400000Y-26350001I0J249999D01*
G01*
X3400000Y-25449999D01*
G75*
G02*
X3649999Y-25200000I249999J0D01*
G01*
X4300001Y-25200000D01*
G75*
G02*
X4550000Y-25449999I0J-249999D01*
G01*
G37*
G04 #@! TD.AperFunction*
G04 #@! TO.P,L3,1*
G04 #@! TO.N,Net-(C26-Pad1)*
G04 #@! TA.AperFunction,SMDPad,CuDef*
G36*
G01*
X6600000Y-25449999D02*
X6600000Y-26350001D01*
G75*
G02*
X6350001Y-26600000I-249999J0D01*
G01*
X5699999Y-26600000D01*
G75*
G02*
X5450000Y-26350001I0J249999D01*
G01*
X5450000Y-25449999D01*
G75*
G02*
X5699999Y-25200000I249999J0D01*
G01*
X6350001Y-25200000D01*
G75*
G02*
X6600000Y-25449999I0J-249999D01*
G01*
G37*
G04 #@! TD.AperFunction*
G04 #@! TD*
G04 #@! TO.P,C22,2*
G04 #@! TO.N,GNDA*
G04 #@! TA.AperFunction,SMDPad,CuDef*
G36*
G01*
X14743750Y-12700000D02*
X15256250Y-12700000D01*
G75*
G02*
X15475000Y-12918750I0J-218750D01*
G01*
X15475000Y-13356250D01*
G75*
G02*
X15256250Y-13575000I-218750J0D01*
G01*
X14743750Y-13575000D01*
G75*
G02*
X14525000Y-13356250I0J218750D01*
G01*
X14525000Y-12918750D01*
G75*
G02*
X14743750Y-12700000I218750J0D01*
G01*
G37*
G04 #@! TD.AperFunction*
G04 #@! TO.P,C22,1*
G04 #@! TO.N,+6V*
G04 #@! TA.AperFunction,SMDPad,CuDef*
G36*
G01*
X14743750Y-11125000D02*
X15256250Y-11125000D01*
G75*
G02*
X15475000Y-11343750I0J-218750D01*
G01*
X15475000Y-11781250D01*
G75*
G02*
X15256250Y-12000000I-218750J0D01*
G01*
X14743750Y-12000000D01*
G75*
G02*
X14525000Y-11781250I0J218750D01*
G01*
X14525000Y-11343750D01*
G75*
G02*
X14743750Y-11125000I218750J0D01*
G01*
G37*
G04 #@! TD.AperFunction*
G04 #@! TD*
G04 #@! TO.P,J4,1*
G04 #@! TO.N,GNDA*
G04 #@! TA.AperFunction,SMDPad,CuDef*
G36*
G01*
X25299309Y-11332997D02*
X24899857Y-11353932D01*
G75*
G02*
X24847309Y-11306618I-2617J49931D01*
G01*
X24842075Y-11206755D01*
G75*
G02*
X24889389Y-11154207I49931J2617D01*
G01*
X25288841Y-11133272D01*
G75*
G02*
X25341389Y-11180586I2617J-49931D01*
G01*
X25346623Y-11280449D01*
G75*
G02*
X25299309Y-11332997I-49931J-2617D01*
G01*
G37*
G04 #@! TD.AperFunction*
G04 #@! TA.AperFunction,SMDPad,CuDef*
G36*
G01*
X25270524Y-10783750D02*
X24871072Y-10804685D01*
G75*
G02*
X24818524Y-10757371I-2617J49931D01*
G01*
X24813290Y-10657508D01*
G75*
G02*
X24860604Y-10604960I49931J2617D01*
G01*
X25260056Y-10584025D01*
G75*
G02*
X25312604Y-10631339I2617J-49931D01*
G01*
X25317838Y-10731202D01*
G75*
G02*
X25270524Y-10783750I-49931J-2617D01*
G01*
G37*
G04 #@! TD.AperFunction*
G04 #@! TA.AperFunction,SMDPad,CuDef*
G36*
G01*
X24111633Y-10644212D02*
X24090698Y-10244760D01*
G75*
G02*
X24138012Y-10192212I49931J2617D01*
G01*
X24237875Y-10186978D01*
G75*
G02*
X24290423Y-10234292I2617J-49931D01*
G01*
X24311358Y-10633744D01*
G75*
G02*
X24264044Y-10686292I-49931J-2617D01*
G01*
X24164181Y-10691526D01*
G75*
G02*
X24111633Y-10644212I-2617J49931D01*
G01*
G37*
G04 #@! TD.AperFunction*
G04 #@! TA.AperFunction,SMDPad,CuDef*
G36*
G01*
X24891016Y-9752199D02*
X25140673Y-9739115D01*
G75*
G02*
X25272044Y-9857402I6542J-124829D01*
G01*
X25295595Y-10306786D01*
G75*
G02*
X25177308Y-10438157I-124829J-6542D01*
G01*
X24927651Y-10451241D01*
G75*
G02*
X24796280Y-10332954I-6542J124829D01*
G01*
X24772729Y-9883570D01*
G75*
G02*
X24891016Y-9752199I124829J6542D01*
G01*
G37*
G04 #@! TD.AperFunction*
G04 #@! TA.AperFunction,SMDPad,CuDef*
G36*
G01*
X24110324Y-10619246D02*
X24092006Y-10269725D01*
G75*
G02*
X24257607Y-10085806I174760J9159D01*
G01*
X25206305Y-10036087D01*
G75*
G02*
X25390224Y-10201688I9159J-174760D01*
G01*
X25408542Y-10551209D01*
G75*
G02*
X25242941Y-10735128I-174760J-9159D01*
G01*
X24294243Y-10784847D01*
G75*
G02*
X24110324Y-10619246I-9159J174760D01*
G01*
G37*
G04 #@! TD.AperFunction*
G04 #@! TA.AperFunction,SMDPad,CuDef*
G36*
G01*
X24856785Y-10054405D02*
X25206306Y-10036087D01*
G75*
G02*
X25390225Y-10201688I9159J-174760D01*
G01*
X25439944Y-11150386D01*
G75*
G02*
X25274343Y-11334305I-174760J-9159D01*
G01*
X24924822Y-11352623D01*
G75*
G02*
X24740903Y-11187022I-9159J174760D01*
G01*
X24691184Y-10238324D01*
G75*
G02*
X24856785Y-10054405I174760J9159D01*
G01*
G37*
G04 #@! TD.AperFunction*
D21*
X25099794Y-10392150D03*
X24500617Y-10423551D03*
X25131196Y-10991327D03*
G04 #@! TD*
G04 #@! TO.P,J3,1*
G04 #@! TO.N,/IN+*
G04 #@! TA.AperFunction,SMDPad,CuDef*
G36*
G01*
X25549309Y-16332997D02*
X25149857Y-16353932D01*
G75*
G02*
X25097309Y-16306618I-2617J49931D01*
G01*
X25092075Y-16206755D01*
G75*
G02*
X25139389Y-16154207I49931J2617D01*
G01*
X25538841Y-16133272D01*
G75*
G02*
X25591389Y-16180586I2617J-49931D01*
G01*
X25596623Y-16280449D01*
G75*
G02*
X25549309Y-16332997I-49931J-2617D01*
G01*
G37*
G04 #@! TD.AperFunction*
G04 #@! TA.AperFunction,SMDPad,CuDef*
G36*
G01*
X25520524Y-15783750D02*
X25121072Y-15804685D01*
G75*
G02*
X25068524Y-15757371I-2617J49931D01*
G01*
X25063290Y-15657508D01*
G75*
G02*
X25110604Y-15604960I49931J2617D01*
G01*
X25510056Y-15584025D01*
G75*
G02*
X25562604Y-15631339I2617J-49931D01*
G01*
X25567838Y-15731202D01*
G75*
G02*
X25520524Y-15783750I-49931J-2617D01*
G01*
G37*
G04 #@! TD.AperFunction*
G04 #@! TA.AperFunction,SMDPad,CuDef*
G36*
G01*
X24361633Y-15644212D02*
X24340698Y-15244760D01*
G75*
G02*
X24388012Y-15192212I49931J2617D01*
G01*
X24487875Y-15186978D01*
G75*
G02*
X24540423Y-15234292I2617J-49931D01*
G01*
X24561358Y-15633744D01*
G75*
G02*
X24514044Y-15686292I-49931J-2617D01*
G01*
X24414181Y-15691526D01*
G75*
G02*
X24361633Y-15644212I-2617J49931D01*
G01*
G37*
G04 #@! TD.AperFunction*
G04 #@! TA.AperFunction,SMDPad,CuDef*
G36*
G01*
X25141016Y-14752199D02*
X25390673Y-14739115D01*
G75*
G02*
X25522044Y-14857402I6542J-124829D01*
G01*
X25545595Y-15306786D01*
G75*
G02*
X25427308Y-15438157I-124829J-6542D01*
G01*
X25177651Y-15451241D01*
G75*
G02*
X25046280Y-15332954I-6542J124829D01*
G01*
X25022729Y-14883570D01*
G75*
G02*
X25141016Y-14752199I124829J6542D01*
G01*
G37*
G04 #@! TD.AperFunction*
G04 #@! TA.AperFunction,SMDPad,CuDef*
G36*
G01*
X24360324Y-15619246D02*
X24342006Y-15269725D01*
G75*
G02*
X24507607Y-15085806I174760J9159D01*
G01*
X25456305Y-15036087D01*
G75*
G02*
X25640224Y-15201688I9159J-174760D01*
G01*
X25658542Y-15551209D01*
G75*
G02*
X25492941Y-15735128I-174760J-9159D01*
G01*
X24544243Y-15784847D01*
G75*
G02*
X24360324Y-15619246I-9159J174760D01*
G01*
G37*
G04 #@! TD.AperFunction*
G04 #@! TA.AperFunction,SMDPad,CuDef*
G36*
G01*
X25106785Y-15054405D02*
X25456306Y-15036087D01*
G75*
G02*
X25640225Y-15201688I9159J-174760D01*
G01*
X25689944Y-16150386D01*
G75*
G02*
X25524343Y-16334305I-174760J-9159D01*
G01*
X25174822Y-16352623D01*
G75*
G02*
X24990903Y-16187022I-9159J174760D01*
G01*
X24941184Y-15238324D01*
G75*
G02*
X25106785Y-15054405I174760J9159D01*
G01*
G37*
G04 #@! TD.AperFunction*
X25349794Y-15392150D03*
X24750617Y-15423551D03*
X25381196Y-15991327D03*
G04 #@! TD*
G04 #@! TO.P,J6,1*
G04 #@! TO.N,/IN-*
G04 #@! TA.AperFunction,SMDPad,CuDef*
G36*
G01*
X3659302Y-15244760D02*
X3638367Y-15644212D01*
G75*
G02*
X3585819Y-15691526I-49931J2617D01*
G01*
X3485956Y-15686292D01*
G75*
G02*
X3438642Y-15633744I2617J49931D01*
G01*
X3459577Y-15234292D01*
G75*
G02*
X3512125Y-15186978I49931J-2617D01*
G01*
X3611988Y-15192212D01*
G75*
G02*
X3659302Y-15244760I-2617J-49931D01*
G01*
G37*
G04 #@! TD.AperFunction*
G04 #@! TA.AperFunction,SMDPad,CuDef*
G36*
G01*
X2850143Y-16353932D02*
X2450691Y-16332997D01*
G75*
G02*
X2403377Y-16280449I2617J49931D01*
G01*
X2408611Y-16180586D01*
G75*
G02*
X2461159Y-16133272I49931J-2617D01*
G01*
X2860611Y-16154207D01*
G75*
G02*
X2907925Y-16206755I-2617J-49931D01*
G01*
X2902691Y-16306618D01*
G75*
G02*
X2850143Y-16353932I-49931J2617D01*
G01*
G37*
G04 #@! TD.AperFunction*
X2618804Y-15991327D03*
X3249383Y-15423551D03*
X2650206Y-15392150D03*
G04 #@! TA.AperFunction,SMDPad,CuDef*
G36*
G01*
X2825178Y-16352623D02*
X2475657Y-16334305D01*
G75*
G02*
X2310056Y-16150386I9159J174760D01*
G01*
X2359775Y-15201688D01*
G75*
G02*
X2543694Y-15036087I174760J-9159D01*
G01*
X2893215Y-15054405D01*
G75*
G02*
X3058816Y-15238324I-9159J-174760D01*
G01*
X3009097Y-16187022D01*
G75*
G02*
X2825178Y-16352623I-174760J9159D01*
G01*
G37*
G04 #@! TD.AperFunction*
G04 #@! TA.AperFunction,SMDPad,CuDef*
G36*
G01*
X2341458Y-15551209D02*
X2359776Y-15201688D01*
G75*
G02*
X2543695Y-15036087I174760J-9159D01*
G01*
X3492393Y-15085806D01*
G75*
G02*
X3657994Y-15269725I-9159J-174760D01*
G01*
X3639676Y-15619246D01*
G75*
G02*
X3455757Y-15784847I-174760J9159D01*
G01*
X2507059Y-15735128D01*
G75*
G02*
X2341458Y-15551209I9159J174760D01*
G01*
G37*
G04 #@! TD.AperFunction*
G04 #@! TD*
G04 #@! TO.P,J5,1*
G04 #@! TO.N,GNDA*
G04 #@! TA.AperFunction,SMDPad,CuDef*
G36*
G01*
X3909302Y-10244760D02*
X3888367Y-10644212D01*
G75*
G02*
X3835819Y-10691526I-49931J2617D01*
G01*
X3735956Y-10686292D01*
G75*
G02*
X3688642Y-10633744I2617J49931D01*
G01*
X3709577Y-10234292D01*
G75*
G02*
X3762125Y-10186978I49931J-2617D01*
G01*
X3861988Y-10192212D01*
G75*
G02*
X3909302Y-10244760I-2617J-49931D01*
G01*
G37*
G04 #@! TD.AperFunction*
G04 #@! TA.AperFunction,SMDPad,CuDef*
G36*
G01*
X3100143Y-11353932D02*
X2700691Y-11332997D01*
G75*
G02*
X2653377Y-11280449I2617J49931D01*
G01*
X2658611Y-11180586D01*
G75*
G02*
X2711159Y-11133272I49931J-2617D01*
G01*
X3110611Y-11154207D01*
G75*
G02*
X3157925Y-11206755I-2617J-49931D01*
G01*
X3152691Y-11306618D01*
G75*
G02*
X3100143Y-11353932I-49931J2617D01*
G01*
G37*
G04 #@! TD.AperFunction*
X2868804Y-10991327D03*
X3499383Y-10423551D03*
X2900206Y-10392150D03*
G04 #@! TA.AperFunction,SMDPad,CuDef*
G36*
G01*
X3075178Y-11352623D02*
X2725657Y-11334305D01*
G75*
G02*
X2560056Y-11150386I9159J174760D01*
G01*
X2609775Y-10201688D01*
G75*
G02*
X2793694Y-10036087I174760J-9159D01*
G01*
X3143215Y-10054405D01*
G75*
G02*
X3308816Y-10238324I-9159J-174760D01*
G01*
X3259097Y-11187022D01*
G75*
G02*
X3075178Y-11352623I-174760J9159D01*
G01*
G37*
G04 #@! TD.AperFunction*
G04 #@! TA.AperFunction,SMDPad,CuDef*
G36*
G01*
X2591458Y-10551209D02*
X2609776Y-10201688D01*
G75*
G02*
X2793695Y-10036087I174760J-9159D01*
G01*
X3742393Y-10085806D01*
G75*
G02*
X3907994Y-10269725I-9159J-174760D01*
G01*
X3889676Y-10619246D01*
G75*
G02*
X3705757Y-10784847I-174760J9159D01*
G01*
X2757059Y-10735128D01*
G75*
G02*
X2591458Y-10551209I9159J174760D01*
G01*
G37*
G04 #@! TD.AperFunction*
G04 #@! TD*
G04 #@! TO.P,R23,2*
G04 #@! TO.N,/IN+*
G04 #@! TA.AperFunction,SMDPad,CuDef*
G36*
G01*
X22050000Y-11456250D02*
X22050000Y-10943750D01*
G75*
G02*
X22268750Y-10725000I218750J0D01*
G01*
X22706250Y-10725000D01*
G75*
G02*
X22925000Y-10943750I0J-218750D01*
G01*
X22925000Y-11456250D01*
G75*
G02*
X22706250Y-11675000I-218750J0D01*
G01*
X22268750Y-11675000D01*
G75*
G02*
X22050000Y-11456250I0J218750D01*
G01*
G37*
G04 #@! TD.AperFunction*
G04 #@! TO.P,R23,1*
G04 #@! TO.N,Net-(R23-Pad1)*
G04 #@! TA.AperFunction,SMDPad,CuDef*
G36*
G01*
X20475000Y-11456250D02*
X20475000Y-10943750D01*
G75*
G02*
X20693750Y-10725000I218750J0D01*
G01*
X21131250Y-10725000D01*
G75*
G02*
X21350000Y-10943750I0J-218750D01*
G01*
X21350000Y-11456250D01*
G75*
G02*
X21131250Y-11675000I-218750J0D01*
G01*
X20693750Y-11675000D01*
G75*
G02*
X20475000Y-11456250I0J218750D01*
G01*
G37*
G04 #@! TD.AperFunction*
G04 #@! TD*
G04 #@! TO.P,R11,2*
G04 #@! TO.N,/IN-*
G04 #@! TA.AperFunction,SMDPad,CuDef*
G36*
G01*
X5550000Y-10843750D02*
X5550000Y-11356250D01*
G75*
G02*
X5331250Y-11575000I-218750J0D01*
G01*
X4893750Y-11575000D01*
G75*
G02*
X4675000Y-11356250I0J218750D01*
G01*
X4675000Y-10843750D01*
G75*
G02*
X4893750Y-10625000I218750J0D01*
G01*
X5331250Y-10625000D01*
G75*
G02*
X5550000Y-10843750I0J-218750D01*
G01*
G37*
G04 #@! TD.AperFunction*
G04 #@! TO.P,R11,1*
G04 #@! TO.N,Net-(R11-Pad1)*
G04 #@! TA.AperFunction,SMDPad,CuDef*
G36*
G01*
X7125000Y-10843750D02*
X7125000Y-11356250D01*
G75*
G02*
X6906250Y-11575000I-218750J0D01*
G01*
X6468750Y-11575000D01*
G75*
G02*
X6250000Y-11356250I0J218750D01*
G01*
X6250000Y-10843750D01*
G75*
G02*
X6468750Y-10625000I218750J0D01*
G01*
X6906250Y-10625000D01*
G75*
G02*
X7125000Y-10843750I0J-218750D01*
G01*
G37*
G04 #@! TD.AperFunction*
G04 #@! TD*
G04 #@! TO.P,L9,2*
G04 #@! TO.N,GND*
G04 #@! TA.AperFunction,SMDPad,CuDef*
G36*
G01*
X10950000Y-31143750D02*
X10950000Y-31656250D01*
G75*
G02*
X10731250Y-31875000I-218750J0D01*
G01*
X10293750Y-31875000D01*
G75*
G02*
X10075000Y-31656250I0J218750D01*
G01*
X10075000Y-31143750D01*
G75*
G02*
X10293750Y-30925000I218750J0D01*
G01*
X10731250Y-30925000D01*
G75*
G02*
X10950000Y-31143750I0J-218750D01*
G01*
G37*
G04 #@! TD.AperFunction*
G04 #@! TO.P,L9,1*
G04 #@! TO.N,GNDA*
G04 #@! TA.AperFunction,SMDPad,CuDef*
G36*
G01*
X12525000Y-31143750D02*
X12525000Y-31656250D01*
G75*
G02*
X12306250Y-31875000I-218750J0D01*
G01*
X11868750Y-31875000D01*
G75*
G02*
X11650000Y-31656250I0J218750D01*
G01*
X11650000Y-31143750D01*
G75*
G02*
X11868750Y-30925000I218750J0D01*
G01*
X12306250Y-30925000D01*
G75*
G02*
X12525000Y-31143750I0J-218750D01*
G01*
G37*
G04 #@! TD.AperFunction*
G04 #@! TD*
G04 #@! TO.P,C11,2*
G04 #@! TO.N,Net-(C11-Pad2)*
G04 #@! TA.AperFunction,SMDPad,CuDef*
G36*
G01*
X8950000Y-7643750D02*
X8950000Y-8156250D01*
G75*
G02*
X8731250Y-8375000I-218750J0D01*
G01*
X8293750Y-8375000D01*
G75*
G02*
X8075000Y-8156250I0J218750D01*
G01*
X8075000Y-7643750D01*
G75*
G02*
X8293750Y-7425000I218750J0D01*
G01*
X8731250Y-7425000D01*
G75*
G02*
X8950000Y-7643750I0J-218750D01*
G01*
G37*
G04 #@! TD.AperFunction*
G04 #@! TO.P,C11,1*
G04 #@! TO.N,Net-(C11-Pad1)*
G04 #@! TA.AperFunction,SMDPad,CuDef*
G36*
G01*
X10525000Y-7643750D02*
X10525000Y-8156250D01*
G75*
G02*
X10306250Y-8375000I-218750J0D01*
G01*
X9868750Y-8375000D01*
G75*
G02*
X9650000Y-8156250I0J218750D01*
G01*
X9650000Y-7643750D01*
G75*
G02*
X9868750Y-7425000I218750J0D01*
G01*
X10306250Y-7425000D01*
G75*
G02*
X10525000Y-7643750I0J-218750D01*
G01*
G37*
G04 #@! TD.AperFunction*
G04 #@! TD*
G04 #@! TO.P,C1,2*
G04 #@! TO.N,Net-(C1-Pad2)*
G04 #@! TA.AperFunction,SMDPad,CuDef*
G36*
G01*
X18350000Y-7643750D02*
X18350000Y-8156250D01*
G75*
G02*
X18131250Y-8375000I-218750J0D01*
G01*
X17693750Y-8375000D01*
G75*
G02*
X17475000Y-8156250I0J218750D01*
G01*
X17475000Y-7643750D01*
G75*
G02*
X17693750Y-7425000I218750J0D01*
G01*
X18131250Y-7425000D01*
G75*
G02*
X18350000Y-7643750I0J-218750D01*
G01*
G37*
G04 #@! TD.AperFunction*
G04 #@! TO.P,C1,1*
G04 #@! TO.N,Net-(C1-Pad1)*
G04 #@! TA.AperFunction,SMDPad,CuDef*
G36*
G01*
X19925000Y-7643750D02*
X19925000Y-8156250D01*
G75*
G02*
X19706250Y-8375000I-218750J0D01*
G01*
X19268750Y-8375000D01*
G75*
G02*
X19050000Y-8156250I0J218750D01*
G01*
X19050000Y-7643750D01*
G75*
G02*
X19268750Y-7425000I218750J0D01*
G01*
X19706250Y-7425000D01*
G75*
G02*
X19925000Y-7643750I0J-218750D01*
G01*
G37*
G04 #@! TD.AperFunction*
G04 #@! TD*
D22*
G04 #@! TO.P,H1,1*
G04 #@! TO.N,GNDA*
X19000000Y-34700000D03*
G04 #@! TD*
G04 #@! TO.P,R12,2*
G04 #@! TO.N,Net-(R12-Pad2)*
G04 #@! TA.AperFunction,SMDPad,CuDef*
G36*
G01*
X18150000Y-15043750D02*
X18150000Y-15556250D01*
G75*
G02*
X17931250Y-15775000I-218750J0D01*
G01*
X17493750Y-15775000D01*
G75*
G02*
X17275000Y-15556250I0J218750D01*
G01*
X17275000Y-15043750D01*
G75*
G02*
X17493750Y-14825000I218750J0D01*
G01*
X17931250Y-14825000D01*
G75*
G02*
X18150000Y-15043750I0J-218750D01*
G01*
G37*
G04 #@! TD.AperFunction*
G04 #@! TO.P,R12,1*
G04 #@! TO.N,/IN+*
G04 #@! TA.AperFunction,SMDPad,CuDef*
G36*
G01*
X19725000Y-15043750D02*
X19725000Y-15556250D01*
G75*
G02*
X19506250Y-15775000I-218750J0D01*
G01*
X19068750Y-15775000D01*
G75*
G02*
X18850000Y-15556250I0J218750D01*
G01*
X18850000Y-15043750D01*
G75*
G02*
X19068750Y-14825000I218750J0D01*
G01*
X19506250Y-14825000D01*
G75*
G02*
X19725000Y-15043750I0J-218750D01*
G01*
G37*
G04 #@! TD.AperFunction*
G04 #@! TD*
G04 #@! TO.P,L8,2*
G04 #@! TO.N,-6V*
G04 #@! TA.AperFunction,SMDPad,CuDef*
G36*
G01*
X13343750Y-26550000D02*
X13856250Y-26550000D01*
G75*
G02*
X14075000Y-26768750I0J-218750D01*
G01*
X14075000Y-27206250D01*
G75*
G02*
X13856250Y-27425000I-218750J0D01*
G01*
X13343750Y-27425000D01*
G75*
G02*
X13125000Y-27206250I0J218750D01*
G01*
X13125000Y-26768750D01*
G75*
G02*
X13343750Y-26550000I218750J0D01*
G01*
G37*
G04 #@! TD.AperFunction*
G04 #@! TO.P,L8,1*
G04 #@! TO.N,Net-(C9-Pad1)*
G04 #@! TA.AperFunction,SMDPad,CuDef*
G36*
G01*
X13343750Y-24975000D02*
X13856250Y-24975000D01*
G75*
G02*
X14075000Y-25193750I0J-218750D01*
G01*
X14075000Y-25631250D01*
G75*
G02*
X13856250Y-25850000I-218750J0D01*
G01*
X13343750Y-25850000D01*
G75*
G02*
X13125000Y-25631250I0J218750D01*
G01*
X13125000Y-25193750D01*
G75*
G02*
X13343750Y-24975000I218750J0D01*
G01*
G37*
G04 #@! TD.AperFunction*
G04 #@! TD*
G04 #@! TO.P,L7,2*
G04 #@! TO.N,+6V*
G04 #@! TA.AperFunction,SMDPad,CuDef*
G36*
G01*
X8843750Y-26550000D02*
X9356250Y-26550000D01*
G75*
G02*
X9575000Y-26768750I0J-218750D01*
G01*
X9575000Y-27206250D01*
G75*
G02*
X9356250Y-27425000I-218750J0D01*
G01*
X8843750Y-27425000D01*
G75*
G02*
X8625000Y-27206250I0J218750D01*
G01*
X8625000Y-26768750D01*
G75*
G02*
X8843750Y-26550000I218750J0D01*
G01*
G37*
G04 #@! TD.AperFunction*
G04 #@! TO.P,L7,1*
G04 #@! TO.N,Net-(C8-Pad1)*
G04 #@! TA.AperFunction,SMDPad,CuDef*
G36*
G01*
X8843750Y-24975000D02*
X9356250Y-24975000D01*
G75*
G02*
X9575000Y-25193750I0J-218750D01*
G01*
X9575000Y-25631250D01*
G75*
G02*
X9356250Y-25850000I-218750J0D01*
G01*
X8843750Y-25850000D01*
G75*
G02*
X8625000Y-25631250I0J218750D01*
G01*
X8625000Y-25193750D01*
G75*
G02*
X8843750Y-24975000I218750J0D01*
G01*
G37*
G04 #@! TD.AperFunction*
G04 #@! TD*
G04 #@! TO.P,L1,2*
G04 #@! TO.N,Net-(C2-Pad1)*
G04 #@! TA.AperFunction,SMDPad,CuDef*
G36*
G01*
X10856250Y-33250000D02*
X10343750Y-33250000D01*
G75*
G02*
X10125000Y-33031250I0J218750D01*
G01*
X10125000Y-32593750D01*
G75*
G02*
X10343750Y-32375000I218750J0D01*
G01*
X10856250Y-32375000D01*
G75*
G02*
X11075000Y-32593750I0J-218750D01*
G01*
X11075000Y-33031250D01*
G75*
G02*
X10856250Y-33250000I-218750J0D01*
G01*
G37*
G04 #@! TD.AperFunction*
G04 #@! TO.P,L1,1*
G04 #@! TO.N,+5V*
G04 #@! TA.AperFunction,SMDPad,CuDef*
G36*
G01*
X10856250Y-34825000D02*
X10343750Y-34825000D01*
G75*
G02*
X10125000Y-34606250I0J218750D01*
G01*
X10125000Y-34168750D01*
G75*
G02*
X10343750Y-33950000I218750J0D01*
G01*
X10856250Y-33950000D01*
G75*
G02*
X11075000Y-34168750I0J-218750D01*
G01*
X11075000Y-34606250D01*
G75*
G02*
X10856250Y-34825000I-218750J0D01*
G01*
G37*
G04 #@! TD.AperFunction*
G04 #@! TD*
G04 #@! TO.P,R15,2*
G04 #@! TO.N,Net-(C11-Pad1)*
G04 #@! TA.AperFunction,SMDPad,CuDef*
G36*
G01*
X9650000Y-9656250D02*
X9650000Y-9143750D01*
G75*
G02*
X9868750Y-8925000I218750J0D01*
G01*
X10306250Y-8925000D01*
G75*
G02*
X10525000Y-9143750I0J-218750D01*
G01*
X10525000Y-9656250D01*
G75*
G02*
X10306250Y-9875000I-218750J0D01*
G01*
X9868750Y-9875000D01*
G75*
G02*
X9650000Y-9656250I0J218750D01*
G01*
G37*
G04 #@! TD.AperFunction*
G04 #@! TO.P,R15,1*
G04 #@! TO.N,Net-(C11-Pad2)*
G04 #@! TA.AperFunction,SMDPad,CuDef*
G36*
G01*
X8075000Y-9656250D02*
X8075000Y-9143750D01*
G75*
G02*
X8293750Y-8925000I218750J0D01*
G01*
X8731250Y-8925000D01*
G75*
G02*
X8950000Y-9143750I0J-218750D01*
G01*
X8950000Y-9656250D01*
G75*
G02*
X8731250Y-9875000I-218750J0D01*
G01*
X8293750Y-9875000D01*
G75*
G02*
X8075000Y-9656250I0J218750D01*
G01*
G37*
G04 #@! TD.AperFunction*
G04 #@! TD*
G04 #@! TO.P,C26,2*
G04 #@! TO.N,GND*
G04 #@! TA.AperFunction,SMDPad,CuDef*
G36*
G01*
X8843750Y-29550000D02*
X9356250Y-29550000D01*
G75*
G02*
X9575000Y-29768750I0J-218750D01*
G01*
X9575000Y-30206250D01*
G75*
G02*
X9356250Y-30425000I-218750J0D01*
G01*
X8843750Y-30425000D01*
G75*
G02*
X8625000Y-30206250I0J218750D01*
G01*
X8625000Y-29768750D01*
G75*
G02*
X8843750Y-29550000I218750J0D01*
G01*
G37*
G04 #@! TD.AperFunction*
G04 #@! TO.P,C26,1*
G04 #@! TO.N,Net-(C26-Pad1)*
G04 #@! TA.AperFunction,SMDPad,CuDef*
G36*
G01*
X8843750Y-27975000D02*
X9356250Y-27975000D01*
G75*
G02*
X9575000Y-28193750I0J-218750D01*
G01*
X9575000Y-28631250D01*
G75*
G02*
X9356250Y-28850000I-218750J0D01*
G01*
X8843750Y-28850000D01*
G75*
G02*
X8625000Y-28631250I0J218750D01*
G01*
X8625000Y-28193750D01*
G75*
G02*
X8843750Y-27975000I218750J0D01*
G01*
G37*
G04 #@! TD.AperFunction*
G04 #@! TD*
D23*
G04 #@! TO.P,D2,1*
G04 #@! TO.N,Net-(C4-Pad1)*
X5500000Y-22000000D03*
G04 #@! TO.P,D2,2*
G04 #@! TO.N,Net-(D2-Pad2)*
X4100000Y-22000000D03*
G04 #@! TD*
G04 #@! TO.P,D1,1*
G04 #@! TO.N,Net-(D1-Pad1)*
X4100000Y-20500000D03*
G04 #@! TO.P,D1,2*
G04 #@! TO.N,Net-(C5-Pad1)*
X5500000Y-20500000D03*
G04 #@! TD*
D24*
G04 #@! TO.P,U4,8*
G04 #@! TO.N,Net-(U4-Pad8)*
X20275000Y-25650000D03*
G04 #@! TO.P,U4,7*
G04 #@! TO.N,+6V*
X19625000Y-25650000D03*
D25*
G04 #@! TO.P,U4,6*
G04 #@! TO.N,Net-(C19-Pad1)*
X18975000Y-25850000D03*
G04 #@! TO.P,U4,5*
G04 #@! TO.N,Net-(U4-Pad5)*
X18325000Y-25850000D03*
G04 #@! TO.P,U4,4*
G04 #@! TO.N,-6V*
X18325000Y-22350000D03*
D24*
G04 #@! TO.P,U4,3*
G04 #@! TO.N,Net-(C18-Pad2)*
X18975000Y-22550000D03*
D25*
G04 #@! TO.P,U4,2*
G04 #@! TO.N,Net-(C19-Pad2)*
X19625000Y-22350000D03*
G04 #@! TO.P,U4,1*
G04 #@! TO.N,Net-(U4-Pad1)*
X20275000Y-22350000D03*
D26*
G04 #@! TO.P,U4,9*
G04 #@! TO.N,-6V*
X19300000Y-24100000D03*
D27*
X18675000Y-24550000D03*
X18675000Y-23650000D03*
X19925000Y-24550000D03*
X19925000Y-23650000D03*
D21*
X18550000Y-24600000D03*
X18550000Y-23600000D03*
X20050000Y-24600000D03*
X20050000Y-23600000D03*
X19300000Y-24100000D03*
D25*
G04 #@! TO.P,U4,8*
G04 #@! TO.N,Net-(U4-Pad8)*
X20275000Y-25850000D03*
G04 #@! TO.P,U4,7*
G04 #@! TO.N,+6V*
X19625000Y-25850000D03*
D24*
G04 #@! TO.P,U4,6*
G04 #@! TO.N,Net-(C19-Pad1)*
X18975000Y-25650000D03*
G04 #@! TO.P,U4,5*
G04 #@! TO.N,Net-(U4-Pad5)*
X18325000Y-25650000D03*
G04 #@! TO.P,U4,4*
G04 #@! TO.N,-6V*
X18325000Y-22550000D03*
D25*
G04 #@! TO.P,U4,3*
G04 #@! TO.N,Net-(C18-Pad2)*
X18975000Y-22350000D03*
D24*
G04 #@! TO.P,U4,2*
G04 #@! TO.N,Net-(C19-Pad2)*
X19625000Y-22550000D03*
G04 #@! TO.P,U4,1*
G04 #@! TO.N,Net-(U4-Pad1)*
X20275000Y-22550000D03*
G04 #@! TD*
D28*
G04 #@! TO.P,U3,8*
G04 #@! TO.N,Net-(U3-Pad8)*
X11450000Y-11025000D03*
G04 #@! TO.P,U3,7*
G04 #@! TO.N,+6V*
X11450000Y-11675000D03*
D29*
G04 #@! TO.P,U3,6*
G04 #@! TO.N,Net-(C11-Pad1)*
X11650000Y-12325000D03*
G04 #@! TO.P,U3,5*
G04 #@! TO.N,Net-(U3-Pad5)*
X11650000Y-12975000D03*
G04 #@! TO.P,U3,4*
G04 #@! TO.N,-6V*
X8150000Y-12975000D03*
D28*
G04 #@! TO.P,U3,3*
G04 #@! TO.N,Net-(R11-Pad1)*
X8350000Y-12325000D03*
D29*
G04 #@! TO.P,U3,2*
G04 #@! TO.N,Net-(C11-Pad2)*
X8150000Y-11675000D03*
G04 #@! TO.P,U3,1*
G04 #@! TO.N,Net-(U3-Pad1)*
X8150000Y-11025000D03*
D30*
G04 #@! TO.P,U3,9*
G04 #@! TO.N,-6V*
X9900000Y-12000000D03*
D31*
X10350000Y-12625000D03*
X9450000Y-12625000D03*
X10350000Y-11375000D03*
X9450000Y-11375000D03*
D21*
X10400000Y-12750000D03*
X9400000Y-12750000D03*
X10400000Y-11250000D03*
X9400000Y-11250000D03*
X9900000Y-12000000D03*
D29*
G04 #@! TO.P,U3,8*
G04 #@! TO.N,Net-(U3-Pad8)*
X11650000Y-11025000D03*
G04 #@! TO.P,U3,7*
G04 #@! TO.N,+6V*
X11650000Y-11675000D03*
D28*
G04 #@! TO.P,U3,6*
G04 #@! TO.N,Net-(C11-Pad1)*
X11450000Y-12325000D03*
G04 #@! TO.P,U3,5*
G04 #@! TO.N,Net-(U3-Pad5)*
X11450000Y-12975000D03*
G04 #@! TO.P,U3,4*
G04 #@! TO.N,-6V*
X8350000Y-12975000D03*
D29*
G04 #@! TO.P,U3,3*
G04 #@! TO.N,Net-(R11-Pad1)*
X8150000Y-12325000D03*
D28*
G04 #@! TO.P,U3,2*
G04 #@! TO.N,Net-(C11-Pad2)*
X8350000Y-11675000D03*
G04 #@! TO.P,U3,1*
G04 #@! TO.N,Net-(U3-Pad1)*
X8350000Y-11025000D03*
G04 #@! TD*
G04 #@! TO.P,U2,8*
G04 #@! TO.N,Net-(U2-Pad8)*
X16550000Y-12975000D03*
G04 #@! TO.P,U2,7*
G04 #@! TO.N,+6V*
X16550000Y-12325000D03*
D29*
G04 #@! TO.P,U2,6*
G04 #@! TO.N,Net-(C1-Pad2)*
X16350000Y-11675000D03*
G04 #@! TO.P,U2,5*
G04 #@! TO.N,Net-(U2-Pad5)*
X16350000Y-11025000D03*
G04 #@! TO.P,U2,4*
G04 #@! TO.N,-6V*
X19850000Y-11025000D03*
D28*
G04 #@! TO.P,U2,3*
G04 #@! TO.N,Net-(R23-Pad1)*
X19650000Y-11675000D03*
D29*
G04 #@! TO.P,U2,2*
G04 #@! TO.N,Net-(C1-Pad1)*
X19850000Y-12325000D03*
G04 #@! TO.P,U2,1*
G04 #@! TO.N,Net-(U2-Pad1)*
X19850000Y-12975000D03*
D30*
G04 #@! TO.P,U2,9*
G04 #@! TO.N,-6V*
X18100000Y-12000000D03*
D31*
X17650000Y-11375000D03*
X18550000Y-11375000D03*
X17650000Y-12625000D03*
X18550000Y-12625000D03*
D21*
X17600000Y-11250000D03*
X18600000Y-11250000D03*
X17600000Y-12750000D03*
X18600000Y-12750000D03*
X18100000Y-12000000D03*
D29*
G04 #@! TO.P,U2,8*
G04 #@! TO.N,Net-(U2-Pad8)*
X16350000Y-12975000D03*
G04 #@! TO.P,U2,7*
G04 #@! TO.N,+6V*
X16350000Y-12325000D03*
D28*
G04 #@! TO.P,U2,6*
G04 #@! TO.N,Net-(C1-Pad2)*
X16550000Y-11675000D03*
G04 #@! TO.P,U2,5*
G04 #@! TO.N,Net-(U2-Pad5)*
X16550000Y-11025000D03*
G04 #@! TO.P,U2,4*
G04 #@! TO.N,-6V*
X19650000Y-11025000D03*
D29*
G04 #@! TO.P,U2,3*
G04 #@! TO.N,Net-(R23-Pad1)*
X19850000Y-11675000D03*
D28*
G04 #@! TO.P,U2,2*
G04 #@! TO.N,Net-(C1-Pad1)*
X19650000Y-12325000D03*
G04 #@! TO.P,U2,1*
G04 #@! TO.N,Net-(U2-Pad1)*
X19650000Y-12975000D03*
G04 #@! TD*
G04 #@! TO.P,R22,2*
G04 #@! TO.N,Net-(C19-Pad1)*
G04 #@! TA.AperFunction,SMDPad,CuDef*
G36*
G01*
X17650000Y-27256250D02*
X17650000Y-26743750D01*
G75*
G02*
X17868750Y-26525000I218750J0D01*
G01*
X18306250Y-26525000D01*
G75*
G02*
X18525000Y-26743750I0J-218750D01*
G01*
X18525000Y-27256250D01*
G75*
G02*
X18306250Y-27475000I-218750J0D01*
G01*
X17868750Y-27475000D01*
G75*
G02*
X17650000Y-27256250I0J218750D01*
G01*
G37*
G04 #@! TD.AperFunction*
G04 #@! TO.P,R22,1*
G04 #@! TO.N,/OUT*
G04 #@! TA.AperFunction,SMDPad,CuDef*
G36*
G01*
X16075000Y-27256250D02*
X16075000Y-26743750D01*
G75*
G02*
X16293750Y-26525000I218750J0D01*
G01*
X16731250Y-26525000D01*
G75*
G02*
X16950000Y-26743750I0J-218750D01*
G01*
X16950000Y-27256250D01*
G75*
G02*
X16731250Y-27475000I-218750J0D01*
G01*
X16293750Y-27475000D01*
G75*
G02*
X16075000Y-27256250I0J218750D01*
G01*
G37*
G04 #@! TD.AperFunction*
G04 #@! TD*
G04 #@! TO.P,R21,2*
G04 #@! TO.N,Net-(C19-Pad1)*
G04 #@! TA.AperFunction,SMDPad,CuDef*
G36*
G01*
X21437500Y-19956250D02*
X21437500Y-19443750D01*
G75*
G02*
X21656250Y-19225000I218750J0D01*
G01*
X22093750Y-19225000D01*
G75*
G02*
X22312500Y-19443750I0J-218750D01*
G01*
X22312500Y-19956250D01*
G75*
G02*
X22093750Y-20175000I-218750J0D01*
G01*
X21656250Y-20175000D01*
G75*
G02*
X21437500Y-19956250I0J218750D01*
G01*
G37*
G04 #@! TD.AperFunction*
G04 #@! TO.P,R21,1*
G04 #@! TO.N,Net-(C19-Pad2)*
G04 #@! TA.AperFunction,SMDPad,CuDef*
G36*
G01*
X19862500Y-19956250D02*
X19862500Y-19443750D01*
G75*
G02*
X20081250Y-19225000I218750J0D01*
G01*
X20518750Y-19225000D01*
G75*
G02*
X20737500Y-19443750I0J-218750D01*
G01*
X20737500Y-19956250D01*
G75*
G02*
X20518750Y-20175000I-218750J0D01*
G01*
X20081250Y-20175000D01*
G75*
G02*
X19862500Y-19956250I0J218750D01*
G01*
G37*
G04 #@! TD.AperFunction*
G04 #@! TD*
G04 #@! TO.P,R20,2*
G04 #@! TO.N,GNDA*
G04 #@! TA.AperFunction,SMDPad,CuDef*
G36*
G01*
X17750000Y-19443750D02*
X17750000Y-19956250D01*
G75*
G02*
X17531250Y-20175000I-218750J0D01*
G01*
X17093750Y-20175000D01*
G75*
G02*
X16875000Y-19956250I0J218750D01*
G01*
X16875000Y-19443750D01*
G75*
G02*
X17093750Y-19225000I218750J0D01*
G01*
X17531250Y-19225000D01*
G75*
G02*
X17750000Y-19443750I0J-218750D01*
G01*
G37*
G04 #@! TD.AperFunction*
G04 #@! TO.P,R20,1*
G04 #@! TO.N,Net-(C18-Pad2)*
G04 #@! TA.AperFunction,SMDPad,CuDef*
G36*
G01*
X19325000Y-19443750D02*
X19325000Y-19956250D01*
G75*
G02*
X19106250Y-20175000I-218750J0D01*
G01*
X18668750Y-20175000D01*
G75*
G02*
X18450000Y-19956250I0J218750D01*
G01*
X18450000Y-19443750D01*
G75*
G02*
X18668750Y-19225000I218750J0D01*
G01*
X19106250Y-19225000D01*
G75*
G02*
X19325000Y-19443750I0J-218750D01*
G01*
G37*
G04 #@! TD.AperFunction*
G04 #@! TD*
G04 #@! TO.P,R19,2*
G04 #@! TO.N,Net-(C19-Pad2)*
G04 #@! TA.AperFunction,SMDPad,CuDef*
G36*
G01*
X18943750Y-17850000D02*
X19456250Y-17850000D01*
G75*
G02*
X19675000Y-18068750I0J-218750D01*
G01*
X19675000Y-18506250D01*
G75*
G02*
X19456250Y-18725000I-218750J0D01*
G01*
X18943750Y-18725000D01*
G75*
G02*
X18725000Y-18506250I0J218750D01*
G01*
X18725000Y-18068750D01*
G75*
G02*
X18943750Y-17850000I218750J0D01*
G01*
G37*
G04 #@! TD.AperFunction*
G04 #@! TO.P,R19,1*
G04 #@! TO.N,Net-(C11-Pad1)*
G04 #@! TA.AperFunction,SMDPad,CuDef*
G36*
G01*
X18943750Y-16275000D02*
X19456250Y-16275000D01*
G75*
G02*
X19675000Y-16493750I0J-218750D01*
G01*
X19675000Y-16931250D01*
G75*
G02*
X19456250Y-17150000I-218750J0D01*
G01*
X18943750Y-17150000D01*
G75*
G02*
X18725000Y-16931250I0J218750D01*
G01*
X18725000Y-16493750D01*
G75*
G02*
X18943750Y-16275000I218750J0D01*
G01*
G37*
G04 #@! TD.AperFunction*
G04 #@! TD*
G04 #@! TO.P,R18,2*
G04 #@! TO.N,Net-(C18-Pad2)*
G04 #@! TA.AperFunction,SMDPad,CuDef*
G36*
G01*
X17443750Y-17850000D02*
X17956250Y-17850000D01*
G75*
G02*
X18175000Y-18068750I0J-218750D01*
G01*
X18175000Y-18506250D01*
G75*
G02*
X17956250Y-18725000I-218750J0D01*
G01*
X17443750Y-18725000D01*
G75*
G02*
X17225000Y-18506250I0J218750D01*
G01*
X17225000Y-18068750D01*
G75*
G02*
X17443750Y-17850000I218750J0D01*
G01*
G37*
G04 #@! TD.AperFunction*
G04 #@! TO.P,R18,1*
G04 #@! TO.N,Net-(C1-Pad2)*
G04 #@! TA.AperFunction,SMDPad,CuDef*
G36*
G01*
X17443750Y-16275000D02*
X17956250Y-16275000D01*
G75*
G02*
X18175000Y-16493750I0J-218750D01*
G01*
X18175000Y-16931250D01*
G75*
G02*
X17956250Y-17150000I-218750J0D01*
G01*
X17443750Y-17150000D01*
G75*
G02*
X17225000Y-16931250I0J218750D01*
G01*
X17225000Y-16493750D01*
G75*
G02*
X17443750Y-16275000I218750J0D01*
G01*
G37*
G04 #@! TD.AperFunction*
G04 #@! TD*
G04 #@! TO.P,R17,2*
G04 #@! TO.N,Net-(R17-Pad2)*
G04 #@! TA.AperFunction,SMDPad,CuDef*
G36*
G01*
X9650000Y-6656250D02*
X9650000Y-6143750D01*
G75*
G02*
X9868750Y-5925000I218750J0D01*
G01*
X10306250Y-5925000D01*
G75*
G02*
X10525000Y-6143750I0J-218750D01*
G01*
X10525000Y-6656250D01*
G75*
G02*
X10306250Y-6875000I-218750J0D01*
G01*
X9868750Y-6875000D01*
G75*
G02*
X9650000Y-6656250I0J218750D01*
G01*
G37*
G04 #@! TD.AperFunction*
G04 #@! TO.P,R17,1*
G04 #@! TO.N,Net-(C11-Pad2)*
G04 #@! TA.AperFunction,SMDPad,CuDef*
G36*
G01*
X8075000Y-6656250D02*
X8075000Y-6143750D01*
G75*
G02*
X8293750Y-5925000I218750J0D01*
G01*
X8731250Y-5925000D01*
G75*
G02*
X8950000Y-6143750I0J-218750D01*
G01*
X8950000Y-6656250D01*
G75*
G02*
X8731250Y-6875000I-218750J0D01*
G01*
X8293750Y-6875000D01*
G75*
G02*
X8075000Y-6656250I0J218750D01*
G01*
G37*
G04 #@! TD.AperFunction*
G04 #@! TD*
G04 #@! TO.P,R16,2*
G04 #@! TO.N,Net-(R16-Pad2)*
G04 #@! TA.AperFunction,SMDPad,CuDef*
G36*
G01*
X18350000Y-6143750D02*
X18350000Y-6656250D01*
G75*
G02*
X18131250Y-6875000I-218750J0D01*
G01*
X17693750Y-6875000D01*
G75*
G02*
X17475000Y-6656250I0J218750D01*
G01*
X17475000Y-6143750D01*
G75*
G02*
X17693750Y-5925000I218750J0D01*
G01*
X18131250Y-5925000D01*
G75*
G02*
X18350000Y-6143750I0J-218750D01*
G01*
G37*
G04 #@! TD.AperFunction*
G04 #@! TO.P,R16,1*
G04 #@! TO.N,Net-(C1-Pad1)*
G04 #@! TA.AperFunction,SMDPad,CuDef*
G36*
G01*
X19925000Y-6143750D02*
X19925000Y-6656250D01*
G75*
G02*
X19706250Y-6875000I-218750J0D01*
G01*
X19268750Y-6875000D01*
G75*
G02*
X19050000Y-6656250I0J218750D01*
G01*
X19050000Y-6143750D01*
G75*
G02*
X19268750Y-5925000I218750J0D01*
G01*
X19706250Y-5925000D01*
G75*
G02*
X19925000Y-6143750I0J-218750D01*
G01*
G37*
G04 #@! TD.AperFunction*
G04 #@! TD*
G04 #@! TO.P,R14,2*
G04 #@! TO.N,Net-(C1-Pad1)*
G04 #@! TA.AperFunction,SMDPad,CuDef*
G36*
G01*
X19050000Y-9656250D02*
X19050000Y-9143750D01*
G75*
G02*
X19268750Y-8925000I218750J0D01*
G01*
X19706250Y-8925000D01*
G75*
G02*
X19925000Y-9143750I0J-218750D01*
G01*
X19925000Y-9656250D01*
G75*
G02*
X19706250Y-9875000I-218750J0D01*
G01*
X19268750Y-9875000D01*
G75*
G02*
X19050000Y-9656250I0J218750D01*
G01*
G37*
G04 #@! TD.AperFunction*
G04 #@! TO.P,R14,1*
G04 #@! TO.N,Net-(C1-Pad2)*
G04 #@! TA.AperFunction,SMDPad,CuDef*
G36*
G01*
X17475000Y-9656250D02*
X17475000Y-9143750D01*
G75*
G02*
X17693750Y-8925000I218750J0D01*
G01*
X18131250Y-8925000D01*
G75*
G02*
X18350000Y-9143750I0J-218750D01*
G01*
X18350000Y-9656250D01*
G75*
G02*
X18131250Y-9875000I-218750J0D01*
G01*
X17693750Y-9875000D01*
G75*
G02*
X17475000Y-9656250I0J218750D01*
G01*
G37*
G04 #@! TD.AperFunction*
G04 #@! TD*
G04 #@! TO.P,R13,2*
G04 #@! TO.N,Net-(R13-Pad2)*
G04 #@! TA.AperFunction,SMDPad,CuDef*
G36*
G01*
X9850000Y-16756250D02*
X9850000Y-16243750D01*
G75*
G02*
X10068750Y-16025000I218750J0D01*
G01*
X10506250Y-16025000D01*
G75*
G02*
X10725000Y-16243750I0J-218750D01*
G01*
X10725000Y-16756250D01*
G75*
G02*
X10506250Y-16975000I-218750J0D01*
G01*
X10068750Y-16975000D01*
G75*
G02*
X9850000Y-16756250I0J218750D01*
G01*
G37*
G04 #@! TD.AperFunction*
G04 #@! TO.P,R13,1*
G04 #@! TO.N,/IN-*
G04 #@! TA.AperFunction,SMDPad,CuDef*
G36*
G01*
X8275000Y-16756250D02*
X8275000Y-16243750D01*
G75*
G02*
X8493750Y-16025000I218750J0D01*
G01*
X8931250Y-16025000D01*
G75*
G02*
X9150000Y-16243750I0J-218750D01*
G01*
X9150000Y-16756250D01*
G75*
G02*
X8931250Y-16975000I-218750J0D01*
G01*
X8493750Y-16975000D01*
G75*
G02*
X8275000Y-16756250I0J218750D01*
G01*
G37*
G04 #@! TD.AperFunction*
G04 #@! TD*
G04 #@! TO.P,R10,2*
G04 #@! TO.N,/CONN_IN-*
G04 #@! TA.AperFunction,SMDPad,CuDef*
G36*
G01*
X7356250Y-6850000D02*
X6843750Y-6850000D01*
G75*
G02*
X6625000Y-6631250I0J218750D01*
G01*
X6625000Y-6193750D01*
G75*
G02*
X6843750Y-5975000I218750J0D01*
G01*
X7356250Y-5975000D01*
G75*
G02*
X7575000Y-6193750I0J-218750D01*
G01*
X7575000Y-6631250D01*
G75*
G02*
X7356250Y-6850000I-218750J0D01*
G01*
G37*
G04 #@! TD.AperFunction*
G04 #@! TO.P,R10,1*
G04 #@! TO.N,/IN-*
G04 #@! TA.AperFunction,SMDPad,CuDef*
G36*
G01*
X7356250Y-8425000D02*
X6843750Y-8425000D01*
G75*
G02*
X6625000Y-8206250I0J218750D01*
G01*
X6625000Y-7768750D01*
G75*
G02*
X6843750Y-7550000I218750J0D01*
G01*
X7356250Y-7550000D01*
G75*
G02*
X7575000Y-7768750I0J-218750D01*
G01*
X7575000Y-8206250D01*
G75*
G02*
X7356250Y-8425000I-218750J0D01*
G01*
G37*
G04 #@! TD.AperFunction*
G04 #@! TD*
G04 #@! TO.P,R9,2*
G04 #@! TO.N,/CONN_IN+*
G04 #@! TA.AperFunction,SMDPad,CuDef*
G36*
G01*
X21156250Y-6850000D02*
X20643750Y-6850000D01*
G75*
G02*
X20425000Y-6631250I0J218750D01*
G01*
X20425000Y-6193750D01*
G75*
G02*
X20643750Y-5975000I218750J0D01*
G01*
X21156250Y-5975000D01*
G75*
G02*
X21375000Y-6193750I0J-218750D01*
G01*
X21375000Y-6631250D01*
G75*
G02*
X21156250Y-6850000I-218750J0D01*
G01*
G37*
G04 #@! TD.AperFunction*
G04 #@! TO.P,R9,1*
G04 #@! TO.N,/IN+*
G04 #@! TA.AperFunction,SMDPad,CuDef*
G36*
G01*
X21156250Y-8425000D02*
X20643750Y-8425000D01*
G75*
G02*
X20425000Y-8206250I0J218750D01*
G01*
X20425000Y-7768750D01*
G75*
G02*
X20643750Y-7550000I218750J0D01*
G01*
X21156250Y-7550000D01*
G75*
G02*
X21375000Y-7768750I0J-218750D01*
G01*
X21375000Y-8206250D01*
G75*
G02*
X21156250Y-8425000I-218750J0D01*
G01*
G37*
G04 #@! TD.AperFunction*
G04 #@! TD*
G04 #@! TO.P,R6,2*
G04 #@! TO.N,Net-(C4-Pad2)*
G04 #@! TA.AperFunction,SMDPad,CuDef*
G36*
G01*
X7250000Y-32556250D02*
X7250000Y-32043750D01*
G75*
G02*
X7468750Y-31825000I218750J0D01*
G01*
X7906250Y-31825000D01*
G75*
G02*
X8125000Y-32043750I0J-218750D01*
G01*
X8125000Y-32556250D01*
G75*
G02*
X7906250Y-32775000I-218750J0D01*
G01*
X7468750Y-32775000D01*
G75*
G02*
X7250000Y-32556250I0J218750D01*
G01*
G37*
G04 #@! TD.AperFunction*
G04 #@! TO.P,R6,1*
G04 #@! TO.N,GND*
G04 #@! TA.AperFunction,SMDPad,CuDef*
G36*
G01*
X5675000Y-32556250D02*
X5675000Y-32043750D01*
G75*
G02*
X5893750Y-31825000I218750J0D01*
G01*
X6331250Y-31825000D01*
G75*
G02*
X6550000Y-32043750I0J-218750D01*
G01*
X6550000Y-32556250D01*
G75*
G02*
X6331250Y-32775000I-218750J0D01*
G01*
X5893750Y-32775000D01*
G75*
G02*
X5675000Y-32556250I0J218750D01*
G01*
G37*
G04 #@! TD.AperFunction*
G04 #@! TD*
G04 #@! TO.P,R3,2*
G04 #@! TO.N,Net-(C5-Pad2)*
G04 #@! TA.AperFunction,SMDPad,CuDef*
G36*
G01*
X3550000Y-33543750D02*
X3550000Y-34056250D01*
G75*
G02*
X3331250Y-34275000I-218750J0D01*
G01*
X2893750Y-34275000D01*
G75*
G02*
X2675000Y-34056250I0J218750D01*
G01*
X2675000Y-33543750D01*
G75*
G02*
X2893750Y-33325000I218750J0D01*
G01*
X3331250Y-33325000D01*
G75*
G02*
X3550000Y-33543750I0J-218750D01*
G01*
G37*
G04 #@! TD.AperFunction*
G04 #@! TO.P,R3,1*
G04 #@! TO.N,Net-(C5-Pad1)*
G04 #@! TA.AperFunction,SMDPad,CuDef*
G36*
G01*
X5125000Y-33543750D02*
X5125000Y-34056250D01*
G75*
G02*
X4906250Y-34275000I-218750J0D01*
G01*
X4468750Y-34275000D01*
G75*
G02*
X4250000Y-34056250I0J218750D01*
G01*
X4250000Y-33543750D01*
G75*
G02*
X4468750Y-33325000I218750J0D01*
G01*
X4906250Y-33325000D01*
G75*
G02*
X5125000Y-33543750I0J-218750D01*
G01*
G37*
G04 #@! TD.AperFunction*
G04 #@! TD*
G04 #@! TO.P,R2,2*
G04 #@! TO.N,Net-(C4-Pad2)*
G04 #@! TA.AperFunction,SMDPad,CuDef*
G36*
G01*
X7250000Y-34056250D02*
X7250000Y-33543750D01*
G75*
G02*
X7468750Y-33325000I218750J0D01*
G01*
X7906250Y-33325000D01*
G75*
G02*
X8125000Y-33543750I0J-218750D01*
G01*
X8125000Y-34056250D01*
G75*
G02*
X7906250Y-34275000I-218750J0D01*
G01*
X7468750Y-34275000D01*
G75*
G02*
X7250000Y-34056250I0J218750D01*
G01*
G37*
G04 #@! TD.AperFunction*
G04 #@! TO.P,R2,1*
G04 #@! TO.N,Net-(C4-Pad1)*
G04 #@! TA.AperFunction,SMDPad,CuDef*
G36*
G01*
X5675000Y-34056250D02*
X5675000Y-33543750D01*
G75*
G02*
X5893750Y-33325000I218750J0D01*
G01*
X6331250Y-33325000D01*
G75*
G02*
X6550000Y-33543750I0J-218750D01*
G01*
X6550000Y-34056250D01*
G75*
G02*
X6331250Y-34275000I-218750J0D01*
G01*
X5893750Y-34275000D01*
G75*
G02*
X5675000Y-34056250I0J218750D01*
G01*
G37*
G04 #@! TD.AperFunction*
G04 #@! TD*
G04 #@! TO.P,R1,2*
G04 #@! TO.N,Net-(R1-Pad2)*
G04 #@! TA.AperFunction,SMDPad,CuDef*
G36*
G01*
X4250000Y-32556250D02*
X4250000Y-32043750D01*
G75*
G02*
X4468750Y-31825000I218750J0D01*
G01*
X4906250Y-31825000D01*
G75*
G02*
X5125000Y-32043750I0J-218750D01*
G01*
X5125000Y-32556250D01*
G75*
G02*
X4906250Y-32775000I-218750J0D01*
G01*
X4468750Y-32775000D01*
G75*
G02*
X4250000Y-32556250I0J218750D01*
G01*
G37*
G04 #@! TD.AperFunction*
G04 #@! TO.P,R1,1*
G04 #@! TO.N,Net-(C5-Pad2)*
G04 #@! TA.AperFunction,SMDPad,CuDef*
G36*
G01*
X2675000Y-32556250D02*
X2675000Y-32043750D01*
G75*
G02*
X2893750Y-31825000I218750J0D01*
G01*
X3331250Y-31825000D01*
G75*
G02*
X3550000Y-32043750I0J-218750D01*
G01*
X3550000Y-32556250D01*
G75*
G02*
X3331250Y-32775000I-218750J0D01*
G01*
X2893750Y-32775000D01*
G75*
G02*
X2675000Y-32556250I0J218750D01*
G01*
G37*
G04 #@! TD.AperFunction*
G04 #@! TD*
G04 #@! TO.P,L6,2*
G04 #@! TO.N,Net-(C9-Pad1)*
G04 #@! TA.AperFunction,SMDPad,CuDef*
G36*
G01*
X11843750Y-26550000D02*
X12356250Y-26550000D01*
G75*
G02*
X12575000Y-26768750I0J-218750D01*
G01*
X12575000Y-27206250D01*
G75*
G02*
X12356250Y-27425000I-218750J0D01*
G01*
X11843750Y-27425000D01*
G75*
G02*
X11625000Y-27206250I0J218750D01*
G01*
X11625000Y-26768750D01*
G75*
G02*
X11843750Y-26550000I218750J0D01*
G01*
G37*
G04 #@! TD.AperFunction*
G04 #@! TO.P,L6,1*
G04 #@! TO.N,Net-(C5-Pad1)*
G04 #@! TA.AperFunction,SMDPad,CuDef*
G36*
G01*
X11843750Y-24975000D02*
X12356250Y-24975000D01*
G75*
G02*
X12575000Y-25193750I0J-218750D01*
G01*
X12575000Y-25631250D01*
G75*
G02*
X12356250Y-25850000I-218750J0D01*
G01*
X11843750Y-25850000D01*
G75*
G02*
X11625000Y-25631250I0J218750D01*
G01*
X11625000Y-25193750D01*
G75*
G02*
X11843750Y-24975000I218750J0D01*
G01*
G37*
G04 #@! TD.AperFunction*
G04 #@! TD*
G04 #@! TO.P,L5,2*
G04 #@! TO.N,Net-(C8-Pad1)*
G04 #@! TA.AperFunction,SMDPad,CuDef*
G36*
G01*
X10343750Y-26550000D02*
X10856250Y-26550000D01*
G75*
G02*
X11075000Y-26768750I0J-218750D01*
G01*
X11075000Y-27206250D01*
G75*
G02*
X10856250Y-27425000I-218750J0D01*
G01*
X10343750Y-27425000D01*
G75*
G02*
X10125000Y-27206250I0J218750D01*
G01*
X10125000Y-26768750D01*
G75*
G02*
X10343750Y-26550000I218750J0D01*
G01*
G37*
G04 #@! TD.AperFunction*
G04 #@! TO.P,L5,1*
G04 #@! TO.N,Net-(C4-Pad1)*
G04 #@! TA.AperFunction,SMDPad,CuDef*
G36*
G01*
X10343750Y-24975000D02*
X10856250Y-24975000D01*
G75*
G02*
X11075000Y-25193750I0J-218750D01*
G01*
X11075000Y-25631250D01*
G75*
G02*
X10856250Y-25850000I-218750J0D01*
G01*
X10343750Y-25850000D01*
G75*
G02*
X10125000Y-25631250I0J218750D01*
G01*
X10125000Y-25193750D01*
G75*
G02*
X10343750Y-24975000I218750J0D01*
G01*
G37*
G04 #@! TD.AperFunction*
G04 #@! TD*
G04 #@! TO.P,L2,2*
G04 #@! TO.N,Net-(C26-Pad1)*
G04 #@! TA.AperFunction,SMDPad,CuDef*
G36*
G01*
X8843750Y-35550000D02*
X9356250Y-35550000D01*
G75*
G02*
X9575000Y-35768750I0J-218750D01*
G01*
X9575000Y-36206250D01*
G75*
G02*
X9356250Y-36425000I-218750J0D01*
G01*
X8843750Y-36425000D01*
G75*
G02*
X8625000Y-36206250I0J218750D01*
G01*
X8625000Y-35768750D01*
G75*
G02*
X8843750Y-35550000I218750J0D01*
G01*
G37*
G04 #@! TD.AperFunction*
G04 #@! TO.P,L2,1*
G04 #@! TO.N,Net-(C2-Pad1)*
G04 #@! TA.AperFunction,SMDPad,CuDef*
G36*
G01*
X8843750Y-33975000D02*
X9356250Y-33975000D01*
G75*
G02*
X9575000Y-34193750I0J-218750D01*
G01*
X9575000Y-34631250D01*
G75*
G02*
X9356250Y-34850000I-218750J0D01*
G01*
X8843750Y-34850000D01*
G75*
G02*
X8625000Y-34631250I0J218750D01*
G01*
X8625000Y-34193750D01*
G75*
G02*
X8843750Y-33975000I218750J0D01*
G01*
G37*
G04 #@! TD.AperFunction*
G04 #@! TD*
G04 #@! TO.P,C25,2*
G04 #@! TO.N,-6V*
G04 #@! TA.AperFunction,SMDPad,CuDef*
G36*
G01*
X22250000Y-23643750D02*
X22250000Y-24156250D01*
G75*
G02*
X22031250Y-24375000I-218750J0D01*
G01*
X21593750Y-24375000D01*
G75*
G02*
X21375000Y-24156250I0J218750D01*
G01*
X21375000Y-23643750D01*
G75*
G02*
X21593750Y-23425000I218750J0D01*
G01*
X22031250Y-23425000D01*
G75*
G02*
X22250000Y-23643750I0J-218750D01*
G01*
G37*
G04 #@! TD.AperFunction*
G04 #@! TO.P,C25,1*
G04 #@! TO.N,GNDA*
G04 #@! TA.AperFunction,SMDPad,CuDef*
G36*
G01*
X23825000Y-23643750D02*
X23825000Y-24156250D01*
G75*
G02*
X23606250Y-24375000I-218750J0D01*
G01*
X23168750Y-24375000D01*
G75*
G02*
X22950000Y-24156250I0J218750D01*
G01*
X22950000Y-23643750D01*
G75*
G02*
X23168750Y-23425000I218750J0D01*
G01*
X23606250Y-23425000D01*
G75*
G02*
X23825000Y-23643750I0J-218750D01*
G01*
G37*
G04 #@! TD.AperFunction*
G04 #@! TD*
G04 #@! TO.P,C24,2*
G04 #@! TO.N,GNDA*
G04 #@! TA.AperFunction,SMDPad,CuDef*
G36*
G01*
X22950000Y-25656250D02*
X22950000Y-25143750D01*
G75*
G02*
X23168750Y-24925000I218750J0D01*
G01*
X23606250Y-24925000D01*
G75*
G02*
X23825000Y-25143750I0J-218750D01*
G01*
X23825000Y-25656250D01*
G75*
G02*
X23606250Y-25875000I-218750J0D01*
G01*
X23168750Y-25875000D01*
G75*
G02*
X22950000Y-25656250I0J218750D01*
G01*
G37*
G04 #@! TD.AperFunction*
G04 #@! TO.P,C24,1*
G04 #@! TO.N,+6V*
G04 #@! TA.AperFunction,SMDPad,CuDef*
G36*
G01*
X21375000Y-25656250D02*
X21375000Y-25143750D01*
G75*
G02*
X21593750Y-24925000I218750J0D01*
G01*
X22031250Y-24925000D01*
G75*
G02*
X22250000Y-25143750I0J-218750D01*
G01*
X22250000Y-25656250D01*
G75*
G02*
X22031250Y-25875000I-218750J0D01*
G01*
X21593750Y-25875000D01*
G75*
G02*
X21375000Y-25656250I0J218750D01*
G01*
G37*
G04 #@! TD.AperFunction*
G04 #@! TD*
G04 #@! TO.P,C23,2*
G04 #@! TO.N,-6V*
G04 #@! TA.AperFunction,SMDPad,CuDef*
G36*
G01*
X21350000Y-9443750D02*
X21350000Y-9956250D01*
G75*
G02*
X21131250Y-10175000I-218750J0D01*
G01*
X20693750Y-10175000D01*
G75*
G02*
X20475000Y-9956250I0J218750D01*
G01*
X20475000Y-9443750D01*
G75*
G02*
X20693750Y-9225000I218750J0D01*
G01*
X21131250Y-9225000D01*
G75*
G02*
X21350000Y-9443750I0J-218750D01*
G01*
G37*
G04 #@! TD.AperFunction*
G04 #@! TO.P,C23,1*
G04 #@! TO.N,GNDA*
G04 #@! TA.AperFunction,SMDPad,CuDef*
G36*
G01*
X22925000Y-9443750D02*
X22925000Y-9956250D01*
G75*
G02*
X22706250Y-10175000I-218750J0D01*
G01*
X22268750Y-10175000D01*
G75*
G02*
X22050000Y-9956250I0J218750D01*
G01*
X22050000Y-9443750D01*
G75*
G02*
X22268750Y-9225000I218750J0D01*
G01*
X22706250Y-9225000D01*
G75*
G02*
X22925000Y-9443750I0J-218750D01*
G01*
G37*
G04 #@! TD.AperFunction*
G04 #@! TD*
G04 #@! TO.P,C19,2*
G04 #@! TO.N,Net-(C19-Pad2)*
G04 #@! TA.AperFunction,SMDPad,CuDef*
G36*
G01*
X20750000Y-20943750D02*
X20750000Y-21456250D01*
G75*
G02*
X20531250Y-21675000I-218750J0D01*
G01*
X20093750Y-21675000D01*
G75*
G02*
X19875000Y-21456250I0J218750D01*
G01*
X19875000Y-20943750D01*
G75*
G02*
X20093750Y-20725000I218750J0D01*
G01*
X20531250Y-20725000D01*
G75*
G02*
X20750000Y-20943750I0J-218750D01*
G01*
G37*
G04 #@! TD.AperFunction*
G04 #@! TO.P,C19,1*
G04 #@! TO.N,Net-(C19-Pad1)*
G04 #@! TA.AperFunction,SMDPad,CuDef*
G36*
G01*
X22325000Y-20943750D02*
X22325000Y-21456250D01*
G75*
G02*
X22106250Y-21675000I-218750J0D01*
G01*
X21668750Y-21675000D01*
G75*
G02*
X21450000Y-21456250I0J218750D01*
G01*
X21450000Y-20943750D01*
G75*
G02*
X21668750Y-20725000I218750J0D01*
G01*
X22106250Y-20725000D01*
G75*
G02*
X22325000Y-20943750I0J-218750D01*
G01*
G37*
G04 #@! TD.AperFunction*
G04 #@! TD*
G04 #@! TO.P,C13,2*
G04 #@! TO.N,GNDA*
G04 #@! TA.AperFunction,SMDPad,CuDef*
G36*
G01*
X11843750Y-29550000D02*
X12356250Y-29550000D01*
G75*
G02*
X12575000Y-29768750I0J-218750D01*
G01*
X12575000Y-30206250D01*
G75*
G02*
X12356250Y-30425000I-218750J0D01*
G01*
X11843750Y-30425000D01*
G75*
G02*
X11625000Y-30206250I0J218750D01*
G01*
X11625000Y-29768750D01*
G75*
G02*
X11843750Y-29550000I218750J0D01*
G01*
G37*
G04 #@! TD.AperFunction*
G04 #@! TO.P,C13,1*
G04 #@! TO.N,-6V*
G04 #@! TA.AperFunction,SMDPad,CuDef*
G36*
G01*
X11843750Y-27975000D02*
X12356250Y-27975000D01*
G75*
G02*
X12575000Y-28193750I0J-218750D01*
G01*
X12575000Y-28631250D01*
G75*
G02*
X12356250Y-28850000I-218750J0D01*
G01*
X11843750Y-28850000D01*
G75*
G02*
X11625000Y-28631250I0J218750D01*
G01*
X11625000Y-28193750D01*
G75*
G02*
X11843750Y-27975000I218750J0D01*
G01*
G37*
G04 #@! TD.AperFunction*
G04 #@! TD*
G04 #@! TO.P,C12,2*
G04 #@! TO.N,GNDA*
G04 #@! TA.AperFunction,SMDPad,CuDef*
G36*
G01*
X10343750Y-29550000D02*
X10856250Y-29550000D01*
G75*
G02*
X11075000Y-29768750I0J-218750D01*
G01*
X11075000Y-30206250D01*
G75*
G02*
X10856250Y-30425000I-218750J0D01*
G01*
X10343750Y-30425000D01*
G75*
G02*
X10125000Y-30206250I0J218750D01*
G01*
X10125000Y-29768750D01*
G75*
G02*
X10343750Y-29550000I218750J0D01*
G01*
G37*
G04 #@! TD.AperFunction*
G04 #@! TO.P,C12,1*
G04 #@! TO.N,+6V*
G04 #@! TA.AperFunction,SMDPad,CuDef*
G36*
G01*
X10343750Y-27975000D02*
X10856250Y-27975000D01*
G75*
G02*
X11075000Y-28193750I0J-218750D01*
G01*
X11075000Y-28631250D01*
G75*
G02*
X10856250Y-28850000I-218750J0D01*
G01*
X10343750Y-28850000D01*
G75*
G02*
X10125000Y-28631250I0J218750D01*
G01*
X10125000Y-28193750D01*
G75*
G02*
X10343750Y-27975000I218750J0D01*
G01*
G37*
G04 #@! TD.AperFunction*
G04 #@! TD*
G04 #@! TO.P,C9,2*
G04 #@! TO.N,GND*
G04 #@! TA.AperFunction,SMDPad,CuDef*
G36*
G01*
X12550000Y-23743750D02*
X12550000Y-24256250D01*
G75*
G02*
X12331250Y-24475000I-218750J0D01*
G01*
X11893750Y-24475000D01*
G75*
G02*
X11675000Y-24256250I0J218750D01*
G01*
X11675000Y-23743750D01*
G75*
G02*
X11893750Y-23525000I218750J0D01*
G01*
X12331250Y-23525000D01*
G75*
G02*
X12550000Y-23743750I0J-218750D01*
G01*
G37*
G04 #@! TD.AperFunction*
G04 #@! TO.P,C9,1*
G04 #@! TO.N,Net-(C9-Pad1)*
G04 #@! TA.AperFunction,SMDPad,CuDef*
G36*
G01*
X14125000Y-23743750D02*
X14125000Y-24256250D01*
G75*
G02*
X13906250Y-24475000I-218750J0D01*
G01*
X13468750Y-24475000D01*
G75*
G02*
X13250000Y-24256250I0J218750D01*
G01*
X13250000Y-23743750D01*
G75*
G02*
X13468750Y-23525000I218750J0D01*
G01*
X13906250Y-23525000D01*
G75*
G02*
X14125000Y-23743750I0J-218750D01*
G01*
G37*
G04 #@! TD.AperFunction*
G04 #@! TD*
G04 #@! TO.P,C8,2*
G04 #@! TO.N,GND*
G04 #@! TA.AperFunction,SMDPad,CuDef*
G36*
G01*
X10250000Y-24256250D02*
X10250000Y-23743750D01*
G75*
G02*
X10468750Y-23525000I218750J0D01*
G01*
X10906250Y-23525000D01*
G75*
G02*
X11125000Y-23743750I0J-218750D01*
G01*
X11125000Y-24256250D01*
G75*
G02*
X10906250Y-24475000I-218750J0D01*
G01*
X10468750Y-24475000D01*
G75*
G02*
X10250000Y-24256250I0J218750D01*
G01*
G37*
G04 #@! TD.AperFunction*
G04 #@! TO.P,C8,1*
G04 #@! TO.N,Net-(C8-Pad1)*
G04 #@! TA.AperFunction,SMDPad,CuDef*
G36*
G01*
X8675000Y-24256250D02*
X8675000Y-23743750D01*
G75*
G02*
X8893750Y-23525000I218750J0D01*
G01*
X9331250Y-23525000D01*
G75*
G02*
X9550000Y-23743750I0J-218750D01*
G01*
X9550000Y-24256250D01*
G75*
G02*
X9331250Y-24475000I-218750J0D01*
G01*
X8893750Y-24475000D01*
G75*
G02*
X8675000Y-24256250I0J218750D01*
G01*
G37*
G04 #@! TD.AperFunction*
G04 #@! TD*
G04 #@! TO.P,C7,2*
G04 #@! TO.N,GND*
G04 #@! TA.AperFunction,SMDPad,CuDef*
G36*
G01*
X7950000Y-20756250D02*
X7950000Y-20243750D01*
G75*
G02*
X8168750Y-20025000I218750J0D01*
G01*
X8606250Y-20025000D01*
G75*
G02*
X8825000Y-20243750I0J-218750D01*
G01*
X8825000Y-20756250D01*
G75*
G02*
X8606250Y-20975000I-218750J0D01*
G01*
X8168750Y-20975000D01*
G75*
G02*
X7950000Y-20756250I0J218750D01*
G01*
G37*
G04 #@! TD.AperFunction*
G04 #@! TO.P,C7,1*
G04 #@! TO.N,Net-(C5-Pad1)*
G04 #@! TA.AperFunction,SMDPad,CuDef*
G36*
G01*
X6375000Y-20756250D02*
X6375000Y-20243750D01*
G75*
G02*
X6593750Y-20025000I218750J0D01*
G01*
X7031250Y-20025000D01*
G75*
G02*
X7250000Y-20243750I0J-218750D01*
G01*
X7250000Y-20756250D01*
G75*
G02*
X7031250Y-20975000I-218750J0D01*
G01*
X6593750Y-20975000D01*
G75*
G02*
X6375000Y-20756250I0J218750D01*
G01*
G37*
G04 #@! TD.AperFunction*
G04 #@! TD*
G04 #@! TO.P,C6,2*
G04 #@! TO.N,GND*
G04 #@! TA.AperFunction,SMDPad,CuDef*
G36*
G01*
X7950000Y-22256250D02*
X7950000Y-21743750D01*
G75*
G02*
X8168750Y-21525000I218750J0D01*
G01*
X8606250Y-21525000D01*
G75*
G02*
X8825000Y-21743750I0J-218750D01*
G01*
X8825000Y-22256250D01*
G75*
G02*
X8606250Y-22475000I-218750J0D01*
G01*
X8168750Y-22475000D01*
G75*
G02*
X7950000Y-22256250I0J218750D01*
G01*
G37*
G04 #@! TD.AperFunction*
G04 #@! TO.P,C6,1*
G04 #@! TO.N,Net-(C4-Pad1)*
G04 #@! TA.AperFunction,SMDPad,CuDef*
G36*
G01*
X6375000Y-22256250D02*
X6375000Y-21743750D01*
G75*
G02*
X6593750Y-21525000I218750J0D01*
G01*
X7031250Y-21525000D01*
G75*
G02*
X7250000Y-21743750I0J-218750D01*
G01*
X7250000Y-22256250D01*
G75*
G02*
X7031250Y-22475000I-218750J0D01*
G01*
X6593750Y-22475000D01*
G75*
G02*
X6375000Y-22256250I0J218750D01*
G01*
G37*
G04 #@! TD.AperFunction*
G04 #@! TD*
G04 #@! TO.P,C5,2*
G04 #@! TO.N,Net-(C5-Pad2)*
G04 #@! TA.AperFunction,SMDPad,CuDef*
G36*
G01*
X3550000Y-35043750D02*
X3550000Y-35556250D01*
G75*
G02*
X3331250Y-35775000I-218750J0D01*
G01*
X2893750Y-35775000D01*
G75*
G02*
X2675000Y-35556250I0J218750D01*
G01*
X2675000Y-35043750D01*
G75*
G02*
X2893750Y-34825000I218750J0D01*
G01*
X3331250Y-34825000D01*
G75*
G02*
X3550000Y-35043750I0J-218750D01*
G01*
G37*
G04 #@! TD.AperFunction*
G04 #@! TO.P,C5,1*
G04 #@! TO.N,Net-(C5-Pad1)*
G04 #@! TA.AperFunction,SMDPad,CuDef*
G36*
G01*
X5125000Y-35043750D02*
X5125000Y-35556250D01*
G75*
G02*
X4906250Y-35775000I-218750J0D01*
G01*
X4468750Y-35775000D01*
G75*
G02*
X4250000Y-35556250I0J218750D01*
G01*
X4250000Y-35043750D01*
G75*
G02*
X4468750Y-34825000I218750J0D01*
G01*
X4906250Y-34825000D01*
G75*
G02*
X5125000Y-35043750I0J-218750D01*
G01*
G37*
G04 #@! TD.AperFunction*
G04 #@! TD*
G04 #@! TO.P,C4,2*
G04 #@! TO.N,Net-(C4-Pad2)*
G04 #@! TA.AperFunction,SMDPad,CuDef*
G36*
G01*
X7250000Y-35556250D02*
X7250000Y-35043750D01*
G75*
G02*
X7468750Y-34825000I218750J0D01*
G01*
X7906250Y-34825000D01*
G75*
G02*
X8125000Y-35043750I0J-218750D01*
G01*
X8125000Y-35556250D01*
G75*
G02*
X7906250Y-35775000I-218750J0D01*
G01*
X7468750Y-35775000D01*
G75*
G02*
X7250000Y-35556250I0J218750D01*
G01*
G37*
G04 #@! TD.AperFunction*
G04 #@! TO.P,C4,1*
G04 #@! TO.N,Net-(C4-Pad1)*
G04 #@! TA.AperFunction,SMDPad,CuDef*
G36*
G01*
X5675000Y-35556250D02*
X5675000Y-35043750D01*
G75*
G02*
X5893750Y-34825000I218750J0D01*
G01*
X6331250Y-34825000D01*
G75*
G02*
X6550000Y-35043750I0J-218750D01*
G01*
X6550000Y-35556250D01*
G75*
G02*
X6331250Y-35775000I-218750J0D01*
G01*
X5893750Y-35775000D01*
G75*
G02*
X5675000Y-35556250I0J218750D01*
G01*
G37*
G04 #@! TD.AperFunction*
G04 #@! TD*
G04 #@! TO.P,C3,2*
G04 #@! TO.N,GND*
G04 #@! TA.AperFunction,SMDPad,CuDef*
G36*
G01*
X7856250Y-24562500D02*
X7343750Y-24562500D01*
G75*
G02*
X7125000Y-24343750I0J218750D01*
G01*
X7125000Y-23906250D01*
G75*
G02*
X7343750Y-23687500I218750J0D01*
G01*
X7856250Y-23687500D01*
G75*
G02*
X8075000Y-23906250I0J-218750D01*
G01*
X8075000Y-24343750D01*
G75*
G02*
X7856250Y-24562500I-218750J0D01*
G01*
G37*
G04 #@! TD.AperFunction*
G04 #@! TO.P,C3,1*
G04 #@! TO.N,Net-(C26-Pad1)*
G04 #@! TA.AperFunction,SMDPad,CuDef*
G36*
G01*
X7856250Y-26137500D02*
X7343750Y-26137500D01*
G75*
G02*
X7125000Y-25918750I0J218750D01*
G01*
X7125000Y-25481250D01*
G75*
G02*
X7343750Y-25262500I218750J0D01*
G01*
X7856250Y-25262500D01*
G75*
G02*
X8075000Y-25481250I0J-218750D01*
G01*
X8075000Y-25918750D01*
G75*
G02*
X7856250Y-26137500I-218750J0D01*
G01*
G37*
G04 #@! TD.AperFunction*
G04 #@! TD*
G04 #@! TO.P,C2,2*
G04 #@! TO.N,GND*
G04 #@! TA.AperFunction,SMDPad,CuDef*
G36*
G01*
X9356250Y-31850000D02*
X8843750Y-31850000D01*
G75*
G02*
X8625000Y-31631250I0J218750D01*
G01*
X8625000Y-31193750D01*
G75*
G02*
X8843750Y-30975000I218750J0D01*
G01*
X9356250Y-30975000D01*
G75*
G02*
X9575000Y-31193750I0J-218750D01*
G01*
X9575000Y-31631250D01*
G75*
G02*
X9356250Y-31850000I-218750J0D01*
G01*
G37*
G04 #@! TD.AperFunction*
G04 #@! TO.P,C2,1*
G04 #@! TO.N,Net-(C2-Pad1)*
G04 #@! TA.AperFunction,SMDPad,CuDef*
G36*
G01*
X9356250Y-33425000D02*
X8843750Y-33425000D01*
G75*
G02*
X8625000Y-33206250I0J218750D01*
G01*
X8625000Y-32768750D01*
G75*
G02*
X8843750Y-32550000I218750J0D01*
G01*
X9356250Y-32550000D01*
G75*
G02*
X9575000Y-32768750I0J-218750D01*
G01*
X9575000Y-33206250D01*
G75*
G02*
X9356250Y-33425000I-218750J0D01*
G01*
G37*
G04 #@! TD.AperFunction*
G04 #@! TD*
D32*
G04 #@! TO.N,GND*
X9100000Y-30700000D03*
X9800000Y-31400000D03*
X8356250Y-29243750D03*
X6800000Y-32900000D03*
X8000000Y-23400000D03*
X9000000Y-21200000D03*
X11400000Y-23591048D03*
X5900000Y-29200000D03*
X5100000Y-29200000D03*
X5900000Y-29800000D03*
X5100000Y-29800000D03*
X5100000Y-30400000D03*
X5900000Y-30400000D03*
X5900000Y-28600000D03*
X5100000Y-28600000D03*
X5100000Y-28000000D03*
X5900000Y-28000000D03*
X2169305Y-35459689D03*
X6800000Y-24800000D03*
X9800000Y-30700000D03*
X2350000Y-23350000D03*
X11400000Y-22950000D03*
X2850027Y-19550027D03*
X13749990Y-22945864D03*
X10249967Y-19550027D03*
X7950027Y-19550027D03*
X12200000Y-21000004D03*
G04 #@! TO.N,Net-(C4-Pad1)*
X6700000Y-34600000D03*
X6100000Y-21600013D03*
X10018750Y-24831250D03*
G04 #@! TO.N,Net-(C5-Pad1)*
X6100000Y-20800000D03*
X5189209Y-34610791D03*
X12650000Y-24950000D03*
G04 #@! TO.N,+6V*
X12790380Y-10809620D03*
X15009620Y-10809620D03*
X19000000Y-27700000D03*
X15700000Y-27700000D03*
X11093750Y-28906250D03*
X22900000Y-27600000D03*
X21800000Y-26400000D03*
X11503370Y-16203370D03*
G04 #@! TO.N,-6V*
X17199986Y-13500000D03*
X17800000Y-13500000D03*
X18400004Y-13500000D03*
X19000000Y-13500006D03*
X17500000Y-14000000D03*
X18100000Y-14000000D03*
X18700000Y-14000000D03*
X9000000Y-13500000D03*
X9600000Y-13500000D03*
X10200000Y-13500000D03*
X10800000Y-13500000D03*
X9300000Y-14000000D03*
X9900000Y-14000000D03*
X10500000Y-14000000D03*
X8712500Y-14012500D03*
X11100000Y-14000000D03*
X16900000Y-14000000D03*
X19300000Y-14000000D03*
X9000000Y-10500000D03*
X9600000Y-10500000D03*
X10200000Y-10500000D03*
X10800000Y-10500000D03*
X17200000Y-10500000D03*
X17800000Y-10500000D03*
X18400000Y-10500000D03*
X19000000Y-10500000D03*
X20800000Y-23200000D03*
X20800000Y-23800000D03*
X20800000Y-24400000D03*
X20800000Y-25000000D03*
X17800000Y-23200000D03*
X17800000Y-23800000D03*
X17800000Y-24400000D03*
X17800000Y-25000000D03*
X17300000Y-23500000D03*
X17300000Y-22900000D03*
X17300000Y-24100000D03*
X17300000Y-24700000D03*
X17300000Y-25300000D03*
X16800000Y-23200000D03*
X16800000Y-22600000D03*
X16800000Y-23800000D03*
X16800000Y-24400000D03*
X16800000Y-25000000D03*
X16800000Y-25600000D03*
X23500000Y-31000000D03*
X16300000Y-22900000D03*
X16300004Y-22300000D03*
X16300000Y-23500000D03*
X16300000Y-24100000D03*
X16300000Y-24700000D03*
X16300000Y-25300000D03*
X16300000Y-25900000D03*
X14088897Y-27149573D03*
G04 #@! TO.N,Net-(C26-Pad1)*
X7675000Y-31115908D03*
X7800000Y-28300000D03*
X3487095Y-31027421D03*
X10000002Y-35700000D03*
X10000000Y-36299984D03*
X7800000Y-27700000D03*
G04 #@! TO.N,/CONN_IN+*
X19800000Y-3850000D03*
G04 #@! TO.N,/CONN_IN-*
X8200000Y-3850000D03*
G04 #@! TO.N,GNDA*
X24200000Y-24600000D03*
X9600000Y-15600000D03*
X22900000Y-8850012D03*
X14800000Y-13600000D03*
X12999987Y-13578597D03*
X16700000Y-20500000D03*
X5900000Y-16200000D03*
X22100000Y-16200000D03*
X22100000Y-17700000D03*
X12500000Y-19100000D03*
X6080000Y-2415000D03*
X10320000Y-2415000D03*
X17808782Y-2536827D03*
X21920000Y-2415000D03*
X6174990Y-4874990D03*
X17700000Y-4900000D03*
X21825010Y-4825010D03*
X15500000Y-19100000D03*
X10300000Y-4900000D03*
X15000000Y-8700000D03*
X12800000Y-8700000D03*
X17524882Y1000000D03*
X17524966Y-750000D03*
X10475030Y1000000D03*
X10475020Y-700000D03*
X24000000Y-33800000D03*
X5900000Y-17700000D03*
X2900000Y-18100000D03*
X10200000Y-18100000D03*
X23600000Y-24600000D03*
X13749990Y-20600000D03*
X15270711Y-26210049D03*
X8000000Y-18100000D03*
X15270711Y-22929289D03*
X14900000Y-28450006D03*
G04 #@! TD*
D33*
G04 #@! TO.N,GND*
X6350000Y-24125000D02*
X6025000Y-23800000D01*
D34*
X5000000Y-28700000D02*
X5500000Y-29200000D01*
X6025000Y-23800000D02*
X6025000Y-24311810D01*
D35*
X5000000Y-25300000D02*
X5000000Y-25336810D01*
X6025000Y-24311810D02*
X5988190Y-24311810D01*
D36*
X5000000Y-25250000D02*
X5000000Y-25300000D01*
X5988190Y-24311810D02*
X5938190Y-24311810D01*
D34*
X5700000Y-23800000D02*
X5575010Y-23924990D01*
X6025000Y-23800000D02*
X5700000Y-23800000D01*
X5575010Y-24674990D02*
X5475000Y-24775000D01*
X5575010Y-23924990D02*
X5575010Y-24674990D01*
D36*
X5475000Y-24775000D02*
X5000000Y-25250000D01*
X5938190Y-24311810D02*
X5475000Y-24775000D01*
D34*
X5900000Y-28000000D02*
X5600000Y-28000000D01*
X5950000Y-27950000D02*
X5900000Y-28000000D01*
X6950000Y-27950000D02*
X5950000Y-27950000D01*
X5750000Y-28950000D02*
X5500000Y-29200000D01*
X6950000Y-28950000D02*
X5750000Y-28950000D01*
X8062500Y-28950000D02*
X8137510Y-29025010D01*
X6950000Y-28950000D02*
X8062500Y-28950000D01*
D33*
X7725000Y-24000000D02*
X7600000Y-24125000D01*
X12100000Y-24012500D02*
X12112500Y-24000000D01*
X7600000Y-23243750D02*
X7600000Y-24125000D01*
X8387500Y-22456250D02*
X7600000Y-23243750D01*
X8387500Y-22000000D02*
X8387500Y-22456250D01*
X9100000Y-31412500D02*
X9100000Y-30700000D01*
X9100000Y-30700000D02*
X9100000Y-29987500D01*
X9787500Y-31412500D02*
X9800000Y-31400000D01*
X9100000Y-31412500D02*
X9787500Y-31412500D01*
X10512500Y-31400000D02*
X9800000Y-31400000D01*
X9100000Y-29987500D02*
X8356250Y-29243750D01*
X8356250Y-29243750D02*
X8137510Y-29025010D01*
D35*
X6112500Y-32312500D02*
X6800000Y-33000000D01*
X6112500Y-32300000D02*
X6112500Y-32312500D01*
D33*
X7600000Y-23800000D02*
X8000000Y-23400000D01*
X8987500Y-21212500D02*
X9000000Y-21200000D01*
X11400000Y-24000000D02*
X11400000Y-23591048D01*
X12112500Y-24000000D02*
X11400000Y-24000000D01*
X11400000Y-24000000D02*
X10687500Y-24000000D01*
X5500000Y-28300000D02*
X5128619Y-27928619D01*
X5500000Y-29200000D02*
X5500000Y-28300000D01*
X5500000Y-28400000D02*
X5950000Y-27950000D01*
X5500000Y-29000000D02*
X5900000Y-28600000D01*
X5500000Y-29200000D02*
X5900000Y-29200000D01*
X5500000Y-29200000D02*
X5100000Y-29200000D01*
X5500000Y-29400000D02*
X5900000Y-29800000D01*
X5500000Y-29200000D02*
X5500000Y-29400000D01*
X5500000Y-29400000D02*
X5100000Y-29800000D01*
X5100000Y-29800000D02*
X5100000Y-30400000D01*
X5900000Y-29800000D02*
X5900000Y-30400000D01*
X5500000Y-29200000D02*
X5500000Y-29000000D01*
X5500000Y-29000000D02*
X5100000Y-28600000D01*
X5100000Y-28600000D02*
X5000000Y-28700000D01*
X5500000Y-28400000D02*
X5100000Y-28000000D01*
X5100000Y-28000000D02*
X5100000Y-28600000D01*
X5500000Y-28400000D02*
X5900000Y-28000000D01*
X5500000Y-29200000D02*
X5500000Y-28400000D01*
X5000000Y-27900000D02*
X5100000Y-28000000D01*
X5000000Y-25336810D02*
X5000000Y-26500000D01*
X5000000Y-26700000D02*
X5000000Y-26500000D01*
X6000000Y-27700000D02*
X5000000Y-26700000D01*
X5500000Y-28200000D02*
X6000000Y-27700000D01*
X5500000Y-29200000D02*
X5500000Y-28200000D01*
X5500000Y-29200000D02*
X5500000Y-27900000D01*
X5500000Y-27900000D02*
X5000000Y-27400000D01*
X5000000Y-27400000D02*
X5000000Y-27900000D01*
X5000000Y-26500000D02*
X5000000Y-27400000D01*
X8387500Y-22000000D02*
X8300000Y-22000000D01*
X6500000Y-23800000D02*
X7600000Y-23800000D01*
X6025000Y-23800000D02*
X6500000Y-23800000D01*
X7600000Y-23800000D02*
X7050000Y-23250000D01*
X7050000Y-23250000D02*
X6500000Y-23800000D01*
X7600000Y-24125000D02*
X7600000Y-23800000D01*
X8300000Y-22000000D02*
X7050000Y-23250000D01*
X6800000Y-24575000D02*
X6800000Y-24800000D01*
X6025000Y-23800000D02*
X6800000Y-24575000D01*
X7275000Y-24325000D02*
X7275000Y-24125000D01*
X6800000Y-24800000D02*
X7275000Y-24325000D01*
X7275000Y-24125000D02*
X6350000Y-24125000D01*
X7600000Y-24125000D02*
X7275000Y-24125000D01*
X10512500Y-31400000D02*
X9100000Y-29987500D01*
X9800000Y-31400000D02*
X9100000Y-30700000D01*
X9100000Y-29987500D02*
X9100000Y-30300000D01*
X9800000Y-31400000D02*
X9800000Y-30700000D01*
X9800000Y-30700000D02*
X10100000Y-31300000D01*
X9100000Y-30300000D02*
X9800000Y-30700000D01*
X9100000Y-29987500D02*
X8900686Y-29987500D01*
X8900686Y-29987500D02*
X8875008Y-29961822D01*
X8875008Y-29961822D02*
X7963187Y-29050001D01*
X12112500Y-24000000D02*
X12000000Y-24000000D01*
X10687500Y-24000000D02*
X10800000Y-24000000D01*
X10991048Y-24000000D02*
X11400000Y-23591048D01*
X10687500Y-24000000D02*
X10991048Y-24000000D01*
X11808952Y-24000000D02*
X11400000Y-23591048D01*
X12112500Y-24000000D02*
X11808952Y-24000000D01*
X8387500Y-22000000D02*
X8387500Y-21812500D01*
X8387500Y-20500000D02*
X8387500Y-20587500D01*
X6639956Y-24749990D02*
X5603163Y-24749990D01*
X6689966Y-24800000D02*
X6639956Y-24749990D01*
X6800000Y-24800000D02*
X6689966Y-24800000D01*
X11400000Y-23591048D02*
X11400000Y-22950000D01*
X12112500Y-23662500D02*
X11400000Y-22950000D01*
X12112500Y-24000000D02*
X12112500Y-23662500D01*
X10687500Y-23662500D02*
X11400000Y-22950000D01*
X10687500Y-24000000D02*
X10687500Y-23662500D01*
X2399990Y-23300010D02*
X2399990Y-20000064D01*
X2350000Y-23350000D02*
X2399990Y-23300010D01*
X2399990Y-20000064D02*
X2850027Y-19550027D01*
X8387500Y-21212500D02*
X8387500Y-20500000D01*
X8387500Y-22000000D02*
X8387500Y-21212500D01*
X8387500Y-21212500D02*
X8987500Y-21212500D01*
X8387500Y-21812500D02*
X9000000Y-21200000D01*
X9000000Y-21200000D02*
X9000000Y-21843750D01*
X8387500Y-20587500D02*
X9000000Y-21200000D01*
X2850027Y-19550027D02*
X3274291Y-19550027D01*
D35*
X10249967Y-19550027D02*
X7950027Y-19550027D01*
D33*
X3274291Y-19550027D02*
X7950027Y-19550027D01*
X13749990Y-22945864D02*
X12200000Y-21395874D01*
D35*
X10249967Y-19550027D02*
X11699944Y-21000004D01*
D33*
X12200000Y-21395874D02*
X12200000Y-21000004D01*
D35*
X11699944Y-21000004D02*
X12200000Y-21000004D01*
D33*
G04 #@! TO.N,Net-(C2-Pad1)*
X9100000Y-34412500D02*
X9100000Y-32987500D01*
X9187500Y-32900000D02*
X9100000Y-32987500D01*
X10512500Y-32900000D02*
X9187500Y-32900000D01*
G04 #@! TO.N,Net-(C8-Pad1)*
X10600000Y-26912500D02*
X9100000Y-25412500D01*
X10600000Y-26987500D02*
X10600000Y-26912500D01*
X9100000Y-24012500D02*
X9112500Y-24000000D01*
X9100000Y-25412500D02*
X9100000Y-24012500D01*
G04 #@! TO.N,Net-(C9-Pad1)*
X13687500Y-25325000D02*
X13600000Y-25412500D01*
X13687500Y-24000000D02*
X13687500Y-25325000D01*
X13600000Y-25487500D02*
X12100000Y-26987500D01*
X13600000Y-25412500D02*
X13600000Y-25487500D01*
D35*
G04 #@! TO.N,Net-(C19-Pad2)*
X20300000Y-19700000D02*
X20300000Y-19387500D01*
X19625000Y-21887500D02*
X20312500Y-21200000D01*
X19625000Y-22550000D02*
X19625000Y-21887500D01*
X20312500Y-19712500D02*
X20300000Y-19700000D01*
X20312500Y-21200000D02*
X20312500Y-19712500D01*
X20300000Y-19387500D02*
X19200000Y-18287500D01*
D34*
G04 #@! TO.N,Net-(C4-Pad2)*
X8300000Y-31687500D02*
X7687500Y-32300000D01*
X8300000Y-30200000D02*
X8300000Y-31687500D01*
X7550000Y-29450000D02*
X8300000Y-30200000D01*
X6950000Y-29450000D02*
X7550000Y-29450000D01*
X7687500Y-32300000D02*
X7687500Y-35300000D01*
D35*
G04 #@! TO.N,Net-(C4-Pad1)*
X6687500Y-34612500D02*
X6700000Y-34600000D01*
X6112500Y-34612500D02*
X6687500Y-34612500D01*
X6112500Y-33800000D02*
X6112500Y-34612500D01*
X6112500Y-34612500D02*
X6112500Y-35300000D01*
D33*
X6200000Y-22000000D02*
X5500000Y-22000000D01*
X6812500Y-22000000D02*
X6200000Y-22000000D01*
D35*
X6200000Y-22000000D02*
X6100000Y-21900000D01*
X6100000Y-21900000D02*
X6100000Y-21600013D01*
D33*
X10600000Y-25412500D02*
X10018750Y-24831250D01*
D34*
G04 #@! TO.N,Net-(C5-Pad2)*
X3112500Y-32300000D02*
X3112500Y-35300000D01*
X4050000Y-30450000D02*
X4112098Y-30512098D01*
X4112098Y-30512098D02*
X4112098Y-31300402D01*
X4112098Y-31300402D02*
X3112500Y-32300000D01*
D35*
G04 #@! TO.N,Net-(C5-Pad1)*
X4687500Y-34587500D02*
X4687500Y-35300000D01*
D33*
X5500000Y-20500000D02*
X5800001Y-20500001D01*
X5800001Y-20500001D02*
X6100000Y-20800000D01*
X6812500Y-20500000D02*
X6399999Y-20500001D01*
X6399999Y-20500001D02*
X6100000Y-20800000D01*
X5500000Y-20500000D02*
X6812500Y-20500000D01*
D35*
X4687500Y-33800000D02*
X4687500Y-34587500D01*
X4687500Y-34587500D02*
X5165918Y-34587500D01*
X5165918Y-34587500D02*
X5189209Y-34610791D01*
D33*
X12187500Y-25412500D02*
X12650000Y-24950000D01*
X12100000Y-25412500D02*
X12187500Y-25412500D01*
G04 #@! TO.N,+6V*
X9175000Y-26987500D02*
X10600000Y-28412500D01*
X9100000Y-26987500D02*
X9175000Y-26987500D01*
D35*
X15812500Y-12325000D02*
X15000000Y-11512500D01*
X16350000Y-12325000D02*
X15812500Y-12325000D01*
X12687500Y-11675000D02*
X12800000Y-11562500D01*
X11450000Y-11675000D02*
X12687500Y-11675000D01*
D33*
X12800000Y-10819240D02*
X12790380Y-10809620D01*
X12800000Y-11562500D02*
X12800000Y-10819240D01*
X15000000Y-10819240D02*
X15009620Y-10809620D01*
X15000000Y-11562500D02*
X15000000Y-10819240D01*
D35*
X10600000Y-28412500D02*
X11093750Y-28906250D01*
X24500000Y-27850000D02*
X24250000Y-27600000D01*
X24250000Y-27600000D02*
X22900000Y-27600000D01*
X22800000Y-27700000D02*
X22900000Y-27600000D01*
X19000000Y-27700000D02*
X22800000Y-27700000D01*
X19625000Y-26275000D02*
X19625000Y-25650000D01*
X19950000Y-26600000D02*
X19625000Y-26275000D01*
X21600000Y-26600000D02*
X19950000Y-26600000D01*
X21812500Y-26387500D02*
X21600000Y-26600000D01*
D33*
X21812500Y-26387500D02*
X21800000Y-26400000D01*
X21812500Y-25400000D02*
X21812500Y-26387500D01*
X21649271Y-26550729D02*
X19999271Y-26550729D01*
X21800000Y-26400000D02*
X21649271Y-26550729D01*
D35*
X11387500Y-29200000D02*
X11093750Y-28906250D01*
X13999994Y-27800006D02*
X12600000Y-29200000D01*
X12600000Y-29200000D02*
X11387500Y-29200000D01*
X15599994Y-27800006D02*
X13999994Y-27800006D01*
X15700000Y-27700000D02*
X15599994Y-27800006D01*
D33*
G04 #@! TO.N,-6V*
X13600000Y-26987500D02*
X13600000Y-26912500D01*
X13525000Y-26987500D02*
X12100000Y-28412500D01*
X13600000Y-26987500D02*
X13525000Y-26987500D01*
D35*
X20124990Y-10875010D02*
X20124990Y-10375010D01*
X19650000Y-11025000D02*
X19975000Y-11025000D01*
X20800000Y-9700000D02*
X20912500Y-9700000D01*
X19975000Y-11025000D02*
X20124990Y-10875010D01*
X20124990Y-10375010D02*
X20800000Y-9700000D01*
X20175000Y-23900000D02*
X19925000Y-23650000D01*
X9175000Y-12975000D02*
X9400000Y-12750000D01*
X8150000Y-12975000D02*
X9175000Y-12975000D01*
X18900000Y-11025000D02*
X18550000Y-11375000D01*
X19650000Y-11025000D02*
X18900000Y-11025000D01*
X18325000Y-23300000D02*
X18675000Y-23650000D01*
X18325000Y-22550000D02*
X18325000Y-23300000D01*
D33*
X17650000Y-12625000D02*
X17650000Y-13049986D01*
X17650000Y-13049986D02*
X17199986Y-13500000D01*
X17199986Y-13500000D02*
X17800000Y-13500000D01*
X17800000Y-13500000D02*
X18400004Y-13500000D01*
X18400004Y-13500000D02*
X18999994Y-13500000D01*
X18999994Y-13500000D02*
X19000000Y-13500006D01*
X17199986Y-13699986D02*
X17500000Y-14000000D01*
X17199986Y-13500000D02*
X17199986Y-13699986D01*
X17800000Y-13700000D02*
X18100000Y-14000000D01*
X17800000Y-13500000D02*
X17800000Y-13700000D01*
X18400004Y-13700004D02*
X18700000Y-14000000D01*
X18400004Y-13500000D02*
X18400004Y-13700004D01*
X9400000Y-13100000D02*
X9000000Y-13500000D01*
X9400000Y-12750000D02*
X9400000Y-13100000D01*
X9000000Y-13500000D02*
X9600000Y-13500000D01*
X10200000Y-13500000D02*
X10800000Y-13500000D01*
X9000000Y-13700000D02*
X9300000Y-14000000D01*
X9000000Y-13500000D02*
X9000000Y-13700000D01*
X9300000Y-14000000D02*
X9900000Y-14000000D01*
X9900000Y-14000000D02*
X10500000Y-14000000D01*
X8712500Y-13787500D02*
X9000000Y-13500000D01*
X8725000Y-14000000D02*
X8712500Y-14012500D01*
X9300000Y-14000000D02*
X8725000Y-14000000D01*
X8712500Y-14012500D02*
X8712500Y-13787500D01*
X8712500Y-15000000D02*
X8712500Y-14012500D01*
X10500000Y-14000000D02*
X11100000Y-14000000D01*
X17500000Y-14000000D02*
X16900000Y-14000000D01*
X18700000Y-14000000D02*
X19300000Y-14000000D01*
X9400000Y-10900000D02*
X9000000Y-10500000D01*
X9400000Y-11250000D02*
X9400000Y-10900000D01*
X9000000Y-10500000D02*
X9600000Y-10500000D01*
X9600000Y-10500000D02*
X10200000Y-10500000D01*
X10200000Y-10500000D02*
X10800000Y-10500000D01*
X18100000Y-11400000D02*
X17200000Y-10500000D01*
X18100000Y-12000000D02*
X18100000Y-11400000D01*
X17200000Y-10500000D02*
X17800000Y-10500000D01*
X17800000Y-10500000D02*
X18400000Y-10500000D01*
X18400000Y-10500000D02*
X19000000Y-10500000D01*
X9600000Y-11700000D02*
X9900000Y-12000000D01*
X9600000Y-10500000D02*
X9600000Y-11700000D01*
X10200000Y-11700000D02*
X9900000Y-12000000D01*
X10200000Y-10500000D02*
X10200000Y-11700000D01*
X9900000Y-12000000D02*
X9900000Y-10800000D01*
X10400000Y-10900000D02*
X10400000Y-11250000D01*
X10800000Y-10500000D02*
X10400000Y-10900000D01*
X9600000Y-12300000D02*
X9900000Y-12000000D01*
X9600000Y-13500000D02*
X9600000Y-12300000D01*
X10200000Y-12300000D02*
X9900000Y-12000000D01*
X10200000Y-13500000D02*
X10200000Y-12300000D01*
X9900000Y-12600000D02*
X9900000Y-12000000D01*
X10800000Y-13500000D02*
X9900000Y-12600000D01*
X9900000Y-12000000D02*
X9900000Y-13400000D01*
X10000000Y-13500000D02*
X10200000Y-13500000D01*
X9900000Y-13400000D02*
X10000000Y-13500000D01*
X9600000Y-13500000D02*
X10000000Y-13500000D01*
X17199986Y-13500000D02*
X17499986Y-13200000D01*
X18699994Y-13200000D02*
X19000000Y-13500006D01*
X17499986Y-13200000D02*
X18699994Y-13200000D01*
X18600000Y-10900000D02*
X19000000Y-10500000D01*
X18600000Y-11250000D02*
X18600000Y-10900000D01*
X17800000Y-11700000D02*
X18100000Y-12000000D01*
X17800000Y-10500000D02*
X17800000Y-11700000D01*
X18400000Y-10500000D02*
X18100000Y-10800000D01*
X18100000Y-10800000D02*
X18100000Y-12000000D01*
X20400000Y-23600000D02*
X20800000Y-23200000D01*
X20050000Y-23600000D02*
X20400000Y-23600000D01*
X20800000Y-23200000D02*
X20800000Y-23800000D01*
X20800000Y-23800000D02*
X20800000Y-24400000D01*
X20800000Y-24400000D02*
X20800000Y-25000000D01*
X19300000Y-24100000D02*
X18800000Y-24100000D01*
X17800000Y-23200000D02*
X17800000Y-23800000D01*
X17800000Y-24400000D02*
X17800000Y-25000000D01*
X18250000Y-23650000D02*
X17800000Y-23200000D01*
X18675000Y-23650000D02*
X18250000Y-23650000D01*
X18250000Y-24550000D02*
X17800000Y-25000000D01*
X18675000Y-24550000D02*
X18250000Y-24550000D01*
X18525000Y-24400000D02*
X18675000Y-24550000D01*
X17800000Y-24400000D02*
X18525000Y-24400000D01*
X19000000Y-23800000D02*
X19300000Y-24100000D01*
X17800000Y-23800000D02*
X19000000Y-23800000D01*
X19300000Y-24100000D02*
X18000000Y-24100000D01*
X18000000Y-24100000D02*
X17800000Y-24300000D01*
X17800000Y-24300000D02*
X17800000Y-24400000D01*
X17800000Y-23800000D02*
X17800000Y-24300000D01*
X20500000Y-24100000D02*
X20800000Y-23800000D01*
X20500000Y-24100000D02*
X20800000Y-24400000D01*
X19300000Y-24100000D02*
X20500000Y-24100000D01*
X20400000Y-24600000D02*
X20800000Y-25000000D01*
X20050000Y-24600000D02*
X20400000Y-24600000D01*
X17600000Y-23200000D02*
X17300000Y-23500000D01*
X17800000Y-23200000D02*
X17600000Y-23200000D01*
X17300000Y-23500000D02*
X17300000Y-22900000D01*
X17300000Y-23500000D02*
X17300000Y-24100000D01*
X17300000Y-24100000D02*
X17300000Y-24700000D01*
X17300000Y-24700000D02*
X17300000Y-25300000D01*
X21712500Y-23800000D02*
X21812500Y-23900000D01*
X20800000Y-23800000D02*
X21712500Y-23800000D01*
X17100000Y-22900000D02*
X16800000Y-23200000D01*
X17300000Y-22900000D02*
X17100000Y-22900000D01*
X16800000Y-23200000D02*
X16800000Y-22600000D01*
X16800000Y-23200000D02*
X16800000Y-23800000D01*
X16800000Y-23800000D02*
X16800000Y-24400000D01*
X16800000Y-24400000D02*
X16800000Y-25000000D01*
X16800000Y-25000000D02*
X16800000Y-25600000D01*
D35*
X23787500Y-30862500D02*
X24500000Y-30150000D01*
X23637500Y-30862500D02*
X23500000Y-31000000D01*
X23787500Y-30862500D02*
X23637500Y-30862500D01*
X16800000Y-22600000D02*
X16500000Y-22300000D01*
X16300000Y-22300004D02*
X16300004Y-22300000D01*
X16500000Y-22300000D02*
X16300004Y-22300000D01*
X16300000Y-22900000D02*
X16300000Y-22300004D01*
X16300000Y-22900000D02*
X16300000Y-23500000D01*
X16300000Y-23500000D02*
X16300000Y-24100000D01*
D33*
X16300004Y-24099996D02*
X16300000Y-24100000D01*
X16300004Y-22300000D02*
X16300004Y-24099996D01*
X16300000Y-24100000D02*
X16300000Y-24700000D01*
X16300000Y-24700000D02*
X16300000Y-25300000D01*
X16300000Y-25300000D02*
X16300000Y-25900000D01*
D35*
X22500000Y-32000000D02*
X23500000Y-31000000D01*
X22500000Y-34612500D02*
X22500000Y-32000000D01*
X13926824Y-26987500D02*
X14088897Y-27149573D01*
X13600000Y-26987500D02*
X13926824Y-26987500D01*
G04 #@! TO.N,Net-(C19-Pad1)*
X21875000Y-21187500D02*
X21887500Y-21200000D01*
X21875000Y-19700000D02*
X21875000Y-21187500D01*
X19600000Y-27000000D02*
X18087500Y-27000000D01*
X18975000Y-27000000D02*
X19600000Y-27000000D01*
X18975000Y-25650000D02*
X18975000Y-27000000D01*
X19800000Y-27200000D02*
X19600000Y-27000000D01*
X22600000Y-26700000D02*
X22100000Y-27200000D01*
X22600010Y-23408140D02*
X22600000Y-23408150D01*
X22100000Y-27200000D02*
X19800000Y-27200000D01*
X22600010Y-21912510D02*
X22600010Y-23408140D01*
X22600000Y-23408150D02*
X22600000Y-26700000D01*
X21887500Y-21200000D02*
X22600010Y-21912510D01*
D33*
G04 #@! TO.N,Net-(D1-Pad1)*
X3100000Y-23800000D02*
X2500000Y-24400000D01*
X2960036Y-28900000D02*
X3186814Y-28900000D01*
X2500000Y-28439964D02*
X2960036Y-28900000D01*
D34*
X3236814Y-28950000D02*
X3186814Y-28900000D01*
X4050000Y-28950000D02*
X3236814Y-28950000D01*
D33*
X4100000Y-20539998D02*
X4100000Y-20500000D01*
X3100000Y-23800000D02*
X3100000Y-21539998D01*
X2500000Y-25200000D02*
X2500000Y-25000000D01*
X2500000Y-24400000D02*
X2500000Y-25200000D01*
X3700000Y-23800000D02*
X3975000Y-23800000D01*
X2800000Y-24700000D02*
X2800000Y-26200000D01*
X2800000Y-26200000D02*
X2500000Y-26500000D01*
X2500000Y-25200000D02*
X2500000Y-26500000D01*
X2500000Y-25000000D02*
X2800000Y-24700000D01*
X2800000Y-24700000D02*
X3700000Y-23800000D01*
X3349999Y-23750001D02*
X3300000Y-23800000D01*
X3349999Y-21289999D02*
X3349999Y-23750001D01*
X3469999Y-21169999D02*
X3349999Y-21289999D01*
X3300000Y-23800000D02*
X3100000Y-23800000D01*
X3975000Y-23800000D02*
X3300000Y-23800000D01*
X3100000Y-21539998D02*
X3469999Y-21169999D01*
X3469999Y-21169999D02*
X4100000Y-20539998D01*
X4100000Y-20500000D02*
X3700000Y-20500000D01*
X3100000Y-21100000D02*
X3100000Y-21539998D01*
X3700000Y-20500000D02*
X3100000Y-21100000D01*
D35*
X3300000Y-23800000D02*
X3000000Y-23800000D01*
D33*
X2500000Y-24400000D02*
X2200000Y-24700000D01*
X2200000Y-28139964D02*
X2500000Y-28439964D01*
X2200000Y-24700000D02*
X2200000Y-28139964D01*
X2200000Y-28139964D02*
X2200000Y-28600000D01*
X2500000Y-28900000D02*
X2960036Y-28900000D01*
X2200000Y-28600000D02*
X2500000Y-28900000D01*
X2299990Y-28239954D02*
X2500000Y-28439964D01*
X2299990Y-26700010D02*
X2299990Y-28239954D01*
X2500000Y-26500000D02*
X2299990Y-26700010D01*
D34*
G04 #@! TO.N,Net-(D2-Pad2)*
X4050000Y-28450000D02*
X3550000Y-28450000D01*
X3550000Y-28450000D02*
X3400000Y-28300000D01*
D33*
X3975000Y-25625000D02*
X3975000Y-25900000D01*
X5000000Y-22900000D02*
X4100000Y-22000000D01*
X5000000Y-24363190D02*
X5000000Y-22900000D01*
D34*
X3975000Y-25900000D02*
X3975000Y-25388190D01*
D35*
X5000000Y-24431595D02*
X5000000Y-24363190D01*
X3975000Y-25388190D02*
X4043405Y-25388190D01*
D34*
X3975000Y-25900000D02*
X4200000Y-25900000D01*
X4200000Y-25900000D02*
X4424990Y-25675010D01*
X4424990Y-25675010D02*
X4424990Y-25006606D01*
X4424990Y-25006606D02*
X4465798Y-24965798D01*
D36*
X4043405Y-25388190D02*
X4465798Y-24965798D01*
D35*
X3975000Y-25900000D02*
X3975000Y-25125000D01*
X3975000Y-25125000D02*
X4249990Y-24850010D01*
X4591584Y-24850010D02*
X4620797Y-24820797D01*
X4249990Y-24850010D02*
X4591584Y-24850010D01*
D36*
X4620797Y-24820797D02*
X5010000Y-24431595D01*
X4475798Y-24965798D02*
X4620797Y-24820797D01*
D33*
X3975000Y-26525000D02*
X3975000Y-25900000D01*
X3249999Y-28200000D02*
X3249999Y-27250001D01*
X3000000Y-27950001D02*
X3249999Y-28200000D01*
X3249999Y-27250001D02*
X3975000Y-26525000D01*
X3000000Y-26999998D02*
X3000000Y-27950001D01*
X3975000Y-26024998D02*
X3000000Y-26999998D01*
X3975000Y-25900000D02*
X3975000Y-26024998D01*
D34*
G04 #@! TO.N,Net-(R1-Pad2)*
X5687500Y-31300000D02*
X4687500Y-32300000D01*
X6475000Y-31300000D02*
X5687500Y-31300000D01*
X6950000Y-30825000D02*
X6475000Y-31300000D01*
X6950000Y-30450000D02*
X6950000Y-30825000D01*
D35*
G04 #@! TO.N,Net-(R12-Pad2)*
X17712500Y-15300000D02*
X15450000Y-15300000D01*
X15450000Y-15300000D02*
X15250000Y-15100000D01*
G04 #@! TO.N,Net-(R13-Pad2)*
X11687500Y-15100000D02*
X10287500Y-16500000D01*
X12750000Y-15100000D02*
X11687500Y-15100000D01*
D33*
G04 #@! TO.N,Net-(C26-Pad1)*
X6225000Y-25700000D02*
X6025000Y-25900000D01*
X7600000Y-25700000D02*
X7800000Y-25900000D01*
X8987500Y-28300000D02*
X9100000Y-28412500D01*
D34*
X9062500Y-28450000D02*
X9100000Y-28412500D01*
X6950000Y-28450000D02*
X9062500Y-28450000D01*
X7413590Y-29950000D02*
X7675000Y-30211410D01*
X6950000Y-29950000D02*
X7413590Y-29950000D01*
D35*
X7650000Y-28450000D02*
X7800000Y-28300000D01*
D34*
X6950000Y-28450000D02*
X7650000Y-28450000D01*
X7675000Y-30211410D02*
X7675000Y-31115908D01*
D35*
X3300000Y-30840326D02*
X3487095Y-31027421D01*
X3300000Y-30050000D02*
X3300000Y-30840326D01*
X3400000Y-29950000D02*
X3300000Y-30050000D01*
X4050000Y-29950000D02*
X3400000Y-29950000D01*
D33*
X9712502Y-35987500D02*
X10000002Y-35700000D01*
X9100000Y-35987500D02*
X9687516Y-35987500D01*
X9687516Y-35987500D02*
X10000000Y-36299984D01*
X7600000Y-25700000D02*
X6700000Y-25700000D01*
X6700000Y-25700000D02*
X6225000Y-25700000D01*
X7800000Y-25900000D02*
X7800000Y-26800000D01*
X7500000Y-26500000D02*
X7500000Y-25800000D01*
X7500000Y-25800000D02*
X7600000Y-25700000D01*
X7800000Y-26800000D02*
X7500000Y-26500000D01*
X6125000Y-26000000D02*
X6025000Y-25900000D01*
X7500000Y-26500000D02*
X7000000Y-26000000D01*
X7000000Y-26000000D02*
X6700000Y-25700000D01*
X7800000Y-27200000D02*
X7800000Y-27300000D01*
X8800000Y-28300000D02*
X8987500Y-28300000D01*
X7800000Y-26800000D02*
X7800000Y-27200000D01*
X7800000Y-27200000D02*
X7800000Y-28300000D01*
X8300000Y-28200000D02*
X8300000Y-28300000D01*
X7800000Y-27700000D02*
X8300000Y-28200000D01*
X8300000Y-28300000D02*
X8800000Y-28300000D01*
X7800000Y-28300000D02*
X8300000Y-28300000D01*
X6524264Y-26000000D02*
X6500000Y-26000000D01*
X7800000Y-27275736D02*
X6524264Y-26000000D01*
X7800000Y-27700000D02*
X7800000Y-27275736D01*
X6500000Y-26000000D02*
X6125000Y-26000000D01*
X7000000Y-26000000D02*
X6500000Y-26000000D01*
X7800000Y-27675000D02*
X6025000Y-25900000D01*
X7800000Y-27700000D02*
X7800000Y-27675000D01*
X8174990Y-27174990D02*
X8174990Y-27674990D01*
X7500000Y-26500000D02*
X8174990Y-27174990D01*
X8174990Y-27674990D02*
X8250000Y-27750000D01*
X8250000Y-27750000D02*
X8800000Y-28300000D01*
X7800000Y-27300000D02*
X8250000Y-27750000D01*
X8174990Y-26274990D02*
X7600000Y-25700000D01*
X8174990Y-27174990D02*
X8174990Y-26274990D01*
G04 #@! TO.N,/CONN_IN+*
X20900000Y-6391728D02*
X20900000Y-6412500D01*
X19800000Y-5291728D02*
X20900000Y-6391728D01*
X19800000Y-3850000D02*
X19800000Y-5291728D01*
G04 #@! TO.N,/IN+*
X20987500Y-7900000D02*
X20900000Y-7987500D01*
X22550000Y-7900000D02*
X20987500Y-7900000D01*
D35*
X23550002Y-8200002D02*
X23550002Y-10149998D01*
X22500000Y-11200000D02*
X22487500Y-11200000D01*
X23250000Y-7900000D02*
X23550002Y-8200002D01*
X23550002Y-10149998D02*
X22500000Y-11200000D01*
X22550000Y-7900000D02*
X23250000Y-7900000D01*
X22487500Y-12437500D02*
X22100000Y-12825000D01*
X22487500Y-11200000D02*
X22487500Y-12437500D01*
X22100000Y-15300000D02*
X19287500Y-15300000D01*
X22100000Y-12825000D02*
X22100000Y-15300000D01*
X24889807Y-15300000D02*
X25000274Y-15410467D01*
X22100000Y-15300000D02*
X24889807Y-15300000D01*
D33*
G04 #@! TO.N,/CONN_IN-*
X7100000Y-6391728D02*
X7100000Y-6412500D01*
X8200000Y-5291728D02*
X7100000Y-6391728D01*
X8200000Y-3850000D02*
X8200000Y-5291728D01*
G04 #@! TO.N,/IN-*
X5537500Y-7987500D02*
X5450000Y-7900000D01*
X7100000Y-7987500D02*
X5537500Y-7987500D01*
D35*
X5900000Y-12825000D02*
X6125000Y-12825000D01*
X5000000Y-10987500D02*
X5112500Y-11100000D01*
X5000000Y-8350000D02*
X5000000Y-10987500D01*
X5450000Y-7900000D02*
X5000000Y-8350000D01*
X7622967Y-15410467D02*
X8712500Y-16500000D01*
X5989533Y-12914533D02*
X5900000Y-12825000D01*
X5989533Y-15410467D02*
X5989533Y-12914533D01*
X2999726Y-15410467D02*
X5989533Y-15410467D01*
X5989533Y-15410467D02*
X7622967Y-15410467D01*
X5825000Y-12825000D02*
X5900000Y-12825000D01*
X5400000Y-12400000D02*
X5825000Y-12825000D01*
X5400000Y-11387500D02*
X5400000Y-12400000D01*
X5037490Y-11024990D02*
X5400000Y-11387500D01*
D33*
G04 #@! TO.N,+5V*
X10912500Y-34700000D02*
X10600000Y-34387500D01*
X12300000Y-34700000D02*
X10912500Y-34700000D01*
D35*
X15700000Y-34700000D02*
X15700000Y-35500000D01*
X15700000Y-35500000D02*
X15700000Y-36300000D01*
X12300000Y-36300000D02*
X12300000Y-35500000D01*
X12300000Y-35500000D02*
X12300000Y-34700000D01*
D33*
G04 #@! TO.N,/OUT*
X16512500Y-27000000D02*
X16512500Y-28500000D01*
X15100000Y-29400000D02*
X14000000Y-29400000D01*
X16000000Y-28500000D02*
X15100000Y-29400000D01*
X16512500Y-28500000D02*
X16000000Y-28500000D01*
X18012500Y-30000000D02*
X16512500Y-28500000D01*
X18350000Y-30000000D02*
X18012500Y-30000000D01*
D35*
G04 #@! TO.N,Net-(D3-Pad2)*
X22500000Y-36187500D02*
X24000000Y-36187500D01*
G04 #@! TO.N,Net-(C1-Pad2)*
X17912500Y-7900000D02*
X17912500Y-9400000D01*
X15900000Y-9400000D02*
X17912500Y-9400000D01*
X15849999Y-11599999D02*
X15849999Y-9450001D01*
X15849999Y-9450001D02*
X15900000Y-9400000D01*
X15925000Y-11675000D02*
X15849999Y-11599999D01*
X16550000Y-11675000D02*
X15925000Y-11675000D01*
X14150012Y-13612888D02*
X14150012Y-16080886D01*
X14149998Y-13612874D02*
X14150012Y-13612888D01*
X14150012Y-16080886D02*
X15069126Y-17000000D01*
X14149998Y-9650002D02*
X14149998Y-13612874D01*
X14400000Y-9400000D02*
X14149998Y-9650002D01*
X15900000Y-9400000D02*
X14400000Y-9400000D01*
X17412500Y-17000000D02*
X17700000Y-16712500D01*
X15069126Y-17000000D02*
X17412500Y-17000000D01*
G04 #@! TO.N,Net-(C1-Pad1)*
X19487500Y-7900000D02*
X19487500Y-6400000D01*
X19487500Y-9400000D02*
X19487500Y-7900000D01*
D34*
X19650000Y-12325000D02*
X20459265Y-12325000D01*
D35*
X20850000Y-12325000D02*
X21700000Y-11800000D01*
X19850000Y-12325000D02*
X20850000Y-12325000D01*
X19500000Y-9387500D02*
X19487500Y-9400000D01*
X19500000Y-8800000D02*
X19500000Y-9387500D01*
X21291850Y-8800000D02*
X19500000Y-8800000D01*
X21700000Y-9208150D02*
X21291850Y-8800000D01*
X21700000Y-11800000D02*
X21700000Y-9208150D01*
D33*
G04 #@! TO.N,GNDA*
X12100000Y-29987500D02*
X10600000Y-29987500D01*
X13300000Y-31400000D02*
X13400000Y-31500000D01*
X12087500Y-31400000D02*
X13300000Y-31400000D01*
X12900000Y-30787500D02*
X12100000Y-29987500D01*
X12900000Y-31400000D02*
X12900000Y-30787500D01*
X13000000Y-31500000D02*
X12900000Y-31400000D01*
X13400000Y-31500000D02*
X13000000Y-31500000D01*
D35*
X11062002Y-15000000D02*
X10287500Y-15000000D01*
X11800001Y-14262001D02*
X11062002Y-15000000D01*
X11800001Y-13899999D02*
X11800001Y-14262001D01*
X10287500Y-15000000D02*
X10778825Y-15000000D01*
D33*
X14950000Y-31500000D02*
X16450000Y-30000000D01*
X14600000Y-31500000D02*
X14950000Y-31500000D01*
D35*
X23400000Y-25400000D02*
X24200000Y-24600000D01*
X23387500Y-25400000D02*
X23400000Y-25400000D01*
X23500000Y-23900000D02*
X24200000Y-24600000D01*
X23387500Y-23900000D02*
X23500000Y-23900000D01*
X10200000Y-15000000D02*
X9600000Y-15600000D01*
X10287500Y-15000000D02*
X10200000Y-15000000D01*
D33*
X22487500Y-9700000D02*
X22487500Y-9262512D01*
X22487500Y-9262512D02*
X22900000Y-8850012D01*
X15000000Y-13400000D02*
X14800000Y-13600000D01*
X15000000Y-13137500D02*
X15000000Y-13400000D01*
D35*
X12562500Y-13137500D02*
X11950000Y-13750000D01*
X12800000Y-13137500D02*
X12562500Y-13137500D01*
X11950000Y-13750000D02*
X11800001Y-13899999D01*
X12100000Y-13600000D02*
X11950000Y-13750000D01*
X12800000Y-13378610D02*
X12999987Y-13578597D01*
X12800000Y-13137500D02*
X12800000Y-13378610D01*
D33*
X23549999Y-6999999D02*
X24450000Y-7900000D01*
X22999999Y-6999999D02*
X23549999Y-6999999D01*
X21825010Y-5825010D02*
X22999999Y-6999999D01*
X21825010Y-4825010D02*
X21825010Y-5825010D01*
X5060003Y-6999999D02*
X4450001Y-6999999D01*
X6174990Y-5885012D02*
X5060003Y-6999999D01*
X4450001Y-6999999D02*
X3550000Y-7900000D01*
X16812500Y-20387500D02*
X16700000Y-20500000D01*
X17312500Y-20387500D02*
X16812500Y-20387500D01*
X17312500Y-21200000D02*
X17312500Y-20387500D01*
X17312500Y-20387500D02*
X17312500Y-19700000D01*
X5900000Y-16975000D02*
X5900000Y-16200000D01*
X22100000Y-16975000D02*
X22100000Y-16200000D01*
X22100000Y-16975000D02*
X22100000Y-17600000D01*
X22100000Y-17600000D02*
X22100000Y-17700000D01*
X14000000Y-19100000D02*
X12500000Y-19100000D01*
X6675000Y-3010000D02*
X6080000Y-2415000D01*
X6675000Y-3750000D02*
X6675000Y-3010000D01*
X9725000Y-3010000D02*
X10320000Y-2415000D01*
X9725000Y-3750000D02*
X9725000Y-3010000D01*
X18275000Y-3003045D02*
X17808782Y-2536827D01*
X18275000Y-3750000D02*
X18275000Y-3003045D01*
X21325000Y-3010000D02*
X21920000Y-2415000D01*
X21325000Y-3750000D02*
X21325000Y-3010000D01*
X6675000Y-4374980D02*
X6174990Y-4874990D01*
X6675000Y-3750000D02*
X6675000Y-4374980D01*
X6174990Y-4874990D02*
X6174990Y-5885012D01*
X9725000Y-4325000D02*
X10300000Y-4900000D01*
X9725000Y-3750000D02*
X9725000Y-4325000D01*
X18275000Y-4325000D02*
X17700000Y-4900000D01*
X18275000Y-3750000D02*
X18275000Y-4325000D01*
X21325000Y-4325000D02*
X21825010Y-4825010D01*
X21325000Y-3750000D02*
X21325000Y-4325000D01*
X24450000Y-10110193D02*
X24750274Y-10410467D01*
X24450000Y-7900000D02*
X24450000Y-10110193D01*
X3550000Y-10372934D02*
X3499383Y-10423551D01*
X3550000Y-7900000D02*
X3550000Y-10372934D01*
X14000000Y-19100000D02*
X15500000Y-19100000D01*
X17200013Y-2675013D02*
X17200013Y675131D01*
X17700000Y-4900000D02*
X17700000Y-4475736D01*
X17200013Y675131D02*
X17524882Y1000000D01*
X18275000Y-3750000D02*
X17200013Y-2675013D01*
X17700000Y-4475736D02*
X17524882Y-4300618D01*
X17524882Y-4300618D02*
X17524882Y1000000D01*
X18275000Y-3750000D02*
X17524966Y-2999966D01*
X17524966Y-2999966D02*
X17524966Y-750000D01*
X10320000Y-2415000D02*
X10475020Y-2259980D01*
X10475020Y-2259980D02*
X10475020Y-700000D01*
X10300000Y-4900000D02*
X10425010Y-4774990D01*
X10425010Y-4774990D02*
X10425010Y-750010D01*
X9725000Y-3750000D02*
X10475020Y-2999980D01*
X10475020Y-2999980D02*
X10475020Y-700000D01*
X10475030Y1000000D02*
X10475030Y-699990D01*
X10475030Y-699990D02*
X10475020Y-700000D01*
X10425010Y-750010D02*
X10475020Y-700000D01*
X10475030Y1000000D02*
X10800000Y675030D01*
X10800000Y-2675000D02*
X10475020Y-2999980D01*
X10800000Y675030D02*
X10800000Y-2675000D01*
D35*
X24000000Y-34612500D02*
X24000000Y-33800000D01*
D33*
X5900000Y-16850000D02*
X5900000Y-17700000D01*
X24200000Y-24600000D02*
X23600000Y-24600000D01*
X23600000Y-25187500D02*
X23387500Y-25400000D01*
X23600000Y-24600000D02*
X23600000Y-25187500D01*
X23600000Y-24112500D02*
X23387500Y-23900000D01*
X23600000Y-24600000D02*
X23600000Y-24112500D01*
X14000000Y-20349990D02*
X13749990Y-20600000D01*
X14000000Y-19100000D02*
X14000000Y-20349990D01*
D35*
X13749990Y-20600000D02*
X15270711Y-22120721D01*
X10200000Y-18100000D02*
X8000000Y-18100000D01*
X15270711Y-26210049D02*
X15270711Y-22929289D01*
X15270711Y-22120721D02*
X15270711Y-22929289D01*
D33*
X14600000Y-31500000D02*
X13400000Y-31500000D01*
X13400000Y-31500000D02*
X13400000Y-33100000D01*
X13400000Y-33100000D02*
X14600000Y-33100000D01*
X14600000Y-33100000D02*
X14600000Y-31500000D01*
X14600000Y-32300000D02*
X13400000Y-32300000D01*
D35*
G04 #@! TO.N,Net-(C11-Pad2)*
X8512500Y-6400000D02*
X8512500Y-9400000D01*
X7649999Y-11599999D02*
X7649999Y-10262501D01*
X7649999Y-10262501D02*
X8512500Y-9400000D01*
X7725000Y-11675000D02*
X7649999Y-11599999D01*
X8350000Y-11675000D02*
X7725000Y-11675000D01*
G04 #@! TO.N,Net-(C11-Pad1)*
X12308150Y-12350000D02*
X13625010Y-12350000D01*
X12283150Y-12325000D02*
X12308150Y-12350000D01*
X11650000Y-12325000D02*
X12283150Y-12325000D01*
X10087500Y-9400000D02*
X10087500Y-7900000D01*
X12300000Y-9400000D02*
X13649987Y-10749987D01*
X13650001Y-13819999D02*
X13650001Y-16287997D01*
X13650001Y-16287997D02*
X14862004Y-17500000D01*
X10087500Y-9400000D02*
X12300000Y-9400000D01*
X13649987Y-13819985D02*
X13650001Y-13819999D01*
X13649987Y-10749987D02*
X13649987Y-13819985D01*
X18412500Y-17500000D02*
X19200000Y-16712500D01*
X14862004Y-17500000D02*
X18412500Y-17500000D01*
G04 #@! TO.N,Net-(R11-Pad1)*
X6687500Y-11344620D02*
X6687500Y-11100000D01*
X7667880Y-12325000D02*
X6687500Y-11344620D01*
X8350000Y-12325000D02*
X7667880Y-12325000D01*
G04 #@! TO.N,Net-(R16-Pad2)*
X14787500Y800000D02*
X14800000Y800000D01*
X16900000Y-5387500D02*
X17000000Y-5487500D01*
X16900000Y-3400000D02*
X16900000Y-5387500D01*
X16000000Y-2500000D02*
X16900000Y-3400000D01*
X17000000Y-5487500D02*
X17912500Y-6400000D01*
X15500000Y-2500000D02*
X16000000Y-2500000D01*
X15500000Y87500D02*
X14787500Y800000D01*
X15500000Y-2500000D02*
X15500000Y87500D01*
G04 #@! TO.N,Net-(R17-Pad2)*
X11075001Y-5412499D02*
X10087500Y-6400000D01*
X11075001Y-3375001D02*
X11075001Y-5412499D01*
X11950002Y-2500000D02*
X11075001Y-3375001D01*
X12500000Y-2500000D02*
X11950002Y-2500000D01*
X12500000Y87500D02*
X13212500Y800000D01*
X12500000Y-2500000D02*
X12500000Y87500D01*
G04 #@! TO.N,Net-(R23-Pad1)*
X20437500Y-11675000D02*
X20912500Y-11200000D01*
X19850000Y-11675000D02*
X20437500Y-11675000D01*
G04 #@! TO.N,Net-(C18-Pad2)*
X18887500Y-19700000D02*
X18887500Y-19475000D01*
X18887500Y-19700000D02*
X18887500Y-21200000D01*
X18975000Y-21287500D02*
X18887500Y-21200000D01*
X18975000Y-22550000D02*
X18975000Y-21287500D01*
X18887500Y-19475000D02*
X17700000Y-18287500D01*
D33*
G04 #@! TO.N,/OFFSET_TRIM*
X20200000Y-28700000D02*
X20500000Y-29000000D01*
X18287500Y-28700000D02*
X20200000Y-28700000D01*
X18087500Y-28500000D02*
X18287500Y-28700000D01*
G04 #@! TD*
D35*
G04 #@! TO.N,GNDA*
X5293934Y-18206066D02*
X5316664Y-18224720D01*
X5342597Y-18238582D01*
X5370736Y-18247118D01*
X5400000Y-18250000D01*
X6400000Y-18250000D01*
X6429264Y-18247118D01*
X6457403Y-18238582D01*
X6483336Y-18224720D01*
X6506066Y-18206066D01*
X7062132Y-17650000D01*
X11937868Y-17650000D01*
X12538154Y-18250286D01*
X12540000Y-18980000D01*
X12655000Y-19095000D01*
X13382868Y-19095000D01*
X13392868Y-19105000D01*
X12655000Y-19105000D01*
X12540000Y-19220000D01*
X12537774Y-20100000D01*
X12546656Y-20190176D01*
X12572959Y-20276886D01*
X12615673Y-20356799D01*
X12673157Y-20426843D01*
X12743201Y-20484327D01*
X12823114Y-20527041D01*
X12909824Y-20553344D01*
X13000000Y-20562226D01*
X13880000Y-20560000D01*
X13995000Y-20445000D01*
X13995000Y-19707132D01*
X14005000Y-19717132D01*
X14005000Y-20445000D01*
X14120000Y-20560000D01*
X14849714Y-20561846D01*
X15850000Y-21562132D01*
X15850000Y-21830765D01*
X15795116Y-21885649D01*
X15723982Y-21992110D01*
X15674983Y-22110402D01*
X15650004Y-22235981D01*
X15650004Y-22364019D01*
X15674983Y-22489598D01*
X15700004Y-22550003D01*
X15700004Y-22649987D01*
X15674979Y-22710402D01*
X15650000Y-22835981D01*
X15650000Y-22964019D01*
X15674979Y-23089598D01*
X15700004Y-23150014D01*
X15700005Y-23249986D01*
X15674979Y-23310402D01*
X15650000Y-23435981D01*
X15650000Y-23564019D01*
X15674979Y-23689598D01*
X15700005Y-23750015D01*
X15700005Y-23849985D01*
X15674979Y-23910402D01*
X15650000Y-24035981D01*
X15650000Y-24164019D01*
X15674979Y-24289598D01*
X15700000Y-24350003D01*
X15700000Y-24449997D01*
X15674979Y-24510402D01*
X15650000Y-24635981D01*
X15650000Y-24764019D01*
X15674979Y-24889598D01*
X15700000Y-24950003D01*
X15700000Y-25049997D01*
X15674979Y-25110402D01*
X15650000Y-25235981D01*
X15650000Y-25364019D01*
X15674979Y-25489598D01*
X15700000Y-25550003D01*
X15700000Y-25649997D01*
X15674979Y-25710402D01*
X15650000Y-25835981D01*
X15650000Y-25964019D01*
X15674979Y-26089598D01*
X15723978Y-26207890D01*
X15795112Y-26314351D01*
X15850000Y-26369239D01*
X15850000Y-26389596D01*
X15819444Y-26426829D01*
X15766729Y-26525451D01*
X15734268Y-26632462D01*
X15723307Y-26743750D01*
X15723307Y-27050000D01*
X15635981Y-27050000D01*
X15510402Y-27074979D01*
X15392110Y-27123978D01*
X15285649Y-27195112D01*
X15195112Y-27285649D01*
X15185519Y-27300006D01*
X14721708Y-27300006D01*
X14738897Y-27213592D01*
X14738897Y-27085554D01*
X14713918Y-26959975D01*
X14664919Y-26841683D01*
X14650000Y-26819355D01*
X14650000Y-22500000D01*
X14647118Y-22470736D01*
X14638582Y-22442597D01*
X14624720Y-22416664D01*
X14606066Y-22393934D01*
X11106066Y-18893934D01*
X11083336Y-18875280D01*
X11057403Y-18861418D01*
X11029264Y-18852882D01*
X11000000Y-18850000D01*
X2353655Y-18850000D01*
X2412778Y-17650000D01*
X4737868Y-17650000D01*
X5293934Y-18206066D01*
G04 #@! TA.AperFunction,Conductor*
D36*
G36*
X5293934Y-18206066D02*
G01*
X5316664Y-18224720D01*
X5342597Y-18238582D01*
X5370736Y-18247118D01*
X5400000Y-18250000D01*
X6400000Y-18250000D01*
X6429264Y-18247118D01*
X6457403Y-18238582D01*
X6483336Y-18224720D01*
X6506066Y-18206066D01*
X7062132Y-17650000D01*
X11937868Y-17650000D01*
X12538154Y-18250286D01*
X12540000Y-18980000D01*
X12655000Y-19095000D01*
X13382868Y-19095000D01*
X13392868Y-19105000D01*
X12655000Y-19105000D01*
X12540000Y-19220000D01*
X12537774Y-20100000D01*
X12546656Y-20190176D01*
X12572959Y-20276886D01*
X12615673Y-20356799D01*
X12673157Y-20426843D01*
X12743201Y-20484327D01*
X12823114Y-20527041D01*
X12909824Y-20553344D01*
X13000000Y-20562226D01*
X13880000Y-20560000D01*
X13995000Y-20445000D01*
X13995000Y-19707132D01*
X14005000Y-19717132D01*
X14005000Y-20445000D01*
X14120000Y-20560000D01*
X14849714Y-20561846D01*
X15850000Y-21562132D01*
X15850000Y-21830765D01*
X15795116Y-21885649D01*
X15723982Y-21992110D01*
X15674983Y-22110402D01*
X15650004Y-22235981D01*
X15650004Y-22364019D01*
X15674983Y-22489598D01*
X15700004Y-22550003D01*
X15700004Y-22649987D01*
X15674979Y-22710402D01*
X15650000Y-22835981D01*
X15650000Y-22964019D01*
X15674979Y-23089598D01*
X15700004Y-23150014D01*
X15700005Y-23249986D01*
X15674979Y-23310402D01*
X15650000Y-23435981D01*
X15650000Y-23564019D01*
X15674979Y-23689598D01*
X15700005Y-23750015D01*
X15700005Y-23849985D01*
X15674979Y-23910402D01*
X15650000Y-24035981D01*
X15650000Y-24164019D01*
X15674979Y-24289598D01*
X15700000Y-24350003D01*
X15700000Y-24449997D01*
X15674979Y-24510402D01*
X15650000Y-24635981D01*
X15650000Y-24764019D01*
X15674979Y-24889598D01*
X15700000Y-24950003D01*
X15700000Y-25049997D01*
X15674979Y-25110402D01*
X15650000Y-25235981D01*
X15650000Y-25364019D01*
X15674979Y-25489598D01*
X15700000Y-25550003D01*
X15700000Y-25649997D01*
X15674979Y-25710402D01*
X15650000Y-25835981D01*
X15650000Y-25964019D01*
X15674979Y-26089598D01*
X15723978Y-26207890D01*
X15795112Y-26314351D01*
X15850000Y-26369239D01*
X15850000Y-26389596D01*
X15819444Y-26426829D01*
X15766729Y-26525451D01*
X15734268Y-26632462D01*
X15723307Y-26743750D01*
X15723307Y-27050000D01*
X15635981Y-27050000D01*
X15510402Y-27074979D01*
X15392110Y-27123978D01*
X15285649Y-27195112D01*
X15195112Y-27285649D01*
X15185519Y-27300006D01*
X14721708Y-27300006D01*
X14738897Y-27213592D01*
X14738897Y-27085554D01*
X14713918Y-26959975D01*
X14664919Y-26841683D01*
X14650000Y-26819355D01*
X14650000Y-22500000D01*
X14647118Y-22470736D01*
X14638582Y-22442597D01*
X14624720Y-22416664D01*
X14606066Y-22393934D01*
X11106066Y-18893934D01*
X11083336Y-18875280D01*
X11057403Y-18861418D01*
X11029264Y-18852882D01*
X11000000Y-18850000D01*
X2353655Y-18850000D01*
X2412778Y-17650000D01*
X4737868Y-17650000D01*
X5293934Y-18206066D01*
G37*
G04 #@! TD.AperFunction*
G04 #@! TD*
D35*
G04 #@! TO.N,GND*
X13850000Y-22562132D02*
X13850000Y-23163259D01*
X13468750Y-23163259D01*
X13355502Y-23174413D01*
X13246606Y-23207446D01*
X13146246Y-23261089D01*
X13058281Y-23333281D01*
X12986089Y-23421246D01*
X12932446Y-23521606D01*
X12899413Y-23630502D01*
X12888259Y-23743750D01*
X12888259Y-23950000D01*
X9911741Y-23950000D01*
X9911741Y-23743750D01*
X9900587Y-23630502D01*
X9867554Y-23521606D01*
X9813911Y-23421246D01*
X9741719Y-23333281D01*
X9653754Y-23261089D01*
X9553394Y-23207446D01*
X9444498Y-23174413D01*
X9331250Y-23163259D01*
X8893750Y-23163259D01*
X8780502Y-23174413D01*
X8671606Y-23207446D01*
X8571246Y-23261089D01*
X8483281Y-23333281D01*
X8411089Y-23421246D01*
X8357446Y-23521606D01*
X8324413Y-23630502D01*
X8313259Y-23743750D01*
X8313259Y-23950000D01*
X6162132Y-23950000D01*
X7906066Y-22206066D01*
X7924720Y-22183336D01*
X7938582Y-22157403D01*
X7947118Y-22129264D01*
X7950000Y-22100000D01*
X7950000Y-20000000D01*
X7947118Y-19970736D01*
X7938582Y-19942597D01*
X7924720Y-19916664D01*
X7906066Y-19893934D01*
X7883336Y-19875280D01*
X7857403Y-19861418D01*
X7829264Y-19852882D01*
X7800000Y-19850000D01*
X7455440Y-19850000D01*
X7441719Y-19833281D01*
X7353754Y-19761089D01*
X7253394Y-19707446D01*
X7144498Y-19674413D01*
X7031250Y-19663259D01*
X6593750Y-19663259D01*
X6480502Y-19674413D01*
X6371606Y-19707446D01*
X6271246Y-19761089D01*
X6183281Y-19833281D01*
X6169560Y-19850000D01*
X6001920Y-19850000D01*
X6000973Y-19849223D01*
X5938432Y-19815795D01*
X5870572Y-19795210D01*
X5800000Y-19788259D01*
X5200000Y-19788259D01*
X5129428Y-19795210D01*
X5061568Y-19815795D01*
X4999027Y-19849223D01*
X4998080Y-19850000D01*
X4601920Y-19850000D01*
X4600973Y-19849223D01*
X4538432Y-19815795D01*
X4470572Y-19795210D01*
X4400000Y-19788259D01*
X3800000Y-19788259D01*
X3729428Y-19795210D01*
X3661568Y-19815795D01*
X3599027Y-19849223D01*
X3544210Y-19894210D01*
X3527163Y-19914982D01*
X3465434Y-19933707D01*
X3359463Y-19990350D01*
X3266578Y-20066578D01*
X3247476Y-20089854D01*
X2689859Y-20647472D01*
X2666578Y-20666578D01*
X2590350Y-20759464D01*
X2533707Y-20865435D01*
X2498827Y-20980420D01*
X2491933Y-21050418D01*
X2487049Y-21100000D01*
X2490000Y-21129958D01*
X2490000Y-21510037D01*
X2487049Y-21539998D01*
X2490000Y-21569956D01*
X2490000Y-21569959D01*
X2490001Y-21569969D01*
X2490000Y-23547330D01*
X2113690Y-23923641D01*
X2334105Y-19450000D01*
X10737868Y-19450000D01*
X13850000Y-22562132D01*
G04 #@! TA.AperFunction,Conductor*
D36*
G36*
X13850000Y-22562132D02*
G01*
X13850000Y-23163259D01*
X13468750Y-23163259D01*
X13355502Y-23174413D01*
X13246606Y-23207446D01*
X13146246Y-23261089D01*
X13058281Y-23333281D01*
X12986089Y-23421246D01*
X12932446Y-23521606D01*
X12899413Y-23630502D01*
X12888259Y-23743750D01*
X12888259Y-23950000D01*
X9911741Y-23950000D01*
X9911741Y-23743750D01*
X9900587Y-23630502D01*
X9867554Y-23521606D01*
X9813911Y-23421246D01*
X9741719Y-23333281D01*
X9653754Y-23261089D01*
X9553394Y-23207446D01*
X9444498Y-23174413D01*
X9331250Y-23163259D01*
X8893750Y-23163259D01*
X8780502Y-23174413D01*
X8671606Y-23207446D01*
X8571246Y-23261089D01*
X8483281Y-23333281D01*
X8411089Y-23421246D01*
X8357446Y-23521606D01*
X8324413Y-23630502D01*
X8313259Y-23743750D01*
X8313259Y-23950000D01*
X6162132Y-23950000D01*
X7906066Y-22206066D01*
X7924720Y-22183336D01*
X7938582Y-22157403D01*
X7947118Y-22129264D01*
X7950000Y-22100000D01*
X7950000Y-20000000D01*
X7947118Y-19970736D01*
X7938582Y-19942597D01*
X7924720Y-19916664D01*
X7906066Y-19893934D01*
X7883336Y-19875280D01*
X7857403Y-19861418D01*
X7829264Y-19852882D01*
X7800000Y-19850000D01*
X7455440Y-19850000D01*
X7441719Y-19833281D01*
X7353754Y-19761089D01*
X7253394Y-19707446D01*
X7144498Y-19674413D01*
X7031250Y-19663259D01*
X6593750Y-19663259D01*
X6480502Y-19674413D01*
X6371606Y-19707446D01*
X6271246Y-19761089D01*
X6183281Y-19833281D01*
X6169560Y-19850000D01*
X6001920Y-19850000D01*
X6000973Y-19849223D01*
X5938432Y-19815795D01*
X5870572Y-19795210D01*
X5800000Y-19788259D01*
X5200000Y-19788259D01*
X5129428Y-19795210D01*
X5061568Y-19815795D01*
X4999027Y-19849223D01*
X4998080Y-19850000D01*
X4601920Y-19850000D01*
X4600973Y-19849223D01*
X4538432Y-19815795D01*
X4470572Y-19795210D01*
X4400000Y-19788259D01*
X3800000Y-19788259D01*
X3729428Y-19795210D01*
X3661568Y-19815795D01*
X3599027Y-19849223D01*
X3544210Y-19894210D01*
X3527163Y-19914982D01*
X3465434Y-19933707D01*
X3359463Y-19990350D01*
X3266578Y-20066578D01*
X3247476Y-20089854D01*
X2689859Y-20647472D01*
X2666578Y-20666578D01*
X2590350Y-20759464D01*
X2533707Y-20865435D01*
X2498827Y-20980420D01*
X2491933Y-21050418D01*
X2487049Y-21100000D01*
X2490000Y-21129958D01*
X2490000Y-21510037D01*
X2487049Y-21539998D01*
X2490000Y-21569956D01*
X2490000Y-21569959D01*
X2490001Y-21569969D01*
X2490000Y-23547330D01*
X2113690Y-23923641D01*
X2334105Y-19450000D01*
X10737868Y-19450000D01*
X13850000Y-22562132D01*
G37*
G04 #@! TD.AperFunction*
G04 #@! TD*
D37*
X9100000Y-30700000D03*
X9800000Y-31400000D03*
X8356250Y-29243750D03*
X6800000Y-32900000D03*
X8000000Y-23400000D03*
X9000000Y-21200000D03*
X11400000Y-23591048D03*
X5900000Y-29200000D03*
X5100000Y-29200000D03*
X5900000Y-29800000D03*
X5100000Y-29800000D03*
X5100000Y-30400000D03*
X5900000Y-30400000D03*
X5900000Y-28600000D03*
X5100000Y-28600000D03*
X5100000Y-28000000D03*
X5900000Y-28000000D03*
X2169305Y-35459689D03*
X6800000Y-24800000D03*
X9800000Y-30700000D03*
X2350000Y-23350000D03*
X11400000Y-22950000D03*
X2850027Y-19550027D03*
X13749990Y-22945864D03*
X10249967Y-19550027D03*
X7950027Y-19550027D03*
X12200000Y-21000004D03*
X6700000Y-34600000D03*
X6100000Y-21600013D03*
X10018750Y-24831250D03*
X6100000Y-20800000D03*
X5189209Y-34610791D03*
X12650000Y-24950000D03*
X12790380Y-10809620D03*
X15009620Y-10809620D03*
X19000000Y-27700000D03*
X15700000Y-27700000D03*
X11093750Y-28906250D03*
X22900000Y-27600000D03*
X21800000Y-26400000D03*
X11503370Y-16203370D03*
X17199986Y-13500000D03*
X17800000Y-13500000D03*
X18400004Y-13500000D03*
X19000000Y-13500006D03*
X17500000Y-14000000D03*
X18100000Y-14000000D03*
X18700000Y-14000000D03*
X9000000Y-13500000D03*
X9600000Y-13500000D03*
X10200000Y-13500000D03*
X10800000Y-13500000D03*
X9300000Y-14000000D03*
X9900000Y-14000000D03*
X10500000Y-14000000D03*
X8712500Y-14012500D03*
X11100000Y-14000000D03*
X16900000Y-14000000D03*
X19300000Y-14000000D03*
X9000000Y-10500000D03*
X9600000Y-10500000D03*
X10200000Y-10500000D03*
X10800000Y-10500000D03*
X17200000Y-10500000D03*
X17800000Y-10500000D03*
X18400000Y-10500000D03*
X19000000Y-10500000D03*
X20800000Y-23200000D03*
X20800000Y-23800000D03*
X20800000Y-24400000D03*
X20800000Y-25000000D03*
X17800000Y-23200000D03*
X17800000Y-23800000D03*
X17800000Y-24400000D03*
X17800000Y-25000000D03*
X17300000Y-23500000D03*
X17300000Y-22900000D03*
X17300000Y-24100000D03*
X17300000Y-24700000D03*
X17300000Y-25300000D03*
X16800000Y-23200000D03*
X16800000Y-22600000D03*
X16800000Y-23800000D03*
X16800000Y-24400000D03*
X16800000Y-25000000D03*
X16800000Y-25600000D03*
X23500000Y-31000000D03*
X16300000Y-22900000D03*
X16300004Y-22300000D03*
X16300000Y-23500000D03*
X16300000Y-24100000D03*
X16300000Y-24700000D03*
X16300000Y-25300000D03*
X16300000Y-25900000D03*
X14088897Y-27149573D03*
X7675000Y-31115908D03*
X7800000Y-28300000D03*
X3487095Y-31027421D03*
X10000002Y-35700000D03*
X10000000Y-36299984D03*
X7800000Y-27700000D03*
X19800000Y-3850000D03*
X8200000Y-3850000D03*
X24200000Y-24600000D03*
X9600000Y-15600000D03*
X22900000Y-8850012D03*
X14800000Y-13600000D03*
X12999987Y-13578597D03*
X16700000Y-20500000D03*
X5900000Y-16200000D03*
X22100000Y-16200000D03*
X22100000Y-17700000D03*
X12500000Y-19100000D03*
X6080000Y-2415000D03*
X10320000Y-2415000D03*
X17808782Y-2536827D03*
X21920000Y-2415000D03*
X6174990Y-4874990D03*
X17700000Y-4900000D03*
X21825010Y-4825010D03*
X15500000Y-19100000D03*
X10300000Y-4900000D03*
X15000000Y-8700000D03*
X12800000Y-8700000D03*
X17524882Y1000000D03*
X17524966Y-750000D03*
X10475030Y1000000D03*
X10475020Y-700000D03*
X24000000Y-33800000D03*
X5900000Y-17700000D03*
X2900000Y-18100000D03*
X10200000Y-18100000D03*
X23600000Y-24600000D03*
X13749990Y-20600000D03*
X15270711Y-26210049D03*
X8000000Y-18100000D03*
X15270711Y-22929289D03*
X14900000Y-28450006D03*
D38*
X13400000Y-33100000D03*
X13400000Y-32300000D03*
X13400000Y-31500000D03*
X14600000Y-31500000D03*
X14600000Y-32300000D03*
X15700000Y-34700000D03*
X15700000Y-35500000D03*
X15700000Y-36300000D03*
X12300000Y-34700000D03*
X12300000Y-35500000D03*
X12300000Y-36300000D03*
X14000000Y-29400000D03*
X14600000Y-33100000D03*
D37*
X25099794Y-10392150D03*
X24500617Y-10423551D03*
X25131196Y-10991327D03*
X25349794Y-15392150D03*
X24750617Y-15423551D03*
X25381196Y-15991327D03*
X2618804Y-15991327D03*
X3249383Y-15423551D03*
X2650206Y-15392150D03*
X2868804Y-10991327D03*
X3499383Y-10423551D03*
X2900206Y-10392150D03*
D38*
X19000000Y-34700000D03*
D37*
X18550000Y-24600000D03*
X18550000Y-23600000D03*
X20050000Y-24600000D03*
X20050000Y-23600000D03*
X19300000Y-24100000D03*
X10400000Y-12750000D03*
X9400000Y-12750000D03*
X10400000Y-11250000D03*
X9400000Y-11250000D03*
X9900000Y-12000000D03*
X17600000Y-11250000D03*
X18600000Y-11250000D03*
X17600000Y-12750000D03*
X18600000Y-12750000D03*
X18100000Y-12000000D03*
M02*
