G04 #@! TF.GenerationSoftware,KiCad,Pcbnew,5.1.9-73d0e3b20d~88~ubuntu20.04.1*
G04 #@! TF.CreationDate,2021-06-04T11:55:54+03:00*
G04 #@! TF.ProjectId,differential-tweezer,64696666-6572-4656-9e74-69616c2d7477,rev?*
G04 #@! TF.SameCoordinates,Original*
G04 #@! TF.FileFunction,Copper,L4,Bot*
G04 #@! TF.FilePolarity,Positive*
%FSLAX46Y46*%
G04 Gerber Fmt 4.6, Leading zero omitted, Abs format (unit mm)*
G04 Created by KiCad (PCBNEW 5.1.9-73d0e3b20d~88~ubuntu20.04.1) date 2021-06-04 11:55:54*
%MOMM*%
%LPD*%
G01*
G04 APERTURE LIST*
G04 #@! TA.AperFunction,ComponentPad*
%ADD10C,2.800000*%
G04 #@! TD*
G04 #@! TA.AperFunction,ComponentPad*
%ADD11C,2.000000*%
G04 #@! TD*
G04 #@! TA.AperFunction,ComponentPad*
%ADD12C,0.600000*%
G04 #@! TD*
G04 #@! TA.AperFunction,SMDPad,CuDef*
%ADD13C,0.350000*%
G04 #@! TD*
G04 #@! TA.AperFunction,ComponentPad*
%ADD14C,4.200000*%
G04 #@! TD*
G04 #@! TA.AperFunction,SMDPad,CuDef*
%ADD15C,2.500000*%
G04 #@! TD*
G04 #@! TA.AperFunction,SMDPad,CuDef*
%ADD16R,2.400000X1.650000*%
G04 #@! TD*
G04 #@! TA.AperFunction,SMDPad,CuDef*
%ADD17R,1.650000X2.400000*%
G04 #@! TD*
G04 #@! TA.AperFunction,ViaPad*
%ADD18C,0.600000*%
G04 #@! TD*
G04 #@! TA.AperFunction,Conductor*
%ADD19C,0.400000*%
G04 #@! TD*
G04 #@! TA.AperFunction,Conductor*
%ADD20C,0.200000*%
G04 #@! TD*
G04 #@! TA.AperFunction,Conductor*
%ADD21C,0.350000*%
G04 #@! TD*
%ADD22C,0.300000*%
%ADD23C,0.350000*%
G04 APERTURE END LIST*
D10*
G04 #@! TO.P,J8,2*
G04 #@! TO.N,GNDA*
X7500000Y-1700000D03*
X7500000Y-6100000D03*
X11900000Y-6100000D03*
X11900000Y-1700000D03*
D11*
G04 #@! TO.P,J8,1*
G04 #@! TO.N,/CONN_IN-*
X9700000Y-3900000D03*
G04 #@! TD*
D12*
G04 #@! TO.P,J2,1*
G04 #@! TO.N,+5V*
X15600000Y-31300000D03*
X15600000Y-33400000D03*
X15600000Y-35500000D03*
X12400000Y-31300000D03*
X12400000Y-33400000D03*
X12400000Y-35500000D03*
G04 #@! TD*
G04 #@! TA.AperFunction,SMDPad,CuDef*
D13*
G04 #@! TO.P,J4,1*
G04 #@! TO.N,GNDA*
G36*
X24484916Y-10123962D02*
G01*
X25084094Y-10092560D01*
X25115496Y-10691738D01*
X24516318Y-10723140D01*
X24484916Y-10123962D01*
G37*
G04 #@! TD.AperFunction*
G04 #@! TA.AperFunction,SMDPad,CuDef*
G36*
X24800205Y-10407850D02*
G01*
X25399383Y-10376448D01*
X25430785Y-10975626D01*
X24831607Y-11007028D01*
X24800205Y-10407850D01*
G37*
G04 #@! TD.AperFunction*
D12*
X25099794Y-10392150D03*
X24500617Y-10423551D03*
X25131196Y-10991327D03*
G04 #@! TD*
G04 #@! TA.AperFunction,SMDPad,CuDef*
D13*
G04 #@! TO.P,J3,1*
G04 #@! TO.N,/IN+*
G36*
X24634916Y-12923962D02*
G01*
X25234094Y-12892560D01*
X25265496Y-13491738D01*
X24666318Y-13523140D01*
X24634916Y-12923962D01*
G37*
G04 #@! TD.AperFunction*
G04 #@! TA.AperFunction,SMDPad,CuDef*
G36*
X24950205Y-13207850D02*
G01*
X25549383Y-13176448D01*
X25580785Y-13775626D01*
X24981607Y-13807028D01*
X24950205Y-13207850D01*
G37*
G04 #@! TD.AperFunction*
D12*
X25249794Y-13192150D03*
X24650617Y-13223551D03*
X25281196Y-13791327D03*
G04 #@! TD*
G04 #@! TO.P,J6,1*
G04 #@! TO.N,/IN-*
X2718804Y-13791327D03*
X3349383Y-13223551D03*
X2750206Y-13192150D03*
G04 #@! TA.AperFunction,SMDPad,CuDef*
D13*
G36*
X3018393Y-13807028D02*
G01*
X2419215Y-13775626D01*
X2450617Y-13176448D01*
X3049795Y-13207850D01*
X3018393Y-13807028D01*
G37*
G04 #@! TD.AperFunction*
G04 #@! TA.AperFunction,SMDPad,CuDef*
G36*
X3333682Y-13523140D02*
G01*
X2734504Y-13491738D01*
X2765906Y-12892560D01*
X3365084Y-12923962D01*
X3333682Y-13523140D01*
G37*
G04 #@! TD.AperFunction*
G04 #@! TD*
D12*
G04 #@! TO.P,J5,1*
G04 #@! TO.N,GNDA*
X2868804Y-10991327D03*
X3499383Y-10423551D03*
X2900206Y-10392150D03*
G04 #@! TA.AperFunction,SMDPad,CuDef*
D13*
G36*
X3168393Y-11007028D02*
G01*
X2569215Y-10975626D01*
X2600617Y-10376448D01*
X3199795Y-10407850D01*
X3168393Y-11007028D01*
G37*
G04 #@! TD.AperFunction*
G04 #@! TA.AperFunction,SMDPad,CuDef*
G36*
X3483682Y-10723140D02*
G01*
X2884504Y-10691738D01*
X2915906Y-10092560D01*
X3515084Y-10123962D01*
X3483682Y-10723140D01*
G37*
G04 #@! TD.AperFunction*
G04 #@! TD*
D11*
G04 #@! TO.P,J1,1*
G04 #@! TO.N,/OUT*
X14000000Y-21700000D03*
D12*
G04 #@! TO.P,J1,2*
G04 #@! TO.N,GNDA*
X15100000Y-28400000D03*
X12900000Y-28400000D03*
X12900000Y-24200000D03*
X12900000Y-26300000D03*
X15100000Y-26300000D03*
X15100000Y-24200000D03*
G04 #@! TD*
D10*
G04 #@! TO.P,J7,2*
G04 #@! TO.N,GNDA*
X16100000Y-1700000D03*
X16100000Y-6100000D03*
X20500000Y-6100000D03*
X20500000Y-1700000D03*
D11*
G04 #@! TO.P,J7,1*
G04 #@! TO.N,/CONN_IN+*
X18300000Y-3900000D03*
G04 #@! TD*
D14*
G04 #@! TO.P,H1,1*
G04 #@! TO.N,GNDA*
X19400000Y-34700000D03*
G04 #@! TD*
D15*
G04 #@! TO.P,TP4,1*
G04 #@! TO.N,GNDA*
X14000000Y-25000000D03*
G04 #@! TD*
G04 #@! TO.P,TP3,1*
G04 #@! TO.N,-6V*
X18000000Y-22000000D03*
G04 #@! TD*
G04 #@! TO.P,TP2,1*
G04 #@! TO.N,+6V*
X10000000Y-22000000D03*
G04 #@! TD*
G04 #@! TO.P,TP1,1*
G04 #@! TO.N,+5V*
X14000000Y-32000000D03*
G04 #@! TD*
D12*
G04 #@! TO.P,U4,9*
G04 #@! TO.N,-6V*
X20800000Y-29350000D03*
X20800000Y-28350000D03*
X22300000Y-29350000D03*
X22300000Y-28350000D03*
X21550000Y-28850000D03*
D16*
X21550000Y-28850000D03*
G04 #@! TD*
D12*
G04 #@! TO.P,U3,9*
G04 #@! TO.N,-6V*
X11400000Y-11300000D03*
X10400000Y-11300000D03*
X11400000Y-9800000D03*
X10400000Y-9800000D03*
X10900000Y-10550000D03*
D17*
X10900000Y-10550000D03*
G04 #@! TD*
D12*
G04 #@! TO.P,U2,9*
G04 #@! TO.N,-6V*
X16600000Y-9850000D03*
X17600000Y-9850000D03*
X16600000Y-11350000D03*
X17600000Y-11350000D03*
X17100000Y-10600000D03*
D17*
X17100000Y-10600000D03*
G04 #@! TD*
D18*
G04 #@! TO.N,GND*
X5900000Y-23000010D03*
X8300000Y-23000000D03*
X5800000Y-25699942D03*
X6799999Y-32300001D03*
X8399998Y-25700002D03*
X6700000Y-35800000D03*
X10699998Y-32700000D03*
X6500000Y-33900000D03*
X4100000Y-29800000D03*
X5700000Y-28500000D03*
X6300000Y-28500000D03*
X6900000Y-28500000D03*
X7500000Y-28500000D03*
X8100000Y-28500000D03*
X8100000Y-29300000D03*
X7500000Y-29300000D03*
X6900000Y-29300000D03*
X6300000Y-29300000D03*
X5700000Y-29300000D03*
X6500000Y-32800000D03*
G04 #@! TO.N,Net-(C4-Pad1)*
X8843750Y-24956250D03*
X4709169Y-34729766D03*
G04 #@! TO.N,+6V*
X11300000Y-21400000D03*
X22198192Y-31251808D03*
X22400000Y-33600000D03*
X24000000Y-21650000D03*
X12500466Y-12525005D03*
G04 #@! TO.N,-6V*
X22600000Y-21500000D03*
X5299992Y-21000000D03*
X10400000Y-12250000D03*
X9800000Y-12250000D03*
X9200000Y-12250000D03*
X9200000Y-12850000D03*
X9800000Y-12850000D03*
X10400000Y-12850000D03*
X11000000Y-12850000D03*
X11000000Y-12250000D03*
X17600000Y-12250000D03*
X18200000Y-12250000D03*
X18800000Y-12275002D03*
X18800000Y-12850000D03*
X18200000Y-12850000D03*
X17600000Y-12850000D03*
X17000000Y-12850000D03*
X16400000Y-12850000D03*
X16400000Y-12250000D03*
X17000000Y-12250000D03*
X11600000Y-12850000D03*
X11600000Y-12250000D03*
X9200000Y-13450000D03*
X9800000Y-13450000D03*
X10400000Y-13450000D03*
X11000000Y-13450000D03*
X11600000Y-13450000D03*
X16400000Y-13450000D03*
X17000000Y-13450000D03*
X17600000Y-13450000D03*
X18200000Y-13450000D03*
X18800000Y-13450000D03*
X20050000Y-28350000D03*
X20050000Y-28950000D03*
X20050000Y-29550000D03*
X19450000Y-29550000D03*
X18850000Y-29550000D03*
X19750000Y-27450000D03*
X19150000Y-27450000D03*
X18550000Y-27450000D03*
X18550000Y-26850000D03*
X19150000Y-26850000D03*
X19750000Y-26850000D03*
X23100000Y-28350000D03*
X23100000Y-28950000D03*
X23225000Y-29575000D03*
X16950000Y-30250000D03*
G04 #@! TO.N,Net-(C26-Pad1)*
X5000000Y-26949989D03*
X8400000Y-31200000D03*
X5075022Y-30917992D03*
G04 #@! TO.N,/CONN_IN+*
X21850032Y-3900000D03*
G04 #@! TO.N,/CONN_IN-*
X6149952Y-3900000D03*
G04 #@! TO.N,Net-(C1-Pad2)*
X15109998Y-8930000D03*
X21350000Y-24150000D03*
G04 #@! TO.N,GNDA*
X22600000Y-6300000D03*
X5400000Y-6400000D03*
X5100000Y-18500000D03*
X22900000Y-18500000D03*
X18600010Y-24469549D03*
X8200000Y-8100000D03*
X19150000Y-8150000D03*
X25637500Y-31012500D03*
X25650000Y-32500000D03*
X17300000Y-26450000D03*
X13900487Y-11250000D03*
X22300000Y-35899998D03*
X24800000Y-22600000D03*
X14000002Y-7700002D03*
G04 #@! TO.N,Net-(C11-Pad1)*
X13075461Y-10898645D03*
X7800000Y-8999992D03*
X24987500Y-25800000D03*
G04 #@! TD*
D19*
G04 #@! TO.N,GND*
X5700000Y-28500000D02*
X6300000Y-28500000D01*
X6300000Y-28500000D02*
X6900000Y-28500000D01*
X6900000Y-28500000D02*
X7500000Y-28500000D01*
X7500000Y-28500000D02*
X8100000Y-28500000D01*
X8100000Y-28500000D02*
X8100000Y-29300000D01*
X8100000Y-29300000D02*
X7500000Y-29300000D01*
X7500000Y-29300000D02*
X6900000Y-29300000D01*
X6900000Y-29300000D02*
X6300000Y-29300000D01*
X6300000Y-29300000D02*
X5700000Y-29300000D01*
G04 #@! TO.N,+6V*
X10600000Y-21400000D02*
X10000000Y-22000000D01*
X11300000Y-21400000D02*
X10600000Y-21400000D01*
G04 #@! TO.N,-6V*
X22300001Y-21200001D02*
X22600000Y-21500000D01*
X17000000Y-21200000D02*
X22300001Y-21200001D01*
X9800000Y-12100000D02*
X9200000Y-12100000D01*
X9200000Y-12700000D02*
X9800000Y-12700000D01*
X10400000Y-12700000D02*
X11000000Y-12700000D01*
X17600000Y-12250000D02*
X18200000Y-12250000D01*
X18800000Y-12275002D02*
X18800000Y-12850000D01*
X18200000Y-12850000D02*
X17600000Y-12850000D01*
X17000000Y-12850000D02*
X16400000Y-12850000D01*
X16400000Y-12250000D02*
X17000000Y-12250000D01*
X11600000Y-12700000D02*
X11600000Y-12100000D01*
X9200000Y-13300000D02*
X9800000Y-13300000D01*
X10400000Y-13300000D02*
X11000000Y-13300000D01*
X16400000Y-13450000D02*
X17000000Y-13450000D01*
X17600000Y-13450000D02*
X18200000Y-13450000D01*
X20050000Y-28350000D02*
X20050000Y-28950000D01*
X20050000Y-28950000D02*
X20050000Y-29550000D01*
X19450000Y-29550000D02*
X18850000Y-29550000D01*
X19750000Y-27450000D02*
X19150000Y-27450000D01*
X18550000Y-27450000D02*
X18550000Y-26850000D01*
X19150000Y-26850000D02*
X19750000Y-26850000D01*
X23100000Y-28350000D02*
X23100000Y-28950000D01*
G04 #@! TO.N,+5V*
X14000000Y-31400000D02*
X14100000Y-31300000D01*
X14000000Y-32000000D02*
X14000000Y-31400000D01*
X14100000Y-31300000D02*
X12400000Y-31300000D01*
X15600000Y-31300000D02*
X14100000Y-31300000D01*
G04 #@! TO.N,GNDA*
X14000000Y-25000000D02*
X14000000Y-24200000D01*
X14000000Y-24200000D02*
X12900000Y-24200000D01*
X15100000Y-24200000D02*
X14000000Y-24200000D01*
G04 #@! TD*
D20*
G04 #@! TO.N,-6V*
X26472559Y-34603087D02*
X26450137Y-35002386D01*
X26354262Y-35375413D01*
X26187761Y-35722709D01*
X25956971Y-36031055D01*
X25670689Y-36288697D01*
X25339812Y-36485830D01*
X24976949Y-36614939D01*
X24584041Y-36672861D01*
X24496049Y-36675000D01*
X20764090Y-36675000D01*
X20929911Y-36564202D01*
X21264202Y-36229911D01*
X21524128Y-35840903D01*
X21700000Y-35840903D01*
X21700000Y-35959093D01*
X21723058Y-36075012D01*
X21768287Y-36184205D01*
X21833950Y-36282476D01*
X21917522Y-36366048D01*
X22015793Y-36431711D01*
X22124986Y-36476940D01*
X22240905Y-36499998D01*
X22359095Y-36499998D01*
X22475014Y-36476940D01*
X22584207Y-36431711D01*
X22682478Y-36366048D01*
X22766050Y-36282476D01*
X22831713Y-36184205D01*
X22876942Y-36075012D01*
X22900000Y-35959093D01*
X22900000Y-35840903D01*
X22876942Y-35724984D01*
X22831713Y-35615791D01*
X22766050Y-35517520D01*
X22682478Y-35433948D01*
X22584207Y-35368285D01*
X22475014Y-35323056D01*
X22359095Y-35299998D01*
X22240905Y-35299998D01*
X22124986Y-35323056D01*
X22015793Y-35368285D01*
X21917522Y-35433948D01*
X21833950Y-35517520D01*
X21768287Y-35615791D01*
X21723058Y-35724984D01*
X21700000Y-35840903D01*
X21524128Y-35840903D01*
X21526853Y-35836826D01*
X21707770Y-35400054D01*
X21800000Y-34936379D01*
X21800000Y-34463621D01*
X21707770Y-33999946D01*
X21526853Y-33563174D01*
X21511974Y-33540905D01*
X21800000Y-33540905D01*
X21800000Y-33659095D01*
X21823058Y-33775014D01*
X21868287Y-33884207D01*
X21933950Y-33982478D01*
X22017522Y-34066050D01*
X22115793Y-34131713D01*
X22224986Y-34176942D01*
X22340905Y-34200000D01*
X22459095Y-34200000D01*
X22575014Y-34176942D01*
X22684207Y-34131713D01*
X22782478Y-34066050D01*
X22866050Y-33982478D01*
X22931713Y-33884207D01*
X22976942Y-33775014D01*
X23000000Y-33659095D01*
X23000000Y-33540905D01*
X22976942Y-33424986D01*
X22931713Y-33315793D01*
X22866050Y-33217522D01*
X22782478Y-33133950D01*
X22684207Y-33068287D01*
X22575014Y-33023058D01*
X22459095Y-33000000D01*
X22340905Y-33000000D01*
X22224986Y-33023058D01*
X22115793Y-33068287D01*
X22017522Y-33133950D01*
X21933950Y-33217522D01*
X21868287Y-33315793D01*
X21823058Y-33424986D01*
X21800000Y-33540905D01*
X21511974Y-33540905D01*
X21264202Y-33170089D01*
X20929911Y-32835798D01*
X20536826Y-32573147D01*
X20217566Y-32440905D01*
X25050000Y-32440905D01*
X25050000Y-32559095D01*
X25073058Y-32675014D01*
X25118287Y-32784207D01*
X25183950Y-32882478D01*
X25267522Y-32966050D01*
X25365793Y-33031713D01*
X25474986Y-33076942D01*
X25590905Y-33100000D01*
X25709095Y-33100000D01*
X25825014Y-33076942D01*
X25934207Y-33031713D01*
X26032478Y-32966050D01*
X26116050Y-32882478D01*
X26181713Y-32784207D01*
X26226942Y-32675014D01*
X26250000Y-32559095D01*
X26250000Y-32440905D01*
X26226942Y-32324986D01*
X26181713Y-32215793D01*
X26116050Y-32117522D01*
X26032478Y-32033950D01*
X25934207Y-31968287D01*
X25825014Y-31923058D01*
X25709095Y-31900000D01*
X25590905Y-31900000D01*
X25474986Y-31923058D01*
X25365793Y-31968287D01*
X25267522Y-32033950D01*
X25183950Y-32117522D01*
X25118287Y-32215793D01*
X25073058Y-32324986D01*
X25050000Y-32440905D01*
X20217566Y-32440905D01*
X20100054Y-32392230D01*
X19636379Y-32300000D01*
X19163621Y-32300000D01*
X18699946Y-32392230D01*
X18263174Y-32573147D01*
X17870089Y-32835798D01*
X17535798Y-33170089D01*
X17273147Y-33563174D01*
X17092230Y-33999946D01*
X17000000Y-34463621D01*
X17000000Y-34936379D01*
X17092230Y-35400054D01*
X17273147Y-35836826D01*
X17535798Y-36229911D01*
X17870089Y-36564202D01*
X18035910Y-36675000D01*
X16100000Y-36675000D01*
X16100000Y-35831669D01*
X16131713Y-35784207D01*
X16176942Y-35675014D01*
X16200000Y-35559095D01*
X16200000Y-35440905D01*
X16176942Y-35324986D01*
X16131713Y-35215793D01*
X16100000Y-35168331D01*
X16100000Y-33731669D01*
X16131713Y-33684207D01*
X16176942Y-33575014D01*
X16200000Y-33459095D01*
X16200000Y-33340905D01*
X16176942Y-33224986D01*
X16131713Y-33115793D01*
X16100000Y-33068331D01*
X16100000Y-31631669D01*
X16131713Y-31584207D01*
X16176942Y-31475014D01*
X16200000Y-31359095D01*
X16200000Y-31240905D01*
X16190414Y-31192713D01*
X21598192Y-31192713D01*
X21598192Y-31310903D01*
X21621250Y-31426822D01*
X21666479Y-31536015D01*
X21732142Y-31634286D01*
X21815714Y-31717858D01*
X21913985Y-31783521D01*
X22023178Y-31828750D01*
X22139097Y-31851808D01*
X22257287Y-31851808D01*
X22373206Y-31828750D01*
X22482399Y-31783521D01*
X22580670Y-31717858D01*
X22664242Y-31634286D01*
X22729905Y-31536015D01*
X22775134Y-31426822D01*
X22798192Y-31310903D01*
X22798192Y-31192713D01*
X22775134Y-31076794D01*
X22729905Y-30967601D01*
X22720420Y-30953405D01*
X25037500Y-30953405D01*
X25037500Y-31071595D01*
X25060558Y-31187514D01*
X25105787Y-31296707D01*
X25171450Y-31394978D01*
X25255022Y-31478550D01*
X25353293Y-31544213D01*
X25462486Y-31589442D01*
X25578405Y-31612500D01*
X25696595Y-31612500D01*
X25812514Y-31589442D01*
X25921707Y-31544213D01*
X26019978Y-31478550D01*
X26103550Y-31394978D01*
X26169213Y-31296707D01*
X26214442Y-31187514D01*
X26237500Y-31071595D01*
X26237500Y-30953405D01*
X26214442Y-30837486D01*
X26169213Y-30728293D01*
X26103550Y-30630022D01*
X26019978Y-30546450D01*
X25921707Y-30480787D01*
X25812514Y-30435558D01*
X25696595Y-30412500D01*
X25578405Y-30412500D01*
X25462486Y-30435558D01*
X25353293Y-30480787D01*
X25255022Y-30546450D01*
X25171450Y-30630022D01*
X25105787Y-30728293D01*
X25060558Y-30837486D01*
X25037500Y-30953405D01*
X22720420Y-30953405D01*
X22664242Y-30869330D01*
X22580670Y-30785758D01*
X22482399Y-30720095D01*
X22373206Y-30674866D01*
X22257287Y-30651808D01*
X22139097Y-30651808D01*
X22023178Y-30674866D01*
X21913985Y-30720095D01*
X21815714Y-30785758D01*
X21732142Y-30869330D01*
X21666479Y-30967601D01*
X21621250Y-31076794D01*
X21598192Y-31192713D01*
X16190414Y-31192713D01*
X16176942Y-31124986D01*
X16131713Y-31015793D01*
X16100000Y-30968331D01*
X16100000Y-26390905D01*
X16700000Y-26390905D01*
X16700000Y-26509095D01*
X16723058Y-26625014D01*
X16768287Y-26734207D01*
X16833950Y-26832478D01*
X16917522Y-26916050D01*
X17015793Y-26981713D01*
X17124986Y-27026942D01*
X17240905Y-27050000D01*
X17359095Y-27050000D01*
X17475014Y-27026942D01*
X17584207Y-26981713D01*
X17682478Y-26916050D01*
X17766050Y-26832478D01*
X17831713Y-26734207D01*
X17876942Y-26625014D01*
X17900000Y-26509095D01*
X17900000Y-26390905D01*
X17876942Y-26274986D01*
X17831713Y-26165793D01*
X17766050Y-26067522D01*
X17682478Y-25983950D01*
X17584207Y-25918287D01*
X17475014Y-25873058D01*
X17359095Y-25850000D01*
X17240905Y-25850000D01*
X17124986Y-25873058D01*
X17015793Y-25918287D01*
X16917522Y-25983950D01*
X16833950Y-26067522D01*
X16768287Y-26165793D01*
X16723058Y-26274986D01*
X16700000Y-26390905D01*
X16100000Y-26390905D01*
X16100000Y-25740905D01*
X24387500Y-25740905D01*
X24387500Y-25859095D01*
X24410558Y-25975014D01*
X24455787Y-26084207D01*
X24521450Y-26182478D01*
X24605022Y-26266050D01*
X24703293Y-26331713D01*
X24812486Y-26376942D01*
X24928405Y-26400000D01*
X25046595Y-26400000D01*
X25162514Y-26376942D01*
X25271707Y-26331713D01*
X25369978Y-26266050D01*
X25453550Y-26182478D01*
X25519213Y-26084207D01*
X25564442Y-25975014D01*
X25587500Y-25859095D01*
X25587500Y-25740905D01*
X25564442Y-25624986D01*
X25519213Y-25515793D01*
X25453550Y-25417522D01*
X25369978Y-25333950D01*
X25271707Y-25268287D01*
X25162514Y-25223058D01*
X25046595Y-25200000D01*
X24928405Y-25200000D01*
X24812486Y-25223058D01*
X24703293Y-25268287D01*
X24605022Y-25333950D01*
X24521450Y-25417522D01*
X24455787Y-25515793D01*
X24410558Y-25624986D01*
X24387500Y-25740905D01*
X16100000Y-25740905D01*
X16100000Y-24410454D01*
X18000010Y-24410454D01*
X18000010Y-24528644D01*
X18023068Y-24644563D01*
X18068297Y-24753756D01*
X18133960Y-24852027D01*
X18217532Y-24935599D01*
X18315803Y-25001262D01*
X18424996Y-25046491D01*
X18540915Y-25069549D01*
X18659105Y-25069549D01*
X18775024Y-25046491D01*
X18884217Y-25001262D01*
X18982488Y-24935599D01*
X19066060Y-24852027D01*
X19131723Y-24753756D01*
X19176952Y-24644563D01*
X19200010Y-24528644D01*
X19200010Y-24410454D01*
X19176952Y-24294535D01*
X19131723Y-24185342D01*
X19068622Y-24090905D01*
X20750000Y-24090905D01*
X20750000Y-24209095D01*
X20773058Y-24325014D01*
X20818287Y-24434207D01*
X20883950Y-24532478D01*
X20967522Y-24616050D01*
X21065793Y-24681713D01*
X21174986Y-24726942D01*
X21290905Y-24750000D01*
X21409095Y-24750000D01*
X21525014Y-24726942D01*
X21634207Y-24681713D01*
X21732478Y-24616050D01*
X21816050Y-24532478D01*
X21881713Y-24434207D01*
X21926942Y-24325014D01*
X21950000Y-24209095D01*
X21950000Y-24090905D01*
X21926942Y-23974986D01*
X21881713Y-23865793D01*
X21816050Y-23767522D01*
X21732478Y-23683950D01*
X21634207Y-23618287D01*
X21525014Y-23573058D01*
X21409095Y-23550000D01*
X21290905Y-23550000D01*
X21174986Y-23573058D01*
X21065793Y-23618287D01*
X20967522Y-23683950D01*
X20883950Y-23767522D01*
X20818287Y-23865793D01*
X20773058Y-23974986D01*
X20750000Y-24090905D01*
X19068622Y-24090905D01*
X19066060Y-24087071D01*
X18982488Y-24003499D01*
X18884217Y-23937836D01*
X18775024Y-23892607D01*
X18659105Y-23869549D01*
X18540915Y-23869549D01*
X18424996Y-23892607D01*
X18315803Y-23937836D01*
X18217532Y-24003499D01*
X18133960Y-24087071D01*
X18068297Y-24185342D01*
X18023068Y-24294535D01*
X18000010Y-24410454D01*
X16100000Y-24410454D01*
X16100000Y-22540905D01*
X24200000Y-22540905D01*
X24200000Y-22659095D01*
X24223058Y-22775014D01*
X24268287Y-22884207D01*
X24333950Y-22982478D01*
X24417522Y-23066050D01*
X24515793Y-23131713D01*
X24624986Y-23176942D01*
X24740905Y-23200000D01*
X24859095Y-23200000D01*
X24975014Y-23176942D01*
X25084207Y-23131713D01*
X25182478Y-23066050D01*
X25266050Y-22982478D01*
X25331713Y-22884207D01*
X25376942Y-22775014D01*
X25400000Y-22659095D01*
X25400000Y-22540905D01*
X25376942Y-22424986D01*
X25331713Y-22315793D01*
X25266050Y-22217522D01*
X25182478Y-22133950D01*
X25084207Y-22068287D01*
X24975014Y-22023058D01*
X24859095Y-22000000D01*
X24740905Y-22000000D01*
X24624986Y-22023058D01*
X24515793Y-22068287D01*
X24417522Y-22133950D01*
X24333950Y-22217522D01*
X24268287Y-22315793D01*
X24223058Y-22424986D01*
X24200000Y-22540905D01*
X16100000Y-22540905D01*
X16100000Y-21590905D01*
X23400000Y-21590905D01*
X23400000Y-21709095D01*
X23423058Y-21825014D01*
X23468287Y-21934207D01*
X23533950Y-22032478D01*
X23617522Y-22116050D01*
X23715793Y-22181713D01*
X23824986Y-22226942D01*
X23940905Y-22250000D01*
X24059095Y-22250000D01*
X24175014Y-22226942D01*
X24284207Y-22181713D01*
X24382478Y-22116050D01*
X24466050Y-22032478D01*
X24531713Y-21934207D01*
X24576942Y-21825014D01*
X24600000Y-21709095D01*
X24600000Y-21590905D01*
X24576942Y-21474986D01*
X24531713Y-21365793D01*
X24466050Y-21267522D01*
X24382478Y-21183950D01*
X24284207Y-21118287D01*
X24175014Y-21073058D01*
X24059095Y-21050000D01*
X23940905Y-21050000D01*
X23824986Y-21073058D01*
X23715793Y-21118287D01*
X23617522Y-21183950D01*
X23533950Y-21267522D01*
X23468287Y-21365793D01*
X23423058Y-21474986D01*
X23400000Y-21590905D01*
X16100000Y-21590905D01*
X16100000Y-20600000D01*
X25787142Y-20600000D01*
X26472559Y-34603087D01*
G04 #@! TA.AperFunction,Conductor*
D21*
G36*
X26472559Y-34603087D02*
G01*
X26450137Y-35002386D01*
X26354262Y-35375413D01*
X26187761Y-35722709D01*
X25956971Y-36031055D01*
X25670689Y-36288697D01*
X25339812Y-36485830D01*
X24976949Y-36614939D01*
X24584041Y-36672861D01*
X24496049Y-36675000D01*
X20764090Y-36675000D01*
X20929911Y-36564202D01*
X21264202Y-36229911D01*
X21524128Y-35840903D01*
X21700000Y-35840903D01*
X21700000Y-35959093D01*
X21723058Y-36075012D01*
X21768287Y-36184205D01*
X21833950Y-36282476D01*
X21917522Y-36366048D01*
X22015793Y-36431711D01*
X22124986Y-36476940D01*
X22240905Y-36499998D01*
X22359095Y-36499998D01*
X22475014Y-36476940D01*
X22584207Y-36431711D01*
X22682478Y-36366048D01*
X22766050Y-36282476D01*
X22831713Y-36184205D01*
X22876942Y-36075012D01*
X22900000Y-35959093D01*
X22900000Y-35840903D01*
X22876942Y-35724984D01*
X22831713Y-35615791D01*
X22766050Y-35517520D01*
X22682478Y-35433948D01*
X22584207Y-35368285D01*
X22475014Y-35323056D01*
X22359095Y-35299998D01*
X22240905Y-35299998D01*
X22124986Y-35323056D01*
X22015793Y-35368285D01*
X21917522Y-35433948D01*
X21833950Y-35517520D01*
X21768287Y-35615791D01*
X21723058Y-35724984D01*
X21700000Y-35840903D01*
X21524128Y-35840903D01*
X21526853Y-35836826D01*
X21707770Y-35400054D01*
X21800000Y-34936379D01*
X21800000Y-34463621D01*
X21707770Y-33999946D01*
X21526853Y-33563174D01*
X21511974Y-33540905D01*
X21800000Y-33540905D01*
X21800000Y-33659095D01*
X21823058Y-33775014D01*
X21868287Y-33884207D01*
X21933950Y-33982478D01*
X22017522Y-34066050D01*
X22115793Y-34131713D01*
X22224986Y-34176942D01*
X22340905Y-34200000D01*
X22459095Y-34200000D01*
X22575014Y-34176942D01*
X22684207Y-34131713D01*
X22782478Y-34066050D01*
X22866050Y-33982478D01*
X22931713Y-33884207D01*
X22976942Y-33775014D01*
X23000000Y-33659095D01*
X23000000Y-33540905D01*
X22976942Y-33424986D01*
X22931713Y-33315793D01*
X22866050Y-33217522D01*
X22782478Y-33133950D01*
X22684207Y-33068287D01*
X22575014Y-33023058D01*
X22459095Y-33000000D01*
X22340905Y-33000000D01*
X22224986Y-33023058D01*
X22115793Y-33068287D01*
X22017522Y-33133950D01*
X21933950Y-33217522D01*
X21868287Y-33315793D01*
X21823058Y-33424986D01*
X21800000Y-33540905D01*
X21511974Y-33540905D01*
X21264202Y-33170089D01*
X20929911Y-32835798D01*
X20536826Y-32573147D01*
X20217566Y-32440905D01*
X25050000Y-32440905D01*
X25050000Y-32559095D01*
X25073058Y-32675014D01*
X25118287Y-32784207D01*
X25183950Y-32882478D01*
X25267522Y-32966050D01*
X25365793Y-33031713D01*
X25474986Y-33076942D01*
X25590905Y-33100000D01*
X25709095Y-33100000D01*
X25825014Y-33076942D01*
X25934207Y-33031713D01*
X26032478Y-32966050D01*
X26116050Y-32882478D01*
X26181713Y-32784207D01*
X26226942Y-32675014D01*
X26250000Y-32559095D01*
X26250000Y-32440905D01*
X26226942Y-32324986D01*
X26181713Y-32215793D01*
X26116050Y-32117522D01*
X26032478Y-32033950D01*
X25934207Y-31968287D01*
X25825014Y-31923058D01*
X25709095Y-31900000D01*
X25590905Y-31900000D01*
X25474986Y-31923058D01*
X25365793Y-31968287D01*
X25267522Y-32033950D01*
X25183950Y-32117522D01*
X25118287Y-32215793D01*
X25073058Y-32324986D01*
X25050000Y-32440905D01*
X20217566Y-32440905D01*
X20100054Y-32392230D01*
X19636379Y-32300000D01*
X19163621Y-32300000D01*
X18699946Y-32392230D01*
X18263174Y-32573147D01*
X17870089Y-32835798D01*
X17535798Y-33170089D01*
X17273147Y-33563174D01*
X17092230Y-33999946D01*
X17000000Y-34463621D01*
X17000000Y-34936379D01*
X17092230Y-35400054D01*
X17273147Y-35836826D01*
X17535798Y-36229911D01*
X17870089Y-36564202D01*
X18035910Y-36675000D01*
X16100000Y-36675000D01*
X16100000Y-35831669D01*
X16131713Y-35784207D01*
X16176942Y-35675014D01*
X16200000Y-35559095D01*
X16200000Y-35440905D01*
X16176942Y-35324986D01*
X16131713Y-35215793D01*
X16100000Y-35168331D01*
X16100000Y-33731669D01*
X16131713Y-33684207D01*
X16176942Y-33575014D01*
X16200000Y-33459095D01*
X16200000Y-33340905D01*
X16176942Y-33224986D01*
X16131713Y-33115793D01*
X16100000Y-33068331D01*
X16100000Y-31631669D01*
X16131713Y-31584207D01*
X16176942Y-31475014D01*
X16200000Y-31359095D01*
X16200000Y-31240905D01*
X16190414Y-31192713D01*
X21598192Y-31192713D01*
X21598192Y-31310903D01*
X21621250Y-31426822D01*
X21666479Y-31536015D01*
X21732142Y-31634286D01*
X21815714Y-31717858D01*
X21913985Y-31783521D01*
X22023178Y-31828750D01*
X22139097Y-31851808D01*
X22257287Y-31851808D01*
X22373206Y-31828750D01*
X22482399Y-31783521D01*
X22580670Y-31717858D01*
X22664242Y-31634286D01*
X22729905Y-31536015D01*
X22775134Y-31426822D01*
X22798192Y-31310903D01*
X22798192Y-31192713D01*
X22775134Y-31076794D01*
X22729905Y-30967601D01*
X22720420Y-30953405D01*
X25037500Y-30953405D01*
X25037500Y-31071595D01*
X25060558Y-31187514D01*
X25105787Y-31296707D01*
X25171450Y-31394978D01*
X25255022Y-31478550D01*
X25353293Y-31544213D01*
X25462486Y-31589442D01*
X25578405Y-31612500D01*
X25696595Y-31612500D01*
X25812514Y-31589442D01*
X25921707Y-31544213D01*
X26019978Y-31478550D01*
X26103550Y-31394978D01*
X26169213Y-31296707D01*
X26214442Y-31187514D01*
X26237500Y-31071595D01*
X26237500Y-30953405D01*
X26214442Y-30837486D01*
X26169213Y-30728293D01*
X26103550Y-30630022D01*
X26019978Y-30546450D01*
X25921707Y-30480787D01*
X25812514Y-30435558D01*
X25696595Y-30412500D01*
X25578405Y-30412500D01*
X25462486Y-30435558D01*
X25353293Y-30480787D01*
X25255022Y-30546450D01*
X25171450Y-30630022D01*
X25105787Y-30728293D01*
X25060558Y-30837486D01*
X25037500Y-30953405D01*
X22720420Y-30953405D01*
X22664242Y-30869330D01*
X22580670Y-30785758D01*
X22482399Y-30720095D01*
X22373206Y-30674866D01*
X22257287Y-30651808D01*
X22139097Y-30651808D01*
X22023178Y-30674866D01*
X21913985Y-30720095D01*
X21815714Y-30785758D01*
X21732142Y-30869330D01*
X21666479Y-30967601D01*
X21621250Y-31076794D01*
X21598192Y-31192713D01*
X16190414Y-31192713D01*
X16176942Y-31124986D01*
X16131713Y-31015793D01*
X16100000Y-30968331D01*
X16100000Y-26390905D01*
X16700000Y-26390905D01*
X16700000Y-26509095D01*
X16723058Y-26625014D01*
X16768287Y-26734207D01*
X16833950Y-26832478D01*
X16917522Y-26916050D01*
X17015793Y-26981713D01*
X17124986Y-27026942D01*
X17240905Y-27050000D01*
X17359095Y-27050000D01*
X17475014Y-27026942D01*
X17584207Y-26981713D01*
X17682478Y-26916050D01*
X17766050Y-26832478D01*
X17831713Y-26734207D01*
X17876942Y-26625014D01*
X17900000Y-26509095D01*
X17900000Y-26390905D01*
X17876942Y-26274986D01*
X17831713Y-26165793D01*
X17766050Y-26067522D01*
X17682478Y-25983950D01*
X17584207Y-25918287D01*
X17475014Y-25873058D01*
X17359095Y-25850000D01*
X17240905Y-25850000D01*
X17124986Y-25873058D01*
X17015793Y-25918287D01*
X16917522Y-25983950D01*
X16833950Y-26067522D01*
X16768287Y-26165793D01*
X16723058Y-26274986D01*
X16700000Y-26390905D01*
X16100000Y-26390905D01*
X16100000Y-25740905D01*
X24387500Y-25740905D01*
X24387500Y-25859095D01*
X24410558Y-25975014D01*
X24455787Y-26084207D01*
X24521450Y-26182478D01*
X24605022Y-26266050D01*
X24703293Y-26331713D01*
X24812486Y-26376942D01*
X24928405Y-26400000D01*
X25046595Y-26400000D01*
X25162514Y-26376942D01*
X25271707Y-26331713D01*
X25369978Y-26266050D01*
X25453550Y-26182478D01*
X25519213Y-26084207D01*
X25564442Y-25975014D01*
X25587500Y-25859095D01*
X25587500Y-25740905D01*
X25564442Y-25624986D01*
X25519213Y-25515793D01*
X25453550Y-25417522D01*
X25369978Y-25333950D01*
X25271707Y-25268287D01*
X25162514Y-25223058D01*
X25046595Y-25200000D01*
X24928405Y-25200000D01*
X24812486Y-25223058D01*
X24703293Y-25268287D01*
X24605022Y-25333950D01*
X24521450Y-25417522D01*
X24455787Y-25515793D01*
X24410558Y-25624986D01*
X24387500Y-25740905D01*
X16100000Y-25740905D01*
X16100000Y-24410454D01*
X18000010Y-24410454D01*
X18000010Y-24528644D01*
X18023068Y-24644563D01*
X18068297Y-24753756D01*
X18133960Y-24852027D01*
X18217532Y-24935599D01*
X18315803Y-25001262D01*
X18424996Y-25046491D01*
X18540915Y-25069549D01*
X18659105Y-25069549D01*
X18775024Y-25046491D01*
X18884217Y-25001262D01*
X18982488Y-24935599D01*
X19066060Y-24852027D01*
X19131723Y-24753756D01*
X19176952Y-24644563D01*
X19200010Y-24528644D01*
X19200010Y-24410454D01*
X19176952Y-24294535D01*
X19131723Y-24185342D01*
X19068622Y-24090905D01*
X20750000Y-24090905D01*
X20750000Y-24209095D01*
X20773058Y-24325014D01*
X20818287Y-24434207D01*
X20883950Y-24532478D01*
X20967522Y-24616050D01*
X21065793Y-24681713D01*
X21174986Y-24726942D01*
X21290905Y-24750000D01*
X21409095Y-24750000D01*
X21525014Y-24726942D01*
X21634207Y-24681713D01*
X21732478Y-24616050D01*
X21816050Y-24532478D01*
X21881713Y-24434207D01*
X21926942Y-24325014D01*
X21950000Y-24209095D01*
X21950000Y-24090905D01*
X21926942Y-23974986D01*
X21881713Y-23865793D01*
X21816050Y-23767522D01*
X21732478Y-23683950D01*
X21634207Y-23618287D01*
X21525014Y-23573058D01*
X21409095Y-23550000D01*
X21290905Y-23550000D01*
X21174986Y-23573058D01*
X21065793Y-23618287D01*
X20967522Y-23683950D01*
X20883950Y-23767522D01*
X20818287Y-23865793D01*
X20773058Y-23974986D01*
X20750000Y-24090905D01*
X19068622Y-24090905D01*
X19066060Y-24087071D01*
X18982488Y-24003499D01*
X18884217Y-23937836D01*
X18775024Y-23892607D01*
X18659105Y-23869549D01*
X18540915Y-23869549D01*
X18424996Y-23892607D01*
X18315803Y-23937836D01*
X18217532Y-24003499D01*
X18133960Y-24087071D01*
X18068297Y-24185342D01*
X18023068Y-24294535D01*
X18000010Y-24410454D01*
X16100000Y-24410454D01*
X16100000Y-22540905D01*
X24200000Y-22540905D01*
X24200000Y-22659095D01*
X24223058Y-22775014D01*
X24268287Y-22884207D01*
X24333950Y-22982478D01*
X24417522Y-23066050D01*
X24515793Y-23131713D01*
X24624986Y-23176942D01*
X24740905Y-23200000D01*
X24859095Y-23200000D01*
X24975014Y-23176942D01*
X25084207Y-23131713D01*
X25182478Y-23066050D01*
X25266050Y-22982478D01*
X25331713Y-22884207D01*
X25376942Y-22775014D01*
X25400000Y-22659095D01*
X25400000Y-22540905D01*
X25376942Y-22424986D01*
X25331713Y-22315793D01*
X25266050Y-22217522D01*
X25182478Y-22133950D01*
X25084207Y-22068287D01*
X24975014Y-22023058D01*
X24859095Y-22000000D01*
X24740905Y-22000000D01*
X24624986Y-22023058D01*
X24515793Y-22068287D01*
X24417522Y-22133950D01*
X24333950Y-22217522D01*
X24268287Y-22315793D01*
X24223058Y-22424986D01*
X24200000Y-22540905D01*
X16100000Y-22540905D01*
X16100000Y-21590905D01*
X23400000Y-21590905D01*
X23400000Y-21709095D01*
X23423058Y-21825014D01*
X23468287Y-21934207D01*
X23533950Y-22032478D01*
X23617522Y-22116050D01*
X23715793Y-22181713D01*
X23824986Y-22226942D01*
X23940905Y-22250000D01*
X24059095Y-22250000D01*
X24175014Y-22226942D01*
X24284207Y-22181713D01*
X24382478Y-22116050D01*
X24466050Y-22032478D01*
X24531713Y-21934207D01*
X24576942Y-21825014D01*
X24600000Y-21709095D01*
X24600000Y-21590905D01*
X24576942Y-21474986D01*
X24531713Y-21365793D01*
X24466050Y-21267522D01*
X24382478Y-21183950D01*
X24284207Y-21118287D01*
X24175014Y-21073058D01*
X24059095Y-21050000D01*
X23940905Y-21050000D01*
X23824986Y-21073058D01*
X23715793Y-21118287D01*
X23617522Y-21183950D01*
X23533950Y-21267522D01*
X23468287Y-21365793D01*
X23423058Y-21474986D01*
X23400000Y-21590905D01*
X16100000Y-21590905D01*
X16100000Y-20600000D01*
X25787142Y-20600000D01*
X26472559Y-34603087D01*
G37*
G04 #@! TD.AperFunction*
G04 #@! TD*
D20*
G04 #@! TO.N,GND*
X8450000Y-22152662D02*
X8509565Y-22452118D01*
X8626408Y-22734200D01*
X8796036Y-22988068D01*
X9011932Y-23203964D01*
X9265800Y-23373592D01*
X9547882Y-23490435D01*
X9847338Y-23550000D01*
X10152662Y-23550000D01*
X10452118Y-23490435D01*
X10734200Y-23373592D01*
X10988068Y-23203964D01*
X11203964Y-22988068D01*
X11373592Y-22734200D01*
X11400000Y-22670446D01*
X11400000Y-36675000D01*
X3515896Y-36675000D01*
X3116690Y-36635858D01*
X2747981Y-36524538D01*
X2407913Y-36343721D01*
X2109445Y-36100297D01*
X1863945Y-35803538D01*
X1680758Y-35464740D01*
X1566866Y-35096819D01*
X1525351Y-34701830D01*
X1525891Y-34670671D01*
X4109169Y-34670671D01*
X4109169Y-34788861D01*
X4132227Y-34904780D01*
X4177456Y-35013973D01*
X4243119Y-35112244D01*
X4326691Y-35195816D01*
X4424962Y-35261479D01*
X4534155Y-35306708D01*
X4650074Y-35329766D01*
X4768264Y-35329766D01*
X4884183Y-35306708D01*
X4993376Y-35261479D01*
X5091647Y-35195816D01*
X5175219Y-35112244D01*
X5240882Y-35013973D01*
X5286111Y-34904780D01*
X5309169Y-34788861D01*
X5309169Y-34670671D01*
X5286111Y-34554752D01*
X5240882Y-34445559D01*
X5175219Y-34347288D01*
X5091647Y-34263716D01*
X4993376Y-34198053D01*
X4884183Y-34152824D01*
X4768264Y-34129766D01*
X4650074Y-34129766D01*
X4534155Y-34152824D01*
X4424962Y-34198053D01*
X4326691Y-34263716D01*
X4243119Y-34347288D01*
X4177456Y-34445559D01*
X4132227Y-34554752D01*
X4109169Y-34670671D01*
X1525891Y-34670671D01*
X1526856Y-34615017D01*
X1710708Y-30858897D01*
X4475022Y-30858897D01*
X4475022Y-30977087D01*
X4498080Y-31093006D01*
X4543309Y-31202199D01*
X4608972Y-31300470D01*
X4692544Y-31384042D01*
X4790815Y-31449705D01*
X4900008Y-31494934D01*
X5015927Y-31517992D01*
X5134117Y-31517992D01*
X5250036Y-31494934D01*
X5359229Y-31449705D01*
X5457500Y-31384042D01*
X5541072Y-31300470D01*
X5606735Y-31202199D01*
X5632123Y-31140905D01*
X7800000Y-31140905D01*
X7800000Y-31259095D01*
X7823058Y-31375014D01*
X7868287Y-31484207D01*
X7933950Y-31582478D01*
X8017522Y-31666050D01*
X8115793Y-31731713D01*
X8224986Y-31776942D01*
X8340905Y-31800000D01*
X8459095Y-31800000D01*
X8575014Y-31776942D01*
X8684207Y-31731713D01*
X8782478Y-31666050D01*
X8866050Y-31582478D01*
X8931713Y-31484207D01*
X8976942Y-31375014D01*
X9000000Y-31259095D01*
X9000000Y-31140905D01*
X8976942Y-31024986D01*
X8931713Y-30915793D01*
X8866050Y-30817522D01*
X8782478Y-30733950D01*
X8684207Y-30668287D01*
X8575014Y-30623058D01*
X8459095Y-30600000D01*
X8340905Y-30600000D01*
X8224986Y-30623058D01*
X8115793Y-30668287D01*
X8017522Y-30733950D01*
X7933950Y-30817522D01*
X7868287Y-30915793D01*
X7823058Y-31024986D01*
X7800000Y-31140905D01*
X5632123Y-31140905D01*
X5651964Y-31093006D01*
X5675022Y-30977087D01*
X5675022Y-30858897D01*
X5651964Y-30742978D01*
X5606735Y-30633785D01*
X5541072Y-30535514D01*
X5457500Y-30451942D01*
X5359229Y-30386279D01*
X5250036Y-30341050D01*
X5134117Y-30317992D01*
X5015927Y-30317992D01*
X4900008Y-30341050D01*
X4790815Y-30386279D01*
X4692544Y-30451942D01*
X4608972Y-30535514D01*
X4543309Y-30633785D01*
X4498080Y-30742978D01*
X4475022Y-30858897D01*
X1710708Y-30858897D01*
X1904933Y-26890894D01*
X4400000Y-26890894D01*
X4400000Y-27009084D01*
X4423058Y-27125003D01*
X4468287Y-27234196D01*
X4533950Y-27332467D01*
X4617522Y-27416039D01*
X4715793Y-27481702D01*
X4824986Y-27526931D01*
X4940905Y-27549989D01*
X5059095Y-27549989D01*
X5175014Y-27526931D01*
X5284207Y-27481702D01*
X5382478Y-27416039D01*
X5466050Y-27332467D01*
X5531713Y-27234196D01*
X5576942Y-27125003D01*
X5600000Y-27009084D01*
X5600000Y-26890894D01*
X5576942Y-26774975D01*
X5531713Y-26665782D01*
X5466050Y-26567511D01*
X5382478Y-26483939D01*
X5284207Y-26418276D01*
X5175014Y-26373047D01*
X5059095Y-26349989D01*
X4940905Y-26349989D01*
X4824986Y-26373047D01*
X4715793Y-26418276D01*
X4617522Y-26483939D01*
X4533950Y-26567511D01*
X4468287Y-26665782D01*
X4423058Y-26774975D01*
X4400000Y-26890894D01*
X1904933Y-26890894D01*
X2002521Y-24897155D01*
X8243750Y-24897155D01*
X8243750Y-25015345D01*
X8266808Y-25131264D01*
X8312037Y-25240457D01*
X8377700Y-25338728D01*
X8461272Y-25422300D01*
X8559543Y-25487963D01*
X8668736Y-25533192D01*
X8784655Y-25556250D01*
X8902845Y-25556250D01*
X9018764Y-25533192D01*
X9127957Y-25487963D01*
X9226228Y-25422300D01*
X9309800Y-25338728D01*
X9375463Y-25240457D01*
X9420692Y-25131264D01*
X9443750Y-25015345D01*
X9443750Y-24897155D01*
X9420692Y-24781236D01*
X9375463Y-24672043D01*
X9309800Y-24573772D01*
X9226228Y-24490200D01*
X9127957Y-24424537D01*
X9018764Y-24379308D01*
X8902845Y-24356250D01*
X8784655Y-24356250D01*
X8668736Y-24379308D01*
X8559543Y-24424537D01*
X8461272Y-24490200D01*
X8377700Y-24573772D01*
X8312037Y-24672043D01*
X8266808Y-24781236D01*
X8243750Y-24897155D01*
X2002521Y-24897155D01*
X2139436Y-22100000D01*
X8450000Y-22100000D01*
X8450000Y-22152662D01*
G04 #@! TA.AperFunction,Conductor*
D21*
G36*
X8450000Y-22152662D02*
G01*
X8509565Y-22452118D01*
X8626408Y-22734200D01*
X8796036Y-22988068D01*
X9011932Y-23203964D01*
X9265800Y-23373592D01*
X9547882Y-23490435D01*
X9847338Y-23550000D01*
X10152662Y-23550000D01*
X10452118Y-23490435D01*
X10734200Y-23373592D01*
X10988068Y-23203964D01*
X11203964Y-22988068D01*
X11373592Y-22734200D01*
X11400000Y-22670446D01*
X11400000Y-36675000D01*
X3515896Y-36675000D01*
X3116690Y-36635858D01*
X2747981Y-36524538D01*
X2407913Y-36343721D01*
X2109445Y-36100297D01*
X1863945Y-35803538D01*
X1680758Y-35464740D01*
X1566866Y-35096819D01*
X1525351Y-34701830D01*
X1525891Y-34670671D01*
X4109169Y-34670671D01*
X4109169Y-34788861D01*
X4132227Y-34904780D01*
X4177456Y-35013973D01*
X4243119Y-35112244D01*
X4326691Y-35195816D01*
X4424962Y-35261479D01*
X4534155Y-35306708D01*
X4650074Y-35329766D01*
X4768264Y-35329766D01*
X4884183Y-35306708D01*
X4993376Y-35261479D01*
X5091647Y-35195816D01*
X5175219Y-35112244D01*
X5240882Y-35013973D01*
X5286111Y-34904780D01*
X5309169Y-34788861D01*
X5309169Y-34670671D01*
X5286111Y-34554752D01*
X5240882Y-34445559D01*
X5175219Y-34347288D01*
X5091647Y-34263716D01*
X4993376Y-34198053D01*
X4884183Y-34152824D01*
X4768264Y-34129766D01*
X4650074Y-34129766D01*
X4534155Y-34152824D01*
X4424962Y-34198053D01*
X4326691Y-34263716D01*
X4243119Y-34347288D01*
X4177456Y-34445559D01*
X4132227Y-34554752D01*
X4109169Y-34670671D01*
X1525891Y-34670671D01*
X1526856Y-34615017D01*
X1710708Y-30858897D01*
X4475022Y-30858897D01*
X4475022Y-30977087D01*
X4498080Y-31093006D01*
X4543309Y-31202199D01*
X4608972Y-31300470D01*
X4692544Y-31384042D01*
X4790815Y-31449705D01*
X4900008Y-31494934D01*
X5015927Y-31517992D01*
X5134117Y-31517992D01*
X5250036Y-31494934D01*
X5359229Y-31449705D01*
X5457500Y-31384042D01*
X5541072Y-31300470D01*
X5606735Y-31202199D01*
X5632123Y-31140905D01*
X7800000Y-31140905D01*
X7800000Y-31259095D01*
X7823058Y-31375014D01*
X7868287Y-31484207D01*
X7933950Y-31582478D01*
X8017522Y-31666050D01*
X8115793Y-31731713D01*
X8224986Y-31776942D01*
X8340905Y-31800000D01*
X8459095Y-31800000D01*
X8575014Y-31776942D01*
X8684207Y-31731713D01*
X8782478Y-31666050D01*
X8866050Y-31582478D01*
X8931713Y-31484207D01*
X8976942Y-31375014D01*
X9000000Y-31259095D01*
X9000000Y-31140905D01*
X8976942Y-31024986D01*
X8931713Y-30915793D01*
X8866050Y-30817522D01*
X8782478Y-30733950D01*
X8684207Y-30668287D01*
X8575014Y-30623058D01*
X8459095Y-30600000D01*
X8340905Y-30600000D01*
X8224986Y-30623058D01*
X8115793Y-30668287D01*
X8017522Y-30733950D01*
X7933950Y-30817522D01*
X7868287Y-30915793D01*
X7823058Y-31024986D01*
X7800000Y-31140905D01*
X5632123Y-31140905D01*
X5651964Y-31093006D01*
X5675022Y-30977087D01*
X5675022Y-30858897D01*
X5651964Y-30742978D01*
X5606735Y-30633785D01*
X5541072Y-30535514D01*
X5457500Y-30451942D01*
X5359229Y-30386279D01*
X5250036Y-30341050D01*
X5134117Y-30317992D01*
X5015927Y-30317992D01*
X4900008Y-30341050D01*
X4790815Y-30386279D01*
X4692544Y-30451942D01*
X4608972Y-30535514D01*
X4543309Y-30633785D01*
X4498080Y-30742978D01*
X4475022Y-30858897D01*
X1710708Y-30858897D01*
X1904933Y-26890894D01*
X4400000Y-26890894D01*
X4400000Y-27009084D01*
X4423058Y-27125003D01*
X4468287Y-27234196D01*
X4533950Y-27332467D01*
X4617522Y-27416039D01*
X4715793Y-27481702D01*
X4824986Y-27526931D01*
X4940905Y-27549989D01*
X5059095Y-27549989D01*
X5175014Y-27526931D01*
X5284207Y-27481702D01*
X5382478Y-27416039D01*
X5466050Y-27332467D01*
X5531713Y-27234196D01*
X5576942Y-27125003D01*
X5600000Y-27009084D01*
X5600000Y-26890894D01*
X5576942Y-26774975D01*
X5531713Y-26665782D01*
X5466050Y-26567511D01*
X5382478Y-26483939D01*
X5284207Y-26418276D01*
X5175014Y-26373047D01*
X5059095Y-26349989D01*
X4940905Y-26349989D01*
X4824986Y-26373047D01*
X4715793Y-26418276D01*
X4617522Y-26483939D01*
X4533950Y-26567511D01*
X4468287Y-26665782D01*
X4423058Y-26774975D01*
X4400000Y-26890894D01*
X1904933Y-26890894D01*
X2002521Y-24897155D01*
X8243750Y-24897155D01*
X8243750Y-25015345D01*
X8266808Y-25131264D01*
X8312037Y-25240457D01*
X8377700Y-25338728D01*
X8461272Y-25422300D01*
X8559543Y-25487963D01*
X8668736Y-25533192D01*
X8784655Y-25556250D01*
X8902845Y-25556250D01*
X9018764Y-25533192D01*
X9127957Y-25487963D01*
X9226228Y-25422300D01*
X9309800Y-25338728D01*
X9375463Y-25240457D01*
X9420692Y-25131264D01*
X9443750Y-25015345D01*
X9443750Y-24897155D01*
X9420692Y-24781236D01*
X9375463Y-24672043D01*
X9309800Y-24573772D01*
X9226228Y-24490200D01*
X9127957Y-24424537D01*
X9018764Y-24379308D01*
X8902845Y-24356250D01*
X8784655Y-24356250D01*
X8668736Y-24379308D01*
X8559543Y-24424537D01*
X8461272Y-24490200D01*
X8377700Y-24573772D01*
X8312037Y-24672043D01*
X8266808Y-24781236D01*
X8243750Y-24897155D01*
X2002521Y-24897155D01*
X2139436Y-22100000D01*
X8450000Y-22100000D01*
X8450000Y-22152662D01*
G37*
G04 #@! TD.AperFunction*
G04 #@! TD*
D20*
G04 #@! TO.N,-6V*
X10816313Y-379523D02*
X10579523Y-616313D01*
X10393479Y-894748D01*
X10265330Y-1204128D01*
X10200000Y-1532565D01*
X10200000Y-1867435D01*
X10265330Y-2195872D01*
X10393479Y-2505252D01*
X10579523Y-2783687D01*
X10816313Y-3020477D01*
X11094748Y-3206521D01*
X11404128Y-3334670D01*
X11732565Y-3400000D01*
X12067435Y-3400000D01*
X12395872Y-3334670D01*
X12705252Y-3206521D01*
X12983687Y-3020477D01*
X13220477Y-2783687D01*
X13406521Y-2505252D01*
X13534670Y-2195872D01*
X13600000Y-1867435D01*
X13600000Y-1532565D01*
X13534670Y-1204128D01*
X13406521Y-894748D01*
X13220477Y-616313D01*
X12983687Y-379523D01*
X12902087Y-325000D01*
X15097913Y-325000D01*
X15016313Y-379523D01*
X14779523Y-616313D01*
X14593479Y-894748D01*
X14465330Y-1204128D01*
X14400000Y-1532565D01*
X14400000Y-1867435D01*
X14465330Y-2195872D01*
X14593479Y-2505252D01*
X14779523Y-2783687D01*
X15016313Y-3020477D01*
X15294748Y-3206521D01*
X15604128Y-3334670D01*
X15932565Y-3400000D01*
X16267435Y-3400000D01*
X16595872Y-3334670D01*
X16905252Y-3206521D01*
X17183687Y-3020477D01*
X17420477Y-2783687D01*
X17606521Y-2505252D01*
X17734670Y-2195872D01*
X17800000Y-1867435D01*
X17800000Y-1532565D01*
X17734670Y-1204128D01*
X17606521Y-894748D01*
X17420477Y-616313D01*
X17183687Y-379523D01*
X17102087Y-325000D01*
X19497913Y-325000D01*
X19416313Y-379523D01*
X19179523Y-616313D01*
X18993479Y-894748D01*
X18865330Y-1204128D01*
X18800000Y-1532565D01*
X18800000Y-1867435D01*
X18865330Y-2195872D01*
X18993479Y-2505252D01*
X19179523Y-2783687D01*
X19416313Y-3020477D01*
X19694748Y-3206521D01*
X20004128Y-3334670D01*
X20332565Y-3400000D01*
X20667435Y-3400000D01*
X20995872Y-3334670D01*
X21305252Y-3206521D01*
X21583687Y-3020477D01*
X21820477Y-2783687D01*
X22006521Y-2505252D01*
X22134670Y-2195872D01*
X22200000Y-1867435D01*
X22200000Y-1532565D01*
X22134670Y-1204128D01*
X22051977Y-1004489D01*
X24912503Y-3865016D01*
X24944127Y-3903516D01*
X24960123Y-3933348D01*
X24970019Y-3965717D01*
X24975644Y-4021095D01*
X25259099Y-9812083D01*
X25158889Y-9792150D01*
X25082012Y-9792150D01*
X25068317Y-9791522D01*
X25056334Y-9792150D01*
X25040699Y-9792150D01*
X25035106Y-9793263D01*
X24469139Y-9822924D01*
X24465005Y-9823551D01*
X24441522Y-9823551D01*
X24325603Y-9846609D01*
X24216410Y-9891838D01*
X24118139Y-9957501D01*
X24034567Y-10041073D01*
X23968904Y-10139344D01*
X23923675Y-10248537D01*
X23900617Y-10364456D01*
X23900617Y-10482646D01*
X23923675Y-10598565D01*
X23968904Y-10707758D01*
X24034567Y-10806029D01*
X24118139Y-10889601D01*
X24216410Y-10955264D01*
X24325603Y-11000493D01*
X24441522Y-11023551D01*
X24518422Y-11023551D01*
X24530768Y-11024117D01*
X24531196Y-11026939D01*
X24531196Y-11050422D01*
X24554254Y-11166341D01*
X24599483Y-11275534D01*
X24665146Y-11373805D01*
X24748718Y-11457377D01*
X24846989Y-11523040D01*
X24956182Y-11568269D01*
X25072101Y-11591327D01*
X25190291Y-11591327D01*
X25306210Y-11568269D01*
X25344288Y-11552497D01*
X25396025Y-12609483D01*
X25308889Y-12592150D01*
X25232012Y-12592150D01*
X25218317Y-12591522D01*
X25206334Y-12592150D01*
X25190699Y-12592150D01*
X25185106Y-12593263D01*
X24619139Y-12622924D01*
X24615005Y-12623551D01*
X24591522Y-12623551D01*
X24475603Y-12646609D01*
X24366410Y-12691838D01*
X24268139Y-12757501D01*
X24184567Y-12841073D01*
X24118904Y-12939344D01*
X24073675Y-13048537D01*
X24050617Y-13164456D01*
X24050617Y-13282646D01*
X24073675Y-13398565D01*
X24118904Y-13507758D01*
X24184567Y-13606029D01*
X24268139Y-13689601D01*
X24366410Y-13755264D01*
X24475603Y-13800493D01*
X24591522Y-13823551D01*
X24668422Y-13823551D01*
X24680768Y-13824117D01*
X24681196Y-13826939D01*
X24681196Y-13850422D01*
X24704254Y-13966341D01*
X24749483Y-14075534D01*
X24815146Y-14173805D01*
X24898718Y-14257377D01*
X24996989Y-14323040D01*
X25106182Y-14368269D01*
X25222101Y-14391327D01*
X25340291Y-14391327D01*
X25456210Y-14368269D01*
X25481599Y-14357753D01*
X25752879Y-19900000D01*
X2247121Y-19900000D01*
X2318540Y-18440905D01*
X4500000Y-18440905D01*
X4500000Y-18559095D01*
X4523058Y-18675014D01*
X4568287Y-18784207D01*
X4633950Y-18882478D01*
X4717522Y-18966050D01*
X4815793Y-19031713D01*
X4924986Y-19076942D01*
X5040905Y-19100000D01*
X5159095Y-19100000D01*
X5275014Y-19076942D01*
X5384207Y-19031713D01*
X5482478Y-18966050D01*
X5566050Y-18882478D01*
X5631713Y-18784207D01*
X5676942Y-18675014D01*
X5700000Y-18559095D01*
X5700000Y-18440905D01*
X22300000Y-18440905D01*
X22300000Y-18559095D01*
X22323058Y-18675014D01*
X22368287Y-18784207D01*
X22433950Y-18882478D01*
X22517522Y-18966050D01*
X22615793Y-19031713D01*
X22724986Y-19076942D01*
X22840905Y-19100000D01*
X22959095Y-19100000D01*
X23075014Y-19076942D01*
X23184207Y-19031713D01*
X23282478Y-18966050D01*
X23366050Y-18882478D01*
X23431713Y-18784207D01*
X23476942Y-18675014D01*
X23500000Y-18559095D01*
X23500000Y-18440905D01*
X23476942Y-18324986D01*
X23431713Y-18215793D01*
X23366050Y-18117522D01*
X23282478Y-18033950D01*
X23184207Y-17968287D01*
X23075014Y-17923058D01*
X22959095Y-17900000D01*
X22840905Y-17900000D01*
X22724986Y-17923058D01*
X22615793Y-17968287D01*
X22517522Y-18033950D01*
X22433950Y-18117522D01*
X22368287Y-18215793D01*
X22323058Y-18324986D01*
X22300000Y-18440905D01*
X5700000Y-18440905D01*
X5676942Y-18324986D01*
X5631713Y-18215793D01*
X5566050Y-18117522D01*
X5482478Y-18033950D01*
X5384207Y-17968287D01*
X5275014Y-17923058D01*
X5159095Y-17900000D01*
X5040905Y-17900000D01*
X4924986Y-17923058D01*
X4815793Y-17968287D01*
X4717522Y-18033950D01*
X4633950Y-18117522D01*
X4568287Y-18215793D01*
X4523058Y-18324986D01*
X4500000Y-18440905D01*
X2318540Y-18440905D01*
X2518401Y-14357753D01*
X2543790Y-14368269D01*
X2659709Y-14391327D01*
X2777899Y-14391327D01*
X2893818Y-14368269D01*
X3003011Y-14323040D01*
X3101282Y-14257377D01*
X3184854Y-14173805D01*
X3250517Y-14075534D01*
X3295746Y-13966341D01*
X3318804Y-13850422D01*
X3318804Y-13826939D01*
X3319232Y-13824117D01*
X3331578Y-13823551D01*
X3408478Y-13823551D01*
X3524397Y-13800493D01*
X3633590Y-13755264D01*
X3731861Y-13689601D01*
X3815433Y-13606029D01*
X3881096Y-13507758D01*
X3926325Y-13398565D01*
X3949383Y-13282646D01*
X3949383Y-13164456D01*
X3926325Y-13048537D01*
X3881096Y-12939344D01*
X3815433Y-12841073D01*
X3731861Y-12757501D01*
X3633590Y-12691838D01*
X3524397Y-12646609D01*
X3408478Y-12623551D01*
X3384995Y-12623551D01*
X3380861Y-12622924D01*
X2814894Y-12593263D01*
X2809301Y-12592150D01*
X2793666Y-12592150D01*
X2781683Y-12591522D01*
X2767988Y-12592150D01*
X2691111Y-12592150D01*
X2603975Y-12609483D01*
X2611002Y-12465910D01*
X11900466Y-12465910D01*
X11900466Y-12584100D01*
X11923524Y-12700019D01*
X11968753Y-12809212D01*
X12034416Y-12907483D01*
X12117988Y-12991055D01*
X12216259Y-13056718D01*
X12325452Y-13101947D01*
X12441371Y-13125005D01*
X12559561Y-13125005D01*
X12675480Y-13101947D01*
X12784673Y-13056718D01*
X12882944Y-12991055D01*
X12966516Y-12907483D01*
X13032179Y-12809212D01*
X13077408Y-12700019D01*
X13100466Y-12584100D01*
X13100466Y-12465910D01*
X13077408Y-12349991D01*
X13032179Y-12240798D01*
X12966516Y-12142527D01*
X12882944Y-12058955D01*
X12784673Y-11993292D01*
X12675480Y-11948063D01*
X12559561Y-11925005D01*
X12441371Y-11925005D01*
X12325452Y-11948063D01*
X12216259Y-11993292D01*
X12117988Y-12058955D01*
X12034416Y-12142527D01*
X11968753Y-12240798D01*
X11923524Y-12349991D01*
X11900466Y-12465910D01*
X2611002Y-12465910D01*
X2655712Y-11552497D01*
X2693790Y-11568269D01*
X2809709Y-11591327D01*
X2927899Y-11591327D01*
X3043818Y-11568269D01*
X3153011Y-11523040D01*
X3251282Y-11457377D01*
X3334854Y-11373805D01*
X3400517Y-11275534D01*
X3445746Y-11166341D01*
X3468804Y-11050422D01*
X3468804Y-11026939D01*
X3469232Y-11024117D01*
X3481578Y-11023551D01*
X3558478Y-11023551D01*
X3674397Y-11000493D01*
X3783590Y-10955264D01*
X3881861Y-10889601D01*
X3931912Y-10839550D01*
X12475461Y-10839550D01*
X12475461Y-10957740D01*
X12498519Y-11073659D01*
X12543748Y-11182852D01*
X12609411Y-11281123D01*
X12692983Y-11364695D01*
X12791254Y-11430358D01*
X12900447Y-11475587D01*
X13016366Y-11498645D01*
X13134556Y-11498645D01*
X13250475Y-11475587D01*
X13330724Y-11442347D01*
X13368774Y-11534207D01*
X13434437Y-11632478D01*
X13518009Y-11716050D01*
X13616280Y-11781713D01*
X13725473Y-11826942D01*
X13841392Y-11850000D01*
X13959582Y-11850000D01*
X14075501Y-11826942D01*
X14184694Y-11781713D01*
X14282965Y-11716050D01*
X14366537Y-11632478D01*
X14432200Y-11534207D01*
X14477429Y-11425014D01*
X14500487Y-11309095D01*
X14500487Y-11190905D01*
X14477429Y-11074986D01*
X14432200Y-10965793D01*
X14366537Y-10867522D01*
X14282965Y-10783950D01*
X14184694Y-10718287D01*
X14075501Y-10673058D01*
X13959582Y-10650000D01*
X13841392Y-10650000D01*
X13725473Y-10673058D01*
X13645224Y-10706298D01*
X13607174Y-10614438D01*
X13541511Y-10516167D01*
X13457939Y-10432595D01*
X13359668Y-10366932D01*
X13250475Y-10321703D01*
X13134556Y-10298645D01*
X13016366Y-10298645D01*
X12900447Y-10321703D01*
X12791254Y-10366932D01*
X12692983Y-10432595D01*
X12609411Y-10516167D01*
X12543748Y-10614438D01*
X12498519Y-10723631D01*
X12475461Y-10839550D01*
X3931912Y-10839550D01*
X3965433Y-10806029D01*
X4031096Y-10707758D01*
X4076325Y-10598565D01*
X4099383Y-10482646D01*
X4099383Y-10364456D01*
X4076325Y-10248537D01*
X4031096Y-10139344D01*
X3965433Y-10041073D01*
X3881861Y-9957501D01*
X3783590Y-9891838D01*
X3674397Y-9846609D01*
X3558478Y-9823551D01*
X3534995Y-9823551D01*
X3530861Y-9822924D01*
X2964894Y-9793263D01*
X2959301Y-9792150D01*
X2943666Y-9792150D01*
X2931683Y-9791522D01*
X2917988Y-9792150D01*
X2841111Y-9792150D01*
X2740901Y-9812083D01*
X2910806Y-6340905D01*
X4800000Y-6340905D01*
X4800000Y-6459095D01*
X4823058Y-6575014D01*
X4868287Y-6684207D01*
X4933950Y-6782478D01*
X5017522Y-6866050D01*
X5115793Y-6931713D01*
X5224986Y-6976942D01*
X5340905Y-7000000D01*
X5459095Y-7000000D01*
X5575014Y-6976942D01*
X5684207Y-6931713D01*
X5782478Y-6866050D01*
X5866050Y-6782478D01*
X5913321Y-6711733D01*
X5993479Y-6905252D01*
X6179523Y-7183687D01*
X6416313Y-7420477D01*
X6694748Y-7606521D01*
X7004128Y-7734670D01*
X7332565Y-7800000D01*
X7667435Y-7800000D01*
X7680588Y-7797384D01*
X7668287Y-7815793D01*
X7623058Y-7924986D01*
X7600000Y-8040905D01*
X7600000Y-8159095D01*
X7623058Y-8275014D01*
X7668287Y-8384207D01*
X7686116Y-8410890D01*
X7624986Y-8423050D01*
X7515793Y-8468279D01*
X7417522Y-8533942D01*
X7333950Y-8617514D01*
X7268287Y-8715785D01*
X7223058Y-8824978D01*
X7200000Y-8940897D01*
X7200000Y-9059087D01*
X7223058Y-9175006D01*
X7268287Y-9284199D01*
X7333950Y-9382470D01*
X7417522Y-9466042D01*
X7515793Y-9531705D01*
X7624986Y-9576934D01*
X7740905Y-9599992D01*
X7859095Y-9599992D01*
X7975014Y-9576934D01*
X8084207Y-9531705D01*
X8182478Y-9466042D01*
X8266050Y-9382470D01*
X8331713Y-9284199D01*
X8376942Y-9175006D01*
X8400000Y-9059087D01*
X8400000Y-8940897D01*
X8386078Y-8870905D01*
X14509998Y-8870905D01*
X14509998Y-8989095D01*
X14533056Y-9105014D01*
X14578285Y-9214207D01*
X14643948Y-9312478D01*
X14727520Y-9396050D01*
X14825791Y-9461713D01*
X14934984Y-9506942D01*
X15050903Y-9530000D01*
X15169093Y-9530000D01*
X15285012Y-9506942D01*
X15394205Y-9461713D01*
X15492476Y-9396050D01*
X15576048Y-9312478D01*
X15641711Y-9214207D01*
X15686940Y-9105014D01*
X15709998Y-8989095D01*
X15709998Y-8870905D01*
X15686940Y-8754986D01*
X15641711Y-8645793D01*
X15576048Y-8547522D01*
X15492476Y-8463950D01*
X15394205Y-8398287D01*
X15285012Y-8353058D01*
X15169093Y-8330000D01*
X15050903Y-8330000D01*
X14934984Y-8353058D01*
X14825791Y-8398287D01*
X14727520Y-8463950D01*
X14643948Y-8547522D01*
X14578285Y-8645793D01*
X14533056Y-8754986D01*
X14509998Y-8870905D01*
X8386078Y-8870905D01*
X8376942Y-8824978D01*
X8331713Y-8715785D01*
X8313884Y-8689102D01*
X8375014Y-8676942D01*
X8484207Y-8631713D01*
X8582478Y-8566050D01*
X8666050Y-8482478D01*
X8731713Y-8384207D01*
X8776942Y-8275014D01*
X8800000Y-8159095D01*
X8800000Y-8040905D01*
X8776942Y-7924986D01*
X8731713Y-7815793D01*
X8666050Y-7717522D01*
X8582478Y-7633950D01*
X8484207Y-7568287D01*
X8409059Y-7537160D01*
X8583687Y-7420477D01*
X8820477Y-7183687D01*
X9006521Y-6905252D01*
X9134670Y-6595872D01*
X9200000Y-6267435D01*
X9200000Y-5932565D01*
X10200000Y-5932565D01*
X10200000Y-6267435D01*
X10265330Y-6595872D01*
X10393479Y-6905252D01*
X10579523Y-7183687D01*
X10816313Y-7420477D01*
X11094748Y-7606521D01*
X11404128Y-7734670D01*
X11732565Y-7800000D01*
X12067435Y-7800000D01*
X12395872Y-7734670D01*
X12622236Y-7640907D01*
X13400002Y-7640907D01*
X13400002Y-7759097D01*
X13423060Y-7875016D01*
X13468289Y-7984209D01*
X13533952Y-8082480D01*
X13617524Y-8166052D01*
X13715795Y-8231715D01*
X13824988Y-8276944D01*
X13940907Y-8300002D01*
X14059097Y-8300002D01*
X14175016Y-8276944D01*
X14284209Y-8231715D01*
X14382480Y-8166052D01*
X14457627Y-8090905D01*
X18550000Y-8090905D01*
X18550000Y-8209095D01*
X18573058Y-8325014D01*
X18618287Y-8434207D01*
X18683950Y-8532478D01*
X18767522Y-8616050D01*
X18865793Y-8681713D01*
X18974986Y-8726942D01*
X19090905Y-8750000D01*
X19209095Y-8750000D01*
X19325014Y-8726942D01*
X19434207Y-8681713D01*
X19532478Y-8616050D01*
X19616050Y-8532478D01*
X19681713Y-8434207D01*
X19726942Y-8325014D01*
X19750000Y-8209095D01*
X19750000Y-8090905D01*
X19726942Y-7974986D01*
X19681713Y-7865793D01*
X19616050Y-7767522D01*
X19532478Y-7683950D01*
X19434207Y-7618287D01*
X19325014Y-7573058D01*
X19209095Y-7550000D01*
X19090905Y-7550000D01*
X18974986Y-7573058D01*
X18865793Y-7618287D01*
X18767522Y-7683950D01*
X18683950Y-7767522D01*
X18618287Y-7865793D01*
X18573058Y-7974986D01*
X18550000Y-8090905D01*
X14457627Y-8090905D01*
X14466052Y-8082480D01*
X14531715Y-7984209D01*
X14576944Y-7875016D01*
X14600002Y-7759097D01*
X14600002Y-7640907D01*
X14576944Y-7524988D01*
X14531715Y-7415795D01*
X14466052Y-7317524D01*
X14382480Y-7233952D01*
X14284209Y-7168289D01*
X14175016Y-7123060D01*
X14059097Y-7100002D01*
X13940907Y-7100002D01*
X13824988Y-7123060D01*
X13715795Y-7168289D01*
X13617524Y-7233952D01*
X13533952Y-7317524D01*
X13468289Y-7415795D01*
X13423060Y-7524988D01*
X13400002Y-7640907D01*
X12622236Y-7640907D01*
X12705252Y-7606521D01*
X12983687Y-7420477D01*
X13220477Y-7183687D01*
X13406521Y-6905252D01*
X13534670Y-6595872D01*
X13600000Y-6267435D01*
X13600000Y-5932565D01*
X14400000Y-5932565D01*
X14400000Y-6267435D01*
X14465330Y-6595872D01*
X14593479Y-6905252D01*
X14779523Y-7183687D01*
X15016313Y-7420477D01*
X15294748Y-7606521D01*
X15604128Y-7734670D01*
X15932565Y-7800000D01*
X16267435Y-7800000D01*
X16595872Y-7734670D01*
X16905252Y-7606521D01*
X17183687Y-7420477D01*
X17420477Y-7183687D01*
X17606521Y-6905252D01*
X17734670Y-6595872D01*
X17800000Y-6267435D01*
X17800000Y-5932565D01*
X18800000Y-5932565D01*
X18800000Y-6267435D01*
X18865330Y-6595872D01*
X18993479Y-6905252D01*
X19179523Y-7183687D01*
X19416313Y-7420477D01*
X19694748Y-7606521D01*
X20004128Y-7734670D01*
X20332565Y-7800000D01*
X20667435Y-7800000D01*
X20995872Y-7734670D01*
X21305252Y-7606521D01*
X21583687Y-7420477D01*
X21820477Y-7183687D01*
X22006521Y-6905252D01*
X22112249Y-6650001D01*
X22133950Y-6682478D01*
X22217522Y-6766050D01*
X22315793Y-6831713D01*
X22424986Y-6876942D01*
X22540905Y-6900000D01*
X22659095Y-6900000D01*
X22775014Y-6876942D01*
X22884207Y-6831713D01*
X22982478Y-6766050D01*
X23066050Y-6682478D01*
X23131713Y-6584207D01*
X23176942Y-6475014D01*
X23200000Y-6359095D01*
X23200000Y-6240905D01*
X23176942Y-6124986D01*
X23131713Y-6015793D01*
X23066050Y-5917522D01*
X22982478Y-5833950D01*
X22884207Y-5768287D01*
X22775014Y-5723058D01*
X22659095Y-5700000D01*
X22540905Y-5700000D01*
X22424986Y-5723058D01*
X22315793Y-5768287D01*
X22217522Y-5833950D01*
X22186546Y-5864926D01*
X22134670Y-5604128D01*
X22006521Y-5294748D01*
X21820477Y-5016313D01*
X21583687Y-4779523D01*
X21305252Y-4593479D01*
X20995872Y-4465330D01*
X20667435Y-4400000D01*
X20332565Y-4400000D01*
X20004128Y-4465330D01*
X19694748Y-4593479D01*
X19416313Y-4779523D01*
X19179523Y-5016313D01*
X18993479Y-5294748D01*
X18865330Y-5604128D01*
X18800000Y-5932565D01*
X17800000Y-5932565D01*
X17734670Y-5604128D01*
X17606521Y-5294748D01*
X17420477Y-5016313D01*
X17183687Y-4779523D01*
X16905252Y-4593479D01*
X16595872Y-4465330D01*
X16267435Y-4400000D01*
X15932565Y-4400000D01*
X15604128Y-4465330D01*
X15294748Y-4593479D01*
X15016313Y-4779523D01*
X14779523Y-5016313D01*
X14593479Y-5294748D01*
X14465330Y-5604128D01*
X14400000Y-5932565D01*
X13600000Y-5932565D01*
X13534670Y-5604128D01*
X13406521Y-5294748D01*
X13220477Y-5016313D01*
X12983687Y-4779523D01*
X12705252Y-4593479D01*
X12395872Y-4465330D01*
X12067435Y-4400000D01*
X11732565Y-4400000D01*
X11404128Y-4465330D01*
X11094748Y-4593479D01*
X10816313Y-4779523D01*
X10579523Y-5016313D01*
X10393479Y-5294748D01*
X10265330Y-5604128D01*
X10200000Y-5932565D01*
X9200000Y-5932565D01*
X9134670Y-5604128D01*
X9006521Y-5294748D01*
X8820477Y-5016313D01*
X8583687Y-4779523D01*
X8305252Y-4593479D01*
X7995872Y-4465330D01*
X7667435Y-4400000D01*
X7332565Y-4400000D01*
X7004128Y-4465330D01*
X6694748Y-4593479D01*
X6416313Y-4779523D01*
X6179523Y-5016313D01*
X5993479Y-5294748D01*
X5865330Y-5604128D01*
X5800000Y-5932565D01*
X5800000Y-5951472D01*
X5782478Y-5933950D01*
X5684207Y-5868287D01*
X5575014Y-5823058D01*
X5459095Y-5800000D01*
X5340905Y-5800000D01*
X5224986Y-5823058D01*
X5115793Y-5868287D01*
X5017522Y-5933950D01*
X4933950Y-6017522D01*
X4868287Y-6115793D01*
X4823058Y-6224986D01*
X4800000Y-6340905D01*
X2910806Y-6340905D01*
X3024222Y-4023827D01*
X3029861Y-3966311D01*
X3039644Y-3933910D01*
X3055537Y-3904018D01*
X3086690Y-3865822D01*
X3111607Y-3840905D01*
X5549952Y-3840905D01*
X5549952Y-3959095D01*
X5573010Y-4075014D01*
X5618239Y-4184207D01*
X5683902Y-4282478D01*
X5767474Y-4366050D01*
X5865745Y-4431713D01*
X5974938Y-4476942D01*
X6090857Y-4500000D01*
X6209047Y-4500000D01*
X6324966Y-4476942D01*
X6434159Y-4431713D01*
X6532430Y-4366050D01*
X6616002Y-4282478D01*
X6681665Y-4184207D01*
X6726894Y-4075014D01*
X6749952Y-3959095D01*
X6749952Y-3840905D01*
X6736239Y-3771961D01*
X8400000Y-3771961D01*
X8400000Y-4028039D01*
X8449958Y-4279196D01*
X8547955Y-4515781D01*
X8690224Y-4728702D01*
X8871298Y-4909776D01*
X9084219Y-5052045D01*
X9320804Y-5150042D01*
X9571961Y-5200000D01*
X9828039Y-5200000D01*
X10079196Y-5150042D01*
X10315781Y-5052045D01*
X10528702Y-4909776D01*
X10709776Y-4728702D01*
X10852045Y-4515781D01*
X10950042Y-4279196D01*
X11000000Y-4028039D01*
X11000000Y-3771961D01*
X17000000Y-3771961D01*
X17000000Y-4028039D01*
X17049958Y-4279196D01*
X17147955Y-4515781D01*
X17290224Y-4728702D01*
X17471298Y-4909776D01*
X17684219Y-5052045D01*
X17920804Y-5150042D01*
X18171961Y-5200000D01*
X18428039Y-5200000D01*
X18679196Y-5150042D01*
X18915781Y-5052045D01*
X19128702Y-4909776D01*
X19309776Y-4728702D01*
X19452045Y-4515781D01*
X19550042Y-4279196D01*
X19600000Y-4028039D01*
X19600000Y-3840905D01*
X21250032Y-3840905D01*
X21250032Y-3959095D01*
X21273090Y-4075014D01*
X21318319Y-4184207D01*
X21383982Y-4282478D01*
X21467554Y-4366050D01*
X21565825Y-4431713D01*
X21675018Y-4476942D01*
X21790937Y-4500000D01*
X21909127Y-4500000D01*
X22025046Y-4476942D01*
X22134239Y-4431713D01*
X22232510Y-4366050D01*
X22316082Y-4282478D01*
X22381745Y-4184207D01*
X22426974Y-4075014D01*
X22450032Y-3959095D01*
X22450032Y-3840905D01*
X22426974Y-3724986D01*
X22381745Y-3615793D01*
X22316082Y-3517522D01*
X22232510Y-3433950D01*
X22134239Y-3368287D01*
X22025046Y-3323058D01*
X21909127Y-3300000D01*
X21790937Y-3300000D01*
X21675018Y-3323058D01*
X21565825Y-3368287D01*
X21467554Y-3433950D01*
X21383982Y-3517522D01*
X21318319Y-3615793D01*
X21273090Y-3724986D01*
X21250032Y-3840905D01*
X19600000Y-3840905D01*
X19600000Y-3771961D01*
X19550042Y-3520804D01*
X19452045Y-3284219D01*
X19309776Y-3071298D01*
X19128702Y-2890224D01*
X18915781Y-2747955D01*
X18679196Y-2649958D01*
X18428039Y-2600000D01*
X18171961Y-2600000D01*
X17920804Y-2649958D01*
X17684219Y-2747955D01*
X17471298Y-2890224D01*
X17290224Y-3071298D01*
X17147955Y-3284219D01*
X17049958Y-3520804D01*
X17000000Y-3771961D01*
X11000000Y-3771961D01*
X10950042Y-3520804D01*
X10852045Y-3284219D01*
X10709776Y-3071298D01*
X10528702Y-2890224D01*
X10315781Y-2747955D01*
X10079196Y-2649958D01*
X9828039Y-2600000D01*
X9571961Y-2600000D01*
X9320804Y-2649958D01*
X9084219Y-2747955D01*
X8871298Y-2890224D01*
X8690224Y-3071298D01*
X8547955Y-3284219D01*
X8449958Y-3520804D01*
X8400000Y-3771961D01*
X6736239Y-3771961D01*
X6726894Y-3724986D01*
X6681665Y-3615793D01*
X6616002Y-3517522D01*
X6532430Y-3433950D01*
X6434159Y-3368287D01*
X6324966Y-3323058D01*
X6209047Y-3300000D01*
X6090857Y-3300000D01*
X5974938Y-3323058D01*
X5865745Y-3368287D01*
X5767474Y-3433950D01*
X5683902Y-3517522D01*
X5618239Y-3615793D01*
X5573010Y-3724986D01*
X5549952Y-3840905D01*
X3111607Y-3840905D01*
X5948022Y-1004491D01*
X5865330Y-1204128D01*
X5800000Y-1532565D01*
X5800000Y-1867435D01*
X5865330Y-2195872D01*
X5993479Y-2505252D01*
X6179523Y-2783687D01*
X6416313Y-3020477D01*
X6694748Y-3206521D01*
X7004128Y-3334670D01*
X7332565Y-3400000D01*
X7667435Y-3400000D01*
X7995872Y-3334670D01*
X8305252Y-3206521D01*
X8583687Y-3020477D01*
X8820477Y-2783687D01*
X9006521Y-2505252D01*
X9134670Y-2195872D01*
X9200000Y-1867435D01*
X9200000Y-1532565D01*
X9134670Y-1204128D01*
X9006521Y-894748D01*
X8820477Y-616313D01*
X8583687Y-379523D01*
X8502087Y-325000D01*
X10897913Y-325000D01*
X10816313Y-379523D01*
G04 #@! TA.AperFunction,Conductor*
D21*
G36*
X10816313Y-379523D02*
G01*
X10579523Y-616313D01*
X10393479Y-894748D01*
X10265330Y-1204128D01*
X10200000Y-1532565D01*
X10200000Y-1867435D01*
X10265330Y-2195872D01*
X10393479Y-2505252D01*
X10579523Y-2783687D01*
X10816313Y-3020477D01*
X11094748Y-3206521D01*
X11404128Y-3334670D01*
X11732565Y-3400000D01*
X12067435Y-3400000D01*
X12395872Y-3334670D01*
X12705252Y-3206521D01*
X12983687Y-3020477D01*
X13220477Y-2783687D01*
X13406521Y-2505252D01*
X13534670Y-2195872D01*
X13600000Y-1867435D01*
X13600000Y-1532565D01*
X13534670Y-1204128D01*
X13406521Y-894748D01*
X13220477Y-616313D01*
X12983687Y-379523D01*
X12902087Y-325000D01*
X15097913Y-325000D01*
X15016313Y-379523D01*
X14779523Y-616313D01*
X14593479Y-894748D01*
X14465330Y-1204128D01*
X14400000Y-1532565D01*
X14400000Y-1867435D01*
X14465330Y-2195872D01*
X14593479Y-2505252D01*
X14779523Y-2783687D01*
X15016313Y-3020477D01*
X15294748Y-3206521D01*
X15604128Y-3334670D01*
X15932565Y-3400000D01*
X16267435Y-3400000D01*
X16595872Y-3334670D01*
X16905252Y-3206521D01*
X17183687Y-3020477D01*
X17420477Y-2783687D01*
X17606521Y-2505252D01*
X17734670Y-2195872D01*
X17800000Y-1867435D01*
X17800000Y-1532565D01*
X17734670Y-1204128D01*
X17606521Y-894748D01*
X17420477Y-616313D01*
X17183687Y-379523D01*
X17102087Y-325000D01*
X19497913Y-325000D01*
X19416313Y-379523D01*
X19179523Y-616313D01*
X18993479Y-894748D01*
X18865330Y-1204128D01*
X18800000Y-1532565D01*
X18800000Y-1867435D01*
X18865330Y-2195872D01*
X18993479Y-2505252D01*
X19179523Y-2783687D01*
X19416313Y-3020477D01*
X19694748Y-3206521D01*
X20004128Y-3334670D01*
X20332565Y-3400000D01*
X20667435Y-3400000D01*
X20995872Y-3334670D01*
X21305252Y-3206521D01*
X21583687Y-3020477D01*
X21820477Y-2783687D01*
X22006521Y-2505252D01*
X22134670Y-2195872D01*
X22200000Y-1867435D01*
X22200000Y-1532565D01*
X22134670Y-1204128D01*
X22051977Y-1004489D01*
X24912503Y-3865016D01*
X24944127Y-3903516D01*
X24960123Y-3933348D01*
X24970019Y-3965717D01*
X24975644Y-4021095D01*
X25259099Y-9812083D01*
X25158889Y-9792150D01*
X25082012Y-9792150D01*
X25068317Y-9791522D01*
X25056334Y-9792150D01*
X25040699Y-9792150D01*
X25035106Y-9793263D01*
X24469139Y-9822924D01*
X24465005Y-9823551D01*
X24441522Y-9823551D01*
X24325603Y-9846609D01*
X24216410Y-9891838D01*
X24118139Y-9957501D01*
X24034567Y-10041073D01*
X23968904Y-10139344D01*
X23923675Y-10248537D01*
X23900617Y-10364456D01*
X23900617Y-10482646D01*
X23923675Y-10598565D01*
X23968904Y-10707758D01*
X24034567Y-10806029D01*
X24118139Y-10889601D01*
X24216410Y-10955264D01*
X24325603Y-11000493D01*
X24441522Y-11023551D01*
X24518422Y-11023551D01*
X24530768Y-11024117D01*
X24531196Y-11026939D01*
X24531196Y-11050422D01*
X24554254Y-11166341D01*
X24599483Y-11275534D01*
X24665146Y-11373805D01*
X24748718Y-11457377D01*
X24846989Y-11523040D01*
X24956182Y-11568269D01*
X25072101Y-11591327D01*
X25190291Y-11591327D01*
X25306210Y-11568269D01*
X25344288Y-11552497D01*
X25396025Y-12609483D01*
X25308889Y-12592150D01*
X25232012Y-12592150D01*
X25218317Y-12591522D01*
X25206334Y-12592150D01*
X25190699Y-12592150D01*
X25185106Y-12593263D01*
X24619139Y-12622924D01*
X24615005Y-12623551D01*
X24591522Y-12623551D01*
X24475603Y-12646609D01*
X24366410Y-12691838D01*
X24268139Y-12757501D01*
X24184567Y-12841073D01*
X24118904Y-12939344D01*
X24073675Y-13048537D01*
X24050617Y-13164456D01*
X24050617Y-13282646D01*
X24073675Y-13398565D01*
X24118904Y-13507758D01*
X24184567Y-13606029D01*
X24268139Y-13689601D01*
X24366410Y-13755264D01*
X24475603Y-13800493D01*
X24591522Y-13823551D01*
X24668422Y-13823551D01*
X24680768Y-13824117D01*
X24681196Y-13826939D01*
X24681196Y-13850422D01*
X24704254Y-13966341D01*
X24749483Y-14075534D01*
X24815146Y-14173805D01*
X24898718Y-14257377D01*
X24996989Y-14323040D01*
X25106182Y-14368269D01*
X25222101Y-14391327D01*
X25340291Y-14391327D01*
X25456210Y-14368269D01*
X25481599Y-14357753D01*
X25752879Y-19900000D01*
X2247121Y-19900000D01*
X2318540Y-18440905D01*
X4500000Y-18440905D01*
X4500000Y-18559095D01*
X4523058Y-18675014D01*
X4568287Y-18784207D01*
X4633950Y-18882478D01*
X4717522Y-18966050D01*
X4815793Y-19031713D01*
X4924986Y-19076942D01*
X5040905Y-19100000D01*
X5159095Y-19100000D01*
X5275014Y-19076942D01*
X5384207Y-19031713D01*
X5482478Y-18966050D01*
X5566050Y-18882478D01*
X5631713Y-18784207D01*
X5676942Y-18675014D01*
X5700000Y-18559095D01*
X5700000Y-18440905D01*
X22300000Y-18440905D01*
X22300000Y-18559095D01*
X22323058Y-18675014D01*
X22368287Y-18784207D01*
X22433950Y-18882478D01*
X22517522Y-18966050D01*
X22615793Y-19031713D01*
X22724986Y-19076942D01*
X22840905Y-19100000D01*
X22959095Y-19100000D01*
X23075014Y-19076942D01*
X23184207Y-19031713D01*
X23282478Y-18966050D01*
X23366050Y-18882478D01*
X23431713Y-18784207D01*
X23476942Y-18675014D01*
X23500000Y-18559095D01*
X23500000Y-18440905D01*
X23476942Y-18324986D01*
X23431713Y-18215793D01*
X23366050Y-18117522D01*
X23282478Y-18033950D01*
X23184207Y-17968287D01*
X23075014Y-17923058D01*
X22959095Y-17900000D01*
X22840905Y-17900000D01*
X22724986Y-17923058D01*
X22615793Y-17968287D01*
X22517522Y-18033950D01*
X22433950Y-18117522D01*
X22368287Y-18215793D01*
X22323058Y-18324986D01*
X22300000Y-18440905D01*
X5700000Y-18440905D01*
X5676942Y-18324986D01*
X5631713Y-18215793D01*
X5566050Y-18117522D01*
X5482478Y-18033950D01*
X5384207Y-17968287D01*
X5275014Y-17923058D01*
X5159095Y-17900000D01*
X5040905Y-17900000D01*
X4924986Y-17923058D01*
X4815793Y-17968287D01*
X4717522Y-18033950D01*
X4633950Y-18117522D01*
X4568287Y-18215793D01*
X4523058Y-18324986D01*
X4500000Y-18440905D01*
X2318540Y-18440905D01*
X2518401Y-14357753D01*
X2543790Y-14368269D01*
X2659709Y-14391327D01*
X2777899Y-14391327D01*
X2893818Y-14368269D01*
X3003011Y-14323040D01*
X3101282Y-14257377D01*
X3184854Y-14173805D01*
X3250517Y-14075534D01*
X3295746Y-13966341D01*
X3318804Y-13850422D01*
X3318804Y-13826939D01*
X3319232Y-13824117D01*
X3331578Y-13823551D01*
X3408478Y-13823551D01*
X3524397Y-13800493D01*
X3633590Y-13755264D01*
X3731861Y-13689601D01*
X3815433Y-13606029D01*
X3881096Y-13507758D01*
X3926325Y-13398565D01*
X3949383Y-13282646D01*
X3949383Y-13164456D01*
X3926325Y-13048537D01*
X3881096Y-12939344D01*
X3815433Y-12841073D01*
X3731861Y-12757501D01*
X3633590Y-12691838D01*
X3524397Y-12646609D01*
X3408478Y-12623551D01*
X3384995Y-12623551D01*
X3380861Y-12622924D01*
X2814894Y-12593263D01*
X2809301Y-12592150D01*
X2793666Y-12592150D01*
X2781683Y-12591522D01*
X2767988Y-12592150D01*
X2691111Y-12592150D01*
X2603975Y-12609483D01*
X2611002Y-12465910D01*
X11900466Y-12465910D01*
X11900466Y-12584100D01*
X11923524Y-12700019D01*
X11968753Y-12809212D01*
X12034416Y-12907483D01*
X12117988Y-12991055D01*
X12216259Y-13056718D01*
X12325452Y-13101947D01*
X12441371Y-13125005D01*
X12559561Y-13125005D01*
X12675480Y-13101947D01*
X12784673Y-13056718D01*
X12882944Y-12991055D01*
X12966516Y-12907483D01*
X13032179Y-12809212D01*
X13077408Y-12700019D01*
X13100466Y-12584100D01*
X13100466Y-12465910D01*
X13077408Y-12349991D01*
X13032179Y-12240798D01*
X12966516Y-12142527D01*
X12882944Y-12058955D01*
X12784673Y-11993292D01*
X12675480Y-11948063D01*
X12559561Y-11925005D01*
X12441371Y-11925005D01*
X12325452Y-11948063D01*
X12216259Y-11993292D01*
X12117988Y-12058955D01*
X12034416Y-12142527D01*
X11968753Y-12240798D01*
X11923524Y-12349991D01*
X11900466Y-12465910D01*
X2611002Y-12465910D01*
X2655712Y-11552497D01*
X2693790Y-11568269D01*
X2809709Y-11591327D01*
X2927899Y-11591327D01*
X3043818Y-11568269D01*
X3153011Y-11523040D01*
X3251282Y-11457377D01*
X3334854Y-11373805D01*
X3400517Y-11275534D01*
X3445746Y-11166341D01*
X3468804Y-11050422D01*
X3468804Y-11026939D01*
X3469232Y-11024117D01*
X3481578Y-11023551D01*
X3558478Y-11023551D01*
X3674397Y-11000493D01*
X3783590Y-10955264D01*
X3881861Y-10889601D01*
X3931912Y-10839550D01*
X12475461Y-10839550D01*
X12475461Y-10957740D01*
X12498519Y-11073659D01*
X12543748Y-11182852D01*
X12609411Y-11281123D01*
X12692983Y-11364695D01*
X12791254Y-11430358D01*
X12900447Y-11475587D01*
X13016366Y-11498645D01*
X13134556Y-11498645D01*
X13250475Y-11475587D01*
X13330724Y-11442347D01*
X13368774Y-11534207D01*
X13434437Y-11632478D01*
X13518009Y-11716050D01*
X13616280Y-11781713D01*
X13725473Y-11826942D01*
X13841392Y-11850000D01*
X13959582Y-11850000D01*
X14075501Y-11826942D01*
X14184694Y-11781713D01*
X14282965Y-11716050D01*
X14366537Y-11632478D01*
X14432200Y-11534207D01*
X14477429Y-11425014D01*
X14500487Y-11309095D01*
X14500487Y-11190905D01*
X14477429Y-11074986D01*
X14432200Y-10965793D01*
X14366537Y-10867522D01*
X14282965Y-10783950D01*
X14184694Y-10718287D01*
X14075501Y-10673058D01*
X13959582Y-10650000D01*
X13841392Y-10650000D01*
X13725473Y-10673058D01*
X13645224Y-10706298D01*
X13607174Y-10614438D01*
X13541511Y-10516167D01*
X13457939Y-10432595D01*
X13359668Y-10366932D01*
X13250475Y-10321703D01*
X13134556Y-10298645D01*
X13016366Y-10298645D01*
X12900447Y-10321703D01*
X12791254Y-10366932D01*
X12692983Y-10432595D01*
X12609411Y-10516167D01*
X12543748Y-10614438D01*
X12498519Y-10723631D01*
X12475461Y-10839550D01*
X3931912Y-10839550D01*
X3965433Y-10806029D01*
X4031096Y-10707758D01*
X4076325Y-10598565D01*
X4099383Y-10482646D01*
X4099383Y-10364456D01*
X4076325Y-10248537D01*
X4031096Y-10139344D01*
X3965433Y-10041073D01*
X3881861Y-9957501D01*
X3783590Y-9891838D01*
X3674397Y-9846609D01*
X3558478Y-9823551D01*
X3534995Y-9823551D01*
X3530861Y-9822924D01*
X2964894Y-9793263D01*
X2959301Y-9792150D01*
X2943666Y-9792150D01*
X2931683Y-9791522D01*
X2917988Y-9792150D01*
X2841111Y-9792150D01*
X2740901Y-9812083D01*
X2910806Y-6340905D01*
X4800000Y-6340905D01*
X4800000Y-6459095D01*
X4823058Y-6575014D01*
X4868287Y-6684207D01*
X4933950Y-6782478D01*
X5017522Y-6866050D01*
X5115793Y-6931713D01*
X5224986Y-6976942D01*
X5340905Y-7000000D01*
X5459095Y-7000000D01*
X5575014Y-6976942D01*
X5684207Y-6931713D01*
X5782478Y-6866050D01*
X5866050Y-6782478D01*
X5913321Y-6711733D01*
X5993479Y-6905252D01*
X6179523Y-7183687D01*
X6416313Y-7420477D01*
X6694748Y-7606521D01*
X7004128Y-7734670D01*
X7332565Y-7800000D01*
X7667435Y-7800000D01*
X7680588Y-7797384D01*
X7668287Y-7815793D01*
X7623058Y-7924986D01*
X7600000Y-8040905D01*
X7600000Y-8159095D01*
X7623058Y-8275014D01*
X7668287Y-8384207D01*
X7686116Y-8410890D01*
X7624986Y-8423050D01*
X7515793Y-8468279D01*
X7417522Y-8533942D01*
X7333950Y-8617514D01*
X7268287Y-8715785D01*
X7223058Y-8824978D01*
X7200000Y-8940897D01*
X7200000Y-9059087D01*
X7223058Y-9175006D01*
X7268287Y-9284199D01*
X7333950Y-9382470D01*
X7417522Y-9466042D01*
X7515793Y-9531705D01*
X7624986Y-9576934D01*
X7740905Y-9599992D01*
X7859095Y-9599992D01*
X7975014Y-9576934D01*
X8084207Y-9531705D01*
X8182478Y-9466042D01*
X8266050Y-9382470D01*
X8331713Y-9284199D01*
X8376942Y-9175006D01*
X8400000Y-9059087D01*
X8400000Y-8940897D01*
X8386078Y-8870905D01*
X14509998Y-8870905D01*
X14509998Y-8989095D01*
X14533056Y-9105014D01*
X14578285Y-9214207D01*
X14643948Y-9312478D01*
X14727520Y-9396050D01*
X14825791Y-9461713D01*
X14934984Y-9506942D01*
X15050903Y-9530000D01*
X15169093Y-9530000D01*
X15285012Y-9506942D01*
X15394205Y-9461713D01*
X15492476Y-9396050D01*
X15576048Y-9312478D01*
X15641711Y-9214207D01*
X15686940Y-9105014D01*
X15709998Y-8989095D01*
X15709998Y-8870905D01*
X15686940Y-8754986D01*
X15641711Y-8645793D01*
X15576048Y-8547522D01*
X15492476Y-8463950D01*
X15394205Y-8398287D01*
X15285012Y-8353058D01*
X15169093Y-8330000D01*
X15050903Y-8330000D01*
X14934984Y-8353058D01*
X14825791Y-8398287D01*
X14727520Y-8463950D01*
X14643948Y-8547522D01*
X14578285Y-8645793D01*
X14533056Y-8754986D01*
X14509998Y-8870905D01*
X8386078Y-8870905D01*
X8376942Y-8824978D01*
X8331713Y-8715785D01*
X8313884Y-8689102D01*
X8375014Y-8676942D01*
X8484207Y-8631713D01*
X8582478Y-8566050D01*
X8666050Y-8482478D01*
X8731713Y-8384207D01*
X8776942Y-8275014D01*
X8800000Y-8159095D01*
X8800000Y-8040905D01*
X8776942Y-7924986D01*
X8731713Y-7815793D01*
X8666050Y-7717522D01*
X8582478Y-7633950D01*
X8484207Y-7568287D01*
X8409059Y-7537160D01*
X8583687Y-7420477D01*
X8820477Y-7183687D01*
X9006521Y-6905252D01*
X9134670Y-6595872D01*
X9200000Y-6267435D01*
X9200000Y-5932565D01*
X10200000Y-5932565D01*
X10200000Y-6267435D01*
X10265330Y-6595872D01*
X10393479Y-6905252D01*
X10579523Y-7183687D01*
X10816313Y-7420477D01*
X11094748Y-7606521D01*
X11404128Y-7734670D01*
X11732565Y-7800000D01*
X12067435Y-7800000D01*
X12395872Y-7734670D01*
X12622236Y-7640907D01*
X13400002Y-7640907D01*
X13400002Y-7759097D01*
X13423060Y-7875016D01*
X13468289Y-7984209D01*
X13533952Y-8082480D01*
X13617524Y-8166052D01*
X13715795Y-8231715D01*
X13824988Y-8276944D01*
X13940907Y-8300002D01*
X14059097Y-8300002D01*
X14175016Y-8276944D01*
X14284209Y-8231715D01*
X14382480Y-8166052D01*
X14457627Y-8090905D01*
X18550000Y-8090905D01*
X18550000Y-8209095D01*
X18573058Y-8325014D01*
X18618287Y-8434207D01*
X18683950Y-8532478D01*
X18767522Y-8616050D01*
X18865793Y-8681713D01*
X18974986Y-8726942D01*
X19090905Y-8750000D01*
X19209095Y-8750000D01*
X19325014Y-8726942D01*
X19434207Y-8681713D01*
X19532478Y-8616050D01*
X19616050Y-8532478D01*
X19681713Y-8434207D01*
X19726942Y-8325014D01*
X19750000Y-8209095D01*
X19750000Y-8090905D01*
X19726942Y-7974986D01*
X19681713Y-7865793D01*
X19616050Y-7767522D01*
X19532478Y-7683950D01*
X19434207Y-7618287D01*
X19325014Y-7573058D01*
X19209095Y-7550000D01*
X19090905Y-7550000D01*
X18974986Y-7573058D01*
X18865793Y-7618287D01*
X18767522Y-7683950D01*
X18683950Y-7767522D01*
X18618287Y-7865793D01*
X18573058Y-7974986D01*
X18550000Y-8090905D01*
X14457627Y-8090905D01*
X14466052Y-8082480D01*
X14531715Y-7984209D01*
X14576944Y-7875016D01*
X14600002Y-7759097D01*
X14600002Y-7640907D01*
X14576944Y-7524988D01*
X14531715Y-7415795D01*
X14466052Y-7317524D01*
X14382480Y-7233952D01*
X14284209Y-7168289D01*
X14175016Y-7123060D01*
X14059097Y-7100002D01*
X13940907Y-7100002D01*
X13824988Y-7123060D01*
X13715795Y-7168289D01*
X13617524Y-7233952D01*
X13533952Y-7317524D01*
X13468289Y-7415795D01*
X13423060Y-7524988D01*
X13400002Y-7640907D01*
X12622236Y-7640907D01*
X12705252Y-7606521D01*
X12983687Y-7420477D01*
X13220477Y-7183687D01*
X13406521Y-6905252D01*
X13534670Y-6595872D01*
X13600000Y-6267435D01*
X13600000Y-5932565D01*
X14400000Y-5932565D01*
X14400000Y-6267435D01*
X14465330Y-6595872D01*
X14593479Y-6905252D01*
X14779523Y-7183687D01*
X15016313Y-7420477D01*
X15294748Y-7606521D01*
X15604128Y-7734670D01*
X15932565Y-7800000D01*
X16267435Y-7800000D01*
X16595872Y-7734670D01*
X16905252Y-7606521D01*
X17183687Y-7420477D01*
X17420477Y-7183687D01*
X17606521Y-6905252D01*
X17734670Y-6595872D01*
X17800000Y-6267435D01*
X17800000Y-5932565D01*
X18800000Y-5932565D01*
X18800000Y-6267435D01*
X18865330Y-6595872D01*
X18993479Y-6905252D01*
X19179523Y-7183687D01*
X19416313Y-7420477D01*
X19694748Y-7606521D01*
X20004128Y-7734670D01*
X20332565Y-7800000D01*
X20667435Y-7800000D01*
X20995872Y-7734670D01*
X21305252Y-7606521D01*
X21583687Y-7420477D01*
X21820477Y-7183687D01*
X22006521Y-6905252D01*
X22112249Y-6650001D01*
X22133950Y-6682478D01*
X22217522Y-6766050D01*
X22315793Y-6831713D01*
X22424986Y-6876942D01*
X22540905Y-6900000D01*
X22659095Y-6900000D01*
X22775014Y-6876942D01*
X22884207Y-6831713D01*
X22982478Y-6766050D01*
X23066050Y-6682478D01*
X23131713Y-6584207D01*
X23176942Y-6475014D01*
X23200000Y-6359095D01*
X23200000Y-6240905D01*
X23176942Y-6124986D01*
X23131713Y-6015793D01*
X23066050Y-5917522D01*
X22982478Y-5833950D01*
X22884207Y-5768287D01*
X22775014Y-5723058D01*
X22659095Y-5700000D01*
X22540905Y-5700000D01*
X22424986Y-5723058D01*
X22315793Y-5768287D01*
X22217522Y-5833950D01*
X22186546Y-5864926D01*
X22134670Y-5604128D01*
X22006521Y-5294748D01*
X21820477Y-5016313D01*
X21583687Y-4779523D01*
X21305252Y-4593479D01*
X20995872Y-4465330D01*
X20667435Y-4400000D01*
X20332565Y-4400000D01*
X20004128Y-4465330D01*
X19694748Y-4593479D01*
X19416313Y-4779523D01*
X19179523Y-5016313D01*
X18993479Y-5294748D01*
X18865330Y-5604128D01*
X18800000Y-5932565D01*
X17800000Y-5932565D01*
X17734670Y-5604128D01*
X17606521Y-5294748D01*
X17420477Y-5016313D01*
X17183687Y-4779523D01*
X16905252Y-4593479D01*
X16595872Y-4465330D01*
X16267435Y-4400000D01*
X15932565Y-4400000D01*
X15604128Y-4465330D01*
X15294748Y-4593479D01*
X15016313Y-4779523D01*
X14779523Y-5016313D01*
X14593479Y-5294748D01*
X14465330Y-5604128D01*
X14400000Y-5932565D01*
X13600000Y-5932565D01*
X13534670Y-5604128D01*
X13406521Y-5294748D01*
X13220477Y-5016313D01*
X12983687Y-4779523D01*
X12705252Y-4593479D01*
X12395872Y-4465330D01*
X12067435Y-4400000D01*
X11732565Y-4400000D01*
X11404128Y-4465330D01*
X11094748Y-4593479D01*
X10816313Y-4779523D01*
X10579523Y-5016313D01*
X10393479Y-5294748D01*
X10265330Y-5604128D01*
X10200000Y-5932565D01*
X9200000Y-5932565D01*
X9134670Y-5604128D01*
X9006521Y-5294748D01*
X8820477Y-5016313D01*
X8583687Y-4779523D01*
X8305252Y-4593479D01*
X7995872Y-4465330D01*
X7667435Y-4400000D01*
X7332565Y-4400000D01*
X7004128Y-4465330D01*
X6694748Y-4593479D01*
X6416313Y-4779523D01*
X6179523Y-5016313D01*
X5993479Y-5294748D01*
X5865330Y-5604128D01*
X5800000Y-5932565D01*
X5800000Y-5951472D01*
X5782478Y-5933950D01*
X5684207Y-5868287D01*
X5575014Y-5823058D01*
X5459095Y-5800000D01*
X5340905Y-5800000D01*
X5224986Y-5823058D01*
X5115793Y-5868287D01*
X5017522Y-5933950D01*
X4933950Y-6017522D01*
X4868287Y-6115793D01*
X4823058Y-6224986D01*
X4800000Y-6340905D01*
X2910806Y-6340905D01*
X3024222Y-4023827D01*
X3029861Y-3966311D01*
X3039644Y-3933910D01*
X3055537Y-3904018D01*
X3086690Y-3865822D01*
X3111607Y-3840905D01*
X5549952Y-3840905D01*
X5549952Y-3959095D01*
X5573010Y-4075014D01*
X5618239Y-4184207D01*
X5683902Y-4282478D01*
X5767474Y-4366050D01*
X5865745Y-4431713D01*
X5974938Y-4476942D01*
X6090857Y-4500000D01*
X6209047Y-4500000D01*
X6324966Y-4476942D01*
X6434159Y-4431713D01*
X6532430Y-4366050D01*
X6616002Y-4282478D01*
X6681665Y-4184207D01*
X6726894Y-4075014D01*
X6749952Y-3959095D01*
X6749952Y-3840905D01*
X6736239Y-3771961D01*
X8400000Y-3771961D01*
X8400000Y-4028039D01*
X8449958Y-4279196D01*
X8547955Y-4515781D01*
X8690224Y-4728702D01*
X8871298Y-4909776D01*
X9084219Y-5052045D01*
X9320804Y-5150042D01*
X9571961Y-5200000D01*
X9828039Y-5200000D01*
X10079196Y-5150042D01*
X10315781Y-5052045D01*
X10528702Y-4909776D01*
X10709776Y-4728702D01*
X10852045Y-4515781D01*
X10950042Y-4279196D01*
X11000000Y-4028039D01*
X11000000Y-3771961D01*
X17000000Y-3771961D01*
X17000000Y-4028039D01*
X17049958Y-4279196D01*
X17147955Y-4515781D01*
X17290224Y-4728702D01*
X17471298Y-4909776D01*
X17684219Y-5052045D01*
X17920804Y-5150042D01*
X18171961Y-5200000D01*
X18428039Y-5200000D01*
X18679196Y-5150042D01*
X18915781Y-5052045D01*
X19128702Y-4909776D01*
X19309776Y-4728702D01*
X19452045Y-4515781D01*
X19550042Y-4279196D01*
X19600000Y-4028039D01*
X19600000Y-3840905D01*
X21250032Y-3840905D01*
X21250032Y-3959095D01*
X21273090Y-4075014D01*
X21318319Y-4184207D01*
X21383982Y-4282478D01*
X21467554Y-4366050D01*
X21565825Y-4431713D01*
X21675018Y-4476942D01*
X21790937Y-4500000D01*
X21909127Y-4500000D01*
X22025046Y-4476942D01*
X22134239Y-4431713D01*
X22232510Y-4366050D01*
X22316082Y-4282478D01*
X22381745Y-4184207D01*
X22426974Y-4075014D01*
X22450032Y-3959095D01*
X22450032Y-3840905D01*
X22426974Y-3724986D01*
X22381745Y-3615793D01*
X22316082Y-3517522D01*
X22232510Y-3433950D01*
X22134239Y-3368287D01*
X22025046Y-3323058D01*
X21909127Y-3300000D01*
X21790937Y-3300000D01*
X21675018Y-3323058D01*
X21565825Y-3368287D01*
X21467554Y-3433950D01*
X21383982Y-3517522D01*
X21318319Y-3615793D01*
X21273090Y-3724986D01*
X21250032Y-3840905D01*
X19600000Y-3840905D01*
X19600000Y-3771961D01*
X19550042Y-3520804D01*
X19452045Y-3284219D01*
X19309776Y-3071298D01*
X19128702Y-2890224D01*
X18915781Y-2747955D01*
X18679196Y-2649958D01*
X18428039Y-2600000D01*
X18171961Y-2600000D01*
X17920804Y-2649958D01*
X17684219Y-2747955D01*
X17471298Y-2890224D01*
X17290224Y-3071298D01*
X17147955Y-3284219D01*
X17049958Y-3520804D01*
X17000000Y-3771961D01*
X11000000Y-3771961D01*
X10950042Y-3520804D01*
X10852045Y-3284219D01*
X10709776Y-3071298D01*
X10528702Y-2890224D01*
X10315781Y-2747955D01*
X10079196Y-2649958D01*
X9828039Y-2600000D01*
X9571961Y-2600000D01*
X9320804Y-2649958D01*
X9084219Y-2747955D01*
X8871298Y-2890224D01*
X8690224Y-3071298D01*
X8547955Y-3284219D01*
X8449958Y-3520804D01*
X8400000Y-3771961D01*
X6736239Y-3771961D01*
X6726894Y-3724986D01*
X6681665Y-3615793D01*
X6616002Y-3517522D01*
X6532430Y-3433950D01*
X6434159Y-3368287D01*
X6324966Y-3323058D01*
X6209047Y-3300000D01*
X6090857Y-3300000D01*
X5974938Y-3323058D01*
X5865745Y-3368287D01*
X5767474Y-3433950D01*
X5683902Y-3517522D01*
X5618239Y-3615793D01*
X5573010Y-3724986D01*
X5549952Y-3840905D01*
X3111607Y-3840905D01*
X5948022Y-1004491D01*
X5865330Y-1204128D01*
X5800000Y-1532565D01*
X5800000Y-1867435D01*
X5865330Y-2195872D01*
X5993479Y-2505252D01*
X6179523Y-2783687D01*
X6416313Y-3020477D01*
X6694748Y-3206521D01*
X7004128Y-3334670D01*
X7332565Y-3400000D01*
X7667435Y-3400000D01*
X7995872Y-3334670D01*
X8305252Y-3206521D01*
X8583687Y-3020477D01*
X8820477Y-2783687D01*
X9006521Y-2505252D01*
X9134670Y-2195872D01*
X9200000Y-1867435D01*
X9200000Y-1532565D01*
X9134670Y-1204128D01*
X9006521Y-894748D01*
X8820477Y-616313D01*
X8583687Y-379523D01*
X8502087Y-325000D01*
X10897913Y-325000D01*
X10816313Y-379523D01*
G37*
G04 #@! TD.AperFunction*
G04 #@! TD*
D22*
X5900000Y-23000010D03*
X8300000Y-23000000D03*
X5800000Y-25699942D03*
X6799999Y-32300001D03*
X8399998Y-25700002D03*
X6700000Y-35800000D03*
X10699998Y-32700000D03*
X6500000Y-33900000D03*
X4100000Y-29800000D03*
X5700000Y-28500000D03*
X6300000Y-28500000D03*
X6900000Y-28500000D03*
X7500000Y-28500000D03*
X8100000Y-28500000D03*
X8100000Y-29300000D03*
X7500000Y-29300000D03*
X6900000Y-29300000D03*
X6300000Y-29300000D03*
X5700000Y-29300000D03*
X6500000Y-32800000D03*
X8843750Y-24956250D03*
X4709169Y-34729766D03*
X11300000Y-21400000D03*
X22198192Y-31251808D03*
X22400000Y-33600000D03*
X24000000Y-21650000D03*
X12500466Y-12525005D03*
X22600000Y-21500000D03*
X5299992Y-21000000D03*
X10400000Y-12250000D03*
X9800000Y-12250000D03*
X9200000Y-12250000D03*
X9200000Y-12850000D03*
X9800000Y-12850000D03*
X10400000Y-12850000D03*
X11000000Y-12850000D03*
X11000000Y-12250000D03*
X17600000Y-12250000D03*
X18200000Y-12250000D03*
X18800000Y-12275002D03*
X18800000Y-12850000D03*
X18200000Y-12850000D03*
X17600000Y-12850000D03*
X17000000Y-12850000D03*
X16400000Y-12850000D03*
X16400000Y-12250000D03*
X17000000Y-12250000D03*
X11600000Y-12850000D03*
X11600000Y-12250000D03*
X9200000Y-13450000D03*
X9800000Y-13450000D03*
X10400000Y-13450000D03*
X11000000Y-13450000D03*
X11600000Y-13450000D03*
X16400000Y-13450000D03*
X17000000Y-13450000D03*
X17600000Y-13450000D03*
X18200000Y-13450000D03*
X18800000Y-13450000D03*
X20050000Y-28350000D03*
X20050000Y-28950000D03*
X20050000Y-29550000D03*
X19450000Y-29550000D03*
X18850000Y-29550000D03*
X19750000Y-27450000D03*
X19150000Y-27450000D03*
X18550000Y-27450000D03*
X18550000Y-26850000D03*
X19150000Y-26850000D03*
X19750000Y-26850000D03*
X23100000Y-28350000D03*
X23100000Y-28950000D03*
X23225000Y-29575000D03*
X16950000Y-30250000D03*
X5000000Y-26949989D03*
X8400000Y-31200000D03*
X5075022Y-30917992D03*
X21850032Y-3900000D03*
X6149952Y-3900000D03*
X15109998Y-8930000D03*
X21350000Y-24150000D03*
X22600000Y-6300000D03*
X5400000Y-6400000D03*
X5100000Y-18500000D03*
X22900000Y-18500000D03*
X18600010Y-24469549D03*
X8200000Y-8100000D03*
X19150000Y-8150000D03*
X25637500Y-31012500D03*
X25650000Y-32500000D03*
X17300000Y-26450000D03*
X13900487Y-11250000D03*
X22300000Y-35899998D03*
X24800000Y-22600000D03*
X14000002Y-7700002D03*
X13075461Y-10898645D03*
X7800000Y-8999992D03*
X24987500Y-25800000D03*
D23*
X7500000Y-1700000D03*
X7500000Y-6100000D03*
X11900000Y-6100000D03*
X11900000Y-1700000D03*
X9700000Y-3900000D03*
D22*
X15600000Y-31300000D03*
X15600000Y-33400000D03*
X15600000Y-35500000D03*
X12400000Y-31300000D03*
X12400000Y-33400000D03*
X12400000Y-35500000D03*
X25099794Y-10392150D03*
X24500617Y-10423551D03*
X25131196Y-10991327D03*
X25249794Y-13192150D03*
X24650617Y-13223551D03*
X25281196Y-13791327D03*
X2718804Y-13791327D03*
X3349383Y-13223551D03*
X2750206Y-13192150D03*
X2868804Y-10991327D03*
X3499383Y-10423551D03*
X2900206Y-10392150D03*
D23*
X14000000Y-21700000D03*
D22*
X15100000Y-28400000D03*
X12900000Y-28400000D03*
X12900000Y-24200000D03*
X12900000Y-26300000D03*
X15100000Y-26300000D03*
X15100000Y-24200000D03*
D23*
X16100000Y-1700000D03*
X16100000Y-6100000D03*
X20500000Y-6100000D03*
X20500000Y-1700000D03*
X18300000Y-3900000D03*
X19400000Y-34700000D03*
D22*
X20800000Y-29350000D03*
X20800000Y-28350000D03*
X22300000Y-29350000D03*
X22300000Y-28350000D03*
X21550000Y-28850000D03*
X11400000Y-11300000D03*
X10400000Y-11300000D03*
X11400000Y-9800000D03*
X10400000Y-9800000D03*
X10900000Y-10550000D03*
X16600000Y-9850000D03*
X17600000Y-9850000D03*
X16600000Y-11350000D03*
X17600000Y-11350000D03*
X17100000Y-10600000D03*
M02*
