G04 #@! TF.GenerationSoftware,KiCad,Pcbnew,5.1.9-73d0e3b20d~88~ubuntu20.04.1*
G04 #@! TF.CreationDate,2021-08-23T09:26:19+03:00*
G04 #@! TF.ProjectId,diff_probe_amplifier,64696666-5f70-4726-9f62-655f616d706c,rev?*
G04 #@! TF.SameCoordinates,Original*
G04 #@! TF.FileFunction,Copper,L2,Inr*
G04 #@! TF.FilePolarity,Positive*
%FSLAX46Y46*%
G04 Gerber Fmt 4.6, Leading zero omitted, Abs format (unit mm)*
G04 Created by KiCad (PCBNEW 5.1.9-73d0e3b20d~88~ubuntu20.04.1) date 2021-08-23 09:26:19*
%MOMM*%
%LPD*%
G01*
G04 APERTURE LIST*
G04 #@! TA.AperFunction,ComponentPad*
%ADD10R,1.000000X0.800000*%
G04 #@! TD*
G04 #@! TA.AperFunction,ComponentPad*
%ADD11C,1.500000*%
G04 #@! TD*
G04 #@! TA.AperFunction,ComponentPad*
%ADD12C,0.600000*%
G04 #@! TD*
G04 #@! TA.AperFunction,ComponentPad*
%ADD13C,4.200000*%
G04 #@! TD*
G04 #@! TA.AperFunction,ViaPad*
%ADD14C,0.600000*%
G04 #@! TD*
G04 #@! TA.AperFunction,Conductor*
%ADD15C,0.300000*%
G04 #@! TD*
G04 #@! TA.AperFunction,Conductor*
%ADD16C,0.500000*%
G04 #@! TD*
G04 #@! TA.AperFunction,Conductor*
%ADD17C,0.350000*%
G04 #@! TD*
%ADD18C,0.300000*%
%ADD19C,0.350000*%
G04 APERTURE END LIST*
D10*
G04 #@! TO.N,GNDA*
G04 #@! TO.C,J1*
X13500000Y-33100000D03*
X13500000Y-32300000D03*
X13500000Y-31500000D03*
X14500000Y-31500000D03*
X14500000Y-32300000D03*
G04 #@! TO.N,+5V*
X15700000Y-34700000D03*
X15700000Y-35500000D03*
X15700000Y-36300000D03*
X12300000Y-34700000D03*
X12300000Y-35500000D03*
X12300000Y-36300000D03*
D11*
G04 #@! TO.N,/OUT*
X14000000Y-29400000D03*
D10*
G04 #@! TO.N,GNDA*
X14500000Y-33100000D03*
G04 #@! TD*
D12*
G04 #@! TO.N,GNDA*
G04 #@! TO.C,J4*
X25099794Y-10392150D03*
X24500617Y-10423551D03*
X25131196Y-10991327D03*
G04 #@! TD*
G04 #@! TO.N,/IN+*
G04 #@! TO.C,J3*
X25349794Y-15392150D03*
X24750617Y-15423551D03*
X25381196Y-15991327D03*
G04 #@! TD*
G04 #@! TO.N,/IN-*
G04 #@! TO.C,J6*
X2618804Y-15991327D03*
X3249383Y-15423551D03*
X2650206Y-15392150D03*
G04 #@! TD*
G04 #@! TO.N,GNDA*
G04 #@! TO.C,J5*
X2868804Y-10991327D03*
X3499383Y-10423551D03*
X2900206Y-10392150D03*
G04 #@! TD*
D13*
G04 #@! TO.N,GNDA*
G04 #@! TO.C,H1*
X19000000Y-34700000D03*
G04 #@! TD*
D12*
G04 #@! TO.N,-6V*
G04 #@! TO.C,U4*
X18550000Y-24600000D03*
X18550000Y-23600000D03*
X20050000Y-24600000D03*
X20050000Y-23600000D03*
X19300000Y-24100000D03*
G04 #@! TD*
G04 #@! TO.N,-6V*
G04 #@! TO.C,U3*
X10400000Y-12750000D03*
X9400000Y-12750000D03*
X10400000Y-11250000D03*
X9400000Y-11250000D03*
X9900000Y-12000000D03*
G04 #@! TD*
G04 #@! TO.N,-6V*
G04 #@! TO.C,U2*
X17600000Y-11250000D03*
X18600000Y-11250000D03*
X17600000Y-12750000D03*
X18600000Y-12750000D03*
X18100000Y-12000000D03*
G04 #@! TD*
D14*
G04 #@! TO.N,GND*
X9100000Y-30700000D03*
X9800000Y-31400000D03*
X8356250Y-29243750D03*
X6800000Y-32900000D03*
X8000000Y-23400000D03*
X9000000Y-21200000D03*
X11400000Y-23591048D03*
X5900000Y-29200000D03*
X5100000Y-29200000D03*
X5900000Y-29800000D03*
X5100000Y-29800000D03*
X5100000Y-30400000D03*
X5900000Y-30400000D03*
X5900000Y-28600000D03*
X5100000Y-28600000D03*
X5100000Y-28000000D03*
X5900000Y-28000000D03*
X2169305Y-35459689D03*
X6800000Y-24800000D03*
X9800000Y-30700000D03*
X2350000Y-23350000D03*
X11400000Y-22950000D03*
X2850027Y-19550027D03*
X13749990Y-22945864D03*
X10249967Y-19550027D03*
X7950027Y-19550027D03*
X12200000Y-21000004D03*
G04 #@! TO.N,Net-(C4-Pad1)*
X6700000Y-34600000D03*
X6100000Y-21600013D03*
X10018750Y-24831250D03*
G04 #@! TO.N,Net-(C5-Pad1)*
X6100000Y-20800000D03*
X5189209Y-34610791D03*
X12650000Y-24950000D03*
G04 #@! TO.N,+6V*
X12790380Y-10809620D03*
X15009620Y-10809620D03*
X19000000Y-27700000D03*
X15700000Y-27700000D03*
X11093750Y-28906250D03*
X22900000Y-27600000D03*
X21800000Y-26400000D03*
X11503370Y-16203370D03*
G04 #@! TO.N,-6V*
X17199986Y-13500000D03*
X17800000Y-13500000D03*
X18400004Y-13500000D03*
X19000000Y-13500006D03*
X17500000Y-14000000D03*
X18100000Y-14000000D03*
X18700000Y-14000000D03*
X9000000Y-13500000D03*
X9600000Y-13500000D03*
X10200000Y-13500000D03*
X10800000Y-13500000D03*
X9300000Y-14000000D03*
X9900000Y-14000000D03*
X10500000Y-14000000D03*
X8712500Y-14012500D03*
X11100000Y-14000000D03*
X16900000Y-14000000D03*
X19300000Y-14000000D03*
X9000000Y-10500000D03*
X9600000Y-10500000D03*
X10200000Y-10500000D03*
X10800000Y-10500000D03*
X17200000Y-10500000D03*
X17800000Y-10500000D03*
X18400000Y-10500000D03*
X19000000Y-10500000D03*
X20800000Y-23200000D03*
X20800000Y-23800000D03*
X20800000Y-24400000D03*
X20800000Y-25000000D03*
X17800000Y-23200000D03*
X17800000Y-23800000D03*
X17800000Y-24400000D03*
X17800000Y-25000000D03*
X17300000Y-23500000D03*
X17300000Y-22900000D03*
X17300000Y-24100000D03*
X17300000Y-24700000D03*
X17300000Y-25300000D03*
X16800000Y-23200000D03*
X16800000Y-22600000D03*
X16800000Y-23800000D03*
X16800000Y-24400000D03*
X16800000Y-25000000D03*
X16800000Y-25600000D03*
X23500000Y-31000000D03*
X16300000Y-22900000D03*
X16300004Y-22300000D03*
X16300000Y-23500000D03*
X16300000Y-24100000D03*
X16300000Y-24700000D03*
X16300000Y-25300000D03*
X16300000Y-25900000D03*
X14088897Y-27149573D03*
G04 #@! TO.N,Net-(C26-Pad1)*
X7675000Y-31115908D03*
X7800000Y-28300000D03*
X3487095Y-31027421D03*
X10000002Y-35700000D03*
X10000000Y-36299984D03*
X7800000Y-27700000D03*
G04 #@! TO.N,/CONN_IN+*
X19800000Y-3850000D03*
G04 #@! TO.N,/CONN_IN-*
X8200000Y-3850000D03*
G04 #@! TO.N,GNDA*
X24200000Y-24600000D03*
X9600000Y-15600000D03*
X22900000Y-8850012D03*
X14800000Y-13600000D03*
X12999987Y-13578597D03*
X16700000Y-20500000D03*
X5900000Y-16200000D03*
X22100000Y-16200000D03*
X22100000Y-17700000D03*
X12500000Y-19100000D03*
X6080000Y-2415000D03*
X10320000Y-2415000D03*
X17808782Y-2536827D03*
X21920000Y-2415000D03*
X6174990Y-4874990D03*
X17700000Y-4900000D03*
X21825010Y-4825010D03*
X15500000Y-19100000D03*
X10300000Y-4900000D03*
X15000000Y-8700000D03*
X12800000Y-8700000D03*
X17524882Y1000000D03*
X17524966Y-750000D03*
X10475030Y1000000D03*
X10475020Y-700000D03*
X24000000Y-33800000D03*
X5900000Y-17700000D03*
X2900000Y-18100000D03*
X10200000Y-18100000D03*
X23600000Y-24600000D03*
X13749990Y-20600000D03*
X15270711Y-26210049D03*
X8000000Y-18100000D03*
X15270711Y-22929289D03*
X14900000Y-28450006D03*
X5800000Y1000000D03*
X22300000Y1000000D03*
G04 #@! TD*
D15*
G04 #@! TO.N,GND*
X2169305Y-35459689D02*
X2469304Y-35159690D01*
X2469304Y-19930750D02*
X2850027Y-19550027D01*
X2469304Y-35159690D02*
X2469304Y-19930750D01*
X10354153Y-19550027D02*
X10249967Y-19550027D01*
X13749990Y-22945864D02*
X10354153Y-19550027D01*
G04 #@! TO.N,+6V*
X11761438Y-11838562D02*
X12790380Y-10809620D01*
X11761438Y-15945302D02*
X11761438Y-11838562D01*
X11503370Y-16203370D02*
X11761438Y-15945302D01*
G04 #@! TO.N,GNDA*
X17700000Y-6000000D02*
X15000000Y-8700000D01*
X17700000Y-4900000D02*
X17700000Y-6000000D01*
X15000000Y-8700000D02*
X12800000Y-8700000D01*
D16*
X3300000Y-17700000D02*
X2900000Y-18100000D01*
X5900000Y-17700000D02*
X3300000Y-17700000D01*
X9800000Y-17700000D02*
X10200000Y-18100000D01*
X5900000Y-17700000D02*
X9800000Y-17700000D01*
D15*
X14900000Y-26580760D02*
X14900000Y-28450006D01*
X15270711Y-26210049D02*
X14900000Y-26580760D01*
G04 #@! TD*
G04 #@! TO.N,GND*
X13850000Y-22562132D02*
X13850000Y-25937868D01*
X11435210Y-28352658D01*
X11401640Y-28330228D01*
X11283348Y-28281229D01*
X11157769Y-28256250D01*
X11029731Y-28256250D01*
X10904152Y-28281229D01*
X10785860Y-28330228D01*
X10679399Y-28401362D01*
X10588862Y-28491899D01*
X10517728Y-28598360D01*
X10468729Y-28716652D01*
X10443750Y-28842231D01*
X10443750Y-28970269D01*
X10468729Y-29095848D01*
X10517728Y-29214140D01*
X10540158Y-29247710D01*
X10393934Y-29393934D01*
X10375280Y-29416664D01*
X10361418Y-29442597D01*
X10352882Y-29470736D01*
X10350000Y-29500000D01*
X10350000Y-35152113D01*
X10307892Y-35123978D01*
X10189600Y-35074979D01*
X10064021Y-35050000D01*
X9935983Y-35050000D01*
X9810404Y-35074979D01*
X9692112Y-35123978D01*
X9585651Y-35195112D01*
X9495114Y-35285649D01*
X9423980Y-35392110D01*
X9374981Y-35510402D01*
X9350002Y-35635981D01*
X9350002Y-35764019D01*
X9374981Y-35889598D01*
X9420707Y-35999990D01*
X9374979Y-36110386D01*
X9350000Y-36235965D01*
X9350000Y-36364003D01*
X9374979Y-36489582D01*
X9423978Y-36607874D01*
X9435421Y-36625000D01*
X3518337Y-36625000D01*
X3126449Y-36586575D01*
X2767123Y-36478088D01*
X2435716Y-36301876D01*
X2144848Y-36064650D01*
X1905592Y-35775438D01*
X1727071Y-35445270D01*
X1616080Y-35086716D01*
X1575397Y-34699647D01*
X1576837Y-34616598D01*
X1580243Y-34546772D01*
X4539209Y-34546772D01*
X4539209Y-34674810D01*
X4564188Y-34800389D01*
X4613187Y-34918681D01*
X4684321Y-35025142D01*
X4774858Y-35115679D01*
X4881319Y-35186813D01*
X4999611Y-35235812D01*
X5125190Y-35260791D01*
X5253228Y-35260791D01*
X5378807Y-35235812D01*
X5497099Y-35186813D01*
X5603560Y-35115679D01*
X5694097Y-35025142D01*
X5765231Y-34918681D01*
X5814230Y-34800389D01*
X5839209Y-34674810D01*
X5839209Y-34546772D01*
X5837063Y-34535981D01*
X6050000Y-34535981D01*
X6050000Y-34664019D01*
X6074979Y-34789598D01*
X6123978Y-34907890D01*
X6195112Y-35014351D01*
X6285649Y-35104888D01*
X6392110Y-35176022D01*
X6510402Y-35225021D01*
X6635981Y-35250000D01*
X6764019Y-35250000D01*
X6889598Y-35225021D01*
X7007890Y-35176022D01*
X7114351Y-35104888D01*
X7204888Y-35014351D01*
X7276022Y-34907890D01*
X7325021Y-34789598D01*
X7350000Y-34664019D01*
X7350000Y-34535981D01*
X7325021Y-34410402D01*
X7276022Y-34292110D01*
X7204888Y-34185649D01*
X7114351Y-34095112D01*
X7007890Y-34023978D01*
X6889598Y-33974979D01*
X6764019Y-33950000D01*
X6635981Y-33950000D01*
X6510402Y-33974979D01*
X6392110Y-34023978D01*
X6285649Y-34095112D01*
X6195112Y-34185649D01*
X6123978Y-34292110D01*
X6074979Y-34410402D01*
X6050000Y-34535981D01*
X5837063Y-34535981D01*
X5814230Y-34421193D01*
X5765231Y-34302901D01*
X5694097Y-34196440D01*
X5603560Y-34105903D01*
X5497099Y-34034769D01*
X5378807Y-33985770D01*
X5253228Y-33960791D01*
X5125190Y-33960791D01*
X4999611Y-33985770D01*
X4881319Y-34034769D01*
X4774858Y-34105903D01*
X4684321Y-34196440D01*
X4613187Y-34302901D01*
X4564188Y-34421193D01*
X4539209Y-34546772D01*
X1580243Y-34546772D01*
X1755066Y-30963402D01*
X2837095Y-30963402D01*
X2837095Y-31091440D01*
X2862074Y-31217019D01*
X2911073Y-31335311D01*
X2982207Y-31441772D01*
X3072744Y-31532309D01*
X3179205Y-31603443D01*
X3297497Y-31652442D01*
X3423076Y-31677421D01*
X3551114Y-31677421D01*
X3676693Y-31652442D01*
X3794985Y-31603443D01*
X3901446Y-31532309D01*
X3991983Y-31441772D01*
X4063117Y-31335311D01*
X4112116Y-31217019D01*
X4137095Y-31091440D01*
X4137095Y-31051889D01*
X7025000Y-31051889D01*
X7025000Y-31179927D01*
X7049979Y-31305506D01*
X7098978Y-31423798D01*
X7170112Y-31530259D01*
X7260649Y-31620796D01*
X7367110Y-31691930D01*
X7485402Y-31740929D01*
X7610981Y-31765908D01*
X7739019Y-31765908D01*
X7864598Y-31740929D01*
X7982890Y-31691930D01*
X8089351Y-31620796D01*
X8179888Y-31530259D01*
X8251022Y-31423798D01*
X8300021Y-31305506D01*
X8325000Y-31179927D01*
X8325000Y-31051889D01*
X8300021Y-30926310D01*
X8251022Y-30808018D01*
X8179888Y-30701557D01*
X8089351Y-30611020D01*
X7982890Y-30539886D01*
X7864598Y-30490887D01*
X7739019Y-30465908D01*
X7610981Y-30465908D01*
X7485402Y-30490887D01*
X7367110Y-30539886D01*
X7260649Y-30611020D01*
X7170112Y-30701557D01*
X7098978Y-30808018D01*
X7049979Y-30926310D01*
X7025000Y-31051889D01*
X4137095Y-31051889D01*
X4137095Y-30963402D01*
X4112116Y-30837823D01*
X4063117Y-30719531D01*
X3991983Y-30613070D01*
X3901446Y-30522533D01*
X3794985Y-30451399D01*
X3676693Y-30402400D01*
X3551114Y-30377421D01*
X3423076Y-30377421D01*
X3297497Y-30402400D01*
X3179205Y-30451399D01*
X3072744Y-30522533D01*
X2982207Y-30613070D01*
X2911073Y-30719531D01*
X2862074Y-30837823D01*
X2837095Y-30963402D01*
X1755066Y-30963402D01*
X1917402Y-27635981D01*
X7150000Y-27635981D01*
X7150000Y-27764019D01*
X7174979Y-27889598D01*
X7220710Y-28000000D01*
X7174979Y-28110402D01*
X7150000Y-28235981D01*
X7150000Y-28364019D01*
X7174979Y-28489598D01*
X7223978Y-28607890D01*
X7295112Y-28714351D01*
X7385649Y-28804888D01*
X7492110Y-28876022D01*
X7610402Y-28925021D01*
X7735981Y-28950000D01*
X7864019Y-28950000D01*
X7989598Y-28925021D01*
X8107890Y-28876022D01*
X8214351Y-28804888D01*
X8304888Y-28714351D01*
X8376022Y-28607890D01*
X8425021Y-28489598D01*
X8450000Y-28364019D01*
X8450000Y-28235981D01*
X8425021Y-28110402D01*
X8379290Y-28000000D01*
X8425021Y-27889598D01*
X8450000Y-27764019D01*
X8450000Y-27635981D01*
X8425021Y-27510402D01*
X8376022Y-27392110D01*
X8304888Y-27285649D01*
X8214351Y-27195112D01*
X8107890Y-27123978D01*
X7989598Y-27074979D01*
X7864019Y-27050000D01*
X7735981Y-27050000D01*
X7610402Y-27074979D01*
X7492110Y-27123978D01*
X7385649Y-27195112D01*
X7295112Y-27285649D01*
X7223978Y-27392110D01*
X7174979Y-27510402D01*
X7150000Y-27635981D01*
X1917402Y-27635981D01*
X2057360Y-24767231D01*
X9368750Y-24767231D01*
X9368750Y-24895269D01*
X9393729Y-25020848D01*
X9442728Y-25139140D01*
X9513862Y-25245601D01*
X9604399Y-25336138D01*
X9710860Y-25407272D01*
X9829152Y-25456271D01*
X9954731Y-25481250D01*
X10082769Y-25481250D01*
X10208348Y-25456271D01*
X10326640Y-25407272D01*
X10433101Y-25336138D01*
X10523638Y-25245601D01*
X10594772Y-25139140D01*
X10643771Y-25020848D01*
X10668750Y-24895269D01*
X10668750Y-24885981D01*
X12000000Y-24885981D01*
X12000000Y-25014019D01*
X12024979Y-25139598D01*
X12073978Y-25257890D01*
X12145112Y-25364351D01*
X12235649Y-25454888D01*
X12342110Y-25526022D01*
X12460402Y-25575021D01*
X12585981Y-25600000D01*
X12714019Y-25600000D01*
X12839598Y-25575021D01*
X12957890Y-25526022D01*
X13064351Y-25454888D01*
X13154888Y-25364351D01*
X13226022Y-25257890D01*
X13275021Y-25139598D01*
X13300000Y-25014019D01*
X13300000Y-24885981D01*
X13275021Y-24760402D01*
X13226022Y-24642110D01*
X13154888Y-24535649D01*
X13064351Y-24445112D01*
X12957890Y-24373978D01*
X12839598Y-24324979D01*
X12714019Y-24300000D01*
X12585981Y-24300000D01*
X12460402Y-24324979D01*
X12342110Y-24373978D01*
X12235649Y-24445112D01*
X12145112Y-24535649D01*
X12073978Y-24642110D01*
X12024979Y-24760402D01*
X12000000Y-24885981D01*
X10668750Y-24885981D01*
X10668750Y-24767231D01*
X10643771Y-24641652D01*
X10594772Y-24523360D01*
X10523638Y-24416899D01*
X10433101Y-24326362D01*
X10326640Y-24255228D01*
X10208348Y-24206229D01*
X10082769Y-24181250D01*
X9954731Y-24181250D01*
X9829152Y-24206229D01*
X9710860Y-24255228D01*
X9604399Y-24326362D01*
X9513862Y-24416899D01*
X9442728Y-24523360D01*
X9393729Y-24641652D01*
X9368750Y-24767231D01*
X2057360Y-24767231D01*
X2254035Y-20735981D01*
X5450000Y-20735981D01*
X5450000Y-20864019D01*
X5474979Y-20989598D01*
X5523978Y-21107890D01*
X5585527Y-21200007D01*
X5523978Y-21292123D01*
X5474979Y-21410415D01*
X5450000Y-21535994D01*
X5450000Y-21664032D01*
X5474979Y-21789611D01*
X5523978Y-21907903D01*
X5595112Y-22014364D01*
X5685649Y-22104901D01*
X5792110Y-22176035D01*
X5910402Y-22225034D01*
X6035981Y-22250013D01*
X6164019Y-22250013D01*
X6289598Y-22225034D01*
X6407890Y-22176035D01*
X6514351Y-22104901D01*
X6604888Y-22014364D01*
X6676022Y-21907903D01*
X6725021Y-21789611D01*
X6750000Y-21664032D01*
X6750000Y-21535994D01*
X6725021Y-21410415D01*
X6676022Y-21292123D01*
X6614473Y-21200007D01*
X6676022Y-21107890D01*
X6725021Y-20989598D01*
X6750000Y-20864019D01*
X6750000Y-20735981D01*
X6725021Y-20610402D01*
X6676022Y-20492110D01*
X6604888Y-20385649D01*
X6514351Y-20295112D01*
X6407890Y-20223978D01*
X6289598Y-20174979D01*
X6164019Y-20150000D01*
X6035981Y-20150000D01*
X5910402Y-20174979D01*
X5792110Y-20223978D01*
X5685649Y-20295112D01*
X5595112Y-20385649D01*
X5523978Y-20492110D01*
X5474979Y-20610402D01*
X5450000Y-20735981D01*
X2254035Y-20735981D01*
X2316775Y-19450000D01*
X10737868Y-19450000D01*
X13850000Y-22562132D01*
G04 #@! TA.AperFunction,Conductor*
D17*
G36*
X13850000Y-22562132D02*
G01*
X13850000Y-25937868D01*
X11435210Y-28352658D01*
X11401640Y-28330228D01*
X11283348Y-28281229D01*
X11157769Y-28256250D01*
X11029731Y-28256250D01*
X10904152Y-28281229D01*
X10785860Y-28330228D01*
X10679399Y-28401362D01*
X10588862Y-28491899D01*
X10517728Y-28598360D01*
X10468729Y-28716652D01*
X10443750Y-28842231D01*
X10443750Y-28970269D01*
X10468729Y-29095848D01*
X10517728Y-29214140D01*
X10540158Y-29247710D01*
X10393934Y-29393934D01*
X10375280Y-29416664D01*
X10361418Y-29442597D01*
X10352882Y-29470736D01*
X10350000Y-29500000D01*
X10350000Y-35152113D01*
X10307892Y-35123978D01*
X10189600Y-35074979D01*
X10064021Y-35050000D01*
X9935983Y-35050000D01*
X9810404Y-35074979D01*
X9692112Y-35123978D01*
X9585651Y-35195112D01*
X9495114Y-35285649D01*
X9423980Y-35392110D01*
X9374981Y-35510402D01*
X9350002Y-35635981D01*
X9350002Y-35764019D01*
X9374981Y-35889598D01*
X9420707Y-35999990D01*
X9374979Y-36110386D01*
X9350000Y-36235965D01*
X9350000Y-36364003D01*
X9374979Y-36489582D01*
X9423978Y-36607874D01*
X9435421Y-36625000D01*
X3518337Y-36625000D01*
X3126449Y-36586575D01*
X2767123Y-36478088D01*
X2435716Y-36301876D01*
X2144848Y-36064650D01*
X1905592Y-35775438D01*
X1727071Y-35445270D01*
X1616080Y-35086716D01*
X1575397Y-34699647D01*
X1576837Y-34616598D01*
X1580243Y-34546772D01*
X4539209Y-34546772D01*
X4539209Y-34674810D01*
X4564188Y-34800389D01*
X4613187Y-34918681D01*
X4684321Y-35025142D01*
X4774858Y-35115679D01*
X4881319Y-35186813D01*
X4999611Y-35235812D01*
X5125190Y-35260791D01*
X5253228Y-35260791D01*
X5378807Y-35235812D01*
X5497099Y-35186813D01*
X5603560Y-35115679D01*
X5694097Y-35025142D01*
X5765231Y-34918681D01*
X5814230Y-34800389D01*
X5839209Y-34674810D01*
X5839209Y-34546772D01*
X5837063Y-34535981D01*
X6050000Y-34535981D01*
X6050000Y-34664019D01*
X6074979Y-34789598D01*
X6123978Y-34907890D01*
X6195112Y-35014351D01*
X6285649Y-35104888D01*
X6392110Y-35176022D01*
X6510402Y-35225021D01*
X6635981Y-35250000D01*
X6764019Y-35250000D01*
X6889598Y-35225021D01*
X7007890Y-35176022D01*
X7114351Y-35104888D01*
X7204888Y-35014351D01*
X7276022Y-34907890D01*
X7325021Y-34789598D01*
X7350000Y-34664019D01*
X7350000Y-34535981D01*
X7325021Y-34410402D01*
X7276022Y-34292110D01*
X7204888Y-34185649D01*
X7114351Y-34095112D01*
X7007890Y-34023978D01*
X6889598Y-33974979D01*
X6764019Y-33950000D01*
X6635981Y-33950000D01*
X6510402Y-33974979D01*
X6392110Y-34023978D01*
X6285649Y-34095112D01*
X6195112Y-34185649D01*
X6123978Y-34292110D01*
X6074979Y-34410402D01*
X6050000Y-34535981D01*
X5837063Y-34535981D01*
X5814230Y-34421193D01*
X5765231Y-34302901D01*
X5694097Y-34196440D01*
X5603560Y-34105903D01*
X5497099Y-34034769D01*
X5378807Y-33985770D01*
X5253228Y-33960791D01*
X5125190Y-33960791D01*
X4999611Y-33985770D01*
X4881319Y-34034769D01*
X4774858Y-34105903D01*
X4684321Y-34196440D01*
X4613187Y-34302901D01*
X4564188Y-34421193D01*
X4539209Y-34546772D01*
X1580243Y-34546772D01*
X1755066Y-30963402D01*
X2837095Y-30963402D01*
X2837095Y-31091440D01*
X2862074Y-31217019D01*
X2911073Y-31335311D01*
X2982207Y-31441772D01*
X3072744Y-31532309D01*
X3179205Y-31603443D01*
X3297497Y-31652442D01*
X3423076Y-31677421D01*
X3551114Y-31677421D01*
X3676693Y-31652442D01*
X3794985Y-31603443D01*
X3901446Y-31532309D01*
X3991983Y-31441772D01*
X4063117Y-31335311D01*
X4112116Y-31217019D01*
X4137095Y-31091440D01*
X4137095Y-31051889D01*
X7025000Y-31051889D01*
X7025000Y-31179927D01*
X7049979Y-31305506D01*
X7098978Y-31423798D01*
X7170112Y-31530259D01*
X7260649Y-31620796D01*
X7367110Y-31691930D01*
X7485402Y-31740929D01*
X7610981Y-31765908D01*
X7739019Y-31765908D01*
X7864598Y-31740929D01*
X7982890Y-31691930D01*
X8089351Y-31620796D01*
X8179888Y-31530259D01*
X8251022Y-31423798D01*
X8300021Y-31305506D01*
X8325000Y-31179927D01*
X8325000Y-31051889D01*
X8300021Y-30926310D01*
X8251022Y-30808018D01*
X8179888Y-30701557D01*
X8089351Y-30611020D01*
X7982890Y-30539886D01*
X7864598Y-30490887D01*
X7739019Y-30465908D01*
X7610981Y-30465908D01*
X7485402Y-30490887D01*
X7367110Y-30539886D01*
X7260649Y-30611020D01*
X7170112Y-30701557D01*
X7098978Y-30808018D01*
X7049979Y-30926310D01*
X7025000Y-31051889D01*
X4137095Y-31051889D01*
X4137095Y-30963402D01*
X4112116Y-30837823D01*
X4063117Y-30719531D01*
X3991983Y-30613070D01*
X3901446Y-30522533D01*
X3794985Y-30451399D01*
X3676693Y-30402400D01*
X3551114Y-30377421D01*
X3423076Y-30377421D01*
X3297497Y-30402400D01*
X3179205Y-30451399D01*
X3072744Y-30522533D01*
X2982207Y-30613070D01*
X2911073Y-30719531D01*
X2862074Y-30837823D01*
X2837095Y-30963402D01*
X1755066Y-30963402D01*
X1917402Y-27635981D01*
X7150000Y-27635981D01*
X7150000Y-27764019D01*
X7174979Y-27889598D01*
X7220710Y-28000000D01*
X7174979Y-28110402D01*
X7150000Y-28235981D01*
X7150000Y-28364019D01*
X7174979Y-28489598D01*
X7223978Y-28607890D01*
X7295112Y-28714351D01*
X7385649Y-28804888D01*
X7492110Y-28876022D01*
X7610402Y-28925021D01*
X7735981Y-28950000D01*
X7864019Y-28950000D01*
X7989598Y-28925021D01*
X8107890Y-28876022D01*
X8214351Y-28804888D01*
X8304888Y-28714351D01*
X8376022Y-28607890D01*
X8425021Y-28489598D01*
X8450000Y-28364019D01*
X8450000Y-28235981D01*
X8425021Y-28110402D01*
X8379290Y-28000000D01*
X8425021Y-27889598D01*
X8450000Y-27764019D01*
X8450000Y-27635981D01*
X8425021Y-27510402D01*
X8376022Y-27392110D01*
X8304888Y-27285649D01*
X8214351Y-27195112D01*
X8107890Y-27123978D01*
X7989598Y-27074979D01*
X7864019Y-27050000D01*
X7735981Y-27050000D01*
X7610402Y-27074979D01*
X7492110Y-27123978D01*
X7385649Y-27195112D01*
X7295112Y-27285649D01*
X7223978Y-27392110D01*
X7174979Y-27510402D01*
X7150000Y-27635981D01*
X1917402Y-27635981D01*
X2057360Y-24767231D01*
X9368750Y-24767231D01*
X9368750Y-24895269D01*
X9393729Y-25020848D01*
X9442728Y-25139140D01*
X9513862Y-25245601D01*
X9604399Y-25336138D01*
X9710860Y-25407272D01*
X9829152Y-25456271D01*
X9954731Y-25481250D01*
X10082769Y-25481250D01*
X10208348Y-25456271D01*
X10326640Y-25407272D01*
X10433101Y-25336138D01*
X10523638Y-25245601D01*
X10594772Y-25139140D01*
X10643771Y-25020848D01*
X10668750Y-24895269D01*
X10668750Y-24885981D01*
X12000000Y-24885981D01*
X12000000Y-25014019D01*
X12024979Y-25139598D01*
X12073978Y-25257890D01*
X12145112Y-25364351D01*
X12235649Y-25454888D01*
X12342110Y-25526022D01*
X12460402Y-25575021D01*
X12585981Y-25600000D01*
X12714019Y-25600000D01*
X12839598Y-25575021D01*
X12957890Y-25526022D01*
X13064351Y-25454888D01*
X13154888Y-25364351D01*
X13226022Y-25257890D01*
X13275021Y-25139598D01*
X13300000Y-25014019D01*
X13300000Y-24885981D01*
X13275021Y-24760402D01*
X13226022Y-24642110D01*
X13154888Y-24535649D01*
X13064351Y-24445112D01*
X12957890Y-24373978D01*
X12839598Y-24324979D01*
X12714019Y-24300000D01*
X12585981Y-24300000D01*
X12460402Y-24324979D01*
X12342110Y-24373978D01*
X12235649Y-24445112D01*
X12145112Y-24535649D01*
X12073978Y-24642110D01*
X12024979Y-24760402D01*
X12000000Y-24885981D01*
X10668750Y-24885981D01*
X10668750Y-24767231D01*
X10643771Y-24641652D01*
X10594772Y-24523360D01*
X10523638Y-24416899D01*
X10433101Y-24326362D01*
X10326640Y-24255228D01*
X10208348Y-24206229D01*
X10082769Y-24181250D01*
X9954731Y-24181250D01*
X9829152Y-24206229D01*
X9710860Y-24255228D01*
X9604399Y-24326362D01*
X9513862Y-24416899D01*
X9442728Y-24523360D01*
X9393729Y-24641652D01*
X9368750Y-24767231D01*
X2057360Y-24767231D01*
X2254035Y-20735981D01*
X5450000Y-20735981D01*
X5450000Y-20864019D01*
X5474979Y-20989598D01*
X5523978Y-21107890D01*
X5585527Y-21200007D01*
X5523978Y-21292123D01*
X5474979Y-21410415D01*
X5450000Y-21535994D01*
X5450000Y-21664032D01*
X5474979Y-21789611D01*
X5523978Y-21907903D01*
X5595112Y-22014364D01*
X5685649Y-22104901D01*
X5792110Y-22176035D01*
X5910402Y-22225034D01*
X6035981Y-22250013D01*
X6164019Y-22250013D01*
X6289598Y-22225034D01*
X6407890Y-22176035D01*
X6514351Y-22104901D01*
X6604888Y-22014364D01*
X6676022Y-21907903D01*
X6725021Y-21789611D01*
X6750000Y-21664032D01*
X6750000Y-21535994D01*
X6725021Y-21410415D01*
X6676022Y-21292123D01*
X6614473Y-21200007D01*
X6676022Y-21107890D01*
X6725021Y-20989598D01*
X6750000Y-20864019D01*
X6750000Y-20735981D01*
X6725021Y-20610402D01*
X6676022Y-20492110D01*
X6604888Y-20385649D01*
X6514351Y-20295112D01*
X6407890Y-20223978D01*
X6289598Y-20174979D01*
X6164019Y-20150000D01*
X6035981Y-20150000D01*
X5910402Y-20174979D01*
X5792110Y-20223978D01*
X5685649Y-20295112D01*
X5595112Y-20385649D01*
X5523978Y-20492110D01*
X5474979Y-20610402D01*
X5450000Y-20735981D01*
X2254035Y-20735981D01*
X2316775Y-19450000D01*
X10737868Y-19450000D01*
X13850000Y-22562132D01*
G37*
G04 #@! TD.AperFunction*
G04 #@! TD*
D15*
G04 #@! TO.N,GNDA*
X6075001Y-1668419D02*
X6076577Y-1684424D01*
X6076556Y-1687477D01*
X6077066Y-1692689D01*
X6087266Y-1789737D01*
X6094111Y-1823081D01*
X6100470Y-1856416D01*
X6101983Y-1861429D01*
X6130838Y-1954648D01*
X6144024Y-1986016D01*
X6156743Y-2017495D01*
X6159201Y-2022119D01*
X6205613Y-2107956D01*
X6224626Y-2136143D01*
X6243230Y-2164573D01*
X6246539Y-2168631D01*
X6308741Y-2243819D01*
X6332831Y-2267741D01*
X6356635Y-2292049D01*
X6360670Y-2295387D01*
X6436291Y-2357063D01*
X6464576Y-2375856D01*
X6492648Y-2395077D01*
X6497254Y-2397567D01*
X6583415Y-2443379D01*
X6614826Y-2456326D01*
X6646075Y-2469719D01*
X6651077Y-2471267D01*
X6744495Y-2499472D01*
X6777824Y-2506072D01*
X6811084Y-2513141D01*
X6816285Y-2513687D01*
X6816288Y-2513688D01*
X6816291Y-2513688D01*
X6912931Y-2523163D01*
X6931581Y-2525000D01*
X9468419Y-2525000D01*
X9484434Y-2523423D01*
X9487477Y-2523444D01*
X9492689Y-2522934D01*
X9589737Y-2512734D01*
X9623081Y-2505889D01*
X9656416Y-2499530D01*
X9661429Y-2498017D01*
X9754648Y-2469162D01*
X9786016Y-2455976D01*
X9817495Y-2443257D01*
X9822119Y-2440799D01*
X9907956Y-2394387D01*
X9936143Y-2375374D01*
X9964573Y-2356770D01*
X9968631Y-2353461D01*
X10043819Y-2291259D01*
X10067741Y-2267169D01*
X10092049Y-2243365D01*
X10095387Y-2239330D01*
X10157063Y-2163709D01*
X10175856Y-2135424D01*
X10195077Y-2107352D01*
X10197567Y-2102746D01*
X10243379Y-2016585D01*
X10256326Y-1985174D01*
X10269719Y-1953925D01*
X10271267Y-1948923D01*
X10299472Y-1855505D01*
X10306072Y-1822176D01*
X10313141Y-1788916D01*
X10313688Y-1783709D01*
X10323210Y-1686592D01*
X10325000Y-1668419D01*
X10325000Y1225000D01*
X17675000Y1225000D01*
X17675001Y-1668419D01*
X17676577Y-1684424D01*
X17676556Y-1687477D01*
X17677066Y-1692689D01*
X17687266Y-1789737D01*
X17694111Y-1823081D01*
X17700470Y-1856416D01*
X17701983Y-1861429D01*
X17730838Y-1954648D01*
X17744024Y-1986016D01*
X17756743Y-2017495D01*
X17759201Y-2022119D01*
X17805613Y-2107956D01*
X17824626Y-2136143D01*
X17843230Y-2164573D01*
X17846539Y-2168631D01*
X17908741Y-2243819D01*
X17932831Y-2267741D01*
X17956635Y-2292049D01*
X17960670Y-2295387D01*
X18036291Y-2357063D01*
X18064576Y-2375856D01*
X18092648Y-2395077D01*
X18097254Y-2397567D01*
X18183415Y-2443379D01*
X18214826Y-2456326D01*
X18246075Y-2469719D01*
X18251077Y-2471267D01*
X18344495Y-2499472D01*
X18377824Y-2506072D01*
X18411084Y-2513141D01*
X18416285Y-2513687D01*
X18416288Y-2513688D01*
X18416291Y-2513688D01*
X18512931Y-2523163D01*
X18531581Y-2525000D01*
X21068419Y-2525000D01*
X21084434Y-2523423D01*
X21087477Y-2523444D01*
X21092689Y-2522934D01*
X21189737Y-2512734D01*
X21223081Y-2505889D01*
X21256416Y-2499530D01*
X21261429Y-2498017D01*
X21354648Y-2469162D01*
X21386016Y-2455976D01*
X21417495Y-2443257D01*
X21422119Y-2440799D01*
X21507956Y-2394387D01*
X21536143Y-2375374D01*
X21564573Y-2356770D01*
X21568631Y-2353461D01*
X21643819Y-2291259D01*
X21667741Y-2267169D01*
X21692049Y-2243365D01*
X21695387Y-2239330D01*
X21757063Y-2163709D01*
X21775856Y-2135424D01*
X21795077Y-2107352D01*
X21797567Y-2102746D01*
X21843379Y-2016585D01*
X21856326Y-1985174D01*
X21869719Y-1953925D01*
X21871267Y-1948923D01*
X21899472Y-1855505D01*
X21906072Y-1822176D01*
X21913141Y-1788916D01*
X21913688Y-1783709D01*
X21923210Y-1686592D01*
X21925000Y-1668419D01*
X21925000Y1225000D01*
X23681662Y1225000D01*
X23898738Y1203715D01*
X24089913Y1145996D01*
X24266231Y1052247D01*
X24420984Y926033D01*
X24548272Y772169D01*
X24643252Y596506D01*
X24702302Y405743D01*
X24725097Y188871D01*
X25364794Y-12923074D01*
X23964645Y-14323223D01*
X23945991Y-14345953D01*
X23932129Y-14371886D01*
X23861418Y-14542597D01*
X23852882Y-14570736D01*
X23850000Y-14600000D01*
X23850000Y-16400000D01*
X23852882Y-16429264D01*
X23861418Y-16457403D01*
X23932129Y-16628114D01*
X23945991Y-16654047D01*
X23964645Y-16676777D01*
X25629133Y-18341265D01*
X26422493Y-34602872D01*
X26400491Y-34994687D01*
X26307056Y-35358221D01*
X26144795Y-35696672D01*
X25919883Y-35997165D01*
X25640884Y-36248254D01*
X25318432Y-36440366D01*
X24964806Y-36566190D01*
X24579765Y-36622950D01*
X24495450Y-36625000D01*
X16551693Y-36625000D01*
X16551693Y-34300000D01*
X16544935Y-34231388D01*
X16524922Y-34165413D01*
X16492422Y-34104610D01*
X16448685Y-34051315D01*
X16395390Y-34007578D01*
X16334587Y-33975078D01*
X16268612Y-33955065D01*
X16200000Y-33948307D01*
X15247773Y-33948307D01*
X15244386Y-33942043D01*
X15225380Y-33913866D01*
X15206770Y-33885427D01*
X15203461Y-33881369D01*
X15141259Y-33806180D01*
X15117097Y-33782187D01*
X15093364Y-33757951D01*
X15089330Y-33754613D01*
X15089327Y-33754610D01*
X15089323Y-33754608D01*
X15013709Y-33692937D01*
X14985424Y-33674144D01*
X14957352Y-33654923D01*
X14952746Y-33652433D01*
X14866585Y-33606621D01*
X14835174Y-33593674D01*
X14803925Y-33580281D01*
X14798923Y-33578733D01*
X14705505Y-33550528D01*
X14672191Y-33543931D01*
X14638917Y-33536859D01*
X14633715Y-33536313D01*
X14633712Y-33536312D01*
X14633709Y-33536312D01*
X14537069Y-33526837D01*
X14518419Y-33525000D01*
X13481581Y-33525000D01*
X13465566Y-33526577D01*
X13462523Y-33526556D01*
X13457312Y-33527066D01*
X13360263Y-33537266D01*
X13326919Y-33544111D01*
X13293584Y-33550470D01*
X13288571Y-33551983D01*
X13195352Y-33580839D01*
X13164030Y-33594006D01*
X13132504Y-33606743D01*
X13127881Y-33609201D01*
X13042043Y-33655614D01*
X13013866Y-33674620D01*
X12985427Y-33693230D01*
X12981369Y-33696539D01*
X12906180Y-33758741D01*
X12882187Y-33782903D01*
X12857951Y-33806636D01*
X12854613Y-33810670D01*
X12854610Y-33810673D01*
X12854608Y-33810677D01*
X12792937Y-33886291D01*
X12774144Y-33914576D01*
X12754923Y-33942648D01*
X12752433Y-33947254D01*
X12751873Y-33948307D01*
X11800000Y-33948307D01*
X11731388Y-33955065D01*
X11665413Y-33975078D01*
X11604610Y-34007578D01*
X11551315Y-34051315D01*
X11507578Y-34104610D01*
X11475078Y-34165413D01*
X11455065Y-34231388D01*
X11448307Y-34300000D01*
X11448307Y-36625000D01*
X11150000Y-36625000D01*
X11150000Y-30935981D01*
X22850000Y-30935981D01*
X22850000Y-31064019D01*
X22874979Y-31189598D01*
X22923978Y-31307890D01*
X22995112Y-31414351D01*
X23085649Y-31504888D01*
X23192110Y-31576022D01*
X23310402Y-31625021D01*
X23435981Y-31650000D01*
X23564019Y-31650000D01*
X23689598Y-31625021D01*
X23807890Y-31576022D01*
X23914351Y-31504888D01*
X24004888Y-31414351D01*
X24076022Y-31307890D01*
X24125021Y-31189598D01*
X24150000Y-31064019D01*
X24150000Y-30935981D01*
X24125021Y-30810402D01*
X24076022Y-30692110D01*
X24004888Y-30585649D01*
X23914351Y-30495112D01*
X23807890Y-30423978D01*
X23689598Y-30374979D01*
X23564019Y-30350000D01*
X23435981Y-30350000D01*
X23310402Y-30374979D01*
X23192110Y-30423978D01*
X23085649Y-30495112D01*
X22995112Y-30585649D01*
X22923978Y-30692110D01*
X22874979Y-30810402D01*
X22850000Y-30935981D01*
X11150000Y-30935981D01*
X11150000Y-30129838D01*
X11197875Y-30014257D01*
X11920473Y-29291659D01*
X12900000Y-29291659D01*
X12900000Y-29508341D01*
X12942273Y-29720858D01*
X13025193Y-29921045D01*
X13145575Y-30101209D01*
X13298791Y-30254425D01*
X13478955Y-30374807D01*
X13679142Y-30457727D01*
X13891659Y-30500000D01*
X14108341Y-30500000D01*
X14320858Y-30457727D01*
X14521045Y-30374807D01*
X14701209Y-30254425D01*
X14854425Y-30101209D01*
X14974807Y-29921045D01*
X15057727Y-29720858D01*
X15100000Y-29508341D01*
X15100000Y-29291659D01*
X15057727Y-29079142D01*
X14974807Y-28878955D01*
X14854425Y-28698791D01*
X14701209Y-28545575D01*
X14521045Y-28425193D01*
X14320858Y-28342273D01*
X14108341Y-28300000D01*
X13891659Y-28300000D01*
X13679142Y-28342273D01*
X13478955Y-28425193D01*
X13298791Y-28545575D01*
X13145575Y-28698791D01*
X13025193Y-28878955D01*
X12942273Y-29079142D01*
X12900000Y-29291659D01*
X11920473Y-29291659D01*
X13616109Y-27596024D01*
X13674546Y-27654461D01*
X13781007Y-27725595D01*
X13899299Y-27774594D01*
X14024878Y-27799573D01*
X14152916Y-27799573D01*
X14278495Y-27774594D01*
X14396787Y-27725595D01*
X14503248Y-27654461D01*
X14521728Y-27635981D01*
X15050000Y-27635981D01*
X15050000Y-27764019D01*
X15074979Y-27889598D01*
X15123978Y-28007890D01*
X15195112Y-28114351D01*
X15285649Y-28204888D01*
X15392110Y-28276022D01*
X15510402Y-28325021D01*
X15635981Y-28350000D01*
X15764019Y-28350000D01*
X15889598Y-28325021D01*
X16007890Y-28276022D01*
X16114351Y-28204888D01*
X16204888Y-28114351D01*
X16276022Y-28007890D01*
X16325021Y-27889598D01*
X16350000Y-27764019D01*
X16350000Y-27635981D01*
X18350000Y-27635981D01*
X18350000Y-27764019D01*
X18374979Y-27889598D01*
X18423978Y-28007890D01*
X18495112Y-28114351D01*
X18585649Y-28204888D01*
X18692110Y-28276022D01*
X18810402Y-28325021D01*
X18935981Y-28350000D01*
X19064019Y-28350000D01*
X19189598Y-28325021D01*
X19307890Y-28276022D01*
X19414351Y-28204888D01*
X19504888Y-28114351D01*
X19576022Y-28007890D01*
X19625021Y-27889598D01*
X19650000Y-27764019D01*
X19650000Y-27635981D01*
X19630109Y-27535981D01*
X22250000Y-27535981D01*
X22250000Y-27664019D01*
X22274979Y-27789598D01*
X22323978Y-27907890D01*
X22395112Y-28014351D01*
X22485649Y-28104888D01*
X22592110Y-28176022D01*
X22710402Y-28225021D01*
X22835981Y-28250000D01*
X22964019Y-28250000D01*
X23089598Y-28225021D01*
X23207890Y-28176022D01*
X23314351Y-28104888D01*
X23404888Y-28014351D01*
X23476022Y-27907890D01*
X23525021Y-27789598D01*
X23550000Y-27664019D01*
X23550000Y-27535981D01*
X23525021Y-27410402D01*
X23476022Y-27292110D01*
X23404888Y-27185649D01*
X23314351Y-27095112D01*
X23207890Y-27023978D01*
X23089598Y-26974979D01*
X22964019Y-26950000D01*
X22835981Y-26950000D01*
X22710402Y-26974979D01*
X22592110Y-27023978D01*
X22485649Y-27095112D01*
X22395112Y-27185649D01*
X22323978Y-27292110D01*
X22274979Y-27410402D01*
X22250000Y-27535981D01*
X19630109Y-27535981D01*
X19625021Y-27510402D01*
X19576022Y-27392110D01*
X19504888Y-27285649D01*
X19414351Y-27195112D01*
X19307890Y-27123978D01*
X19189598Y-27074979D01*
X19064019Y-27050000D01*
X18935981Y-27050000D01*
X18810402Y-27074979D01*
X18692110Y-27123978D01*
X18585649Y-27195112D01*
X18495112Y-27285649D01*
X18423978Y-27392110D01*
X18374979Y-27510402D01*
X18350000Y-27635981D01*
X16350000Y-27635981D01*
X16325021Y-27510402D01*
X16276022Y-27392110D01*
X16204888Y-27285649D01*
X16114351Y-27195112D01*
X16007890Y-27123978D01*
X15889598Y-27074979D01*
X15764019Y-27050000D01*
X15635981Y-27050000D01*
X15510402Y-27074979D01*
X15392110Y-27123978D01*
X15285649Y-27195112D01*
X15195112Y-27285649D01*
X15123978Y-27392110D01*
X15074979Y-27510402D01*
X15050000Y-27635981D01*
X14521728Y-27635981D01*
X14593785Y-27563924D01*
X14664919Y-27457463D01*
X14713918Y-27339171D01*
X14738897Y-27213592D01*
X14738897Y-27085554D01*
X14713918Y-26959975D01*
X14664919Y-26841683D01*
X14593785Y-26735222D01*
X14535348Y-26676785D01*
X14535355Y-26676777D01*
X14554009Y-26654047D01*
X14567871Y-26628114D01*
X14638582Y-26457403D01*
X14647118Y-26429264D01*
X14650000Y-26400000D01*
X14650000Y-22600000D01*
X14647118Y-22570736D01*
X14638582Y-22542597D01*
X14567871Y-22371886D01*
X14554009Y-22345953D01*
X14535355Y-22323223D01*
X14212132Y-22000000D01*
X15640000Y-22000000D01*
X15640000Y-26500000D01*
X15646917Y-26570233D01*
X15667403Y-26637766D01*
X15700671Y-26700005D01*
X15745442Y-26754558D01*
X15799995Y-26799329D01*
X15862234Y-26832597D01*
X15929767Y-26853083D01*
X16000000Y-26860000D01*
X17000000Y-26860000D01*
X17069863Y-26853156D01*
X17137418Y-26832741D01*
X17199692Y-26799538D01*
X17895027Y-26335981D01*
X21150000Y-26335981D01*
X21150000Y-26464019D01*
X21174979Y-26589598D01*
X21223978Y-26707890D01*
X21295112Y-26814351D01*
X21385649Y-26904888D01*
X21492110Y-26976022D01*
X21610402Y-27025021D01*
X21735981Y-27050000D01*
X21864019Y-27050000D01*
X21989598Y-27025021D01*
X22107890Y-26976022D01*
X22214351Y-26904888D01*
X22304888Y-26814351D01*
X22376022Y-26707890D01*
X22425021Y-26589598D01*
X22450000Y-26464019D01*
X22450000Y-26335981D01*
X22425021Y-26210402D01*
X22376022Y-26092110D01*
X22304888Y-25985649D01*
X22214351Y-25895112D01*
X22107890Y-25823978D01*
X21989598Y-25774979D01*
X21864019Y-25750000D01*
X21735981Y-25750000D01*
X21610402Y-25774979D01*
X21492110Y-25823978D01*
X21385649Y-25895112D01*
X21295112Y-25985649D01*
X21223978Y-26092110D01*
X21174979Y-26210402D01*
X21150000Y-26335981D01*
X17895027Y-26335981D01*
X18608999Y-25860000D01*
X21000000Y-25860000D01*
X21070233Y-25853083D01*
X21137766Y-25832597D01*
X21200005Y-25799329D01*
X21254558Y-25754558D01*
X21299329Y-25700005D01*
X21332597Y-25637766D01*
X21353083Y-25570233D01*
X21360000Y-25500000D01*
X21360000Y-25331869D01*
X21376022Y-25307890D01*
X21425021Y-25189598D01*
X21450000Y-25064019D01*
X21450000Y-24935981D01*
X21425021Y-24810402D01*
X21379290Y-24700000D01*
X21425021Y-24589598D01*
X21450000Y-24464019D01*
X21450000Y-24335981D01*
X21425021Y-24210402D01*
X21379290Y-24100000D01*
X21425021Y-23989598D01*
X21450000Y-23864019D01*
X21450000Y-23735981D01*
X21425021Y-23610402D01*
X21379290Y-23500000D01*
X21425021Y-23389598D01*
X21450000Y-23264019D01*
X21450000Y-23135981D01*
X21425021Y-23010402D01*
X21376022Y-22892110D01*
X21304888Y-22785649D01*
X21214351Y-22695112D01*
X21150000Y-22652115D01*
X21150000Y-19600000D01*
X21147118Y-19570736D01*
X21138582Y-19542597D01*
X21067871Y-19371886D01*
X21054009Y-19345953D01*
X21035355Y-19323223D01*
X20197875Y-18485743D01*
X20150000Y-18370162D01*
X20150000Y-18100000D01*
X20147118Y-18070736D01*
X20138582Y-18042597D01*
X20067871Y-17871886D01*
X20054009Y-17845953D01*
X20035355Y-17823223D01*
X19676777Y-17464645D01*
X19654047Y-17445991D01*
X19628114Y-17432129D01*
X19457403Y-17361418D01*
X19429264Y-17352882D01*
X19400000Y-17350000D01*
X17600000Y-17350000D01*
X17570736Y-17352882D01*
X17542597Y-17361418D01*
X17371886Y-17432129D01*
X17345953Y-17445991D01*
X17323223Y-17464645D01*
X16964645Y-17823223D01*
X16945991Y-17845953D01*
X16932129Y-17871886D01*
X16861418Y-18042597D01*
X16852882Y-18070736D01*
X16850000Y-18100000D01*
X16850000Y-18400000D01*
X16852882Y-18429264D01*
X16861418Y-18457403D01*
X16932129Y-18628114D01*
X16945991Y-18654047D01*
X16964645Y-18676777D01*
X17802125Y-19514257D01*
X17850000Y-19629838D01*
X17850000Y-22134001D01*
X17199692Y-21700462D01*
X17137766Y-21667403D01*
X17070233Y-21646917D01*
X17000000Y-21640000D01*
X16000000Y-21640000D01*
X15929767Y-21646917D01*
X15862234Y-21667403D01*
X15799995Y-21700671D01*
X15745442Y-21745442D01*
X15700671Y-21799995D01*
X15667403Y-21862234D01*
X15646917Y-21929767D01*
X15640000Y-22000000D01*
X14212132Y-22000000D01*
X11176777Y-18964645D01*
X11154047Y-18945991D01*
X11128114Y-18932129D01*
X10957403Y-18861418D01*
X10929264Y-18852882D01*
X10900000Y-18850000D01*
X2346047Y-18850000D01*
X2370867Y-18341265D01*
X4035355Y-16676777D01*
X4054009Y-16654047D01*
X4067871Y-16628114D01*
X4138582Y-16457403D01*
X4147118Y-16429264D01*
X4150000Y-16400000D01*
X4150000Y-14600000D01*
X4147118Y-14570736D01*
X4138582Y-14542597D01*
X4067871Y-14371886D01*
X4054009Y-14345953D01*
X4035355Y-14323223D01*
X2635206Y-12923074D01*
X2772936Y-10100000D01*
X7150000Y-10100000D01*
X7150000Y-12500000D01*
X7152882Y-12529264D01*
X7161418Y-12557403D01*
X7175280Y-12583336D01*
X7193934Y-12606066D01*
X7293934Y-12706066D01*
X7316664Y-12724720D01*
X7342597Y-12738582D01*
X7370736Y-12747118D01*
X7400000Y-12750000D01*
X8140000Y-12750000D01*
X8140000Y-13699339D01*
X8136478Y-13704610D01*
X8087479Y-13822902D01*
X8062500Y-13948481D01*
X8062500Y-14076519D01*
X8087479Y-14202098D01*
X8136478Y-14320390D01*
X8140000Y-14325661D01*
X8140000Y-14500000D01*
X8146917Y-14570233D01*
X8167403Y-14637766D01*
X8200671Y-14700005D01*
X8245442Y-14754558D01*
X8299995Y-14799329D01*
X8362234Y-14832597D01*
X8429767Y-14853083D01*
X8500000Y-14860000D01*
X11261438Y-14860000D01*
X11261438Y-15600027D01*
X11195480Y-15627348D01*
X11089019Y-15698482D01*
X10998482Y-15789019D01*
X10927348Y-15895480D01*
X10878349Y-16013772D01*
X10853370Y-16139351D01*
X10853370Y-16267389D01*
X10878349Y-16392968D01*
X10927348Y-16511260D01*
X10998482Y-16617721D01*
X11089019Y-16708258D01*
X11195480Y-16779392D01*
X11313772Y-16828391D01*
X11439351Y-16853370D01*
X11567389Y-16853370D01*
X11692968Y-16828391D01*
X11811260Y-16779392D01*
X11917721Y-16708258D01*
X12008258Y-16617721D01*
X12079392Y-16511260D01*
X12128391Y-16392968D01*
X12153370Y-16267389D01*
X12153370Y-16255886D01*
X12179184Y-16224431D01*
X12222614Y-16143180D01*
X12225612Y-16137571D01*
X12245032Y-16073551D01*
X12254203Y-16043319D01*
X12261438Y-15969862D01*
X12261438Y-15969853D01*
X12263856Y-15945303D01*
X12261438Y-15920753D01*
X12261438Y-12045667D01*
X12847486Y-11459620D01*
X12854399Y-11459620D01*
X12979978Y-11434641D01*
X13098270Y-11385642D01*
X13204731Y-11314508D01*
X13295268Y-11223971D01*
X13366402Y-11117510D01*
X13415401Y-10999218D01*
X13440380Y-10873639D01*
X13440380Y-10745601D01*
X14359620Y-10745601D01*
X14359620Y-10873639D01*
X14384599Y-10999218D01*
X14433598Y-11117510D01*
X14504732Y-11223971D01*
X14595269Y-11314508D01*
X14701730Y-11385642D01*
X14820022Y-11434641D01*
X14945601Y-11459620D01*
X15073639Y-11459620D01*
X15199218Y-11434641D01*
X15317510Y-11385642D01*
X15423971Y-11314508D01*
X15514508Y-11223971D01*
X15585642Y-11117510D01*
X15634641Y-10999218D01*
X15659620Y-10873639D01*
X15659620Y-10745601D01*
X15634641Y-10620022D01*
X15585642Y-10501730D01*
X15514508Y-10395269D01*
X15423971Y-10304732D01*
X15317510Y-10233598D01*
X15199218Y-10184599D01*
X15073639Y-10159620D01*
X14945601Y-10159620D01*
X14820022Y-10184599D01*
X14701730Y-10233598D01*
X14595269Y-10304732D01*
X14504732Y-10395269D01*
X14433598Y-10501730D01*
X14384599Y-10620022D01*
X14359620Y-10745601D01*
X13440380Y-10745601D01*
X13415401Y-10620022D01*
X13366402Y-10501730D01*
X13295268Y-10395269D01*
X13204731Y-10304732D01*
X13098270Y-10233598D01*
X12979978Y-10184599D01*
X12854399Y-10159620D01*
X12726361Y-10159620D01*
X12600782Y-10184599D01*
X12482490Y-10233598D01*
X12376029Y-10304732D01*
X12285492Y-10395269D01*
X12214358Y-10501730D01*
X12165359Y-10620022D01*
X12150000Y-10697238D01*
X12150000Y-10100000D01*
X15850000Y-10100000D01*
X15850000Y-12500000D01*
X15852882Y-12529264D01*
X15861418Y-12557403D01*
X15875280Y-12583336D01*
X15893934Y-12606066D01*
X15993934Y-12706066D01*
X16016664Y-12724720D01*
X16042597Y-12738582D01*
X16070736Y-12747118D01*
X16100000Y-12750000D01*
X16140000Y-12750000D01*
X16140000Y-14500000D01*
X16146917Y-14570233D01*
X16167403Y-14637766D01*
X16200671Y-14700005D01*
X16245442Y-14754558D01*
X16299995Y-14799329D01*
X16362234Y-14832597D01*
X16429767Y-14853083D01*
X16500000Y-14860000D01*
X19500000Y-14860000D01*
X19570233Y-14853083D01*
X19637766Y-14832597D01*
X19700005Y-14799329D01*
X19754558Y-14754558D01*
X19799329Y-14700005D01*
X19832597Y-14637766D01*
X19853083Y-14570233D01*
X19860000Y-14500000D01*
X19860000Y-14331869D01*
X19876022Y-14307890D01*
X19925021Y-14189598D01*
X19950000Y-14064019D01*
X19950000Y-13935981D01*
X19925021Y-13810402D01*
X19876022Y-13692110D01*
X19860000Y-13668131D01*
X19860000Y-12750000D01*
X21200000Y-12750000D01*
X21229264Y-12747118D01*
X21252042Y-12740683D01*
X21427968Y-12675604D01*
X21454414Y-12662748D01*
X21473545Y-12648809D01*
X22021693Y-12178967D01*
X22042036Y-12157735D01*
X22060351Y-12127758D01*
X22136277Y-11962679D01*
X22145886Y-11934888D01*
X22150000Y-11900000D01*
X22150000Y-9100000D01*
X22147118Y-9070736D01*
X22138582Y-9042597D01*
X22067871Y-8871886D01*
X22054009Y-8845953D01*
X22035355Y-8823223D01*
X21676777Y-8464645D01*
X21654047Y-8445991D01*
X21628114Y-8432129D01*
X21457403Y-8361418D01*
X21429264Y-8352882D01*
X21400000Y-8350000D01*
X20629838Y-8350000D01*
X20514257Y-8302125D01*
X20197875Y-7985743D01*
X20150000Y-7870162D01*
X20150000Y-5900000D01*
X20147118Y-5870736D01*
X20138582Y-5842597D01*
X20124720Y-5816664D01*
X20106066Y-5793934D01*
X20006066Y-5693934D01*
X19983336Y-5675280D01*
X19957403Y-5661418D01*
X19929264Y-5652882D01*
X19900000Y-5650000D01*
X19100000Y-5650000D01*
X19070736Y-5652882D01*
X19042597Y-5661418D01*
X19016664Y-5675280D01*
X18993934Y-5693934D01*
X18893934Y-5793934D01*
X18875280Y-5816664D01*
X18861418Y-5842597D01*
X18852882Y-5870736D01*
X18850000Y-5900000D01*
X18850000Y-9640000D01*
X16500000Y-9640000D01*
X16429767Y-9646917D01*
X16362234Y-9667403D01*
X16299995Y-9700671D01*
X16245442Y-9745442D01*
X16200671Y-9799995D01*
X16173942Y-9850000D01*
X16100000Y-9850000D01*
X16070736Y-9852882D01*
X16042597Y-9861418D01*
X16016664Y-9875280D01*
X15993934Y-9893934D01*
X15893934Y-9993934D01*
X15875280Y-10016664D01*
X15861418Y-10042597D01*
X15852882Y-10070736D01*
X15850000Y-10100000D01*
X12150000Y-10100000D01*
X12147118Y-10070736D01*
X12138582Y-10042597D01*
X12124720Y-10016664D01*
X12106066Y-9993934D01*
X12006066Y-9893934D01*
X11983336Y-9875280D01*
X11957403Y-9861418D01*
X11929264Y-9852882D01*
X11900000Y-9850000D01*
X11826058Y-9850000D01*
X11799329Y-9799995D01*
X11754558Y-9745442D01*
X11700005Y-9700671D01*
X11637766Y-9667403D01*
X11570233Y-9646917D01*
X11500000Y-9640000D01*
X9404093Y-9640000D01*
X9295558Y-9504331D01*
X9250000Y-9374455D01*
X9250000Y-5900000D01*
X9247118Y-5870736D01*
X9238582Y-5842597D01*
X9224720Y-5816664D01*
X9206066Y-5793934D01*
X9106066Y-5693934D01*
X9083336Y-5675280D01*
X9057403Y-5661418D01*
X9029264Y-5652882D01*
X9000000Y-5650000D01*
X8000000Y-5650000D01*
X7970736Y-5652882D01*
X7942597Y-5661418D01*
X7916664Y-5675280D01*
X7893934Y-5693934D01*
X7793934Y-5793934D01*
X7775280Y-5816664D01*
X7761418Y-5842597D01*
X7752882Y-5870736D01*
X7750000Y-5900000D01*
X7750000Y-9270162D01*
X7702125Y-9385743D01*
X7264645Y-9823223D01*
X7245991Y-9845953D01*
X7232129Y-9871886D01*
X7161418Y-10042597D01*
X7152882Y-10070736D01*
X7150000Y-10100000D01*
X2772936Y-10100000D01*
X3086303Y-3676886D01*
X3450000Y-3676886D01*
X3450000Y-3923114D01*
X3498037Y-4164611D01*
X3592265Y-4392097D01*
X3729062Y-4596828D01*
X3903172Y-4770938D01*
X4107903Y-4907735D01*
X4335389Y-5001963D01*
X4576886Y-5050000D01*
X4823114Y-5050000D01*
X5064611Y-5001963D01*
X5292097Y-4907735D01*
X5496828Y-4770938D01*
X5670938Y-4596828D01*
X5807735Y-4392097D01*
X5901963Y-4164611D01*
X5950000Y-3923114D01*
X5950000Y-3785981D01*
X7550000Y-3785981D01*
X7550000Y-3914019D01*
X7574979Y-4039598D01*
X7623978Y-4157890D01*
X7695112Y-4264351D01*
X7785649Y-4354888D01*
X7892110Y-4426022D01*
X8010402Y-4475021D01*
X8135981Y-4500000D01*
X8264019Y-4500000D01*
X8389598Y-4475021D01*
X8507890Y-4426022D01*
X8614351Y-4354888D01*
X8704888Y-4264351D01*
X8776022Y-4157890D01*
X8825021Y-4039598D01*
X8850000Y-3914019D01*
X8850000Y-3785981D01*
X19150000Y-3785981D01*
X19150000Y-3914019D01*
X19174979Y-4039598D01*
X19223978Y-4157890D01*
X19295112Y-4264351D01*
X19385649Y-4354888D01*
X19492110Y-4426022D01*
X19610402Y-4475021D01*
X19735981Y-4500000D01*
X19864019Y-4500000D01*
X19989598Y-4475021D01*
X20107890Y-4426022D01*
X20214351Y-4354888D01*
X20304888Y-4264351D01*
X20376022Y-4157890D01*
X20425021Y-4039598D01*
X20450000Y-3914019D01*
X20450000Y-3785981D01*
X20428300Y-3676886D01*
X22050000Y-3676886D01*
X22050000Y-3923114D01*
X22098037Y-4164611D01*
X22192265Y-4392097D01*
X22329062Y-4596828D01*
X22503172Y-4770938D01*
X22707903Y-4907735D01*
X22935389Y-5001963D01*
X23176886Y-5050000D01*
X23423114Y-5050000D01*
X23664611Y-5001963D01*
X23892097Y-4907735D01*
X24096828Y-4770938D01*
X24270938Y-4596828D01*
X24407735Y-4392097D01*
X24501963Y-4164611D01*
X24550000Y-3923114D01*
X24550000Y-3676886D01*
X24501963Y-3435389D01*
X24407735Y-3207903D01*
X24270938Y-3003172D01*
X24096828Y-2829062D01*
X23892097Y-2692265D01*
X23664611Y-2598037D01*
X23423114Y-2550000D01*
X23176886Y-2550000D01*
X22935389Y-2598037D01*
X22707903Y-2692265D01*
X22503172Y-2829062D01*
X22329062Y-3003172D01*
X22192265Y-3207903D01*
X22098037Y-3435389D01*
X22050000Y-3676886D01*
X20428300Y-3676886D01*
X20425021Y-3660402D01*
X20376022Y-3542110D01*
X20304888Y-3435649D01*
X20214351Y-3345112D01*
X20107890Y-3273978D01*
X19989598Y-3224979D01*
X19864019Y-3200000D01*
X19735981Y-3200000D01*
X19610402Y-3224979D01*
X19492110Y-3273978D01*
X19385649Y-3345112D01*
X19295112Y-3435649D01*
X19223978Y-3542110D01*
X19174979Y-3660402D01*
X19150000Y-3785981D01*
X8850000Y-3785981D01*
X8825021Y-3660402D01*
X8776022Y-3542110D01*
X8704888Y-3435649D01*
X8614351Y-3345112D01*
X8507890Y-3273978D01*
X8389598Y-3224979D01*
X8264019Y-3200000D01*
X8135981Y-3200000D01*
X8010402Y-3224979D01*
X7892110Y-3273978D01*
X7785649Y-3345112D01*
X7695112Y-3435649D01*
X7623978Y-3542110D01*
X7574979Y-3660402D01*
X7550000Y-3785981D01*
X5950000Y-3785981D01*
X5950000Y-3676886D01*
X5901963Y-3435389D01*
X5807735Y-3207903D01*
X5670938Y-3003172D01*
X5496828Y-2829062D01*
X5292097Y-2692265D01*
X5064611Y-2598037D01*
X4823114Y-2550000D01*
X4576886Y-2550000D01*
X4335389Y-2598037D01*
X4107903Y-2692265D01*
X3903172Y-2829062D01*
X3729062Y-3003172D01*
X3592265Y-3207903D01*
X3498037Y-3435389D01*
X3450000Y-3676886D01*
X3086303Y-3676886D01*
X3274107Y172554D01*
X3296285Y398738D01*
X3354004Y589913D01*
X3447753Y766231D01*
X3573967Y920984D01*
X3727831Y1048272D01*
X3903494Y1143252D01*
X4094257Y1202302D01*
X4310206Y1225000D01*
X6075000Y1225000D01*
X6075001Y-1668419D01*
G04 #@! TA.AperFunction,Conductor*
D17*
G36*
X6075001Y-1668419D02*
G01*
X6076577Y-1684424D01*
X6076556Y-1687477D01*
X6077066Y-1692689D01*
X6087266Y-1789737D01*
X6094111Y-1823081D01*
X6100470Y-1856416D01*
X6101983Y-1861429D01*
X6130838Y-1954648D01*
X6144024Y-1986016D01*
X6156743Y-2017495D01*
X6159201Y-2022119D01*
X6205613Y-2107956D01*
X6224626Y-2136143D01*
X6243230Y-2164573D01*
X6246539Y-2168631D01*
X6308741Y-2243819D01*
X6332831Y-2267741D01*
X6356635Y-2292049D01*
X6360670Y-2295387D01*
X6436291Y-2357063D01*
X6464576Y-2375856D01*
X6492648Y-2395077D01*
X6497254Y-2397567D01*
X6583415Y-2443379D01*
X6614826Y-2456326D01*
X6646075Y-2469719D01*
X6651077Y-2471267D01*
X6744495Y-2499472D01*
X6777824Y-2506072D01*
X6811084Y-2513141D01*
X6816285Y-2513687D01*
X6816288Y-2513688D01*
X6816291Y-2513688D01*
X6912931Y-2523163D01*
X6931581Y-2525000D01*
X9468419Y-2525000D01*
X9484434Y-2523423D01*
X9487477Y-2523444D01*
X9492689Y-2522934D01*
X9589737Y-2512734D01*
X9623081Y-2505889D01*
X9656416Y-2499530D01*
X9661429Y-2498017D01*
X9754648Y-2469162D01*
X9786016Y-2455976D01*
X9817495Y-2443257D01*
X9822119Y-2440799D01*
X9907956Y-2394387D01*
X9936143Y-2375374D01*
X9964573Y-2356770D01*
X9968631Y-2353461D01*
X10043819Y-2291259D01*
X10067741Y-2267169D01*
X10092049Y-2243365D01*
X10095387Y-2239330D01*
X10157063Y-2163709D01*
X10175856Y-2135424D01*
X10195077Y-2107352D01*
X10197567Y-2102746D01*
X10243379Y-2016585D01*
X10256326Y-1985174D01*
X10269719Y-1953925D01*
X10271267Y-1948923D01*
X10299472Y-1855505D01*
X10306072Y-1822176D01*
X10313141Y-1788916D01*
X10313688Y-1783709D01*
X10323210Y-1686592D01*
X10325000Y-1668419D01*
X10325000Y1225000D01*
X17675000Y1225000D01*
X17675001Y-1668419D01*
X17676577Y-1684424D01*
X17676556Y-1687477D01*
X17677066Y-1692689D01*
X17687266Y-1789737D01*
X17694111Y-1823081D01*
X17700470Y-1856416D01*
X17701983Y-1861429D01*
X17730838Y-1954648D01*
X17744024Y-1986016D01*
X17756743Y-2017495D01*
X17759201Y-2022119D01*
X17805613Y-2107956D01*
X17824626Y-2136143D01*
X17843230Y-2164573D01*
X17846539Y-2168631D01*
X17908741Y-2243819D01*
X17932831Y-2267741D01*
X17956635Y-2292049D01*
X17960670Y-2295387D01*
X18036291Y-2357063D01*
X18064576Y-2375856D01*
X18092648Y-2395077D01*
X18097254Y-2397567D01*
X18183415Y-2443379D01*
X18214826Y-2456326D01*
X18246075Y-2469719D01*
X18251077Y-2471267D01*
X18344495Y-2499472D01*
X18377824Y-2506072D01*
X18411084Y-2513141D01*
X18416285Y-2513687D01*
X18416288Y-2513688D01*
X18416291Y-2513688D01*
X18512931Y-2523163D01*
X18531581Y-2525000D01*
X21068419Y-2525000D01*
X21084434Y-2523423D01*
X21087477Y-2523444D01*
X21092689Y-2522934D01*
X21189737Y-2512734D01*
X21223081Y-2505889D01*
X21256416Y-2499530D01*
X21261429Y-2498017D01*
X21354648Y-2469162D01*
X21386016Y-2455976D01*
X21417495Y-2443257D01*
X21422119Y-2440799D01*
X21507956Y-2394387D01*
X21536143Y-2375374D01*
X21564573Y-2356770D01*
X21568631Y-2353461D01*
X21643819Y-2291259D01*
X21667741Y-2267169D01*
X21692049Y-2243365D01*
X21695387Y-2239330D01*
X21757063Y-2163709D01*
X21775856Y-2135424D01*
X21795077Y-2107352D01*
X21797567Y-2102746D01*
X21843379Y-2016585D01*
X21856326Y-1985174D01*
X21869719Y-1953925D01*
X21871267Y-1948923D01*
X21899472Y-1855505D01*
X21906072Y-1822176D01*
X21913141Y-1788916D01*
X21913688Y-1783709D01*
X21923210Y-1686592D01*
X21925000Y-1668419D01*
X21925000Y1225000D01*
X23681662Y1225000D01*
X23898738Y1203715D01*
X24089913Y1145996D01*
X24266231Y1052247D01*
X24420984Y926033D01*
X24548272Y772169D01*
X24643252Y596506D01*
X24702302Y405743D01*
X24725097Y188871D01*
X25364794Y-12923074D01*
X23964645Y-14323223D01*
X23945991Y-14345953D01*
X23932129Y-14371886D01*
X23861418Y-14542597D01*
X23852882Y-14570736D01*
X23850000Y-14600000D01*
X23850000Y-16400000D01*
X23852882Y-16429264D01*
X23861418Y-16457403D01*
X23932129Y-16628114D01*
X23945991Y-16654047D01*
X23964645Y-16676777D01*
X25629133Y-18341265D01*
X26422493Y-34602872D01*
X26400491Y-34994687D01*
X26307056Y-35358221D01*
X26144795Y-35696672D01*
X25919883Y-35997165D01*
X25640884Y-36248254D01*
X25318432Y-36440366D01*
X24964806Y-36566190D01*
X24579765Y-36622950D01*
X24495450Y-36625000D01*
X16551693Y-36625000D01*
X16551693Y-34300000D01*
X16544935Y-34231388D01*
X16524922Y-34165413D01*
X16492422Y-34104610D01*
X16448685Y-34051315D01*
X16395390Y-34007578D01*
X16334587Y-33975078D01*
X16268612Y-33955065D01*
X16200000Y-33948307D01*
X15247773Y-33948307D01*
X15244386Y-33942043D01*
X15225380Y-33913866D01*
X15206770Y-33885427D01*
X15203461Y-33881369D01*
X15141259Y-33806180D01*
X15117097Y-33782187D01*
X15093364Y-33757951D01*
X15089330Y-33754613D01*
X15089327Y-33754610D01*
X15089323Y-33754608D01*
X15013709Y-33692937D01*
X14985424Y-33674144D01*
X14957352Y-33654923D01*
X14952746Y-33652433D01*
X14866585Y-33606621D01*
X14835174Y-33593674D01*
X14803925Y-33580281D01*
X14798923Y-33578733D01*
X14705505Y-33550528D01*
X14672191Y-33543931D01*
X14638917Y-33536859D01*
X14633715Y-33536313D01*
X14633712Y-33536312D01*
X14633709Y-33536312D01*
X14537069Y-33526837D01*
X14518419Y-33525000D01*
X13481581Y-33525000D01*
X13465566Y-33526577D01*
X13462523Y-33526556D01*
X13457312Y-33527066D01*
X13360263Y-33537266D01*
X13326919Y-33544111D01*
X13293584Y-33550470D01*
X13288571Y-33551983D01*
X13195352Y-33580839D01*
X13164030Y-33594006D01*
X13132504Y-33606743D01*
X13127881Y-33609201D01*
X13042043Y-33655614D01*
X13013866Y-33674620D01*
X12985427Y-33693230D01*
X12981369Y-33696539D01*
X12906180Y-33758741D01*
X12882187Y-33782903D01*
X12857951Y-33806636D01*
X12854613Y-33810670D01*
X12854610Y-33810673D01*
X12854608Y-33810677D01*
X12792937Y-33886291D01*
X12774144Y-33914576D01*
X12754923Y-33942648D01*
X12752433Y-33947254D01*
X12751873Y-33948307D01*
X11800000Y-33948307D01*
X11731388Y-33955065D01*
X11665413Y-33975078D01*
X11604610Y-34007578D01*
X11551315Y-34051315D01*
X11507578Y-34104610D01*
X11475078Y-34165413D01*
X11455065Y-34231388D01*
X11448307Y-34300000D01*
X11448307Y-36625000D01*
X11150000Y-36625000D01*
X11150000Y-30935981D01*
X22850000Y-30935981D01*
X22850000Y-31064019D01*
X22874979Y-31189598D01*
X22923978Y-31307890D01*
X22995112Y-31414351D01*
X23085649Y-31504888D01*
X23192110Y-31576022D01*
X23310402Y-31625021D01*
X23435981Y-31650000D01*
X23564019Y-31650000D01*
X23689598Y-31625021D01*
X23807890Y-31576022D01*
X23914351Y-31504888D01*
X24004888Y-31414351D01*
X24076022Y-31307890D01*
X24125021Y-31189598D01*
X24150000Y-31064019D01*
X24150000Y-30935981D01*
X24125021Y-30810402D01*
X24076022Y-30692110D01*
X24004888Y-30585649D01*
X23914351Y-30495112D01*
X23807890Y-30423978D01*
X23689598Y-30374979D01*
X23564019Y-30350000D01*
X23435981Y-30350000D01*
X23310402Y-30374979D01*
X23192110Y-30423978D01*
X23085649Y-30495112D01*
X22995112Y-30585649D01*
X22923978Y-30692110D01*
X22874979Y-30810402D01*
X22850000Y-30935981D01*
X11150000Y-30935981D01*
X11150000Y-30129838D01*
X11197875Y-30014257D01*
X11920473Y-29291659D01*
X12900000Y-29291659D01*
X12900000Y-29508341D01*
X12942273Y-29720858D01*
X13025193Y-29921045D01*
X13145575Y-30101209D01*
X13298791Y-30254425D01*
X13478955Y-30374807D01*
X13679142Y-30457727D01*
X13891659Y-30500000D01*
X14108341Y-30500000D01*
X14320858Y-30457727D01*
X14521045Y-30374807D01*
X14701209Y-30254425D01*
X14854425Y-30101209D01*
X14974807Y-29921045D01*
X15057727Y-29720858D01*
X15100000Y-29508341D01*
X15100000Y-29291659D01*
X15057727Y-29079142D01*
X14974807Y-28878955D01*
X14854425Y-28698791D01*
X14701209Y-28545575D01*
X14521045Y-28425193D01*
X14320858Y-28342273D01*
X14108341Y-28300000D01*
X13891659Y-28300000D01*
X13679142Y-28342273D01*
X13478955Y-28425193D01*
X13298791Y-28545575D01*
X13145575Y-28698791D01*
X13025193Y-28878955D01*
X12942273Y-29079142D01*
X12900000Y-29291659D01*
X11920473Y-29291659D01*
X13616109Y-27596024D01*
X13674546Y-27654461D01*
X13781007Y-27725595D01*
X13899299Y-27774594D01*
X14024878Y-27799573D01*
X14152916Y-27799573D01*
X14278495Y-27774594D01*
X14396787Y-27725595D01*
X14503248Y-27654461D01*
X14521728Y-27635981D01*
X15050000Y-27635981D01*
X15050000Y-27764019D01*
X15074979Y-27889598D01*
X15123978Y-28007890D01*
X15195112Y-28114351D01*
X15285649Y-28204888D01*
X15392110Y-28276022D01*
X15510402Y-28325021D01*
X15635981Y-28350000D01*
X15764019Y-28350000D01*
X15889598Y-28325021D01*
X16007890Y-28276022D01*
X16114351Y-28204888D01*
X16204888Y-28114351D01*
X16276022Y-28007890D01*
X16325021Y-27889598D01*
X16350000Y-27764019D01*
X16350000Y-27635981D01*
X18350000Y-27635981D01*
X18350000Y-27764019D01*
X18374979Y-27889598D01*
X18423978Y-28007890D01*
X18495112Y-28114351D01*
X18585649Y-28204888D01*
X18692110Y-28276022D01*
X18810402Y-28325021D01*
X18935981Y-28350000D01*
X19064019Y-28350000D01*
X19189598Y-28325021D01*
X19307890Y-28276022D01*
X19414351Y-28204888D01*
X19504888Y-28114351D01*
X19576022Y-28007890D01*
X19625021Y-27889598D01*
X19650000Y-27764019D01*
X19650000Y-27635981D01*
X19630109Y-27535981D01*
X22250000Y-27535981D01*
X22250000Y-27664019D01*
X22274979Y-27789598D01*
X22323978Y-27907890D01*
X22395112Y-28014351D01*
X22485649Y-28104888D01*
X22592110Y-28176022D01*
X22710402Y-28225021D01*
X22835981Y-28250000D01*
X22964019Y-28250000D01*
X23089598Y-28225021D01*
X23207890Y-28176022D01*
X23314351Y-28104888D01*
X23404888Y-28014351D01*
X23476022Y-27907890D01*
X23525021Y-27789598D01*
X23550000Y-27664019D01*
X23550000Y-27535981D01*
X23525021Y-27410402D01*
X23476022Y-27292110D01*
X23404888Y-27185649D01*
X23314351Y-27095112D01*
X23207890Y-27023978D01*
X23089598Y-26974979D01*
X22964019Y-26950000D01*
X22835981Y-26950000D01*
X22710402Y-26974979D01*
X22592110Y-27023978D01*
X22485649Y-27095112D01*
X22395112Y-27185649D01*
X22323978Y-27292110D01*
X22274979Y-27410402D01*
X22250000Y-27535981D01*
X19630109Y-27535981D01*
X19625021Y-27510402D01*
X19576022Y-27392110D01*
X19504888Y-27285649D01*
X19414351Y-27195112D01*
X19307890Y-27123978D01*
X19189598Y-27074979D01*
X19064019Y-27050000D01*
X18935981Y-27050000D01*
X18810402Y-27074979D01*
X18692110Y-27123978D01*
X18585649Y-27195112D01*
X18495112Y-27285649D01*
X18423978Y-27392110D01*
X18374979Y-27510402D01*
X18350000Y-27635981D01*
X16350000Y-27635981D01*
X16325021Y-27510402D01*
X16276022Y-27392110D01*
X16204888Y-27285649D01*
X16114351Y-27195112D01*
X16007890Y-27123978D01*
X15889598Y-27074979D01*
X15764019Y-27050000D01*
X15635981Y-27050000D01*
X15510402Y-27074979D01*
X15392110Y-27123978D01*
X15285649Y-27195112D01*
X15195112Y-27285649D01*
X15123978Y-27392110D01*
X15074979Y-27510402D01*
X15050000Y-27635981D01*
X14521728Y-27635981D01*
X14593785Y-27563924D01*
X14664919Y-27457463D01*
X14713918Y-27339171D01*
X14738897Y-27213592D01*
X14738897Y-27085554D01*
X14713918Y-26959975D01*
X14664919Y-26841683D01*
X14593785Y-26735222D01*
X14535348Y-26676785D01*
X14535355Y-26676777D01*
X14554009Y-26654047D01*
X14567871Y-26628114D01*
X14638582Y-26457403D01*
X14647118Y-26429264D01*
X14650000Y-26400000D01*
X14650000Y-22600000D01*
X14647118Y-22570736D01*
X14638582Y-22542597D01*
X14567871Y-22371886D01*
X14554009Y-22345953D01*
X14535355Y-22323223D01*
X14212132Y-22000000D01*
X15640000Y-22000000D01*
X15640000Y-26500000D01*
X15646917Y-26570233D01*
X15667403Y-26637766D01*
X15700671Y-26700005D01*
X15745442Y-26754558D01*
X15799995Y-26799329D01*
X15862234Y-26832597D01*
X15929767Y-26853083D01*
X16000000Y-26860000D01*
X17000000Y-26860000D01*
X17069863Y-26853156D01*
X17137418Y-26832741D01*
X17199692Y-26799538D01*
X17895027Y-26335981D01*
X21150000Y-26335981D01*
X21150000Y-26464019D01*
X21174979Y-26589598D01*
X21223978Y-26707890D01*
X21295112Y-26814351D01*
X21385649Y-26904888D01*
X21492110Y-26976022D01*
X21610402Y-27025021D01*
X21735981Y-27050000D01*
X21864019Y-27050000D01*
X21989598Y-27025021D01*
X22107890Y-26976022D01*
X22214351Y-26904888D01*
X22304888Y-26814351D01*
X22376022Y-26707890D01*
X22425021Y-26589598D01*
X22450000Y-26464019D01*
X22450000Y-26335981D01*
X22425021Y-26210402D01*
X22376022Y-26092110D01*
X22304888Y-25985649D01*
X22214351Y-25895112D01*
X22107890Y-25823978D01*
X21989598Y-25774979D01*
X21864019Y-25750000D01*
X21735981Y-25750000D01*
X21610402Y-25774979D01*
X21492110Y-25823978D01*
X21385649Y-25895112D01*
X21295112Y-25985649D01*
X21223978Y-26092110D01*
X21174979Y-26210402D01*
X21150000Y-26335981D01*
X17895027Y-26335981D01*
X18608999Y-25860000D01*
X21000000Y-25860000D01*
X21070233Y-25853083D01*
X21137766Y-25832597D01*
X21200005Y-25799329D01*
X21254558Y-25754558D01*
X21299329Y-25700005D01*
X21332597Y-25637766D01*
X21353083Y-25570233D01*
X21360000Y-25500000D01*
X21360000Y-25331869D01*
X21376022Y-25307890D01*
X21425021Y-25189598D01*
X21450000Y-25064019D01*
X21450000Y-24935981D01*
X21425021Y-24810402D01*
X21379290Y-24700000D01*
X21425021Y-24589598D01*
X21450000Y-24464019D01*
X21450000Y-24335981D01*
X21425021Y-24210402D01*
X21379290Y-24100000D01*
X21425021Y-23989598D01*
X21450000Y-23864019D01*
X21450000Y-23735981D01*
X21425021Y-23610402D01*
X21379290Y-23500000D01*
X21425021Y-23389598D01*
X21450000Y-23264019D01*
X21450000Y-23135981D01*
X21425021Y-23010402D01*
X21376022Y-22892110D01*
X21304888Y-22785649D01*
X21214351Y-22695112D01*
X21150000Y-22652115D01*
X21150000Y-19600000D01*
X21147118Y-19570736D01*
X21138582Y-19542597D01*
X21067871Y-19371886D01*
X21054009Y-19345953D01*
X21035355Y-19323223D01*
X20197875Y-18485743D01*
X20150000Y-18370162D01*
X20150000Y-18100000D01*
X20147118Y-18070736D01*
X20138582Y-18042597D01*
X20067871Y-17871886D01*
X20054009Y-17845953D01*
X20035355Y-17823223D01*
X19676777Y-17464645D01*
X19654047Y-17445991D01*
X19628114Y-17432129D01*
X19457403Y-17361418D01*
X19429264Y-17352882D01*
X19400000Y-17350000D01*
X17600000Y-17350000D01*
X17570736Y-17352882D01*
X17542597Y-17361418D01*
X17371886Y-17432129D01*
X17345953Y-17445991D01*
X17323223Y-17464645D01*
X16964645Y-17823223D01*
X16945991Y-17845953D01*
X16932129Y-17871886D01*
X16861418Y-18042597D01*
X16852882Y-18070736D01*
X16850000Y-18100000D01*
X16850000Y-18400000D01*
X16852882Y-18429264D01*
X16861418Y-18457403D01*
X16932129Y-18628114D01*
X16945991Y-18654047D01*
X16964645Y-18676777D01*
X17802125Y-19514257D01*
X17850000Y-19629838D01*
X17850000Y-22134001D01*
X17199692Y-21700462D01*
X17137766Y-21667403D01*
X17070233Y-21646917D01*
X17000000Y-21640000D01*
X16000000Y-21640000D01*
X15929767Y-21646917D01*
X15862234Y-21667403D01*
X15799995Y-21700671D01*
X15745442Y-21745442D01*
X15700671Y-21799995D01*
X15667403Y-21862234D01*
X15646917Y-21929767D01*
X15640000Y-22000000D01*
X14212132Y-22000000D01*
X11176777Y-18964645D01*
X11154047Y-18945991D01*
X11128114Y-18932129D01*
X10957403Y-18861418D01*
X10929264Y-18852882D01*
X10900000Y-18850000D01*
X2346047Y-18850000D01*
X2370867Y-18341265D01*
X4035355Y-16676777D01*
X4054009Y-16654047D01*
X4067871Y-16628114D01*
X4138582Y-16457403D01*
X4147118Y-16429264D01*
X4150000Y-16400000D01*
X4150000Y-14600000D01*
X4147118Y-14570736D01*
X4138582Y-14542597D01*
X4067871Y-14371886D01*
X4054009Y-14345953D01*
X4035355Y-14323223D01*
X2635206Y-12923074D01*
X2772936Y-10100000D01*
X7150000Y-10100000D01*
X7150000Y-12500000D01*
X7152882Y-12529264D01*
X7161418Y-12557403D01*
X7175280Y-12583336D01*
X7193934Y-12606066D01*
X7293934Y-12706066D01*
X7316664Y-12724720D01*
X7342597Y-12738582D01*
X7370736Y-12747118D01*
X7400000Y-12750000D01*
X8140000Y-12750000D01*
X8140000Y-13699339D01*
X8136478Y-13704610D01*
X8087479Y-13822902D01*
X8062500Y-13948481D01*
X8062500Y-14076519D01*
X8087479Y-14202098D01*
X8136478Y-14320390D01*
X8140000Y-14325661D01*
X8140000Y-14500000D01*
X8146917Y-14570233D01*
X8167403Y-14637766D01*
X8200671Y-14700005D01*
X8245442Y-14754558D01*
X8299995Y-14799329D01*
X8362234Y-14832597D01*
X8429767Y-14853083D01*
X8500000Y-14860000D01*
X11261438Y-14860000D01*
X11261438Y-15600027D01*
X11195480Y-15627348D01*
X11089019Y-15698482D01*
X10998482Y-15789019D01*
X10927348Y-15895480D01*
X10878349Y-16013772D01*
X10853370Y-16139351D01*
X10853370Y-16267389D01*
X10878349Y-16392968D01*
X10927348Y-16511260D01*
X10998482Y-16617721D01*
X11089019Y-16708258D01*
X11195480Y-16779392D01*
X11313772Y-16828391D01*
X11439351Y-16853370D01*
X11567389Y-16853370D01*
X11692968Y-16828391D01*
X11811260Y-16779392D01*
X11917721Y-16708258D01*
X12008258Y-16617721D01*
X12079392Y-16511260D01*
X12128391Y-16392968D01*
X12153370Y-16267389D01*
X12153370Y-16255886D01*
X12179184Y-16224431D01*
X12222614Y-16143180D01*
X12225612Y-16137571D01*
X12245032Y-16073551D01*
X12254203Y-16043319D01*
X12261438Y-15969862D01*
X12261438Y-15969853D01*
X12263856Y-15945303D01*
X12261438Y-15920753D01*
X12261438Y-12045667D01*
X12847486Y-11459620D01*
X12854399Y-11459620D01*
X12979978Y-11434641D01*
X13098270Y-11385642D01*
X13204731Y-11314508D01*
X13295268Y-11223971D01*
X13366402Y-11117510D01*
X13415401Y-10999218D01*
X13440380Y-10873639D01*
X13440380Y-10745601D01*
X14359620Y-10745601D01*
X14359620Y-10873639D01*
X14384599Y-10999218D01*
X14433598Y-11117510D01*
X14504732Y-11223971D01*
X14595269Y-11314508D01*
X14701730Y-11385642D01*
X14820022Y-11434641D01*
X14945601Y-11459620D01*
X15073639Y-11459620D01*
X15199218Y-11434641D01*
X15317510Y-11385642D01*
X15423971Y-11314508D01*
X15514508Y-11223971D01*
X15585642Y-11117510D01*
X15634641Y-10999218D01*
X15659620Y-10873639D01*
X15659620Y-10745601D01*
X15634641Y-10620022D01*
X15585642Y-10501730D01*
X15514508Y-10395269D01*
X15423971Y-10304732D01*
X15317510Y-10233598D01*
X15199218Y-10184599D01*
X15073639Y-10159620D01*
X14945601Y-10159620D01*
X14820022Y-10184599D01*
X14701730Y-10233598D01*
X14595269Y-10304732D01*
X14504732Y-10395269D01*
X14433598Y-10501730D01*
X14384599Y-10620022D01*
X14359620Y-10745601D01*
X13440380Y-10745601D01*
X13415401Y-10620022D01*
X13366402Y-10501730D01*
X13295268Y-10395269D01*
X13204731Y-10304732D01*
X13098270Y-10233598D01*
X12979978Y-10184599D01*
X12854399Y-10159620D01*
X12726361Y-10159620D01*
X12600782Y-10184599D01*
X12482490Y-10233598D01*
X12376029Y-10304732D01*
X12285492Y-10395269D01*
X12214358Y-10501730D01*
X12165359Y-10620022D01*
X12150000Y-10697238D01*
X12150000Y-10100000D01*
X15850000Y-10100000D01*
X15850000Y-12500000D01*
X15852882Y-12529264D01*
X15861418Y-12557403D01*
X15875280Y-12583336D01*
X15893934Y-12606066D01*
X15993934Y-12706066D01*
X16016664Y-12724720D01*
X16042597Y-12738582D01*
X16070736Y-12747118D01*
X16100000Y-12750000D01*
X16140000Y-12750000D01*
X16140000Y-14500000D01*
X16146917Y-14570233D01*
X16167403Y-14637766D01*
X16200671Y-14700005D01*
X16245442Y-14754558D01*
X16299995Y-14799329D01*
X16362234Y-14832597D01*
X16429767Y-14853083D01*
X16500000Y-14860000D01*
X19500000Y-14860000D01*
X19570233Y-14853083D01*
X19637766Y-14832597D01*
X19700005Y-14799329D01*
X19754558Y-14754558D01*
X19799329Y-14700005D01*
X19832597Y-14637766D01*
X19853083Y-14570233D01*
X19860000Y-14500000D01*
X19860000Y-14331869D01*
X19876022Y-14307890D01*
X19925021Y-14189598D01*
X19950000Y-14064019D01*
X19950000Y-13935981D01*
X19925021Y-13810402D01*
X19876022Y-13692110D01*
X19860000Y-13668131D01*
X19860000Y-12750000D01*
X21200000Y-12750000D01*
X21229264Y-12747118D01*
X21252042Y-12740683D01*
X21427968Y-12675604D01*
X21454414Y-12662748D01*
X21473545Y-12648809D01*
X22021693Y-12178967D01*
X22042036Y-12157735D01*
X22060351Y-12127758D01*
X22136277Y-11962679D01*
X22145886Y-11934888D01*
X22150000Y-11900000D01*
X22150000Y-9100000D01*
X22147118Y-9070736D01*
X22138582Y-9042597D01*
X22067871Y-8871886D01*
X22054009Y-8845953D01*
X22035355Y-8823223D01*
X21676777Y-8464645D01*
X21654047Y-8445991D01*
X21628114Y-8432129D01*
X21457403Y-8361418D01*
X21429264Y-8352882D01*
X21400000Y-8350000D01*
X20629838Y-8350000D01*
X20514257Y-8302125D01*
X20197875Y-7985743D01*
X20150000Y-7870162D01*
X20150000Y-5900000D01*
X20147118Y-5870736D01*
X20138582Y-5842597D01*
X20124720Y-5816664D01*
X20106066Y-5793934D01*
X20006066Y-5693934D01*
X19983336Y-5675280D01*
X19957403Y-5661418D01*
X19929264Y-5652882D01*
X19900000Y-5650000D01*
X19100000Y-5650000D01*
X19070736Y-5652882D01*
X19042597Y-5661418D01*
X19016664Y-5675280D01*
X18993934Y-5693934D01*
X18893934Y-5793934D01*
X18875280Y-5816664D01*
X18861418Y-5842597D01*
X18852882Y-5870736D01*
X18850000Y-5900000D01*
X18850000Y-9640000D01*
X16500000Y-9640000D01*
X16429767Y-9646917D01*
X16362234Y-9667403D01*
X16299995Y-9700671D01*
X16245442Y-9745442D01*
X16200671Y-9799995D01*
X16173942Y-9850000D01*
X16100000Y-9850000D01*
X16070736Y-9852882D01*
X16042597Y-9861418D01*
X16016664Y-9875280D01*
X15993934Y-9893934D01*
X15893934Y-9993934D01*
X15875280Y-10016664D01*
X15861418Y-10042597D01*
X15852882Y-10070736D01*
X15850000Y-10100000D01*
X12150000Y-10100000D01*
X12147118Y-10070736D01*
X12138582Y-10042597D01*
X12124720Y-10016664D01*
X12106066Y-9993934D01*
X12006066Y-9893934D01*
X11983336Y-9875280D01*
X11957403Y-9861418D01*
X11929264Y-9852882D01*
X11900000Y-9850000D01*
X11826058Y-9850000D01*
X11799329Y-9799995D01*
X11754558Y-9745442D01*
X11700005Y-9700671D01*
X11637766Y-9667403D01*
X11570233Y-9646917D01*
X11500000Y-9640000D01*
X9404093Y-9640000D01*
X9295558Y-9504331D01*
X9250000Y-9374455D01*
X9250000Y-5900000D01*
X9247118Y-5870736D01*
X9238582Y-5842597D01*
X9224720Y-5816664D01*
X9206066Y-5793934D01*
X9106066Y-5693934D01*
X9083336Y-5675280D01*
X9057403Y-5661418D01*
X9029264Y-5652882D01*
X9000000Y-5650000D01*
X8000000Y-5650000D01*
X7970736Y-5652882D01*
X7942597Y-5661418D01*
X7916664Y-5675280D01*
X7893934Y-5693934D01*
X7793934Y-5793934D01*
X7775280Y-5816664D01*
X7761418Y-5842597D01*
X7752882Y-5870736D01*
X7750000Y-5900000D01*
X7750000Y-9270162D01*
X7702125Y-9385743D01*
X7264645Y-9823223D01*
X7245991Y-9845953D01*
X7232129Y-9871886D01*
X7161418Y-10042597D01*
X7152882Y-10070736D01*
X7150000Y-10100000D01*
X2772936Y-10100000D01*
X3086303Y-3676886D01*
X3450000Y-3676886D01*
X3450000Y-3923114D01*
X3498037Y-4164611D01*
X3592265Y-4392097D01*
X3729062Y-4596828D01*
X3903172Y-4770938D01*
X4107903Y-4907735D01*
X4335389Y-5001963D01*
X4576886Y-5050000D01*
X4823114Y-5050000D01*
X5064611Y-5001963D01*
X5292097Y-4907735D01*
X5496828Y-4770938D01*
X5670938Y-4596828D01*
X5807735Y-4392097D01*
X5901963Y-4164611D01*
X5950000Y-3923114D01*
X5950000Y-3785981D01*
X7550000Y-3785981D01*
X7550000Y-3914019D01*
X7574979Y-4039598D01*
X7623978Y-4157890D01*
X7695112Y-4264351D01*
X7785649Y-4354888D01*
X7892110Y-4426022D01*
X8010402Y-4475021D01*
X8135981Y-4500000D01*
X8264019Y-4500000D01*
X8389598Y-4475021D01*
X8507890Y-4426022D01*
X8614351Y-4354888D01*
X8704888Y-4264351D01*
X8776022Y-4157890D01*
X8825021Y-4039598D01*
X8850000Y-3914019D01*
X8850000Y-3785981D01*
X19150000Y-3785981D01*
X19150000Y-3914019D01*
X19174979Y-4039598D01*
X19223978Y-4157890D01*
X19295112Y-4264351D01*
X19385649Y-4354888D01*
X19492110Y-4426022D01*
X19610402Y-4475021D01*
X19735981Y-4500000D01*
X19864019Y-4500000D01*
X19989598Y-4475021D01*
X20107890Y-4426022D01*
X20214351Y-4354888D01*
X20304888Y-4264351D01*
X20376022Y-4157890D01*
X20425021Y-4039598D01*
X20450000Y-3914019D01*
X20450000Y-3785981D01*
X20428300Y-3676886D01*
X22050000Y-3676886D01*
X22050000Y-3923114D01*
X22098037Y-4164611D01*
X22192265Y-4392097D01*
X22329062Y-4596828D01*
X22503172Y-4770938D01*
X22707903Y-4907735D01*
X22935389Y-5001963D01*
X23176886Y-5050000D01*
X23423114Y-5050000D01*
X23664611Y-5001963D01*
X23892097Y-4907735D01*
X24096828Y-4770938D01*
X24270938Y-4596828D01*
X24407735Y-4392097D01*
X24501963Y-4164611D01*
X24550000Y-3923114D01*
X24550000Y-3676886D01*
X24501963Y-3435389D01*
X24407735Y-3207903D01*
X24270938Y-3003172D01*
X24096828Y-2829062D01*
X23892097Y-2692265D01*
X23664611Y-2598037D01*
X23423114Y-2550000D01*
X23176886Y-2550000D01*
X22935389Y-2598037D01*
X22707903Y-2692265D01*
X22503172Y-2829062D01*
X22329062Y-3003172D01*
X22192265Y-3207903D01*
X22098037Y-3435389D01*
X22050000Y-3676886D01*
X20428300Y-3676886D01*
X20425021Y-3660402D01*
X20376022Y-3542110D01*
X20304888Y-3435649D01*
X20214351Y-3345112D01*
X20107890Y-3273978D01*
X19989598Y-3224979D01*
X19864019Y-3200000D01*
X19735981Y-3200000D01*
X19610402Y-3224979D01*
X19492110Y-3273978D01*
X19385649Y-3345112D01*
X19295112Y-3435649D01*
X19223978Y-3542110D01*
X19174979Y-3660402D01*
X19150000Y-3785981D01*
X8850000Y-3785981D01*
X8825021Y-3660402D01*
X8776022Y-3542110D01*
X8704888Y-3435649D01*
X8614351Y-3345112D01*
X8507890Y-3273978D01*
X8389598Y-3224979D01*
X8264019Y-3200000D01*
X8135981Y-3200000D01*
X8010402Y-3224979D01*
X7892110Y-3273978D01*
X7785649Y-3345112D01*
X7695112Y-3435649D01*
X7623978Y-3542110D01*
X7574979Y-3660402D01*
X7550000Y-3785981D01*
X5950000Y-3785981D01*
X5950000Y-3676886D01*
X5901963Y-3435389D01*
X5807735Y-3207903D01*
X5670938Y-3003172D01*
X5496828Y-2829062D01*
X5292097Y-2692265D01*
X5064611Y-2598037D01*
X4823114Y-2550000D01*
X4576886Y-2550000D01*
X4335389Y-2598037D01*
X4107903Y-2692265D01*
X3903172Y-2829062D01*
X3729062Y-3003172D01*
X3592265Y-3207903D01*
X3498037Y-3435389D01*
X3450000Y-3676886D01*
X3086303Y-3676886D01*
X3274107Y172554D01*
X3296285Y398738D01*
X3354004Y589913D01*
X3447753Y766231D01*
X3573967Y920984D01*
X3727831Y1048272D01*
X3903494Y1143252D01*
X4094257Y1202302D01*
X4310206Y1225000D01*
X6075000Y1225000D01*
X6075001Y-1668419D01*
G37*
G04 #@! TD.AperFunction*
G04 #@! TD*
D15*
G04 #@! TO.N,-6V*
X19350000Y-14350000D02*
X16650000Y-14350000D01*
X16650000Y-10150000D01*
X19350000Y-10150000D01*
X19350000Y-14350000D01*
G04 #@! TA.AperFunction,Conductor*
D17*
G36*
X19350000Y-14350000D02*
G01*
X16650000Y-14350000D01*
X16650000Y-10150000D01*
X19350000Y-10150000D01*
X19350000Y-14350000D01*
G37*
G04 #@! TD.AperFunction*
G04 #@! TD*
D15*
G04 #@! TO.N,-6V*
X11350000Y-11535985D02*
X11335338Y-11553851D01*
X11287980Y-11642450D01*
X11258819Y-11738585D01*
X11248971Y-11838562D01*
X11251439Y-11863617D01*
X11251438Y-14350000D01*
X8650000Y-14350000D01*
X8650000Y-10150000D01*
X11350000Y-10150000D01*
X11350000Y-11535985D01*
G04 #@! TA.AperFunction,Conductor*
D17*
G36*
X11350000Y-11535985D02*
G01*
X11335338Y-11553851D01*
X11287980Y-11642450D01*
X11258819Y-11738585D01*
X11248971Y-11838562D01*
X11251439Y-11863617D01*
X11251438Y-14350000D01*
X8650000Y-14350000D01*
X8650000Y-10150000D01*
X11350000Y-10150000D01*
X11350000Y-11535985D01*
G37*
G04 #@! TD.AperFunction*
G04 #@! TD*
D15*
G04 #@! TO.N,-6V*
X18416795Y-23124808D02*
X18442742Y-23138642D01*
X18470890Y-23147148D01*
X18500000Y-23150000D01*
X20850000Y-23150000D01*
X20850000Y-25350000D01*
X18500000Y-25350000D01*
X18470736Y-25352882D01*
X18442597Y-25361418D01*
X18416795Y-25375192D01*
X16954583Y-26350000D01*
X16150000Y-26350000D01*
X16150000Y-22150000D01*
X16954583Y-22150000D01*
X18416795Y-23124808D01*
G04 #@! TA.AperFunction,Conductor*
D17*
G36*
X18416795Y-23124808D02*
G01*
X18442742Y-23138642D01*
X18470890Y-23147148D01*
X18500000Y-23150000D01*
X20850000Y-23150000D01*
X20850000Y-25350000D01*
X18500000Y-25350000D01*
X18470736Y-25352882D01*
X18442597Y-25361418D01*
X18416795Y-25375192D01*
X16954583Y-26350000D01*
X16150000Y-26350000D01*
X16150000Y-22150000D01*
X16954583Y-22150000D01*
X18416795Y-23124808D01*
G37*
G04 #@! TD.AperFunction*
G04 #@! TD*
D18*
X9100000Y-30700000D03*
X9800000Y-31400000D03*
X8356250Y-29243750D03*
X6800000Y-32900000D03*
X8000000Y-23400000D03*
X9000000Y-21200000D03*
X11400000Y-23591048D03*
X5900000Y-29200000D03*
X5100000Y-29200000D03*
X5900000Y-29800000D03*
X5100000Y-29800000D03*
X5100000Y-30400000D03*
X5900000Y-30400000D03*
X5900000Y-28600000D03*
X5100000Y-28600000D03*
X5100000Y-28000000D03*
X5900000Y-28000000D03*
X2169305Y-35459689D03*
X6800000Y-24800000D03*
X9800000Y-30700000D03*
X2350000Y-23350000D03*
X11400000Y-22950000D03*
X2850027Y-19550027D03*
X13749990Y-22945864D03*
X10249967Y-19550027D03*
X7950027Y-19550027D03*
X12200000Y-21000004D03*
X6700000Y-34600000D03*
X6100000Y-21600013D03*
X10018750Y-24831250D03*
X6100000Y-20800000D03*
X5189209Y-34610791D03*
X12650000Y-24950000D03*
X12790380Y-10809620D03*
X15009620Y-10809620D03*
X19000000Y-27700000D03*
X15700000Y-27700000D03*
X11093750Y-28906250D03*
X22900000Y-27600000D03*
X21800000Y-26400000D03*
X11503370Y-16203370D03*
X17199986Y-13500000D03*
X17800000Y-13500000D03*
X18400004Y-13500000D03*
X19000000Y-13500006D03*
X17500000Y-14000000D03*
X18100000Y-14000000D03*
X18700000Y-14000000D03*
X9000000Y-13500000D03*
X9600000Y-13500000D03*
X10200000Y-13500000D03*
X10800000Y-13500000D03*
X9300000Y-14000000D03*
X9900000Y-14000000D03*
X10500000Y-14000000D03*
X8712500Y-14012500D03*
X11100000Y-14000000D03*
X16900000Y-14000000D03*
X19300000Y-14000000D03*
X9000000Y-10500000D03*
X9600000Y-10500000D03*
X10200000Y-10500000D03*
X10800000Y-10500000D03*
X17200000Y-10500000D03*
X17800000Y-10500000D03*
X18400000Y-10500000D03*
X19000000Y-10500000D03*
X20800000Y-23200000D03*
X20800000Y-23800000D03*
X20800000Y-24400000D03*
X20800000Y-25000000D03*
X17800000Y-23200000D03*
X17800000Y-23800000D03*
X17800000Y-24400000D03*
X17800000Y-25000000D03*
X17300000Y-23500000D03*
X17300000Y-22900000D03*
X17300000Y-24100000D03*
X17300000Y-24700000D03*
X17300000Y-25300000D03*
X16800000Y-23200000D03*
X16800000Y-22600000D03*
X16800000Y-23800000D03*
X16800000Y-24400000D03*
X16800000Y-25000000D03*
X16800000Y-25600000D03*
X23500000Y-31000000D03*
X16300000Y-22900000D03*
X16300004Y-22300000D03*
X16300000Y-23500000D03*
X16300000Y-24100000D03*
X16300000Y-24700000D03*
X16300000Y-25300000D03*
X16300000Y-25900000D03*
X14088897Y-27149573D03*
X7675000Y-31115908D03*
X7800000Y-28300000D03*
X3487095Y-31027421D03*
X10000002Y-35700000D03*
X10000000Y-36299984D03*
X7800000Y-27700000D03*
X19800000Y-3850000D03*
X8200000Y-3850000D03*
X24200000Y-24600000D03*
X9600000Y-15600000D03*
X22900000Y-8850012D03*
X14800000Y-13600000D03*
X12999987Y-13578597D03*
X16700000Y-20500000D03*
X5900000Y-16200000D03*
X22100000Y-16200000D03*
X22100000Y-17700000D03*
X12500000Y-19100000D03*
X6080000Y-2415000D03*
X10320000Y-2415000D03*
X17808782Y-2536827D03*
X21920000Y-2415000D03*
X6174990Y-4874990D03*
X17700000Y-4900000D03*
X21825010Y-4825010D03*
X15500000Y-19100000D03*
X10300000Y-4900000D03*
X15000000Y-8700000D03*
X12800000Y-8700000D03*
X17524882Y1000000D03*
X17524966Y-750000D03*
X10475030Y1000000D03*
X10475020Y-700000D03*
X24000000Y-33800000D03*
X5900000Y-17700000D03*
X2900000Y-18100000D03*
X10200000Y-18100000D03*
X23600000Y-24600000D03*
X13749990Y-20600000D03*
X15270711Y-26210049D03*
X8000000Y-18100000D03*
X15270711Y-22929289D03*
X14900000Y-28450006D03*
X5800000Y1000000D03*
X22300000Y1000000D03*
D19*
X23300000Y-3800000D03*
X4700000Y-3800000D03*
X13400000Y-33100000D03*
X13400000Y-32300000D03*
X13400000Y-31500000D03*
X14600000Y-31500000D03*
X14600000Y-32300000D03*
X15700000Y-34700000D03*
X15700000Y-35500000D03*
X15700000Y-36300000D03*
X12300000Y-34700000D03*
X12300000Y-35500000D03*
X12300000Y-36300000D03*
X14000000Y-29400000D03*
X14600000Y-33100000D03*
D18*
X25099794Y-10392150D03*
X24500617Y-10423551D03*
X25131196Y-10991327D03*
X25349794Y-15392150D03*
X24750617Y-15423551D03*
X25381196Y-15991327D03*
X2618804Y-15991327D03*
X3249383Y-15423551D03*
X2650206Y-15392150D03*
X2868804Y-10991327D03*
X3499383Y-10423551D03*
X2900206Y-10392150D03*
D19*
X19000000Y-34700000D03*
D18*
X18550000Y-24600000D03*
X18550000Y-23600000D03*
X20050000Y-24600000D03*
X20050000Y-23600000D03*
X19300000Y-24100000D03*
X10400000Y-12750000D03*
X9400000Y-12750000D03*
X10400000Y-11250000D03*
X9400000Y-11250000D03*
X9900000Y-12000000D03*
X17600000Y-11250000D03*
X18600000Y-11250000D03*
X17600000Y-12750000D03*
X18600000Y-12750000D03*
X18100000Y-12000000D03*
M02*
