G04 #@! TF.GenerationSoftware,KiCad,Pcbnew,5.1.9-73d0e3b20d~88~ubuntu20.04.1*
G04 #@! TF.CreationDate,2021-06-04T11:55:54+03:00*
G04 #@! TF.ProjectId,differential-tweezer,64696666-6572-4656-9e74-69616c2d7477,rev?*
G04 #@! TF.SameCoordinates,Original*
G04 #@! TF.FileFunction,Soldermask,Top*
G04 #@! TF.FilePolarity,Negative*
%FSLAX46Y46*%
G04 Gerber Fmt 4.6, Leading zero omitted, Abs format (unit mm)*
G04 Created by KiCad (PCBNEW 5.1.9-73d0e3b20d~88~ubuntu20.04.1) date 2021-06-04 11:55:54*
%MOMM*%
%LPD*%
G01*
G04 APERTURE LIST*
%ADD10R,0.900000X0.800000*%
%ADD11R,1.500000X2.200000*%
%ADD12R,2.200000X1.500000*%
%ADD13C,2.800000*%
%ADD14C,2.000000*%
%ADD15R,2.000000X2.000000*%
%ADD16C,0.600000*%
%ADD17R,4.000000X5.000000*%
%ADD18R,3.000000X5.000000*%
%ADD19R,1.500000X2.000000*%
%ADD20C,4.200000*%
%ADD21R,3.200000X1.800000*%
%ADD22R,0.700000X0.600000*%
%ADD23O,0.400000X0.650000*%
%ADD24R,0.400000X0.300000*%
%ADD25R,2.400000X1.650000*%
%ADD26R,1.000000X0.650000*%
%ADD27O,0.650000X0.400000*%
%ADD28R,0.300000X0.400000*%
%ADD29R,1.650000X2.400000*%
%ADD30R,0.650000X1.000000*%
%ADD31R,3.300000X1.550000*%
%ADD32R,0.250000X0.700000*%
%ADD33R,1.600000X1.500000*%
%ADD34R,1.200000X1.200000*%
%ADD35R,1.000000X0.850000*%
G04 APERTURE END LIST*
G04 #@! TO.C,C21*
G36*
G01*
X10050000Y-8256250D02*
X10050000Y-7743750D01*
G75*
G02*
X10268750Y-7525000I218750J0D01*
G01*
X10706250Y-7525000D01*
G75*
G02*
X10925000Y-7743750I0J-218750D01*
G01*
X10925000Y-8256250D01*
G75*
G02*
X10706250Y-8475000I-218750J0D01*
G01*
X10268750Y-8475000D01*
G75*
G02*
X10050000Y-8256250I0J218750D01*
G01*
G37*
G36*
G01*
X8475000Y-8256250D02*
X8475000Y-7743750D01*
G75*
G02*
X8693750Y-7525000I218750J0D01*
G01*
X9131250Y-7525000D01*
G75*
G02*
X9350000Y-7743750I0J-218750D01*
G01*
X9350000Y-8256250D01*
G75*
G02*
X9131250Y-8475000I-218750J0D01*
G01*
X8693750Y-8475000D01*
G75*
G02*
X8475000Y-8256250I0J218750D01*
G01*
G37*
G04 #@! TD*
G04 #@! TO.C,C20*
G36*
G01*
X14256250Y-7550000D02*
X13743750Y-7550000D01*
G75*
G02*
X13525000Y-7331250I0J218750D01*
G01*
X13525000Y-6893750D01*
G75*
G02*
X13743750Y-6675000I218750J0D01*
G01*
X14256250Y-6675000D01*
G75*
G02*
X14475000Y-6893750I0J-218750D01*
G01*
X14475000Y-7331250D01*
G75*
G02*
X14256250Y-7550000I-218750J0D01*
G01*
G37*
G36*
G01*
X14256250Y-9125000D02*
X13743750Y-9125000D01*
G75*
G02*
X13525000Y-8906250I0J218750D01*
G01*
X13525000Y-8468750D01*
G75*
G02*
X13743750Y-8250000I218750J0D01*
G01*
X14256250Y-8250000D01*
G75*
G02*
X14475000Y-8468750I0J-218750D01*
G01*
X14475000Y-8906250D01*
G75*
G02*
X14256250Y-9125000I-218750J0D01*
G01*
G37*
G04 #@! TD*
D10*
G04 #@! TO.C,D6*
X19050000Y-28350000D03*
X17050000Y-29300000D03*
X17050000Y-27400000D03*
G04 #@! TD*
D11*
G04 #@! TO.C,J8*
X7400000Y-3900000D03*
D12*
X9700000Y-6200000D03*
D11*
X12000000Y-3900000D03*
G36*
G01*
X9375000Y-2650000D02*
X10025000Y-2650000D01*
G75*
G02*
X10200000Y-2825000I0J-175000D01*
G01*
X10200000Y-3175000D01*
G75*
G02*
X10025000Y-3350000I-175000J0D01*
G01*
X9375000Y-3350000D01*
G75*
G02*
X9200000Y-3175000I0J175000D01*
G01*
X9200000Y-2825000D01*
G75*
G02*
X9375000Y-2650000I175000J0D01*
G01*
G37*
G36*
G01*
X9150000Y-3575000D02*
X9150000Y-4225000D01*
G75*
G02*
X8975000Y-4400000I-175000J0D01*
G01*
X8625000Y-4400000D01*
G75*
G02*
X8450000Y-4225000I0J175000D01*
G01*
X8450000Y-3575000D01*
G75*
G02*
X8625000Y-3400000I175000J0D01*
G01*
X8975000Y-3400000D01*
G75*
G02*
X9150000Y-3575000I0J-175000D01*
G01*
G37*
G36*
G01*
X9375000Y-4450000D02*
X10025000Y-4450000D01*
G75*
G02*
X10200000Y-4625000I0J-175000D01*
G01*
X10200000Y-4975000D01*
G75*
G02*
X10025000Y-5150000I-175000J0D01*
G01*
X9375000Y-5150000D01*
G75*
G02*
X9200000Y-4975000I0J175000D01*
G01*
X9200000Y-4625000D01*
G75*
G02*
X9375000Y-4450000I175000J0D01*
G01*
G37*
D12*
X9700000Y-1600000D03*
G36*
G01*
X10950000Y-3575000D02*
X10950000Y-4225000D01*
G75*
G02*
X10775000Y-4400000I-175000J0D01*
G01*
X10425000Y-4400000D01*
G75*
G02*
X10250000Y-4225000I0J175000D01*
G01*
X10250000Y-3575000D01*
G75*
G02*
X10425000Y-3400000I175000J0D01*
G01*
X10775000Y-3400000D01*
G75*
G02*
X10950000Y-3575000I0J-175000D01*
G01*
G37*
D13*
X7500000Y-1700000D03*
X7500000Y-6100000D03*
X11900000Y-6100000D03*
X11900000Y-1700000D03*
D14*
X9700000Y-3900000D03*
G04 #@! TD*
G04 #@! TO.C,L4*
G36*
G01*
X3850001Y-27750000D02*
X2949999Y-27750000D01*
G75*
G02*
X2700000Y-27500001I0J249999D01*
G01*
X2700000Y-26849999D01*
G75*
G02*
X2949999Y-26600000I249999J0D01*
G01*
X3850001Y-26600000D01*
G75*
G02*
X4100000Y-26849999I0J-249999D01*
G01*
X4100000Y-27500001D01*
G75*
G02*
X3850001Y-27750000I-249999J0D01*
G01*
G37*
G36*
G01*
X3850001Y-29800000D02*
X2949999Y-29800000D01*
G75*
G02*
X2700000Y-29550001I0J249999D01*
G01*
X2700000Y-28899999D01*
G75*
G02*
X2949999Y-28650000I249999J0D01*
G01*
X3850001Y-28650000D01*
G75*
G02*
X4100000Y-28899999I0J-249999D01*
G01*
X4100000Y-29550001D01*
G75*
G02*
X3850001Y-29800000I-249999J0D01*
G01*
G37*
G04 #@! TD*
G04 #@! TO.C,L3*
G36*
G01*
X10850001Y-27875000D02*
X9949999Y-27875000D01*
G75*
G02*
X9700000Y-27625001I0J249999D01*
G01*
X9700000Y-26974999D01*
G75*
G02*
X9949999Y-26725000I249999J0D01*
G01*
X10850001Y-26725000D01*
G75*
G02*
X11100000Y-26974999I0J-249999D01*
G01*
X11100000Y-27625001D01*
G75*
G02*
X10850001Y-27875000I-249999J0D01*
G01*
G37*
G36*
G01*
X10850001Y-29925000D02*
X9949999Y-29925000D01*
G75*
G02*
X9700000Y-29675001I0J249999D01*
G01*
X9700000Y-29024999D01*
G75*
G02*
X9949999Y-28775000I249999J0D01*
G01*
X10850001Y-28775000D01*
G75*
G02*
X11100000Y-29024999I0J-249999D01*
G01*
X11100000Y-29675001D01*
G75*
G02*
X10850001Y-29925000I-249999J0D01*
G01*
G37*
G04 #@! TD*
G04 #@! TO.C,C22*
G36*
G01*
X13643750Y-11250000D02*
X14156250Y-11250000D01*
G75*
G02*
X14375000Y-11468750I0J-218750D01*
G01*
X14375000Y-11906250D01*
G75*
G02*
X14156250Y-12125000I-218750J0D01*
G01*
X13643750Y-12125000D01*
G75*
G02*
X13425000Y-11906250I0J218750D01*
G01*
X13425000Y-11468750D01*
G75*
G02*
X13643750Y-11250000I218750J0D01*
G01*
G37*
G36*
G01*
X13643750Y-9675000D02*
X14156250Y-9675000D01*
G75*
G02*
X14375000Y-9893750I0J-218750D01*
G01*
X14375000Y-10331250D01*
G75*
G02*
X14156250Y-10550000I-218750J0D01*
G01*
X13643750Y-10550000D01*
G75*
G02*
X13425000Y-10331250I0J218750D01*
G01*
X13425000Y-9893750D01*
G75*
G02*
X13643750Y-9675000I218750J0D01*
G01*
G37*
G04 #@! TD*
D15*
G04 #@! TO.C,J2*
X14000000Y-31900000D03*
D16*
X15600000Y-31300000D03*
X15600000Y-33400000D03*
X15600000Y-35500000D03*
X12400000Y-31300000D03*
X12400000Y-33400000D03*
X12400000Y-35500000D03*
D15*
X14000000Y-34900000D03*
D17*
X14000000Y-33400000D03*
G04 #@! TD*
G04 #@! TO.C,J4*
G36*
G01*
X25299309Y-11332997D02*
X24899857Y-11353932D01*
G75*
G02*
X24847309Y-11306618I-2617J49931D01*
G01*
X24842075Y-11206755D01*
G75*
G02*
X24889389Y-11154207I49931J2617D01*
G01*
X25288841Y-11133272D01*
G75*
G02*
X25341389Y-11180586I2617J-49931D01*
G01*
X25346623Y-11280449D01*
G75*
G02*
X25299309Y-11332997I-49931J-2617D01*
G01*
G37*
G36*
G01*
X25270524Y-10783750D02*
X24871072Y-10804685D01*
G75*
G02*
X24818524Y-10757371I-2617J49931D01*
G01*
X24813290Y-10657508D01*
G75*
G02*
X24860604Y-10604960I49931J2617D01*
G01*
X25260056Y-10584025D01*
G75*
G02*
X25312604Y-10631339I2617J-49931D01*
G01*
X25317838Y-10731202D01*
G75*
G02*
X25270524Y-10783750I-49931J-2617D01*
G01*
G37*
G36*
G01*
X24111633Y-10644212D02*
X24090698Y-10244760D01*
G75*
G02*
X24138012Y-10192212I49931J2617D01*
G01*
X24237875Y-10186978D01*
G75*
G02*
X24290423Y-10234292I2617J-49931D01*
G01*
X24311358Y-10633744D01*
G75*
G02*
X24264044Y-10686292I-49931J-2617D01*
G01*
X24164181Y-10691526D01*
G75*
G02*
X24111633Y-10644212I-2617J49931D01*
G01*
G37*
G36*
G01*
X24891016Y-9752199D02*
X25140673Y-9739115D01*
G75*
G02*
X25272044Y-9857402I6542J-124829D01*
G01*
X25295595Y-10306786D01*
G75*
G02*
X25177308Y-10438157I-124829J-6542D01*
G01*
X24927651Y-10451241D01*
G75*
G02*
X24796280Y-10332954I-6542J124829D01*
G01*
X24772729Y-9883570D01*
G75*
G02*
X24891016Y-9752199I124829J6542D01*
G01*
G37*
G36*
G01*
X24110324Y-10619246D02*
X24092006Y-10269725D01*
G75*
G02*
X24257607Y-10085806I174760J9159D01*
G01*
X25206305Y-10036087D01*
G75*
G02*
X25390224Y-10201688I9159J-174760D01*
G01*
X25408542Y-10551209D01*
G75*
G02*
X25242941Y-10735128I-174760J-9159D01*
G01*
X24294243Y-10784847D01*
G75*
G02*
X24110324Y-10619246I-9159J174760D01*
G01*
G37*
G36*
G01*
X24856785Y-10054405D02*
X25206306Y-10036087D01*
G75*
G02*
X25390225Y-10201688I9159J-174760D01*
G01*
X25439944Y-11150386D01*
G75*
G02*
X25274343Y-11334305I-174760J-9159D01*
G01*
X24924822Y-11352623D01*
G75*
G02*
X24740903Y-11187022I-9159J174760D01*
G01*
X24691184Y-10238324D01*
G75*
G02*
X24856785Y-10054405I174760J9159D01*
G01*
G37*
D16*
X25099794Y-10392150D03*
X24500617Y-10423551D03*
X25131196Y-10991327D03*
G04 #@! TD*
G04 #@! TO.C,J3*
G36*
G01*
X25449309Y-14132997D02*
X25049857Y-14153932D01*
G75*
G02*
X24997309Y-14106618I-2617J49931D01*
G01*
X24992075Y-14006755D01*
G75*
G02*
X25039389Y-13954207I49931J2617D01*
G01*
X25438841Y-13933272D01*
G75*
G02*
X25491389Y-13980586I2617J-49931D01*
G01*
X25496623Y-14080449D01*
G75*
G02*
X25449309Y-14132997I-49931J-2617D01*
G01*
G37*
G36*
G01*
X25420524Y-13583750D02*
X25021072Y-13604685D01*
G75*
G02*
X24968524Y-13557371I-2617J49931D01*
G01*
X24963290Y-13457508D01*
G75*
G02*
X25010604Y-13404960I49931J2617D01*
G01*
X25410056Y-13384025D01*
G75*
G02*
X25462604Y-13431339I2617J-49931D01*
G01*
X25467838Y-13531202D01*
G75*
G02*
X25420524Y-13583750I-49931J-2617D01*
G01*
G37*
G36*
G01*
X24261633Y-13444212D02*
X24240698Y-13044760D01*
G75*
G02*
X24288012Y-12992212I49931J2617D01*
G01*
X24387875Y-12986978D01*
G75*
G02*
X24440423Y-13034292I2617J-49931D01*
G01*
X24461358Y-13433744D01*
G75*
G02*
X24414044Y-13486292I-49931J-2617D01*
G01*
X24314181Y-13491526D01*
G75*
G02*
X24261633Y-13444212I-2617J49931D01*
G01*
G37*
G36*
G01*
X25041016Y-12552199D02*
X25290673Y-12539115D01*
G75*
G02*
X25422044Y-12657402I6542J-124829D01*
G01*
X25445595Y-13106786D01*
G75*
G02*
X25327308Y-13238157I-124829J-6542D01*
G01*
X25077651Y-13251241D01*
G75*
G02*
X24946280Y-13132954I-6542J124829D01*
G01*
X24922729Y-12683570D01*
G75*
G02*
X25041016Y-12552199I124829J6542D01*
G01*
G37*
G36*
G01*
X24260324Y-13419246D02*
X24242006Y-13069725D01*
G75*
G02*
X24407607Y-12885806I174760J9159D01*
G01*
X25356305Y-12836087D01*
G75*
G02*
X25540224Y-13001688I9159J-174760D01*
G01*
X25558542Y-13351209D01*
G75*
G02*
X25392941Y-13535128I-174760J-9159D01*
G01*
X24444243Y-13584847D01*
G75*
G02*
X24260324Y-13419246I-9159J174760D01*
G01*
G37*
G36*
G01*
X25006785Y-12854405D02*
X25356306Y-12836087D01*
G75*
G02*
X25540225Y-13001688I9159J-174760D01*
G01*
X25589944Y-13950386D01*
G75*
G02*
X25424343Y-14134305I-174760J-9159D01*
G01*
X25074822Y-14152623D01*
G75*
G02*
X24890903Y-13987022I-9159J174760D01*
G01*
X24841184Y-13038324D01*
G75*
G02*
X25006785Y-12854405I174760J9159D01*
G01*
G37*
X25249794Y-13192150D03*
X24650617Y-13223551D03*
X25281196Y-13791327D03*
G04 #@! TD*
G04 #@! TO.C,J6*
G36*
G01*
X3759302Y-13044760D02*
X3738367Y-13444212D01*
G75*
G02*
X3685819Y-13491526I-49931J2617D01*
G01*
X3585956Y-13486292D01*
G75*
G02*
X3538642Y-13433744I2617J49931D01*
G01*
X3559577Y-13034292D01*
G75*
G02*
X3612125Y-12986978I49931J-2617D01*
G01*
X3711988Y-12992212D01*
G75*
G02*
X3759302Y-13044760I-2617J-49931D01*
G01*
G37*
G36*
G01*
X2950143Y-14153932D02*
X2550691Y-14132997D01*
G75*
G02*
X2503377Y-14080449I2617J49931D01*
G01*
X2508611Y-13980586D01*
G75*
G02*
X2561159Y-13933272I49931J-2617D01*
G01*
X2960611Y-13954207D01*
G75*
G02*
X3007925Y-14006755I-2617J-49931D01*
G01*
X3002691Y-14106618D01*
G75*
G02*
X2950143Y-14153932I-49931J2617D01*
G01*
G37*
X2718804Y-13791327D03*
X3349383Y-13223551D03*
X2750206Y-13192150D03*
G36*
G01*
X2925178Y-14152623D02*
X2575657Y-14134305D01*
G75*
G02*
X2410056Y-13950386I9159J174760D01*
G01*
X2459775Y-13001688D01*
G75*
G02*
X2643694Y-12836087I174760J-9159D01*
G01*
X2993215Y-12854405D01*
G75*
G02*
X3158816Y-13038324I-9159J-174760D01*
G01*
X3109097Y-13987022D01*
G75*
G02*
X2925178Y-14152623I-174760J9159D01*
G01*
G37*
G36*
G01*
X2441458Y-13351209D02*
X2459776Y-13001688D01*
G75*
G02*
X2643695Y-12836087I174760J-9159D01*
G01*
X3592393Y-12885806D01*
G75*
G02*
X3757994Y-13069725I-9159J-174760D01*
G01*
X3739676Y-13419246D01*
G75*
G02*
X3555757Y-13584847I-174760J9159D01*
G01*
X2607059Y-13535128D01*
G75*
G02*
X2441458Y-13351209I9159J174760D01*
G01*
G37*
G04 #@! TD*
G04 #@! TO.C,J5*
G36*
G01*
X3909302Y-10244760D02*
X3888367Y-10644212D01*
G75*
G02*
X3835819Y-10691526I-49931J2617D01*
G01*
X3735956Y-10686292D01*
G75*
G02*
X3688642Y-10633744I2617J49931D01*
G01*
X3709577Y-10234292D01*
G75*
G02*
X3762125Y-10186978I49931J-2617D01*
G01*
X3861988Y-10192212D01*
G75*
G02*
X3909302Y-10244760I-2617J-49931D01*
G01*
G37*
G36*
G01*
X3100143Y-11353932D02*
X2700691Y-11332997D01*
G75*
G02*
X2653377Y-11280449I2617J49931D01*
G01*
X2658611Y-11180586D01*
G75*
G02*
X2711159Y-11133272I49931J-2617D01*
G01*
X3110611Y-11154207D01*
G75*
G02*
X3157925Y-11206755I-2617J-49931D01*
G01*
X3152691Y-11306618D01*
G75*
G02*
X3100143Y-11353932I-49931J2617D01*
G01*
G37*
X2868804Y-10991327D03*
X3499383Y-10423551D03*
X2900206Y-10392150D03*
G36*
G01*
X3075178Y-11352623D02*
X2725657Y-11334305D01*
G75*
G02*
X2560056Y-11150386I9159J174760D01*
G01*
X2609775Y-10201688D01*
G75*
G02*
X2793694Y-10036087I174760J-9159D01*
G01*
X3143215Y-10054405D01*
G75*
G02*
X3308816Y-10238324I-9159J-174760D01*
G01*
X3259097Y-11187022D01*
G75*
G02*
X3075178Y-11352623I-174760J9159D01*
G01*
G37*
G36*
G01*
X2591458Y-10551209D02*
X2609776Y-10201688D01*
G75*
G02*
X2793695Y-10036087I174760J-9159D01*
G01*
X3742393Y-10085806D01*
G75*
G02*
X3907994Y-10269725I-9159J-174760D01*
G01*
X3889676Y-10619246D01*
G75*
G02*
X3705757Y-10784847I-174760J9159D01*
G01*
X2757059Y-10735128D01*
G75*
G02*
X2591458Y-10551209I9159J174760D01*
G01*
G37*
G04 #@! TD*
D14*
G04 #@! TO.C,J1*
X14000000Y-21700000D03*
D18*
X14000000Y-26300000D03*
D16*
X15100000Y-28400000D03*
X12900000Y-28400000D03*
X12900000Y-24200000D03*
X12900000Y-26300000D03*
X15100000Y-26300000D03*
X15100000Y-24200000D03*
D19*
X14000000Y-27800000D03*
X14000000Y-24800000D03*
G04 #@! TD*
D11*
G04 #@! TO.C,J7*
X16000000Y-3900000D03*
D12*
X18300000Y-6200000D03*
D11*
X20600000Y-3900000D03*
G36*
G01*
X17975000Y-2650000D02*
X18625000Y-2650000D01*
G75*
G02*
X18800000Y-2825000I0J-175000D01*
G01*
X18800000Y-3175000D01*
G75*
G02*
X18625000Y-3350000I-175000J0D01*
G01*
X17975000Y-3350000D01*
G75*
G02*
X17800000Y-3175000I0J175000D01*
G01*
X17800000Y-2825000D01*
G75*
G02*
X17975000Y-2650000I175000J0D01*
G01*
G37*
G36*
G01*
X17750000Y-3575000D02*
X17750000Y-4225000D01*
G75*
G02*
X17575000Y-4400000I-175000J0D01*
G01*
X17225000Y-4400000D01*
G75*
G02*
X17050000Y-4225000I0J175000D01*
G01*
X17050000Y-3575000D01*
G75*
G02*
X17225000Y-3400000I175000J0D01*
G01*
X17575000Y-3400000D01*
G75*
G02*
X17750000Y-3575000I0J-175000D01*
G01*
G37*
G36*
G01*
X17975000Y-4450000D02*
X18625000Y-4450000D01*
G75*
G02*
X18800000Y-4625000I0J-175000D01*
G01*
X18800000Y-4975000D01*
G75*
G02*
X18625000Y-5150000I-175000J0D01*
G01*
X17975000Y-5150000D01*
G75*
G02*
X17800000Y-4975000I0J175000D01*
G01*
X17800000Y-4625000D01*
G75*
G02*
X17975000Y-4450000I175000J0D01*
G01*
G37*
D12*
X18300000Y-1600000D03*
G36*
G01*
X19550000Y-3575000D02*
X19550000Y-4225000D01*
G75*
G02*
X19375000Y-4400000I-175000J0D01*
G01*
X19025000Y-4400000D01*
G75*
G02*
X18850000Y-4225000I0J175000D01*
G01*
X18850000Y-3575000D01*
G75*
G02*
X19025000Y-3400000I175000J0D01*
G01*
X19375000Y-3400000D01*
G75*
G02*
X19550000Y-3575000I0J-175000D01*
G01*
G37*
D13*
X16100000Y-1700000D03*
X16100000Y-6100000D03*
X20500000Y-6100000D03*
X20500000Y-1700000D03*
D14*
X18300000Y-3900000D03*
G04 #@! TD*
G04 #@! TO.C,R23*
G36*
G01*
X22550000Y-9456250D02*
X22550000Y-8943750D01*
G75*
G02*
X22768750Y-8725000I218750J0D01*
G01*
X23206250Y-8725000D01*
G75*
G02*
X23425000Y-8943750I0J-218750D01*
G01*
X23425000Y-9456250D01*
G75*
G02*
X23206250Y-9675000I-218750J0D01*
G01*
X22768750Y-9675000D01*
G75*
G02*
X22550000Y-9456250I0J218750D01*
G01*
G37*
G36*
G01*
X20975000Y-9456250D02*
X20975000Y-8943750D01*
G75*
G02*
X21193750Y-8725000I218750J0D01*
G01*
X21631250Y-8725000D01*
G75*
G02*
X21850000Y-8943750I0J-218750D01*
G01*
X21850000Y-9456250D01*
G75*
G02*
X21631250Y-9675000I-218750J0D01*
G01*
X21193750Y-9675000D01*
G75*
G02*
X20975000Y-9456250I0J218750D01*
G01*
G37*
G04 #@! TD*
G04 #@! TO.C,R11*
G36*
G01*
X5450000Y-11943750D02*
X5450000Y-12456250D01*
G75*
G02*
X5231250Y-12675000I-218750J0D01*
G01*
X4793750Y-12675000D01*
G75*
G02*
X4575000Y-12456250I0J218750D01*
G01*
X4575000Y-11943750D01*
G75*
G02*
X4793750Y-11725000I218750J0D01*
G01*
X5231250Y-11725000D01*
G75*
G02*
X5450000Y-11943750I0J-218750D01*
G01*
G37*
G36*
G01*
X7025000Y-11943750D02*
X7025000Y-12456250D01*
G75*
G02*
X6806250Y-12675000I-218750J0D01*
G01*
X6368750Y-12675000D01*
G75*
G02*
X6150000Y-12456250I0J218750D01*
G01*
X6150000Y-11943750D01*
G75*
G02*
X6368750Y-11725000I218750J0D01*
G01*
X6806250Y-11725000D01*
G75*
G02*
X7025000Y-11943750I0J-218750D01*
G01*
G37*
G04 #@! TD*
G04 #@! TO.C,L9*
G36*
G01*
X9943750Y-32750000D02*
X10456250Y-32750000D01*
G75*
G02*
X10675000Y-32968750I0J-218750D01*
G01*
X10675000Y-33406250D01*
G75*
G02*
X10456250Y-33625000I-218750J0D01*
G01*
X9943750Y-33625000D01*
G75*
G02*
X9725000Y-33406250I0J218750D01*
G01*
X9725000Y-32968750D01*
G75*
G02*
X9943750Y-32750000I218750J0D01*
G01*
G37*
G36*
G01*
X9943750Y-31175000D02*
X10456250Y-31175000D01*
G75*
G02*
X10675000Y-31393750I0J-218750D01*
G01*
X10675000Y-31831250D01*
G75*
G02*
X10456250Y-32050000I-218750J0D01*
G01*
X9943750Y-32050000D01*
G75*
G02*
X9725000Y-31831250I0J218750D01*
G01*
X9725000Y-31393750D01*
G75*
G02*
X9943750Y-31175000I218750J0D01*
G01*
G37*
G04 #@! TD*
D10*
G04 #@! TO.C,D5*
X3400000Y-6200000D03*
X5400000Y-5250000D03*
X5400000Y-7150000D03*
G04 #@! TD*
G04 #@! TO.C,D4*
X24600000Y-6100000D03*
X22600000Y-7050000D03*
X22600000Y-5150000D03*
G04 #@! TD*
G04 #@! TO.C,C11*
G36*
G01*
X6150000Y-10956250D02*
X6150000Y-10443750D01*
G75*
G02*
X6368750Y-10225000I218750J0D01*
G01*
X6806250Y-10225000D01*
G75*
G02*
X7025000Y-10443750I0J-218750D01*
G01*
X7025000Y-10956250D01*
G75*
G02*
X6806250Y-11175000I-218750J0D01*
G01*
X6368750Y-11175000D01*
G75*
G02*
X6150000Y-10956250I0J218750D01*
G01*
G37*
G36*
G01*
X4575000Y-10956250D02*
X4575000Y-10443750D01*
G75*
G02*
X4793750Y-10225000I218750J0D01*
G01*
X5231250Y-10225000D01*
G75*
G02*
X5450000Y-10443750I0J-218750D01*
G01*
X5450000Y-10956250D01*
G75*
G02*
X5231250Y-11175000I-218750J0D01*
G01*
X4793750Y-11175000D01*
G75*
G02*
X4575000Y-10956250I0J218750D01*
G01*
G37*
G04 #@! TD*
G04 #@! TO.C,C1*
G36*
G01*
X22550000Y-10956250D02*
X22550000Y-10443750D01*
G75*
G02*
X22768750Y-10225000I218750J0D01*
G01*
X23206250Y-10225000D01*
G75*
G02*
X23425000Y-10443750I0J-218750D01*
G01*
X23425000Y-10956250D01*
G75*
G02*
X23206250Y-11175000I-218750J0D01*
G01*
X22768750Y-11175000D01*
G75*
G02*
X22550000Y-10956250I0J218750D01*
G01*
G37*
G36*
G01*
X20975000Y-10956250D02*
X20975000Y-10443750D01*
G75*
G02*
X21193750Y-10225000I218750J0D01*
G01*
X21631250Y-10225000D01*
G75*
G02*
X21850000Y-10443750I0J-218750D01*
G01*
X21850000Y-10956250D01*
G75*
G02*
X21631250Y-11175000I-218750J0D01*
G01*
X21193750Y-11175000D01*
G75*
G02*
X20975000Y-10956250I0J218750D01*
G01*
G37*
G04 #@! TD*
G04 #@! TO.C,R8*
G36*
G01*
X23350000Y-33843750D02*
X23350000Y-34356250D01*
G75*
G02*
X23131250Y-34575000I-218750J0D01*
G01*
X22693750Y-34575000D01*
G75*
G02*
X22475000Y-34356250I0J218750D01*
G01*
X22475000Y-33843750D01*
G75*
G02*
X22693750Y-33625000I218750J0D01*
G01*
X23131250Y-33625000D01*
G75*
G02*
X23350000Y-33843750I0J-218750D01*
G01*
G37*
G36*
G01*
X24925000Y-33843750D02*
X24925000Y-34356250D01*
G75*
G02*
X24706250Y-34575000I-218750J0D01*
G01*
X24268750Y-34575000D01*
G75*
G02*
X24050000Y-34356250I0J218750D01*
G01*
X24050000Y-33843750D01*
G75*
G02*
X24268750Y-33625000I218750J0D01*
G01*
X24706250Y-33625000D01*
G75*
G02*
X24925000Y-33843750I0J-218750D01*
G01*
G37*
G04 #@! TD*
G04 #@! TO.C,D3*
G36*
G01*
X24050000Y-35856250D02*
X24050000Y-35343750D01*
G75*
G02*
X24268750Y-35125000I218750J0D01*
G01*
X24706250Y-35125000D01*
G75*
G02*
X24925000Y-35343750I0J-218750D01*
G01*
X24925000Y-35856250D01*
G75*
G02*
X24706250Y-36075000I-218750J0D01*
G01*
X24268750Y-36075000D01*
G75*
G02*
X24050000Y-35856250I0J218750D01*
G01*
G37*
G36*
G01*
X22475000Y-35856250D02*
X22475000Y-35343750D01*
G75*
G02*
X22693750Y-35125000I218750J0D01*
G01*
X23131250Y-35125000D01*
G75*
G02*
X23350000Y-35343750I0J-218750D01*
G01*
X23350000Y-35856250D01*
G75*
G02*
X23131250Y-36075000I-218750J0D01*
G01*
X22693750Y-36075000D01*
G75*
G02*
X22475000Y-35856250I0J218750D01*
G01*
G37*
G04 #@! TD*
G04 #@! TO.C,R7*
G36*
G01*
X16343750Y-21950000D02*
X16856250Y-21950000D01*
G75*
G02*
X17075000Y-22168750I0J-218750D01*
G01*
X17075000Y-22606250D01*
G75*
G02*
X16856250Y-22825000I-218750J0D01*
G01*
X16343750Y-22825000D01*
G75*
G02*
X16125000Y-22606250I0J218750D01*
G01*
X16125000Y-22168750D01*
G75*
G02*
X16343750Y-21950000I218750J0D01*
G01*
G37*
G36*
G01*
X16343750Y-20375000D02*
X16856250Y-20375000D01*
G75*
G02*
X17075000Y-20593750I0J-218750D01*
G01*
X17075000Y-21031250D01*
G75*
G02*
X16856250Y-21250000I-218750J0D01*
G01*
X16343750Y-21250000D01*
G75*
G02*
X16125000Y-21031250I0J218750D01*
G01*
X16125000Y-20593750D01*
G75*
G02*
X16343750Y-20375000I218750J0D01*
G01*
G37*
G04 #@! TD*
G04 #@! TO.C,C10*
G36*
G01*
X25756250Y-23250000D02*
X25243750Y-23250000D01*
G75*
G02*
X25025000Y-23031250I0J218750D01*
G01*
X25025000Y-22593750D01*
G75*
G02*
X25243750Y-22375000I218750J0D01*
G01*
X25756250Y-22375000D01*
G75*
G02*
X25975000Y-22593750I0J-218750D01*
G01*
X25975000Y-23031250D01*
G75*
G02*
X25756250Y-23250000I-218750J0D01*
G01*
G37*
G36*
G01*
X25756250Y-24825000D02*
X25243750Y-24825000D01*
G75*
G02*
X25025000Y-24606250I0J218750D01*
G01*
X25025000Y-24168750D01*
G75*
G02*
X25243750Y-23950000I218750J0D01*
G01*
X25756250Y-23950000D01*
G75*
G02*
X25975000Y-24168750I0J-218750D01*
G01*
X25975000Y-24606250D01*
G75*
G02*
X25756250Y-24825000I-218750J0D01*
G01*
G37*
G04 #@! TD*
D20*
G04 #@! TO.C,H1*
X19400000Y-34700000D03*
G04 #@! TD*
D21*
G04 #@! TO.C,SW1*
X19150000Y-17500000D03*
X8850000Y-17500000D03*
X19150000Y-14900000D03*
X8850000Y-14900000D03*
G04 #@! TD*
G04 #@! TO.C,R12*
G36*
G01*
X22200000Y-13443750D02*
X22200000Y-13956250D01*
G75*
G02*
X21981250Y-14175000I-218750J0D01*
G01*
X21543750Y-14175000D01*
G75*
G02*
X21325000Y-13956250I0J218750D01*
G01*
X21325000Y-13443750D01*
G75*
G02*
X21543750Y-13225000I218750J0D01*
G01*
X21981250Y-13225000D01*
G75*
G02*
X22200000Y-13443750I0J-218750D01*
G01*
G37*
G36*
G01*
X23775000Y-13443750D02*
X23775000Y-13956250D01*
G75*
G02*
X23556250Y-14175000I-218750J0D01*
G01*
X23118750Y-14175000D01*
G75*
G02*
X22900000Y-13956250I0J218750D01*
G01*
X22900000Y-13443750D01*
G75*
G02*
X23118750Y-13225000I218750J0D01*
G01*
X23556250Y-13225000D01*
G75*
G02*
X23775000Y-13443750I0J-218750D01*
G01*
G37*
G04 #@! TD*
G04 #@! TO.C,L8*
G36*
G01*
X3606250Y-21400000D02*
X3093750Y-21400000D01*
G75*
G02*
X2875000Y-21181250I0J218750D01*
G01*
X2875000Y-20743750D01*
G75*
G02*
X3093750Y-20525000I218750J0D01*
G01*
X3606250Y-20525000D01*
G75*
G02*
X3825000Y-20743750I0J-218750D01*
G01*
X3825000Y-21181250D01*
G75*
G02*
X3606250Y-21400000I-218750J0D01*
G01*
G37*
G36*
G01*
X3606250Y-22975000D02*
X3093750Y-22975000D01*
G75*
G02*
X2875000Y-22756250I0J218750D01*
G01*
X2875000Y-22318750D01*
G75*
G02*
X3093750Y-22100000I218750J0D01*
G01*
X3606250Y-22100000D01*
G75*
G02*
X3825000Y-22318750I0J-218750D01*
G01*
X3825000Y-22756250D01*
G75*
G02*
X3606250Y-22975000I-218750J0D01*
G01*
G37*
G04 #@! TD*
G04 #@! TO.C,L7*
G36*
G01*
X11106250Y-21400000D02*
X10593750Y-21400000D01*
G75*
G02*
X10375000Y-21181250I0J218750D01*
G01*
X10375000Y-20743750D01*
G75*
G02*
X10593750Y-20525000I218750J0D01*
G01*
X11106250Y-20525000D01*
G75*
G02*
X11325000Y-20743750I0J-218750D01*
G01*
X11325000Y-21181250D01*
G75*
G02*
X11106250Y-21400000I-218750J0D01*
G01*
G37*
G36*
G01*
X11106250Y-22975000D02*
X10593750Y-22975000D01*
G75*
G02*
X10375000Y-22756250I0J218750D01*
G01*
X10375000Y-22318750D01*
G75*
G02*
X10593750Y-22100000I218750J0D01*
G01*
X11106250Y-22100000D01*
G75*
G02*
X11325000Y-22318750I0J-218750D01*
G01*
X11325000Y-22756250D01*
G75*
G02*
X11106250Y-22975000I-218750J0D01*
G01*
G37*
G04 #@! TD*
G04 #@! TO.C,L1*
G36*
G01*
X10456250Y-35062500D02*
X9943750Y-35062500D01*
G75*
G02*
X9725000Y-34843750I0J218750D01*
G01*
X9725000Y-34406250D01*
G75*
G02*
X9943750Y-34187500I218750J0D01*
G01*
X10456250Y-34187500D01*
G75*
G02*
X10675000Y-34406250I0J-218750D01*
G01*
X10675000Y-34843750D01*
G75*
G02*
X10456250Y-35062500I-218750J0D01*
G01*
G37*
G36*
G01*
X10456250Y-36637500D02*
X9943750Y-36637500D01*
G75*
G02*
X9725000Y-36418750I0J218750D01*
G01*
X9725000Y-35981250D01*
G75*
G02*
X9943750Y-35762500I218750J0D01*
G01*
X10456250Y-35762500D01*
G75*
G02*
X10675000Y-35981250I0J-218750D01*
G01*
X10675000Y-36418750D01*
G75*
G02*
X10456250Y-36637500I-218750J0D01*
G01*
G37*
G04 #@! TD*
G04 #@! TO.C,R15*
G36*
G01*
X5450000Y-8993750D02*
X5450000Y-9506250D01*
G75*
G02*
X5231250Y-9725000I-218750J0D01*
G01*
X4793750Y-9725000D01*
G75*
G02*
X4575000Y-9506250I0J218750D01*
G01*
X4575000Y-8993750D01*
G75*
G02*
X4793750Y-8775000I218750J0D01*
G01*
X5231250Y-8775000D01*
G75*
G02*
X5450000Y-8993750I0J-218750D01*
G01*
G37*
G36*
G01*
X7025000Y-8993750D02*
X7025000Y-9506250D01*
G75*
G02*
X6806250Y-9725000I-218750J0D01*
G01*
X6368750Y-9725000D01*
G75*
G02*
X6150000Y-9506250I0J218750D01*
G01*
X6150000Y-8993750D01*
G75*
G02*
X6368750Y-8775000I218750J0D01*
G01*
X6806250Y-8775000D01*
G75*
G02*
X7025000Y-8993750I0J-218750D01*
G01*
G37*
G04 #@! TD*
G04 #@! TO.C,C26*
G36*
G01*
X7650000Y-33043750D02*
X7650000Y-33556250D01*
G75*
G02*
X7431250Y-33775000I-218750J0D01*
G01*
X6993750Y-33775000D01*
G75*
G02*
X6775000Y-33556250I0J218750D01*
G01*
X6775000Y-33043750D01*
G75*
G02*
X6993750Y-32825000I218750J0D01*
G01*
X7431250Y-32825000D01*
G75*
G02*
X7650000Y-33043750I0J-218750D01*
G01*
G37*
G36*
G01*
X9225000Y-33043750D02*
X9225000Y-33556250D01*
G75*
G02*
X9006250Y-33775000I-218750J0D01*
G01*
X8568750Y-33775000D01*
G75*
G02*
X8350000Y-33556250I0J218750D01*
G01*
X8350000Y-33043750D01*
G75*
G02*
X8568750Y-32825000I218750J0D01*
G01*
X9006250Y-32825000D01*
G75*
G02*
X9225000Y-33043750I0J-218750D01*
G01*
G37*
G04 #@! TD*
D22*
G04 #@! TO.C,D2*
X10800000Y-24300000D03*
X10800000Y-25700000D03*
G04 #@! TD*
G04 #@! TO.C,D1*
X3400000Y-25700000D03*
X3400000Y-24300000D03*
G04 #@! TD*
D23*
G04 #@! TO.C,U4*
X22525000Y-30400000D03*
X21875000Y-30400000D03*
D24*
X21225000Y-30600000D03*
X20575000Y-30600000D03*
X20575000Y-27100000D03*
D23*
X21225000Y-27300000D03*
D24*
X21875000Y-27100000D03*
X22525000Y-27100000D03*
D25*
X21550000Y-28850000D03*
D26*
X20925000Y-29300000D03*
X20925000Y-28400000D03*
X22175000Y-29300000D03*
X22175000Y-28400000D03*
D24*
X22525000Y-30600000D03*
X21875000Y-30600000D03*
D23*
X21225000Y-30400000D03*
X20575000Y-30400000D03*
X20575000Y-27300000D03*
D24*
X21225000Y-27100000D03*
D23*
X21875000Y-27300000D03*
X22525000Y-27300000D03*
G04 #@! TD*
D27*
G04 #@! TO.C,U3*
X12450000Y-9575000D03*
X12450000Y-10225000D03*
D28*
X12650000Y-10875000D03*
X12650000Y-11525000D03*
X9150000Y-11525000D03*
D27*
X9350000Y-10875000D03*
D28*
X9150000Y-10225000D03*
X9150000Y-9575000D03*
D29*
X10900000Y-10550000D03*
D30*
X11350000Y-11175000D03*
X10450000Y-11175000D03*
X11350000Y-9925000D03*
X10450000Y-9925000D03*
D28*
X12650000Y-9575000D03*
X12650000Y-10225000D03*
D27*
X12450000Y-10875000D03*
X12450000Y-11525000D03*
X9350000Y-11525000D03*
D28*
X9150000Y-10875000D03*
D27*
X9350000Y-10225000D03*
X9350000Y-9575000D03*
G04 #@! TD*
G04 #@! TO.C,U2*
X15550000Y-11575000D03*
X15550000Y-10925000D03*
D28*
X15350000Y-10275000D03*
X15350000Y-9625000D03*
X18850000Y-9625000D03*
D27*
X18650000Y-10275000D03*
D28*
X18850000Y-10925000D03*
X18850000Y-11575000D03*
D29*
X17100000Y-10600000D03*
D30*
X16650000Y-9975000D03*
X17550000Y-9975000D03*
X16650000Y-11225000D03*
X17550000Y-11225000D03*
D28*
X15350000Y-11575000D03*
X15350000Y-10925000D03*
D27*
X15550000Y-10275000D03*
X15550000Y-9625000D03*
X18650000Y-9625000D03*
D28*
X18850000Y-10275000D03*
D27*
X18650000Y-10925000D03*
X18650000Y-11575000D03*
G04 #@! TD*
D31*
G04 #@! TO.C,U1*
X6900000Y-28900000D03*
D32*
X8150000Y-30350000D03*
X7650000Y-30350000D03*
X7150000Y-30350000D03*
X6650000Y-30350000D03*
X6150000Y-30350000D03*
X5650000Y-30350000D03*
X5650000Y-27450000D03*
X6150000Y-27450000D03*
X6650000Y-27450000D03*
X7150000Y-27450000D03*
X7650000Y-27450000D03*
X8150000Y-27450000D03*
G04 #@! TD*
D33*
G04 #@! TO.C,RV2*
X22900000Y-24050000D03*
D34*
X21900000Y-20800000D03*
X23900000Y-20800000D03*
G04 #@! TD*
D33*
G04 #@! TO.C,RV1*
X19200000Y-24050000D03*
D34*
X18200000Y-20800000D03*
X20200000Y-20800000D03*
G04 #@! TD*
G04 #@! TO.C,R22*
G36*
G01*
X20250000Y-31956250D02*
X20250000Y-31443750D01*
G75*
G02*
X20468750Y-31225000I218750J0D01*
G01*
X20906250Y-31225000D01*
G75*
G02*
X21125000Y-31443750I0J-218750D01*
G01*
X21125000Y-31956250D01*
G75*
G02*
X20906250Y-32175000I-218750J0D01*
G01*
X20468750Y-32175000D01*
G75*
G02*
X20250000Y-31956250I0J218750D01*
G01*
G37*
G36*
G01*
X18675000Y-31956250D02*
X18675000Y-31443750D01*
G75*
G02*
X18893750Y-31225000I218750J0D01*
G01*
X19331250Y-31225000D01*
G75*
G02*
X19550000Y-31443750I0J-218750D01*
G01*
X19550000Y-31956250D01*
G75*
G02*
X19331250Y-32175000I-218750J0D01*
G01*
X18893750Y-32175000D01*
G75*
G02*
X18675000Y-31956250I0J218750D01*
G01*
G37*
G04 #@! TD*
G04 #@! TO.C,R21*
G36*
G01*
X23843750Y-28400000D02*
X24356250Y-28400000D01*
G75*
G02*
X24575000Y-28618750I0J-218750D01*
G01*
X24575000Y-29056250D01*
G75*
G02*
X24356250Y-29275000I-218750J0D01*
G01*
X23843750Y-29275000D01*
G75*
G02*
X23625000Y-29056250I0J218750D01*
G01*
X23625000Y-28618750D01*
G75*
G02*
X23843750Y-28400000I218750J0D01*
G01*
G37*
G36*
G01*
X23843750Y-26825000D02*
X24356250Y-26825000D01*
G75*
G02*
X24575000Y-27043750I0J-218750D01*
G01*
X24575000Y-27481250D01*
G75*
G02*
X24356250Y-27700000I-218750J0D01*
G01*
X23843750Y-27700000D01*
G75*
G02*
X23625000Y-27481250I0J218750D01*
G01*
X23625000Y-27043750D01*
G75*
G02*
X23843750Y-26825000I218750J0D01*
G01*
G37*
G04 #@! TD*
G04 #@! TO.C,R20*
G36*
G01*
X17850000Y-25543750D02*
X17850000Y-26056250D01*
G75*
G02*
X17631250Y-26275000I-218750J0D01*
G01*
X17193750Y-26275000D01*
G75*
G02*
X16975000Y-26056250I0J218750D01*
G01*
X16975000Y-25543750D01*
G75*
G02*
X17193750Y-25325000I218750J0D01*
G01*
X17631250Y-25325000D01*
G75*
G02*
X17850000Y-25543750I0J-218750D01*
G01*
G37*
G36*
G01*
X19425000Y-25543750D02*
X19425000Y-26056250D01*
G75*
G02*
X19206250Y-26275000I-218750J0D01*
G01*
X18768750Y-26275000D01*
G75*
G02*
X18550000Y-26056250I0J218750D01*
G01*
X18550000Y-25543750D01*
G75*
G02*
X18768750Y-25325000I218750J0D01*
G01*
X19206250Y-25325000D01*
G75*
G02*
X19425000Y-25543750I0J-218750D01*
G01*
G37*
G04 #@! TD*
G04 #@! TO.C,R19*
G36*
G01*
X23850000Y-25543750D02*
X23850000Y-26056250D01*
G75*
G02*
X23631250Y-26275000I-218750J0D01*
G01*
X23193750Y-26275000D01*
G75*
G02*
X22975000Y-26056250I0J218750D01*
G01*
X22975000Y-25543750D01*
G75*
G02*
X23193750Y-25325000I218750J0D01*
G01*
X23631250Y-25325000D01*
G75*
G02*
X23850000Y-25543750I0J-218750D01*
G01*
G37*
G36*
G01*
X25425000Y-25543750D02*
X25425000Y-26056250D01*
G75*
G02*
X25206250Y-26275000I-218750J0D01*
G01*
X24768750Y-26275000D01*
G75*
G02*
X24550000Y-26056250I0J218750D01*
G01*
X24550000Y-25543750D01*
G75*
G02*
X24768750Y-25325000I218750J0D01*
G01*
X25206250Y-25325000D01*
G75*
G02*
X25425000Y-25543750I0J-218750D01*
G01*
G37*
G04 #@! TD*
G04 #@! TO.C,R18*
G36*
G01*
X20850000Y-25543750D02*
X20850000Y-26056250D01*
G75*
G02*
X20631250Y-26275000I-218750J0D01*
G01*
X20193750Y-26275000D01*
G75*
G02*
X19975000Y-26056250I0J218750D01*
G01*
X19975000Y-25543750D01*
G75*
G02*
X20193750Y-25325000I218750J0D01*
G01*
X20631250Y-25325000D01*
G75*
G02*
X20850000Y-25543750I0J-218750D01*
G01*
G37*
G36*
G01*
X22425000Y-25543750D02*
X22425000Y-26056250D01*
G75*
G02*
X22206250Y-26275000I-218750J0D01*
G01*
X21768750Y-26275000D01*
G75*
G02*
X21550000Y-26056250I0J218750D01*
G01*
X21550000Y-25543750D01*
G75*
G02*
X21768750Y-25325000I218750J0D01*
G01*
X22206250Y-25325000D01*
G75*
G02*
X22425000Y-25543750I0J-218750D01*
G01*
G37*
G04 #@! TD*
G04 #@! TO.C,R17*
G36*
G01*
X7743750Y-11350000D02*
X8256250Y-11350000D01*
G75*
G02*
X8475000Y-11568750I0J-218750D01*
G01*
X8475000Y-12006250D01*
G75*
G02*
X8256250Y-12225000I-218750J0D01*
G01*
X7743750Y-12225000D01*
G75*
G02*
X7525000Y-12006250I0J218750D01*
G01*
X7525000Y-11568750D01*
G75*
G02*
X7743750Y-11350000I218750J0D01*
G01*
G37*
G36*
G01*
X7743750Y-9775000D02*
X8256250Y-9775000D01*
G75*
G02*
X8475000Y-9993750I0J-218750D01*
G01*
X8475000Y-10431250D01*
G75*
G02*
X8256250Y-10650000I-218750J0D01*
G01*
X7743750Y-10650000D01*
G75*
G02*
X7525000Y-10431250I0J218750D01*
G01*
X7525000Y-9993750D01*
G75*
G02*
X7743750Y-9775000I218750J0D01*
G01*
G37*
G04 #@! TD*
G04 #@! TO.C,R16*
G36*
G01*
X19693750Y-12450000D02*
X20206250Y-12450000D01*
G75*
G02*
X20425000Y-12668750I0J-218750D01*
G01*
X20425000Y-13106250D01*
G75*
G02*
X20206250Y-13325000I-218750J0D01*
G01*
X19693750Y-13325000D01*
G75*
G02*
X19475000Y-13106250I0J218750D01*
G01*
X19475000Y-12668750D01*
G75*
G02*
X19693750Y-12450000I218750J0D01*
G01*
G37*
G36*
G01*
X19693750Y-10875000D02*
X20206250Y-10875000D01*
G75*
G02*
X20425000Y-11093750I0J-218750D01*
G01*
X20425000Y-11531250D01*
G75*
G02*
X20206250Y-11750000I-218750J0D01*
G01*
X19693750Y-11750000D01*
G75*
G02*
X19475000Y-11531250I0J218750D01*
G01*
X19475000Y-11093750D01*
G75*
G02*
X19693750Y-10875000I218750J0D01*
G01*
G37*
G04 #@! TD*
G04 #@! TO.C,R14*
G36*
G01*
X21850000Y-11943750D02*
X21850000Y-12456250D01*
G75*
G02*
X21631250Y-12675000I-218750J0D01*
G01*
X21193750Y-12675000D01*
G75*
G02*
X20975000Y-12456250I0J218750D01*
G01*
X20975000Y-11943750D01*
G75*
G02*
X21193750Y-11725000I218750J0D01*
G01*
X21631250Y-11725000D01*
G75*
G02*
X21850000Y-11943750I0J-218750D01*
G01*
G37*
G36*
G01*
X23425000Y-11943750D02*
X23425000Y-12456250D01*
G75*
G02*
X23206250Y-12675000I-218750J0D01*
G01*
X22768750Y-12675000D01*
G75*
G02*
X22550000Y-12456250I0J218750D01*
G01*
X22550000Y-11943750D01*
G75*
G02*
X22768750Y-11725000I218750J0D01*
G01*
X23206250Y-11725000D01*
G75*
G02*
X23425000Y-11943750I0J-218750D01*
G01*
G37*
G04 #@! TD*
G04 #@! TO.C,R13*
G36*
G01*
X5800000Y-13956250D02*
X5800000Y-13443750D01*
G75*
G02*
X6018750Y-13225000I218750J0D01*
G01*
X6456250Y-13225000D01*
G75*
G02*
X6675000Y-13443750I0J-218750D01*
G01*
X6675000Y-13956250D01*
G75*
G02*
X6456250Y-14175000I-218750J0D01*
G01*
X6018750Y-14175000D01*
G75*
G02*
X5800000Y-13956250I0J218750D01*
G01*
G37*
G36*
G01*
X4225000Y-13956250D02*
X4225000Y-13443750D01*
G75*
G02*
X4443750Y-13225000I218750J0D01*
G01*
X4881250Y-13225000D01*
G75*
G02*
X5100000Y-13443750I0J-218750D01*
G01*
X5100000Y-13956250D01*
G75*
G02*
X4881250Y-14175000I-218750J0D01*
G01*
X4443750Y-14175000D01*
G75*
G02*
X4225000Y-13956250I0J218750D01*
G01*
G37*
G04 #@! TD*
G04 #@! TO.C,R10*
G36*
G01*
X5250000Y-3956250D02*
X5250000Y-3443750D01*
G75*
G02*
X5468750Y-3225000I218750J0D01*
G01*
X5906250Y-3225000D01*
G75*
G02*
X6125000Y-3443750I0J-218750D01*
G01*
X6125000Y-3956250D01*
G75*
G02*
X5906250Y-4175000I-218750J0D01*
G01*
X5468750Y-4175000D01*
G75*
G02*
X5250000Y-3956250I0J218750D01*
G01*
G37*
G36*
G01*
X3675000Y-3956250D02*
X3675000Y-3443750D01*
G75*
G02*
X3893750Y-3225000I218750J0D01*
G01*
X4331250Y-3225000D01*
G75*
G02*
X4550000Y-3443750I0J-218750D01*
G01*
X4550000Y-3956250D01*
G75*
G02*
X4331250Y-4175000I-218750J0D01*
G01*
X3893750Y-4175000D01*
G75*
G02*
X3675000Y-3956250I0J218750D01*
G01*
G37*
G04 #@! TD*
G04 #@! TO.C,R9*
G36*
G01*
X22750000Y-3343750D02*
X22750000Y-3856250D01*
G75*
G02*
X22531250Y-4075000I-218750J0D01*
G01*
X22093750Y-4075000D01*
G75*
G02*
X21875000Y-3856250I0J218750D01*
G01*
X21875000Y-3343750D01*
G75*
G02*
X22093750Y-3125000I218750J0D01*
G01*
X22531250Y-3125000D01*
G75*
G02*
X22750000Y-3343750I0J-218750D01*
G01*
G37*
G36*
G01*
X24325000Y-3343750D02*
X24325000Y-3856250D01*
G75*
G02*
X24106250Y-4075000I-218750J0D01*
G01*
X23668750Y-4075000D01*
G75*
G02*
X23450000Y-3856250I0J218750D01*
G01*
X23450000Y-3343750D01*
G75*
G02*
X23668750Y-3125000I218750J0D01*
G01*
X24106250Y-3125000D01*
G75*
G02*
X24325000Y-3343750I0J-218750D01*
G01*
G37*
G04 #@! TD*
G04 #@! TO.C,R6*
G36*
G01*
X6056250Y-32250000D02*
X5543750Y-32250000D01*
G75*
G02*
X5325000Y-32031250I0J218750D01*
G01*
X5325000Y-31593750D01*
G75*
G02*
X5543750Y-31375000I218750J0D01*
G01*
X6056250Y-31375000D01*
G75*
G02*
X6275000Y-31593750I0J-218750D01*
G01*
X6275000Y-32031250D01*
G75*
G02*
X6056250Y-32250000I-218750J0D01*
G01*
G37*
G36*
G01*
X6056250Y-33825000D02*
X5543750Y-33825000D01*
G75*
G02*
X5325000Y-33606250I0J218750D01*
G01*
X5325000Y-33168750D01*
G75*
G02*
X5543750Y-32950000I218750J0D01*
G01*
X6056250Y-32950000D01*
G75*
G02*
X6275000Y-33168750I0J-218750D01*
G01*
X6275000Y-33606250D01*
G75*
G02*
X6056250Y-33825000I-218750J0D01*
G01*
G37*
G04 #@! TD*
G04 #@! TO.C,R3*
G36*
G01*
X3250000Y-31256250D02*
X3250000Y-30743750D01*
G75*
G02*
X3468750Y-30525000I218750J0D01*
G01*
X3906250Y-30525000D01*
G75*
G02*
X4125000Y-30743750I0J-218750D01*
G01*
X4125000Y-31256250D01*
G75*
G02*
X3906250Y-31475000I-218750J0D01*
G01*
X3468750Y-31475000D01*
G75*
G02*
X3250000Y-31256250I0J218750D01*
G01*
G37*
G36*
G01*
X1675000Y-31256250D02*
X1675000Y-30743750D01*
G75*
G02*
X1893750Y-30525000I218750J0D01*
G01*
X2331250Y-30525000D01*
G75*
G02*
X2550000Y-30743750I0J-218750D01*
G01*
X2550000Y-31256250D01*
G75*
G02*
X2331250Y-31475000I-218750J0D01*
G01*
X1893750Y-31475000D01*
G75*
G02*
X1675000Y-31256250I0J218750D01*
G01*
G37*
G04 #@! TD*
G04 #@! TO.C,R2*
G36*
G01*
X5350000Y-35056250D02*
X5350000Y-34543750D01*
G75*
G02*
X5568750Y-34325000I218750J0D01*
G01*
X6006250Y-34325000D01*
G75*
G02*
X6225000Y-34543750I0J-218750D01*
G01*
X6225000Y-35056250D01*
G75*
G02*
X6006250Y-35275000I-218750J0D01*
G01*
X5568750Y-35275000D01*
G75*
G02*
X5350000Y-35056250I0J218750D01*
G01*
G37*
G36*
G01*
X3775000Y-35056250D02*
X3775000Y-34543750D01*
G75*
G02*
X3993750Y-34325000I218750J0D01*
G01*
X4431250Y-34325000D01*
G75*
G02*
X4650000Y-34543750I0J-218750D01*
G01*
X4650000Y-35056250D01*
G75*
G02*
X4431250Y-35275000I-218750J0D01*
G01*
X3993750Y-35275000D01*
G75*
G02*
X3775000Y-35056250I0J218750D01*
G01*
G37*
G04 #@! TD*
G04 #@! TO.C,R1*
G36*
G01*
X2243750Y-35100000D02*
X2756250Y-35100000D01*
G75*
G02*
X2975000Y-35318750I0J-218750D01*
G01*
X2975000Y-35756250D01*
G75*
G02*
X2756250Y-35975000I-218750J0D01*
G01*
X2243750Y-35975000D01*
G75*
G02*
X2025000Y-35756250I0J218750D01*
G01*
X2025000Y-35318750D01*
G75*
G02*
X2243750Y-35100000I218750J0D01*
G01*
G37*
G36*
G01*
X2243750Y-33525000D02*
X2756250Y-33525000D01*
G75*
G02*
X2975000Y-33743750I0J-218750D01*
G01*
X2975000Y-34181250D01*
G75*
G02*
X2756250Y-34400000I-218750J0D01*
G01*
X2243750Y-34400000D01*
G75*
G02*
X2025000Y-34181250I0J218750D01*
G01*
X2025000Y-33743750D01*
G75*
G02*
X2243750Y-33525000I218750J0D01*
G01*
G37*
G04 #@! TD*
G04 #@! TO.C,L6*
G36*
G01*
X5250000Y-23743750D02*
X5250000Y-24256250D01*
G75*
G02*
X5031250Y-24475000I-218750J0D01*
G01*
X4593750Y-24475000D01*
G75*
G02*
X4375000Y-24256250I0J218750D01*
G01*
X4375000Y-23743750D01*
G75*
G02*
X4593750Y-23525000I218750J0D01*
G01*
X5031250Y-23525000D01*
G75*
G02*
X5250000Y-23743750I0J-218750D01*
G01*
G37*
G36*
G01*
X6825000Y-23743750D02*
X6825000Y-24256250D01*
G75*
G02*
X6606250Y-24475000I-218750J0D01*
G01*
X6168750Y-24475000D01*
G75*
G02*
X5950000Y-24256250I0J218750D01*
G01*
X5950000Y-23743750D01*
G75*
G02*
X6168750Y-23525000I218750J0D01*
G01*
X6606250Y-23525000D01*
G75*
G02*
X6825000Y-23743750I0J-218750D01*
G01*
G37*
G04 #@! TD*
G04 #@! TO.C,L5*
G36*
G01*
X8950000Y-24256250D02*
X8950000Y-23743750D01*
G75*
G02*
X9168750Y-23525000I218750J0D01*
G01*
X9606250Y-23525000D01*
G75*
G02*
X9825000Y-23743750I0J-218750D01*
G01*
X9825000Y-24256250D01*
G75*
G02*
X9606250Y-24475000I-218750J0D01*
G01*
X9168750Y-24475000D01*
G75*
G02*
X8950000Y-24256250I0J218750D01*
G01*
G37*
G36*
G01*
X7375000Y-24256250D02*
X7375000Y-23743750D01*
G75*
G02*
X7593750Y-23525000I218750J0D01*
G01*
X8031250Y-23525000D01*
G75*
G02*
X8250000Y-23743750I0J-218750D01*
G01*
X8250000Y-24256250D01*
G75*
G02*
X8031250Y-24475000I-218750J0D01*
G01*
X7593750Y-24475000D01*
G75*
G02*
X7375000Y-24256250I0J218750D01*
G01*
G37*
G04 #@! TD*
G04 #@! TO.C,L2*
G36*
G01*
X8350000Y-35056250D02*
X8350000Y-34543750D01*
G75*
G02*
X8568750Y-34325000I218750J0D01*
G01*
X9006250Y-34325000D01*
G75*
G02*
X9225000Y-34543750I0J-218750D01*
G01*
X9225000Y-35056250D01*
G75*
G02*
X9006250Y-35275000I-218750J0D01*
G01*
X8568750Y-35275000D01*
G75*
G02*
X8350000Y-35056250I0J218750D01*
G01*
G37*
G36*
G01*
X6775000Y-35056250D02*
X6775000Y-34543750D01*
G75*
G02*
X6993750Y-34325000I218750J0D01*
G01*
X7431250Y-34325000D01*
G75*
G02*
X7650000Y-34543750I0J-218750D01*
G01*
X7650000Y-35056250D01*
G75*
G02*
X7431250Y-35275000I-218750J0D01*
G01*
X6993750Y-35275000D01*
G75*
G02*
X6775000Y-35056250I0J218750D01*
G01*
G37*
G04 #@! TD*
G04 #@! TO.C,C25*
G36*
G01*
X24500000Y-30043750D02*
X24500000Y-30556250D01*
G75*
G02*
X24281250Y-30775000I-218750J0D01*
G01*
X23843750Y-30775000D01*
G75*
G02*
X23625000Y-30556250I0J218750D01*
G01*
X23625000Y-30043750D01*
G75*
G02*
X23843750Y-29825000I218750J0D01*
G01*
X24281250Y-29825000D01*
G75*
G02*
X24500000Y-30043750I0J-218750D01*
G01*
G37*
G36*
G01*
X26075000Y-30043750D02*
X26075000Y-30556250D01*
G75*
G02*
X25856250Y-30775000I-218750J0D01*
G01*
X25418750Y-30775000D01*
G75*
G02*
X25200000Y-30556250I0J218750D01*
G01*
X25200000Y-30043750D01*
G75*
G02*
X25418750Y-29825000I218750J0D01*
G01*
X25856250Y-29825000D01*
G75*
G02*
X26075000Y-30043750I0J-218750D01*
G01*
G37*
G04 #@! TD*
G04 #@! TO.C,C24*
G36*
G01*
X25200000Y-32006250D02*
X25200000Y-31493750D01*
G75*
G02*
X25418750Y-31275000I218750J0D01*
G01*
X25856250Y-31275000D01*
G75*
G02*
X26075000Y-31493750I0J-218750D01*
G01*
X26075000Y-32006250D01*
G75*
G02*
X25856250Y-32225000I-218750J0D01*
G01*
X25418750Y-32225000D01*
G75*
G02*
X25200000Y-32006250I0J218750D01*
G01*
G37*
G36*
G01*
X23625000Y-32006250D02*
X23625000Y-31493750D01*
G75*
G02*
X23843750Y-31275000I218750J0D01*
G01*
X24281250Y-31275000D01*
G75*
G02*
X24500000Y-31493750I0J-218750D01*
G01*
X24500000Y-32006250D01*
G75*
G02*
X24281250Y-32225000I-218750J0D01*
G01*
X23843750Y-32225000D01*
G75*
G02*
X23625000Y-32006250I0J218750D01*
G01*
G37*
G04 #@! TD*
G04 #@! TO.C,C23*
G36*
G01*
X19683750Y-9280000D02*
X20196250Y-9280000D01*
G75*
G02*
X20415000Y-9498750I0J-218750D01*
G01*
X20415000Y-9936250D01*
G75*
G02*
X20196250Y-10155000I-218750J0D01*
G01*
X19683750Y-10155000D01*
G75*
G02*
X19465000Y-9936250I0J218750D01*
G01*
X19465000Y-9498750D01*
G75*
G02*
X19683750Y-9280000I218750J0D01*
G01*
G37*
G36*
G01*
X19683750Y-7705000D02*
X20196250Y-7705000D01*
G75*
G02*
X20415000Y-7923750I0J-218750D01*
G01*
X20415000Y-8361250D01*
G75*
G02*
X20196250Y-8580000I-218750J0D01*
G01*
X19683750Y-8580000D01*
G75*
G02*
X19465000Y-8361250I0J218750D01*
G01*
X19465000Y-7923750D01*
G75*
G02*
X19683750Y-7705000I218750J0D01*
G01*
G37*
G04 #@! TD*
G04 #@! TO.C,C19*
G36*
G01*
X25856250Y-27700000D02*
X25343750Y-27700000D01*
G75*
G02*
X25125000Y-27481250I0J218750D01*
G01*
X25125000Y-27043750D01*
G75*
G02*
X25343750Y-26825000I218750J0D01*
G01*
X25856250Y-26825000D01*
G75*
G02*
X26075000Y-27043750I0J-218750D01*
G01*
X26075000Y-27481250D01*
G75*
G02*
X25856250Y-27700000I-218750J0D01*
G01*
G37*
G36*
G01*
X25856250Y-29275000D02*
X25343750Y-29275000D01*
G75*
G02*
X25125000Y-29056250I0J218750D01*
G01*
X25125000Y-28618750D01*
G75*
G02*
X25343750Y-28400000I218750J0D01*
G01*
X25856250Y-28400000D01*
G75*
G02*
X26075000Y-28618750I0J-218750D01*
G01*
X26075000Y-29056250D01*
G75*
G02*
X25856250Y-29275000I-218750J0D01*
G01*
G37*
G04 #@! TD*
D35*
G04 #@! TO.C,C17*
X5100000Y-19275000D03*
X5100000Y-15125000D03*
G04 #@! TD*
G04 #@! TO.C,C16*
X22900000Y-19275000D03*
X22900000Y-15125000D03*
G04 #@! TD*
G04 #@! TO.C,C13*
G36*
G01*
X5950000Y-21256250D02*
X5950000Y-20743750D01*
G75*
G02*
X6168750Y-20525000I218750J0D01*
G01*
X6606250Y-20525000D01*
G75*
G02*
X6825000Y-20743750I0J-218750D01*
G01*
X6825000Y-21256250D01*
G75*
G02*
X6606250Y-21475000I-218750J0D01*
G01*
X6168750Y-21475000D01*
G75*
G02*
X5950000Y-21256250I0J218750D01*
G01*
G37*
G36*
G01*
X4375000Y-21256250D02*
X4375000Y-20743750D01*
G75*
G02*
X4593750Y-20525000I218750J0D01*
G01*
X5031250Y-20525000D01*
G75*
G02*
X5250000Y-20743750I0J-218750D01*
G01*
X5250000Y-21256250D01*
G75*
G02*
X5031250Y-21475000I-218750J0D01*
G01*
X4593750Y-21475000D01*
G75*
G02*
X4375000Y-21256250I0J218750D01*
G01*
G37*
G04 #@! TD*
G04 #@! TO.C,C12*
G36*
G01*
X8250000Y-20743750D02*
X8250000Y-21256250D01*
G75*
G02*
X8031250Y-21475000I-218750J0D01*
G01*
X7593750Y-21475000D01*
G75*
G02*
X7375000Y-21256250I0J218750D01*
G01*
X7375000Y-20743750D01*
G75*
G02*
X7593750Y-20525000I218750J0D01*
G01*
X8031250Y-20525000D01*
G75*
G02*
X8250000Y-20743750I0J-218750D01*
G01*
G37*
G36*
G01*
X9825000Y-20743750D02*
X9825000Y-21256250D01*
G75*
G02*
X9606250Y-21475000I-218750J0D01*
G01*
X9168750Y-21475000D01*
G75*
G02*
X8950000Y-21256250I0J218750D01*
G01*
X8950000Y-20743750D01*
G75*
G02*
X9168750Y-20525000I218750J0D01*
G01*
X9606250Y-20525000D01*
G75*
G02*
X9825000Y-20743750I0J-218750D01*
G01*
G37*
G04 #@! TD*
G04 #@! TO.C,C9*
G36*
G01*
X5950000Y-22756250D02*
X5950000Y-22243750D01*
G75*
G02*
X6168750Y-22025000I218750J0D01*
G01*
X6606250Y-22025000D01*
G75*
G02*
X6825000Y-22243750I0J-218750D01*
G01*
X6825000Y-22756250D01*
G75*
G02*
X6606250Y-22975000I-218750J0D01*
G01*
X6168750Y-22975000D01*
G75*
G02*
X5950000Y-22756250I0J218750D01*
G01*
G37*
G36*
G01*
X4375000Y-22756250D02*
X4375000Y-22243750D01*
G75*
G02*
X4593750Y-22025000I218750J0D01*
G01*
X5031250Y-22025000D01*
G75*
G02*
X5250000Y-22243750I0J-218750D01*
G01*
X5250000Y-22756250D01*
G75*
G02*
X5031250Y-22975000I-218750J0D01*
G01*
X4593750Y-22975000D01*
G75*
G02*
X4375000Y-22756250I0J218750D01*
G01*
G37*
G04 #@! TD*
G04 #@! TO.C,C8*
G36*
G01*
X8250000Y-22243750D02*
X8250000Y-22756250D01*
G75*
G02*
X8031250Y-22975000I-218750J0D01*
G01*
X7593750Y-22975000D01*
G75*
G02*
X7375000Y-22756250I0J218750D01*
G01*
X7375000Y-22243750D01*
G75*
G02*
X7593750Y-22025000I218750J0D01*
G01*
X8031250Y-22025000D01*
G75*
G02*
X8250000Y-22243750I0J-218750D01*
G01*
G37*
G36*
G01*
X9825000Y-22243750D02*
X9825000Y-22756250D01*
G75*
G02*
X9606250Y-22975000I-218750J0D01*
G01*
X9168750Y-22975000D01*
G75*
G02*
X8950000Y-22756250I0J218750D01*
G01*
X8950000Y-22243750D01*
G75*
G02*
X9168750Y-22025000I218750J0D01*
G01*
X9606250Y-22025000D01*
G75*
G02*
X9825000Y-22243750I0J-218750D01*
G01*
G37*
G04 #@! TD*
G04 #@! TO.C,C7*
G36*
G01*
X5950000Y-25756250D02*
X5950000Y-25243750D01*
G75*
G02*
X6168750Y-25025000I218750J0D01*
G01*
X6606250Y-25025000D01*
G75*
G02*
X6825000Y-25243750I0J-218750D01*
G01*
X6825000Y-25756250D01*
G75*
G02*
X6606250Y-25975000I-218750J0D01*
G01*
X6168750Y-25975000D01*
G75*
G02*
X5950000Y-25756250I0J218750D01*
G01*
G37*
G36*
G01*
X4375000Y-25756250D02*
X4375000Y-25243750D01*
G75*
G02*
X4593750Y-25025000I218750J0D01*
G01*
X5031250Y-25025000D01*
G75*
G02*
X5250000Y-25243750I0J-218750D01*
G01*
X5250000Y-25756250D01*
G75*
G02*
X5031250Y-25975000I-218750J0D01*
G01*
X4593750Y-25975000D01*
G75*
G02*
X4375000Y-25756250I0J218750D01*
G01*
G37*
G04 #@! TD*
G04 #@! TO.C,C6*
G36*
G01*
X8250000Y-25243750D02*
X8250000Y-25756250D01*
G75*
G02*
X8031250Y-25975000I-218750J0D01*
G01*
X7593750Y-25975000D01*
G75*
G02*
X7375000Y-25756250I0J218750D01*
G01*
X7375000Y-25243750D01*
G75*
G02*
X7593750Y-25025000I218750J0D01*
G01*
X8031250Y-25025000D01*
G75*
G02*
X8250000Y-25243750I0J-218750D01*
G01*
G37*
G36*
G01*
X9825000Y-25243750D02*
X9825000Y-25756250D01*
G75*
G02*
X9606250Y-25975000I-218750J0D01*
G01*
X9168750Y-25975000D01*
G75*
G02*
X8950000Y-25756250I0J218750D01*
G01*
X8950000Y-25243750D01*
G75*
G02*
X9168750Y-25025000I218750J0D01*
G01*
X9606250Y-25025000D01*
G75*
G02*
X9825000Y-25243750I0J-218750D01*
G01*
G37*
G04 #@! TD*
G04 #@! TO.C,C5*
G36*
G01*
X3250000Y-32756250D02*
X3250000Y-32243750D01*
G75*
G02*
X3468750Y-32025000I218750J0D01*
G01*
X3906250Y-32025000D01*
G75*
G02*
X4125000Y-32243750I0J-218750D01*
G01*
X4125000Y-32756250D01*
G75*
G02*
X3906250Y-32975000I-218750J0D01*
G01*
X3468750Y-32975000D01*
G75*
G02*
X3250000Y-32756250I0J218750D01*
G01*
G37*
G36*
G01*
X1675000Y-32756250D02*
X1675000Y-32243750D01*
G75*
G02*
X1893750Y-32025000I218750J0D01*
G01*
X2331250Y-32025000D01*
G75*
G02*
X2550000Y-32243750I0J-218750D01*
G01*
X2550000Y-32756250D01*
G75*
G02*
X2331250Y-32975000I-218750J0D01*
G01*
X1893750Y-32975000D01*
G75*
G02*
X1675000Y-32756250I0J218750D01*
G01*
G37*
G04 #@! TD*
G04 #@! TO.C,C4*
G36*
G01*
X5350000Y-36556250D02*
X5350000Y-36043750D01*
G75*
G02*
X5568750Y-35825000I218750J0D01*
G01*
X6006250Y-35825000D01*
G75*
G02*
X6225000Y-36043750I0J-218750D01*
G01*
X6225000Y-36556250D01*
G75*
G02*
X6006250Y-36775000I-218750J0D01*
G01*
X5568750Y-36775000D01*
G75*
G02*
X5350000Y-36556250I0J218750D01*
G01*
G37*
G36*
G01*
X3775000Y-36556250D02*
X3775000Y-36043750D01*
G75*
G02*
X3993750Y-35825000I218750J0D01*
G01*
X4431250Y-35825000D01*
G75*
G02*
X4650000Y-36043750I0J-218750D01*
G01*
X4650000Y-36556250D01*
G75*
G02*
X4431250Y-36775000I-218750J0D01*
G01*
X3993750Y-36775000D01*
G75*
G02*
X3775000Y-36556250I0J218750D01*
G01*
G37*
G04 #@! TD*
G04 #@! TO.C,C3*
G36*
G01*
X7650000Y-31543750D02*
X7650000Y-32056250D01*
G75*
G02*
X7431250Y-32275000I-218750J0D01*
G01*
X6993750Y-32275000D01*
G75*
G02*
X6775000Y-32056250I0J218750D01*
G01*
X6775000Y-31543750D01*
G75*
G02*
X6993750Y-31325000I218750J0D01*
G01*
X7431250Y-31325000D01*
G75*
G02*
X7650000Y-31543750I0J-218750D01*
G01*
G37*
G36*
G01*
X9225000Y-31543750D02*
X9225000Y-32056250D01*
G75*
G02*
X9006250Y-32275000I-218750J0D01*
G01*
X8568750Y-32275000D01*
G75*
G02*
X8350000Y-32056250I0J218750D01*
G01*
X8350000Y-31543750D01*
G75*
G02*
X8568750Y-31325000I218750J0D01*
G01*
X9006250Y-31325000D01*
G75*
G02*
X9225000Y-31543750I0J-218750D01*
G01*
G37*
G04 #@! TD*
G04 #@! TO.C,C2*
G36*
G01*
X7650000Y-36043750D02*
X7650000Y-36556250D01*
G75*
G02*
X7431250Y-36775000I-218750J0D01*
G01*
X6993750Y-36775000D01*
G75*
G02*
X6775000Y-36556250I0J218750D01*
G01*
X6775000Y-36043750D01*
G75*
G02*
X6993750Y-35825000I218750J0D01*
G01*
X7431250Y-35825000D01*
G75*
G02*
X7650000Y-36043750I0J-218750D01*
G01*
G37*
G36*
G01*
X9225000Y-36043750D02*
X9225000Y-36556250D01*
G75*
G02*
X9006250Y-36775000I-218750J0D01*
G01*
X8568750Y-36775000D01*
G75*
G02*
X8350000Y-36556250I0J218750D01*
G01*
X8350000Y-36043750D01*
G75*
G02*
X8568750Y-35825000I218750J0D01*
G01*
X9006250Y-35825000D01*
G75*
G02*
X9225000Y-36043750I0J-218750D01*
G01*
G37*
G04 #@! TD*
M02*
