G04 #@! TF.GenerationSoftware,KiCad,Pcbnew,5.1.9-73d0e3b20d~88~ubuntu20.04.1*
G04 #@! TF.CreationDate,2021-08-20T12:19:55+03:00*
G04 #@! TF.ProjectId,diff_probe_amplifier,64696666-5f70-4726-9f62-655f616d706c,rev?*
G04 #@! TF.SameCoordinates,Original*
G04 #@! TF.FileFunction,Profile,NP*
%FSLAX46Y46*%
G04 Gerber Fmt 4.6, Leading zero omitted, Abs format (unit mm)*
G04 Created by KiCad (PCBNEW 5.1.9-73d0e3b20d~88~ubuntu20.04.1) date 2021-08-20 12:19:55*
%MOMM*%
%LPD*%
G01*
G04 APERTURE LIST*
G04 #@! TA.AperFunction,Profile*
%ADD10C,0.050000*%
G04 #@! TD*
G04 APERTURE END LIST*
D10*
X2700000Y-4200000D02*
G75*
G02*
X3200000Y-3700000I500000J0D01*
G01*
X24800000Y-3700000D02*
G75*
G02*
X25300000Y-4200000I0J-500000D01*
G01*
X6450000Y-1650000D02*
G75*
G03*
X6950000Y-2150000I500000J0D01*
G01*
X9950000Y-1650000D02*
G75*
G02*
X9450000Y-2150000I-500000J0D01*
G01*
X18050000Y-1650000D02*
G75*
G03*
X18550000Y-2150000I500000J0D01*
G01*
X21550000Y-1650000D02*
G75*
G02*
X21050000Y-2150000I-500000J0D01*
G01*
X13000000Y-34400000D02*
G75*
G02*
X13500000Y-33900000I500000J0D01*
G01*
X14500000Y-33900000D02*
G75*
G02*
X15000000Y-34400000I0J-500000D01*
G01*
X15300000Y-37000000D02*
X24500000Y-37000000D01*
X13000000Y-36700000D02*
G75*
G02*
X12700000Y-37000000I-300000J0D01*
G01*
X15300000Y-37000000D02*
G75*
G02*
X15000000Y-36700000I0J300000D01*
G01*
X15000000Y-34400000D02*
X15000000Y-36700000D01*
X13500000Y-33900000D02*
X14500000Y-33900000D01*
X13000000Y-36700000D02*
X13000000Y-34400000D01*
X22300000Y850000D02*
G75*
G03*
X21550000Y1600000I-750000J0D01*
G01*
X22300000Y-1200000D02*
G75*
G03*
X24800000Y-3700000I2500000J0D01*
G01*
X22300000Y-1200000D02*
X22300000Y850000D01*
X5700000Y850000D02*
G75*
G02*
X6450000Y1600000I750000J0D01*
G01*
X21550000Y-1650000D02*
X21550000Y1600000D01*
X18550000Y-2150000D02*
X21050000Y-2150000D01*
X18050000Y1600000D02*
X18050000Y-1650000D01*
X10800000Y1600000D02*
X18050000Y1600000D01*
X9950000Y1600000D02*
X10800000Y1600000D01*
X9950000Y-1650000D02*
X9950000Y1600000D01*
X6950000Y-2150000D02*
X9450000Y-2150000D01*
X6450000Y1600000D02*
X6450000Y-1650000D01*
X5700000Y-1200000D02*
X5700000Y850000D01*
X5700000Y-1200000D02*
G75*
G02*
X3200000Y-3700000I-2500000J0D01*
G01*
X1201994Y-34604250D02*
G75*
G03*
X3500000Y-37000000I2298006J-95750D01*
G01*
X26798006Y-34604250D02*
G75*
G02*
X24500000Y-37000000I-2298006J-95750D01*
G01*
X26798006Y-34604250D02*
X25300000Y-4200000D01*
X3500000Y-37000000D02*
X12700000Y-37000000D01*
X2700000Y-4200000D02*
X1201994Y-34604250D01*
M02*
