G04 #@! TF.GenerationSoftware,KiCad,Pcbnew,5.1.9-73d0e3b20d~88~ubuntu20.04.1*
G04 #@! TF.CreationDate,2021-06-04T11:55:54+03:00*
G04 #@! TF.ProjectId,differential-tweezer,64696666-6572-4656-9e74-69616c2d7477,rev?*
G04 #@! TF.SameCoordinates,Original*
G04 #@! TF.FileFunction,Soldermask,Bot*
G04 #@! TF.FilePolarity,Negative*
%FSLAX46Y46*%
G04 Gerber Fmt 4.6, Leading zero omitted, Abs format (unit mm)*
G04 Created by KiCad (PCBNEW 5.1.9-73d0e3b20d~88~ubuntu20.04.1) date 2021-06-04 11:55:54*
%MOMM*%
%LPD*%
G01*
G04 APERTURE LIST*
%ADD10C,2.800000*%
%ADD11C,2.000000*%
%ADD12C,0.600000*%
%ADD13C,4.200000*%
%ADD14C,2.500000*%
G04 APERTURE END LIST*
D10*
G04 #@! TO.C,J8*
X7500000Y-1700000D03*
X7500000Y-6100000D03*
X11900000Y-6100000D03*
X11900000Y-1700000D03*
D11*
X9700000Y-3900000D03*
G04 #@! TD*
D12*
G04 #@! TO.C,J2*
X15600000Y-31300000D03*
X15600000Y-33400000D03*
X15600000Y-35500000D03*
X12400000Y-31300000D03*
X12400000Y-33400000D03*
X12400000Y-35500000D03*
G04 #@! TD*
G04 #@! TO.C,J4*
X25099794Y-10392150D03*
X24500617Y-10423551D03*
X25131196Y-10991327D03*
G04 #@! TD*
G04 #@! TO.C,J3*
X25249794Y-13192150D03*
X24650617Y-13223551D03*
X25281196Y-13791327D03*
G04 #@! TD*
G04 #@! TO.C,J6*
X2718804Y-13791327D03*
X3349383Y-13223551D03*
X2750206Y-13192150D03*
G04 #@! TD*
G04 #@! TO.C,J5*
X2868804Y-10991327D03*
X3499383Y-10423551D03*
X2900206Y-10392150D03*
G04 #@! TD*
D11*
G04 #@! TO.C,J1*
X14000000Y-21700000D03*
D12*
X15100000Y-28400000D03*
X12900000Y-28400000D03*
X12900000Y-24200000D03*
X12900000Y-26300000D03*
X15100000Y-26300000D03*
X15100000Y-24200000D03*
G04 #@! TD*
D10*
G04 #@! TO.C,J7*
X16100000Y-1700000D03*
X16100000Y-6100000D03*
X20500000Y-6100000D03*
X20500000Y-1700000D03*
D11*
X18300000Y-3900000D03*
G04 #@! TD*
D13*
G04 #@! TO.C,H1*
X19400000Y-34700000D03*
G04 #@! TD*
D14*
G04 #@! TO.C,TP4*
X14000000Y-25000000D03*
G04 #@! TD*
G04 #@! TO.C,TP3*
X18000000Y-22000000D03*
G04 #@! TD*
G04 #@! TO.C,TP2*
X10000000Y-22000000D03*
G04 #@! TD*
G04 #@! TO.C,TP1*
X14000000Y-32000000D03*
G04 #@! TD*
M02*
