M48
METRIC
T1C0.400
T2C1.000
%
G90
G05
T1
X44.1Y-129.5
X44.1Y-139.5
X44.1Y-149.5
X44.1Y-159.5
X44.1Y-169.5
X61.877Y-130.618
X61.877Y-140.618
X61.877Y-150.618
X61.877Y-160.618
X61.877Y-170.618
X65.0Y-130.625
X65.0Y-140.625
X65.0Y-150.625
X65.0Y-160.625
X65.0Y-170.625
X76.5Y-128.875
X76.5Y-138.875
X76.5Y-148.875
X76.5Y-158.875
X76.5Y-168.875
X79.623Y-128.882
X79.623Y-138.882
X79.623Y-148.882
X79.623Y-158.882
X79.623Y-168.882
X97.4Y-130.0
X97.4Y-140.0
X97.4Y-150.0
X97.4Y-160.0
X97.4Y-170.0
T2
G00X66.0Y-132.0
M15
G01X62.0Y-132.0
M16
G05
G00X66.0Y-142.0
M15
G01X62.0Y-142.0
M16
G05
G00X66.0Y-152.0
M15
G01X62.0Y-152.0
M16
G05
G00X66.0Y-162.0
M15
G01X62.0Y-162.0
M16
G05
G00X66.0Y-172.0
M15
G01X62.0Y-172.0
M16
G05
G00X75.5Y-127.5
M15
G01X79.5Y-127.5
M16
G05
G00X75.5Y-137.5
M15
G01X79.5Y-137.5
M16
G05
G00X75.5Y-147.5
M15
G01X79.5Y-147.5
M16
G05
G00X75.5Y-157.5
M15
G01X79.5Y-157.5
M16
G05
G00X75.5Y-167.5
M15
G01X79.5Y-167.5
M16
G05
T0
M30
