G04 #@! TF.GenerationSoftware,KiCad,Pcbnew,5.1.9-73d0e3b20d~88~ubuntu20.04.1*
G04 #@! TF.CreationDate,2021-08-20T12:24:49+03:00*
G04 #@! TF.ProjectId,cable_to_banana,6361626c-655f-4746-9f5f-62616e616e61,rev?*
G04 #@! TF.SameCoordinates,Original*
G04 #@! TF.FileFunction,Copper,L1,Top*
G04 #@! TF.FilePolarity,Positive*
%FSLAX46Y46*%
G04 Gerber Fmt 4.6, Leading zero omitted, Abs format (unit mm)*
G04 Created by KiCad (PCBNEW 5.1.9-73d0e3b20d~88~ubuntu20.04.1) date 2021-08-20 12:24:49*
%MOMM*%
%LPD*%
G01*
G04 APERTURE LIST*
G04 #@! TA.AperFunction,ComponentPad*
%ADD10O,7.000000X3.000000*%
G04 #@! TD*
G04 #@! TA.AperFunction,ViaPad*
%ADD11C,0.800000*%
G04 #@! TD*
G04 #@! TA.AperFunction,Conductor*
%ADD12C,0.700000*%
G04 #@! TD*
G04 #@! TA.AperFunction,Conductor*
%ADD13C,0.200000*%
G04 #@! TD*
G04 #@! TA.AperFunction,Conductor*
%ADD14C,0.350000*%
G04 #@! TD*
%ADD15C,0.350000*%
%ADD16O,5.000000X1.000000*%
G04 APERTURE END LIST*
G04 #@! TO.P,J3,1*
G04 #@! TO.N,GND*
G04 #@! TA.AperFunction,SMDPad,CuDef*
G36*
G01*
X41600000Y-138875000D02*
X41600000Y-140125000D01*
G75*
G02*
X40975000Y-140750000I-625000J0D01*
G01*
X39225000Y-140750000D01*
G75*
G02*
X38600000Y-140125000I0J625000D01*
G01*
X38600000Y-138875000D01*
G75*
G02*
X39225000Y-138250000I625000J0D01*
G01*
X40975000Y-138250000D01*
G75*
G02*
X41600000Y-138875000I0J-625000D01*
G01*
G37*
G04 #@! TD.AperFunction*
G04 #@! TD*
G04 #@! TO.P,C6,2*
G04 #@! TO.N,Net-(C5-Pad1)*
G04 #@! TA.AperFunction,SMDPad,CuDef*
G36*
G01*
X43350000Y-140456250D02*
X43350000Y-139943750D01*
G75*
G02*
X43568750Y-139725000I218750J0D01*
G01*
X44006250Y-139725000D01*
G75*
G02*
X44225000Y-139943750I0J-218750D01*
G01*
X44225000Y-140456250D01*
G75*
G02*
X44006250Y-140675000I-218750J0D01*
G01*
X43568750Y-140675000D01*
G75*
G02*
X43350000Y-140456250I0J218750D01*
G01*
G37*
G04 #@! TD.AperFunction*
G04 #@! TO.P,C6,1*
G04 #@! TO.N,GND*
G04 #@! TA.AperFunction,SMDPad,CuDef*
G36*
G01*
X41775000Y-140456250D02*
X41775000Y-139943750D01*
G75*
G02*
X41993750Y-139725000I218750J0D01*
G01*
X42431250Y-139725000D01*
G75*
G02*
X42650000Y-139943750I0J-218750D01*
G01*
X42650000Y-140456250D01*
G75*
G02*
X42431250Y-140675000I-218750J0D01*
G01*
X41993750Y-140675000D01*
G75*
G02*
X41775000Y-140456250I0J218750D01*
G01*
G37*
G04 #@! TD.AperFunction*
G04 #@! TD*
G04 #@! TO.P,R2,1*
G04 #@! TO.N,Net-(C2-Pad1)*
G04 #@! TA.AperFunction,SMDPad,CuDef*
G36*
G01*
X54350000Y-129235000D02*
X54350000Y-127765000D01*
G75*
G02*
X54490000Y-127625000I140000J0D01*
G01*
X54910000Y-127625000D01*
G75*
G02*
X55050000Y-127765000I0J-140000D01*
G01*
X55050000Y-129235000D01*
G75*
G02*
X54910000Y-129375000I-140000J0D01*
G01*
X54490000Y-129375000D01*
G75*
G02*
X54350000Y-129235000I0J140000D01*
G01*
G37*
G04 #@! TD.AperFunction*
G04 #@! TO.P,R2,2*
G04 #@! TO.N,Net-(C1-Pad1)*
G04 #@! TA.AperFunction,SMDPad,CuDef*
G36*
G01*
X57150000Y-129235000D02*
X57150000Y-127765000D01*
G75*
G02*
X57290000Y-127625000I140000J0D01*
G01*
X57710000Y-127625000D01*
G75*
G02*
X57850000Y-127765000I0J-140000D01*
G01*
X57850000Y-129235000D01*
G75*
G02*
X57710000Y-129375000I-140000J0D01*
G01*
X57290000Y-129375000D01*
G75*
G02*
X57150000Y-129235000I0J140000D01*
G01*
G37*
G04 #@! TD.AperFunction*
G04 #@! TD*
G04 #@! TO.P,R5,1*
G04 #@! TO.N,Net-(C5-Pad1)*
G04 #@! TA.AperFunction,SMDPad,CuDef*
G36*
G01*
X44150000Y-131435000D02*
X44150000Y-129965000D01*
G75*
G02*
X44290000Y-129825000I140000J0D01*
G01*
X44710000Y-129825000D01*
G75*
G02*
X44850000Y-129965000I0J-140000D01*
G01*
X44850000Y-131435000D01*
G75*
G02*
X44710000Y-131575000I-140000J0D01*
G01*
X44290000Y-131575000D01*
G75*
G02*
X44150000Y-131435000I0J140000D01*
G01*
G37*
G04 #@! TD.AperFunction*
G04 #@! TO.P,R5,2*
G04 #@! TO.N,Net-(C4-Pad1)*
G04 #@! TA.AperFunction,SMDPad,CuDef*
G36*
G01*
X46950000Y-131435000D02*
X46950000Y-129965000D01*
G75*
G02*
X47090000Y-129825000I140000J0D01*
G01*
X47510000Y-129825000D01*
G75*
G02*
X47650000Y-129965000I0J-140000D01*
G01*
X47650000Y-131435000D01*
G75*
G02*
X47510000Y-131575000I-140000J0D01*
G01*
X47090000Y-131575000D01*
G75*
G02*
X46950000Y-131435000I0J140000D01*
G01*
G37*
G04 #@! TD.AperFunction*
G04 #@! TD*
G04 #@! TO.P,R6,2*
G04 #@! TO.N,Net-(C5-Pad1)*
G04 #@! TA.AperFunction,SMDPad,CuDef*
G36*
G01*
X43350000Y-159056250D02*
X43350000Y-158543750D01*
G75*
G02*
X43568750Y-158325000I218750J0D01*
G01*
X44006250Y-158325000D01*
G75*
G02*
X44225000Y-158543750I0J-218750D01*
G01*
X44225000Y-159056250D01*
G75*
G02*
X44006250Y-159275000I-218750J0D01*
G01*
X43568750Y-159275000D01*
G75*
G02*
X43350000Y-159056250I0J218750D01*
G01*
G37*
G04 #@! TD.AperFunction*
G04 #@! TO.P,R6,1*
G04 #@! TO.N,GND*
G04 #@! TA.AperFunction,SMDPad,CuDef*
G36*
G01*
X41775000Y-159056250D02*
X41775000Y-158543750D01*
G75*
G02*
X41993750Y-158325000I218750J0D01*
G01*
X42431250Y-158325000D01*
G75*
G02*
X42650000Y-158543750I0J-218750D01*
G01*
X42650000Y-159056250D01*
G75*
G02*
X42431250Y-159275000I-218750J0D01*
G01*
X41993750Y-159275000D01*
G75*
G02*
X41775000Y-159056250I0J218750D01*
G01*
G37*
G04 #@! TD.AperFunction*
G04 #@! TD*
G04 #@! TO.P,C4,1*
G04 #@! TO.N,Net-(C4-Pad1)*
G04 #@! TA.AperFunction,SMDPad,CuDef*
G36*
G01*
X47550000Y-129235000D02*
X47550000Y-127765000D01*
G75*
G02*
X47690000Y-127625000I140000J0D01*
G01*
X48110000Y-127625000D01*
G75*
G02*
X48250000Y-127765000I0J-140000D01*
G01*
X48250000Y-129235000D01*
G75*
G02*
X48110000Y-129375000I-140000J0D01*
G01*
X47690000Y-129375000D01*
G75*
G02*
X47550000Y-129235000I0J140000D01*
G01*
G37*
G04 #@! TD.AperFunction*
G04 #@! TO.P,C4,2*
G04 #@! TO.N,Net-(C3-Pad1)*
G04 #@! TA.AperFunction,SMDPad,CuDef*
G36*
G01*
X50350000Y-129235000D02*
X50350000Y-127765000D01*
G75*
G02*
X50490000Y-127625000I140000J0D01*
G01*
X50910000Y-127625000D01*
G75*
G02*
X51050000Y-127765000I0J-140000D01*
G01*
X51050000Y-129235000D01*
G75*
G02*
X50910000Y-129375000I-140000J0D01*
G01*
X50490000Y-129375000D01*
G75*
G02*
X50350000Y-129235000I0J140000D01*
G01*
G37*
G04 #@! TD.AperFunction*
G04 #@! TD*
G04 #@! TO.P,C5,1*
G04 #@! TO.N,Net-(C5-Pad1)*
G04 #@! TA.AperFunction,SMDPad,CuDef*
G36*
G01*
X44150000Y-169235000D02*
X44150000Y-167765000D01*
G75*
G02*
X44290000Y-167625000I140000J0D01*
G01*
X44710000Y-167625000D01*
G75*
G02*
X44850000Y-167765000I0J-140000D01*
G01*
X44850000Y-169235000D01*
G75*
G02*
X44710000Y-169375000I-140000J0D01*
G01*
X44290000Y-169375000D01*
G75*
G02*
X44150000Y-169235000I0J140000D01*
G01*
G37*
G04 #@! TD.AperFunction*
G04 #@! TO.P,C5,2*
G04 #@! TO.N,Net-(C4-Pad1)*
G04 #@! TA.AperFunction,SMDPad,CuDef*
G36*
G01*
X46950000Y-169235000D02*
X46950000Y-167765000D01*
G75*
G02*
X47090000Y-167625000I140000J0D01*
G01*
X47510000Y-167625000D01*
G75*
G02*
X47650000Y-167765000I0J-140000D01*
G01*
X47650000Y-169235000D01*
G75*
G02*
X47510000Y-169375000I-140000J0D01*
G01*
X47090000Y-169375000D01*
G75*
G02*
X46950000Y-169235000I0J140000D01*
G01*
G37*
G04 #@! TD.AperFunction*
G04 #@! TD*
G04 #@! TO.P,C3,1*
G04 #@! TO.N,Net-(C3-Pad1)*
G04 #@! TA.AperFunction,SMDPad,CuDef*
G36*
G01*
X50950000Y-129235000D02*
X50950000Y-127765000D01*
G75*
G02*
X51090000Y-127625000I140000J0D01*
G01*
X51510000Y-127625000D01*
G75*
G02*
X51650000Y-127765000I0J-140000D01*
G01*
X51650000Y-129235000D01*
G75*
G02*
X51510000Y-129375000I-140000J0D01*
G01*
X51090000Y-129375000D01*
G75*
G02*
X50950000Y-129235000I0J140000D01*
G01*
G37*
G04 #@! TD.AperFunction*
G04 #@! TO.P,C3,2*
G04 #@! TO.N,Net-(C2-Pad1)*
G04 #@! TA.AperFunction,SMDPad,CuDef*
G36*
G01*
X53750000Y-129235000D02*
X53750000Y-127765000D01*
G75*
G02*
X53890000Y-127625000I140000J0D01*
G01*
X54310000Y-127625000D01*
G75*
G02*
X54450000Y-127765000I0J-140000D01*
G01*
X54450000Y-129235000D01*
G75*
G02*
X54310000Y-129375000I-140000J0D01*
G01*
X53890000Y-129375000D01*
G75*
G02*
X53750000Y-129235000I0J140000D01*
G01*
G37*
G04 #@! TD.AperFunction*
G04 #@! TD*
G04 #@! TO.P,C6,1*
G04 #@! TO.N,GND*
G04 #@! TA.AperFunction,SMDPad,CuDef*
G36*
G01*
X41775000Y-130456250D02*
X41775000Y-129943750D01*
G75*
G02*
X41993750Y-129725000I218750J0D01*
G01*
X42431250Y-129725000D01*
G75*
G02*
X42650000Y-129943750I0J-218750D01*
G01*
X42650000Y-130456250D01*
G75*
G02*
X42431250Y-130675000I-218750J0D01*
G01*
X41993750Y-130675000D01*
G75*
G02*
X41775000Y-130456250I0J218750D01*
G01*
G37*
G04 #@! TD.AperFunction*
G04 #@! TO.P,C6,2*
G04 #@! TO.N,Net-(C5-Pad1)*
G04 #@! TA.AperFunction,SMDPad,CuDef*
G36*
G01*
X43350000Y-130456250D02*
X43350000Y-129943750D01*
G75*
G02*
X43568750Y-129725000I218750J0D01*
G01*
X44006250Y-129725000D01*
G75*
G02*
X44225000Y-129943750I0J-218750D01*
G01*
X44225000Y-130456250D01*
G75*
G02*
X44006250Y-130675000I-218750J0D01*
G01*
X43568750Y-130675000D01*
G75*
G02*
X43350000Y-130456250I0J218750D01*
G01*
G37*
G04 #@! TD.AperFunction*
G04 #@! TD*
D10*
G04 #@! TO.P,J1,1*
G04 #@! TO.N,Net-(C1-Pad2)*
X64000000Y-132000000D03*
G04 #@! TD*
G04 #@! TO.P,C5,2*
G04 #@! TO.N,Net-(C4-Pad1)*
G04 #@! TA.AperFunction,SMDPad,CuDef*
G36*
G01*
X46950000Y-139235000D02*
X46950000Y-137765000D01*
G75*
G02*
X47090000Y-137625000I140000J0D01*
G01*
X47510000Y-137625000D01*
G75*
G02*
X47650000Y-137765000I0J-140000D01*
G01*
X47650000Y-139235000D01*
G75*
G02*
X47510000Y-139375000I-140000J0D01*
G01*
X47090000Y-139375000D01*
G75*
G02*
X46950000Y-139235000I0J140000D01*
G01*
G37*
G04 #@! TD.AperFunction*
G04 #@! TO.P,C5,1*
G04 #@! TO.N,Net-(C5-Pad1)*
G04 #@! TA.AperFunction,SMDPad,CuDef*
G36*
G01*
X44150000Y-139235000D02*
X44150000Y-137765000D01*
G75*
G02*
X44290000Y-137625000I140000J0D01*
G01*
X44710000Y-137625000D01*
G75*
G02*
X44850000Y-137765000I0J-140000D01*
G01*
X44850000Y-139235000D01*
G75*
G02*
X44710000Y-139375000I-140000J0D01*
G01*
X44290000Y-139375000D01*
G75*
G02*
X44150000Y-139235000I0J140000D01*
G01*
G37*
G04 #@! TD.AperFunction*
G04 #@! TD*
G04 #@! TO.P,R4,2*
G04 #@! TO.N,Net-(C3-Pad1)*
G04 #@! TA.AperFunction,SMDPad,CuDef*
G36*
G01*
X50350000Y-141435000D02*
X50350000Y-139965000D01*
G75*
G02*
X50490000Y-139825000I140000J0D01*
G01*
X50910000Y-139825000D01*
G75*
G02*
X51050000Y-139965000I0J-140000D01*
G01*
X51050000Y-141435000D01*
G75*
G02*
X50910000Y-141575000I-140000J0D01*
G01*
X50490000Y-141575000D01*
G75*
G02*
X50350000Y-141435000I0J140000D01*
G01*
G37*
G04 #@! TD.AperFunction*
G04 #@! TO.P,R4,1*
G04 #@! TO.N,Net-(C4-Pad1)*
G04 #@! TA.AperFunction,SMDPad,CuDef*
G36*
G01*
X47550000Y-141435000D02*
X47550000Y-139965000D01*
G75*
G02*
X47690000Y-139825000I140000J0D01*
G01*
X48110000Y-139825000D01*
G75*
G02*
X48250000Y-139965000I0J-140000D01*
G01*
X48250000Y-141435000D01*
G75*
G02*
X48110000Y-141575000I-140000J0D01*
G01*
X47690000Y-141575000D01*
G75*
G02*
X47550000Y-141435000I0J140000D01*
G01*
G37*
G04 #@! TD.AperFunction*
G04 #@! TD*
G04 #@! TO.P,J3,1*
G04 #@! TO.N,GND*
G04 #@! TA.AperFunction,SMDPad,CuDef*
G36*
G01*
X41600000Y-128875000D02*
X41600000Y-130125000D01*
G75*
G02*
X40975000Y-130750000I-625000J0D01*
G01*
X39225000Y-130750000D01*
G75*
G02*
X38600000Y-130125000I0J625000D01*
G01*
X38600000Y-128875000D01*
G75*
G02*
X39225000Y-128250000I625000J0D01*
G01*
X40975000Y-128250000D01*
G75*
G02*
X41600000Y-128875000I0J-625000D01*
G01*
G37*
G04 #@! TD.AperFunction*
G04 #@! TD*
G04 #@! TO.P,C1,1*
G04 #@! TO.N,Net-(C1-Pad1)*
G04 #@! TA.AperFunction,SMDPad,CuDef*
G36*
G01*
X57750000Y-171435000D02*
X57750000Y-169965000D01*
G75*
G02*
X57890000Y-169825000I140000J0D01*
G01*
X58310000Y-169825000D01*
G75*
G02*
X58450000Y-169965000I0J-140000D01*
G01*
X58450000Y-171435000D01*
G75*
G02*
X58310000Y-171575000I-140000J0D01*
G01*
X57890000Y-171575000D01*
G75*
G02*
X57750000Y-171435000I0J140000D01*
G01*
G37*
G04 #@! TD.AperFunction*
G04 #@! TO.P,C1,2*
G04 #@! TO.N,Net-(C1-Pad2)*
G04 #@! TA.AperFunction,SMDPad,CuDef*
G36*
G01*
X60550000Y-171435000D02*
X60550000Y-169965000D01*
G75*
G02*
X60690000Y-169825000I140000J0D01*
G01*
X61110000Y-169825000D01*
G75*
G02*
X61250000Y-169965000I0J-140000D01*
G01*
X61250000Y-171435000D01*
G75*
G02*
X61110000Y-171575000I-140000J0D01*
G01*
X60690000Y-171575000D01*
G75*
G02*
X60550000Y-171435000I0J140000D01*
G01*
G37*
G04 #@! TD.AperFunction*
G04 #@! TD*
G04 #@! TO.P,R1,1*
G04 #@! TO.N,Net-(C1-Pad1)*
G04 #@! TA.AperFunction,SMDPad,CuDef*
G36*
G01*
X57750000Y-129235000D02*
X57750000Y-127765000D01*
G75*
G02*
X57890000Y-127625000I140000J0D01*
G01*
X58310000Y-127625000D01*
G75*
G02*
X58450000Y-127765000I0J-140000D01*
G01*
X58450000Y-129235000D01*
G75*
G02*
X58310000Y-129375000I-140000J0D01*
G01*
X57890000Y-129375000D01*
G75*
G02*
X57750000Y-129235000I0J140000D01*
G01*
G37*
G04 #@! TD.AperFunction*
G04 #@! TO.P,R1,2*
G04 #@! TO.N,Net-(C1-Pad2)*
G04 #@! TA.AperFunction,SMDPad,CuDef*
G36*
G01*
X60550000Y-129235000D02*
X60550000Y-127765000D01*
G75*
G02*
X60690000Y-127625000I140000J0D01*
G01*
X61110000Y-127625000D01*
G75*
G02*
X61250000Y-127765000I0J-140000D01*
G01*
X61250000Y-129235000D01*
G75*
G02*
X61110000Y-129375000I-140000J0D01*
G01*
X60690000Y-129375000D01*
G75*
G02*
X60550000Y-129235000I0J140000D01*
G01*
G37*
G04 #@! TD.AperFunction*
G04 #@! TD*
G04 #@! TO.P,C4,2*
G04 #@! TO.N,Net-(C3-Pad1)*
G04 #@! TA.AperFunction,SMDPad,CuDef*
G36*
G01*
X50350000Y-159235000D02*
X50350000Y-157765000D01*
G75*
G02*
X50490000Y-157625000I140000J0D01*
G01*
X50910000Y-157625000D01*
G75*
G02*
X51050000Y-157765000I0J-140000D01*
G01*
X51050000Y-159235000D01*
G75*
G02*
X50910000Y-159375000I-140000J0D01*
G01*
X50490000Y-159375000D01*
G75*
G02*
X50350000Y-159235000I0J140000D01*
G01*
G37*
G04 #@! TD.AperFunction*
G04 #@! TO.P,C4,1*
G04 #@! TO.N,Net-(C4-Pad1)*
G04 #@! TA.AperFunction,SMDPad,CuDef*
G36*
G01*
X47550000Y-159235000D02*
X47550000Y-157765000D01*
G75*
G02*
X47690000Y-157625000I140000J0D01*
G01*
X48110000Y-157625000D01*
G75*
G02*
X48250000Y-157765000I0J-140000D01*
G01*
X48250000Y-159235000D01*
G75*
G02*
X48110000Y-159375000I-140000J0D01*
G01*
X47690000Y-159375000D01*
G75*
G02*
X47550000Y-159235000I0J140000D01*
G01*
G37*
G04 #@! TD.AperFunction*
G04 #@! TD*
G04 #@! TO.P,J1,1*
G04 #@! TO.N,Net-(C1-Pad2)*
X64000000Y-162000000D03*
G04 #@! TD*
G04 #@! TO.P,C2,1*
G04 #@! TO.N,Net-(C2-Pad1)*
G04 #@! TA.AperFunction,SMDPad,CuDef*
G36*
G01*
X54350000Y-131435000D02*
X54350000Y-129965000D01*
G75*
G02*
X54490000Y-129825000I140000J0D01*
G01*
X54910000Y-129825000D01*
G75*
G02*
X55050000Y-129965000I0J-140000D01*
G01*
X55050000Y-131435000D01*
G75*
G02*
X54910000Y-131575000I-140000J0D01*
G01*
X54490000Y-131575000D01*
G75*
G02*
X54350000Y-131435000I0J140000D01*
G01*
G37*
G04 #@! TD.AperFunction*
G04 #@! TO.P,C2,2*
G04 #@! TO.N,Net-(C1-Pad1)*
G04 #@! TA.AperFunction,SMDPad,CuDef*
G36*
G01*
X57150000Y-131435000D02*
X57150000Y-129965000D01*
G75*
G02*
X57290000Y-129825000I140000J0D01*
G01*
X57710000Y-129825000D01*
G75*
G02*
X57850000Y-129965000I0J-140000D01*
G01*
X57850000Y-131435000D01*
G75*
G02*
X57710000Y-131575000I-140000J0D01*
G01*
X57290000Y-131575000D01*
G75*
G02*
X57150000Y-131435000I0J140000D01*
G01*
G37*
G04 #@! TD.AperFunction*
G04 #@! TD*
G04 #@! TO.P,C5,1*
G04 #@! TO.N,Net-(C5-Pad1)*
G04 #@! TA.AperFunction,SMDPad,CuDef*
G36*
G01*
X44150000Y-129235000D02*
X44150000Y-127765000D01*
G75*
G02*
X44290000Y-127625000I140000J0D01*
G01*
X44710000Y-127625000D01*
G75*
G02*
X44850000Y-127765000I0J-140000D01*
G01*
X44850000Y-129235000D01*
G75*
G02*
X44710000Y-129375000I-140000J0D01*
G01*
X44290000Y-129375000D01*
G75*
G02*
X44150000Y-129235000I0J140000D01*
G01*
G37*
G04 #@! TD.AperFunction*
G04 #@! TO.P,C5,2*
G04 #@! TO.N,Net-(C4-Pad1)*
G04 #@! TA.AperFunction,SMDPad,CuDef*
G36*
G01*
X46950000Y-129235000D02*
X46950000Y-127765000D01*
G75*
G02*
X47090000Y-127625000I140000J0D01*
G01*
X47510000Y-127625000D01*
G75*
G02*
X47650000Y-127765000I0J-140000D01*
G01*
X47650000Y-129235000D01*
G75*
G02*
X47510000Y-129375000I-140000J0D01*
G01*
X47090000Y-129375000D01*
G75*
G02*
X46950000Y-129235000I0J140000D01*
G01*
G37*
G04 #@! TD.AperFunction*
G04 #@! TD*
G04 #@! TO.P,C6,1*
G04 #@! TO.N,GND*
G04 #@! TA.AperFunction,SMDPad,CuDef*
G36*
G01*
X41775000Y-170456250D02*
X41775000Y-169943750D01*
G75*
G02*
X41993750Y-169725000I218750J0D01*
G01*
X42431250Y-169725000D01*
G75*
G02*
X42650000Y-169943750I0J-218750D01*
G01*
X42650000Y-170456250D01*
G75*
G02*
X42431250Y-170675000I-218750J0D01*
G01*
X41993750Y-170675000D01*
G75*
G02*
X41775000Y-170456250I0J218750D01*
G01*
G37*
G04 #@! TD.AperFunction*
G04 #@! TO.P,C6,2*
G04 #@! TO.N,Net-(C5-Pad1)*
G04 #@! TA.AperFunction,SMDPad,CuDef*
G36*
G01*
X43350000Y-170456250D02*
X43350000Y-169943750D01*
G75*
G02*
X43568750Y-169725000I218750J0D01*
G01*
X44006250Y-169725000D01*
G75*
G02*
X44225000Y-169943750I0J-218750D01*
G01*
X44225000Y-170456250D01*
G75*
G02*
X44006250Y-170675000I-218750J0D01*
G01*
X43568750Y-170675000D01*
G75*
G02*
X43350000Y-170456250I0J218750D01*
G01*
G37*
G04 #@! TD.AperFunction*
G04 #@! TD*
G04 #@! TO.P,R1,1*
G04 #@! TO.N,Net-(C1-Pad1)*
G04 #@! TA.AperFunction,SMDPad,CuDef*
G36*
G01*
X57750000Y-169235000D02*
X57750000Y-167765000D01*
G75*
G02*
X57890000Y-167625000I140000J0D01*
G01*
X58310000Y-167625000D01*
G75*
G02*
X58450000Y-167765000I0J-140000D01*
G01*
X58450000Y-169235000D01*
G75*
G02*
X58310000Y-169375000I-140000J0D01*
G01*
X57890000Y-169375000D01*
G75*
G02*
X57750000Y-169235000I0J140000D01*
G01*
G37*
G04 #@! TD.AperFunction*
G04 #@! TO.P,R1,2*
G04 #@! TO.N,Net-(C1-Pad2)*
G04 #@! TA.AperFunction,SMDPad,CuDef*
G36*
G01*
X60550000Y-169235000D02*
X60550000Y-167765000D01*
G75*
G02*
X60690000Y-167625000I140000J0D01*
G01*
X61110000Y-167625000D01*
G75*
G02*
X61250000Y-167765000I0J-140000D01*
G01*
X61250000Y-169235000D01*
G75*
G02*
X61110000Y-169375000I-140000J0D01*
G01*
X60690000Y-169375000D01*
G75*
G02*
X60550000Y-169235000I0J140000D01*
G01*
G37*
G04 #@! TD.AperFunction*
G04 #@! TD*
G04 #@! TO.P,R3,2*
G04 #@! TO.N,Net-(C2-Pad1)*
G04 #@! TA.AperFunction,SMDPad,CuDef*
G36*
G01*
X53750000Y-161435000D02*
X53750000Y-159965000D01*
G75*
G02*
X53890000Y-159825000I140000J0D01*
G01*
X54310000Y-159825000D01*
G75*
G02*
X54450000Y-159965000I0J-140000D01*
G01*
X54450000Y-161435000D01*
G75*
G02*
X54310000Y-161575000I-140000J0D01*
G01*
X53890000Y-161575000D01*
G75*
G02*
X53750000Y-161435000I0J140000D01*
G01*
G37*
G04 #@! TD.AperFunction*
G04 #@! TO.P,R3,1*
G04 #@! TO.N,Net-(C3-Pad1)*
G04 #@! TA.AperFunction,SMDPad,CuDef*
G36*
G01*
X50950000Y-161435000D02*
X50950000Y-159965000D01*
G75*
G02*
X51090000Y-159825000I140000J0D01*
G01*
X51510000Y-159825000D01*
G75*
G02*
X51650000Y-159965000I0J-140000D01*
G01*
X51650000Y-161435000D01*
G75*
G02*
X51510000Y-161575000I-140000J0D01*
G01*
X51090000Y-161575000D01*
G75*
G02*
X50950000Y-161435000I0J140000D01*
G01*
G37*
G04 #@! TD.AperFunction*
G04 #@! TD*
G04 #@! TO.P,R2,1*
G04 #@! TO.N,Net-(C2-Pad1)*
G04 #@! TA.AperFunction,SMDPad,CuDef*
G36*
G01*
X54350000Y-169235000D02*
X54350000Y-167765000D01*
G75*
G02*
X54490000Y-167625000I140000J0D01*
G01*
X54910000Y-167625000D01*
G75*
G02*
X55050000Y-167765000I0J-140000D01*
G01*
X55050000Y-169235000D01*
G75*
G02*
X54910000Y-169375000I-140000J0D01*
G01*
X54490000Y-169375000D01*
G75*
G02*
X54350000Y-169235000I0J140000D01*
G01*
G37*
G04 #@! TD.AperFunction*
G04 #@! TO.P,R2,2*
G04 #@! TO.N,Net-(C1-Pad1)*
G04 #@! TA.AperFunction,SMDPad,CuDef*
G36*
G01*
X57150000Y-169235000D02*
X57150000Y-167765000D01*
G75*
G02*
X57290000Y-167625000I140000J0D01*
G01*
X57710000Y-167625000D01*
G75*
G02*
X57850000Y-167765000I0J-140000D01*
G01*
X57850000Y-169235000D01*
G75*
G02*
X57710000Y-169375000I-140000J0D01*
G01*
X57290000Y-169375000D01*
G75*
G02*
X57150000Y-169235000I0J140000D01*
G01*
G37*
G04 #@! TD.AperFunction*
G04 #@! TD*
G04 #@! TO.P,C3,1*
G04 #@! TO.N,Net-(C3-Pad1)*
G04 #@! TA.AperFunction,SMDPad,CuDef*
G36*
G01*
X50950000Y-169235000D02*
X50950000Y-167765000D01*
G75*
G02*
X51090000Y-167625000I140000J0D01*
G01*
X51510000Y-167625000D01*
G75*
G02*
X51650000Y-167765000I0J-140000D01*
G01*
X51650000Y-169235000D01*
G75*
G02*
X51510000Y-169375000I-140000J0D01*
G01*
X51090000Y-169375000D01*
G75*
G02*
X50950000Y-169235000I0J140000D01*
G01*
G37*
G04 #@! TD.AperFunction*
G04 #@! TO.P,C3,2*
G04 #@! TO.N,Net-(C2-Pad1)*
G04 #@! TA.AperFunction,SMDPad,CuDef*
G36*
G01*
X53750000Y-169235000D02*
X53750000Y-167765000D01*
G75*
G02*
X53890000Y-167625000I140000J0D01*
G01*
X54310000Y-167625000D01*
G75*
G02*
X54450000Y-167765000I0J-140000D01*
G01*
X54450000Y-169235000D01*
G75*
G02*
X54310000Y-169375000I-140000J0D01*
G01*
X53890000Y-169375000D01*
G75*
G02*
X53750000Y-169235000I0J140000D01*
G01*
G37*
G04 #@! TD.AperFunction*
G04 #@! TD*
G04 #@! TO.P,R6,1*
G04 #@! TO.N,GND*
G04 #@! TA.AperFunction,SMDPad,CuDef*
G36*
G01*
X41775000Y-129056250D02*
X41775000Y-128543750D01*
G75*
G02*
X41993750Y-128325000I218750J0D01*
G01*
X42431250Y-128325000D01*
G75*
G02*
X42650000Y-128543750I0J-218750D01*
G01*
X42650000Y-129056250D01*
G75*
G02*
X42431250Y-129275000I-218750J0D01*
G01*
X41993750Y-129275000D01*
G75*
G02*
X41775000Y-129056250I0J218750D01*
G01*
G37*
G04 #@! TD.AperFunction*
G04 #@! TO.P,R6,2*
G04 #@! TO.N,Net-(C5-Pad1)*
G04 #@! TA.AperFunction,SMDPad,CuDef*
G36*
G01*
X43350000Y-129056250D02*
X43350000Y-128543750D01*
G75*
G02*
X43568750Y-128325000I218750J0D01*
G01*
X44006250Y-128325000D01*
G75*
G02*
X44225000Y-128543750I0J-218750D01*
G01*
X44225000Y-129056250D01*
G75*
G02*
X44006250Y-129275000I-218750J0D01*
G01*
X43568750Y-129275000D01*
G75*
G02*
X43350000Y-129056250I0J218750D01*
G01*
G37*
G04 #@! TD.AperFunction*
G04 #@! TD*
G04 #@! TO.P,R5,2*
G04 #@! TO.N,Net-(C4-Pad1)*
G04 #@! TA.AperFunction,SMDPad,CuDef*
G36*
G01*
X46950000Y-141435000D02*
X46950000Y-139965000D01*
G75*
G02*
X47090000Y-139825000I140000J0D01*
G01*
X47510000Y-139825000D01*
G75*
G02*
X47650000Y-139965000I0J-140000D01*
G01*
X47650000Y-141435000D01*
G75*
G02*
X47510000Y-141575000I-140000J0D01*
G01*
X47090000Y-141575000D01*
G75*
G02*
X46950000Y-141435000I0J140000D01*
G01*
G37*
G04 #@! TD.AperFunction*
G04 #@! TO.P,R5,1*
G04 #@! TO.N,Net-(C5-Pad1)*
G04 #@! TA.AperFunction,SMDPad,CuDef*
G36*
G01*
X44150000Y-141435000D02*
X44150000Y-139965000D01*
G75*
G02*
X44290000Y-139825000I140000J0D01*
G01*
X44710000Y-139825000D01*
G75*
G02*
X44850000Y-139965000I0J-140000D01*
G01*
X44850000Y-141435000D01*
G75*
G02*
X44710000Y-141575000I-140000J0D01*
G01*
X44290000Y-141575000D01*
G75*
G02*
X44150000Y-141435000I0J140000D01*
G01*
G37*
G04 #@! TD.AperFunction*
G04 #@! TD*
G04 #@! TO.P,C2,2*
G04 #@! TO.N,Net-(C1-Pad1)*
G04 #@! TA.AperFunction,SMDPad,CuDef*
G36*
G01*
X57150000Y-161435000D02*
X57150000Y-159965000D01*
G75*
G02*
X57290000Y-159825000I140000J0D01*
G01*
X57710000Y-159825000D01*
G75*
G02*
X57850000Y-159965000I0J-140000D01*
G01*
X57850000Y-161435000D01*
G75*
G02*
X57710000Y-161575000I-140000J0D01*
G01*
X57290000Y-161575000D01*
G75*
G02*
X57150000Y-161435000I0J140000D01*
G01*
G37*
G04 #@! TD.AperFunction*
G04 #@! TO.P,C2,1*
G04 #@! TO.N,Net-(C2-Pad1)*
G04 #@! TA.AperFunction,SMDPad,CuDef*
G36*
G01*
X54350000Y-161435000D02*
X54350000Y-159965000D01*
G75*
G02*
X54490000Y-159825000I140000J0D01*
G01*
X54910000Y-159825000D01*
G75*
G02*
X55050000Y-159965000I0J-140000D01*
G01*
X55050000Y-161435000D01*
G75*
G02*
X54910000Y-161575000I-140000J0D01*
G01*
X54490000Y-161575000D01*
G75*
G02*
X54350000Y-161435000I0J140000D01*
G01*
G37*
G04 #@! TD.AperFunction*
G04 #@! TD*
G04 #@! TO.P,C4,2*
G04 #@! TO.N,Net-(C3-Pad1)*
G04 #@! TA.AperFunction,SMDPad,CuDef*
G36*
G01*
X50350000Y-139235000D02*
X50350000Y-137765000D01*
G75*
G02*
X50490000Y-137625000I140000J0D01*
G01*
X50910000Y-137625000D01*
G75*
G02*
X51050000Y-137765000I0J-140000D01*
G01*
X51050000Y-139235000D01*
G75*
G02*
X50910000Y-139375000I-140000J0D01*
G01*
X50490000Y-139375000D01*
G75*
G02*
X50350000Y-139235000I0J140000D01*
G01*
G37*
G04 #@! TD.AperFunction*
G04 #@! TO.P,C4,1*
G04 #@! TO.N,Net-(C4-Pad1)*
G04 #@! TA.AperFunction,SMDPad,CuDef*
G36*
G01*
X47550000Y-139235000D02*
X47550000Y-137765000D01*
G75*
G02*
X47690000Y-137625000I140000J0D01*
G01*
X48110000Y-137625000D01*
G75*
G02*
X48250000Y-137765000I0J-140000D01*
G01*
X48250000Y-139235000D01*
G75*
G02*
X48110000Y-139375000I-140000J0D01*
G01*
X47690000Y-139375000D01*
G75*
G02*
X47550000Y-139235000I0J140000D01*
G01*
G37*
G04 #@! TD.AperFunction*
G04 #@! TD*
G04 #@! TO.P,J1,1*
G04 #@! TO.N,Net-(C1-Pad2)*
X64000000Y-172000000D03*
G04 #@! TD*
G04 #@! TO.P,C3,2*
G04 #@! TO.N,Net-(C2-Pad1)*
G04 #@! TA.AperFunction,SMDPad,CuDef*
G36*
G01*
X53750000Y-159235000D02*
X53750000Y-157765000D01*
G75*
G02*
X53890000Y-157625000I140000J0D01*
G01*
X54310000Y-157625000D01*
G75*
G02*
X54450000Y-157765000I0J-140000D01*
G01*
X54450000Y-159235000D01*
G75*
G02*
X54310000Y-159375000I-140000J0D01*
G01*
X53890000Y-159375000D01*
G75*
G02*
X53750000Y-159235000I0J140000D01*
G01*
G37*
G04 #@! TD.AperFunction*
G04 #@! TO.P,C3,1*
G04 #@! TO.N,Net-(C3-Pad1)*
G04 #@! TA.AperFunction,SMDPad,CuDef*
G36*
G01*
X50950000Y-159235000D02*
X50950000Y-157765000D01*
G75*
G02*
X51090000Y-157625000I140000J0D01*
G01*
X51510000Y-157625000D01*
G75*
G02*
X51650000Y-157765000I0J-140000D01*
G01*
X51650000Y-159235000D01*
G75*
G02*
X51510000Y-159375000I-140000J0D01*
G01*
X51090000Y-159375000D01*
G75*
G02*
X50950000Y-159235000I0J140000D01*
G01*
G37*
G04 #@! TD.AperFunction*
G04 #@! TD*
G04 #@! TO.P,J3,1*
G04 #@! TO.N,GND*
G04 #@! TA.AperFunction,SMDPad,CuDef*
G36*
G01*
X41600000Y-148875000D02*
X41600000Y-150125000D01*
G75*
G02*
X40975000Y-150750000I-625000J0D01*
G01*
X39225000Y-150750000D01*
G75*
G02*
X38600000Y-150125000I0J625000D01*
G01*
X38600000Y-148875000D01*
G75*
G02*
X39225000Y-148250000I625000J0D01*
G01*
X40975000Y-148250000D01*
G75*
G02*
X41600000Y-148875000I0J-625000D01*
G01*
G37*
G04 #@! TD.AperFunction*
G04 #@! TD*
G04 #@! TO.P,R3,2*
G04 #@! TO.N,Net-(C2-Pad1)*
G04 #@! TA.AperFunction,SMDPad,CuDef*
G36*
G01*
X53750000Y-141435000D02*
X53750000Y-139965000D01*
G75*
G02*
X53890000Y-139825000I140000J0D01*
G01*
X54310000Y-139825000D01*
G75*
G02*
X54450000Y-139965000I0J-140000D01*
G01*
X54450000Y-141435000D01*
G75*
G02*
X54310000Y-141575000I-140000J0D01*
G01*
X53890000Y-141575000D01*
G75*
G02*
X53750000Y-141435000I0J140000D01*
G01*
G37*
G04 #@! TD.AperFunction*
G04 #@! TO.P,R3,1*
G04 #@! TO.N,Net-(C3-Pad1)*
G04 #@! TA.AperFunction,SMDPad,CuDef*
G36*
G01*
X50950000Y-141435000D02*
X50950000Y-139965000D01*
G75*
G02*
X51090000Y-139825000I140000J0D01*
G01*
X51510000Y-139825000D01*
G75*
G02*
X51650000Y-139965000I0J-140000D01*
G01*
X51650000Y-141435000D01*
G75*
G02*
X51510000Y-141575000I-140000J0D01*
G01*
X51090000Y-141575000D01*
G75*
G02*
X50950000Y-141435000I0J140000D01*
G01*
G37*
G04 #@! TD.AperFunction*
G04 #@! TD*
G04 #@! TO.P,R6,2*
G04 #@! TO.N,Net-(C5-Pad1)*
G04 #@! TA.AperFunction,SMDPad,CuDef*
G36*
G01*
X43350000Y-139056250D02*
X43350000Y-138543750D01*
G75*
G02*
X43568750Y-138325000I218750J0D01*
G01*
X44006250Y-138325000D01*
G75*
G02*
X44225000Y-138543750I0J-218750D01*
G01*
X44225000Y-139056250D01*
G75*
G02*
X44006250Y-139275000I-218750J0D01*
G01*
X43568750Y-139275000D01*
G75*
G02*
X43350000Y-139056250I0J218750D01*
G01*
G37*
G04 #@! TD.AperFunction*
G04 #@! TO.P,R6,1*
G04 #@! TO.N,GND*
G04 #@! TA.AperFunction,SMDPad,CuDef*
G36*
G01*
X41775000Y-139056250D02*
X41775000Y-138543750D01*
G75*
G02*
X41993750Y-138325000I218750J0D01*
G01*
X42431250Y-138325000D01*
G75*
G02*
X42650000Y-138543750I0J-218750D01*
G01*
X42650000Y-139056250D01*
G75*
G02*
X42431250Y-139275000I-218750J0D01*
G01*
X41993750Y-139275000D01*
G75*
G02*
X41775000Y-139056250I0J218750D01*
G01*
G37*
G04 #@! TD.AperFunction*
G04 #@! TD*
G04 #@! TO.P,R2,2*
G04 #@! TO.N,Net-(C1-Pad1)*
G04 #@! TA.AperFunction,SMDPad,CuDef*
G36*
G01*
X57150000Y-139235000D02*
X57150000Y-137765000D01*
G75*
G02*
X57290000Y-137625000I140000J0D01*
G01*
X57710000Y-137625000D01*
G75*
G02*
X57850000Y-137765000I0J-140000D01*
G01*
X57850000Y-139235000D01*
G75*
G02*
X57710000Y-139375000I-140000J0D01*
G01*
X57290000Y-139375000D01*
G75*
G02*
X57150000Y-139235000I0J140000D01*
G01*
G37*
G04 #@! TD.AperFunction*
G04 #@! TO.P,R2,1*
G04 #@! TO.N,Net-(C2-Pad1)*
G04 #@! TA.AperFunction,SMDPad,CuDef*
G36*
G01*
X54350000Y-139235000D02*
X54350000Y-137765000D01*
G75*
G02*
X54490000Y-137625000I140000J0D01*
G01*
X54910000Y-137625000D01*
G75*
G02*
X55050000Y-137765000I0J-140000D01*
G01*
X55050000Y-139235000D01*
G75*
G02*
X54910000Y-139375000I-140000J0D01*
G01*
X54490000Y-139375000D01*
G75*
G02*
X54350000Y-139235000I0J140000D01*
G01*
G37*
G04 #@! TD.AperFunction*
G04 #@! TD*
G04 #@! TO.P,J3,1*
G04 #@! TO.N,GND*
G04 #@! TA.AperFunction,SMDPad,CuDef*
G36*
G01*
X41600000Y-168875000D02*
X41600000Y-170125000D01*
G75*
G02*
X40975000Y-170750000I-625000J0D01*
G01*
X39225000Y-170750000D01*
G75*
G02*
X38600000Y-170125000I0J625000D01*
G01*
X38600000Y-168875000D01*
G75*
G02*
X39225000Y-168250000I625000J0D01*
G01*
X40975000Y-168250000D01*
G75*
G02*
X41600000Y-168875000I0J-625000D01*
G01*
G37*
G04 #@! TD.AperFunction*
G04 #@! TD*
G04 #@! TO.P,C5,2*
G04 #@! TO.N,Net-(C4-Pad1)*
G04 #@! TA.AperFunction,SMDPad,CuDef*
G36*
G01*
X46950000Y-159235000D02*
X46950000Y-157765000D01*
G75*
G02*
X47090000Y-157625000I140000J0D01*
G01*
X47510000Y-157625000D01*
G75*
G02*
X47650000Y-157765000I0J-140000D01*
G01*
X47650000Y-159235000D01*
G75*
G02*
X47510000Y-159375000I-140000J0D01*
G01*
X47090000Y-159375000D01*
G75*
G02*
X46950000Y-159235000I0J140000D01*
G01*
G37*
G04 #@! TD.AperFunction*
G04 #@! TO.P,C5,1*
G04 #@! TO.N,Net-(C5-Pad1)*
G04 #@! TA.AperFunction,SMDPad,CuDef*
G36*
G01*
X44150000Y-159235000D02*
X44150000Y-157765000D01*
G75*
G02*
X44290000Y-157625000I140000J0D01*
G01*
X44710000Y-157625000D01*
G75*
G02*
X44850000Y-157765000I0J-140000D01*
G01*
X44850000Y-159235000D01*
G75*
G02*
X44710000Y-159375000I-140000J0D01*
G01*
X44290000Y-159375000D01*
G75*
G02*
X44150000Y-159235000I0J140000D01*
G01*
G37*
G04 #@! TD.AperFunction*
G04 #@! TD*
G04 #@! TO.P,J3,1*
G04 #@! TO.N,GND*
G04 #@! TA.AperFunction,SMDPad,CuDef*
G36*
G01*
X41600000Y-158875000D02*
X41600000Y-160125000D01*
G75*
G02*
X40975000Y-160750000I-625000J0D01*
G01*
X39225000Y-160750000D01*
G75*
G02*
X38600000Y-160125000I0J625000D01*
G01*
X38600000Y-158875000D01*
G75*
G02*
X39225000Y-158250000I625000J0D01*
G01*
X40975000Y-158250000D01*
G75*
G02*
X41600000Y-158875000I0J-625000D01*
G01*
G37*
G04 #@! TD.AperFunction*
G04 #@! TD*
G04 #@! TO.P,C1,1*
G04 #@! TO.N,Net-(C1-Pad1)*
G04 #@! TA.AperFunction,SMDPad,CuDef*
G36*
G01*
X57750000Y-131435000D02*
X57750000Y-129965000D01*
G75*
G02*
X57890000Y-129825000I140000J0D01*
G01*
X58310000Y-129825000D01*
G75*
G02*
X58450000Y-129965000I0J-140000D01*
G01*
X58450000Y-131435000D01*
G75*
G02*
X58310000Y-131575000I-140000J0D01*
G01*
X57890000Y-131575000D01*
G75*
G02*
X57750000Y-131435000I0J140000D01*
G01*
G37*
G04 #@! TD.AperFunction*
G04 #@! TO.P,C1,2*
G04 #@! TO.N,Net-(C1-Pad2)*
G04 #@! TA.AperFunction,SMDPad,CuDef*
G36*
G01*
X60550000Y-131435000D02*
X60550000Y-129965000D01*
G75*
G02*
X60690000Y-129825000I140000J0D01*
G01*
X61110000Y-129825000D01*
G75*
G02*
X61250000Y-129965000I0J-140000D01*
G01*
X61250000Y-131435000D01*
G75*
G02*
X61110000Y-131575000I-140000J0D01*
G01*
X60690000Y-131575000D01*
G75*
G02*
X60550000Y-131435000I0J140000D01*
G01*
G37*
G04 #@! TD.AperFunction*
G04 #@! TD*
G04 #@! TO.P,J1,1*
G04 #@! TO.N,Net-(C1-Pad2)*
X64000000Y-152000000D03*
G04 #@! TD*
G04 #@! TO.P,C3,2*
G04 #@! TO.N,Net-(C2-Pad1)*
G04 #@! TA.AperFunction,SMDPad,CuDef*
G36*
G01*
X53750000Y-139235000D02*
X53750000Y-137765000D01*
G75*
G02*
X53890000Y-137625000I140000J0D01*
G01*
X54310000Y-137625000D01*
G75*
G02*
X54450000Y-137765000I0J-140000D01*
G01*
X54450000Y-139235000D01*
G75*
G02*
X54310000Y-139375000I-140000J0D01*
G01*
X53890000Y-139375000D01*
G75*
G02*
X53750000Y-139235000I0J140000D01*
G01*
G37*
G04 #@! TD.AperFunction*
G04 #@! TO.P,C3,1*
G04 #@! TO.N,Net-(C3-Pad1)*
G04 #@! TA.AperFunction,SMDPad,CuDef*
G36*
G01*
X50950000Y-139235000D02*
X50950000Y-137765000D01*
G75*
G02*
X51090000Y-137625000I140000J0D01*
G01*
X51510000Y-137625000D01*
G75*
G02*
X51650000Y-137765000I0J-140000D01*
G01*
X51650000Y-139235000D01*
G75*
G02*
X51510000Y-139375000I-140000J0D01*
G01*
X51090000Y-139375000D01*
G75*
G02*
X50950000Y-139235000I0J140000D01*
G01*
G37*
G04 #@! TD.AperFunction*
G04 #@! TD*
G04 #@! TO.P,R3,1*
G04 #@! TO.N,Net-(C3-Pad1)*
G04 #@! TA.AperFunction,SMDPad,CuDef*
G36*
G01*
X50950000Y-171435000D02*
X50950000Y-169965000D01*
G75*
G02*
X51090000Y-169825000I140000J0D01*
G01*
X51510000Y-169825000D01*
G75*
G02*
X51650000Y-169965000I0J-140000D01*
G01*
X51650000Y-171435000D01*
G75*
G02*
X51510000Y-171575000I-140000J0D01*
G01*
X51090000Y-171575000D01*
G75*
G02*
X50950000Y-171435000I0J140000D01*
G01*
G37*
G04 #@! TD.AperFunction*
G04 #@! TO.P,R3,2*
G04 #@! TO.N,Net-(C2-Pad1)*
G04 #@! TA.AperFunction,SMDPad,CuDef*
G36*
G01*
X53750000Y-171435000D02*
X53750000Y-169965000D01*
G75*
G02*
X53890000Y-169825000I140000J0D01*
G01*
X54310000Y-169825000D01*
G75*
G02*
X54450000Y-169965000I0J-140000D01*
G01*
X54450000Y-171435000D01*
G75*
G02*
X54310000Y-171575000I-140000J0D01*
G01*
X53890000Y-171575000D01*
G75*
G02*
X53750000Y-171435000I0J140000D01*
G01*
G37*
G04 #@! TD.AperFunction*
G04 #@! TD*
G04 #@! TO.P,C4,1*
G04 #@! TO.N,Net-(C4-Pad1)*
G04 #@! TA.AperFunction,SMDPad,CuDef*
G36*
G01*
X47550000Y-169235000D02*
X47550000Y-167765000D01*
G75*
G02*
X47690000Y-167625000I140000J0D01*
G01*
X48110000Y-167625000D01*
G75*
G02*
X48250000Y-167765000I0J-140000D01*
G01*
X48250000Y-169235000D01*
G75*
G02*
X48110000Y-169375000I-140000J0D01*
G01*
X47690000Y-169375000D01*
G75*
G02*
X47550000Y-169235000I0J140000D01*
G01*
G37*
G04 #@! TD.AperFunction*
G04 #@! TO.P,C4,2*
G04 #@! TO.N,Net-(C3-Pad1)*
G04 #@! TA.AperFunction,SMDPad,CuDef*
G36*
G01*
X50350000Y-169235000D02*
X50350000Y-167765000D01*
G75*
G02*
X50490000Y-167625000I140000J0D01*
G01*
X50910000Y-167625000D01*
G75*
G02*
X51050000Y-167765000I0J-140000D01*
G01*
X51050000Y-169235000D01*
G75*
G02*
X50910000Y-169375000I-140000J0D01*
G01*
X50490000Y-169375000D01*
G75*
G02*
X50350000Y-169235000I0J140000D01*
G01*
G37*
G04 #@! TD.AperFunction*
G04 #@! TD*
G04 #@! TO.P,R2,2*
G04 #@! TO.N,Net-(C1-Pad1)*
G04 #@! TA.AperFunction,SMDPad,CuDef*
G36*
G01*
X57150000Y-159235000D02*
X57150000Y-157765000D01*
G75*
G02*
X57290000Y-157625000I140000J0D01*
G01*
X57710000Y-157625000D01*
G75*
G02*
X57850000Y-157765000I0J-140000D01*
G01*
X57850000Y-159235000D01*
G75*
G02*
X57710000Y-159375000I-140000J0D01*
G01*
X57290000Y-159375000D01*
G75*
G02*
X57150000Y-159235000I0J140000D01*
G01*
G37*
G04 #@! TD.AperFunction*
G04 #@! TO.P,R2,1*
G04 #@! TO.N,Net-(C2-Pad1)*
G04 #@! TA.AperFunction,SMDPad,CuDef*
G36*
G01*
X54350000Y-159235000D02*
X54350000Y-157765000D01*
G75*
G02*
X54490000Y-157625000I140000J0D01*
G01*
X54910000Y-157625000D01*
G75*
G02*
X55050000Y-157765000I0J-140000D01*
G01*
X55050000Y-159235000D01*
G75*
G02*
X54910000Y-159375000I-140000J0D01*
G01*
X54490000Y-159375000D01*
G75*
G02*
X54350000Y-159235000I0J140000D01*
G01*
G37*
G04 #@! TD.AperFunction*
G04 #@! TD*
G04 #@! TO.P,R4,1*
G04 #@! TO.N,Net-(C4-Pad1)*
G04 #@! TA.AperFunction,SMDPad,CuDef*
G36*
G01*
X47550000Y-171435000D02*
X47550000Y-169965000D01*
G75*
G02*
X47690000Y-169825000I140000J0D01*
G01*
X48110000Y-169825000D01*
G75*
G02*
X48250000Y-169965000I0J-140000D01*
G01*
X48250000Y-171435000D01*
G75*
G02*
X48110000Y-171575000I-140000J0D01*
G01*
X47690000Y-171575000D01*
G75*
G02*
X47550000Y-171435000I0J140000D01*
G01*
G37*
G04 #@! TD.AperFunction*
G04 #@! TO.P,R4,2*
G04 #@! TO.N,Net-(C3-Pad1)*
G04 #@! TA.AperFunction,SMDPad,CuDef*
G36*
G01*
X50350000Y-171435000D02*
X50350000Y-169965000D01*
G75*
G02*
X50490000Y-169825000I140000J0D01*
G01*
X50910000Y-169825000D01*
G75*
G02*
X51050000Y-169965000I0J-140000D01*
G01*
X51050000Y-171435000D01*
G75*
G02*
X50910000Y-171575000I-140000J0D01*
G01*
X50490000Y-171575000D01*
G75*
G02*
X50350000Y-171435000I0J140000D01*
G01*
G37*
G04 #@! TD.AperFunction*
G04 #@! TD*
G04 #@! TO.P,C1,2*
G04 #@! TO.N,Net-(C1-Pad2)*
G04 #@! TA.AperFunction,SMDPad,CuDef*
G36*
G01*
X60550000Y-161435000D02*
X60550000Y-159965000D01*
G75*
G02*
X60690000Y-159825000I140000J0D01*
G01*
X61110000Y-159825000D01*
G75*
G02*
X61250000Y-159965000I0J-140000D01*
G01*
X61250000Y-161435000D01*
G75*
G02*
X61110000Y-161575000I-140000J0D01*
G01*
X60690000Y-161575000D01*
G75*
G02*
X60550000Y-161435000I0J140000D01*
G01*
G37*
G04 #@! TD.AperFunction*
G04 #@! TO.P,C1,1*
G04 #@! TO.N,Net-(C1-Pad1)*
G04 #@! TA.AperFunction,SMDPad,CuDef*
G36*
G01*
X57750000Y-161435000D02*
X57750000Y-159965000D01*
G75*
G02*
X57890000Y-159825000I140000J0D01*
G01*
X58310000Y-159825000D01*
G75*
G02*
X58450000Y-159965000I0J-140000D01*
G01*
X58450000Y-161435000D01*
G75*
G02*
X58310000Y-161575000I-140000J0D01*
G01*
X57890000Y-161575000D01*
G75*
G02*
X57750000Y-161435000I0J140000D01*
G01*
G37*
G04 #@! TD.AperFunction*
G04 #@! TD*
G04 #@! TO.P,R4,1*
G04 #@! TO.N,Net-(C4-Pad1)*
G04 #@! TA.AperFunction,SMDPad,CuDef*
G36*
G01*
X47550000Y-131435000D02*
X47550000Y-129965000D01*
G75*
G02*
X47690000Y-129825000I140000J0D01*
G01*
X48110000Y-129825000D01*
G75*
G02*
X48250000Y-129965000I0J-140000D01*
G01*
X48250000Y-131435000D01*
G75*
G02*
X48110000Y-131575000I-140000J0D01*
G01*
X47690000Y-131575000D01*
G75*
G02*
X47550000Y-131435000I0J140000D01*
G01*
G37*
G04 #@! TD.AperFunction*
G04 #@! TO.P,R4,2*
G04 #@! TO.N,Net-(C3-Pad1)*
G04 #@! TA.AperFunction,SMDPad,CuDef*
G36*
G01*
X50350000Y-131435000D02*
X50350000Y-129965000D01*
G75*
G02*
X50490000Y-129825000I140000J0D01*
G01*
X50910000Y-129825000D01*
G75*
G02*
X51050000Y-129965000I0J-140000D01*
G01*
X51050000Y-131435000D01*
G75*
G02*
X50910000Y-131575000I-140000J0D01*
G01*
X50490000Y-131575000D01*
G75*
G02*
X50350000Y-131435000I0J140000D01*
G01*
G37*
G04 #@! TD.AperFunction*
G04 #@! TD*
G04 #@! TO.P,C1,2*
G04 #@! TO.N,Net-(C1-Pad2)*
G04 #@! TA.AperFunction,SMDPad,CuDef*
G36*
G01*
X60550000Y-141435000D02*
X60550000Y-139965000D01*
G75*
G02*
X60690000Y-139825000I140000J0D01*
G01*
X61110000Y-139825000D01*
G75*
G02*
X61250000Y-139965000I0J-140000D01*
G01*
X61250000Y-141435000D01*
G75*
G02*
X61110000Y-141575000I-140000J0D01*
G01*
X60690000Y-141575000D01*
G75*
G02*
X60550000Y-141435000I0J140000D01*
G01*
G37*
G04 #@! TD.AperFunction*
G04 #@! TO.P,C1,1*
G04 #@! TO.N,Net-(C1-Pad1)*
G04 #@! TA.AperFunction,SMDPad,CuDef*
G36*
G01*
X57750000Y-141435000D02*
X57750000Y-139965000D01*
G75*
G02*
X57890000Y-139825000I140000J0D01*
G01*
X58310000Y-139825000D01*
G75*
G02*
X58450000Y-139965000I0J-140000D01*
G01*
X58450000Y-141435000D01*
G75*
G02*
X58310000Y-141575000I-140000J0D01*
G01*
X57890000Y-141575000D01*
G75*
G02*
X57750000Y-141435000I0J140000D01*
G01*
G37*
G04 #@! TD.AperFunction*
G04 #@! TD*
G04 #@! TO.P,R3,1*
G04 #@! TO.N,Net-(C3-Pad1)*
G04 #@! TA.AperFunction,SMDPad,CuDef*
G36*
G01*
X50950000Y-131435000D02*
X50950000Y-129965000D01*
G75*
G02*
X51090000Y-129825000I140000J0D01*
G01*
X51510000Y-129825000D01*
G75*
G02*
X51650000Y-129965000I0J-140000D01*
G01*
X51650000Y-131435000D01*
G75*
G02*
X51510000Y-131575000I-140000J0D01*
G01*
X51090000Y-131575000D01*
G75*
G02*
X50950000Y-131435000I0J140000D01*
G01*
G37*
G04 #@! TD.AperFunction*
G04 #@! TO.P,R3,2*
G04 #@! TO.N,Net-(C2-Pad1)*
G04 #@! TA.AperFunction,SMDPad,CuDef*
G36*
G01*
X53750000Y-131435000D02*
X53750000Y-129965000D01*
G75*
G02*
X53890000Y-129825000I140000J0D01*
G01*
X54310000Y-129825000D01*
G75*
G02*
X54450000Y-129965000I0J-140000D01*
G01*
X54450000Y-131435000D01*
G75*
G02*
X54310000Y-131575000I-140000J0D01*
G01*
X53890000Y-131575000D01*
G75*
G02*
X53750000Y-131435000I0J140000D01*
G01*
G37*
G04 #@! TD.AperFunction*
G04 #@! TD*
G04 #@! TO.P,R1,2*
G04 #@! TO.N,Net-(C1-Pad2)*
G04 #@! TA.AperFunction,SMDPad,CuDef*
G36*
G01*
X60550000Y-139235000D02*
X60550000Y-137765000D01*
G75*
G02*
X60690000Y-137625000I140000J0D01*
G01*
X61110000Y-137625000D01*
G75*
G02*
X61250000Y-137765000I0J-140000D01*
G01*
X61250000Y-139235000D01*
G75*
G02*
X61110000Y-139375000I-140000J0D01*
G01*
X60690000Y-139375000D01*
G75*
G02*
X60550000Y-139235000I0J140000D01*
G01*
G37*
G04 #@! TD.AperFunction*
G04 #@! TO.P,R1,1*
G04 #@! TO.N,Net-(C1-Pad1)*
G04 #@! TA.AperFunction,SMDPad,CuDef*
G36*
G01*
X57750000Y-139235000D02*
X57750000Y-137765000D01*
G75*
G02*
X57890000Y-137625000I140000J0D01*
G01*
X58310000Y-137625000D01*
G75*
G02*
X58450000Y-137765000I0J-140000D01*
G01*
X58450000Y-139235000D01*
G75*
G02*
X58310000Y-139375000I-140000J0D01*
G01*
X57890000Y-139375000D01*
G75*
G02*
X57750000Y-139235000I0J140000D01*
G01*
G37*
G04 #@! TD.AperFunction*
G04 #@! TD*
G04 #@! TO.P,R5,1*
G04 #@! TO.N,Net-(C5-Pad1)*
G04 #@! TA.AperFunction,SMDPad,CuDef*
G36*
G01*
X44150000Y-171435000D02*
X44150000Y-169965000D01*
G75*
G02*
X44290000Y-169825000I140000J0D01*
G01*
X44710000Y-169825000D01*
G75*
G02*
X44850000Y-169965000I0J-140000D01*
G01*
X44850000Y-171435000D01*
G75*
G02*
X44710000Y-171575000I-140000J0D01*
G01*
X44290000Y-171575000D01*
G75*
G02*
X44150000Y-171435000I0J140000D01*
G01*
G37*
G04 #@! TD.AperFunction*
G04 #@! TO.P,R5,2*
G04 #@! TO.N,Net-(C4-Pad1)*
G04 #@! TA.AperFunction,SMDPad,CuDef*
G36*
G01*
X46950000Y-171435000D02*
X46950000Y-169965000D01*
G75*
G02*
X47090000Y-169825000I140000J0D01*
G01*
X47510000Y-169825000D01*
G75*
G02*
X47650000Y-169965000I0J-140000D01*
G01*
X47650000Y-171435000D01*
G75*
G02*
X47510000Y-171575000I-140000J0D01*
G01*
X47090000Y-171575000D01*
G75*
G02*
X46950000Y-171435000I0J140000D01*
G01*
G37*
G04 #@! TD.AperFunction*
G04 #@! TD*
G04 #@! TO.P,R6,1*
G04 #@! TO.N,GND*
G04 #@! TA.AperFunction,SMDPad,CuDef*
G36*
G01*
X41775000Y-169056250D02*
X41775000Y-168543750D01*
G75*
G02*
X41993750Y-168325000I218750J0D01*
G01*
X42431250Y-168325000D01*
G75*
G02*
X42650000Y-168543750I0J-218750D01*
G01*
X42650000Y-169056250D01*
G75*
G02*
X42431250Y-169275000I-218750J0D01*
G01*
X41993750Y-169275000D01*
G75*
G02*
X41775000Y-169056250I0J218750D01*
G01*
G37*
G04 #@! TD.AperFunction*
G04 #@! TO.P,R6,2*
G04 #@! TO.N,Net-(C5-Pad1)*
G04 #@! TA.AperFunction,SMDPad,CuDef*
G36*
G01*
X43350000Y-169056250D02*
X43350000Y-168543750D01*
G75*
G02*
X43568750Y-168325000I218750J0D01*
G01*
X44006250Y-168325000D01*
G75*
G02*
X44225000Y-168543750I0J-218750D01*
G01*
X44225000Y-169056250D01*
G75*
G02*
X44006250Y-169275000I-218750J0D01*
G01*
X43568750Y-169275000D01*
G75*
G02*
X43350000Y-169056250I0J218750D01*
G01*
G37*
G04 #@! TD.AperFunction*
G04 #@! TD*
G04 #@! TO.P,C2,2*
G04 #@! TO.N,Net-(C1-Pad1)*
G04 #@! TA.AperFunction,SMDPad,CuDef*
G36*
G01*
X57150000Y-141435000D02*
X57150000Y-139965000D01*
G75*
G02*
X57290000Y-139825000I140000J0D01*
G01*
X57710000Y-139825000D01*
G75*
G02*
X57850000Y-139965000I0J-140000D01*
G01*
X57850000Y-141435000D01*
G75*
G02*
X57710000Y-141575000I-140000J0D01*
G01*
X57290000Y-141575000D01*
G75*
G02*
X57150000Y-141435000I0J140000D01*
G01*
G37*
G04 #@! TD.AperFunction*
G04 #@! TO.P,C2,1*
G04 #@! TO.N,Net-(C2-Pad1)*
G04 #@! TA.AperFunction,SMDPad,CuDef*
G36*
G01*
X54350000Y-141435000D02*
X54350000Y-139965000D01*
G75*
G02*
X54490000Y-139825000I140000J0D01*
G01*
X54910000Y-139825000D01*
G75*
G02*
X55050000Y-139965000I0J-140000D01*
G01*
X55050000Y-141435000D01*
G75*
G02*
X54910000Y-141575000I-140000J0D01*
G01*
X54490000Y-141575000D01*
G75*
G02*
X54350000Y-141435000I0J140000D01*
G01*
G37*
G04 #@! TD.AperFunction*
G04 #@! TD*
G04 #@! TO.P,C2,1*
G04 #@! TO.N,Net-(C2-Pad1)*
G04 #@! TA.AperFunction,SMDPad,CuDef*
G36*
G01*
X54350000Y-171435000D02*
X54350000Y-169965000D01*
G75*
G02*
X54490000Y-169825000I140000J0D01*
G01*
X54910000Y-169825000D01*
G75*
G02*
X55050000Y-169965000I0J-140000D01*
G01*
X55050000Y-171435000D01*
G75*
G02*
X54910000Y-171575000I-140000J0D01*
G01*
X54490000Y-171575000D01*
G75*
G02*
X54350000Y-171435000I0J140000D01*
G01*
G37*
G04 #@! TD.AperFunction*
G04 #@! TO.P,C2,2*
G04 #@! TO.N,Net-(C1-Pad1)*
G04 #@! TA.AperFunction,SMDPad,CuDef*
G36*
G01*
X57150000Y-171435000D02*
X57150000Y-169965000D01*
G75*
G02*
X57290000Y-169825000I140000J0D01*
G01*
X57710000Y-169825000D01*
G75*
G02*
X57850000Y-169965000I0J-140000D01*
G01*
X57850000Y-171435000D01*
G75*
G02*
X57710000Y-171575000I-140000J0D01*
G01*
X57290000Y-171575000D01*
G75*
G02*
X57150000Y-171435000I0J140000D01*
G01*
G37*
G04 #@! TD.AperFunction*
G04 #@! TD*
G04 #@! TO.P,J1,1*
G04 #@! TO.N,Net-(C1-Pad2)*
X64000000Y-142000000D03*
G04 #@! TD*
G04 #@! TO.P,R4,2*
G04 #@! TO.N,Net-(C3-Pad1)*
G04 #@! TA.AperFunction,SMDPad,CuDef*
G36*
G01*
X50350000Y-161435000D02*
X50350000Y-159965000D01*
G75*
G02*
X50490000Y-159825000I140000J0D01*
G01*
X50910000Y-159825000D01*
G75*
G02*
X51050000Y-159965000I0J-140000D01*
G01*
X51050000Y-161435000D01*
G75*
G02*
X50910000Y-161575000I-140000J0D01*
G01*
X50490000Y-161575000D01*
G75*
G02*
X50350000Y-161435000I0J140000D01*
G01*
G37*
G04 #@! TD.AperFunction*
G04 #@! TO.P,R4,1*
G04 #@! TO.N,Net-(C4-Pad1)*
G04 #@! TA.AperFunction,SMDPad,CuDef*
G36*
G01*
X47550000Y-161435000D02*
X47550000Y-159965000D01*
G75*
G02*
X47690000Y-159825000I140000J0D01*
G01*
X48110000Y-159825000D01*
G75*
G02*
X48250000Y-159965000I0J-140000D01*
G01*
X48250000Y-161435000D01*
G75*
G02*
X48110000Y-161575000I-140000J0D01*
G01*
X47690000Y-161575000D01*
G75*
G02*
X47550000Y-161435000I0J140000D01*
G01*
G37*
G04 #@! TD.AperFunction*
G04 #@! TD*
G04 #@! TO.P,R5,2*
G04 #@! TO.N,Net-(C4-Pad1)*
G04 #@! TA.AperFunction,SMDPad,CuDef*
G36*
G01*
X46950000Y-161435000D02*
X46950000Y-159965000D01*
G75*
G02*
X47090000Y-159825000I140000J0D01*
G01*
X47510000Y-159825000D01*
G75*
G02*
X47650000Y-159965000I0J-140000D01*
G01*
X47650000Y-161435000D01*
G75*
G02*
X47510000Y-161575000I-140000J0D01*
G01*
X47090000Y-161575000D01*
G75*
G02*
X46950000Y-161435000I0J140000D01*
G01*
G37*
G04 #@! TD.AperFunction*
G04 #@! TO.P,R5,1*
G04 #@! TO.N,Net-(C5-Pad1)*
G04 #@! TA.AperFunction,SMDPad,CuDef*
G36*
G01*
X44150000Y-161435000D02*
X44150000Y-159965000D01*
G75*
G02*
X44290000Y-159825000I140000J0D01*
G01*
X44710000Y-159825000D01*
G75*
G02*
X44850000Y-159965000I0J-140000D01*
G01*
X44850000Y-161435000D01*
G75*
G02*
X44710000Y-161575000I-140000J0D01*
G01*
X44290000Y-161575000D01*
G75*
G02*
X44150000Y-161435000I0J140000D01*
G01*
G37*
G04 #@! TD.AperFunction*
G04 #@! TD*
G04 #@! TO.P,C6,2*
G04 #@! TO.N,Net-(C5-Pad1)*
G04 #@! TA.AperFunction,SMDPad,CuDef*
G36*
G01*
X43350000Y-160456250D02*
X43350000Y-159943750D01*
G75*
G02*
X43568750Y-159725000I218750J0D01*
G01*
X44006250Y-159725000D01*
G75*
G02*
X44225000Y-159943750I0J-218750D01*
G01*
X44225000Y-160456250D01*
G75*
G02*
X44006250Y-160675000I-218750J0D01*
G01*
X43568750Y-160675000D01*
G75*
G02*
X43350000Y-160456250I0J218750D01*
G01*
G37*
G04 #@! TD.AperFunction*
G04 #@! TO.P,C6,1*
G04 #@! TO.N,GND*
G04 #@! TA.AperFunction,SMDPad,CuDef*
G36*
G01*
X41775000Y-160456250D02*
X41775000Y-159943750D01*
G75*
G02*
X41993750Y-159725000I218750J0D01*
G01*
X42431250Y-159725000D01*
G75*
G02*
X42650000Y-159943750I0J-218750D01*
G01*
X42650000Y-160456250D01*
G75*
G02*
X42431250Y-160675000I-218750J0D01*
G01*
X41993750Y-160675000D01*
G75*
G02*
X41775000Y-160456250I0J218750D01*
G01*
G37*
G04 #@! TD.AperFunction*
G04 #@! TD*
G04 #@! TO.P,C1,1*
G04 #@! TO.N,Net-(C1-Pad1)*
G04 #@! TA.AperFunction,SMDPad,CuDef*
G36*
G01*
X57750000Y-151435000D02*
X57750000Y-149965000D01*
G75*
G02*
X57890000Y-149825000I140000J0D01*
G01*
X58310000Y-149825000D01*
G75*
G02*
X58450000Y-149965000I0J-140000D01*
G01*
X58450000Y-151435000D01*
G75*
G02*
X58310000Y-151575000I-140000J0D01*
G01*
X57890000Y-151575000D01*
G75*
G02*
X57750000Y-151435000I0J140000D01*
G01*
G37*
G04 #@! TD.AperFunction*
G04 #@! TO.P,C1,2*
G04 #@! TO.N,Net-(C1-Pad2)*
G04 #@! TA.AperFunction,SMDPad,CuDef*
G36*
G01*
X60550000Y-151435000D02*
X60550000Y-149965000D01*
G75*
G02*
X60690000Y-149825000I140000J0D01*
G01*
X61110000Y-149825000D01*
G75*
G02*
X61250000Y-149965000I0J-140000D01*
G01*
X61250000Y-151435000D01*
G75*
G02*
X61110000Y-151575000I-140000J0D01*
G01*
X60690000Y-151575000D01*
G75*
G02*
X60550000Y-151435000I0J140000D01*
G01*
G37*
G04 #@! TD.AperFunction*
G04 #@! TD*
G04 #@! TO.P,C5,1*
G04 #@! TO.N,Net-(C5-Pad1)*
G04 #@! TA.AperFunction,SMDPad,CuDef*
G36*
G01*
X44150000Y-149235000D02*
X44150000Y-147765000D01*
G75*
G02*
X44290000Y-147625000I140000J0D01*
G01*
X44710000Y-147625000D01*
G75*
G02*
X44850000Y-147765000I0J-140000D01*
G01*
X44850000Y-149235000D01*
G75*
G02*
X44710000Y-149375000I-140000J0D01*
G01*
X44290000Y-149375000D01*
G75*
G02*
X44150000Y-149235000I0J140000D01*
G01*
G37*
G04 #@! TD.AperFunction*
G04 #@! TO.P,C5,2*
G04 #@! TO.N,Net-(C4-Pad1)*
G04 #@! TA.AperFunction,SMDPad,CuDef*
G36*
G01*
X46950000Y-149235000D02*
X46950000Y-147765000D01*
G75*
G02*
X47090000Y-147625000I140000J0D01*
G01*
X47510000Y-147625000D01*
G75*
G02*
X47650000Y-147765000I0J-140000D01*
G01*
X47650000Y-149235000D01*
G75*
G02*
X47510000Y-149375000I-140000J0D01*
G01*
X47090000Y-149375000D01*
G75*
G02*
X46950000Y-149235000I0J140000D01*
G01*
G37*
G04 #@! TD.AperFunction*
G04 #@! TD*
G04 #@! TO.P,R4,1*
G04 #@! TO.N,Net-(C4-Pad1)*
G04 #@! TA.AperFunction,SMDPad,CuDef*
G36*
G01*
X47550000Y-151435000D02*
X47550000Y-149965000D01*
G75*
G02*
X47690000Y-149825000I140000J0D01*
G01*
X48110000Y-149825000D01*
G75*
G02*
X48250000Y-149965000I0J-140000D01*
G01*
X48250000Y-151435000D01*
G75*
G02*
X48110000Y-151575000I-140000J0D01*
G01*
X47690000Y-151575000D01*
G75*
G02*
X47550000Y-151435000I0J140000D01*
G01*
G37*
G04 #@! TD.AperFunction*
G04 #@! TO.P,R4,2*
G04 #@! TO.N,Net-(C3-Pad1)*
G04 #@! TA.AperFunction,SMDPad,CuDef*
G36*
G01*
X50350000Y-151435000D02*
X50350000Y-149965000D01*
G75*
G02*
X50490000Y-149825000I140000J0D01*
G01*
X50910000Y-149825000D01*
G75*
G02*
X51050000Y-149965000I0J-140000D01*
G01*
X51050000Y-151435000D01*
G75*
G02*
X50910000Y-151575000I-140000J0D01*
G01*
X50490000Y-151575000D01*
G75*
G02*
X50350000Y-151435000I0J140000D01*
G01*
G37*
G04 #@! TD.AperFunction*
G04 #@! TD*
G04 #@! TO.P,R5,1*
G04 #@! TO.N,Net-(C5-Pad1)*
G04 #@! TA.AperFunction,SMDPad,CuDef*
G36*
G01*
X44150000Y-151435000D02*
X44150000Y-149965000D01*
G75*
G02*
X44290000Y-149825000I140000J0D01*
G01*
X44710000Y-149825000D01*
G75*
G02*
X44850000Y-149965000I0J-140000D01*
G01*
X44850000Y-151435000D01*
G75*
G02*
X44710000Y-151575000I-140000J0D01*
G01*
X44290000Y-151575000D01*
G75*
G02*
X44150000Y-151435000I0J140000D01*
G01*
G37*
G04 #@! TD.AperFunction*
G04 #@! TO.P,R5,2*
G04 #@! TO.N,Net-(C4-Pad1)*
G04 #@! TA.AperFunction,SMDPad,CuDef*
G36*
G01*
X46950000Y-151435000D02*
X46950000Y-149965000D01*
G75*
G02*
X47090000Y-149825000I140000J0D01*
G01*
X47510000Y-149825000D01*
G75*
G02*
X47650000Y-149965000I0J-140000D01*
G01*
X47650000Y-151435000D01*
G75*
G02*
X47510000Y-151575000I-140000J0D01*
G01*
X47090000Y-151575000D01*
G75*
G02*
X46950000Y-151435000I0J140000D01*
G01*
G37*
G04 #@! TD.AperFunction*
G04 #@! TD*
G04 #@! TO.P,C6,1*
G04 #@! TO.N,GND*
G04 #@! TA.AperFunction,SMDPad,CuDef*
G36*
G01*
X41775000Y-150456250D02*
X41775000Y-149943750D01*
G75*
G02*
X41993750Y-149725000I218750J0D01*
G01*
X42431250Y-149725000D01*
G75*
G02*
X42650000Y-149943750I0J-218750D01*
G01*
X42650000Y-150456250D01*
G75*
G02*
X42431250Y-150675000I-218750J0D01*
G01*
X41993750Y-150675000D01*
G75*
G02*
X41775000Y-150456250I0J218750D01*
G01*
G37*
G04 #@! TD.AperFunction*
G04 #@! TO.P,C6,2*
G04 #@! TO.N,Net-(C5-Pad1)*
G04 #@! TA.AperFunction,SMDPad,CuDef*
G36*
G01*
X43350000Y-150456250D02*
X43350000Y-149943750D01*
G75*
G02*
X43568750Y-149725000I218750J0D01*
G01*
X44006250Y-149725000D01*
G75*
G02*
X44225000Y-149943750I0J-218750D01*
G01*
X44225000Y-150456250D01*
G75*
G02*
X44006250Y-150675000I-218750J0D01*
G01*
X43568750Y-150675000D01*
G75*
G02*
X43350000Y-150456250I0J218750D01*
G01*
G37*
G04 #@! TD.AperFunction*
G04 #@! TD*
G04 #@! TO.P,R2,1*
G04 #@! TO.N,Net-(C2-Pad1)*
G04 #@! TA.AperFunction,SMDPad,CuDef*
G36*
G01*
X54350000Y-149235000D02*
X54350000Y-147765000D01*
G75*
G02*
X54490000Y-147625000I140000J0D01*
G01*
X54910000Y-147625000D01*
G75*
G02*
X55050000Y-147765000I0J-140000D01*
G01*
X55050000Y-149235000D01*
G75*
G02*
X54910000Y-149375000I-140000J0D01*
G01*
X54490000Y-149375000D01*
G75*
G02*
X54350000Y-149235000I0J140000D01*
G01*
G37*
G04 #@! TD.AperFunction*
G04 #@! TO.P,R2,2*
G04 #@! TO.N,Net-(C1-Pad1)*
G04 #@! TA.AperFunction,SMDPad,CuDef*
G36*
G01*
X57150000Y-149235000D02*
X57150000Y-147765000D01*
G75*
G02*
X57290000Y-147625000I140000J0D01*
G01*
X57710000Y-147625000D01*
G75*
G02*
X57850000Y-147765000I0J-140000D01*
G01*
X57850000Y-149235000D01*
G75*
G02*
X57710000Y-149375000I-140000J0D01*
G01*
X57290000Y-149375000D01*
G75*
G02*
X57150000Y-149235000I0J140000D01*
G01*
G37*
G04 #@! TD.AperFunction*
G04 #@! TD*
G04 #@! TO.P,R3,1*
G04 #@! TO.N,Net-(C3-Pad1)*
G04 #@! TA.AperFunction,SMDPad,CuDef*
G36*
G01*
X50950000Y-151435000D02*
X50950000Y-149965000D01*
G75*
G02*
X51090000Y-149825000I140000J0D01*
G01*
X51510000Y-149825000D01*
G75*
G02*
X51650000Y-149965000I0J-140000D01*
G01*
X51650000Y-151435000D01*
G75*
G02*
X51510000Y-151575000I-140000J0D01*
G01*
X51090000Y-151575000D01*
G75*
G02*
X50950000Y-151435000I0J140000D01*
G01*
G37*
G04 #@! TD.AperFunction*
G04 #@! TO.P,R3,2*
G04 #@! TO.N,Net-(C2-Pad1)*
G04 #@! TA.AperFunction,SMDPad,CuDef*
G36*
G01*
X53750000Y-151435000D02*
X53750000Y-149965000D01*
G75*
G02*
X53890000Y-149825000I140000J0D01*
G01*
X54310000Y-149825000D01*
G75*
G02*
X54450000Y-149965000I0J-140000D01*
G01*
X54450000Y-151435000D01*
G75*
G02*
X54310000Y-151575000I-140000J0D01*
G01*
X53890000Y-151575000D01*
G75*
G02*
X53750000Y-151435000I0J140000D01*
G01*
G37*
G04 #@! TD.AperFunction*
G04 #@! TD*
G04 #@! TO.P,C3,1*
G04 #@! TO.N,Net-(C3-Pad1)*
G04 #@! TA.AperFunction,SMDPad,CuDef*
G36*
G01*
X50950000Y-149235000D02*
X50950000Y-147765000D01*
G75*
G02*
X51090000Y-147625000I140000J0D01*
G01*
X51510000Y-147625000D01*
G75*
G02*
X51650000Y-147765000I0J-140000D01*
G01*
X51650000Y-149235000D01*
G75*
G02*
X51510000Y-149375000I-140000J0D01*
G01*
X51090000Y-149375000D01*
G75*
G02*
X50950000Y-149235000I0J140000D01*
G01*
G37*
G04 #@! TD.AperFunction*
G04 #@! TO.P,C3,2*
G04 #@! TO.N,Net-(C2-Pad1)*
G04 #@! TA.AperFunction,SMDPad,CuDef*
G36*
G01*
X53750000Y-149235000D02*
X53750000Y-147765000D01*
G75*
G02*
X53890000Y-147625000I140000J0D01*
G01*
X54310000Y-147625000D01*
G75*
G02*
X54450000Y-147765000I0J-140000D01*
G01*
X54450000Y-149235000D01*
G75*
G02*
X54310000Y-149375000I-140000J0D01*
G01*
X53890000Y-149375000D01*
G75*
G02*
X53750000Y-149235000I0J140000D01*
G01*
G37*
G04 #@! TD.AperFunction*
G04 #@! TD*
G04 #@! TO.P,R1,1*
G04 #@! TO.N,Net-(C1-Pad1)*
G04 #@! TA.AperFunction,SMDPad,CuDef*
G36*
G01*
X57750000Y-149235000D02*
X57750000Y-147765000D01*
G75*
G02*
X57890000Y-147625000I140000J0D01*
G01*
X58310000Y-147625000D01*
G75*
G02*
X58450000Y-147765000I0J-140000D01*
G01*
X58450000Y-149235000D01*
G75*
G02*
X58310000Y-149375000I-140000J0D01*
G01*
X57890000Y-149375000D01*
G75*
G02*
X57750000Y-149235000I0J140000D01*
G01*
G37*
G04 #@! TD.AperFunction*
G04 #@! TO.P,R1,2*
G04 #@! TO.N,Net-(C1-Pad2)*
G04 #@! TA.AperFunction,SMDPad,CuDef*
G36*
G01*
X60550000Y-149235000D02*
X60550000Y-147765000D01*
G75*
G02*
X60690000Y-147625000I140000J0D01*
G01*
X61110000Y-147625000D01*
G75*
G02*
X61250000Y-147765000I0J-140000D01*
G01*
X61250000Y-149235000D01*
G75*
G02*
X61110000Y-149375000I-140000J0D01*
G01*
X60690000Y-149375000D01*
G75*
G02*
X60550000Y-149235000I0J140000D01*
G01*
G37*
G04 #@! TD.AperFunction*
G04 #@! TD*
G04 #@! TO.P,C2,1*
G04 #@! TO.N,Net-(C2-Pad1)*
G04 #@! TA.AperFunction,SMDPad,CuDef*
G36*
G01*
X54350000Y-151435000D02*
X54350000Y-149965000D01*
G75*
G02*
X54490000Y-149825000I140000J0D01*
G01*
X54910000Y-149825000D01*
G75*
G02*
X55050000Y-149965000I0J-140000D01*
G01*
X55050000Y-151435000D01*
G75*
G02*
X54910000Y-151575000I-140000J0D01*
G01*
X54490000Y-151575000D01*
G75*
G02*
X54350000Y-151435000I0J140000D01*
G01*
G37*
G04 #@! TD.AperFunction*
G04 #@! TO.P,C2,2*
G04 #@! TO.N,Net-(C1-Pad1)*
G04 #@! TA.AperFunction,SMDPad,CuDef*
G36*
G01*
X57150000Y-151435000D02*
X57150000Y-149965000D01*
G75*
G02*
X57290000Y-149825000I140000J0D01*
G01*
X57710000Y-149825000D01*
G75*
G02*
X57850000Y-149965000I0J-140000D01*
G01*
X57850000Y-151435000D01*
G75*
G02*
X57710000Y-151575000I-140000J0D01*
G01*
X57290000Y-151575000D01*
G75*
G02*
X57150000Y-151435000I0J140000D01*
G01*
G37*
G04 #@! TD.AperFunction*
G04 #@! TD*
G04 #@! TO.P,R6,1*
G04 #@! TO.N,GND*
G04 #@! TA.AperFunction,SMDPad,CuDef*
G36*
G01*
X41775000Y-149056250D02*
X41775000Y-148543750D01*
G75*
G02*
X41993750Y-148325000I218750J0D01*
G01*
X42431250Y-148325000D01*
G75*
G02*
X42650000Y-148543750I0J-218750D01*
G01*
X42650000Y-149056250D01*
G75*
G02*
X42431250Y-149275000I-218750J0D01*
G01*
X41993750Y-149275000D01*
G75*
G02*
X41775000Y-149056250I0J218750D01*
G01*
G37*
G04 #@! TD.AperFunction*
G04 #@! TO.P,R6,2*
G04 #@! TO.N,Net-(C5-Pad1)*
G04 #@! TA.AperFunction,SMDPad,CuDef*
G36*
G01*
X43350000Y-149056250D02*
X43350000Y-148543750D01*
G75*
G02*
X43568750Y-148325000I218750J0D01*
G01*
X44006250Y-148325000D01*
G75*
G02*
X44225000Y-148543750I0J-218750D01*
G01*
X44225000Y-149056250D01*
G75*
G02*
X44006250Y-149275000I-218750J0D01*
G01*
X43568750Y-149275000D01*
G75*
G02*
X43350000Y-149056250I0J218750D01*
G01*
G37*
G04 #@! TD.AperFunction*
G04 #@! TD*
G04 #@! TO.P,C4,1*
G04 #@! TO.N,Net-(C4-Pad1)*
G04 #@! TA.AperFunction,SMDPad,CuDef*
G36*
G01*
X47550000Y-149235000D02*
X47550000Y-147765000D01*
G75*
G02*
X47690000Y-147625000I140000J0D01*
G01*
X48110000Y-147625000D01*
G75*
G02*
X48250000Y-147765000I0J-140000D01*
G01*
X48250000Y-149235000D01*
G75*
G02*
X48110000Y-149375000I-140000J0D01*
G01*
X47690000Y-149375000D01*
G75*
G02*
X47550000Y-149235000I0J140000D01*
G01*
G37*
G04 #@! TD.AperFunction*
G04 #@! TO.P,C4,2*
G04 #@! TO.N,Net-(C3-Pad1)*
G04 #@! TA.AperFunction,SMDPad,CuDef*
G36*
G01*
X50350000Y-149235000D02*
X50350000Y-147765000D01*
G75*
G02*
X50490000Y-147625000I140000J0D01*
G01*
X50910000Y-147625000D01*
G75*
G02*
X51050000Y-147765000I0J-140000D01*
G01*
X51050000Y-149235000D01*
G75*
G02*
X50910000Y-149375000I-140000J0D01*
G01*
X50490000Y-149375000D01*
G75*
G02*
X50350000Y-149235000I0J140000D01*
G01*
G37*
G04 #@! TD.AperFunction*
G04 #@! TD*
G04 #@! TO.P,R1,2*
G04 #@! TO.N,Net-(C1-Pad2)*
G04 #@! TA.AperFunction,SMDPad,CuDef*
G36*
G01*
X60550000Y-159235000D02*
X60550000Y-157765000D01*
G75*
G02*
X60690000Y-157625000I140000J0D01*
G01*
X61110000Y-157625000D01*
G75*
G02*
X61250000Y-157765000I0J-140000D01*
G01*
X61250000Y-159235000D01*
G75*
G02*
X61110000Y-159375000I-140000J0D01*
G01*
X60690000Y-159375000D01*
G75*
G02*
X60550000Y-159235000I0J140000D01*
G01*
G37*
G04 #@! TD.AperFunction*
G04 #@! TO.P,R1,1*
G04 #@! TO.N,Net-(C1-Pad1)*
G04 #@! TA.AperFunction,SMDPad,CuDef*
G36*
G01*
X57750000Y-159235000D02*
X57750000Y-157765000D01*
G75*
G02*
X57890000Y-157625000I140000J0D01*
G01*
X58310000Y-157625000D01*
G75*
G02*
X58450000Y-157765000I0J-140000D01*
G01*
X58450000Y-159235000D01*
G75*
G02*
X58310000Y-159375000I-140000J0D01*
G01*
X57890000Y-159375000D01*
G75*
G02*
X57750000Y-159235000I0J140000D01*
G01*
G37*
G04 #@! TD.AperFunction*
G04 #@! TD*
G04 #@! TO.P,R6,2*
G04 #@! TO.N,Net-(C5-Pad1)*
G04 #@! TA.AperFunction,SMDPad,CuDef*
G36*
G01*
X98150000Y-130443750D02*
X98150000Y-130956250D01*
G75*
G02*
X97931250Y-131175000I-218750J0D01*
G01*
X97493750Y-131175000D01*
G75*
G02*
X97275000Y-130956250I0J218750D01*
G01*
X97275000Y-130443750D01*
G75*
G02*
X97493750Y-130225000I218750J0D01*
G01*
X97931250Y-130225000D01*
G75*
G02*
X98150000Y-130443750I0J-218750D01*
G01*
G37*
G04 #@! TD.AperFunction*
G04 #@! TO.P,R6,1*
G04 #@! TO.N,GND*
G04 #@! TA.AperFunction,SMDPad,CuDef*
G36*
G01*
X99725000Y-130443750D02*
X99725000Y-130956250D01*
G75*
G02*
X99506250Y-131175000I-218750J0D01*
G01*
X99068750Y-131175000D01*
G75*
G02*
X98850000Y-130956250I0J218750D01*
G01*
X98850000Y-130443750D01*
G75*
G02*
X99068750Y-130225000I218750J0D01*
G01*
X99506250Y-130225000D01*
G75*
G02*
X99725000Y-130443750I0J-218750D01*
G01*
G37*
G04 #@! TD.AperFunction*
G04 #@! TD*
G04 #@! TO.P,C4,2*
G04 #@! TO.N,Net-(C3-Pad1)*
G04 #@! TA.AperFunction,SMDPad,CuDef*
G36*
G01*
X91150000Y-130265000D02*
X91150000Y-131735000D01*
G75*
G02*
X91010000Y-131875000I-140000J0D01*
G01*
X90590000Y-131875000D01*
G75*
G02*
X90450000Y-131735000I0J140000D01*
G01*
X90450000Y-130265000D01*
G75*
G02*
X90590000Y-130125000I140000J0D01*
G01*
X91010000Y-130125000D01*
G75*
G02*
X91150000Y-130265000I0J-140000D01*
G01*
G37*
G04 #@! TD.AperFunction*
G04 #@! TO.P,C4,1*
G04 #@! TO.N,Net-(C4-Pad1)*
G04 #@! TA.AperFunction,SMDPad,CuDef*
G36*
G01*
X93950000Y-130265000D02*
X93950000Y-131735000D01*
G75*
G02*
X93810000Y-131875000I-140000J0D01*
G01*
X93390000Y-131875000D01*
G75*
G02*
X93250000Y-131735000I0J140000D01*
G01*
X93250000Y-130265000D01*
G75*
G02*
X93390000Y-130125000I140000J0D01*
G01*
X93810000Y-130125000D01*
G75*
G02*
X93950000Y-130265000I0J-140000D01*
G01*
G37*
G04 #@! TD.AperFunction*
G04 #@! TD*
G04 #@! TO.P,J1,1*
G04 #@! TO.N,Net-(C1-Pad2)*
X77500000Y-127500000D03*
G04 #@! TD*
G04 #@! TO.P,R3,2*
G04 #@! TO.N,Net-(C2-Pad1)*
G04 #@! TA.AperFunction,SMDPad,CuDef*
G36*
G01*
X87750000Y-128065000D02*
X87750000Y-129535000D01*
G75*
G02*
X87610000Y-129675000I-140000J0D01*
G01*
X87190000Y-129675000D01*
G75*
G02*
X87050000Y-129535000I0J140000D01*
G01*
X87050000Y-128065000D01*
G75*
G02*
X87190000Y-127925000I140000J0D01*
G01*
X87610000Y-127925000D01*
G75*
G02*
X87750000Y-128065000I0J-140000D01*
G01*
G37*
G04 #@! TD.AperFunction*
G04 #@! TO.P,R3,1*
G04 #@! TO.N,Net-(C3-Pad1)*
G04 #@! TA.AperFunction,SMDPad,CuDef*
G36*
G01*
X90550000Y-128065000D02*
X90550000Y-129535000D01*
G75*
G02*
X90410000Y-129675000I-140000J0D01*
G01*
X89990000Y-129675000D01*
G75*
G02*
X89850000Y-129535000I0J140000D01*
G01*
X89850000Y-128065000D01*
G75*
G02*
X89990000Y-127925000I140000J0D01*
G01*
X90410000Y-127925000D01*
G75*
G02*
X90550000Y-128065000I0J-140000D01*
G01*
G37*
G04 #@! TD.AperFunction*
G04 #@! TD*
G04 #@! TO.P,C2,2*
G04 #@! TO.N,Net-(C1-Pad1)*
G04 #@! TA.AperFunction,SMDPad,CuDef*
G36*
G01*
X84350000Y-128065000D02*
X84350000Y-129535000D01*
G75*
G02*
X84210000Y-129675000I-140000J0D01*
G01*
X83790000Y-129675000D01*
G75*
G02*
X83650000Y-129535000I0J140000D01*
G01*
X83650000Y-128065000D01*
G75*
G02*
X83790000Y-127925000I140000J0D01*
G01*
X84210000Y-127925000D01*
G75*
G02*
X84350000Y-128065000I0J-140000D01*
G01*
G37*
G04 #@! TD.AperFunction*
G04 #@! TO.P,C2,1*
G04 #@! TO.N,Net-(C2-Pad1)*
G04 #@! TA.AperFunction,SMDPad,CuDef*
G36*
G01*
X87150000Y-128065000D02*
X87150000Y-129535000D01*
G75*
G02*
X87010000Y-129675000I-140000J0D01*
G01*
X86590000Y-129675000D01*
G75*
G02*
X86450000Y-129535000I0J140000D01*
G01*
X86450000Y-128065000D01*
G75*
G02*
X86590000Y-127925000I140000J0D01*
G01*
X87010000Y-127925000D01*
G75*
G02*
X87150000Y-128065000I0J-140000D01*
G01*
G37*
G04 #@! TD.AperFunction*
G04 #@! TD*
G04 #@! TO.P,C3,2*
G04 #@! TO.N,Net-(C2-Pad1)*
G04 #@! TA.AperFunction,SMDPad,CuDef*
G36*
G01*
X87750000Y-130265000D02*
X87750000Y-131735000D01*
G75*
G02*
X87610000Y-131875000I-140000J0D01*
G01*
X87190000Y-131875000D01*
G75*
G02*
X87050000Y-131735000I0J140000D01*
G01*
X87050000Y-130265000D01*
G75*
G02*
X87190000Y-130125000I140000J0D01*
G01*
X87610000Y-130125000D01*
G75*
G02*
X87750000Y-130265000I0J-140000D01*
G01*
G37*
G04 #@! TD.AperFunction*
G04 #@! TO.P,C3,1*
G04 #@! TO.N,Net-(C3-Pad1)*
G04 #@! TA.AperFunction,SMDPad,CuDef*
G36*
G01*
X90550000Y-130265000D02*
X90550000Y-131735000D01*
G75*
G02*
X90410000Y-131875000I-140000J0D01*
G01*
X89990000Y-131875000D01*
G75*
G02*
X89850000Y-131735000I0J140000D01*
G01*
X89850000Y-130265000D01*
G75*
G02*
X89990000Y-130125000I140000J0D01*
G01*
X90410000Y-130125000D01*
G75*
G02*
X90550000Y-130265000I0J-140000D01*
G01*
G37*
G04 #@! TD.AperFunction*
G04 #@! TD*
G04 #@! TO.P,C5,2*
G04 #@! TO.N,Net-(C4-Pad1)*
G04 #@! TA.AperFunction,SMDPad,CuDef*
G36*
G01*
X94550000Y-130265000D02*
X94550000Y-131735000D01*
G75*
G02*
X94410000Y-131875000I-140000J0D01*
G01*
X93990000Y-131875000D01*
G75*
G02*
X93850000Y-131735000I0J140000D01*
G01*
X93850000Y-130265000D01*
G75*
G02*
X93990000Y-130125000I140000J0D01*
G01*
X94410000Y-130125000D01*
G75*
G02*
X94550000Y-130265000I0J-140000D01*
G01*
G37*
G04 #@! TD.AperFunction*
G04 #@! TO.P,C5,1*
G04 #@! TO.N,Net-(C5-Pad1)*
G04 #@! TA.AperFunction,SMDPad,CuDef*
G36*
G01*
X97350000Y-130265000D02*
X97350000Y-131735000D01*
G75*
G02*
X97210000Y-131875000I-140000J0D01*
G01*
X96790000Y-131875000D01*
G75*
G02*
X96650000Y-131735000I0J140000D01*
G01*
X96650000Y-130265000D01*
G75*
G02*
X96790000Y-130125000I140000J0D01*
G01*
X97210000Y-130125000D01*
G75*
G02*
X97350000Y-130265000I0J-140000D01*
G01*
G37*
G04 #@! TD.AperFunction*
G04 #@! TD*
G04 #@! TO.P,J3,1*
G04 #@! TO.N,GND*
G04 #@! TA.AperFunction,SMDPad,CuDef*
G36*
G01*
X99900000Y-130625000D02*
X99900000Y-129375000D01*
G75*
G02*
X100525000Y-128750000I625000J0D01*
G01*
X102275000Y-128750000D01*
G75*
G02*
X102900000Y-129375000I0J-625000D01*
G01*
X102900000Y-130625000D01*
G75*
G02*
X102275000Y-131250000I-625000J0D01*
G01*
X100525000Y-131250000D01*
G75*
G02*
X99900000Y-130625000I0J625000D01*
G01*
G37*
G04 #@! TD.AperFunction*
G04 #@! TD*
G04 #@! TO.P,R2,2*
G04 #@! TO.N,Net-(C1-Pad1)*
G04 #@! TA.AperFunction,SMDPad,CuDef*
G36*
G01*
X84350000Y-130265000D02*
X84350000Y-131735000D01*
G75*
G02*
X84210000Y-131875000I-140000J0D01*
G01*
X83790000Y-131875000D01*
G75*
G02*
X83650000Y-131735000I0J140000D01*
G01*
X83650000Y-130265000D01*
G75*
G02*
X83790000Y-130125000I140000J0D01*
G01*
X84210000Y-130125000D01*
G75*
G02*
X84350000Y-130265000I0J-140000D01*
G01*
G37*
G04 #@! TD.AperFunction*
G04 #@! TO.P,R2,1*
G04 #@! TO.N,Net-(C2-Pad1)*
G04 #@! TA.AperFunction,SMDPad,CuDef*
G36*
G01*
X87150000Y-130265000D02*
X87150000Y-131735000D01*
G75*
G02*
X87010000Y-131875000I-140000J0D01*
G01*
X86590000Y-131875000D01*
G75*
G02*
X86450000Y-131735000I0J140000D01*
G01*
X86450000Y-130265000D01*
G75*
G02*
X86590000Y-130125000I140000J0D01*
G01*
X87010000Y-130125000D01*
G75*
G02*
X87150000Y-130265000I0J-140000D01*
G01*
G37*
G04 #@! TD.AperFunction*
G04 #@! TD*
G04 #@! TO.P,C1,2*
G04 #@! TO.N,Net-(C1-Pad2)*
G04 #@! TA.AperFunction,SMDPad,CuDef*
G36*
G01*
X80950000Y-128065000D02*
X80950000Y-129535000D01*
G75*
G02*
X80810000Y-129675000I-140000J0D01*
G01*
X80390000Y-129675000D01*
G75*
G02*
X80250000Y-129535000I0J140000D01*
G01*
X80250000Y-128065000D01*
G75*
G02*
X80390000Y-127925000I140000J0D01*
G01*
X80810000Y-127925000D01*
G75*
G02*
X80950000Y-128065000I0J-140000D01*
G01*
G37*
G04 #@! TD.AperFunction*
G04 #@! TO.P,C1,1*
G04 #@! TO.N,Net-(C1-Pad1)*
G04 #@! TA.AperFunction,SMDPad,CuDef*
G36*
G01*
X83750000Y-128065000D02*
X83750000Y-129535000D01*
G75*
G02*
X83610000Y-129675000I-140000J0D01*
G01*
X83190000Y-129675000D01*
G75*
G02*
X83050000Y-129535000I0J140000D01*
G01*
X83050000Y-128065000D01*
G75*
G02*
X83190000Y-127925000I140000J0D01*
G01*
X83610000Y-127925000D01*
G75*
G02*
X83750000Y-128065000I0J-140000D01*
G01*
G37*
G04 #@! TD.AperFunction*
G04 #@! TD*
G04 #@! TO.P,R4,2*
G04 #@! TO.N,Net-(C3-Pad1)*
G04 #@! TA.AperFunction,SMDPad,CuDef*
G36*
G01*
X91150000Y-128065000D02*
X91150000Y-129535000D01*
G75*
G02*
X91010000Y-129675000I-140000J0D01*
G01*
X90590000Y-129675000D01*
G75*
G02*
X90450000Y-129535000I0J140000D01*
G01*
X90450000Y-128065000D01*
G75*
G02*
X90590000Y-127925000I140000J0D01*
G01*
X91010000Y-127925000D01*
G75*
G02*
X91150000Y-128065000I0J-140000D01*
G01*
G37*
G04 #@! TD.AperFunction*
G04 #@! TO.P,R4,1*
G04 #@! TO.N,Net-(C4-Pad1)*
G04 #@! TA.AperFunction,SMDPad,CuDef*
G36*
G01*
X93950000Y-128065000D02*
X93950000Y-129535000D01*
G75*
G02*
X93810000Y-129675000I-140000J0D01*
G01*
X93390000Y-129675000D01*
G75*
G02*
X93250000Y-129535000I0J140000D01*
G01*
X93250000Y-128065000D01*
G75*
G02*
X93390000Y-127925000I140000J0D01*
G01*
X93810000Y-127925000D01*
G75*
G02*
X93950000Y-128065000I0J-140000D01*
G01*
G37*
G04 #@! TD.AperFunction*
G04 #@! TD*
G04 #@! TO.P,R5,2*
G04 #@! TO.N,Net-(C4-Pad1)*
G04 #@! TA.AperFunction,SMDPad,CuDef*
G36*
G01*
X94550000Y-128065000D02*
X94550000Y-129535000D01*
G75*
G02*
X94410000Y-129675000I-140000J0D01*
G01*
X93990000Y-129675000D01*
G75*
G02*
X93850000Y-129535000I0J140000D01*
G01*
X93850000Y-128065000D01*
G75*
G02*
X93990000Y-127925000I140000J0D01*
G01*
X94410000Y-127925000D01*
G75*
G02*
X94550000Y-128065000I0J-140000D01*
G01*
G37*
G04 #@! TD.AperFunction*
G04 #@! TO.P,R5,1*
G04 #@! TO.N,Net-(C5-Pad1)*
G04 #@! TA.AperFunction,SMDPad,CuDef*
G36*
G01*
X97350000Y-128065000D02*
X97350000Y-129535000D01*
G75*
G02*
X97210000Y-129675000I-140000J0D01*
G01*
X96790000Y-129675000D01*
G75*
G02*
X96650000Y-129535000I0J140000D01*
G01*
X96650000Y-128065000D01*
G75*
G02*
X96790000Y-127925000I140000J0D01*
G01*
X97210000Y-127925000D01*
G75*
G02*
X97350000Y-128065000I0J-140000D01*
G01*
G37*
G04 #@! TD.AperFunction*
G04 #@! TD*
G04 #@! TO.P,C6,2*
G04 #@! TO.N,Net-(C5-Pad1)*
G04 #@! TA.AperFunction,SMDPad,CuDef*
G36*
G01*
X98150000Y-129043750D02*
X98150000Y-129556250D01*
G75*
G02*
X97931250Y-129775000I-218750J0D01*
G01*
X97493750Y-129775000D01*
G75*
G02*
X97275000Y-129556250I0J218750D01*
G01*
X97275000Y-129043750D01*
G75*
G02*
X97493750Y-128825000I218750J0D01*
G01*
X97931250Y-128825000D01*
G75*
G02*
X98150000Y-129043750I0J-218750D01*
G01*
G37*
G04 #@! TD.AperFunction*
G04 #@! TO.P,C6,1*
G04 #@! TO.N,GND*
G04 #@! TA.AperFunction,SMDPad,CuDef*
G36*
G01*
X99725000Y-129043750D02*
X99725000Y-129556250D01*
G75*
G02*
X99506250Y-129775000I-218750J0D01*
G01*
X99068750Y-129775000D01*
G75*
G02*
X98850000Y-129556250I0J218750D01*
G01*
X98850000Y-129043750D01*
G75*
G02*
X99068750Y-128825000I218750J0D01*
G01*
X99506250Y-128825000D01*
G75*
G02*
X99725000Y-129043750I0J-218750D01*
G01*
G37*
G04 #@! TD.AperFunction*
G04 #@! TD*
G04 #@! TO.P,R1,2*
G04 #@! TO.N,Net-(C1-Pad2)*
G04 #@! TA.AperFunction,SMDPad,CuDef*
G36*
G01*
X80950000Y-130265000D02*
X80950000Y-131735000D01*
G75*
G02*
X80810000Y-131875000I-140000J0D01*
G01*
X80390000Y-131875000D01*
G75*
G02*
X80250000Y-131735000I0J140000D01*
G01*
X80250000Y-130265000D01*
G75*
G02*
X80390000Y-130125000I140000J0D01*
G01*
X80810000Y-130125000D01*
G75*
G02*
X80950000Y-130265000I0J-140000D01*
G01*
G37*
G04 #@! TD.AperFunction*
G04 #@! TO.P,R1,1*
G04 #@! TO.N,Net-(C1-Pad1)*
G04 #@! TA.AperFunction,SMDPad,CuDef*
G36*
G01*
X83750000Y-130265000D02*
X83750000Y-131735000D01*
G75*
G02*
X83610000Y-131875000I-140000J0D01*
G01*
X83190000Y-131875000D01*
G75*
G02*
X83050000Y-131735000I0J140000D01*
G01*
X83050000Y-130265000D01*
G75*
G02*
X83190000Y-130125000I140000J0D01*
G01*
X83610000Y-130125000D01*
G75*
G02*
X83750000Y-130265000I0J-140000D01*
G01*
G37*
G04 #@! TD.AperFunction*
G04 #@! TD*
G04 #@! TO.P,J3,1*
G04 #@! TO.N,GND*
G04 #@! TA.AperFunction,SMDPad,CuDef*
G36*
G01*
X99900000Y-140625000D02*
X99900000Y-139375000D01*
G75*
G02*
X100525000Y-138750000I625000J0D01*
G01*
X102275000Y-138750000D01*
G75*
G02*
X102900000Y-139375000I0J-625000D01*
G01*
X102900000Y-140625000D01*
G75*
G02*
X102275000Y-141250000I-625000J0D01*
G01*
X100525000Y-141250000D01*
G75*
G02*
X99900000Y-140625000I0J625000D01*
G01*
G37*
G04 #@! TD.AperFunction*
G04 #@! TD*
G04 #@! TO.P,J1,1*
G04 #@! TO.N,Net-(C1-Pad2)*
X77500000Y-137500000D03*
G04 #@! TD*
G04 #@! TO.P,C1,1*
G04 #@! TO.N,Net-(C1-Pad1)*
G04 #@! TA.AperFunction,SMDPad,CuDef*
G36*
G01*
X83750000Y-138065000D02*
X83750000Y-139535000D01*
G75*
G02*
X83610000Y-139675000I-140000J0D01*
G01*
X83190000Y-139675000D01*
G75*
G02*
X83050000Y-139535000I0J140000D01*
G01*
X83050000Y-138065000D01*
G75*
G02*
X83190000Y-137925000I140000J0D01*
G01*
X83610000Y-137925000D01*
G75*
G02*
X83750000Y-138065000I0J-140000D01*
G01*
G37*
G04 #@! TD.AperFunction*
G04 #@! TO.P,C1,2*
G04 #@! TO.N,Net-(C1-Pad2)*
G04 #@! TA.AperFunction,SMDPad,CuDef*
G36*
G01*
X80950000Y-138065000D02*
X80950000Y-139535000D01*
G75*
G02*
X80810000Y-139675000I-140000J0D01*
G01*
X80390000Y-139675000D01*
G75*
G02*
X80250000Y-139535000I0J140000D01*
G01*
X80250000Y-138065000D01*
G75*
G02*
X80390000Y-137925000I140000J0D01*
G01*
X80810000Y-137925000D01*
G75*
G02*
X80950000Y-138065000I0J-140000D01*
G01*
G37*
G04 #@! TD.AperFunction*
G04 #@! TD*
G04 #@! TO.P,C5,1*
G04 #@! TO.N,Net-(C5-Pad1)*
G04 #@! TA.AperFunction,SMDPad,CuDef*
G36*
G01*
X97350000Y-140265000D02*
X97350000Y-141735000D01*
G75*
G02*
X97210000Y-141875000I-140000J0D01*
G01*
X96790000Y-141875000D01*
G75*
G02*
X96650000Y-141735000I0J140000D01*
G01*
X96650000Y-140265000D01*
G75*
G02*
X96790000Y-140125000I140000J0D01*
G01*
X97210000Y-140125000D01*
G75*
G02*
X97350000Y-140265000I0J-140000D01*
G01*
G37*
G04 #@! TD.AperFunction*
G04 #@! TO.P,C5,2*
G04 #@! TO.N,Net-(C4-Pad1)*
G04 #@! TA.AperFunction,SMDPad,CuDef*
G36*
G01*
X94550000Y-140265000D02*
X94550000Y-141735000D01*
G75*
G02*
X94410000Y-141875000I-140000J0D01*
G01*
X93990000Y-141875000D01*
G75*
G02*
X93850000Y-141735000I0J140000D01*
G01*
X93850000Y-140265000D01*
G75*
G02*
X93990000Y-140125000I140000J0D01*
G01*
X94410000Y-140125000D01*
G75*
G02*
X94550000Y-140265000I0J-140000D01*
G01*
G37*
G04 #@! TD.AperFunction*
G04 #@! TD*
G04 #@! TO.P,R4,1*
G04 #@! TO.N,Net-(C4-Pad1)*
G04 #@! TA.AperFunction,SMDPad,CuDef*
G36*
G01*
X93950000Y-138065000D02*
X93950000Y-139535000D01*
G75*
G02*
X93810000Y-139675000I-140000J0D01*
G01*
X93390000Y-139675000D01*
G75*
G02*
X93250000Y-139535000I0J140000D01*
G01*
X93250000Y-138065000D01*
G75*
G02*
X93390000Y-137925000I140000J0D01*
G01*
X93810000Y-137925000D01*
G75*
G02*
X93950000Y-138065000I0J-140000D01*
G01*
G37*
G04 #@! TD.AperFunction*
G04 #@! TO.P,R4,2*
G04 #@! TO.N,Net-(C3-Pad1)*
G04 #@! TA.AperFunction,SMDPad,CuDef*
G36*
G01*
X91150000Y-138065000D02*
X91150000Y-139535000D01*
G75*
G02*
X91010000Y-139675000I-140000J0D01*
G01*
X90590000Y-139675000D01*
G75*
G02*
X90450000Y-139535000I0J140000D01*
G01*
X90450000Y-138065000D01*
G75*
G02*
X90590000Y-137925000I140000J0D01*
G01*
X91010000Y-137925000D01*
G75*
G02*
X91150000Y-138065000I0J-140000D01*
G01*
G37*
G04 #@! TD.AperFunction*
G04 #@! TD*
G04 #@! TO.P,R5,1*
G04 #@! TO.N,Net-(C5-Pad1)*
G04 #@! TA.AperFunction,SMDPad,CuDef*
G36*
G01*
X97350000Y-138065000D02*
X97350000Y-139535000D01*
G75*
G02*
X97210000Y-139675000I-140000J0D01*
G01*
X96790000Y-139675000D01*
G75*
G02*
X96650000Y-139535000I0J140000D01*
G01*
X96650000Y-138065000D01*
G75*
G02*
X96790000Y-137925000I140000J0D01*
G01*
X97210000Y-137925000D01*
G75*
G02*
X97350000Y-138065000I0J-140000D01*
G01*
G37*
G04 #@! TD.AperFunction*
G04 #@! TO.P,R5,2*
G04 #@! TO.N,Net-(C4-Pad1)*
G04 #@! TA.AperFunction,SMDPad,CuDef*
G36*
G01*
X94550000Y-138065000D02*
X94550000Y-139535000D01*
G75*
G02*
X94410000Y-139675000I-140000J0D01*
G01*
X93990000Y-139675000D01*
G75*
G02*
X93850000Y-139535000I0J140000D01*
G01*
X93850000Y-138065000D01*
G75*
G02*
X93990000Y-137925000I140000J0D01*
G01*
X94410000Y-137925000D01*
G75*
G02*
X94550000Y-138065000I0J-140000D01*
G01*
G37*
G04 #@! TD.AperFunction*
G04 #@! TD*
G04 #@! TO.P,C6,1*
G04 #@! TO.N,GND*
G04 #@! TA.AperFunction,SMDPad,CuDef*
G36*
G01*
X99725000Y-139043750D02*
X99725000Y-139556250D01*
G75*
G02*
X99506250Y-139775000I-218750J0D01*
G01*
X99068750Y-139775000D01*
G75*
G02*
X98850000Y-139556250I0J218750D01*
G01*
X98850000Y-139043750D01*
G75*
G02*
X99068750Y-138825000I218750J0D01*
G01*
X99506250Y-138825000D01*
G75*
G02*
X99725000Y-139043750I0J-218750D01*
G01*
G37*
G04 #@! TD.AperFunction*
G04 #@! TO.P,C6,2*
G04 #@! TO.N,Net-(C5-Pad1)*
G04 #@! TA.AperFunction,SMDPad,CuDef*
G36*
G01*
X98150000Y-139043750D02*
X98150000Y-139556250D01*
G75*
G02*
X97931250Y-139775000I-218750J0D01*
G01*
X97493750Y-139775000D01*
G75*
G02*
X97275000Y-139556250I0J218750D01*
G01*
X97275000Y-139043750D01*
G75*
G02*
X97493750Y-138825000I218750J0D01*
G01*
X97931250Y-138825000D01*
G75*
G02*
X98150000Y-139043750I0J-218750D01*
G01*
G37*
G04 #@! TD.AperFunction*
G04 #@! TD*
G04 #@! TO.P,R2,1*
G04 #@! TO.N,Net-(C2-Pad1)*
G04 #@! TA.AperFunction,SMDPad,CuDef*
G36*
G01*
X87150000Y-140265000D02*
X87150000Y-141735000D01*
G75*
G02*
X87010000Y-141875000I-140000J0D01*
G01*
X86590000Y-141875000D01*
G75*
G02*
X86450000Y-141735000I0J140000D01*
G01*
X86450000Y-140265000D01*
G75*
G02*
X86590000Y-140125000I140000J0D01*
G01*
X87010000Y-140125000D01*
G75*
G02*
X87150000Y-140265000I0J-140000D01*
G01*
G37*
G04 #@! TD.AperFunction*
G04 #@! TO.P,R2,2*
G04 #@! TO.N,Net-(C1-Pad1)*
G04 #@! TA.AperFunction,SMDPad,CuDef*
G36*
G01*
X84350000Y-140265000D02*
X84350000Y-141735000D01*
G75*
G02*
X84210000Y-141875000I-140000J0D01*
G01*
X83790000Y-141875000D01*
G75*
G02*
X83650000Y-141735000I0J140000D01*
G01*
X83650000Y-140265000D01*
G75*
G02*
X83790000Y-140125000I140000J0D01*
G01*
X84210000Y-140125000D01*
G75*
G02*
X84350000Y-140265000I0J-140000D01*
G01*
G37*
G04 #@! TD.AperFunction*
G04 #@! TD*
G04 #@! TO.P,R3,1*
G04 #@! TO.N,Net-(C3-Pad1)*
G04 #@! TA.AperFunction,SMDPad,CuDef*
G36*
G01*
X90550000Y-138065000D02*
X90550000Y-139535000D01*
G75*
G02*
X90410000Y-139675000I-140000J0D01*
G01*
X89990000Y-139675000D01*
G75*
G02*
X89850000Y-139535000I0J140000D01*
G01*
X89850000Y-138065000D01*
G75*
G02*
X89990000Y-137925000I140000J0D01*
G01*
X90410000Y-137925000D01*
G75*
G02*
X90550000Y-138065000I0J-140000D01*
G01*
G37*
G04 #@! TD.AperFunction*
G04 #@! TO.P,R3,2*
G04 #@! TO.N,Net-(C2-Pad1)*
G04 #@! TA.AperFunction,SMDPad,CuDef*
G36*
G01*
X87750000Y-138065000D02*
X87750000Y-139535000D01*
G75*
G02*
X87610000Y-139675000I-140000J0D01*
G01*
X87190000Y-139675000D01*
G75*
G02*
X87050000Y-139535000I0J140000D01*
G01*
X87050000Y-138065000D01*
G75*
G02*
X87190000Y-137925000I140000J0D01*
G01*
X87610000Y-137925000D01*
G75*
G02*
X87750000Y-138065000I0J-140000D01*
G01*
G37*
G04 #@! TD.AperFunction*
G04 #@! TD*
G04 #@! TO.P,C3,1*
G04 #@! TO.N,Net-(C3-Pad1)*
G04 #@! TA.AperFunction,SMDPad,CuDef*
G36*
G01*
X90550000Y-140265000D02*
X90550000Y-141735000D01*
G75*
G02*
X90410000Y-141875000I-140000J0D01*
G01*
X89990000Y-141875000D01*
G75*
G02*
X89850000Y-141735000I0J140000D01*
G01*
X89850000Y-140265000D01*
G75*
G02*
X89990000Y-140125000I140000J0D01*
G01*
X90410000Y-140125000D01*
G75*
G02*
X90550000Y-140265000I0J-140000D01*
G01*
G37*
G04 #@! TD.AperFunction*
G04 #@! TO.P,C3,2*
G04 #@! TO.N,Net-(C2-Pad1)*
G04 #@! TA.AperFunction,SMDPad,CuDef*
G36*
G01*
X87750000Y-140265000D02*
X87750000Y-141735000D01*
G75*
G02*
X87610000Y-141875000I-140000J0D01*
G01*
X87190000Y-141875000D01*
G75*
G02*
X87050000Y-141735000I0J140000D01*
G01*
X87050000Y-140265000D01*
G75*
G02*
X87190000Y-140125000I140000J0D01*
G01*
X87610000Y-140125000D01*
G75*
G02*
X87750000Y-140265000I0J-140000D01*
G01*
G37*
G04 #@! TD.AperFunction*
G04 #@! TD*
G04 #@! TO.P,R1,1*
G04 #@! TO.N,Net-(C1-Pad1)*
G04 #@! TA.AperFunction,SMDPad,CuDef*
G36*
G01*
X83750000Y-140265000D02*
X83750000Y-141735000D01*
G75*
G02*
X83610000Y-141875000I-140000J0D01*
G01*
X83190000Y-141875000D01*
G75*
G02*
X83050000Y-141735000I0J140000D01*
G01*
X83050000Y-140265000D01*
G75*
G02*
X83190000Y-140125000I140000J0D01*
G01*
X83610000Y-140125000D01*
G75*
G02*
X83750000Y-140265000I0J-140000D01*
G01*
G37*
G04 #@! TD.AperFunction*
G04 #@! TO.P,R1,2*
G04 #@! TO.N,Net-(C1-Pad2)*
G04 #@! TA.AperFunction,SMDPad,CuDef*
G36*
G01*
X80950000Y-140265000D02*
X80950000Y-141735000D01*
G75*
G02*
X80810000Y-141875000I-140000J0D01*
G01*
X80390000Y-141875000D01*
G75*
G02*
X80250000Y-141735000I0J140000D01*
G01*
X80250000Y-140265000D01*
G75*
G02*
X80390000Y-140125000I140000J0D01*
G01*
X80810000Y-140125000D01*
G75*
G02*
X80950000Y-140265000I0J-140000D01*
G01*
G37*
G04 #@! TD.AperFunction*
G04 #@! TD*
G04 #@! TO.P,C2,1*
G04 #@! TO.N,Net-(C2-Pad1)*
G04 #@! TA.AperFunction,SMDPad,CuDef*
G36*
G01*
X87150000Y-138065000D02*
X87150000Y-139535000D01*
G75*
G02*
X87010000Y-139675000I-140000J0D01*
G01*
X86590000Y-139675000D01*
G75*
G02*
X86450000Y-139535000I0J140000D01*
G01*
X86450000Y-138065000D01*
G75*
G02*
X86590000Y-137925000I140000J0D01*
G01*
X87010000Y-137925000D01*
G75*
G02*
X87150000Y-138065000I0J-140000D01*
G01*
G37*
G04 #@! TD.AperFunction*
G04 #@! TO.P,C2,2*
G04 #@! TO.N,Net-(C1-Pad1)*
G04 #@! TA.AperFunction,SMDPad,CuDef*
G36*
G01*
X84350000Y-138065000D02*
X84350000Y-139535000D01*
G75*
G02*
X84210000Y-139675000I-140000J0D01*
G01*
X83790000Y-139675000D01*
G75*
G02*
X83650000Y-139535000I0J140000D01*
G01*
X83650000Y-138065000D01*
G75*
G02*
X83790000Y-137925000I140000J0D01*
G01*
X84210000Y-137925000D01*
G75*
G02*
X84350000Y-138065000I0J-140000D01*
G01*
G37*
G04 #@! TD.AperFunction*
G04 #@! TD*
G04 #@! TO.P,R6,1*
G04 #@! TO.N,GND*
G04 #@! TA.AperFunction,SMDPad,CuDef*
G36*
G01*
X99725000Y-140443750D02*
X99725000Y-140956250D01*
G75*
G02*
X99506250Y-141175000I-218750J0D01*
G01*
X99068750Y-141175000D01*
G75*
G02*
X98850000Y-140956250I0J218750D01*
G01*
X98850000Y-140443750D01*
G75*
G02*
X99068750Y-140225000I218750J0D01*
G01*
X99506250Y-140225000D01*
G75*
G02*
X99725000Y-140443750I0J-218750D01*
G01*
G37*
G04 #@! TD.AperFunction*
G04 #@! TO.P,R6,2*
G04 #@! TO.N,Net-(C5-Pad1)*
G04 #@! TA.AperFunction,SMDPad,CuDef*
G36*
G01*
X98150000Y-140443750D02*
X98150000Y-140956250D01*
G75*
G02*
X97931250Y-141175000I-218750J0D01*
G01*
X97493750Y-141175000D01*
G75*
G02*
X97275000Y-140956250I0J218750D01*
G01*
X97275000Y-140443750D01*
G75*
G02*
X97493750Y-140225000I218750J0D01*
G01*
X97931250Y-140225000D01*
G75*
G02*
X98150000Y-140443750I0J-218750D01*
G01*
G37*
G04 #@! TD.AperFunction*
G04 #@! TD*
G04 #@! TO.P,C4,1*
G04 #@! TO.N,Net-(C4-Pad1)*
G04 #@! TA.AperFunction,SMDPad,CuDef*
G36*
G01*
X93950000Y-140265000D02*
X93950000Y-141735000D01*
G75*
G02*
X93810000Y-141875000I-140000J0D01*
G01*
X93390000Y-141875000D01*
G75*
G02*
X93250000Y-141735000I0J140000D01*
G01*
X93250000Y-140265000D01*
G75*
G02*
X93390000Y-140125000I140000J0D01*
G01*
X93810000Y-140125000D01*
G75*
G02*
X93950000Y-140265000I0J-140000D01*
G01*
G37*
G04 #@! TD.AperFunction*
G04 #@! TO.P,C4,2*
G04 #@! TO.N,Net-(C3-Pad1)*
G04 #@! TA.AperFunction,SMDPad,CuDef*
G36*
G01*
X91150000Y-140265000D02*
X91150000Y-141735000D01*
G75*
G02*
X91010000Y-141875000I-140000J0D01*
G01*
X90590000Y-141875000D01*
G75*
G02*
X90450000Y-141735000I0J140000D01*
G01*
X90450000Y-140265000D01*
G75*
G02*
X90590000Y-140125000I140000J0D01*
G01*
X91010000Y-140125000D01*
G75*
G02*
X91150000Y-140265000I0J-140000D01*
G01*
G37*
G04 #@! TD.AperFunction*
G04 #@! TD*
G04 #@! TO.P,J3,1*
G04 #@! TO.N,GND*
G04 #@! TA.AperFunction,SMDPad,CuDef*
G36*
G01*
X99900000Y-170625000D02*
X99900000Y-169375000D01*
G75*
G02*
X100525000Y-168750000I625000J0D01*
G01*
X102275000Y-168750000D01*
G75*
G02*
X102900000Y-169375000I0J-625000D01*
G01*
X102900000Y-170625000D01*
G75*
G02*
X102275000Y-171250000I-625000J0D01*
G01*
X100525000Y-171250000D01*
G75*
G02*
X99900000Y-170625000I0J625000D01*
G01*
G37*
G04 #@! TD.AperFunction*
G04 #@! TD*
G04 #@! TO.P,C6,2*
G04 #@! TO.N,Net-(C5-Pad1)*
G04 #@! TA.AperFunction,SMDPad,CuDef*
G36*
G01*
X98150000Y-169043750D02*
X98150000Y-169556250D01*
G75*
G02*
X97931250Y-169775000I-218750J0D01*
G01*
X97493750Y-169775000D01*
G75*
G02*
X97275000Y-169556250I0J218750D01*
G01*
X97275000Y-169043750D01*
G75*
G02*
X97493750Y-168825000I218750J0D01*
G01*
X97931250Y-168825000D01*
G75*
G02*
X98150000Y-169043750I0J-218750D01*
G01*
G37*
G04 #@! TD.AperFunction*
G04 #@! TO.P,C6,1*
G04 #@! TO.N,GND*
G04 #@! TA.AperFunction,SMDPad,CuDef*
G36*
G01*
X99725000Y-169043750D02*
X99725000Y-169556250D01*
G75*
G02*
X99506250Y-169775000I-218750J0D01*
G01*
X99068750Y-169775000D01*
G75*
G02*
X98850000Y-169556250I0J218750D01*
G01*
X98850000Y-169043750D01*
G75*
G02*
X99068750Y-168825000I218750J0D01*
G01*
X99506250Y-168825000D01*
G75*
G02*
X99725000Y-169043750I0J-218750D01*
G01*
G37*
G04 #@! TD.AperFunction*
G04 #@! TD*
G04 #@! TO.P,C5,2*
G04 #@! TO.N,Net-(C4-Pad1)*
G04 #@! TA.AperFunction,SMDPad,CuDef*
G36*
G01*
X94550000Y-170265000D02*
X94550000Y-171735000D01*
G75*
G02*
X94410000Y-171875000I-140000J0D01*
G01*
X93990000Y-171875000D01*
G75*
G02*
X93850000Y-171735000I0J140000D01*
G01*
X93850000Y-170265000D01*
G75*
G02*
X93990000Y-170125000I140000J0D01*
G01*
X94410000Y-170125000D01*
G75*
G02*
X94550000Y-170265000I0J-140000D01*
G01*
G37*
G04 #@! TD.AperFunction*
G04 #@! TO.P,C5,1*
G04 #@! TO.N,Net-(C5-Pad1)*
G04 #@! TA.AperFunction,SMDPad,CuDef*
G36*
G01*
X97350000Y-170265000D02*
X97350000Y-171735000D01*
G75*
G02*
X97210000Y-171875000I-140000J0D01*
G01*
X96790000Y-171875000D01*
G75*
G02*
X96650000Y-171735000I0J140000D01*
G01*
X96650000Y-170265000D01*
G75*
G02*
X96790000Y-170125000I140000J0D01*
G01*
X97210000Y-170125000D01*
G75*
G02*
X97350000Y-170265000I0J-140000D01*
G01*
G37*
G04 #@! TD.AperFunction*
G04 #@! TD*
G04 #@! TO.P,R4,2*
G04 #@! TO.N,Net-(C3-Pad1)*
G04 #@! TA.AperFunction,SMDPad,CuDef*
G36*
G01*
X91150000Y-168065000D02*
X91150000Y-169535000D01*
G75*
G02*
X91010000Y-169675000I-140000J0D01*
G01*
X90590000Y-169675000D01*
G75*
G02*
X90450000Y-169535000I0J140000D01*
G01*
X90450000Y-168065000D01*
G75*
G02*
X90590000Y-167925000I140000J0D01*
G01*
X91010000Y-167925000D01*
G75*
G02*
X91150000Y-168065000I0J-140000D01*
G01*
G37*
G04 #@! TD.AperFunction*
G04 #@! TO.P,R4,1*
G04 #@! TO.N,Net-(C4-Pad1)*
G04 #@! TA.AperFunction,SMDPad,CuDef*
G36*
G01*
X93950000Y-168065000D02*
X93950000Y-169535000D01*
G75*
G02*
X93810000Y-169675000I-140000J0D01*
G01*
X93390000Y-169675000D01*
G75*
G02*
X93250000Y-169535000I0J140000D01*
G01*
X93250000Y-168065000D01*
G75*
G02*
X93390000Y-167925000I140000J0D01*
G01*
X93810000Y-167925000D01*
G75*
G02*
X93950000Y-168065000I0J-140000D01*
G01*
G37*
G04 #@! TD.AperFunction*
G04 #@! TD*
G04 #@! TO.P,R5,2*
G04 #@! TO.N,Net-(C4-Pad1)*
G04 #@! TA.AperFunction,SMDPad,CuDef*
G36*
G01*
X94550000Y-168065000D02*
X94550000Y-169535000D01*
G75*
G02*
X94410000Y-169675000I-140000J0D01*
G01*
X93990000Y-169675000D01*
G75*
G02*
X93850000Y-169535000I0J140000D01*
G01*
X93850000Y-168065000D01*
G75*
G02*
X93990000Y-167925000I140000J0D01*
G01*
X94410000Y-167925000D01*
G75*
G02*
X94550000Y-168065000I0J-140000D01*
G01*
G37*
G04 #@! TD.AperFunction*
G04 #@! TO.P,R5,1*
G04 #@! TO.N,Net-(C5-Pad1)*
G04 #@! TA.AperFunction,SMDPad,CuDef*
G36*
G01*
X97350000Y-168065000D02*
X97350000Y-169535000D01*
G75*
G02*
X97210000Y-169675000I-140000J0D01*
G01*
X96790000Y-169675000D01*
G75*
G02*
X96650000Y-169535000I0J140000D01*
G01*
X96650000Y-168065000D01*
G75*
G02*
X96790000Y-167925000I140000J0D01*
G01*
X97210000Y-167925000D01*
G75*
G02*
X97350000Y-168065000I0J-140000D01*
G01*
G37*
G04 #@! TD.AperFunction*
G04 #@! TD*
G04 #@! TO.P,C4,2*
G04 #@! TO.N,Net-(C3-Pad1)*
G04 #@! TA.AperFunction,SMDPad,CuDef*
G36*
G01*
X91150000Y-170265000D02*
X91150000Y-171735000D01*
G75*
G02*
X91010000Y-171875000I-140000J0D01*
G01*
X90590000Y-171875000D01*
G75*
G02*
X90450000Y-171735000I0J140000D01*
G01*
X90450000Y-170265000D01*
G75*
G02*
X90590000Y-170125000I140000J0D01*
G01*
X91010000Y-170125000D01*
G75*
G02*
X91150000Y-170265000I0J-140000D01*
G01*
G37*
G04 #@! TD.AperFunction*
G04 #@! TO.P,C4,1*
G04 #@! TO.N,Net-(C4-Pad1)*
G04 #@! TA.AperFunction,SMDPad,CuDef*
G36*
G01*
X93950000Y-170265000D02*
X93950000Y-171735000D01*
G75*
G02*
X93810000Y-171875000I-140000J0D01*
G01*
X93390000Y-171875000D01*
G75*
G02*
X93250000Y-171735000I0J140000D01*
G01*
X93250000Y-170265000D01*
G75*
G02*
X93390000Y-170125000I140000J0D01*
G01*
X93810000Y-170125000D01*
G75*
G02*
X93950000Y-170265000I0J-140000D01*
G01*
G37*
G04 #@! TD.AperFunction*
G04 #@! TD*
G04 #@! TO.P,R3,2*
G04 #@! TO.N,Net-(C2-Pad1)*
G04 #@! TA.AperFunction,SMDPad,CuDef*
G36*
G01*
X87750000Y-168065000D02*
X87750000Y-169535000D01*
G75*
G02*
X87610000Y-169675000I-140000J0D01*
G01*
X87190000Y-169675000D01*
G75*
G02*
X87050000Y-169535000I0J140000D01*
G01*
X87050000Y-168065000D01*
G75*
G02*
X87190000Y-167925000I140000J0D01*
G01*
X87610000Y-167925000D01*
G75*
G02*
X87750000Y-168065000I0J-140000D01*
G01*
G37*
G04 #@! TD.AperFunction*
G04 #@! TO.P,R3,1*
G04 #@! TO.N,Net-(C3-Pad1)*
G04 #@! TA.AperFunction,SMDPad,CuDef*
G36*
G01*
X90550000Y-168065000D02*
X90550000Y-169535000D01*
G75*
G02*
X90410000Y-169675000I-140000J0D01*
G01*
X89990000Y-169675000D01*
G75*
G02*
X89850000Y-169535000I0J140000D01*
G01*
X89850000Y-168065000D01*
G75*
G02*
X89990000Y-167925000I140000J0D01*
G01*
X90410000Y-167925000D01*
G75*
G02*
X90550000Y-168065000I0J-140000D01*
G01*
G37*
G04 #@! TD.AperFunction*
G04 #@! TD*
G04 #@! TO.P,R6,2*
G04 #@! TO.N,Net-(C5-Pad1)*
G04 #@! TA.AperFunction,SMDPad,CuDef*
G36*
G01*
X98150000Y-170443750D02*
X98150000Y-170956250D01*
G75*
G02*
X97931250Y-171175000I-218750J0D01*
G01*
X97493750Y-171175000D01*
G75*
G02*
X97275000Y-170956250I0J218750D01*
G01*
X97275000Y-170443750D01*
G75*
G02*
X97493750Y-170225000I218750J0D01*
G01*
X97931250Y-170225000D01*
G75*
G02*
X98150000Y-170443750I0J-218750D01*
G01*
G37*
G04 #@! TD.AperFunction*
G04 #@! TO.P,R6,1*
G04 #@! TO.N,GND*
G04 #@! TA.AperFunction,SMDPad,CuDef*
G36*
G01*
X99725000Y-170443750D02*
X99725000Y-170956250D01*
G75*
G02*
X99506250Y-171175000I-218750J0D01*
G01*
X99068750Y-171175000D01*
G75*
G02*
X98850000Y-170956250I0J218750D01*
G01*
X98850000Y-170443750D01*
G75*
G02*
X99068750Y-170225000I218750J0D01*
G01*
X99506250Y-170225000D01*
G75*
G02*
X99725000Y-170443750I0J-218750D01*
G01*
G37*
G04 #@! TD.AperFunction*
G04 #@! TD*
G04 #@! TO.P,R2,2*
G04 #@! TO.N,Net-(C1-Pad1)*
G04 #@! TA.AperFunction,SMDPad,CuDef*
G36*
G01*
X84350000Y-170265000D02*
X84350000Y-171735000D01*
G75*
G02*
X84210000Y-171875000I-140000J0D01*
G01*
X83790000Y-171875000D01*
G75*
G02*
X83650000Y-171735000I0J140000D01*
G01*
X83650000Y-170265000D01*
G75*
G02*
X83790000Y-170125000I140000J0D01*
G01*
X84210000Y-170125000D01*
G75*
G02*
X84350000Y-170265000I0J-140000D01*
G01*
G37*
G04 #@! TD.AperFunction*
G04 #@! TO.P,R2,1*
G04 #@! TO.N,Net-(C2-Pad1)*
G04 #@! TA.AperFunction,SMDPad,CuDef*
G36*
G01*
X87150000Y-170265000D02*
X87150000Y-171735000D01*
G75*
G02*
X87010000Y-171875000I-140000J0D01*
G01*
X86590000Y-171875000D01*
G75*
G02*
X86450000Y-171735000I0J140000D01*
G01*
X86450000Y-170265000D01*
G75*
G02*
X86590000Y-170125000I140000J0D01*
G01*
X87010000Y-170125000D01*
G75*
G02*
X87150000Y-170265000I0J-140000D01*
G01*
G37*
G04 #@! TD.AperFunction*
G04 #@! TD*
G04 #@! TO.P,C3,2*
G04 #@! TO.N,Net-(C2-Pad1)*
G04 #@! TA.AperFunction,SMDPad,CuDef*
G36*
G01*
X87750000Y-170265000D02*
X87750000Y-171735000D01*
G75*
G02*
X87610000Y-171875000I-140000J0D01*
G01*
X87190000Y-171875000D01*
G75*
G02*
X87050000Y-171735000I0J140000D01*
G01*
X87050000Y-170265000D01*
G75*
G02*
X87190000Y-170125000I140000J0D01*
G01*
X87610000Y-170125000D01*
G75*
G02*
X87750000Y-170265000I0J-140000D01*
G01*
G37*
G04 #@! TD.AperFunction*
G04 #@! TO.P,C3,1*
G04 #@! TO.N,Net-(C3-Pad1)*
G04 #@! TA.AperFunction,SMDPad,CuDef*
G36*
G01*
X90550000Y-170265000D02*
X90550000Y-171735000D01*
G75*
G02*
X90410000Y-171875000I-140000J0D01*
G01*
X89990000Y-171875000D01*
G75*
G02*
X89850000Y-171735000I0J140000D01*
G01*
X89850000Y-170265000D01*
G75*
G02*
X89990000Y-170125000I140000J0D01*
G01*
X90410000Y-170125000D01*
G75*
G02*
X90550000Y-170265000I0J-140000D01*
G01*
G37*
G04 #@! TD.AperFunction*
G04 #@! TD*
G04 #@! TO.P,C1,2*
G04 #@! TO.N,Net-(C1-Pad2)*
G04 #@! TA.AperFunction,SMDPad,CuDef*
G36*
G01*
X80950000Y-168065000D02*
X80950000Y-169535000D01*
G75*
G02*
X80810000Y-169675000I-140000J0D01*
G01*
X80390000Y-169675000D01*
G75*
G02*
X80250000Y-169535000I0J140000D01*
G01*
X80250000Y-168065000D01*
G75*
G02*
X80390000Y-167925000I140000J0D01*
G01*
X80810000Y-167925000D01*
G75*
G02*
X80950000Y-168065000I0J-140000D01*
G01*
G37*
G04 #@! TD.AperFunction*
G04 #@! TO.P,C1,1*
G04 #@! TO.N,Net-(C1-Pad1)*
G04 #@! TA.AperFunction,SMDPad,CuDef*
G36*
G01*
X83750000Y-168065000D02*
X83750000Y-169535000D01*
G75*
G02*
X83610000Y-169675000I-140000J0D01*
G01*
X83190000Y-169675000D01*
G75*
G02*
X83050000Y-169535000I0J140000D01*
G01*
X83050000Y-168065000D01*
G75*
G02*
X83190000Y-167925000I140000J0D01*
G01*
X83610000Y-167925000D01*
G75*
G02*
X83750000Y-168065000I0J-140000D01*
G01*
G37*
G04 #@! TD.AperFunction*
G04 #@! TD*
G04 #@! TO.P,R1,2*
G04 #@! TO.N,Net-(C1-Pad2)*
G04 #@! TA.AperFunction,SMDPad,CuDef*
G36*
G01*
X80950000Y-170265000D02*
X80950000Y-171735000D01*
G75*
G02*
X80810000Y-171875000I-140000J0D01*
G01*
X80390000Y-171875000D01*
G75*
G02*
X80250000Y-171735000I0J140000D01*
G01*
X80250000Y-170265000D01*
G75*
G02*
X80390000Y-170125000I140000J0D01*
G01*
X80810000Y-170125000D01*
G75*
G02*
X80950000Y-170265000I0J-140000D01*
G01*
G37*
G04 #@! TD.AperFunction*
G04 #@! TO.P,R1,1*
G04 #@! TO.N,Net-(C1-Pad1)*
G04 #@! TA.AperFunction,SMDPad,CuDef*
G36*
G01*
X83750000Y-170265000D02*
X83750000Y-171735000D01*
G75*
G02*
X83610000Y-171875000I-140000J0D01*
G01*
X83190000Y-171875000D01*
G75*
G02*
X83050000Y-171735000I0J140000D01*
G01*
X83050000Y-170265000D01*
G75*
G02*
X83190000Y-170125000I140000J0D01*
G01*
X83610000Y-170125000D01*
G75*
G02*
X83750000Y-170265000I0J-140000D01*
G01*
G37*
G04 #@! TD.AperFunction*
G04 #@! TD*
G04 #@! TO.P,C2,2*
G04 #@! TO.N,Net-(C1-Pad1)*
G04 #@! TA.AperFunction,SMDPad,CuDef*
G36*
G01*
X84350000Y-168065000D02*
X84350000Y-169535000D01*
G75*
G02*
X84210000Y-169675000I-140000J0D01*
G01*
X83790000Y-169675000D01*
G75*
G02*
X83650000Y-169535000I0J140000D01*
G01*
X83650000Y-168065000D01*
G75*
G02*
X83790000Y-167925000I140000J0D01*
G01*
X84210000Y-167925000D01*
G75*
G02*
X84350000Y-168065000I0J-140000D01*
G01*
G37*
G04 #@! TD.AperFunction*
G04 #@! TO.P,C2,1*
G04 #@! TO.N,Net-(C2-Pad1)*
G04 #@! TA.AperFunction,SMDPad,CuDef*
G36*
G01*
X87150000Y-168065000D02*
X87150000Y-169535000D01*
G75*
G02*
X87010000Y-169675000I-140000J0D01*
G01*
X86590000Y-169675000D01*
G75*
G02*
X86450000Y-169535000I0J140000D01*
G01*
X86450000Y-168065000D01*
G75*
G02*
X86590000Y-167925000I140000J0D01*
G01*
X87010000Y-167925000D01*
G75*
G02*
X87150000Y-168065000I0J-140000D01*
G01*
G37*
G04 #@! TD.AperFunction*
G04 #@! TD*
G04 #@! TO.P,J1,1*
G04 #@! TO.N,Net-(C1-Pad2)*
X77500000Y-167500000D03*
G04 #@! TD*
G04 #@! TO.P,J3,1*
G04 #@! TO.N,GND*
G04 #@! TA.AperFunction,SMDPad,CuDef*
G36*
G01*
X99900000Y-160625000D02*
X99900000Y-159375000D01*
G75*
G02*
X100525000Y-158750000I625000J0D01*
G01*
X102275000Y-158750000D01*
G75*
G02*
X102900000Y-159375000I0J-625000D01*
G01*
X102900000Y-160625000D01*
G75*
G02*
X102275000Y-161250000I-625000J0D01*
G01*
X100525000Y-161250000D01*
G75*
G02*
X99900000Y-160625000I0J625000D01*
G01*
G37*
G04 #@! TD.AperFunction*
G04 #@! TD*
G04 #@! TO.P,J1,1*
G04 #@! TO.N,Net-(C1-Pad2)*
X77500000Y-157500000D03*
G04 #@! TD*
G04 #@! TO.P,C1,1*
G04 #@! TO.N,Net-(C1-Pad1)*
G04 #@! TA.AperFunction,SMDPad,CuDef*
G36*
G01*
X83750000Y-158065000D02*
X83750000Y-159535000D01*
G75*
G02*
X83610000Y-159675000I-140000J0D01*
G01*
X83190000Y-159675000D01*
G75*
G02*
X83050000Y-159535000I0J140000D01*
G01*
X83050000Y-158065000D01*
G75*
G02*
X83190000Y-157925000I140000J0D01*
G01*
X83610000Y-157925000D01*
G75*
G02*
X83750000Y-158065000I0J-140000D01*
G01*
G37*
G04 #@! TD.AperFunction*
G04 #@! TO.P,C1,2*
G04 #@! TO.N,Net-(C1-Pad2)*
G04 #@! TA.AperFunction,SMDPad,CuDef*
G36*
G01*
X80950000Y-158065000D02*
X80950000Y-159535000D01*
G75*
G02*
X80810000Y-159675000I-140000J0D01*
G01*
X80390000Y-159675000D01*
G75*
G02*
X80250000Y-159535000I0J140000D01*
G01*
X80250000Y-158065000D01*
G75*
G02*
X80390000Y-157925000I140000J0D01*
G01*
X80810000Y-157925000D01*
G75*
G02*
X80950000Y-158065000I0J-140000D01*
G01*
G37*
G04 #@! TD.AperFunction*
G04 #@! TD*
G04 #@! TO.P,C5,1*
G04 #@! TO.N,Net-(C5-Pad1)*
G04 #@! TA.AperFunction,SMDPad,CuDef*
G36*
G01*
X97350000Y-160265000D02*
X97350000Y-161735000D01*
G75*
G02*
X97210000Y-161875000I-140000J0D01*
G01*
X96790000Y-161875000D01*
G75*
G02*
X96650000Y-161735000I0J140000D01*
G01*
X96650000Y-160265000D01*
G75*
G02*
X96790000Y-160125000I140000J0D01*
G01*
X97210000Y-160125000D01*
G75*
G02*
X97350000Y-160265000I0J-140000D01*
G01*
G37*
G04 #@! TD.AperFunction*
G04 #@! TO.P,C5,2*
G04 #@! TO.N,Net-(C4-Pad1)*
G04 #@! TA.AperFunction,SMDPad,CuDef*
G36*
G01*
X94550000Y-160265000D02*
X94550000Y-161735000D01*
G75*
G02*
X94410000Y-161875000I-140000J0D01*
G01*
X93990000Y-161875000D01*
G75*
G02*
X93850000Y-161735000I0J140000D01*
G01*
X93850000Y-160265000D01*
G75*
G02*
X93990000Y-160125000I140000J0D01*
G01*
X94410000Y-160125000D01*
G75*
G02*
X94550000Y-160265000I0J-140000D01*
G01*
G37*
G04 #@! TD.AperFunction*
G04 #@! TD*
G04 #@! TO.P,R4,1*
G04 #@! TO.N,Net-(C4-Pad1)*
G04 #@! TA.AperFunction,SMDPad,CuDef*
G36*
G01*
X93950000Y-158065000D02*
X93950000Y-159535000D01*
G75*
G02*
X93810000Y-159675000I-140000J0D01*
G01*
X93390000Y-159675000D01*
G75*
G02*
X93250000Y-159535000I0J140000D01*
G01*
X93250000Y-158065000D01*
G75*
G02*
X93390000Y-157925000I140000J0D01*
G01*
X93810000Y-157925000D01*
G75*
G02*
X93950000Y-158065000I0J-140000D01*
G01*
G37*
G04 #@! TD.AperFunction*
G04 #@! TO.P,R4,2*
G04 #@! TO.N,Net-(C3-Pad1)*
G04 #@! TA.AperFunction,SMDPad,CuDef*
G36*
G01*
X91150000Y-158065000D02*
X91150000Y-159535000D01*
G75*
G02*
X91010000Y-159675000I-140000J0D01*
G01*
X90590000Y-159675000D01*
G75*
G02*
X90450000Y-159535000I0J140000D01*
G01*
X90450000Y-158065000D01*
G75*
G02*
X90590000Y-157925000I140000J0D01*
G01*
X91010000Y-157925000D01*
G75*
G02*
X91150000Y-158065000I0J-140000D01*
G01*
G37*
G04 #@! TD.AperFunction*
G04 #@! TD*
G04 #@! TO.P,R5,1*
G04 #@! TO.N,Net-(C5-Pad1)*
G04 #@! TA.AperFunction,SMDPad,CuDef*
G36*
G01*
X97350000Y-158065000D02*
X97350000Y-159535000D01*
G75*
G02*
X97210000Y-159675000I-140000J0D01*
G01*
X96790000Y-159675000D01*
G75*
G02*
X96650000Y-159535000I0J140000D01*
G01*
X96650000Y-158065000D01*
G75*
G02*
X96790000Y-157925000I140000J0D01*
G01*
X97210000Y-157925000D01*
G75*
G02*
X97350000Y-158065000I0J-140000D01*
G01*
G37*
G04 #@! TD.AperFunction*
G04 #@! TO.P,R5,2*
G04 #@! TO.N,Net-(C4-Pad1)*
G04 #@! TA.AperFunction,SMDPad,CuDef*
G36*
G01*
X94550000Y-158065000D02*
X94550000Y-159535000D01*
G75*
G02*
X94410000Y-159675000I-140000J0D01*
G01*
X93990000Y-159675000D01*
G75*
G02*
X93850000Y-159535000I0J140000D01*
G01*
X93850000Y-158065000D01*
G75*
G02*
X93990000Y-157925000I140000J0D01*
G01*
X94410000Y-157925000D01*
G75*
G02*
X94550000Y-158065000I0J-140000D01*
G01*
G37*
G04 #@! TD.AperFunction*
G04 #@! TD*
G04 #@! TO.P,C6,1*
G04 #@! TO.N,GND*
G04 #@! TA.AperFunction,SMDPad,CuDef*
G36*
G01*
X99725000Y-159043750D02*
X99725000Y-159556250D01*
G75*
G02*
X99506250Y-159775000I-218750J0D01*
G01*
X99068750Y-159775000D01*
G75*
G02*
X98850000Y-159556250I0J218750D01*
G01*
X98850000Y-159043750D01*
G75*
G02*
X99068750Y-158825000I218750J0D01*
G01*
X99506250Y-158825000D01*
G75*
G02*
X99725000Y-159043750I0J-218750D01*
G01*
G37*
G04 #@! TD.AperFunction*
G04 #@! TO.P,C6,2*
G04 #@! TO.N,Net-(C5-Pad1)*
G04 #@! TA.AperFunction,SMDPad,CuDef*
G36*
G01*
X98150000Y-159043750D02*
X98150000Y-159556250D01*
G75*
G02*
X97931250Y-159775000I-218750J0D01*
G01*
X97493750Y-159775000D01*
G75*
G02*
X97275000Y-159556250I0J218750D01*
G01*
X97275000Y-159043750D01*
G75*
G02*
X97493750Y-158825000I218750J0D01*
G01*
X97931250Y-158825000D01*
G75*
G02*
X98150000Y-159043750I0J-218750D01*
G01*
G37*
G04 #@! TD.AperFunction*
G04 #@! TD*
G04 #@! TO.P,R2,1*
G04 #@! TO.N,Net-(C2-Pad1)*
G04 #@! TA.AperFunction,SMDPad,CuDef*
G36*
G01*
X87150000Y-160265000D02*
X87150000Y-161735000D01*
G75*
G02*
X87010000Y-161875000I-140000J0D01*
G01*
X86590000Y-161875000D01*
G75*
G02*
X86450000Y-161735000I0J140000D01*
G01*
X86450000Y-160265000D01*
G75*
G02*
X86590000Y-160125000I140000J0D01*
G01*
X87010000Y-160125000D01*
G75*
G02*
X87150000Y-160265000I0J-140000D01*
G01*
G37*
G04 #@! TD.AperFunction*
G04 #@! TO.P,R2,2*
G04 #@! TO.N,Net-(C1-Pad1)*
G04 #@! TA.AperFunction,SMDPad,CuDef*
G36*
G01*
X84350000Y-160265000D02*
X84350000Y-161735000D01*
G75*
G02*
X84210000Y-161875000I-140000J0D01*
G01*
X83790000Y-161875000D01*
G75*
G02*
X83650000Y-161735000I0J140000D01*
G01*
X83650000Y-160265000D01*
G75*
G02*
X83790000Y-160125000I140000J0D01*
G01*
X84210000Y-160125000D01*
G75*
G02*
X84350000Y-160265000I0J-140000D01*
G01*
G37*
G04 #@! TD.AperFunction*
G04 #@! TD*
G04 #@! TO.P,R3,1*
G04 #@! TO.N,Net-(C3-Pad1)*
G04 #@! TA.AperFunction,SMDPad,CuDef*
G36*
G01*
X90550000Y-158065000D02*
X90550000Y-159535000D01*
G75*
G02*
X90410000Y-159675000I-140000J0D01*
G01*
X89990000Y-159675000D01*
G75*
G02*
X89850000Y-159535000I0J140000D01*
G01*
X89850000Y-158065000D01*
G75*
G02*
X89990000Y-157925000I140000J0D01*
G01*
X90410000Y-157925000D01*
G75*
G02*
X90550000Y-158065000I0J-140000D01*
G01*
G37*
G04 #@! TD.AperFunction*
G04 #@! TO.P,R3,2*
G04 #@! TO.N,Net-(C2-Pad1)*
G04 #@! TA.AperFunction,SMDPad,CuDef*
G36*
G01*
X87750000Y-158065000D02*
X87750000Y-159535000D01*
G75*
G02*
X87610000Y-159675000I-140000J0D01*
G01*
X87190000Y-159675000D01*
G75*
G02*
X87050000Y-159535000I0J140000D01*
G01*
X87050000Y-158065000D01*
G75*
G02*
X87190000Y-157925000I140000J0D01*
G01*
X87610000Y-157925000D01*
G75*
G02*
X87750000Y-158065000I0J-140000D01*
G01*
G37*
G04 #@! TD.AperFunction*
G04 #@! TD*
G04 #@! TO.P,C3,1*
G04 #@! TO.N,Net-(C3-Pad1)*
G04 #@! TA.AperFunction,SMDPad,CuDef*
G36*
G01*
X90550000Y-160265000D02*
X90550000Y-161735000D01*
G75*
G02*
X90410000Y-161875000I-140000J0D01*
G01*
X89990000Y-161875000D01*
G75*
G02*
X89850000Y-161735000I0J140000D01*
G01*
X89850000Y-160265000D01*
G75*
G02*
X89990000Y-160125000I140000J0D01*
G01*
X90410000Y-160125000D01*
G75*
G02*
X90550000Y-160265000I0J-140000D01*
G01*
G37*
G04 #@! TD.AperFunction*
G04 #@! TO.P,C3,2*
G04 #@! TO.N,Net-(C2-Pad1)*
G04 #@! TA.AperFunction,SMDPad,CuDef*
G36*
G01*
X87750000Y-160265000D02*
X87750000Y-161735000D01*
G75*
G02*
X87610000Y-161875000I-140000J0D01*
G01*
X87190000Y-161875000D01*
G75*
G02*
X87050000Y-161735000I0J140000D01*
G01*
X87050000Y-160265000D01*
G75*
G02*
X87190000Y-160125000I140000J0D01*
G01*
X87610000Y-160125000D01*
G75*
G02*
X87750000Y-160265000I0J-140000D01*
G01*
G37*
G04 #@! TD.AperFunction*
G04 #@! TD*
G04 #@! TO.P,R1,1*
G04 #@! TO.N,Net-(C1-Pad1)*
G04 #@! TA.AperFunction,SMDPad,CuDef*
G36*
G01*
X83750000Y-160265000D02*
X83750000Y-161735000D01*
G75*
G02*
X83610000Y-161875000I-140000J0D01*
G01*
X83190000Y-161875000D01*
G75*
G02*
X83050000Y-161735000I0J140000D01*
G01*
X83050000Y-160265000D01*
G75*
G02*
X83190000Y-160125000I140000J0D01*
G01*
X83610000Y-160125000D01*
G75*
G02*
X83750000Y-160265000I0J-140000D01*
G01*
G37*
G04 #@! TD.AperFunction*
G04 #@! TO.P,R1,2*
G04 #@! TO.N,Net-(C1-Pad2)*
G04 #@! TA.AperFunction,SMDPad,CuDef*
G36*
G01*
X80950000Y-160265000D02*
X80950000Y-161735000D01*
G75*
G02*
X80810000Y-161875000I-140000J0D01*
G01*
X80390000Y-161875000D01*
G75*
G02*
X80250000Y-161735000I0J140000D01*
G01*
X80250000Y-160265000D01*
G75*
G02*
X80390000Y-160125000I140000J0D01*
G01*
X80810000Y-160125000D01*
G75*
G02*
X80950000Y-160265000I0J-140000D01*
G01*
G37*
G04 #@! TD.AperFunction*
G04 #@! TD*
G04 #@! TO.P,C2,1*
G04 #@! TO.N,Net-(C2-Pad1)*
G04 #@! TA.AperFunction,SMDPad,CuDef*
G36*
G01*
X87150000Y-158065000D02*
X87150000Y-159535000D01*
G75*
G02*
X87010000Y-159675000I-140000J0D01*
G01*
X86590000Y-159675000D01*
G75*
G02*
X86450000Y-159535000I0J140000D01*
G01*
X86450000Y-158065000D01*
G75*
G02*
X86590000Y-157925000I140000J0D01*
G01*
X87010000Y-157925000D01*
G75*
G02*
X87150000Y-158065000I0J-140000D01*
G01*
G37*
G04 #@! TD.AperFunction*
G04 #@! TO.P,C2,2*
G04 #@! TO.N,Net-(C1-Pad1)*
G04 #@! TA.AperFunction,SMDPad,CuDef*
G36*
G01*
X84350000Y-158065000D02*
X84350000Y-159535000D01*
G75*
G02*
X84210000Y-159675000I-140000J0D01*
G01*
X83790000Y-159675000D01*
G75*
G02*
X83650000Y-159535000I0J140000D01*
G01*
X83650000Y-158065000D01*
G75*
G02*
X83790000Y-157925000I140000J0D01*
G01*
X84210000Y-157925000D01*
G75*
G02*
X84350000Y-158065000I0J-140000D01*
G01*
G37*
G04 #@! TD.AperFunction*
G04 #@! TD*
G04 #@! TO.P,R6,1*
G04 #@! TO.N,GND*
G04 #@! TA.AperFunction,SMDPad,CuDef*
G36*
G01*
X99725000Y-160443750D02*
X99725000Y-160956250D01*
G75*
G02*
X99506250Y-161175000I-218750J0D01*
G01*
X99068750Y-161175000D01*
G75*
G02*
X98850000Y-160956250I0J218750D01*
G01*
X98850000Y-160443750D01*
G75*
G02*
X99068750Y-160225000I218750J0D01*
G01*
X99506250Y-160225000D01*
G75*
G02*
X99725000Y-160443750I0J-218750D01*
G01*
G37*
G04 #@! TD.AperFunction*
G04 #@! TO.P,R6,2*
G04 #@! TO.N,Net-(C5-Pad1)*
G04 #@! TA.AperFunction,SMDPad,CuDef*
G36*
G01*
X98150000Y-160443750D02*
X98150000Y-160956250D01*
G75*
G02*
X97931250Y-161175000I-218750J0D01*
G01*
X97493750Y-161175000D01*
G75*
G02*
X97275000Y-160956250I0J218750D01*
G01*
X97275000Y-160443750D01*
G75*
G02*
X97493750Y-160225000I218750J0D01*
G01*
X97931250Y-160225000D01*
G75*
G02*
X98150000Y-160443750I0J-218750D01*
G01*
G37*
G04 #@! TD.AperFunction*
G04 #@! TD*
G04 #@! TO.P,C4,1*
G04 #@! TO.N,Net-(C4-Pad1)*
G04 #@! TA.AperFunction,SMDPad,CuDef*
G36*
G01*
X93950000Y-160265000D02*
X93950000Y-161735000D01*
G75*
G02*
X93810000Y-161875000I-140000J0D01*
G01*
X93390000Y-161875000D01*
G75*
G02*
X93250000Y-161735000I0J140000D01*
G01*
X93250000Y-160265000D01*
G75*
G02*
X93390000Y-160125000I140000J0D01*
G01*
X93810000Y-160125000D01*
G75*
G02*
X93950000Y-160265000I0J-140000D01*
G01*
G37*
G04 #@! TD.AperFunction*
G04 #@! TO.P,C4,2*
G04 #@! TO.N,Net-(C3-Pad1)*
G04 #@! TA.AperFunction,SMDPad,CuDef*
G36*
G01*
X91150000Y-160265000D02*
X91150000Y-161735000D01*
G75*
G02*
X91010000Y-161875000I-140000J0D01*
G01*
X90590000Y-161875000D01*
G75*
G02*
X90450000Y-161735000I0J140000D01*
G01*
X90450000Y-160265000D01*
G75*
G02*
X90590000Y-160125000I140000J0D01*
G01*
X91010000Y-160125000D01*
G75*
G02*
X91150000Y-160265000I0J-140000D01*
G01*
G37*
G04 #@! TD.AperFunction*
G04 #@! TD*
G04 #@! TO.P,J1,1*
G04 #@! TO.N,Net-(C1-Pad2)*
X77500000Y-147500000D03*
G04 #@! TD*
G04 #@! TO.P,J3,1*
G04 #@! TO.N,GND*
G04 #@! TA.AperFunction,SMDPad,CuDef*
G36*
G01*
X99900000Y-150625000D02*
X99900000Y-149375000D01*
G75*
G02*
X100525000Y-148750000I625000J0D01*
G01*
X102275000Y-148750000D01*
G75*
G02*
X102900000Y-149375000I0J-625000D01*
G01*
X102900000Y-150625000D01*
G75*
G02*
X102275000Y-151250000I-625000J0D01*
G01*
X100525000Y-151250000D01*
G75*
G02*
X99900000Y-150625000I0J625000D01*
G01*
G37*
G04 #@! TD.AperFunction*
G04 #@! TD*
G04 #@! TO.P,R5,2*
G04 #@! TO.N,Net-(C4-Pad1)*
G04 #@! TA.AperFunction,SMDPad,CuDef*
G36*
G01*
X94550000Y-148065000D02*
X94550000Y-149535000D01*
G75*
G02*
X94410000Y-149675000I-140000J0D01*
G01*
X93990000Y-149675000D01*
G75*
G02*
X93850000Y-149535000I0J140000D01*
G01*
X93850000Y-148065000D01*
G75*
G02*
X93990000Y-147925000I140000J0D01*
G01*
X94410000Y-147925000D01*
G75*
G02*
X94550000Y-148065000I0J-140000D01*
G01*
G37*
G04 #@! TD.AperFunction*
G04 #@! TO.P,R5,1*
G04 #@! TO.N,Net-(C5-Pad1)*
G04 #@! TA.AperFunction,SMDPad,CuDef*
G36*
G01*
X97350000Y-148065000D02*
X97350000Y-149535000D01*
G75*
G02*
X97210000Y-149675000I-140000J0D01*
G01*
X96790000Y-149675000D01*
G75*
G02*
X96650000Y-149535000I0J140000D01*
G01*
X96650000Y-148065000D01*
G75*
G02*
X96790000Y-147925000I140000J0D01*
G01*
X97210000Y-147925000D01*
G75*
G02*
X97350000Y-148065000I0J-140000D01*
G01*
G37*
G04 #@! TD.AperFunction*
G04 #@! TD*
G04 #@! TO.P,R4,2*
G04 #@! TO.N,Net-(C3-Pad1)*
G04 #@! TA.AperFunction,SMDPad,CuDef*
G36*
G01*
X91150000Y-148065000D02*
X91150000Y-149535000D01*
G75*
G02*
X91010000Y-149675000I-140000J0D01*
G01*
X90590000Y-149675000D01*
G75*
G02*
X90450000Y-149535000I0J140000D01*
G01*
X90450000Y-148065000D01*
G75*
G02*
X90590000Y-147925000I140000J0D01*
G01*
X91010000Y-147925000D01*
G75*
G02*
X91150000Y-148065000I0J-140000D01*
G01*
G37*
G04 #@! TD.AperFunction*
G04 #@! TO.P,R4,1*
G04 #@! TO.N,Net-(C4-Pad1)*
G04 #@! TA.AperFunction,SMDPad,CuDef*
G36*
G01*
X93950000Y-148065000D02*
X93950000Y-149535000D01*
G75*
G02*
X93810000Y-149675000I-140000J0D01*
G01*
X93390000Y-149675000D01*
G75*
G02*
X93250000Y-149535000I0J140000D01*
G01*
X93250000Y-148065000D01*
G75*
G02*
X93390000Y-147925000I140000J0D01*
G01*
X93810000Y-147925000D01*
G75*
G02*
X93950000Y-148065000I0J-140000D01*
G01*
G37*
G04 #@! TD.AperFunction*
G04 #@! TD*
G04 #@! TO.P,R3,2*
G04 #@! TO.N,Net-(C2-Pad1)*
G04 #@! TA.AperFunction,SMDPad,CuDef*
G36*
G01*
X87750000Y-148065000D02*
X87750000Y-149535000D01*
G75*
G02*
X87610000Y-149675000I-140000J0D01*
G01*
X87190000Y-149675000D01*
G75*
G02*
X87050000Y-149535000I0J140000D01*
G01*
X87050000Y-148065000D01*
G75*
G02*
X87190000Y-147925000I140000J0D01*
G01*
X87610000Y-147925000D01*
G75*
G02*
X87750000Y-148065000I0J-140000D01*
G01*
G37*
G04 #@! TD.AperFunction*
G04 #@! TO.P,R3,1*
G04 #@! TO.N,Net-(C3-Pad1)*
G04 #@! TA.AperFunction,SMDPad,CuDef*
G36*
G01*
X90550000Y-148065000D02*
X90550000Y-149535000D01*
G75*
G02*
X90410000Y-149675000I-140000J0D01*
G01*
X89990000Y-149675000D01*
G75*
G02*
X89850000Y-149535000I0J140000D01*
G01*
X89850000Y-148065000D01*
G75*
G02*
X89990000Y-147925000I140000J0D01*
G01*
X90410000Y-147925000D01*
G75*
G02*
X90550000Y-148065000I0J-140000D01*
G01*
G37*
G04 #@! TD.AperFunction*
G04 #@! TD*
G04 #@! TO.P,R2,2*
G04 #@! TO.N,Net-(C1-Pad1)*
G04 #@! TA.AperFunction,SMDPad,CuDef*
G36*
G01*
X84350000Y-150265000D02*
X84350000Y-151735000D01*
G75*
G02*
X84210000Y-151875000I-140000J0D01*
G01*
X83790000Y-151875000D01*
G75*
G02*
X83650000Y-151735000I0J140000D01*
G01*
X83650000Y-150265000D01*
G75*
G02*
X83790000Y-150125000I140000J0D01*
G01*
X84210000Y-150125000D01*
G75*
G02*
X84350000Y-150265000I0J-140000D01*
G01*
G37*
G04 #@! TD.AperFunction*
G04 #@! TO.P,R2,1*
G04 #@! TO.N,Net-(C2-Pad1)*
G04 #@! TA.AperFunction,SMDPad,CuDef*
G36*
G01*
X87150000Y-150265000D02*
X87150000Y-151735000D01*
G75*
G02*
X87010000Y-151875000I-140000J0D01*
G01*
X86590000Y-151875000D01*
G75*
G02*
X86450000Y-151735000I0J140000D01*
G01*
X86450000Y-150265000D01*
G75*
G02*
X86590000Y-150125000I140000J0D01*
G01*
X87010000Y-150125000D01*
G75*
G02*
X87150000Y-150265000I0J-140000D01*
G01*
G37*
G04 #@! TD.AperFunction*
G04 #@! TD*
G04 #@! TO.P,R1,2*
G04 #@! TO.N,Net-(C1-Pad2)*
G04 #@! TA.AperFunction,SMDPad,CuDef*
G36*
G01*
X80950000Y-150265000D02*
X80950000Y-151735000D01*
G75*
G02*
X80810000Y-151875000I-140000J0D01*
G01*
X80390000Y-151875000D01*
G75*
G02*
X80250000Y-151735000I0J140000D01*
G01*
X80250000Y-150265000D01*
G75*
G02*
X80390000Y-150125000I140000J0D01*
G01*
X80810000Y-150125000D01*
G75*
G02*
X80950000Y-150265000I0J-140000D01*
G01*
G37*
G04 #@! TD.AperFunction*
G04 #@! TO.P,R1,1*
G04 #@! TO.N,Net-(C1-Pad1)*
G04 #@! TA.AperFunction,SMDPad,CuDef*
G36*
G01*
X83750000Y-150265000D02*
X83750000Y-151735000D01*
G75*
G02*
X83610000Y-151875000I-140000J0D01*
G01*
X83190000Y-151875000D01*
G75*
G02*
X83050000Y-151735000I0J140000D01*
G01*
X83050000Y-150265000D01*
G75*
G02*
X83190000Y-150125000I140000J0D01*
G01*
X83610000Y-150125000D01*
G75*
G02*
X83750000Y-150265000I0J-140000D01*
G01*
G37*
G04 #@! TD.AperFunction*
G04 #@! TD*
G04 #@! TO.P,C5,2*
G04 #@! TO.N,Net-(C4-Pad1)*
G04 #@! TA.AperFunction,SMDPad,CuDef*
G36*
G01*
X94550000Y-150265000D02*
X94550000Y-151735000D01*
G75*
G02*
X94410000Y-151875000I-140000J0D01*
G01*
X93990000Y-151875000D01*
G75*
G02*
X93850000Y-151735000I0J140000D01*
G01*
X93850000Y-150265000D01*
G75*
G02*
X93990000Y-150125000I140000J0D01*
G01*
X94410000Y-150125000D01*
G75*
G02*
X94550000Y-150265000I0J-140000D01*
G01*
G37*
G04 #@! TD.AperFunction*
G04 #@! TO.P,C5,1*
G04 #@! TO.N,Net-(C5-Pad1)*
G04 #@! TA.AperFunction,SMDPad,CuDef*
G36*
G01*
X97350000Y-150265000D02*
X97350000Y-151735000D01*
G75*
G02*
X97210000Y-151875000I-140000J0D01*
G01*
X96790000Y-151875000D01*
G75*
G02*
X96650000Y-151735000I0J140000D01*
G01*
X96650000Y-150265000D01*
G75*
G02*
X96790000Y-150125000I140000J0D01*
G01*
X97210000Y-150125000D01*
G75*
G02*
X97350000Y-150265000I0J-140000D01*
G01*
G37*
G04 #@! TD.AperFunction*
G04 #@! TD*
G04 #@! TO.P,C4,2*
G04 #@! TO.N,Net-(C3-Pad1)*
G04 #@! TA.AperFunction,SMDPad,CuDef*
G36*
G01*
X91150000Y-150265000D02*
X91150000Y-151735000D01*
G75*
G02*
X91010000Y-151875000I-140000J0D01*
G01*
X90590000Y-151875000D01*
G75*
G02*
X90450000Y-151735000I0J140000D01*
G01*
X90450000Y-150265000D01*
G75*
G02*
X90590000Y-150125000I140000J0D01*
G01*
X91010000Y-150125000D01*
G75*
G02*
X91150000Y-150265000I0J-140000D01*
G01*
G37*
G04 #@! TD.AperFunction*
G04 #@! TO.P,C4,1*
G04 #@! TO.N,Net-(C4-Pad1)*
G04 #@! TA.AperFunction,SMDPad,CuDef*
G36*
G01*
X93950000Y-150265000D02*
X93950000Y-151735000D01*
G75*
G02*
X93810000Y-151875000I-140000J0D01*
G01*
X93390000Y-151875000D01*
G75*
G02*
X93250000Y-151735000I0J140000D01*
G01*
X93250000Y-150265000D01*
G75*
G02*
X93390000Y-150125000I140000J0D01*
G01*
X93810000Y-150125000D01*
G75*
G02*
X93950000Y-150265000I0J-140000D01*
G01*
G37*
G04 #@! TD.AperFunction*
G04 #@! TD*
G04 #@! TO.P,C3,2*
G04 #@! TO.N,Net-(C2-Pad1)*
G04 #@! TA.AperFunction,SMDPad,CuDef*
G36*
G01*
X87750000Y-150265000D02*
X87750000Y-151735000D01*
G75*
G02*
X87610000Y-151875000I-140000J0D01*
G01*
X87190000Y-151875000D01*
G75*
G02*
X87050000Y-151735000I0J140000D01*
G01*
X87050000Y-150265000D01*
G75*
G02*
X87190000Y-150125000I140000J0D01*
G01*
X87610000Y-150125000D01*
G75*
G02*
X87750000Y-150265000I0J-140000D01*
G01*
G37*
G04 #@! TD.AperFunction*
G04 #@! TO.P,C3,1*
G04 #@! TO.N,Net-(C3-Pad1)*
G04 #@! TA.AperFunction,SMDPad,CuDef*
G36*
G01*
X90550000Y-150265000D02*
X90550000Y-151735000D01*
G75*
G02*
X90410000Y-151875000I-140000J0D01*
G01*
X89990000Y-151875000D01*
G75*
G02*
X89850000Y-151735000I0J140000D01*
G01*
X89850000Y-150265000D01*
G75*
G02*
X89990000Y-150125000I140000J0D01*
G01*
X90410000Y-150125000D01*
G75*
G02*
X90550000Y-150265000I0J-140000D01*
G01*
G37*
G04 #@! TD.AperFunction*
G04 #@! TD*
G04 #@! TO.P,C2,2*
G04 #@! TO.N,Net-(C1-Pad1)*
G04 #@! TA.AperFunction,SMDPad,CuDef*
G36*
G01*
X84350000Y-148065000D02*
X84350000Y-149535000D01*
G75*
G02*
X84210000Y-149675000I-140000J0D01*
G01*
X83790000Y-149675000D01*
G75*
G02*
X83650000Y-149535000I0J140000D01*
G01*
X83650000Y-148065000D01*
G75*
G02*
X83790000Y-147925000I140000J0D01*
G01*
X84210000Y-147925000D01*
G75*
G02*
X84350000Y-148065000I0J-140000D01*
G01*
G37*
G04 #@! TD.AperFunction*
G04 #@! TO.P,C2,1*
G04 #@! TO.N,Net-(C2-Pad1)*
G04 #@! TA.AperFunction,SMDPad,CuDef*
G36*
G01*
X87150000Y-148065000D02*
X87150000Y-149535000D01*
G75*
G02*
X87010000Y-149675000I-140000J0D01*
G01*
X86590000Y-149675000D01*
G75*
G02*
X86450000Y-149535000I0J140000D01*
G01*
X86450000Y-148065000D01*
G75*
G02*
X86590000Y-147925000I140000J0D01*
G01*
X87010000Y-147925000D01*
G75*
G02*
X87150000Y-148065000I0J-140000D01*
G01*
G37*
G04 #@! TD.AperFunction*
G04 #@! TD*
G04 #@! TO.P,C1,2*
G04 #@! TO.N,Net-(C1-Pad2)*
G04 #@! TA.AperFunction,SMDPad,CuDef*
G36*
G01*
X80950000Y-148065000D02*
X80950000Y-149535000D01*
G75*
G02*
X80810000Y-149675000I-140000J0D01*
G01*
X80390000Y-149675000D01*
G75*
G02*
X80250000Y-149535000I0J140000D01*
G01*
X80250000Y-148065000D01*
G75*
G02*
X80390000Y-147925000I140000J0D01*
G01*
X80810000Y-147925000D01*
G75*
G02*
X80950000Y-148065000I0J-140000D01*
G01*
G37*
G04 #@! TD.AperFunction*
G04 #@! TO.P,C1,1*
G04 #@! TO.N,Net-(C1-Pad1)*
G04 #@! TA.AperFunction,SMDPad,CuDef*
G36*
G01*
X83750000Y-148065000D02*
X83750000Y-149535000D01*
G75*
G02*
X83610000Y-149675000I-140000J0D01*
G01*
X83190000Y-149675000D01*
G75*
G02*
X83050000Y-149535000I0J140000D01*
G01*
X83050000Y-148065000D01*
G75*
G02*
X83190000Y-147925000I140000J0D01*
G01*
X83610000Y-147925000D01*
G75*
G02*
X83750000Y-148065000I0J-140000D01*
G01*
G37*
G04 #@! TD.AperFunction*
G04 #@! TD*
G04 #@! TO.P,R6,2*
G04 #@! TO.N,Net-(C5-Pad1)*
G04 #@! TA.AperFunction,SMDPad,CuDef*
G36*
G01*
X98150000Y-150443750D02*
X98150000Y-150956250D01*
G75*
G02*
X97931250Y-151175000I-218750J0D01*
G01*
X97493750Y-151175000D01*
G75*
G02*
X97275000Y-150956250I0J218750D01*
G01*
X97275000Y-150443750D01*
G75*
G02*
X97493750Y-150225000I218750J0D01*
G01*
X97931250Y-150225000D01*
G75*
G02*
X98150000Y-150443750I0J-218750D01*
G01*
G37*
G04 #@! TD.AperFunction*
G04 #@! TO.P,R6,1*
G04 #@! TO.N,GND*
G04 #@! TA.AperFunction,SMDPad,CuDef*
G36*
G01*
X99725000Y-150443750D02*
X99725000Y-150956250D01*
G75*
G02*
X99506250Y-151175000I-218750J0D01*
G01*
X99068750Y-151175000D01*
G75*
G02*
X98850000Y-150956250I0J218750D01*
G01*
X98850000Y-150443750D01*
G75*
G02*
X99068750Y-150225000I218750J0D01*
G01*
X99506250Y-150225000D01*
G75*
G02*
X99725000Y-150443750I0J-218750D01*
G01*
G37*
G04 #@! TD.AperFunction*
G04 #@! TD*
G04 #@! TO.P,C6,2*
G04 #@! TO.N,Net-(C5-Pad1)*
G04 #@! TA.AperFunction,SMDPad,CuDef*
G36*
G01*
X98150000Y-149043750D02*
X98150000Y-149556250D01*
G75*
G02*
X97931250Y-149775000I-218750J0D01*
G01*
X97493750Y-149775000D01*
G75*
G02*
X97275000Y-149556250I0J218750D01*
G01*
X97275000Y-149043750D01*
G75*
G02*
X97493750Y-148825000I218750J0D01*
G01*
X97931250Y-148825000D01*
G75*
G02*
X98150000Y-149043750I0J-218750D01*
G01*
G37*
G04 #@! TD.AperFunction*
G04 #@! TO.P,C6,1*
G04 #@! TO.N,GND*
G04 #@! TA.AperFunction,SMDPad,CuDef*
G36*
G01*
X99725000Y-149043750D02*
X99725000Y-149556250D01*
G75*
G02*
X99506250Y-149775000I-218750J0D01*
G01*
X99068750Y-149775000D01*
G75*
G02*
X98850000Y-149556250I0J218750D01*
G01*
X98850000Y-149043750D01*
G75*
G02*
X99068750Y-148825000I218750J0D01*
G01*
X99506250Y-148825000D01*
G75*
G02*
X99725000Y-149043750I0J-218750D01*
G01*
G37*
G04 #@! TD.AperFunction*
G04 #@! TD*
D11*
G04 #@! TO.N,Net-(C1-Pad2)*
X79622987Y-148881967D03*
X76500000Y-148874990D03*
X79622987Y-158881967D03*
X76500000Y-158874990D03*
X76500000Y-168874990D03*
X79622987Y-168881967D03*
X79622987Y-138881967D03*
X76500000Y-138874990D03*
X76500000Y-128874990D03*
X79622987Y-128881967D03*
X61877013Y-130618033D03*
X65000000Y-140625010D03*
X61877013Y-170618033D03*
X65000000Y-130625010D03*
X65000000Y-170625010D03*
X61877013Y-140618033D03*
X61877013Y-150618033D03*
X65000000Y-160625010D03*
X61877013Y-160618033D03*
X65000000Y-150625010D03*
G04 #@! TO.N,Net-(C5-Pad1)*
X97400000Y-150000000D03*
X97400000Y-160000000D03*
X97400000Y-170000000D03*
X97400000Y-140000000D03*
X97400000Y-130000000D03*
X44100000Y-139500000D03*
X44100000Y-149500000D03*
X44100000Y-129500000D03*
X44100000Y-159500000D03*
X44100000Y-169500000D03*
G04 #@! TD*
D12*
G04 #@! TO.N,Net-(C1-Pad2)*
X79300000Y-147500000D02*
X80600000Y-148800000D01*
X77500000Y-147500000D02*
X79300000Y-147500000D01*
X79944649Y-148600000D02*
X79500000Y-148600000D01*
X80600000Y-149255351D02*
X79944649Y-148600000D01*
X80600000Y-150000000D02*
X80600000Y-149255351D01*
X80600000Y-151000000D02*
X80600000Y-150000000D01*
X80600000Y-150000000D02*
X80600000Y-148800000D01*
X79704954Y-148800000D02*
X79622987Y-148881967D01*
X80600000Y-148800000D02*
X79704954Y-148800000D01*
X80600000Y-161000000D02*
X80600000Y-160000000D01*
X79704954Y-158800000D02*
X79622987Y-158881967D01*
X80600000Y-159255351D02*
X79944649Y-158600000D01*
X79944649Y-158600000D02*
X79500000Y-158600000D01*
X79300000Y-157500000D02*
X80600000Y-158800000D01*
X80600000Y-158800000D02*
X79704954Y-158800000D01*
X77500000Y-157500000D02*
X79300000Y-157500000D01*
X80600000Y-160000000D02*
X80600000Y-158800000D01*
X80600000Y-160000000D02*
X80600000Y-159255351D01*
X80600000Y-171000000D02*
X80600000Y-170000000D01*
X79300000Y-167500000D02*
X80600000Y-168800000D01*
X80600000Y-170000000D02*
X80600000Y-169255351D01*
X79944649Y-168600000D02*
X79500000Y-168600000D01*
X77500000Y-167500000D02*
X79300000Y-167500000D01*
X80600000Y-170000000D02*
X80600000Y-168800000D01*
X79704954Y-168800000D02*
X79622987Y-168881967D01*
X80600000Y-168800000D02*
X79704954Y-168800000D01*
X80600000Y-169255351D02*
X79944649Y-168600000D01*
X80600000Y-141000000D02*
X80600000Y-140000000D01*
X79704954Y-138800000D02*
X79622987Y-138881967D01*
X80600000Y-139255351D02*
X79944649Y-138600000D01*
X79944649Y-138600000D02*
X79500000Y-138600000D01*
X79300000Y-137500000D02*
X80600000Y-138800000D01*
X80600000Y-138800000D02*
X79704954Y-138800000D01*
X77500000Y-137500000D02*
X79300000Y-137500000D01*
X80600000Y-140000000D02*
X80600000Y-138800000D01*
X80600000Y-140000000D02*
X80600000Y-139255351D01*
X80600000Y-130000000D02*
X80600000Y-129255351D01*
X79300000Y-127500000D02*
X80600000Y-128800000D01*
X77500000Y-127500000D02*
X79300000Y-127500000D01*
X80600000Y-129255351D02*
X79944649Y-128600000D01*
X80600000Y-128800000D02*
X79704954Y-128800000D01*
X80600000Y-130000000D02*
X80600000Y-128800000D01*
X79704954Y-128800000D02*
X79622987Y-128881967D01*
X79944649Y-128600000D02*
X79500000Y-128600000D01*
X80600000Y-131000000D02*
X80600000Y-130000000D01*
X60900000Y-159500000D02*
X60900000Y-160244649D01*
X60900000Y-148500000D02*
X60900000Y-149500000D01*
X62200000Y-162000000D02*
X60900000Y-160700000D01*
X61795046Y-150700000D02*
X61877013Y-150618033D01*
X60900000Y-138500000D02*
X60900000Y-139500000D01*
X60900000Y-150244649D02*
X61555351Y-150900000D01*
X62200000Y-172000000D02*
X60900000Y-170700000D01*
X61555351Y-130900000D02*
X62000000Y-130900000D01*
X60900000Y-128500000D02*
X60900000Y-129500000D01*
X60900000Y-169500000D02*
X60900000Y-170700000D01*
X64000000Y-162000000D02*
X62200000Y-162000000D01*
X60900000Y-160244649D02*
X61555351Y-160900000D01*
X61555351Y-150900000D02*
X62000000Y-150900000D01*
X62200000Y-152000000D02*
X60900000Y-150700000D01*
X62200000Y-142000000D02*
X60900000Y-140700000D01*
X60900000Y-150700000D02*
X61795046Y-150700000D01*
X60900000Y-169500000D02*
X60900000Y-170244649D01*
X60900000Y-160700000D02*
X61795046Y-160700000D01*
X60900000Y-139500000D02*
X60900000Y-140244649D01*
X64000000Y-152000000D02*
X62200000Y-152000000D01*
X61555351Y-140900000D02*
X62000000Y-140900000D01*
X64000000Y-142000000D02*
X62200000Y-142000000D01*
X62200000Y-132000000D02*
X60900000Y-130700000D01*
X60900000Y-149500000D02*
X60900000Y-150700000D01*
X60900000Y-159500000D02*
X60900000Y-160700000D01*
X61555351Y-170900000D02*
X62000000Y-170900000D01*
X64000000Y-132000000D02*
X62200000Y-132000000D01*
X60900000Y-149500000D02*
X60900000Y-150244649D01*
X60900000Y-139500000D02*
X60900000Y-140700000D01*
X60900000Y-130244649D02*
X61555351Y-130900000D01*
X61795046Y-140700000D02*
X61877013Y-140618033D01*
X61795046Y-130700000D02*
X61877013Y-130618033D01*
X60900000Y-130700000D02*
X61795046Y-130700000D01*
X60900000Y-170700000D02*
X61795046Y-170700000D01*
X60900000Y-140700000D02*
X61795046Y-140700000D01*
X64000000Y-172000000D02*
X62200000Y-172000000D01*
X61795046Y-160700000D02*
X61877013Y-160618033D01*
X61555351Y-160900000D02*
X62000000Y-160900000D01*
X60900000Y-140244649D02*
X61555351Y-140900000D01*
X60900000Y-129500000D02*
X60900000Y-130244649D01*
X60900000Y-170244649D02*
X61555351Y-170900000D01*
X60900000Y-168500000D02*
X60900000Y-169500000D01*
X61795046Y-170700000D02*
X61877013Y-170618033D01*
X60900000Y-129500000D02*
X60900000Y-130700000D01*
X60900000Y-158500000D02*
X60900000Y-159500000D01*
G04 #@! TO.N,Net-(C1-Pad1)*
X84000000Y-151000000D02*
X84000000Y-148800000D01*
X84000000Y-148800000D02*
X83400000Y-148800000D01*
X83400000Y-148800000D02*
X83400000Y-151000000D01*
X84000000Y-158800000D02*
X83400000Y-158800000D01*
X83400000Y-158800000D02*
X83400000Y-161000000D01*
X84000000Y-161000000D02*
X84000000Y-158800000D01*
X84000000Y-171000000D02*
X84000000Y-168800000D01*
X83400000Y-168800000D02*
X83400000Y-171000000D01*
X84000000Y-168800000D02*
X83400000Y-168800000D01*
X84000000Y-138800000D02*
X83400000Y-138800000D01*
X83400000Y-138800000D02*
X83400000Y-141000000D01*
X84000000Y-141000000D02*
X84000000Y-138800000D01*
X84000000Y-128800000D02*
X83400000Y-128800000D01*
X84000000Y-131000000D02*
X84000000Y-128800000D01*
X83400000Y-128800000D02*
X83400000Y-131000000D01*
X57500000Y-150700000D02*
X58100000Y-150700000D01*
X57500000Y-138500000D02*
X57500000Y-140700000D01*
X57500000Y-128500000D02*
X57500000Y-130700000D01*
X58100000Y-130700000D02*
X58100000Y-128500000D01*
X58100000Y-170700000D02*
X58100000Y-168500000D01*
X58100000Y-140700000D02*
X58100000Y-138500000D01*
X57500000Y-130700000D02*
X58100000Y-130700000D01*
X58100000Y-150700000D02*
X58100000Y-148500000D01*
X57500000Y-168500000D02*
X57500000Y-170700000D01*
X57500000Y-160700000D02*
X58100000Y-160700000D01*
X57500000Y-158500000D02*
X57500000Y-160700000D01*
X58100000Y-160700000D02*
X58100000Y-158500000D01*
X57500000Y-148500000D02*
X57500000Y-150700000D01*
X57500000Y-170700000D02*
X58100000Y-170700000D01*
X57500000Y-140700000D02*
X58100000Y-140700000D01*
G04 #@! TO.N,Net-(C2-Pad1)*
X87400000Y-151000000D02*
X87400000Y-148800000D01*
X87400000Y-148800000D02*
X86800000Y-148800000D01*
X86800000Y-148800000D02*
X86800000Y-151000000D01*
X86800000Y-158800000D02*
X86800000Y-161000000D01*
X87400000Y-161000000D02*
X87400000Y-158800000D01*
X87400000Y-158800000D02*
X86800000Y-158800000D01*
X86800000Y-168800000D02*
X86800000Y-171000000D01*
X87400000Y-168800000D02*
X86800000Y-168800000D01*
X87400000Y-171000000D02*
X87400000Y-168800000D01*
X86800000Y-138800000D02*
X86800000Y-141000000D01*
X87400000Y-141000000D02*
X87400000Y-138800000D01*
X87400000Y-138800000D02*
X86800000Y-138800000D01*
X86800000Y-128800000D02*
X86800000Y-131000000D01*
X87400000Y-128800000D02*
X86800000Y-128800000D01*
X87400000Y-131000000D02*
X87400000Y-128800000D01*
X54700000Y-170700000D02*
X54700000Y-168500000D01*
X54700000Y-150700000D02*
X54700000Y-148500000D01*
X54100000Y-168500000D02*
X54100000Y-170700000D01*
X54100000Y-130700000D02*
X54700000Y-130700000D01*
X54100000Y-170700000D02*
X54700000Y-170700000D01*
X54700000Y-130700000D02*
X54700000Y-128500000D01*
X54700000Y-140700000D02*
X54700000Y-138500000D01*
X54700000Y-160700000D02*
X54700000Y-158500000D01*
X54100000Y-140700000D02*
X54700000Y-140700000D01*
X54100000Y-160700000D02*
X54700000Y-160700000D01*
X54100000Y-158500000D02*
X54100000Y-160700000D01*
X54100000Y-148500000D02*
X54100000Y-150700000D01*
X54100000Y-138500000D02*
X54100000Y-140700000D01*
X54100000Y-128500000D02*
X54100000Y-130700000D01*
X54100000Y-150700000D02*
X54700000Y-150700000D01*
G04 #@! TO.N,Net-(C3-Pad1)*
X90800000Y-151000000D02*
X90800000Y-148800000D01*
X90800000Y-148800000D02*
X90200000Y-148800000D01*
X90200000Y-148800000D02*
X90200000Y-151000000D01*
X90800000Y-158800000D02*
X90200000Y-158800000D01*
X90200000Y-158800000D02*
X90200000Y-161000000D01*
X90800000Y-161000000D02*
X90800000Y-158800000D01*
X90800000Y-168800000D02*
X90200000Y-168800000D01*
X90800000Y-171000000D02*
X90800000Y-168800000D01*
X90200000Y-168800000D02*
X90200000Y-171000000D01*
X90800000Y-138800000D02*
X90200000Y-138800000D01*
X90200000Y-138800000D02*
X90200000Y-141000000D01*
X90800000Y-141000000D02*
X90800000Y-138800000D01*
X90200000Y-128800000D02*
X90200000Y-131000000D01*
X90800000Y-128800000D02*
X90200000Y-128800000D01*
X90800000Y-131000000D02*
X90800000Y-128800000D01*
X51300000Y-170700000D02*
X51300000Y-168500000D01*
X50700000Y-130700000D02*
X51300000Y-130700000D01*
X50700000Y-150700000D02*
X51300000Y-150700000D01*
X51300000Y-160700000D02*
X51300000Y-158500000D01*
X51300000Y-130700000D02*
X51300000Y-128500000D01*
X50700000Y-170700000D02*
X51300000Y-170700000D01*
X50700000Y-140700000D02*
X51300000Y-140700000D01*
X50700000Y-138500000D02*
X50700000Y-140700000D01*
X51300000Y-150700000D02*
X51300000Y-148500000D01*
X50700000Y-128500000D02*
X50700000Y-130700000D01*
X50700000Y-160700000D02*
X51300000Y-160700000D01*
X51300000Y-140700000D02*
X51300000Y-138500000D01*
X50700000Y-158500000D02*
X50700000Y-160700000D01*
X50700000Y-168500000D02*
X50700000Y-170700000D01*
X50700000Y-148500000D02*
X50700000Y-150700000D01*
G04 #@! TO.N,GND*
X100700000Y-149300000D02*
X101400000Y-150000000D01*
X99287500Y-149300000D02*
X100700000Y-149300000D01*
X100700000Y-150700000D02*
X101400000Y-150000000D01*
X99287500Y-150700000D02*
X100700000Y-150700000D01*
X101312500Y-150087500D02*
X101400000Y-150000000D01*
X99287500Y-150087500D02*
X101312500Y-150087500D01*
X99287500Y-150700000D02*
X99287500Y-150087500D01*
X99287500Y-150087500D02*
X99287500Y-149300000D01*
X101400000Y-150000000D02*
X100000000Y-150000000D01*
X100000000Y-150000000D02*
X99700000Y-149700000D01*
X99287500Y-159300000D02*
X100700000Y-159300000D01*
X100700000Y-160700000D02*
X101400000Y-160000000D01*
X100000000Y-160000000D02*
X99700000Y-159700000D01*
X99287500Y-160087500D02*
X101312500Y-160087500D01*
X99287500Y-160700000D02*
X99287500Y-160087500D01*
X101312500Y-160087500D02*
X101400000Y-160000000D01*
X99287500Y-160087500D02*
X99287500Y-159300000D01*
X99287500Y-160700000D02*
X100700000Y-160700000D01*
X101400000Y-160000000D02*
X100000000Y-160000000D01*
X100700000Y-159300000D02*
X101400000Y-160000000D01*
X99287500Y-170700000D02*
X99287500Y-170087500D01*
X99287500Y-170700000D02*
X100700000Y-170700000D01*
X99287500Y-169300000D02*
X100700000Y-169300000D01*
X101400000Y-170000000D02*
X100000000Y-170000000D01*
X100000000Y-170000000D02*
X99700000Y-169700000D01*
X100700000Y-170700000D02*
X101400000Y-170000000D01*
X100700000Y-169300000D02*
X101400000Y-170000000D01*
X99287500Y-170087500D02*
X101312500Y-170087500D01*
X101312500Y-170087500D02*
X101400000Y-170000000D01*
X99287500Y-170087500D02*
X99287500Y-169300000D01*
X99287500Y-139300000D02*
X100700000Y-139300000D01*
X100700000Y-140700000D02*
X101400000Y-140000000D01*
X100000000Y-140000000D02*
X99700000Y-139700000D01*
X99287500Y-140087500D02*
X101312500Y-140087500D01*
X99287500Y-140700000D02*
X99287500Y-140087500D01*
X101312500Y-140087500D02*
X101400000Y-140000000D01*
X99287500Y-140087500D02*
X99287500Y-139300000D01*
X99287500Y-140700000D02*
X100700000Y-140700000D01*
X101400000Y-140000000D02*
X100000000Y-140000000D01*
X100700000Y-139300000D02*
X101400000Y-140000000D01*
X101400000Y-130000000D02*
X100000000Y-130000000D01*
X100700000Y-129300000D02*
X101400000Y-130000000D01*
X99287500Y-130087500D02*
X101312500Y-130087500D01*
X99287500Y-130700000D02*
X99287500Y-130087500D01*
X100700000Y-130700000D02*
X101400000Y-130000000D01*
X99287500Y-129300000D02*
X100700000Y-129300000D01*
X99287500Y-130700000D02*
X100700000Y-130700000D01*
X99287500Y-130087500D02*
X99287500Y-129300000D01*
X101312500Y-130087500D02*
X101400000Y-130000000D01*
X100000000Y-130000000D02*
X99700000Y-129700000D01*
X42212500Y-128800000D02*
X42212500Y-129412500D01*
X42212500Y-168800000D02*
X40800000Y-168800000D01*
X42212500Y-128800000D02*
X40800000Y-128800000D01*
X40100000Y-159500000D02*
X41500000Y-159500000D01*
X40100000Y-129500000D02*
X41500000Y-129500000D01*
X42212500Y-150200000D02*
X40800000Y-150200000D01*
X40800000Y-128800000D02*
X40100000Y-129500000D01*
X42212500Y-129412500D02*
X42212500Y-130200000D01*
X40800000Y-160200000D02*
X40100000Y-159500000D01*
X42212500Y-138800000D02*
X42212500Y-139412500D01*
X42212500Y-138800000D02*
X40800000Y-138800000D01*
X40800000Y-148800000D02*
X40100000Y-149500000D01*
X40800000Y-130200000D02*
X40100000Y-129500000D01*
X40187500Y-129412500D02*
X40100000Y-129500000D01*
X42212500Y-169412500D02*
X42212500Y-170200000D01*
X42212500Y-159412500D02*
X40187500Y-159412500D01*
X41500000Y-149500000D02*
X41800000Y-149800000D01*
X42212500Y-140200000D02*
X40800000Y-140200000D01*
X42212500Y-149412500D02*
X40187500Y-149412500D01*
X42212500Y-148800000D02*
X42212500Y-149412500D01*
X40187500Y-169412500D02*
X40100000Y-169500000D01*
X42212500Y-158800000D02*
X42212500Y-159412500D01*
X40187500Y-149412500D02*
X40100000Y-149500000D01*
X41500000Y-169500000D02*
X41800000Y-169800000D01*
X42212500Y-169412500D02*
X40187500Y-169412500D01*
X41500000Y-129500000D02*
X41800000Y-129800000D01*
X42212500Y-149412500D02*
X42212500Y-150200000D01*
X40800000Y-158800000D02*
X40100000Y-159500000D01*
X40100000Y-139500000D02*
X41500000Y-139500000D01*
X41500000Y-139500000D02*
X41800000Y-139800000D01*
X42212500Y-168800000D02*
X42212500Y-169412500D01*
X40800000Y-138800000D02*
X40100000Y-139500000D01*
X40800000Y-168800000D02*
X40100000Y-169500000D01*
X42212500Y-160200000D02*
X40800000Y-160200000D01*
X42212500Y-129412500D02*
X40187500Y-129412500D01*
X42212500Y-148800000D02*
X40800000Y-148800000D01*
X42212500Y-158800000D02*
X40800000Y-158800000D01*
X42212500Y-159412500D02*
X42212500Y-160200000D01*
X40800000Y-140200000D02*
X40100000Y-139500000D01*
X42212500Y-170200000D02*
X40800000Y-170200000D01*
X42212500Y-139412500D02*
X40187500Y-139412500D01*
X40100000Y-149500000D02*
X41500000Y-149500000D01*
X40800000Y-150200000D02*
X40100000Y-149500000D01*
X42212500Y-130200000D02*
X40800000Y-130200000D01*
X40187500Y-159412500D02*
X40100000Y-159500000D01*
X40800000Y-170200000D02*
X40100000Y-169500000D01*
X40100000Y-169500000D02*
X41500000Y-169500000D01*
X40187500Y-139412500D02*
X40100000Y-139500000D01*
X42212500Y-139412500D02*
X42212500Y-140200000D01*
X41500000Y-159500000D02*
X41800000Y-159800000D01*
G04 #@! TO.N,Net-(C4-Pad1)*
X94200000Y-151000000D02*
X94200000Y-148800000D01*
X93600000Y-148800000D02*
X93600000Y-151000000D01*
X94200000Y-148800000D02*
X93600000Y-148800000D01*
X94200000Y-161000000D02*
X94200000Y-158800000D01*
X94200000Y-158800000D02*
X93600000Y-158800000D01*
X93600000Y-158800000D02*
X93600000Y-161000000D01*
X94200000Y-171000000D02*
X94200000Y-168800000D01*
X94200000Y-168800000D02*
X93600000Y-168800000D01*
X93600000Y-168800000D02*
X93600000Y-171000000D01*
X94200000Y-141000000D02*
X94200000Y-138800000D01*
X94200000Y-138800000D02*
X93600000Y-138800000D01*
X93600000Y-138800000D02*
X93600000Y-141000000D01*
X94200000Y-128800000D02*
X93600000Y-128800000D01*
X94200000Y-131000000D02*
X94200000Y-128800000D01*
X93600000Y-128800000D02*
X93600000Y-131000000D01*
X47300000Y-170700000D02*
X47900000Y-170700000D01*
X47900000Y-130700000D02*
X47900000Y-128500000D01*
X47300000Y-138500000D02*
X47300000Y-140700000D01*
X47300000Y-160700000D02*
X47900000Y-160700000D01*
X47300000Y-158500000D02*
X47300000Y-160700000D01*
X47900000Y-160700000D02*
X47900000Y-158500000D01*
X47300000Y-148500000D02*
X47300000Y-150700000D01*
X47300000Y-150700000D02*
X47900000Y-150700000D01*
X47300000Y-140700000D02*
X47900000Y-140700000D01*
X47300000Y-168500000D02*
X47300000Y-170700000D01*
X47900000Y-170700000D02*
X47900000Y-168500000D01*
X47300000Y-130700000D02*
X47900000Y-130700000D01*
X47900000Y-150700000D02*
X47900000Y-148500000D01*
X47300000Y-128500000D02*
X47300000Y-130700000D01*
X47900000Y-140700000D02*
X47900000Y-138500000D01*
G04 #@! TO.N,Net-(C5-Pad1)*
X97000000Y-148800000D02*
X97000000Y-151000000D01*
X97712500Y-150700000D02*
X97712500Y-149300000D01*
X97300000Y-150700000D02*
X97000000Y-151000000D01*
X97712500Y-150700000D02*
X97300000Y-150700000D01*
X97712500Y-160700000D02*
X97300000Y-160700000D01*
X97000000Y-158800000D02*
X97000000Y-161000000D01*
X97300000Y-160700000D02*
X97000000Y-161000000D01*
X97712500Y-160700000D02*
X97712500Y-159300000D01*
X97000000Y-168800000D02*
X97000000Y-171000000D01*
X97712500Y-170700000D02*
X97712500Y-169300000D01*
X97712500Y-170700000D02*
X97300000Y-170700000D01*
X97300000Y-170700000D02*
X97000000Y-171000000D01*
X97712500Y-140700000D02*
X97300000Y-140700000D01*
X97000000Y-138800000D02*
X97000000Y-141000000D01*
X97300000Y-140700000D02*
X97000000Y-141000000D01*
X97712500Y-140700000D02*
X97712500Y-139300000D01*
X97000000Y-128800000D02*
X97000000Y-131000000D01*
X97300000Y-130700000D02*
X97000000Y-131000000D01*
X97712500Y-130700000D02*
X97300000Y-130700000D01*
X97712500Y-130700000D02*
X97712500Y-129300000D01*
X43787500Y-148800000D02*
X44200000Y-148800000D01*
X44500000Y-140700000D02*
X44500000Y-138500000D01*
X43787500Y-168800000D02*
X43787500Y-170200000D01*
X44500000Y-160700000D02*
X44500000Y-158500000D01*
X44500000Y-130700000D02*
X44500000Y-128500000D01*
X44200000Y-158800000D02*
X44500000Y-158500000D01*
X44500000Y-150700000D02*
X44500000Y-148500000D01*
X43787500Y-138800000D02*
X43787500Y-140200000D01*
X43787500Y-138800000D02*
X44200000Y-138800000D01*
X43787500Y-128800000D02*
X44200000Y-128800000D01*
X44200000Y-138800000D02*
X44500000Y-138500000D01*
X44200000Y-168800000D02*
X44500000Y-168500000D01*
X43787500Y-168800000D02*
X44200000Y-168800000D01*
X44200000Y-128800000D02*
X44500000Y-128500000D01*
X44200000Y-148800000D02*
X44500000Y-148500000D01*
X43787500Y-128800000D02*
X43787500Y-130200000D01*
X43787500Y-148800000D02*
X43787500Y-150200000D01*
X43787500Y-158800000D02*
X44200000Y-158800000D01*
X44500000Y-170700000D02*
X44500000Y-168500000D01*
X43787500Y-158800000D02*
X43787500Y-160200000D01*
G04 #@! TD*
D13*
G04 #@! TO.N,Net-(C1-Pad2)*
X79558237Y-126132371D02*
X79839124Y-126177000D01*
X80085033Y-126267613D01*
X80308660Y-126404266D01*
X80400000Y-126488340D01*
X80400000Y-132141186D01*
X80377786Y-132123068D01*
X80356211Y-132096989D01*
X80340111Y-132067213D01*
X80330101Y-132034875D01*
X80325000Y-131986342D01*
X80325000Y-129984039D01*
X80323629Y-129970116D01*
X80323650Y-129967055D01*
X80323208Y-129962538D01*
X80313008Y-129865490D01*
X80307083Y-129836629D01*
X80301565Y-129807701D01*
X80300254Y-129803356D01*
X80271398Y-129710137D01*
X80259969Y-129682950D01*
X80248947Y-129655669D01*
X80246817Y-129651662D01*
X80200404Y-129565825D01*
X80183936Y-129541411D01*
X80167803Y-129516758D01*
X80164935Y-129513241D01*
X80102733Y-129438052D01*
X80081827Y-129417292D01*
X80061225Y-129396253D01*
X80057728Y-129393360D01*
X79982108Y-129331684D01*
X79957576Y-129315385D01*
X79933264Y-129298739D01*
X79929273Y-129296580D01*
X79843112Y-129250768D01*
X79815861Y-129239536D01*
X79788807Y-129227941D01*
X79784472Y-129226599D01*
X79691054Y-129198394D01*
X79662163Y-129192674D01*
X79633344Y-129186548D01*
X79628830Y-129186073D01*
X79531713Y-129176551D01*
X79531708Y-129176551D01*
X79515961Y-129175000D01*
X73584039Y-129175000D01*
X73570116Y-129176371D01*
X73567055Y-129176350D01*
X73562538Y-129176792D01*
X73465490Y-129186992D01*
X73436629Y-129192917D01*
X73407701Y-129198435D01*
X73403356Y-129199746D01*
X73310137Y-129228602D01*
X73282950Y-129240031D01*
X73255669Y-129251053D01*
X73251662Y-129253183D01*
X73165825Y-129299596D01*
X73141411Y-129316064D01*
X73116758Y-129332197D01*
X73113241Y-129335065D01*
X73038052Y-129397267D01*
X73017292Y-129418173D01*
X72996253Y-129438775D01*
X72993360Y-129442272D01*
X72993356Y-129442276D01*
X72931684Y-129517892D01*
X72915385Y-129542424D01*
X72898739Y-129566736D01*
X72896580Y-129570727D01*
X72850768Y-129656888D01*
X72839536Y-129684139D01*
X72827941Y-129711193D01*
X72826599Y-129715528D01*
X72798394Y-129808946D01*
X72792674Y-129837837D01*
X72786548Y-129866656D01*
X72786073Y-129871170D01*
X72776551Y-129968287D01*
X72776551Y-129968293D01*
X72775000Y-129984040D01*
X72775001Y-135315961D01*
X72776371Y-135329875D01*
X72776350Y-135332946D01*
X72776792Y-135337462D01*
X72786992Y-135434511D01*
X72792919Y-135463385D01*
X72798435Y-135492299D01*
X72799746Y-135496644D01*
X72828602Y-135589863D01*
X72840036Y-135617063D01*
X72851053Y-135644330D01*
X72853183Y-135648337D01*
X72899596Y-135734175D01*
X72916069Y-135758597D01*
X72932197Y-135783242D01*
X72935065Y-135786759D01*
X72997266Y-135861948D01*
X73018192Y-135882728D01*
X73038775Y-135903747D01*
X73042271Y-135906640D01*
X73117892Y-135968316D01*
X73142439Y-135984625D01*
X73166736Y-136001261D01*
X73170727Y-136003420D01*
X73256888Y-136049232D01*
X73284139Y-136060464D01*
X73311193Y-136072059D01*
X73315528Y-136073401D01*
X73408946Y-136101606D01*
X73437845Y-136107328D01*
X73466657Y-136113452D01*
X73471170Y-136113927D01*
X73568287Y-136123449D01*
X73568292Y-136123449D01*
X73584039Y-136125000D01*
X79483927Y-136125000D01*
X79558237Y-136132371D01*
X79839124Y-136177000D01*
X80085033Y-136267613D01*
X80308660Y-136404266D01*
X80400000Y-136488340D01*
X80400000Y-142141186D01*
X80377786Y-142123068D01*
X80356211Y-142096989D01*
X80340111Y-142067213D01*
X80330101Y-142034875D01*
X80325000Y-141986342D01*
X80325000Y-139984039D01*
X80323629Y-139970116D01*
X80323650Y-139967055D01*
X80323208Y-139962538D01*
X80313008Y-139865490D01*
X80307083Y-139836629D01*
X80301565Y-139807701D01*
X80300254Y-139803356D01*
X80271398Y-139710137D01*
X80259969Y-139682950D01*
X80248947Y-139655669D01*
X80246817Y-139651662D01*
X80200404Y-139565825D01*
X80183936Y-139541411D01*
X80167803Y-139516758D01*
X80164935Y-139513241D01*
X80102733Y-139438052D01*
X80081827Y-139417292D01*
X80061225Y-139396253D01*
X80057728Y-139393360D01*
X79982108Y-139331684D01*
X79957576Y-139315385D01*
X79933264Y-139298739D01*
X79929273Y-139296580D01*
X79843112Y-139250768D01*
X79815861Y-139239536D01*
X79788807Y-139227941D01*
X79784472Y-139226599D01*
X79691054Y-139198394D01*
X79662163Y-139192674D01*
X79633344Y-139186548D01*
X79628830Y-139186073D01*
X79531713Y-139176551D01*
X79531708Y-139176551D01*
X79515961Y-139175000D01*
X73584039Y-139175000D01*
X73570116Y-139176371D01*
X73567055Y-139176350D01*
X73562538Y-139176792D01*
X73465490Y-139186992D01*
X73436629Y-139192917D01*
X73407701Y-139198435D01*
X73403356Y-139199746D01*
X73310137Y-139228602D01*
X73282950Y-139240031D01*
X73255669Y-139251053D01*
X73251662Y-139253183D01*
X73165825Y-139299596D01*
X73141411Y-139316064D01*
X73116758Y-139332197D01*
X73113241Y-139335065D01*
X73038052Y-139397267D01*
X73017292Y-139418173D01*
X72996253Y-139438775D01*
X72993360Y-139442272D01*
X72993356Y-139442276D01*
X72931684Y-139517892D01*
X72915385Y-139542424D01*
X72898739Y-139566736D01*
X72896580Y-139570727D01*
X72850768Y-139656888D01*
X72839536Y-139684139D01*
X72827941Y-139711193D01*
X72826599Y-139715528D01*
X72798394Y-139808946D01*
X72792674Y-139837837D01*
X72786548Y-139866656D01*
X72786073Y-139871170D01*
X72776551Y-139968287D01*
X72776551Y-139968293D01*
X72775000Y-139984040D01*
X72775001Y-145315961D01*
X72776371Y-145329875D01*
X72776350Y-145332946D01*
X72776792Y-145337462D01*
X72786992Y-145434511D01*
X72792919Y-145463385D01*
X72798435Y-145492299D01*
X72799746Y-145496644D01*
X72828602Y-145589863D01*
X72840036Y-145617063D01*
X72851053Y-145644330D01*
X72853183Y-145648337D01*
X72899596Y-145734175D01*
X72916069Y-145758597D01*
X72932197Y-145783242D01*
X72935065Y-145786759D01*
X72997266Y-145861948D01*
X73018192Y-145882728D01*
X73038775Y-145903747D01*
X73042271Y-145906640D01*
X73117892Y-145968316D01*
X73142439Y-145984625D01*
X73166736Y-146001261D01*
X73170727Y-146003420D01*
X73256888Y-146049232D01*
X73284139Y-146060464D01*
X73311193Y-146072059D01*
X73315528Y-146073401D01*
X73408946Y-146101606D01*
X73437845Y-146107328D01*
X73466657Y-146113452D01*
X73471170Y-146113927D01*
X73568287Y-146123449D01*
X73568292Y-146123449D01*
X73584039Y-146125000D01*
X79483927Y-146125000D01*
X79558237Y-146132371D01*
X79839124Y-146177000D01*
X80085033Y-146267613D01*
X80308660Y-146404266D01*
X80400000Y-146488340D01*
X80400000Y-152141186D01*
X80377786Y-152123068D01*
X80356211Y-152096989D01*
X80340111Y-152067213D01*
X80330101Y-152034875D01*
X80325000Y-151986342D01*
X80325000Y-149984039D01*
X80323629Y-149970116D01*
X80323650Y-149967055D01*
X80323208Y-149962538D01*
X80313008Y-149865490D01*
X80307083Y-149836629D01*
X80301565Y-149807701D01*
X80300254Y-149803356D01*
X80271398Y-149710137D01*
X80259969Y-149682950D01*
X80248947Y-149655669D01*
X80246817Y-149651662D01*
X80200404Y-149565825D01*
X80183936Y-149541411D01*
X80167803Y-149516758D01*
X80164935Y-149513241D01*
X80102733Y-149438052D01*
X80081827Y-149417292D01*
X80061225Y-149396253D01*
X80057728Y-149393360D01*
X79982108Y-149331684D01*
X79957576Y-149315385D01*
X79933264Y-149298739D01*
X79929273Y-149296580D01*
X79843112Y-149250768D01*
X79815861Y-149239536D01*
X79788807Y-149227941D01*
X79784472Y-149226599D01*
X79691054Y-149198394D01*
X79662163Y-149192674D01*
X79633344Y-149186548D01*
X79628830Y-149186073D01*
X79531713Y-149176551D01*
X79531708Y-149176551D01*
X79515961Y-149175000D01*
X73584039Y-149175000D01*
X73570116Y-149176371D01*
X73567055Y-149176350D01*
X73562538Y-149176792D01*
X73465490Y-149186992D01*
X73436629Y-149192917D01*
X73407701Y-149198435D01*
X73403356Y-149199746D01*
X73310137Y-149228602D01*
X73282950Y-149240031D01*
X73255669Y-149251053D01*
X73251662Y-149253183D01*
X73165825Y-149299596D01*
X73141411Y-149316064D01*
X73116758Y-149332197D01*
X73113241Y-149335065D01*
X73038052Y-149397267D01*
X73017292Y-149418173D01*
X72996253Y-149438775D01*
X72993360Y-149442272D01*
X72993356Y-149442276D01*
X72931684Y-149517892D01*
X72915385Y-149542424D01*
X72898739Y-149566736D01*
X72896580Y-149570727D01*
X72850768Y-149656888D01*
X72839536Y-149684139D01*
X72827941Y-149711193D01*
X72826599Y-149715528D01*
X72798394Y-149808946D01*
X72792674Y-149837837D01*
X72786548Y-149866656D01*
X72786073Y-149871170D01*
X72776551Y-149968287D01*
X72776551Y-149968293D01*
X72775000Y-149984040D01*
X72775001Y-155315961D01*
X72776371Y-155329875D01*
X72776350Y-155332946D01*
X72776792Y-155337462D01*
X72786992Y-155434511D01*
X72792919Y-155463385D01*
X72798435Y-155492299D01*
X72799746Y-155496644D01*
X72828602Y-155589863D01*
X72840036Y-155617063D01*
X72851053Y-155644330D01*
X72853183Y-155648337D01*
X72899596Y-155734175D01*
X72916069Y-155758597D01*
X72932197Y-155783242D01*
X72935065Y-155786759D01*
X72997266Y-155861948D01*
X73018192Y-155882728D01*
X73038775Y-155903747D01*
X73042271Y-155906640D01*
X73117892Y-155968316D01*
X73142439Y-155984625D01*
X73166736Y-156001261D01*
X73170727Y-156003420D01*
X73256888Y-156049232D01*
X73284139Y-156060464D01*
X73311193Y-156072059D01*
X73315528Y-156073401D01*
X73408946Y-156101606D01*
X73437845Y-156107328D01*
X73466657Y-156113452D01*
X73471170Y-156113927D01*
X73568287Y-156123449D01*
X73568292Y-156123449D01*
X73584039Y-156125000D01*
X79483927Y-156125000D01*
X79558237Y-156132371D01*
X79839124Y-156177000D01*
X80085033Y-156267613D01*
X80308660Y-156404266D01*
X80400000Y-156488340D01*
X80400000Y-162141186D01*
X80377786Y-162123068D01*
X80356211Y-162096989D01*
X80340111Y-162067213D01*
X80330101Y-162034875D01*
X80325000Y-161986342D01*
X80325000Y-159984039D01*
X80323629Y-159970116D01*
X80323650Y-159967055D01*
X80323208Y-159962538D01*
X80313008Y-159865490D01*
X80307083Y-159836629D01*
X80301565Y-159807701D01*
X80300254Y-159803356D01*
X80271398Y-159710137D01*
X80259969Y-159682950D01*
X80248947Y-159655669D01*
X80246817Y-159651662D01*
X80200404Y-159565825D01*
X80183936Y-159541411D01*
X80167803Y-159516758D01*
X80164935Y-159513241D01*
X80102733Y-159438052D01*
X80081827Y-159417292D01*
X80061225Y-159396253D01*
X80057728Y-159393360D01*
X79982108Y-159331684D01*
X79957576Y-159315385D01*
X79933264Y-159298739D01*
X79929273Y-159296580D01*
X79843112Y-159250768D01*
X79815861Y-159239536D01*
X79788807Y-159227941D01*
X79784472Y-159226599D01*
X79691054Y-159198394D01*
X79662163Y-159192674D01*
X79633344Y-159186548D01*
X79628830Y-159186073D01*
X79531713Y-159176551D01*
X79531708Y-159176551D01*
X79515961Y-159175000D01*
X73584039Y-159175000D01*
X73570116Y-159176371D01*
X73567055Y-159176350D01*
X73562538Y-159176792D01*
X73465490Y-159186992D01*
X73436629Y-159192917D01*
X73407701Y-159198435D01*
X73403356Y-159199746D01*
X73310137Y-159228602D01*
X73282950Y-159240031D01*
X73255669Y-159251053D01*
X73251662Y-159253183D01*
X73165825Y-159299596D01*
X73141411Y-159316064D01*
X73116758Y-159332197D01*
X73113241Y-159335065D01*
X73038052Y-159397267D01*
X73017292Y-159418173D01*
X72996253Y-159438775D01*
X72993360Y-159442272D01*
X72993356Y-159442276D01*
X72931684Y-159517892D01*
X72915385Y-159542424D01*
X72898739Y-159566736D01*
X72896580Y-159570727D01*
X72850768Y-159656888D01*
X72839536Y-159684139D01*
X72827941Y-159711193D01*
X72826599Y-159715528D01*
X72798394Y-159808946D01*
X72792674Y-159837837D01*
X72786548Y-159866656D01*
X72786073Y-159871170D01*
X72776551Y-159968287D01*
X72776551Y-159968293D01*
X72775000Y-159984040D01*
X72775001Y-165315961D01*
X72776371Y-165329875D01*
X72776350Y-165332946D01*
X72776792Y-165337462D01*
X72786992Y-165434511D01*
X72792919Y-165463385D01*
X72798435Y-165492299D01*
X72799746Y-165496644D01*
X72828602Y-165589863D01*
X72840036Y-165617063D01*
X72851053Y-165644330D01*
X72853183Y-165648337D01*
X72899596Y-165734175D01*
X72916069Y-165758597D01*
X72932197Y-165783242D01*
X72935065Y-165786759D01*
X72997266Y-165861948D01*
X73018192Y-165882728D01*
X73038775Y-165903747D01*
X73042271Y-165906640D01*
X73117892Y-165968316D01*
X73142439Y-165984625D01*
X73166736Y-166001261D01*
X73170727Y-166003420D01*
X73256888Y-166049232D01*
X73284139Y-166060464D01*
X73311193Y-166072059D01*
X73315528Y-166073401D01*
X73408946Y-166101606D01*
X73437845Y-166107328D01*
X73466657Y-166113452D01*
X73471170Y-166113927D01*
X73568287Y-166123449D01*
X73568292Y-166123449D01*
X73584039Y-166125000D01*
X79483927Y-166125000D01*
X79558237Y-166132371D01*
X79839124Y-166177000D01*
X80085033Y-166267613D01*
X80308660Y-166404266D01*
X80400000Y-166488340D01*
X80400000Y-172141186D01*
X80377786Y-172123068D01*
X80356211Y-172096989D01*
X80340111Y-172067213D01*
X80330101Y-172034875D01*
X80325000Y-171986342D01*
X80325000Y-169984039D01*
X80323629Y-169970116D01*
X80323650Y-169967055D01*
X80323208Y-169962538D01*
X80313008Y-169865490D01*
X80307083Y-169836629D01*
X80301565Y-169807701D01*
X80300254Y-169803356D01*
X80271398Y-169710137D01*
X80259969Y-169682950D01*
X80248947Y-169655669D01*
X80246817Y-169651662D01*
X80200404Y-169565825D01*
X80183936Y-169541411D01*
X80167803Y-169516758D01*
X80164935Y-169513241D01*
X80102733Y-169438052D01*
X80081827Y-169417292D01*
X80061225Y-169396253D01*
X80057728Y-169393360D01*
X79982108Y-169331684D01*
X79957576Y-169315385D01*
X79933264Y-169298739D01*
X79929273Y-169296580D01*
X79843112Y-169250768D01*
X79815861Y-169239536D01*
X79788807Y-169227941D01*
X79784472Y-169226599D01*
X79691054Y-169198394D01*
X79662163Y-169192674D01*
X79633344Y-169186548D01*
X79628830Y-169186073D01*
X79531713Y-169176551D01*
X79531708Y-169176551D01*
X79515961Y-169175000D01*
X73584039Y-169175000D01*
X73570116Y-169176371D01*
X73567055Y-169176350D01*
X73562538Y-169176792D01*
X73465490Y-169186992D01*
X73436629Y-169192917D01*
X73407701Y-169198435D01*
X73403356Y-169199746D01*
X73310137Y-169228602D01*
X73282950Y-169240031D01*
X73255669Y-169251053D01*
X73251662Y-169253183D01*
X73165825Y-169299596D01*
X73141411Y-169316064D01*
X73116758Y-169332197D01*
X73113241Y-169335065D01*
X73038052Y-169397267D01*
X73017292Y-169418173D01*
X72996253Y-169438775D01*
X72993360Y-169442272D01*
X72993356Y-169442276D01*
X72931684Y-169517892D01*
X72915385Y-169542424D01*
X72898739Y-169566736D01*
X72896580Y-169570727D01*
X72850768Y-169656888D01*
X72839536Y-169684139D01*
X72827941Y-169711193D01*
X72826599Y-169715528D01*
X72798394Y-169808946D01*
X72792674Y-169837837D01*
X72786548Y-169866656D01*
X72786073Y-169871170D01*
X72776551Y-169968287D01*
X72776551Y-169968293D01*
X72775000Y-169984040D01*
X72775001Y-173184096D01*
X72770139Y-173233689D01*
X72760356Y-173266090D01*
X72744462Y-173295984D01*
X72723068Y-173322214D01*
X72696989Y-173343789D01*
X72667213Y-173359889D01*
X72634875Y-173369899D01*
X72586342Y-173375000D01*
X62016072Y-173375000D01*
X61941764Y-173367629D01*
X61660877Y-173323000D01*
X61414964Y-173232385D01*
X61191340Y-173095734D01*
X61100000Y-173011660D01*
X61100000Y-167358814D01*
X61122213Y-167376932D01*
X61143791Y-167403015D01*
X61159888Y-167432786D01*
X61169899Y-167465125D01*
X61175000Y-167513659D01*
X61175001Y-169515961D01*
X61176371Y-169529875D01*
X61176350Y-169532946D01*
X61176792Y-169537462D01*
X61186992Y-169634511D01*
X61192919Y-169663385D01*
X61198435Y-169692299D01*
X61199746Y-169696644D01*
X61228602Y-169789863D01*
X61240036Y-169817063D01*
X61251053Y-169844330D01*
X61253183Y-169848337D01*
X61299596Y-169934175D01*
X61316069Y-169958597D01*
X61332197Y-169983242D01*
X61335065Y-169986759D01*
X61397266Y-170061948D01*
X61418192Y-170082728D01*
X61438775Y-170103747D01*
X61442271Y-170106640D01*
X61517892Y-170168316D01*
X61542439Y-170184625D01*
X61566736Y-170201261D01*
X61570727Y-170203420D01*
X61656888Y-170249232D01*
X61684139Y-170260464D01*
X61711193Y-170272059D01*
X61715528Y-170273401D01*
X61808946Y-170301606D01*
X61837845Y-170307328D01*
X61866657Y-170313452D01*
X61871170Y-170313927D01*
X61968287Y-170323449D01*
X61968292Y-170323449D01*
X61984039Y-170325000D01*
X67915961Y-170325000D01*
X67929884Y-170323629D01*
X67932946Y-170323650D01*
X67937462Y-170323208D01*
X68034511Y-170313008D01*
X68063385Y-170307081D01*
X68092299Y-170301565D01*
X68096644Y-170300254D01*
X68189863Y-170271398D01*
X68217063Y-170259964D01*
X68244330Y-170248947D01*
X68248337Y-170246817D01*
X68334175Y-170200404D01*
X68358597Y-170183931D01*
X68383242Y-170167803D01*
X68386759Y-170164935D01*
X68461948Y-170102734D01*
X68482728Y-170081808D01*
X68503747Y-170061225D01*
X68506640Y-170057729D01*
X68568316Y-169982108D01*
X68584625Y-169957561D01*
X68601261Y-169933264D01*
X68603420Y-169929273D01*
X68649232Y-169843112D01*
X68660464Y-169815861D01*
X68672059Y-169788807D01*
X68673401Y-169784472D01*
X68701606Y-169691054D01*
X68707328Y-169662155D01*
X68713452Y-169633343D01*
X68713927Y-169628830D01*
X68723449Y-169531713D01*
X68723449Y-169531708D01*
X68725000Y-169515961D01*
X68725000Y-164184039D01*
X68723629Y-164170116D01*
X68723650Y-164167055D01*
X68723208Y-164162538D01*
X68713008Y-164065490D01*
X68707083Y-164036629D01*
X68701565Y-164007701D01*
X68700254Y-164003356D01*
X68671398Y-163910137D01*
X68659969Y-163882950D01*
X68648947Y-163855669D01*
X68646817Y-163851662D01*
X68600404Y-163765825D01*
X68583936Y-163741411D01*
X68567803Y-163716758D01*
X68564935Y-163713241D01*
X68502733Y-163638052D01*
X68481827Y-163617292D01*
X68461225Y-163596253D01*
X68457728Y-163593360D01*
X68382108Y-163531684D01*
X68357576Y-163515385D01*
X68333264Y-163498739D01*
X68329273Y-163496580D01*
X68243112Y-163450768D01*
X68215861Y-163439536D01*
X68188807Y-163427941D01*
X68184472Y-163426599D01*
X68091054Y-163398394D01*
X68062163Y-163392674D01*
X68033344Y-163386548D01*
X68028830Y-163386073D01*
X67931713Y-163376551D01*
X67931708Y-163376551D01*
X67915961Y-163375000D01*
X62016072Y-163375000D01*
X61941764Y-163367629D01*
X61660877Y-163323000D01*
X61414964Y-163232385D01*
X61191340Y-163095734D01*
X61100000Y-163011660D01*
X61100000Y-157358814D01*
X61122213Y-157376932D01*
X61143791Y-157403015D01*
X61159888Y-157432786D01*
X61169899Y-157465125D01*
X61175000Y-157513659D01*
X61175001Y-159515961D01*
X61176371Y-159529875D01*
X61176350Y-159532946D01*
X61176792Y-159537462D01*
X61186992Y-159634511D01*
X61192919Y-159663385D01*
X61198435Y-159692299D01*
X61199746Y-159696644D01*
X61228602Y-159789863D01*
X61240036Y-159817063D01*
X61251053Y-159844330D01*
X61253183Y-159848337D01*
X61299596Y-159934175D01*
X61316069Y-159958597D01*
X61332197Y-159983242D01*
X61335065Y-159986759D01*
X61397266Y-160061948D01*
X61418192Y-160082728D01*
X61438775Y-160103747D01*
X61442271Y-160106640D01*
X61517892Y-160168316D01*
X61542439Y-160184625D01*
X61566736Y-160201261D01*
X61570727Y-160203420D01*
X61656888Y-160249232D01*
X61684139Y-160260464D01*
X61711193Y-160272059D01*
X61715528Y-160273401D01*
X61808946Y-160301606D01*
X61837845Y-160307328D01*
X61866657Y-160313452D01*
X61871170Y-160313927D01*
X61968287Y-160323449D01*
X61968292Y-160323449D01*
X61984039Y-160325000D01*
X67915961Y-160325000D01*
X67929884Y-160323629D01*
X67932946Y-160323650D01*
X67937462Y-160323208D01*
X68034511Y-160313008D01*
X68063385Y-160307081D01*
X68092299Y-160301565D01*
X68096644Y-160300254D01*
X68189863Y-160271398D01*
X68217063Y-160259964D01*
X68244330Y-160248947D01*
X68248337Y-160246817D01*
X68334175Y-160200404D01*
X68358597Y-160183931D01*
X68383242Y-160167803D01*
X68386759Y-160164935D01*
X68461948Y-160102734D01*
X68482728Y-160081808D01*
X68503747Y-160061225D01*
X68506640Y-160057729D01*
X68568316Y-159982108D01*
X68584625Y-159957561D01*
X68601261Y-159933264D01*
X68603420Y-159929273D01*
X68649232Y-159843112D01*
X68660464Y-159815861D01*
X68672059Y-159788807D01*
X68673401Y-159784472D01*
X68701606Y-159691054D01*
X68707328Y-159662155D01*
X68713452Y-159633343D01*
X68713927Y-159628830D01*
X68723449Y-159531713D01*
X68723449Y-159531708D01*
X68725000Y-159515961D01*
X68725000Y-154184039D01*
X68723629Y-154170116D01*
X68723650Y-154167055D01*
X68723208Y-154162538D01*
X68713008Y-154065490D01*
X68707083Y-154036629D01*
X68701565Y-154007701D01*
X68700254Y-154003356D01*
X68671398Y-153910137D01*
X68659969Y-153882950D01*
X68648947Y-153855669D01*
X68646817Y-153851662D01*
X68600404Y-153765825D01*
X68583936Y-153741411D01*
X68567803Y-153716758D01*
X68564935Y-153713241D01*
X68502733Y-153638052D01*
X68481827Y-153617292D01*
X68461225Y-153596253D01*
X68457728Y-153593360D01*
X68382108Y-153531684D01*
X68357576Y-153515385D01*
X68333264Y-153498739D01*
X68329273Y-153496580D01*
X68243112Y-153450768D01*
X68215861Y-153439536D01*
X68188807Y-153427941D01*
X68184472Y-153426599D01*
X68091054Y-153398394D01*
X68062163Y-153392674D01*
X68033344Y-153386548D01*
X68028830Y-153386073D01*
X67931713Y-153376551D01*
X67931708Y-153376551D01*
X67915961Y-153375000D01*
X62016072Y-153375000D01*
X61941764Y-153367629D01*
X61660877Y-153323000D01*
X61414964Y-153232385D01*
X61191340Y-153095734D01*
X61100000Y-153011660D01*
X61100000Y-147358814D01*
X61122213Y-147376932D01*
X61143791Y-147403015D01*
X61159888Y-147432786D01*
X61169899Y-147465125D01*
X61175000Y-147513659D01*
X61175001Y-149515961D01*
X61176371Y-149529875D01*
X61176350Y-149532946D01*
X61176792Y-149537462D01*
X61186992Y-149634511D01*
X61192919Y-149663385D01*
X61198435Y-149692299D01*
X61199746Y-149696644D01*
X61228602Y-149789863D01*
X61240036Y-149817063D01*
X61251053Y-149844330D01*
X61253183Y-149848337D01*
X61299596Y-149934175D01*
X61316069Y-149958597D01*
X61332197Y-149983242D01*
X61335065Y-149986759D01*
X61397266Y-150061948D01*
X61418192Y-150082728D01*
X61438775Y-150103747D01*
X61442271Y-150106640D01*
X61517892Y-150168316D01*
X61542439Y-150184625D01*
X61566736Y-150201261D01*
X61570727Y-150203420D01*
X61656888Y-150249232D01*
X61684139Y-150260464D01*
X61711193Y-150272059D01*
X61715528Y-150273401D01*
X61808946Y-150301606D01*
X61837845Y-150307328D01*
X61866657Y-150313452D01*
X61871170Y-150313927D01*
X61968287Y-150323449D01*
X61968292Y-150323449D01*
X61984039Y-150325000D01*
X67915961Y-150325000D01*
X67929884Y-150323629D01*
X67932946Y-150323650D01*
X67937462Y-150323208D01*
X68034511Y-150313008D01*
X68063385Y-150307081D01*
X68092299Y-150301565D01*
X68096644Y-150300254D01*
X68189863Y-150271398D01*
X68217063Y-150259964D01*
X68244330Y-150248947D01*
X68248337Y-150246817D01*
X68334175Y-150200404D01*
X68358597Y-150183931D01*
X68383242Y-150167803D01*
X68386759Y-150164935D01*
X68461948Y-150102734D01*
X68482728Y-150081808D01*
X68503747Y-150061225D01*
X68506640Y-150057729D01*
X68568316Y-149982108D01*
X68584625Y-149957561D01*
X68601261Y-149933264D01*
X68603420Y-149929273D01*
X68649232Y-149843112D01*
X68660464Y-149815861D01*
X68672059Y-149788807D01*
X68673401Y-149784472D01*
X68701606Y-149691054D01*
X68707328Y-149662155D01*
X68713452Y-149633343D01*
X68713927Y-149628830D01*
X68723449Y-149531713D01*
X68723449Y-149531708D01*
X68725000Y-149515961D01*
X68725000Y-144184039D01*
X68723629Y-144170116D01*
X68723650Y-144167055D01*
X68723208Y-144162538D01*
X68713008Y-144065490D01*
X68707083Y-144036629D01*
X68701565Y-144007701D01*
X68700254Y-144003356D01*
X68671398Y-143910137D01*
X68659969Y-143882950D01*
X68648947Y-143855669D01*
X68646817Y-143851662D01*
X68600404Y-143765825D01*
X68583936Y-143741411D01*
X68567803Y-143716758D01*
X68564935Y-143713241D01*
X68502733Y-143638052D01*
X68481827Y-143617292D01*
X68461225Y-143596253D01*
X68457728Y-143593360D01*
X68382108Y-143531684D01*
X68357576Y-143515385D01*
X68333264Y-143498739D01*
X68329273Y-143496580D01*
X68243112Y-143450768D01*
X68215861Y-143439536D01*
X68188807Y-143427941D01*
X68184472Y-143426599D01*
X68091054Y-143398394D01*
X68062163Y-143392674D01*
X68033344Y-143386548D01*
X68028830Y-143386073D01*
X67931713Y-143376551D01*
X67931708Y-143376551D01*
X67915961Y-143375000D01*
X62016072Y-143375000D01*
X61941764Y-143367629D01*
X61660877Y-143323000D01*
X61414964Y-143232385D01*
X61191340Y-143095734D01*
X61100000Y-143011660D01*
X61100000Y-137358814D01*
X61122213Y-137376932D01*
X61143791Y-137403015D01*
X61159888Y-137432786D01*
X61169899Y-137465125D01*
X61175000Y-137513659D01*
X61175001Y-139515961D01*
X61176371Y-139529875D01*
X61176350Y-139532946D01*
X61176792Y-139537462D01*
X61186992Y-139634511D01*
X61192919Y-139663385D01*
X61198435Y-139692299D01*
X61199746Y-139696644D01*
X61228602Y-139789863D01*
X61240036Y-139817063D01*
X61251053Y-139844330D01*
X61253183Y-139848337D01*
X61299596Y-139934175D01*
X61316069Y-139958597D01*
X61332197Y-139983242D01*
X61335065Y-139986759D01*
X61397266Y-140061948D01*
X61418192Y-140082728D01*
X61438775Y-140103747D01*
X61442271Y-140106640D01*
X61517892Y-140168316D01*
X61542439Y-140184625D01*
X61566736Y-140201261D01*
X61570727Y-140203420D01*
X61656888Y-140249232D01*
X61684139Y-140260464D01*
X61711193Y-140272059D01*
X61715528Y-140273401D01*
X61808946Y-140301606D01*
X61837845Y-140307328D01*
X61866657Y-140313452D01*
X61871170Y-140313927D01*
X61968287Y-140323449D01*
X61968292Y-140323449D01*
X61984039Y-140325000D01*
X67915961Y-140325000D01*
X67929884Y-140323629D01*
X67932946Y-140323650D01*
X67937462Y-140323208D01*
X68034511Y-140313008D01*
X68063385Y-140307081D01*
X68092299Y-140301565D01*
X68096644Y-140300254D01*
X68189863Y-140271398D01*
X68217063Y-140259964D01*
X68244330Y-140248947D01*
X68248337Y-140246817D01*
X68334175Y-140200404D01*
X68358597Y-140183931D01*
X68383242Y-140167803D01*
X68386759Y-140164935D01*
X68461948Y-140102734D01*
X68482728Y-140081808D01*
X68503747Y-140061225D01*
X68506640Y-140057729D01*
X68568316Y-139982108D01*
X68584625Y-139957561D01*
X68601261Y-139933264D01*
X68603420Y-139929273D01*
X68649232Y-139843112D01*
X68660464Y-139815861D01*
X68672059Y-139788807D01*
X68673401Y-139784472D01*
X68701606Y-139691054D01*
X68707328Y-139662155D01*
X68713452Y-139633343D01*
X68713927Y-139628830D01*
X68723449Y-139531713D01*
X68723449Y-139531708D01*
X68725000Y-139515961D01*
X68725000Y-134184039D01*
X68723629Y-134170116D01*
X68723650Y-134167055D01*
X68723208Y-134162538D01*
X68713008Y-134065490D01*
X68707083Y-134036629D01*
X68701565Y-134007701D01*
X68700254Y-134003356D01*
X68671398Y-133910137D01*
X68659969Y-133882950D01*
X68648947Y-133855669D01*
X68646817Y-133851662D01*
X68600404Y-133765825D01*
X68583936Y-133741411D01*
X68567803Y-133716758D01*
X68564935Y-133713241D01*
X68502733Y-133638052D01*
X68481827Y-133617292D01*
X68461225Y-133596253D01*
X68457728Y-133593360D01*
X68382108Y-133531684D01*
X68357576Y-133515385D01*
X68333264Y-133498739D01*
X68329273Y-133496580D01*
X68243112Y-133450768D01*
X68215861Y-133439536D01*
X68188807Y-133427941D01*
X68184472Y-133426599D01*
X68091054Y-133398394D01*
X68062163Y-133392674D01*
X68033344Y-133386548D01*
X68028830Y-133386073D01*
X67931713Y-133376551D01*
X67931708Y-133376551D01*
X67915961Y-133375000D01*
X62016072Y-133375000D01*
X61941764Y-133367629D01*
X61660877Y-133323000D01*
X61414964Y-133232385D01*
X61191340Y-133095734D01*
X61100000Y-133011660D01*
X61100000Y-127358814D01*
X61122213Y-127376932D01*
X61143791Y-127403015D01*
X61159888Y-127432786D01*
X61169899Y-127465125D01*
X61175000Y-127513659D01*
X61175001Y-129515961D01*
X61176371Y-129529875D01*
X61176350Y-129532946D01*
X61176792Y-129537462D01*
X61186992Y-129634511D01*
X61192919Y-129663385D01*
X61198435Y-129692299D01*
X61199746Y-129696644D01*
X61228602Y-129789863D01*
X61240036Y-129817063D01*
X61251053Y-129844330D01*
X61253183Y-129848337D01*
X61299596Y-129934175D01*
X61316069Y-129958597D01*
X61332197Y-129983242D01*
X61335065Y-129986759D01*
X61397266Y-130061948D01*
X61418192Y-130082728D01*
X61438775Y-130103747D01*
X61442271Y-130106640D01*
X61517892Y-130168316D01*
X61542439Y-130184625D01*
X61566736Y-130201261D01*
X61570727Y-130203420D01*
X61656888Y-130249232D01*
X61684139Y-130260464D01*
X61711193Y-130272059D01*
X61715528Y-130273401D01*
X61808946Y-130301606D01*
X61837845Y-130307328D01*
X61866657Y-130313452D01*
X61871170Y-130313927D01*
X61968287Y-130323449D01*
X61968292Y-130323449D01*
X61984039Y-130325000D01*
X67915961Y-130325000D01*
X67929884Y-130323629D01*
X67932946Y-130323650D01*
X67937462Y-130323208D01*
X68034511Y-130313008D01*
X68063385Y-130307081D01*
X68092299Y-130301565D01*
X68096644Y-130300254D01*
X68189863Y-130271398D01*
X68217063Y-130259964D01*
X68244330Y-130248947D01*
X68248337Y-130246817D01*
X68334175Y-130200404D01*
X68358597Y-130183931D01*
X68383242Y-130167803D01*
X68386759Y-130164935D01*
X68461948Y-130102734D01*
X68482728Y-130081808D01*
X68503747Y-130061225D01*
X68506640Y-130057729D01*
X68568316Y-129982108D01*
X68584625Y-129957561D01*
X68601261Y-129933264D01*
X68603420Y-129929273D01*
X68649232Y-129843112D01*
X68660464Y-129815861D01*
X68672059Y-129788807D01*
X68673401Y-129784472D01*
X68701606Y-129691054D01*
X68707328Y-129662155D01*
X68713452Y-129633343D01*
X68713927Y-129628830D01*
X68723449Y-129531713D01*
X68723449Y-129531708D01*
X68725000Y-129515961D01*
X68725000Y-126315894D01*
X68729861Y-126266311D01*
X68739644Y-126233910D01*
X68755537Y-126204018D01*
X68776932Y-126177787D01*
X68803015Y-126156209D01*
X68832786Y-126140112D01*
X68865125Y-126130101D01*
X68913659Y-126125000D01*
X79483927Y-126125000D01*
X79558237Y-126132371D01*
G04 #@! TA.AperFunction,Conductor*
D14*
G36*
X79558237Y-126132371D02*
G01*
X79839124Y-126177000D01*
X80085033Y-126267613D01*
X80308660Y-126404266D01*
X80400000Y-126488340D01*
X80400000Y-132141186D01*
X80377786Y-132123068D01*
X80356211Y-132096989D01*
X80340111Y-132067213D01*
X80330101Y-132034875D01*
X80325000Y-131986342D01*
X80325000Y-129984039D01*
X80323629Y-129970116D01*
X80323650Y-129967055D01*
X80323208Y-129962538D01*
X80313008Y-129865490D01*
X80307083Y-129836629D01*
X80301565Y-129807701D01*
X80300254Y-129803356D01*
X80271398Y-129710137D01*
X80259969Y-129682950D01*
X80248947Y-129655669D01*
X80246817Y-129651662D01*
X80200404Y-129565825D01*
X80183936Y-129541411D01*
X80167803Y-129516758D01*
X80164935Y-129513241D01*
X80102733Y-129438052D01*
X80081827Y-129417292D01*
X80061225Y-129396253D01*
X80057728Y-129393360D01*
X79982108Y-129331684D01*
X79957576Y-129315385D01*
X79933264Y-129298739D01*
X79929273Y-129296580D01*
X79843112Y-129250768D01*
X79815861Y-129239536D01*
X79788807Y-129227941D01*
X79784472Y-129226599D01*
X79691054Y-129198394D01*
X79662163Y-129192674D01*
X79633344Y-129186548D01*
X79628830Y-129186073D01*
X79531713Y-129176551D01*
X79531708Y-129176551D01*
X79515961Y-129175000D01*
X73584039Y-129175000D01*
X73570116Y-129176371D01*
X73567055Y-129176350D01*
X73562538Y-129176792D01*
X73465490Y-129186992D01*
X73436629Y-129192917D01*
X73407701Y-129198435D01*
X73403356Y-129199746D01*
X73310137Y-129228602D01*
X73282950Y-129240031D01*
X73255669Y-129251053D01*
X73251662Y-129253183D01*
X73165825Y-129299596D01*
X73141411Y-129316064D01*
X73116758Y-129332197D01*
X73113241Y-129335065D01*
X73038052Y-129397267D01*
X73017292Y-129418173D01*
X72996253Y-129438775D01*
X72993360Y-129442272D01*
X72993356Y-129442276D01*
X72931684Y-129517892D01*
X72915385Y-129542424D01*
X72898739Y-129566736D01*
X72896580Y-129570727D01*
X72850768Y-129656888D01*
X72839536Y-129684139D01*
X72827941Y-129711193D01*
X72826599Y-129715528D01*
X72798394Y-129808946D01*
X72792674Y-129837837D01*
X72786548Y-129866656D01*
X72786073Y-129871170D01*
X72776551Y-129968287D01*
X72776551Y-129968293D01*
X72775000Y-129984040D01*
X72775001Y-135315961D01*
X72776371Y-135329875D01*
X72776350Y-135332946D01*
X72776792Y-135337462D01*
X72786992Y-135434511D01*
X72792919Y-135463385D01*
X72798435Y-135492299D01*
X72799746Y-135496644D01*
X72828602Y-135589863D01*
X72840036Y-135617063D01*
X72851053Y-135644330D01*
X72853183Y-135648337D01*
X72899596Y-135734175D01*
X72916069Y-135758597D01*
X72932197Y-135783242D01*
X72935065Y-135786759D01*
X72997266Y-135861948D01*
X73018192Y-135882728D01*
X73038775Y-135903747D01*
X73042271Y-135906640D01*
X73117892Y-135968316D01*
X73142439Y-135984625D01*
X73166736Y-136001261D01*
X73170727Y-136003420D01*
X73256888Y-136049232D01*
X73284139Y-136060464D01*
X73311193Y-136072059D01*
X73315528Y-136073401D01*
X73408946Y-136101606D01*
X73437845Y-136107328D01*
X73466657Y-136113452D01*
X73471170Y-136113927D01*
X73568287Y-136123449D01*
X73568292Y-136123449D01*
X73584039Y-136125000D01*
X79483927Y-136125000D01*
X79558237Y-136132371D01*
X79839124Y-136177000D01*
X80085033Y-136267613D01*
X80308660Y-136404266D01*
X80400000Y-136488340D01*
X80400000Y-142141186D01*
X80377786Y-142123068D01*
X80356211Y-142096989D01*
X80340111Y-142067213D01*
X80330101Y-142034875D01*
X80325000Y-141986342D01*
X80325000Y-139984039D01*
X80323629Y-139970116D01*
X80323650Y-139967055D01*
X80323208Y-139962538D01*
X80313008Y-139865490D01*
X80307083Y-139836629D01*
X80301565Y-139807701D01*
X80300254Y-139803356D01*
X80271398Y-139710137D01*
X80259969Y-139682950D01*
X80248947Y-139655669D01*
X80246817Y-139651662D01*
X80200404Y-139565825D01*
X80183936Y-139541411D01*
X80167803Y-139516758D01*
X80164935Y-139513241D01*
X80102733Y-139438052D01*
X80081827Y-139417292D01*
X80061225Y-139396253D01*
X80057728Y-139393360D01*
X79982108Y-139331684D01*
X79957576Y-139315385D01*
X79933264Y-139298739D01*
X79929273Y-139296580D01*
X79843112Y-139250768D01*
X79815861Y-139239536D01*
X79788807Y-139227941D01*
X79784472Y-139226599D01*
X79691054Y-139198394D01*
X79662163Y-139192674D01*
X79633344Y-139186548D01*
X79628830Y-139186073D01*
X79531713Y-139176551D01*
X79531708Y-139176551D01*
X79515961Y-139175000D01*
X73584039Y-139175000D01*
X73570116Y-139176371D01*
X73567055Y-139176350D01*
X73562538Y-139176792D01*
X73465490Y-139186992D01*
X73436629Y-139192917D01*
X73407701Y-139198435D01*
X73403356Y-139199746D01*
X73310137Y-139228602D01*
X73282950Y-139240031D01*
X73255669Y-139251053D01*
X73251662Y-139253183D01*
X73165825Y-139299596D01*
X73141411Y-139316064D01*
X73116758Y-139332197D01*
X73113241Y-139335065D01*
X73038052Y-139397267D01*
X73017292Y-139418173D01*
X72996253Y-139438775D01*
X72993360Y-139442272D01*
X72993356Y-139442276D01*
X72931684Y-139517892D01*
X72915385Y-139542424D01*
X72898739Y-139566736D01*
X72896580Y-139570727D01*
X72850768Y-139656888D01*
X72839536Y-139684139D01*
X72827941Y-139711193D01*
X72826599Y-139715528D01*
X72798394Y-139808946D01*
X72792674Y-139837837D01*
X72786548Y-139866656D01*
X72786073Y-139871170D01*
X72776551Y-139968287D01*
X72776551Y-139968293D01*
X72775000Y-139984040D01*
X72775001Y-145315961D01*
X72776371Y-145329875D01*
X72776350Y-145332946D01*
X72776792Y-145337462D01*
X72786992Y-145434511D01*
X72792919Y-145463385D01*
X72798435Y-145492299D01*
X72799746Y-145496644D01*
X72828602Y-145589863D01*
X72840036Y-145617063D01*
X72851053Y-145644330D01*
X72853183Y-145648337D01*
X72899596Y-145734175D01*
X72916069Y-145758597D01*
X72932197Y-145783242D01*
X72935065Y-145786759D01*
X72997266Y-145861948D01*
X73018192Y-145882728D01*
X73038775Y-145903747D01*
X73042271Y-145906640D01*
X73117892Y-145968316D01*
X73142439Y-145984625D01*
X73166736Y-146001261D01*
X73170727Y-146003420D01*
X73256888Y-146049232D01*
X73284139Y-146060464D01*
X73311193Y-146072059D01*
X73315528Y-146073401D01*
X73408946Y-146101606D01*
X73437845Y-146107328D01*
X73466657Y-146113452D01*
X73471170Y-146113927D01*
X73568287Y-146123449D01*
X73568292Y-146123449D01*
X73584039Y-146125000D01*
X79483927Y-146125000D01*
X79558237Y-146132371D01*
X79839124Y-146177000D01*
X80085033Y-146267613D01*
X80308660Y-146404266D01*
X80400000Y-146488340D01*
X80400000Y-152141186D01*
X80377786Y-152123068D01*
X80356211Y-152096989D01*
X80340111Y-152067213D01*
X80330101Y-152034875D01*
X80325000Y-151986342D01*
X80325000Y-149984039D01*
X80323629Y-149970116D01*
X80323650Y-149967055D01*
X80323208Y-149962538D01*
X80313008Y-149865490D01*
X80307083Y-149836629D01*
X80301565Y-149807701D01*
X80300254Y-149803356D01*
X80271398Y-149710137D01*
X80259969Y-149682950D01*
X80248947Y-149655669D01*
X80246817Y-149651662D01*
X80200404Y-149565825D01*
X80183936Y-149541411D01*
X80167803Y-149516758D01*
X80164935Y-149513241D01*
X80102733Y-149438052D01*
X80081827Y-149417292D01*
X80061225Y-149396253D01*
X80057728Y-149393360D01*
X79982108Y-149331684D01*
X79957576Y-149315385D01*
X79933264Y-149298739D01*
X79929273Y-149296580D01*
X79843112Y-149250768D01*
X79815861Y-149239536D01*
X79788807Y-149227941D01*
X79784472Y-149226599D01*
X79691054Y-149198394D01*
X79662163Y-149192674D01*
X79633344Y-149186548D01*
X79628830Y-149186073D01*
X79531713Y-149176551D01*
X79531708Y-149176551D01*
X79515961Y-149175000D01*
X73584039Y-149175000D01*
X73570116Y-149176371D01*
X73567055Y-149176350D01*
X73562538Y-149176792D01*
X73465490Y-149186992D01*
X73436629Y-149192917D01*
X73407701Y-149198435D01*
X73403356Y-149199746D01*
X73310137Y-149228602D01*
X73282950Y-149240031D01*
X73255669Y-149251053D01*
X73251662Y-149253183D01*
X73165825Y-149299596D01*
X73141411Y-149316064D01*
X73116758Y-149332197D01*
X73113241Y-149335065D01*
X73038052Y-149397267D01*
X73017292Y-149418173D01*
X72996253Y-149438775D01*
X72993360Y-149442272D01*
X72993356Y-149442276D01*
X72931684Y-149517892D01*
X72915385Y-149542424D01*
X72898739Y-149566736D01*
X72896580Y-149570727D01*
X72850768Y-149656888D01*
X72839536Y-149684139D01*
X72827941Y-149711193D01*
X72826599Y-149715528D01*
X72798394Y-149808946D01*
X72792674Y-149837837D01*
X72786548Y-149866656D01*
X72786073Y-149871170D01*
X72776551Y-149968287D01*
X72776551Y-149968293D01*
X72775000Y-149984040D01*
X72775001Y-155315961D01*
X72776371Y-155329875D01*
X72776350Y-155332946D01*
X72776792Y-155337462D01*
X72786992Y-155434511D01*
X72792919Y-155463385D01*
X72798435Y-155492299D01*
X72799746Y-155496644D01*
X72828602Y-155589863D01*
X72840036Y-155617063D01*
X72851053Y-155644330D01*
X72853183Y-155648337D01*
X72899596Y-155734175D01*
X72916069Y-155758597D01*
X72932197Y-155783242D01*
X72935065Y-155786759D01*
X72997266Y-155861948D01*
X73018192Y-155882728D01*
X73038775Y-155903747D01*
X73042271Y-155906640D01*
X73117892Y-155968316D01*
X73142439Y-155984625D01*
X73166736Y-156001261D01*
X73170727Y-156003420D01*
X73256888Y-156049232D01*
X73284139Y-156060464D01*
X73311193Y-156072059D01*
X73315528Y-156073401D01*
X73408946Y-156101606D01*
X73437845Y-156107328D01*
X73466657Y-156113452D01*
X73471170Y-156113927D01*
X73568287Y-156123449D01*
X73568292Y-156123449D01*
X73584039Y-156125000D01*
X79483927Y-156125000D01*
X79558237Y-156132371D01*
X79839124Y-156177000D01*
X80085033Y-156267613D01*
X80308660Y-156404266D01*
X80400000Y-156488340D01*
X80400000Y-162141186D01*
X80377786Y-162123068D01*
X80356211Y-162096989D01*
X80340111Y-162067213D01*
X80330101Y-162034875D01*
X80325000Y-161986342D01*
X80325000Y-159984039D01*
X80323629Y-159970116D01*
X80323650Y-159967055D01*
X80323208Y-159962538D01*
X80313008Y-159865490D01*
X80307083Y-159836629D01*
X80301565Y-159807701D01*
X80300254Y-159803356D01*
X80271398Y-159710137D01*
X80259969Y-159682950D01*
X80248947Y-159655669D01*
X80246817Y-159651662D01*
X80200404Y-159565825D01*
X80183936Y-159541411D01*
X80167803Y-159516758D01*
X80164935Y-159513241D01*
X80102733Y-159438052D01*
X80081827Y-159417292D01*
X80061225Y-159396253D01*
X80057728Y-159393360D01*
X79982108Y-159331684D01*
X79957576Y-159315385D01*
X79933264Y-159298739D01*
X79929273Y-159296580D01*
X79843112Y-159250768D01*
X79815861Y-159239536D01*
X79788807Y-159227941D01*
X79784472Y-159226599D01*
X79691054Y-159198394D01*
X79662163Y-159192674D01*
X79633344Y-159186548D01*
X79628830Y-159186073D01*
X79531713Y-159176551D01*
X79531708Y-159176551D01*
X79515961Y-159175000D01*
X73584039Y-159175000D01*
X73570116Y-159176371D01*
X73567055Y-159176350D01*
X73562538Y-159176792D01*
X73465490Y-159186992D01*
X73436629Y-159192917D01*
X73407701Y-159198435D01*
X73403356Y-159199746D01*
X73310137Y-159228602D01*
X73282950Y-159240031D01*
X73255669Y-159251053D01*
X73251662Y-159253183D01*
X73165825Y-159299596D01*
X73141411Y-159316064D01*
X73116758Y-159332197D01*
X73113241Y-159335065D01*
X73038052Y-159397267D01*
X73017292Y-159418173D01*
X72996253Y-159438775D01*
X72993360Y-159442272D01*
X72993356Y-159442276D01*
X72931684Y-159517892D01*
X72915385Y-159542424D01*
X72898739Y-159566736D01*
X72896580Y-159570727D01*
X72850768Y-159656888D01*
X72839536Y-159684139D01*
X72827941Y-159711193D01*
X72826599Y-159715528D01*
X72798394Y-159808946D01*
X72792674Y-159837837D01*
X72786548Y-159866656D01*
X72786073Y-159871170D01*
X72776551Y-159968287D01*
X72776551Y-159968293D01*
X72775000Y-159984040D01*
X72775001Y-165315961D01*
X72776371Y-165329875D01*
X72776350Y-165332946D01*
X72776792Y-165337462D01*
X72786992Y-165434511D01*
X72792919Y-165463385D01*
X72798435Y-165492299D01*
X72799746Y-165496644D01*
X72828602Y-165589863D01*
X72840036Y-165617063D01*
X72851053Y-165644330D01*
X72853183Y-165648337D01*
X72899596Y-165734175D01*
X72916069Y-165758597D01*
X72932197Y-165783242D01*
X72935065Y-165786759D01*
X72997266Y-165861948D01*
X73018192Y-165882728D01*
X73038775Y-165903747D01*
X73042271Y-165906640D01*
X73117892Y-165968316D01*
X73142439Y-165984625D01*
X73166736Y-166001261D01*
X73170727Y-166003420D01*
X73256888Y-166049232D01*
X73284139Y-166060464D01*
X73311193Y-166072059D01*
X73315528Y-166073401D01*
X73408946Y-166101606D01*
X73437845Y-166107328D01*
X73466657Y-166113452D01*
X73471170Y-166113927D01*
X73568287Y-166123449D01*
X73568292Y-166123449D01*
X73584039Y-166125000D01*
X79483927Y-166125000D01*
X79558237Y-166132371D01*
X79839124Y-166177000D01*
X80085033Y-166267613D01*
X80308660Y-166404266D01*
X80400000Y-166488340D01*
X80400000Y-172141186D01*
X80377786Y-172123068D01*
X80356211Y-172096989D01*
X80340111Y-172067213D01*
X80330101Y-172034875D01*
X80325000Y-171986342D01*
X80325000Y-169984039D01*
X80323629Y-169970116D01*
X80323650Y-169967055D01*
X80323208Y-169962538D01*
X80313008Y-169865490D01*
X80307083Y-169836629D01*
X80301565Y-169807701D01*
X80300254Y-169803356D01*
X80271398Y-169710137D01*
X80259969Y-169682950D01*
X80248947Y-169655669D01*
X80246817Y-169651662D01*
X80200404Y-169565825D01*
X80183936Y-169541411D01*
X80167803Y-169516758D01*
X80164935Y-169513241D01*
X80102733Y-169438052D01*
X80081827Y-169417292D01*
X80061225Y-169396253D01*
X80057728Y-169393360D01*
X79982108Y-169331684D01*
X79957576Y-169315385D01*
X79933264Y-169298739D01*
X79929273Y-169296580D01*
X79843112Y-169250768D01*
X79815861Y-169239536D01*
X79788807Y-169227941D01*
X79784472Y-169226599D01*
X79691054Y-169198394D01*
X79662163Y-169192674D01*
X79633344Y-169186548D01*
X79628830Y-169186073D01*
X79531713Y-169176551D01*
X79531708Y-169176551D01*
X79515961Y-169175000D01*
X73584039Y-169175000D01*
X73570116Y-169176371D01*
X73567055Y-169176350D01*
X73562538Y-169176792D01*
X73465490Y-169186992D01*
X73436629Y-169192917D01*
X73407701Y-169198435D01*
X73403356Y-169199746D01*
X73310137Y-169228602D01*
X73282950Y-169240031D01*
X73255669Y-169251053D01*
X73251662Y-169253183D01*
X73165825Y-169299596D01*
X73141411Y-169316064D01*
X73116758Y-169332197D01*
X73113241Y-169335065D01*
X73038052Y-169397267D01*
X73017292Y-169418173D01*
X72996253Y-169438775D01*
X72993360Y-169442272D01*
X72993356Y-169442276D01*
X72931684Y-169517892D01*
X72915385Y-169542424D01*
X72898739Y-169566736D01*
X72896580Y-169570727D01*
X72850768Y-169656888D01*
X72839536Y-169684139D01*
X72827941Y-169711193D01*
X72826599Y-169715528D01*
X72798394Y-169808946D01*
X72792674Y-169837837D01*
X72786548Y-169866656D01*
X72786073Y-169871170D01*
X72776551Y-169968287D01*
X72776551Y-169968293D01*
X72775000Y-169984040D01*
X72775001Y-173184096D01*
X72770139Y-173233689D01*
X72760356Y-173266090D01*
X72744462Y-173295984D01*
X72723068Y-173322214D01*
X72696989Y-173343789D01*
X72667213Y-173359889D01*
X72634875Y-173369899D01*
X72586342Y-173375000D01*
X62016072Y-173375000D01*
X61941764Y-173367629D01*
X61660877Y-173323000D01*
X61414964Y-173232385D01*
X61191340Y-173095734D01*
X61100000Y-173011660D01*
X61100000Y-167358814D01*
X61122213Y-167376932D01*
X61143791Y-167403015D01*
X61159888Y-167432786D01*
X61169899Y-167465125D01*
X61175000Y-167513659D01*
X61175001Y-169515961D01*
X61176371Y-169529875D01*
X61176350Y-169532946D01*
X61176792Y-169537462D01*
X61186992Y-169634511D01*
X61192919Y-169663385D01*
X61198435Y-169692299D01*
X61199746Y-169696644D01*
X61228602Y-169789863D01*
X61240036Y-169817063D01*
X61251053Y-169844330D01*
X61253183Y-169848337D01*
X61299596Y-169934175D01*
X61316069Y-169958597D01*
X61332197Y-169983242D01*
X61335065Y-169986759D01*
X61397266Y-170061948D01*
X61418192Y-170082728D01*
X61438775Y-170103747D01*
X61442271Y-170106640D01*
X61517892Y-170168316D01*
X61542439Y-170184625D01*
X61566736Y-170201261D01*
X61570727Y-170203420D01*
X61656888Y-170249232D01*
X61684139Y-170260464D01*
X61711193Y-170272059D01*
X61715528Y-170273401D01*
X61808946Y-170301606D01*
X61837845Y-170307328D01*
X61866657Y-170313452D01*
X61871170Y-170313927D01*
X61968287Y-170323449D01*
X61968292Y-170323449D01*
X61984039Y-170325000D01*
X67915961Y-170325000D01*
X67929884Y-170323629D01*
X67932946Y-170323650D01*
X67937462Y-170323208D01*
X68034511Y-170313008D01*
X68063385Y-170307081D01*
X68092299Y-170301565D01*
X68096644Y-170300254D01*
X68189863Y-170271398D01*
X68217063Y-170259964D01*
X68244330Y-170248947D01*
X68248337Y-170246817D01*
X68334175Y-170200404D01*
X68358597Y-170183931D01*
X68383242Y-170167803D01*
X68386759Y-170164935D01*
X68461948Y-170102734D01*
X68482728Y-170081808D01*
X68503747Y-170061225D01*
X68506640Y-170057729D01*
X68568316Y-169982108D01*
X68584625Y-169957561D01*
X68601261Y-169933264D01*
X68603420Y-169929273D01*
X68649232Y-169843112D01*
X68660464Y-169815861D01*
X68672059Y-169788807D01*
X68673401Y-169784472D01*
X68701606Y-169691054D01*
X68707328Y-169662155D01*
X68713452Y-169633343D01*
X68713927Y-169628830D01*
X68723449Y-169531713D01*
X68723449Y-169531708D01*
X68725000Y-169515961D01*
X68725000Y-164184039D01*
X68723629Y-164170116D01*
X68723650Y-164167055D01*
X68723208Y-164162538D01*
X68713008Y-164065490D01*
X68707083Y-164036629D01*
X68701565Y-164007701D01*
X68700254Y-164003356D01*
X68671398Y-163910137D01*
X68659969Y-163882950D01*
X68648947Y-163855669D01*
X68646817Y-163851662D01*
X68600404Y-163765825D01*
X68583936Y-163741411D01*
X68567803Y-163716758D01*
X68564935Y-163713241D01*
X68502733Y-163638052D01*
X68481827Y-163617292D01*
X68461225Y-163596253D01*
X68457728Y-163593360D01*
X68382108Y-163531684D01*
X68357576Y-163515385D01*
X68333264Y-163498739D01*
X68329273Y-163496580D01*
X68243112Y-163450768D01*
X68215861Y-163439536D01*
X68188807Y-163427941D01*
X68184472Y-163426599D01*
X68091054Y-163398394D01*
X68062163Y-163392674D01*
X68033344Y-163386548D01*
X68028830Y-163386073D01*
X67931713Y-163376551D01*
X67931708Y-163376551D01*
X67915961Y-163375000D01*
X62016072Y-163375000D01*
X61941764Y-163367629D01*
X61660877Y-163323000D01*
X61414964Y-163232385D01*
X61191340Y-163095734D01*
X61100000Y-163011660D01*
X61100000Y-157358814D01*
X61122213Y-157376932D01*
X61143791Y-157403015D01*
X61159888Y-157432786D01*
X61169899Y-157465125D01*
X61175000Y-157513659D01*
X61175001Y-159515961D01*
X61176371Y-159529875D01*
X61176350Y-159532946D01*
X61176792Y-159537462D01*
X61186992Y-159634511D01*
X61192919Y-159663385D01*
X61198435Y-159692299D01*
X61199746Y-159696644D01*
X61228602Y-159789863D01*
X61240036Y-159817063D01*
X61251053Y-159844330D01*
X61253183Y-159848337D01*
X61299596Y-159934175D01*
X61316069Y-159958597D01*
X61332197Y-159983242D01*
X61335065Y-159986759D01*
X61397266Y-160061948D01*
X61418192Y-160082728D01*
X61438775Y-160103747D01*
X61442271Y-160106640D01*
X61517892Y-160168316D01*
X61542439Y-160184625D01*
X61566736Y-160201261D01*
X61570727Y-160203420D01*
X61656888Y-160249232D01*
X61684139Y-160260464D01*
X61711193Y-160272059D01*
X61715528Y-160273401D01*
X61808946Y-160301606D01*
X61837845Y-160307328D01*
X61866657Y-160313452D01*
X61871170Y-160313927D01*
X61968287Y-160323449D01*
X61968292Y-160323449D01*
X61984039Y-160325000D01*
X67915961Y-160325000D01*
X67929884Y-160323629D01*
X67932946Y-160323650D01*
X67937462Y-160323208D01*
X68034511Y-160313008D01*
X68063385Y-160307081D01*
X68092299Y-160301565D01*
X68096644Y-160300254D01*
X68189863Y-160271398D01*
X68217063Y-160259964D01*
X68244330Y-160248947D01*
X68248337Y-160246817D01*
X68334175Y-160200404D01*
X68358597Y-160183931D01*
X68383242Y-160167803D01*
X68386759Y-160164935D01*
X68461948Y-160102734D01*
X68482728Y-160081808D01*
X68503747Y-160061225D01*
X68506640Y-160057729D01*
X68568316Y-159982108D01*
X68584625Y-159957561D01*
X68601261Y-159933264D01*
X68603420Y-159929273D01*
X68649232Y-159843112D01*
X68660464Y-159815861D01*
X68672059Y-159788807D01*
X68673401Y-159784472D01*
X68701606Y-159691054D01*
X68707328Y-159662155D01*
X68713452Y-159633343D01*
X68713927Y-159628830D01*
X68723449Y-159531713D01*
X68723449Y-159531708D01*
X68725000Y-159515961D01*
X68725000Y-154184039D01*
X68723629Y-154170116D01*
X68723650Y-154167055D01*
X68723208Y-154162538D01*
X68713008Y-154065490D01*
X68707083Y-154036629D01*
X68701565Y-154007701D01*
X68700254Y-154003356D01*
X68671398Y-153910137D01*
X68659969Y-153882950D01*
X68648947Y-153855669D01*
X68646817Y-153851662D01*
X68600404Y-153765825D01*
X68583936Y-153741411D01*
X68567803Y-153716758D01*
X68564935Y-153713241D01*
X68502733Y-153638052D01*
X68481827Y-153617292D01*
X68461225Y-153596253D01*
X68457728Y-153593360D01*
X68382108Y-153531684D01*
X68357576Y-153515385D01*
X68333264Y-153498739D01*
X68329273Y-153496580D01*
X68243112Y-153450768D01*
X68215861Y-153439536D01*
X68188807Y-153427941D01*
X68184472Y-153426599D01*
X68091054Y-153398394D01*
X68062163Y-153392674D01*
X68033344Y-153386548D01*
X68028830Y-153386073D01*
X67931713Y-153376551D01*
X67931708Y-153376551D01*
X67915961Y-153375000D01*
X62016072Y-153375000D01*
X61941764Y-153367629D01*
X61660877Y-153323000D01*
X61414964Y-153232385D01*
X61191340Y-153095734D01*
X61100000Y-153011660D01*
X61100000Y-147358814D01*
X61122213Y-147376932D01*
X61143791Y-147403015D01*
X61159888Y-147432786D01*
X61169899Y-147465125D01*
X61175000Y-147513659D01*
X61175001Y-149515961D01*
X61176371Y-149529875D01*
X61176350Y-149532946D01*
X61176792Y-149537462D01*
X61186992Y-149634511D01*
X61192919Y-149663385D01*
X61198435Y-149692299D01*
X61199746Y-149696644D01*
X61228602Y-149789863D01*
X61240036Y-149817063D01*
X61251053Y-149844330D01*
X61253183Y-149848337D01*
X61299596Y-149934175D01*
X61316069Y-149958597D01*
X61332197Y-149983242D01*
X61335065Y-149986759D01*
X61397266Y-150061948D01*
X61418192Y-150082728D01*
X61438775Y-150103747D01*
X61442271Y-150106640D01*
X61517892Y-150168316D01*
X61542439Y-150184625D01*
X61566736Y-150201261D01*
X61570727Y-150203420D01*
X61656888Y-150249232D01*
X61684139Y-150260464D01*
X61711193Y-150272059D01*
X61715528Y-150273401D01*
X61808946Y-150301606D01*
X61837845Y-150307328D01*
X61866657Y-150313452D01*
X61871170Y-150313927D01*
X61968287Y-150323449D01*
X61968292Y-150323449D01*
X61984039Y-150325000D01*
X67915961Y-150325000D01*
X67929884Y-150323629D01*
X67932946Y-150323650D01*
X67937462Y-150323208D01*
X68034511Y-150313008D01*
X68063385Y-150307081D01*
X68092299Y-150301565D01*
X68096644Y-150300254D01*
X68189863Y-150271398D01*
X68217063Y-150259964D01*
X68244330Y-150248947D01*
X68248337Y-150246817D01*
X68334175Y-150200404D01*
X68358597Y-150183931D01*
X68383242Y-150167803D01*
X68386759Y-150164935D01*
X68461948Y-150102734D01*
X68482728Y-150081808D01*
X68503747Y-150061225D01*
X68506640Y-150057729D01*
X68568316Y-149982108D01*
X68584625Y-149957561D01*
X68601261Y-149933264D01*
X68603420Y-149929273D01*
X68649232Y-149843112D01*
X68660464Y-149815861D01*
X68672059Y-149788807D01*
X68673401Y-149784472D01*
X68701606Y-149691054D01*
X68707328Y-149662155D01*
X68713452Y-149633343D01*
X68713927Y-149628830D01*
X68723449Y-149531713D01*
X68723449Y-149531708D01*
X68725000Y-149515961D01*
X68725000Y-144184039D01*
X68723629Y-144170116D01*
X68723650Y-144167055D01*
X68723208Y-144162538D01*
X68713008Y-144065490D01*
X68707083Y-144036629D01*
X68701565Y-144007701D01*
X68700254Y-144003356D01*
X68671398Y-143910137D01*
X68659969Y-143882950D01*
X68648947Y-143855669D01*
X68646817Y-143851662D01*
X68600404Y-143765825D01*
X68583936Y-143741411D01*
X68567803Y-143716758D01*
X68564935Y-143713241D01*
X68502733Y-143638052D01*
X68481827Y-143617292D01*
X68461225Y-143596253D01*
X68457728Y-143593360D01*
X68382108Y-143531684D01*
X68357576Y-143515385D01*
X68333264Y-143498739D01*
X68329273Y-143496580D01*
X68243112Y-143450768D01*
X68215861Y-143439536D01*
X68188807Y-143427941D01*
X68184472Y-143426599D01*
X68091054Y-143398394D01*
X68062163Y-143392674D01*
X68033344Y-143386548D01*
X68028830Y-143386073D01*
X67931713Y-143376551D01*
X67931708Y-143376551D01*
X67915961Y-143375000D01*
X62016072Y-143375000D01*
X61941764Y-143367629D01*
X61660877Y-143323000D01*
X61414964Y-143232385D01*
X61191340Y-143095734D01*
X61100000Y-143011660D01*
X61100000Y-137358814D01*
X61122213Y-137376932D01*
X61143791Y-137403015D01*
X61159888Y-137432786D01*
X61169899Y-137465125D01*
X61175000Y-137513659D01*
X61175001Y-139515961D01*
X61176371Y-139529875D01*
X61176350Y-139532946D01*
X61176792Y-139537462D01*
X61186992Y-139634511D01*
X61192919Y-139663385D01*
X61198435Y-139692299D01*
X61199746Y-139696644D01*
X61228602Y-139789863D01*
X61240036Y-139817063D01*
X61251053Y-139844330D01*
X61253183Y-139848337D01*
X61299596Y-139934175D01*
X61316069Y-139958597D01*
X61332197Y-139983242D01*
X61335065Y-139986759D01*
X61397266Y-140061948D01*
X61418192Y-140082728D01*
X61438775Y-140103747D01*
X61442271Y-140106640D01*
X61517892Y-140168316D01*
X61542439Y-140184625D01*
X61566736Y-140201261D01*
X61570727Y-140203420D01*
X61656888Y-140249232D01*
X61684139Y-140260464D01*
X61711193Y-140272059D01*
X61715528Y-140273401D01*
X61808946Y-140301606D01*
X61837845Y-140307328D01*
X61866657Y-140313452D01*
X61871170Y-140313927D01*
X61968287Y-140323449D01*
X61968292Y-140323449D01*
X61984039Y-140325000D01*
X67915961Y-140325000D01*
X67929884Y-140323629D01*
X67932946Y-140323650D01*
X67937462Y-140323208D01*
X68034511Y-140313008D01*
X68063385Y-140307081D01*
X68092299Y-140301565D01*
X68096644Y-140300254D01*
X68189863Y-140271398D01*
X68217063Y-140259964D01*
X68244330Y-140248947D01*
X68248337Y-140246817D01*
X68334175Y-140200404D01*
X68358597Y-140183931D01*
X68383242Y-140167803D01*
X68386759Y-140164935D01*
X68461948Y-140102734D01*
X68482728Y-140081808D01*
X68503747Y-140061225D01*
X68506640Y-140057729D01*
X68568316Y-139982108D01*
X68584625Y-139957561D01*
X68601261Y-139933264D01*
X68603420Y-139929273D01*
X68649232Y-139843112D01*
X68660464Y-139815861D01*
X68672059Y-139788807D01*
X68673401Y-139784472D01*
X68701606Y-139691054D01*
X68707328Y-139662155D01*
X68713452Y-139633343D01*
X68713927Y-139628830D01*
X68723449Y-139531713D01*
X68723449Y-139531708D01*
X68725000Y-139515961D01*
X68725000Y-134184039D01*
X68723629Y-134170116D01*
X68723650Y-134167055D01*
X68723208Y-134162538D01*
X68713008Y-134065490D01*
X68707083Y-134036629D01*
X68701565Y-134007701D01*
X68700254Y-134003356D01*
X68671398Y-133910137D01*
X68659969Y-133882950D01*
X68648947Y-133855669D01*
X68646817Y-133851662D01*
X68600404Y-133765825D01*
X68583936Y-133741411D01*
X68567803Y-133716758D01*
X68564935Y-133713241D01*
X68502733Y-133638052D01*
X68481827Y-133617292D01*
X68461225Y-133596253D01*
X68457728Y-133593360D01*
X68382108Y-133531684D01*
X68357576Y-133515385D01*
X68333264Y-133498739D01*
X68329273Y-133496580D01*
X68243112Y-133450768D01*
X68215861Y-133439536D01*
X68188807Y-133427941D01*
X68184472Y-133426599D01*
X68091054Y-133398394D01*
X68062163Y-133392674D01*
X68033344Y-133386548D01*
X68028830Y-133386073D01*
X67931713Y-133376551D01*
X67931708Y-133376551D01*
X67915961Y-133375000D01*
X62016072Y-133375000D01*
X61941764Y-133367629D01*
X61660877Y-133323000D01*
X61414964Y-133232385D01*
X61191340Y-133095734D01*
X61100000Y-133011660D01*
X61100000Y-127358814D01*
X61122213Y-127376932D01*
X61143791Y-127403015D01*
X61159888Y-127432786D01*
X61169899Y-127465125D01*
X61175000Y-127513659D01*
X61175001Y-129515961D01*
X61176371Y-129529875D01*
X61176350Y-129532946D01*
X61176792Y-129537462D01*
X61186992Y-129634511D01*
X61192919Y-129663385D01*
X61198435Y-129692299D01*
X61199746Y-129696644D01*
X61228602Y-129789863D01*
X61240036Y-129817063D01*
X61251053Y-129844330D01*
X61253183Y-129848337D01*
X61299596Y-129934175D01*
X61316069Y-129958597D01*
X61332197Y-129983242D01*
X61335065Y-129986759D01*
X61397266Y-130061948D01*
X61418192Y-130082728D01*
X61438775Y-130103747D01*
X61442271Y-130106640D01*
X61517892Y-130168316D01*
X61542439Y-130184625D01*
X61566736Y-130201261D01*
X61570727Y-130203420D01*
X61656888Y-130249232D01*
X61684139Y-130260464D01*
X61711193Y-130272059D01*
X61715528Y-130273401D01*
X61808946Y-130301606D01*
X61837845Y-130307328D01*
X61866657Y-130313452D01*
X61871170Y-130313927D01*
X61968287Y-130323449D01*
X61968292Y-130323449D01*
X61984039Y-130325000D01*
X67915961Y-130325000D01*
X67929884Y-130323629D01*
X67932946Y-130323650D01*
X67937462Y-130323208D01*
X68034511Y-130313008D01*
X68063385Y-130307081D01*
X68092299Y-130301565D01*
X68096644Y-130300254D01*
X68189863Y-130271398D01*
X68217063Y-130259964D01*
X68244330Y-130248947D01*
X68248337Y-130246817D01*
X68334175Y-130200404D01*
X68358597Y-130183931D01*
X68383242Y-130167803D01*
X68386759Y-130164935D01*
X68461948Y-130102734D01*
X68482728Y-130081808D01*
X68503747Y-130061225D01*
X68506640Y-130057729D01*
X68568316Y-129982108D01*
X68584625Y-129957561D01*
X68601261Y-129933264D01*
X68603420Y-129929273D01*
X68649232Y-129843112D01*
X68660464Y-129815861D01*
X68672059Y-129788807D01*
X68673401Y-129784472D01*
X68701606Y-129691054D01*
X68707328Y-129662155D01*
X68713452Y-129633343D01*
X68713927Y-129628830D01*
X68723449Y-129531713D01*
X68723449Y-129531708D01*
X68725000Y-129515961D01*
X68725000Y-126315894D01*
X68729861Y-126266311D01*
X68739644Y-126233910D01*
X68755537Y-126204018D01*
X68776932Y-126177787D01*
X68803015Y-126156209D01*
X68832786Y-126140112D01*
X68865125Y-126130101D01*
X68913659Y-126125000D01*
X79483927Y-126125000D01*
X79558237Y-126132371D01*
G37*
G04 #@! TD.AperFunction*
G04 #@! TD*
D15*
X79622987Y-148881967D03*
X76500000Y-148874990D03*
X79622987Y-158881967D03*
X76500000Y-158874990D03*
X76500000Y-168874990D03*
X79622987Y-168881967D03*
X79622987Y-138881967D03*
X76500000Y-138874990D03*
X76500000Y-128874990D03*
X79622987Y-128881967D03*
X61877013Y-130618033D03*
X65000000Y-140625010D03*
X61877013Y-170618033D03*
X65000000Y-130625010D03*
X65000000Y-170625010D03*
X61877013Y-140618033D03*
X61877013Y-150618033D03*
X65000000Y-160625010D03*
X61877013Y-160618033D03*
X65000000Y-150625010D03*
X97400000Y-150000000D03*
X97400000Y-160000000D03*
X97400000Y-170000000D03*
X97400000Y-140000000D03*
X97400000Y-130000000D03*
X44100000Y-139500000D03*
X44100000Y-149500000D03*
X44100000Y-129500000D03*
X44100000Y-159500000D03*
X44100000Y-169500000D03*
D16*
X64000000Y-132000000D03*
X64000000Y-162000000D03*
X64000000Y-172000000D03*
X64000000Y-152000000D03*
X64000000Y-142000000D03*
X77500000Y-127500000D03*
X77500000Y-137500000D03*
X77500000Y-167500000D03*
X77500000Y-157500000D03*
X77500000Y-147500000D03*
M02*
