G04 #@! TF.GenerationSoftware,KiCad,Pcbnew,5.1.9-73d0e3b20d~88~ubuntu20.04.1*
G04 #@! TF.CreationDate,2021-08-20T12:24:50+03:00*
G04 #@! TF.ProjectId,cable_to_banana,6361626c-655f-4746-9f5f-62616e616e61,rev?*
G04 #@! TF.SameCoordinates,Original*
G04 #@! TF.FileFunction,Profile,NP*
%FSLAX46Y46*%
G04 Gerber Fmt 4.6, Leading zero omitted, Abs format (unit mm)*
G04 Created by KiCad (PCBNEW 5.1.9-73d0e3b20d~88~ubuntu20.04.1) date 2021-08-20 12:24:50*
%MOMM*%
%LPD*%
G01*
G04 APERTURE LIST*
G04 #@! TA.AperFunction,Profile*
%ADD10C,0.050000*%
G04 #@! TD*
G04 APERTURE END LIST*
D10*
X73100000Y-170000000D02*
G75*
G02*
X73600000Y-169500000I500000J0D01*
G01*
X73100000Y-170000000D02*
X73100000Y-173200000D01*
X73100000Y-173200000D02*
G75*
G02*
X72600000Y-173700000I-500000J0D01*
G01*
X67900000Y-173700000D02*
X72600000Y-173700000D01*
X73600000Y-125800000D02*
X68900000Y-125800000D01*
X68400000Y-129500000D02*
X68400000Y-126300000D01*
X68400000Y-126300000D02*
G75*
G02*
X68900000Y-125800000I500000J0D01*
G01*
X68400000Y-129500000D02*
G75*
G02*
X67900000Y-130000000I-500000J0D01*
G01*
X73600000Y-135800000D02*
G75*
G02*
X73100000Y-135300000I0J500000D01*
G01*
X73100000Y-130000000D02*
X73100000Y-135300000D01*
X73100000Y-130000000D02*
G75*
G02*
X73600000Y-129500000I500000J0D01*
G01*
X73100000Y-140000000D02*
X73100000Y-145300000D01*
X73100000Y-140000000D02*
G75*
G02*
X73600000Y-139500000I500000J0D01*
G01*
X73600000Y-145800000D02*
G75*
G02*
X73100000Y-145300000I0J500000D01*
G01*
X73100000Y-150000000D02*
X73100000Y-155300000D01*
X73600000Y-155800000D02*
G75*
G02*
X73100000Y-155300000I0J500000D01*
G01*
X73100000Y-150000000D02*
G75*
G02*
X73600000Y-149500000I500000J0D01*
G01*
X73600000Y-165800000D02*
G75*
G02*
X73100000Y-165300000I0J500000D01*
G01*
X73100000Y-160000000D02*
X73100000Y-165300000D01*
X73100000Y-160000000D02*
G75*
G02*
X73600000Y-159500000I500000J0D01*
G01*
X67900000Y-163700000D02*
G75*
G02*
X68400000Y-164200000I0J-500000D01*
G01*
X68400000Y-169500000D02*
G75*
G02*
X67900000Y-170000000I-500000J0D01*
G01*
X68400000Y-169500000D02*
X68400000Y-164200000D01*
X68400000Y-159500000D02*
X68400000Y-154200000D01*
X68400000Y-159500000D02*
G75*
G02*
X67900000Y-160000000I-500000J0D01*
G01*
X67900000Y-153700000D02*
G75*
G02*
X68400000Y-154200000I0J-500000D01*
G01*
X68400000Y-149500000D02*
X68400000Y-144200000D01*
X67900000Y-143700000D02*
G75*
G02*
X68400000Y-144200000I0J-500000D01*
G01*
X68400000Y-149500000D02*
G75*
G02*
X67900000Y-150000000I-500000J0D01*
G01*
X68400000Y-139500000D02*
X68400000Y-134200000D01*
X68400000Y-139500000D02*
G75*
G02*
X67900000Y-140000000I-500000J0D01*
G01*
X67900000Y-133700000D02*
G75*
G02*
X68400000Y-134200000I0J-500000D01*
G01*
X62000000Y-170000000D02*
X67900000Y-170000000D01*
X61900179Y-133690099D02*
G75*
G02*
X60400000Y-132500000I99821J1666404D01*
G01*
X61000000Y-157000000D02*
G75*
G02*
X61500000Y-157500000I0J-500000D01*
G01*
X43400000Y-141000000D02*
X38900000Y-141000000D01*
X61000000Y-127000000D02*
X44400000Y-127000000D01*
X43400000Y-171000000D02*
G75*
G02*
X43900000Y-171500000I0J-500000D01*
G01*
X44400000Y-172000000D02*
G75*
G02*
X43900000Y-171500000I0J500000D01*
G01*
X38400000Y-130500000D02*
X38400000Y-128500000D01*
X59900000Y-162000000D02*
G75*
G02*
X60400000Y-162500000I0J-500000D01*
G01*
X62000000Y-160000000D02*
G75*
G02*
X61500000Y-159500000I0J500000D01*
G01*
X61500000Y-127500000D02*
X61500000Y-129500000D01*
X62000000Y-140000000D02*
X67900000Y-140000000D01*
X62000000Y-160000000D02*
X67900000Y-160000000D01*
X62000000Y-133700000D02*
X67900000Y-133700000D01*
X43400000Y-128000000D02*
X38900000Y-128000000D01*
X43400000Y-141000000D02*
G75*
G02*
X43900000Y-141500000I0J-500000D01*
G01*
X43400000Y-148000000D02*
G75*
G03*
X43900000Y-147500000I0J500000D01*
G01*
X38900000Y-141000000D02*
G75*
G02*
X38400000Y-140500000I0J500000D01*
G01*
X43400000Y-138000000D02*
G75*
G03*
X43900000Y-137500000I0J500000D01*
G01*
X38400000Y-170500000D02*
X38400000Y-168500000D01*
X44400000Y-167000000D02*
G75*
G03*
X43900000Y-167500000I0J-500000D01*
G01*
X38400000Y-140500000D02*
X38400000Y-138500000D01*
X61900179Y-173690099D02*
G75*
G02*
X60400000Y-172500000I99821J1666404D01*
G01*
X44400000Y-132000000D02*
G75*
G02*
X43900000Y-131500000I0J500000D01*
G01*
X62000000Y-133700000D02*
X61900179Y-133690099D01*
X43400000Y-168000000D02*
X38900000Y-168000000D01*
X44400000Y-127000000D02*
G75*
G03*
X43900000Y-127500000I0J-500000D01*
G01*
X62000000Y-153700000D02*
X67900000Y-153700000D01*
X43400000Y-131000000D02*
X38900000Y-131000000D01*
X43400000Y-171000000D02*
X38900000Y-171000000D01*
X38400000Y-160500000D02*
X38400000Y-158500000D01*
X44400000Y-157000000D02*
G75*
G03*
X43900000Y-157500000I0J-500000D01*
G01*
X43400000Y-158000000D02*
X38900000Y-158000000D01*
X43400000Y-131000000D02*
G75*
G02*
X43900000Y-131500000I0J-500000D01*
G01*
X43400000Y-161000000D02*
G75*
G02*
X43900000Y-161500000I0J-500000D01*
G01*
X38900000Y-161000000D02*
G75*
G02*
X38400000Y-160500000I0J500000D01*
G01*
X61000000Y-157000000D02*
X44400000Y-157000000D01*
X38900000Y-131000000D02*
G75*
G02*
X38400000Y-130500000I0J500000D01*
G01*
X43400000Y-158000000D02*
G75*
G03*
X43900000Y-157500000I0J500000D01*
G01*
X62000000Y-163700000D02*
X67900000Y-163700000D01*
X44400000Y-162000000D02*
G75*
G02*
X43900000Y-161500000I0J500000D01*
G01*
X62000000Y-163700000D02*
X61900179Y-163690099D01*
X44400000Y-152000000D02*
G75*
G02*
X43900000Y-151500000I0J500000D01*
G01*
X62000000Y-153700000D02*
X61900179Y-153690099D01*
X43400000Y-161000000D02*
X38900000Y-161000000D01*
X38400000Y-158500000D02*
G75*
G02*
X38900000Y-158000000I500000J0D01*
G01*
X44400000Y-162000000D02*
X59900000Y-162000000D01*
X59900000Y-152000000D02*
G75*
G02*
X60400000Y-152500000I0J-500000D01*
G01*
X44400000Y-172000000D02*
X59900000Y-172000000D01*
X62000000Y-130000000D02*
X67900000Y-130000000D01*
X62000000Y-150000000D02*
X67900000Y-150000000D01*
X59900000Y-142000000D02*
G75*
G02*
X60400000Y-142500000I0J-500000D01*
G01*
X43400000Y-128000000D02*
G75*
G03*
X43900000Y-127500000I0J500000D01*
G01*
X62000000Y-150000000D02*
G75*
G02*
X61500000Y-149500000I0J500000D01*
G01*
X61000000Y-137000000D02*
G75*
G02*
X61500000Y-137500000I0J-500000D01*
G01*
X38900000Y-171000000D02*
G75*
G02*
X38400000Y-170500000I0J500000D01*
G01*
X61000000Y-167000000D02*
X44400000Y-167000000D01*
X38400000Y-138500000D02*
G75*
G02*
X38900000Y-138000000I500000J0D01*
G01*
X62000000Y-143700000D02*
X61900179Y-143690099D01*
X38400000Y-150500000D02*
X38400000Y-148500000D01*
X61500000Y-157500000D02*
X61500000Y-159500000D01*
X61900179Y-163690099D02*
G75*
G02*
X60400000Y-162500000I99821J1666404D01*
G01*
X44400000Y-147000000D02*
G75*
G03*
X43900000Y-147500000I0J-500000D01*
G01*
X61500000Y-167500000D02*
X61500000Y-169500000D01*
X38400000Y-148500000D02*
G75*
G02*
X38900000Y-148000000I500000J0D01*
G01*
X44400000Y-137000000D02*
G75*
G03*
X43900000Y-137500000I0J-500000D01*
G01*
X61000000Y-137000000D02*
X44400000Y-137000000D01*
X44400000Y-152000000D02*
X59900000Y-152000000D01*
X38900000Y-151000000D02*
G75*
G02*
X38400000Y-150500000I0J500000D01*
G01*
X61000000Y-127000000D02*
G75*
G02*
X61500000Y-127500000I0J-500000D01*
G01*
X61000000Y-147000000D02*
X44400000Y-147000000D01*
X62000000Y-140000000D02*
G75*
G02*
X61500000Y-139500000I0J500000D01*
G01*
X59900000Y-132000000D02*
G75*
G02*
X60400000Y-132500000I0J-500000D01*
G01*
X62000000Y-173700000D02*
X67900000Y-173700000D01*
X61900179Y-143690099D02*
G75*
G02*
X60400000Y-142500000I99821J1666404D01*
G01*
X43400000Y-168000000D02*
G75*
G03*
X43900000Y-167500000I0J500000D01*
G01*
X61000000Y-167000000D02*
G75*
G02*
X61500000Y-167500000I0J-500000D01*
G01*
X61500000Y-137500000D02*
X61500000Y-139500000D01*
X61500000Y-147500000D02*
X61500000Y-149500000D01*
X44400000Y-142000000D02*
X59900000Y-142000000D01*
X59900000Y-172000000D02*
G75*
G02*
X60400000Y-172500000I0J-500000D01*
G01*
X62000000Y-170000000D02*
G75*
G02*
X61500000Y-169500000I0J500000D01*
G01*
X61900179Y-153690099D02*
G75*
G02*
X60400000Y-152500000I99821J1666404D01*
G01*
X62000000Y-173700000D02*
X61900179Y-173690099D01*
X62000000Y-143700000D02*
X67900000Y-143700000D01*
X43400000Y-138000000D02*
X38900000Y-138000000D01*
X43400000Y-148000000D02*
X38900000Y-148000000D01*
X38400000Y-168500000D02*
G75*
G02*
X38900000Y-168000000I500000J0D01*
G01*
X38400000Y-128500000D02*
G75*
G02*
X38900000Y-128000000I500000J0D01*
G01*
X61000000Y-147000000D02*
G75*
G02*
X61500000Y-147500000I0J-500000D01*
G01*
X43400000Y-151000000D02*
G75*
G02*
X43900000Y-151500000I0J-500000D01*
G01*
X44400000Y-132000000D02*
X59900000Y-132000000D01*
X44400000Y-142000000D02*
G75*
G02*
X43900000Y-141500000I0J500000D01*
G01*
X62000000Y-130000000D02*
G75*
G02*
X61500000Y-129500000I0J500000D01*
G01*
X43400000Y-151000000D02*
X38900000Y-151000000D01*
X80500000Y-132500000D02*
G75*
G02*
X80000000Y-132000000I0J500000D01*
G01*
X81600000Y-127500000D02*
G75*
G02*
X81100000Y-127000000I0J500000D01*
G01*
X79500000Y-129500000D02*
G75*
G02*
X80000000Y-130000000I0J-500000D01*
G01*
X79500000Y-129500000D02*
X73600000Y-129500000D01*
X103100000Y-129000000D02*
X103100000Y-131000000D01*
X97100000Y-132500000D02*
G75*
G03*
X97600000Y-132000000I0J500000D01*
G01*
X98100000Y-131500000D02*
X102600000Y-131500000D01*
X98100000Y-128500000D02*
G75*
G02*
X97600000Y-128000000I0J500000D01*
G01*
X102600000Y-128500000D02*
G75*
G02*
X103100000Y-129000000I0J-500000D01*
G01*
X80500000Y-132500000D02*
X97100000Y-132500000D01*
X98100000Y-131500000D02*
G75*
G03*
X97600000Y-132000000I0J-500000D01*
G01*
X79500000Y-125800000D02*
X73600000Y-125800000D01*
X97100000Y-127500000D02*
G75*
G02*
X97600000Y-128000000I0J-500000D01*
G01*
X79500000Y-125800000D02*
X79599821Y-125809901D01*
X98100000Y-128500000D02*
X102600000Y-128500000D01*
X103100000Y-131000000D02*
G75*
G02*
X102600000Y-131500000I-500000J0D01*
G01*
X97100000Y-127500000D02*
X81600000Y-127500000D01*
X80000000Y-132000000D02*
X80000000Y-130000000D01*
X79599821Y-125809901D02*
G75*
G02*
X81100000Y-127000000I-99821J-1666404D01*
G01*
X98100000Y-141500000D02*
G75*
G03*
X97600000Y-142000000I0J-500000D01*
G01*
X79500000Y-135800000D02*
X73600000Y-135800000D01*
X97100000Y-137500000D02*
G75*
G02*
X97600000Y-138000000I0J-500000D01*
G01*
X79500000Y-135800000D02*
X79599821Y-135809901D01*
X81600000Y-137500000D02*
G75*
G02*
X81100000Y-137000000I0J500000D01*
G01*
X79500000Y-139500000D02*
X73600000Y-139500000D01*
X79500000Y-139500000D02*
G75*
G02*
X80000000Y-140000000I0J-500000D01*
G01*
X103100000Y-139000000D02*
X103100000Y-141000000D01*
X97100000Y-142500000D02*
G75*
G03*
X97600000Y-142000000I0J500000D01*
G01*
X103100000Y-141000000D02*
G75*
G02*
X102600000Y-141500000I-500000J0D01*
G01*
X97100000Y-137500000D02*
X81600000Y-137500000D01*
X102600000Y-138500000D02*
G75*
G02*
X103100000Y-139000000I0J-500000D01*
G01*
X80500000Y-142500000D02*
X97100000Y-142500000D01*
X80000000Y-142000000D02*
X80000000Y-140000000D01*
X79599821Y-135809901D02*
G75*
G02*
X81100000Y-137000000I-99821J-1666404D01*
G01*
X98100000Y-141500000D02*
X102600000Y-141500000D01*
X80500000Y-142500000D02*
G75*
G02*
X80000000Y-142000000I0J500000D01*
G01*
X98100000Y-138500000D02*
G75*
G02*
X97600000Y-138000000I0J500000D01*
G01*
X98100000Y-138500000D02*
X102600000Y-138500000D01*
X98100000Y-168500000D02*
X102600000Y-168500000D01*
X79500000Y-169500000D02*
X73600000Y-169500000D01*
X98100000Y-168500000D02*
G75*
G02*
X97600000Y-168000000I0J500000D01*
G01*
X102600000Y-168500000D02*
G75*
G02*
X103100000Y-169000000I0J-500000D01*
G01*
X98100000Y-171500000D02*
G75*
G03*
X97600000Y-172000000I0J-500000D01*
G01*
X103100000Y-169000000D02*
X103100000Y-171000000D01*
X81600000Y-167500000D02*
G75*
G02*
X81100000Y-167000000I0J500000D01*
G01*
X80500000Y-172500000D02*
G75*
G02*
X80000000Y-172000000I0J500000D01*
G01*
X103100000Y-171000000D02*
G75*
G02*
X102600000Y-171500000I-500000J0D01*
G01*
X79500000Y-165800000D02*
X79599821Y-165809901D01*
X97100000Y-172500000D02*
G75*
G03*
X97600000Y-172000000I0J500000D01*
G01*
X80500000Y-172500000D02*
X97100000Y-172500000D01*
X79500000Y-169500000D02*
G75*
G02*
X80000000Y-170000000I0J-500000D01*
G01*
X79599821Y-165809901D02*
G75*
G02*
X81100000Y-167000000I-99821J-1666404D01*
G01*
X80000000Y-172000000D02*
X80000000Y-170000000D01*
X97100000Y-167500000D02*
X81600000Y-167500000D01*
X79500000Y-165800000D02*
X73600000Y-165800000D01*
X98100000Y-171500000D02*
X102600000Y-171500000D01*
X97100000Y-167500000D02*
G75*
G02*
X97600000Y-168000000I0J-500000D01*
G01*
X98100000Y-161500000D02*
G75*
G03*
X97600000Y-162000000I0J-500000D01*
G01*
X79500000Y-155800000D02*
X73600000Y-155800000D01*
X97100000Y-157500000D02*
G75*
G02*
X97600000Y-158000000I0J-500000D01*
G01*
X79500000Y-155800000D02*
X79599821Y-155809901D01*
X81600000Y-157500000D02*
G75*
G02*
X81100000Y-157000000I0J500000D01*
G01*
X79500000Y-159500000D02*
X73600000Y-159500000D01*
X79500000Y-159500000D02*
G75*
G02*
X80000000Y-160000000I0J-500000D01*
G01*
X103100000Y-159000000D02*
X103100000Y-161000000D01*
X97100000Y-162500000D02*
G75*
G03*
X97600000Y-162000000I0J500000D01*
G01*
X103100000Y-161000000D02*
G75*
G02*
X102600000Y-161500000I-500000J0D01*
G01*
X97100000Y-157500000D02*
X81600000Y-157500000D01*
X102600000Y-158500000D02*
G75*
G02*
X103100000Y-159000000I0J-500000D01*
G01*
X80500000Y-162500000D02*
X97100000Y-162500000D01*
X80000000Y-162000000D02*
X80000000Y-160000000D01*
X79599821Y-155809901D02*
G75*
G02*
X81100000Y-157000000I-99821J-1666404D01*
G01*
X98100000Y-161500000D02*
X102600000Y-161500000D01*
X80500000Y-162500000D02*
G75*
G02*
X80000000Y-162000000I0J500000D01*
G01*
X98100000Y-158500000D02*
G75*
G02*
X97600000Y-158000000I0J500000D01*
G01*
X98100000Y-158500000D02*
X102600000Y-158500000D01*
X79500000Y-145800000D02*
X79599821Y-145809901D01*
X81600000Y-147500000D02*
G75*
G02*
X81100000Y-147000000I0J500000D01*
G01*
X79500000Y-145800000D02*
X73600000Y-145800000D01*
X79500000Y-149500000D02*
X73600000Y-149500000D01*
X80500000Y-152500000D02*
G75*
G02*
X80000000Y-152000000I0J500000D01*
G01*
X79500000Y-149500000D02*
G75*
G02*
X80000000Y-150000000I0J-500000D01*
G01*
X79599821Y-145809901D02*
G75*
G02*
X81100000Y-147000000I-99821J-1666404D01*
G01*
X103100000Y-149000000D02*
X103100000Y-151000000D01*
X103100000Y-151000000D02*
G75*
G02*
X102600000Y-151500000I-500000J0D01*
G01*
X102600000Y-148500000D02*
G75*
G02*
X103100000Y-149000000I0J-500000D01*
G01*
X97100000Y-152500000D02*
G75*
G03*
X97600000Y-152000000I0J500000D01*
G01*
X98100000Y-151500000D02*
G75*
G03*
X97600000Y-152000000I0J-500000D01*
G01*
X97100000Y-147500000D02*
G75*
G02*
X97600000Y-148000000I0J-500000D01*
G01*
X98100000Y-148500000D02*
G75*
G02*
X97600000Y-148000000I0J500000D01*
G01*
X80000000Y-152000000D02*
X80000000Y-150000000D01*
X98100000Y-151500000D02*
X102600000Y-151500000D01*
X98100000Y-148500000D02*
X102600000Y-148500000D01*
X97100000Y-147500000D02*
X81600000Y-147500000D01*
X80500000Y-152500000D02*
X97100000Y-152500000D01*
M02*
