G04 #@! TF.GenerationSoftware,KiCad,Pcbnew,5.1.5+dfsg1-2build2*
G04 #@! TF.CreationDate,2021-01-13T09:20:08+02:00*
G04 #@! TF.ProjectId,differential-tweezer,64696666-6572-4656-9e74-69616c2d7477,rev?*
G04 #@! TF.SameCoordinates,Original*
G04 #@! TF.FileFunction,Profile,NP*
%FSLAX46Y46*%
G04 Gerber Fmt 4.6, Leading zero omitted, Abs format (unit mm)*
G04 Created by KiCad (PCBNEW 5.1.5+dfsg1-2build2) date 2021-01-13 09:20:08*
%MOMM*%
%LPD*%
G04 APERTURE LIST*
%ADD10C,0.050000*%
G04 APERTURE END LIST*
D10*
X39000000Y-23500000D02*
X39000000Y-10500000D01*
X39000000Y-23500000D02*
G75*
G02X38000000Y-24500000I-1000000J0D01*
G01*
X38000000Y-9500000D02*
G75*
G02X39000000Y-10500000I0J-1000000D01*
G01*
X11000000Y-25400000D02*
X8000000Y-25500000D01*
X35000000Y-25600000D02*
X38000000Y-25500000D01*
X8000000Y-28500000D02*
X38000000Y-27500000D01*
X35000000Y-24600000D02*
X38000000Y-24500000D01*
X38000000Y-25500000D02*
G75*
G02X38000000Y-27500000I0J-1000000D01*
G01*
X11000000Y-26400000D02*
G75*
G03X11000000Y-25400000I0J500000D01*
G01*
X11000000Y-26400000D02*
X8000000Y-26500000D01*
X35000000Y-25600000D02*
G75*
G02X35000000Y-24600000I0J500000D01*
G01*
X8000000Y-26500000D02*
G75*
G03X8000000Y-28500000I0J-1000000D01*
G01*
X11000000Y-8600000D02*
X8000000Y-8500000D01*
X35000000Y-9400000D02*
X38000000Y-9500000D01*
X8000000Y-5500000D02*
X38000000Y-6500000D01*
X35000000Y-8400000D02*
G75*
G03X35000000Y-9400000I0J-500000D01*
G01*
X35000000Y-8400000D02*
X38000000Y-8500000D01*
X38000000Y-8500000D02*
G75*
G03X38000000Y-6500000I0J1000000D01*
G01*
X8000000Y-7500000D02*
G75*
G02X8000000Y-5500000I0J1000000D01*
G01*
X11000000Y-7600000D02*
X8000000Y-7500000D01*
X11000000Y-7600000D02*
G75*
G02X11000000Y-8600000I0J-500000D01*
G01*
X7000000Y-9500000D02*
G75*
G02X8000000Y-8500000I1000000J0D01*
G01*
X8000000Y-25500000D02*
G75*
G02X7000000Y-24500000I0J1000000D01*
G01*
X7000000Y-24500000D02*
X7000000Y-9500000D01*
M02*
