G04 #@! TF.GenerationSoftware,KiCad,Pcbnew,5.1.9-73d0e3b20d~88~ubuntu20.04.1*
G04 #@! TF.CreationDate,2021-06-04T11:55:54+03:00*
G04 #@! TF.ProjectId,differential-tweezer,64696666-6572-4656-9e74-69616c2d7477,rev?*
G04 #@! TF.SameCoordinates,Original*
G04 #@! TF.FileFunction,Copper,L3,Inr*
G04 #@! TF.FilePolarity,Positive*
%FSLAX46Y46*%
G04 Gerber Fmt 4.6, Leading zero omitted, Abs format (unit mm)*
G04 Created by KiCad (PCBNEW 5.1.9-73d0e3b20d~88~ubuntu20.04.1) date 2021-06-04 11:55:54*
%MOMM*%
%LPD*%
G01*
G04 APERTURE LIST*
G04 #@! TA.AperFunction,ComponentPad*
%ADD10C,2.800000*%
G04 #@! TD*
G04 #@! TA.AperFunction,ComponentPad*
%ADD11C,2.000000*%
G04 #@! TD*
G04 #@! TA.AperFunction,ComponentPad*
%ADD12C,0.600000*%
G04 #@! TD*
G04 #@! TA.AperFunction,ComponentPad*
%ADD13C,4.200000*%
G04 #@! TD*
G04 #@! TA.AperFunction,ViaPad*
%ADD14C,0.600000*%
G04 #@! TD*
G04 #@! TA.AperFunction,Conductor*
%ADD15C,0.200000*%
G04 #@! TD*
G04 #@! TA.AperFunction,Conductor*
%ADD16C,0.350000*%
G04 #@! TD*
%ADD17C,0.300000*%
%ADD18C,0.350000*%
G04 APERTURE END LIST*
D10*
G04 #@! TO.N,GNDA*
G04 #@! TO.C,J8*
X7500000Y-1700000D03*
X7500000Y-6100000D03*
X11900000Y-6100000D03*
X11900000Y-1700000D03*
D11*
G04 #@! TO.N,/CONN_IN-*
X9700000Y-3900000D03*
G04 #@! TD*
D12*
G04 #@! TO.N,+5V*
G04 #@! TO.C,J2*
X15600000Y-31300000D03*
X15600000Y-33400000D03*
X15600000Y-35500000D03*
X12400000Y-31300000D03*
X12400000Y-33400000D03*
X12400000Y-35500000D03*
G04 #@! TD*
G04 #@! TO.N,GNDA*
G04 #@! TO.C,J4*
X25099794Y-10392150D03*
X24500617Y-10423551D03*
X25131196Y-10991327D03*
G04 #@! TD*
G04 #@! TO.N,/IN+*
G04 #@! TO.C,J3*
X25249794Y-13192150D03*
X24650617Y-13223551D03*
X25281196Y-13791327D03*
G04 #@! TD*
G04 #@! TO.N,/IN-*
G04 #@! TO.C,J6*
X2718804Y-13791327D03*
X3349383Y-13223551D03*
X2750206Y-13192150D03*
G04 #@! TD*
G04 #@! TO.N,GNDA*
G04 #@! TO.C,J5*
X2868804Y-10991327D03*
X3499383Y-10423551D03*
X2900206Y-10392150D03*
G04 #@! TD*
D11*
G04 #@! TO.N,/OUT*
G04 #@! TO.C,J1*
X14000000Y-21700000D03*
D12*
G04 #@! TO.N,GNDA*
X15100000Y-28400000D03*
X12900000Y-28400000D03*
X12900000Y-24200000D03*
X12900000Y-26300000D03*
X15100000Y-26300000D03*
X15100000Y-24200000D03*
G04 #@! TD*
D10*
G04 #@! TO.N,GNDA*
G04 #@! TO.C,J7*
X16100000Y-1700000D03*
X16100000Y-6100000D03*
X20500000Y-6100000D03*
X20500000Y-1700000D03*
D11*
G04 #@! TO.N,/CONN_IN+*
X18300000Y-3900000D03*
G04 #@! TD*
D13*
G04 #@! TO.N,GNDA*
G04 #@! TO.C,H1*
X19400000Y-34700000D03*
G04 #@! TD*
D12*
G04 #@! TO.N,-6V*
G04 #@! TO.C,U4*
X20800000Y-29350000D03*
X20800000Y-28350000D03*
X22300000Y-29350000D03*
X22300000Y-28350000D03*
X21550000Y-28850000D03*
G04 #@! TD*
G04 #@! TO.N,-6V*
G04 #@! TO.C,U3*
X11400000Y-11300000D03*
X10400000Y-11300000D03*
X11400000Y-9800000D03*
X10400000Y-9800000D03*
X10900000Y-10550000D03*
G04 #@! TD*
G04 #@! TO.N,-6V*
G04 #@! TO.C,U2*
X16600000Y-9850000D03*
X17600000Y-9850000D03*
X16600000Y-11350000D03*
X17600000Y-11350000D03*
X17100000Y-10600000D03*
G04 #@! TD*
D14*
G04 #@! TO.N,GND*
X5900000Y-23000010D03*
X8300000Y-23000000D03*
X5800000Y-25699942D03*
X6799999Y-32300001D03*
X8399998Y-25700002D03*
X6700000Y-35800000D03*
X10699998Y-32700000D03*
X6500000Y-33900000D03*
X4100000Y-29800000D03*
X5700000Y-28500000D03*
X6300000Y-28500000D03*
X6900000Y-28500000D03*
X7500000Y-28500000D03*
X8100000Y-28500000D03*
X8100000Y-29300000D03*
X7500000Y-29300000D03*
X6900000Y-29300000D03*
X6300000Y-29300000D03*
X5700000Y-29300000D03*
X6500000Y-32800000D03*
G04 #@! TO.N,Net-(C4-Pad1)*
X8843750Y-24956250D03*
X4709169Y-34729766D03*
G04 #@! TO.N,+6V*
X11300000Y-21400000D03*
X22198192Y-31251808D03*
X22400000Y-33600000D03*
X24000000Y-21650000D03*
X12500466Y-12525005D03*
G04 #@! TO.N,-6V*
X22600000Y-21500000D03*
X5299992Y-21000000D03*
X10400000Y-12250000D03*
X9800000Y-12250000D03*
X9200000Y-12250000D03*
X9200000Y-12850000D03*
X9800000Y-12850000D03*
X10400000Y-12850000D03*
X11000000Y-12850000D03*
X11000000Y-12250000D03*
X17600000Y-12250000D03*
X18200000Y-12250000D03*
X18800000Y-12275002D03*
X18800000Y-12850000D03*
X18200000Y-12850000D03*
X17600000Y-12850000D03*
X17000000Y-12850000D03*
X16400000Y-12850000D03*
X16400000Y-12250000D03*
X17000000Y-12250000D03*
X11600000Y-12850000D03*
X11600000Y-12250000D03*
X9200000Y-13450000D03*
X9800000Y-13450000D03*
X10400000Y-13450000D03*
X11000000Y-13450000D03*
X11600000Y-13450000D03*
X16400000Y-13450000D03*
X17000000Y-13450000D03*
X17600000Y-13450000D03*
X18200000Y-13450000D03*
X18800000Y-13450000D03*
X20050000Y-28350000D03*
X20050000Y-28950000D03*
X20050000Y-29550000D03*
X19450000Y-29550000D03*
X18850000Y-29550000D03*
X19750000Y-27450000D03*
X19150000Y-27450000D03*
X18550000Y-27450000D03*
X18550000Y-26850000D03*
X19150000Y-26850000D03*
X19750000Y-26850000D03*
X23100000Y-28350000D03*
X23100000Y-28950000D03*
X23225000Y-29575000D03*
X16950000Y-30250000D03*
G04 #@! TO.N,Net-(C26-Pad1)*
X5000000Y-26949989D03*
X8400000Y-31200000D03*
X5075022Y-30917992D03*
G04 #@! TO.N,/CONN_IN+*
X21850032Y-3900000D03*
G04 #@! TO.N,/CONN_IN-*
X6149952Y-3900000D03*
G04 #@! TO.N,Net-(C1-Pad2)*
X15109998Y-8930000D03*
X21350000Y-24150000D03*
G04 #@! TO.N,GNDA*
X22600000Y-6300000D03*
X5400000Y-6400000D03*
X5100000Y-18500000D03*
X22900000Y-18500000D03*
X18600010Y-24469549D03*
X8200000Y-8100000D03*
X19150000Y-8150000D03*
X25637500Y-31012500D03*
X25650000Y-32500000D03*
X17300000Y-26450000D03*
X13900487Y-11250000D03*
X22300000Y-35899998D03*
X24800000Y-22600000D03*
X14000002Y-7700002D03*
G04 #@! TO.N,Net-(C11-Pad1)*
X13075461Y-10898645D03*
X7800000Y-8999992D03*
X24987500Y-25800000D03*
G04 #@! TD*
D15*
G04 #@! TO.N,GND*
X10756274Y-21846224D02*
X10853776Y-21943726D01*
X10968426Y-22020332D01*
X11095818Y-22073099D01*
X11231056Y-22100000D01*
X11368944Y-22100000D01*
X11502377Y-22073458D01*
X11594743Y-36575000D01*
X3520789Y-36575000D01*
X3136205Y-36537291D01*
X2786272Y-36431640D01*
X2463518Y-36260030D01*
X2180250Y-36029003D01*
X1947246Y-35747349D01*
X1773385Y-35425800D01*
X1665293Y-35076613D01*
X1625442Y-34697455D01*
X1626077Y-34660822D01*
X4009169Y-34660822D01*
X4009169Y-34798710D01*
X4036070Y-34933948D01*
X4088837Y-35061340D01*
X4165443Y-35175990D01*
X4262945Y-35273492D01*
X4377595Y-35350098D01*
X4504987Y-35402865D01*
X4640225Y-35429766D01*
X4778113Y-35429766D01*
X4913351Y-35402865D01*
X5040743Y-35350098D01*
X5155393Y-35273492D01*
X5252895Y-35175990D01*
X5329501Y-35061340D01*
X5382268Y-34933948D01*
X5409169Y-34798710D01*
X5409169Y-34660822D01*
X5382268Y-34525584D01*
X5329501Y-34398192D01*
X5252895Y-34283542D01*
X5155393Y-34186040D01*
X5040743Y-34109434D01*
X4913351Y-34056667D01*
X4778113Y-34029766D01*
X4640225Y-34029766D01*
X4504987Y-34056667D01*
X4377595Y-34109434D01*
X4262945Y-34186040D01*
X4165443Y-34283542D01*
X4088837Y-34398192D01*
X4036070Y-34525584D01*
X4009169Y-34660822D01*
X1626077Y-34660822D01*
X1626814Y-34618321D01*
X1811310Y-30849048D01*
X4375022Y-30849048D01*
X4375022Y-30986936D01*
X4401923Y-31122174D01*
X4454690Y-31249566D01*
X4531296Y-31364216D01*
X4628798Y-31461718D01*
X4743448Y-31538324D01*
X4870840Y-31591091D01*
X5006078Y-31617992D01*
X5143966Y-31617992D01*
X5279204Y-31591091D01*
X5406596Y-31538324D01*
X5521246Y-31461718D01*
X5618748Y-31364216D01*
X5695354Y-31249566D01*
X5744441Y-31131056D01*
X7700000Y-31131056D01*
X7700000Y-31268944D01*
X7726901Y-31404182D01*
X7779668Y-31531574D01*
X7856274Y-31646224D01*
X7953776Y-31743726D01*
X8068426Y-31820332D01*
X8195818Y-31873099D01*
X8331056Y-31900000D01*
X8468944Y-31900000D01*
X8604182Y-31873099D01*
X8731574Y-31820332D01*
X8846224Y-31743726D01*
X8943726Y-31646224D01*
X9020332Y-31531574D01*
X9073099Y-31404182D01*
X9100000Y-31268944D01*
X9100000Y-31131056D01*
X9073099Y-30995818D01*
X9020332Y-30868426D01*
X8943726Y-30753776D01*
X8846224Y-30656274D01*
X8731574Y-30579668D01*
X8604182Y-30526901D01*
X8468944Y-30500000D01*
X8331056Y-30500000D01*
X8195818Y-30526901D01*
X8068426Y-30579668D01*
X7953776Y-30656274D01*
X7856274Y-30753776D01*
X7779668Y-30868426D01*
X7726901Y-30995818D01*
X7700000Y-31131056D01*
X5744441Y-31131056D01*
X5748121Y-31122174D01*
X5775022Y-30986936D01*
X5775022Y-30849048D01*
X5748121Y-30713810D01*
X5695354Y-30586418D01*
X5618748Y-30471768D01*
X5521246Y-30374266D01*
X5406596Y-30297660D01*
X5279204Y-30244893D01*
X5143966Y-30217992D01*
X5006078Y-30217992D01*
X4870840Y-30244893D01*
X4743448Y-30297660D01*
X4628798Y-30374266D01*
X4531296Y-30471768D01*
X4454690Y-30586418D01*
X4401923Y-30713810D01*
X4375022Y-30849048D01*
X1811310Y-30849048D01*
X2005535Y-26881045D01*
X4300000Y-26881045D01*
X4300000Y-27018933D01*
X4326901Y-27154171D01*
X4379668Y-27281563D01*
X4456274Y-27396213D01*
X4553776Y-27493715D01*
X4668426Y-27570321D01*
X4795818Y-27623088D01*
X4931056Y-27649989D01*
X5068944Y-27649989D01*
X5204182Y-27623088D01*
X5331574Y-27570321D01*
X5446224Y-27493715D01*
X5543726Y-27396213D01*
X5620332Y-27281563D01*
X5673099Y-27154171D01*
X5700000Y-27018933D01*
X5700000Y-26881045D01*
X5673099Y-26745807D01*
X5620332Y-26618415D01*
X5543726Y-26503765D01*
X5446224Y-26406263D01*
X5331574Y-26329657D01*
X5204182Y-26276890D01*
X5068944Y-26249989D01*
X4931056Y-26249989D01*
X4795818Y-26276890D01*
X4668426Y-26329657D01*
X4553776Y-26406263D01*
X4456274Y-26503765D01*
X4379668Y-26618415D01*
X4326901Y-26745807D01*
X4300000Y-26881045D01*
X2005535Y-26881045D01*
X2103124Y-24887306D01*
X8143750Y-24887306D01*
X8143750Y-25025194D01*
X8170651Y-25160432D01*
X8223418Y-25287824D01*
X8300024Y-25402474D01*
X8397526Y-25499976D01*
X8512176Y-25576582D01*
X8639568Y-25629349D01*
X8774806Y-25656250D01*
X8912694Y-25656250D01*
X9047932Y-25629349D01*
X9175324Y-25576582D01*
X9289974Y-25499976D01*
X9387476Y-25402474D01*
X9464082Y-25287824D01*
X9516849Y-25160432D01*
X9543750Y-25025194D01*
X9543750Y-24887306D01*
X9516849Y-24752068D01*
X9464082Y-24624676D01*
X9387476Y-24510026D01*
X9289974Y-24412524D01*
X9175324Y-24335918D01*
X9047932Y-24283151D01*
X8912694Y-24256250D01*
X8774806Y-24256250D01*
X8639568Y-24283151D01*
X8512176Y-24335918D01*
X8397526Y-24412524D01*
X8300024Y-24510026D01*
X8223418Y-24624676D01*
X8170651Y-24752068D01*
X8143750Y-24887306D01*
X2103124Y-24887306D01*
X2254241Y-21800000D01*
X10725388Y-21800000D01*
X10756274Y-21846224D01*
G04 #@! TA.AperFunction,Conductor*
D16*
G36*
X10756274Y-21846224D02*
G01*
X10853776Y-21943726D01*
X10968426Y-22020332D01*
X11095818Y-22073099D01*
X11231056Y-22100000D01*
X11368944Y-22100000D01*
X11502377Y-22073458D01*
X11594743Y-36575000D01*
X3520789Y-36575000D01*
X3136205Y-36537291D01*
X2786272Y-36431640D01*
X2463518Y-36260030D01*
X2180250Y-36029003D01*
X1947246Y-35747349D01*
X1773385Y-35425800D01*
X1665293Y-35076613D01*
X1625442Y-34697455D01*
X1626077Y-34660822D01*
X4009169Y-34660822D01*
X4009169Y-34798710D01*
X4036070Y-34933948D01*
X4088837Y-35061340D01*
X4165443Y-35175990D01*
X4262945Y-35273492D01*
X4377595Y-35350098D01*
X4504987Y-35402865D01*
X4640225Y-35429766D01*
X4778113Y-35429766D01*
X4913351Y-35402865D01*
X5040743Y-35350098D01*
X5155393Y-35273492D01*
X5252895Y-35175990D01*
X5329501Y-35061340D01*
X5382268Y-34933948D01*
X5409169Y-34798710D01*
X5409169Y-34660822D01*
X5382268Y-34525584D01*
X5329501Y-34398192D01*
X5252895Y-34283542D01*
X5155393Y-34186040D01*
X5040743Y-34109434D01*
X4913351Y-34056667D01*
X4778113Y-34029766D01*
X4640225Y-34029766D01*
X4504987Y-34056667D01*
X4377595Y-34109434D01*
X4262945Y-34186040D01*
X4165443Y-34283542D01*
X4088837Y-34398192D01*
X4036070Y-34525584D01*
X4009169Y-34660822D01*
X1626077Y-34660822D01*
X1626814Y-34618321D01*
X1811310Y-30849048D01*
X4375022Y-30849048D01*
X4375022Y-30986936D01*
X4401923Y-31122174D01*
X4454690Y-31249566D01*
X4531296Y-31364216D01*
X4628798Y-31461718D01*
X4743448Y-31538324D01*
X4870840Y-31591091D01*
X5006078Y-31617992D01*
X5143966Y-31617992D01*
X5279204Y-31591091D01*
X5406596Y-31538324D01*
X5521246Y-31461718D01*
X5618748Y-31364216D01*
X5695354Y-31249566D01*
X5744441Y-31131056D01*
X7700000Y-31131056D01*
X7700000Y-31268944D01*
X7726901Y-31404182D01*
X7779668Y-31531574D01*
X7856274Y-31646224D01*
X7953776Y-31743726D01*
X8068426Y-31820332D01*
X8195818Y-31873099D01*
X8331056Y-31900000D01*
X8468944Y-31900000D01*
X8604182Y-31873099D01*
X8731574Y-31820332D01*
X8846224Y-31743726D01*
X8943726Y-31646224D01*
X9020332Y-31531574D01*
X9073099Y-31404182D01*
X9100000Y-31268944D01*
X9100000Y-31131056D01*
X9073099Y-30995818D01*
X9020332Y-30868426D01*
X8943726Y-30753776D01*
X8846224Y-30656274D01*
X8731574Y-30579668D01*
X8604182Y-30526901D01*
X8468944Y-30500000D01*
X8331056Y-30500000D01*
X8195818Y-30526901D01*
X8068426Y-30579668D01*
X7953776Y-30656274D01*
X7856274Y-30753776D01*
X7779668Y-30868426D01*
X7726901Y-30995818D01*
X7700000Y-31131056D01*
X5744441Y-31131056D01*
X5748121Y-31122174D01*
X5775022Y-30986936D01*
X5775022Y-30849048D01*
X5748121Y-30713810D01*
X5695354Y-30586418D01*
X5618748Y-30471768D01*
X5521246Y-30374266D01*
X5406596Y-30297660D01*
X5279204Y-30244893D01*
X5143966Y-30217992D01*
X5006078Y-30217992D01*
X4870840Y-30244893D01*
X4743448Y-30297660D01*
X4628798Y-30374266D01*
X4531296Y-30471768D01*
X4454690Y-30586418D01*
X4401923Y-30713810D01*
X4375022Y-30849048D01*
X1811310Y-30849048D01*
X2005535Y-26881045D01*
X4300000Y-26881045D01*
X4300000Y-27018933D01*
X4326901Y-27154171D01*
X4379668Y-27281563D01*
X4456274Y-27396213D01*
X4553776Y-27493715D01*
X4668426Y-27570321D01*
X4795818Y-27623088D01*
X4931056Y-27649989D01*
X5068944Y-27649989D01*
X5204182Y-27623088D01*
X5331574Y-27570321D01*
X5446224Y-27493715D01*
X5543726Y-27396213D01*
X5620332Y-27281563D01*
X5673099Y-27154171D01*
X5700000Y-27018933D01*
X5700000Y-26881045D01*
X5673099Y-26745807D01*
X5620332Y-26618415D01*
X5543726Y-26503765D01*
X5446224Y-26406263D01*
X5331574Y-26329657D01*
X5204182Y-26276890D01*
X5068944Y-26249989D01*
X4931056Y-26249989D01*
X4795818Y-26276890D01*
X4668426Y-26329657D01*
X4553776Y-26406263D01*
X4456274Y-26503765D01*
X4379668Y-26618415D01*
X4326901Y-26745807D01*
X4300000Y-26881045D01*
X2005535Y-26881045D01*
X2103124Y-24887306D01*
X8143750Y-24887306D01*
X8143750Y-25025194D01*
X8170651Y-25160432D01*
X8223418Y-25287824D01*
X8300024Y-25402474D01*
X8397526Y-25499976D01*
X8512176Y-25576582D01*
X8639568Y-25629349D01*
X8774806Y-25656250D01*
X8912694Y-25656250D01*
X9047932Y-25629349D01*
X9175324Y-25576582D01*
X9289974Y-25499976D01*
X9387476Y-25402474D01*
X9464082Y-25287824D01*
X9516849Y-25160432D01*
X9543750Y-25025194D01*
X9543750Y-24887306D01*
X9516849Y-24752068D01*
X9464082Y-24624676D01*
X9387476Y-24510026D01*
X9289974Y-24412524D01*
X9175324Y-24335918D01*
X9047932Y-24283151D01*
X8912694Y-24256250D01*
X8774806Y-24256250D01*
X8639568Y-24283151D01*
X8512176Y-24335918D01*
X8397526Y-24412524D01*
X8300024Y-24510026D01*
X8223418Y-24624676D01*
X8170651Y-24752068D01*
X8143750Y-24887306D01*
X2103124Y-24887306D01*
X2254241Y-21800000D01*
X10725388Y-21800000D01*
X10756274Y-21846224D01*
G37*
G04 #@! TD.AperFunction*
G04 #@! TD*
D15*
G04 #@! TO.N,GNDA*
X21333689Y-329861D02*
X21366090Y-339644D01*
X21395982Y-355537D01*
X21434178Y-386690D01*
X24912503Y-3865016D01*
X24944127Y-3903516D01*
X24960123Y-3933348D01*
X24970019Y-3965717D01*
X24975644Y-4021095D01*
X25396025Y-12609483D01*
X25308889Y-12592150D01*
X25190699Y-12592150D01*
X25074780Y-12615208D01*
X24965587Y-12660437D01*
X24924804Y-12687688D01*
X24825631Y-12646609D01*
X24709712Y-12623551D01*
X24591522Y-12623551D01*
X24475603Y-12646609D01*
X24366410Y-12691838D01*
X24268139Y-12757501D01*
X24184567Y-12841073D01*
X24118904Y-12939344D01*
X24073675Y-13048537D01*
X24050617Y-13164456D01*
X24050617Y-13282646D01*
X24073675Y-13398565D01*
X24118904Y-13507758D01*
X24184567Y-13606029D01*
X24268139Y-13689601D01*
X24366410Y-13755264D01*
X24475603Y-13800493D01*
X24591522Y-13823551D01*
X24681196Y-13823551D01*
X24681196Y-13850422D01*
X24704254Y-13966341D01*
X24749483Y-14075534D01*
X24815146Y-14173805D01*
X24898718Y-14257377D01*
X24996989Y-14323040D01*
X25106182Y-14368269D01*
X25222101Y-14391327D01*
X25340291Y-14391327D01*
X25456210Y-14368269D01*
X25481599Y-14357753D01*
X26472559Y-34603087D01*
X26450137Y-35002386D01*
X26354262Y-35375413D01*
X26187761Y-35722709D01*
X25956971Y-36031055D01*
X25670689Y-36288697D01*
X25339812Y-36485830D01*
X24976949Y-36614939D01*
X24584041Y-36672861D01*
X24496049Y-36675000D01*
X12095390Y-36675000D01*
X12091188Y-36015273D01*
X12115793Y-36031713D01*
X12224986Y-36076942D01*
X12340905Y-36100000D01*
X12459095Y-36100000D01*
X12575014Y-36076942D01*
X12684207Y-36031713D01*
X12782478Y-35966050D01*
X12866050Y-35882478D01*
X12931713Y-35784207D01*
X12976942Y-35675014D01*
X13000000Y-35559095D01*
X13000000Y-35440905D01*
X15000000Y-35440905D01*
X15000000Y-35559095D01*
X15023058Y-35675014D01*
X15068287Y-35784207D01*
X15133950Y-35882478D01*
X15217522Y-35966050D01*
X15315793Y-36031713D01*
X15424986Y-36076942D01*
X15540905Y-36100000D01*
X15659095Y-36100000D01*
X15775014Y-36076942D01*
X15884207Y-36031713D01*
X15982478Y-35966050D01*
X16066050Y-35882478D01*
X16131713Y-35784207D01*
X16176942Y-35675014D01*
X16200000Y-35559095D01*
X16200000Y-35440905D01*
X16176942Y-35324986D01*
X16131713Y-35215793D01*
X16066050Y-35117522D01*
X15982478Y-35033950D01*
X15884207Y-34968287D01*
X15775014Y-34923058D01*
X15659095Y-34900000D01*
X15540905Y-34900000D01*
X15424986Y-34923058D01*
X15315793Y-34968287D01*
X15217522Y-35033950D01*
X15133950Y-35117522D01*
X15068287Y-35215793D01*
X15023058Y-35324986D01*
X15000000Y-35440905D01*
X13000000Y-35440905D01*
X12976942Y-35324986D01*
X12931713Y-35215793D01*
X12866050Y-35117522D01*
X12782478Y-35033950D01*
X12684207Y-34968287D01*
X12575014Y-34923058D01*
X12459095Y-34900000D01*
X12340905Y-34900000D01*
X12224986Y-34923058D01*
X12115793Y-34968287D01*
X12084652Y-34989095D01*
X12077755Y-33906297D01*
X12115793Y-33931713D01*
X12224986Y-33976942D01*
X12340905Y-34000000D01*
X12459095Y-34000000D01*
X12575014Y-33976942D01*
X12684207Y-33931713D01*
X12782478Y-33866050D01*
X12866050Y-33782478D01*
X12931713Y-33684207D01*
X12976942Y-33575014D01*
X13000000Y-33459095D01*
X13000000Y-33340905D01*
X15000000Y-33340905D01*
X15000000Y-33459095D01*
X15023058Y-33575014D01*
X15068287Y-33684207D01*
X15133950Y-33782478D01*
X15217522Y-33866050D01*
X15315793Y-33931713D01*
X15424986Y-33976942D01*
X15540905Y-34000000D01*
X15659095Y-34000000D01*
X15775014Y-33976942D01*
X15884207Y-33931713D01*
X15982478Y-33866050D01*
X16066050Y-33782478D01*
X16131713Y-33684207D01*
X16176942Y-33575014D01*
X16183726Y-33540905D01*
X21800000Y-33540905D01*
X21800000Y-33659095D01*
X21823058Y-33775014D01*
X21868287Y-33884207D01*
X21933950Y-33982478D01*
X22017522Y-34066050D01*
X22115793Y-34131713D01*
X22224986Y-34176942D01*
X22340905Y-34200000D01*
X22459095Y-34200000D01*
X22575014Y-34176942D01*
X22684207Y-34131713D01*
X22782478Y-34066050D01*
X22866050Y-33982478D01*
X22931713Y-33884207D01*
X22976942Y-33775014D01*
X23000000Y-33659095D01*
X23000000Y-33540905D01*
X22976942Y-33424986D01*
X22931713Y-33315793D01*
X22866050Y-33217522D01*
X22782478Y-33133950D01*
X22684207Y-33068287D01*
X22575014Y-33023058D01*
X22459095Y-33000000D01*
X22340905Y-33000000D01*
X22224986Y-33023058D01*
X22115793Y-33068287D01*
X22017522Y-33133950D01*
X21933950Y-33217522D01*
X21868287Y-33315793D01*
X21823058Y-33424986D01*
X21800000Y-33540905D01*
X16183726Y-33540905D01*
X16200000Y-33459095D01*
X16200000Y-33340905D01*
X16176942Y-33224986D01*
X16131713Y-33115793D01*
X16066050Y-33017522D01*
X15982478Y-32933950D01*
X15884207Y-32868287D01*
X15775014Y-32823058D01*
X15659095Y-32800000D01*
X15540905Y-32800000D01*
X15424986Y-32823058D01*
X15315793Y-32868287D01*
X15217522Y-32933950D01*
X15133950Y-33017522D01*
X15068287Y-33115793D01*
X15023058Y-33224986D01*
X15000000Y-33340905D01*
X13000000Y-33340905D01*
X12976942Y-33224986D01*
X12931713Y-33115793D01*
X12866050Y-33017522D01*
X12782478Y-32933950D01*
X12684207Y-32868287D01*
X12575014Y-32823058D01*
X12459095Y-32800000D01*
X12340905Y-32800000D01*
X12224986Y-32823058D01*
X12115793Y-32868287D01*
X12071333Y-32897994D01*
X12064322Y-31797321D01*
X12115793Y-31831713D01*
X12224986Y-31876942D01*
X12340905Y-31900000D01*
X12459095Y-31900000D01*
X12575014Y-31876942D01*
X12684207Y-31831713D01*
X12782478Y-31766050D01*
X12866050Y-31682478D01*
X12931713Y-31584207D01*
X12976942Y-31475014D01*
X13000000Y-31359095D01*
X13000000Y-31240905D01*
X15000000Y-31240905D01*
X15000000Y-31359095D01*
X15023058Y-31475014D01*
X15068287Y-31584207D01*
X15133950Y-31682478D01*
X15217522Y-31766050D01*
X15315793Y-31831713D01*
X15424986Y-31876942D01*
X15540905Y-31900000D01*
X15659095Y-31900000D01*
X15775014Y-31876942D01*
X15884207Y-31831713D01*
X15982478Y-31766050D01*
X16066050Y-31682478D01*
X16131713Y-31584207D01*
X16176942Y-31475014D01*
X16200000Y-31359095D01*
X16200000Y-31240905D01*
X16190414Y-31192713D01*
X21598192Y-31192713D01*
X21598192Y-31310903D01*
X21621250Y-31426822D01*
X21666479Y-31536015D01*
X21732142Y-31634286D01*
X21815714Y-31717858D01*
X21913985Y-31783521D01*
X22023178Y-31828750D01*
X22139097Y-31851808D01*
X22257287Y-31851808D01*
X22373206Y-31828750D01*
X22482399Y-31783521D01*
X22580670Y-31717858D01*
X22664242Y-31634286D01*
X22729905Y-31536015D01*
X22775134Y-31426822D01*
X22798192Y-31310903D01*
X22798192Y-31192713D01*
X22775134Y-31076794D01*
X22729905Y-30967601D01*
X22664242Y-30869330D01*
X22580670Y-30785758D01*
X22482399Y-30720095D01*
X22373206Y-30674866D01*
X22257287Y-30651808D01*
X22139097Y-30651808D01*
X22023178Y-30674866D01*
X21913985Y-30720095D01*
X21815714Y-30785758D01*
X21732142Y-30869330D01*
X21666479Y-30967601D01*
X21621250Y-31076794D01*
X21598192Y-31192713D01*
X16190414Y-31192713D01*
X16176942Y-31124986D01*
X16131713Y-31015793D01*
X16066050Y-30917522D01*
X15982478Y-30833950D01*
X15884207Y-30768287D01*
X15775014Y-30723058D01*
X15659095Y-30700000D01*
X15540905Y-30700000D01*
X15424986Y-30723058D01*
X15315793Y-30768287D01*
X15217522Y-30833950D01*
X15133950Y-30917522D01*
X15068287Y-31015793D01*
X15023058Y-31124986D01*
X15000000Y-31240905D01*
X13000000Y-31240905D01*
X12976942Y-31124986D01*
X12931713Y-31015793D01*
X12866050Y-30917522D01*
X12782478Y-30833950D01*
X12684207Y-30768287D01*
X12575014Y-30723058D01*
X12459095Y-30700000D01*
X12340905Y-30700000D01*
X12224986Y-30723058D01*
X12115793Y-30768287D01*
X12058014Y-30806894D01*
X12054091Y-30190905D01*
X16350000Y-30190905D01*
X16350000Y-30309095D01*
X16373058Y-30425014D01*
X16418287Y-30534207D01*
X16483950Y-30632478D01*
X16567522Y-30716050D01*
X16665793Y-30781713D01*
X16774986Y-30826942D01*
X16890905Y-30850000D01*
X17009095Y-30850000D01*
X17125014Y-30826942D01*
X17234207Y-30781713D01*
X17332478Y-30716050D01*
X17416050Y-30632478D01*
X17481713Y-30534207D01*
X17526942Y-30425014D01*
X17550000Y-30309095D01*
X17550000Y-30190905D01*
X17526942Y-30074986D01*
X17481713Y-29965793D01*
X17416050Y-29867522D01*
X17332478Y-29783950D01*
X17234207Y-29718287D01*
X17125014Y-29673058D01*
X17009095Y-29650000D01*
X16890905Y-29650000D01*
X16774986Y-29673058D01*
X16665793Y-29718287D01*
X16567522Y-29783950D01*
X16483950Y-29867522D01*
X16418287Y-29965793D01*
X16373058Y-30074986D01*
X16350000Y-30190905D01*
X12054091Y-30190905D01*
X12032435Y-26790905D01*
X17950000Y-26790905D01*
X17950000Y-26909095D01*
X17973058Y-27025014D01*
X18018287Y-27134207D01*
X18028840Y-27150000D01*
X18018287Y-27165793D01*
X17973058Y-27274986D01*
X17950000Y-27390905D01*
X17950000Y-27509095D01*
X17973058Y-27625014D01*
X18018287Y-27734207D01*
X18083950Y-27832478D01*
X18167522Y-27916050D01*
X18265793Y-27981713D01*
X18374986Y-28026942D01*
X18490905Y-28050000D01*
X18609095Y-28050000D01*
X18725014Y-28026942D01*
X18834207Y-27981713D01*
X18850000Y-27971160D01*
X18865793Y-27981713D01*
X18974986Y-28026942D01*
X19090905Y-28050000D01*
X19209095Y-28050000D01*
X19325014Y-28026942D01*
X19434207Y-27981713D01*
X19450000Y-27971160D01*
X19465793Y-27981713D01*
X19550910Y-28016969D01*
X19518287Y-28065793D01*
X19473058Y-28174986D01*
X19450000Y-28290905D01*
X19450000Y-28409095D01*
X19473058Y-28525014D01*
X19518287Y-28634207D01*
X19528840Y-28650000D01*
X19518287Y-28665793D01*
X19473058Y-28774986D01*
X19450000Y-28890905D01*
X19450000Y-28950000D01*
X19390905Y-28950000D01*
X19274986Y-28973058D01*
X19165793Y-29018287D01*
X19150000Y-29028840D01*
X19134207Y-29018287D01*
X19025014Y-28973058D01*
X18909095Y-28950000D01*
X18790905Y-28950000D01*
X18674986Y-28973058D01*
X18565793Y-29018287D01*
X18467522Y-29083950D01*
X18383950Y-29167522D01*
X18318287Y-29265793D01*
X18273058Y-29374986D01*
X18250000Y-29490905D01*
X18250000Y-29609095D01*
X18273058Y-29725014D01*
X18318287Y-29834207D01*
X18383950Y-29932478D01*
X18467522Y-30016050D01*
X18565793Y-30081713D01*
X18674986Y-30126942D01*
X18790905Y-30150000D01*
X18909095Y-30150000D01*
X19025014Y-30126942D01*
X19134207Y-30081713D01*
X19150000Y-30071160D01*
X19165793Y-30081713D01*
X19274986Y-30126942D01*
X19390905Y-30150000D01*
X19509095Y-30150000D01*
X19625014Y-30126942D01*
X19734207Y-30081713D01*
X19750000Y-30071160D01*
X19765793Y-30081713D01*
X19874986Y-30126942D01*
X19990905Y-30150000D01*
X20109095Y-30150000D01*
X20225014Y-30126942D01*
X20334207Y-30081713D01*
X20432478Y-30016050D01*
X20516050Y-29932478D01*
X20542562Y-29892801D01*
X20624986Y-29926942D01*
X20740905Y-29950000D01*
X20859095Y-29950000D01*
X20975014Y-29926942D01*
X21084207Y-29881713D01*
X21182478Y-29816050D01*
X21266050Y-29732478D01*
X21331713Y-29634207D01*
X21376942Y-29525014D01*
X21395633Y-29431049D01*
X21490905Y-29450000D01*
X21609095Y-29450000D01*
X21704367Y-29431049D01*
X21723058Y-29525014D01*
X21768287Y-29634207D01*
X21833950Y-29732478D01*
X21917522Y-29816050D01*
X22015793Y-29881713D01*
X22124986Y-29926942D01*
X22240905Y-29950000D01*
X22359095Y-29950000D01*
X22475014Y-29926942D01*
X22584207Y-29881713D01*
X22676943Y-29819749D01*
X22693287Y-29859207D01*
X22758950Y-29957478D01*
X22842522Y-30041050D01*
X22940793Y-30106713D01*
X23049986Y-30151942D01*
X23165905Y-30175000D01*
X23284095Y-30175000D01*
X23400014Y-30151942D01*
X23509207Y-30106713D01*
X23607478Y-30041050D01*
X23691050Y-29957478D01*
X23756713Y-29859207D01*
X23801942Y-29750014D01*
X23825000Y-29634095D01*
X23825000Y-29515905D01*
X23801942Y-29399986D01*
X23756713Y-29290793D01*
X23691050Y-29192522D01*
X23661302Y-29162774D01*
X23676942Y-29125014D01*
X23700000Y-29009095D01*
X23700000Y-28890905D01*
X23676942Y-28774986D01*
X23631713Y-28665793D01*
X23621160Y-28650000D01*
X23631713Y-28634207D01*
X23676942Y-28525014D01*
X23700000Y-28409095D01*
X23700000Y-28290905D01*
X23676942Y-28174986D01*
X23631713Y-28065793D01*
X23566050Y-27967522D01*
X23482478Y-27883950D01*
X23384207Y-27818287D01*
X23275014Y-27773058D01*
X23159095Y-27750000D01*
X23040905Y-27750000D01*
X22924986Y-27773058D01*
X22815793Y-27818287D01*
X22717522Y-27883950D01*
X22700000Y-27901472D01*
X22682478Y-27883950D01*
X22584207Y-27818287D01*
X22475014Y-27773058D01*
X22359095Y-27750000D01*
X22240905Y-27750000D01*
X22124986Y-27773058D01*
X22015793Y-27818287D01*
X21917522Y-27883950D01*
X21833950Y-27967522D01*
X21768287Y-28065793D01*
X21723058Y-28174986D01*
X21704367Y-28268951D01*
X21609095Y-28250000D01*
X21490905Y-28250000D01*
X21395633Y-28268951D01*
X21376942Y-28174986D01*
X21331713Y-28065793D01*
X21266050Y-27967522D01*
X21182478Y-27883950D01*
X21084207Y-27818287D01*
X20975014Y-27773058D01*
X20859095Y-27750000D01*
X20740905Y-27750000D01*
X20624986Y-27773058D01*
X20515793Y-27818287D01*
X20425000Y-27878953D01*
X20334207Y-27818287D01*
X20249090Y-27783031D01*
X20281713Y-27734207D01*
X20326942Y-27625014D01*
X20350000Y-27509095D01*
X20350000Y-27390905D01*
X20326942Y-27274986D01*
X20281713Y-27165793D01*
X20271160Y-27150000D01*
X20281713Y-27134207D01*
X20326942Y-27025014D01*
X20350000Y-26909095D01*
X20350000Y-26790905D01*
X20341864Y-26750000D01*
X21500000Y-26750000D01*
X21500000Y-27650000D01*
X21501921Y-27669509D01*
X21507612Y-27688268D01*
X21516853Y-27705557D01*
X21529289Y-27720711D01*
X21544443Y-27733147D01*
X21561732Y-27742388D01*
X21580491Y-27748079D01*
X21600000Y-27750000D01*
X22150000Y-27750000D01*
X22169509Y-27748079D01*
X22188268Y-27742388D01*
X22205557Y-27733147D01*
X22220711Y-27720711D01*
X22233147Y-27705557D01*
X22242388Y-27688268D01*
X22248079Y-27669509D01*
X22250000Y-27650000D01*
X22250000Y-26950000D01*
X23108578Y-26950000D01*
X24029289Y-27870711D01*
X24044443Y-27883147D01*
X24061732Y-27892388D01*
X24080491Y-27898079D01*
X24100000Y-27900000D01*
X25550000Y-27900000D01*
X25569509Y-27898079D01*
X25588268Y-27892388D01*
X25605557Y-27883147D01*
X25620711Y-27870711D01*
X25633147Y-27855557D01*
X25642388Y-27838268D01*
X25648079Y-27819509D01*
X25650000Y-27800000D01*
X25650000Y-26550000D01*
X25648079Y-26530491D01*
X25642388Y-26511732D01*
X25633147Y-26494443D01*
X25620711Y-26479289D01*
X25605557Y-26466853D01*
X25588268Y-26457612D01*
X25569509Y-26451921D01*
X25550000Y-26450000D01*
X24050000Y-26450000D01*
X24050000Y-25740905D01*
X24387500Y-25740905D01*
X24387500Y-25859095D01*
X24410558Y-25975014D01*
X24455787Y-26084207D01*
X24521450Y-26182478D01*
X24605022Y-26266050D01*
X24703293Y-26331713D01*
X24812486Y-26376942D01*
X24928405Y-26400000D01*
X25046595Y-26400000D01*
X25162514Y-26376942D01*
X25271707Y-26331713D01*
X25369978Y-26266050D01*
X25453550Y-26182478D01*
X25519213Y-26084207D01*
X25564442Y-25975014D01*
X25587500Y-25859095D01*
X25587500Y-25740905D01*
X25564442Y-25624986D01*
X25519213Y-25515793D01*
X25453550Y-25417522D01*
X25369978Y-25333950D01*
X25271707Y-25268287D01*
X25162514Y-25223058D01*
X25046595Y-25200000D01*
X24928405Y-25200000D01*
X24812486Y-25223058D01*
X24703293Y-25268287D01*
X24605022Y-25333950D01*
X24521450Y-25417522D01*
X24455787Y-25515793D01*
X24410558Y-25624986D01*
X24387500Y-25740905D01*
X24050000Y-25740905D01*
X24050000Y-25200000D01*
X24048079Y-25180491D01*
X24042388Y-25161732D01*
X24033147Y-25144443D01*
X24020711Y-25129289D01*
X24005557Y-25116853D01*
X23988268Y-25107612D01*
X23969509Y-25101921D01*
X23950000Y-25100000D01*
X22850000Y-25100000D01*
X22830491Y-25101921D01*
X22811732Y-25107612D01*
X22794443Y-25116853D01*
X22779289Y-25129289D01*
X22766853Y-25144443D01*
X22757612Y-25161732D01*
X22751921Y-25180491D01*
X22750000Y-25200000D01*
X22750000Y-26300000D01*
X21950000Y-26300000D01*
X21930491Y-26301921D01*
X21911732Y-26307612D01*
X21894443Y-26316853D01*
X21879289Y-26329289D01*
X21529289Y-26679289D01*
X21516853Y-26694443D01*
X21507612Y-26711732D01*
X21501921Y-26730491D01*
X21500000Y-26750000D01*
X20341864Y-26750000D01*
X20326942Y-26674986D01*
X20281713Y-26565793D01*
X20216050Y-26467522D01*
X20132478Y-26383950D01*
X20034207Y-26318287D01*
X19925014Y-26273058D01*
X19809095Y-26250000D01*
X19690905Y-26250000D01*
X19574986Y-26273058D01*
X19465793Y-26318287D01*
X19450000Y-26328840D01*
X19434207Y-26318287D01*
X19325014Y-26273058D01*
X19209095Y-26250000D01*
X19090905Y-26250000D01*
X18974986Y-26273058D01*
X18865793Y-26318287D01*
X18850000Y-26328840D01*
X18834207Y-26318287D01*
X18725014Y-26273058D01*
X18609095Y-26250000D01*
X18490905Y-26250000D01*
X18374986Y-26273058D01*
X18265793Y-26318287D01*
X18167522Y-26383950D01*
X18083950Y-26467522D01*
X18018287Y-26565793D01*
X17973058Y-26674986D01*
X17950000Y-26790905D01*
X12032435Y-26790905D01*
X12015238Y-24090905D01*
X20750000Y-24090905D01*
X20750000Y-24209095D01*
X20773058Y-24325014D01*
X20818287Y-24434207D01*
X20883950Y-24532478D01*
X20967522Y-24616050D01*
X21065793Y-24681713D01*
X21174986Y-24726942D01*
X21290905Y-24750000D01*
X21409095Y-24750000D01*
X21525014Y-24726942D01*
X21634207Y-24681713D01*
X21732478Y-24616050D01*
X21816050Y-24532478D01*
X21881713Y-24434207D01*
X21926942Y-24325014D01*
X21950000Y-24209095D01*
X21950000Y-24090905D01*
X21926942Y-23974986D01*
X21881713Y-23865793D01*
X21816050Y-23767522D01*
X21732478Y-23683950D01*
X21634207Y-23618287D01*
X21525014Y-23573058D01*
X21409095Y-23550000D01*
X21290905Y-23550000D01*
X21174986Y-23573058D01*
X21065793Y-23618287D01*
X20967522Y-23683950D01*
X20883950Y-23767522D01*
X20818287Y-23865793D01*
X20773058Y-23974986D01*
X20750000Y-24090905D01*
X12015238Y-24090905D01*
X11999992Y-21697452D01*
X11992314Y-21621964D01*
X11977146Y-21571961D01*
X12700000Y-21571961D01*
X12700000Y-21828039D01*
X12749958Y-22079196D01*
X12847955Y-22315781D01*
X12990224Y-22528702D01*
X13171298Y-22709776D01*
X13384219Y-22852045D01*
X13620804Y-22950042D01*
X13871961Y-23000000D01*
X14128039Y-23000000D01*
X14379196Y-22950042D01*
X14615781Y-22852045D01*
X14828702Y-22709776D01*
X15009776Y-22528702D01*
X15152045Y-22315781D01*
X15250042Y-22079196D01*
X15300000Y-21828039D01*
X15300000Y-21571961D01*
X15273932Y-21440905D01*
X22000000Y-21440905D01*
X22000000Y-21559095D01*
X22023058Y-21675014D01*
X22068287Y-21784207D01*
X22133950Y-21882478D01*
X22217522Y-21966050D01*
X22315793Y-22031713D01*
X22424986Y-22076942D01*
X22540905Y-22100000D01*
X22659095Y-22100000D01*
X22775014Y-22076942D01*
X22884207Y-22031713D01*
X22982478Y-21966050D01*
X23066050Y-21882478D01*
X23131713Y-21784207D01*
X23176942Y-21675014D01*
X23193672Y-21590905D01*
X23400000Y-21590905D01*
X23400000Y-21709095D01*
X23423058Y-21825014D01*
X23468287Y-21934207D01*
X23533950Y-22032478D01*
X23617522Y-22116050D01*
X23715793Y-22181713D01*
X23824986Y-22226942D01*
X23940905Y-22250000D01*
X24059095Y-22250000D01*
X24175014Y-22226942D01*
X24284207Y-22181713D01*
X24382478Y-22116050D01*
X24466050Y-22032478D01*
X24531713Y-21934207D01*
X24576942Y-21825014D01*
X24600000Y-21709095D01*
X24600000Y-21590905D01*
X24576942Y-21474986D01*
X24531713Y-21365793D01*
X24466050Y-21267522D01*
X24382478Y-21183950D01*
X24284207Y-21118287D01*
X24175014Y-21073058D01*
X24059095Y-21050000D01*
X23940905Y-21050000D01*
X23824986Y-21073058D01*
X23715793Y-21118287D01*
X23617522Y-21183950D01*
X23533950Y-21267522D01*
X23468287Y-21365793D01*
X23423058Y-21474986D01*
X23400000Y-21590905D01*
X23193672Y-21590905D01*
X23200000Y-21559095D01*
X23200000Y-21440905D01*
X23176942Y-21324986D01*
X23131713Y-21215793D01*
X23066050Y-21117522D01*
X22982478Y-21033950D01*
X22884207Y-20968287D01*
X22775014Y-20923058D01*
X22659095Y-20900000D01*
X22540905Y-20900000D01*
X22424986Y-20923058D01*
X22315793Y-20968287D01*
X22217522Y-21033950D01*
X22133950Y-21117522D01*
X22068287Y-21215793D01*
X22023058Y-21324986D01*
X22000000Y-21440905D01*
X15273932Y-21440905D01*
X15250042Y-21320804D01*
X15152045Y-21084219D01*
X15009776Y-20871298D01*
X14828702Y-20690224D01*
X14615781Y-20547955D01*
X14379196Y-20449958D01*
X14128039Y-20400000D01*
X13871961Y-20400000D01*
X13620804Y-20449958D01*
X13384219Y-20547955D01*
X13171298Y-20690224D01*
X12990224Y-20871298D01*
X12847955Y-21084219D01*
X12749958Y-21320804D01*
X12700000Y-21571961D01*
X11977146Y-21571961D01*
X11969552Y-21546927D01*
X11932588Y-21477772D01*
X11900000Y-21438063D01*
X11900000Y-21340905D01*
X11876942Y-21224986D01*
X11831713Y-21115793D01*
X11766050Y-21017522D01*
X11682478Y-20933950D01*
X11584207Y-20868287D01*
X11475014Y-20823058D01*
X11359095Y-20800000D01*
X11240905Y-20800000D01*
X11124986Y-20823058D01*
X11015793Y-20868287D01*
X10917522Y-20933950D01*
X10833950Y-21017522D01*
X10768287Y-21115793D01*
X10723058Y-21224986D01*
X10708137Y-21300000D01*
X5821152Y-21300000D01*
X5831705Y-21284207D01*
X5876934Y-21175014D01*
X5899992Y-21059095D01*
X5899992Y-20940905D01*
X5876934Y-20824986D01*
X5831705Y-20715793D01*
X5766042Y-20617522D01*
X5682470Y-20533950D01*
X5584199Y-20468287D01*
X5475006Y-20423058D01*
X5359087Y-20400000D01*
X5240897Y-20400000D01*
X5124978Y-20423058D01*
X5015785Y-20468287D01*
X4917514Y-20533950D01*
X4833942Y-20617522D01*
X4768279Y-20715793D01*
X4723050Y-20824986D01*
X4699992Y-20940905D01*
X4699992Y-21059095D01*
X4723050Y-21175014D01*
X4768279Y-21284207D01*
X4778832Y-21300000D01*
X2178594Y-21300000D01*
X2518401Y-14357753D01*
X2543790Y-14368269D01*
X2659709Y-14391327D01*
X2777899Y-14391327D01*
X2893818Y-14368269D01*
X3003011Y-14323040D01*
X3101282Y-14257377D01*
X3184854Y-14173805D01*
X3250517Y-14075534D01*
X3295746Y-13966341D01*
X3318804Y-13850422D01*
X3318804Y-13823551D01*
X3408478Y-13823551D01*
X3524397Y-13800493D01*
X3633590Y-13755264D01*
X3731861Y-13689601D01*
X3815433Y-13606029D01*
X3881096Y-13507758D01*
X3926325Y-13398565D01*
X3949383Y-13282646D01*
X3949383Y-13164456D01*
X3926325Y-13048537D01*
X3881096Y-12939344D01*
X3815433Y-12841073D01*
X3731861Y-12757501D01*
X3633590Y-12691838D01*
X3524397Y-12646609D01*
X3408478Y-12623551D01*
X3290288Y-12623551D01*
X3174369Y-12646609D01*
X3075196Y-12687688D01*
X3034413Y-12660437D01*
X2925220Y-12615208D01*
X2809301Y-12592150D01*
X2691111Y-12592150D01*
X2603975Y-12609483D01*
X2805124Y-8500000D01*
X5900000Y-8500000D01*
X5900000Y-13000000D01*
X5901921Y-13019509D01*
X5907612Y-13038268D01*
X5916853Y-13055557D01*
X5929289Y-13070711D01*
X5944443Y-13083147D01*
X5961732Y-13092388D01*
X5980491Y-13098079D01*
X6000000Y-13100000D01*
X6850000Y-13100000D01*
X6869509Y-13098079D01*
X6888268Y-13092388D01*
X6905557Y-13083147D01*
X6921647Y-13069762D01*
X7777376Y-12190905D01*
X8600000Y-12190905D01*
X8600000Y-12309095D01*
X8623058Y-12425014D01*
X8668287Y-12534207D01*
X8678840Y-12550000D01*
X8668287Y-12565793D01*
X8623058Y-12674986D01*
X8600000Y-12790905D01*
X8600000Y-12909095D01*
X8623058Y-13025014D01*
X8668287Y-13134207D01*
X8678840Y-13150000D01*
X8668287Y-13165793D01*
X8623058Y-13274986D01*
X8600000Y-13390905D01*
X8600000Y-13509095D01*
X8623058Y-13625014D01*
X8668287Y-13734207D01*
X8733950Y-13832478D01*
X8817522Y-13916050D01*
X8915793Y-13981713D01*
X9024986Y-14026942D01*
X9140905Y-14050000D01*
X9259095Y-14050000D01*
X9375014Y-14026942D01*
X9484207Y-13981713D01*
X9500000Y-13971160D01*
X9515793Y-13981713D01*
X9624986Y-14026942D01*
X9740905Y-14050000D01*
X9859095Y-14050000D01*
X9975014Y-14026942D01*
X10084207Y-13981713D01*
X10100000Y-13971160D01*
X10115793Y-13981713D01*
X10224986Y-14026942D01*
X10340905Y-14050000D01*
X10459095Y-14050000D01*
X10575014Y-14026942D01*
X10684207Y-13981713D01*
X10700000Y-13971160D01*
X10715793Y-13981713D01*
X10824986Y-14026942D01*
X10940905Y-14050000D01*
X11059095Y-14050000D01*
X11175014Y-14026942D01*
X11284207Y-13981713D01*
X11300000Y-13971160D01*
X11315793Y-13981713D01*
X11424986Y-14026942D01*
X11540905Y-14050000D01*
X11659095Y-14050000D01*
X11775014Y-14026942D01*
X11884207Y-13981713D01*
X11982478Y-13916050D01*
X12066050Y-13832478D01*
X12131713Y-13734207D01*
X12176942Y-13625014D01*
X12200000Y-13509095D01*
X12200000Y-13390905D01*
X12176942Y-13274986D01*
X12131713Y-13165793D01*
X12121160Y-13150000D01*
X12131713Y-13134207D01*
X12175179Y-13029269D01*
X12216259Y-13056718D01*
X12325452Y-13101947D01*
X12441371Y-13125005D01*
X12559561Y-13125005D01*
X12675480Y-13101947D01*
X12784673Y-13056718D01*
X12882944Y-12991055D01*
X12966516Y-12907483D01*
X13032179Y-12809212D01*
X13077408Y-12700019D01*
X13100466Y-12584100D01*
X13100466Y-12465910D01*
X13077408Y-12349991D01*
X13032179Y-12240798D01*
X12998842Y-12190905D01*
X15800000Y-12190905D01*
X15800000Y-12309095D01*
X15823058Y-12425014D01*
X15868287Y-12534207D01*
X15878840Y-12550000D01*
X15868287Y-12565793D01*
X15823058Y-12674986D01*
X15800000Y-12790905D01*
X15800000Y-12909095D01*
X15823058Y-13025014D01*
X15868287Y-13134207D01*
X15878840Y-13150000D01*
X15868287Y-13165793D01*
X15823058Y-13274986D01*
X15800000Y-13390905D01*
X15800000Y-13509095D01*
X15823058Y-13625014D01*
X15868287Y-13734207D01*
X15933950Y-13832478D01*
X16017522Y-13916050D01*
X16115793Y-13981713D01*
X16224986Y-14026942D01*
X16340905Y-14050000D01*
X16459095Y-14050000D01*
X16575014Y-14026942D01*
X16684207Y-13981713D01*
X16700000Y-13971160D01*
X16715793Y-13981713D01*
X16824986Y-14026942D01*
X16940905Y-14050000D01*
X17059095Y-14050000D01*
X17175014Y-14026942D01*
X17284207Y-13981713D01*
X17300000Y-13971160D01*
X17315793Y-13981713D01*
X17424986Y-14026942D01*
X17540905Y-14050000D01*
X17659095Y-14050000D01*
X17775014Y-14026942D01*
X17884207Y-13981713D01*
X17900000Y-13971160D01*
X17915793Y-13981713D01*
X18024986Y-14026942D01*
X18140905Y-14050000D01*
X18259095Y-14050000D01*
X18375014Y-14026942D01*
X18484207Y-13981713D01*
X18500000Y-13971160D01*
X18515793Y-13981713D01*
X18624986Y-14026942D01*
X18740905Y-14050000D01*
X18859095Y-14050000D01*
X18975014Y-14026942D01*
X19084207Y-13981713D01*
X19182478Y-13916050D01*
X19266050Y-13832478D01*
X19331713Y-13734207D01*
X19376942Y-13625014D01*
X19400000Y-13509095D01*
X19400000Y-13390905D01*
X19376942Y-13274986D01*
X19331713Y-13165793D01*
X19321160Y-13150000D01*
X19331713Y-13134207D01*
X19376942Y-13025014D01*
X19400000Y-12909095D01*
X19400000Y-12790905D01*
X19376942Y-12674986D01*
X19331713Y-12565793D01*
X19329513Y-12562501D01*
X19331713Y-12559209D01*
X19376942Y-12450016D01*
X19400000Y-12334097D01*
X19400000Y-12215907D01*
X19376942Y-12099988D01*
X19331713Y-11990795D01*
X19266050Y-11892524D01*
X19182478Y-11808952D01*
X19084207Y-11743289D01*
X18975014Y-11698060D01*
X18859095Y-11675002D01*
X18740905Y-11675002D01*
X18624986Y-11698060D01*
X18519393Y-11741798D01*
X18484207Y-11718287D01*
X18375014Y-11673058D01*
X18259095Y-11650000D01*
X18140905Y-11650000D01*
X18118134Y-11654530D01*
X18131713Y-11634207D01*
X18176942Y-11525014D01*
X18200000Y-11409095D01*
X18200000Y-11290905D01*
X18176942Y-11174986D01*
X18131713Y-11065793D01*
X18066050Y-10967522D01*
X17982478Y-10883950D01*
X17884207Y-10818287D01*
X17775014Y-10773058D01*
X17681049Y-10754367D01*
X17700000Y-10659095D01*
X17700000Y-10540905D01*
X17681049Y-10445633D01*
X17775014Y-10426942D01*
X17884207Y-10381713D01*
X17982478Y-10316050D01*
X18066050Y-10232478D01*
X18131713Y-10134207D01*
X18176942Y-10025014D01*
X18181917Y-10000000D01*
X18400000Y-10000000D01*
X18400000Y-11150000D01*
X18401921Y-11169509D01*
X18407612Y-11188268D01*
X18416853Y-11205557D01*
X18429289Y-11220711D01*
X18444443Y-11233147D01*
X18461732Y-11242388D01*
X18480491Y-11248079D01*
X18500000Y-11250000D01*
X19056793Y-11250000D01*
X19827180Y-12068536D01*
X19829289Y-12070711D01*
X20829289Y-13070711D01*
X20844443Y-13083147D01*
X20861732Y-13092388D01*
X20880491Y-13098079D01*
X20900000Y-13100000D01*
X22000000Y-13100000D01*
X22019509Y-13098079D01*
X22038268Y-13092388D01*
X22055557Y-13083147D01*
X22070711Y-13070711D01*
X22083147Y-13055557D01*
X22092388Y-13038268D01*
X22098079Y-13019509D01*
X22100000Y-13000000D01*
X22100000Y-8500000D01*
X22098079Y-8480491D01*
X22092388Y-8461732D01*
X22083147Y-8444443D01*
X22070711Y-8429289D01*
X22055557Y-8416853D01*
X22038268Y-8407612D01*
X22019509Y-8401921D01*
X22000000Y-8400000D01*
X20500000Y-8400000D01*
X20480491Y-8401921D01*
X20461732Y-8407612D01*
X20444443Y-8416853D01*
X20429289Y-8429289D01*
X18958578Y-9900000D01*
X18500000Y-9900000D01*
X18480491Y-9901921D01*
X18461732Y-9907612D01*
X18444443Y-9916853D01*
X18429289Y-9929289D01*
X18416853Y-9944443D01*
X18407612Y-9961732D01*
X18401921Y-9980491D01*
X18400000Y-10000000D01*
X18181917Y-10000000D01*
X18200000Y-9909095D01*
X18200000Y-9790905D01*
X18176942Y-9674986D01*
X18131713Y-9565793D01*
X18066050Y-9467522D01*
X17982478Y-9383950D01*
X17884207Y-9318287D01*
X17775014Y-9273058D01*
X17659095Y-9250000D01*
X17540905Y-9250000D01*
X17424986Y-9273058D01*
X17315793Y-9318287D01*
X17217522Y-9383950D01*
X17133950Y-9467522D01*
X17100000Y-9518331D01*
X17066050Y-9467522D01*
X16982478Y-9383950D01*
X16884207Y-9318287D01*
X16775014Y-9273058D01*
X16659095Y-9250000D01*
X16540905Y-9250000D01*
X16424986Y-9273058D01*
X16315793Y-9318287D01*
X16217522Y-9383950D01*
X16133950Y-9467522D01*
X16068287Y-9565793D01*
X16023058Y-9674986D01*
X16000000Y-9790905D01*
X16000000Y-9909095D01*
X16023058Y-10025014D01*
X16068287Y-10134207D01*
X16133950Y-10232478D01*
X16217522Y-10316050D01*
X16315793Y-10381713D01*
X16424986Y-10426942D01*
X16518951Y-10445633D01*
X16500000Y-10540905D01*
X16500000Y-10659095D01*
X16518951Y-10754367D01*
X16424986Y-10773058D01*
X16315793Y-10818287D01*
X16217522Y-10883950D01*
X16133950Y-10967522D01*
X16068287Y-11065793D01*
X16023058Y-11174986D01*
X16000000Y-11290905D01*
X16000000Y-11409095D01*
X16023058Y-11525014D01*
X16068287Y-11634207D01*
X16122587Y-11715473D01*
X16115793Y-11718287D01*
X16017522Y-11783950D01*
X15933950Y-11867522D01*
X15868287Y-11965793D01*
X15823058Y-12074986D01*
X15800000Y-12190905D01*
X12998842Y-12190905D01*
X12966516Y-12142527D01*
X12882944Y-12058955D01*
X12784673Y-11993292D01*
X12675480Y-11948063D01*
X12559561Y-11925005D01*
X12441371Y-11925005D01*
X12325452Y-11948063D01*
X12216259Y-11993292D01*
X12158962Y-12031577D01*
X12131713Y-11965793D01*
X12066050Y-11867522D01*
X11982478Y-11783950D01*
X11884207Y-11718287D01*
X11846047Y-11702481D01*
X11866050Y-11682478D01*
X11931713Y-11584207D01*
X11976942Y-11475014D01*
X12000000Y-11359095D01*
X12000000Y-11240905D01*
X11976942Y-11124986D01*
X11931713Y-11015793D01*
X11866050Y-10917522D01*
X11788078Y-10839550D01*
X12475461Y-10839550D01*
X12475461Y-10957740D01*
X12498519Y-11073659D01*
X12543748Y-11182852D01*
X12609411Y-11281123D01*
X12692983Y-11364695D01*
X12791254Y-11430358D01*
X12900447Y-11475587D01*
X13016366Y-11498645D01*
X13134556Y-11498645D01*
X13250475Y-11475587D01*
X13359668Y-11430358D01*
X13457939Y-11364695D01*
X13541511Y-11281123D01*
X13607174Y-11182852D01*
X13652403Y-11073659D01*
X13675461Y-10957740D01*
X13675461Y-10839550D01*
X13652403Y-10723631D01*
X13607174Y-10614438D01*
X13541511Y-10516167D01*
X13457939Y-10432595D01*
X13359668Y-10366932D01*
X13250475Y-10321703D01*
X13134556Y-10298645D01*
X13016366Y-10298645D01*
X12900447Y-10321703D01*
X12791254Y-10366932D01*
X12692983Y-10432595D01*
X12609411Y-10516167D01*
X12543748Y-10614438D01*
X12498519Y-10723631D01*
X12475461Y-10839550D01*
X11788078Y-10839550D01*
X11782478Y-10833950D01*
X11684207Y-10768287D01*
X11575014Y-10723058D01*
X11481049Y-10704367D01*
X11500000Y-10609095D01*
X11500000Y-10490905D01*
X11481049Y-10395633D01*
X11575014Y-10376942D01*
X11684207Y-10331713D01*
X11782478Y-10266050D01*
X11866050Y-10182478D01*
X11931713Y-10084207D01*
X11976942Y-9975014D01*
X12000000Y-9859095D01*
X12000000Y-9740905D01*
X11976942Y-9624986D01*
X11931713Y-9515793D01*
X11866050Y-9417522D01*
X11782478Y-9333950D01*
X11684207Y-9268287D01*
X11575014Y-9223058D01*
X11459095Y-9200000D01*
X11340905Y-9200000D01*
X11224986Y-9223058D01*
X11115793Y-9268287D01*
X11017522Y-9333950D01*
X10933950Y-9417522D01*
X10900000Y-9468331D01*
X10866050Y-9417522D01*
X10782478Y-9333950D01*
X10684207Y-9268287D01*
X10575014Y-9223058D01*
X10459095Y-9200000D01*
X10340905Y-9200000D01*
X10224986Y-9223058D01*
X10115793Y-9268287D01*
X10017522Y-9333950D01*
X9933950Y-9417522D01*
X9868287Y-9515793D01*
X9823058Y-9624986D01*
X9800000Y-9740905D01*
X9800000Y-9859095D01*
X9823058Y-9975014D01*
X9868287Y-10084207D01*
X9933950Y-10182478D01*
X10017522Y-10266050D01*
X10115793Y-10331713D01*
X10224986Y-10376942D01*
X10318951Y-10395633D01*
X10300000Y-10490905D01*
X10300000Y-10609095D01*
X10318951Y-10704367D01*
X10224986Y-10723058D01*
X10115793Y-10768287D01*
X10017522Y-10833950D01*
X9933950Y-10917522D01*
X9868287Y-11015793D01*
X9823058Y-11124986D01*
X9800000Y-11240905D01*
X9800000Y-11359095D01*
X9823058Y-11475014D01*
X9868287Y-11584207D01*
X9920396Y-11662194D01*
X9859095Y-11650000D01*
X9740905Y-11650000D01*
X9624986Y-11673058D01*
X9515793Y-11718287D01*
X9500000Y-11728840D01*
X9484207Y-11718287D01*
X9375014Y-11673058D01*
X9259095Y-11650000D01*
X9140905Y-11650000D01*
X9024986Y-11673058D01*
X8915793Y-11718287D01*
X8817522Y-11783950D01*
X8733950Y-11867522D01*
X8668287Y-11965793D01*
X8623058Y-12074986D01*
X8600000Y-12190905D01*
X7777376Y-12190905D01*
X8742205Y-11200000D01*
X9500000Y-11200000D01*
X9519509Y-11198079D01*
X9538268Y-11192388D01*
X9555557Y-11183147D01*
X9570711Y-11170711D01*
X9583147Y-11155557D01*
X9592388Y-11138268D01*
X9598079Y-11119509D01*
X9600000Y-11100000D01*
X9600000Y-9950000D01*
X9598079Y-9930491D01*
X9592388Y-9911732D01*
X9583147Y-9894443D01*
X9570711Y-9879289D01*
X9555557Y-9866853D01*
X9538268Y-9857612D01*
X9519509Y-9851921D01*
X9500000Y-9850000D01*
X8491422Y-9850000D01*
X8137511Y-9496089D01*
X8182478Y-9466042D01*
X8266050Y-9382470D01*
X8331713Y-9284199D01*
X8376942Y-9175006D01*
X8400000Y-9059087D01*
X8400000Y-8940897D01*
X8386078Y-8870905D01*
X14509998Y-8870905D01*
X14509998Y-8989095D01*
X14533056Y-9105014D01*
X14578285Y-9214207D01*
X14643948Y-9312478D01*
X14727520Y-9396050D01*
X14825791Y-9461713D01*
X14934984Y-9506942D01*
X15050903Y-9530000D01*
X15169093Y-9530000D01*
X15285012Y-9506942D01*
X15394205Y-9461713D01*
X15492476Y-9396050D01*
X15576048Y-9312478D01*
X15641711Y-9214207D01*
X15686940Y-9105014D01*
X15709998Y-8989095D01*
X15709998Y-8870905D01*
X15686940Y-8754986D01*
X15641711Y-8645793D01*
X15576048Y-8547522D01*
X15492476Y-8463950D01*
X15394205Y-8398287D01*
X15285012Y-8353058D01*
X15169093Y-8330000D01*
X15050903Y-8330000D01*
X14934984Y-8353058D01*
X14825791Y-8398287D01*
X14727520Y-8463950D01*
X14643948Y-8547522D01*
X14578285Y-8645793D01*
X14533056Y-8754986D01*
X14509998Y-8870905D01*
X8386078Y-8870905D01*
X8376942Y-8824978D01*
X8331713Y-8715785D01*
X8266050Y-8617514D01*
X8182478Y-8533942D01*
X8084207Y-8468279D01*
X7975014Y-8423050D01*
X7859095Y-8399992D01*
X7740905Y-8399992D01*
X7624986Y-8423050D01*
X7515793Y-8468279D01*
X7417522Y-8533942D01*
X7333950Y-8617514D01*
X7303903Y-8662481D01*
X7070711Y-8429289D01*
X7055557Y-8416853D01*
X7038268Y-8407612D01*
X7019509Y-8401921D01*
X7000000Y-8400000D01*
X6000000Y-8400000D01*
X5980491Y-8401921D01*
X5961732Y-8407612D01*
X5944443Y-8416853D01*
X5929289Y-8429289D01*
X5916853Y-8444443D01*
X5907612Y-8461732D01*
X5901921Y-8480491D01*
X5900000Y-8500000D01*
X2805124Y-8500000D01*
X3024222Y-4023827D01*
X3029861Y-3966311D01*
X3039644Y-3933910D01*
X3055537Y-3904018D01*
X3086690Y-3865822D01*
X3111607Y-3840905D01*
X5549952Y-3840905D01*
X5549952Y-3959095D01*
X5573010Y-4075014D01*
X5618239Y-4184207D01*
X5683902Y-4282478D01*
X5767474Y-4366050D01*
X5865745Y-4431713D01*
X5974938Y-4476942D01*
X6090857Y-4500000D01*
X6209047Y-4500000D01*
X6324966Y-4476942D01*
X6434159Y-4431713D01*
X6532430Y-4366050D01*
X6616002Y-4282478D01*
X6681665Y-4184207D01*
X6726894Y-4075014D01*
X6749952Y-3959095D01*
X6749952Y-3840905D01*
X6736239Y-3771961D01*
X8400000Y-3771961D01*
X8400000Y-4028039D01*
X8449958Y-4279196D01*
X8547955Y-4515781D01*
X8690224Y-4728702D01*
X8871298Y-4909776D01*
X9084219Y-5052045D01*
X9320804Y-5150042D01*
X9571961Y-5200000D01*
X9828039Y-5200000D01*
X10079196Y-5150042D01*
X10315781Y-5052045D01*
X10528702Y-4909776D01*
X10709776Y-4728702D01*
X10852045Y-4515781D01*
X10950042Y-4279196D01*
X11000000Y-4028039D01*
X11000000Y-3771961D01*
X17000000Y-3771961D01*
X17000000Y-4028039D01*
X17049958Y-4279196D01*
X17147955Y-4515781D01*
X17290224Y-4728702D01*
X17471298Y-4909776D01*
X17684219Y-5052045D01*
X17920804Y-5150042D01*
X18171961Y-5200000D01*
X18428039Y-5200000D01*
X18679196Y-5150042D01*
X18915781Y-5052045D01*
X19128702Y-4909776D01*
X19309776Y-4728702D01*
X19452045Y-4515781D01*
X19550042Y-4279196D01*
X19600000Y-4028039D01*
X19600000Y-3840905D01*
X21250032Y-3840905D01*
X21250032Y-3959095D01*
X21273090Y-4075014D01*
X21318319Y-4184207D01*
X21383982Y-4282478D01*
X21467554Y-4366050D01*
X21565825Y-4431713D01*
X21675018Y-4476942D01*
X21790937Y-4500000D01*
X21909127Y-4500000D01*
X22025046Y-4476942D01*
X22134239Y-4431713D01*
X22232510Y-4366050D01*
X22316082Y-4282478D01*
X22381745Y-4184207D01*
X22426974Y-4075014D01*
X22450032Y-3959095D01*
X22450032Y-3840905D01*
X22426974Y-3724986D01*
X22381745Y-3615793D01*
X22316082Y-3517522D01*
X22232510Y-3433950D01*
X22134239Y-3368287D01*
X22025046Y-3323058D01*
X21909127Y-3300000D01*
X21790937Y-3300000D01*
X21675018Y-3323058D01*
X21565825Y-3368287D01*
X21467554Y-3433950D01*
X21383982Y-3517522D01*
X21318319Y-3615793D01*
X21273090Y-3724986D01*
X21250032Y-3840905D01*
X19600000Y-3840905D01*
X19600000Y-3771961D01*
X19550042Y-3520804D01*
X19452045Y-3284219D01*
X19309776Y-3071298D01*
X19128702Y-2890224D01*
X18915781Y-2747955D01*
X18679196Y-2649958D01*
X18428039Y-2600000D01*
X18171961Y-2600000D01*
X17920804Y-2649958D01*
X17684219Y-2747955D01*
X17471298Y-2890224D01*
X17290224Y-3071298D01*
X17147955Y-3284219D01*
X17049958Y-3520804D01*
X17000000Y-3771961D01*
X11000000Y-3771961D01*
X10950042Y-3520804D01*
X10852045Y-3284219D01*
X10709776Y-3071298D01*
X10528702Y-2890224D01*
X10315781Y-2747955D01*
X10079196Y-2649958D01*
X9828039Y-2600000D01*
X9571961Y-2600000D01*
X9320804Y-2649958D01*
X9084219Y-2747955D01*
X8871298Y-2890224D01*
X8690224Y-3071298D01*
X8547955Y-3284219D01*
X8449958Y-3520804D01*
X8400000Y-3771961D01*
X6736239Y-3771961D01*
X6726894Y-3724986D01*
X6681665Y-3615793D01*
X6616002Y-3517522D01*
X6532430Y-3433950D01*
X6434159Y-3368287D01*
X6324966Y-3323058D01*
X6209047Y-3300000D01*
X6090857Y-3300000D01*
X5974938Y-3323058D01*
X5865745Y-3368287D01*
X5767474Y-3433950D01*
X5683902Y-3517522D01*
X5618239Y-3615793D01*
X5573010Y-3724986D01*
X5549952Y-3840905D01*
X3111607Y-3840905D01*
X6565016Y-387497D01*
X6603516Y-355873D01*
X6633348Y-339877D01*
X6665717Y-329981D01*
X6714754Y-325000D01*
X21284106Y-325000D01*
X21333689Y-329861D01*
G04 #@! TA.AperFunction,Conductor*
D16*
G36*
X21333689Y-329861D02*
G01*
X21366090Y-339644D01*
X21395982Y-355537D01*
X21434178Y-386690D01*
X24912503Y-3865016D01*
X24944127Y-3903516D01*
X24960123Y-3933348D01*
X24970019Y-3965717D01*
X24975644Y-4021095D01*
X25396025Y-12609483D01*
X25308889Y-12592150D01*
X25190699Y-12592150D01*
X25074780Y-12615208D01*
X24965587Y-12660437D01*
X24924804Y-12687688D01*
X24825631Y-12646609D01*
X24709712Y-12623551D01*
X24591522Y-12623551D01*
X24475603Y-12646609D01*
X24366410Y-12691838D01*
X24268139Y-12757501D01*
X24184567Y-12841073D01*
X24118904Y-12939344D01*
X24073675Y-13048537D01*
X24050617Y-13164456D01*
X24050617Y-13282646D01*
X24073675Y-13398565D01*
X24118904Y-13507758D01*
X24184567Y-13606029D01*
X24268139Y-13689601D01*
X24366410Y-13755264D01*
X24475603Y-13800493D01*
X24591522Y-13823551D01*
X24681196Y-13823551D01*
X24681196Y-13850422D01*
X24704254Y-13966341D01*
X24749483Y-14075534D01*
X24815146Y-14173805D01*
X24898718Y-14257377D01*
X24996989Y-14323040D01*
X25106182Y-14368269D01*
X25222101Y-14391327D01*
X25340291Y-14391327D01*
X25456210Y-14368269D01*
X25481599Y-14357753D01*
X26472559Y-34603087D01*
X26450137Y-35002386D01*
X26354262Y-35375413D01*
X26187761Y-35722709D01*
X25956971Y-36031055D01*
X25670689Y-36288697D01*
X25339812Y-36485830D01*
X24976949Y-36614939D01*
X24584041Y-36672861D01*
X24496049Y-36675000D01*
X12095390Y-36675000D01*
X12091188Y-36015273D01*
X12115793Y-36031713D01*
X12224986Y-36076942D01*
X12340905Y-36100000D01*
X12459095Y-36100000D01*
X12575014Y-36076942D01*
X12684207Y-36031713D01*
X12782478Y-35966050D01*
X12866050Y-35882478D01*
X12931713Y-35784207D01*
X12976942Y-35675014D01*
X13000000Y-35559095D01*
X13000000Y-35440905D01*
X15000000Y-35440905D01*
X15000000Y-35559095D01*
X15023058Y-35675014D01*
X15068287Y-35784207D01*
X15133950Y-35882478D01*
X15217522Y-35966050D01*
X15315793Y-36031713D01*
X15424986Y-36076942D01*
X15540905Y-36100000D01*
X15659095Y-36100000D01*
X15775014Y-36076942D01*
X15884207Y-36031713D01*
X15982478Y-35966050D01*
X16066050Y-35882478D01*
X16131713Y-35784207D01*
X16176942Y-35675014D01*
X16200000Y-35559095D01*
X16200000Y-35440905D01*
X16176942Y-35324986D01*
X16131713Y-35215793D01*
X16066050Y-35117522D01*
X15982478Y-35033950D01*
X15884207Y-34968287D01*
X15775014Y-34923058D01*
X15659095Y-34900000D01*
X15540905Y-34900000D01*
X15424986Y-34923058D01*
X15315793Y-34968287D01*
X15217522Y-35033950D01*
X15133950Y-35117522D01*
X15068287Y-35215793D01*
X15023058Y-35324986D01*
X15000000Y-35440905D01*
X13000000Y-35440905D01*
X12976942Y-35324986D01*
X12931713Y-35215793D01*
X12866050Y-35117522D01*
X12782478Y-35033950D01*
X12684207Y-34968287D01*
X12575014Y-34923058D01*
X12459095Y-34900000D01*
X12340905Y-34900000D01*
X12224986Y-34923058D01*
X12115793Y-34968287D01*
X12084652Y-34989095D01*
X12077755Y-33906297D01*
X12115793Y-33931713D01*
X12224986Y-33976942D01*
X12340905Y-34000000D01*
X12459095Y-34000000D01*
X12575014Y-33976942D01*
X12684207Y-33931713D01*
X12782478Y-33866050D01*
X12866050Y-33782478D01*
X12931713Y-33684207D01*
X12976942Y-33575014D01*
X13000000Y-33459095D01*
X13000000Y-33340905D01*
X15000000Y-33340905D01*
X15000000Y-33459095D01*
X15023058Y-33575014D01*
X15068287Y-33684207D01*
X15133950Y-33782478D01*
X15217522Y-33866050D01*
X15315793Y-33931713D01*
X15424986Y-33976942D01*
X15540905Y-34000000D01*
X15659095Y-34000000D01*
X15775014Y-33976942D01*
X15884207Y-33931713D01*
X15982478Y-33866050D01*
X16066050Y-33782478D01*
X16131713Y-33684207D01*
X16176942Y-33575014D01*
X16183726Y-33540905D01*
X21800000Y-33540905D01*
X21800000Y-33659095D01*
X21823058Y-33775014D01*
X21868287Y-33884207D01*
X21933950Y-33982478D01*
X22017522Y-34066050D01*
X22115793Y-34131713D01*
X22224986Y-34176942D01*
X22340905Y-34200000D01*
X22459095Y-34200000D01*
X22575014Y-34176942D01*
X22684207Y-34131713D01*
X22782478Y-34066050D01*
X22866050Y-33982478D01*
X22931713Y-33884207D01*
X22976942Y-33775014D01*
X23000000Y-33659095D01*
X23000000Y-33540905D01*
X22976942Y-33424986D01*
X22931713Y-33315793D01*
X22866050Y-33217522D01*
X22782478Y-33133950D01*
X22684207Y-33068287D01*
X22575014Y-33023058D01*
X22459095Y-33000000D01*
X22340905Y-33000000D01*
X22224986Y-33023058D01*
X22115793Y-33068287D01*
X22017522Y-33133950D01*
X21933950Y-33217522D01*
X21868287Y-33315793D01*
X21823058Y-33424986D01*
X21800000Y-33540905D01*
X16183726Y-33540905D01*
X16200000Y-33459095D01*
X16200000Y-33340905D01*
X16176942Y-33224986D01*
X16131713Y-33115793D01*
X16066050Y-33017522D01*
X15982478Y-32933950D01*
X15884207Y-32868287D01*
X15775014Y-32823058D01*
X15659095Y-32800000D01*
X15540905Y-32800000D01*
X15424986Y-32823058D01*
X15315793Y-32868287D01*
X15217522Y-32933950D01*
X15133950Y-33017522D01*
X15068287Y-33115793D01*
X15023058Y-33224986D01*
X15000000Y-33340905D01*
X13000000Y-33340905D01*
X12976942Y-33224986D01*
X12931713Y-33115793D01*
X12866050Y-33017522D01*
X12782478Y-32933950D01*
X12684207Y-32868287D01*
X12575014Y-32823058D01*
X12459095Y-32800000D01*
X12340905Y-32800000D01*
X12224986Y-32823058D01*
X12115793Y-32868287D01*
X12071333Y-32897994D01*
X12064322Y-31797321D01*
X12115793Y-31831713D01*
X12224986Y-31876942D01*
X12340905Y-31900000D01*
X12459095Y-31900000D01*
X12575014Y-31876942D01*
X12684207Y-31831713D01*
X12782478Y-31766050D01*
X12866050Y-31682478D01*
X12931713Y-31584207D01*
X12976942Y-31475014D01*
X13000000Y-31359095D01*
X13000000Y-31240905D01*
X15000000Y-31240905D01*
X15000000Y-31359095D01*
X15023058Y-31475014D01*
X15068287Y-31584207D01*
X15133950Y-31682478D01*
X15217522Y-31766050D01*
X15315793Y-31831713D01*
X15424986Y-31876942D01*
X15540905Y-31900000D01*
X15659095Y-31900000D01*
X15775014Y-31876942D01*
X15884207Y-31831713D01*
X15982478Y-31766050D01*
X16066050Y-31682478D01*
X16131713Y-31584207D01*
X16176942Y-31475014D01*
X16200000Y-31359095D01*
X16200000Y-31240905D01*
X16190414Y-31192713D01*
X21598192Y-31192713D01*
X21598192Y-31310903D01*
X21621250Y-31426822D01*
X21666479Y-31536015D01*
X21732142Y-31634286D01*
X21815714Y-31717858D01*
X21913985Y-31783521D01*
X22023178Y-31828750D01*
X22139097Y-31851808D01*
X22257287Y-31851808D01*
X22373206Y-31828750D01*
X22482399Y-31783521D01*
X22580670Y-31717858D01*
X22664242Y-31634286D01*
X22729905Y-31536015D01*
X22775134Y-31426822D01*
X22798192Y-31310903D01*
X22798192Y-31192713D01*
X22775134Y-31076794D01*
X22729905Y-30967601D01*
X22664242Y-30869330D01*
X22580670Y-30785758D01*
X22482399Y-30720095D01*
X22373206Y-30674866D01*
X22257287Y-30651808D01*
X22139097Y-30651808D01*
X22023178Y-30674866D01*
X21913985Y-30720095D01*
X21815714Y-30785758D01*
X21732142Y-30869330D01*
X21666479Y-30967601D01*
X21621250Y-31076794D01*
X21598192Y-31192713D01*
X16190414Y-31192713D01*
X16176942Y-31124986D01*
X16131713Y-31015793D01*
X16066050Y-30917522D01*
X15982478Y-30833950D01*
X15884207Y-30768287D01*
X15775014Y-30723058D01*
X15659095Y-30700000D01*
X15540905Y-30700000D01*
X15424986Y-30723058D01*
X15315793Y-30768287D01*
X15217522Y-30833950D01*
X15133950Y-30917522D01*
X15068287Y-31015793D01*
X15023058Y-31124986D01*
X15000000Y-31240905D01*
X13000000Y-31240905D01*
X12976942Y-31124986D01*
X12931713Y-31015793D01*
X12866050Y-30917522D01*
X12782478Y-30833950D01*
X12684207Y-30768287D01*
X12575014Y-30723058D01*
X12459095Y-30700000D01*
X12340905Y-30700000D01*
X12224986Y-30723058D01*
X12115793Y-30768287D01*
X12058014Y-30806894D01*
X12054091Y-30190905D01*
X16350000Y-30190905D01*
X16350000Y-30309095D01*
X16373058Y-30425014D01*
X16418287Y-30534207D01*
X16483950Y-30632478D01*
X16567522Y-30716050D01*
X16665793Y-30781713D01*
X16774986Y-30826942D01*
X16890905Y-30850000D01*
X17009095Y-30850000D01*
X17125014Y-30826942D01*
X17234207Y-30781713D01*
X17332478Y-30716050D01*
X17416050Y-30632478D01*
X17481713Y-30534207D01*
X17526942Y-30425014D01*
X17550000Y-30309095D01*
X17550000Y-30190905D01*
X17526942Y-30074986D01*
X17481713Y-29965793D01*
X17416050Y-29867522D01*
X17332478Y-29783950D01*
X17234207Y-29718287D01*
X17125014Y-29673058D01*
X17009095Y-29650000D01*
X16890905Y-29650000D01*
X16774986Y-29673058D01*
X16665793Y-29718287D01*
X16567522Y-29783950D01*
X16483950Y-29867522D01*
X16418287Y-29965793D01*
X16373058Y-30074986D01*
X16350000Y-30190905D01*
X12054091Y-30190905D01*
X12032435Y-26790905D01*
X17950000Y-26790905D01*
X17950000Y-26909095D01*
X17973058Y-27025014D01*
X18018287Y-27134207D01*
X18028840Y-27150000D01*
X18018287Y-27165793D01*
X17973058Y-27274986D01*
X17950000Y-27390905D01*
X17950000Y-27509095D01*
X17973058Y-27625014D01*
X18018287Y-27734207D01*
X18083950Y-27832478D01*
X18167522Y-27916050D01*
X18265793Y-27981713D01*
X18374986Y-28026942D01*
X18490905Y-28050000D01*
X18609095Y-28050000D01*
X18725014Y-28026942D01*
X18834207Y-27981713D01*
X18850000Y-27971160D01*
X18865793Y-27981713D01*
X18974986Y-28026942D01*
X19090905Y-28050000D01*
X19209095Y-28050000D01*
X19325014Y-28026942D01*
X19434207Y-27981713D01*
X19450000Y-27971160D01*
X19465793Y-27981713D01*
X19550910Y-28016969D01*
X19518287Y-28065793D01*
X19473058Y-28174986D01*
X19450000Y-28290905D01*
X19450000Y-28409095D01*
X19473058Y-28525014D01*
X19518287Y-28634207D01*
X19528840Y-28650000D01*
X19518287Y-28665793D01*
X19473058Y-28774986D01*
X19450000Y-28890905D01*
X19450000Y-28950000D01*
X19390905Y-28950000D01*
X19274986Y-28973058D01*
X19165793Y-29018287D01*
X19150000Y-29028840D01*
X19134207Y-29018287D01*
X19025014Y-28973058D01*
X18909095Y-28950000D01*
X18790905Y-28950000D01*
X18674986Y-28973058D01*
X18565793Y-29018287D01*
X18467522Y-29083950D01*
X18383950Y-29167522D01*
X18318287Y-29265793D01*
X18273058Y-29374986D01*
X18250000Y-29490905D01*
X18250000Y-29609095D01*
X18273058Y-29725014D01*
X18318287Y-29834207D01*
X18383950Y-29932478D01*
X18467522Y-30016050D01*
X18565793Y-30081713D01*
X18674986Y-30126942D01*
X18790905Y-30150000D01*
X18909095Y-30150000D01*
X19025014Y-30126942D01*
X19134207Y-30081713D01*
X19150000Y-30071160D01*
X19165793Y-30081713D01*
X19274986Y-30126942D01*
X19390905Y-30150000D01*
X19509095Y-30150000D01*
X19625014Y-30126942D01*
X19734207Y-30081713D01*
X19750000Y-30071160D01*
X19765793Y-30081713D01*
X19874986Y-30126942D01*
X19990905Y-30150000D01*
X20109095Y-30150000D01*
X20225014Y-30126942D01*
X20334207Y-30081713D01*
X20432478Y-30016050D01*
X20516050Y-29932478D01*
X20542562Y-29892801D01*
X20624986Y-29926942D01*
X20740905Y-29950000D01*
X20859095Y-29950000D01*
X20975014Y-29926942D01*
X21084207Y-29881713D01*
X21182478Y-29816050D01*
X21266050Y-29732478D01*
X21331713Y-29634207D01*
X21376942Y-29525014D01*
X21395633Y-29431049D01*
X21490905Y-29450000D01*
X21609095Y-29450000D01*
X21704367Y-29431049D01*
X21723058Y-29525014D01*
X21768287Y-29634207D01*
X21833950Y-29732478D01*
X21917522Y-29816050D01*
X22015793Y-29881713D01*
X22124986Y-29926942D01*
X22240905Y-29950000D01*
X22359095Y-29950000D01*
X22475014Y-29926942D01*
X22584207Y-29881713D01*
X22676943Y-29819749D01*
X22693287Y-29859207D01*
X22758950Y-29957478D01*
X22842522Y-30041050D01*
X22940793Y-30106713D01*
X23049986Y-30151942D01*
X23165905Y-30175000D01*
X23284095Y-30175000D01*
X23400014Y-30151942D01*
X23509207Y-30106713D01*
X23607478Y-30041050D01*
X23691050Y-29957478D01*
X23756713Y-29859207D01*
X23801942Y-29750014D01*
X23825000Y-29634095D01*
X23825000Y-29515905D01*
X23801942Y-29399986D01*
X23756713Y-29290793D01*
X23691050Y-29192522D01*
X23661302Y-29162774D01*
X23676942Y-29125014D01*
X23700000Y-29009095D01*
X23700000Y-28890905D01*
X23676942Y-28774986D01*
X23631713Y-28665793D01*
X23621160Y-28650000D01*
X23631713Y-28634207D01*
X23676942Y-28525014D01*
X23700000Y-28409095D01*
X23700000Y-28290905D01*
X23676942Y-28174986D01*
X23631713Y-28065793D01*
X23566050Y-27967522D01*
X23482478Y-27883950D01*
X23384207Y-27818287D01*
X23275014Y-27773058D01*
X23159095Y-27750000D01*
X23040905Y-27750000D01*
X22924986Y-27773058D01*
X22815793Y-27818287D01*
X22717522Y-27883950D01*
X22700000Y-27901472D01*
X22682478Y-27883950D01*
X22584207Y-27818287D01*
X22475014Y-27773058D01*
X22359095Y-27750000D01*
X22240905Y-27750000D01*
X22124986Y-27773058D01*
X22015793Y-27818287D01*
X21917522Y-27883950D01*
X21833950Y-27967522D01*
X21768287Y-28065793D01*
X21723058Y-28174986D01*
X21704367Y-28268951D01*
X21609095Y-28250000D01*
X21490905Y-28250000D01*
X21395633Y-28268951D01*
X21376942Y-28174986D01*
X21331713Y-28065793D01*
X21266050Y-27967522D01*
X21182478Y-27883950D01*
X21084207Y-27818287D01*
X20975014Y-27773058D01*
X20859095Y-27750000D01*
X20740905Y-27750000D01*
X20624986Y-27773058D01*
X20515793Y-27818287D01*
X20425000Y-27878953D01*
X20334207Y-27818287D01*
X20249090Y-27783031D01*
X20281713Y-27734207D01*
X20326942Y-27625014D01*
X20350000Y-27509095D01*
X20350000Y-27390905D01*
X20326942Y-27274986D01*
X20281713Y-27165793D01*
X20271160Y-27150000D01*
X20281713Y-27134207D01*
X20326942Y-27025014D01*
X20350000Y-26909095D01*
X20350000Y-26790905D01*
X20341864Y-26750000D01*
X21500000Y-26750000D01*
X21500000Y-27650000D01*
X21501921Y-27669509D01*
X21507612Y-27688268D01*
X21516853Y-27705557D01*
X21529289Y-27720711D01*
X21544443Y-27733147D01*
X21561732Y-27742388D01*
X21580491Y-27748079D01*
X21600000Y-27750000D01*
X22150000Y-27750000D01*
X22169509Y-27748079D01*
X22188268Y-27742388D01*
X22205557Y-27733147D01*
X22220711Y-27720711D01*
X22233147Y-27705557D01*
X22242388Y-27688268D01*
X22248079Y-27669509D01*
X22250000Y-27650000D01*
X22250000Y-26950000D01*
X23108578Y-26950000D01*
X24029289Y-27870711D01*
X24044443Y-27883147D01*
X24061732Y-27892388D01*
X24080491Y-27898079D01*
X24100000Y-27900000D01*
X25550000Y-27900000D01*
X25569509Y-27898079D01*
X25588268Y-27892388D01*
X25605557Y-27883147D01*
X25620711Y-27870711D01*
X25633147Y-27855557D01*
X25642388Y-27838268D01*
X25648079Y-27819509D01*
X25650000Y-27800000D01*
X25650000Y-26550000D01*
X25648079Y-26530491D01*
X25642388Y-26511732D01*
X25633147Y-26494443D01*
X25620711Y-26479289D01*
X25605557Y-26466853D01*
X25588268Y-26457612D01*
X25569509Y-26451921D01*
X25550000Y-26450000D01*
X24050000Y-26450000D01*
X24050000Y-25740905D01*
X24387500Y-25740905D01*
X24387500Y-25859095D01*
X24410558Y-25975014D01*
X24455787Y-26084207D01*
X24521450Y-26182478D01*
X24605022Y-26266050D01*
X24703293Y-26331713D01*
X24812486Y-26376942D01*
X24928405Y-26400000D01*
X25046595Y-26400000D01*
X25162514Y-26376942D01*
X25271707Y-26331713D01*
X25369978Y-26266050D01*
X25453550Y-26182478D01*
X25519213Y-26084207D01*
X25564442Y-25975014D01*
X25587500Y-25859095D01*
X25587500Y-25740905D01*
X25564442Y-25624986D01*
X25519213Y-25515793D01*
X25453550Y-25417522D01*
X25369978Y-25333950D01*
X25271707Y-25268287D01*
X25162514Y-25223058D01*
X25046595Y-25200000D01*
X24928405Y-25200000D01*
X24812486Y-25223058D01*
X24703293Y-25268287D01*
X24605022Y-25333950D01*
X24521450Y-25417522D01*
X24455787Y-25515793D01*
X24410558Y-25624986D01*
X24387500Y-25740905D01*
X24050000Y-25740905D01*
X24050000Y-25200000D01*
X24048079Y-25180491D01*
X24042388Y-25161732D01*
X24033147Y-25144443D01*
X24020711Y-25129289D01*
X24005557Y-25116853D01*
X23988268Y-25107612D01*
X23969509Y-25101921D01*
X23950000Y-25100000D01*
X22850000Y-25100000D01*
X22830491Y-25101921D01*
X22811732Y-25107612D01*
X22794443Y-25116853D01*
X22779289Y-25129289D01*
X22766853Y-25144443D01*
X22757612Y-25161732D01*
X22751921Y-25180491D01*
X22750000Y-25200000D01*
X22750000Y-26300000D01*
X21950000Y-26300000D01*
X21930491Y-26301921D01*
X21911732Y-26307612D01*
X21894443Y-26316853D01*
X21879289Y-26329289D01*
X21529289Y-26679289D01*
X21516853Y-26694443D01*
X21507612Y-26711732D01*
X21501921Y-26730491D01*
X21500000Y-26750000D01*
X20341864Y-26750000D01*
X20326942Y-26674986D01*
X20281713Y-26565793D01*
X20216050Y-26467522D01*
X20132478Y-26383950D01*
X20034207Y-26318287D01*
X19925014Y-26273058D01*
X19809095Y-26250000D01*
X19690905Y-26250000D01*
X19574986Y-26273058D01*
X19465793Y-26318287D01*
X19450000Y-26328840D01*
X19434207Y-26318287D01*
X19325014Y-26273058D01*
X19209095Y-26250000D01*
X19090905Y-26250000D01*
X18974986Y-26273058D01*
X18865793Y-26318287D01*
X18850000Y-26328840D01*
X18834207Y-26318287D01*
X18725014Y-26273058D01*
X18609095Y-26250000D01*
X18490905Y-26250000D01*
X18374986Y-26273058D01*
X18265793Y-26318287D01*
X18167522Y-26383950D01*
X18083950Y-26467522D01*
X18018287Y-26565793D01*
X17973058Y-26674986D01*
X17950000Y-26790905D01*
X12032435Y-26790905D01*
X12015238Y-24090905D01*
X20750000Y-24090905D01*
X20750000Y-24209095D01*
X20773058Y-24325014D01*
X20818287Y-24434207D01*
X20883950Y-24532478D01*
X20967522Y-24616050D01*
X21065793Y-24681713D01*
X21174986Y-24726942D01*
X21290905Y-24750000D01*
X21409095Y-24750000D01*
X21525014Y-24726942D01*
X21634207Y-24681713D01*
X21732478Y-24616050D01*
X21816050Y-24532478D01*
X21881713Y-24434207D01*
X21926942Y-24325014D01*
X21950000Y-24209095D01*
X21950000Y-24090905D01*
X21926942Y-23974986D01*
X21881713Y-23865793D01*
X21816050Y-23767522D01*
X21732478Y-23683950D01*
X21634207Y-23618287D01*
X21525014Y-23573058D01*
X21409095Y-23550000D01*
X21290905Y-23550000D01*
X21174986Y-23573058D01*
X21065793Y-23618287D01*
X20967522Y-23683950D01*
X20883950Y-23767522D01*
X20818287Y-23865793D01*
X20773058Y-23974986D01*
X20750000Y-24090905D01*
X12015238Y-24090905D01*
X11999992Y-21697452D01*
X11992314Y-21621964D01*
X11977146Y-21571961D01*
X12700000Y-21571961D01*
X12700000Y-21828039D01*
X12749958Y-22079196D01*
X12847955Y-22315781D01*
X12990224Y-22528702D01*
X13171298Y-22709776D01*
X13384219Y-22852045D01*
X13620804Y-22950042D01*
X13871961Y-23000000D01*
X14128039Y-23000000D01*
X14379196Y-22950042D01*
X14615781Y-22852045D01*
X14828702Y-22709776D01*
X15009776Y-22528702D01*
X15152045Y-22315781D01*
X15250042Y-22079196D01*
X15300000Y-21828039D01*
X15300000Y-21571961D01*
X15273932Y-21440905D01*
X22000000Y-21440905D01*
X22000000Y-21559095D01*
X22023058Y-21675014D01*
X22068287Y-21784207D01*
X22133950Y-21882478D01*
X22217522Y-21966050D01*
X22315793Y-22031713D01*
X22424986Y-22076942D01*
X22540905Y-22100000D01*
X22659095Y-22100000D01*
X22775014Y-22076942D01*
X22884207Y-22031713D01*
X22982478Y-21966050D01*
X23066050Y-21882478D01*
X23131713Y-21784207D01*
X23176942Y-21675014D01*
X23193672Y-21590905D01*
X23400000Y-21590905D01*
X23400000Y-21709095D01*
X23423058Y-21825014D01*
X23468287Y-21934207D01*
X23533950Y-22032478D01*
X23617522Y-22116050D01*
X23715793Y-22181713D01*
X23824986Y-22226942D01*
X23940905Y-22250000D01*
X24059095Y-22250000D01*
X24175014Y-22226942D01*
X24284207Y-22181713D01*
X24382478Y-22116050D01*
X24466050Y-22032478D01*
X24531713Y-21934207D01*
X24576942Y-21825014D01*
X24600000Y-21709095D01*
X24600000Y-21590905D01*
X24576942Y-21474986D01*
X24531713Y-21365793D01*
X24466050Y-21267522D01*
X24382478Y-21183950D01*
X24284207Y-21118287D01*
X24175014Y-21073058D01*
X24059095Y-21050000D01*
X23940905Y-21050000D01*
X23824986Y-21073058D01*
X23715793Y-21118287D01*
X23617522Y-21183950D01*
X23533950Y-21267522D01*
X23468287Y-21365793D01*
X23423058Y-21474986D01*
X23400000Y-21590905D01*
X23193672Y-21590905D01*
X23200000Y-21559095D01*
X23200000Y-21440905D01*
X23176942Y-21324986D01*
X23131713Y-21215793D01*
X23066050Y-21117522D01*
X22982478Y-21033950D01*
X22884207Y-20968287D01*
X22775014Y-20923058D01*
X22659095Y-20900000D01*
X22540905Y-20900000D01*
X22424986Y-20923058D01*
X22315793Y-20968287D01*
X22217522Y-21033950D01*
X22133950Y-21117522D01*
X22068287Y-21215793D01*
X22023058Y-21324986D01*
X22000000Y-21440905D01*
X15273932Y-21440905D01*
X15250042Y-21320804D01*
X15152045Y-21084219D01*
X15009776Y-20871298D01*
X14828702Y-20690224D01*
X14615781Y-20547955D01*
X14379196Y-20449958D01*
X14128039Y-20400000D01*
X13871961Y-20400000D01*
X13620804Y-20449958D01*
X13384219Y-20547955D01*
X13171298Y-20690224D01*
X12990224Y-20871298D01*
X12847955Y-21084219D01*
X12749958Y-21320804D01*
X12700000Y-21571961D01*
X11977146Y-21571961D01*
X11969552Y-21546927D01*
X11932588Y-21477772D01*
X11900000Y-21438063D01*
X11900000Y-21340905D01*
X11876942Y-21224986D01*
X11831713Y-21115793D01*
X11766050Y-21017522D01*
X11682478Y-20933950D01*
X11584207Y-20868287D01*
X11475014Y-20823058D01*
X11359095Y-20800000D01*
X11240905Y-20800000D01*
X11124986Y-20823058D01*
X11015793Y-20868287D01*
X10917522Y-20933950D01*
X10833950Y-21017522D01*
X10768287Y-21115793D01*
X10723058Y-21224986D01*
X10708137Y-21300000D01*
X5821152Y-21300000D01*
X5831705Y-21284207D01*
X5876934Y-21175014D01*
X5899992Y-21059095D01*
X5899992Y-20940905D01*
X5876934Y-20824986D01*
X5831705Y-20715793D01*
X5766042Y-20617522D01*
X5682470Y-20533950D01*
X5584199Y-20468287D01*
X5475006Y-20423058D01*
X5359087Y-20400000D01*
X5240897Y-20400000D01*
X5124978Y-20423058D01*
X5015785Y-20468287D01*
X4917514Y-20533950D01*
X4833942Y-20617522D01*
X4768279Y-20715793D01*
X4723050Y-20824986D01*
X4699992Y-20940905D01*
X4699992Y-21059095D01*
X4723050Y-21175014D01*
X4768279Y-21284207D01*
X4778832Y-21300000D01*
X2178594Y-21300000D01*
X2518401Y-14357753D01*
X2543790Y-14368269D01*
X2659709Y-14391327D01*
X2777899Y-14391327D01*
X2893818Y-14368269D01*
X3003011Y-14323040D01*
X3101282Y-14257377D01*
X3184854Y-14173805D01*
X3250517Y-14075534D01*
X3295746Y-13966341D01*
X3318804Y-13850422D01*
X3318804Y-13823551D01*
X3408478Y-13823551D01*
X3524397Y-13800493D01*
X3633590Y-13755264D01*
X3731861Y-13689601D01*
X3815433Y-13606029D01*
X3881096Y-13507758D01*
X3926325Y-13398565D01*
X3949383Y-13282646D01*
X3949383Y-13164456D01*
X3926325Y-13048537D01*
X3881096Y-12939344D01*
X3815433Y-12841073D01*
X3731861Y-12757501D01*
X3633590Y-12691838D01*
X3524397Y-12646609D01*
X3408478Y-12623551D01*
X3290288Y-12623551D01*
X3174369Y-12646609D01*
X3075196Y-12687688D01*
X3034413Y-12660437D01*
X2925220Y-12615208D01*
X2809301Y-12592150D01*
X2691111Y-12592150D01*
X2603975Y-12609483D01*
X2805124Y-8500000D01*
X5900000Y-8500000D01*
X5900000Y-13000000D01*
X5901921Y-13019509D01*
X5907612Y-13038268D01*
X5916853Y-13055557D01*
X5929289Y-13070711D01*
X5944443Y-13083147D01*
X5961732Y-13092388D01*
X5980491Y-13098079D01*
X6000000Y-13100000D01*
X6850000Y-13100000D01*
X6869509Y-13098079D01*
X6888268Y-13092388D01*
X6905557Y-13083147D01*
X6921647Y-13069762D01*
X7777376Y-12190905D01*
X8600000Y-12190905D01*
X8600000Y-12309095D01*
X8623058Y-12425014D01*
X8668287Y-12534207D01*
X8678840Y-12550000D01*
X8668287Y-12565793D01*
X8623058Y-12674986D01*
X8600000Y-12790905D01*
X8600000Y-12909095D01*
X8623058Y-13025014D01*
X8668287Y-13134207D01*
X8678840Y-13150000D01*
X8668287Y-13165793D01*
X8623058Y-13274986D01*
X8600000Y-13390905D01*
X8600000Y-13509095D01*
X8623058Y-13625014D01*
X8668287Y-13734207D01*
X8733950Y-13832478D01*
X8817522Y-13916050D01*
X8915793Y-13981713D01*
X9024986Y-14026942D01*
X9140905Y-14050000D01*
X9259095Y-14050000D01*
X9375014Y-14026942D01*
X9484207Y-13981713D01*
X9500000Y-13971160D01*
X9515793Y-13981713D01*
X9624986Y-14026942D01*
X9740905Y-14050000D01*
X9859095Y-14050000D01*
X9975014Y-14026942D01*
X10084207Y-13981713D01*
X10100000Y-13971160D01*
X10115793Y-13981713D01*
X10224986Y-14026942D01*
X10340905Y-14050000D01*
X10459095Y-14050000D01*
X10575014Y-14026942D01*
X10684207Y-13981713D01*
X10700000Y-13971160D01*
X10715793Y-13981713D01*
X10824986Y-14026942D01*
X10940905Y-14050000D01*
X11059095Y-14050000D01*
X11175014Y-14026942D01*
X11284207Y-13981713D01*
X11300000Y-13971160D01*
X11315793Y-13981713D01*
X11424986Y-14026942D01*
X11540905Y-14050000D01*
X11659095Y-14050000D01*
X11775014Y-14026942D01*
X11884207Y-13981713D01*
X11982478Y-13916050D01*
X12066050Y-13832478D01*
X12131713Y-13734207D01*
X12176942Y-13625014D01*
X12200000Y-13509095D01*
X12200000Y-13390905D01*
X12176942Y-13274986D01*
X12131713Y-13165793D01*
X12121160Y-13150000D01*
X12131713Y-13134207D01*
X12175179Y-13029269D01*
X12216259Y-13056718D01*
X12325452Y-13101947D01*
X12441371Y-13125005D01*
X12559561Y-13125005D01*
X12675480Y-13101947D01*
X12784673Y-13056718D01*
X12882944Y-12991055D01*
X12966516Y-12907483D01*
X13032179Y-12809212D01*
X13077408Y-12700019D01*
X13100466Y-12584100D01*
X13100466Y-12465910D01*
X13077408Y-12349991D01*
X13032179Y-12240798D01*
X12998842Y-12190905D01*
X15800000Y-12190905D01*
X15800000Y-12309095D01*
X15823058Y-12425014D01*
X15868287Y-12534207D01*
X15878840Y-12550000D01*
X15868287Y-12565793D01*
X15823058Y-12674986D01*
X15800000Y-12790905D01*
X15800000Y-12909095D01*
X15823058Y-13025014D01*
X15868287Y-13134207D01*
X15878840Y-13150000D01*
X15868287Y-13165793D01*
X15823058Y-13274986D01*
X15800000Y-13390905D01*
X15800000Y-13509095D01*
X15823058Y-13625014D01*
X15868287Y-13734207D01*
X15933950Y-13832478D01*
X16017522Y-13916050D01*
X16115793Y-13981713D01*
X16224986Y-14026942D01*
X16340905Y-14050000D01*
X16459095Y-14050000D01*
X16575014Y-14026942D01*
X16684207Y-13981713D01*
X16700000Y-13971160D01*
X16715793Y-13981713D01*
X16824986Y-14026942D01*
X16940905Y-14050000D01*
X17059095Y-14050000D01*
X17175014Y-14026942D01*
X17284207Y-13981713D01*
X17300000Y-13971160D01*
X17315793Y-13981713D01*
X17424986Y-14026942D01*
X17540905Y-14050000D01*
X17659095Y-14050000D01*
X17775014Y-14026942D01*
X17884207Y-13981713D01*
X17900000Y-13971160D01*
X17915793Y-13981713D01*
X18024986Y-14026942D01*
X18140905Y-14050000D01*
X18259095Y-14050000D01*
X18375014Y-14026942D01*
X18484207Y-13981713D01*
X18500000Y-13971160D01*
X18515793Y-13981713D01*
X18624986Y-14026942D01*
X18740905Y-14050000D01*
X18859095Y-14050000D01*
X18975014Y-14026942D01*
X19084207Y-13981713D01*
X19182478Y-13916050D01*
X19266050Y-13832478D01*
X19331713Y-13734207D01*
X19376942Y-13625014D01*
X19400000Y-13509095D01*
X19400000Y-13390905D01*
X19376942Y-13274986D01*
X19331713Y-13165793D01*
X19321160Y-13150000D01*
X19331713Y-13134207D01*
X19376942Y-13025014D01*
X19400000Y-12909095D01*
X19400000Y-12790905D01*
X19376942Y-12674986D01*
X19331713Y-12565793D01*
X19329513Y-12562501D01*
X19331713Y-12559209D01*
X19376942Y-12450016D01*
X19400000Y-12334097D01*
X19400000Y-12215907D01*
X19376942Y-12099988D01*
X19331713Y-11990795D01*
X19266050Y-11892524D01*
X19182478Y-11808952D01*
X19084207Y-11743289D01*
X18975014Y-11698060D01*
X18859095Y-11675002D01*
X18740905Y-11675002D01*
X18624986Y-11698060D01*
X18519393Y-11741798D01*
X18484207Y-11718287D01*
X18375014Y-11673058D01*
X18259095Y-11650000D01*
X18140905Y-11650000D01*
X18118134Y-11654530D01*
X18131713Y-11634207D01*
X18176942Y-11525014D01*
X18200000Y-11409095D01*
X18200000Y-11290905D01*
X18176942Y-11174986D01*
X18131713Y-11065793D01*
X18066050Y-10967522D01*
X17982478Y-10883950D01*
X17884207Y-10818287D01*
X17775014Y-10773058D01*
X17681049Y-10754367D01*
X17700000Y-10659095D01*
X17700000Y-10540905D01*
X17681049Y-10445633D01*
X17775014Y-10426942D01*
X17884207Y-10381713D01*
X17982478Y-10316050D01*
X18066050Y-10232478D01*
X18131713Y-10134207D01*
X18176942Y-10025014D01*
X18181917Y-10000000D01*
X18400000Y-10000000D01*
X18400000Y-11150000D01*
X18401921Y-11169509D01*
X18407612Y-11188268D01*
X18416853Y-11205557D01*
X18429289Y-11220711D01*
X18444443Y-11233147D01*
X18461732Y-11242388D01*
X18480491Y-11248079D01*
X18500000Y-11250000D01*
X19056793Y-11250000D01*
X19827180Y-12068536D01*
X19829289Y-12070711D01*
X20829289Y-13070711D01*
X20844443Y-13083147D01*
X20861732Y-13092388D01*
X20880491Y-13098079D01*
X20900000Y-13100000D01*
X22000000Y-13100000D01*
X22019509Y-13098079D01*
X22038268Y-13092388D01*
X22055557Y-13083147D01*
X22070711Y-13070711D01*
X22083147Y-13055557D01*
X22092388Y-13038268D01*
X22098079Y-13019509D01*
X22100000Y-13000000D01*
X22100000Y-8500000D01*
X22098079Y-8480491D01*
X22092388Y-8461732D01*
X22083147Y-8444443D01*
X22070711Y-8429289D01*
X22055557Y-8416853D01*
X22038268Y-8407612D01*
X22019509Y-8401921D01*
X22000000Y-8400000D01*
X20500000Y-8400000D01*
X20480491Y-8401921D01*
X20461732Y-8407612D01*
X20444443Y-8416853D01*
X20429289Y-8429289D01*
X18958578Y-9900000D01*
X18500000Y-9900000D01*
X18480491Y-9901921D01*
X18461732Y-9907612D01*
X18444443Y-9916853D01*
X18429289Y-9929289D01*
X18416853Y-9944443D01*
X18407612Y-9961732D01*
X18401921Y-9980491D01*
X18400000Y-10000000D01*
X18181917Y-10000000D01*
X18200000Y-9909095D01*
X18200000Y-9790905D01*
X18176942Y-9674986D01*
X18131713Y-9565793D01*
X18066050Y-9467522D01*
X17982478Y-9383950D01*
X17884207Y-9318287D01*
X17775014Y-9273058D01*
X17659095Y-9250000D01*
X17540905Y-9250000D01*
X17424986Y-9273058D01*
X17315793Y-9318287D01*
X17217522Y-9383950D01*
X17133950Y-9467522D01*
X17100000Y-9518331D01*
X17066050Y-9467522D01*
X16982478Y-9383950D01*
X16884207Y-9318287D01*
X16775014Y-9273058D01*
X16659095Y-9250000D01*
X16540905Y-9250000D01*
X16424986Y-9273058D01*
X16315793Y-9318287D01*
X16217522Y-9383950D01*
X16133950Y-9467522D01*
X16068287Y-9565793D01*
X16023058Y-9674986D01*
X16000000Y-9790905D01*
X16000000Y-9909095D01*
X16023058Y-10025014D01*
X16068287Y-10134207D01*
X16133950Y-10232478D01*
X16217522Y-10316050D01*
X16315793Y-10381713D01*
X16424986Y-10426942D01*
X16518951Y-10445633D01*
X16500000Y-10540905D01*
X16500000Y-10659095D01*
X16518951Y-10754367D01*
X16424986Y-10773058D01*
X16315793Y-10818287D01*
X16217522Y-10883950D01*
X16133950Y-10967522D01*
X16068287Y-11065793D01*
X16023058Y-11174986D01*
X16000000Y-11290905D01*
X16000000Y-11409095D01*
X16023058Y-11525014D01*
X16068287Y-11634207D01*
X16122587Y-11715473D01*
X16115793Y-11718287D01*
X16017522Y-11783950D01*
X15933950Y-11867522D01*
X15868287Y-11965793D01*
X15823058Y-12074986D01*
X15800000Y-12190905D01*
X12998842Y-12190905D01*
X12966516Y-12142527D01*
X12882944Y-12058955D01*
X12784673Y-11993292D01*
X12675480Y-11948063D01*
X12559561Y-11925005D01*
X12441371Y-11925005D01*
X12325452Y-11948063D01*
X12216259Y-11993292D01*
X12158962Y-12031577D01*
X12131713Y-11965793D01*
X12066050Y-11867522D01*
X11982478Y-11783950D01*
X11884207Y-11718287D01*
X11846047Y-11702481D01*
X11866050Y-11682478D01*
X11931713Y-11584207D01*
X11976942Y-11475014D01*
X12000000Y-11359095D01*
X12000000Y-11240905D01*
X11976942Y-11124986D01*
X11931713Y-11015793D01*
X11866050Y-10917522D01*
X11788078Y-10839550D01*
X12475461Y-10839550D01*
X12475461Y-10957740D01*
X12498519Y-11073659D01*
X12543748Y-11182852D01*
X12609411Y-11281123D01*
X12692983Y-11364695D01*
X12791254Y-11430358D01*
X12900447Y-11475587D01*
X13016366Y-11498645D01*
X13134556Y-11498645D01*
X13250475Y-11475587D01*
X13359668Y-11430358D01*
X13457939Y-11364695D01*
X13541511Y-11281123D01*
X13607174Y-11182852D01*
X13652403Y-11073659D01*
X13675461Y-10957740D01*
X13675461Y-10839550D01*
X13652403Y-10723631D01*
X13607174Y-10614438D01*
X13541511Y-10516167D01*
X13457939Y-10432595D01*
X13359668Y-10366932D01*
X13250475Y-10321703D01*
X13134556Y-10298645D01*
X13016366Y-10298645D01*
X12900447Y-10321703D01*
X12791254Y-10366932D01*
X12692983Y-10432595D01*
X12609411Y-10516167D01*
X12543748Y-10614438D01*
X12498519Y-10723631D01*
X12475461Y-10839550D01*
X11788078Y-10839550D01*
X11782478Y-10833950D01*
X11684207Y-10768287D01*
X11575014Y-10723058D01*
X11481049Y-10704367D01*
X11500000Y-10609095D01*
X11500000Y-10490905D01*
X11481049Y-10395633D01*
X11575014Y-10376942D01*
X11684207Y-10331713D01*
X11782478Y-10266050D01*
X11866050Y-10182478D01*
X11931713Y-10084207D01*
X11976942Y-9975014D01*
X12000000Y-9859095D01*
X12000000Y-9740905D01*
X11976942Y-9624986D01*
X11931713Y-9515793D01*
X11866050Y-9417522D01*
X11782478Y-9333950D01*
X11684207Y-9268287D01*
X11575014Y-9223058D01*
X11459095Y-9200000D01*
X11340905Y-9200000D01*
X11224986Y-9223058D01*
X11115793Y-9268287D01*
X11017522Y-9333950D01*
X10933950Y-9417522D01*
X10900000Y-9468331D01*
X10866050Y-9417522D01*
X10782478Y-9333950D01*
X10684207Y-9268287D01*
X10575014Y-9223058D01*
X10459095Y-9200000D01*
X10340905Y-9200000D01*
X10224986Y-9223058D01*
X10115793Y-9268287D01*
X10017522Y-9333950D01*
X9933950Y-9417522D01*
X9868287Y-9515793D01*
X9823058Y-9624986D01*
X9800000Y-9740905D01*
X9800000Y-9859095D01*
X9823058Y-9975014D01*
X9868287Y-10084207D01*
X9933950Y-10182478D01*
X10017522Y-10266050D01*
X10115793Y-10331713D01*
X10224986Y-10376942D01*
X10318951Y-10395633D01*
X10300000Y-10490905D01*
X10300000Y-10609095D01*
X10318951Y-10704367D01*
X10224986Y-10723058D01*
X10115793Y-10768287D01*
X10017522Y-10833950D01*
X9933950Y-10917522D01*
X9868287Y-11015793D01*
X9823058Y-11124986D01*
X9800000Y-11240905D01*
X9800000Y-11359095D01*
X9823058Y-11475014D01*
X9868287Y-11584207D01*
X9920396Y-11662194D01*
X9859095Y-11650000D01*
X9740905Y-11650000D01*
X9624986Y-11673058D01*
X9515793Y-11718287D01*
X9500000Y-11728840D01*
X9484207Y-11718287D01*
X9375014Y-11673058D01*
X9259095Y-11650000D01*
X9140905Y-11650000D01*
X9024986Y-11673058D01*
X8915793Y-11718287D01*
X8817522Y-11783950D01*
X8733950Y-11867522D01*
X8668287Y-11965793D01*
X8623058Y-12074986D01*
X8600000Y-12190905D01*
X7777376Y-12190905D01*
X8742205Y-11200000D01*
X9500000Y-11200000D01*
X9519509Y-11198079D01*
X9538268Y-11192388D01*
X9555557Y-11183147D01*
X9570711Y-11170711D01*
X9583147Y-11155557D01*
X9592388Y-11138268D01*
X9598079Y-11119509D01*
X9600000Y-11100000D01*
X9600000Y-9950000D01*
X9598079Y-9930491D01*
X9592388Y-9911732D01*
X9583147Y-9894443D01*
X9570711Y-9879289D01*
X9555557Y-9866853D01*
X9538268Y-9857612D01*
X9519509Y-9851921D01*
X9500000Y-9850000D01*
X8491422Y-9850000D01*
X8137511Y-9496089D01*
X8182478Y-9466042D01*
X8266050Y-9382470D01*
X8331713Y-9284199D01*
X8376942Y-9175006D01*
X8400000Y-9059087D01*
X8400000Y-8940897D01*
X8386078Y-8870905D01*
X14509998Y-8870905D01*
X14509998Y-8989095D01*
X14533056Y-9105014D01*
X14578285Y-9214207D01*
X14643948Y-9312478D01*
X14727520Y-9396050D01*
X14825791Y-9461713D01*
X14934984Y-9506942D01*
X15050903Y-9530000D01*
X15169093Y-9530000D01*
X15285012Y-9506942D01*
X15394205Y-9461713D01*
X15492476Y-9396050D01*
X15576048Y-9312478D01*
X15641711Y-9214207D01*
X15686940Y-9105014D01*
X15709998Y-8989095D01*
X15709998Y-8870905D01*
X15686940Y-8754986D01*
X15641711Y-8645793D01*
X15576048Y-8547522D01*
X15492476Y-8463950D01*
X15394205Y-8398287D01*
X15285012Y-8353058D01*
X15169093Y-8330000D01*
X15050903Y-8330000D01*
X14934984Y-8353058D01*
X14825791Y-8398287D01*
X14727520Y-8463950D01*
X14643948Y-8547522D01*
X14578285Y-8645793D01*
X14533056Y-8754986D01*
X14509998Y-8870905D01*
X8386078Y-8870905D01*
X8376942Y-8824978D01*
X8331713Y-8715785D01*
X8266050Y-8617514D01*
X8182478Y-8533942D01*
X8084207Y-8468279D01*
X7975014Y-8423050D01*
X7859095Y-8399992D01*
X7740905Y-8399992D01*
X7624986Y-8423050D01*
X7515793Y-8468279D01*
X7417522Y-8533942D01*
X7333950Y-8617514D01*
X7303903Y-8662481D01*
X7070711Y-8429289D01*
X7055557Y-8416853D01*
X7038268Y-8407612D01*
X7019509Y-8401921D01*
X7000000Y-8400000D01*
X6000000Y-8400000D01*
X5980491Y-8401921D01*
X5961732Y-8407612D01*
X5944443Y-8416853D01*
X5929289Y-8429289D01*
X5916853Y-8444443D01*
X5907612Y-8461732D01*
X5901921Y-8480491D01*
X5900000Y-8500000D01*
X2805124Y-8500000D01*
X3024222Y-4023827D01*
X3029861Y-3966311D01*
X3039644Y-3933910D01*
X3055537Y-3904018D01*
X3086690Y-3865822D01*
X3111607Y-3840905D01*
X5549952Y-3840905D01*
X5549952Y-3959095D01*
X5573010Y-4075014D01*
X5618239Y-4184207D01*
X5683902Y-4282478D01*
X5767474Y-4366050D01*
X5865745Y-4431713D01*
X5974938Y-4476942D01*
X6090857Y-4500000D01*
X6209047Y-4500000D01*
X6324966Y-4476942D01*
X6434159Y-4431713D01*
X6532430Y-4366050D01*
X6616002Y-4282478D01*
X6681665Y-4184207D01*
X6726894Y-4075014D01*
X6749952Y-3959095D01*
X6749952Y-3840905D01*
X6736239Y-3771961D01*
X8400000Y-3771961D01*
X8400000Y-4028039D01*
X8449958Y-4279196D01*
X8547955Y-4515781D01*
X8690224Y-4728702D01*
X8871298Y-4909776D01*
X9084219Y-5052045D01*
X9320804Y-5150042D01*
X9571961Y-5200000D01*
X9828039Y-5200000D01*
X10079196Y-5150042D01*
X10315781Y-5052045D01*
X10528702Y-4909776D01*
X10709776Y-4728702D01*
X10852045Y-4515781D01*
X10950042Y-4279196D01*
X11000000Y-4028039D01*
X11000000Y-3771961D01*
X17000000Y-3771961D01*
X17000000Y-4028039D01*
X17049958Y-4279196D01*
X17147955Y-4515781D01*
X17290224Y-4728702D01*
X17471298Y-4909776D01*
X17684219Y-5052045D01*
X17920804Y-5150042D01*
X18171961Y-5200000D01*
X18428039Y-5200000D01*
X18679196Y-5150042D01*
X18915781Y-5052045D01*
X19128702Y-4909776D01*
X19309776Y-4728702D01*
X19452045Y-4515781D01*
X19550042Y-4279196D01*
X19600000Y-4028039D01*
X19600000Y-3840905D01*
X21250032Y-3840905D01*
X21250032Y-3959095D01*
X21273090Y-4075014D01*
X21318319Y-4184207D01*
X21383982Y-4282478D01*
X21467554Y-4366050D01*
X21565825Y-4431713D01*
X21675018Y-4476942D01*
X21790937Y-4500000D01*
X21909127Y-4500000D01*
X22025046Y-4476942D01*
X22134239Y-4431713D01*
X22232510Y-4366050D01*
X22316082Y-4282478D01*
X22381745Y-4184207D01*
X22426974Y-4075014D01*
X22450032Y-3959095D01*
X22450032Y-3840905D01*
X22426974Y-3724986D01*
X22381745Y-3615793D01*
X22316082Y-3517522D01*
X22232510Y-3433950D01*
X22134239Y-3368287D01*
X22025046Y-3323058D01*
X21909127Y-3300000D01*
X21790937Y-3300000D01*
X21675018Y-3323058D01*
X21565825Y-3368287D01*
X21467554Y-3433950D01*
X21383982Y-3517522D01*
X21318319Y-3615793D01*
X21273090Y-3724986D01*
X21250032Y-3840905D01*
X19600000Y-3840905D01*
X19600000Y-3771961D01*
X19550042Y-3520804D01*
X19452045Y-3284219D01*
X19309776Y-3071298D01*
X19128702Y-2890224D01*
X18915781Y-2747955D01*
X18679196Y-2649958D01*
X18428039Y-2600000D01*
X18171961Y-2600000D01*
X17920804Y-2649958D01*
X17684219Y-2747955D01*
X17471298Y-2890224D01*
X17290224Y-3071298D01*
X17147955Y-3284219D01*
X17049958Y-3520804D01*
X17000000Y-3771961D01*
X11000000Y-3771961D01*
X10950042Y-3520804D01*
X10852045Y-3284219D01*
X10709776Y-3071298D01*
X10528702Y-2890224D01*
X10315781Y-2747955D01*
X10079196Y-2649958D01*
X9828039Y-2600000D01*
X9571961Y-2600000D01*
X9320804Y-2649958D01*
X9084219Y-2747955D01*
X8871298Y-2890224D01*
X8690224Y-3071298D01*
X8547955Y-3284219D01*
X8449958Y-3520804D01*
X8400000Y-3771961D01*
X6736239Y-3771961D01*
X6726894Y-3724986D01*
X6681665Y-3615793D01*
X6616002Y-3517522D01*
X6532430Y-3433950D01*
X6434159Y-3368287D01*
X6324966Y-3323058D01*
X6209047Y-3300000D01*
X6090857Y-3300000D01*
X5974938Y-3323058D01*
X5865745Y-3368287D01*
X5767474Y-3433950D01*
X5683902Y-3517522D01*
X5618239Y-3615793D01*
X5573010Y-3724986D01*
X5549952Y-3840905D01*
X3111607Y-3840905D01*
X6565016Y-387497D01*
X6603516Y-355873D01*
X6633348Y-339877D01*
X6665717Y-329981D01*
X6714754Y-325000D01*
X21284106Y-325000D01*
X21333689Y-329861D01*
G37*
G04 #@! TD.AperFunction*
G04 #@! TD*
D17*
X5900000Y-23000010D03*
X8300000Y-23000000D03*
X5800000Y-25699942D03*
X6799999Y-32300001D03*
X8399998Y-25700002D03*
X6700000Y-35800000D03*
X10699998Y-32700000D03*
X6500000Y-33900000D03*
X4100000Y-29800000D03*
X5700000Y-28500000D03*
X6300000Y-28500000D03*
X6900000Y-28500000D03*
X7500000Y-28500000D03*
X8100000Y-28500000D03*
X8100000Y-29300000D03*
X7500000Y-29300000D03*
X6900000Y-29300000D03*
X6300000Y-29300000D03*
X5700000Y-29300000D03*
X6500000Y-32800000D03*
X8843750Y-24956250D03*
X4709169Y-34729766D03*
X11300000Y-21400000D03*
X22198192Y-31251808D03*
X22400000Y-33600000D03*
X24000000Y-21650000D03*
X12500466Y-12525005D03*
X22600000Y-21500000D03*
X5299992Y-21000000D03*
X10400000Y-12250000D03*
X9800000Y-12250000D03*
X9200000Y-12250000D03*
X9200000Y-12850000D03*
X9800000Y-12850000D03*
X10400000Y-12850000D03*
X11000000Y-12850000D03*
X11000000Y-12250000D03*
X17600000Y-12250000D03*
X18200000Y-12250000D03*
X18800000Y-12275002D03*
X18800000Y-12850000D03*
X18200000Y-12850000D03*
X17600000Y-12850000D03*
X17000000Y-12850000D03*
X16400000Y-12850000D03*
X16400000Y-12250000D03*
X17000000Y-12250000D03*
X11600000Y-12850000D03*
X11600000Y-12250000D03*
X9200000Y-13450000D03*
X9800000Y-13450000D03*
X10400000Y-13450000D03*
X11000000Y-13450000D03*
X11600000Y-13450000D03*
X16400000Y-13450000D03*
X17000000Y-13450000D03*
X17600000Y-13450000D03*
X18200000Y-13450000D03*
X18800000Y-13450000D03*
X20050000Y-28350000D03*
X20050000Y-28950000D03*
X20050000Y-29550000D03*
X19450000Y-29550000D03*
X18850000Y-29550000D03*
X19750000Y-27450000D03*
X19150000Y-27450000D03*
X18550000Y-27450000D03*
X18550000Y-26850000D03*
X19150000Y-26850000D03*
X19750000Y-26850000D03*
X23100000Y-28350000D03*
X23100000Y-28950000D03*
X23225000Y-29575000D03*
X16950000Y-30250000D03*
X5000000Y-26949989D03*
X8400000Y-31200000D03*
X5075022Y-30917992D03*
X21850032Y-3900000D03*
X6149952Y-3900000D03*
X15109998Y-8930000D03*
X21350000Y-24150000D03*
X22600000Y-6300000D03*
X5400000Y-6400000D03*
X5100000Y-18500000D03*
X22900000Y-18500000D03*
X18600010Y-24469549D03*
X8200000Y-8100000D03*
X19150000Y-8150000D03*
X25637500Y-31012500D03*
X25650000Y-32500000D03*
X17300000Y-26450000D03*
X13900487Y-11250000D03*
X22300000Y-35899998D03*
X24800000Y-22600000D03*
X14000002Y-7700002D03*
X13075461Y-10898645D03*
X7800000Y-8999992D03*
X24987500Y-25800000D03*
D18*
X7500000Y-1700000D03*
X7500000Y-6100000D03*
X11900000Y-6100000D03*
X11900000Y-1700000D03*
X9700000Y-3900000D03*
D17*
X15600000Y-31300000D03*
X15600000Y-33400000D03*
X15600000Y-35500000D03*
X12400000Y-31300000D03*
X12400000Y-33400000D03*
X12400000Y-35500000D03*
X25099794Y-10392150D03*
X24500617Y-10423551D03*
X25131196Y-10991327D03*
X25249794Y-13192150D03*
X24650617Y-13223551D03*
X25281196Y-13791327D03*
X2718804Y-13791327D03*
X3349383Y-13223551D03*
X2750206Y-13192150D03*
X2868804Y-10991327D03*
X3499383Y-10423551D03*
X2900206Y-10392150D03*
D18*
X14000000Y-21700000D03*
D17*
X15100000Y-28400000D03*
X12900000Y-28400000D03*
X12900000Y-24200000D03*
X12900000Y-26300000D03*
X15100000Y-26300000D03*
X15100000Y-24200000D03*
D18*
X16100000Y-1700000D03*
X16100000Y-6100000D03*
X20500000Y-6100000D03*
X20500000Y-1700000D03*
X18300000Y-3900000D03*
X19400000Y-34700000D03*
D17*
X20800000Y-29350000D03*
X20800000Y-28350000D03*
X22300000Y-29350000D03*
X22300000Y-28350000D03*
X21550000Y-28850000D03*
X11400000Y-11300000D03*
X10400000Y-11300000D03*
X11400000Y-9800000D03*
X10400000Y-9800000D03*
X10900000Y-10550000D03*
X16600000Y-9850000D03*
X17600000Y-9850000D03*
X16600000Y-11350000D03*
X17600000Y-11350000D03*
X17100000Y-10600000D03*
M02*
