G04 #@! TF.GenerationSoftware,KiCad,Pcbnew,5.1.9-73d0e3b20d~88~ubuntu20.04.1*
G04 #@! TF.CreationDate,2021-05-11T15:43:56+03:00*
G04 #@! TF.ProjectId,differential-tweezer,64696666-6572-4656-9e74-69616c2d7477,rev?*
G04 #@! TF.SameCoordinates,Original*
G04 #@! TF.FileFunction,Soldermask,Bot*
G04 #@! TF.FilePolarity,Negative*
%FSLAX46Y46*%
G04 Gerber Fmt 4.6, Leading zero omitted, Abs format (unit mm)*
G04 Created by KiCad (PCBNEW 5.1.9-73d0e3b20d~88~ubuntu20.04.1) date 2021-05-11 15:43:56*
%MOMM*%
%LPD*%
G01*
G04 APERTURE LIST*
%ADD10C,4.200000*%
%ADD11C,2.500000*%
%ADD12C,1.500000*%
%ADD13C,0.600000*%
%ADD14C,0.350000*%
G04 APERTURE END LIST*
D10*
G04 #@! TO.C,H1*
X19400000Y-34700000D03*
G04 #@! TD*
D11*
G04 #@! TO.C,TP4*
X8000000Y-27000000D03*
G04 #@! TD*
G04 #@! TO.C,TP3*
X11100000Y-24700000D03*
G04 #@! TD*
G04 #@! TO.C,TP2*
X11100000Y-21100000D03*
G04 #@! TD*
G04 #@! TO.C,TP1*
X23900000Y-33900000D03*
G04 #@! TD*
D12*
G04 #@! TO.C,J2*
X14000000Y-2350000D03*
X14000000Y-9350000D03*
G04 #@! TD*
D13*
G04 #@! TO.C,J6*
X2718804Y-13791327D03*
X3349383Y-13223551D03*
X2750206Y-13192150D03*
G04 #@! TD*
G04 #@! TO.C,J5*
X2868804Y-11141327D03*
X3499383Y-10573551D03*
X2900206Y-10542150D03*
G04 #@! TD*
G04 #@! TO.C,J4*
X25099794Y-10542150D03*
X24500617Y-10573551D03*
X25131196Y-11141327D03*
G04 #@! TD*
G04 #@! TO.C,J3*
X25249794Y-13192150D03*
X24650617Y-13223551D03*
X25281196Y-13791327D03*
G04 #@! TD*
G04 #@! TO.C,J1*
X15200000Y-24200000D03*
X15200000Y-26300000D03*
X13000000Y-26300000D03*
X13000000Y-24200000D03*
X13000000Y-28400000D03*
X15200000Y-28400000D03*
X15700000Y-31200000D03*
X15700000Y-33300000D03*
X15700000Y-35400000D03*
X12500000Y-31200000D03*
X12500000Y-33300000D03*
X12500000Y-35400000D03*
G04 #@! TD*
D14*
G36*
X2551696Y-13413033D02*
G01*
X2561162Y-13422499D01*
X2609734Y-13454953D01*
X2663703Y-13477308D01*
X2721000Y-13488705D01*
X2779412Y-13488705D01*
X2836709Y-13477308D01*
X2890678Y-13454953D01*
X2931364Y-13427768D01*
X2933360Y-13427637D01*
X2934471Y-13429300D01*
X2933744Y-13430977D01*
X2923107Y-13439706D01*
X2911542Y-13453797D01*
X2902949Y-13469874D01*
X2897656Y-13487321D01*
X2895870Y-13505460D01*
X2897656Y-13523598D01*
X2902949Y-13541045D01*
X2911542Y-13557122D01*
X2920274Y-13567761D01*
X2920600Y-13569734D01*
X2919054Y-13571003D01*
X2917314Y-13570444D01*
X2907848Y-13560978D01*
X2859276Y-13528524D01*
X2805307Y-13506169D01*
X2748010Y-13494772D01*
X2689598Y-13494772D01*
X2632301Y-13506169D01*
X2578332Y-13528524D01*
X2537646Y-13555709D01*
X2535650Y-13555840D01*
X2534539Y-13554177D01*
X2535266Y-13552500D01*
X2545903Y-13543771D01*
X2557468Y-13529680D01*
X2566061Y-13513603D01*
X2571354Y-13496156D01*
X2573140Y-13478017D01*
X2571354Y-13459879D01*
X2566061Y-13442432D01*
X2557468Y-13426355D01*
X2548736Y-13415716D01*
X2548410Y-13413743D01*
X2549956Y-13412474D01*
X2551696Y-13413033D01*
G37*
G36*
X25451650Y-13413929D02*
G01*
X25451264Y-13415716D01*
X25442532Y-13426354D01*
X25433939Y-13442431D01*
X25428646Y-13459879D01*
X25426860Y-13478017D01*
X25428646Y-13496155D01*
X25433939Y-13513603D01*
X25442532Y-13529680D01*
X25454097Y-13543770D01*
X25464734Y-13552500D01*
X25465438Y-13554372D01*
X25464169Y-13555918D01*
X25462354Y-13555709D01*
X25421668Y-13528524D01*
X25367699Y-13506169D01*
X25310402Y-13494772D01*
X25251990Y-13494772D01*
X25194693Y-13506169D01*
X25140724Y-13528524D01*
X25092152Y-13560978D01*
X25082686Y-13570444D01*
X25080754Y-13570962D01*
X25079340Y-13569548D01*
X25079726Y-13567761D01*
X25088458Y-13557123D01*
X25097051Y-13541046D01*
X25102344Y-13523598D01*
X25104130Y-13505460D01*
X25102344Y-13487322D01*
X25097051Y-13469874D01*
X25088458Y-13453797D01*
X25076893Y-13439707D01*
X25066256Y-13430977D01*
X25065552Y-13429105D01*
X25066821Y-13427559D01*
X25068636Y-13427768D01*
X25109322Y-13454953D01*
X25163291Y-13477308D01*
X25220588Y-13488705D01*
X25279000Y-13488705D01*
X25336297Y-13477308D01*
X25390266Y-13454953D01*
X25438838Y-13422499D01*
X25448304Y-13413033D01*
X25450236Y-13412515D01*
X25451650Y-13413929D01*
G37*
G36*
X2989031Y-13008608D02*
G01*
X2997765Y-13019251D01*
X3011856Y-13030814D01*
X3027935Y-13039408D01*
X3045380Y-13044698D01*
X3063519Y-13046485D01*
X3081658Y-13044698D01*
X3099105Y-13039404D01*
X3115181Y-13030811D01*
X3125817Y-13022081D01*
X3127790Y-13021755D01*
X3129059Y-13023301D01*
X3128500Y-13025041D01*
X3119034Y-13034507D01*
X3086580Y-13083079D01*
X3064225Y-13137048D01*
X3052828Y-13194345D01*
X3052828Y-13252757D01*
X3064225Y-13310054D01*
X3086580Y-13364023D01*
X3113767Y-13404713D01*
X3113898Y-13406709D01*
X3112235Y-13407820D01*
X3110558Y-13407093D01*
X3101824Y-13396450D01*
X3087733Y-13384887D01*
X3071654Y-13376293D01*
X3054209Y-13371003D01*
X3036070Y-13369216D01*
X3017931Y-13371003D01*
X3000484Y-13376297D01*
X2984408Y-13384890D01*
X2973772Y-13393620D01*
X2971799Y-13393946D01*
X2970530Y-13392400D01*
X2971089Y-13390660D01*
X2980555Y-13381194D01*
X3013009Y-13332622D01*
X3035364Y-13278653D01*
X3046761Y-13221356D01*
X3046761Y-13162944D01*
X3035364Y-13105647D01*
X3013009Y-13051678D01*
X2985822Y-13010988D01*
X2985691Y-13008992D01*
X2987354Y-13007881D01*
X2989031Y-13008608D01*
G37*
G36*
X25014388Y-13009173D02*
G01*
X25014179Y-13010988D01*
X24986991Y-13051678D01*
X24964636Y-13105647D01*
X24953239Y-13162944D01*
X24953239Y-13221356D01*
X24964636Y-13278653D01*
X24986991Y-13332622D01*
X25019445Y-13381194D01*
X25028911Y-13390660D01*
X25029429Y-13392592D01*
X25028015Y-13394006D01*
X25026228Y-13393620D01*
X25015590Y-13384888D01*
X24999513Y-13376295D01*
X24982065Y-13371002D01*
X24963927Y-13369216D01*
X24945789Y-13371002D01*
X24928341Y-13376295D01*
X24912264Y-13384888D01*
X24898174Y-13396453D01*
X24889441Y-13407093D01*
X24887569Y-13407797D01*
X24886023Y-13406528D01*
X24886232Y-13404713D01*
X24913420Y-13364023D01*
X24935775Y-13310054D01*
X24947172Y-13252757D01*
X24947172Y-13194345D01*
X24935775Y-13137048D01*
X24913420Y-13083079D01*
X24880966Y-13034507D01*
X24871500Y-13025041D01*
X24870982Y-13023109D01*
X24872396Y-13021695D01*
X24874183Y-13022081D01*
X24884821Y-13030813D01*
X24900898Y-13039406D01*
X24918346Y-13044699D01*
X24936484Y-13046485D01*
X24954622Y-13044699D01*
X24972070Y-13039406D01*
X24988147Y-13030813D01*
X25002237Y-13019248D01*
X25010970Y-13008608D01*
X25012842Y-13007904D01*
X25014388Y-13009173D01*
G37*
G36*
X2701696Y-10763033D02*
G01*
X2711162Y-10772499D01*
X2759734Y-10804953D01*
X2813703Y-10827308D01*
X2871000Y-10838705D01*
X2929412Y-10838705D01*
X2986709Y-10827308D01*
X3040678Y-10804953D01*
X3081364Y-10777768D01*
X3083360Y-10777637D01*
X3084471Y-10779300D01*
X3083744Y-10780977D01*
X3073107Y-10789706D01*
X3061542Y-10803797D01*
X3052949Y-10819874D01*
X3047656Y-10837321D01*
X3045870Y-10855460D01*
X3047656Y-10873598D01*
X3052949Y-10891045D01*
X3061542Y-10907122D01*
X3070274Y-10917761D01*
X3070600Y-10919734D01*
X3069054Y-10921003D01*
X3067314Y-10920444D01*
X3057848Y-10910978D01*
X3009276Y-10878524D01*
X2955307Y-10856169D01*
X2898010Y-10844772D01*
X2839598Y-10844772D01*
X2782301Y-10856169D01*
X2728332Y-10878524D01*
X2687646Y-10905709D01*
X2685650Y-10905840D01*
X2684539Y-10904177D01*
X2685266Y-10902500D01*
X2695903Y-10893771D01*
X2707468Y-10879680D01*
X2716061Y-10863603D01*
X2721354Y-10846156D01*
X2723140Y-10828017D01*
X2721354Y-10809879D01*
X2716061Y-10792432D01*
X2707468Y-10776355D01*
X2698736Y-10765716D01*
X2698410Y-10763743D01*
X2699956Y-10762474D01*
X2701696Y-10763033D01*
G37*
G36*
X25301650Y-10763929D02*
G01*
X25301264Y-10765716D01*
X25292532Y-10776354D01*
X25283939Y-10792431D01*
X25278646Y-10809879D01*
X25276860Y-10828017D01*
X25278646Y-10846155D01*
X25283939Y-10863603D01*
X25292532Y-10879680D01*
X25304097Y-10893770D01*
X25314734Y-10902500D01*
X25315438Y-10904372D01*
X25314169Y-10905918D01*
X25312354Y-10905709D01*
X25271668Y-10878524D01*
X25217699Y-10856169D01*
X25160402Y-10844772D01*
X25101990Y-10844772D01*
X25044693Y-10856169D01*
X24990724Y-10878524D01*
X24942152Y-10910978D01*
X24932686Y-10920444D01*
X24930754Y-10920962D01*
X24929340Y-10919548D01*
X24929726Y-10917761D01*
X24938458Y-10907123D01*
X24947051Y-10891046D01*
X24952344Y-10873598D01*
X24954130Y-10855460D01*
X24952344Y-10837322D01*
X24947051Y-10819874D01*
X24938458Y-10803797D01*
X24926893Y-10789707D01*
X24916256Y-10780977D01*
X24915552Y-10779105D01*
X24916821Y-10777559D01*
X24918636Y-10777768D01*
X24959322Y-10804953D01*
X25013291Y-10827308D01*
X25070588Y-10838705D01*
X25129000Y-10838705D01*
X25186297Y-10827308D01*
X25240266Y-10804953D01*
X25288838Y-10772499D01*
X25298304Y-10763033D01*
X25300236Y-10762515D01*
X25301650Y-10763929D01*
G37*
G36*
X3139031Y-10358608D02*
G01*
X3147765Y-10369251D01*
X3161856Y-10380814D01*
X3177935Y-10389408D01*
X3195380Y-10394698D01*
X3213519Y-10396485D01*
X3231658Y-10394698D01*
X3249105Y-10389404D01*
X3265181Y-10380811D01*
X3275817Y-10372081D01*
X3277790Y-10371755D01*
X3279059Y-10373301D01*
X3278500Y-10375041D01*
X3269034Y-10384507D01*
X3236580Y-10433079D01*
X3214225Y-10487048D01*
X3202828Y-10544345D01*
X3202828Y-10602757D01*
X3214225Y-10660054D01*
X3236580Y-10714023D01*
X3263767Y-10754713D01*
X3263898Y-10756709D01*
X3262235Y-10757820D01*
X3260558Y-10757093D01*
X3251824Y-10746450D01*
X3237733Y-10734887D01*
X3221654Y-10726293D01*
X3204209Y-10721003D01*
X3186070Y-10719216D01*
X3167931Y-10721003D01*
X3150484Y-10726297D01*
X3134408Y-10734890D01*
X3123772Y-10743620D01*
X3121799Y-10743946D01*
X3120530Y-10742400D01*
X3121089Y-10740660D01*
X3130555Y-10731194D01*
X3163009Y-10682622D01*
X3185364Y-10628653D01*
X3196761Y-10571356D01*
X3196761Y-10512944D01*
X3185364Y-10455647D01*
X3163009Y-10401678D01*
X3135822Y-10360988D01*
X3135691Y-10358992D01*
X3137354Y-10357881D01*
X3139031Y-10358608D01*
G37*
G36*
X24864388Y-10359173D02*
G01*
X24864179Y-10360988D01*
X24836991Y-10401678D01*
X24814636Y-10455647D01*
X24803239Y-10512944D01*
X24803239Y-10571356D01*
X24814636Y-10628653D01*
X24836991Y-10682622D01*
X24869445Y-10731194D01*
X24878911Y-10740660D01*
X24879429Y-10742592D01*
X24878015Y-10744006D01*
X24876228Y-10743620D01*
X24865590Y-10734888D01*
X24849513Y-10726295D01*
X24832065Y-10721002D01*
X24813927Y-10719216D01*
X24795789Y-10721002D01*
X24778341Y-10726295D01*
X24762264Y-10734888D01*
X24748174Y-10746453D01*
X24739441Y-10757093D01*
X24737569Y-10757797D01*
X24736023Y-10756528D01*
X24736232Y-10754713D01*
X24763420Y-10714023D01*
X24785775Y-10660054D01*
X24797172Y-10602757D01*
X24797172Y-10544345D01*
X24785775Y-10487048D01*
X24763420Y-10433079D01*
X24730966Y-10384507D01*
X24721500Y-10375041D01*
X24720982Y-10373109D01*
X24722396Y-10371695D01*
X24724183Y-10372081D01*
X24734821Y-10380813D01*
X24750898Y-10389406D01*
X24768346Y-10394699D01*
X24786484Y-10396485D01*
X24804622Y-10394699D01*
X24822070Y-10389406D01*
X24838147Y-10380813D01*
X24852237Y-10369248D01*
X24860970Y-10358608D01*
X24862842Y-10357904D01*
X24864388Y-10359173D01*
G37*
M02*
