G04 #@! TF.GenerationSoftware,KiCad,Pcbnew,5.1.9-73d0e3b20d~88~ubuntu20.04.1*
G04 #@! TF.CreationDate,2021-06-04T11:55:54+03:00*
G04 #@! TF.ProjectId,differential-tweezer,64696666-6572-4656-9e74-69616c2d7477,rev?*
G04 #@! TF.SameCoordinates,Original*
G04 #@! TF.FileFunction,Legend,Top*
G04 #@! TF.FilePolarity,Positive*
%FSLAX46Y46*%
G04 Gerber Fmt 4.6, Leading zero omitted, Abs format (unit mm)*
G04 Created by KiCad (PCBNEW 5.1.9-73d0e3b20d~88~ubuntu20.04.1) date 2021-06-04 11:55:54*
%MOMM*%
%LPD*%
G01*
G04 APERTURE LIST*
%ADD10C,0.120000*%
%ADD11C,0.150000*%
%ADD12R,0.900000X0.800000*%
%ADD13R,1.500000X2.200000*%
%ADD14R,2.200000X1.500000*%
%ADD15C,2.800000*%
%ADD16C,2.000000*%
%ADD17R,2.000000X2.000000*%
%ADD18C,0.600000*%
%ADD19R,4.000000X5.000000*%
%ADD20R,3.000000X5.000000*%
%ADD21R,1.500000X2.000000*%
%ADD22C,4.200000*%
%ADD23R,3.200000X1.800000*%
%ADD24R,0.700000X0.600000*%
%ADD25O,0.400000X0.650000*%
%ADD26R,0.400000X0.300000*%
%ADD27R,2.400000X1.650000*%
%ADD28R,1.000000X0.650000*%
%ADD29O,0.650000X0.400000*%
%ADD30R,0.300000X0.400000*%
%ADD31R,1.650000X2.400000*%
%ADD32R,0.650000X1.000000*%
%ADD33R,3.300000X1.550000*%
%ADD34R,0.250000X0.700000*%
%ADD35R,1.600000X1.500000*%
%ADD36R,1.200000X1.200000*%
%ADD37R,1.000000X0.850000*%
G04 APERTURE END LIST*
D10*
X8700000Y-26900000D02*
G75*
G03*
X8700000Y-26900000I-100000J0D01*
G01*
X8900000Y-9200000D02*
G75*
G03*
X8900000Y-9200000I-100000J0D01*
G01*
X19300000Y-11900000D02*
G75*
G03*
X19300000Y-11900000I-100000J0D01*
G01*
X23150000Y-26500000D02*
G75*
G03*
X23150000Y-26500000I-100000J0D01*
G01*
G04 #@! TO.C,C21*
X9537221Y-7490000D02*
X9862779Y-7490000D01*
X9537221Y-8510000D02*
X9862779Y-8510000D01*
G04 #@! TO.C,C20*
X13490000Y-8062779D02*
X13490000Y-7737221D01*
X14510000Y-8062779D02*
X14510000Y-7737221D01*
G04 #@! TO.C,D6*
X18810000Y-29930000D02*
X18810000Y-29000000D01*
X18810000Y-26770000D02*
X18810000Y-27700000D01*
X18810000Y-26770000D02*
X16650000Y-26770000D01*
X18810000Y-29930000D02*
X17350000Y-29930000D01*
G04 #@! TO.C,L4*
X2690000Y-28461252D02*
X2690000Y-27938748D01*
X4110000Y-28461252D02*
X4110000Y-27938748D01*
G04 #@! TO.C,L3*
X9690000Y-28586252D02*
X9690000Y-28063748D01*
X11110000Y-28586252D02*
X11110000Y-28063748D01*
G04 #@! TO.C,C22*
X14410000Y-10737221D02*
X14410000Y-11062779D01*
X13390000Y-10737221D02*
X13390000Y-11062779D01*
D11*
G04 #@! TO.C,J2*
X12000000Y-37400000D02*
X12000000Y-36400000D01*
X16000000Y-37400000D02*
X16000000Y-36400000D01*
X12500000Y-30400000D02*
X12500000Y-29400000D01*
X15500000Y-30400000D02*
X15500000Y-29400000D01*
X17000000Y-36400000D02*
X11000000Y-36400000D01*
X11000000Y-36400000D02*
X11000000Y-30400000D01*
X11000000Y-30400000D02*
X17000000Y-30400000D01*
X17000000Y-30400000D02*
X17000000Y-36400000D01*
G04 #@! TO.C,J4*
X24255981Y-11487813D02*
X24224579Y-10888635D01*
X24177477Y-9989869D02*
X24148692Y-9440622D01*
X24148692Y-9440622D02*
X24190773Y-9288211D01*
X24190773Y-9288211D02*
X24335334Y-9180498D01*
X24335334Y-9180498D02*
X24934512Y-9149096D01*
X24934512Y-9149096D02*
X25086923Y-9191177D01*
X25086923Y-9191177D02*
X25194636Y-9335738D01*
X25194636Y-9335738D02*
X25210337Y-9635327D01*
G04 #@! TO.C,J3*
X24405981Y-14287813D02*
X24374579Y-13688635D01*
X24327477Y-12789869D02*
X24298692Y-12240622D01*
X24298692Y-12240622D02*
X24340773Y-12088211D01*
X24340773Y-12088211D02*
X24485334Y-11980498D01*
X24485334Y-11980498D02*
X25084512Y-11949096D01*
X25084512Y-11949096D02*
X25236923Y-11991177D01*
X25236923Y-11991177D02*
X25344636Y-12135738D01*
X25344636Y-12135738D02*
X25360337Y-12435327D01*
G04 #@! TO.C,J6*
X2655364Y-12135738D02*
X2623962Y-12734916D01*
X2763077Y-11991177D02*
X2655364Y-12135738D01*
X2915488Y-11949096D02*
X2763077Y-11991177D01*
X3514666Y-11980498D02*
X2915488Y-11949096D01*
X3659227Y-12088211D02*
X3514666Y-11980498D01*
X3701308Y-12240622D02*
X3659227Y-12088211D01*
X3672523Y-12789869D02*
X3701308Y-12240622D01*
X3594019Y-14287813D02*
X3625421Y-13688635D01*
G04 #@! TO.C,J5*
X2805364Y-9335738D02*
X2773962Y-9934916D01*
X2913077Y-9191177D02*
X2805364Y-9335738D01*
X3065488Y-9149096D02*
X2913077Y-9191177D01*
X3664666Y-9180498D02*
X3065488Y-9149096D01*
X3809227Y-9288211D02*
X3664666Y-9180498D01*
X3851308Y-9440622D02*
X3809227Y-9288211D01*
X3822523Y-9989869D02*
X3851308Y-9440622D01*
X3744019Y-11487813D02*
X3775421Y-10888635D01*
G04 #@! TO.C,J1*
X12500000Y-30300000D02*
X12500000Y-29300000D01*
X15500000Y-30300000D02*
X15500000Y-29300000D01*
X14500000Y-23300000D02*
X14500000Y-22800000D01*
X13500000Y-23300000D02*
X13500000Y-22800000D01*
X16250000Y-29300000D02*
X11750000Y-29300000D01*
X11750000Y-29300000D02*
X11750000Y-23300000D01*
X11750000Y-23300000D02*
X16250000Y-23300000D01*
X16250000Y-23300000D02*
X16250000Y-29300000D01*
D10*
G04 #@! TO.C,R23*
X22037221Y-8690000D02*
X22362779Y-8690000D01*
X22037221Y-9710000D02*
X22362779Y-9710000D01*
G04 #@! TO.C,R11*
X5962779Y-12710000D02*
X5637221Y-12710000D01*
X5962779Y-11690000D02*
X5637221Y-11690000D01*
G04 #@! TO.C,L9*
X10710000Y-32237221D02*
X10710000Y-32562779D01*
X9690000Y-32237221D02*
X9690000Y-32562779D01*
G04 #@! TO.C,D5*
X3640000Y-4620000D02*
X3640000Y-5550000D01*
X3640000Y-7780000D02*
X3640000Y-6850000D01*
X3640000Y-7780000D02*
X5800000Y-7780000D01*
X3640000Y-4620000D02*
X5100000Y-4620000D01*
G04 #@! TO.C,D4*
X24360000Y-7680000D02*
X24360000Y-6750000D01*
X24360000Y-4520000D02*
X24360000Y-5450000D01*
X24360000Y-4520000D02*
X22200000Y-4520000D01*
X24360000Y-7680000D02*
X22900000Y-7680000D01*
G04 #@! TO.C,C11*
X5637221Y-10190000D02*
X5962779Y-10190000D01*
X5637221Y-11210000D02*
X5962779Y-11210000D01*
G04 #@! TO.C,C1*
X22037221Y-10190000D02*
X22362779Y-10190000D01*
X22037221Y-11210000D02*
X22362779Y-11210000D01*
G04 #@! TO.C,R8*
X23862779Y-33590000D02*
X23537221Y-33590000D01*
X23862779Y-34610000D02*
X23537221Y-34610000D01*
G04 #@! TO.C,D3*
X22215000Y-36335000D02*
X24500000Y-36335000D01*
X22215000Y-34865000D02*
X22215000Y-36335000D01*
X24500000Y-34865000D02*
X22215000Y-34865000D01*
G04 #@! TO.C,R7*
X17110000Y-21437221D02*
X17110000Y-21762779D01*
X16090000Y-21437221D02*
X16090000Y-21762779D01*
G04 #@! TO.C,C10*
X24990000Y-23762779D02*
X24990000Y-23437221D01*
X26010000Y-23762779D02*
X26010000Y-23437221D01*
D11*
G04 #@! TO.C,SW1*
X9150000Y-19750000D02*
X18850000Y-19750000D01*
X18850000Y-19750000D02*
X18850000Y-12650000D01*
X18850000Y-12650000D02*
X9150000Y-12650000D01*
X9150000Y-12650000D02*
X9150000Y-19750000D01*
D10*
G04 #@! TO.C,R12*
X22712779Y-14210000D02*
X22387221Y-14210000D01*
X22712779Y-13190000D02*
X22387221Y-13190000D01*
G04 #@! TO.C,L8*
X2840000Y-21912779D02*
X2840000Y-21587221D01*
X3860000Y-21912779D02*
X3860000Y-21587221D01*
G04 #@! TO.C,L7*
X10340000Y-21912779D02*
X10340000Y-21587221D01*
X11360000Y-21912779D02*
X11360000Y-21587221D01*
G04 #@! TO.C,L1*
X9690000Y-35575279D02*
X9690000Y-35249721D01*
X10710000Y-35575279D02*
X10710000Y-35249721D01*
G04 #@! TO.C,R15*
X5962779Y-9760000D02*
X5637221Y-9760000D01*
X5962779Y-8740000D02*
X5637221Y-8740000D01*
G04 #@! TO.C,C26*
X8162779Y-33810000D02*
X7837221Y-33810000D01*
X8162779Y-32790000D02*
X7837221Y-32790000D01*
G04 #@! TO.C,D2*
X11400000Y-23850000D02*
X10200000Y-23850000D01*
X11400000Y-25700000D02*
X11400000Y-23850000D01*
X10200000Y-25700000D02*
X10200000Y-23850000D01*
G04 #@! TO.C,D1*
X2800000Y-26150000D02*
X4000000Y-26150000D01*
X2800000Y-24300000D02*
X2800000Y-26150000D01*
X4000000Y-24300000D02*
X4000000Y-26150000D01*
G04 #@! TO.C,U4*
X19900000Y-29550000D02*
X19900000Y-30500000D01*
X23200000Y-26850000D02*
X23200000Y-28150000D01*
X23200000Y-29550000D02*
X23200000Y-30500000D01*
X19900000Y-27200000D02*
X19900000Y-28150000D01*
X23000000Y-30500000D02*
X23200000Y-30500000D01*
X20100000Y-30500000D02*
X19900000Y-30500000D01*
X19900000Y-27200000D02*
X20100000Y-27200000D01*
G04 #@! TO.C,U3*
X11600000Y-12200000D02*
X12550000Y-12200000D01*
X8900000Y-8900000D02*
X10200000Y-8900000D01*
X11600000Y-8900000D02*
X12550000Y-8900000D01*
X9250000Y-12200000D02*
X10200000Y-12200000D01*
X12550000Y-9100000D02*
X12550000Y-8900000D01*
X12550000Y-12000000D02*
X12550000Y-12200000D01*
X9250000Y-12200000D02*
X9250000Y-12000000D01*
G04 #@! TO.C,U2*
X16400000Y-8950000D02*
X15450000Y-8950000D01*
X19100000Y-12250000D02*
X17800000Y-12250000D01*
X16400000Y-12250000D02*
X15450000Y-12250000D01*
X18750000Y-8950000D02*
X17800000Y-8950000D01*
X15450000Y-12050000D02*
X15450000Y-12250000D01*
X15450000Y-9150000D02*
X15450000Y-8950000D01*
X18750000Y-8950000D02*
X18750000Y-9150000D01*
D11*
G04 #@! TO.C,U1*
X4775000Y-27800000D02*
X4775000Y-30000000D01*
X9025000Y-27025000D02*
X9025000Y-30000000D01*
D10*
G04 #@! TO.C,RV2*
X23100000Y-20500000D02*
X22700000Y-20500000D01*
X24500000Y-21600000D02*
X24500000Y-24500000D01*
X24500000Y-24500000D02*
X23900000Y-24500000D01*
X21300000Y-21600000D02*
X21300000Y-24500000D01*
X21300000Y-24500000D02*
X21900000Y-24500000D01*
X24700000Y-20700000D02*
X24700000Y-20000000D01*
X24700000Y-20000000D02*
X24000000Y-20000000D01*
G04 #@! TO.C,RV1*
X19400000Y-20500000D02*
X19000000Y-20500000D01*
X20800000Y-21600000D02*
X20800000Y-24500000D01*
X20800000Y-24500000D02*
X20200000Y-24500000D01*
X17600000Y-21600000D02*
X17600000Y-24500000D01*
X17600000Y-24500000D02*
X18200000Y-24500000D01*
X21000000Y-20700000D02*
X21000000Y-20000000D01*
X21000000Y-20000000D02*
X20300000Y-20000000D01*
G04 #@! TO.C,R22*
X19737221Y-31190000D02*
X20062779Y-31190000D01*
X19737221Y-32210000D02*
X20062779Y-32210000D01*
G04 #@! TO.C,R21*
X24610000Y-27887221D02*
X24610000Y-28212779D01*
X23590000Y-27887221D02*
X23590000Y-28212779D01*
G04 #@! TO.C,R20*
X18362779Y-26310000D02*
X18037221Y-26310000D01*
X18362779Y-25290000D02*
X18037221Y-25290000D01*
G04 #@! TO.C,R19*
X24362779Y-26310000D02*
X24037221Y-26310000D01*
X24362779Y-25290000D02*
X24037221Y-25290000D01*
G04 #@! TO.C,R18*
X21362779Y-26310000D02*
X21037221Y-26310000D01*
X21362779Y-25290000D02*
X21037221Y-25290000D01*
G04 #@! TO.C,R17*
X8510000Y-10837221D02*
X8510000Y-11162779D01*
X7490000Y-10837221D02*
X7490000Y-11162779D01*
G04 #@! TO.C,R16*
X20460000Y-11937221D02*
X20460000Y-12262779D01*
X19440000Y-11937221D02*
X19440000Y-12262779D01*
G04 #@! TO.C,R14*
X22362779Y-12710000D02*
X22037221Y-12710000D01*
X22362779Y-11690000D02*
X22037221Y-11690000D01*
G04 #@! TO.C,R13*
X5287221Y-13190000D02*
X5612779Y-13190000D01*
X5287221Y-14210000D02*
X5612779Y-14210000D01*
G04 #@! TO.C,R10*
X4737221Y-3190000D02*
X5062779Y-3190000D01*
X4737221Y-4210000D02*
X5062779Y-4210000D01*
G04 #@! TO.C,R9*
X23262779Y-4110000D02*
X22937221Y-4110000D01*
X23262779Y-3090000D02*
X22937221Y-3090000D01*
G04 #@! TO.C,R6*
X5290000Y-32762779D02*
X5290000Y-32437221D01*
X6310000Y-32762779D02*
X6310000Y-32437221D01*
G04 #@! TO.C,R3*
X2737221Y-30490000D02*
X3062779Y-30490000D01*
X2737221Y-31510000D02*
X3062779Y-31510000D01*
G04 #@! TO.C,R2*
X4837221Y-34290000D02*
X5162779Y-34290000D01*
X4837221Y-35310000D02*
X5162779Y-35310000D01*
G04 #@! TO.C,R1*
X3010000Y-34587221D02*
X3010000Y-34912779D01*
X1990000Y-34587221D02*
X1990000Y-34912779D01*
G04 #@! TO.C,L6*
X5762779Y-24510000D02*
X5437221Y-24510000D01*
X5762779Y-23490000D02*
X5437221Y-23490000D01*
G04 #@! TO.C,L5*
X8437221Y-23490000D02*
X8762779Y-23490000D01*
X8437221Y-24510000D02*
X8762779Y-24510000D01*
G04 #@! TO.C,L2*
X7837221Y-34290000D02*
X8162779Y-34290000D01*
X7837221Y-35310000D02*
X8162779Y-35310000D01*
G04 #@! TO.C,C25*
X25012779Y-30810000D02*
X24687221Y-30810000D01*
X25012779Y-29790000D02*
X24687221Y-29790000D01*
G04 #@! TO.C,C24*
X24687221Y-31240000D02*
X25012779Y-31240000D01*
X24687221Y-32260000D02*
X25012779Y-32260000D01*
G04 #@! TO.C,C23*
X20450000Y-8767221D02*
X20450000Y-9092779D01*
X19430000Y-8767221D02*
X19430000Y-9092779D01*
G04 #@! TO.C,C19*
X25090000Y-28212779D02*
X25090000Y-27887221D01*
X26110000Y-28212779D02*
X26110000Y-27887221D01*
G04 #@! TO.C,C17*
X6400000Y-14750000D02*
X6900000Y-15250000D01*
X3800000Y-14750000D02*
X3300000Y-15250000D01*
X6900000Y-19650000D02*
X6900000Y-19150000D01*
X6900000Y-19650000D02*
X6400000Y-19650000D01*
X3300000Y-19650000D02*
X3300000Y-19150000D01*
X3300000Y-19650000D02*
X3800000Y-19650000D01*
G04 #@! TO.C,C16*
X24200000Y-14750000D02*
X24700000Y-15250000D01*
X21600000Y-14750000D02*
X21100000Y-15250000D01*
X24700000Y-19650000D02*
X24700000Y-19150000D01*
X24700000Y-19650000D02*
X24200000Y-19650000D01*
X21100000Y-19650000D02*
X21100000Y-19150000D01*
X21100000Y-19650000D02*
X21600000Y-19650000D01*
G04 #@! TO.C,C13*
X5437221Y-20490000D02*
X5762779Y-20490000D01*
X5437221Y-21510000D02*
X5762779Y-21510000D01*
G04 #@! TO.C,C12*
X8762779Y-21510000D02*
X8437221Y-21510000D01*
X8762779Y-20490000D02*
X8437221Y-20490000D01*
G04 #@! TO.C,C9*
X5437221Y-21990000D02*
X5762779Y-21990000D01*
X5437221Y-23010000D02*
X5762779Y-23010000D01*
G04 #@! TO.C,C8*
X8762779Y-23010000D02*
X8437221Y-23010000D01*
X8762779Y-21990000D02*
X8437221Y-21990000D01*
G04 #@! TO.C,C7*
X5437221Y-24990000D02*
X5762779Y-24990000D01*
X5437221Y-26010000D02*
X5762779Y-26010000D01*
G04 #@! TO.C,C6*
X8762779Y-26010000D02*
X8437221Y-26010000D01*
X8762779Y-24990000D02*
X8437221Y-24990000D01*
G04 #@! TO.C,C5*
X2737221Y-31990000D02*
X3062779Y-31990000D01*
X2737221Y-33010000D02*
X3062779Y-33010000D01*
G04 #@! TO.C,C4*
X4837221Y-35790000D02*
X5162779Y-35790000D01*
X4837221Y-36810000D02*
X5162779Y-36810000D01*
G04 #@! TO.C,C3*
X8162779Y-32310000D02*
X7837221Y-32310000D01*
X8162779Y-31290000D02*
X7837221Y-31290000D01*
G04 #@! TO.C,C2*
X8162779Y-36810000D02*
X7837221Y-36810000D01*
X8162779Y-35790000D02*
X7837221Y-35790000D01*
G04 #@! TO.C,J8*
D11*
X12961904Y-4166666D02*
X13533333Y-4166666D01*
X13647619Y-4204761D01*
X13723809Y-4280952D01*
X13761904Y-4395238D01*
X13761904Y-4471428D01*
X13304761Y-3671428D02*
X13266666Y-3747619D01*
X13228571Y-3785714D01*
X13152380Y-3823809D01*
X13114285Y-3823809D01*
X13038095Y-3785714D01*
X13000000Y-3747619D01*
X12961904Y-3671428D01*
X12961904Y-3519047D01*
X13000000Y-3442857D01*
X13038095Y-3404761D01*
X13114285Y-3366666D01*
X13152380Y-3366666D01*
X13228571Y-3404761D01*
X13266666Y-3442857D01*
X13304761Y-3519047D01*
X13304761Y-3671428D01*
X13342857Y-3747619D01*
X13380952Y-3785714D01*
X13457142Y-3823809D01*
X13609523Y-3823809D01*
X13685714Y-3785714D01*
X13723809Y-3747619D01*
X13761904Y-3671428D01*
X13761904Y-3519047D01*
X13723809Y-3442857D01*
X13685714Y-3404761D01*
X13609523Y-3366666D01*
X13457142Y-3366666D01*
X13380952Y-3404761D01*
X13342857Y-3442857D01*
X13304761Y-3519047D01*
G04 #@! TO.C,J2*
X13733333Y-29461904D02*
X13733333Y-30033333D01*
X13695238Y-30147619D01*
X13619047Y-30223809D01*
X13504761Y-30261904D01*
X13428571Y-30261904D01*
X14076190Y-29538095D02*
X14114285Y-29500000D01*
X14190476Y-29461904D01*
X14380952Y-29461904D01*
X14457142Y-29500000D01*
X14495238Y-29538095D01*
X14533333Y-29614285D01*
X14533333Y-29690476D01*
X14495238Y-29804761D01*
X14038095Y-30261904D01*
X14533333Y-30261904D01*
G04 #@! TO.C,J4*
X24423538Y-8210770D02*
X23852893Y-8240676D01*
X23736770Y-8208615D01*
X23656696Y-8136516D01*
X23612672Y-8024381D01*
X23608684Y-7948295D01*
X24195118Y-8947544D02*
X23662516Y-8975456D01*
X24489494Y-8741379D02*
X23908879Y-8581070D01*
X23934798Y-9075629D01*
G04 #@! TO.C,J3*
X25623538Y-14610770D02*
X25052893Y-14640676D01*
X24936770Y-14608615D01*
X24856696Y-14536516D01*
X24812672Y-14424381D01*
X24808684Y-14348295D01*
X25639488Y-14915114D02*
X25665407Y-15409674D01*
X25347106Y-15159323D01*
X25353088Y-15273452D01*
X25319032Y-15351531D01*
X25282983Y-15391568D01*
X25208890Y-15433599D01*
X25018675Y-15443568D01*
X24940596Y-15409512D01*
X24900559Y-15373463D01*
X24858528Y-15299370D01*
X24846566Y-15071112D01*
X24880621Y-14993032D01*
X24916671Y-14952996D01*
G04 #@! TO.C,J6*
X2548548Y-15243373D02*
X3119194Y-15273279D01*
X3231329Y-15317303D01*
X3303428Y-15397377D01*
X3335490Y-15513500D01*
X3331502Y-15589586D01*
X2586430Y-14520555D02*
X2578455Y-14672727D01*
X2612510Y-14750807D01*
X2648559Y-14790844D01*
X2758701Y-14872911D01*
X2908879Y-14918929D01*
X3213224Y-14934879D01*
X3291303Y-14900824D01*
X3331340Y-14864774D01*
X3373371Y-14790682D01*
X3381346Y-14638510D01*
X3347290Y-14560430D01*
X3311241Y-14520393D01*
X3237149Y-14478363D01*
X3046934Y-14468394D01*
X2968854Y-14502449D01*
X2928817Y-14538499D01*
X2886786Y-14612591D01*
X2878811Y-14764763D01*
X2912867Y-14842843D01*
X2948916Y-14882880D01*
X3023009Y-14924910D01*
G04 #@! TO.C,J5*
X3348548Y-8843373D02*
X3919194Y-8873279D01*
X4031329Y-8917303D01*
X4103428Y-8997377D01*
X4135490Y-9113500D01*
X4131502Y-9189586D01*
X3388423Y-8082512D02*
X3368486Y-8462942D01*
X3746922Y-8520923D01*
X3710873Y-8480886D01*
X3676818Y-8402806D01*
X3686786Y-8212591D01*
X3728817Y-8138499D01*
X3768854Y-8102449D01*
X3846934Y-8068394D01*
X4037149Y-8078363D01*
X4111241Y-8120393D01*
X4147290Y-8160430D01*
X4181346Y-8238510D01*
X4171377Y-8428725D01*
X4129347Y-8502817D01*
X4089310Y-8538867D01*
G04 #@! TO.C,J1*
X12133333Y-22161904D02*
X12133333Y-22733333D01*
X12095238Y-22847619D01*
X12019047Y-22923809D01*
X11904761Y-22961904D01*
X11828571Y-22961904D01*
X12933333Y-22961904D02*
X12476190Y-22961904D01*
X12704761Y-22961904D02*
X12704761Y-22161904D01*
X12628571Y-22276190D01*
X12552380Y-22352380D01*
X12476190Y-22390476D01*
G04 #@! TO.C,J7*
X14161904Y-4166666D02*
X14733333Y-4166666D01*
X14847619Y-4204761D01*
X14923809Y-4280952D01*
X14961904Y-4395238D01*
X14961904Y-4471428D01*
X14161904Y-3861904D02*
X14161904Y-3328571D01*
X14961904Y-3671428D01*
G04 #@! TO.C,SW1*
X12933333Y-16623809D02*
X13047619Y-16661904D01*
X13238095Y-16661904D01*
X13314285Y-16623809D01*
X13352380Y-16585714D01*
X13390476Y-16509523D01*
X13390476Y-16433333D01*
X13352380Y-16357142D01*
X13314285Y-16319047D01*
X13238095Y-16280952D01*
X13085714Y-16242857D01*
X13009523Y-16204761D01*
X12971428Y-16166666D01*
X12933333Y-16090476D01*
X12933333Y-16014285D01*
X12971428Y-15938095D01*
X13009523Y-15900000D01*
X13085714Y-15861904D01*
X13276190Y-15861904D01*
X13390476Y-15900000D01*
X13657142Y-15861904D02*
X13847619Y-16661904D01*
X14000000Y-16090476D01*
X14152380Y-16661904D01*
X14342857Y-15861904D01*
X15066666Y-16661904D02*
X14609523Y-16661904D01*
X14838095Y-16661904D02*
X14838095Y-15861904D01*
X14761904Y-15976190D01*
X14685714Y-16052380D01*
X14609523Y-16090476D01*
G04 #@! TO.C,U4*
X22090476Y-31361904D02*
X22090476Y-32009523D01*
X22128571Y-32085714D01*
X22166666Y-32123809D01*
X22242857Y-32161904D01*
X22395238Y-32161904D01*
X22471428Y-32123809D01*
X22509523Y-32085714D01*
X22547619Y-32009523D01*
X22547619Y-31361904D01*
X23271428Y-31628571D02*
X23271428Y-32161904D01*
X23080952Y-31323809D02*
X22890476Y-31895238D01*
X23385714Y-31895238D01*
G04 #@! TO.C,U3*
X11590476Y-7861904D02*
X11590476Y-8509523D01*
X11628571Y-8585714D01*
X11666666Y-8623809D01*
X11742857Y-8661904D01*
X11895238Y-8661904D01*
X11971428Y-8623809D01*
X12009523Y-8585714D01*
X12047619Y-8509523D01*
X12047619Y-7861904D01*
X12352380Y-7861904D02*
X12847619Y-7861904D01*
X12580952Y-8166666D01*
X12695238Y-8166666D01*
X12771428Y-8204761D01*
X12809523Y-8242857D01*
X12847619Y-8319047D01*
X12847619Y-8509523D01*
X12809523Y-8585714D01*
X12771428Y-8623809D01*
X12695238Y-8661904D01*
X12466666Y-8661904D01*
X12390476Y-8623809D01*
X12352380Y-8585714D01*
G04 #@! TO.C,U2*
X15190476Y-7861904D02*
X15190476Y-8509523D01*
X15228571Y-8585714D01*
X15266666Y-8623809D01*
X15342857Y-8661904D01*
X15495238Y-8661904D01*
X15571428Y-8623809D01*
X15609523Y-8585714D01*
X15647619Y-8509523D01*
X15647619Y-7861904D01*
X15990476Y-7938095D02*
X16028571Y-7900000D01*
X16104761Y-7861904D01*
X16295238Y-7861904D01*
X16371428Y-7900000D01*
X16409523Y-7938095D01*
X16447619Y-8014285D01*
X16447619Y-8090476D01*
X16409523Y-8204761D01*
X15952380Y-8661904D01*
X16447619Y-8661904D01*
G04 #@! TO.C,RV2*
X24938095Y-20323809D02*
X25319047Y-20057142D01*
X24938095Y-19866666D02*
X25738095Y-19866666D01*
X25738095Y-20171428D01*
X25700000Y-20247619D01*
X25661904Y-20285714D01*
X25585714Y-20323809D01*
X25471428Y-20323809D01*
X25395238Y-20285714D01*
X25357142Y-20247619D01*
X25319047Y-20171428D01*
X25319047Y-19866666D01*
X25738095Y-20552380D02*
X24938095Y-20819047D01*
X25738095Y-21085714D01*
X25661904Y-21314285D02*
X25700000Y-21352380D01*
X25738095Y-21428571D01*
X25738095Y-21619047D01*
X25700000Y-21695238D01*
X25661904Y-21733333D01*
X25585714Y-21771428D01*
X25509523Y-21771428D01*
X25395238Y-21733333D01*
X24938095Y-21276190D01*
X24938095Y-21771428D01*
G04 #@! TO.C,RV1*
X16588095Y-23723809D02*
X16969047Y-23457142D01*
X16588095Y-23266666D02*
X17388095Y-23266666D01*
X17388095Y-23571428D01*
X17350000Y-23647619D01*
X17311904Y-23685714D01*
X17235714Y-23723809D01*
X17121428Y-23723809D01*
X17045238Y-23685714D01*
X17007142Y-23647619D01*
X16969047Y-23571428D01*
X16969047Y-23266666D01*
X17388095Y-23952380D02*
X16588095Y-24219047D01*
X17388095Y-24485714D01*
X16588095Y-25171428D02*
X16588095Y-24714285D01*
X16588095Y-24942857D02*
X17388095Y-24942857D01*
X17273809Y-24866666D01*
X17197619Y-24790476D01*
X17159523Y-24714285D01*
G04 #@! TO.C,C17*
X3285714Y-17714285D02*
X3323809Y-17752380D01*
X3361904Y-17866666D01*
X3361904Y-17942857D01*
X3323809Y-18057142D01*
X3247619Y-18133333D01*
X3171428Y-18171428D01*
X3019047Y-18209523D01*
X2904761Y-18209523D01*
X2752380Y-18171428D01*
X2676190Y-18133333D01*
X2600000Y-18057142D01*
X2561904Y-17942857D01*
X2561904Y-17866666D01*
X2600000Y-17752380D01*
X2638095Y-17714285D01*
X3361904Y-16952380D02*
X3361904Y-17409523D01*
X3361904Y-17180952D02*
X2561904Y-17180952D01*
X2676190Y-17257142D01*
X2752380Y-17333333D01*
X2790476Y-17409523D01*
X2561904Y-16685714D02*
X2561904Y-16152380D01*
X3361904Y-16495238D01*
G04 #@! TO.C,C16*
X24914285Y-16785714D02*
X24876190Y-16747619D01*
X24838095Y-16633333D01*
X24838095Y-16557142D01*
X24876190Y-16442857D01*
X24952380Y-16366666D01*
X25028571Y-16328571D01*
X25180952Y-16290476D01*
X25295238Y-16290476D01*
X25447619Y-16328571D01*
X25523809Y-16366666D01*
X25600000Y-16442857D01*
X25638095Y-16557142D01*
X25638095Y-16633333D01*
X25600000Y-16747619D01*
X25561904Y-16785714D01*
X24838095Y-17547619D02*
X24838095Y-17090476D01*
X24838095Y-17319047D02*
X25638095Y-17319047D01*
X25523809Y-17242857D01*
X25447619Y-17166666D01*
X25409523Y-17090476D01*
X25638095Y-18233333D02*
X25638095Y-18080952D01*
X25600000Y-18004761D01*
X25561904Y-17966666D01*
X25447619Y-17890476D01*
X25295238Y-17852380D01*
X24990476Y-17852380D01*
X24914285Y-17890476D01*
X24876190Y-17928571D01*
X24838095Y-18004761D01*
X24838095Y-18157142D01*
X24876190Y-18233333D01*
X24914285Y-18271428D01*
X24990476Y-18309523D01*
X25180952Y-18309523D01*
X25257142Y-18271428D01*
X25295238Y-18233333D01*
X25333333Y-18157142D01*
X25333333Y-18004761D01*
X25295238Y-17928571D01*
X25257142Y-17890476D01*
X25180952Y-17852380D01*
G04 #@! TD*
%LPC*%
G04 #@! TO.C,C21*
G36*
G01*
X10050000Y-8256250D02*
X10050000Y-7743750D01*
G75*
G02*
X10268750Y-7525000I218750J0D01*
G01*
X10706250Y-7525000D01*
G75*
G02*
X10925000Y-7743750I0J-218750D01*
G01*
X10925000Y-8256250D01*
G75*
G02*
X10706250Y-8475000I-218750J0D01*
G01*
X10268750Y-8475000D01*
G75*
G02*
X10050000Y-8256250I0J218750D01*
G01*
G37*
G36*
G01*
X8475000Y-8256250D02*
X8475000Y-7743750D01*
G75*
G02*
X8693750Y-7525000I218750J0D01*
G01*
X9131250Y-7525000D01*
G75*
G02*
X9350000Y-7743750I0J-218750D01*
G01*
X9350000Y-8256250D01*
G75*
G02*
X9131250Y-8475000I-218750J0D01*
G01*
X8693750Y-8475000D01*
G75*
G02*
X8475000Y-8256250I0J218750D01*
G01*
G37*
G04 #@! TD*
G04 #@! TO.C,C20*
G36*
G01*
X14256250Y-7550000D02*
X13743750Y-7550000D01*
G75*
G02*
X13525000Y-7331250I0J218750D01*
G01*
X13525000Y-6893750D01*
G75*
G02*
X13743750Y-6675000I218750J0D01*
G01*
X14256250Y-6675000D01*
G75*
G02*
X14475000Y-6893750I0J-218750D01*
G01*
X14475000Y-7331250D01*
G75*
G02*
X14256250Y-7550000I-218750J0D01*
G01*
G37*
G36*
G01*
X14256250Y-9125000D02*
X13743750Y-9125000D01*
G75*
G02*
X13525000Y-8906250I0J218750D01*
G01*
X13525000Y-8468750D01*
G75*
G02*
X13743750Y-8250000I218750J0D01*
G01*
X14256250Y-8250000D01*
G75*
G02*
X14475000Y-8468750I0J-218750D01*
G01*
X14475000Y-8906250D01*
G75*
G02*
X14256250Y-9125000I-218750J0D01*
G01*
G37*
G04 #@! TD*
D12*
G04 #@! TO.C,D6*
X19050000Y-28350000D03*
X17050000Y-29300000D03*
X17050000Y-27400000D03*
G04 #@! TD*
D13*
G04 #@! TO.C,J8*
X7400000Y-3900000D03*
D14*
X9700000Y-6200000D03*
D13*
X12000000Y-3900000D03*
G36*
G01*
X9375000Y-2650000D02*
X10025000Y-2650000D01*
G75*
G02*
X10200000Y-2825000I0J-175000D01*
G01*
X10200000Y-3175000D01*
G75*
G02*
X10025000Y-3350000I-175000J0D01*
G01*
X9375000Y-3350000D01*
G75*
G02*
X9200000Y-3175000I0J175000D01*
G01*
X9200000Y-2825000D01*
G75*
G02*
X9375000Y-2650000I175000J0D01*
G01*
G37*
G36*
G01*
X9150000Y-3575000D02*
X9150000Y-4225000D01*
G75*
G02*
X8975000Y-4400000I-175000J0D01*
G01*
X8625000Y-4400000D01*
G75*
G02*
X8450000Y-4225000I0J175000D01*
G01*
X8450000Y-3575000D01*
G75*
G02*
X8625000Y-3400000I175000J0D01*
G01*
X8975000Y-3400000D01*
G75*
G02*
X9150000Y-3575000I0J-175000D01*
G01*
G37*
G36*
G01*
X9375000Y-4450000D02*
X10025000Y-4450000D01*
G75*
G02*
X10200000Y-4625000I0J-175000D01*
G01*
X10200000Y-4975000D01*
G75*
G02*
X10025000Y-5150000I-175000J0D01*
G01*
X9375000Y-5150000D01*
G75*
G02*
X9200000Y-4975000I0J175000D01*
G01*
X9200000Y-4625000D01*
G75*
G02*
X9375000Y-4450000I175000J0D01*
G01*
G37*
D14*
X9700000Y-1600000D03*
G36*
G01*
X10950000Y-3575000D02*
X10950000Y-4225000D01*
G75*
G02*
X10775000Y-4400000I-175000J0D01*
G01*
X10425000Y-4400000D01*
G75*
G02*
X10250000Y-4225000I0J175000D01*
G01*
X10250000Y-3575000D01*
G75*
G02*
X10425000Y-3400000I175000J0D01*
G01*
X10775000Y-3400000D01*
G75*
G02*
X10950000Y-3575000I0J-175000D01*
G01*
G37*
D15*
X7500000Y-1700000D03*
X7500000Y-6100000D03*
X11900000Y-6100000D03*
X11900000Y-1700000D03*
D16*
X9700000Y-3900000D03*
G04 #@! TD*
G04 #@! TO.C,L4*
G36*
G01*
X3850001Y-27750000D02*
X2949999Y-27750000D01*
G75*
G02*
X2700000Y-27500001I0J249999D01*
G01*
X2700000Y-26849999D01*
G75*
G02*
X2949999Y-26600000I249999J0D01*
G01*
X3850001Y-26600000D01*
G75*
G02*
X4100000Y-26849999I0J-249999D01*
G01*
X4100000Y-27500001D01*
G75*
G02*
X3850001Y-27750000I-249999J0D01*
G01*
G37*
G36*
G01*
X3850001Y-29800000D02*
X2949999Y-29800000D01*
G75*
G02*
X2700000Y-29550001I0J249999D01*
G01*
X2700000Y-28899999D01*
G75*
G02*
X2949999Y-28650000I249999J0D01*
G01*
X3850001Y-28650000D01*
G75*
G02*
X4100000Y-28899999I0J-249999D01*
G01*
X4100000Y-29550001D01*
G75*
G02*
X3850001Y-29800000I-249999J0D01*
G01*
G37*
G04 #@! TD*
G04 #@! TO.C,L3*
G36*
G01*
X10850001Y-27875000D02*
X9949999Y-27875000D01*
G75*
G02*
X9700000Y-27625001I0J249999D01*
G01*
X9700000Y-26974999D01*
G75*
G02*
X9949999Y-26725000I249999J0D01*
G01*
X10850001Y-26725000D01*
G75*
G02*
X11100000Y-26974999I0J-249999D01*
G01*
X11100000Y-27625001D01*
G75*
G02*
X10850001Y-27875000I-249999J0D01*
G01*
G37*
G36*
G01*
X10850001Y-29925000D02*
X9949999Y-29925000D01*
G75*
G02*
X9700000Y-29675001I0J249999D01*
G01*
X9700000Y-29024999D01*
G75*
G02*
X9949999Y-28775000I249999J0D01*
G01*
X10850001Y-28775000D01*
G75*
G02*
X11100000Y-29024999I0J-249999D01*
G01*
X11100000Y-29675001D01*
G75*
G02*
X10850001Y-29925000I-249999J0D01*
G01*
G37*
G04 #@! TD*
G04 #@! TO.C,C22*
G36*
G01*
X13643750Y-11250000D02*
X14156250Y-11250000D01*
G75*
G02*
X14375000Y-11468750I0J-218750D01*
G01*
X14375000Y-11906250D01*
G75*
G02*
X14156250Y-12125000I-218750J0D01*
G01*
X13643750Y-12125000D01*
G75*
G02*
X13425000Y-11906250I0J218750D01*
G01*
X13425000Y-11468750D01*
G75*
G02*
X13643750Y-11250000I218750J0D01*
G01*
G37*
G36*
G01*
X13643750Y-9675000D02*
X14156250Y-9675000D01*
G75*
G02*
X14375000Y-9893750I0J-218750D01*
G01*
X14375000Y-10331250D01*
G75*
G02*
X14156250Y-10550000I-218750J0D01*
G01*
X13643750Y-10550000D01*
G75*
G02*
X13425000Y-10331250I0J218750D01*
G01*
X13425000Y-9893750D01*
G75*
G02*
X13643750Y-9675000I218750J0D01*
G01*
G37*
G04 #@! TD*
D17*
G04 #@! TO.C,J2*
X14000000Y-31900000D03*
D18*
X15600000Y-31300000D03*
X15600000Y-33400000D03*
X15600000Y-35500000D03*
X12400000Y-31300000D03*
X12400000Y-33400000D03*
X12400000Y-35500000D03*
D17*
X14000000Y-34900000D03*
D19*
X14000000Y-33400000D03*
G04 #@! TD*
G04 #@! TO.C,J4*
G36*
G01*
X25299309Y-11332997D02*
X24899857Y-11353932D01*
G75*
G02*
X24847309Y-11306618I-2617J49931D01*
G01*
X24842075Y-11206755D01*
G75*
G02*
X24889389Y-11154207I49931J2617D01*
G01*
X25288841Y-11133272D01*
G75*
G02*
X25341389Y-11180586I2617J-49931D01*
G01*
X25346623Y-11280449D01*
G75*
G02*
X25299309Y-11332997I-49931J-2617D01*
G01*
G37*
G36*
G01*
X25270524Y-10783750D02*
X24871072Y-10804685D01*
G75*
G02*
X24818524Y-10757371I-2617J49931D01*
G01*
X24813290Y-10657508D01*
G75*
G02*
X24860604Y-10604960I49931J2617D01*
G01*
X25260056Y-10584025D01*
G75*
G02*
X25312604Y-10631339I2617J-49931D01*
G01*
X25317838Y-10731202D01*
G75*
G02*
X25270524Y-10783750I-49931J-2617D01*
G01*
G37*
G36*
G01*
X24111633Y-10644212D02*
X24090698Y-10244760D01*
G75*
G02*
X24138012Y-10192212I49931J2617D01*
G01*
X24237875Y-10186978D01*
G75*
G02*
X24290423Y-10234292I2617J-49931D01*
G01*
X24311358Y-10633744D01*
G75*
G02*
X24264044Y-10686292I-49931J-2617D01*
G01*
X24164181Y-10691526D01*
G75*
G02*
X24111633Y-10644212I-2617J49931D01*
G01*
G37*
G36*
G01*
X24891016Y-9752199D02*
X25140673Y-9739115D01*
G75*
G02*
X25272044Y-9857402I6542J-124829D01*
G01*
X25295595Y-10306786D01*
G75*
G02*
X25177308Y-10438157I-124829J-6542D01*
G01*
X24927651Y-10451241D01*
G75*
G02*
X24796280Y-10332954I-6542J124829D01*
G01*
X24772729Y-9883570D01*
G75*
G02*
X24891016Y-9752199I124829J6542D01*
G01*
G37*
G36*
G01*
X24110324Y-10619246D02*
X24092006Y-10269725D01*
G75*
G02*
X24257607Y-10085806I174760J9159D01*
G01*
X25206305Y-10036087D01*
G75*
G02*
X25390224Y-10201688I9159J-174760D01*
G01*
X25408542Y-10551209D01*
G75*
G02*
X25242941Y-10735128I-174760J-9159D01*
G01*
X24294243Y-10784847D01*
G75*
G02*
X24110324Y-10619246I-9159J174760D01*
G01*
G37*
G36*
G01*
X24856785Y-10054405D02*
X25206306Y-10036087D01*
G75*
G02*
X25390225Y-10201688I9159J-174760D01*
G01*
X25439944Y-11150386D01*
G75*
G02*
X25274343Y-11334305I-174760J-9159D01*
G01*
X24924822Y-11352623D01*
G75*
G02*
X24740903Y-11187022I-9159J174760D01*
G01*
X24691184Y-10238324D01*
G75*
G02*
X24856785Y-10054405I174760J9159D01*
G01*
G37*
D18*
X25099794Y-10392150D03*
X24500617Y-10423551D03*
X25131196Y-10991327D03*
G04 #@! TD*
G04 #@! TO.C,J3*
G36*
G01*
X25449309Y-14132997D02*
X25049857Y-14153932D01*
G75*
G02*
X24997309Y-14106618I-2617J49931D01*
G01*
X24992075Y-14006755D01*
G75*
G02*
X25039389Y-13954207I49931J2617D01*
G01*
X25438841Y-13933272D01*
G75*
G02*
X25491389Y-13980586I2617J-49931D01*
G01*
X25496623Y-14080449D01*
G75*
G02*
X25449309Y-14132997I-49931J-2617D01*
G01*
G37*
G36*
G01*
X25420524Y-13583750D02*
X25021072Y-13604685D01*
G75*
G02*
X24968524Y-13557371I-2617J49931D01*
G01*
X24963290Y-13457508D01*
G75*
G02*
X25010604Y-13404960I49931J2617D01*
G01*
X25410056Y-13384025D01*
G75*
G02*
X25462604Y-13431339I2617J-49931D01*
G01*
X25467838Y-13531202D01*
G75*
G02*
X25420524Y-13583750I-49931J-2617D01*
G01*
G37*
G36*
G01*
X24261633Y-13444212D02*
X24240698Y-13044760D01*
G75*
G02*
X24288012Y-12992212I49931J2617D01*
G01*
X24387875Y-12986978D01*
G75*
G02*
X24440423Y-13034292I2617J-49931D01*
G01*
X24461358Y-13433744D01*
G75*
G02*
X24414044Y-13486292I-49931J-2617D01*
G01*
X24314181Y-13491526D01*
G75*
G02*
X24261633Y-13444212I-2617J49931D01*
G01*
G37*
G36*
G01*
X25041016Y-12552199D02*
X25290673Y-12539115D01*
G75*
G02*
X25422044Y-12657402I6542J-124829D01*
G01*
X25445595Y-13106786D01*
G75*
G02*
X25327308Y-13238157I-124829J-6542D01*
G01*
X25077651Y-13251241D01*
G75*
G02*
X24946280Y-13132954I-6542J124829D01*
G01*
X24922729Y-12683570D01*
G75*
G02*
X25041016Y-12552199I124829J6542D01*
G01*
G37*
G36*
G01*
X24260324Y-13419246D02*
X24242006Y-13069725D01*
G75*
G02*
X24407607Y-12885806I174760J9159D01*
G01*
X25356305Y-12836087D01*
G75*
G02*
X25540224Y-13001688I9159J-174760D01*
G01*
X25558542Y-13351209D01*
G75*
G02*
X25392941Y-13535128I-174760J-9159D01*
G01*
X24444243Y-13584847D01*
G75*
G02*
X24260324Y-13419246I-9159J174760D01*
G01*
G37*
G36*
G01*
X25006785Y-12854405D02*
X25356306Y-12836087D01*
G75*
G02*
X25540225Y-13001688I9159J-174760D01*
G01*
X25589944Y-13950386D01*
G75*
G02*
X25424343Y-14134305I-174760J-9159D01*
G01*
X25074822Y-14152623D01*
G75*
G02*
X24890903Y-13987022I-9159J174760D01*
G01*
X24841184Y-13038324D01*
G75*
G02*
X25006785Y-12854405I174760J9159D01*
G01*
G37*
X25249794Y-13192150D03*
X24650617Y-13223551D03*
X25281196Y-13791327D03*
G04 #@! TD*
G04 #@! TO.C,J6*
G36*
G01*
X3759302Y-13044760D02*
X3738367Y-13444212D01*
G75*
G02*
X3685819Y-13491526I-49931J2617D01*
G01*
X3585956Y-13486292D01*
G75*
G02*
X3538642Y-13433744I2617J49931D01*
G01*
X3559577Y-13034292D01*
G75*
G02*
X3612125Y-12986978I49931J-2617D01*
G01*
X3711988Y-12992212D01*
G75*
G02*
X3759302Y-13044760I-2617J-49931D01*
G01*
G37*
G36*
G01*
X2950143Y-14153932D02*
X2550691Y-14132997D01*
G75*
G02*
X2503377Y-14080449I2617J49931D01*
G01*
X2508611Y-13980586D01*
G75*
G02*
X2561159Y-13933272I49931J-2617D01*
G01*
X2960611Y-13954207D01*
G75*
G02*
X3007925Y-14006755I-2617J-49931D01*
G01*
X3002691Y-14106618D01*
G75*
G02*
X2950143Y-14153932I-49931J2617D01*
G01*
G37*
X2718804Y-13791327D03*
X3349383Y-13223551D03*
X2750206Y-13192150D03*
G36*
G01*
X2925178Y-14152623D02*
X2575657Y-14134305D01*
G75*
G02*
X2410056Y-13950386I9159J174760D01*
G01*
X2459775Y-13001688D01*
G75*
G02*
X2643694Y-12836087I174760J-9159D01*
G01*
X2993215Y-12854405D01*
G75*
G02*
X3158816Y-13038324I-9159J-174760D01*
G01*
X3109097Y-13987022D01*
G75*
G02*
X2925178Y-14152623I-174760J9159D01*
G01*
G37*
G36*
G01*
X2441458Y-13351209D02*
X2459776Y-13001688D01*
G75*
G02*
X2643695Y-12836087I174760J-9159D01*
G01*
X3592393Y-12885806D01*
G75*
G02*
X3757994Y-13069725I-9159J-174760D01*
G01*
X3739676Y-13419246D01*
G75*
G02*
X3555757Y-13584847I-174760J9159D01*
G01*
X2607059Y-13535128D01*
G75*
G02*
X2441458Y-13351209I9159J174760D01*
G01*
G37*
G04 #@! TD*
G04 #@! TO.C,J5*
G36*
G01*
X3909302Y-10244760D02*
X3888367Y-10644212D01*
G75*
G02*
X3835819Y-10691526I-49931J2617D01*
G01*
X3735956Y-10686292D01*
G75*
G02*
X3688642Y-10633744I2617J49931D01*
G01*
X3709577Y-10234292D01*
G75*
G02*
X3762125Y-10186978I49931J-2617D01*
G01*
X3861988Y-10192212D01*
G75*
G02*
X3909302Y-10244760I-2617J-49931D01*
G01*
G37*
G36*
G01*
X3100143Y-11353932D02*
X2700691Y-11332997D01*
G75*
G02*
X2653377Y-11280449I2617J49931D01*
G01*
X2658611Y-11180586D01*
G75*
G02*
X2711159Y-11133272I49931J-2617D01*
G01*
X3110611Y-11154207D01*
G75*
G02*
X3157925Y-11206755I-2617J-49931D01*
G01*
X3152691Y-11306618D01*
G75*
G02*
X3100143Y-11353932I-49931J2617D01*
G01*
G37*
X2868804Y-10991327D03*
X3499383Y-10423551D03*
X2900206Y-10392150D03*
G36*
G01*
X3075178Y-11352623D02*
X2725657Y-11334305D01*
G75*
G02*
X2560056Y-11150386I9159J174760D01*
G01*
X2609775Y-10201688D01*
G75*
G02*
X2793694Y-10036087I174760J-9159D01*
G01*
X3143215Y-10054405D01*
G75*
G02*
X3308816Y-10238324I-9159J-174760D01*
G01*
X3259097Y-11187022D01*
G75*
G02*
X3075178Y-11352623I-174760J9159D01*
G01*
G37*
G36*
G01*
X2591458Y-10551209D02*
X2609776Y-10201688D01*
G75*
G02*
X2793695Y-10036087I174760J-9159D01*
G01*
X3742393Y-10085806D01*
G75*
G02*
X3907994Y-10269725I-9159J-174760D01*
G01*
X3889676Y-10619246D01*
G75*
G02*
X3705757Y-10784847I-174760J9159D01*
G01*
X2757059Y-10735128D01*
G75*
G02*
X2591458Y-10551209I9159J174760D01*
G01*
G37*
G04 #@! TD*
D16*
G04 #@! TO.C,J1*
X14000000Y-21700000D03*
D20*
X14000000Y-26300000D03*
D18*
X15100000Y-28400000D03*
X12900000Y-28400000D03*
X12900000Y-24200000D03*
X12900000Y-26300000D03*
X15100000Y-26300000D03*
X15100000Y-24200000D03*
D21*
X14000000Y-27800000D03*
X14000000Y-24800000D03*
G04 #@! TD*
D13*
G04 #@! TO.C,J7*
X16000000Y-3900000D03*
D14*
X18300000Y-6200000D03*
D13*
X20600000Y-3900000D03*
G36*
G01*
X17975000Y-2650000D02*
X18625000Y-2650000D01*
G75*
G02*
X18800000Y-2825000I0J-175000D01*
G01*
X18800000Y-3175000D01*
G75*
G02*
X18625000Y-3350000I-175000J0D01*
G01*
X17975000Y-3350000D01*
G75*
G02*
X17800000Y-3175000I0J175000D01*
G01*
X17800000Y-2825000D01*
G75*
G02*
X17975000Y-2650000I175000J0D01*
G01*
G37*
G36*
G01*
X17750000Y-3575000D02*
X17750000Y-4225000D01*
G75*
G02*
X17575000Y-4400000I-175000J0D01*
G01*
X17225000Y-4400000D01*
G75*
G02*
X17050000Y-4225000I0J175000D01*
G01*
X17050000Y-3575000D01*
G75*
G02*
X17225000Y-3400000I175000J0D01*
G01*
X17575000Y-3400000D01*
G75*
G02*
X17750000Y-3575000I0J-175000D01*
G01*
G37*
G36*
G01*
X17975000Y-4450000D02*
X18625000Y-4450000D01*
G75*
G02*
X18800000Y-4625000I0J-175000D01*
G01*
X18800000Y-4975000D01*
G75*
G02*
X18625000Y-5150000I-175000J0D01*
G01*
X17975000Y-5150000D01*
G75*
G02*
X17800000Y-4975000I0J175000D01*
G01*
X17800000Y-4625000D01*
G75*
G02*
X17975000Y-4450000I175000J0D01*
G01*
G37*
D14*
X18300000Y-1600000D03*
G36*
G01*
X19550000Y-3575000D02*
X19550000Y-4225000D01*
G75*
G02*
X19375000Y-4400000I-175000J0D01*
G01*
X19025000Y-4400000D01*
G75*
G02*
X18850000Y-4225000I0J175000D01*
G01*
X18850000Y-3575000D01*
G75*
G02*
X19025000Y-3400000I175000J0D01*
G01*
X19375000Y-3400000D01*
G75*
G02*
X19550000Y-3575000I0J-175000D01*
G01*
G37*
D15*
X16100000Y-1700000D03*
X16100000Y-6100000D03*
X20500000Y-6100000D03*
X20500000Y-1700000D03*
D16*
X18300000Y-3900000D03*
G04 #@! TD*
G04 #@! TO.C,R23*
G36*
G01*
X22550000Y-9456250D02*
X22550000Y-8943750D01*
G75*
G02*
X22768750Y-8725000I218750J0D01*
G01*
X23206250Y-8725000D01*
G75*
G02*
X23425000Y-8943750I0J-218750D01*
G01*
X23425000Y-9456250D01*
G75*
G02*
X23206250Y-9675000I-218750J0D01*
G01*
X22768750Y-9675000D01*
G75*
G02*
X22550000Y-9456250I0J218750D01*
G01*
G37*
G36*
G01*
X20975000Y-9456250D02*
X20975000Y-8943750D01*
G75*
G02*
X21193750Y-8725000I218750J0D01*
G01*
X21631250Y-8725000D01*
G75*
G02*
X21850000Y-8943750I0J-218750D01*
G01*
X21850000Y-9456250D01*
G75*
G02*
X21631250Y-9675000I-218750J0D01*
G01*
X21193750Y-9675000D01*
G75*
G02*
X20975000Y-9456250I0J218750D01*
G01*
G37*
G04 #@! TD*
G04 #@! TO.C,R11*
G36*
G01*
X5450000Y-11943750D02*
X5450000Y-12456250D01*
G75*
G02*
X5231250Y-12675000I-218750J0D01*
G01*
X4793750Y-12675000D01*
G75*
G02*
X4575000Y-12456250I0J218750D01*
G01*
X4575000Y-11943750D01*
G75*
G02*
X4793750Y-11725000I218750J0D01*
G01*
X5231250Y-11725000D01*
G75*
G02*
X5450000Y-11943750I0J-218750D01*
G01*
G37*
G36*
G01*
X7025000Y-11943750D02*
X7025000Y-12456250D01*
G75*
G02*
X6806250Y-12675000I-218750J0D01*
G01*
X6368750Y-12675000D01*
G75*
G02*
X6150000Y-12456250I0J218750D01*
G01*
X6150000Y-11943750D01*
G75*
G02*
X6368750Y-11725000I218750J0D01*
G01*
X6806250Y-11725000D01*
G75*
G02*
X7025000Y-11943750I0J-218750D01*
G01*
G37*
G04 #@! TD*
G04 #@! TO.C,L9*
G36*
G01*
X9943750Y-32750000D02*
X10456250Y-32750000D01*
G75*
G02*
X10675000Y-32968750I0J-218750D01*
G01*
X10675000Y-33406250D01*
G75*
G02*
X10456250Y-33625000I-218750J0D01*
G01*
X9943750Y-33625000D01*
G75*
G02*
X9725000Y-33406250I0J218750D01*
G01*
X9725000Y-32968750D01*
G75*
G02*
X9943750Y-32750000I218750J0D01*
G01*
G37*
G36*
G01*
X9943750Y-31175000D02*
X10456250Y-31175000D01*
G75*
G02*
X10675000Y-31393750I0J-218750D01*
G01*
X10675000Y-31831250D01*
G75*
G02*
X10456250Y-32050000I-218750J0D01*
G01*
X9943750Y-32050000D01*
G75*
G02*
X9725000Y-31831250I0J218750D01*
G01*
X9725000Y-31393750D01*
G75*
G02*
X9943750Y-31175000I218750J0D01*
G01*
G37*
G04 #@! TD*
D12*
G04 #@! TO.C,D5*
X3400000Y-6200000D03*
X5400000Y-5250000D03*
X5400000Y-7150000D03*
G04 #@! TD*
G04 #@! TO.C,D4*
X24600000Y-6100000D03*
X22600000Y-7050000D03*
X22600000Y-5150000D03*
G04 #@! TD*
G04 #@! TO.C,C11*
G36*
G01*
X6150000Y-10956250D02*
X6150000Y-10443750D01*
G75*
G02*
X6368750Y-10225000I218750J0D01*
G01*
X6806250Y-10225000D01*
G75*
G02*
X7025000Y-10443750I0J-218750D01*
G01*
X7025000Y-10956250D01*
G75*
G02*
X6806250Y-11175000I-218750J0D01*
G01*
X6368750Y-11175000D01*
G75*
G02*
X6150000Y-10956250I0J218750D01*
G01*
G37*
G36*
G01*
X4575000Y-10956250D02*
X4575000Y-10443750D01*
G75*
G02*
X4793750Y-10225000I218750J0D01*
G01*
X5231250Y-10225000D01*
G75*
G02*
X5450000Y-10443750I0J-218750D01*
G01*
X5450000Y-10956250D01*
G75*
G02*
X5231250Y-11175000I-218750J0D01*
G01*
X4793750Y-11175000D01*
G75*
G02*
X4575000Y-10956250I0J218750D01*
G01*
G37*
G04 #@! TD*
G04 #@! TO.C,C1*
G36*
G01*
X22550000Y-10956250D02*
X22550000Y-10443750D01*
G75*
G02*
X22768750Y-10225000I218750J0D01*
G01*
X23206250Y-10225000D01*
G75*
G02*
X23425000Y-10443750I0J-218750D01*
G01*
X23425000Y-10956250D01*
G75*
G02*
X23206250Y-11175000I-218750J0D01*
G01*
X22768750Y-11175000D01*
G75*
G02*
X22550000Y-10956250I0J218750D01*
G01*
G37*
G36*
G01*
X20975000Y-10956250D02*
X20975000Y-10443750D01*
G75*
G02*
X21193750Y-10225000I218750J0D01*
G01*
X21631250Y-10225000D01*
G75*
G02*
X21850000Y-10443750I0J-218750D01*
G01*
X21850000Y-10956250D01*
G75*
G02*
X21631250Y-11175000I-218750J0D01*
G01*
X21193750Y-11175000D01*
G75*
G02*
X20975000Y-10956250I0J218750D01*
G01*
G37*
G04 #@! TD*
G04 #@! TO.C,R8*
G36*
G01*
X23350000Y-33843750D02*
X23350000Y-34356250D01*
G75*
G02*
X23131250Y-34575000I-218750J0D01*
G01*
X22693750Y-34575000D01*
G75*
G02*
X22475000Y-34356250I0J218750D01*
G01*
X22475000Y-33843750D01*
G75*
G02*
X22693750Y-33625000I218750J0D01*
G01*
X23131250Y-33625000D01*
G75*
G02*
X23350000Y-33843750I0J-218750D01*
G01*
G37*
G36*
G01*
X24925000Y-33843750D02*
X24925000Y-34356250D01*
G75*
G02*
X24706250Y-34575000I-218750J0D01*
G01*
X24268750Y-34575000D01*
G75*
G02*
X24050000Y-34356250I0J218750D01*
G01*
X24050000Y-33843750D01*
G75*
G02*
X24268750Y-33625000I218750J0D01*
G01*
X24706250Y-33625000D01*
G75*
G02*
X24925000Y-33843750I0J-218750D01*
G01*
G37*
G04 #@! TD*
G04 #@! TO.C,D3*
G36*
G01*
X24050000Y-35856250D02*
X24050000Y-35343750D01*
G75*
G02*
X24268750Y-35125000I218750J0D01*
G01*
X24706250Y-35125000D01*
G75*
G02*
X24925000Y-35343750I0J-218750D01*
G01*
X24925000Y-35856250D01*
G75*
G02*
X24706250Y-36075000I-218750J0D01*
G01*
X24268750Y-36075000D01*
G75*
G02*
X24050000Y-35856250I0J218750D01*
G01*
G37*
G36*
G01*
X22475000Y-35856250D02*
X22475000Y-35343750D01*
G75*
G02*
X22693750Y-35125000I218750J0D01*
G01*
X23131250Y-35125000D01*
G75*
G02*
X23350000Y-35343750I0J-218750D01*
G01*
X23350000Y-35856250D01*
G75*
G02*
X23131250Y-36075000I-218750J0D01*
G01*
X22693750Y-36075000D01*
G75*
G02*
X22475000Y-35856250I0J218750D01*
G01*
G37*
G04 #@! TD*
G04 #@! TO.C,R7*
G36*
G01*
X16343750Y-21950000D02*
X16856250Y-21950000D01*
G75*
G02*
X17075000Y-22168750I0J-218750D01*
G01*
X17075000Y-22606250D01*
G75*
G02*
X16856250Y-22825000I-218750J0D01*
G01*
X16343750Y-22825000D01*
G75*
G02*
X16125000Y-22606250I0J218750D01*
G01*
X16125000Y-22168750D01*
G75*
G02*
X16343750Y-21950000I218750J0D01*
G01*
G37*
G36*
G01*
X16343750Y-20375000D02*
X16856250Y-20375000D01*
G75*
G02*
X17075000Y-20593750I0J-218750D01*
G01*
X17075000Y-21031250D01*
G75*
G02*
X16856250Y-21250000I-218750J0D01*
G01*
X16343750Y-21250000D01*
G75*
G02*
X16125000Y-21031250I0J218750D01*
G01*
X16125000Y-20593750D01*
G75*
G02*
X16343750Y-20375000I218750J0D01*
G01*
G37*
G04 #@! TD*
G04 #@! TO.C,C10*
G36*
G01*
X25756250Y-23250000D02*
X25243750Y-23250000D01*
G75*
G02*
X25025000Y-23031250I0J218750D01*
G01*
X25025000Y-22593750D01*
G75*
G02*
X25243750Y-22375000I218750J0D01*
G01*
X25756250Y-22375000D01*
G75*
G02*
X25975000Y-22593750I0J-218750D01*
G01*
X25975000Y-23031250D01*
G75*
G02*
X25756250Y-23250000I-218750J0D01*
G01*
G37*
G36*
G01*
X25756250Y-24825000D02*
X25243750Y-24825000D01*
G75*
G02*
X25025000Y-24606250I0J218750D01*
G01*
X25025000Y-24168750D01*
G75*
G02*
X25243750Y-23950000I218750J0D01*
G01*
X25756250Y-23950000D01*
G75*
G02*
X25975000Y-24168750I0J-218750D01*
G01*
X25975000Y-24606250D01*
G75*
G02*
X25756250Y-24825000I-218750J0D01*
G01*
G37*
G04 #@! TD*
D22*
G04 #@! TO.C,H1*
X19400000Y-34700000D03*
G04 #@! TD*
D23*
G04 #@! TO.C,SW1*
X19150000Y-17500000D03*
X8850000Y-17500000D03*
X19150000Y-14900000D03*
X8850000Y-14900000D03*
G04 #@! TD*
G04 #@! TO.C,R12*
G36*
G01*
X22200000Y-13443750D02*
X22200000Y-13956250D01*
G75*
G02*
X21981250Y-14175000I-218750J0D01*
G01*
X21543750Y-14175000D01*
G75*
G02*
X21325000Y-13956250I0J218750D01*
G01*
X21325000Y-13443750D01*
G75*
G02*
X21543750Y-13225000I218750J0D01*
G01*
X21981250Y-13225000D01*
G75*
G02*
X22200000Y-13443750I0J-218750D01*
G01*
G37*
G36*
G01*
X23775000Y-13443750D02*
X23775000Y-13956250D01*
G75*
G02*
X23556250Y-14175000I-218750J0D01*
G01*
X23118750Y-14175000D01*
G75*
G02*
X22900000Y-13956250I0J218750D01*
G01*
X22900000Y-13443750D01*
G75*
G02*
X23118750Y-13225000I218750J0D01*
G01*
X23556250Y-13225000D01*
G75*
G02*
X23775000Y-13443750I0J-218750D01*
G01*
G37*
G04 #@! TD*
G04 #@! TO.C,L8*
G36*
G01*
X3606250Y-21400000D02*
X3093750Y-21400000D01*
G75*
G02*
X2875000Y-21181250I0J218750D01*
G01*
X2875000Y-20743750D01*
G75*
G02*
X3093750Y-20525000I218750J0D01*
G01*
X3606250Y-20525000D01*
G75*
G02*
X3825000Y-20743750I0J-218750D01*
G01*
X3825000Y-21181250D01*
G75*
G02*
X3606250Y-21400000I-218750J0D01*
G01*
G37*
G36*
G01*
X3606250Y-22975000D02*
X3093750Y-22975000D01*
G75*
G02*
X2875000Y-22756250I0J218750D01*
G01*
X2875000Y-22318750D01*
G75*
G02*
X3093750Y-22100000I218750J0D01*
G01*
X3606250Y-22100000D01*
G75*
G02*
X3825000Y-22318750I0J-218750D01*
G01*
X3825000Y-22756250D01*
G75*
G02*
X3606250Y-22975000I-218750J0D01*
G01*
G37*
G04 #@! TD*
G04 #@! TO.C,L7*
G36*
G01*
X11106250Y-21400000D02*
X10593750Y-21400000D01*
G75*
G02*
X10375000Y-21181250I0J218750D01*
G01*
X10375000Y-20743750D01*
G75*
G02*
X10593750Y-20525000I218750J0D01*
G01*
X11106250Y-20525000D01*
G75*
G02*
X11325000Y-20743750I0J-218750D01*
G01*
X11325000Y-21181250D01*
G75*
G02*
X11106250Y-21400000I-218750J0D01*
G01*
G37*
G36*
G01*
X11106250Y-22975000D02*
X10593750Y-22975000D01*
G75*
G02*
X10375000Y-22756250I0J218750D01*
G01*
X10375000Y-22318750D01*
G75*
G02*
X10593750Y-22100000I218750J0D01*
G01*
X11106250Y-22100000D01*
G75*
G02*
X11325000Y-22318750I0J-218750D01*
G01*
X11325000Y-22756250D01*
G75*
G02*
X11106250Y-22975000I-218750J0D01*
G01*
G37*
G04 #@! TD*
G04 #@! TO.C,L1*
G36*
G01*
X10456250Y-35062500D02*
X9943750Y-35062500D01*
G75*
G02*
X9725000Y-34843750I0J218750D01*
G01*
X9725000Y-34406250D01*
G75*
G02*
X9943750Y-34187500I218750J0D01*
G01*
X10456250Y-34187500D01*
G75*
G02*
X10675000Y-34406250I0J-218750D01*
G01*
X10675000Y-34843750D01*
G75*
G02*
X10456250Y-35062500I-218750J0D01*
G01*
G37*
G36*
G01*
X10456250Y-36637500D02*
X9943750Y-36637500D01*
G75*
G02*
X9725000Y-36418750I0J218750D01*
G01*
X9725000Y-35981250D01*
G75*
G02*
X9943750Y-35762500I218750J0D01*
G01*
X10456250Y-35762500D01*
G75*
G02*
X10675000Y-35981250I0J-218750D01*
G01*
X10675000Y-36418750D01*
G75*
G02*
X10456250Y-36637500I-218750J0D01*
G01*
G37*
G04 #@! TD*
G04 #@! TO.C,R15*
G36*
G01*
X5450000Y-8993750D02*
X5450000Y-9506250D01*
G75*
G02*
X5231250Y-9725000I-218750J0D01*
G01*
X4793750Y-9725000D01*
G75*
G02*
X4575000Y-9506250I0J218750D01*
G01*
X4575000Y-8993750D01*
G75*
G02*
X4793750Y-8775000I218750J0D01*
G01*
X5231250Y-8775000D01*
G75*
G02*
X5450000Y-8993750I0J-218750D01*
G01*
G37*
G36*
G01*
X7025000Y-8993750D02*
X7025000Y-9506250D01*
G75*
G02*
X6806250Y-9725000I-218750J0D01*
G01*
X6368750Y-9725000D01*
G75*
G02*
X6150000Y-9506250I0J218750D01*
G01*
X6150000Y-8993750D01*
G75*
G02*
X6368750Y-8775000I218750J0D01*
G01*
X6806250Y-8775000D01*
G75*
G02*
X7025000Y-8993750I0J-218750D01*
G01*
G37*
G04 #@! TD*
G04 #@! TO.C,C26*
G36*
G01*
X7650000Y-33043750D02*
X7650000Y-33556250D01*
G75*
G02*
X7431250Y-33775000I-218750J0D01*
G01*
X6993750Y-33775000D01*
G75*
G02*
X6775000Y-33556250I0J218750D01*
G01*
X6775000Y-33043750D01*
G75*
G02*
X6993750Y-32825000I218750J0D01*
G01*
X7431250Y-32825000D01*
G75*
G02*
X7650000Y-33043750I0J-218750D01*
G01*
G37*
G36*
G01*
X9225000Y-33043750D02*
X9225000Y-33556250D01*
G75*
G02*
X9006250Y-33775000I-218750J0D01*
G01*
X8568750Y-33775000D01*
G75*
G02*
X8350000Y-33556250I0J218750D01*
G01*
X8350000Y-33043750D01*
G75*
G02*
X8568750Y-32825000I218750J0D01*
G01*
X9006250Y-32825000D01*
G75*
G02*
X9225000Y-33043750I0J-218750D01*
G01*
G37*
G04 #@! TD*
D24*
G04 #@! TO.C,D2*
X10800000Y-24300000D03*
X10800000Y-25700000D03*
G04 #@! TD*
G04 #@! TO.C,D1*
X3400000Y-25700000D03*
X3400000Y-24300000D03*
G04 #@! TD*
D25*
G04 #@! TO.C,U4*
X22525000Y-30400000D03*
X21875000Y-30400000D03*
D26*
X21225000Y-30600000D03*
X20575000Y-30600000D03*
X20575000Y-27100000D03*
D25*
X21225000Y-27300000D03*
D26*
X21875000Y-27100000D03*
X22525000Y-27100000D03*
D27*
X21550000Y-28850000D03*
D28*
X20925000Y-29300000D03*
X20925000Y-28400000D03*
X22175000Y-29300000D03*
X22175000Y-28400000D03*
D26*
X22525000Y-30600000D03*
X21875000Y-30600000D03*
D25*
X21225000Y-30400000D03*
X20575000Y-30400000D03*
X20575000Y-27300000D03*
D26*
X21225000Y-27100000D03*
D25*
X21875000Y-27300000D03*
X22525000Y-27300000D03*
G04 #@! TD*
D29*
G04 #@! TO.C,U3*
X12450000Y-9575000D03*
X12450000Y-10225000D03*
D30*
X12650000Y-10875000D03*
X12650000Y-11525000D03*
X9150000Y-11525000D03*
D29*
X9350000Y-10875000D03*
D30*
X9150000Y-10225000D03*
X9150000Y-9575000D03*
D31*
X10900000Y-10550000D03*
D32*
X11350000Y-11175000D03*
X10450000Y-11175000D03*
X11350000Y-9925000D03*
X10450000Y-9925000D03*
D30*
X12650000Y-9575000D03*
X12650000Y-10225000D03*
D29*
X12450000Y-10875000D03*
X12450000Y-11525000D03*
X9350000Y-11525000D03*
D30*
X9150000Y-10875000D03*
D29*
X9350000Y-10225000D03*
X9350000Y-9575000D03*
G04 #@! TD*
G04 #@! TO.C,U2*
X15550000Y-11575000D03*
X15550000Y-10925000D03*
D30*
X15350000Y-10275000D03*
X15350000Y-9625000D03*
X18850000Y-9625000D03*
D29*
X18650000Y-10275000D03*
D30*
X18850000Y-10925000D03*
X18850000Y-11575000D03*
D31*
X17100000Y-10600000D03*
D32*
X16650000Y-9975000D03*
X17550000Y-9975000D03*
X16650000Y-11225000D03*
X17550000Y-11225000D03*
D30*
X15350000Y-11575000D03*
X15350000Y-10925000D03*
D29*
X15550000Y-10275000D03*
X15550000Y-9625000D03*
X18650000Y-9625000D03*
D30*
X18850000Y-10275000D03*
D29*
X18650000Y-10925000D03*
X18650000Y-11575000D03*
G04 #@! TD*
D33*
G04 #@! TO.C,U1*
X6900000Y-28900000D03*
D34*
X8150000Y-30350000D03*
X7650000Y-30350000D03*
X7150000Y-30350000D03*
X6650000Y-30350000D03*
X6150000Y-30350000D03*
X5650000Y-30350000D03*
X5650000Y-27450000D03*
X6150000Y-27450000D03*
X6650000Y-27450000D03*
X7150000Y-27450000D03*
X7650000Y-27450000D03*
X8150000Y-27450000D03*
G04 #@! TD*
D35*
G04 #@! TO.C,RV2*
X22900000Y-24050000D03*
D36*
X21900000Y-20800000D03*
X23900000Y-20800000D03*
G04 #@! TD*
D35*
G04 #@! TO.C,RV1*
X19200000Y-24050000D03*
D36*
X18200000Y-20800000D03*
X20200000Y-20800000D03*
G04 #@! TD*
G04 #@! TO.C,R22*
G36*
G01*
X20250000Y-31956250D02*
X20250000Y-31443750D01*
G75*
G02*
X20468750Y-31225000I218750J0D01*
G01*
X20906250Y-31225000D01*
G75*
G02*
X21125000Y-31443750I0J-218750D01*
G01*
X21125000Y-31956250D01*
G75*
G02*
X20906250Y-32175000I-218750J0D01*
G01*
X20468750Y-32175000D01*
G75*
G02*
X20250000Y-31956250I0J218750D01*
G01*
G37*
G36*
G01*
X18675000Y-31956250D02*
X18675000Y-31443750D01*
G75*
G02*
X18893750Y-31225000I218750J0D01*
G01*
X19331250Y-31225000D01*
G75*
G02*
X19550000Y-31443750I0J-218750D01*
G01*
X19550000Y-31956250D01*
G75*
G02*
X19331250Y-32175000I-218750J0D01*
G01*
X18893750Y-32175000D01*
G75*
G02*
X18675000Y-31956250I0J218750D01*
G01*
G37*
G04 #@! TD*
G04 #@! TO.C,R21*
G36*
G01*
X23843750Y-28400000D02*
X24356250Y-28400000D01*
G75*
G02*
X24575000Y-28618750I0J-218750D01*
G01*
X24575000Y-29056250D01*
G75*
G02*
X24356250Y-29275000I-218750J0D01*
G01*
X23843750Y-29275000D01*
G75*
G02*
X23625000Y-29056250I0J218750D01*
G01*
X23625000Y-28618750D01*
G75*
G02*
X23843750Y-28400000I218750J0D01*
G01*
G37*
G36*
G01*
X23843750Y-26825000D02*
X24356250Y-26825000D01*
G75*
G02*
X24575000Y-27043750I0J-218750D01*
G01*
X24575000Y-27481250D01*
G75*
G02*
X24356250Y-27700000I-218750J0D01*
G01*
X23843750Y-27700000D01*
G75*
G02*
X23625000Y-27481250I0J218750D01*
G01*
X23625000Y-27043750D01*
G75*
G02*
X23843750Y-26825000I218750J0D01*
G01*
G37*
G04 #@! TD*
G04 #@! TO.C,R20*
G36*
G01*
X17850000Y-25543750D02*
X17850000Y-26056250D01*
G75*
G02*
X17631250Y-26275000I-218750J0D01*
G01*
X17193750Y-26275000D01*
G75*
G02*
X16975000Y-26056250I0J218750D01*
G01*
X16975000Y-25543750D01*
G75*
G02*
X17193750Y-25325000I218750J0D01*
G01*
X17631250Y-25325000D01*
G75*
G02*
X17850000Y-25543750I0J-218750D01*
G01*
G37*
G36*
G01*
X19425000Y-25543750D02*
X19425000Y-26056250D01*
G75*
G02*
X19206250Y-26275000I-218750J0D01*
G01*
X18768750Y-26275000D01*
G75*
G02*
X18550000Y-26056250I0J218750D01*
G01*
X18550000Y-25543750D01*
G75*
G02*
X18768750Y-25325000I218750J0D01*
G01*
X19206250Y-25325000D01*
G75*
G02*
X19425000Y-25543750I0J-218750D01*
G01*
G37*
G04 #@! TD*
G04 #@! TO.C,R19*
G36*
G01*
X23850000Y-25543750D02*
X23850000Y-26056250D01*
G75*
G02*
X23631250Y-26275000I-218750J0D01*
G01*
X23193750Y-26275000D01*
G75*
G02*
X22975000Y-26056250I0J218750D01*
G01*
X22975000Y-25543750D01*
G75*
G02*
X23193750Y-25325000I218750J0D01*
G01*
X23631250Y-25325000D01*
G75*
G02*
X23850000Y-25543750I0J-218750D01*
G01*
G37*
G36*
G01*
X25425000Y-25543750D02*
X25425000Y-26056250D01*
G75*
G02*
X25206250Y-26275000I-218750J0D01*
G01*
X24768750Y-26275000D01*
G75*
G02*
X24550000Y-26056250I0J218750D01*
G01*
X24550000Y-25543750D01*
G75*
G02*
X24768750Y-25325000I218750J0D01*
G01*
X25206250Y-25325000D01*
G75*
G02*
X25425000Y-25543750I0J-218750D01*
G01*
G37*
G04 #@! TD*
G04 #@! TO.C,R18*
G36*
G01*
X20850000Y-25543750D02*
X20850000Y-26056250D01*
G75*
G02*
X20631250Y-26275000I-218750J0D01*
G01*
X20193750Y-26275000D01*
G75*
G02*
X19975000Y-26056250I0J218750D01*
G01*
X19975000Y-25543750D01*
G75*
G02*
X20193750Y-25325000I218750J0D01*
G01*
X20631250Y-25325000D01*
G75*
G02*
X20850000Y-25543750I0J-218750D01*
G01*
G37*
G36*
G01*
X22425000Y-25543750D02*
X22425000Y-26056250D01*
G75*
G02*
X22206250Y-26275000I-218750J0D01*
G01*
X21768750Y-26275000D01*
G75*
G02*
X21550000Y-26056250I0J218750D01*
G01*
X21550000Y-25543750D01*
G75*
G02*
X21768750Y-25325000I218750J0D01*
G01*
X22206250Y-25325000D01*
G75*
G02*
X22425000Y-25543750I0J-218750D01*
G01*
G37*
G04 #@! TD*
G04 #@! TO.C,R17*
G36*
G01*
X7743750Y-11350000D02*
X8256250Y-11350000D01*
G75*
G02*
X8475000Y-11568750I0J-218750D01*
G01*
X8475000Y-12006250D01*
G75*
G02*
X8256250Y-12225000I-218750J0D01*
G01*
X7743750Y-12225000D01*
G75*
G02*
X7525000Y-12006250I0J218750D01*
G01*
X7525000Y-11568750D01*
G75*
G02*
X7743750Y-11350000I218750J0D01*
G01*
G37*
G36*
G01*
X7743750Y-9775000D02*
X8256250Y-9775000D01*
G75*
G02*
X8475000Y-9993750I0J-218750D01*
G01*
X8475000Y-10431250D01*
G75*
G02*
X8256250Y-10650000I-218750J0D01*
G01*
X7743750Y-10650000D01*
G75*
G02*
X7525000Y-10431250I0J218750D01*
G01*
X7525000Y-9993750D01*
G75*
G02*
X7743750Y-9775000I218750J0D01*
G01*
G37*
G04 #@! TD*
G04 #@! TO.C,R16*
G36*
G01*
X19693750Y-12450000D02*
X20206250Y-12450000D01*
G75*
G02*
X20425000Y-12668750I0J-218750D01*
G01*
X20425000Y-13106250D01*
G75*
G02*
X20206250Y-13325000I-218750J0D01*
G01*
X19693750Y-13325000D01*
G75*
G02*
X19475000Y-13106250I0J218750D01*
G01*
X19475000Y-12668750D01*
G75*
G02*
X19693750Y-12450000I218750J0D01*
G01*
G37*
G36*
G01*
X19693750Y-10875000D02*
X20206250Y-10875000D01*
G75*
G02*
X20425000Y-11093750I0J-218750D01*
G01*
X20425000Y-11531250D01*
G75*
G02*
X20206250Y-11750000I-218750J0D01*
G01*
X19693750Y-11750000D01*
G75*
G02*
X19475000Y-11531250I0J218750D01*
G01*
X19475000Y-11093750D01*
G75*
G02*
X19693750Y-10875000I218750J0D01*
G01*
G37*
G04 #@! TD*
G04 #@! TO.C,R14*
G36*
G01*
X21850000Y-11943750D02*
X21850000Y-12456250D01*
G75*
G02*
X21631250Y-12675000I-218750J0D01*
G01*
X21193750Y-12675000D01*
G75*
G02*
X20975000Y-12456250I0J218750D01*
G01*
X20975000Y-11943750D01*
G75*
G02*
X21193750Y-11725000I218750J0D01*
G01*
X21631250Y-11725000D01*
G75*
G02*
X21850000Y-11943750I0J-218750D01*
G01*
G37*
G36*
G01*
X23425000Y-11943750D02*
X23425000Y-12456250D01*
G75*
G02*
X23206250Y-12675000I-218750J0D01*
G01*
X22768750Y-12675000D01*
G75*
G02*
X22550000Y-12456250I0J218750D01*
G01*
X22550000Y-11943750D01*
G75*
G02*
X22768750Y-11725000I218750J0D01*
G01*
X23206250Y-11725000D01*
G75*
G02*
X23425000Y-11943750I0J-218750D01*
G01*
G37*
G04 #@! TD*
G04 #@! TO.C,R13*
G36*
G01*
X5800000Y-13956250D02*
X5800000Y-13443750D01*
G75*
G02*
X6018750Y-13225000I218750J0D01*
G01*
X6456250Y-13225000D01*
G75*
G02*
X6675000Y-13443750I0J-218750D01*
G01*
X6675000Y-13956250D01*
G75*
G02*
X6456250Y-14175000I-218750J0D01*
G01*
X6018750Y-14175000D01*
G75*
G02*
X5800000Y-13956250I0J218750D01*
G01*
G37*
G36*
G01*
X4225000Y-13956250D02*
X4225000Y-13443750D01*
G75*
G02*
X4443750Y-13225000I218750J0D01*
G01*
X4881250Y-13225000D01*
G75*
G02*
X5100000Y-13443750I0J-218750D01*
G01*
X5100000Y-13956250D01*
G75*
G02*
X4881250Y-14175000I-218750J0D01*
G01*
X4443750Y-14175000D01*
G75*
G02*
X4225000Y-13956250I0J218750D01*
G01*
G37*
G04 #@! TD*
G04 #@! TO.C,R10*
G36*
G01*
X5250000Y-3956250D02*
X5250000Y-3443750D01*
G75*
G02*
X5468750Y-3225000I218750J0D01*
G01*
X5906250Y-3225000D01*
G75*
G02*
X6125000Y-3443750I0J-218750D01*
G01*
X6125000Y-3956250D01*
G75*
G02*
X5906250Y-4175000I-218750J0D01*
G01*
X5468750Y-4175000D01*
G75*
G02*
X5250000Y-3956250I0J218750D01*
G01*
G37*
G36*
G01*
X3675000Y-3956250D02*
X3675000Y-3443750D01*
G75*
G02*
X3893750Y-3225000I218750J0D01*
G01*
X4331250Y-3225000D01*
G75*
G02*
X4550000Y-3443750I0J-218750D01*
G01*
X4550000Y-3956250D01*
G75*
G02*
X4331250Y-4175000I-218750J0D01*
G01*
X3893750Y-4175000D01*
G75*
G02*
X3675000Y-3956250I0J218750D01*
G01*
G37*
G04 #@! TD*
G04 #@! TO.C,R9*
G36*
G01*
X22750000Y-3343750D02*
X22750000Y-3856250D01*
G75*
G02*
X22531250Y-4075000I-218750J0D01*
G01*
X22093750Y-4075000D01*
G75*
G02*
X21875000Y-3856250I0J218750D01*
G01*
X21875000Y-3343750D01*
G75*
G02*
X22093750Y-3125000I218750J0D01*
G01*
X22531250Y-3125000D01*
G75*
G02*
X22750000Y-3343750I0J-218750D01*
G01*
G37*
G36*
G01*
X24325000Y-3343750D02*
X24325000Y-3856250D01*
G75*
G02*
X24106250Y-4075000I-218750J0D01*
G01*
X23668750Y-4075000D01*
G75*
G02*
X23450000Y-3856250I0J218750D01*
G01*
X23450000Y-3343750D01*
G75*
G02*
X23668750Y-3125000I218750J0D01*
G01*
X24106250Y-3125000D01*
G75*
G02*
X24325000Y-3343750I0J-218750D01*
G01*
G37*
G04 #@! TD*
G04 #@! TO.C,R6*
G36*
G01*
X6056250Y-32250000D02*
X5543750Y-32250000D01*
G75*
G02*
X5325000Y-32031250I0J218750D01*
G01*
X5325000Y-31593750D01*
G75*
G02*
X5543750Y-31375000I218750J0D01*
G01*
X6056250Y-31375000D01*
G75*
G02*
X6275000Y-31593750I0J-218750D01*
G01*
X6275000Y-32031250D01*
G75*
G02*
X6056250Y-32250000I-218750J0D01*
G01*
G37*
G36*
G01*
X6056250Y-33825000D02*
X5543750Y-33825000D01*
G75*
G02*
X5325000Y-33606250I0J218750D01*
G01*
X5325000Y-33168750D01*
G75*
G02*
X5543750Y-32950000I218750J0D01*
G01*
X6056250Y-32950000D01*
G75*
G02*
X6275000Y-33168750I0J-218750D01*
G01*
X6275000Y-33606250D01*
G75*
G02*
X6056250Y-33825000I-218750J0D01*
G01*
G37*
G04 #@! TD*
G04 #@! TO.C,R3*
G36*
G01*
X3250000Y-31256250D02*
X3250000Y-30743750D01*
G75*
G02*
X3468750Y-30525000I218750J0D01*
G01*
X3906250Y-30525000D01*
G75*
G02*
X4125000Y-30743750I0J-218750D01*
G01*
X4125000Y-31256250D01*
G75*
G02*
X3906250Y-31475000I-218750J0D01*
G01*
X3468750Y-31475000D01*
G75*
G02*
X3250000Y-31256250I0J218750D01*
G01*
G37*
G36*
G01*
X1675000Y-31256250D02*
X1675000Y-30743750D01*
G75*
G02*
X1893750Y-30525000I218750J0D01*
G01*
X2331250Y-30525000D01*
G75*
G02*
X2550000Y-30743750I0J-218750D01*
G01*
X2550000Y-31256250D01*
G75*
G02*
X2331250Y-31475000I-218750J0D01*
G01*
X1893750Y-31475000D01*
G75*
G02*
X1675000Y-31256250I0J218750D01*
G01*
G37*
G04 #@! TD*
G04 #@! TO.C,R2*
G36*
G01*
X5350000Y-35056250D02*
X5350000Y-34543750D01*
G75*
G02*
X5568750Y-34325000I218750J0D01*
G01*
X6006250Y-34325000D01*
G75*
G02*
X6225000Y-34543750I0J-218750D01*
G01*
X6225000Y-35056250D01*
G75*
G02*
X6006250Y-35275000I-218750J0D01*
G01*
X5568750Y-35275000D01*
G75*
G02*
X5350000Y-35056250I0J218750D01*
G01*
G37*
G36*
G01*
X3775000Y-35056250D02*
X3775000Y-34543750D01*
G75*
G02*
X3993750Y-34325000I218750J0D01*
G01*
X4431250Y-34325000D01*
G75*
G02*
X4650000Y-34543750I0J-218750D01*
G01*
X4650000Y-35056250D01*
G75*
G02*
X4431250Y-35275000I-218750J0D01*
G01*
X3993750Y-35275000D01*
G75*
G02*
X3775000Y-35056250I0J218750D01*
G01*
G37*
G04 #@! TD*
G04 #@! TO.C,R1*
G36*
G01*
X2243750Y-35100000D02*
X2756250Y-35100000D01*
G75*
G02*
X2975000Y-35318750I0J-218750D01*
G01*
X2975000Y-35756250D01*
G75*
G02*
X2756250Y-35975000I-218750J0D01*
G01*
X2243750Y-35975000D01*
G75*
G02*
X2025000Y-35756250I0J218750D01*
G01*
X2025000Y-35318750D01*
G75*
G02*
X2243750Y-35100000I218750J0D01*
G01*
G37*
G36*
G01*
X2243750Y-33525000D02*
X2756250Y-33525000D01*
G75*
G02*
X2975000Y-33743750I0J-218750D01*
G01*
X2975000Y-34181250D01*
G75*
G02*
X2756250Y-34400000I-218750J0D01*
G01*
X2243750Y-34400000D01*
G75*
G02*
X2025000Y-34181250I0J218750D01*
G01*
X2025000Y-33743750D01*
G75*
G02*
X2243750Y-33525000I218750J0D01*
G01*
G37*
G04 #@! TD*
G04 #@! TO.C,L6*
G36*
G01*
X5250000Y-23743750D02*
X5250000Y-24256250D01*
G75*
G02*
X5031250Y-24475000I-218750J0D01*
G01*
X4593750Y-24475000D01*
G75*
G02*
X4375000Y-24256250I0J218750D01*
G01*
X4375000Y-23743750D01*
G75*
G02*
X4593750Y-23525000I218750J0D01*
G01*
X5031250Y-23525000D01*
G75*
G02*
X5250000Y-23743750I0J-218750D01*
G01*
G37*
G36*
G01*
X6825000Y-23743750D02*
X6825000Y-24256250D01*
G75*
G02*
X6606250Y-24475000I-218750J0D01*
G01*
X6168750Y-24475000D01*
G75*
G02*
X5950000Y-24256250I0J218750D01*
G01*
X5950000Y-23743750D01*
G75*
G02*
X6168750Y-23525000I218750J0D01*
G01*
X6606250Y-23525000D01*
G75*
G02*
X6825000Y-23743750I0J-218750D01*
G01*
G37*
G04 #@! TD*
G04 #@! TO.C,L5*
G36*
G01*
X8950000Y-24256250D02*
X8950000Y-23743750D01*
G75*
G02*
X9168750Y-23525000I218750J0D01*
G01*
X9606250Y-23525000D01*
G75*
G02*
X9825000Y-23743750I0J-218750D01*
G01*
X9825000Y-24256250D01*
G75*
G02*
X9606250Y-24475000I-218750J0D01*
G01*
X9168750Y-24475000D01*
G75*
G02*
X8950000Y-24256250I0J218750D01*
G01*
G37*
G36*
G01*
X7375000Y-24256250D02*
X7375000Y-23743750D01*
G75*
G02*
X7593750Y-23525000I218750J0D01*
G01*
X8031250Y-23525000D01*
G75*
G02*
X8250000Y-23743750I0J-218750D01*
G01*
X8250000Y-24256250D01*
G75*
G02*
X8031250Y-24475000I-218750J0D01*
G01*
X7593750Y-24475000D01*
G75*
G02*
X7375000Y-24256250I0J218750D01*
G01*
G37*
G04 #@! TD*
G04 #@! TO.C,L2*
G36*
G01*
X8350000Y-35056250D02*
X8350000Y-34543750D01*
G75*
G02*
X8568750Y-34325000I218750J0D01*
G01*
X9006250Y-34325000D01*
G75*
G02*
X9225000Y-34543750I0J-218750D01*
G01*
X9225000Y-35056250D01*
G75*
G02*
X9006250Y-35275000I-218750J0D01*
G01*
X8568750Y-35275000D01*
G75*
G02*
X8350000Y-35056250I0J218750D01*
G01*
G37*
G36*
G01*
X6775000Y-35056250D02*
X6775000Y-34543750D01*
G75*
G02*
X6993750Y-34325000I218750J0D01*
G01*
X7431250Y-34325000D01*
G75*
G02*
X7650000Y-34543750I0J-218750D01*
G01*
X7650000Y-35056250D01*
G75*
G02*
X7431250Y-35275000I-218750J0D01*
G01*
X6993750Y-35275000D01*
G75*
G02*
X6775000Y-35056250I0J218750D01*
G01*
G37*
G04 #@! TD*
G04 #@! TO.C,C25*
G36*
G01*
X24500000Y-30043750D02*
X24500000Y-30556250D01*
G75*
G02*
X24281250Y-30775000I-218750J0D01*
G01*
X23843750Y-30775000D01*
G75*
G02*
X23625000Y-30556250I0J218750D01*
G01*
X23625000Y-30043750D01*
G75*
G02*
X23843750Y-29825000I218750J0D01*
G01*
X24281250Y-29825000D01*
G75*
G02*
X24500000Y-30043750I0J-218750D01*
G01*
G37*
G36*
G01*
X26075000Y-30043750D02*
X26075000Y-30556250D01*
G75*
G02*
X25856250Y-30775000I-218750J0D01*
G01*
X25418750Y-30775000D01*
G75*
G02*
X25200000Y-30556250I0J218750D01*
G01*
X25200000Y-30043750D01*
G75*
G02*
X25418750Y-29825000I218750J0D01*
G01*
X25856250Y-29825000D01*
G75*
G02*
X26075000Y-30043750I0J-218750D01*
G01*
G37*
G04 #@! TD*
G04 #@! TO.C,C24*
G36*
G01*
X25200000Y-32006250D02*
X25200000Y-31493750D01*
G75*
G02*
X25418750Y-31275000I218750J0D01*
G01*
X25856250Y-31275000D01*
G75*
G02*
X26075000Y-31493750I0J-218750D01*
G01*
X26075000Y-32006250D01*
G75*
G02*
X25856250Y-32225000I-218750J0D01*
G01*
X25418750Y-32225000D01*
G75*
G02*
X25200000Y-32006250I0J218750D01*
G01*
G37*
G36*
G01*
X23625000Y-32006250D02*
X23625000Y-31493750D01*
G75*
G02*
X23843750Y-31275000I218750J0D01*
G01*
X24281250Y-31275000D01*
G75*
G02*
X24500000Y-31493750I0J-218750D01*
G01*
X24500000Y-32006250D01*
G75*
G02*
X24281250Y-32225000I-218750J0D01*
G01*
X23843750Y-32225000D01*
G75*
G02*
X23625000Y-32006250I0J218750D01*
G01*
G37*
G04 #@! TD*
G04 #@! TO.C,C23*
G36*
G01*
X19683750Y-9280000D02*
X20196250Y-9280000D01*
G75*
G02*
X20415000Y-9498750I0J-218750D01*
G01*
X20415000Y-9936250D01*
G75*
G02*
X20196250Y-10155000I-218750J0D01*
G01*
X19683750Y-10155000D01*
G75*
G02*
X19465000Y-9936250I0J218750D01*
G01*
X19465000Y-9498750D01*
G75*
G02*
X19683750Y-9280000I218750J0D01*
G01*
G37*
G36*
G01*
X19683750Y-7705000D02*
X20196250Y-7705000D01*
G75*
G02*
X20415000Y-7923750I0J-218750D01*
G01*
X20415000Y-8361250D01*
G75*
G02*
X20196250Y-8580000I-218750J0D01*
G01*
X19683750Y-8580000D01*
G75*
G02*
X19465000Y-8361250I0J218750D01*
G01*
X19465000Y-7923750D01*
G75*
G02*
X19683750Y-7705000I218750J0D01*
G01*
G37*
G04 #@! TD*
G04 #@! TO.C,C19*
G36*
G01*
X25856250Y-27700000D02*
X25343750Y-27700000D01*
G75*
G02*
X25125000Y-27481250I0J218750D01*
G01*
X25125000Y-27043750D01*
G75*
G02*
X25343750Y-26825000I218750J0D01*
G01*
X25856250Y-26825000D01*
G75*
G02*
X26075000Y-27043750I0J-218750D01*
G01*
X26075000Y-27481250D01*
G75*
G02*
X25856250Y-27700000I-218750J0D01*
G01*
G37*
G36*
G01*
X25856250Y-29275000D02*
X25343750Y-29275000D01*
G75*
G02*
X25125000Y-29056250I0J218750D01*
G01*
X25125000Y-28618750D01*
G75*
G02*
X25343750Y-28400000I218750J0D01*
G01*
X25856250Y-28400000D01*
G75*
G02*
X26075000Y-28618750I0J-218750D01*
G01*
X26075000Y-29056250D01*
G75*
G02*
X25856250Y-29275000I-218750J0D01*
G01*
G37*
G04 #@! TD*
D37*
G04 #@! TO.C,C17*
X5100000Y-19275000D03*
X5100000Y-15125000D03*
G04 #@! TD*
G04 #@! TO.C,C16*
X22900000Y-19275000D03*
X22900000Y-15125000D03*
G04 #@! TD*
G04 #@! TO.C,C13*
G36*
G01*
X5950000Y-21256250D02*
X5950000Y-20743750D01*
G75*
G02*
X6168750Y-20525000I218750J0D01*
G01*
X6606250Y-20525000D01*
G75*
G02*
X6825000Y-20743750I0J-218750D01*
G01*
X6825000Y-21256250D01*
G75*
G02*
X6606250Y-21475000I-218750J0D01*
G01*
X6168750Y-21475000D01*
G75*
G02*
X5950000Y-21256250I0J218750D01*
G01*
G37*
G36*
G01*
X4375000Y-21256250D02*
X4375000Y-20743750D01*
G75*
G02*
X4593750Y-20525000I218750J0D01*
G01*
X5031250Y-20525000D01*
G75*
G02*
X5250000Y-20743750I0J-218750D01*
G01*
X5250000Y-21256250D01*
G75*
G02*
X5031250Y-21475000I-218750J0D01*
G01*
X4593750Y-21475000D01*
G75*
G02*
X4375000Y-21256250I0J218750D01*
G01*
G37*
G04 #@! TD*
G04 #@! TO.C,C12*
G36*
G01*
X8250000Y-20743750D02*
X8250000Y-21256250D01*
G75*
G02*
X8031250Y-21475000I-218750J0D01*
G01*
X7593750Y-21475000D01*
G75*
G02*
X7375000Y-21256250I0J218750D01*
G01*
X7375000Y-20743750D01*
G75*
G02*
X7593750Y-20525000I218750J0D01*
G01*
X8031250Y-20525000D01*
G75*
G02*
X8250000Y-20743750I0J-218750D01*
G01*
G37*
G36*
G01*
X9825000Y-20743750D02*
X9825000Y-21256250D01*
G75*
G02*
X9606250Y-21475000I-218750J0D01*
G01*
X9168750Y-21475000D01*
G75*
G02*
X8950000Y-21256250I0J218750D01*
G01*
X8950000Y-20743750D01*
G75*
G02*
X9168750Y-20525000I218750J0D01*
G01*
X9606250Y-20525000D01*
G75*
G02*
X9825000Y-20743750I0J-218750D01*
G01*
G37*
G04 #@! TD*
G04 #@! TO.C,C9*
G36*
G01*
X5950000Y-22756250D02*
X5950000Y-22243750D01*
G75*
G02*
X6168750Y-22025000I218750J0D01*
G01*
X6606250Y-22025000D01*
G75*
G02*
X6825000Y-22243750I0J-218750D01*
G01*
X6825000Y-22756250D01*
G75*
G02*
X6606250Y-22975000I-218750J0D01*
G01*
X6168750Y-22975000D01*
G75*
G02*
X5950000Y-22756250I0J218750D01*
G01*
G37*
G36*
G01*
X4375000Y-22756250D02*
X4375000Y-22243750D01*
G75*
G02*
X4593750Y-22025000I218750J0D01*
G01*
X5031250Y-22025000D01*
G75*
G02*
X5250000Y-22243750I0J-218750D01*
G01*
X5250000Y-22756250D01*
G75*
G02*
X5031250Y-22975000I-218750J0D01*
G01*
X4593750Y-22975000D01*
G75*
G02*
X4375000Y-22756250I0J218750D01*
G01*
G37*
G04 #@! TD*
G04 #@! TO.C,C8*
G36*
G01*
X8250000Y-22243750D02*
X8250000Y-22756250D01*
G75*
G02*
X8031250Y-22975000I-218750J0D01*
G01*
X7593750Y-22975000D01*
G75*
G02*
X7375000Y-22756250I0J218750D01*
G01*
X7375000Y-22243750D01*
G75*
G02*
X7593750Y-22025000I218750J0D01*
G01*
X8031250Y-22025000D01*
G75*
G02*
X8250000Y-22243750I0J-218750D01*
G01*
G37*
G36*
G01*
X9825000Y-22243750D02*
X9825000Y-22756250D01*
G75*
G02*
X9606250Y-22975000I-218750J0D01*
G01*
X9168750Y-22975000D01*
G75*
G02*
X8950000Y-22756250I0J218750D01*
G01*
X8950000Y-22243750D01*
G75*
G02*
X9168750Y-22025000I218750J0D01*
G01*
X9606250Y-22025000D01*
G75*
G02*
X9825000Y-22243750I0J-218750D01*
G01*
G37*
G04 #@! TD*
G04 #@! TO.C,C7*
G36*
G01*
X5950000Y-25756250D02*
X5950000Y-25243750D01*
G75*
G02*
X6168750Y-25025000I218750J0D01*
G01*
X6606250Y-25025000D01*
G75*
G02*
X6825000Y-25243750I0J-218750D01*
G01*
X6825000Y-25756250D01*
G75*
G02*
X6606250Y-25975000I-218750J0D01*
G01*
X6168750Y-25975000D01*
G75*
G02*
X5950000Y-25756250I0J218750D01*
G01*
G37*
G36*
G01*
X4375000Y-25756250D02*
X4375000Y-25243750D01*
G75*
G02*
X4593750Y-25025000I218750J0D01*
G01*
X5031250Y-25025000D01*
G75*
G02*
X5250000Y-25243750I0J-218750D01*
G01*
X5250000Y-25756250D01*
G75*
G02*
X5031250Y-25975000I-218750J0D01*
G01*
X4593750Y-25975000D01*
G75*
G02*
X4375000Y-25756250I0J218750D01*
G01*
G37*
G04 #@! TD*
G04 #@! TO.C,C6*
G36*
G01*
X8250000Y-25243750D02*
X8250000Y-25756250D01*
G75*
G02*
X8031250Y-25975000I-218750J0D01*
G01*
X7593750Y-25975000D01*
G75*
G02*
X7375000Y-25756250I0J218750D01*
G01*
X7375000Y-25243750D01*
G75*
G02*
X7593750Y-25025000I218750J0D01*
G01*
X8031250Y-25025000D01*
G75*
G02*
X8250000Y-25243750I0J-218750D01*
G01*
G37*
G36*
G01*
X9825000Y-25243750D02*
X9825000Y-25756250D01*
G75*
G02*
X9606250Y-25975000I-218750J0D01*
G01*
X9168750Y-25975000D01*
G75*
G02*
X8950000Y-25756250I0J218750D01*
G01*
X8950000Y-25243750D01*
G75*
G02*
X9168750Y-25025000I218750J0D01*
G01*
X9606250Y-25025000D01*
G75*
G02*
X9825000Y-25243750I0J-218750D01*
G01*
G37*
G04 #@! TD*
G04 #@! TO.C,C5*
G36*
G01*
X3250000Y-32756250D02*
X3250000Y-32243750D01*
G75*
G02*
X3468750Y-32025000I218750J0D01*
G01*
X3906250Y-32025000D01*
G75*
G02*
X4125000Y-32243750I0J-218750D01*
G01*
X4125000Y-32756250D01*
G75*
G02*
X3906250Y-32975000I-218750J0D01*
G01*
X3468750Y-32975000D01*
G75*
G02*
X3250000Y-32756250I0J218750D01*
G01*
G37*
G36*
G01*
X1675000Y-32756250D02*
X1675000Y-32243750D01*
G75*
G02*
X1893750Y-32025000I218750J0D01*
G01*
X2331250Y-32025000D01*
G75*
G02*
X2550000Y-32243750I0J-218750D01*
G01*
X2550000Y-32756250D01*
G75*
G02*
X2331250Y-32975000I-218750J0D01*
G01*
X1893750Y-32975000D01*
G75*
G02*
X1675000Y-32756250I0J218750D01*
G01*
G37*
G04 #@! TD*
G04 #@! TO.C,C4*
G36*
G01*
X5350000Y-36556250D02*
X5350000Y-36043750D01*
G75*
G02*
X5568750Y-35825000I218750J0D01*
G01*
X6006250Y-35825000D01*
G75*
G02*
X6225000Y-36043750I0J-218750D01*
G01*
X6225000Y-36556250D01*
G75*
G02*
X6006250Y-36775000I-218750J0D01*
G01*
X5568750Y-36775000D01*
G75*
G02*
X5350000Y-36556250I0J218750D01*
G01*
G37*
G36*
G01*
X3775000Y-36556250D02*
X3775000Y-36043750D01*
G75*
G02*
X3993750Y-35825000I218750J0D01*
G01*
X4431250Y-35825000D01*
G75*
G02*
X4650000Y-36043750I0J-218750D01*
G01*
X4650000Y-36556250D01*
G75*
G02*
X4431250Y-36775000I-218750J0D01*
G01*
X3993750Y-36775000D01*
G75*
G02*
X3775000Y-36556250I0J218750D01*
G01*
G37*
G04 #@! TD*
G04 #@! TO.C,C3*
G36*
G01*
X7650000Y-31543750D02*
X7650000Y-32056250D01*
G75*
G02*
X7431250Y-32275000I-218750J0D01*
G01*
X6993750Y-32275000D01*
G75*
G02*
X6775000Y-32056250I0J218750D01*
G01*
X6775000Y-31543750D01*
G75*
G02*
X6993750Y-31325000I218750J0D01*
G01*
X7431250Y-31325000D01*
G75*
G02*
X7650000Y-31543750I0J-218750D01*
G01*
G37*
G36*
G01*
X9225000Y-31543750D02*
X9225000Y-32056250D01*
G75*
G02*
X9006250Y-32275000I-218750J0D01*
G01*
X8568750Y-32275000D01*
G75*
G02*
X8350000Y-32056250I0J218750D01*
G01*
X8350000Y-31543750D01*
G75*
G02*
X8568750Y-31325000I218750J0D01*
G01*
X9006250Y-31325000D01*
G75*
G02*
X9225000Y-31543750I0J-218750D01*
G01*
G37*
G04 #@! TD*
G04 #@! TO.C,C2*
G36*
G01*
X7650000Y-36043750D02*
X7650000Y-36556250D01*
G75*
G02*
X7431250Y-36775000I-218750J0D01*
G01*
X6993750Y-36775000D01*
G75*
G02*
X6775000Y-36556250I0J218750D01*
G01*
X6775000Y-36043750D01*
G75*
G02*
X6993750Y-35825000I218750J0D01*
G01*
X7431250Y-35825000D01*
G75*
G02*
X7650000Y-36043750I0J-218750D01*
G01*
G37*
G36*
G01*
X9225000Y-36043750D02*
X9225000Y-36556250D01*
G75*
G02*
X9006250Y-36775000I-218750J0D01*
G01*
X8568750Y-36775000D01*
G75*
G02*
X8350000Y-36556250I0J218750D01*
G01*
X8350000Y-36043750D01*
G75*
G02*
X8568750Y-35825000I218750J0D01*
G01*
X9006250Y-35825000D01*
G75*
G02*
X9225000Y-36043750I0J-218750D01*
G01*
G37*
G04 #@! TD*
M02*
