M48
METRIC
T1C0.250
T2C0.300
T3C2.300
T4C1.500
%
G90
G05
T1
X4.95Y-6.65
X4.95Y-7.65
X5.7Y-7.15
X6.45Y-6.65
X6.45Y-7.65
X20.15Y-6.7
X20.15Y-7.7
X20.35Y-27.6
X20.35Y-29.1
X20.85Y-28.35
X20.9Y-7.2
X21.35Y-27.6
X21.35Y-29.1
X21.65Y-6.7
X21.65Y-7.7
T2
X2.719Y-13.791
X2.75Y-13.192
X2.869Y-11.141
X2.9Y-10.542
X3.349Y-13.224
X3.499Y-10.574
X5.0Y-31.0
X5.1Y-18.5
X5.2Y-27.125
X5.3Y-33.0
X5.5Y-20.5
X5.9Y-28.7
X5.9Y-29.5
X6.0Y-3.5
X6.6Y-1.6
X7.1Y-20.5
X7.1Y-23.4
X7.1Y-25.0
X7.1Y-28.7
X7.1Y-29.5
X8.3Y-28.7
X8.3Y-29.5
X8.644Y-24.956
X9.1Y-31.3
X9.6Y-34.4
X10.5Y-1.9
X11.0Y-31.2
X11.6Y-20.5
X12.5Y-31.2
X12.5Y-33.3
X12.5Y-35.4
X13.0Y-24.2
X13.0Y-26.3
X13.0Y-28.4
X15.2Y-24.2
X15.2Y-26.3
X15.2Y-28.4
X15.5Y-4.8
X15.7Y-31.2
X15.7Y-33.3
X15.7Y-35.4
X16.6Y-4.8
X17.5Y-2.0
X17.977Y-28.223
X18.7Y-30.9
X19.2Y-22.8
X20.3Y-2.875
X20.431Y-4.869
X21.5Y-21.5
X21.5Y-22.8
X21.7Y-19.4
X21.75Y-36.4
X22.2Y-31.9
X23.223Y-29.688
X23.5Y-5.7
X24.501Y-10.574
X24.6Y-29.3
X24.651Y-13.224
X24.888Y-34.788
X25.0Y-36.25
X25.1Y-10.542
X25.131Y-11.141
X25.25Y-13.192
X25.281Y-13.791
X25.6Y-26.4
T3
X19.4Y-34.7
T4
X14.0Y-2.35
X14.0Y-9.35
T0
M30
