G04 #@! TF.GenerationSoftware,KiCad,Pcbnew,5.1.5+dfsg1-2build2*
G04 #@! TF.CreationDate,2021-01-13T09:20:08+02:00*
G04 #@! TF.ProjectId,differential-tweezer,64696666-6572-4656-9e74-69616c2d7477,rev?*
G04 #@! TF.SameCoordinates,Original*
G04 #@! TF.FileFunction,Copper,L1,Top*
G04 #@! TF.FilePolarity,Positive*
%FSLAX46Y46*%
G04 Gerber Fmt 4.6, Leading zero omitted, Abs format (unit mm)*
G04 Created by KiCad (PCBNEW 5.1.5+dfsg1-2build2) date 2021-01-13 09:20:08*
%MOMM*%
%LPD*%
G04 APERTURE LIST*
%ADD10C,2.600000*%
%ADD11C,0.350000*%
%ADD12C,0.500000*%
%ADD13R,0.850000X1.000000*%
%ADD14O,3.000000X1.500000*%
%ADD15C,1.500000*%
%ADD16O,1.700000X1.700000*%
%ADD17C,1.700000*%
%ADD18R,1.500000X1.600000*%
%ADD19R,1.200000X1.200000*%
%ADD20R,1.060000X0.650000*%
%ADD21C,0.600000*%
%ADD22C,0.400000*%
%ADD23C,0.250000*%
%ADD24C,0.200000*%
%ADD25C,0.300000*%
%ADD26C,1.100000*%
%ADD27O,2.000000X0.750000*%
%ADD28C,0.350000*%
G04 APERTURE END LIST*
D10*
X21051188Y-8431946D02*
X24948812Y-8568054D01*
X21151188Y-25568054D02*
X25048812Y-25431946D01*
G04 #@! TA.AperFunction,SMDPad,CuDef*
D11*
G36*
X12275958Y-9799855D02*
G01*
X12325691Y-8300680D01*
X15324042Y-8400145D01*
X15274309Y-9899320D01*
X12275958Y-9799855D01*
G37*
G04 #@! TD.AperFunction*
G04 #@! TA.AperFunction,SMDPad,CuDef*
G36*
X12325691Y-25699320D02*
G01*
X12275958Y-24200145D01*
X15274309Y-24100680D01*
X15324042Y-25599855D01*
X12325691Y-25699320D01*
G37*
G04 #@! TD.AperFunction*
D12*
X33500000Y-22500000D03*
X18000000Y-7000000D03*
D13*
X25625000Y-13100000D03*
X29775000Y-13100000D03*
D14*
X35100000Y-18800000D03*
X35100000Y-15200000D03*
D15*
X32500000Y-17000000D03*
D14*
X36800000Y-12000000D03*
D16*
X29720000Y-17100000D03*
X27180000Y-17100000D03*
X24640000Y-17100000D03*
D17*
X22100000Y-17100000D03*
D18*
X9100000Y-15150000D03*
D19*
X12350000Y-14150000D03*
X12350000Y-16150000D03*
D18*
X9100000Y-18900000D03*
D19*
X12350000Y-17900000D03*
X12350000Y-19900000D03*
D18*
X28350000Y-21800000D03*
D19*
X25100000Y-22800000D03*
X25100000Y-20800000D03*
D20*
X18100000Y-11750000D03*
X18100000Y-13650000D03*
X15900000Y-13650000D03*
X15900000Y-12700000D03*
X15900000Y-11750000D03*
X19500000Y-16150000D03*
X19500000Y-18050000D03*
X17300000Y-18050000D03*
X17300000Y-17100000D03*
X17300000Y-16150000D03*
X18100000Y-20350000D03*
X18100000Y-22250000D03*
X15900000Y-22250000D03*
X15900000Y-21300000D03*
X15900000Y-20350000D03*
G04 #@! TA.AperFunction,SMDPad,CuDef*
D11*
G36*
X14527691Y-13351053D02*
G01*
X14548926Y-13354203D01*
X14569750Y-13359419D01*
X14589962Y-13366651D01*
X14609368Y-13375830D01*
X14627781Y-13386866D01*
X14645024Y-13399654D01*
X14660930Y-13414070D01*
X14675346Y-13429976D01*
X14688134Y-13447219D01*
X14699170Y-13465632D01*
X14708349Y-13485038D01*
X14715581Y-13505250D01*
X14720797Y-13526074D01*
X14723947Y-13547309D01*
X14725000Y-13568750D01*
X14725000Y-14006250D01*
X14723947Y-14027691D01*
X14720797Y-14048926D01*
X14715581Y-14069750D01*
X14708349Y-14089962D01*
X14699170Y-14109368D01*
X14688134Y-14127781D01*
X14675346Y-14145024D01*
X14660930Y-14160930D01*
X14645024Y-14175346D01*
X14627781Y-14188134D01*
X14609368Y-14199170D01*
X14589962Y-14208349D01*
X14569750Y-14215581D01*
X14548926Y-14220797D01*
X14527691Y-14223947D01*
X14506250Y-14225000D01*
X13993750Y-14225000D01*
X13972309Y-14223947D01*
X13951074Y-14220797D01*
X13930250Y-14215581D01*
X13910038Y-14208349D01*
X13890632Y-14199170D01*
X13872219Y-14188134D01*
X13854976Y-14175346D01*
X13839070Y-14160930D01*
X13824654Y-14145024D01*
X13811866Y-14127781D01*
X13800830Y-14109368D01*
X13791651Y-14089962D01*
X13784419Y-14069750D01*
X13779203Y-14048926D01*
X13776053Y-14027691D01*
X13775000Y-14006250D01*
X13775000Y-13568750D01*
X13776053Y-13547309D01*
X13779203Y-13526074D01*
X13784419Y-13505250D01*
X13791651Y-13485038D01*
X13800830Y-13465632D01*
X13811866Y-13447219D01*
X13824654Y-13429976D01*
X13839070Y-13414070D01*
X13854976Y-13399654D01*
X13872219Y-13386866D01*
X13890632Y-13375830D01*
X13910038Y-13366651D01*
X13930250Y-13359419D01*
X13951074Y-13354203D01*
X13972309Y-13351053D01*
X13993750Y-13350000D01*
X14506250Y-13350000D01*
X14527691Y-13351053D01*
G37*
G04 #@! TD.AperFunction*
G04 #@! TA.AperFunction,SMDPad,CuDef*
G36*
X14527691Y-11776053D02*
G01*
X14548926Y-11779203D01*
X14569750Y-11784419D01*
X14589962Y-11791651D01*
X14609368Y-11800830D01*
X14627781Y-11811866D01*
X14645024Y-11824654D01*
X14660930Y-11839070D01*
X14675346Y-11854976D01*
X14688134Y-11872219D01*
X14699170Y-11890632D01*
X14708349Y-11910038D01*
X14715581Y-11930250D01*
X14720797Y-11951074D01*
X14723947Y-11972309D01*
X14725000Y-11993750D01*
X14725000Y-12431250D01*
X14723947Y-12452691D01*
X14720797Y-12473926D01*
X14715581Y-12494750D01*
X14708349Y-12514962D01*
X14699170Y-12534368D01*
X14688134Y-12552781D01*
X14675346Y-12570024D01*
X14660930Y-12585930D01*
X14645024Y-12600346D01*
X14627781Y-12613134D01*
X14609368Y-12624170D01*
X14589962Y-12633349D01*
X14569750Y-12640581D01*
X14548926Y-12645797D01*
X14527691Y-12648947D01*
X14506250Y-12650000D01*
X13993750Y-12650000D01*
X13972309Y-12648947D01*
X13951074Y-12645797D01*
X13930250Y-12640581D01*
X13910038Y-12633349D01*
X13890632Y-12624170D01*
X13872219Y-12613134D01*
X13854976Y-12600346D01*
X13839070Y-12585930D01*
X13824654Y-12570024D01*
X13811866Y-12552781D01*
X13800830Y-12534368D01*
X13791651Y-12514962D01*
X13784419Y-12494750D01*
X13779203Y-12473926D01*
X13776053Y-12452691D01*
X13775000Y-12431250D01*
X13775000Y-11993750D01*
X13776053Y-11972309D01*
X13779203Y-11951074D01*
X13784419Y-11930250D01*
X13791651Y-11910038D01*
X13800830Y-11890632D01*
X13811866Y-11872219D01*
X13824654Y-11854976D01*
X13839070Y-11839070D01*
X13854976Y-11824654D01*
X13872219Y-11811866D01*
X13890632Y-11800830D01*
X13910038Y-11791651D01*
X13930250Y-11784419D01*
X13951074Y-11779203D01*
X13972309Y-11776053D01*
X13993750Y-11775000D01*
X14506250Y-11775000D01*
X14527691Y-11776053D01*
G37*
G04 #@! TD.AperFunction*
G04 #@! TA.AperFunction,SMDPad,CuDef*
G36*
X19852691Y-12576053D02*
G01*
X19873926Y-12579203D01*
X19894750Y-12584419D01*
X19914962Y-12591651D01*
X19934368Y-12600830D01*
X19952781Y-12611866D01*
X19970024Y-12624654D01*
X19985930Y-12639070D01*
X20000346Y-12654976D01*
X20013134Y-12672219D01*
X20024170Y-12690632D01*
X20033349Y-12710038D01*
X20040581Y-12730250D01*
X20045797Y-12751074D01*
X20048947Y-12772309D01*
X20050000Y-12793750D01*
X20050000Y-13306250D01*
X20048947Y-13327691D01*
X20045797Y-13348926D01*
X20040581Y-13369750D01*
X20033349Y-13389962D01*
X20024170Y-13409368D01*
X20013134Y-13427781D01*
X20000346Y-13445024D01*
X19985930Y-13460930D01*
X19970024Y-13475346D01*
X19952781Y-13488134D01*
X19934368Y-13499170D01*
X19914962Y-13508349D01*
X19894750Y-13515581D01*
X19873926Y-13520797D01*
X19852691Y-13523947D01*
X19831250Y-13525000D01*
X19393750Y-13525000D01*
X19372309Y-13523947D01*
X19351074Y-13520797D01*
X19330250Y-13515581D01*
X19310038Y-13508349D01*
X19290632Y-13499170D01*
X19272219Y-13488134D01*
X19254976Y-13475346D01*
X19239070Y-13460930D01*
X19224654Y-13445024D01*
X19211866Y-13427781D01*
X19200830Y-13409368D01*
X19191651Y-13389962D01*
X19184419Y-13369750D01*
X19179203Y-13348926D01*
X19176053Y-13327691D01*
X19175000Y-13306250D01*
X19175000Y-12793750D01*
X19176053Y-12772309D01*
X19179203Y-12751074D01*
X19184419Y-12730250D01*
X19191651Y-12710038D01*
X19200830Y-12690632D01*
X19211866Y-12672219D01*
X19224654Y-12654976D01*
X19239070Y-12639070D01*
X19254976Y-12624654D01*
X19272219Y-12611866D01*
X19290632Y-12600830D01*
X19310038Y-12591651D01*
X19330250Y-12584419D01*
X19351074Y-12579203D01*
X19372309Y-12576053D01*
X19393750Y-12575000D01*
X19831250Y-12575000D01*
X19852691Y-12576053D01*
G37*
G04 #@! TD.AperFunction*
G04 #@! TA.AperFunction,SMDPad,CuDef*
G36*
X21427691Y-12576053D02*
G01*
X21448926Y-12579203D01*
X21469750Y-12584419D01*
X21489962Y-12591651D01*
X21509368Y-12600830D01*
X21527781Y-12611866D01*
X21545024Y-12624654D01*
X21560930Y-12639070D01*
X21575346Y-12654976D01*
X21588134Y-12672219D01*
X21599170Y-12690632D01*
X21608349Y-12710038D01*
X21615581Y-12730250D01*
X21620797Y-12751074D01*
X21623947Y-12772309D01*
X21625000Y-12793750D01*
X21625000Y-13306250D01*
X21623947Y-13327691D01*
X21620797Y-13348926D01*
X21615581Y-13369750D01*
X21608349Y-13389962D01*
X21599170Y-13409368D01*
X21588134Y-13427781D01*
X21575346Y-13445024D01*
X21560930Y-13460930D01*
X21545024Y-13475346D01*
X21527781Y-13488134D01*
X21509368Y-13499170D01*
X21489962Y-13508349D01*
X21469750Y-13515581D01*
X21448926Y-13520797D01*
X21427691Y-13523947D01*
X21406250Y-13525000D01*
X20968750Y-13525000D01*
X20947309Y-13523947D01*
X20926074Y-13520797D01*
X20905250Y-13515581D01*
X20885038Y-13508349D01*
X20865632Y-13499170D01*
X20847219Y-13488134D01*
X20829976Y-13475346D01*
X20814070Y-13460930D01*
X20799654Y-13445024D01*
X20786866Y-13427781D01*
X20775830Y-13409368D01*
X20766651Y-13389962D01*
X20759419Y-13369750D01*
X20754203Y-13348926D01*
X20751053Y-13327691D01*
X20750000Y-13306250D01*
X20750000Y-12793750D01*
X20751053Y-12772309D01*
X20754203Y-12751074D01*
X20759419Y-12730250D01*
X20766651Y-12710038D01*
X20775830Y-12690632D01*
X20786866Y-12672219D01*
X20799654Y-12654976D01*
X20814070Y-12639070D01*
X20829976Y-12624654D01*
X20847219Y-12611866D01*
X20865632Y-12600830D01*
X20885038Y-12591651D01*
X20905250Y-12584419D01*
X20926074Y-12579203D01*
X20947309Y-12576053D01*
X20968750Y-12575000D01*
X21406250Y-12575000D01*
X21427691Y-12576053D01*
G37*
G04 #@! TD.AperFunction*
G04 #@! TA.AperFunction,SMDPad,CuDef*
G36*
X21427691Y-11076053D02*
G01*
X21448926Y-11079203D01*
X21469750Y-11084419D01*
X21489962Y-11091651D01*
X21509368Y-11100830D01*
X21527781Y-11111866D01*
X21545024Y-11124654D01*
X21560930Y-11139070D01*
X21575346Y-11154976D01*
X21588134Y-11172219D01*
X21599170Y-11190632D01*
X21608349Y-11210038D01*
X21615581Y-11230250D01*
X21620797Y-11251074D01*
X21623947Y-11272309D01*
X21625000Y-11293750D01*
X21625000Y-11806250D01*
X21623947Y-11827691D01*
X21620797Y-11848926D01*
X21615581Y-11869750D01*
X21608349Y-11889962D01*
X21599170Y-11909368D01*
X21588134Y-11927781D01*
X21575346Y-11945024D01*
X21560930Y-11960930D01*
X21545024Y-11975346D01*
X21527781Y-11988134D01*
X21509368Y-11999170D01*
X21489962Y-12008349D01*
X21469750Y-12015581D01*
X21448926Y-12020797D01*
X21427691Y-12023947D01*
X21406250Y-12025000D01*
X20968750Y-12025000D01*
X20947309Y-12023947D01*
X20926074Y-12020797D01*
X20905250Y-12015581D01*
X20885038Y-12008349D01*
X20865632Y-11999170D01*
X20847219Y-11988134D01*
X20829976Y-11975346D01*
X20814070Y-11960930D01*
X20799654Y-11945024D01*
X20786866Y-11927781D01*
X20775830Y-11909368D01*
X20766651Y-11889962D01*
X20759419Y-11869750D01*
X20754203Y-11848926D01*
X20751053Y-11827691D01*
X20750000Y-11806250D01*
X20750000Y-11293750D01*
X20751053Y-11272309D01*
X20754203Y-11251074D01*
X20759419Y-11230250D01*
X20766651Y-11210038D01*
X20775830Y-11190632D01*
X20786866Y-11172219D01*
X20799654Y-11154976D01*
X20814070Y-11139070D01*
X20829976Y-11124654D01*
X20847219Y-11111866D01*
X20865632Y-11100830D01*
X20885038Y-11091651D01*
X20905250Y-11084419D01*
X20926074Y-11079203D01*
X20947309Y-11076053D01*
X20968750Y-11075000D01*
X21406250Y-11075000D01*
X21427691Y-11076053D01*
G37*
G04 #@! TD.AperFunction*
G04 #@! TA.AperFunction,SMDPad,CuDef*
G36*
X19852691Y-11076053D02*
G01*
X19873926Y-11079203D01*
X19894750Y-11084419D01*
X19914962Y-11091651D01*
X19934368Y-11100830D01*
X19952781Y-11111866D01*
X19970024Y-11124654D01*
X19985930Y-11139070D01*
X20000346Y-11154976D01*
X20013134Y-11172219D01*
X20024170Y-11190632D01*
X20033349Y-11210038D01*
X20040581Y-11230250D01*
X20045797Y-11251074D01*
X20048947Y-11272309D01*
X20050000Y-11293750D01*
X20050000Y-11806250D01*
X20048947Y-11827691D01*
X20045797Y-11848926D01*
X20040581Y-11869750D01*
X20033349Y-11889962D01*
X20024170Y-11909368D01*
X20013134Y-11927781D01*
X20000346Y-11945024D01*
X19985930Y-11960930D01*
X19970024Y-11975346D01*
X19952781Y-11988134D01*
X19934368Y-11999170D01*
X19914962Y-12008349D01*
X19894750Y-12015581D01*
X19873926Y-12020797D01*
X19852691Y-12023947D01*
X19831250Y-12025000D01*
X19393750Y-12025000D01*
X19372309Y-12023947D01*
X19351074Y-12020797D01*
X19330250Y-12015581D01*
X19310038Y-12008349D01*
X19290632Y-11999170D01*
X19272219Y-11988134D01*
X19254976Y-11975346D01*
X19239070Y-11960930D01*
X19224654Y-11945024D01*
X19211866Y-11927781D01*
X19200830Y-11909368D01*
X19191651Y-11889962D01*
X19184419Y-11869750D01*
X19179203Y-11848926D01*
X19176053Y-11827691D01*
X19175000Y-11806250D01*
X19175000Y-11293750D01*
X19176053Y-11272309D01*
X19179203Y-11251074D01*
X19184419Y-11230250D01*
X19191651Y-11210038D01*
X19200830Y-11190632D01*
X19211866Y-11172219D01*
X19224654Y-11154976D01*
X19239070Y-11139070D01*
X19254976Y-11124654D01*
X19272219Y-11111866D01*
X19290632Y-11100830D01*
X19310038Y-11091651D01*
X19330250Y-11084419D01*
X19351074Y-11079203D01*
X19372309Y-11076053D01*
X19393750Y-11075000D01*
X19831250Y-11075000D01*
X19852691Y-11076053D01*
G37*
G04 #@! TD.AperFunction*
G04 #@! TA.AperFunction,SMDPad,CuDef*
G36*
X31677691Y-11776053D02*
G01*
X31698926Y-11779203D01*
X31719750Y-11784419D01*
X31739962Y-11791651D01*
X31759368Y-11800830D01*
X31777781Y-11811866D01*
X31795024Y-11824654D01*
X31810930Y-11839070D01*
X31825346Y-11854976D01*
X31838134Y-11872219D01*
X31849170Y-11890632D01*
X31858349Y-11910038D01*
X31865581Y-11930250D01*
X31870797Y-11951074D01*
X31873947Y-11972309D01*
X31875000Y-11993750D01*
X31875000Y-12431250D01*
X31873947Y-12452691D01*
X31870797Y-12473926D01*
X31865581Y-12494750D01*
X31858349Y-12514962D01*
X31849170Y-12534368D01*
X31838134Y-12552781D01*
X31825346Y-12570024D01*
X31810930Y-12585930D01*
X31795024Y-12600346D01*
X31777781Y-12613134D01*
X31759368Y-12624170D01*
X31739962Y-12633349D01*
X31719750Y-12640581D01*
X31698926Y-12645797D01*
X31677691Y-12648947D01*
X31656250Y-12650000D01*
X31143750Y-12650000D01*
X31122309Y-12648947D01*
X31101074Y-12645797D01*
X31080250Y-12640581D01*
X31060038Y-12633349D01*
X31040632Y-12624170D01*
X31022219Y-12613134D01*
X31004976Y-12600346D01*
X30989070Y-12585930D01*
X30974654Y-12570024D01*
X30961866Y-12552781D01*
X30950830Y-12534368D01*
X30941651Y-12514962D01*
X30934419Y-12494750D01*
X30929203Y-12473926D01*
X30926053Y-12452691D01*
X30925000Y-12431250D01*
X30925000Y-11993750D01*
X30926053Y-11972309D01*
X30929203Y-11951074D01*
X30934419Y-11930250D01*
X30941651Y-11910038D01*
X30950830Y-11890632D01*
X30961866Y-11872219D01*
X30974654Y-11854976D01*
X30989070Y-11839070D01*
X31004976Y-11824654D01*
X31022219Y-11811866D01*
X31040632Y-11800830D01*
X31060038Y-11791651D01*
X31080250Y-11784419D01*
X31101074Y-11779203D01*
X31122309Y-11776053D01*
X31143750Y-11775000D01*
X31656250Y-11775000D01*
X31677691Y-11776053D01*
G37*
G04 #@! TD.AperFunction*
G04 #@! TA.AperFunction,SMDPad,CuDef*
G36*
X31677691Y-13351053D02*
G01*
X31698926Y-13354203D01*
X31719750Y-13359419D01*
X31739962Y-13366651D01*
X31759368Y-13375830D01*
X31777781Y-13386866D01*
X31795024Y-13399654D01*
X31810930Y-13414070D01*
X31825346Y-13429976D01*
X31838134Y-13447219D01*
X31849170Y-13465632D01*
X31858349Y-13485038D01*
X31865581Y-13505250D01*
X31870797Y-13526074D01*
X31873947Y-13547309D01*
X31875000Y-13568750D01*
X31875000Y-14006250D01*
X31873947Y-14027691D01*
X31870797Y-14048926D01*
X31865581Y-14069750D01*
X31858349Y-14089962D01*
X31849170Y-14109368D01*
X31838134Y-14127781D01*
X31825346Y-14145024D01*
X31810930Y-14160930D01*
X31795024Y-14175346D01*
X31777781Y-14188134D01*
X31759368Y-14199170D01*
X31739962Y-14208349D01*
X31719750Y-14215581D01*
X31698926Y-14220797D01*
X31677691Y-14223947D01*
X31656250Y-14225000D01*
X31143750Y-14225000D01*
X31122309Y-14223947D01*
X31101074Y-14220797D01*
X31080250Y-14215581D01*
X31060038Y-14208349D01*
X31040632Y-14199170D01*
X31022219Y-14188134D01*
X31004976Y-14175346D01*
X30989070Y-14160930D01*
X30974654Y-14145024D01*
X30961866Y-14127781D01*
X30950830Y-14109368D01*
X30941651Y-14089962D01*
X30934419Y-14069750D01*
X30929203Y-14048926D01*
X30926053Y-14027691D01*
X30925000Y-14006250D01*
X30925000Y-13568750D01*
X30926053Y-13547309D01*
X30929203Y-13526074D01*
X30934419Y-13505250D01*
X30941651Y-13485038D01*
X30950830Y-13465632D01*
X30961866Y-13447219D01*
X30974654Y-13429976D01*
X30989070Y-13414070D01*
X31004976Y-13399654D01*
X31022219Y-13386866D01*
X31040632Y-13375830D01*
X31060038Y-13366651D01*
X31080250Y-13359419D01*
X31101074Y-13354203D01*
X31122309Y-13351053D01*
X31143750Y-13350000D01*
X31656250Y-13350000D01*
X31677691Y-13351053D01*
G37*
G04 #@! TD.AperFunction*
G04 #@! TA.AperFunction,SMDPad,CuDef*
G36*
X30577691Y-19776053D02*
G01*
X30598926Y-19779203D01*
X30619750Y-19784419D01*
X30639962Y-19791651D01*
X30659368Y-19800830D01*
X30677781Y-19811866D01*
X30695024Y-19824654D01*
X30710930Y-19839070D01*
X30725346Y-19854976D01*
X30738134Y-19872219D01*
X30749170Y-19890632D01*
X30758349Y-19910038D01*
X30765581Y-19930250D01*
X30770797Y-19951074D01*
X30773947Y-19972309D01*
X30775000Y-19993750D01*
X30775000Y-20431250D01*
X30773947Y-20452691D01*
X30770797Y-20473926D01*
X30765581Y-20494750D01*
X30758349Y-20514962D01*
X30749170Y-20534368D01*
X30738134Y-20552781D01*
X30725346Y-20570024D01*
X30710930Y-20585930D01*
X30695024Y-20600346D01*
X30677781Y-20613134D01*
X30659368Y-20624170D01*
X30639962Y-20633349D01*
X30619750Y-20640581D01*
X30598926Y-20645797D01*
X30577691Y-20648947D01*
X30556250Y-20650000D01*
X30043750Y-20650000D01*
X30022309Y-20648947D01*
X30001074Y-20645797D01*
X29980250Y-20640581D01*
X29960038Y-20633349D01*
X29940632Y-20624170D01*
X29922219Y-20613134D01*
X29904976Y-20600346D01*
X29889070Y-20585930D01*
X29874654Y-20570024D01*
X29861866Y-20552781D01*
X29850830Y-20534368D01*
X29841651Y-20514962D01*
X29834419Y-20494750D01*
X29829203Y-20473926D01*
X29826053Y-20452691D01*
X29825000Y-20431250D01*
X29825000Y-19993750D01*
X29826053Y-19972309D01*
X29829203Y-19951074D01*
X29834419Y-19930250D01*
X29841651Y-19910038D01*
X29850830Y-19890632D01*
X29861866Y-19872219D01*
X29874654Y-19854976D01*
X29889070Y-19839070D01*
X29904976Y-19824654D01*
X29922219Y-19811866D01*
X29940632Y-19800830D01*
X29960038Y-19791651D01*
X29980250Y-19784419D01*
X30001074Y-19779203D01*
X30022309Y-19776053D01*
X30043750Y-19775000D01*
X30556250Y-19775000D01*
X30577691Y-19776053D01*
G37*
G04 #@! TD.AperFunction*
G04 #@! TA.AperFunction,SMDPad,CuDef*
G36*
X30577691Y-21351053D02*
G01*
X30598926Y-21354203D01*
X30619750Y-21359419D01*
X30639962Y-21366651D01*
X30659368Y-21375830D01*
X30677781Y-21386866D01*
X30695024Y-21399654D01*
X30710930Y-21414070D01*
X30725346Y-21429976D01*
X30738134Y-21447219D01*
X30749170Y-21465632D01*
X30758349Y-21485038D01*
X30765581Y-21505250D01*
X30770797Y-21526074D01*
X30773947Y-21547309D01*
X30775000Y-21568750D01*
X30775000Y-22006250D01*
X30773947Y-22027691D01*
X30770797Y-22048926D01*
X30765581Y-22069750D01*
X30758349Y-22089962D01*
X30749170Y-22109368D01*
X30738134Y-22127781D01*
X30725346Y-22145024D01*
X30710930Y-22160930D01*
X30695024Y-22175346D01*
X30677781Y-22188134D01*
X30659368Y-22199170D01*
X30639962Y-22208349D01*
X30619750Y-22215581D01*
X30598926Y-22220797D01*
X30577691Y-22223947D01*
X30556250Y-22225000D01*
X30043750Y-22225000D01*
X30022309Y-22223947D01*
X30001074Y-22220797D01*
X29980250Y-22215581D01*
X29960038Y-22208349D01*
X29940632Y-22199170D01*
X29922219Y-22188134D01*
X29904976Y-22175346D01*
X29889070Y-22160930D01*
X29874654Y-22145024D01*
X29861866Y-22127781D01*
X29850830Y-22109368D01*
X29841651Y-22089962D01*
X29834419Y-22069750D01*
X29829203Y-22048926D01*
X29826053Y-22027691D01*
X29825000Y-22006250D01*
X29825000Y-21568750D01*
X29826053Y-21547309D01*
X29829203Y-21526074D01*
X29834419Y-21505250D01*
X29841651Y-21485038D01*
X29850830Y-21465632D01*
X29861866Y-21447219D01*
X29874654Y-21429976D01*
X29889070Y-21414070D01*
X29904976Y-21399654D01*
X29922219Y-21386866D01*
X29940632Y-21375830D01*
X29960038Y-21366651D01*
X29980250Y-21359419D01*
X30001074Y-21354203D01*
X30022309Y-21351053D01*
X30043750Y-21350000D01*
X30556250Y-21350000D01*
X30577691Y-21351053D01*
G37*
G04 #@! TD.AperFunction*
G04 #@! TA.AperFunction,SMDPad,CuDef*
G36*
X14477691Y-19776053D02*
G01*
X14498926Y-19779203D01*
X14519750Y-19784419D01*
X14539962Y-19791651D01*
X14559368Y-19800830D01*
X14577781Y-19811866D01*
X14595024Y-19824654D01*
X14610930Y-19839070D01*
X14625346Y-19854976D01*
X14638134Y-19872219D01*
X14649170Y-19890632D01*
X14658349Y-19910038D01*
X14665581Y-19930250D01*
X14670797Y-19951074D01*
X14673947Y-19972309D01*
X14675000Y-19993750D01*
X14675000Y-20431250D01*
X14673947Y-20452691D01*
X14670797Y-20473926D01*
X14665581Y-20494750D01*
X14658349Y-20514962D01*
X14649170Y-20534368D01*
X14638134Y-20552781D01*
X14625346Y-20570024D01*
X14610930Y-20585930D01*
X14595024Y-20600346D01*
X14577781Y-20613134D01*
X14559368Y-20624170D01*
X14539962Y-20633349D01*
X14519750Y-20640581D01*
X14498926Y-20645797D01*
X14477691Y-20648947D01*
X14456250Y-20650000D01*
X13943750Y-20650000D01*
X13922309Y-20648947D01*
X13901074Y-20645797D01*
X13880250Y-20640581D01*
X13860038Y-20633349D01*
X13840632Y-20624170D01*
X13822219Y-20613134D01*
X13804976Y-20600346D01*
X13789070Y-20585930D01*
X13774654Y-20570024D01*
X13761866Y-20552781D01*
X13750830Y-20534368D01*
X13741651Y-20514962D01*
X13734419Y-20494750D01*
X13729203Y-20473926D01*
X13726053Y-20452691D01*
X13725000Y-20431250D01*
X13725000Y-19993750D01*
X13726053Y-19972309D01*
X13729203Y-19951074D01*
X13734419Y-19930250D01*
X13741651Y-19910038D01*
X13750830Y-19890632D01*
X13761866Y-19872219D01*
X13774654Y-19854976D01*
X13789070Y-19839070D01*
X13804976Y-19824654D01*
X13822219Y-19811866D01*
X13840632Y-19800830D01*
X13860038Y-19791651D01*
X13880250Y-19784419D01*
X13901074Y-19779203D01*
X13922309Y-19776053D01*
X13943750Y-19775000D01*
X14456250Y-19775000D01*
X14477691Y-19776053D01*
G37*
G04 #@! TD.AperFunction*
G04 #@! TA.AperFunction,SMDPad,CuDef*
G36*
X14477691Y-21351053D02*
G01*
X14498926Y-21354203D01*
X14519750Y-21359419D01*
X14539962Y-21366651D01*
X14559368Y-21375830D01*
X14577781Y-21386866D01*
X14595024Y-21399654D01*
X14610930Y-21414070D01*
X14625346Y-21429976D01*
X14638134Y-21447219D01*
X14649170Y-21465632D01*
X14658349Y-21485038D01*
X14665581Y-21505250D01*
X14670797Y-21526074D01*
X14673947Y-21547309D01*
X14675000Y-21568750D01*
X14675000Y-22006250D01*
X14673947Y-22027691D01*
X14670797Y-22048926D01*
X14665581Y-22069750D01*
X14658349Y-22089962D01*
X14649170Y-22109368D01*
X14638134Y-22127781D01*
X14625346Y-22145024D01*
X14610930Y-22160930D01*
X14595024Y-22175346D01*
X14577781Y-22188134D01*
X14559368Y-22199170D01*
X14539962Y-22208349D01*
X14519750Y-22215581D01*
X14498926Y-22220797D01*
X14477691Y-22223947D01*
X14456250Y-22225000D01*
X13943750Y-22225000D01*
X13922309Y-22223947D01*
X13901074Y-22220797D01*
X13880250Y-22215581D01*
X13860038Y-22208349D01*
X13840632Y-22199170D01*
X13822219Y-22188134D01*
X13804976Y-22175346D01*
X13789070Y-22160930D01*
X13774654Y-22145024D01*
X13761866Y-22127781D01*
X13750830Y-22109368D01*
X13741651Y-22089962D01*
X13734419Y-22069750D01*
X13729203Y-22048926D01*
X13726053Y-22027691D01*
X13725000Y-22006250D01*
X13725000Y-21568750D01*
X13726053Y-21547309D01*
X13729203Y-21526074D01*
X13734419Y-21505250D01*
X13741651Y-21485038D01*
X13750830Y-21465632D01*
X13761866Y-21447219D01*
X13774654Y-21429976D01*
X13789070Y-21414070D01*
X13804976Y-21399654D01*
X13822219Y-21386866D01*
X13840632Y-21375830D01*
X13860038Y-21366651D01*
X13880250Y-21359419D01*
X13901074Y-21354203D01*
X13922309Y-21351053D01*
X13943750Y-21350000D01*
X14456250Y-21350000D01*
X14477691Y-21351053D01*
G37*
G04 #@! TD.AperFunction*
G04 #@! TA.AperFunction,SMDPad,CuDef*
G36*
X21427691Y-20676053D02*
G01*
X21448926Y-20679203D01*
X21469750Y-20684419D01*
X21489962Y-20691651D01*
X21509368Y-20700830D01*
X21527781Y-20711866D01*
X21545024Y-20724654D01*
X21560930Y-20739070D01*
X21575346Y-20754976D01*
X21588134Y-20772219D01*
X21599170Y-20790632D01*
X21608349Y-20810038D01*
X21615581Y-20830250D01*
X21620797Y-20851074D01*
X21623947Y-20872309D01*
X21625000Y-20893750D01*
X21625000Y-21406250D01*
X21623947Y-21427691D01*
X21620797Y-21448926D01*
X21615581Y-21469750D01*
X21608349Y-21489962D01*
X21599170Y-21509368D01*
X21588134Y-21527781D01*
X21575346Y-21545024D01*
X21560930Y-21560930D01*
X21545024Y-21575346D01*
X21527781Y-21588134D01*
X21509368Y-21599170D01*
X21489962Y-21608349D01*
X21469750Y-21615581D01*
X21448926Y-21620797D01*
X21427691Y-21623947D01*
X21406250Y-21625000D01*
X20968750Y-21625000D01*
X20947309Y-21623947D01*
X20926074Y-21620797D01*
X20905250Y-21615581D01*
X20885038Y-21608349D01*
X20865632Y-21599170D01*
X20847219Y-21588134D01*
X20829976Y-21575346D01*
X20814070Y-21560930D01*
X20799654Y-21545024D01*
X20786866Y-21527781D01*
X20775830Y-21509368D01*
X20766651Y-21489962D01*
X20759419Y-21469750D01*
X20754203Y-21448926D01*
X20751053Y-21427691D01*
X20750000Y-21406250D01*
X20750000Y-20893750D01*
X20751053Y-20872309D01*
X20754203Y-20851074D01*
X20759419Y-20830250D01*
X20766651Y-20810038D01*
X20775830Y-20790632D01*
X20786866Y-20772219D01*
X20799654Y-20754976D01*
X20814070Y-20739070D01*
X20829976Y-20724654D01*
X20847219Y-20711866D01*
X20865632Y-20700830D01*
X20885038Y-20691651D01*
X20905250Y-20684419D01*
X20926074Y-20679203D01*
X20947309Y-20676053D01*
X20968750Y-20675000D01*
X21406250Y-20675000D01*
X21427691Y-20676053D01*
G37*
G04 #@! TD.AperFunction*
G04 #@! TA.AperFunction,SMDPad,CuDef*
G36*
X19852691Y-20676053D02*
G01*
X19873926Y-20679203D01*
X19894750Y-20684419D01*
X19914962Y-20691651D01*
X19934368Y-20700830D01*
X19952781Y-20711866D01*
X19970024Y-20724654D01*
X19985930Y-20739070D01*
X20000346Y-20754976D01*
X20013134Y-20772219D01*
X20024170Y-20790632D01*
X20033349Y-20810038D01*
X20040581Y-20830250D01*
X20045797Y-20851074D01*
X20048947Y-20872309D01*
X20050000Y-20893750D01*
X20050000Y-21406250D01*
X20048947Y-21427691D01*
X20045797Y-21448926D01*
X20040581Y-21469750D01*
X20033349Y-21489962D01*
X20024170Y-21509368D01*
X20013134Y-21527781D01*
X20000346Y-21545024D01*
X19985930Y-21560930D01*
X19970024Y-21575346D01*
X19952781Y-21588134D01*
X19934368Y-21599170D01*
X19914962Y-21608349D01*
X19894750Y-21615581D01*
X19873926Y-21620797D01*
X19852691Y-21623947D01*
X19831250Y-21625000D01*
X19393750Y-21625000D01*
X19372309Y-21623947D01*
X19351074Y-21620797D01*
X19330250Y-21615581D01*
X19310038Y-21608349D01*
X19290632Y-21599170D01*
X19272219Y-21588134D01*
X19254976Y-21575346D01*
X19239070Y-21560930D01*
X19224654Y-21545024D01*
X19211866Y-21527781D01*
X19200830Y-21509368D01*
X19191651Y-21489962D01*
X19184419Y-21469750D01*
X19179203Y-21448926D01*
X19176053Y-21427691D01*
X19175000Y-21406250D01*
X19175000Y-20893750D01*
X19176053Y-20872309D01*
X19179203Y-20851074D01*
X19184419Y-20830250D01*
X19191651Y-20810038D01*
X19200830Y-20790632D01*
X19211866Y-20772219D01*
X19224654Y-20754976D01*
X19239070Y-20739070D01*
X19254976Y-20724654D01*
X19272219Y-20711866D01*
X19290632Y-20700830D01*
X19310038Y-20691651D01*
X19330250Y-20684419D01*
X19351074Y-20679203D01*
X19372309Y-20676053D01*
X19393750Y-20675000D01*
X19831250Y-20675000D01*
X19852691Y-20676053D01*
G37*
G04 #@! TD.AperFunction*
G04 #@! TA.AperFunction,SMDPad,CuDef*
G36*
X21427691Y-22176053D02*
G01*
X21448926Y-22179203D01*
X21469750Y-22184419D01*
X21489962Y-22191651D01*
X21509368Y-22200830D01*
X21527781Y-22211866D01*
X21545024Y-22224654D01*
X21560930Y-22239070D01*
X21575346Y-22254976D01*
X21588134Y-22272219D01*
X21599170Y-22290632D01*
X21608349Y-22310038D01*
X21615581Y-22330250D01*
X21620797Y-22351074D01*
X21623947Y-22372309D01*
X21625000Y-22393750D01*
X21625000Y-22906250D01*
X21623947Y-22927691D01*
X21620797Y-22948926D01*
X21615581Y-22969750D01*
X21608349Y-22989962D01*
X21599170Y-23009368D01*
X21588134Y-23027781D01*
X21575346Y-23045024D01*
X21560930Y-23060930D01*
X21545024Y-23075346D01*
X21527781Y-23088134D01*
X21509368Y-23099170D01*
X21489962Y-23108349D01*
X21469750Y-23115581D01*
X21448926Y-23120797D01*
X21427691Y-23123947D01*
X21406250Y-23125000D01*
X20968750Y-23125000D01*
X20947309Y-23123947D01*
X20926074Y-23120797D01*
X20905250Y-23115581D01*
X20885038Y-23108349D01*
X20865632Y-23099170D01*
X20847219Y-23088134D01*
X20829976Y-23075346D01*
X20814070Y-23060930D01*
X20799654Y-23045024D01*
X20786866Y-23027781D01*
X20775830Y-23009368D01*
X20766651Y-22989962D01*
X20759419Y-22969750D01*
X20754203Y-22948926D01*
X20751053Y-22927691D01*
X20750000Y-22906250D01*
X20750000Y-22393750D01*
X20751053Y-22372309D01*
X20754203Y-22351074D01*
X20759419Y-22330250D01*
X20766651Y-22310038D01*
X20775830Y-22290632D01*
X20786866Y-22272219D01*
X20799654Y-22254976D01*
X20814070Y-22239070D01*
X20829976Y-22224654D01*
X20847219Y-22211866D01*
X20865632Y-22200830D01*
X20885038Y-22191651D01*
X20905250Y-22184419D01*
X20926074Y-22179203D01*
X20947309Y-22176053D01*
X20968750Y-22175000D01*
X21406250Y-22175000D01*
X21427691Y-22176053D01*
G37*
G04 #@! TD.AperFunction*
G04 #@! TA.AperFunction,SMDPad,CuDef*
G36*
X19852691Y-22176053D02*
G01*
X19873926Y-22179203D01*
X19894750Y-22184419D01*
X19914962Y-22191651D01*
X19934368Y-22200830D01*
X19952781Y-22211866D01*
X19970024Y-22224654D01*
X19985930Y-22239070D01*
X20000346Y-22254976D01*
X20013134Y-22272219D01*
X20024170Y-22290632D01*
X20033349Y-22310038D01*
X20040581Y-22330250D01*
X20045797Y-22351074D01*
X20048947Y-22372309D01*
X20050000Y-22393750D01*
X20050000Y-22906250D01*
X20048947Y-22927691D01*
X20045797Y-22948926D01*
X20040581Y-22969750D01*
X20033349Y-22989962D01*
X20024170Y-23009368D01*
X20013134Y-23027781D01*
X20000346Y-23045024D01*
X19985930Y-23060930D01*
X19970024Y-23075346D01*
X19952781Y-23088134D01*
X19934368Y-23099170D01*
X19914962Y-23108349D01*
X19894750Y-23115581D01*
X19873926Y-23120797D01*
X19852691Y-23123947D01*
X19831250Y-23125000D01*
X19393750Y-23125000D01*
X19372309Y-23123947D01*
X19351074Y-23120797D01*
X19330250Y-23115581D01*
X19310038Y-23108349D01*
X19290632Y-23099170D01*
X19272219Y-23088134D01*
X19254976Y-23075346D01*
X19239070Y-23060930D01*
X19224654Y-23045024D01*
X19211866Y-23027781D01*
X19200830Y-23009368D01*
X19191651Y-22989962D01*
X19184419Y-22969750D01*
X19179203Y-22948926D01*
X19176053Y-22927691D01*
X19175000Y-22906250D01*
X19175000Y-22393750D01*
X19176053Y-22372309D01*
X19179203Y-22351074D01*
X19184419Y-22330250D01*
X19191651Y-22310038D01*
X19200830Y-22290632D01*
X19211866Y-22272219D01*
X19224654Y-22254976D01*
X19239070Y-22239070D01*
X19254976Y-22224654D01*
X19272219Y-22211866D01*
X19290632Y-22200830D01*
X19310038Y-22191651D01*
X19330250Y-22184419D01*
X19351074Y-22179203D01*
X19372309Y-22176053D01*
X19393750Y-22175000D01*
X19831250Y-22175000D01*
X19852691Y-22176053D01*
G37*
G04 #@! TD.AperFunction*
D13*
X8675000Y-11400000D03*
X12825000Y-11400000D03*
G04 #@! TA.AperFunction,SMDPad,CuDef*
D11*
G36*
X21427691Y-14076053D02*
G01*
X21448926Y-14079203D01*
X21469750Y-14084419D01*
X21489962Y-14091651D01*
X21509368Y-14100830D01*
X21527781Y-14111866D01*
X21545024Y-14124654D01*
X21560930Y-14139070D01*
X21575346Y-14154976D01*
X21588134Y-14172219D01*
X21599170Y-14190632D01*
X21608349Y-14210038D01*
X21615581Y-14230250D01*
X21620797Y-14251074D01*
X21623947Y-14272309D01*
X21625000Y-14293750D01*
X21625000Y-14806250D01*
X21623947Y-14827691D01*
X21620797Y-14848926D01*
X21615581Y-14869750D01*
X21608349Y-14889962D01*
X21599170Y-14909368D01*
X21588134Y-14927781D01*
X21575346Y-14945024D01*
X21560930Y-14960930D01*
X21545024Y-14975346D01*
X21527781Y-14988134D01*
X21509368Y-14999170D01*
X21489962Y-15008349D01*
X21469750Y-15015581D01*
X21448926Y-15020797D01*
X21427691Y-15023947D01*
X21406250Y-15025000D01*
X20968750Y-15025000D01*
X20947309Y-15023947D01*
X20926074Y-15020797D01*
X20905250Y-15015581D01*
X20885038Y-15008349D01*
X20865632Y-14999170D01*
X20847219Y-14988134D01*
X20829976Y-14975346D01*
X20814070Y-14960930D01*
X20799654Y-14945024D01*
X20786866Y-14927781D01*
X20775830Y-14909368D01*
X20766651Y-14889962D01*
X20759419Y-14869750D01*
X20754203Y-14848926D01*
X20751053Y-14827691D01*
X20750000Y-14806250D01*
X20750000Y-14293750D01*
X20751053Y-14272309D01*
X20754203Y-14251074D01*
X20759419Y-14230250D01*
X20766651Y-14210038D01*
X20775830Y-14190632D01*
X20786866Y-14172219D01*
X20799654Y-14154976D01*
X20814070Y-14139070D01*
X20829976Y-14124654D01*
X20847219Y-14111866D01*
X20865632Y-14100830D01*
X20885038Y-14091651D01*
X20905250Y-14084419D01*
X20926074Y-14079203D01*
X20947309Y-14076053D01*
X20968750Y-14075000D01*
X21406250Y-14075000D01*
X21427691Y-14076053D01*
G37*
G04 #@! TD.AperFunction*
G04 #@! TA.AperFunction,SMDPad,CuDef*
G36*
X19852691Y-14076053D02*
G01*
X19873926Y-14079203D01*
X19894750Y-14084419D01*
X19914962Y-14091651D01*
X19934368Y-14100830D01*
X19952781Y-14111866D01*
X19970024Y-14124654D01*
X19985930Y-14139070D01*
X20000346Y-14154976D01*
X20013134Y-14172219D01*
X20024170Y-14190632D01*
X20033349Y-14210038D01*
X20040581Y-14230250D01*
X20045797Y-14251074D01*
X20048947Y-14272309D01*
X20050000Y-14293750D01*
X20050000Y-14806250D01*
X20048947Y-14827691D01*
X20045797Y-14848926D01*
X20040581Y-14869750D01*
X20033349Y-14889962D01*
X20024170Y-14909368D01*
X20013134Y-14927781D01*
X20000346Y-14945024D01*
X19985930Y-14960930D01*
X19970024Y-14975346D01*
X19952781Y-14988134D01*
X19934368Y-14999170D01*
X19914962Y-15008349D01*
X19894750Y-15015581D01*
X19873926Y-15020797D01*
X19852691Y-15023947D01*
X19831250Y-15025000D01*
X19393750Y-15025000D01*
X19372309Y-15023947D01*
X19351074Y-15020797D01*
X19330250Y-15015581D01*
X19310038Y-15008349D01*
X19290632Y-14999170D01*
X19272219Y-14988134D01*
X19254976Y-14975346D01*
X19239070Y-14960930D01*
X19224654Y-14945024D01*
X19211866Y-14927781D01*
X19200830Y-14909368D01*
X19191651Y-14889962D01*
X19184419Y-14869750D01*
X19179203Y-14848926D01*
X19176053Y-14827691D01*
X19175000Y-14806250D01*
X19175000Y-14293750D01*
X19176053Y-14272309D01*
X19179203Y-14251074D01*
X19184419Y-14230250D01*
X19191651Y-14210038D01*
X19200830Y-14190632D01*
X19211866Y-14172219D01*
X19224654Y-14154976D01*
X19239070Y-14139070D01*
X19254976Y-14124654D01*
X19272219Y-14111866D01*
X19290632Y-14100830D01*
X19310038Y-14091651D01*
X19330250Y-14084419D01*
X19351074Y-14079203D01*
X19372309Y-14076053D01*
X19393750Y-14075000D01*
X19831250Y-14075000D01*
X19852691Y-14076053D01*
G37*
G04 #@! TD.AperFunction*
D13*
X8675000Y-22650000D03*
X12825000Y-22650000D03*
G04 #@! TA.AperFunction,SMDPad,CuDef*
D11*
G36*
X19852691Y-19176053D02*
G01*
X19873926Y-19179203D01*
X19894750Y-19184419D01*
X19914962Y-19191651D01*
X19934368Y-19200830D01*
X19952781Y-19211866D01*
X19970024Y-19224654D01*
X19985930Y-19239070D01*
X20000346Y-19254976D01*
X20013134Y-19272219D01*
X20024170Y-19290632D01*
X20033349Y-19310038D01*
X20040581Y-19330250D01*
X20045797Y-19351074D01*
X20048947Y-19372309D01*
X20050000Y-19393750D01*
X20050000Y-19906250D01*
X20048947Y-19927691D01*
X20045797Y-19948926D01*
X20040581Y-19969750D01*
X20033349Y-19989962D01*
X20024170Y-20009368D01*
X20013134Y-20027781D01*
X20000346Y-20045024D01*
X19985930Y-20060930D01*
X19970024Y-20075346D01*
X19952781Y-20088134D01*
X19934368Y-20099170D01*
X19914962Y-20108349D01*
X19894750Y-20115581D01*
X19873926Y-20120797D01*
X19852691Y-20123947D01*
X19831250Y-20125000D01*
X19393750Y-20125000D01*
X19372309Y-20123947D01*
X19351074Y-20120797D01*
X19330250Y-20115581D01*
X19310038Y-20108349D01*
X19290632Y-20099170D01*
X19272219Y-20088134D01*
X19254976Y-20075346D01*
X19239070Y-20060930D01*
X19224654Y-20045024D01*
X19211866Y-20027781D01*
X19200830Y-20009368D01*
X19191651Y-19989962D01*
X19184419Y-19969750D01*
X19179203Y-19948926D01*
X19176053Y-19927691D01*
X19175000Y-19906250D01*
X19175000Y-19393750D01*
X19176053Y-19372309D01*
X19179203Y-19351074D01*
X19184419Y-19330250D01*
X19191651Y-19310038D01*
X19200830Y-19290632D01*
X19211866Y-19272219D01*
X19224654Y-19254976D01*
X19239070Y-19239070D01*
X19254976Y-19224654D01*
X19272219Y-19211866D01*
X19290632Y-19200830D01*
X19310038Y-19191651D01*
X19330250Y-19184419D01*
X19351074Y-19179203D01*
X19372309Y-19176053D01*
X19393750Y-19175000D01*
X19831250Y-19175000D01*
X19852691Y-19176053D01*
G37*
G04 #@! TD.AperFunction*
G04 #@! TA.AperFunction,SMDPad,CuDef*
G36*
X21427691Y-19176053D02*
G01*
X21448926Y-19179203D01*
X21469750Y-19184419D01*
X21489962Y-19191651D01*
X21509368Y-19200830D01*
X21527781Y-19211866D01*
X21545024Y-19224654D01*
X21560930Y-19239070D01*
X21575346Y-19254976D01*
X21588134Y-19272219D01*
X21599170Y-19290632D01*
X21608349Y-19310038D01*
X21615581Y-19330250D01*
X21620797Y-19351074D01*
X21623947Y-19372309D01*
X21625000Y-19393750D01*
X21625000Y-19906250D01*
X21623947Y-19927691D01*
X21620797Y-19948926D01*
X21615581Y-19969750D01*
X21608349Y-19989962D01*
X21599170Y-20009368D01*
X21588134Y-20027781D01*
X21575346Y-20045024D01*
X21560930Y-20060930D01*
X21545024Y-20075346D01*
X21527781Y-20088134D01*
X21509368Y-20099170D01*
X21489962Y-20108349D01*
X21469750Y-20115581D01*
X21448926Y-20120797D01*
X21427691Y-20123947D01*
X21406250Y-20125000D01*
X20968750Y-20125000D01*
X20947309Y-20123947D01*
X20926074Y-20120797D01*
X20905250Y-20115581D01*
X20885038Y-20108349D01*
X20865632Y-20099170D01*
X20847219Y-20088134D01*
X20829976Y-20075346D01*
X20814070Y-20060930D01*
X20799654Y-20045024D01*
X20786866Y-20027781D01*
X20775830Y-20009368D01*
X20766651Y-19989962D01*
X20759419Y-19969750D01*
X20754203Y-19948926D01*
X20751053Y-19927691D01*
X20750000Y-19906250D01*
X20750000Y-19393750D01*
X20751053Y-19372309D01*
X20754203Y-19351074D01*
X20759419Y-19330250D01*
X20766651Y-19310038D01*
X20775830Y-19290632D01*
X20786866Y-19272219D01*
X20799654Y-19254976D01*
X20814070Y-19239070D01*
X20829976Y-19224654D01*
X20847219Y-19211866D01*
X20865632Y-19200830D01*
X20885038Y-19191651D01*
X20905250Y-19184419D01*
X20926074Y-19179203D01*
X20947309Y-19176053D01*
X20968750Y-19175000D01*
X21406250Y-19175000D01*
X21427691Y-19176053D01*
G37*
G04 #@! TD.AperFunction*
G04 #@! TA.AperFunction,SMDPad,CuDef*
G36*
X22852691Y-12526053D02*
G01*
X22873926Y-12529203D01*
X22894750Y-12534419D01*
X22914962Y-12541651D01*
X22934368Y-12550830D01*
X22952781Y-12561866D01*
X22970024Y-12574654D01*
X22985930Y-12589070D01*
X23000346Y-12604976D01*
X23013134Y-12622219D01*
X23024170Y-12640632D01*
X23033349Y-12660038D01*
X23040581Y-12680250D01*
X23045797Y-12701074D01*
X23048947Y-12722309D01*
X23050000Y-12743750D01*
X23050000Y-13256250D01*
X23048947Y-13277691D01*
X23045797Y-13298926D01*
X23040581Y-13319750D01*
X23033349Y-13339962D01*
X23024170Y-13359368D01*
X23013134Y-13377781D01*
X23000346Y-13395024D01*
X22985930Y-13410930D01*
X22970024Y-13425346D01*
X22952781Y-13438134D01*
X22934368Y-13449170D01*
X22914962Y-13458349D01*
X22894750Y-13465581D01*
X22873926Y-13470797D01*
X22852691Y-13473947D01*
X22831250Y-13475000D01*
X22393750Y-13475000D01*
X22372309Y-13473947D01*
X22351074Y-13470797D01*
X22330250Y-13465581D01*
X22310038Y-13458349D01*
X22290632Y-13449170D01*
X22272219Y-13438134D01*
X22254976Y-13425346D01*
X22239070Y-13410930D01*
X22224654Y-13395024D01*
X22211866Y-13377781D01*
X22200830Y-13359368D01*
X22191651Y-13339962D01*
X22184419Y-13319750D01*
X22179203Y-13298926D01*
X22176053Y-13277691D01*
X22175000Y-13256250D01*
X22175000Y-12743750D01*
X22176053Y-12722309D01*
X22179203Y-12701074D01*
X22184419Y-12680250D01*
X22191651Y-12660038D01*
X22200830Y-12640632D01*
X22211866Y-12622219D01*
X22224654Y-12604976D01*
X22239070Y-12589070D01*
X22254976Y-12574654D01*
X22272219Y-12561866D01*
X22290632Y-12550830D01*
X22310038Y-12541651D01*
X22330250Y-12534419D01*
X22351074Y-12529203D01*
X22372309Y-12526053D01*
X22393750Y-12525000D01*
X22831250Y-12525000D01*
X22852691Y-12526053D01*
G37*
G04 #@! TD.AperFunction*
G04 #@! TA.AperFunction,SMDPad,CuDef*
G36*
X24427691Y-12526053D02*
G01*
X24448926Y-12529203D01*
X24469750Y-12534419D01*
X24489962Y-12541651D01*
X24509368Y-12550830D01*
X24527781Y-12561866D01*
X24545024Y-12574654D01*
X24560930Y-12589070D01*
X24575346Y-12604976D01*
X24588134Y-12622219D01*
X24599170Y-12640632D01*
X24608349Y-12660038D01*
X24615581Y-12680250D01*
X24620797Y-12701074D01*
X24623947Y-12722309D01*
X24625000Y-12743750D01*
X24625000Y-13256250D01*
X24623947Y-13277691D01*
X24620797Y-13298926D01*
X24615581Y-13319750D01*
X24608349Y-13339962D01*
X24599170Y-13359368D01*
X24588134Y-13377781D01*
X24575346Y-13395024D01*
X24560930Y-13410930D01*
X24545024Y-13425346D01*
X24527781Y-13438134D01*
X24509368Y-13449170D01*
X24489962Y-13458349D01*
X24469750Y-13465581D01*
X24448926Y-13470797D01*
X24427691Y-13473947D01*
X24406250Y-13475000D01*
X23968750Y-13475000D01*
X23947309Y-13473947D01*
X23926074Y-13470797D01*
X23905250Y-13465581D01*
X23885038Y-13458349D01*
X23865632Y-13449170D01*
X23847219Y-13438134D01*
X23829976Y-13425346D01*
X23814070Y-13410930D01*
X23799654Y-13395024D01*
X23786866Y-13377781D01*
X23775830Y-13359368D01*
X23766651Y-13339962D01*
X23759419Y-13319750D01*
X23754203Y-13298926D01*
X23751053Y-13277691D01*
X23750000Y-13256250D01*
X23750000Y-12743750D01*
X23751053Y-12722309D01*
X23754203Y-12701074D01*
X23759419Y-12680250D01*
X23766651Y-12660038D01*
X23775830Y-12640632D01*
X23786866Y-12622219D01*
X23799654Y-12604976D01*
X23814070Y-12589070D01*
X23829976Y-12574654D01*
X23847219Y-12561866D01*
X23865632Y-12550830D01*
X23885038Y-12541651D01*
X23905250Y-12534419D01*
X23926074Y-12529203D01*
X23947309Y-12526053D01*
X23968750Y-12525000D01*
X24406250Y-12525000D01*
X24427691Y-12526053D01*
G37*
G04 #@! TD.AperFunction*
G04 #@! TA.AperFunction,SMDPad,CuDef*
G36*
X16452691Y-23326053D02*
G01*
X16473926Y-23329203D01*
X16494750Y-23334419D01*
X16514962Y-23341651D01*
X16534368Y-23350830D01*
X16552781Y-23361866D01*
X16570024Y-23374654D01*
X16585930Y-23389070D01*
X16600346Y-23404976D01*
X16613134Y-23422219D01*
X16624170Y-23440632D01*
X16633349Y-23460038D01*
X16640581Y-23480250D01*
X16645797Y-23501074D01*
X16648947Y-23522309D01*
X16650000Y-23543750D01*
X16650000Y-24056250D01*
X16648947Y-24077691D01*
X16645797Y-24098926D01*
X16640581Y-24119750D01*
X16633349Y-24139962D01*
X16624170Y-24159368D01*
X16613134Y-24177781D01*
X16600346Y-24195024D01*
X16585930Y-24210930D01*
X16570024Y-24225346D01*
X16552781Y-24238134D01*
X16534368Y-24249170D01*
X16514962Y-24258349D01*
X16494750Y-24265581D01*
X16473926Y-24270797D01*
X16452691Y-24273947D01*
X16431250Y-24275000D01*
X15993750Y-24275000D01*
X15972309Y-24273947D01*
X15951074Y-24270797D01*
X15930250Y-24265581D01*
X15910038Y-24258349D01*
X15890632Y-24249170D01*
X15872219Y-24238134D01*
X15854976Y-24225346D01*
X15839070Y-24210930D01*
X15824654Y-24195024D01*
X15811866Y-24177781D01*
X15800830Y-24159368D01*
X15791651Y-24139962D01*
X15784419Y-24119750D01*
X15779203Y-24098926D01*
X15776053Y-24077691D01*
X15775000Y-24056250D01*
X15775000Y-23543750D01*
X15776053Y-23522309D01*
X15779203Y-23501074D01*
X15784419Y-23480250D01*
X15791651Y-23460038D01*
X15800830Y-23440632D01*
X15811866Y-23422219D01*
X15824654Y-23404976D01*
X15839070Y-23389070D01*
X15854976Y-23374654D01*
X15872219Y-23361866D01*
X15890632Y-23350830D01*
X15910038Y-23341651D01*
X15930250Y-23334419D01*
X15951074Y-23329203D01*
X15972309Y-23326053D01*
X15993750Y-23325000D01*
X16431250Y-23325000D01*
X16452691Y-23326053D01*
G37*
G04 #@! TD.AperFunction*
G04 #@! TA.AperFunction,SMDPad,CuDef*
G36*
X18027691Y-23326053D02*
G01*
X18048926Y-23329203D01*
X18069750Y-23334419D01*
X18089962Y-23341651D01*
X18109368Y-23350830D01*
X18127781Y-23361866D01*
X18145024Y-23374654D01*
X18160930Y-23389070D01*
X18175346Y-23404976D01*
X18188134Y-23422219D01*
X18199170Y-23440632D01*
X18208349Y-23460038D01*
X18215581Y-23480250D01*
X18220797Y-23501074D01*
X18223947Y-23522309D01*
X18225000Y-23543750D01*
X18225000Y-24056250D01*
X18223947Y-24077691D01*
X18220797Y-24098926D01*
X18215581Y-24119750D01*
X18208349Y-24139962D01*
X18199170Y-24159368D01*
X18188134Y-24177781D01*
X18175346Y-24195024D01*
X18160930Y-24210930D01*
X18145024Y-24225346D01*
X18127781Y-24238134D01*
X18109368Y-24249170D01*
X18089962Y-24258349D01*
X18069750Y-24265581D01*
X18048926Y-24270797D01*
X18027691Y-24273947D01*
X18006250Y-24275000D01*
X17568750Y-24275000D01*
X17547309Y-24273947D01*
X17526074Y-24270797D01*
X17505250Y-24265581D01*
X17485038Y-24258349D01*
X17465632Y-24249170D01*
X17447219Y-24238134D01*
X17429976Y-24225346D01*
X17414070Y-24210930D01*
X17399654Y-24195024D01*
X17386866Y-24177781D01*
X17375830Y-24159368D01*
X17366651Y-24139962D01*
X17359419Y-24119750D01*
X17354203Y-24098926D01*
X17351053Y-24077691D01*
X17350000Y-24056250D01*
X17350000Y-23543750D01*
X17351053Y-23522309D01*
X17354203Y-23501074D01*
X17359419Y-23480250D01*
X17366651Y-23460038D01*
X17375830Y-23440632D01*
X17386866Y-23422219D01*
X17399654Y-23404976D01*
X17414070Y-23389070D01*
X17429976Y-23374654D01*
X17447219Y-23361866D01*
X17465632Y-23350830D01*
X17485038Y-23341651D01*
X17505250Y-23334419D01*
X17526074Y-23329203D01*
X17547309Y-23326053D01*
X17568750Y-23325000D01*
X18006250Y-23325000D01*
X18027691Y-23326053D01*
G37*
G04 #@! TD.AperFunction*
G04 #@! TA.AperFunction,SMDPad,CuDef*
G36*
X16027691Y-14826053D02*
G01*
X16048926Y-14829203D01*
X16069750Y-14834419D01*
X16089962Y-14841651D01*
X16109368Y-14850830D01*
X16127781Y-14861866D01*
X16145024Y-14874654D01*
X16160930Y-14889070D01*
X16175346Y-14904976D01*
X16188134Y-14922219D01*
X16199170Y-14940632D01*
X16208349Y-14960038D01*
X16215581Y-14980250D01*
X16220797Y-15001074D01*
X16223947Y-15022309D01*
X16225000Y-15043750D01*
X16225000Y-15556250D01*
X16223947Y-15577691D01*
X16220797Y-15598926D01*
X16215581Y-15619750D01*
X16208349Y-15639962D01*
X16199170Y-15659368D01*
X16188134Y-15677781D01*
X16175346Y-15695024D01*
X16160930Y-15710930D01*
X16145024Y-15725346D01*
X16127781Y-15738134D01*
X16109368Y-15749170D01*
X16089962Y-15758349D01*
X16069750Y-15765581D01*
X16048926Y-15770797D01*
X16027691Y-15773947D01*
X16006250Y-15775000D01*
X15568750Y-15775000D01*
X15547309Y-15773947D01*
X15526074Y-15770797D01*
X15505250Y-15765581D01*
X15485038Y-15758349D01*
X15465632Y-15749170D01*
X15447219Y-15738134D01*
X15429976Y-15725346D01*
X15414070Y-15710930D01*
X15399654Y-15695024D01*
X15386866Y-15677781D01*
X15375830Y-15659368D01*
X15366651Y-15639962D01*
X15359419Y-15619750D01*
X15354203Y-15598926D01*
X15351053Y-15577691D01*
X15350000Y-15556250D01*
X15350000Y-15043750D01*
X15351053Y-15022309D01*
X15354203Y-15001074D01*
X15359419Y-14980250D01*
X15366651Y-14960038D01*
X15375830Y-14940632D01*
X15386866Y-14922219D01*
X15399654Y-14904976D01*
X15414070Y-14889070D01*
X15429976Y-14874654D01*
X15447219Y-14861866D01*
X15465632Y-14850830D01*
X15485038Y-14841651D01*
X15505250Y-14834419D01*
X15526074Y-14829203D01*
X15547309Y-14826053D01*
X15568750Y-14825000D01*
X16006250Y-14825000D01*
X16027691Y-14826053D01*
G37*
G04 #@! TD.AperFunction*
G04 #@! TA.AperFunction,SMDPad,CuDef*
G36*
X14452691Y-14826053D02*
G01*
X14473926Y-14829203D01*
X14494750Y-14834419D01*
X14514962Y-14841651D01*
X14534368Y-14850830D01*
X14552781Y-14861866D01*
X14570024Y-14874654D01*
X14585930Y-14889070D01*
X14600346Y-14904976D01*
X14613134Y-14922219D01*
X14624170Y-14940632D01*
X14633349Y-14960038D01*
X14640581Y-14980250D01*
X14645797Y-15001074D01*
X14648947Y-15022309D01*
X14650000Y-15043750D01*
X14650000Y-15556250D01*
X14648947Y-15577691D01*
X14645797Y-15598926D01*
X14640581Y-15619750D01*
X14633349Y-15639962D01*
X14624170Y-15659368D01*
X14613134Y-15677781D01*
X14600346Y-15695024D01*
X14585930Y-15710930D01*
X14570024Y-15725346D01*
X14552781Y-15738134D01*
X14534368Y-15749170D01*
X14514962Y-15758349D01*
X14494750Y-15765581D01*
X14473926Y-15770797D01*
X14452691Y-15773947D01*
X14431250Y-15775000D01*
X13993750Y-15775000D01*
X13972309Y-15773947D01*
X13951074Y-15770797D01*
X13930250Y-15765581D01*
X13910038Y-15758349D01*
X13890632Y-15749170D01*
X13872219Y-15738134D01*
X13854976Y-15725346D01*
X13839070Y-15710930D01*
X13824654Y-15695024D01*
X13811866Y-15677781D01*
X13800830Y-15659368D01*
X13791651Y-15639962D01*
X13784419Y-15619750D01*
X13779203Y-15598926D01*
X13776053Y-15577691D01*
X13775000Y-15556250D01*
X13775000Y-15043750D01*
X13776053Y-15022309D01*
X13779203Y-15001074D01*
X13784419Y-14980250D01*
X13791651Y-14960038D01*
X13800830Y-14940632D01*
X13811866Y-14922219D01*
X13824654Y-14904976D01*
X13839070Y-14889070D01*
X13854976Y-14874654D01*
X13872219Y-14861866D01*
X13890632Y-14850830D01*
X13910038Y-14841651D01*
X13930250Y-14834419D01*
X13951074Y-14829203D01*
X13972309Y-14826053D01*
X13993750Y-14825000D01*
X14431250Y-14825000D01*
X14452691Y-14826053D01*
G37*
G04 #@! TD.AperFunction*
G04 #@! TA.AperFunction,SMDPad,CuDef*
G36*
X24427691Y-14026053D02*
G01*
X24448926Y-14029203D01*
X24469750Y-14034419D01*
X24489962Y-14041651D01*
X24509368Y-14050830D01*
X24527781Y-14061866D01*
X24545024Y-14074654D01*
X24560930Y-14089070D01*
X24575346Y-14104976D01*
X24588134Y-14122219D01*
X24599170Y-14140632D01*
X24608349Y-14160038D01*
X24615581Y-14180250D01*
X24620797Y-14201074D01*
X24623947Y-14222309D01*
X24625000Y-14243750D01*
X24625000Y-14756250D01*
X24623947Y-14777691D01*
X24620797Y-14798926D01*
X24615581Y-14819750D01*
X24608349Y-14839962D01*
X24599170Y-14859368D01*
X24588134Y-14877781D01*
X24575346Y-14895024D01*
X24560930Y-14910930D01*
X24545024Y-14925346D01*
X24527781Y-14938134D01*
X24509368Y-14949170D01*
X24489962Y-14958349D01*
X24469750Y-14965581D01*
X24448926Y-14970797D01*
X24427691Y-14973947D01*
X24406250Y-14975000D01*
X23968750Y-14975000D01*
X23947309Y-14973947D01*
X23926074Y-14970797D01*
X23905250Y-14965581D01*
X23885038Y-14958349D01*
X23865632Y-14949170D01*
X23847219Y-14938134D01*
X23829976Y-14925346D01*
X23814070Y-14910930D01*
X23799654Y-14895024D01*
X23786866Y-14877781D01*
X23775830Y-14859368D01*
X23766651Y-14839962D01*
X23759419Y-14819750D01*
X23754203Y-14798926D01*
X23751053Y-14777691D01*
X23750000Y-14756250D01*
X23750000Y-14243750D01*
X23751053Y-14222309D01*
X23754203Y-14201074D01*
X23759419Y-14180250D01*
X23766651Y-14160038D01*
X23775830Y-14140632D01*
X23786866Y-14122219D01*
X23799654Y-14104976D01*
X23814070Y-14089070D01*
X23829976Y-14074654D01*
X23847219Y-14061866D01*
X23865632Y-14050830D01*
X23885038Y-14041651D01*
X23905250Y-14034419D01*
X23926074Y-14029203D01*
X23947309Y-14026053D01*
X23968750Y-14025000D01*
X24406250Y-14025000D01*
X24427691Y-14026053D01*
G37*
G04 #@! TD.AperFunction*
G04 #@! TA.AperFunction,SMDPad,CuDef*
G36*
X22852691Y-14026053D02*
G01*
X22873926Y-14029203D01*
X22894750Y-14034419D01*
X22914962Y-14041651D01*
X22934368Y-14050830D01*
X22952781Y-14061866D01*
X22970024Y-14074654D01*
X22985930Y-14089070D01*
X23000346Y-14104976D01*
X23013134Y-14122219D01*
X23024170Y-14140632D01*
X23033349Y-14160038D01*
X23040581Y-14180250D01*
X23045797Y-14201074D01*
X23048947Y-14222309D01*
X23050000Y-14243750D01*
X23050000Y-14756250D01*
X23048947Y-14777691D01*
X23045797Y-14798926D01*
X23040581Y-14819750D01*
X23033349Y-14839962D01*
X23024170Y-14859368D01*
X23013134Y-14877781D01*
X23000346Y-14895024D01*
X22985930Y-14910930D01*
X22970024Y-14925346D01*
X22952781Y-14938134D01*
X22934368Y-14949170D01*
X22914962Y-14958349D01*
X22894750Y-14965581D01*
X22873926Y-14970797D01*
X22852691Y-14973947D01*
X22831250Y-14975000D01*
X22393750Y-14975000D01*
X22372309Y-14973947D01*
X22351074Y-14970797D01*
X22330250Y-14965581D01*
X22310038Y-14958349D01*
X22290632Y-14949170D01*
X22272219Y-14938134D01*
X22254976Y-14925346D01*
X22239070Y-14910930D01*
X22224654Y-14895024D01*
X22211866Y-14877781D01*
X22200830Y-14859368D01*
X22191651Y-14839962D01*
X22184419Y-14819750D01*
X22179203Y-14798926D01*
X22176053Y-14777691D01*
X22175000Y-14756250D01*
X22175000Y-14243750D01*
X22176053Y-14222309D01*
X22179203Y-14201074D01*
X22184419Y-14180250D01*
X22191651Y-14160038D01*
X22200830Y-14140632D01*
X22211866Y-14122219D01*
X22224654Y-14104976D01*
X22239070Y-14089070D01*
X22254976Y-14074654D01*
X22272219Y-14061866D01*
X22290632Y-14050830D01*
X22310038Y-14041651D01*
X22330250Y-14034419D01*
X22351074Y-14029203D01*
X22372309Y-14026053D01*
X22393750Y-14025000D01*
X22831250Y-14025000D01*
X22852691Y-14026053D01*
G37*
G04 #@! TD.AperFunction*
G04 #@! TA.AperFunction,SMDPad,CuDef*
G36*
X14452691Y-18326053D02*
G01*
X14473926Y-18329203D01*
X14494750Y-18334419D01*
X14514962Y-18341651D01*
X14534368Y-18350830D01*
X14552781Y-18361866D01*
X14570024Y-18374654D01*
X14585930Y-18389070D01*
X14600346Y-18404976D01*
X14613134Y-18422219D01*
X14624170Y-18440632D01*
X14633349Y-18460038D01*
X14640581Y-18480250D01*
X14645797Y-18501074D01*
X14648947Y-18522309D01*
X14650000Y-18543750D01*
X14650000Y-19056250D01*
X14648947Y-19077691D01*
X14645797Y-19098926D01*
X14640581Y-19119750D01*
X14633349Y-19139962D01*
X14624170Y-19159368D01*
X14613134Y-19177781D01*
X14600346Y-19195024D01*
X14585930Y-19210930D01*
X14570024Y-19225346D01*
X14552781Y-19238134D01*
X14534368Y-19249170D01*
X14514962Y-19258349D01*
X14494750Y-19265581D01*
X14473926Y-19270797D01*
X14452691Y-19273947D01*
X14431250Y-19275000D01*
X13993750Y-19275000D01*
X13972309Y-19273947D01*
X13951074Y-19270797D01*
X13930250Y-19265581D01*
X13910038Y-19258349D01*
X13890632Y-19249170D01*
X13872219Y-19238134D01*
X13854976Y-19225346D01*
X13839070Y-19210930D01*
X13824654Y-19195024D01*
X13811866Y-19177781D01*
X13800830Y-19159368D01*
X13791651Y-19139962D01*
X13784419Y-19119750D01*
X13779203Y-19098926D01*
X13776053Y-19077691D01*
X13775000Y-19056250D01*
X13775000Y-18543750D01*
X13776053Y-18522309D01*
X13779203Y-18501074D01*
X13784419Y-18480250D01*
X13791651Y-18460038D01*
X13800830Y-18440632D01*
X13811866Y-18422219D01*
X13824654Y-18404976D01*
X13839070Y-18389070D01*
X13854976Y-18374654D01*
X13872219Y-18361866D01*
X13890632Y-18350830D01*
X13910038Y-18341651D01*
X13930250Y-18334419D01*
X13951074Y-18329203D01*
X13972309Y-18326053D01*
X13993750Y-18325000D01*
X14431250Y-18325000D01*
X14452691Y-18326053D01*
G37*
G04 #@! TD.AperFunction*
G04 #@! TA.AperFunction,SMDPad,CuDef*
G36*
X16027691Y-18326053D02*
G01*
X16048926Y-18329203D01*
X16069750Y-18334419D01*
X16089962Y-18341651D01*
X16109368Y-18350830D01*
X16127781Y-18361866D01*
X16145024Y-18374654D01*
X16160930Y-18389070D01*
X16175346Y-18404976D01*
X16188134Y-18422219D01*
X16199170Y-18440632D01*
X16208349Y-18460038D01*
X16215581Y-18480250D01*
X16220797Y-18501074D01*
X16223947Y-18522309D01*
X16225000Y-18543750D01*
X16225000Y-19056250D01*
X16223947Y-19077691D01*
X16220797Y-19098926D01*
X16215581Y-19119750D01*
X16208349Y-19139962D01*
X16199170Y-19159368D01*
X16188134Y-19177781D01*
X16175346Y-19195024D01*
X16160930Y-19210930D01*
X16145024Y-19225346D01*
X16127781Y-19238134D01*
X16109368Y-19249170D01*
X16089962Y-19258349D01*
X16069750Y-19265581D01*
X16048926Y-19270797D01*
X16027691Y-19273947D01*
X16006250Y-19275000D01*
X15568750Y-19275000D01*
X15547309Y-19273947D01*
X15526074Y-19270797D01*
X15505250Y-19265581D01*
X15485038Y-19258349D01*
X15465632Y-19249170D01*
X15447219Y-19238134D01*
X15429976Y-19225346D01*
X15414070Y-19210930D01*
X15399654Y-19195024D01*
X15386866Y-19177781D01*
X15375830Y-19159368D01*
X15366651Y-19139962D01*
X15359419Y-19119750D01*
X15354203Y-19098926D01*
X15351053Y-19077691D01*
X15350000Y-19056250D01*
X15350000Y-18543750D01*
X15351053Y-18522309D01*
X15354203Y-18501074D01*
X15359419Y-18480250D01*
X15366651Y-18460038D01*
X15375830Y-18440632D01*
X15386866Y-18422219D01*
X15399654Y-18404976D01*
X15414070Y-18389070D01*
X15429976Y-18374654D01*
X15447219Y-18361866D01*
X15465632Y-18350830D01*
X15485038Y-18341651D01*
X15505250Y-18334419D01*
X15526074Y-18329203D01*
X15547309Y-18326053D01*
X15568750Y-18325000D01*
X16006250Y-18325000D01*
X16027691Y-18326053D01*
G37*
G04 #@! TD.AperFunction*
G04 #@! TA.AperFunction,SMDPad,CuDef*
G36*
X16452691Y-9726053D02*
G01*
X16473926Y-9729203D01*
X16494750Y-9734419D01*
X16514962Y-9741651D01*
X16534368Y-9750830D01*
X16552781Y-9761866D01*
X16570024Y-9774654D01*
X16585930Y-9789070D01*
X16600346Y-9804976D01*
X16613134Y-9822219D01*
X16624170Y-9840632D01*
X16633349Y-9860038D01*
X16640581Y-9880250D01*
X16645797Y-9901074D01*
X16648947Y-9922309D01*
X16650000Y-9943750D01*
X16650000Y-10456250D01*
X16648947Y-10477691D01*
X16645797Y-10498926D01*
X16640581Y-10519750D01*
X16633349Y-10539962D01*
X16624170Y-10559368D01*
X16613134Y-10577781D01*
X16600346Y-10595024D01*
X16585930Y-10610930D01*
X16570024Y-10625346D01*
X16552781Y-10638134D01*
X16534368Y-10649170D01*
X16514962Y-10658349D01*
X16494750Y-10665581D01*
X16473926Y-10670797D01*
X16452691Y-10673947D01*
X16431250Y-10675000D01*
X15993750Y-10675000D01*
X15972309Y-10673947D01*
X15951074Y-10670797D01*
X15930250Y-10665581D01*
X15910038Y-10658349D01*
X15890632Y-10649170D01*
X15872219Y-10638134D01*
X15854976Y-10625346D01*
X15839070Y-10610930D01*
X15824654Y-10595024D01*
X15811866Y-10577781D01*
X15800830Y-10559368D01*
X15791651Y-10539962D01*
X15784419Y-10519750D01*
X15779203Y-10498926D01*
X15776053Y-10477691D01*
X15775000Y-10456250D01*
X15775000Y-9943750D01*
X15776053Y-9922309D01*
X15779203Y-9901074D01*
X15784419Y-9880250D01*
X15791651Y-9860038D01*
X15800830Y-9840632D01*
X15811866Y-9822219D01*
X15824654Y-9804976D01*
X15839070Y-9789070D01*
X15854976Y-9774654D01*
X15872219Y-9761866D01*
X15890632Y-9750830D01*
X15910038Y-9741651D01*
X15930250Y-9734419D01*
X15951074Y-9729203D01*
X15972309Y-9726053D01*
X15993750Y-9725000D01*
X16431250Y-9725000D01*
X16452691Y-9726053D01*
G37*
G04 #@! TD.AperFunction*
G04 #@! TA.AperFunction,SMDPad,CuDef*
G36*
X18027691Y-9726053D02*
G01*
X18048926Y-9729203D01*
X18069750Y-9734419D01*
X18089962Y-9741651D01*
X18109368Y-9750830D01*
X18127781Y-9761866D01*
X18145024Y-9774654D01*
X18160930Y-9789070D01*
X18175346Y-9804976D01*
X18188134Y-9822219D01*
X18199170Y-9840632D01*
X18208349Y-9860038D01*
X18215581Y-9880250D01*
X18220797Y-9901074D01*
X18223947Y-9922309D01*
X18225000Y-9943750D01*
X18225000Y-10456250D01*
X18223947Y-10477691D01*
X18220797Y-10498926D01*
X18215581Y-10519750D01*
X18208349Y-10539962D01*
X18199170Y-10559368D01*
X18188134Y-10577781D01*
X18175346Y-10595024D01*
X18160930Y-10610930D01*
X18145024Y-10625346D01*
X18127781Y-10638134D01*
X18109368Y-10649170D01*
X18089962Y-10658349D01*
X18069750Y-10665581D01*
X18048926Y-10670797D01*
X18027691Y-10673947D01*
X18006250Y-10675000D01*
X17568750Y-10675000D01*
X17547309Y-10673947D01*
X17526074Y-10670797D01*
X17505250Y-10665581D01*
X17485038Y-10658349D01*
X17465632Y-10649170D01*
X17447219Y-10638134D01*
X17429976Y-10625346D01*
X17414070Y-10610930D01*
X17399654Y-10595024D01*
X17386866Y-10577781D01*
X17375830Y-10559368D01*
X17366651Y-10539962D01*
X17359419Y-10519750D01*
X17354203Y-10498926D01*
X17351053Y-10477691D01*
X17350000Y-10456250D01*
X17350000Y-9943750D01*
X17351053Y-9922309D01*
X17354203Y-9901074D01*
X17359419Y-9880250D01*
X17366651Y-9860038D01*
X17375830Y-9840632D01*
X17386866Y-9822219D01*
X17399654Y-9804976D01*
X17414070Y-9789070D01*
X17429976Y-9774654D01*
X17447219Y-9761866D01*
X17465632Y-9750830D01*
X17485038Y-9741651D01*
X17505250Y-9734419D01*
X17526074Y-9729203D01*
X17547309Y-9726053D01*
X17568750Y-9725000D01*
X18006250Y-9725000D01*
X18027691Y-9726053D01*
G37*
G04 #@! TD.AperFunction*
D21*
X25000000Y-18699998D03*
X26900000Y-18700000D03*
X7600000Y-11400000D03*
X7700000Y-22700000D03*
X7800000Y-18900000D03*
X7800000Y-15200000D03*
X14600000Y-15900000D03*
X13400000Y-12900000D03*
X15999980Y-9000000D03*
X18350000Y-18500000D03*
X18350000Y-17900000D03*
X11400000Y-21900000D03*
X18650000Y-21350000D03*
X20550000Y-19250000D03*
X18350000Y-17300000D03*
X11300000Y-11950000D03*
X18400000Y-23650000D03*
X29300000Y-15350000D03*
X35500000Y-26500000D03*
X38000000Y-26500000D03*
X8000000Y-27500000D03*
X8000000Y-6500000D03*
X35500000Y-7500000D03*
X38000000Y-7500000D03*
X26700000Y-15174990D03*
X24900002Y-15100000D03*
X23600002Y-21500000D03*
X15350000Y-27150000D03*
X10650000Y-27400000D03*
X15500000Y-6850000D03*
X10700000Y-6650000D03*
X14000000Y-11000000D03*
X25250000Y-11000000D03*
X16350000Y-18925000D03*
X22300000Y-19150000D03*
X18590026Y-10009974D03*
X22600000Y-15100000D03*
X14000000Y-23000000D03*
X23750000Y-22500000D03*
X13658058Y-17641942D03*
X17250000Y-14900000D03*
X20658602Y-18448566D03*
X20800000Y-15550000D03*
X20400000Y-13800000D03*
X27750000Y-13500000D03*
D22*
X13450000Y-18800000D02*
X12550000Y-17900000D01*
X14212500Y-18800000D02*
X13450000Y-18800000D01*
X9100000Y-18900000D02*
X9100000Y-15150000D01*
X8675000Y-14725000D02*
X9100000Y-15150000D01*
X24187500Y-14500000D02*
X24187500Y-13000000D01*
X8675000Y-11400000D02*
X7600000Y-11400000D01*
X7750000Y-22650000D02*
X7700000Y-22700000D01*
X8675000Y-22650000D02*
X7750000Y-22650000D01*
X9100000Y-18900000D02*
X7800000Y-18900000D01*
X7850000Y-15150000D02*
X7800000Y-15200000D01*
X9100000Y-15150000D02*
X7850000Y-15150000D01*
X12391942Y-17900000D02*
X12350000Y-17900000D01*
X14212500Y-16079442D02*
X12391942Y-17900000D01*
X14212500Y-15300000D02*
X14212500Y-16079442D01*
X14212500Y-15512500D02*
X14600000Y-15900000D01*
X14212500Y-15300000D02*
X14212500Y-15512500D01*
X12350000Y-13950000D02*
X13400000Y-12900000D01*
X12350000Y-14150000D02*
X12350000Y-13950000D01*
X16212500Y-10200000D02*
X16212500Y-9212520D01*
X16212500Y-9212520D02*
X15999980Y-9000000D01*
X21187500Y-21150000D02*
X21187500Y-19650000D01*
X20950000Y-19650000D02*
X20550000Y-19250000D01*
X21187500Y-19650000D02*
X20950000Y-19650000D01*
X18225000Y-23800000D02*
X18450000Y-23575000D01*
X17787500Y-23800000D02*
X18225000Y-23800000D01*
X9100000Y-17500000D02*
X9100000Y-18900000D01*
X11950000Y-17500000D02*
X9100000Y-17500000D01*
X12350000Y-17900000D02*
X11950000Y-17500000D01*
X9000000Y-19000000D02*
X9100000Y-18900000D01*
X8700000Y-21300000D02*
X9000000Y-21000000D01*
X8700000Y-22625000D02*
X8700000Y-21300000D01*
X9000000Y-21000000D02*
X9000000Y-19000000D01*
X8675000Y-22650000D02*
X8700000Y-22625000D01*
D23*
X35100000Y-19800000D02*
X32400000Y-22500000D01*
X35100000Y-18800000D02*
X35100000Y-19800000D01*
X32400000Y-22500000D02*
X32400000Y-26500000D01*
X32400000Y-26500000D02*
X35500000Y-26500000D01*
X35100000Y-14200000D02*
X33500000Y-12600000D01*
X35100000Y-15200000D02*
X35100000Y-14200000D01*
X33500000Y-12600000D02*
X33500000Y-8000000D01*
X34000000Y-7500000D02*
X35500000Y-7500000D01*
X33500000Y-8000000D02*
X34000000Y-7500000D01*
D22*
X24787500Y-15100000D02*
X24187500Y-14500000D01*
X24900002Y-15100000D02*
X24787500Y-15100000D01*
X23250002Y-21150000D02*
X23600002Y-21500000D01*
X21187500Y-21150000D02*
X23250002Y-21150000D01*
D23*
X17787500Y-24275000D02*
X14562500Y-27500000D01*
X17787500Y-23800000D02*
X17787500Y-24275000D01*
X14562500Y-27500000D02*
X11024264Y-27500000D01*
D22*
X15350000Y-27150000D02*
X10900000Y-27150000D01*
X10900000Y-27150000D02*
X10650000Y-27400000D01*
X15500000Y-6800000D02*
X10850000Y-6800000D01*
D23*
X15649960Y-6650000D02*
X11124264Y-6650000D01*
X15999980Y-7000020D02*
X15649960Y-6650000D01*
D22*
X10850000Y-6800000D02*
X10700000Y-6650000D01*
D23*
X15999980Y-9000000D02*
X15999980Y-7000020D01*
X11124264Y-6650000D02*
X10700000Y-6650000D01*
D22*
X18100000Y-10512500D02*
X17787500Y-10200000D01*
X18100000Y-11750000D02*
X18100000Y-10512500D01*
X22612500Y-14587500D02*
X22612500Y-14500000D01*
X19600001Y-16250001D02*
X19500000Y-16150000D01*
X22612500Y-16250001D02*
X19600001Y-16250001D01*
X16050000Y-18800000D02*
X15787500Y-18800000D01*
X17600000Y-20350000D02*
X16050000Y-18800000D01*
X18100000Y-20350000D02*
X17600000Y-20350000D01*
X16225000Y-18800000D02*
X16350000Y-18925000D01*
X15787500Y-18800000D02*
X16225000Y-18800000D01*
X22100000Y-18950000D02*
X22300000Y-19150000D01*
X22100000Y-17100000D02*
X22100000Y-18950000D01*
X22612500Y-16587500D02*
X22100000Y-17100000D01*
X22612500Y-16250001D02*
X22612500Y-16587500D01*
X23950000Y-20800000D02*
X22300000Y-19150000D01*
X25100000Y-20800000D02*
X23950000Y-20800000D01*
X18400000Y-10200000D02*
X18590026Y-10009974D01*
X17787500Y-10200000D02*
X18400000Y-10200000D01*
X22612500Y-15087500D02*
X22600000Y-15100000D01*
X22612500Y-16250001D02*
X22600000Y-16237501D01*
X22600000Y-16237501D02*
X22600000Y-15524264D01*
X22600000Y-15524264D02*
X22600000Y-15100000D01*
X22612500Y-14500000D02*
X22612500Y-15087500D01*
X16830000Y-21300000D02*
X15900000Y-21300000D01*
X17169999Y-21639999D02*
X16830000Y-21300000D01*
X17169999Y-22842501D02*
X17169999Y-21639999D01*
X16212500Y-23800000D02*
X17169999Y-22842501D01*
X17300000Y-17100000D02*
X16370000Y-17100000D01*
X16525002Y-12700000D02*
X15900000Y-12700000D01*
X17050000Y-13224998D02*
X16525002Y-12700000D01*
X17050000Y-14075002D02*
X17050000Y-13224998D01*
X15825002Y-15300000D02*
X17050000Y-14075002D01*
X15787500Y-15300000D02*
X15825002Y-15300000D01*
D23*
X15850000Y-17100000D02*
X16370000Y-17100000D01*
X15024990Y-17925010D02*
X15850000Y-17100000D01*
X15024990Y-20914992D02*
X15024990Y-17925010D01*
X15409998Y-21300000D02*
X15024990Y-20914992D01*
X15900000Y-21300000D02*
X15409998Y-21300000D01*
D22*
X15787500Y-15775000D02*
X15787500Y-15300000D01*
X15787500Y-16837500D02*
X15787500Y-15775000D01*
X16050000Y-17100000D02*
X15787500Y-16837500D01*
X16370000Y-17100000D02*
X16050000Y-17100000D01*
D23*
X17252499Y-22842501D02*
X17309998Y-22900000D01*
X17169999Y-22842501D02*
X17252499Y-22842501D01*
D22*
X29720000Y-17630000D02*
X29720000Y-17100000D01*
X26700000Y-20650000D02*
X29720000Y-17630000D01*
X26700000Y-21322081D02*
X26700000Y-20650000D01*
X25222081Y-22800000D02*
X26700000Y-21322081D01*
X25100000Y-22800000D02*
X25222081Y-22800000D01*
D23*
X28420000Y-15800000D02*
X28870001Y-16250001D01*
X24243506Y-15800000D02*
X28420000Y-15800000D01*
X23375010Y-14931504D02*
X24243506Y-15800000D01*
X23375010Y-13325010D02*
X23375010Y-14931504D01*
X23050000Y-13000000D02*
X23375010Y-13325010D01*
X22612500Y-13000000D02*
X23050000Y-13000000D01*
X28870001Y-16250001D02*
X29720000Y-17100000D01*
X22168496Y-23450010D02*
X22368506Y-23250000D01*
X19168516Y-23450010D02*
X22168496Y-23450010D01*
X18618507Y-22900001D02*
X19168516Y-23450010D01*
X17227499Y-22900001D02*
X18618507Y-22900001D01*
X17169999Y-22842501D02*
X17227499Y-22900001D01*
D22*
X24650000Y-23250000D02*
X25100000Y-22800000D01*
X22368506Y-23250000D02*
X24650000Y-23250000D01*
X21112500Y-22650000D02*
X19612500Y-21150000D01*
X21187500Y-22650000D02*
X21112500Y-22650000D01*
X19612500Y-21150000D02*
X19612500Y-19650000D01*
X18975002Y-19650000D02*
X19612500Y-19650000D01*
X18950001Y-19624999D02*
X18975002Y-19650000D01*
X18424999Y-19624999D02*
X18950001Y-19624999D01*
X17600000Y-18800000D02*
X18424999Y-19624999D01*
X17600000Y-18050000D02*
X17600000Y-18800000D01*
X17300000Y-18050000D02*
X17600000Y-18050000D01*
X13687500Y-21787500D02*
X12825000Y-22650000D01*
X14250000Y-21787500D02*
X13687500Y-21787500D01*
X14712500Y-22250000D02*
X14250000Y-21787500D01*
X15900000Y-22250000D02*
X14712500Y-22250000D01*
X12825000Y-24625000D02*
X13200000Y-25000000D01*
X12825000Y-22650000D02*
X12825000Y-24625000D01*
X21187500Y-14550000D02*
X21187500Y-13050000D01*
X21187500Y-13050000D02*
X21187500Y-11550000D01*
D23*
X20850000Y-14850000D02*
X20850000Y-14887500D01*
X20574998Y-14850000D02*
X20850000Y-14850000D01*
X20074988Y-15350010D02*
X20574998Y-14850000D01*
X20850000Y-14887500D02*
X21187500Y-14550000D01*
X18859988Y-15350010D02*
X20074988Y-15350010D01*
X18600000Y-15609998D02*
X18859988Y-15350010D01*
X18600000Y-16575000D02*
X18600000Y-15609998D01*
X19500000Y-17475000D02*
X18600000Y-16575000D01*
X19500000Y-18050000D02*
X19500000Y-17475000D01*
D22*
X19612500Y-14550000D02*
X19612500Y-13050000D01*
X18650000Y-14550000D02*
X19612500Y-14550000D01*
X17300000Y-15900000D02*
X18650000Y-14550000D01*
X17300000Y-16150000D02*
X17300000Y-15900000D01*
X25625000Y-11825000D02*
X25625000Y-13100000D01*
X25500000Y-11700000D02*
X25625000Y-11825000D01*
X30887500Y-11700000D02*
X31400000Y-12212500D01*
X25500000Y-11700000D02*
X30887500Y-11700000D01*
D23*
X21750000Y-10650000D02*
X21900000Y-10800000D01*
X20843506Y-10650000D02*
X21750000Y-10650000D01*
X20424990Y-12675010D02*
X20424990Y-11068516D01*
X20424990Y-11068516D02*
X20843506Y-10650000D01*
X20050000Y-13050000D02*
X20424990Y-12675010D01*
X19612500Y-13050000D02*
X20050000Y-13050000D01*
D22*
X22800000Y-11700000D02*
X25500000Y-11700000D01*
X21900000Y-10800000D02*
X22800000Y-11700000D01*
D23*
X14250000Y-12420001D02*
X14250000Y-12212500D01*
X15479999Y-13650000D02*
X14250000Y-12420001D01*
X15900000Y-13650000D02*
X15479999Y-13650000D01*
D22*
X13637500Y-12212500D02*
X12825000Y-11400000D01*
X14250000Y-12212500D02*
X13637500Y-12212500D01*
X12825000Y-9375000D02*
X13200000Y-9000000D01*
X12825000Y-11400000D02*
X12825000Y-9375000D01*
X12862500Y-20212500D02*
X12550000Y-19900000D01*
X14250000Y-20212500D02*
X12862500Y-20212500D01*
X30287500Y-21800000D02*
X30300000Y-21787500D01*
X28350000Y-21800000D02*
X30287500Y-21800000D01*
D23*
X16450000Y-11750000D02*
X15900000Y-11750000D01*
X18100000Y-13400000D02*
X16450000Y-11750000D01*
X18100000Y-13650000D02*
X18100000Y-13400000D01*
X18100000Y-13200000D02*
X18100000Y-13650000D01*
X19612500Y-11687500D02*
X18100000Y-13200000D01*
X19612500Y-11550000D02*
X19612500Y-11687500D01*
X13400000Y-15175001D02*
X12425001Y-16150000D01*
X12425001Y-16150000D02*
X12350000Y-16150000D01*
X13400000Y-14600000D02*
X13400000Y-15175001D01*
X14212500Y-13787500D02*
X13400000Y-14600000D01*
X14250000Y-13787500D02*
X14212500Y-13787500D01*
X18100000Y-21750000D02*
X18100000Y-22250000D01*
X16700000Y-20350000D02*
X18100000Y-21750000D01*
X15900000Y-20350000D02*
X16700000Y-20350000D01*
D22*
X18150000Y-22200000D02*
X18100000Y-22250000D01*
X19150000Y-22200000D02*
X18150000Y-22200000D01*
X19600000Y-22650000D02*
X19150000Y-22200000D01*
X19612500Y-22650000D02*
X19600000Y-22650000D01*
X32500000Y-18000000D02*
X32500000Y-17000000D01*
X30300000Y-20200000D02*
X32500000Y-18000000D01*
X30300000Y-20212500D02*
X30300000Y-20200000D01*
X30462500Y-13787500D02*
X29775000Y-13100000D01*
X31400000Y-13787500D02*
X30462500Y-13787500D01*
X32500000Y-14887500D02*
X31400000Y-13787500D01*
X32500000Y-17000000D02*
X32500000Y-14887500D01*
D24*
G36*
X37978700Y-6824470D02*
G01*
X38130805Y-6839384D01*
X38256629Y-6877373D01*
X38372675Y-6939076D01*
X38474532Y-7022148D01*
X38558310Y-7123418D01*
X38620819Y-7239027D01*
X38659686Y-7364586D01*
X38673425Y-7495303D01*
X38661513Y-7626190D01*
X38624405Y-7752273D01*
X38563510Y-7868755D01*
X38481158Y-7971180D01*
X38380472Y-8055665D01*
X38265296Y-8118984D01*
X38140017Y-8158725D01*
X37997321Y-8174731D01*
X34994876Y-8074649D01*
X34964839Y-8076600D01*
X34961306Y-8076600D01*
X34956793Y-8077074D01*
X34955763Y-8077190D01*
X34946996Y-8077759D01*
X34944328Y-8078472D01*
X34859818Y-8087951D01*
X34831010Y-8094075D01*
X34802110Y-8099797D01*
X34797774Y-8101139D01*
X34704759Y-8130645D01*
X34677715Y-8142237D01*
X34650451Y-8153474D01*
X34646459Y-8155632D01*
X34560946Y-8202643D01*
X34536644Y-8219283D01*
X34512106Y-8235587D01*
X34508609Y-8238480D01*
X34433857Y-8301205D01*
X34413255Y-8322244D01*
X34392348Y-8343005D01*
X34389480Y-8346521D01*
X34328334Y-8422571D01*
X34312213Y-8447207D01*
X34295733Y-8471640D01*
X34293602Y-8475647D01*
X34248392Y-8562126D01*
X34237356Y-8589440D01*
X34225943Y-8616591D01*
X34224631Y-8620935D01*
X34197079Y-8714547D01*
X34191557Y-8743494D01*
X34185637Y-8772337D01*
X34185194Y-8776854D01*
X34176349Y-8874036D01*
X34176555Y-8903496D01*
X34176350Y-8932946D01*
X34176792Y-8937462D01*
X34186992Y-9034511D01*
X34192919Y-9063385D01*
X34198435Y-9092299D01*
X34199746Y-9096644D01*
X34228602Y-9189863D01*
X34240036Y-9217063D01*
X34251053Y-9244330D01*
X34253183Y-9248337D01*
X34299596Y-9334175D01*
X34316069Y-9358597D01*
X34332197Y-9383242D01*
X34335065Y-9386759D01*
X34397266Y-9461948D01*
X34418192Y-9482728D01*
X34438775Y-9503747D01*
X34442271Y-9506640D01*
X34517892Y-9568316D01*
X34542439Y-9584625D01*
X34566736Y-9601261D01*
X34570727Y-9603420D01*
X34656888Y-9649232D01*
X34684139Y-9660464D01*
X34711193Y-9672059D01*
X34715528Y-9673401D01*
X34808946Y-9701606D01*
X34837845Y-9707328D01*
X34866657Y-9713452D01*
X34871170Y-9713927D01*
X34962866Y-9722917D01*
X34973221Y-9724287D01*
X37978700Y-9824470D01*
X38130805Y-9839384D01*
X38256629Y-9877373D01*
X38372675Y-9939076D01*
X38474532Y-10022148D01*
X38558310Y-10123418D01*
X38620819Y-10239027D01*
X38659686Y-10364586D01*
X38666119Y-10425790D01*
X19165572Y-9831591D01*
X19121739Y-9725767D01*
X19056076Y-9627496D01*
X18972504Y-9543924D01*
X18874233Y-9478261D01*
X18765040Y-9433032D01*
X18649121Y-9409974D01*
X18530931Y-9409974D01*
X18415012Y-9433032D01*
X18305819Y-9478261D01*
X18273722Y-9499708D01*
X18205322Y-9463147D01*
X18107736Y-9433545D01*
X18006250Y-9423549D01*
X17568750Y-9423549D01*
X17467264Y-9433545D01*
X17369678Y-9463147D01*
X17279742Y-9511219D01*
X17200912Y-9575912D01*
X17136219Y-9654742D01*
X17088147Y-9744678D01*
X17081050Y-9768074D01*
X17051702Y-9767179D01*
X17051935Y-9725000D01*
X17044212Y-9646586D01*
X17021340Y-9571186D01*
X16984197Y-9501697D01*
X16934211Y-9440789D01*
X16873303Y-9390803D01*
X16803814Y-9353660D01*
X16728414Y-9330788D01*
X16650000Y-9323065D01*
X16337500Y-9325000D01*
X16237500Y-9425000D01*
X16237500Y-9742370D01*
X16187500Y-9740846D01*
X16187500Y-9425000D01*
X16087500Y-9325000D01*
X15775000Y-9323065D01*
X15696586Y-9330788D01*
X15621186Y-9353660D01*
X15593537Y-9368439D01*
X15625327Y-8410140D01*
X15621488Y-8351170D01*
X15606218Y-8294082D01*
X15580104Y-8241070D01*
X15544150Y-8194171D01*
X15499737Y-8155188D01*
X15448573Y-8125618D01*
X15392622Y-8106599D01*
X15334037Y-8098860D01*
X12335686Y-7999395D01*
X12276716Y-8003234D01*
X12219628Y-8018504D01*
X12166616Y-8044618D01*
X12119717Y-8080572D01*
X12080734Y-8124985D01*
X12051165Y-8176149D01*
X12032145Y-8232099D01*
X12024406Y-8290685D01*
X11980551Y-9612657D01*
X7329409Y-9470932D01*
X7339384Y-9369195D01*
X7377373Y-9243371D01*
X7439076Y-9127325D01*
X7522148Y-9025468D01*
X7623418Y-8941690D01*
X7739027Y-8879181D01*
X7864586Y-8840314D01*
X8006511Y-8825397D01*
X11005124Y-8925351D01*
X11035161Y-8923400D01*
X11038694Y-8923400D01*
X11043207Y-8922926D01*
X11044237Y-8922810D01*
X11053004Y-8922241D01*
X11055672Y-8921528D01*
X11140182Y-8912049D01*
X11168983Y-8905927D01*
X11197891Y-8900203D01*
X11202226Y-8898861D01*
X11295241Y-8869355D01*
X11322310Y-8857753D01*
X11349548Y-8846526D01*
X11353541Y-8844368D01*
X11439053Y-8797357D01*
X11463360Y-8780713D01*
X11487894Y-8764413D01*
X11491391Y-8761520D01*
X11566143Y-8698796D01*
X11586764Y-8677737D01*
X11607652Y-8656995D01*
X11610520Y-8653479D01*
X11671666Y-8577429D01*
X11687780Y-8552804D01*
X11704268Y-8528360D01*
X11706398Y-8524353D01*
X11751609Y-8437874D01*
X11762647Y-8410552D01*
X11774057Y-8383410D01*
X11775369Y-8379065D01*
X11802920Y-8285454D01*
X11808439Y-8256522D01*
X11814363Y-8227662D01*
X11814807Y-8223146D01*
X11823651Y-8125963D01*
X11823445Y-8096504D01*
X11823650Y-8067055D01*
X11823208Y-8062538D01*
X11813008Y-7965490D01*
X11807083Y-7936629D01*
X11801565Y-7907701D01*
X11800254Y-7903356D01*
X11771398Y-7810137D01*
X11759969Y-7782950D01*
X11748947Y-7755669D01*
X11746817Y-7751662D01*
X11700404Y-7665825D01*
X11683936Y-7641411D01*
X11667803Y-7616758D01*
X11664935Y-7613241D01*
X11602733Y-7538052D01*
X11581827Y-7517292D01*
X11561225Y-7496253D01*
X11557728Y-7493360D01*
X11482108Y-7431684D01*
X11457576Y-7415385D01*
X11433264Y-7398739D01*
X11429273Y-7396580D01*
X11343112Y-7350768D01*
X11315861Y-7339536D01*
X11288807Y-7327941D01*
X11284472Y-7326599D01*
X11191054Y-7298394D01*
X11162163Y-7292674D01*
X11133344Y-7286548D01*
X11128830Y-7286073D01*
X11037134Y-7277083D01*
X11026779Y-7275713D01*
X8021299Y-7175530D01*
X7869195Y-7160616D01*
X7743371Y-7122627D01*
X7627325Y-7060924D01*
X7525469Y-6977853D01*
X7494903Y-6940905D01*
X17400000Y-6940905D01*
X17400000Y-7059095D01*
X17423058Y-7175014D01*
X17468287Y-7284207D01*
X17533950Y-7382478D01*
X17617522Y-7466050D01*
X17715793Y-7531713D01*
X17824986Y-7576942D01*
X17940905Y-7600000D01*
X18059095Y-7600000D01*
X18175014Y-7576942D01*
X18284207Y-7531713D01*
X18382478Y-7466050D01*
X18466050Y-7382478D01*
X18531713Y-7284207D01*
X18576942Y-7175014D01*
X18600000Y-7059095D01*
X18600000Y-6940905D01*
X18576942Y-6824986D01*
X18531713Y-6715793D01*
X18466050Y-6617522D01*
X18382478Y-6533950D01*
X18284207Y-6468287D01*
X18175014Y-6423058D01*
X18059095Y-6400000D01*
X17940905Y-6400000D01*
X17824986Y-6423058D01*
X17715793Y-6468287D01*
X17617522Y-6533950D01*
X17533950Y-6617522D01*
X17468287Y-6715793D01*
X17423058Y-6824986D01*
X17400000Y-6940905D01*
X7494903Y-6940905D01*
X7441693Y-6876586D01*
X7379181Y-6760973D01*
X7340313Y-6635410D01*
X7326575Y-6504698D01*
X7338487Y-6373810D01*
X7375595Y-6247726D01*
X7436488Y-6131249D01*
X7518843Y-6028820D01*
X7619529Y-5944334D01*
X7734700Y-5881018D01*
X7859985Y-5841275D01*
X8002679Y-5825269D01*
X37978700Y-6824470D01*
G37*
X37978700Y-6824470D02*
X38130805Y-6839384D01*
X38256629Y-6877373D01*
X38372675Y-6939076D01*
X38474532Y-7022148D01*
X38558310Y-7123418D01*
X38620819Y-7239027D01*
X38659686Y-7364586D01*
X38673425Y-7495303D01*
X38661513Y-7626190D01*
X38624405Y-7752273D01*
X38563510Y-7868755D01*
X38481158Y-7971180D01*
X38380472Y-8055665D01*
X38265296Y-8118984D01*
X38140017Y-8158725D01*
X37997321Y-8174731D01*
X34994876Y-8074649D01*
X34964839Y-8076600D01*
X34961306Y-8076600D01*
X34956793Y-8077074D01*
X34955763Y-8077190D01*
X34946996Y-8077759D01*
X34944328Y-8078472D01*
X34859818Y-8087951D01*
X34831010Y-8094075D01*
X34802110Y-8099797D01*
X34797774Y-8101139D01*
X34704759Y-8130645D01*
X34677715Y-8142237D01*
X34650451Y-8153474D01*
X34646459Y-8155632D01*
X34560946Y-8202643D01*
X34536644Y-8219283D01*
X34512106Y-8235587D01*
X34508609Y-8238480D01*
X34433857Y-8301205D01*
X34413255Y-8322244D01*
X34392348Y-8343005D01*
X34389480Y-8346521D01*
X34328334Y-8422571D01*
X34312213Y-8447207D01*
X34295733Y-8471640D01*
X34293602Y-8475647D01*
X34248392Y-8562126D01*
X34237356Y-8589440D01*
X34225943Y-8616591D01*
X34224631Y-8620935D01*
X34197079Y-8714547D01*
X34191557Y-8743494D01*
X34185637Y-8772337D01*
X34185194Y-8776854D01*
X34176349Y-8874036D01*
X34176555Y-8903496D01*
X34176350Y-8932946D01*
X34176792Y-8937462D01*
X34186992Y-9034511D01*
X34192919Y-9063385D01*
X34198435Y-9092299D01*
X34199746Y-9096644D01*
X34228602Y-9189863D01*
X34240036Y-9217063D01*
X34251053Y-9244330D01*
X34253183Y-9248337D01*
X34299596Y-9334175D01*
X34316069Y-9358597D01*
X34332197Y-9383242D01*
X34335065Y-9386759D01*
X34397266Y-9461948D01*
X34418192Y-9482728D01*
X34438775Y-9503747D01*
X34442271Y-9506640D01*
X34517892Y-9568316D01*
X34542439Y-9584625D01*
X34566736Y-9601261D01*
X34570727Y-9603420D01*
X34656888Y-9649232D01*
X34684139Y-9660464D01*
X34711193Y-9672059D01*
X34715528Y-9673401D01*
X34808946Y-9701606D01*
X34837845Y-9707328D01*
X34866657Y-9713452D01*
X34871170Y-9713927D01*
X34962866Y-9722917D01*
X34973221Y-9724287D01*
X37978700Y-9824470D01*
X38130805Y-9839384D01*
X38256629Y-9877373D01*
X38372675Y-9939076D01*
X38474532Y-10022148D01*
X38558310Y-10123418D01*
X38620819Y-10239027D01*
X38659686Y-10364586D01*
X38666119Y-10425790D01*
X19165572Y-9831591D01*
X19121739Y-9725767D01*
X19056076Y-9627496D01*
X18972504Y-9543924D01*
X18874233Y-9478261D01*
X18765040Y-9433032D01*
X18649121Y-9409974D01*
X18530931Y-9409974D01*
X18415012Y-9433032D01*
X18305819Y-9478261D01*
X18273722Y-9499708D01*
X18205322Y-9463147D01*
X18107736Y-9433545D01*
X18006250Y-9423549D01*
X17568750Y-9423549D01*
X17467264Y-9433545D01*
X17369678Y-9463147D01*
X17279742Y-9511219D01*
X17200912Y-9575912D01*
X17136219Y-9654742D01*
X17088147Y-9744678D01*
X17081050Y-9768074D01*
X17051702Y-9767179D01*
X17051935Y-9725000D01*
X17044212Y-9646586D01*
X17021340Y-9571186D01*
X16984197Y-9501697D01*
X16934211Y-9440789D01*
X16873303Y-9390803D01*
X16803814Y-9353660D01*
X16728414Y-9330788D01*
X16650000Y-9323065D01*
X16337500Y-9325000D01*
X16237500Y-9425000D01*
X16237500Y-9742370D01*
X16187500Y-9740846D01*
X16187500Y-9425000D01*
X16087500Y-9325000D01*
X15775000Y-9323065D01*
X15696586Y-9330788D01*
X15621186Y-9353660D01*
X15593537Y-9368439D01*
X15625327Y-8410140D01*
X15621488Y-8351170D01*
X15606218Y-8294082D01*
X15580104Y-8241070D01*
X15544150Y-8194171D01*
X15499737Y-8155188D01*
X15448573Y-8125618D01*
X15392622Y-8106599D01*
X15334037Y-8098860D01*
X12335686Y-7999395D01*
X12276716Y-8003234D01*
X12219628Y-8018504D01*
X12166616Y-8044618D01*
X12119717Y-8080572D01*
X12080734Y-8124985D01*
X12051165Y-8176149D01*
X12032145Y-8232099D01*
X12024406Y-8290685D01*
X11980551Y-9612657D01*
X7329409Y-9470932D01*
X7339384Y-9369195D01*
X7377373Y-9243371D01*
X7439076Y-9127325D01*
X7522148Y-9025468D01*
X7623418Y-8941690D01*
X7739027Y-8879181D01*
X7864586Y-8840314D01*
X8006511Y-8825397D01*
X11005124Y-8925351D01*
X11035161Y-8923400D01*
X11038694Y-8923400D01*
X11043207Y-8922926D01*
X11044237Y-8922810D01*
X11053004Y-8922241D01*
X11055672Y-8921528D01*
X11140182Y-8912049D01*
X11168983Y-8905927D01*
X11197891Y-8900203D01*
X11202226Y-8898861D01*
X11295241Y-8869355D01*
X11322310Y-8857753D01*
X11349548Y-8846526D01*
X11353541Y-8844368D01*
X11439053Y-8797357D01*
X11463360Y-8780713D01*
X11487894Y-8764413D01*
X11491391Y-8761520D01*
X11566143Y-8698796D01*
X11586764Y-8677737D01*
X11607652Y-8656995D01*
X11610520Y-8653479D01*
X11671666Y-8577429D01*
X11687780Y-8552804D01*
X11704268Y-8528360D01*
X11706398Y-8524353D01*
X11751609Y-8437874D01*
X11762647Y-8410552D01*
X11774057Y-8383410D01*
X11775369Y-8379065D01*
X11802920Y-8285454D01*
X11808439Y-8256522D01*
X11814363Y-8227662D01*
X11814807Y-8223146D01*
X11823651Y-8125963D01*
X11823445Y-8096504D01*
X11823650Y-8067055D01*
X11823208Y-8062538D01*
X11813008Y-7965490D01*
X11807083Y-7936629D01*
X11801565Y-7907701D01*
X11800254Y-7903356D01*
X11771398Y-7810137D01*
X11759969Y-7782950D01*
X11748947Y-7755669D01*
X11746817Y-7751662D01*
X11700404Y-7665825D01*
X11683936Y-7641411D01*
X11667803Y-7616758D01*
X11664935Y-7613241D01*
X11602733Y-7538052D01*
X11581827Y-7517292D01*
X11561225Y-7496253D01*
X11557728Y-7493360D01*
X11482108Y-7431684D01*
X11457576Y-7415385D01*
X11433264Y-7398739D01*
X11429273Y-7396580D01*
X11343112Y-7350768D01*
X11315861Y-7339536D01*
X11288807Y-7327941D01*
X11284472Y-7326599D01*
X11191054Y-7298394D01*
X11162163Y-7292674D01*
X11133344Y-7286548D01*
X11128830Y-7286073D01*
X11037134Y-7277083D01*
X11026779Y-7275713D01*
X8021299Y-7175530D01*
X7869195Y-7160616D01*
X7743371Y-7122627D01*
X7627325Y-7060924D01*
X7525469Y-6977853D01*
X7494903Y-6940905D01*
X17400000Y-6940905D01*
X17400000Y-7059095D01*
X17423058Y-7175014D01*
X17468287Y-7284207D01*
X17533950Y-7382478D01*
X17617522Y-7466050D01*
X17715793Y-7531713D01*
X17824986Y-7576942D01*
X17940905Y-7600000D01*
X18059095Y-7600000D01*
X18175014Y-7576942D01*
X18284207Y-7531713D01*
X18382478Y-7466050D01*
X18466050Y-7382478D01*
X18531713Y-7284207D01*
X18576942Y-7175014D01*
X18600000Y-7059095D01*
X18600000Y-6940905D01*
X18576942Y-6824986D01*
X18531713Y-6715793D01*
X18466050Y-6617522D01*
X18382478Y-6533950D01*
X18284207Y-6468287D01*
X18175014Y-6423058D01*
X18059095Y-6400000D01*
X17940905Y-6400000D01*
X17824986Y-6423058D01*
X17715793Y-6468287D01*
X17617522Y-6533950D01*
X17533950Y-6617522D01*
X17468287Y-6715793D01*
X17423058Y-6824986D01*
X17400000Y-6940905D01*
X7494903Y-6940905D01*
X7441693Y-6876586D01*
X7379181Y-6760973D01*
X7340313Y-6635410D01*
X7326575Y-6504698D01*
X7338487Y-6373810D01*
X7375595Y-6247726D01*
X7436488Y-6131249D01*
X7518843Y-6028820D01*
X7619529Y-5944334D01*
X7734700Y-5881018D01*
X7859985Y-5841275D01*
X8002679Y-5825269D01*
X37978700Y-6824470D01*
G36*
X38675000Y-23484104D02*
G01*
X38660616Y-23630805D01*
X38622627Y-23756629D01*
X38560924Y-23872675D01*
X38477853Y-23974531D01*
X38376586Y-24058307D01*
X38260973Y-24120819D01*
X38135410Y-24159687D01*
X37987450Y-24175238D01*
X34993478Y-24275038D01*
X34990738Y-24275057D01*
X34989734Y-24275163D01*
X34973221Y-24275713D01*
X34966514Y-24276600D01*
X34961306Y-24276600D01*
X34956793Y-24277074D01*
X34859818Y-24287951D01*
X34831010Y-24294075D01*
X34802110Y-24299797D01*
X34797774Y-24301139D01*
X34704759Y-24330645D01*
X34677715Y-24342237D01*
X34650451Y-24353474D01*
X34646459Y-24355632D01*
X34560946Y-24402643D01*
X34536644Y-24419283D01*
X34512106Y-24435587D01*
X34508609Y-24438480D01*
X34433857Y-24501205D01*
X34413255Y-24522244D01*
X34392348Y-24543005D01*
X34389480Y-24546521D01*
X34328334Y-24622571D01*
X34312213Y-24647207D01*
X34295733Y-24671640D01*
X34293602Y-24675647D01*
X34248392Y-24762126D01*
X34237356Y-24789440D01*
X34225943Y-24816591D01*
X34224631Y-24820935D01*
X34197079Y-24914547D01*
X34191557Y-24943494D01*
X34185637Y-24972337D01*
X34185194Y-24976854D01*
X34176349Y-25074036D01*
X34176555Y-25103496D01*
X34176350Y-25132946D01*
X34176792Y-25137462D01*
X34186992Y-25234511D01*
X34192919Y-25263385D01*
X34198435Y-25292299D01*
X34199746Y-25296644D01*
X34228602Y-25389863D01*
X34240036Y-25417063D01*
X34251053Y-25444330D01*
X34253183Y-25448337D01*
X34299596Y-25534175D01*
X34316069Y-25558597D01*
X34332197Y-25583242D01*
X34335065Y-25586759D01*
X34397266Y-25661948D01*
X34418192Y-25682728D01*
X34438775Y-25703747D01*
X34442271Y-25706640D01*
X34517892Y-25768316D01*
X34542439Y-25784625D01*
X34566736Y-25801261D01*
X34570727Y-25803420D01*
X34656888Y-25849232D01*
X34684139Y-25860464D01*
X34711193Y-25872059D01*
X34715528Y-25873401D01*
X34808946Y-25901606D01*
X34837845Y-25907328D01*
X34866657Y-25913452D01*
X34871170Y-25913927D01*
X34941799Y-25920852D01*
X34946996Y-25922241D01*
X34994876Y-25925351D01*
X37989504Y-25825530D01*
X38130805Y-25839384D01*
X38256629Y-25877373D01*
X38372675Y-25939076D01*
X38474532Y-26022148D01*
X38558310Y-26123418D01*
X38620819Y-26239027D01*
X38659686Y-26364586D01*
X38673425Y-26495303D01*
X38661513Y-26626190D01*
X38624405Y-26752273D01*
X38563510Y-26868755D01*
X38481158Y-26971180D01*
X38380472Y-27055665D01*
X38265296Y-27118984D01*
X38140017Y-27158725D01*
X37995063Y-27174984D01*
X8010496Y-28174471D01*
X7869195Y-28160616D01*
X7743371Y-28122627D01*
X7627325Y-28060924D01*
X7525469Y-27977853D01*
X7441693Y-27876586D01*
X7379181Y-27760973D01*
X7340313Y-27635410D01*
X7326575Y-27504698D01*
X7338487Y-27373810D01*
X7375595Y-27247726D01*
X7436488Y-27131249D01*
X7518843Y-27028820D01*
X7619529Y-26944334D01*
X7734700Y-26881018D01*
X7859985Y-26841275D01*
X8004937Y-26825016D01*
X11006522Y-26724962D01*
X11009262Y-26724943D01*
X11010266Y-26724837D01*
X11026779Y-26724287D01*
X11033486Y-26723400D01*
X11038694Y-26723400D01*
X11043207Y-26722926D01*
X11140182Y-26712049D01*
X11168983Y-26705927D01*
X11197891Y-26700203D01*
X11202226Y-26698861D01*
X11295241Y-26669355D01*
X11322310Y-26657753D01*
X11349548Y-26646526D01*
X11353541Y-26644368D01*
X11439053Y-26597357D01*
X11463360Y-26580713D01*
X11487894Y-26564413D01*
X11491391Y-26561520D01*
X11566143Y-26498796D01*
X11586764Y-26477737D01*
X11607652Y-26456995D01*
X11610520Y-26453479D01*
X11671666Y-26377429D01*
X11687780Y-26352804D01*
X11704268Y-26328360D01*
X11706398Y-26324353D01*
X11751609Y-26237874D01*
X11762647Y-26210552D01*
X11774057Y-26183410D01*
X11775369Y-26179065D01*
X11802920Y-26085454D01*
X11808439Y-26056522D01*
X11814363Y-26027662D01*
X11814807Y-26023146D01*
X11823651Y-25925963D01*
X11823445Y-25896504D01*
X11823650Y-25867055D01*
X11823208Y-25862538D01*
X11813008Y-25765490D01*
X11807083Y-25736629D01*
X11801565Y-25707701D01*
X11800254Y-25703356D01*
X11771398Y-25610137D01*
X11759969Y-25582950D01*
X11748947Y-25555669D01*
X11746817Y-25551662D01*
X11700404Y-25465825D01*
X11683936Y-25441411D01*
X11667803Y-25416758D01*
X11664935Y-25413241D01*
X11602733Y-25338052D01*
X11581827Y-25317292D01*
X11561225Y-25296253D01*
X11557728Y-25293360D01*
X11482108Y-25231684D01*
X11457576Y-25215385D01*
X11433264Y-25198739D01*
X11429273Y-25196580D01*
X11343112Y-25150768D01*
X11315861Y-25139536D01*
X11288807Y-25127941D01*
X11284472Y-25126599D01*
X11191054Y-25098394D01*
X11162163Y-25092674D01*
X11133344Y-25086548D01*
X11128830Y-25086073D01*
X11058200Y-25079148D01*
X11053004Y-25077759D01*
X11005124Y-25074649D01*
X8010496Y-25174471D01*
X7869195Y-25160616D01*
X7743371Y-25122627D01*
X7627325Y-25060924D01*
X7525469Y-24977853D01*
X7441693Y-24876586D01*
X7379181Y-24760973D01*
X7340313Y-24635410D01*
X7325000Y-24489716D01*
X7325000Y-24455766D01*
X11977662Y-24300245D01*
X12024406Y-25709315D01*
X12032145Y-25767900D01*
X12051164Y-25823851D01*
X12080734Y-25875015D01*
X12119717Y-25919428D01*
X12166616Y-25955382D01*
X12219628Y-25981496D01*
X12276716Y-25996766D01*
X12335686Y-26000605D01*
X15334037Y-25901140D01*
X15392623Y-25893401D01*
X15448573Y-25874381D01*
X15499737Y-25844812D01*
X15544150Y-25805829D01*
X15580104Y-25758930D01*
X15606218Y-25705918D01*
X15621488Y-25648830D01*
X15625327Y-25589860D01*
X15585000Y-24374236D01*
X15625912Y-24424088D01*
X15704742Y-24488781D01*
X15794678Y-24536853D01*
X15892264Y-24566455D01*
X15993750Y-24576451D01*
X16431250Y-24576451D01*
X16532736Y-24566455D01*
X16630322Y-24536853D01*
X16720258Y-24488781D01*
X16799088Y-24424088D01*
X16863781Y-24345258D01*
X16911853Y-24255322D01*
X16941455Y-24157736D01*
X16943769Y-24134247D01*
X16948844Y-24134078D01*
X16948065Y-24275000D01*
X16955788Y-24353414D01*
X16978660Y-24428814D01*
X17015803Y-24498303D01*
X17065789Y-24559211D01*
X17126697Y-24609197D01*
X17196186Y-24646340D01*
X17271586Y-24669212D01*
X17350000Y-24676935D01*
X17662500Y-24675000D01*
X17762500Y-24575000D01*
X17762500Y-24106880D01*
X17812500Y-24105209D01*
X17812500Y-24575000D01*
X17912500Y-24675000D01*
X18225000Y-24676935D01*
X18303414Y-24669212D01*
X18378814Y-24646340D01*
X18448303Y-24609197D01*
X18509211Y-24559211D01*
X18559197Y-24498303D01*
X18596340Y-24428814D01*
X18619212Y-24353414D01*
X18626935Y-24275000D01*
X18625846Y-24078022D01*
X38675000Y-23407855D01*
X38675000Y-23484104D01*
G37*
X38675000Y-23484104D02*
X38660616Y-23630805D01*
X38622627Y-23756629D01*
X38560924Y-23872675D01*
X38477853Y-23974531D01*
X38376586Y-24058307D01*
X38260973Y-24120819D01*
X38135410Y-24159687D01*
X37987450Y-24175238D01*
X34993478Y-24275038D01*
X34990738Y-24275057D01*
X34989734Y-24275163D01*
X34973221Y-24275713D01*
X34966514Y-24276600D01*
X34961306Y-24276600D01*
X34956793Y-24277074D01*
X34859818Y-24287951D01*
X34831010Y-24294075D01*
X34802110Y-24299797D01*
X34797774Y-24301139D01*
X34704759Y-24330645D01*
X34677715Y-24342237D01*
X34650451Y-24353474D01*
X34646459Y-24355632D01*
X34560946Y-24402643D01*
X34536644Y-24419283D01*
X34512106Y-24435587D01*
X34508609Y-24438480D01*
X34433857Y-24501205D01*
X34413255Y-24522244D01*
X34392348Y-24543005D01*
X34389480Y-24546521D01*
X34328334Y-24622571D01*
X34312213Y-24647207D01*
X34295733Y-24671640D01*
X34293602Y-24675647D01*
X34248392Y-24762126D01*
X34237356Y-24789440D01*
X34225943Y-24816591D01*
X34224631Y-24820935D01*
X34197079Y-24914547D01*
X34191557Y-24943494D01*
X34185637Y-24972337D01*
X34185194Y-24976854D01*
X34176349Y-25074036D01*
X34176555Y-25103496D01*
X34176350Y-25132946D01*
X34176792Y-25137462D01*
X34186992Y-25234511D01*
X34192919Y-25263385D01*
X34198435Y-25292299D01*
X34199746Y-25296644D01*
X34228602Y-25389863D01*
X34240036Y-25417063D01*
X34251053Y-25444330D01*
X34253183Y-25448337D01*
X34299596Y-25534175D01*
X34316069Y-25558597D01*
X34332197Y-25583242D01*
X34335065Y-25586759D01*
X34397266Y-25661948D01*
X34418192Y-25682728D01*
X34438775Y-25703747D01*
X34442271Y-25706640D01*
X34517892Y-25768316D01*
X34542439Y-25784625D01*
X34566736Y-25801261D01*
X34570727Y-25803420D01*
X34656888Y-25849232D01*
X34684139Y-25860464D01*
X34711193Y-25872059D01*
X34715528Y-25873401D01*
X34808946Y-25901606D01*
X34837845Y-25907328D01*
X34866657Y-25913452D01*
X34871170Y-25913927D01*
X34941799Y-25920852D01*
X34946996Y-25922241D01*
X34994876Y-25925351D01*
X37989504Y-25825530D01*
X38130805Y-25839384D01*
X38256629Y-25877373D01*
X38372675Y-25939076D01*
X38474532Y-26022148D01*
X38558310Y-26123418D01*
X38620819Y-26239027D01*
X38659686Y-26364586D01*
X38673425Y-26495303D01*
X38661513Y-26626190D01*
X38624405Y-26752273D01*
X38563510Y-26868755D01*
X38481158Y-26971180D01*
X38380472Y-27055665D01*
X38265296Y-27118984D01*
X38140017Y-27158725D01*
X37995063Y-27174984D01*
X8010496Y-28174471D01*
X7869195Y-28160616D01*
X7743371Y-28122627D01*
X7627325Y-28060924D01*
X7525469Y-27977853D01*
X7441693Y-27876586D01*
X7379181Y-27760973D01*
X7340313Y-27635410D01*
X7326575Y-27504698D01*
X7338487Y-27373810D01*
X7375595Y-27247726D01*
X7436488Y-27131249D01*
X7518843Y-27028820D01*
X7619529Y-26944334D01*
X7734700Y-26881018D01*
X7859985Y-26841275D01*
X8004937Y-26825016D01*
X11006522Y-26724962D01*
X11009262Y-26724943D01*
X11010266Y-26724837D01*
X11026779Y-26724287D01*
X11033486Y-26723400D01*
X11038694Y-26723400D01*
X11043207Y-26722926D01*
X11140182Y-26712049D01*
X11168983Y-26705927D01*
X11197891Y-26700203D01*
X11202226Y-26698861D01*
X11295241Y-26669355D01*
X11322310Y-26657753D01*
X11349548Y-26646526D01*
X11353541Y-26644368D01*
X11439053Y-26597357D01*
X11463360Y-26580713D01*
X11487894Y-26564413D01*
X11491391Y-26561520D01*
X11566143Y-26498796D01*
X11586764Y-26477737D01*
X11607652Y-26456995D01*
X11610520Y-26453479D01*
X11671666Y-26377429D01*
X11687780Y-26352804D01*
X11704268Y-26328360D01*
X11706398Y-26324353D01*
X11751609Y-26237874D01*
X11762647Y-26210552D01*
X11774057Y-26183410D01*
X11775369Y-26179065D01*
X11802920Y-26085454D01*
X11808439Y-26056522D01*
X11814363Y-26027662D01*
X11814807Y-26023146D01*
X11823651Y-25925963D01*
X11823445Y-25896504D01*
X11823650Y-25867055D01*
X11823208Y-25862538D01*
X11813008Y-25765490D01*
X11807083Y-25736629D01*
X11801565Y-25707701D01*
X11800254Y-25703356D01*
X11771398Y-25610137D01*
X11759969Y-25582950D01*
X11748947Y-25555669D01*
X11746817Y-25551662D01*
X11700404Y-25465825D01*
X11683936Y-25441411D01*
X11667803Y-25416758D01*
X11664935Y-25413241D01*
X11602733Y-25338052D01*
X11581827Y-25317292D01*
X11561225Y-25296253D01*
X11557728Y-25293360D01*
X11482108Y-25231684D01*
X11457576Y-25215385D01*
X11433264Y-25198739D01*
X11429273Y-25196580D01*
X11343112Y-25150768D01*
X11315861Y-25139536D01*
X11288807Y-25127941D01*
X11284472Y-25126599D01*
X11191054Y-25098394D01*
X11162163Y-25092674D01*
X11133344Y-25086548D01*
X11128830Y-25086073D01*
X11058200Y-25079148D01*
X11053004Y-25077759D01*
X11005124Y-25074649D01*
X8010496Y-25174471D01*
X7869195Y-25160616D01*
X7743371Y-25122627D01*
X7627325Y-25060924D01*
X7525469Y-24977853D01*
X7441693Y-24876586D01*
X7379181Y-24760973D01*
X7340313Y-24635410D01*
X7325000Y-24489716D01*
X7325000Y-24455766D01*
X11977662Y-24300245D01*
X12024406Y-25709315D01*
X12032145Y-25767900D01*
X12051164Y-25823851D01*
X12080734Y-25875015D01*
X12119717Y-25919428D01*
X12166616Y-25955382D01*
X12219628Y-25981496D01*
X12276716Y-25996766D01*
X12335686Y-26000605D01*
X15334037Y-25901140D01*
X15392623Y-25893401D01*
X15448573Y-25874381D01*
X15499737Y-25844812D01*
X15544150Y-25805829D01*
X15580104Y-25758930D01*
X15606218Y-25705918D01*
X15621488Y-25648830D01*
X15625327Y-25589860D01*
X15585000Y-24374236D01*
X15625912Y-24424088D01*
X15704742Y-24488781D01*
X15794678Y-24536853D01*
X15892264Y-24566455D01*
X15993750Y-24576451D01*
X16431250Y-24576451D01*
X16532736Y-24566455D01*
X16630322Y-24536853D01*
X16720258Y-24488781D01*
X16799088Y-24424088D01*
X16863781Y-24345258D01*
X16911853Y-24255322D01*
X16941455Y-24157736D01*
X16943769Y-24134247D01*
X16948844Y-24134078D01*
X16948065Y-24275000D01*
X16955788Y-24353414D01*
X16978660Y-24428814D01*
X17015803Y-24498303D01*
X17065789Y-24559211D01*
X17126697Y-24609197D01*
X17196186Y-24646340D01*
X17271586Y-24669212D01*
X17350000Y-24676935D01*
X17662500Y-24675000D01*
X17762500Y-24575000D01*
X17762500Y-24106880D01*
X17812500Y-24105209D01*
X17812500Y-24575000D01*
X17912500Y-24675000D01*
X18225000Y-24676935D01*
X18303414Y-24669212D01*
X18378814Y-24646340D01*
X18448303Y-24609197D01*
X18509211Y-24559211D01*
X18559197Y-24498303D01*
X18596340Y-24428814D01*
X18619212Y-24353414D01*
X18626935Y-24275000D01*
X18625846Y-24078022D01*
X38675000Y-23407855D01*
X38675000Y-23484104D01*
G36*
X34102503Y-9120534D02*
G01*
X34104219Y-9126215D01*
X34133075Y-9219433D01*
X34147982Y-9254895D01*
X34162432Y-9290661D01*
X34165218Y-9295900D01*
X34211631Y-9381738D01*
X34233184Y-9413691D01*
X34254263Y-9445903D01*
X34258013Y-9450502D01*
X34320215Y-9525691D01*
X34347538Y-9552824D01*
X34374495Y-9580352D01*
X34379068Y-9584134D01*
X34379071Y-9584137D01*
X34379075Y-9584139D01*
X34454689Y-9645810D01*
X34486733Y-9667100D01*
X34518561Y-9688893D01*
X34523781Y-9691715D01*
X34609942Y-9737527D01*
X34645532Y-9752196D01*
X34680956Y-9767379D01*
X34686622Y-9769132D01*
X34686629Y-9769135D01*
X34686637Y-9769137D01*
X34780043Y-9797338D01*
X34817803Y-9804815D01*
X34855510Y-9812830D01*
X34861406Y-9813449D01*
X34861409Y-9813450D01*
X34861412Y-9813450D01*
X34951431Y-9822276D01*
X34964979Y-9824068D01*
X37972142Y-9924307D01*
X38111290Y-9937951D01*
X38218339Y-9970271D01*
X38317076Y-10022770D01*
X38403725Y-10093439D01*
X38475008Y-10179605D01*
X38528193Y-10277968D01*
X38561258Y-10384786D01*
X38575001Y-10515534D01*
X38575001Y-11478084D01*
X38510816Y-11358003D01*
X38367107Y-11182893D01*
X38191997Y-11039184D01*
X37992215Y-10932398D01*
X37775439Y-10866640D01*
X37606492Y-10850000D01*
X35993508Y-10850000D01*
X35824561Y-10866640D01*
X35607785Y-10932398D01*
X35408003Y-11039184D01*
X35232893Y-11182893D01*
X35089184Y-11358003D01*
X34982398Y-11557785D01*
X34916640Y-11774561D01*
X34894436Y-12000000D01*
X34916640Y-12225439D01*
X34982398Y-12442215D01*
X35089184Y-12641997D01*
X35232893Y-12817107D01*
X35408003Y-12960816D01*
X35607785Y-13067602D01*
X35824561Y-13133360D01*
X35993508Y-13150000D01*
X37606492Y-13150000D01*
X37775439Y-13133360D01*
X37992215Y-13067602D01*
X38191997Y-12960816D01*
X38367107Y-12817107D01*
X38510816Y-12641997D01*
X38575001Y-12521916D01*
X38575000Y-23479210D01*
X38562049Y-23611289D01*
X38529729Y-23718339D01*
X38477231Y-23817074D01*
X38406558Y-23903728D01*
X38320396Y-23975007D01*
X38222031Y-24028193D01*
X38115213Y-24061259D01*
X37980548Y-24075413D01*
X34991471Y-24175049D01*
X34990036Y-24175059D01*
X34989510Y-24175114D01*
X34964979Y-24175932D01*
X34956322Y-24177077D01*
X34951548Y-24177077D01*
X34945647Y-24177697D01*
X34848672Y-24188574D01*
X34810981Y-24196585D01*
X34773206Y-24204065D01*
X34767545Y-24205817D01*
X34767538Y-24205819D01*
X34767532Y-24205822D01*
X34674522Y-24235326D01*
X34639149Y-24250487D01*
X34603504Y-24265179D01*
X34598284Y-24268002D01*
X34512771Y-24315012D01*
X34480982Y-24336779D01*
X34448902Y-24358093D01*
X34444339Y-24361868D01*
X34444331Y-24361874D01*
X34444325Y-24361881D01*
X34369578Y-24424600D01*
X34342640Y-24452109D01*
X34315296Y-24479262D01*
X34311546Y-24483861D01*
X34250400Y-24559911D01*
X34229335Y-24592102D01*
X34207767Y-24624078D01*
X34204981Y-24629317D01*
X34159771Y-24715797D01*
X34145342Y-24751510D01*
X34130415Y-24787019D01*
X34128700Y-24792700D01*
X34101148Y-24886312D01*
X34098537Y-24900000D01*
X15702981Y-24900000D01*
X15692891Y-24595836D01*
X15756224Y-24629688D01*
X15872660Y-24665009D01*
X15993750Y-24676935D01*
X16431250Y-24676935D01*
X16552340Y-24665009D01*
X16668776Y-24629688D01*
X16776084Y-24572331D01*
X16870141Y-24495141D01*
X16947331Y-24401084D01*
X16961951Y-24373731D01*
X16978660Y-24428814D01*
X17015803Y-24498303D01*
X17065789Y-24559211D01*
X17126697Y-24609197D01*
X17196186Y-24646340D01*
X17271586Y-24669212D01*
X17350000Y-24676935D01*
X17662500Y-24675000D01*
X17762500Y-24575000D01*
X17762500Y-23825000D01*
X17812500Y-23825000D01*
X17812500Y-24575000D01*
X17912500Y-24675000D01*
X18225000Y-24676935D01*
X18303414Y-24669212D01*
X18378814Y-24646340D01*
X18448303Y-24609197D01*
X18509211Y-24559211D01*
X18559197Y-24498303D01*
X18596340Y-24428814D01*
X18619212Y-24353414D01*
X18626935Y-24275000D01*
X18625000Y-23925000D01*
X18525000Y-23825000D01*
X17812500Y-23825000D01*
X17762500Y-23825000D01*
X17742500Y-23825000D01*
X17742500Y-23775000D01*
X17762500Y-23775000D01*
X17762500Y-23755000D01*
X17812500Y-23755000D01*
X17812500Y-23775000D01*
X18525000Y-23775000D01*
X18625000Y-23675000D01*
X18625143Y-23649099D01*
X18779049Y-23803005D01*
X18795489Y-23823037D01*
X18875430Y-23888643D01*
X18966635Y-23937393D01*
X19065598Y-23967413D01*
X19142728Y-23975010D01*
X19142735Y-23975010D01*
X19168515Y-23977549D01*
X19194295Y-23975010D01*
X22142716Y-23975010D01*
X22168496Y-23977549D01*
X22194276Y-23975010D01*
X22194284Y-23975010D01*
X22271414Y-23967413D01*
X22370377Y-23937393D01*
X22461582Y-23888643D01*
X22508669Y-23850000D01*
X24620526Y-23850000D01*
X24650000Y-23852903D01*
X24679474Y-23850000D01*
X24767621Y-23841318D01*
X24880721Y-23807010D01*
X24890216Y-23801935D01*
X25700000Y-23801935D01*
X25778414Y-23794212D01*
X25853814Y-23771340D01*
X25923303Y-23734197D01*
X25984211Y-23684211D01*
X26034197Y-23623303D01*
X26071340Y-23553814D01*
X26094212Y-23478414D01*
X26101935Y-23400000D01*
X26101935Y-22768673D01*
X27103420Y-21767189D01*
X27126317Y-21748398D01*
X27198065Y-21660973D01*
X27198065Y-22600000D01*
X27205788Y-22678414D01*
X27228660Y-22753814D01*
X27265803Y-22823303D01*
X27315789Y-22884211D01*
X27376697Y-22934197D01*
X27446186Y-22971340D01*
X27521586Y-22994212D01*
X27600000Y-23001935D01*
X29100000Y-23001935D01*
X29178414Y-22994212D01*
X29253814Y-22971340D01*
X29323303Y-22934197D01*
X29384211Y-22884211D01*
X29434197Y-22823303D01*
X29471340Y-22753814D01*
X29494212Y-22678414D01*
X29501935Y-22600000D01*
X29501935Y-22400000D01*
X29567813Y-22400000D01*
X29604859Y-22445141D01*
X29698916Y-22522331D01*
X29806224Y-22579688D01*
X29922660Y-22615009D01*
X30043750Y-22626935D01*
X30556250Y-22626935D01*
X30677340Y-22615009D01*
X30793776Y-22579688D01*
X30901084Y-22522331D01*
X30995141Y-22445141D01*
X31002658Y-22435981D01*
X32850000Y-22435981D01*
X32850000Y-22564019D01*
X32874979Y-22689598D01*
X32923978Y-22807890D01*
X32995112Y-22914351D01*
X33085649Y-23004888D01*
X33192110Y-23076022D01*
X33310402Y-23125021D01*
X33435981Y-23150000D01*
X33564019Y-23150000D01*
X33689598Y-23125021D01*
X33807890Y-23076022D01*
X33914351Y-23004888D01*
X34004888Y-22914351D01*
X34076022Y-22807890D01*
X34125021Y-22689598D01*
X34150000Y-22564019D01*
X34150000Y-22435981D01*
X34125021Y-22310402D01*
X34076022Y-22192110D01*
X34004888Y-22085649D01*
X33914351Y-21995112D01*
X33807890Y-21923978D01*
X33689598Y-21874979D01*
X33564019Y-21850000D01*
X33435981Y-21850000D01*
X33310402Y-21874979D01*
X33192110Y-21923978D01*
X33085649Y-21995112D01*
X32995112Y-22085649D01*
X32923978Y-22192110D01*
X32874979Y-22310402D01*
X32850000Y-22435981D01*
X31002658Y-22435981D01*
X31072331Y-22351084D01*
X31129688Y-22243776D01*
X31165009Y-22127340D01*
X31176935Y-22006250D01*
X31176935Y-21568750D01*
X31165009Y-21447660D01*
X31129688Y-21331224D01*
X31072331Y-21223916D01*
X30995141Y-21129859D01*
X30901084Y-21052669D01*
X30802547Y-21000000D01*
X30901084Y-20947331D01*
X30995141Y-20870141D01*
X31072331Y-20776084D01*
X31129688Y-20668776D01*
X31165009Y-20552340D01*
X31176935Y-20431250D01*
X31176935Y-20171592D01*
X32343978Y-19004549D01*
X33218338Y-19004549D01*
X33277972Y-19216988D01*
X33379921Y-19418118D01*
X33519150Y-19595494D01*
X33690308Y-19742300D01*
X33886817Y-19852894D01*
X34101126Y-19923026D01*
X34325000Y-19950000D01*
X35075000Y-19950000D01*
X35075000Y-18825000D01*
X35125000Y-18825000D01*
X35125000Y-19950000D01*
X35875000Y-19950000D01*
X36098874Y-19923026D01*
X36313183Y-19852894D01*
X36509692Y-19742300D01*
X36680850Y-19595494D01*
X36820079Y-19418118D01*
X36922028Y-19216988D01*
X36981662Y-19004549D01*
X36899702Y-18825000D01*
X35125000Y-18825000D01*
X35075000Y-18825000D01*
X33300298Y-18825000D01*
X33218338Y-19004549D01*
X32343978Y-19004549D01*
X32753076Y-18595451D01*
X33218338Y-18595451D01*
X33300298Y-18775000D01*
X35075000Y-18775000D01*
X35075000Y-17650000D01*
X35125000Y-17650000D01*
X35125000Y-18775000D01*
X36899702Y-18775000D01*
X36981662Y-18595451D01*
X36922028Y-18383012D01*
X36820079Y-18181882D01*
X36680850Y-18004506D01*
X36509692Y-17857700D01*
X36313183Y-17747106D01*
X36098874Y-17676974D01*
X35875000Y-17650000D01*
X35125000Y-17650000D01*
X35075000Y-17650000D01*
X34325000Y-17650000D01*
X34101126Y-17676974D01*
X33886817Y-17747106D01*
X33690308Y-17857700D01*
X33519150Y-18004506D01*
X33379921Y-18181882D01*
X33277972Y-18383012D01*
X33218338Y-18595451D01*
X32753076Y-18595451D01*
X32903420Y-18445108D01*
X32926317Y-18426317D01*
X33001296Y-18334955D01*
X33045700Y-18251881D01*
X33057010Y-18230722D01*
X33091318Y-18117621D01*
X33102903Y-18000000D01*
X33101077Y-17981465D01*
X33233082Y-17893263D01*
X33393263Y-17733082D01*
X33519116Y-17544729D01*
X33605806Y-17335443D01*
X33650000Y-17113265D01*
X33650000Y-16886735D01*
X33605806Y-16664557D01*
X33519116Y-16455271D01*
X33393263Y-16266918D01*
X33233082Y-16106737D01*
X33100000Y-16017815D01*
X33100000Y-15404549D01*
X33218338Y-15404549D01*
X33277972Y-15616988D01*
X33379921Y-15818118D01*
X33519150Y-15995494D01*
X33690308Y-16142300D01*
X33886817Y-16252894D01*
X34101126Y-16323026D01*
X34325000Y-16350000D01*
X35075000Y-16350000D01*
X35075000Y-15225000D01*
X35125000Y-15225000D01*
X35125000Y-16350000D01*
X35875000Y-16350000D01*
X36098874Y-16323026D01*
X36313183Y-16252894D01*
X36509692Y-16142300D01*
X36680850Y-15995494D01*
X36820079Y-15818118D01*
X36922028Y-15616988D01*
X36981662Y-15404549D01*
X36899702Y-15225000D01*
X35125000Y-15225000D01*
X35075000Y-15225000D01*
X33300298Y-15225000D01*
X33218338Y-15404549D01*
X33100000Y-15404549D01*
X33100000Y-14995451D01*
X33218338Y-14995451D01*
X33300298Y-15175000D01*
X35075000Y-15175000D01*
X35075000Y-14050000D01*
X35125000Y-14050000D01*
X35125000Y-15175000D01*
X36899702Y-15175000D01*
X36981662Y-14995451D01*
X36922028Y-14783012D01*
X36820079Y-14581882D01*
X36680850Y-14404506D01*
X36509692Y-14257700D01*
X36313183Y-14147106D01*
X36098874Y-14076974D01*
X35875000Y-14050000D01*
X35125000Y-14050000D01*
X35075000Y-14050000D01*
X34325000Y-14050000D01*
X34101126Y-14076974D01*
X33886817Y-14147106D01*
X33690308Y-14257700D01*
X33519150Y-14404506D01*
X33379921Y-14581882D01*
X33277972Y-14783012D01*
X33218338Y-14995451D01*
X33100000Y-14995451D01*
X33100000Y-14916974D01*
X33102903Y-14887500D01*
X33096670Y-14824212D01*
X33091318Y-14769879D01*
X33057010Y-14656779D01*
X33001296Y-14552545D01*
X32926317Y-14461183D01*
X32903419Y-14442391D01*
X32276935Y-13815908D01*
X32276935Y-13568750D01*
X32265009Y-13447660D01*
X32229688Y-13331224D01*
X32172331Y-13223916D01*
X32095141Y-13129859D01*
X32001084Y-13052669D01*
X31902547Y-13000000D01*
X32001084Y-12947331D01*
X32095141Y-12870141D01*
X32172331Y-12776084D01*
X32229688Y-12668776D01*
X32265009Y-12552340D01*
X32276935Y-12431250D01*
X32276935Y-11993750D01*
X32265009Y-11872660D01*
X32229688Y-11756224D01*
X32172331Y-11648916D01*
X32095141Y-11554859D01*
X32001084Y-11477669D01*
X31893776Y-11420312D01*
X31777340Y-11384991D01*
X31656250Y-11373065D01*
X31409092Y-11373065D01*
X31332613Y-11296585D01*
X31313817Y-11273683D01*
X31222455Y-11198704D01*
X31118221Y-11142990D01*
X31005121Y-11108682D01*
X30916974Y-11100000D01*
X30887500Y-11097097D01*
X30858026Y-11100000D01*
X25943822Y-11100000D01*
X25950000Y-11068944D01*
X25950000Y-10931056D01*
X25923099Y-10795818D01*
X25870332Y-10668426D01*
X25793726Y-10553776D01*
X25696224Y-10456274D01*
X25581574Y-10379668D01*
X25454182Y-10326901D01*
X25318944Y-10300000D01*
X25181056Y-10300000D01*
X25045818Y-10326901D01*
X24918426Y-10379668D01*
X24803776Y-10456274D01*
X24706274Y-10553776D01*
X24629668Y-10668426D01*
X24576901Y-10795818D01*
X24550000Y-10931056D01*
X24550000Y-11068944D01*
X24556178Y-11100000D01*
X23048528Y-11100000D01*
X22303422Y-10354895D01*
X22234954Y-10298705D01*
X22130721Y-10242991D01*
X22052828Y-10219362D01*
X22043086Y-10211367D01*
X21951881Y-10162617D01*
X21852918Y-10132597D01*
X21775788Y-10125000D01*
X21775780Y-10125000D01*
X21750000Y-10122461D01*
X21724220Y-10125000D01*
X20869285Y-10125000D01*
X20843505Y-10122461D01*
X20817725Y-10125000D01*
X20817718Y-10125000D01*
X20740588Y-10132597D01*
X20641625Y-10162617D01*
X20550420Y-10211367D01*
X20470479Y-10276973D01*
X20454039Y-10297005D01*
X20121731Y-10629314D01*
X18974101Y-10595226D01*
X19036250Y-10553700D01*
X19133752Y-10456198D01*
X19210358Y-10341548D01*
X19263125Y-10214156D01*
X19290026Y-10078918D01*
X19290026Y-9941030D01*
X19263125Y-9805792D01*
X19210358Y-9678400D01*
X19133752Y-9563750D01*
X19036250Y-9466248D01*
X18921600Y-9389642D01*
X18794208Y-9336875D01*
X18658970Y-9309974D01*
X18521082Y-9309974D01*
X18385844Y-9336875D01*
X18270558Y-9384627D01*
X18243776Y-9370312D01*
X18127340Y-9334991D01*
X18006250Y-9323065D01*
X17568750Y-9323065D01*
X17447660Y-9334991D01*
X17331224Y-9370312D01*
X17223916Y-9427669D01*
X17129859Y-9504859D01*
X17052669Y-9598916D01*
X17038049Y-9626269D01*
X17021340Y-9571186D01*
X16984197Y-9501697D01*
X16934211Y-9440789D01*
X16873303Y-9390803D01*
X16803814Y-9353660D01*
X16728414Y-9330788D01*
X16650000Y-9323065D01*
X16337500Y-9325000D01*
X16237500Y-9425000D01*
X16237500Y-10175000D01*
X16257500Y-10175000D01*
X16257500Y-10225000D01*
X16237500Y-10225000D01*
X16237500Y-10245000D01*
X16187500Y-10245000D01*
X16187500Y-10225000D01*
X16167500Y-10225000D01*
X16167500Y-10175000D01*
X16187500Y-10175000D01*
X16187500Y-9425000D01*
X16087500Y-9325000D01*
X15775000Y-9323065D01*
X15696586Y-9330788D01*
X15695312Y-9331174D01*
X15702981Y-9100000D01*
X34098586Y-9100000D01*
X34102503Y-9120534D01*
G37*
X34102503Y-9120534D02*
X34104219Y-9126215D01*
X34133075Y-9219433D01*
X34147982Y-9254895D01*
X34162432Y-9290661D01*
X34165218Y-9295900D01*
X34211631Y-9381738D01*
X34233184Y-9413691D01*
X34254263Y-9445903D01*
X34258013Y-9450502D01*
X34320215Y-9525691D01*
X34347538Y-9552824D01*
X34374495Y-9580352D01*
X34379068Y-9584134D01*
X34379071Y-9584137D01*
X34379075Y-9584139D01*
X34454689Y-9645810D01*
X34486733Y-9667100D01*
X34518561Y-9688893D01*
X34523781Y-9691715D01*
X34609942Y-9737527D01*
X34645532Y-9752196D01*
X34680956Y-9767379D01*
X34686622Y-9769132D01*
X34686629Y-9769135D01*
X34686637Y-9769137D01*
X34780043Y-9797338D01*
X34817803Y-9804815D01*
X34855510Y-9812830D01*
X34861406Y-9813449D01*
X34861409Y-9813450D01*
X34861412Y-9813450D01*
X34951431Y-9822276D01*
X34964979Y-9824068D01*
X37972142Y-9924307D01*
X38111290Y-9937951D01*
X38218339Y-9970271D01*
X38317076Y-10022770D01*
X38403725Y-10093439D01*
X38475008Y-10179605D01*
X38528193Y-10277968D01*
X38561258Y-10384786D01*
X38575001Y-10515534D01*
X38575001Y-11478084D01*
X38510816Y-11358003D01*
X38367107Y-11182893D01*
X38191997Y-11039184D01*
X37992215Y-10932398D01*
X37775439Y-10866640D01*
X37606492Y-10850000D01*
X35993508Y-10850000D01*
X35824561Y-10866640D01*
X35607785Y-10932398D01*
X35408003Y-11039184D01*
X35232893Y-11182893D01*
X35089184Y-11358003D01*
X34982398Y-11557785D01*
X34916640Y-11774561D01*
X34894436Y-12000000D01*
X34916640Y-12225439D01*
X34982398Y-12442215D01*
X35089184Y-12641997D01*
X35232893Y-12817107D01*
X35408003Y-12960816D01*
X35607785Y-13067602D01*
X35824561Y-13133360D01*
X35993508Y-13150000D01*
X37606492Y-13150000D01*
X37775439Y-13133360D01*
X37992215Y-13067602D01*
X38191997Y-12960816D01*
X38367107Y-12817107D01*
X38510816Y-12641997D01*
X38575001Y-12521916D01*
X38575000Y-23479210D01*
X38562049Y-23611289D01*
X38529729Y-23718339D01*
X38477231Y-23817074D01*
X38406558Y-23903728D01*
X38320396Y-23975007D01*
X38222031Y-24028193D01*
X38115213Y-24061259D01*
X37980548Y-24075413D01*
X34991471Y-24175049D01*
X34990036Y-24175059D01*
X34989510Y-24175114D01*
X34964979Y-24175932D01*
X34956322Y-24177077D01*
X34951548Y-24177077D01*
X34945647Y-24177697D01*
X34848672Y-24188574D01*
X34810981Y-24196585D01*
X34773206Y-24204065D01*
X34767545Y-24205817D01*
X34767538Y-24205819D01*
X34767532Y-24205822D01*
X34674522Y-24235326D01*
X34639149Y-24250487D01*
X34603504Y-24265179D01*
X34598284Y-24268002D01*
X34512771Y-24315012D01*
X34480982Y-24336779D01*
X34448902Y-24358093D01*
X34444339Y-24361868D01*
X34444331Y-24361874D01*
X34444325Y-24361881D01*
X34369578Y-24424600D01*
X34342640Y-24452109D01*
X34315296Y-24479262D01*
X34311546Y-24483861D01*
X34250400Y-24559911D01*
X34229335Y-24592102D01*
X34207767Y-24624078D01*
X34204981Y-24629317D01*
X34159771Y-24715797D01*
X34145342Y-24751510D01*
X34130415Y-24787019D01*
X34128700Y-24792700D01*
X34101148Y-24886312D01*
X34098537Y-24900000D01*
X15702981Y-24900000D01*
X15692891Y-24595836D01*
X15756224Y-24629688D01*
X15872660Y-24665009D01*
X15993750Y-24676935D01*
X16431250Y-24676935D01*
X16552340Y-24665009D01*
X16668776Y-24629688D01*
X16776084Y-24572331D01*
X16870141Y-24495141D01*
X16947331Y-24401084D01*
X16961951Y-24373731D01*
X16978660Y-24428814D01*
X17015803Y-24498303D01*
X17065789Y-24559211D01*
X17126697Y-24609197D01*
X17196186Y-24646340D01*
X17271586Y-24669212D01*
X17350000Y-24676935D01*
X17662500Y-24675000D01*
X17762500Y-24575000D01*
X17762500Y-23825000D01*
X17812500Y-23825000D01*
X17812500Y-24575000D01*
X17912500Y-24675000D01*
X18225000Y-24676935D01*
X18303414Y-24669212D01*
X18378814Y-24646340D01*
X18448303Y-24609197D01*
X18509211Y-24559211D01*
X18559197Y-24498303D01*
X18596340Y-24428814D01*
X18619212Y-24353414D01*
X18626935Y-24275000D01*
X18625000Y-23925000D01*
X18525000Y-23825000D01*
X17812500Y-23825000D01*
X17762500Y-23825000D01*
X17742500Y-23825000D01*
X17742500Y-23775000D01*
X17762500Y-23775000D01*
X17762500Y-23755000D01*
X17812500Y-23755000D01*
X17812500Y-23775000D01*
X18525000Y-23775000D01*
X18625000Y-23675000D01*
X18625143Y-23649099D01*
X18779049Y-23803005D01*
X18795489Y-23823037D01*
X18875430Y-23888643D01*
X18966635Y-23937393D01*
X19065598Y-23967413D01*
X19142728Y-23975010D01*
X19142735Y-23975010D01*
X19168515Y-23977549D01*
X19194295Y-23975010D01*
X22142716Y-23975010D01*
X22168496Y-23977549D01*
X22194276Y-23975010D01*
X22194284Y-23975010D01*
X22271414Y-23967413D01*
X22370377Y-23937393D01*
X22461582Y-23888643D01*
X22508669Y-23850000D01*
X24620526Y-23850000D01*
X24650000Y-23852903D01*
X24679474Y-23850000D01*
X24767621Y-23841318D01*
X24880721Y-23807010D01*
X24890216Y-23801935D01*
X25700000Y-23801935D01*
X25778414Y-23794212D01*
X25853814Y-23771340D01*
X25923303Y-23734197D01*
X25984211Y-23684211D01*
X26034197Y-23623303D01*
X26071340Y-23553814D01*
X26094212Y-23478414D01*
X26101935Y-23400000D01*
X26101935Y-22768673D01*
X27103420Y-21767189D01*
X27126317Y-21748398D01*
X27198065Y-21660973D01*
X27198065Y-22600000D01*
X27205788Y-22678414D01*
X27228660Y-22753814D01*
X27265803Y-22823303D01*
X27315789Y-22884211D01*
X27376697Y-22934197D01*
X27446186Y-22971340D01*
X27521586Y-22994212D01*
X27600000Y-23001935D01*
X29100000Y-23001935D01*
X29178414Y-22994212D01*
X29253814Y-22971340D01*
X29323303Y-22934197D01*
X29384211Y-22884211D01*
X29434197Y-22823303D01*
X29471340Y-22753814D01*
X29494212Y-22678414D01*
X29501935Y-22600000D01*
X29501935Y-22400000D01*
X29567813Y-22400000D01*
X29604859Y-22445141D01*
X29698916Y-22522331D01*
X29806224Y-22579688D01*
X29922660Y-22615009D01*
X30043750Y-22626935D01*
X30556250Y-22626935D01*
X30677340Y-22615009D01*
X30793776Y-22579688D01*
X30901084Y-22522331D01*
X30995141Y-22445141D01*
X31002658Y-22435981D01*
X32850000Y-22435981D01*
X32850000Y-22564019D01*
X32874979Y-22689598D01*
X32923978Y-22807890D01*
X32995112Y-22914351D01*
X33085649Y-23004888D01*
X33192110Y-23076022D01*
X33310402Y-23125021D01*
X33435981Y-23150000D01*
X33564019Y-23150000D01*
X33689598Y-23125021D01*
X33807890Y-23076022D01*
X33914351Y-23004888D01*
X34004888Y-22914351D01*
X34076022Y-22807890D01*
X34125021Y-22689598D01*
X34150000Y-22564019D01*
X34150000Y-22435981D01*
X34125021Y-22310402D01*
X34076022Y-22192110D01*
X34004888Y-22085649D01*
X33914351Y-21995112D01*
X33807890Y-21923978D01*
X33689598Y-21874979D01*
X33564019Y-21850000D01*
X33435981Y-21850000D01*
X33310402Y-21874979D01*
X33192110Y-21923978D01*
X33085649Y-21995112D01*
X32995112Y-22085649D01*
X32923978Y-22192110D01*
X32874979Y-22310402D01*
X32850000Y-22435981D01*
X31002658Y-22435981D01*
X31072331Y-22351084D01*
X31129688Y-22243776D01*
X31165009Y-22127340D01*
X31176935Y-22006250D01*
X31176935Y-21568750D01*
X31165009Y-21447660D01*
X31129688Y-21331224D01*
X31072331Y-21223916D01*
X30995141Y-21129859D01*
X30901084Y-21052669D01*
X30802547Y-21000000D01*
X30901084Y-20947331D01*
X30995141Y-20870141D01*
X31072331Y-20776084D01*
X31129688Y-20668776D01*
X31165009Y-20552340D01*
X31176935Y-20431250D01*
X31176935Y-20171592D01*
X32343978Y-19004549D01*
X33218338Y-19004549D01*
X33277972Y-19216988D01*
X33379921Y-19418118D01*
X33519150Y-19595494D01*
X33690308Y-19742300D01*
X33886817Y-19852894D01*
X34101126Y-19923026D01*
X34325000Y-19950000D01*
X35075000Y-19950000D01*
X35075000Y-18825000D01*
X35125000Y-18825000D01*
X35125000Y-19950000D01*
X35875000Y-19950000D01*
X36098874Y-19923026D01*
X36313183Y-19852894D01*
X36509692Y-19742300D01*
X36680850Y-19595494D01*
X36820079Y-19418118D01*
X36922028Y-19216988D01*
X36981662Y-19004549D01*
X36899702Y-18825000D01*
X35125000Y-18825000D01*
X35075000Y-18825000D01*
X33300298Y-18825000D01*
X33218338Y-19004549D01*
X32343978Y-19004549D01*
X32753076Y-18595451D01*
X33218338Y-18595451D01*
X33300298Y-18775000D01*
X35075000Y-18775000D01*
X35075000Y-17650000D01*
X35125000Y-17650000D01*
X35125000Y-18775000D01*
X36899702Y-18775000D01*
X36981662Y-18595451D01*
X36922028Y-18383012D01*
X36820079Y-18181882D01*
X36680850Y-18004506D01*
X36509692Y-17857700D01*
X36313183Y-17747106D01*
X36098874Y-17676974D01*
X35875000Y-17650000D01*
X35125000Y-17650000D01*
X35075000Y-17650000D01*
X34325000Y-17650000D01*
X34101126Y-17676974D01*
X33886817Y-17747106D01*
X33690308Y-17857700D01*
X33519150Y-18004506D01*
X33379921Y-18181882D01*
X33277972Y-18383012D01*
X33218338Y-18595451D01*
X32753076Y-18595451D01*
X32903420Y-18445108D01*
X32926317Y-18426317D01*
X33001296Y-18334955D01*
X33045700Y-18251881D01*
X33057010Y-18230722D01*
X33091318Y-18117621D01*
X33102903Y-18000000D01*
X33101077Y-17981465D01*
X33233082Y-17893263D01*
X33393263Y-17733082D01*
X33519116Y-17544729D01*
X33605806Y-17335443D01*
X33650000Y-17113265D01*
X33650000Y-16886735D01*
X33605806Y-16664557D01*
X33519116Y-16455271D01*
X33393263Y-16266918D01*
X33233082Y-16106737D01*
X33100000Y-16017815D01*
X33100000Y-15404549D01*
X33218338Y-15404549D01*
X33277972Y-15616988D01*
X33379921Y-15818118D01*
X33519150Y-15995494D01*
X33690308Y-16142300D01*
X33886817Y-16252894D01*
X34101126Y-16323026D01*
X34325000Y-16350000D01*
X35075000Y-16350000D01*
X35075000Y-15225000D01*
X35125000Y-15225000D01*
X35125000Y-16350000D01*
X35875000Y-16350000D01*
X36098874Y-16323026D01*
X36313183Y-16252894D01*
X36509692Y-16142300D01*
X36680850Y-15995494D01*
X36820079Y-15818118D01*
X36922028Y-15616988D01*
X36981662Y-15404549D01*
X36899702Y-15225000D01*
X35125000Y-15225000D01*
X35075000Y-15225000D01*
X33300298Y-15225000D01*
X33218338Y-15404549D01*
X33100000Y-15404549D01*
X33100000Y-14995451D01*
X33218338Y-14995451D01*
X33300298Y-15175000D01*
X35075000Y-15175000D01*
X35075000Y-14050000D01*
X35125000Y-14050000D01*
X35125000Y-15175000D01*
X36899702Y-15175000D01*
X36981662Y-14995451D01*
X36922028Y-14783012D01*
X36820079Y-14581882D01*
X36680850Y-14404506D01*
X36509692Y-14257700D01*
X36313183Y-14147106D01*
X36098874Y-14076974D01*
X35875000Y-14050000D01*
X35125000Y-14050000D01*
X35075000Y-14050000D01*
X34325000Y-14050000D01*
X34101126Y-14076974D01*
X33886817Y-14147106D01*
X33690308Y-14257700D01*
X33519150Y-14404506D01*
X33379921Y-14581882D01*
X33277972Y-14783012D01*
X33218338Y-14995451D01*
X33100000Y-14995451D01*
X33100000Y-14916974D01*
X33102903Y-14887500D01*
X33096670Y-14824212D01*
X33091318Y-14769879D01*
X33057010Y-14656779D01*
X33001296Y-14552545D01*
X32926317Y-14461183D01*
X32903419Y-14442391D01*
X32276935Y-13815908D01*
X32276935Y-13568750D01*
X32265009Y-13447660D01*
X32229688Y-13331224D01*
X32172331Y-13223916D01*
X32095141Y-13129859D01*
X32001084Y-13052669D01*
X31902547Y-13000000D01*
X32001084Y-12947331D01*
X32095141Y-12870141D01*
X32172331Y-12776084D01*
X32229688Y-12668776D01*
X32265009Y-12552340D01*
X32276935Y-12431250D01*
X32276935Y-11993750D01*
X32265009Y-11872660D01*
X32229688Y-11756224D01*
X32172331Y-11648916D01*
X32095141Y-11554859D01*
X32001084Y-11477669D01*
X31893776Y-11420312D01*
X31777340Y-11384991D01*
X31656250Y-11373065D01*
X31409092Y-11373065D01*
X31332613Y-11296585D01*
X31313817Y-11273683D01*
X31222455Y-11198704D01*
X31118221Y-11142990D01*
X31005121Y-11108682D01*
X30916974Y-11100000D01*
X30887500Y-11097097D01*
X30858026Y-11100000D01*
X25943822Y-11100000D01*
X25950000Y-11068944D01*
X25950000Y-10931056D01*
X25923099Y-10795818D01*
X25870332Y-10668426D01*
X25793726Y-10553776D01*
X25696224Y-10456274D01*
X25581574Y-10379668D01*
X25454182Y-10326901D01*
X25318944Y-10300000D01*
X25181056Y-10300000D01*
X25045818Y-10326901D01*
X24918426Y-10379668D01*
X24803776Y-10456274D01*
X24706274Y-10553776D01*
X24629668Y-10668426D01*
X24576901Y-10795818D01*
X24550000Y-10931056D01*
X24550000Y-11068944D01*
X24556178Y-11100000D01*
X23048528Y-11100000D01*
X22303422Y-10354895D01*
X22234954Y-10298705D01*
X22130721Y-10242991D01*
X22052828Y-10219362D01*
X22043086Y-10211367D01*
X21951881Y-10162617D01*
X21852918Y-10132597D01*
X21775788Y-10125000D01*
X21775780Y-10125000D01*
X21750000Y-10122461D01*
X21724220Y-10125000D01*
X20869285Y-10125000D01*
X20843505Y-10122461D01*
X20817725Y-10125000D01*
X20817718Y-10125000D01*
X20740588Y-10132597D01*
X20641625Y-10162617D01*
X20550420Y-10211367D01*
X20470479Y-10276973D01*
X20454039Y-10297005D01*
X20121731Y-10629314D01*
X18974101Y-10595226D01*
X19036250Y-10553700D01*
X19133752Y-10456198D01*
X19210358Y-10341548D01*
X19263125Y-10214156D01*
X19290026Y-10078918D01*
X19290026Y-9941030D01*
X19263125Y-9805792D01*
X19210358Y-9678400D01*
X19133752Y-9563750D01*
X19036250Y-9466248D01*
X18921600Y-9389642D01*
X18794208Y-9336875D01*
X18658970Y-9309974D01*
X18521082Y-9309974D01*
X18385844Y-9336875D01*
X18270558Y-9384627D01*
X18243776Y-9370312D01*
X18127340Y-9334991D01*
X18006250Y-9323065D01*
X17568750Y-9323065D01*
X17447660Y-9334991D01*
X17331224Y-9370312D01*
X17223916Y-9427669D01*
X17129859Y-9504859D01*
X17052669Y-9598916D01*
X17038049Y-9626269D01*
X17021340Y-9571186D01*
X16984197Y-9501697D01*
X16934211Y-9440789D01*
X16873303Y-9390803D01*
X16803814Y-9353660D01*
X16728414Y-9330788D01*
X16650000Y-9323065D01*
X16337500Y-9325000D01*
X16237500Y-9425000D01*
X16237500Y-10175000D01*
X16257500Y-10175000D01*
X16257500Y-10225000D01*
X16237500Y-10225000D01*
X16237500Y-10245000D01*
X16187500Y-10245000D01*
X16187500Y-10225000D01*
X16167500Y-10225000D01*
X16167500Y-10175000D01*
X16187500Y-10175000D01*
X16187500Y-9425000D01*
X16087500Y-9325000D01*
X15775000Y-9323065D01*
X15696586Y-9330788D01*
X15695312Y-9331174D01*
X15702981Y-9100000D01*
X34098586Y-9100000D01*
X34102503Y-9120534D01*
G36*
X11874244Y-9786529D02*
G01*
X11879363Y-9865155D01*
X11899723Y-9941273D01*
X11934541Y-10011955D01*
X11982480Y-10074487D01*
X12041697Y-10126464D01*
X12109917Y-10165891D01*
X12184517Y-10191250D01*
X12225001Y-10196598D01*
X12225000Y-10539984D01*
X12176697Y-10565803D01*
X12115789Y-10615789D01*
X12065803Y-10676697D01*
X12028660Y-10746186D01*
X12005788Y-10821586D01*
X11998065Y-10900000D01*
X11998065Y-11900000D01*
X12005788Y-11978414D01*
X12028660Y-12053814D01*
X12065803Y-12123303D01*
X12115789Y-12184211D01*
X12176697Y-12234197D01*
X12246186Y-12271340D01*
X12300000Y-12287664D01*
X12300000Y-13225000D01*
X12225000Y-13150000D01*
X11750000Y-13148065D01*
X11671586Y-13155788D01*
X11596186Y-13178660D01*
X11526697Y-13215803D01*
X11465789Y-13265789D01*
X11415803Y-13326697D01*
X11378660Y-13396186D01*
X11355788Y-13471586D01*
X11348065Y-13550000D01*
X11350000Y-14025000D01*
X11450000Y-14125000D01*
X12300000Y-14125000D01*
X12300000Y-14175000D01*
X11450000Y-14175000D01*
X11350000Y-14275000D01*
X11348065Y-14750000D01*
X11355788Y-14828414D01*
X11378660Y-14903814D01*
X11415803Y-14973303D01*
X11465789Y-15034211D01*
X11526697Y-15084197D01*
X11596186Y-15121340D01*
X11671586Y-15144212D01*
X11730353Y-15150000D01*
X11671586Y-15155788D01*
X11596186Y-15178660D01*
X11526697Y-15215803D01*
X11465789Y-15265789D01*
X11415803Y-15326697D01*
X11378660Y-15396186D01*
X11355788Y-15471586D01*
X11348065Y-15550000D01*
X11348065Y-16750000D01*
X11355788Y-16828414D01*
X11378660Y-16903814D01*
X11415803Y-16973303D01*
X11458230Y-17025000D01*
X11415803Y-17076697D01*
X11378660Y-17146186D01*
X11355788Y-17221586D01*
X11348065Y-17300000D01*
X11350000Y-17775000D01*
X11450000Y-17875000D01*
X12300000Y-17875000D01*
X12300000Y-17925000D01*
X11450000Y-17925000D01*
X11350000Y-18025000D01*
X11348065Y-18500000D01*
X11355788Y-18578414D01*
X11378660Y-18653814D01*
X11415803Y-18723303D01*
X11465789Y-18784211D01*
X11526697Y-18834197D01*
X11596186Y-18871340D01*
X11671586Y-18894212D01*
X11730353Y-18900000D01*
X11671586Y-18905788D01*
X11596186Y-18928660D01*
X11526697Y-18965803D01*
X11465789Y-19015789D01*
X11415803Y-19076697D01*
X11378660Y-19146186D01*
X11355788Y-19221586D01*
X11348065Y-19300000D01*
X11348065Y-20500000D01*
X11355788Y-20578414D01*
X11378660Y-20653814D01*
X11415803Y-20723303D01*
X11465789Y-20784211D01*
X11526697Y-20834197D01*
X11596186Y-20871340D01*
X11671586Y-20894212D01*
X11750000Y-20901935D01*
X12300000Y-20901935D01*
X12300000Y-21762336D01*
X12246186Y-21778660D01*
X12176697Y-21815803D01*
X12115789Y-21865789D01*
X12065803Y-21926697D01*
X12028660Y-21996186D01*
X12005788Y-22071586D01*
X11998065Y-22150000D01*
X11998065Y-23150000D01*
X12005788Y-23228414D01*
X12028660Y-23303814D01*
X12065803Y-23373303D01*
X12115789Y-23434211D01*
X12176697Y-23484197D01*
X12225000Y-23510016D01*
X12225001Y-23803402D01*
X12184517Y-23808750D01*
X12109917Y-23834109D01*
X12041697Y-23873536D01*
X11982480Y-23925513D01*
X11934541Y-23988045D01*
X11899723Y-24058728D01*
X11879363Y-24134845D01*
X11874244Y-24213471D01*
X11897019Y-24900000D01*
X7590847Y-24900000D01*
X7524993Y-24820396D01*
X7471807Y-24722031D01*
X7438741Y-24615213D01*
X7425000Y-24484475D01*
X7425000Y-23150000D01*
X7848065Y-23150000D01*
X7855788Y-23228414D01*
X7878660Y-23303814D01*
X7915803Y-23373303D01*
X7965789Y-23434211D01*
X8026697Y-23484197D01*
X8096186Y-23521340D01*
X8171586Y-23544212D01*
X8250000Y-23551935D01*
X8550000Y-23550000D01*
X8650000Y-23450000D01*
X8650000Y-22675000D01*
X8700000Y-22675000D01*
X8700000Y-23450000D01*
X8800000Y-23550000D01*
X9100000Y-23551935D01*
X9178414Y-23544212D01*
X9253814Y-23521340D01*
X9323303Y-23484197D01*
X9384211Y-23434211D01*
X9434197Y-23373303D01*
X9471340Y-23303814D01*
X9494212Y-23228414D01*
X9501935Y-23150000D01*
X9500000Y-22775000D01*
X9400000Y-22675000D01*
X8700000Y-22675000D01*
X8650000Y-22675000D01*
X7950000Y-22675000D01*
X7850000Y-22775000D01*
X7848065Y-23150000D01*
X7425000Y-23150000D01*
X7425000Y-22150000D01*
X7848065Y-22150000D01*
X7850000Y-22525000D01*
X7950000Y-22625000D01*
X8650000Y-22625000D01*
X8650000Y-21850000D01*
X8700000Y-21850000D01*
X8700000Y-22625000D01*
X9400000Y-22625000D01*
X9500000Y-22525000D01*
X9501935Y-22150000D01*
X9494212Y-22071586D01*
X9471340Y-21996186D01*
X9434197Y-21926697D01*
X9384211Y-21865789D01*
X9323303Y-21815803D01*
X9253814Y-21778660D01*
X9178414Y-21755788D01*
X9100000Y-21748065D01*
X8800000Y-21750000D01*
X8700000Y-21850000D01*
X8650000Y-21850000D01*
X8550000Y-21750000D01*
X8250000Y-21748065D01*
X8171586Y-21755788D01*
X8096186Y-21778660D01*
X8026697Y-21815803D01*
X7965789Y-21865789D01*
X7915803Y-21926697D01*
X7878660Y-21996186D01*
X7855788Y-22071586D01*
X7848065Y-22150000D01*
X7425000Y-22150000D01*
X7425000Y-19700000D01*
X7948065Y-19700000D01*
X7955788Y-19778414D01*
X7978660Y-19853814D01*
X8015803Y-19923303D01*
X8065789Y-19984211D01*
X8126697Y-20034197D01*
X8196186Y-20071340D01*
X8271586Y-20094212D01*
X8350000Y-20101935D01*
X8975000Y-20100000D01*
X9075000Y-20000000D01*
X9075000Y-18925000D01*
X9125000Y-18925000D01*
X9125000Y-20000000D01*
X9225000Y-20100000D01*
X9850000Y-20101935D01*
X9928414Y-20094212D01*
X10003814Y-20071340D01*
X10073303Y-20034197D01*
X10134211Y-19984211D01*
X10184197Y-19923303D01*
X10221340Y-19853814D01*
X10244212Y-19778414D01*
X10251935Y-19700000D01*
X10250000Y-19025000D01*
X10150000Y-18925000D01*
X9125000Y-18925000D01*
X9075000Y-18925000D01*
X8050000Y-18925000D01*
X7950000Y-19025000D01*
X7948065Y-19700000D01*
X7425000Y-19700000D01*
X7425000Y-18100000D01*
X7948065Y-18100000D01*
X7950000Y-18775000D01*
X8050000Y-18875000D01*
X9075000Y-18875000D01*
X9075000Y-17800000D01*
X9125000Y-17800000D01*
X9125000Y-18875000D01*
X10150000Y-18875000D01*
X10250000Y-18775000D01*
X10251935Y-18100000D01*
X10244212Y-18021586D01*
X10221340Y-17946186D01*
X10184197Y-17876697D01*
X10134211Y-17815789D01*
X10073303Y-17765803D01*
X10003814Y-17728660D01*
X9928414Y-17705788D01*
X9850000Y-17698065D01*
X9225000Y-17700000D01*
X9125000Y-17800000D01*
X9075000Y-17800000D01*
X8975000Y-17700000D01*
X8350000Y-17698065D01*
X8271586Y-17705788D01*
X8196186Y-17728660D01*
X8126697Y-17765803D01*
X8065789Y-17815789D01*
X8015803Y-17876697D01*
X7978660Y-17946186D01*
X7955788Y-18021586D01*
X7948065Y-18100000D01*
X7425000Y-18100000D01*
X7425000Y-15950000D01*
X7948065Y-15950000D01*
X7955788Y-16028414D01*
X7978660Y-16103814D01*
X8015803Y-16173303D01*
X8065789Y-16234211D01*
X8126697Y-16284197D01*
X8196186Y-16321340D01*
X8271586Y-16344212D01*
X8350000Y-16351935D01*
X8975000Y-16350000D01*
X9075000Y-16250000D01*
X9075000Y-15175000D01*
X9125000Y-15175000D01*
X9125000Y-16250000D01*
X9225000Y-16350000D01*
X9850000Y-16351935D01*
X9928414Y-16344212D01*
X10003814Y-16321340D01*
X10073303Y-16284197D01*
X10134211Y-16234211D01*
X10184197Y-16173303D01*
X10221340Y-16103814D01*
X10244212Y-16028414D01*
X10251935Y-15950000D01*
X10250000Y-15275000D01*
X10150000Y-15175000D01*
X9125000Y-15175000D01*
X9075000Y-15175000D01*
X8050000Y-15175000D01*
X7950000Y-15275000D01*
X7948065Y-15950000D01*
X7425000Y-15950000D01*
X7425000Y-14350000D01*
X7948065Y-14350000D01*
X7950000Y-15025000D01*
X8050000Y-15125000D01*
X9075000Y-15125000D01*
X9075000Y-14050000D01*
X9125000Y-14050000D01*
X9125000Y-15125000D01*
X10150000Y-15125000D01*
X10250000Y-15025000D01*
X10251935Y-14350000D01*
X10244212Y-14271586D01*
X10221340Y-14196186D01*
X10184197Y-14126697D01*
X10134211Y-14065789D01*
X10073303Y-14015803D01*
X10003814Y-13978660D01*
X9928414Y-13955788D01*
X9850000Y-13948065D01*
X9225000Y-13950000D01*
X9125000Y-14050000D01*
X9075000Y-14050000D01*
X8975000Y-13950000D01*
X8350000Y-13948065D01*
X8271586Y-13955788D01*
X8196186Y-13978660D01*
X8126697Y-14015803D01*
X8065789Y-14065789D01*
X8015803Y-14126697D01*
X7978660Y-14196186D01*
X7955788Y-14271586D01*
X7948065Y-14350000D01*
X7425000Y-14350000D01*
X7425000Y-11900000D01*
X7848065Y-11900000D01*
X7855788Y-11978414D01*
X7878660Y-12053814D01*
X7915803Y-12123303D01*
X7965789Y-12184211D01*
X8026697Y-12234197D01*
X8096186Y-12271340D01*
X8171586Y-12294212D01*
X8250000Y-12301935D01*
X8550000Y-12300000D01*
X8650000Y-12200000D01*
X8650000Y-11425000D01*
X8700000Y-11425000D01*
X8700000Y-12200000D01*
X8800000Y-12300000D01*
X9100000Y-12301935D01*
X9178414Y-12294212D01*
X9253814Y-12271340D01*
X9323303Y-12234197D01*
X9384211Y-12184211D01*
X9434197Y-12123303D01*
X9471340Y-12053814D01*
X9494212Y-11978414D01*
X9501935Y-11900000D01*
X9500000Y-11525000D01*
X9400000Y-11425000D01*
X8700000Y-11425000D01*
X8650000Y-11425000D01*
X7950000Y-11425000D01*
X7850000Y-11525000D01*
X7848065Y-11900000D01*
X7425000Y-11900000D01*
X7425000Y-10900000D01*
X7848065Y-10900000D01*
X7850000Y-11275000D01*
X7950000Y-11375000D01*
X8650000Y-11375000D01*
X8650000Y-10600000D01*
X8700000Y-10600000D01*
X8700000Y-11375000D01*
X9400000Y-11375000D01*
X9500000Y-11275000D01*
X9501935Y-10900000D01*
X9494212Y-10821586D01*
X9471340Y-10746186D01*
X9434197Y-10676697D01*
X9384211Y-10615789D01*
X9323303Y-10565803D01*
X9253814Y-10528660D01*
X9178414Y-10505788D01*
X9100000Y-10498065D01*
X8800000Y-10500000D01*
X8700000Y-10600000D01*
X8650000Y-10600000D01*
X8550000Y-10500000D01*
X8250000Y-10498065D01*
X8171586Y-10505788D01*
X8096186Y-10528660D01*
X8026697Y-10565803D01*
X7965789Y-10615789D01*
X7915803Y-10676697D01*
X7878660Y-10746186D01*
X7855788Y-10821586D01*
X7848065Y-10900000D01*
X7425000Y-10900000D01*
X7425000Y-9520790D01*
X7437951Y-9388710D01*
X7470271Y-9281661D01*
X7522770Y-9182924D01*
X7590401Y-9100000D01*
X11897019Y-9100000D01*
X11874244Y-9786529D01*
G37*
X11874244Y-9786529D02*
X11879363Y-9865155D01*
X11899723Y-9941273D01*
X11934541Y-10011955D01*
X11982480Y-10074487D01*
X12041697Y-10126464D01*
X12109917Y-10165891D01*
X12184517Y-10191250D01*
X12225001Y-10196598D01*
X12225000Y-10539984D01*
X12176697Y-10565803D01*
X12115789Y-10615789D01*
X12065803Y-10676697D01*
X12028660Y-10746186D01*
X12005788Y-10821586D01*
X11998065Y-10900000D01*
X11998065Y-11900000D01*
X12005788Y-11978414D01*
X12028660Y-12053814D01*
X12065803Y-12123303D01*
X12115789Y-12184211D01*
X12176697Y-12234197D01*
X12246186Y-12271340D01*
X12300000Y-12287664D01*
X12300000Y-13225000D01*
X12225000Y-13150000D01*
X11750000Y-13148065D01*
X11671586Y-13155788D01*
X11596186Y-13178660D01*
X11526697Y-13215803D01*
X11465789Y-13265789D01*
X11415803Y-13326697D01*
X11378660Y-13396186D01*
X11355788Y-13471586D01*
X11348065Y-13550000D01*
X11350000Y-14025000D01*
X11450000Y-14125000D01*
X12300000Y-14125000D01*
X12300000Y-14175000D01*
X11450000Y-14175000D01*
X11350000Y-14275000D01*
X11348065Y-14750000D01*
X11355788Y-14828414D01*
X11378660Y-14903814D01*
X11415803Y-14973303D01*
X11465789Y-15034211D01*
X11526697Y-15084197D01*
X11596186Y-15121340D01*
X11671586Y-15144212D01*
X11730353Y-15150000D01*
X11671586Y-15155788D01*
X11596186Y-15178660D01*
X11526697Y-15215803D01*
X11465789Y-15265789D01*
X11415803Y-15326697D01*
X11378660Y-15396186D01*
X11355788Y-15471586D01*
X11348065Y-15550000D01*
X11348065Y-16750000D01*
X11355788Y-16828414D01*
X11378660Y-16903814D01*
X11415803Y-16973303D01*
X11458230Y-17025000D01*
X11415803Y-17076697D01*
X11378660Y-17146186D01*
X11355788Y-17221586D01*
X11348065Y-17300000D01*
X11350000Y-17775000D01*
X11450000Y-17875000D01*
X12300000Y-17875000D01*
X12300000Y-17925000D01*
X11450000Y-17925000D01*
X11350000Y-18025000D01*
X11348065Y-18500000D01*
X11355788Y-18578414D01*
X11378660Y-18653814D01*
X11415803Y-18723303D01*
X11465789Y-18784211D01*
X11526697Y-18834197D01*
X11596186Y-18871340D01*
X11671586Y-18894212D01*
X11730353Y-18900000D01*
X11671586Y-18905788D01*
X11596186Y-18928660D01*
X11526697Y-18965803D01*
X11465789Y-19015789D01*
X11415803Y-19076697D01*
X11378660Y-19146186D01*
X11355788Y-19221586D01*
X11348065Y-19300000D01*
X11348065Y-20500000D01*
X11355788Y-20578414D01*
X11378660Y-20653814D01*
X11415803Y-20723303D01*
X11465789Y-20784211D01*
X11526697Y-20834197D01*
X11596186Y-20871340D01*
X11671586Y-20894212D01*
X11750000Y-20901935D01*
X12300000Y-20901935D01*
X12300000Y-21762336D01*
X12246186Y-21778660D01*
X12176697Y-21815803D01*
X12115789Y-21865789D01*
X12065803Y-21926697D01*
X12028660Y-21996186D01*
X12005788Y-22071586D01*
X11998065Y-22150000D01*
X11998065Y-23150000D01*
X12005788Y-23228414D01*
X12028660Y-23303814D01*
X12065803Y-23373303D01*
X12115789Y-23434211D01*
X12176697Y-23484197D01*
X12225000Y-23510016D01*
X12225001Y-23803402D01*
X12184517Y-23808750D01*
X12109917Y-23834109D01*
X12041697Y-23873536D01*
X11982480Y-23925513D01*
X11934541Y-23988045D01*
X11899723Y-24058728D01*
X11879363Y-24134845D01*
X11874244Y-24213471D01*
X11897019Y-24900000D01*
X7590847Y-24900000D01*
X7524993Y-24820396D01*
X7471807Y-24722031D01*
X7438741Y-24615213D01*
X7425000Y-24484475D01*
X7425000Y-23150000D01*
X7848065Y-23150000D01*
X7855788Y-23228414D01*
X7878660Y-23303814D01*
X7915803Y-23373303D01*
X7965789Y-23434211D01*
X8026697Y-23484197D01*
X8096186Y-23521340D01*
X8171586Y-23544212D01*
X8250000Y-23551935D01*
X8550000Y-23550000D01*
X8650000Y-23450000D01*
X8650000Y-22675000D01*
X8700000Y-22675000D01*
X8700000Y-23450000D01*
X8800000Y-23550000D01*
X9100000Y-23551935D01*
X9178414Y-23544212D01*
X9253814Y-23521340D01*
X9323303Y-23484197D01*
X9384211Y-23434211D01*
X9434197Y-23373303D01*
X9471340Y-23303814D01*
X9494212Y-23228414D01*
X9501935Y-23150000D01*
X9500000Y-22775000D01*
X9400000Y-22675000D01*
X8700000Y-22675000D01*
X8650000Y-22675000D01*
X7950000Y-22675000D01*
X7850000Y-22775000D01*
X7848065Y-23150000D01*
X7425000Y-23150000D01*
X7425000Y-22150000D01*
X7848065Y-22150000D01*
X7850000Y-22525000D01*
X7950000Y-22625000D01*
X8650000Y-22625000D01*
X8650000Y-21850000D01*
X8700000Y-21850000D01*
X8700000Y-22625000D01*
X9400000Y-22625000D01*
X9500000Y-22525000D01*
X9501935Y-22150000D01*
X9494212Y-22071586D01*
X9471340Y-21996186D01*
X9434197Y-21926697D01*
X9384211Y-21865789D01*
X9323303Y-21815803D01*
X9253814Y-21778660D01*
X9178414Y-21755788D01*
X9100000Y-21748065D01*
X8800000Y-21750000D01*
X8700000Y-21850000D01*
X8650000Y-21850000D01*
X8550000Y-21750000D01*
X8250000Y-21748065D01*
X8171586Y-21755788D01*
X8096186Y-21778660D01*
X8026697Y-21815803D01*
X7965789Y-21865789D01*
X7915803Y-21926697D01*
X7878660Y-21996186D01*
X7855788Y-22071586D01*
X7848065Y-22150000D01*
X7425000Y-22150000D01*
X7425000Y-19700000D01*
X7948065Y-19700000D01*
X7955788Y-19778414D01*
X7978660Y-19853814D01*
X8015803Y-19923303D01*
X8065789Y-19984211D01*
X8126697Y-20034197D01*
X8196186Y-20071340D01*
X8271586Y-20094212D01*
X8350000Y-20101935D01*
X8975000Y-20100000D01*
X9075000Y-20000000D01*
X9075000Y-18925000D01*
X9125000Y-18925000D01*
X9125000Y-20000000D01*
X9225000Y-20100000D01*
X9850000Y-20101935D01*
X9928414Y-20094212D01*
X10003814Y-20071340D01*
X10073303Y-20034197D01*
X10134211Y-19984211D01*
X10184197Y-19923303D01*
X10221340Y-19853814D01*
X10244212Y-19778414D01*
X10251935Y-19700000D01*
X10250000Y-19025000D01*
X10150000Y-18925000D01*
X9125000Y-18925000D01*
X9075000Y-18925000D01*
X8050000Y-18925000D01*
X7950000Y-19025000D01*
X7948065Y-19700000D01*
X7425000Y-19700000D01*
X7425000Y-18100000D01*
X7948065Y-18100000D01*
X7950000Y-18775000D01*
X8050000Y-18875000D01*
X9075000Y-18875000D01*
X9075000Y-17800000D01*
X9125000Y-17800000D01*
X9125000Y-18875000D01*
X10150000Y-18875000D01*
X10250000Y-18775000D01*
X10251935Y-18100000D01*
X10244212Y-18021586D01*
X10221340Y-17946186D01*
X10184197Y-17876697D01*
X10134211Y-17815789D01*
X10073303Y-17765803D01*
X10003814Y-17728660D01*
X9928414Y-17705788D01*
X9850000Y-17698065D01*
X9225000Y-17700000D01*
X9125000Y-17800000D01*
X9075000Y-17800000D01*
X8975000Y-17700000D01*
X8350000Y-17698065D01*
X8271586Y-17705788D01*
X8196186Y-17728660D01*
X8126697Y-17765803D01*
X8065789Y-17815789D01*
X8015803Y-17876697D01*
X7978660Y-17946186D01*
X7955788Y-18021586D01*
X7948065Y-18100000D01*
X7425000Y-18100000D01*
X7425000Y-15950000D01*
X7948065Y-15950000D01*
X7955788Y-16028414D01*
X7978660Y-16103814D01*
X8015803Y-16173303D01*
X8065789Y-16234211D01*
X8126697Y-16284197D01*
X8196186Y-16321340D01*
X8271586Y-16344212D01*
X8350000Y-16351935D01*
X8975000Y-16350000D01*
X9075000Y-16250000D01*
X9075000Y-15175000D01*
X9125000Y-15175000D01*
X9125000Y-16250000D01*
X9225000Y-16350000D01*
X9850000Y-16351935D01*
X9928414Y-16344212D01*
X10003814Y-16321340D01*
X10073303Y-16284197D01*
X10134211Y-16234211D01*
X10184197Y-16173303D01*
X10221340Y-16103814D01*
X10244212Y-16028414D01*
X10251935Y-15950000D01*
X10250000Y-15275000D01*
X10150000Y-15175000D01*
X9125000Y-15175000D01*
X9075000Y-15175000D01*
X8050000Y-15175000D01*
X7950000Y-15275000D01*
X7948065Y-15950000D01*
X7425000Y-15950000D01*
X7425000Y-14350000D01*
X7948065Y-14350000D01*
X7950000Y-15025000D01*
X8050000Y-15125000D01*
X9075000Y-15125000D01*
X9075000Y-14050000D01*
X9125000Y-14050000D01*
X9125000Y-15125000D01*
X10150000Y-15125000D01*
X10250000Y-15025000D01*
X10251935Y-14350000D01*
X10244212Y-14271586D01*
X10221340Y-14196186D01*
X10184197Y-14126697D01*
X10134211Y-14065789D01*
X10073303Y-14015803D01*
X10003814Y-13978660D01*
X9928414Y-13955788D01*
X9850000Y-13948065D01*
X9225000Y-13950000D01*
X9125000Y-14050000D01*
X9075000Y-14050000D01*
X8975000Y-13950000D01*
X8350000Y-13948065D01*
X8271586Y-13955788D01*
X8196186Y-13978660D01*
X8126697Y-14015803D01*
X8065789Y-14065789D01*
X8015803Y-14126697D01*
X7978660Y-14196186D01*
X7955788Y-14271586D01*
X7948065Y-14350000D01*
X7425000Y-14350000D01*
X7425000Y-11900000D01*
X7848065Y-11900000D01*
X7855788Y-11978414D01*
X7878660Y-12053814D01*
X7915803Y-12123303D01*
X7965789Y-12184211D01*
X8026697Y-12234197D01*
X8096186Y-12271340D01*
X8171586Y-12294212D01*
X8250000Y-12301935D01*
X8550000Y-12300000D01*
X8650000Y-12200000D01*
X8650000Y-11425000D01*
X8700000Y-11425000D01*
X8700000Y-12200000D01*
X8800000Y-12300000D01*
X9100000Y-12301935D01*
X9178414Y-12294212D01*
X9253814Y-12271340D01*
X9323303Y-12234197D01*
X9384211Y-12184211D01*
X9434197Y-12123303D01*
X9471340Y-12053814D01*
X9494212Y-11978414D01*
X9501935Y-11900000D01*
X9500000Y-11525000D01*
X9400000Y-11425000D01*
X8700000Y-11425000D01*
X8650000Y-11425000D01*
X7950000Y-11425000D01*
X7850000Y-11525000D01*
X7848065Y-11900000D01*
X7425000Y-11900000D01*
X7425000Y-10900000D01*
X7848065Y-10900000D01*
X7850000Y-11275000D01*
X7950000Y-11375000D01*
X8650000Y-11375000D01*
X8650000Y-10600000D01*
X8700000Y-10600000D01*
X8700000Y-11375000D01*
X9400000Y-11375000D01*
X9500000Y-11275000D01*
X9501935Y-10900000D01*
X9494212Y-10821586D01*
X9471340Y-10746186D01*
X9434197Y-10676697D01*
X9384211Y-10615789D01*
X9323303Y-10565803D01*
X9253814Y-10528660D01*
X9178414Y-10505788D01*
X9100000Y-10498065D01*
X8800000Y-10500000D01*
X8700000Y-10600000D01*
X8650000Y-10600000D01*
X8550000Y-10500000D01*
X8250000Y-10498065D01*
X8171586Y-10505788D01*
X8096186Y-10528660D01*
X8026697Y-10565803D01*
X7965789Y-10615789D01*
X7915803Y-10676697D01*
X7878660Y-10746186D01*
X7855788Y-10821586D01*
X7848065Y-10900000D01*
X7425000Y-10900000D01*
X7425000Y-9520790D01*
X7437951Y-9388710D01*
X7470271Y-9281661D01*
X7522770Y-9182924D01*
X7590401Y-9100000D01*
X11897019Y-9100000D01*
X11874244Y-9786529D01*
G36*
X23504896Y-21203425D02*
G01*
X23523683Y-21226317D01*
X23615045Y-21301296D01*
X23719279Y-21357010D01*
X23797442Y-21380720D01*
X23832378Y-21391318D01*
X23949999Y-21402903D01*
X23979473Y-21400000D01*
X24098065Y-21400000D01*
X24105788Y-21478414D01*
X24128660Y-21553814D01*
X24165803Y-21623303D01*
X24215789Y-21684211D01*
X24276697Y-21734197D01*
X24346186Y-21771340D01*
X24421586Y-21794212D01*
X24480353Y-21800000D01*
X24421586Y-21805788D01*
X24346186Y-21828660D01*
X24276697Y-21865803D01*
X24215789Y-21915789D01*
X24187402Y-21950379D01*
X24081574Y-21879668D01*
X23954182Y-21826901D01*
X23818944Y-21800000D01*
X23681056Y-21800000D01*
X23545818Y-21826901D01*
X23418426Y-21879668D01*
X23303776Y-21956274D01*
X23206274Y-22053776D01*
X23129668Y-22168426D01*
X23076901Y-22295818D01*
X23050000Y-22431056D01*
X23050000Y-22568944D01*
X23066123Y-22650000D01*
X22697135Y-22650000D01*
X22678504Y-20377032D01*
X23504896Y-21203425D01*
G37*
X23504896Y-21203425D02*
X23523683Y-21226317D01*
X23615045Y-21301296D01*
X23719279Y-21357010D01*
X23797442Y-21380720D01*
X23832378Y-21391318D01*
X23949999Y-21402903D01*
X23979473Y-21400000D01*
X24098065Y-21400000D01*
X24105788Y-21478414D01*
X24128660Y-21553814D01*
X24165803Y-21623303D01*
X24215789Y-21684211D01*
X24276697Y-21734197D01*
X24346186Y-21771340D01*
X24421586Y-21794212D01*
X24480353Y-21800000D01*
X24421586Y-21805788D01*
X24346186Y-21828660D01*
X24276697Y-21865803D01*
X24215789Y-21915789D01*
X24187402Y-21950379D01*
X24081574Y-21879668D01*
X23954182Y-21826901D01*
X23818944Y-21800000D01*
X23681056Y-21800000D01*
X23545818Y-21826901D01*
X23418426Y-21879668D01*
X23303776Y-21956274D01*
X23206274Y-22053776D01*
X23129668Y-22168426D01*
X23076901Y-22295818D01*
X23050000Y-22431056D01*
X23050000Y-22568944D01*
X23066123Y-22650000D01*
X22697135Y-22650000D01*
X22678504Y-20377032D01*
X23504896Y-21203425D01*
G36*
X29065789Y-12315789D02*
G01*
X29015803Y-12376697D01*
X28978660Y-12446186D01*
X28955788Y-12521586D01*
X28948065Y-12600000D01*
X28948065Y-13600000D01*
X28955788Y-13678414D01*
X28978660Y-13753814D01*
X29015803Y-13823303D01*
X29065789Y-13884211D01*
X29126697Y-13934197D01*
X29196186Y-13971340D01*
X29271586Y-13994212D01*
X29350000Y-14001935D01*
X29828407Y-14001935D01*
X30017391Y-14190919D01*
X30036183Y-14213817D01*
X30127545Y-14288796D01*
X30184575Y-14319279D01*
X30231778Y-14344510D01*
X30338671Y-14376935D01*
X30344879Y-14378818D01*
X30381044Y-14382380D01*
X30462500Y-14390403D01*
X30491974Y-14387500D01*
X30657555Y-14387500D01*
X30704859Y-14445141D01*
X30798916Y-14522331D01*
X30906224Y-14579688D01*
X31022660Y-14615009D01*
X31143750Y-14626935D01*
X31390908Y-14626935D01*
X31900001Y-15136029D01*
X31900000Y-16017814D01*
X31766918Y-16106737D01*
X31606737Y-16266918D01*
X31480884Y-16455271D01*
X31394194Y-16664557D01*
X31350000Y-16886735D01*
X31350000Y-17113265D01*
X31394194Y-17335443D01*
X31480884Y-17544729D01*
X31606737Y-17733082D01*
X31762564Y-17888909D01*
X30278408Y-19373065D01*
X30043750Y-19373065D01*
X29922660Y-19384991D01*
X29806224Y-19420312D01*
X29698916Y-19477669D01*
X29604859Y-19554859D01*
X29527669Y-19648916D01*
X29470312Y-19756224D01*
X29434991Y-19872660D01*
X29423065Y-19993750D01*
X29423065Y-20431250D01*
X29434991Y-20552340D01*
X29470312Y-20668776D01*
X29527669Y-20776084D01*
X29604859Y-20870141D01*
X29698916Y-20947331D01*
X29797453Y-21000000D01*
X29698916Y-21052669D01*
X29604859Y-21129859D01*
X29547296Y-21200000D01*
X29501935Y-21200000D01*
X29501935Y-21000000D01*
X29494212Y-20921586D01*
X29471340Y-20846186D01*
X29434197Y-20776697D01*
X29384211Y-20715789D01*
X29323303Y-20665803D01*
X29253814Y-20628660D01*
X29178414Y-20605788D01*
X29100000Y-20598065D01*
X27600462Y-20598065D01*
X29849872Y-18348656D01*
X30084611Y-18301963D01*
X30312097Y-18207735D01*
X30516828Y-18070938D01*
X30690938Y-17896828D01*
X30827735Y-17692097D01*
X30921963Y-17464611D01*
X30970000Y-17223114D01*
X30970000Y-16976886D01*
X30921963Y-16735389D01*
X30827735Y-16507903D01*
X30690938Y-16303172D01*
X30516828Y-16129062D01*
X30312097Y-15992265D01*
X30084611Y-15898037D01*
X29843114Y-15850000D01*
X29596886Y-15850000D01*
X29355389Y-15898037D01*
X29288291Y-15925830D01*
X29259471Y-15897010D01*
X29259467Y-15897005D01*
X28809470Y-15447009D01*
X28793027Y-15426973D01*
X28713086Y-15361367D01*
X28621881Y-15312617D01*
X28522918Y-15282597D01*
X28445788Y-15275000D01*
X28445780Y-15275000D01*
X28420000Y-15272461D01*
X28394220Y-15275000D01*
X24889972Y-15275000D01*
X24909211Y-15259211D01*
X24959197Y-15198303D01*
X24996340Y-15128814D01*
X25019212Y-15053414D01*
X25026935Y-14975000D01*
X25025000Y-14625000D01*
X24925000Y-14525000D01*
X24212500Y-14525000D01*
X24212500Y-14545000D01*
X24162500Y-14545000D01*
X24162500Y-14525000D01*
X24142500Y-14525000D01*
X24142500Y-14475000D01*
X24162500Y-14475000D01*
X24162500Y-13025000D01*
X24142500Y-13025000D01*
X24142500Y-12975000D01*
X24162500Y-12975000D01*
X24162500Y-12955000D01*
X24212500Y-12955000D01*
X24212500Y-12975000D01*
X24232500Y-12975000D01*
X24232500Y-13025000D01*
X24212500Y-13025000D01*
X24212500Y-14475000D01*
X24925000Y-14475000D01*
X25025000Y-14375000D01*
X25026935Y-14025000D01*
X25020287Y-13957496D01*
X25046186Y-13971340D01*
X25121586Y-13994212D01*
X25200000Y-14001935D01*
X26050000Y-14001935D01*
X26128414Y-13994212D01*
X26203814Y-13971340D01*
X26273303Y-13934197D01*
X26334211Y-13884211D01*
X26384197Y-13823303D01*
X26421340Y-13753814D01*
X26444212Y-13678414D01*
X26451935Y-13600000D01*
X26451935Y-13431056D01*
X27050000Y-13431056D01*
X27050000Y-13568944D01*
X27076901Y-13704182D01*
X27129668Y-13831574D01*
X27206274Y-13946224D01*
X27303776Y-14043726D01*
X27418426Y-14120332D01*
X27545818Y-14173099D01*
X27681056Y-14200000D01*
X27818944Y-14200000D01*
X27954182Y-14173099D01*
X28081574Y-14120332D01*
X28196224Y-14043726D01*
X28293726Y-13946224D01*
X28370332Y-13831574D01*
X28423099Y-13704182D01*
X28450000Y-13568944D01*
X28450000Y-13431056D01*
X28423099Y-13295818D01*
X28370332Y-13168426D01*
X28293726Y-13053776D01*
X28196224Y-12956274D01*
X28081574Y-12879668D01*
X27954182Y-12826901D01*
X27818944Y-12800000D01*
X27681056Y-12800000D01*
X27545818Y-12826901D01*
X27418426Y-12879668D01*
X27303776Y-12956274D01*
X27206274Y-13053776D01*
X27129668Y-13168426D01*
X27076901Y-13295818D01*
X27050000Y-13431056D01*
X26451935Y-13431056D01*
X26451935Y-12600000D01*
X26444212Y-12521586D01*
X26421340Y-12446186D01*
X26384197Y-12376697D01*
X26334211Y-12315789D01*
X26314972Y-12300000D01*
X29085028Y-12300000D01*
X29065789Y-12315789D01*
G37*
X29065789Y-12315789D02*
X29015803Y-12376697D01*
X28978660Y-12446186D01*
X28955788Y-12521586D01*
X28948065Y-12600000D01*
X28948065Y-13600000D01*
X28955788Y-13678414D01*
X28978660Y-13753814D01*
X29015803Y-13823303D01*
X29065789Y-13884211D01*
X29126697Y-13934197D01*
X29196186Y-13971340D01*
X29271586Y-13994212D01*
X29350000Y-14001935D01*
X29828407Y-14001935D01*
X30017391Y-14190919D01*
X30036183Y-14213817D01*
X30127545Y-14288796D01*
X30184575Y-14319279D01*
X30231778Y-14344510D01*
X30338671Y-14376935D01*
X30344879Y-14378818D01*
X30381044Y-14382380D01*
X30462500Y-14390403D01*
X30491974Y-14387500D01*
X30657555Y-14387500D01*
X30704859Y-14445141D01*
X30798916Y-14522331D01*
X30906224Y-14579688D01*
X31022660Y-14615009D01*
X31143750Y-14626935D01*
X31390908Y-14626935D01*
X31900001Y-15136029D01*
X31900000Y-16017814D01*
X31766918Y-16106737D01*
X31606737Y-16266918D01*
X31480884Y-16455271D01*
X31394194Y-16664557D01*
X31350000Y-16886735D01*
X31350000Y-17113265D01*
X31394194Y-17335443D01*
X31480884Y-17544729D01*
X31606737Y-17733082D01*
X31762564Y-17888909D01*
X30278408Y-19373065D01*
X30043750Y-19373065D01*
X29922660Y-19384991D01*
X29806224Y-19420312D01*
X29698916Y-19477669D01*
X29604859Y-19554859D01*
X29527669Y-19648916D01*
X29470312Y-19756224D01*
X29434991Y-19872660D01*
X29423065Y-19993750D01*
X29423065Y-20431250D01*
X29434991Y-20552340D01*
X29470312Y-20668776D01*
X29527669Y-20776084D01*
X29604859Y-20870141D01*
X29698916Y-20947331D01*
X29797453Y-21000000D01*
X29698916Y-21052669D01*
X29604859Y-21129859D01*
X29547296Y-21200000D01*
X29501935Y-21200000D01*
X29501935Y-21000000D01*
X29494212Y-20921586D01*
X29471340Y-20846186D01*
X29434197Y-20776697D01*
X29384211Y-20715789D01*
X29323303Y-20665803D01*
X29253814Y-20628660D01*
X29178414Y-20605788D01*
X29100000Y-20598065D01*
X27600462Y-20598065D01*
X29849872Y-18348656D01*
X30084611Y-18301963D01*
X30312097Y-18207735D01*
X30516828Y-18070938D01*
X30690938Y-17896828D01*
X30827735Y-17692097D01*
X30921963Y-17464611D01*
X30970000Y-17223114D01*
X30970000Y-16976886D01*
X30921963Y-16735389D01*
X30827735Y-16507903D01*
X30690938Y-16303172D01*
X30516828Y-16129062D01*
X30312097Y-15992265D01*
X30084611Y-15898037D01*
X29843114Y-15850000D01*
X29596886Y-15850000D01*
X29355389Y-15898037D01*
X29288291Y-15925830D01*
X29259471Y-15897010D01*
X29259467Y-15897005D01*
X28809470Y-15447009D01*
X28793027Y-15426973D01*
X28713086Y-15361367D01*
X28621881Y-15312617D01*
X28522918Y-15282597D01*
X28445788Y-15275000D01*
X28445780Y-15275000D01*
X28420000Y-15272461D01*
X28394220Y-15275000D01*
X24889972Y-15275000D01*
X24909211Y-15259211D01*
X24959197Y-15198303D01*
X24996340Y-15128814D01*
X25019212Y-15053414D01*
X25026935Y-14975000D01*
X25025000Y-14625000D01*
X24925000Y-14525000D01*
X24212500Y-14525000D01*
X24212500Y-14545000D01*
X24162500Y-14545000D01*
X24162500Y-14525000D01*
X24142500Y-14525000D01*
X24142500Y-14475000D01*
X24162500Y-14475000D01*
X24162500Y-13025000D01*
X24142500Y-13025000D01*
X24142500Y-12975000D01*
X24162500Y-12975000D01*
X24162500Y-12955000D01*
X24212500Y-12955000D01*
X24212500Y-12975000D01*
X24232500Y-12975000D01*
X24232500Y-13025000D01*
X24212500Y-13025000D01*
X24212500Y-14475000D01*
X24925000Y-14475000D01*
X25025000Y-14375000D01*
X25026935Y-14025000D01*
X25020287Y-13957496D01*
X25046186Y-13971340D01*
X25121586Y-13994212D01*
X25200000Y-14001935D01*
X26050000Y-14001935D01*
X26128414Y-13994212D01*
X26203814Y-13971340D01*
X26273303Y-13934197D01*
X26334211Y-13884211D01*
X26384197Y-13823303D01*
X26421340Y-13753814D01*
X26444212Y-13678414D01*
X26451935Y-13600000D01*
X26451935Y-13431056D01*
X27050000Y-13431056D01*
X27050000Y-13568944D01*
X27076901Y-13704182D01*
X27129668Y-13831574D01*
X27206274Y-13946224D01*
X27303776Y-14043726D01*
X27418426Y-14120332D01*
X27545818Y-14173099D01*
X27681056Y-14200000D01*
X27818944Y-14200000D01*
X27954182Y-14173099D01*
X28081574Y-14120332D01*
X28196224Y-14043726D01*
X28293726Y-13946224D01*
X28370332Y-13831574D01*
X28423099Y-13704182D01*
X28450000Y-13568944D01*
X28450000Y-13431056D01*
X28423099Y-13295818D01*
X28370332Y-13168426D01*
X28293726Y-13053776D01*
X28196224Y-12956274D01*
X28081574Y-12879668D01*
X27954182Y-12826901D01*
X27818944Y-12800000D01*
X27681056Y-12800000D01*
X27545818Y-12826901D01*
X27418426Y-12879668D01*
X27303776Y-12956274D01*
X27206274Y-13053776D01*
X27129668Y-13168426D01*
X27076901Y-13295818D01*
X27050000Y-13431056D01*
X26451935Y-13431056D01*
X26451935Y-12600000D01*
X26444212Y-12521586D01*
X26421340Y-12446186D01*
X26384197Y-12376697D01*
X26334211Y-12315789D01*
X26314972Y-12300000D01*
X29085028Y-12300000D01*
X29065789Y-12315789D01*
G36*
X23844514Y-16143471D02*
G01*
X23739249Y-16233310D01*
X23587474Y-16425691D01*
X23476147Y-16643985D01*
X23409546Y-16879804D01*
X23490249Y-17075000D01*
X24615000Y-17075000D01*
X24615000Y-17055000D01*
X24665000Y-17055000D01*
X24665000Y-17075000D01*
X25789751Y-17075000D01*
X25870454Y-16879804D01*
X25803853Y-16643985D01*
X25692526Y-16425691D01*
X25613088Y-16325000D01*
X26206912Y-16325000D01*
X26127474Y-16425691D01*
X26016147Y-16643985D01*
X25949546Y-16879804D01*
X26030249Y-17075000D01*
X27155000Y-17075000D01*
X27155000Y-17055000D01*
X27205000Y-17055000D01*
X27205000Y-17075000D01*
X28329751Y-17075000D01*
X28410454Y-16879804D01*
X28343853Y-16643985D01*
X28232526Y-16425691D01*
X28153088Y-16325000D01*
X28202539Y-16325000D01*
X28517005Y-16639467D01*
X28517010Y-16639471D01*
X28545830Y-16668291D01*
X28518037Y-16735389D01*
X28470000Y-16976886D01*
X28470000Y-17223114D01*
X28518037Y-17464611D01*
X28612265Y-17692097D01*
X28691216Y-17810256D01*
X26296582Y-20204891D01*
X26273684Y-20223683D01*
X26198705Y-20315045D01*
X26142990Y-20419279D01*
X26108682Y-20532379D01*
X26108682Y-20532380D01*
X26101935Y-20600881D01*
X26101935Y-20200000D01*
X26094212Y-20121586D01*
X26071340Y-20046186D01*
X26034197Y-19976697D01*
X25984211Y-19915789D01*
X25923303Y-19865803D01*
X25853814Y-19828660D01*
X25778414Y-19805788D01*
X25700000Y-19798065D01*
X24500000Y-19798065D01*
X24421586Y-19805788D01*
X24346186Y-19828660D01*
X24276697Y-19865803D01*
X24215789Y-19915789D01*
X24165803Y-19976697D01*
X24128660Y-20046186D01*
X24109122Y-20110594D01*
X22980239Y-18981711D01*
X22973099Y-18945818D01*
X22920332Y-18818426D01*
X22843726Y-18703776D01*
X22746224Y-18606274D01*
X22700000Y-18575388D01*
X22700000Y-18202454D01*
X22896828Y-18070938D01*
X23070938Y-17896828D01*
X23207735Y-17692097D01*
X23301963Y-17464611D01*
X23330689Y-17320196D01*
X23409546Y-17320196D01*
X23476147Y-17556015D01*
X23587474Y-17774309D01*
X23739249Y-17966690D01*
X23925640Y-18125765D01*
X24139483Y-18245420D01*
X24372561Y-18321057D01*
X24419804Y-18330453D01*
X24615000Y-18249728D01*
X24615000Y-17125000D01*
X24665000Y-17125000D01*
X24665000Y-18249728D01*
X24860196Y-18330453D01*
X24907439Y-18321057D01*
X25140517Y-18245420D01*
X25354360Y-18125765D01*
X25540751Y-17966690D01*
X25692526Y-17774309D01*
X25803853Y-17556015D01*
X25870454Y-17320196D01*
X25949546Y-17320196D01*
X26016147Y-17556015D01*
X26127474Y-17774309D01*
X26279249Y-17966690D01*
X26465640Y-18125765D01*
X26679483Y-18245420D01*
X26912561Y-18321057D01*
X26959804Y-18330453D01*
X27155000Y-18249728D01*
X27155000Y-17125000D01*
X27205000Y-17125000D01*
X27205000Y-18249728D01*
X27400196Y-18330453D01*
X27447439Y-18321057D01*
X27680517Y-18245420D01*
X27894360Y-18125765D01*
X28080751Y-17966690D01*
X28232526Y-17774309D01*
X28343853Y-17556015D01*
X28410454Y-17320196D01*
X28329751Y-17125000D01*
X27205000Y-17125000D01*
X27155000Y-17125000D01*
X26030249Y-17125000D01*
X25949546Y-17320196D01*
X25870454Y-17320196D01*
X25789751Y-17125000D01*
X24665000Y-17125000D01*
X24615000Y-17125000D01*
X23490249Y-17125000D01*
X23409546Y-17320196D01*
X23330689Y-17320196D01*
X23350000Y-17223114D01*
X23350000Y-16976886D01*
X23301963Y-16735389D01*
X23212500Y-16519407D01*
X23212500Y-16279475D01*
X23215403Y-16250001D01*
X23208457Y-16179474D01*
X23203818Y-16132380D01*
X23200000Y-16119794D01*
X23200000Y-15498955D01*
X23844514Y-16143471D01*
G37*
X23844514Y-16143471D02*
X23739249Y-16233310D01*
X23587474Y-16425691D01*
X23476147Y-16643985D01*
X23409546Y-16879804D01*
X23490249Y-17075000D01*
X24615000Y-17075000D01*
X24615000Y-17055000D01*
X24665000Y-17055000D01*
X24665000Y-17075000D01*
X25789751Y-17075000D01*
X25870454Y-16879804D01*
X25803853Y-16643985D01*
X25692526Y-16425691D01*
X25613088Y-16325000D01*
X26206912Y-16325000D01*
X26127474Y-16425691D01*
X26016147Y-16643985D01*
X25949546Y-16879804D01*
X26030249Y-17075000D01*
X27155000Y-17075000D01*
X27155000Y-17055000D01*
X27205000Y-17055000D01*
X27205000Y-17075000D01*
X28329751Y-17075000D01*
X28410454Y-16879804D01*
X28343853Y-16643985D01*
X28232526Y-16425691D01*
X28153088Y-16325000D01*
X28202539Y-16325000D01*
X28517005Y-16639467D01*
X28517010Y-16639471D01*
X28545830Y-16668291D01*
X28518037Y-16735389D01*
X28470000Y-16976886D01*
X28470000Y-17223114D01*
X28518037Y-17464611D01*
X28612265Y-17692097D01*
X28691216Y-17810256D01*
X26296582Y-20204891D01*
X26273684Y-20223683D01*
X26198705Y-20315045D01*
X26142990Y-20419279D01*
X26108682Y-20532379D01*
X26108682Y-20532380D01*
X26101935Y-20600881D01*
X26101935Y-20200000D01*
X26094212Y-20121586D01*
X26071340Y-20046186D01*
X26034197Y-19976697D01*
X25984211Y-19915789D01*
X25923303Y-19865803D01*
X25853814Y-19828660D01*
X25778414Y-19805788D01*
X25700000Y-19798065D01*
X24500000Y-19798065D01*
X24421586Y-19805788D01*
X24346186Y-19828660D01*
X24276697Y-19865803D01*
X24215789Y-19915789D01*
X24165803Y-19976697D01*
X24128660Y-20046186D01*
X24109122Y-20110594D01*
X22980239Y-18981711D01*
X22973099Y-18945818D01*
X22920332Y-18818426D01*
X22843726Y-18703776D01*
X22746224Y-18606274D01*
X22700000Y-18575388D01*
X22700000Y-18202454D01*
X22896828Y-18070938D01*
X23070938Y-17896828D01*
X23207735Y-17692097D01*
X23301963Y-17464611D01*
X23330689Y-17320196D01*
X23409546Y-17320196D01*
X23476147Y-17556015D01*
X23587474Y-17774309D01*
X23739249Y-17966690D01*
X23925640Y-18125765D01*
X24139483Y-18245420D01*
X24372561Y-18321057D01*
X24419804Y-18330453D01*
X24615000Y-18249728D01*
X24615000Y-17125000D01*
X24665000Y-17125000D01*
X24665000Y-18249728D01*
X24860196Y-18330453D01*
X24907439Y-18321057D01*
X25140517Y-18245420D01*
X25354360Y-18125765D01*
X25540751Y-17966690D01*
X25692526Y-17774309D01*
X25803853Y-17556015D01*
X25870454Y-17320196D01*
X25949546Y-17320196D01*
X26016147Y-17556015D01*
X26127474Y-17774309D01*
X26279249Y-17966690D01*
X26465640Y-18125765D01*
X26679483Y-18245420D01*
X26912561Y-18321057D01*
X26959804Y-18330453D01*
X27155000Y-18249728D01*
X27155000Y-17125000D01*
X27205000Y-17125000D01*
X27205000Y-18249728D01*
X27400196Y-18330453D01*
X27447439Y-18321057D01*
X27680517Y-18245420D01*
X27894360Y-18125765D01*
X28080751Y-17966690D01*
X28232526Y-17774309D01*
X28343853Y-17556015D01*
X28410454Y-17320196D01*
X28329751Y-17125000D01*
X27205000Y-17125000D01*
X27155000Y-17125000D01*
X26030249Y-17125000D01*
X25949546Y-17320196D01*
X25870454Y-17320196D01*
X25789751Y-17125000D01*
X24665000Y-17125000D01*
X24615000Y-17125000D01*
X23490249Y-17125000D01*
X23409546Y-17320196D01*
X23330689Y-17320196D01*
X23350000Y-17223114D01*
X23350000Y-16976886D01*
X23301963Y-16735389D01*
X23212500Y-16519407D01*
X23212500Y-16279475D01*
X23215403Y-16250001D01*
X23208457Y-16179474D01*
X23203818Y-16132380D01*
X23200000Y-16119794D01*
X23200000Y-15498955D01*
X23844514Y-16143471D01*
D25*
X25000000Y-18699998D03*
X26900000Y-18700000D03*
X7600000Y-11400000D03*
X7700000Y-22700000D03*
X7800000Y-18900000D03*
X7800000Y-15200000D03*
X14600000Y-15900000D03*
X13400000Y-12900000D03*
X15999980Y-9000000D03*
X18350000Y-18500000D03*
X18350000Y-17900000D03*
X11400000Y-21900000D03*
X18650000Y-21350000D03*
X20550000Y-19250000D03*
X18350000Y-17300000D03*
X11300000Y-11950000D03*
X18400000Y-23650000D03*
X29300000Y-15350000D03*
X35500000Y-26500000D03*
X38000000Y-26500000D03*
X8000000Y-27500000D03*
X8000000Y-6500000D03*
X35500000Y-7500000D03*
X38000000Y-7500000D03*
X26700000Y-15174990D03*
X24900002Y-15100000D03*
X23600002Y-21500000D03*
X15350000Y-27150000D03*
X10650000Y-27400000D03*
X15500000Y-6850000D03*
X10700000Y-6650000D03*
X14000000Y-11000000D03*
X25250000Y-11000000D03*
X16350000Y-18925000D03*
X22300000Y-19150000D03*
X18590026Y-10009974D03*
X22600000Y-15100000D03*
X14000000Y-23000000D03*
X23750000Y-22500000D03*
X13658058Y-17641942D03*
X17250000Y-14900000D03*
X20658602Y-18448566D03*
X20800000Y-15550000D03*
X20400000Y-13800000D03*
X27750000Y-13500000D03*
D26*
X21051188Y-8431946D02*
X24948812Y-8568054D01*
X21151188Y-25568054D02*
X25048812Y-25431946D01*
D27*
X35100000Y-18800000D03*
X35100000Y-15200000D03*
D28*
X32500000Y-17000000D03*
D27*
X36800000Y-12000000D03*
D28*
X29720000Y-17100000D03*
X27180000Y-17100000D03*
X24640000Y-17100000D03*
X22100000Y-17100000D03*
M02*
