G04 #@! TF.GenerationSoftware,KiCad,Pcbnew,5.1.5+dfsg1-2build2*
G04 #@! TF.CreationDate,2021-01-13T09:20:08+02:00*
G04 #@! TF.ProjectId,differential-tweezer,64696666-6572-4656-9e74-69616c2d7477,rev?*
G04 #@! TF.SameCoordinates,Original*
G04 #@! TF.FileFunction,Soldermask,Top*
G04 #@! TF.FilePolarity,Negative*
%FSLAX46Y46*%
G04 Gerber Fmt 4.6, Leading zero omitted, Abs format (unit mm)*
G04 Created by KiCad (PCBNEW 5.1.5+dfsg1-2build2) date 2021-01-13 09:20:08*
%MOMM*%
%LPD*%
G04 APERTURE LIST*
%ADD10C,0.100000*%
%ADD11C,0.350000*%
G04 APERTURE END LIST*
D10*
G36*
X16450000Y-5800000D02*
G01*
X16350000Y-7950000D01*
X11450000Y-7800000D01*
X11550000Y-5600000D01*
X16450000Y-5800000D01*
G37*
X16450000Y-5800000D02*
X16350000Y-7950000D01*
X11450000Y-7800000D01*
X11550000Y-5600000D01*
X16450000Y-5800000D01*
G36*
X16450000Y-28200000D02*
G01*
X11550000Y-28400000D01*
X11450000Y-26200000D01*
X16350000Y-26050000D01*
X16450000Y-28200000D01*
G37*
X16450000Y-28200000D02*
X11550000Y-28400000D01*
X11450000Y-26200000D01*
X16350000Y-26050000D01*
X16450000Y-28200000D01*
G36*
X38100000Y-6500000D02*
G01*
X38500000Y-6600000D01*
X38800000Y-6900000D01*
X39000000Y-7200000D01*
X39000000Y-7700000D01*
X38800000Y-8100000D01*
X38500000Y-8400000D01*
X38100000Y-8500000D01*
X34900000Y-8400000D01*
X34600000Y-8600000D01*
X34500000Y-8900000D01*
X34600000Y-9200000D01*
X34900000Y-9400000D01*
X38200000Y-9500000D01*
X38600000Y-9700000D01*
X38900000Y-10000000D01*
X39000000Y-10300000D01*
X39000000Y-10600000D01*
X34000000Y-10500000D01*
X34100000Y-6400000D01*
X38100000Y-6500000D01*
G37*
X38100000Y-6500000D02*
X38500000Y-6600000D01*
X38800000Y-6900000D01*
X39000000Y-7200000D01*
X39000000Y-7700000D01*
X38800000Y-8100000D01*
X38500000Y-8400000D01*
X38100000Y-8500000D01*
X34900000Y-8400000D01*
X34600000Y-8600000D01*
X34500000Y-8900000D01*
X34600000Y-9200000D01*
X34900000Y-9400000D01*
X38200000Y-9500000D01*
X38600000Y-9700000D01*
X38900000Y-10000000D01*
X39000000Y-10300000D01*
X39000000Y-10600000D01*
X34000000Y-10500000D01*
X34100000Y-6400000D01*
X38100000Y-6500000D01*
G36*
X39000000Y-23700000D02*
G01*
X38900000Y-24000000D01*
X38600000Y-24300000D01*
X38200000Y-24500000D01*
X34900000Y-24600000D01*
X34600000Y-24800000D01*
X34500000Y-25100000D01*
X34600000Y-25400000D01*
X34900000Y-25600000D01*
X38100000Y-25500000D01*
X38500000Y-25600000D01*
X38800000Y-25900000D01*
X39000000Y-26300000D01*
X39000000Y-26800000D01*
X38800000Y-27100000D01*
X38500000Y-27400000D01*
X38100000Y-27500000D01*
X34100000Y-27600000D01*
X34000000Y-23500000D01*
X39000000Y-23400000D01*
X39000000Y-23700000D01*
G37*
X39000000Y-23700000D02*
X38900000Y-24000000D01*
X38600000Y-24300000D01*
X38200000Y-24500000D01*
X34900000Y-24600000D01*
X34600000Y-24800000D01*
X34500000Y-25100000D01*
X34600000Y-25400000D01*
X34900000Y-25600000D01*
X38100000Y-25500000D01*
X38500000Y-25600000D01*
X38800000Y-25900000D01*
X39000000Y-26300000D01*
X39000000Y-26800000D01*
X38800000Y-27100000D01*
X38500000Y-27400000D01*
X38100000Y-27500000D01*
X34100000Y-27600000D01*
X34000000Y-23500000D01*
X39000000Y-23400000D01*
X39000000Y-23700000D01*
G36*
X11800000Y-5600000D02*
G01*
X11600000Y-9700000D01*
X7000000Y-9600000D01*
X7100000Y-9100000D01*
X7400000Y-8700000D01*
X8000000Y-8500000D01*
X11100000Y-8600000D01*
X11400000Y-8400000D01*
X11400000Y-8100000D01*
X11300000Y-7700000D01*
X10800000Y-7600000D01*
X7900000Y-7500000D01*
X7400000Y-7300000D01*
X7100000Y-7000000D01*
X7000000Y-6400000D01*
X7300000Y-5800000D01*
X7900000Y-5500000D01*
X11800000Y-5600000D01*
G37*
X11800000Y-5600000D02*
X11600000Y-9700000D01*
X7000000Y-9600000D01*
X7100000Y-9100000D01*
X7400000Y-8700000D01*
X8000000Y-8500000D01*
X11100000Y-8600000D01*
X11400000Y-8400000D01*
X11400000Y-8100000D01*
X11300000Y-7700000D01*
X10800000Y-7600000D01*
X7900000Y-7500000D01*
X7400000Y-7300000D01*
X7100000Y-7000000D01*
X7000000Y-6400000D01*
X7300000Y-5800000D01*
X7900000Y-5500000D01*
X11800000Y-5600000D01*
G36*
X11800000Y-28400000D02*
G01*
X7900000Y-28500000D01*
X7300000Y-28200000D01*
X7000000Y-27600000D01*
X7100000Y-27000000D01*
X7400000Y-26700000D01*
X7900000Y-26500000D01*
X10800000Y-26400000D01*
X11300000Y-26300000D01*
X11400000Y-25900000D01*
X11400000Y-25600000D01*
X11100000Y-25400000D01*
X8000000Y-25500000D01*
X7400000Y-25300000D01*
X7100000Y-24900000D01*
X7000000Y-24400000D01*
X11600000Y-24300000D01*
X11800000Y-28400000D01*
G37*
X11800000Y-28400000D02*
X7900000Y-28500000D01*
X7300000Y-28200000D01*
X7000000Y-27600000D01*
X7100000Y-27000000D01*
X7400000Y-26700000D01*
X7900000Y-26500000D01*
X10800000Y-26400000D01*
X11300000Y-26300000D01*
X11400000Y-25900000D01*
X11400000Y-25600000D01*
X11100000Y-25400000D01*
X8000000Y-25500000D01*
X7400000Y-25300000D01*
X7100000Y-24900000D01*
X7000000Y-24400000D01*
X11600000Y-24300000D01*
X11800000Y-28400000D01*
D11*
G36*
X25266864Y-24093054D02*
G01*
X25523879Y-24161321D01*
X25762638Y-24278417D01*
X25973964Y-24439842D01*
X26149738Y-24639393D01*
X26283203Y-24869402D01*
X26369232Y-25121029D01*
X26404517Y-25384604D01*
X26387704Y-25649998D01*
X26360889Y-25750951D01*
X26319436Y-25907018D01*
X26248995Y-26050647D01*
X26202342Y-26145772D01*
X26040916Y-26357098D01*
X25841365Y-26532871D01*
X25611356Y-26666337D01*
X25359729Y-26752366D01*
X25162207Y-26778809D01*
X21132022Y-26919546D01*
X20933136Y-26906946D01*
X20715481Y-26849134D01*
X20676120Y-26838679D01*
X20437366Y-26721585D01*
X20437362Y-26721583D01*
X20226036Y-26560158D01*
X20050263Y-26360607D01*
X19916797Y-26130598D01*
X19830768Y-25878971D01*
X19795483Y-25615396D01*
X19812296Y-25350002D01*
X19880563Y-25092987D01*
X19997659Y-24854228D01*
X20159084Y-24642902D01*
X20358635Y-24467129D01*
X20588644Y-24333663D01*
X20840271Y-24247634D01*
X21037794Y-24221191D01*
X25067978Y-24080454D01*
X25266864Y-24093054D01*
G37*
G36*
X15375672Y-25648170D02*
G01*
X12277376Y-25750951D01*
X12224328Y-24151830D01*
X15322624Y-24049049D01*
X15375672Y-25648170D01*
G37*
G36*
X16541950Y-23279222D02*
G01*
X16578673Y-23290362D01*
X16612526Y-23308457D01*
X16642195Y-23332805D01*
X16666543Y-23362474D01*
X16684638Y-23396327D01*
X16695778Y-23433050D01*
X16700000Y-23475921D01*
X16700000Y-24124079D01*
X16695778Y-24166950D01*
X16684638Y-24203673D01*
X16666543Y-24237526D01*
X16642195Y-24267195D01*
X16612526Y-24291543D01*
X16578673Y-24309638D01*
X16541950Y-24320778D01*
X16499079Y-24325000D01*
X15925921Y-24325000D01*
X15883050Y-24320778D01*
X15846327Y-24309638D01*
X15812474Y-24291543D01*
X15782805Y-24267195D01*
X15758457Y-24237526D01*
X15740362Y-24203673D01*
X15729222Y-24166950D01*
X15725000Y-24124079D01*
X15725000Y-23475921D01*
X15729222Y-23433050D01*
X15740362Y-23396327D01*
X15758457Y-23362474D01*
X15782805Y-23332805D01*
X15812474Y-23308457D01*
X15846327Y-23290362D01*
X15883050Y-23279222D01*
X15925921Y-23275000D01*
X16499079Y-23275000D01*
X16541950Y-23279222D01*
G37*
G36*
X18116950Y-23279222D02*
G01*
X18153673Y-23290362D01*
X18187526Y-23308457D01*
X18217195Y-23332805D01*
X18241543Y-23362474D01*
X18259638Y-23396327D01*
X18270778Y-23433050D01*
X18275000Y-23475921D01*
X18275000Y-24124079D01*
X18270778Y-24166950D01*
X18259638Y-24203673D01*
X18241543Y-24237526D01*
X18217195Y-24267195D01*
X18187526Y-24291543D01*
X18153673Y-24309638D01*
X18116950Y-24320778D01*
X18074079Y-24325000D01*
X17500921Y-24325000D01*
X17458050Y-24320778D01*
X17421327Y-24309638D01*
X17387474Y-24291543D01*
X17357805Y-24267195D01*
X17333457Y-24237526D01*
X17315362Y-24203673D01*
X17304222Y-24166950D01*
X17300000Y-24124079D01*
X17300000Y-23475921D01*
X17304222Y-23433050D01*
X17315362Y-23396327D01*
X17333457Y-23362474D01*
X17357805Y-23332805D01*
X17387474Y-23308457D01*
X17421327Y-23290362D01*
X17458050Y-23279222D01*
X17500921Y-23275000D01*
X18074079Y-23275000D01*
X18116950Y-23279222D01*
G37*
G36*
X25750000Y-23450000D02*
G01*
X24450000Y-23450000D01*
X24450000Y-22150000D01*
X25750000Y-22150000D01*
X25750000Y-23450000D01*
G37*
G36*
X9150000Y-23200000D02*
G01*
X8200000Y-23200000D01*
X8200000Y-22100000D01*
X9150000Y-22100000D01*
X9150000Y-23200000D01*
G37*
G36*
X13300000Y-23200000D02*
G01*
X12350000Y-23200000D01*
X12350000Y-22100000D01*
X13300000Y-22100000D01*
X13300000Y-23200000D01*
G37*
G36*
X21516950Y-22129222D02*
G01*
X21553673Y-22140362D01*
X21587526Y-22158457D01*
X21617195Y-22182805D01*
X21641543Y-22212474D01*
X21659638Y-22246327D01*
X21670778Y-22283050D01*
X21675000Y-22325921D01*
X21675000Y-22974079D01*
X21670778Y-23016950D01*
X21659638Y-23053673D01*
X21641543Y-23087526D01*
X21617195Y-23117195D01*
X21587526Y-23141543D01*
X21553673Y-23159638D01*
X21516950Y-23170778D01*
X21474079Y-23175000D01*
X20900921Y-23175000D01*
X20858050Y-23170778D01*
X20821327Y-23159638D01*
X20787474Y-23141543D01*
X20757805Y-23117195D01*
X20733457Y-23087526D01*
X20715362Y-23053673D01*
X20704222Y-23016950D01*
X20700000Y-22974079D01*
X20700000Y-22325921D01*
X20704222Y-22283050D01*
X20715362Y-22246327D01*
X20733457Y-22212474D01*
X20757805Y-22182805D01*
X20787474Y-22158457D01*
X20821327Y-22140362D01*
X20858050Y-22129222D01*
X20900921Y-22125000D01*
X21474079Y-22125000D01*
X21516950Y-22129222D01*
G37*
G36*
X19941950Y-22129222D02*
G01*
X19978673Y-22140362D01*
X20012526Y-22158457D01*
X20042195Y-22182805D01*
X20066543Y-22212474D01*
X20084638Y-22246327D01*
X20095778Y-22283050D01*
X20100000Y-22325921D01*
X20100000Y-22974079D01*
X20095778Y-23016950D01*
X20084638Y-23053673D01*
X20066543Y-23087526D01*
X20042195Y-23117195D01*
X20012526Y-23141543D01*
X19978673Y-23159638D01*
X19941950Y-23170778D01*
X19899079Y-23175000D01*
X19325921Y-23175000D01*
X19283050Y-23170778D01*
X19246327Y-23159638D01*
X19212474Y-23141543D01*
X19182805Y-23117195D01*
X19158457Y-23087526D01*
X19140362Y-23053673D01*
X19129222Y-23016950D01*
X19125000Y-22974079D01*
X19125000Y-22325921D01*
X19129222Y-22283050D01*
X19140362Y-22246327D01*
X19158457Y-22212474D01*
X19182805Y-22182805D01*
X19212474Y-22158457D01*
X19246327Y-22140362D01*
X19283050Y-22129222D01*
X19325921Y-22125000D01*
X19899079Y-22125000D01*
X19941950Y-22129222D01*
G37*
G36*
X33587886Y-22007686D02*
G01*
X33645848Y-22019215D01*
X33736838Y-22056905D01*
X33818734Y-22111626D01*
X33888374Y-22181266D01*
X33943095Y-22263162D01*
X33980785Y-22354152D01*
X34000000Y-22450756D01*
X34000000Y-22549244D01*
X33980785Y-22645848D01*
X33943095Y-22736838D01*
X33888374Y-22818734D01*
X33818734Y-22888374D01*
X33736838Y-22943095D01*
X33645848Y-22980785D01*
X33587886Y-22992314D01*
X33549246Y-23000000D01*
X33450754Y-23000000D01*
X33412114Y-22992314D01*
X33354152Y-22980785D01*
X33263162Y-22943095D01*
X33181266Y-22888374D01*
X33111626Y-22818734D01*
X33056905Y-22736838D01*
X33019215Y-22645848D01*
X33000000Y-22549244D01*
X33000000Y-22450756D01*
X33019215Y-22354152D01*
X33056905Y-22263162D01*
X33111626Y-22181266D01*
X33181266Y-22111626D01*
X33263162Y-22056905D01*
X33354152Y-22019215D01*
X33412114Y-22007686D01*
X33450754Y-22000000D01*
X33549246Y-22000000D01*
X33587886Y-22007686D01*
G37*
G36*
X29150000Y-22650000D02*
G01*
X27550000Y-22650000D01*
X27550000Y-20950000D01*
X29150000Y-20950000D01*
X29150000Y-22650000D01*
G37*
G36*
X18680000Y-22625000D02*
G01*
X17520000Y-22625000D01*
X17520000Y-21875000D01*
X18680000Y-21875000D01*
X18680000Y-22625000D01*
G37*
G36*
X16480000Y-22625000D02*
G01*
X15320000Y-22625000D01*
X15320000Y-21875000D01*
X16480000Y-21875000D01*
X16480000Y-22625000D01*
G37*
G36*
X14566950Y-21304222D02*
G01*
X14603673Y-21315362D01*
X14637526Y-21333457D01*
X14667195Y-21357805D01*
X14691543Y-21387474D01*
X14709638Y-21421327D01*
X14720778Y-21458050D01*
X14725000Y-21500921D01*
X14725000Y-22074079D01*
X14720778Y-22116950D01*
X14709638Y-22153673D01*
X14691543Y-22187526D01*
X14667195Y-22217195D01*
X14637526Y-22241543D01*
X14603673Y-22259638D01*
X14566950Y-22270778D01*
X14524079Y-22275000D01*
X13875921Y-22275000D01*
X13833050Y-22270778D01*
X13796327Y-22259638D01*
X13762474Y-22241543D01*
X13732805Y-22217195D01*
X13708457Y-22187526D01*
X13690362Y-22153673D01*
X13679222Y-22116950D01*
X13675000Y-22074079D01*
X13675000Y-21500921D01*
X13679222Y-21458050D01*
X13690362Y-21421327D01*
X13708457Y-21387474D01*
X13732805Y-21357805D01*
X13762474Y-21333457D01*
X13796327Y-21315362D01*
X13833050Y-21304222D01*
X13875921Y-21300000D01*
X14524079Y-21300000D01*
X14566950Y-21304222D01*
G37*
G36*
X30666950Y-21304222D02*
G01*
X30703673Y-21315362D01*
X30737526Y-21333457D01*
X30767195Y-21357805D01*
X30791543Y-21387474D01*
X30809638Y-21421327D01*
X30820778Y-21458050D01*
X30825000Y-21500921D01*
X30825000Y-22074079D01*
X30820778Y-22116950D01*
X30809638Y-22153673D01*
X30791543Y-22187526D01*
X30767195Y-22217195D01*
X30737526Y-22241543D01*
X30703673Y-22259638D01*
X30666950Y-22270778D01*
X30624079Y-22275000D01*
X29975921Y-22275000D01*
X29933050Y-22270778D01*
X29896327Y-22259638D01*
X29862474Y-22241543D01*
X29832805Y-22217195D01*
X29808457Y-22187526D01*
X29790362Y-22153673D01*
X29779222Y-22116950D01*
X29775000Y-22074079D01*
X29775000Y-21500921D01*
X29779222Y-21458050D01*
X29790362Y-21421327D01*
X29808457Y-21387474D01*
X29832805Y-21357805D01*
X29862474Y-21333457D01*
X29896327Y-21315362D01*
X29933050Y-21304222D01*
X29975921Y-21300000D01*
X30624079Y-21300000D01*
X30666950Y-21304222D01*
G37*
G36*
X19941950Y-20629222D02*
G01*
X19978673Y-20640362D01*
X20012526Y-20658457D01*
X20042195Y-20682805D01*
X20066543Y-20712474D01*
X20084638Y-20746327D01*
X20095778Y-20783050D01*
X20100000Y-20825921D01*
X20100000Y-21474079D01*
X20095778Y-21516950D01*
X20084638Y-21553673D01*
X20066543Y-21587526D01*
X20042195Y-21617195D01*
X20012526Y-21641543D01*
X19978673Y-21659638D01*
X19941950Y-21670778D01*
X19899079Y-21675000D01*
X19325921Y-21675000D01*
X19283050Y-21670778D01*
X19246327Y-21659638D01*
X19212474Y-21641543D01*
X19182805Y-21617195D01*
X19158457Y-21587526D01*
X19140362Y-21553673D01*
X19129222Y-21516950D01*
X19125000Y-21474079D01*
X19125000Y-20825921D01*
X19129222Y-20783050D01*
X19140362Y-20746327D01*
X19158457Y-20712474D01*
X19182805Y-20682805D01*
X19212474Y-20658457D01*
X19246327Y-20640362D01*
X19283050Y-20629222D01*
X19325921Y-20625000D01*
X19899079Y-20625000D01*
X19941950Y-20629222D01*
G37*
G36*
X21516950Y-20629222D02*
G01*
X21553673Y-20640362D01*
X21587526Y-20658457D01*
X21617195Y-20682805D01*
X21641543Y-20712474D01*
X21659638Y-20746327D01*
X21670778Y-20783050D01*
X21675000Y-20825921D01*
X21675000Y-21474079D01*
X21670778Y-21516950D01*
X21659638Y-21553673D01*
X21641543Y-21587526D01*
X21617195Y-21617195D01*
X21587526Y-21641543D01*
X21553673Y-21659638D01*
X21516950Y-21670778D01*
X21474079Y-21675000D01*
X20900921Y-21675000D01*
X20858050Y-21670778D01*
X20821327Y-21659638D01*
X20787474Y-21641543D01*
X20757805Y-21617195D01*
X20733457Y-21587526D01*
X20715362Y-21553673D01*
X20704222Y-21516950D01*
X20700000Y-21474079D01*
X20700000Y-20825921D01*
X20704222Y-20783050D01*
X20715362Y-20746327D01*
X20733457Y-20712474D01*
X20757805Y-20682805D01*
X20787474Y-20658457D01*
X20821327Y-20640362D01*
X20858050Y-20629222D01*
X20900921Y-20625000D01*
X21474079Y-20625000D01*
X21516950Y-20629222D01*
G37*
G36*
X16480000Y-21675000D02*
G01*
X15320000Y-21675000D01*
X15320000Y-20925000D01*
X16480000Y-20925000D01*
X16480000Y-21675000D01*
G37*
G36*
X25750000Y-21450000D02*
G01*
X24450000Y-21450000D01*
X24450000Y-20150000D01*
X25750000Y-20150000D01*
X25750000Y-21450000D01*
G37*
G36*
X16480000Y-20725000D02*
G01*
X15320000Y-20725000D01*
X15320000Y-19975000D01*
X16480000Y-19975000D01*
X16480000Y-20725000D01*
G37*
G36*
X18680000Y-20725000D02*
G01*
X17520000Y-20725000D01*
X17520000Y-19975000D01*
X18680000Y-19975000D01*
X18680000Y-20725000D01*
G37*
G36*
X14566950Y-19729222D02*
G01*
X14603673Y-19740362D01*
X14637526Y-19758457D01*
X14667195Y-19782805D01*
X14691543Y-19812474D01*
X14709638Y-19846327D01*
X14720778Y-19883050D01*
X14725000Y-19925921D01*
X14725000Y-20499079D01*
X14720778Y-20541950D01*
X14709638Y-20578673D01*
X14691543Y-20612526D01*
X14667195Y-20642195D01*
X14637526Y-20666543D01*
X14603673Y-20684638D01*
X14566950Y-20695778D01*
X14524079Y-20700000D01*
X13875921Y-20700000D01*
X13833050Y-20695778D01*
X13796327Y-20684638D01*
X13762474Y-20666543D01*
X13732805Y-20642195D01*
X13708457Y-20612526D01*
X13690362Y-20578673D01*
X13679222Y-20541950D01*
X13675000Y-20499079D01*
X13675000Y-19925921D01*
X13679222Y-19883050D01*
X13690362Y-19846327D01*
X13708457Y-19812474D01*
X13732805Y-19782805D01*
X13762474Y-19758457D01*
X13796327Y-19740362D01*
X13833050Y-19729222D01*
X13875921Y-19725000D01*
X14524079Y-19725000D01*
X14566950Y-19729222D01*
G37*
G36*
X30666950Y-19729222D02*
G01*
X30703673Y-19740362D01*
X30737526Y-19758457D01*
X30767195Y-19782805D01*
X30791543Y-19812474D01*
X30809638Y-19846327D01*
X30820778Y-19883050D01*
X30825000Y-19925921D01*
X30825000Y-20499079D01*
X30820778Y-20541950D01*
X30809638Y-20578673D01*
X30791543Y-20612526D01*
X30767195Y-20642195D01*
X30737526Y-20666543D01*
X30703673Y-20684638D01*
X30666950Y-20695778D01*
X30624079Y-20700000D01*
X29975921Y-20700000D01*
X29933050Y-20695778D01*
X29896327Y-20684638D01*
X29862474Y-20666543D01*
X29832805Y-20642195D01*
X29808457Y-20612526D01*
X29790362Y-20578673D01*
X29779222Y-20541950D01*
X29775000Y-20499079D01*
X29775000Y-19925921D01*
X29779222Y-19883050D01*
X29790362Y-19846327D01*
X29808457Y-19812474D01*
X29832805Y-19782805D01*
X29862474Y-19758457D01*
X29896327Y-19740362D01*
X29933050Y-19729222D01*
X29975921Y-19725000D01*
X30624079Y-19725000D01*
X30666950Y-19729222D01*
G37*
G36*
X13000000Y-20550000D02*
G01*
X11700000Y-20550000D01*
X11700000Y-19250000D01*
X13000000Y-19250000D01*
X13000000Y-20550000D01*
G37*
G36*
X21516950Y-19129222D02*
G01*
X21553673Y-19140362D01*
X21587526Y-19158457D01*
X21617195Y-19182805D01*
X21641543Y-19212474D01*
X21659638Y-19246327D01*
X21670778Y-19283050D01*
X21675000Y-19325921D01*
X21675000Y-19974079D01*
X21670778Y-20016950D01*
X21659638Y-20053673D01*
X21641543Y-20087526D01*
X21617195Y-20117195D01*
X21587526Y-20141543D01*
X21553673Y-20159638D01*
X21516950Y-20170778D01*
X21474079Y-20175000D01*
X20900921Y-20175000D01*
X20858050Y-20170778D01*
X20821327Y-20159638D01*
X20787474Y-20141543D01*
X20757805Y-20117195D01*
X20733457Y-20087526D01*
X20715362Y-20053673D01*
X20704222Y-20016950D01*
X20700000Y-19974079D01*
X20700000Y-19325921D01*
X20704222Y-19283050D01*
X20715362Y-19246327D01*
X20733457Y-19212474D01*
X20757805Y-19182805D01*
X20787474Y-19158457D01*
X20821327Y-19140362D01*
X20858050Y-19129222D01*
X20900921Y-19125000D01*
X21474079Y-19125000D01*
X21516950Y-19129222D01*
G37*
G36*
X19941950Y-19129222D02*
G01*
X19978673Y-19140362D01*
X20012526Y-19158457D01*
X20042195Y-19182805D01*
X20066543Y-19212474D01*
X20084638Y-19246327D01*
X20095778Y-19283050D01*
X20100000Y-19325921D01*
X20100000Y-19974079D01*
X20095778Y-20016950D01*
X20084638Y-20053673D01*
X20066543Y-20087526D01*
X20042195Y-20117195D01*
X20012526Y-20141543D01*
X19978673Y-20159638D01*
X19941950Y-20170778D01*
X19899079Y-20175000D01*
X19325921Y-20175000D01*
X19283050Y-20170778D01*
X19246327Y-20159638D01*
X19212474Y-20141543D01*
X19182805Y-20117195D01*
X19158457Y-20087526D01*
X19140362Y-20053673D01*
X19129222Y-20016950D01*
X19125000Y-19974079D01*
X19125000Y-19325921D01*
X19129222Y-19283050D01*
X19140362Y-19246327D01*
X19158457Y-19212474D01*
X19182805Y-19182805D01*
X19212474Y-19158457D01*
X19246327Y-19140362D01*
X19283050Y-19129222D01*
X19325921Y-19125000D01*
X19899079Y-19125000D01*
X19941950Y-19129222D01*
G37*
G36*
X9900000Y-19750000D02*
G01*
X8300000Y-19750000D01*
X8300000Y-18050000D01*
X9900000Y-18050000D01*
X9900000Y-19750000D01*
G37*
G36*
X36006830Y-18011576D02*
G01*
X36157625Y-18057319D01*
X36296610Y-18131608D01*
X36418423Y-18231577D01*
X36518392Y-18353390D01*
X36592681Y-18492375D01*
X36638424Y-18643170D01*
X36653870Y-18800000D01*
X36638424Y-18956830D01*
X36592681Y-19107625D01*
X36518392Y-19246610D01*
X36418423Y-19368423D01*
X36296610Y-19468392D01*
X36157625Y-19542681D01*
X36006830Y-19588424D01*
X35889293Y-19600000D01*
X34310707Y-19600000D01*
X34193170Y-19588424D01*
X34042375Y-19542681D01*
X33903390Y-19468392D01*
X33781577Y-19368423D01*
X33681608Y-19246610D01*
X33607319Y-19107625D01*
X33561576Y-18956830D01*
X33546130Y-18800000D01*
X33561576Y-18643170D01*
X33607319Y-18492375D01*
X33681608Y-18353390D01*
X33781577Y-18231577D01*
X33903390Y-18131608D01*
X34042375Y-18057319D01*
X34193170Y-18011576D01*
X34310707Y-18000000D01*
X35889293Y-18000000D01*
X36006830Y-18011576D01*
G37*
G36*
X14541950Y-18279222D02*
G01*
X14578673Y-18290362D01*
X14612526Y-18308457D01*
X14642195Y-18332805D01*
X14666543Y-18362474D01*
X14684638Y-18396327D01*
X14695778Y-18433050D01*
X14700000Y-18475921D01*
X14700000Y-19124079D01*
X14695778Y-19166950D01*
X14684638Y-19203673D01*
X14666543Y-19237526D01*
X14642195Y-19267195D01*
X14612526Y-19291543D01*
X14578673Y-19309638D01*
X14541950Y-19320778D01*
X14499079Y-19325000D01*
X13925921Y-19325000D01*
X13883050Y-19320778D01*
X13846327Y-19309638D01*
X13812474Y-19291543D01*
X13782805Y-19267195D01*
X13758457Y-19237526D01*
X13740362Y-19203673D01*
X13729222Y-19166950D01*
X13725000Y-19124079D01*
X13725000Y-18475921D01*
X13729222Y-18433050D01*
X13740362Y-18396327D01*
X13758457Y-18362474D01*
X13782805Y-18332805D01*
X13812474Y-18308457D01*
X13846327Y-18290362D01*
X13883050Y-18279222D01*
X13925921Y-18275000D01*
X14499079Y-18275000D01*
X14541950Y-18279222D01*
G37*
G36*
X16116950Y-18279222D02*
G01*
X16153673Y-18290362D01*
X16187526Y-18308457D01*
X16217195Y-18332805D01*
X16241543Y-18362474D01*
X16259638Y-18396327D01*
X16270778Y-18433050D01*
X16275000Y-18475921D01*
X16275000Y-19124079D01*
X16270778Y-19166950D01*
X16259638Y-19203673D01*
X16241543Y-19237526D01*
X16217195Y-19267195D01*
X16187526Y-19291543D01*
X16153673Y-19309638D01*
X16116950Y-19320778D01*
X16074079Y-19325000D01*
X15500921Y-19325000D01*
X15458050Y-19320778D01*
X15421327Y-19309638D01*
X15387474Y-19291543D01*
X15357805Y-19267195D01*
X15333457Y-19237526D01*
X15315362Y-19203673D01*
X15304222Y-19166950D01*
X15300000Y-19124079D01*
X15300000Y-18475921D01*
X15304222Y-18433050D01*
X15315362Y-18396327D01*
X15333457Y-18362474D01*
X15357805Y-18332805D01*
X15387474Y-18308457D01*
X15421327Y-18290362D01*
X15458050Y-18279222D01*
X15500921Y-18275000D01*
X16074079Y-18275000D01*
X16116950Y-18279222D01*
G37*
G36*
X13000000Y-18550000D02*
G01*
X11700000Y-18550000D01*
X11700000Y-17250000D01*
X13000000Y-17250000D01*
X13000000Y-18550000D01*
G37*
G36*
X20080000Y-18425000D02*
G01*
X18920000Y-18425000D01*
X18920000Y-17675000D01*
X20080000Y-17675000D01*
X20080000Y-18425000D01*
G37*
G36*
X17880000Y-18425000D02*
G01*
X16720000Y-18425000D01*
X16720000Y-17675000D01*
X17880000Y-17675000D01*
X17880000Y-18425000D01*
G37*
G36*
X29982520Y-16234586D02*
G01*
X30146310Y-16302430D01*
X30293717Y-16400924D01*
X30419076Y-16526283D01*
X30517570Y-16673690D01*
X30585414Y-16837480D01*
X30620000Y-17011358D01*
X30620000Y-17188642D01*
X30585414Y-17362520D01*
X30517570Y-17526310D01*
X30419076Y-17673717D01*
X30293717Y-17799076D01*
X30146310Y-17897570D01*
X29982520Y-17965414D01*
X29808642Y-18000000D01*
X29631358Y-18000000D01*
X29457480Y-17965414D01*
X29293690Y-17897570D01*
X29146283Y-17799076D01*
X29020924Y-17673717D01*
X28922430Y-17526310D01*
X28854586Y-17362520D01*
X28820000Y-17188642D01*
X28820000Y-17011358D01*
X28854586Y-16837480D01*
X28922430Y-16673690D01*
X29020924Y-16526283D01*
X29146283Y-16400924D01*
X29293690Y-16302430D01*
X29457480Y-16234586D01*
X29631358Y-16200000D01*
X29808642Y-16200000D01*
X29982520Y-16234586D01*
G37*
G36*
X27442520Y-16234586D02*
G01*
X27606310Y-16302430D01*
X27753717Y-16400924D01*
X27879076Y-16526283D01*
X27977570Y-16673690D01*
X28045414Y-16837480D01*
X28080000Y-17011358D01*
X28080000Y-17188642D01*
X28045414Y-17362520D01*
X27977570Y-17526310D01*
X27879076Y-17673717D01*
X27753717Y-17799076D01*
X27606310Y-17897570D01*
X27442520Y-17965414D01*
X27268642Y-18000000D01*
X27091358Y-18000000D01*
X26917480Y-17965414D01*
X26753690Y-17897570D01*
X26606283Y-17799076D01*
X26480924Y-17673717D01*
X26382430Y-17526310D01*
X26314586Y-17362520D01*
X26280000Y-17188642D01*
X26280000Y-17011358D01*
X26314586Y-16837480D01*
X26382430Y-16673690D01*
X26480924Y-16526283D01*
X26606283Y-16400924D01*
X26753690Y-16302430D01*
X26917480Y-16234586D01*
X27091358Y-16200000D01*
X27268642Y-16200000D01*
X27442520Y-16234586D01*
G37*
G36*
X22362520Y-16234586D02*
G01*
X22526310Y-16302430D01*
X22673717Y-16400924D01*
X22799076Y-16526283D01*
X22897570Y-16673690D01*
X22965414Y-16837480D01*
X23000000Y-17011358D01*
X23000000Y-17188642D01*
X22965414Y-17362520D01*
X22897570Y-17526310D01*
X22799076Y-17673717D01*
X22673717Y-17799076D01*
X22526310Y-17897570D01*
X22362520Y-17965414D01*
X22188642Y-18000000D01*
X22011358Y-18000000D01*
X21837480Y-17965414D01*
X21673690Y-17897570D01*
X21526283Y-17799076D01*
X21400924Y-17673717D01*
X21302430Y-17526310D01*
X21234586Y-17362520D01*
X21200000Y-17188642D01*
X21200000Y-17011358D01*
X21234586Y-16837480D01*
X21302430Y-16673690D01*
X21400924Y-16526283D01*
X21526283Y-16400924D01*
X21673690Y-16302430D01*
X21837480Y-16234586D01*
X22011358Y-16200000D01*
X22188642Y-16200000D01*
X22362520Y-16234586D01*
G37*
G36*
X24902520Y-16234586D02*
G01*
X25066310Y-16302430D01*
X25213717Y-16400924D01*
X25339076Y-16526283D01*
X25437570Y-16673690D01*
X25505414Y-16837480D01*
X25540000Y-17011358D01*
X25540000Y-17188642D01*
X25505414Y-17362520D01*
X25437570Y-17526310D01*
X25339076Y-17673717D01*
X25213717Y-17799076D01*
X25066310Y-17897570D01*
X24902520Y-17965414D01*
X24728642Y-18000000D01*
X24551358Y-18000000D01*
X24377480Y-17965414D01*
X24213690Y-17897570D01*
X24066283Y-17799076D01*
X23940924Y-17673717D01*
X23842430Y-17526310D01*
X23774586Y-17362520D01*
X23740000Y-17188642D01*
X23740000Y-17011358D01*
X23774586Y-16837480D01*
X23842430Y-16673690D01*
X23940924Y-16526283D01*
X24066283Y-16400924D01*
X24213690Y-16302430D01*
X24377480Y-16234586D01*
X24551358Y-16200000D01*
X24728642Y-16200000D01*
X24902520Y-16234586D01*
G37*
G36*
X32733351Y-16230743D02*
G01*
X32878942Y-16291049D01*
X33009970Y-16378599D01*
X33009972Y-16378601D01*
X33009975Y-16378603D01*
X33121397Y-16490025D01*
X33121399Y-16490028D01*
X33121401Y-16490030D01*
X33208951Y-16621058D01*
X33269257Y-16766649D01*
X33300000Y-16921207D01*
X33300000Y-17078793D01*
X33269257Y-17233351D01*
X33208951Y-17378942D01*
X33121401Y-17509970D01*
X33121399Y-17509972D01*
X33121397Y-17509975D01*
X33009975Y-17621397D01*
X33009972Y-17621399D01*
X33009970Y-17621401D01*
X32878942Y-17708951D01*
X32733351Y-17769257D01*
X32578793Y-17800000D01*
X32421207Y-17800000D01*
X32266649Y-17769257D01*
X32121058Y-17708951D01*
X31990030Y-17621401D01*
X31990028Y-17621399D01*
X31990025Y-17621397D01*
X31878603Y-17509975D01*
X31878601Y-17509972D01*
X31878599Y-17509970D01*
X31791049Y-17378942D01*
X31730743Y-17233351D01*
X31700000Y-17078793D01*
X31700000Y-16921207D01*
X31730743Y-16766649D01*
X31791049Y-16621058D01*
X31878599Y-16490030D01*
X31878601Y-16490028D01*
X31878603Y-16490025D01*
X31990025Y-16378603D01*
X31990028Y-16378601D01*
X31990030Y-16378599D01*
X32121058Y-16291049D01*
X32266649Y-16230743D01*
X32421207Y-16200000D01*
X32578793Y-16200000D01*
X32733351Y-16230743D01*
G37*
G36*
X17880000Y-17475000D02*
G01*
X16720000Y-17475000D01*
X16720000Y-16725000D01*
X17880000Y-16725000D01*
X17880000Y-17475000D01*
G37*
G36*
X13000000Y-16800000D02*
G01*
X11700000Y-16800000D01*
X11700000Y-15500000D01*
X13000000Y-15500000D01*
X13000000Y-16800000D01*
G37*
G36*
X20080000Y-16525000D02*
G01*
X18920000Y-16525000D01*
X18920000Y-15775000D01*
X20080000Y-15775000D01*
X20080000Y-16525000D01*
G37*
G36*
X17880000Y-16525000D02*
G01*
X16720000Y-16525000D01*
X16720000Y-15775000D01*
X17880000Y-15775000D01*
X17880000Y-16525000D01*
G37*
G36*
X9900000Y-16000000D02*
G01*
X8300000Y-16000000D01*
X8300000Y-14300000D01*
X9900000Y-14300000D01*
X9900000Y-16000000D01*
G37*
G36*
X36006830Y-14411576D02*
G01*
X36157625Y-14457319D01*
X36296610Y-14531608D01*
X36418423Y-14631577D01*
X36518392Y-14753390D01*
X36592681Y-14892375D01*
X36638424Y-15043170D01*
X36653870Y-15200000D01*
X36638424Y-15356830D01*
X36592681Y-15507625D01*
X36518392Y-15646610D01*
X36418423Y-15768423D01*
X36296610Y-15868392D01*
X36157625Y-15942681D01*
X36006830Y-15988424D01*
X35889293Y-16000000D01*
X34310707Y-16000000D01*
X34193170Y-15988424D01*
X34042375Y-15942681D01*
X33903390Y-15868392D01*
X33781577Y-15768423D01*
X33681608Y-15646610D01*
X33607319Y-15507625D01*
X33561576Y-15356830D01*
X33546130Y-15200000D01*
X33561576Y-15043170D01*
X33607319Y-14892375D01*
X33681608Y-14753390D01*
X33781577Y-14631577D01*
X33903390Y-14531608D01*
X34042375Y-14457319D01*
X34193170Y-14411576D01*
X34310707Y-14400000D01*
X35889293Y-14400000D01*
X36006830Y-14411576D01*
G37*
G36*
X14541950Y-14779222D02*
G01*
X14578673Y-14790362D01*
X14612526Y-14808457D01*
X14642195Y-14832805D01*
X14666543Y-14862474D01*
X14684638Y-14896327D01*
X14695778Y-14933050D01*
X14700000Y-14975921D01*
X14700000Y-15624079D01*
X14695778Y-15666950D01*
X14684638Y-15703673D01*
X14666543Y-15737526D01*
X14642195Y-15767195D01*
X14612526Y-15791543D01*
X14578673Y-15809638D01*
X14541950Y-15820778D01*
X14499079Y-15825000D01*
X13925921Y-15825000D01*
X13883050Y-15820778D01*
X13846327Y-15809638D01*
X13812474Y-15791543D01*
X13782805Y-15767195D01*
X13758457Y-15737526D01*
X13740362Y-15703673D01*
X13729222Y-15666950D01*
X13725000Y-15624079D01*
X13725000Y-14975921D01*
X13729222Y-14933050D01*
X13740362Y-14896327D01*
X13758457Y-14862474D01*
X13782805Y-14832805D01*
X13812474Y-14808457D01*
X13846327Y-14790362D01*
X13883050Y-14779222D01*
X13925921Y-14775000D01*
X14499079Y-14775000D01*
X14541950Y-14779222D01*
G37*
G36*
X16116950Y-14779222D02*
G01*
X16153673Y-14790362D01*
X16187526Y-14808457D01*
X16217195Y-14832805D01*
X16241543Y-14862474D01*
X16259638Y-14896327D01*
X16270778Y-14933050D01*
X16275000Y-14975921D01*
X16275000Y-15624079D01*
X16270778Y-15666950D01*
X16259638Y-15703673D01*
X16241543Y-15737526D01*
X16217195Y-15767195D01*
X16187526Y-15791543D01*
X16153673Y-15809638D01*
X16116950Y-15820778D01*
X16074079Y-15825000D01*
X15500921Y-15825000D01*
X15458050Y-15820778D01*
X15421327Y-15809638D01*
X15387474Y-15791543D01*
X15357805Y-15767195D01*
X15333457Y-15737526D01*
X15315362Y-15703673D01*
X15304222Y-15666950D01*
X15300000Y-15624079D01*
X15300000Y-14975921D01*
X15304222Y-14933050D01*
X15315362Y-14896327D01*
X15333457Y-14862474D01*
X15357805Y-14832805D01*
X15387474Y-14808457D01*
X15421327Y-14790362D01*
X15458050Y-14779222D01*
X15500921Y-14775000D01*
X16074079Y-14775000D01*
X16116950Y-14779222D01*
G37*
G36*
X19941950Y-14029222D02*
G01*
X19978673Y-14040362D01*
X20012526Y-14058457D01*
X20042195Y-14082805D01*
X20066543Y-14112474D01*
X20084638Y-14146327D01*
X20095778Y-14183050D01*
X20100000Y-14225921D01*
X20100000Y-14874079D01*
X20095778Y-14916950D01*
X20084638Y-14953673D01*
X20066543Y-14987526D01*
X20042195Y-15017195D01*
X20012526Y-15041543D01*
X19978673Y-15059638D01*
X19941950Y-15070778D01*
X19899079Y-15075000D01*
X19325921Y-15075000D01*
X19283050Y-15070778D01*
X19246327Y-15059638D01*
X19212474Y-15041543D01*
X19182805Y-15017195D01*
X19158457Y-14987526D01*
X19140362Y-14953673D01*
X19129222Y-14916950D01*
X19125000Y-14874079D01*
X19125000Y-14225921D01*
X19129222Y-14183050D01*
X19140362Y-14146327D01*
X19158457Y-14112474D01*
X19182805Y-14082805D01*
X19212474Y-14058457D01*
X19246327Y-14040362D01*
X19283050Y-14029222D01*
X19325921Y-14025000D01*
X19899079Y-14025000D01*
X19941950Y-14029222D01*
G37*
G36*
X21516950Y-14029222D02*
G01*
X21553673Y-14040362D01*
X21587526Y-14058457D01*
X21617195Y-14082805D01*
X21641543Y-14112474D01*
X21659638Y-14146327D01*
X21670778Y-14183050D01*
X21675000Y-14225921D01*
X21675000Y-14874079D01*
X21670778Y-14916950D01*
X21659638Y-14953673D01*
X21641543Y-14987526D01*
X21617195Y-15017195D01*
X21587526Y-15041543D01*
X21553673Y-15059638D01*
X21516950Y-15070778D01*
X21474079Y-15075000D01*
X20900921Y-15075000D01*
X20858050Y-15070778D01*
X20821327Y-15059638D01*
X20787474Y-15041543D01*
X20757805Y-15017195D01*
X20733457Y-14987526D01*
X20715362Y-14953673D01*
X20704222Y-14916950D01*
X20700000Y-14874079D01*
X20700000Y-14225921D01*
X20704222Y-14183050D01*
X20715362Y-14146327D01*
X20733457Y-14112474D01*
X20757805Y-14082805D01*
X20787474Y-14058457D01*
X20821327Y-14040362D01*
X20858050Y-14029222D01*
X20900921Y-14025000D01*
X21474079Y-14025000D01*
X21516950Y-14029222D01*
G37*
G36*
X24516950Y-13979222D02*
G01*
X24553673Y-13990362D01*
X24587526Y-14008457D01*
X24617195Y-14032805D01*
X24641543Y-14062474D01*
X24659638Y-14096327D01*
X24670778Y-14133050D01*
X24675000Y-14175921D01*
X24675000Y-14824079D01*
X24670778Y-14866950D01*
X24659638Y-14903673D01*
X24641543Y-14937526D01*
X24617195Y-14967195D01*
X24587526Y-14991543D01*
X24553673Y-15009638D01*
X24516950Y-15020778D01*
X24474079Y-15025000D01*
X23900921Y-15025000D01*
X23858050Y-15020778D01*
X23821327Y-15009638D01*
X23787474Y-14991543D01*
X23757805Y-14967195D01*
X23733457Y-14937526D01*
X23715362Y-14903673D01*
X23704222Y-14866950D01*
X23700000Y-14824079D01*
X23700000Y-14175921D01*
X23704222Y-14133050D01*
X23715362Y-14096327D01*
X23733457Y-14062474D01*
X23757805Y-14032805D01*
X23787474Y-14008457D01*
X23821327Y-13990362D01*
X23858050Y-13979222D01*
X23900921Y-13975000D01*
X24474079Y-13975000D01*
X24516950Y-13979222D01*
G37*
G36*
X22941950Y-13979222D02*
G01*
X22978673Y-13990362D01*
X23012526Y-14008457D01*
X23042195Y-14032805D01*
X23066543Y-14062474D01*
X23084638Y-14096327D01*
X23095778Y-14133050D01*
X23100000Y-14175921D01*
X23100000Y-14824079D01*
X23095778Y-14866950D01*
X23084638Y-14903673D01*
X23066543Y-14937526D01*
X23042195Y-14967195D01*
X23012526Y-14991543D01*
X22978673Y-15009638D01*
X22941950Y-15020778D01*
X22899079Y-15025000D01*
X22325921Y-15025000D01*
X22283050Y-15020778D01*
X22246327Y-15009638D01*
X22212474Y-14991543D01*
X22182805Y-14967195D01*
X22158457Y-14937526D01*
X22140362Y-14903673D01*
X22129222Y-14866950D01*
X22125000Y-14824079D01*
X22125000Y-14175921D01*
X22129222Y-14133050D01*
X22140362Y-14096327D01*
X22158457Y-14062474D01*
X22182805Y-14032805D01*
X22212474Y-14008457D01*
X22246327Y-13990362D01*
X22283050Y-13979222D01*
X22325921Y-13975000D01*
X22899079Y-13975000D01*
X22941950Y-13979222D01*
G37*
G36*
X13000000Y-14800000D02*
G01*
X11700000Y-14800000D01*
X11700000Y-13500000D01*
X13000000Y-13500000D01*
X13000000Y-14800000D01*
G37*
G36*
X14616950Y-13304222D02*
G01*
X14653673Y-13315362D01*
X14687526Y-13333457D01*
X14717195Y-13357805D01*
X14741543Y-13387474D01*
X14759638Y-13421327D01*
X14770778Y-13458050D01*
X14775000Y-13500921D01*
X14775000Y-14074079D01*
X14770778Y-14116950D01*
X14759638Y-14153673D01*
X14741543Y-14187526D01*
X14717195Y-14217195D01*
X14687526Y-14241543D01*
X14653673Y-14259638D01*
X14616950Y-14270778D01*
X14574079Y-14275000D01*
X13925921Y-14275000D01*
X13883050Y-14270778D01*
X13846327Y-14259638D01*
X13812474Y-14241543D01*
X13782805Y-14217195D01*
X13758457Y-14187526D01*
X13740362Y-14153673D01*
X13729222Y-14116950D01*
X13725000Y-14074079D01*
X13725000Y-13500921D01*
X13729222Y-13458050D01*
X13740362Y-13421327D01*
X13758457Y-13387474D01*
X13782805Y-13357805D01*
X13812474Y-13333457D01*
X13846327Y-13315362D01*
X13883050Y-13304222D01*
X13925921Y-13300000D01*
X14574079Y-13300000D01*
X14616950Y-13304222D01*
G37*
G36*
X31766950Y-13304222D02*
G01*
X31803673Y-13315362D01*
X31837526Y-13333457D01*
X31867195Y-13357805D01*
X31891543Y-13387474D01*
X31909638Y-13421327D01*
X31920778Y-13458050D01*
X31925000Y-13500921D01*
X31925000Y-14074079D01*
X31920778Y-14116950D01*
X31909638Y-14153673D01*
X31891543Y-14187526D01*
X31867195Y-14217195D01*
X31837526Y-14241543D01*
X31803673Y-14259638D01*
X31766950Y-14270778D01*
X31724079Y-14275000D01*
X31075921Y-14275000D01*
X31033050Y-14270778D01*
X30996327Y-14259638D01*
X30962474Y-14241543D01*
X30932805Y-14217195D01*
X30908457Y-14187526D01*
X30890362Y-14153673D01*
X30879222Y-14116950D01*
X30875000Y-14074079D01*
X30875000Y-13500921D01*
X30879222Y-13458050D01*
X30890362Y-13421327D01*
X30908457Y-13387474D01*
X30932805Y-13357805D01*
X30962474Y-13333457D01*
X30996327Y-13315362D01*
X31033050Y-13304222D01*
X31075921Y-13300000D01*
X31724079Y-13300000D01*
X31766950Y-13304222D01*
G37*
G36*
X16480000Y-14025000D02*
G01*
X15320000Y-14025000D01*
X15320000Y-13275000D01*
X16480000Y-13275000D01*
X16480000Y-14025000D01*
G37*
G36*
X18680000Y-14025000D02*
G01*
X17520000Y-14025000D01*
X17520000Y-13275000D01*
X18680000Y-13275000D01*
X18680000Y-14025000D01*
G37*
G36*
X26100000Y-13650000D02*
G01*
X25150000Y-13650000D01*
X25150000Y-12550000D01*
X26100000Y-12550000D01*
X26100000Y-13650000D01*
G37*
G36*
X30250000Y-13650000D02*
G01*
X29300000Y-13650000D01*
X29300000Y-12550000D01*
X30250000Y-12550000D01*
X30250000Y-13650000D01*
G37*
G36*
X21516950Y-12529222D02*
G01*
X21553673Y-12540362D01*
X21587526Y-12558457D01*
X21617195Y-12582805D01*
X21641543Y-12612474D01*
X21659638Y-12646327D01*
X21670778Y-12683050D01*
X21675000Y-12725921D01*
X21675000Y-13374079D01*
X21670778Y-13416950D01*
X21659638Y-13453673D01*
X21641543Y-13487526D01*
X21617195Y-13517195D01*
X21587526Y-13541543D01*
X21553673Y-13559638D01*
X21516950Y-13570778D01*
X21474079Y-13575000D01*
X20900921Y-13575000D01*
X20858050Y-13570778D01*
X20821327Y-13559638D01*
X20787474Y-13541543D01*
X20757805Y-13517195D01*
X20733457Y-13487526D01*
X20715362Y-13453673D01*
X20704222Y-13416950D01*
X20700000Y-13374079D01*
X20700000Y-12725921D01*
X20704222Y-12683050D01*
X20715362Y-12646327D01*
X20733457Y-12612474D01*
X20757805Y-12582805D01*
X20787474Y-12558457D01*
X20821327Y-12540362D01*
X20858050Y-12529222D01*
X20900921Y-12525000D01*
X21474079Y-12525000D01*
X21516950Y-12529222D01*
G37*
G36*
X19941950Y-12529222D02*
G01*
X19978673Y-12540362D01*
X20012526Y-12558457D01*
X20042195Y-12582805D01*
X20066543Y-12612474D01*
X20084638Y-12646327D01*
X20095778Y-12683050D01*
X20100000Y-12725921D01*
X20100000Y-13374079D01*
X20095778Y-13416950D01*
X20084638Y-13453673D01*
X20066543Y-13487526D01*
X20042195Y-13517195D01*
X20012526Y-13541543D01*
X19978673Y-13559638D01*
X19941950Y-13570778D01*
X19899079Y-13575000D01*
X19325921Y-13575000D01*
X19283050Y-13570778D01*
X19246327Y-13559638D01*
X19212474Y-13541543D01*
X19182805Y-13517195D01*
X19158457Y-13487526D01*
X19140362Y-13453673D01*
X19129222Y-13416950D01*
X19125000Y-13374079D01*
X19125000Y-12725921D01*
X19129222Y-12683050D01*
X19140362Y-12646327D01*
X19158457Y-12612474D01*
X19182805Y-12582805D01*
X19212474Y-12558457D01*
X19246327Y-12540362D01*
X19283050Y-12529222D01*
X19325921Y-12525000D01*
X19899079Y-12525000D01*
X19941950Y-12529222D01*
G37*
G36*
X24516950Y-12479222D02*
G01*
X24553673Y-12490362D01*
X24587526Y-12508457D01*
X24617195Y-12532805D01*
X24641543Y-12562474D01*
X24659638Y-12596327D01*
X24670778Y-12633050D01*
X24675000Y-12675921D01*
X24675000Y-13324079D01*
X24670778Y-13366950D01*
X24659638Y-13403673D01*
X24641543Y-13437526D01*
X24617195Y-13467195D01*
X24587526Y-13491543D01*
X24553673Y-13509638D01*
X24516950Y-13520778D01*
X24474079Y-13525000D01*
X23900921Y-13525000D01*
X23858050Y-13520778D01*
X23821327Y-13509638D01*
X23787474Y-13491543D01*
X23757805Y-13467195D01*
X23733457Y-13437526D01*
X23715362Y-13403673D01*
X23704222Y-13366950D01*
X23700000Y-13324079D01*
X23700000Y-12675921D01*
X23704222Y-12633050D01*
X23715362Y-12596327D01*
X23733457Y-12562474D01*
X23757805Y-12532805D01*
X23787474Y-12508457D01*
X23821327Y-12490362D01*
X23858050Y-12479222D01*
X23900921Y-12475000D01*
X24474079Y-12475000D01*
X24516950Y-12479222D01*
G37*
G36*
X22941950Y-12479222D02*
G01*
X22978673Y-12490362D01*
X23012526Y-12508457D01*
X23042195Y-12532805D01*
X23066543Y-12562474D01*
X23084638Y-12596327D01*
X23095778Y-12633050D01*
X23100000Y-12675921D01*
X23100000Y-13324079D01*
X23095778Y-13366950D01*
X23084638Y-13403673D01*
X23066543Y-13437526D01*
X23042195Y-13467195D01*
X23012526Y-13491543D01*
X22978673Y-13509638D01*
X22941950Y-13520778D01*
X22899079Y-13525000D01*
X22325921Y-13525000D01*
X22283050Y-13520778D01*
X22246327Y-13509638D01*
X22212474Y-13491543D01*
X22182805Y-13467195D01*
X22158457Y-13437526D01*
X22140362Y-13403673D01*
X22129222Y-13366950D01*
X22125000Y-13324079D01*
X22125000Y-12675921D01*
X22129222Y-12633050D01*
X22140362Y-12596327D01*
X22158457Y-12562474D01*
X22182805Y-12532805D01*
X22212474Y-12508457D01*
X22246327Y-12490362D01*
X22283050Y-12479222D01*
X22325921Y-12475000D01*
X22899079Y-12475000D01*
X22941950Y-12479222D01*
G37*
G36*
X16480000Y-13075000D02*
G01*
X15320000Y-13075000D01*
X15320000Y-12325000D01*
X16480000Y-12325000D01*
X16480000Y-13075000D01*
G37*
G36*
X37706830Y-11211576D02*
G01*
X37857625Y-11257319D01*
X37996610Y-11331608D01*
X38118423Y-11431577D01*
X38218392Y-11553390D01*
X38292681Y-11692375D01*
X38338424Y-11843170D01*
X38353870Y-12000000D01*
X38338424Y-12156830D01*
X38292681Y-12307625D01*
X38218392Y-12446610D01*
X38118423Y-12568423D01*
X37996610Y-12668392D01*
X37857625Y-12742681D01*
X37706830Y-12788424D01*
X37589293Y-12800000D01*
X36010707Y-12800000D01*
X35893170Y-12788424D01*
X35742375Y-12742681D01*
X35603390Y-12668392D01*
X35481577Y-12568423D01*
X35381608Y-12446610D01*
X35307319Y-12307625D01*
X35261576Y-12156830D01*
X35246130Y-12000000D01*
X35261576Y-11843170D01*
X35307319Y-11692375D01*
X35381608Y-11553390D01*
X35481577Y-11431577D01*
X35603390Y-11331608D01*
X35742375Y-11257319D01*
X35893170Y-11211576D01*
X36010707Y-11200000D01*
X37589293Y-11200000D01*
X37706830Y-11211576D01*
G37*
G36*
X14616950Y-11729222D02*
G01*
X14653673Y-11740362D01*
X14687526Y-11758457D01*
X14717195Y-11782805D01*
X14741543Y-11812474D01*
X14759638Y-11846327D01*
X14770778Y-11883050D01*
X14775000Y-11925921D01*
X14775000Y-12499079D01*
X14770778Y-12541950D01*
X14759638Y-12578673D01*
X14741543Y-12612526D01*
X14717195Y-12642195D01*
X14687526Y-12666543D01*
X14653673Y-12684638D01*
X14616950Y-12695778D01*
X14574079Y-12700000D01*
X13925921Y-12700000D01*
X13883050Y-12695778D01*
X13846327Y-12684638D01*
X13812474Y-12666543D01*
X13782805Y-12642195D01*
X13758457Y-12612526D01*
X13740362Y-12578673D01*
X13729222Y-12541950D01*
X13725000Y-12499079D01*
X13725000Y-11925921D01*
X13729222Y-11883050D01*
X13740362Y-11846327D01*
X13758457Y-11812474D01*
X13782805Y-11782805D01*
X13812474Y-11758457D01*
X13846327Y-11740362D01*
X13883050Y-11729222D01*
X13925921Y-11725000D01*
X14574079Y-11725000D01*
X14616950Y-11729222D01*
G37*
G36*
X31766950Y-11729222D02*
G01*
X31803673Y-11740362D01*
X31837526Y-11758457D01*
X31867195Y-11782805D01*
X31891543Y-11812474D01*
X31909638Y-11846327D01*
X31920778Y-11883050D01*
X31925000Y-11925921D01*
X31925000Y-12499079D01*
X31920778Y-12541950D01*
X31909638Y-12578673D01*
X31891543Y-12612526D01*
X31867195Y-12642195D01*
X31837526Y-12666543D01*
X31803673Y-12684638D01*
X31766950Y-12695778D01*
X31724079Y-12700000D01*
X31075921Y-12700000D01*
X31033050Y-12695778D01*
X30996327Y-12684638D01*
X30962474Y-12666543D01*
X30932805Y-12642195D01*
X30908457Y-12612526D01*
X30890362Y-12578673D01*
X30879222Y-12541950D01*
X30875000Y-12499079D01*
X30875000Y-11925921D01*
X30879222Y-11883050D01*
X30890362Y-11846327D01*
X30908457Y-11812474D01*
X30932805Y-11782805D01*
X30962474Y-11758457D01*
X30996327Y-11740362D01*
X31033050Y-11729222D01*
X31075921Y-11725000D01*
X31724079Y-11725000D01*
X31766950Y-11729222D01*
G37*
G36*
X18680000Y-12125000D02*
G01*
X17520000Y-12125000D01*
X17520000Y-11375000D01*
X18680000Y-11375000D01*
X18680000Y-12125000D01*
G37*
G36*
X16480000Y-12125000D02*
G01*
X15320000Y-12125000D01*
X15320000Y-11375000D01*
X16480000Y-11375000D01*
X16480000Y-12125000D01*
G37*
G36*
X21516950Y-11029222D02*
G01*
X21553673Y-11040362D01*
X21587526Y-11058457D01*
X21617195Y-11082805D01*
X21641543Y-11112474D01*
X21659638Y-11146327D01*
X21670778Y-11183050D01*
X21675000Y-11225921D01*
X21675000Y-11874079D01*
X21670778Y-11916950D01*
X21659638Y-11953673D01*
X21641543Y-11987526D01*
X21617195Y-12017195D01*
X21587526Y-12041543D01*
X21553673Y-12059638D01*
X21516950Y-12070778D01*
X21474079Y-12075000D01*
X20900921Y-12075000D01*
X20858050Y-12070778D01*
X20821327Y-12059638D01*
X20787474Y-12041543D01*
X20757805Y-12017195D01*
X20733457Y-11987526D01*
X20715362Y-11953673D01*
X20704222Y-11916950D01*
X20700000Y-11874079D01*
X20700000Y-11225921D01*
X20704222Y-11183050D01*
X20715362Y-11146327D01*
X20733457Y-11112474D01*
X20757805Y-11082805D01*
X20787474Y-11058457D01*
X20821327Y-11040362D01*
X20858050Y-11029222D01*
X20900921Y-11025000D01*
X21474079Y-11025000D01*
X21516950Y-11029222D01*
G37*
G36*
X19941950Y-11029222D02*
G01*
X19978673Y-11040362D01*
X20012526Y-11058457D01*
X20042195Y-11082805D01*
X20066543Y-11112474D01*
X20084638Y-11146327D01*
X20095778Y-11183050D01*
X20100000Y-11225921D01*
X20100000Y-11874079D01*
X20095778Y-11916950D01*
X20084638Y-11953673D01*
X20066543Y-11987526D01*
X20042195Y-12017195D01*
X20012526Y-12041543D01*
X19978673Y-12059638D01*
X19941950Y-12070778D01*
X19899079Y-12075000D01*
X19325921Y-12075000D01*
X19283050Y-12070778D01*
X19246327Y-12059638D01*
X19212474Y-12041543D01*
X19182805Y-12017195D01*
X19158457Y-11987526D01*
X19140362Y-11953673D01*
X19129222Y-11916950D01*
X19125000Y-11874079D01*
X19125000Y-11225921D01*
X19129222Y-11183050D01*
X19140362Y-11146327D01*
X19158457Y-11112474D01*
X19182805Y-11082805D01*
X19212474Y-11058457D01*
X19246327Y-11040362D01*
X19283050Y-11029222D01*
X19325921Y-11025000D01*
X19899079Y-11025000D01*
X19941950Y-11029222D01*
G37*
G36*
X13300000Y-11950000D02*
G01*
X12350000Y-11950000D01*
X12350000Y-10850000D01*
X13300000Y-10850000D01*
X13300000Y-11950000D01*
G37*
G36*
X9150000Y-11950000D02*
G01*
X8200000Y-11950000D01*
X8200000Y-10850000D01*
X9150000Y-10850000D01*
X9150000Y-11950000D01*
G37*
G36*
X16541950Y-9679222D02*
G01*
X16578673Y-9690362D01*
X16612526Y-9708457D01*
X16642195Y-9732805D01*
X16666543Y-9762474D01*
X16684638Y-9796327D01*
X16695778Y-9833050D01*
X16700000Y-9875921D01*
X16700000Y-10524079D01*
X16695778Y-10566950D01*
X16684638Y-10603673D01*
X16666543Y-10637526D01*
X16642195Y-10667195D01*
X16612526Y-10691543D01*
X16578673Y-10709638D01*
X16541950Y-10720778D01*
X16499079Y-10725000D01*
X15925921Y-10725000D01*
X15883050Y-10720778D01*
X15846327Y-10709638D01*
X15812474Y-10691543D01*
X15782805Y-10667195D01*
X15758457Y-10637526D01*
X15740362Y-10603673D01*
X15729222Y-10566950D01*
X15725000Y-10524079D01*
X15725000Y-9875921D01*
X15729222Y-9833050D01*
X15740362Y-9796327D01*
X15758457Y-9762474D01*
X15782805Y-9732805D01*
X15812474Y-9708457D01*
X15846327Y-9690362D01*
X15883050Y-9679222D01*
X15925921Y-9675000D01*
X16499079Y-9675000D01*
X16541950Y-9679222D01*
G37*
G36*
X18116950Y-9679222D02*
G01*
X18153673Y-9690362D01*
X18187526Y-9708457D01*
X18217195Y-9732805D01*
X18241543Y-9762474D01*
X18259638Y-9796327D01*
X18270778Y-9833050D01*
X18275000Y-9875921D01*
X18275000Y-10524079D01*
X18270778Y-10566950D01*
X18259638Y-10603673D01*
X18241543Y-10637526D01*
X18217195Y-10667195D01*
X18187526Y-10691543D01*
X18153673Y-10709638D01*
X18116950Y-10720778D01*
X18074079Y-10725000D01*
X17500921Y-10725000D01*
X17458050Y-10720778D01*
X17421327Y-10709638D01*
X17387474Y-10691543D01*
X17357805Y-10667195D01*
X17333457Y-10637526D01*
X17315362Y-10603673D01*
X17304222Y-10566950D01*
X17300000Y-10524079D01*
X17300000Y-9875921D01*
X17304222Y-9833050D01*
X17315362Y-9796327D01*
X17333457Y-9762474D01*
X17357805Y-9732805D01*
X17387474Y-9708457D01*
X17421327Y-9690362D01*
X17458050Y-9679222D01*
X17500921Y-9675000D01*
X18074079Y-9675000D01*
X18116950Y-9679222D01*
G37*
G36*
X15375672Y-8351830D02*
G01*
X15322624Y-9950951D01*
X12224328Y-9848170D01*
X12277376Y-8249049D01*
X15375672Y-8351830D01*
G37*
G36*
X25062207Y-7221191D02*
G01*
X25259729Y-7247634D01*
X25511356Y-7333663D01*
X25741365Y-7467129D01*
X25940916Y-7642902D01*
X26102342Y-7854228D01*
X26148995Y-7949353D01*
X26219436Y-8092982D01*
X26219437Y-8092987D01*
X26287704Y-8350002D01*
X26304517Y-8615396D01*
X26269232Y-8878971D01*
X26183203Y-9130598D01*
X26049738Y-9360607D01*
X25873964Y-9560158D01*
X25662638Y-9721583D01*
X25423879Y-9838679D01*
X25166864Y-9906946D01*
X24967978Y-9919546D01*
X20937794Y-9778809D01*
X20740271Y-9752366D01*
X20488644Y-9666337D01*
X20258635Y-9532871D01*
X20059084Y-9357098D01*
X19897659Y-9145772D01*
X19780563Y-8907013D01*
X19712296Y-8649998D01*
X19695483Y-8384604D01*
X19730768Y-8121029D01*
X19816797Y-7869402D01*
X19950263Y-7639393D01*
X20126036Y-7439842D01*
X20337362Y-7278417D01*
X20337366Y-7278415D01*
X20576120Y-7161321D01*
X20634386Y-7145845D01*
X20833136Y-7093054D01*
X21032022Y-7080454D01*
X25062207Y-7221191D01*
G37*
G36*
X18087886Y-6507686D02*
G01*
X18145848Y-6519215D01*
X18236838Y-6556905D01*
X18318734Y-6611626D01*
X18388374Y-6681266D01*
X18443095Y-6763162D01*
X18480785Y-6854152D01*
X18500000Y-6950756D01*
X18500000Y-7049244D01*
X18480785Y-7145848D01*
X18443095Y-7236838D01*
X18388374Y-7318734D01*
X18318734Y-7388374D01*
X18236838Y-7443095D01*
X18145848Y-7480785D01*
X18087886Y-7492314D01*
X18049246Y-7500000D01*
X17950754Y-7500000D01*
X17912114Y-7492314D01*
X17854152Y-7480785D01*
X17763162Y-7443095D01*
X17681266Y-7388374D01*
X17611626Y-7318734D01*
X17556905Y-7236838D01*
X17519215Y-7145848D01*
X17500000Y-7049244D01*
X17500000Y-6950756D01*
X17519215Y-6854152D01*
X17556905Y-6763162D01*
X17611626Y-6681266D01*
X17681266Y-6611626D01*
X17763162Y-6556905D01*
X17854152Y-6519215D01*
X17912114Y-6507686D01*
X17950754Y-6500000D01*
X18049246Y-6500000D01*
X18087886Y-6507686D01*
G37*
M02*
