G04 #@! TF.GenerationSoftware,KiCad,Pcbnew,5.1.5+dfsg1-2build2*
G04 #@! TF.CreationDate,2021-01-13T09:20:08+02:00*
G04 #@! TF.ProjectId,differential-tweezer,64696666-6572-4656-9e74-69616c2d7477,rev?*
G04 #@! TF.SameCoordinates,Original*
G04 #@! TF.FileFunction,Soldermask,Bot*
G04 #@! TF.FilePolarity,Negative*
%FSLAX46Y46*%
G04 Gerber Fmt 4.6, Leading zero omitted, Abs format (unit mm)*
G04 Created by KiCad (PCBNEW 5.1.5+dfsg1-2build2) date 2021-01-13 09:20:08*
%MOMM*%
%LPD*%
G04 APERTURE LIST*
%ADD10C,0.100000*%
%ADD11C,0.350000*%
G04 APERTURE END LIST*
D10*
G36*
X16450000Y-5800000D02*
G01*
X16350000Y-7950000D01*
X11450000Y-7800000D01*
X11550000Y-5600000D01*
X16450000Y-5800000D01*
G37*
X16450000Y-5800000D02*
X16350000Y-7950000D01*
X11450000Y-7800000D01*
X11550000Y-5600000D01*
X16450000Y-5800000D01*
G36*
X16450000Y-28200000D02*
G01*
X11550000Y-28400000D01*
X11450000Y-26200000D01*
X16350000Y-26050000D01*
X16450000Y-28200000D01*
G37*
X16450000Y-28200000D02*
X11550000Y-28400000D01*
X11450000Y-26200000D01*
X16350000Y-26050000D01*
X16450000Y-28200000D01*
G36*
X39000000Y-23700000D02*
G01*
X38900000Y-24000000D01*
X38600000Y-24300000D01*
X38200000Y-24500000D01*
X34900000Y-24600000D01*
X34600000Y-24800000D01*
X34500000Y-25100000D01*
X34600000Y-25400000D01*
X34900000Y-25600000D01*
X38100000Y-25500000D01*
X38500000Y-25600000D01*
X38800000Y-25900000D01*
X39000000Y-26300000D01*
X39000000Y-26800000D01*
X38800000Y-27100000D01*
X38500000Y-27400000D01*
X38100000Y-27500000D01*
X34100000Y-27600000D01*
X34000000Y-23500000D01*
X39000000Y-23400000D01*
X39000000Y-23700000D01*
G37*
X39000000Y-23700000D02*
X38900000Y-24000000D01*
X38600000Y-24300000D01*
X38200000Y-24500000D01*
X34900000Y-24600000D01*
X34600000Y-24800000D01*
X34500000Y-25100000D01*
X34600000Y-25400000D01*
X34900000Y-25600000D01*
X38100000Y-25500000D01*
X38500000Y-25600000D01*
X38800000Y-25900000D01*
X39000000Y-26300000D01*
X39000000Y-26800000D01*
X38800000Y-27100000D01*
X38500000Y-27400000D01*
X38100000Y-27500000D01*
X34100000Y-27600000D01*
X34000000Y-23500000D01*
X39000000Y-23400000D01*
X39000000Y-23700000D01*
G36*
X38100000Y-6500000D02*
G01*
X38500000Y-6600000D01*
X38800000Y-6900000D01*
X39000000Y-7200000D01*
X39000000Y-7700000D01*
X38800000Y-8100000D01*
X38500000Y-8400000D01*
X38100000Y-8500000D01*
X34900000Y-8400000D01*
X34600000Y-8600000D01*
X34500000Y-8900000D01*
X34600000Y-9200000D01*
X34900000Y-9400000D01*
X38200000Y-9500000D01*
X38600000Y-9700000D01*
X38900000Y-10000000D01*
X39000000Y-10300000D01*
X39000000Y-10600000D01*
X34000000Y-10500000D01*
X34100000Y-6400000D01*
X38100000Y-6500000D01*
G37*
X38100000Y-6500000D02*
X38500000Y-6600000D01*
X38800000Y-6900000D01*
X39000000Y-7200000D01*
X39000000Y-7700000D01*
X38800000Y-8100000D01*
X38500000Y-8400000D01*
X38100000Y-8500000D01*
X34900000Y-8400000D01*
X34600000Y-8600000D01*
X34500000Y-8900000D01*
X34600000Y-9200000D01*
X34900000Y-9400000D01*
X38200000Y-9500000D01*
X38600000Y-9700000D01*
X38900000Y-10000000D01*
X39000000Y-10300000D01*
X39000000Y-10600000D01*
X34000000Y-10500000D01*
X34100000Y-6400000D01*
X38100000Y-6500000D01*
G36*
X11800000Y-28400000D02*
G01*
X7900000Y-28500000D01*
X7300000Y-28200000D01*
X7000000Y-27600000D01*
X7100000Y-27000000D01*
X7400000Y-26700000D01*
X7900000Y-26500000D01*
X10800000Y-26400000D01*
X11300000Y-26300000D01*
X11400000Y-25900000D01*
X11400000Y-25600000D01*
X11100000Y-25400000D01*
X8000000Y-25500000D01*
X7400000Y-25300000D01*
X7100000Y-24900000D01*
X7000000Y-24400000D01*
X11600000Y-24300000D01*
X11800000Y-28400000D01*
G37*
X11800000Y-28400000D02*
X7900000Y-28500000D01*
X7300000Y-28200000D01*
X7000000Y-27600000D01*
X7100000Y-27000000D01*
X7400000Y-26700000D01*
X7900000Y-26500000D01*
X10800000Y-26400000D01*
X11300000Y-26300000D01*
X11400000Y-25900000D01*
X11400000Y-25600000D01*
X11100000Y-25400000D01*
X8000000Y-25500000D01*
X7400000Y-25300000D01*
X7100000Y-24900000D01*
X7000000Y-24400000D01*
X11600000Y-24300000D01*
X11800000Y-28400000D01*
G36*
X11800000Y-5600000D02*
G01*
X11600000Y-9700000D01*
X7000000Y-9600000D01*
X7100000Y-9100000D01*
X7400000Y-8700000D01*
X8000000Y-8500000D01*
X11100000Y-8600000D01*
X11400000Y-8400000D01*
X11400000Y-8100000D01*
X11300000Y-7700000D01*
X10800000Y-7600000D01*
X7900000Y-7500000D01*
X7400000Y-7300000D01*
X7100000Y-7000000D01*
X7000000Y-6400000D01*
X7300000Y-5800000D01*
X7900000Y-5500000D01*
X11800000Y-5600000D01*
G37*
X11800000Y-5600000D02*
X11600000Y-9700000D01*
X7000000Y-9600000D01*
X7100000Y-9100000D01*
X7400000Y-8700000D01*
X8000000Y-8500000D01*
X11100000Y-8600000D01*
X11400000Y-8400000D01*
X11400000Y-8100000D01*
X11300000Y-7700000D01*
X10800000Y-7600000D01*
X7900000Y-7500000D01*
X7400000Y-7300000D01*
X7100000Y-7000000D01*
X7000000Y-6400000D01*
X7300000Y-5800000D01*
X7900000Y-5500000D01*
X11800000Y-5600000D01*
D11*
G36*
X25266864Y-24093054D02*
G01*
X25523879Y-24161321D01*
X25762638Y-24278417D01*
X25973964Y-24439842D01*
X26149738Y-24639393D01*
X26283203Y-24869402D01*
X26369232Y-25121029D01*
X26404517Y-25384604D01*
X26387704Y-25649998D01*
X26331482Y-25861666D01*
X26319436Y-25907018D01*
X26248995Y-26050647D01*
X26202342Y-26145772D01*
X26040916Y-26357098D01*
X25841365Y-26532871D01*
X25611356Y-26666337D01*
X25359729Y-26752366D01*
X25162207Y-26778809D01*
X21132022Y-26919546D01*
X20933136Y-26906946D01*
X20715481Y-26849134D01*
X20676120Y-26838679D01*
X20437366Y-26721585D01*
X20437362Y-26721583D01*
X20226036Y-26560158D01*
X20050263Y-26360607D01*
X19916797Y-26130598D01*
X19830768Y-25878971D01*
X19795483Y-25615396D01*
X19812296Y-25350002D01*
X19880563Y-25092987D01*
X19997659Y-24854228D01*
X20159084Y-24642902D01*
X20358635Y-24467129D01*
X20588644Y-24333663D01*
X20840271Y-24247634D01*
X21037794Y-24221191D01*
X25067978Y-24080454D01*
X25266864Y-24093054D01*
G37*
G36*
X10966950Y-23004222D02*
G01*
X11003673Y-23015362D01*
X11037526Y-23033457D01*
X11067195Y-23057805D01*
X11091543Y-23087474D01*
X11109638Y-23121327D01*
X11120778Y-23158050D01*
X11125000Y-23200921D01*
X11125000Y-23774079D01*
X11120778Y-23816950D01*
X11109638Y-23853673D01*
X11091543Y-23887526D01*
X11067195Y-23917195D01*
X11037526Y-23941543D01*
X11003673Y-23959638D01*
X10966950Y-23970778D01*
X10924079Y-23975000D01*
X10275921Y-23975000D01*
X10233050Y-23970778D01*
X10196327Y-23959638D01*
X10162474Y-23941543D01*
X10132805Y-23917195D01*
X10108457Y-23887526D01*
X10090362Y-23853673D01*
X10079222Y-23816950D01*
X10075000Y-23774079D01*
X10075000Y-23200921D01*
X10079222Y-23158050D01*
X10090362Y-23121327D01*
X10108457Y-23087474D01*
X10132805Y-23057805D01*
X10162474Y-23033457D01*
X10196327Y-23015362D01*
X10233050Y-23004222D01*
X10275921Y-23000000D01*
X10924079Y-23000000D01*
X10966950Y-23004222D01*
G37*
G36*
X9466950Y-23004222D02*
G01*
X9503673Y-23015362D01*
X9537526Y-23033457D01*
X9567195Y-23057805D01*
X9591543Y-23087474D01*
X9609638Y-23121327D01*
X9620778Y-23158050D01*
X9625000Y-23200921D01*
X9625000Y-23774079D01*
X9620778Y-23816950D01*
X9609638Y-23853673D01*
X9591543Y-23887526D01*
X9567195Y-23917195D01*
X9537526Y-23941543D01*
X9503673Y-23959638D01*
X9466950Y-23970778D01*
X9424079Y-23975000D01*
X8775921Y-23975000D01*
X8733050Y-23970778D01*
X8696327Y-23959638D01*
X8662474Y-23941543D01*
X8632805Y-23917195D01*
X8608457Y-23887526D01*
X8590362Y-23853673D01*
X8579222Y-23816950D01*
X8575000Y-23774079D01*
X8575000Y-23200921D01*
X8579222Y-23158050D01*
X8590362Y-23121327D01*
X8608457Y-23087474D01*
X8632805Y-23057805D01*
X8662474Y-23033457D01*
X8696327Y-23015362D01*
X8733050Y-23004222D01*
X8775921Y-23000000D01*
X9424079Y-23000000D01*
X9466950Y-23004222D01*
G37*
G36*
X25541950Y-22679222D02*
G01*
X25578673Y-22690362D01*
X25612526Y-22708457D01*
X25642195Y-22732805D01*
X25666543Y-22762474D01*
X25684638Y-22796327D01*
X25695778Y-22833050D01*
X25700000Y-22875921D01*
X25700000Y-23524079D01*
X25695778Y-23566950D01*
X25684638Y-23603673D01*
X25666543Y-23637526D01*
X25642195Y-23667195D01*
X25612526Y-23691543D01*
X25578673Y-23709638D01*
X25541950Y-23720778D01*
X25499079Y-23725000D01*
X24925921Y-23725000D01*
X24883050Y-23720778D01*
X24846327Y-23709638D01*
X24812474Y-23691543D01*
X24782805Y-23667195D01*
X24758457Y-23637526D01*
X24740362Y-23603673D01*
X24729222Y-23566950D01*
X24725000Y-23524079D01*
X24725000Y-22875921D01*
X24729222Y-22833050D01*
X24740362Y-22796327D01*
X24758457Y-22762474D01*
X24782805Y-22732805D01*
X24812474Y-22708457D01*
X24846327Y-22690362D01*
X24883050Y-22679222D01*
X24925921Y-22675000D01*
X25499079Y-22675000D01*
X25541950Y-22679222D01*
G37*
G36*
X27116950Y-22679222D02*
G01*
X27153673Y-22690362D01*
X27187526Y-22708457D01*
X27217195Y-22732805D01*
X27241543Y-22762474D01*
X27259638Y-22796327D01*
X27270778Y-22833050D01*
X27275000Y-22875921D01*
X27275000Y-23524079D01*
X27270778Y-23566950D01*
X27259638Y-23603673D01*
X27241543Y-23637526D01*
X27217195Y-23667195D01*
X27187526Y-23691543D01*
X27153673Y-23709638D01*
X27116950Y-23720778D01*
X27074079Y-23725000D01*
X26500921Y-23725000D01*
X26458050Y-23720778D01*
X26421327Y-23709638D01*
X26387474Y-23691543D01*
X26357805Y-23667195D01*
X26333457Y-23637526D01*
X26315362Y-23603673D01*
X26304222Y-23566950D01*
X26300000Y-23524079D01*
X26300000Y-22875921D01*
X26304222Y-22833050D01*
X26315362Y-22796327D01*
X26333457Y-22762474D01*
X26357805Y-22732805D01*
X26387474Y-22708457D01*
X26421327Y-22690362D01*
X26458050Y-22679222D01*
X26500921Y-22675000D01*
X27074079Y-22675000D01*
X27116950Y-22679222D01*
G37*
G36*
X19350000Y-23600000D02*
G01*
X17050000Y-23600000D01*
X17050000Y-19600000D01*
X19350000Y-19600000D01*
X19350000Y-23600000D01*
G37*
G36*
X23150000Y-23600000D02*
G01*
X20850000Y-23600000D01*
X20850000Y-19600000D01*
X23150000Y-19600000D01*
X23150000Y-23600000D01*
G37*
G36*
X13250000Y-23350000D02*
G01*
X12250000Y-23350000D01*
X12250000Y-22050000D01*
X13250000Y-22050000D01*
X13250000Y-23350000D01*
G37*
G36*
X16550000Y-23350000D02*
G01*
X15550000Y-23350000D01*
X15550000Y-22050000D01*
X16550000Y-22050000D01*
X16550000Y-23350000D01*
G37*
G36*
X36087886Y-21507686D02*
G01*
X36145848Y-21519215D01*
X36236838Y-21556905D01*
X36318734Y-21611626D01*
X36388374Y-21681266D01*
X36443095Y-21763162D01*
X36480785Y-21854152D01*
X36492314Y-21912114D01*
X36499669Y-21949088D01*
X36500000Y-21950756D01*
X36500000Y-22049244D01*
X36480785Y-22145848D01*
X36443095Y-22236838D01*
X36388374Y-22318734D01*
X36318734Y-22388374D01*
X36236838Y-22443095D01*
X36145848Y-22480785D01*
X36087886Y-22492314D01*
X36049246Y-22500000D01*
X35950754Y-22500000D01*
X35912114Y-22492314D01*
X35854152Y-22480785D01*
X35763162Y-22443095D01*
X35681266Y-22388374D01*
X35611626Y-22318734D01*
X35556905Y-22236838D01*
X35519215Y-22145848D01*
X35500000Y-22049244D01*
X35500000Y-21950756D01*
X35500332Y-21949088D01*
X35507686Y-21912114D01*
X35519215Y-21854152D01*
X35556905Y-21763162D01*
X35611626Y-21681266D01*
X35681266Y-21611626D01*
X35763162Y-21556905D01*
X35854152Y-21519215D01*
X35912114Y-21507686D01*
X35950754Y-21500000D01*
X36049246Y-21500000D01*
X36087886Y-21507686D01*
G37*
G36*
X10966950Y-21429222D02*
G01*
X11003673Y-21440362D01*
X11037526Y-21458457D01*
X11067195Y-21482805D01*
X11091543Y-21512474D01*
X11109638Y-21546327D01*
X11120778Y-21583050D01*
X11125000Y-21625921D01*
X11125000Y-22199079D01*
X11120778Y-22241950D01*
X11109638Y-22278673D01*
X11091543Y-22312526D01*
X11067195Y-22342195D01*
X11037526Y-22366543D01*
X11003673Y-22384638D01*
X10966950Y-22395778D01*
X10924079Y-22400000D01*
X10275921Y-22400000D01*
X10233050Y-22395778D01*
X10196327Y-22384638D01*
X10162474Y-22366543D01*
X10132805Y-22342195D01*
X10108457Y-22312526D01*
X10090362Y-22278673D01*
X10079222Y-22241950D01*
X10075000Y-22199079D01*
X10075000Y-21625921D01*
X10079222Y-21583050D01*
X10090362Y-21546327D01*
X10108457Y-21512474D01*
X10132805Y-21482805D01*
X10162474Y-21458457D01*
X10196327Y-21440362D01*
X10233050Y-21429222D01*
X10275921Y-21425000D01*
X10924079Y-21425000D01*
X10966950Y-21429222D01*
G37*
G36*
X9466950Y-21429222D02*
G01*
X9503673Y-21440362D01*
X9537526Y-21458457D01*
X9567195Y-21482805D01*
X9591543Y-21512474D01*
X9609638Y-21546327D01*
X9620778Y-21583050D01*
X9625000Y-21625921D01*
X9625000Y-22199079D01*
X9620778Y-22241950D01*
X9609638Y-22278673D01*
X9591543Y-22312526D01*
X9567195Y-22342195D01*
X9537526Y-22366543D01*
X9503673Y-22384638D01*
X9466950Y-22395778D01*
X9424079Y-22400000D01*
X8775921Y-22400000D01*
X8733050Y-22395778D01*
X8696327Y-22384638D01*
X8662474Y-22366543D01*
X8632805Y-22342195D01*
X8608457Y-22312526D01*
X8590362Y-22278673D01*
X8579222Y-22241950D01*
X8575000Y-22199079D01*
X8575000Y-21625921D01*
X8579222Y-21583050D01*
X8590362Y-21546327D01*
X8608457Y-21512474D01*
X8632805Y-21482805D01*
X8662474Y-21458457D01*
X8696327Y-21440362D01*
X8733050Y-21429222D01*
X8775921Y-21425000D01*
X9424079Y-21425000D01*
X9466950Y-21429222D01*
G37*
G36*
X25571820Y-21104701D02*
G01*
X25613243Y-21117267D01*
X25651415Y-21137670D01*
X25684872Y-21165128D01*
X25712330Y-21198585D01*
X25732733Y-21236757D01*
X25745299Y-21278180D01*
X25750000Y-21325912D01*
X25750000Y-21949088D01*
X25745299Y-21996820D01*
X25732733Y-22038243D01*
X25712330Y-22076415D01*
X25684872Y-22109872D01*
X25651415Y-22137330D01*
X25613243Y-22157733D01*
X25571820Y-22170299D01*
X25524088Y-22175000D01*
X24475912Y-22175000D01*
X24428180Y-22170299D01*
X24386757Y-22157733D01*
X24348585Y-22137330D01*
X24315128Y-22109872D01*
X24287670Y-22076415D01*
X24267267Y-22038243D01*
X24254701Y-21996820D01*
X24250000Y-21949088D01*
X24250000Y-21325912D01*
X24254701Y-21278180D01*
X24267267Y-21236757D01*
X24287670Y-21198585D01*
X24315128Y-21165128D01*
X24348585Y-21137670D01*
X24386757Y-21117267D01*
X24428180Y-21104701D01*
X24475912Y-21100000D01*
X25524088Y-21100000D01*
X25571820Y-21104701D01*
G37*
G36*
X27471820Y-21104701D02*
G01*
X27513243Y-21117267D01*
X27551415Y-21137670D01*
X27584872Y-21165128D01*
X27612330Y-21198585D01*
X27632733Y-21236757D01*
X27645299Y-21278180D01*
X27650000Y-21325912D01*
X27650000Y-21949088D01*
X27645299Y-21996820D01*
X27632733Y-22038243D01*
X27612330Y-22076415D01*
X27584872Y-22109872D01*
X27551415Y-22137330D01*
X27513243Y-22157733D01*
X27471820Y-22170299D01*
X27424088Y-22175000D01*
X26375912Y-22175000D01*
X26328180Y-22170299D01*
X26286757Y-22157733D01*
X26248585Y-22137330D01*
X26215128Y-22109872D01*
X26187670Y-22076415D01*
X26167267Y-22038243D01*
X26154701Y-21996820D01*
X26150000Y-21949088D01*
X26150000Y-21325912D01*
X26154701Y-21278180D01*
X26167267Y-21236757D01*
X26187670Y-21198585D01*
X26215128Y-21165128D01*
X26248585Y-21137670D01*
X26286757Y-21117267D01*
X26328180Y-21104701D01*
X26375912Y-21100000D01*
X27424088Y-21100000D01*
X27471820Y-21104701D01*
G37*
G36*
X14521820Y-19854701D02*
G01*
X14563243Y-19867267D01*
X14601415Y-19887670D01*
X14634872Y-19915128D01*
X14662330Y-19948585D01*
X14682733Y-19986757D01*
X14695299Y-20028180D01*
X14700000Y-20075912D01*
X14700000Y-21124088D01*
X14695299Y-21171820D01*
X14682733Y-21213243D01*
X14662330Y-21251415D01*
X14634872Y-21284872D01*
X14601415Y-21312330D01*
X14563243Y-21332733D01*
X14521820Y-21345299D01*
X14474088Y-21350000D01*
X13850912Y-21350000D01*
X13803180Y-21345299D01*
X13761757Y-21332733D01*
X13723585Y-21312330D01*
X13690128Y-21284872D01*
X13662670Y-21251415D01*
X13642267Y-21213243D01*
X13629701Y-21171820D01*
X13625000Y-21124088D01*
X13625000Y-20075912D01*
X13629701Y-20028180D01*
X13642267Y-19986757D01*
X13662670Y-19948585D01*
X13690128Y-19915128D01*
X13723585Y-19887670D01*
X13761757Y-19867267D01*
X13803180Y-19854701D01*
X13850912Y-19850000D01*
X14474088Y-19850000D01*
X14521820Y-19854701D01*
G37*
G36*
X16396820Y-19854701D02*
G01*
X16438243Y-19867267D01*
X16476415Y-19887670D01*
X16509872Y-19915128D01*
X16537330Y-19948585D01*
X16557733Y-19986757D01*
X16570299Y-20028180D01*
X16575000Y-20075912D01*
X16575000Y-21124088D01*
X16570299Y-21171820D01*
X16557733Y-21213243D01*
X16537330Y-21251415D01*
X16509872Y-21284872D01*
X16476415Y-21312330D01*
X16438243Y-21332733D01*
X16396820Y-21345299D01*
X16349088Y-21350000D01*
X15725912Y-21350000D01*
X15678180Y-21345299D01*
X15636757Y-21332733D01*
X15598585Y-21312330D01*
X15565128Y-21284872D01*
X15537670Y-21251415D01*
X15517267Y-21213243D01*
X15504701Y-21171820D01*
X15500000Y-21124088D01*
X15500000Y-20075912D01*
X15504701Y-20028180D01*
X15517267Y-19986757D01*
X15537670Y-19948585D01*
X15565128Y-19915128D01*
X15598585Y-19887670D01*
X15636757Y-19867267D01*
X15678180Y-19854701D01*
X15725912Y-19850000D01*
X16349088Y-19850000D01*
X16396820Y-19854701D01*
G37*
G36*
X10966950Y-20004222D02*
G01*
X11003673Y-20015362D01*
X11037526Y-20033457D01*
X11067195Y-20057805D01*
X11091543Y-20087474D01*
X11109638Y-20121327D01*
X11120778Y-20158050D01*
X11125000Y-20200921D01*
X11125000Y-20774079D01*
X11120778Y-20816950D01*
X11109638Y-20853673D01*
X11091543Y-20887526D01*
X11067195Y-20917195D01*
X11037526Y-20941543D01*
X11003673Y-20959638D01*
X10966950Y-20970778D01*
X10924079Y-20975000D01*
X10275921Y-20975000D01*
X10233050Y-20970778D01*
X10196327Y-20959638D01*
X10162474Y-20941543D01*
X10132805Y-20917195D01*
X10108457Y-20887526D01*
X10090362Y-20853673D01*
X10079222Y-20816950D01*
X10075000Y-20774079D01*
X10075000Y-20200921D01*
X10079222Y-20158050D01*
X10090362Y-20121327D01*
X10108457Y-20087474D01*
X10132805Y-20057805D01*
X10162474Y-20033457D01*
X10196327Y-20015362D01*
X10233050Y-20004222D01*
X10275921Y-20000000D01*
X10924079Y-20000000D01*
X10966950Y-20004222D01*
G37*
G36*
X9466950Y-20004222D02*
G01*
X9503673Y-20015362D01*
X9537526Y-20033457D01*
X9567195Y-20057805D01*
X9591543Y-20087474D01*
X9609638Y-20121327D01*
X9620778Y-20158050D01*
X9625000Y-20200921D01*
X9625000Y-20774079D01*
X9620778Y-20816950D01*
X9609638Y-20853673D01*
X9591543Y-20887526D01*
X9567195Y-20917195D01*
X9537526Y-20941543D01*
X9503673Y-20959638D01*
X9466950Y-20970778D01*
X9424079Y-20975000D01*
X8775921Y-20975000D01*
X8733050Y-20970778D01*
X8696327Y-20959638D01*
X8662474Y-20941543D01*
X8632805Y-20917195D01*
X8608457Y-20887526D01*
X8590362Y-20853673D01*
X8579222Y-20816950D01*
X8575000Y-20774079D01*
X8575000Y-20200921D01*
X8579222Y-20158050D01*
X8590362Y-20121327D01*
X8608457Y-20087474D01*
X8632805Y-20057805D01*
X8662474Y-20033457D01*
X8696327Y-20015362D01*
X8733050Y-20004222D01*
X8775921Y-20000000D01*
X9424079Y-20000000D01*
X9466950Y-20004222D01*
G37*
G36*
X12466950Y-20004222D02*
G01*
X12503673Y-20015362D01*
X12537526Y-20033457D01*
X12567195Y-20057805D01*
X12591543Y-20087474D01*
X12609638Y-20121327D01*
X12620778Y-20158050D01*
X12625000Y-20200921D01*
X12625000Y-20774079D01*
X12620778Y-20816950D01*
X12609638Y-20853673D01*
X12591543Y-20887526D01*
X12567195Y-20917195D01*
X12537526Y-20941543D01*
X12503673Y-20959638D01*
X12466950Y-20970778D01*
X12424079Y-20975000D01*
X11775921Y-20975000D01*
X11733050Y-20970778D01*
X11696327Y-20959638D01*
X11662474Y-20941543D01*
X11632805Y-20917195D01*
X11608457Y-20887526D01*
X11590362Y-20853673D01*
X11579222Y-20816950D01*
X11575000Y-20774079D01*
X11575000Y-20200921D01*
X11579222Y-20158050D01*
X11590362Y-20121327D01*
X11608457Y-20087474D01*
X11632805Y-20057805D01*
X11662474Y-20033457D01*
X11696327Y-20015362D01*
X11733050Y-20004222D01*
X11775921Y-20000000D01*
X12424079Y-20000000D01*
X12466950Y-20004222D01*
G37*
G36*
X25571820Y-19229701D02*
G01*
X25613243Y-19242267D01*
X25651415Y-19262670D01*
X25684872Y-19290128D01*
X25712330Y-19323585D01*
X25732733Y-19361757D01*
X25745299Y-19403180D01*
X25750000Y-19450912D01*
X25750000Y-20074088D01*
X25745299Y-20121820D01*
X25732733Y-20163243D01*
X25712330Y-20201415D01*
X25684872Y-20234872D01*
X25651415Y-20262330D01*
X25613243Y-20282733D01*
X25571820Y-20295299D01*
X25524088Y-20300000D01*
X24475912Y-20300000D01*
X24428180Y-20295299D01*
X24386757Y-20282733D01*
X24348585Y-20262330D01*
X24315128Y-20234872D01*
X24287670Y-20201415D01*
X24267267Y-20163243D01*
X24254701Y-20121820D01*
X24250000Y-20074088D01*
X24250000Y-19450912D01*
X24254701Y-19403180D01*
X24267267Y-19361757D01*
X24287670Y-19323585D01*
X24315128Y-19290128D01*
X24348585Y-19262670D01*
X24386757Y-19242267D01*
X24428180Y-19229701D01*
X24475912Y-19225000D01*
X25524088Y-19225000D01*
X25571820Y-19229701D01*
G37*
G36*
X27471820Y-19229701D02*
G01*
X27513243Y-19242267D01*
X27551415Y-19262670D01*
X27584872Y-19290128D01*
X27612330Y-19323585D01*
X27632733Y-19361757D01*
X27645299Y-19403180D01*
X27650000Y-19450912D01*
X27650000Y-20074088D01*
X27645299Y-20121820D01*
X27632733Y-20163243D01*
X27612330Y-20201415D01*
X27584872Y-20234872D01*
X27551415Y-20262330D01*
X27513243Y-20282733D01*
X27471820Y-20295299D01*
X27424088Y-20300000D01*
X26375912Y-20300000D01*
X26328180Y-20295299D01*
X26286757Y-20282733D01*
X26248585Y-20262330D01*
X26215128Y-20234872D01*
X26187670Y-20201415D01*
X26167267Y-20163243D01*
X26154701Y-20121820D01*
X26150000Y-20074088D01*
X26150000Y-19450912D01*
X26154701Y-19403180D01*
X26167267Y-19361757D01*
X26187670Y-19323585D01*
X26215128Y-19290128D01*
X26248585Y-19262670D01*
X26286757Y-19242267D01*
X26328180Y-19229701D01*
X26375912Y-19225000D01*
X27424088Y-19225000D01*
X27471820Y-19229701D01*
G37*
G36*
X36006830Y-18011576D02*
G01*
X36157625Y-18057319D01*
X36296610Y-18131608D01*
X36418423Y-18231577D01*
X36518392Y-18353390D01*
X36592681Y-18492375D01*
X36638424Y-18643170D01*
X36653870Y-18800000D01*
X36638424Y-18956830D01*
X36592681Y-19107625D01*
X36518392Y-19246610D01*
X36418423Y-19368423D01*
X36296610Y-19468392D01*
X36157625Y-19542681D01*
X36006830Y-19588424D01*
X35889293Y-19600000D01*
X34310707Y-19600000D01*
X34193170Y-19588424D01*
X34042375Y-19542681D01*
X33903390Y-19468392D01*
X33781577Y-19368423D01*
X33681608Y-19246610D01*
X33607319Y-19107625D01*
X33561576Y-18956830D01*
X33546130Y-18800000D01*
X33561576Y-18643170D01*
X33607319Y-18492375D01*
X33681608Y-18353390D01*
X33781577Y-18231577D01*
X33903390Y-18131608D01*
X34042375Y-18057319D01*
X34193170Y-18011576D01*
X34310707Y-18000000D01*
X35889293Y-18000000D01*
X36006830Y-18011576D01*
G37*
G36*
X10966950Y-18429222D02*
G01*
X11003673Y-18440362D01*
X11037526Y-18458457D01*
X11067195Y-18482805D01*
X11091543Y-18512474D01*
X11109638Y-18546327D01*
X11120778Y-18583050D01*
X11125000Y-18625921D01*
X11125000Y-19199079D01*
X11120778Y-19241950D01*
X11109638Y-19278673D01*
X11091543Y-19312526D01*
X11067195Y-19342195D01*
X11037526Y-19366543D01*
X11003673Y-19384638D01*
X10966950Y-19395778D01*
X10924079Y-19400000D01*
X10275921Y-19400000D01*
X10233050Y-19395778D01*
X10196327Y-19384638D01*
X10162474Y-19366543D01*
X10132805Y-19342195D01*
X10108457Y-19312526D01*
X10090362Y-19278673D01*
X10079222Y-19241950D01*
X10075000Y-19199079D01*
X10075000Y-18625921D01*
X10079222Y-18583050D01*
X10090362Y-18546327D01*
X10108457Y-18512474D01*
X10132805Y-18482805D01*
X10162474Y-18458457D01*
X10196327Y-18440362D01*
X10233050Y-18429222D01*
X10275921Y-18425000D01*
X10924079Y-18425000D01*
X10966950Y-18429222D01*
G37*
G36*
X12466950Y-18429222D02*
G01*
X12503673Y-18440362D01*
X12537526Y-18458457D01*
X12567195Y-18482805D01*
X12591543Y-18512474D01*
X12609638Y-18546327D01*
X12620778Y-18583050D01*
X12625000Y-18625921D01*
X12625000Y-19199079D01*
X12620778Y-19241950D01*
X12609638Y-19278673D01*
X12591543Y-19312526D01*
X12567195Y-19342195D01*
X12537526Y-19366543D01*
X12503673Y-19384638D01*
X12466950Y-19395778D01*
X12424079Y-19400000D01*
X11775921Y-19400000D01*
X11733050Y-19395778D01*
X11696327Y-19384638D01*
X11662474Y-19366543D01*
X11632805Y-19342195D01*
X11608457Y-19312526D01*
X11590362Y-19278673D01*
X11579222Y-19241950D01*
X11575000Y-19199079D01*
X11575000Y-18625921D01*
X11579222Y-18583050D01*
X11590362Y-18546327D01*
X11608457Y-18512474D01*
X11632805Y-18482805D01*
X11662474Y-18458457D01*
X11696327Y-18440362D01*
X11733050Y-18429222D01*
X11775921Y-18425000D01*
X12424079Y-18425000D01*
X12466950Y-18429222D01*
G37*
G36*
X9466950Y-18429222D02*
G01*
X9503673Y-18440362D01*
X9537526Y-18458457D01*
X9567195Y-18482805D01*
X9591543Y-18512474D01*
X9609638Y-18546327D01*
X9620778Y-18583050D01*
X9625000Y-18625921D01*
X9625000Y-19199079D01*
X9620778Y-19241950D01*
X9609638Y-19278673D01*
X9591543Y-19312526D01*
X9567195Y-19342195D01*
X9537526Y-19366543D01*
X9503673Y-19384638D01*
X9466950Y-19395778D01*
X9424079Y-19400000D01*
X8775921Y-19400000D01*
X8733050Y-19395778D01*
X8696327Y-19384638D01*
X8662474Y-19366543D01*
X8632805Y-19342195D01*
X8608457Y-19312526D01*
X8590362Y-19278673D01*
X8579222Y-19241950D01*
X8575000Y-19199079D01*
X8575000Y-18625921D01*
X8579222Y-18583050D01*
X8590362Y-18546327D01*
X8608457Y-18512474D01*
X8632805Y-18482805D01*
X8662474Y-18458457D01*
X8696327Y-18440362D01*
X8733050Y-18429222D01*
X8775921Y-18425000D01*
X9424079Y-18425000D01*
X9466950Y-18429222D01*
G37*
G36*
X13941950Y-18179222D02*
G01*
X13978673Y-18190362D01*
X14012526Y-18208457D01*
X14042195Y-18232805D01*
X14066543Y-18262474D01*
X14084638Y-18296327D01*
X14095778Y-18333050D01*
X14100000Y-18375921D01*
X14100000Y-19024079D01*
X14095778Y-19066950D01*
X14084638Y-19103673D01*
X14066543Y-19137526D01*
X14042195Y-19167195D01*
X14012526Y-19191543D01*
X13978673Y-19209638D01*
X13941950Y-19220778D01*
X13899079Y-19225000D01*
X13325921Y-19225000D01*
X13283050Y-19220778D01*
X13246327Y-19209638D01*
X13212474Y-19191543D01*
X13182805Y-19167195D01*
X13158457Y-19137526D01*
X13140362Y-19103673D01*
X13129222Y-19066950D01*
X13125000Y-19024079D01*
X13125000Y-18375921D01*
X13129222Y-18333050D01*
X13140362Y-18296327D01*
X13158457Y-18262474D01*
X13182805Y-18232805D01*
X13212474Y-18208457D01*
X13246327Y-18190362D01*
X13283050Y-18179222D01*
X13325921Y-18175000D01*
X13899079Y-18175000D01*
X13941950Y-18179222D01*
G37*
G36*
X15516950Y-18179222D02*
G01*
X15553673Y-18190362D01*
X15587526Y-18208457D01*
X15617195Y-18232805D01*
X15641543Y-18262474D01*
X15659638Y-18296327D01*
X15670778Y-18333050D01*
X15675000Y-18375921D01*
X15675000Y-19024079D01*
X15670778Y-19066950D01*
X15659638Y-19103673D01*
X15641543Y-19137526D01*
X15617195Y-19167195D01*
X15587526Y-19191543D01*
X15553673Y-19209638D01*
X15516950Y-19220778D01*
X15474079Y-19225000D01*
X14900921Y-19225000D01*
X14858050Y-19220778D01*
X14821327Y-19209638D01*
X14787474Y-19191543D01*
X14757805Y-19167195D01*
X14733457Y-19137526D01*
X14715362Y-19103673D01*
X14704222Y-19066950D01*
X14700000Y-19024079D01*
X14700000Y-18375921D01*
X14704222Y-18333050D01*
X14715362Y-18296327D01*
X14733457Y-18262474D01*
X14757805Y-18232805D01*
X14787474Y-18208457D01*
X14821327Y-18190362D01*
X14858050Y-18179222D01*
X14900921Y-18175000D01*
X15474079Y-18175000D01*
X15516950Y-18179222D01*
G37*
G36*
X18850000Y-15530001D02*
G01*
X18851825Y-15548534D01*
X18857231Y-15566356D01*
X18866010Y-15582780D01*
X18877825Y-15597175D01*
X18892220Y-15608990D01*
X18908644Y-15617769D01*
X18926466Y-15623175D01*
X18944999Y-15625000D01*
X19800000Y-15625000D01*
X19800000Y-18475000D01*
X18944999Y-18475000D01*
X18926466Y-18476825D01*
X18908644Y-18482231D01*
X18892220Y-18491010D01*
X18877825Y-18502825D01*
X18866010Y-18517220D01*
X18857231Y-18533644D01*
X18851825Y-18551466D01*
X18850000Y-18569999D01*
X18850000Y-18750000D01*
X17050000Y-18750000D01*
X17050000Y-18569999D01*
X17048175Y-18551466D01*
X17042769Y-18533644D01*
X17033990Y-18517220D01*
X17022175Y-18502825D01*
X17007780Y-18491010D01*
X16991356Y-18482231D01*
X16973534Y-18476825D01*
X16955001Y-18475000D01*
X16100000Y-18475000D01*
X16100000Y-15625000D01*
X16955001Y-15625000D01*
X16973534Y-15623175D01*
X16991356Y-15617769D01*
X17007780Y-15608990D01*
X17022175Y-15597175D01*
X17033990Y-15582780D01*
X17042769Y-15566356D01*
X17048175Y-15548534D01*
X17050000Y-15530001D01*
X17050000Y-15350000D01*
X18850000Y-15350000D01*
X18850000Y-15530001D01*
G37*
G36*
X22362520Y-16234586D02*
G01*
X22526310Y-16302430D01*
X22673717Y-16400924D01*
X22799076Y-16526283D01*
X22897570Y-16673690D01*
X22965414Y-16837480D01*
X23000000Y-17011358D01*
X23000000Y-17188642D01*
X22965414Y-17362520D01*
X22897570Y-17526310D01*
X22799076Y-17673717D01*
X22673717Y-17799076D01*
X22526310Y-17897570D01*
X22362520Y-17965414D01*
X22188642Y-18000000D01*
X22011358Y-18000000D01*
X21837480Y-17965414D01*
X21673690Y-17897570D01*
X21526283Y-17799076D01*
X21400924Y-17673717D01*
X21302430Y-17526310D01*
X21234586Y-17362520D01*
X21200000Y-17188642D01*
X21200000Y-17011358D01*
X21234586Y-16837480D01*
X21302430Y-16673690D01*
X21400924Y-16526283D01*
X21526283Y-16400924D01*
X21673690Y-16302430D01*
X21837480Y-16234586D01*
X22011358Y-16200000D01*
X22188642Y-16200000D01*
X22362520Y-16234586D01*
G37*
G36*
X29982520Y-16234586D02*
G01*
X30146310Y-16302430D01*
X30293717Y-16400924D01*
X30419076Y-16526283D01*
X30517570Y-16673690D01*
X30585414Y-16837480D01*
X30620000Y-17011358D01*
X30620000Y-17188642D01*
X30585414Y-17362520D01*
X30517570Y-17526310D01*
X30419076Y-17673717D01*
X30293717Y-17799076D01*
X30146310Y-17897570D01*
X29982520Y-17965414D01*
X29808642Y-18000000D01*
X29631358Y-18000000D01*
X29457480Y-17965414D01*
X29293690Y-17897570D01*
X29146283Y-17799076D01*
X29020924Y-17673717D01*
X28922430Y-17526310D01*
X28854586Y-17362520D01*
X28820000Y-17188642D01*
X28820000Y-17011358D01*
X28854586Y-16837480D01*
X28922430Y-16673690D01*
X29020924Y-16526283D01*
X29146283Y-16400924D01*
X29293690Y-16302430D01*
X29457480Y-16234586D01*
X29631358Y-16200000D01*
X29808642Y-16200000D01*
X29982520Y-16234586D01*
G37*
G36*
X27442520Y-16234586D02*
G01*
X27606310Y-16302430D01*
X27753717Y-16400924D01*
X27879076Y-16526283D01*
X27977570Y-16673690D01*
X28045414Y-16837480D01*
X28080000Y-17011358D01*
X28080000Y-17188642D01*
X28045414Y-17362520D01*
X27977570Y-17526310D01*
X27879076Y-17673717D01*
X27753717Y-17799076D01*
X27606310Y-17897570D01*
X27442520Y-17965414D01*
X27268642Y-18000000D01*
X27091358Y-18000000D01*
X26917480Y-17965414D01*
X26753690Y-17897570D01*
X26606283Y-17799076D01*
X26480924Y-17673717D01*
X26382430Y-17526310D01*
X26314586Y-17362520D01*
X26280000Y-17188642D01*
X26280000Y-17011358D01*
X26314586Y-16837480D01*
X26382430Y-16673690D01*
X26480924Y-16526283D01*
X26606283Y-16400924D01*
X26753690Y-16302430D01*
X26917480Y-16234586D01*
X27091358Y-16200000D01*
X27268642Y-16200000D01*
X27442520Y-16234586D01*
G37*
G36*
X24902520Y-16234586D02*
G01*
X25066310Y-16302430D01*
X25213717Y-16400924D01*
X25339076Y-16526283D01*
X25437570Y-16673690D01*
X25505414Y-16837480D01*
X25540000Y-17011358D01*
X25540000Y-17188642D01*
X25505414Y-17362520D01*
X25437570Y-17526310D01*
X25339076Y-17673717D01*
X25213717Y-17799076D01*
X25066310Y-17897570D01*
X24902520Y-17965414D01*
X24728642Y-18000000D01*
X24551358Y-18000000D01*
X24377480Y-17965414D01*
X24213690Y-17897570D01*
X24066283Y-17799076D01*
X23940924Y-17673717D01*
X23842430Y-17526310D01*
X23774586Y-17362520D01*
X23740000Y-17188642D01*
X23740000Y-17011358D01*
X23774586Y-16837480D01*
X23842430Y-16673690D01*
X23940924Y-16526283D01*
X24066283Y-16400924D01*
X24213690Y-16302430D01*
X24377480Y-16234586D01*
X24551358Y-16200000D01*
X24728642Y-16200000D01*
X24902520Y-16234586D01*
G37*
G36*
X32733351Y-16230743D02*
G01*
X32878942Y-16291049D01*
X33009970Y-16378599D01*
X33009972Y-16378601D01*
X33009975Y-16378603D01*
X33121397Y-16490025D01*
X33121399Y-16490028D01*
X33121401Y-16490030D01*
X33208951Y-16621058D01*
X33269257Y-16766649D01*
X33300000Y-16921207D01*
X33300000Y-17078793D01*
X33269257Y-17233351D01*
X33208951Y-17378942D01*
X33121401Y-17509970D01*
X33121399Y-17509972D01*
X33121397Y-17509975D01*
X33009975Y-17621397D01*
X33009972Y-17621399D01*
X33009970Y-17621401D01*
X32878942Y-17708951D01*
X32733351Y-17769257D01*
X32578793Y-17800000D01*
X32421207Y-17800000D01*
X32266649Y-17769257D01*
X32121058Y-17708951D01*
X31990030Y-17621401D01*
X31990028Y-17621399D01*
X31990025Y-17621397D01*
X31878603Y-17509975D01*
X31878601Y-17509972D01*
X31878599Y-17509970D01*
X31791049Y-17378942D01*
X31730743Y-17233351D01*
X31700000Y-17078793D01*
X31700000Y-16921207D01*
X31730743Y-16766649D01*
X31791049Y-16621058D01*
X31878599Y-16490030D01*
X31878601Y-16490028D01*
X31878603Y-16490025D01*
X31990025Y-16378603D01*
X31990028Y-16378601D01*
X31990030Y-16378599D01*
X32121058Y-16291049D01*
X32266649Y-16230743D01*
X32421207Y-16200000D01*
X32578793Y-16200000D01*
X32733351Y-16230743D01*
G37*
G36*
X9466950Y-16604222D02*
G01*
X9503673Y-16615362D01*
X9537526Y-16633457D01*
X9567195Y-16657805D01*
X9591543Y-16687474D01*
X9609638Y-16721327D01*
X9620778Y-16758050D01*
X9625000Y-16800921D01*
X9625000Y-17374079D01*
X9620778Y-17416950D01*
X9609638Y-17453673D01*
X9591543Y-17487526D01*
X9567195Y-17517195D01*
X9537526Y-17541543D01*
X9503673Y-17559638D01*
X9466950Y-17570778D01*
X9424079Y-17575000D01*
X8775921Y-17575000D01*
X8733050Y-17570778D01*
X8696327Y-17559638D01*
X8662474Y-17541543D01*
X8632805Y-17517195D01*
X8608457Y-17487526D01*
X8590362Y-17453673D01*
X8579222Y-17416950D01*
X8575000Y-17374079D01*
X8575000Y-16800921D01*
X8579222Y-16758050D01*
X8590362Y-16721327D01*
X8608457Y-16687474D01*
X8632805Y-16657805D01*
X8662474Y-16633457D01*
X8696327Y-16615362D01*
X8733050Y-16604222D01*
X8775921Y-16600000D01*
X9424079Y-16600000D01*
X9466950Y-16604222D01*
G37*
G36*
X10966950Y-16604222D02*
G01*
X11003673Y-16615362D01*
X11037526Y-16633457D01*
X11067195Y-16657805D01*
X11091543Y-16687474D01*
X11109638Y-16721327D01*
X11120778Y-16758050D01*
X11125000Y-16800921D01*
X11125000Y-17374079D01*
X11120778Y-17416950D01*
X11109638Y-17453673D01*
X11091543Y-17487526D01*
X11067195Y-17517195D01*
X11037526Y-17541543D01*
X11003673Y-17559638D01*
X10966950Y-17570778D01*
X10924079Y-17575000D01*
X10275921Y-17575000D01*
X10233050Y-17570778D01*
X10196327Y-17559638D01*
X10162474Y-17541543D01*
X10132805Y-17517195D01*
X10108457Y-17487526D01*
X10090362Y-17453673D01*
X10079222Y-17416950D01*
X10075000Y-17374079D01*
X10075000Y-16800921D01*
X10079222Y-16758050D01*
X10090362Y-16721327D01*
X10108457Y-16687474D01*
X10132805Y-16657805D01*
X10162474Y-16633457D01*
X10196327Y-16615362D01*
X10233050Y-16604222D01*
X10275921Y-16600000D01*
X10924079Y-16600000D01*
X10966950Y-16604222D01*
G37*
G36*
X12466950Y-16604222D02*
G01*
X12503673Y-16615362D01*
X12537526Y-16633457D01*
X12567195Y-16657805D01*
X12591543Y-16687474D01*
X12609638Y-16721327D01*
X12620778Y-16758050D01*
X12625000Y-16800921D01*
X12625000Y-17374079D01*
X12620778Y-17416950D01*
X12609638Y-17453673D01*
X12591543Y-17487526D01*
X12567195Y-17517195D01*
X12537526Y-17541543D01*
X12503673Y-17559638D01*
X12466950Y-17570778D01*
X12424079Y-17575000D01*
X11775921Y-17575000D01*
X11733050Y-17570778D01*
X11696327Y-17559638D01*
X11662474Y-17541543D01*
X11632805Y-17517195D01*
X11608457Y-17487526D01*
X11590362Y-17453673D01*
X11579222Y-17416950D01*
X11575000Y-17374079D01*
X11575000Y-16800921D01*
X11579222Y-16758050D01*
X11590362Y-16721327D01*
X11608457Y-16687474D01*
X11632805Y-16657805D01*
X11662474Y-16633457D01*
X11696327Y-16615362D01*
X11733050Y-16604222D01*
X11775921Y-16600000D01*
X12424079Y-16600000D01*
X12466950Y-16604222D01*
G37*
G36*
X13891950Y-16079222D02*
G01*
X13928673Y-16090362D01*
X13962526Y-16108457D01*
X13992195Y-16132805D01*
X14016543Y-16162474D01*
X14034638Y-16196327D01*
X14045778Y-16233050D01*
X14050000Y-16275921D01*
X14050000Y-16924079D01*
X14045778Y-16966950D01*
X14034638Y-17003673D01*
X14016543Y-17037526D01*
X13992195Y-17067195D01*
X13962526Y-17091543D01*
X13928673Y-17109638D01*
X13891950Y-17120778D01*
X13849079Y-17125000D01*
X13275921Y-17125000D01*
X13233050Y-17120778D01*
X13196327Y-17109638D01*
X13162474Y-17091543D01*
X13132805Y-17067195D01*
X13108457Y-17037526D01*
X13090362Y-17003673D01*
X13079222Y-16966950D01*
X13075000Y-16924079D01*
X13075000Y-16275921D01*
X13079222Y-16233050D01*
X13090362Y-16196327D01*
X13108457Y-16162474D01*
X13132805Y-16132805D01*
X13162474Y-16108457D01*
X13196327Y-16090362D01*
X13233050Y-16079222D01*
X13275921Y-16075000D01*
X13849079Y-16075000D01*
X13891950Y-16079222D01*
G37*
G36*
X15466950Y-16079222D02*
G01*
X15503673Y-16090362D01*
X15537526Y-16108457D01*
X15567195Y-16132805D01*
X15591543Y-16162474D01*
X15609638Y-16196327D01*
X15620778Y-16233050D01*
X15625000Y-16275921D01*
X15625000Y-16924079D01*
X15620778Y-16966950D01*
X15609638Y-17003673D01*
X15591543Y-17037526D01*
X15567195Y-17067195D01*
X15537526Y-17091543D01*
X15503673Y-17109638D01*
X15466950Y-17120778D01*
X15424079Y-17125000D01*
X14850921Y-17125000D01*
X14808050Y-17120778D01*
X14771327Y-17109638D01*
X14737474Y-17091543D01*
X14707805Y-17067195D01*
X14683457Y-17037526D01*
X14665362Y-17003673D01*
X14654222Y-16966950D01*
X14650000Y-16924079D01*
X14650000Y-16275921D01*
X14654222Y-16233050D01*
X14665362Y-16196327D01*
X14683457Y-16162474D01*
X14707805Y-16132805D01*
X14737474Y-16108457D01*
X14771327Y-16090362D01*
X14808050Y-16079222D01*
X14850921Y-16075000D01*
X15424079Y-16075000D01*
X15466950Y-16079222D01*
G37*
G36*
X10966950Y-15029222D02*
G01*
X11003673Y-15040362D01*
X11037526Y-15058457D01*
X11067195Y-15082805D01*
X11091543Y-15112474D01*
X11109638Y-15146327D01*
X11120778Y-15183050D01*
X11125000Y-15225921D01*
X11125000Y-15799079D01*
X11120778Y-15841950D01*
X11109638Y-15878673D01*
X11091543Y-15912526D01*
X11067195Y-15942195D01*
X11037526Y-15966543D01*
X11003673Y-15984638D01*
X10966950Y-15995778D01*
X10924079Y-16000000D01*
X10275921Y-16000000D01*
X10233050Y-15995778D01*
X10196327Y-15984638D01*
X10162474Y-15966543D01*
X10132805Y-15942195D01*
X10108457Y-15912526D01*
X10090362Y-15878673D01*
X10079222Y-15841950D01*
X10075000Y-15799079D01*
X10075000Y-15225921D01*
X10079222Y-15183050D01*
X10090362Y-15146327D01*
X10108457Y-15112474D01*
X10132805Y-15082805D01*
X10162474Y-15058457D01*
X10196327Y-15040362D01*
X10233050Y-15029222D01*
X10275921Y-15025000D01*
X10924079Y-15025000D01*
X10966950Y-15029222D01*
G37*
G36*
X36006830Y-14411576D02*
G01*
X36157625Y-14457319D01*
X36296610Y-14531608D01*
X36418423Y-14631577D01*
X36518392Y-14753390D01*
X36592681Y-14892375D01*
X36638424Y-15043170D01*
X36653870Y-15200000D01*
X36638424Y-15356830D01*
X36592681Y-15507625D01*
X36518392Y-15646610D01*
X36418423Y-15768423D01*
X36296610Y-15868392D01*
X36157625Y-15942681D01*
X36006830Y-15988424D01*
X35889293Y-16000000D01*
X34310707Y-16000000D01*
X34193170Y-15988424D01*
X34042375Y-15942681D01*
X33903390Y-15868392D01*
X33781577Y-15768423D01*
X33681608Y-15646610D01*
X33607319Y-15507625D01*
X33561576Y-15356830D01*
X33546130Y-15200000D01*
X33561576Y-15043170D01*
X33607319Y-14892375D01*
X33681608Y-14753390D01*
X33781577Y-14631577D01*
X33903390Y-14531608D01*
X34042375Y-14457319D01*
X34193170Y-14411576D01*
X34310707Y-14400000D01*
X35889293Y-14400000D01*
X36006830Y-14411576D01*
G37*
G36*
X9466950Y-15029222D02*
G01*
X9503673Y-15040362D01*
X9537526Y-15058457D01*
X9567195Y-15082805D01*
X9591543Y-15112474D01*
X9609638Y-15146327D01*
X9620778Y-15183050D01*
X9625000Y-15225921D01*
X9625000Y-15799079D01*
X9620778Y-15841950D01*
X9609638Y-15878673D01*
X9591543Y-15912526D01*
X9567195Y-15942195D01*
X9537526Y-15966543D01*
X9503673Y-15984638D01*
X9466950Y-15995778D01*
X9424079Y-16000000D01*
X8775921Y-16000000D01*
X8733050Y-15995778D01*
X8696327Y-15984638D01*
X8662474Y-15966543D01*
X8632805Y-15942195D01*
X8608457Y-15912526D01*
X8590362Y-15878673D01*
X8579222Y-15841950D01*
X8575000Y-15799079D01*
X8575000Y-15225921D01*
X8579222Y-15183050D01*
X8590362Y-15146327D01*
X8608457Y-15112474D01*
X8632805Y-15082805D01*
X8662474Y-15058457D01*
X8696327Y-15040362D01*
X8733050Y-15029222D01*
X8775921Y-15025000D01*
X9424079Y-15025000D01*
X9466950Y-15029222D01*
G37*
G36*
X12466950Y-15029222D02*
G01*
X12503673Y-15040362D01*
X12537526Y-15058457D01*
X12567195Y-15082805D01*
X12591543Y-15112474D01*
X12609638Y-15146327D01*
X12620778Y-15183050D01*
X12625000Y-15225921D01*
X12625000Y-15799079D01*
X12620778Y-15841950D01*
X12609638Y-15878673D01*
X12591543Y-15912526D01*
X12567195Y-15942195D01*
X12537526Y-15966543D01*
X12503673Y-15984638D01*
X12466950Y-15995778D01*
X12424079Y-16000000D01*
X11775921Y-16000000D01*
X11733050Y-15995778D01*
X11696327Y-15984638D01*
X11662474Y-15966543D01*
X11632805Y-15942195D01*
X11608457Y-15912526D01*
X11590362Y-15878673D01*
X11579222Y-15841950D01*
X11575000Y-15799079D01*
X11575000Y-15225921D01*
X11579222Y-15183050D01*
X11590362Y-15146327D01*
X11608457Y-15112474D01*
X11632805Y-15082805D01*
X11662474Y-15058457D01*
X11696327Y-15040362D01*
X11733050Y-15029222D01*
X11775921Y-15025000D01*
X12424079Y-15025000D01*
X12466950Y-15029222D01*
G37*
G36*
X25171820Y-13904701D02*
G01*
X25213243Y-13917267D01*
X25251415Y-13937670D01*
X25284872Y-13965128D01*
X25312330Y-13998585D01*
X25332733Y-14036757D01*
X25345299Y-14078180D01*
X25350000Y-14125912D01*
X25350000Y-14749088D01*
X25345299Y-14796820D01*
X25332733Y-14838243D01*
X25312330Y-14876415D01*
X25284872Y-14909872D01*
X25251415Y-14937330D01*
X25213243Y-14957733D01*
X25171820Y-14970299D01*
X25124088Y-14975000D01*
X24075912Y-14975000D01*
X24028180Y-14970299D01*
X23986757Y-14957733D01*
X23948585Y-14937330D01*
X23915128Y-14909872D01*
X23887670Y-14876415D01*
X23867267Y-14838243D01*
X23854701Y-14796820D01*
X23850000Y-14749088D01*
X23850000Y-14125912D01*
X23854701Y-14078180D01*
X23867267Y-14036757D01*
X23887670Y-13998585D01*
X23915128Y-13965128D01*
X23948585Y-13937670D01*
X23986757Y-13917267D01*
X24028180Y-13904701D01*
X24075912Y-13900000D01*
X25124088Y-13900000D01*
X25171820Y-13904701D01*
G37*
G36*
X29871820Y-13904701D02*
G01*
X29913243Y-13917267D01*
X29951415Y-13937670D01*
X29984872Y-13965128D01*
X30012330Y-13998585D01*
X30032733Y-14036757D01*
X30045299Y-14078180D01*
X30050000Y-14125912D01*
X30050000Y-14749088D01*
X30045299Y-14796820D01*
X30032733Y-14838243D01*
X30012330Y-14876415D01*
X29984872Y-14909872D01*
X29951415Y-14937330D01*
X29913243Y-14957733D01*
X29871820Y-14970299D01*
X29824088Y-14975000D01*
X28775912Y-14975000D01*
X28728180Y-14970299D01*
X28686757Y-14957733D01*
X28648585Y-14937330D01*
X28615128Y-14909872D01*
X28587670Y-14876415D01*
X28567267Y-14838243D01*
X28554701Y-14796820D01*
X28550000Y-14749088D01*
X28550000Y-14125912D01*
X28554701Y-14078180D01*
X28567267Y-14036757D01*
X28587670Y-13998585D01*
X28615128Y-13965128D01*
X28648585Y-13937670D01*
X28686757Y-13917267D01*
X28728180Y-13904701D01*
X28775912Y-13900000D01*
X29824088Y-13900000D01*
X29871820Y-13904701D01*
G37*
G36*
X27071820Y-13904701D02*
G01*
X27113243Y-13917267D01*
X27151415Y-13937670D01*
X27184872Y-13965128D01*
X27212330Y-13998585D01*
X27232733Y-14036757D01*
X27245299Y-14078180D01*
X27250000Y-14125912D01*
X27250000Y-14749088D01*
X27245299Y-14796820D01*
X27232733Y-14838243D01*
X27212330Y-14876415D01*
X27184872Y-14909872D01*
X27151415Y-14937330D01*
X27113243Y-14957733D01*
X27071820Y-14970299D01*
X27024088Y-14975000D01*
X25975912Y-14975000D01*
X25928180Y-14970299D01*
X25886757Y-14957733D01*
X25848585Y-14937330D01*
X25815128Y-14909872D01*
X25787670Y-14876415D01*
X25767267Y-14838243D01*
X25754701Y-14796820D01*
X25750000Y-14749088D01*
X25750000Y-14125912D01*
X25754701Y-14078180D01*
X25767267Y-14036757D01*
X25787670Y-13998585D01*
X25815128Y-13965128D01*
X25848585Y-13937670D01*
X25886757Y-13917267D01*
X25928180Y-13904701D01*
X25975912Y-13900000D01*
X27024088Y-13900000D01*
X27071820Y-13904701D01*
G37*
G36*
X9466950Y-13604222D02*
G01*
X9503673Y-13615362D01*
X9537526Y-13633457D01*
X9567195Y-13657805D01*
X9591543Y-13687474D01*
X9609638Y-13721327D01*
X9620778Y-13758050D01*
X9625000Y-13800921D01*
X9625000Y-14374079D01*
X9620778Y-14416950D01*
X9609638Y-14453673D01*
X9591543Y-14487526D01*
X9567195Y-14517195D01*
X9537526Y-14541543D01*
X9503673Y-14559638D01*
X9466950Y-14570778D01*
X9424079Y-14575000D01*
X8775921Y-14575000D01*
X8733050Y-14570778D01*
X8696327Y-14559638D01*
X8662474Y-14541543D01*
X8632805Y-14517195D01*
X8608457Y-14487526D01*
X8590362Y-14453673D01*
X8579222Y-14416950D01*
X8575000Y-14374079D01*
X8575000Y-13800921D01*
X8579222Y-13758050D01*
X8590362Y-13721327D01*
X8608457Y-13687474D01*
X8632805Y-13657805D01*
X8662474Y-13633457D01*
X8696327Y-13615362D01*
X8733050Y-13604222D01*
X8775921Y-13600000D01*
X9424079Y-13600000D01*
X9466950Y-13604222D01*
G37*
G36*
X14621820Y-13054701D02*
G01*
X14663243Y-13067267D01*
X14701415Y-13087670D01*
X14734872Y-13115128D01*
X14762330Y-13148585D01*
X14782733Y-13186757D01*
X14795299Y-13228180D01*
X14800000Y-13275912D01*
X14800000Y-14324088D01*
X14795299Y-14371820D01*
X14782733Y-14413243D01*
X14762330Y-14451415D01*
X14734872Y-14484872D01*
X14701415Y-14512330D01*
X14663243Y-14532733D01*
X14621820Y-14545299D01*
X14574088Y-14550000D01*
X13950912Y-14550000D01*
X13903180Y-14545299D01*
X13861757Y-14532733D01*
X13823585Y-14512330D01*
X13790128Y-14484872D01*
X13762670Y-14451415D01*
X13742267Y-14413243D01*
X13729701Y-14371820D01*
X13725000Y-14324088D01*
X13725000Y-13275912D01*
X13729701Y-13228180D01*
X13742267Y-13186757D01*
X13762670Y-13148585D01*
X13790128Y-13115128D01*
X13823585Y-13087670D01*
X13861757Y-13067267D01*
X13903180Y-13054701D01*
X13950912Y-13050000D01*
X14574088Y-13050000D01*
X14621820Y-13054701D01*
G37*
G36*
X16496820Y-13054701D02*
G01*
X16538243Y-13067267D01*
X16576415Y-13087670D01*
X16609872Y-13115128D01*
X16637330Y-13148585D01*
X16657733Y-13186757D01*
X16670299Y-13228180D01*
X16675000Y-13275912D01*
X16675000Y-14324088D01*
X16670299Y-14371820D01*
X16657733Y-14413243D01*
X16637330Y-14451415D01*
X16609872Y-14484872D01*
X16576415Y-14512330D01*
X16538243Y-14532733D01*
X16496820Y-14545299D01*
X16449088Y-14550000D01*
X15825912Y-14550000D01*
X15778180Y-14545299D01*
X15736757Y-14532733D01*
X15698585Y-14512330D01*
X15665128Y-14484872D01*
X15637670Y-14451415D01*
X15617267Y-14413243D01*
X15604701Y-14371820D01*
X15600000Y-14324088D01*
X15600000Y-13275912D01*
X15604701Y-13228180D01*
X15617267Y-13186757D01*
X15637670Y-13148585D01*
X15665128Y-13115128D01*
X15698585Y-13087670D01*
X15736757Y-13067267D01*
X15778180Y-13054701D01*
X15825912Y-13050000D01*
X16449088Y-13050000D01*
X16496820Y-13054701D01*
G37*
G36*
X13096820Y-13054701D02*
G01*
X13138243Y-13067267D01*
X13176415Y-13087670D01*
X13209872Y-13115128D01*
X13237330Y-13148585D01*
X13257733Y-13186757D01*
X13270299Y-13228180D01*
X13275000Y-13275912D01*
X13275000Y-14324088D01*
X13270299Y-14371820D01*
X13257733Y-14413243D01*
X13237330Y-14451415D01*
X13209872Y-14484872D01*
X13176415Y-14512330D01*
X13138243Y-14532733D01*
X13096820Y-14545299D01*
X13049088Y-14550000D01*
X12425912Y-14550000D01*
X12378180Y-14545299D01*
X12336757Y-14532733D01*
X12298585Y-14512330D01*
X12265128Y-14484872D01*
X12237670Y-14451415D01*
X12217267Y-14413243D01*
X12204701Y-14371820D01*
X12200000Y-14324088D01*
X12200000Y-13275912D01*
X12204701Y-13228180D01*
X12217267Y-13186757D01*
X12237670Y-13148585D01*
X12265128Y-13115128D01*
X12298585Y-13087670D01*
X12336757Y-13067267D01*
X12378180Y-13054701D01*
X12425912Y-13050000D01*
X13049088Y-13050000D01*
X13096820Y-13054701D01*
G37*
G36*
X11221820Y-13054701D02*
G01*
X11263243Y-13067267D01*
X11301415Y-13087670D01*
X11334872Y-13115128D01*
X11362330Y-13148585D01*
X11382733Y-13186757D01*
X11395299Y-13228180D01*
X11400000Y-13275912D01*
X11400000Y-14324088D01*
X11395299Y-14371820D01*
X11382733Y-14413243D01*
X11362330Y-14451415D01*
X11334872Y-14484872D01*
X11301415Y-14512330D01*
X11263243Y-14532733D01*
X11221820Y-14545299D01*
X11174088Y-14550000D01*
X10550912Y-14550000D01*
X10503180Y-14545299D01*
X10461757Y-14532733D01*
X10423585Y-14512330D01*
X10390128Y-14484872D01*
X10362670Y-14451415D01*
X10342267Y-14413243D01*
X10329701Y-14371820D01*
X10325000Y-14324088D01*
X10325000Y-13275912D01*
X10329701Y-13228180D01*
X10342267Y-13186757D01*
X10362670Y-13148585D01*
X10390128Y-13115128D01*
X10423585Y-13087670D01*
X10461757Y-13067267D01*
X10503180Y-13054701D01*
X10550912Y-13050000D01*
X11174088Y-13050000D01*
X11221820Y-13054701D01*
G37*
G36*
X19450000Y-14500000D02*
G01*
X17150000Y-14500000D01*
X17150000Y-10500000D01*
X19450000Y-10500000D01*
X19450000Y-14500000D01*
G37*
G36*
X23250000Y-14500000D02*
G01*
X20950000Y-14500000D01*
X20950000Y-10500000D01*
X23250000Y-10500000D01*
X23250000Y-14500000D01*
G37*
G36*
X25171820Y-12029701D02*
G01*
X25213243Y-12042267D01*
X25251415Y-12062670D01*
X25284872Y-12090128D01*
X25312330Y-12123585D01*
X25332733Y-12161757D01*
X25345299Y-12203180D01*
X25350000Y-12250912D01*
X25350000Y-12874088D01*
X25345299Y-12921820D01*
X25332733Y-12963243D01*
X25312330Y-13001415D01*
X25284872Y-13034872D01*
X25251415Y-13062330D01*
X25213243Y-13082733D01*
X25171820Y-13095299D01*
X25124088Y-13100000D01*
X24075912Y-13100000D01*
X24028180Y-13095299D01*
X23986757Y-13082733D01*
X23948585Y-13062330D01*
X23915128Y-13034872D01*
X23887670Y-13001415D01*
X23867267Y-12963243D01*
X23854701Y-12921820D01*
X23850000Y-12874088D01*
X23850000Y-12250912D01*
X23854701Y-12203180D01*
X23867267Y-12161757D01*
X23887670Y-12123585D01*
X23915128Y-12090128D01*
X23948585Y-12062670D01*
X23986757Y-12042267D01*
X24028180Y-12029701D01*
X24075912Y-12025000D01*
X25124088Y-12025000D01*
X25171820Y-12029701D01*
G37*
G36*
X29871820Y-12029701D02*
G01*
X29913243Y-12042267D01*
X29951415Y-12062670D01*
X29984872Y-12090128D01*
X30012330Y-12123585D01*
X30032733Y-12161757D01*
X30045299Y-12203180D01*
X30050000Y-12250912D01*
X30050000Y-12874088D01*
X30045299Y-12921820D01*
X30032733Y-12963243D01*
X30012330Y-13001415D01*
X29984872Y-13034872D01*
X29951415Y-13062330D01*
X29913243Y-13082733D01*
X29871820Y-13095299D01*
X29824088Y-13100000D01*
X28775912Y-13100000D01*
X28728180Y-13095299D01*
X28686757Y-13082733D01*
X28648585Y-13062330D01*
X28615128Y-13034872D01*
X28587670Y-13001415D01*
X28567267Y-12963243D01*
X28554701Y-12921820D01*
X28550000Y-12874088D01*
X28550000Y-12250912D01*
X28554701Y-12203180D01*
X28567267Y-12161757D01*
X28587670Y-12123585D01*
X28615128Y-12090128D01*
X28648585Y-12062670D01*
X28686757Y-12042267D01*
X28728180Y-12029701D01*
X28775912Y-12025000D01*
X29824088Y-12025000D01*
X29871820Y-12029701D01*
G37*
G36*
X27071820Y-12029701D02*
G01*
X27113243Y-12042267D01*
X27151415Y-12062670D01*
X27184872Y-12090128D01*
X27212330Y-12123585D01*
X27232733Y-12161757D01*
X27245299Y-12203180D01*
X27250000Y-12250912D01*
X27250000Y-12874088D01*
X27245299Y-12921820D01*
X27232733Y-12963243D01*
X27212330Y-13001415D01*
X27184872Y-13034872D01*
X27151415Y-13062330D01*
X27113243Y-13082733D01*
X27071820Y-13095299D01*
X27024088Y-13100000D01*
X25975912Y-13100000D01*
X25928180Y-13095299D01*
X25886757Y-13082733D01*
X25848585Y-13062330D01*
X25815128Y-13034872D01*
X25787670Y-13001415D01*
X25767267Y-12963243D01*
X25754701Y-12921820D01*
X25750000Y-12874088D01*
X25750000Y-12250912D01*
X25754701Y-12203180D01*
X25767267Y-12161757D01*
X25787670Y-12123585D01*
X25815128Y-12090128D01*
X25848585Y-12062670D01*
X25886757Y-12042267D01*
X25928180Y-12029701D01*
X25975912Y-12025000D01*
X27024088Y-12025000D01*
X27071820Y-12029701D01*
G37*
G36*
X9466950Y-12029222D02*
G01*
X9503673Y-12040362D01*
X9537526Y-12058457D01*
X9567195Y-12082805D01*
X9591543Y-12112474D01*
X9609638Y-12146327D01*
X9620778Y-12183050D01*
X9625000Y-12225921D01*
X9625000Y-12799079D01*
X9620778Y-12841950D01*
X9609638Y-12878673D01*
X9591543Y-12912526D01*
X9567195Y-12942195D01*
X9537526Y-12966543D01*
X9503673Y-12984638D01*
X9466950Y-12995778D01*
X9424079Y-13000000D01*
X8775921Y-13000000D01*
X8733050Y-12995778D01*
X8696327Y-12984638D01*
X8662474Y-12966543D01*
X8632805Y-12942195D01*
X8608457Y-12912526D01*
X8590362Y-12878673D01*
X8579222Y-12841950D01*
X8575000Y-12799079D01*
X8575000Y-12225921D01*
X8579222Y-12183050D01*
X8590362Y-12146327D01*
X8608457Y-12112474D01*
X8632805Y-12082805D01*
X8662474Y-12058457D01*
X8696327Y-12040362D01*
X8733050Y-12029222D01*
X8775921Y-12025000D01*
X9424079Y-12025000D01*
X9466950Y-12029222D01*
G37*
G36*
X37706830Y-11211576D02*
G01*
X37857625Y-11257319D01*
X37996610Y-11331608D01*
X38118423Y-11431577D01*
X38218392Y-11553390D01*
X38292681Y-11692375D01*
X38338424Y-11843170D01*
X38353870Y-12000000D01*
X38338424Y-12156830D01*
X38292681Y-12307625D01*
X38218392Y-12446610D01*
X38118423Y-12568423D01*
X37996610Y-12668392D01*
X37857625Y-12742681D01*
X37706830Y-12788424D01*
X37589293Y-12800000D01*
X36010707Y-12800000D01*
X35893170Y-12788424D01*
X35742375Y-12742681D01*
X35603390Y-12668392D01*
X35481577Y-12568423D01*
X35381608Y-12446610D01*
X35307319Y-12307625D01*
X35261576Y-12156830D01*
X35246130Y-12000000D01*
X35261576Y-11843170D01*
X35307319Y-11692375D01*
X35381608Y-11553390D01*
X35481577Y-11431577D01*
X35603390Y-11331608D01*
X35742375Y-11257319D01*
X35893170Y-11211576D01*
X36010707Y-11200000D01*
X37589293Y-11200000D01*
X37706830Y-11211576D01*
G37*
G36*
X16650000Y-12350000D02*
G01*
X15650000Y-12350000D01*
X15650000Y-11050000D01*
X16650000Y-11050000D01*
X16650000Y-12350000D01*
G37*
G36*
X13350000Y-12350000D02*
G01*
X12350000Y-12350000D01*
X12350000Y-11050000D01*
X13350000Y-11050000D01*
X13350000Y-12350000D01*
G37*
G36*
X26716950Y-10579222D02*
G01*
X26753673Y-10590362D01*
X26787526Y-10608457D01*
X26817195Y-10632805D01*
X26841543Y-10662474D01*
X26859638Y-10696327D01*
X26870778Y-10733050D01*
X26875000Y-10775921D01*
X26875000Y-11424079D01*
X26870778Y-11466950D01*
X26859638Y-11503673D01*
X26841543Y-11537526D01*
X26817195Y-11567195D01*
X26787526Y-11591543D01*
X26753673Y-11609638D01*
X26716950Y-11620778D01*
X26674079Y-11625000D01*
X26100921Y-11625000D01*
X26058050Y-11620778D01*
X26021327Y-11609638D01*
X25987474Y-11591543D01*
X25957805Y-11567195D01*
X25933457Y-11537526D01*
X25915362Y-11503673D01*
X25904222Y-11466950D01*
X25900000Y-11424079D01*
X25900000Y-10775921D01*
X25904222Y-10733050D01*
X25915362Y-10696327D01*
X25933457Y-10662474D01*
X25957805Y-10632805D01*
X25987474Y-10608457D01*
X26021327Y-10590362D01*
X26058050Y-10579222D01*
X26100921Y-10575000D01*
X26674079Y-10575000D01*
X26716950Y-10579222D01*
G37*
G36*
X11616950Y-10579222D02*
G01*
X11653673Y-10590362D01*
X11687526Y-10608457D01*
X11717195Y-10632805D01*
X11741543Y-10662474D01*
X11759638Y-10696327D01*
X11770778Y-10733050D01*
X11775000Y-10775921D01*
X11775000Y-11424079D01*
X11770778Y-11466950D01*
X11759638Y-11503673D01*
X11741543Y-11537526D01*
X11717195Y-11567195D01*
X11687526Y-11591543D01*
X11653673Y-11609638D01*
X11616950Y-11620778D01*
X11574079Y-11625000D01*
X11000921Y-11625000D01*
X10958050Y-11620778D01*
X10921327Y-11609638D01*
X10887474Y-11591543D01*
X10857805Y-11567195D01*
X10833457Y-11537526D01*
X10815362Y-11503673D01*
X10804222Y-11466950D01*
X10800000Y-11424079D01*
X10800000Y-10775921D01*
X10804222Y-10733050D01*
X10815362Y-10696327D01*
X10833457Y-10662474D01*
X10857805Y-10632805D01*
X10887474Y-10608457D01*
X10921327Y-10590362D01*
X10958050Y-10579222D01*
X11000921Y-10575000D01*
X11574079Y-10575000D01*
X11616950Y-10579222D01*
G37*
G36*
X10041950Y-10579222D02*
G01*
X10078673Y-10590362D01*
X10112526Y-10608457D01*
X10142195Y-10632805D01*
X10166543Y-10662474D01*
X10184638Y-10696327D01*
X10195778Y-10733050D01*
X10200000Y-10775921D01*
X10200000Y-11424079D01*
X10195778Y-11466950D01*
X10184638Y-11503673D01*
X10166543Y-11537526D01*
X10142195Y-11567195D01*
X10112526Y-11591543D01*
X10078673Y-11609638D01*
X10041950Y-11620778D01*
X9999079Y-11625000D01*
X9425921Y-11625000D01*
X9383050Y-11620778D01*
X9346327Y-11609638D01*
X9312474Y-11591543D01*
X9282805Y-11567195D01*
X9258457Y-11537526D01*
X9240362Y-11503673D01*
X9229222Y-11466950D01*
X9225000Y-11424079D01*
X9225000Y-10775921D01*
X9229222Y-10733050D01*
X9240362Y-10696327D01*
X9258457Y-10662474D01*
X9282805Y-10632805D01*
X9312474Y-10608457D01*
X9346327Y-10590362D01*
X9383050Y-10579222D01*
X9425921Y-10575000D01*
X9999079Y-10575000D01*
X10041950Y-10579222D01*
G37*
G36*
X25141950Y-10579222D02*
G01*
X25178673Y-10590362D01*
X25212526Y-10608457D01*
X25242195Y-10632805D01*
X25266543Y-10662474D01*
X25284638Y-10696327D01*
X25295778Y-10733050D01*
X25300000Y-10775921D01*
X25300000Y-11424079D01*
X25295778Y-11466950D01*
X25284638Y-11503673D01*
X25266543Y-11537526D01*
X25242195Y-11567195D01*
X25212526Y-11591543D01*
X25178673Y-11609638D01*
X25141950Y-11620778D01*
X25099079Y-11625000D01*
X24525921Y-11625000D01*
X24483050Y-11620778D01*
X24446327Y-11609638D01*
X24412474Y-11591543D01*
X24382805Y-11567195D01*
X24358457Y-11537526D01*
X24340362Y-11503673D01*
X24329222Y-11466950D01*
X24325000Y-11424079D01*
X24325000Y-10775921D01*
X24329222Y-10733050D01*
X24340362Y-10696327D01*
X24358457Y-10662474D01*
X24382805Y-10632805D01*
X24412474Y-10608457D01*
X24446327Y-10590362D01*
X24483050Y-10579222D01*
X24525921Y-10575000D01*
X25099079Y-10575000D01*
X25141950Y-10579222D01*
G37*
G36*
X29916950Y-10479222D02*
G01*
X29953673Y-10490362D01*
X29987526Y-10508457D01*
X30017195Y-10532805D01*
X30041543Y-10562474D01*
X30059638Y-10596327D01*
X30070778Y-10633050D01*
X30075000Y-10675921D01*
X30075000Y-11324079D01*
X30070778Y-11366950D01*
X30059638Y-11403673D01*
X30041543Y-11437526D01*
X30017195Y-11467195D01*
X29987526Y-11491543D01*
X29953673Y-11509638D01*
X29916950Y-11520778D01*
X29874079Y-11525000D01*
X29300921Y-11525000D01*
X29258050Y-11520778D01*
X29221327Y-11509638D01*
X29187474Y-11491543D01*
X29157805Y-11467195D01*
X29133457Y-11437526D01*
X29115362Y-11403673D01*
X29104222Y-11366950D01*
X29100000Y-11324079D01*
X29100000Y-10675921D01*
X29104222Y-10633050D01*
X29115362Y-10596327D01*
X29133457Y-10562474D01*
X29157805Y-10532805D01*
X29187474Y-10508457D01*
X29221327Y-10490362D01*
X29258050Y-10479222D01*
X29300921Y-10475000D01*
X29874079Y-10475000D01*
X29916950Y-10479222D01*
G37*
G36*
X28341950Y-10479222D02*
G01*
X28378673Y-10490362D01*
X28412526Y-10508457D01*
X28442195Y-10532805D01*
X28466543Y-10562474D01*
X28484638Y-10596327D01*
X28495778Y-10633050D01*
X28500000Y-10675921D01*
X28500000Y-11324079D01*
X28495778Y-11366950D01*
X28484638Y-11403673D01*
X28466543Y-11437526D01*
X28442195Y-11467195D01*
X28412526Y-11491543D01*
X28378673Y-11509638D01*
X28341950Y-11520778D01*
X28299079Y-11525000D01*
X27725921Y-11525000D01*
X27683050Y-11520778D01*
X27646327Y-11509638D01*
X27612474Y-11491543D01*
X27582805Y-11467195D01*
X27558457Y-11437526D01*
X27540362Y-11403673D01*
X27529222Y-11366950D01*
X27525000Y-11324079D01*
X27525000Y-10675921D01*
X27529222Y-10633050D01*
X27540362Y-10596327D01*
X27558457Y-10562474D01*
X27582805Y-10532805D01*
X27612474Y-10508457D01*
X27646327Y-10490362D01*
X27683050Y-10479222D01*
X27725921Y-10475000D01*
X28299079Y-10475000D01*
X28341950Y-10479222D01*
G37*
G36*
X25062207Y-7221191D02*
G01*
X25259729Y-7247634D01*
X25511356Y-7333663D01*
X25741365Y-7467129D01*
X25940916Y-7642902D01*
X26102342Y-7854228D01*
X26148995Y-7949353D01*
X26219436Y-8092982D01*
X26219437Y-8092987D01*
X26287704Y-8350002D01*
X26304517Y-8615396D01*
X26269232Y-8878971D01*
X26183203Y-9130598D01*
X26049738Y-9360607D01*
X25873964Y-9560158D01*
X25662638Y-9721583D01*
X25423879Y-9838679D01*
X25166864Y-9906946D01*
X24967978Y-9919546D01*
X20937794Y-9778809D01*
X20740271Y-9752366D01*
X20488644Y-9666337D01*
X20258635Y-9532871D01*
X20059084Y-9357098D01*
X19897659Y-9145772D01*
X19780563Y-8907013D01*
X19712296Y-8649998D01*
X19695483Y-8384604D01*
X19730768Y-8121029D01*
X19816797Y-7869402D01*
X19950263Y-7639393D01*
X20126036Y-7439842D01*
X20337362Y-7278417D01*
X20337366Y-7278415D01*
X20576120Y-7161321D01*
X20634386Y-7145845D01*
X20833136Y-7093054D01*
X21032022Y-7080454D01*
X25062207Y-7221191D01*
G37*
G36*
X18087886Y-6507686D02*
G01*
X18145848Y-6519215D01*
X18236838Y-6556905D01*
X18318734Y-6611626D01*
X18388374Y-6681266D01*
X18443095Y-6763162D01*
X18480785Y-6854152D01*
X18500000Y-6950756D01*
X18500000Y-7049244D01*
X18480785Y-7145848D01*
X18443095Y-7236838D01*
X18388374Y-7318734D01*
X18318734Y-7388374D01*
X18236838Y-7443095D01*
X18145848Y-7480785D01*
X18087886Y-7492314D01*
X18049246Y-7500000D01*
X17950754Y-7500000D01*
X17912114Y-7492314D01*
X17854152Y-7480785D01*
X17763162Y-7443095D01*
X17681266Y-7388374D01*
X17611626Y-7318734D01*
X17556905Y-7236838D01*
X17519215Y-7145848D01*
X17500000Y-7049244D01*
X17500000Y-6950756D01*
X17519215Y-6854152D01*
X17556905Y-6763162D01*
X17611626Y-6681266D01*
X17681266Y-6611626D01*
X17763162Y-6556905D01*
X17854152Y-6519215D01*
X17912114Y-6507686D01*
X17950754Y-6500000D01*
X18049246Y-6500000D01*
X18087886Y-6507686D01*
G37*
M02*
