G04 #@! TF.GenerationSoftware,KiCad,Pcbnew,5.1.9-73d0e3b20d~88~ubuntu20.04.1*
G04 #@! TF.CreationDate,2021-06-04T11:55:54+03:00*
G04 #@! TF.ProjectId,differential-tweezer,64696666-6572-4656-9e74-69616c2d7477,rev?*
G04 #@! TF.SameCoordinates,Original*
G04 #@! TF.FileFunction,Legend,Bot*
G04 #@! TF.FilePolarity,Positive*
%FSLAX46Y46*%
G04 Gerber Fmt 4.6, Leading zero omitted, Abs format (unit mm)*
G04 Created by KiCad (PCBNEW 5.1.9-73d0e3b20d~88~ubuntu20.04.1) date 2021-06-04 11:55:54*
%MOMM*%
%LPD*%
G01*
G04 APERTURE LIST*
%ADD10C,0.150000*%
%ADD11C,0.120000*%
%ADD12C,2.800000*%
%ADD13C,2.000000*%
%ADD14C,0.600000*%
%ADD15C,4.200000*%
%ADD16C,2.500000*%
G04 APERTURE END LIST*
D10*
X17661904Y-15227380D02*
X17661904Y-14227380D01*
X17423809Y-14227380D01*
X17280952Y-14275000D01*
X17185714Y-14370238D01*
X17138095Y-14465476D01*
X17090476Y-14655952D01*
X17090476Y-14798809D01*
X17138095Y-14989285D01*
X17185714Y-15084523D01*
X17280952Y-15179761D01*
X17423809Y-15227380D01*
X17661904Y-15227380D01*
X16661904Y-14703571D02*
X16328571Y-14703571D01*
X16185714Y-15227380D02*
X16661904Y-15227380D01*
X16661904Y-14227380D01*
X16185714Y-14227380D01*
X15757142Y-15227380D02*
X15757142Y-14227380D01*
X15519047Y-14227380D01*
X15376190Y-14275000D01*
X15280952Y-14370238D01*
X15233333Y-14465476D01*
X15185714Y-14655952D01*
X15185714Y-14798809D01*
X15233333Y-14989285D01*
X15280952Y-15084523D01*
X15376190Y-15179761D01*
X15519047Y-15227380D01*
X15757142Y-15227380D01*
X14757142Y-15227380D02*
X14757142Y-14227380D01*
X14376190Y-14227380D01*
X14280952Y-14275000D01*
X14233333Y-14322619D01*
X14185714Y-14417857D01*
X14185714Y-14560714D01*
X14233333Y-14655952D01*
X14280952Y-14703571D01*
X14376190Y-14751190D01*
X14757142Y-14751190D01*
X13757142Y-14846428D02*
X12995238Y-14846428D01*
X11995238Y-15227380D02*
X12566666Y-15227380D01*
X12280952Y-15227380D02*
X12280952Y-14227380D01*
X12376190Y-14370238D01*
X12471428Y-14465476D01*
X12566666Y-14513095D01*
X11376190Y-14227380D02*
X11280952Y-14227380D01*
X11185714Y-14275000D01*
X11138095Y-14322619D01*
X11090476Y-14417857D01*
X11042857Y-14608333D01*
X11042857Y-14846428D01*
X11090476Y-15036904D01*
X11138095Y-15132142D01*
X11185714Y-15179761D01*
X11280952Y-15227380D01*
X11376190Y-15227380D01*
X11471428Y-15179761D01*
X11519047Y-15132142D01*
X11566666Y-15036904D01*
X11614285Y-14846428D01*
X11614285Y-14608333D01*
X11566666Y-14417857D01*
X11519047Y-14322619D01*
X11471428Y-14275000D01*
X11376190Y-14227380D01*
X10423809Y-14227380D02*
X10328571Y-14227380D01*
X10233333Y-14275000D01*
X10185714Y-14322619D01*
X10138095Y-14417857D01*
X10090476Y-14608333D01*
X10090476Y-14846428D01*
X10138095Y-15036904D01*
X10185714Y-15132142D01*
X10233333Y-15179761D01*
X10328571Y-15227380D01*
X10423809Y-15227380D01*
X10519047Y-15179761D01*
X10566666Y-15132142D01*
X10614285Y-15036904D01*
X10661904Y-14846428D01*
X10661904Y-14608333D01*
X10614285Y-14417857D01*
X10566666Y-14322619D01*
X10519047Y-14275000D01*
X10423809Y-14227380D01*
X18780952Y-16877380D02*
X19114285Y-16401190D01*
X19352380Y-16877380D02*
X19352380Y-15877380D01*
X18971428Y-15877380D01*
X18876190Y-15925000D01*
X18828571Y-15972619D01*
X18780952Y-16067857D01*
X18780952Y-16210714D01*
X18828571Y-16305952D01*
X18876190Y-16353571D01*
X18971428Y-16401190D01*
X19352380Y-16401190D01*
X17971428Y-16829761D02*
X18066666Y-16877380D01*
X18257142Y-16877380D01*
X18352380Y-16829761D01*
X18400000Y-16734523D01*
X18400000Y-16353571D01*
X18352380Y-16258333D01*
X18257142Y-16210714D01*
X18066666Y-16210714D01*
X17971428Y-16258333D01*
X17923809Y-16353571D01*
X17923809Y-16448809D01*
X18400000Y-16544047D01*
X17590476Y-16210714D02*
X17352380Y-16877380D01*
X17114285Y-16210714D01*
X16066666Y-15877380D02*
X15447619Y-15877380D01*
X15780952Y-16258333D01*
X15638095Y-16258333D01*
X15542857Y-16305952D01*
X15495238Y-16353571D01*
X15447619Y-16448809D01*
X15447619Y-16686904D01*
X15495238Y-16782142D01*
X15542857Y-16829761D01*
X15638095Y-16877380D01*
X15923809Y-16877380D01*
X16019047Y-16829761D01*
X16066666Y-16782142D01*
X14971428Y-16829761D02*
X14971428Y-16877380D01*
X15019047Y-16972619D01*
X15066666Y-17020238D01*
X13352380Y-15877380D02*
X13542857Y-15877380D01*
X13638095Y-15925000D01*
X13685714Y-15972619D01*
X13780952Y-16115476D01*
X13828571Y-16305952D01*
X13828571Y-16686904D01*
X13780952Y-16782142D01*
X13733333Y-16829761D01*
X13638095Y-16877380D01*
X13447619Y-16877380D01*
X13352380Y-16829761D01*
X13304761Y-16782142D01*
X13257142Y-16686904D01*
X13257142Y-16448809D01*
X13304761Y-16353571D01*
X13352380Y-16305952D01*
X13447619Y-16258333D01*
X13638095Y-16258333D01*
X13733333Y-16305952D01*
X13780952Y-16353571D01*
X13828571Y-16448809D01*
X12114285Y-15829761D02*
X12971428Y-17115476D01*
X11828571Y-15972619D02*
X11780952Y-15925000D01*
X11685714Y-15877380D01*
X11447619Y-15877380D01*
X11352380Y-15925000D01*
X11304761Y-15972619D01*
X11257142Y-16067857D01*
X11257142Y-16163095D01*
X11304761Y-16305952D01*
X11876190Y-16877380D01*
X11257142Y-16877380D01*
X10638095Y-15877380D02*
X10542857Y-15877380D01*
X10447619Y-15925000D01*
X10400000Y-15972619D01*
X10352380Y-16067857D01*
X10304761Y-16258333D01*
X10304761Y-16496428D01*
X10352380Y-16686904D01*
X10400000Y-16782142D01*
X10447619Y-16829761D01*
X10542857Y-16877380D01*
X10638095Y-16877380D01*
X10733333Y-16829761D01*
X10780952Y-16782142D01*
X10828571Y-16686904D01*
X10876190Y-16496428D01*
X10876190Y-16258333D01*
X10828571Y-16067857D01*
X10780952Y-15972619D01*
X10733333Y-15925000D01*
X10638095Y-15877380D01*
X9923809Y-15972619D02*
X9876190Y-15925000D01*
X9780952Y-15877380D01*
X9542857Y-15877380D01*
X9447619Y-15925000D01*
X9400000Y-15972619D01*
X9352380Y-16067857D01*
X9352380Y-16163095D01*
X9400000Y-16305952D01*
X9971428Y-16877380D01*
X9352380Y-16877380D01*
X8400000Y-16877380D02*
X8971428Y-16877380D01*
X8685714Y-16877380D02*
X8685714Y-15877380D01*
X8780952Y-16020238D01*
X8876190Y-16115476D01*
X8971428Y-16163095D01*
D11*
G04 #@! TO.C,TP4*
X15450000Y-25000000D02*
G75*
G03*
X15450000Y-25000000I-1450000J0D01*
G01*
G04 #@! TO.C,TP3*
X19450000Y-22000000D02*
G75*
G03*
X19450000Y-22000000I-1450000J0D01*
G01*
G04 #@! TO.C,TP2*
X11450000Y-22000000D02*
G75*
G03*
X11450000Y-22000000I-1450000J0D01*
G01*
G04 #@! TO.C,TP1*
X15450000Y-32000000D02*
G75*
G03*
X15450000Y-32000000I-1450000J0D01*
G01*
G04 #@! TO.C,TP4*
D10*
X11961904Y-24552380D02*
X11390476Y-24552380D01*
X11676190Y-25552380D02*
X11676190Y-24552380D01*
X11057142Y-25552380D02*
X11057142Y-24552380D01*
X10676190Y-24552380D01*
X10580952Y-24600000D01*
X10533333Y-24647619D01*
X10485714Y-24742857D01*
X10485714Y-24885714D01*
X10533333Y-24980952D01*
X10580952Y-25028571D01*
X10676190Y-25076190D01*
X11057142Y-25076190D01*
X9628571Y-24885714D02*
X9628571Y-25552380D01*
X9866666Y-24504761D02*
X10104761Y-25219047D01*
X9485714Y-25219047D01*
X11461904Y-25900000D02*
X11557142Y-25852380D01*
X11700000Y-25852380D01*
X11842857Y-25900000D01*
X11938095Y-25995238D01*
X11985714Y-26090476D01*
X12033333Y-26280952D01*
X12033333Y-26423809D01*
X11985714Y-26614285D01*
X11938095Y-26709523D01*
X11842857Y-26804761D01*
X11700000Y-26852380D01*
X11604761Y-26852380D01*
X11461904Y-26804761D01*
X11414285Y-26757142D01*
X11414285Y-26423809D01*
X11604761Y-26423809D01*
X10985714Y-26852380D02*
X10985714Y-25852380D01*
X10414285Y-26852380D01*
X10414285Y-25852380D01*
X9938095Y-26852380D02*
X9938095Y-25852380D01*
X9700000Y-25852380D01*
X9557142Y-25900000D01*
X9461904Y-25995238D01*
X9414285Y-26090476D01*
X9366666Y-26280952D01*
X9366666Y-26423809D01*
X9414285Y-26614285D01*
X9461904Y-26709523D01*
X9557142Y-26804761D01*
X9700000Y-26852380D01*
X9938095Y-26852380D01*
G04 #@! TO.C,TP3*
X19261904Y-17852380D02*
X18690476Y-17852380D01*
X18976190Y-18852380D02*
X18976190Y-17852380D01*
X18357142Y-18852380D02*
X18357142Y-17852380D01*
X17976190Y-17852380D01*
X17880952Y-17900000D01*
X17833333Y-17947619D01*
X17785714Y-18042857D01*
X17785714Y-18185714D01*
X17833333Y-18280952D01*
X17880952Y-18328571D01*
X17976190Y-18376190D01*
X18357142Y-18376190D01*
X17452380Y-17852380D02*
X16833333Y-17852380D01*
X17166666Y-18233333D01*
X17023809Y-18233333D01*
X16928571Y-18280952D01*
X16880952Y-18328571D01*
X16833333Y-18423809D01*
X16833333Y-18661904D01*
X16880952Y-18757142D01*
X16928571Y-18804761D01*
X17023809Y-18852380D01*
X17309523Y-18852380D01*
X17404761Y-18804761D01*
X17452380Y-18757142D01*
X19285714Y-19871428D02*
X18523809Y-19871428D01*
X17619047Y-19252380D02*
X17809523Y-19252380D01*
X17904761Y-19300000D01*
X17952380Y-19347619D01*
X18047619Y-19490476D01*
X18095238Y-19680952D01*
X18095238Y-20061904D01*
X18047619Y-20157142D01*
X18000000Y-20204761D01*
X17904761Y-20252380D01*
X17714285Y-20252380D01*
X17619047Y-20204761D01*
X17571428Y-20157142D01*
X17523809Y-20061904D01*
X17523809Y-19823809D01*
X17571428Y-19728571D01*
X17619047Y-19680952D01*
X17714285Y-19633333D01*
X17904761Y-19633333D01*
X18000000Y-19680952D01*
X18047619Y-19728571D01*
X18095238Y-19823809D01*
X17238095Y-19252380D02*
X16904761Y-20252380D01*
X16571428Y-19252380D01*
G04 #@! TO.C,TP2*
X11261904Y-17952380D02*
X10690476Y-17952380D01*
X10976190Y-18952380D02*
X10976190Y-17952380D01*
X10357142Y-18952380D02*
X10357142Y-17952380D01*
X9976190Y-17952380D01*
X9880952Y-18000000D01*
X9833333Y-18047619D01*
X9785714Y-18142857D01*
X9785714Y-18285714D01*
X9833333Y-18380952D01*
X9880952Y-18428571D01*
X9976190Y-18476190D01*
X10357142Y-18476190D01*
X9404761Y-18047619D02*
X9357142Y-18000000D01*
X9261904Y-17952380D01*
X9023809Y-17952380D01*
X8928571Y-18000000D01*
X8880952Y-18047619D01*
X8833333Y-18142857D01*
X8833333Y-18238095D01*
X8880952Y-18380952D01*
X9452380Y-18952380D01*
X8833333Y-18952380D01*
X11285714Y-19871428D02*
X10523809Y-19871428D01*
X10904761Y-20252380D02*
X10904761Y-19490476D01*
X9619047Y-19252380D02*
X9809523Y-19252380D01*
X9904761Y-19300000D01*
X9952380Y-19347619D01*
X10047619Y-19490476D01*
X10095238Y-19680952D01*
X10095238Y-20061904D01*
X10047619Y-20157142D01*
X10000000Y-20204761D01*
X9904761Y-20252380D01*
X9714285Y-20252380D01*
X9619047Y-20204761D01*
X9571428Y-20157142D01*
X9523809Y-20061904D01*
X9523809Y-19823809D01*
X9571428Y-19728571D01*
X9619047Y-19680952D01*
X9714285Y-19633333D01*
X9904761Y-19633333D01*
X10000000Y-19680952D01*
X10047619Y-19728571D01*
X10095238Y-19823809D01*
X9238095Y-19252380D02*
X8904761Y-20252380D01*
X8571428Y-19252380D01*
G04 #@! TO.C,TP1*
X12061904Y-32352380D02*
X11490476Y-32352380D01*
X11776190Y-33352380D02*
X11776190Y-32352380D01*
X11157142Y-33352380D02*
X11157142Y-32352380D01*
X10776190Y-32352380D01*
X10680952Y-32400000D01*
X10633333Y-32447619D01*
X10585714Y-32542857D01*
X10585714Y-32685714D01*
X10633333Y-32780952D01*
X10680952Y-32828571D01*
X10776190Y-32876190D01*
X11157142Y-32876190D01*
X9633333Y-33352380D02*
X10204761Y-33352380D01*
X9919047Y-33352380D02*
X9919047Y-32352380D01*
X10014285Y-32495238D01*
X10109523Y-32590476D01*
X10204761Y-32638095D01*
X12285714Y-34271428D02*
X11523809Y-34271428D01*
X11904761Y-34652380D02*
X11904761Y-33890476D01*
X10571428Y-33652380D02*
X11047619Y-33652380D01*
X11095238Y-34128571D01*
X11047619Y-34080952D01*
X10952380Y-34033333D01*
X10714285Y-34033333D01*
X10619047Y-34080952D01*
X10571428Y-34128571D01*
X10523809Y-34223809D01*
X10523809Y-34461904D01*
X10571428Y-34557142D01*
X10619047Y-34604761D01*
X10714285Y-34652380D01*
X10952380Y-34652380D01*
X11047619Y-34604761D01*
X11095238Y-34557142D01*
X10238095Y-33652380D02*
X9904761Y-34652380D01*
X9571428Y-33652380D01*
G04 #@! TD*
%LPC*%
D12*
G04 #@! TO.C,J8*
X7500000Y-1700000D03*
X7500000Y-6100000D03*
X11900000Y-6100000D03*
X11900000Y-1700000D03*
D13*
X9700000Y-3900000D03*
G04 #@! TD*
D14*
G04 #@! TO.C,J2*
X15600000Y-31300000D03*
X15600000Y-33400000D03*
X15600000Y-35500000D03*
X12400000Y-31300000D03*
X12400000Y-33400000D03*
X12400000Y-35500000D03*
G04 #@! TD*
G04 #@! TO.C,J4*
X25099794Y-10392150D03*
X24500617Y-10423551D03*
X25131196Y-10991327D03*
G04 #@! TD*
G04 #@! TO.C,J3*
X25249794Y-13192150D03*
X24650617Y-13223551D03*
X25281196Y-13791327D03*
G04 #@! TD*
G04 #@! TO.C,J6*
X2718804Y-13791327D03*
X3349383Y-13223551D03*
X2750206Y-13192150D03*
G04 #@! TD*
G04 #@! TO.C,J5*
X2868804Y-10991327D03*
X3499383Y-10423551D03*
X2900206Y-10392150D03*
G04 #@! TD*
D13*
G04 #@! TO.C,J1*
X14000000Y-21700000D03*
D14*
X15100000Y-28400000D03*
X12900000Y-28400000D03*
X12900000Y-24200000D03*
X12900000Y-26300000D03*
X15100000Y-26300000D03*
X15100000Y-24200000D03*
G04 #@! TD*
D12*
G04 #@! TO.C,J7*
X16100000Y-1700000D03*
X16100000Y-6100000D03*
X20500000Y-6100000D03*
X20500000Y-1700000D03*
D13*
X18300000Y-3900000D03*
G04 #@! TD*
D15*
G04 #@! TO.C,H1*
X19400000Y-34700000D03*
G04 #@! TD*
D16*
G04 #@! TO.C,TP4*
X14000000Y-25000000D03*
G04 #@! TD*
G04 #@! TO.C,TP3*
X18000000Y-22000000D03*
G04 #@! TD*
G04 #@! TO.C,TP2*
X10000000Y-22000000D03*
G04 #@! TD*
G04 #@! TO.C,TP1*
X14000000Y-32000000D03*
G04 #@! TD*
M02*
