G04 #@! TF.GenerationSoftware,KiCad,Pcbnew,5.1.5+dfsg1-2build2*
G04 #@! TF.CreationDate,2021-01-13T09:20:08+02:00*
G04 #@! TF.ProjectId,differential-tweezer,64696666-6572-4656-9e74-69616c2d7477,rev?*
G04 #@! TF.SameCoordinates,Original*
G04 #@! TF.FileFunction,Legend,Top*
G04 #@! TF.FilePolarity,Positive*
%FSLAX46Y46*%
G04 Gerber Fmt 4.6, Leading zero omitted, Abs format (unit mm)*
G04 Created by KiCad (PCBNEW 5.1.5+dfsg1-2build2) date 2021-01-13 09:20:08*
%MOMM*%
%LPD*%
G04 APERTURE LIST*
%ADD10C,0.120000*%
%ADD11C,0.150000*%
%ADD12C,0.160000*%
%ADD13C,0.100000*%
%ADD14C,2.700000*%
%ADD15C,0.350000*%
%ADD16C,1.000000*%
%ADD17R,0.950000X1.100000*%
%ADD18O,3.100000X1.600000*%
%ADD19C,1.600000*%
%ADD20O,1.800000X1.800000*%
%ADD21C,1.800000*%
%ADD22R,1.600000X1.700000*%
%ADD23R,1.300000X1.300000*%
%ADD24R,1.160000X0.750000*%
G04 APERTURE END LIST*
D10*
X25250000Y-11300000D02*
X25250000Y-11800000D01*
X25250000Y-11300000D02*
X25750000Y-11300000D01*
X25250000Y-14900000D02*
X25250000Y-14400000D01*
X25250000Y-14900000D02*
X25750000Y-14900000D01*
X30150000Y-11800000D02*
X29650000Y-11300000D01*
X30150000Y-14400000D02*
X29650000Y-14900000D01*
D11*
X36700000Y-17600000D02*
X36300000Y-18000000D01*
X36700000Y-16400000D02*
X36300000Y-16000000D01*
X34500000Y-16400000D02*
X36700000Y-16400000D01*
X36700000Y-15800000D02*
X37700000Y-15800000D01*
X36700000Y-17600000D02*
X36700000Y-15800000D01*
X36700000Y-18200000D02*
X37700000Y-18200000D01*
X36700000Y-17600000D02*
X36700000Y-18200000D01*
X34500000Y-17600000D02*
X36700000Y-17600000D01*
X33300000Y-17200000D02*
X33700000Y-17200000D01*
X33700000Y-16800000D02*
X33300000Y-16800000D01*
X33700000Y-17600000D02*
X34500000Y-17600000D01*
X33700000Y-16400000D02*
X34500000Y-16400000D01*
X33700000Y-17600000D02*
X33700000Y-16400000D01*
D10*
X20770000Y-18430000D02*
X20770000Y-17100000D01*
X22100000Y-18430000D02*
X20770000Y-18430000D01*
X23370000Y-18430000D02*
X23370000Y-15770000D01*
X23370000Y-15770000D02*
X31050000Y-15770000D01*
X23370000Y-18430000D02*
X31050000Y-18430000D01*
X31050000Y-18430000D02*
X31050000Y-15770000D01*
X13150000Y-16950000D02*
X13150000Y-16250000D01*
X12450000Y-16950000D02*
X13150000Y-16950000D01*
X8650000Y-13550000D02*
X8650000Y-14150000D01*
X11550000Y-13550000D02*
X8650000Y-13550000D01*
X8650000Y-16750000D02*
X8650000Y-16150000D01*
X11550000Y-16750000D02*
X8650000Y-16750000D01*
X12650000Y-15350000D02*
X12650000Y-14950000D01*
X13150000Y-20700000D02*
X13150000Y-20000000D01*
X12450000Y-20700000D02*
X13150000Y-20700000D01*
X8650000Y-17300000D02*
X8650000Y-17900000D01*
X11550000Y-17300000D02*
X8650000Y-17300000D01*
X8650000Y-20500000D02*
X8650000Y-19900000D01*
X11550000Y-20500000D02*
X8650000Y-20500000D01*
X12650000Y-19100000D02*
X12650000Y-18700000D01*
X24300000Y-20000000D02*
X24300000Y-20700000D01*
X25000000Y-20000000D02*
X24300000Y-20000000D01*
X28800000Y-23400000D02*
X28800000Y-22800000D01*
X25900000Y-23400000D02*
X28800000Y-23400000D01*
X28800000Y-20200000D02*
X28800000Y-20800000D01*
X25900000Y-20200000D02*
X28800000Y-20200000D01*
X24800000Y-21600000D02*
X24800000Y-22000000D01*
X17900000Y-11090000D02*
X15450000Y-11090000D01*
X16100000Y-14310000D02*
X17900000Y-14310000D01*
X19300000Y-15490000D02*
X16850000Y-15490000D01*
X17500000Y-18710000D02*
X19300000Y-18710000D01*
X17900000Y-19690000D02*
X15450000Y-19690000D01*
X16100000Y-22910000D02*
X17900000Y-22910000D01*
X13740000Y-12837221D02*
X13740000Y-13162779D01*
X14760000Y-12837221D02*
X14760000Y-13162779D01*
X20562779Y-12540000D02*
X20237221Y-12540000D01*
X20562779Y-13560000D02*
X20237221Y-13560000D01*
X20237221Y-12060000D02*
X20562779Y-12060000D01*
X20237221Y-11040000D02*
X20562779Y-11040000D01*
X31910000Y-13162779D02*
X31910000Y-12837221D01*
X30890000Y-13162779D02*
X30890000Y-12837221D01*
X30810000Y-21162779D02*
X30810000Y-20837221D01*
X29790000Y-21162779D02*
X29790000Y-20837221D01*
X14710000Y-21162779D02*
X14710000Y-20837221D01*
X13690000Y-21162779D02*
X13690000Y-20837221D01*
X20237221Y-21660000D02*
X20562779Y-21660000D01*
X20237221Y-20640000D02*
X20562779Y-20640000D01*
X20237221Y-23160000D02*
X20562779Y-23160000D01*
X20237221Y-22140000D02*
X20562779Y-22140000D01*
X8300000Y-9600000D02*
X8300000Y-10100000D01*
X8300000Y-9600000D02*
X8800000Y-9600000D01*
X8300000Y-13200000D02*
X8300000Y-12700000D01*
X8300000Y-13200000D02*
X8800000Y-13200000D01*
X13200000Y-10100000D02*
X12700000Y-9600000D01*
X13200000Y-12700000D02*
X12700000Y-13200000D01*
X20237221Y-15060000D02*
X20562779Y-15060000D01*
X20237221Y-14040000D02*
X20562779Y-14040000D01*
X8300000Y-20850000D02*
X8300000Y-21350000D01*
X8300000Y-20850000D02*
X8800000Y-20850000D01*
X8300000Y-24450000D02*
X8300000Y-23950000D01*
X8300000Y-24450000D02*
X8800000Y-24450000D01*
X13200000Y-21350000D02*
X12700000Y-20850000D01*
X13200000Y-23950000D02*
X12700000Y-24450000D01*
X20562779Y-19140000D02*
X20237221Y-19140000D01*
X20562779Y-20160000D02*
X20237221Y-20160000D01*
X23562779Y-12490000D02*
X23237221Y-12490000D01*
X23562779Y-13510000D02*
X23237221Y-13510000D01*
X17162779Y-23290000D02*
X16837221Y-23290000D01*
X17162779Y-24310000D02*
X16837221Y-24310000D01*
X14837221Y-15810000D02*
X15162779Y-15810000D01*
X14837221Y-14790000D02*
X15162779Y-14790000D01*
X23237221Y-15010000D02*
X23562779Y-15010000D01*
X23237221Y-13990000D02*
X23562779Y-13990000D01*
X15162779Y-18290000D02*
X14837221Y-18290000D01*
X15162779Y-19310000D02*
X14837221Y-19310000D01*
X17162779Y-9690000D02*
X16837221Y-9690000D01*
X17162779Y-10710000D02*
X16837221Y-10710000D01*
D12*
X14148005Y-10253304D02*
X14129059Y-10824418D01*
X14087195Y-10937378D01*
X14008521Y-11011000D01*
X13893035Y-11045286D01*
X13816886Y-11042759D01*
X14862575Y-10543822D02*
X14844892Y-11076862D01*
X14682308Y-10232912D02*
X14472990Y-10797711D01*
X14967956Y-10814131D01*
X14018954Y-22970987D02*
X14037900Y-23542101D01*
X14003615Y-23657587D01*
X13929993Y-23736262D01*
X13817033Y-23778125D01*
X13740884Y-23780651D01*
X14364149Y-23035768D02*
X14400960Y-22996430D01*
X14475846Y-22955830D01*
X14666217Y-22949515D01*
X14743629Y-22985063D01*
X14782966Y-23021874D01*
X14823567Y-23096760D01*
X14826093Y-23172908D01*
X14791808Y-23288394D01*
X14350073Y-23760442D01*
X14845039Y-23744023D01*
X27185714Y-10985714D02*
X27147619Y-11023809D01*
X27033333Y-11061904D01*
X26957142Y-11061904D01*
X26842857Y-11023809D01*
X26766666Y-10947619D01*
X26728571Y-10871428D01*
X26690476Y-10719047D01*
X26690476Y-10604761D01*
X26728571Y-10452380D01*
X26766666Y-10376190D01*
X26842857Y-10300000D01*
X26957142Y-10261904D01*
X27033333Y-10261904D01*
X27147619Y-10300000D01*
X27185714Y-10338095D01*
X27490476Y-10338095D02*
X27528571Y-10300000D01*
X27604761Y-10261904D01*
X27795238Y-10261904D01*
X27871428Y-10300000D01*
X27909523Y-10338095D01*
X27947619Y-10414285D01*
X27947619Y-10490476D01*
X27909523Y-10604761D01*
X27452380Y-11061904D01*
X27947619Y-11061904D01*
X28214285Y-10261904D02*
X28709523Y-10261904D01*
X28442857Y-10566666D01*
X28557142Y-10566666D01*
X28633333Y-10604761D01*
X28671428Y-10642857D01*
X28709523Y-10719047D01*
X28709523Y-10909523D01*
X28671428Y-10985714D01*
X28633333Y-11023809D01*
X28557142Y-11061904D01*
X28328571Y-11061904D01*
X28252380Y-11023809D01*
X28214285Y-10985714D01*
X32233333Y-18261904D02*
X32233333Y-18833333D01*
X32195238Y-18947619D01*
X32119047Y-19023809D01*
X32004761Y-19061904D01*
X31928571Y-19061904D01*
X32538095Y-18261904D02*
X33033333Y-18261904D01*
X32766666Y-18566666D01*
X32880952Y-18566666D01*
X32957142Y-18604761D01*
X32995238Y-18642857D01*
X33033333Y-18719047D01*
X33033333Y-18909523D01*
X32995238Y-18985714D01*
X32957142Y-19023809D01*
X32880952Y-19061904D01*
X32652380Y-19061904D01*
X32576190Y-19023809D01*
X32538095Y-18985714D01*
X33733333Y-11061904D02*
X33733333Y-11633333D01*
X33695238Y-11747619D01*
X33619047Y-11823809D01*
X33504761Y-11861904D01*
X33428571Y-11861904D01*
X34533333Y-11861904D02*
X34076190Y-11861904D01*
X34304761Y-11861904D02*
X34304761Y-11061904D01*
X34228571Y-11176190D01*
X34152380Y-11252380D01*
X34076190Y-11290476D01*
X30933333Y-14761904D02*
X30933333Y-15333333D01*
X30895238Y-15447619D01*
X30819047Y-15523809D01*
X30704761Y-15561904D01*
X30628571Y-15561904D01*
X31695238Y-14761904D02*
X31314285Y-14761904D01*
X31276190Y-15142857D01*
X31314285Y-15104761D01*
X31390476Y-15066666D01*
X31580952Y-15066666D01*
X31657142Y-15104761D01*
X31695238Y-15142857D01*
X31733333Y-15219047D01*
X31733333Y-15409523D01*
X31695238Y-15485714D01*
X31657142Y-15523809D01*
X31580952Y-15561904D01*
X31390476Y-15561904D01*
X31314285Y-15523809D01*
X31276190Y-15485714D01*
X8061904Y-15576190D02*
X7680952Y-15842857D01*
X8061904Y-16033333D02*
X7261904Y-16033333D01*
X7261904Y-15728571D01*
X7300000Y-15652380D01*
X7338095Y-15614285D01*
X7414285Y-15576190D01*
X7528571Y-15576190D01*
X7604761Y-15614285D01*
X7642857Y-15652380D01*
X7680952Y-15728571D01*
X7680952Y-16033333D01*
X7261904Y-15347619D02*
X8061904Y-15080952D01*
X7261904Y-14814285D01*
X7261904Y-14623809D02*
X7261904Y-14128571D01*
X7566666Y-14395238D01*
X7566666Y-14280952D01*
X7604761Y-14204761D01*
X7642857Y-14166666D01*
X7719047Y-14128571D01*
X7909523Y-14128571D01*
X7985714Y-14166666D01*
X8023809Y-14204761D01*
X8061904Y-14280952D01*
X8061904Y-14509523D01*
X8023809Y-14585714D01*
X7985714Y-14623809D01*
X8061904Y-19276190D02*
X7680952Y-19542857D01*
X8061904Y-19733333D02*
X7261904Y-19733333D01*
X7261904Y-19428571D01*
X7300000Y-19352380D01*
X7338095Y-19314285D01*
X7414285Y-19276190D01*
X7528571Y-19276190D01*
X7604761Y-19314285D01*
X7642857Y-19352380D01*
X7680952Y-19428571D01*
X7680952Y-19733333D01*
X7261904Y-19047619D02*
X8061904Y-18780952D01*
X7261904Y-18514285D01*
X7338095Y-18285714D02*
X7300000Y-18247619D01*
X7261904Y-18171428D01*
X7261904Y-17980952D01*
X7300000Y-17904761D01*
X7338095Y-17866666D01*
X7414285Y-17828571D01*
X7490476Y-17828571D01*
X7604761Y-17866666D01*
X8061904Y-18323809D01*
X8061904Y-17828571D01*
X30023809Y-23561904D02*
X29757142Y-23180952D01*
X29566666Y-23561904D02*
X29566666Y-22761904D01*
X29871428Y-22761904D01*
X29947619Y-22800000D01*
X29985714Y-22838095D01*
X30023809Y-22914285D01*
X30023809Y-23028571D01*
X29985714Y-23104761D01*
X29947619Y-23142857D01*
X29871428Y-23180952D01*
X29566666Y-23180952D01*
X30252380Y-22761904D02*
X30519047Y-23561904D01*
X30785714Y-22761904D01*
X31471428Y-23561904D02*
X31014285Y-23561904D01*
X31242857Y-23561904D02*
X31242857Y-22761904D01*
X31166666Y-22876190D01*
X31090476Y-22952380D01*
X31014285Y-22990476D01*
X16690476Y-12361904D02*
X16690476Y-13009523D01*
X16728571Y-13085714D01*
X16766666Y-13123809D01*
X16842857Y-13161904D01*
X16995238Y-13161904D01*
X17071428Y-13123809D01*
X17109523Y-13085714D01*
X17147619Y-13009523D01*
X17147619Y-12361904D01*
X17871428Y-12628571D02*
X17871428Y-13161904D01*
X17680952Y-12323809D02*
X17490476Y-12895238D01*
X17985714Y-12895238D01*
X18190476Y-16661904D02*
X18190476Y-17309523D01*
X18228571Y-17385714D01*
X18266666Y-17423809D01*
X18342857Y-17461904D01*
X18495238Y-17461904D01*
X18571428Y-17423809D01*
X18609523Y-17385714D01*
X18647619Y-17309523D01*
X18647619Y-16661904D01*
X18952380Y-16661904D02*
X19447619Y-16661904D01*
X19180952Y-16966666D01*
X19295238Y-16966666D01*
X19371428Y-17004761D01*
X19409523Y-17042857D01*
X19447619Y-17119047D01*
X19447619Y-17309523D01*
X19409523Y-17385714D01*
X19371428Y-17423809D01*
X19295238Y-17461904D01*
X19066666Y-17461904D01*
X18990476Y-17423809D01*
X18952380Y-17385714D01*
X16690476Y-20861904D02*
X16690476Y-21509523D01*
X16728571Y-21585714D01*
X16766666Y-21623809D01*
X16842857Y-21661904D01*
X16995238Y-21661904D01*
X17071428Y-21623809D01*
X17109523Y-21585714D01*
X17147619Y-21509523D01*
X17147619Y-20861904D01*
X17490476Y-20938095D02*
X17528571Y-20900000D01*
X17604761Y-20861904D01*
X17795238Y-20861904D01*
X17871428Y-20900000D01*
X17909523Y-20938095D01*
X17947619Y-21014285D01*
X17947619Y-21090476D01*
X17909523Y-21204761D01*
X17452380Y-21661904D01*
X17947619Y-21661904D01*
X19885714Y-10811904D02*
X19619047Y-10430952D01*
X19428571Y-10811904D02*
X19428571Y-10011904D01*
X19733333Y-10011904D01*
X19809523Y-10050000D01*
X19847619Y-10088095D01*
X19885714Y-10164285D01*
X19885714Y-10278571D01*
X19847619Y-10354761D01*
X19809523Y-10392857D01*
X19733333Y-10430952D01*
X19428571Y-10430952D01*
X20647619Y-10811904D02*
X20190476Y-10811904D01*
X20419047Y-10811904D02*
X20419047Y-10011904D01*
X20342857Y-10126190D01*
X20266666Y-10202380D01*
X20190476Y-10240476D01*
X20914285Y-10011904D02*
X21409523Y-10011904D01*
X21142857Y-10316666D01*
X21257142Y-10316666D01*
X21333333Y-10354761D01*
X21371428Y-10392857D01*
X21409523Y-10469047D01*
X21409523Y-10659523D01*
X21371428Y-10735714D01*
X21333333Y-10773809D01*
X21257142Y-10811904D01*
X21028571Y-10811904D01*
X20952380Y-10773809D01*
X20914285Y-10735714D01*
X33161904Y-13514285D02*
X32780952Y-13780952D01*
X33161904Y-13971428D02*
X32361904Y-13971428D01*
X32361904Y-13666666D01*
X32400000Y-13590476D01*
X32438095Y-13552380D01*
X32514285Y-13514285D01*
X32628571Y-13514285D01*
X32704761Y-13552380D01*
X32742857Y-13590476D01*
X32780952Y-13666666D01*
X32780952Y-13971428D01*
X33161904Y-12752380D02*
X33161904Y-13209523D01*
X33161904Y-12980952D02*
X32361904Y-12980952D01*
X32476190Y-13057142D01*
X32552380Y-13133333D01*
X32590476Y-13209523D01*
X32438095Y-12447619D02*
X32400000Y-12409523D01*
X32361904Y-12333333D01*
X32361904Y-12142857D01*
X32400000Y-12066666D01*
X32438095Y-12028571D01*
X32514285Y-11990476D01*
X32590476Y-11990476D01*
X32704761Y-12028571D01*
X33161904Y-12485714D01*
X33161904Y-11990476D01*
X32061904Y-21514285D02*
X31680952Y-21780952D01*
X32061904Y-21971428D02*
X31261904Y-21971428D01*
X31261904Y-21666666D01*
X31300000Y-21590476D01*
X31338095Y-21552380D01*
X31414285Y-21514285D01*
X31528571Y-21514285D01*
X31604761Y-21552380D01*
X31642857Y-21590476D01*
X31680952Y-21666666D01*
X31680952Y-21971428D01*
X32061904Y-20752380D02*
X32061904Y-21209523D01*
X32061904Y-20980952D02*
X31261904Y-20980952D01*
X31376190Y-21057142D01*
X31452380Y-21133333D01*
X31490476Y-21209523D01*
X31261904Y-20257142D02*
X31261904Y-20180952D01*
X31300000Y-20104761D01*
X31338095Y-20066666D01*
X31414285Y-20028571D01*
X31566666Y-19990476D01*
X31757142Y-19990476D01*
X31909523Y-20028571D01*
X31985714Y-20066666D01*
X32023809Y-20104761D01*
X32061904Y-20180952D01*
X32061904Y-20257142D01*
X32023809Y-20333333D01*
X31985714Y-20371428D01*
X31909523Y-20409523D01*
X31757142Y-20447619D01*
X31566666Y-20447619D01*
X31414285Y-20409523D01*
X31338095Y-20371428D01*
X31300000Y-20333333D01*
X31261904Y-20257142D01*
X22566666Y-21561904D02*
X22300000Y-21180952D01*
X22109523Y-21561904D02*
X22109523Y-20761904D01*
X22414285Y-20761904D01*
X22490476Y-20800000D01*
X22528571Y-20838095D01*
X22566666Y-20914285D01*
X22566666Y-21028571D01*
X22528571Y-21104761D01*
X22490476Y-21142857D01*
X22414285Y-21180952D01*
X22109523Y-21180952D01*
X23023809Y-21104761D02*
X22947619Y-21066666D01*
X22909523Y-21028571D01*
X22871428Y-20952380D01*
X22871428Y-20914285D01*
X22909523Y-20838095D01*
X22947619Y-20800000D01*
X23023809Y-20761904D01*
X23176190Y-20761904D01*
X23252380Y-20800000D01*
X23290476Y-20838095D01*
X23328571Y-20914285D01*
X23328571Y-20952380D01*
X23290476Y-21028571D01*
X23252380Y-21066666D01*
X23176190Y-21104761D01*
X23023809Y-21104761D01*
X22947619Y-21142857D01*
X22909523Y-21180952D01*
X22871428Y-21257142D01*
X22871428Y-21409523D01*
X22909523Y-21485714D01*
X22947619Y-21523809D01*
X23023809Y-21561904D01*
X23176190Y-21561904D01*
X23252380Y-21523809D01*
X23290476Y-21485714D01*
X23328571Y-21409523D01*
X23328571Y-21257142D01*
X23290476Y-21180952D01*
X23252380Y-21142857D01*
X23176190Y-21104761D01*
X22566666Y-22961904D02*
X22300000Y-22580952D01*
X22109523Y-22961904D02*
X22109523Y-22161904D01*
X22414285Y-22161904D01*
X22490476Y-22200000D01*
X22528571Y-22238095D01*
X22566666Y-22314285D01*
X22566666Y-22428571D01*
X22528571Y-22504761D01*
X22490476Y-22542857D01*
X22414285Y-22580952D01*
X22109523Y-22580952D01*
X22833333Y-22161904D02*
X23366666Y-22161904D01*
X23023809Y-22961904D01*
X7985714Y-11914285D02*
X8023809Y-11952380D01*
X8061904Y-12066666D01*
X8061904Y-12142857D01*
X8023809Y-12257142D01*
X7947619Y-12333333D01*
X7871428Y-12371428D01*
X7719047Y-12409523D01*
X7604761Y-12409523D01*
X7452380Y-12371428D01*
X7376190Y-12333333D01*
X7300000Y-12257142D01*
X7261904Y-12142857D01*
X7261904Y-12066666D01*
X7300000Y-11952380D01*
X7338095Y-11914285D01*
X7338095Y-11609523D02*
X7300000Y-11571428D01*
X7261904Y-11495238D01*
X7261904Y-11304761D01*
X7300000Y-11228571D01*
X7338095Y-11190476D01*
X7414285Y-11152380D01*
X7490476Y-11152380D01*
X7604761Y-11190476D01*
X8061904Y-11647619D01*
X8061904Y-11152380D01*
X7338095Y-10847619D02*
X7300000Y-10809523D01*
X7261904Y-10733333D01*
X7261904Y-10542857D01*
X7300000Y-10466666D01*
X7338095Y-10428571D01*
X7414285Y-10390476D01*
X7490476Y-10390476D01*
X7604761Y-10428571D01*
X8061904Y-10885714D01*
X8061904Y-10390476D01*
X7985714Y-23114285D02*
X8023809Y-23152380D01*
X8061904Y-23266666D01*
X8061904Y-23342857D01*
X8023809Y-23457142D01*
X7947619Y-23533333D01*
X7871428Y-23571428D01*
X7719047Y-23609523D01*
X7604761Y-23609523D01*
X7452380Y-23571428D01*
X7376190Y-23533333D01*
X7300000Y-23457142D01*
X7261904Y-23342857D01*
X7261904Y-23266666D01*
X7300000Y-23152380D01*
X7338095Y-23114285D01*
X7338095Y-22809523D02*
X7300000Y-22771428D01*
X7261904Y-22695238D01*
X7261904Y-22504761D01*
X7300000Y-22428571D01*
X7338095Y-22390476D01*
X7414285Y-22352380D01*
X7490476Y-22352380D01*
X7604761Y-22390476D01*
X8061904Y-22847619D01*
X8061904Y-22352380D01*
X7261904Y-21857142D02*
X7261904Y-21780952D01*
X7300000Y-21704761D01*
X7338095Y-21666666D01*
X7414285Y-21628571D01*
X7566666Y-21590476D01*
X7757142Y-21590476D01*
X7909523Y-21628571D01*
X7985714Y-21666666D01*
X8023809Y-21704761D01*
X8061904Y-21780952D01*
X8061904Y-21857142D01*
X8023809Y-21933333D01*
X7985714Y-21971428D01*
X7909523Y-22009523D01*
X7757142Y-22047619D01*
X7566666Y-22047619D01*
X7414285Y-22009523D01*
X7338095Y-21971428D01*
X7300000Y-21933333D01*
X7261904Y-21857142D01*
X22585714Y-19985714D02*
X22547619Y-20023809D01*
X22433333Y-20061904D01*
X22357142Y-20061904D01*
X22242857Y-20023809D01*
X22166666Y-19947619D01*
X22128571Y-19871428D01*
X22090476Y-19719047D01*
X22090476Y-19604761D01*
X22128571Y-19452380D01*
X22166666Y-19376190D01*
X22242857Y-19300000D01*
X22357142Y-19261904D01*
X22433333Y-19261904D01*
X22547619Y-19300000D01*
X22585714Y-19338095D01*
X23347619Y-20061904D02*
X22890476Y-20061904D01*
X23119047Y-20061904D02*
X23119047Y-19261904D01*
X23042857Y-19376190D01*
X22966666Y-19452380D01*
X22890476Y-19490476D01*
X23728571Y-20061904D02*
X23880952Y-20061904D01*
X23957142Y-20023809D01*
X23995238Y-19985714D01*
X24071428Y-19871428D01*
X24109523Y-19719047D01*
X24109523Y-19414285D01*
X24071428Y-19338095D01*
X24033333Y-19300000D01*
X23957142Y-19261904D01*
X23804761Y-19261904D01*
X23728571Y-19300000D01*
X23690476Y-19338095D01*
X23652380Y-19414285D01*
X23652380Y-19604761D01*
X23690476Y-19680952D01*
X23728571Y-19719047D01*
X23804761Y-19757142D01*
X23957142Y-19757142D01*
X24033333Y-19719047D01*
X24071428Y-19680952D01*
X24109523Y-19604761D01*
X22885714Y-11985714D02*
X22847619Y-12023809D01*
X22733333Y-12061904D01*
X22657142Y-12061904D01*
X22542857Y-12023809D01*
X22466666Y-11947619D01*
X22428571Y-11871428D01*
X22390476Y-11719047D01*
X22390476Y-11604761D01*
X22428571Y-11452380D01*
X22466666Y-11376190D01*
X22542857Y-11300000D01*
X22657142Y-11261904D01*
X22733333Y-11261904D01*
X22847619Y-11300000D01*
X22885714Y-11338095D01*
X23647619Y-12061904D02*
X23190476Y-12061904D01*
X23419047Y-12061904D02*
X23419047Y-11261904D01*
X23342857Y-11376190D01*
X23266666Y-11452380D01*
X23190476Y-11490476D01*
X24371428Y-11261904D02*
X23990476Y-11261904D01*
X23952380Y-11642857D01*
X23990476Y-11604761D01*
X24066666Y-11566666D01*
X24257142Y-11566666D01*
X24333333Y-11604761D01*
X24371428Y-11642857D01*
X24409523Y-11719047D01*
X24409523Y-11909523D01*
X24371428Y-11985714D01*
X24333333Y-12023809D01*
X24257142Y-12061904D01*
X24066666Y-12061904D01*
X23990476Y-12023809D01*
X23952380Y-11985714D01*
X14485714Y-16885714D02*
X14447619Y-16923809D01*
X14333333Y-16961904D01*
X14257142Y-16961904D01*
X14142857Y-16923809D01*
X14066666Y-16847619D01*
X14028571Y-16771428D01*
X13990476Y-16619047D01*
X13990476Y-16504761D01*
X14028571Y-16352380D01*
X14066666Y-16276190D01*
X14142857Y-16200000D01*
X14257142Y-16161904D01*
X14333333Y-16161904D01*
X14447619Y-16200000D01*
X14485714Y-16238095D01*
X15247619Y-16961904D02*
X14790476Y-16961904D01*
X15019047Y-16961904D02*
X15019047Y-16161904D01*
X14942857Y-16276190D01*
X14866666Y-16352380D01*
X14790476Y-16390476D01*
X15514285Y-16161904D02*
X16009523Y-16161904D01*
X15742857Y-16466666D01*
X15857142Y-16466666D01*
X15933333Y-16504761D01*
X15971428Y-16542857D01*
X16009523Y-16619047D01*
X16009523Y-16809523D01*
X15971428Y-16885714D01*
X15933333Y-16923809D01*
X15857142Y-16961904D01*
X15628571Y-16961904D01*
X15552380Y-16923809D01*
X15514285Y-16885714D01*
X14866666Y-17885714D02*
X14828571Y-17923809D01*
X14714285Y-17961904D01*
X14638095Y-17961904D01*
X14523809Y-17923809D01*
X14447619Y-17847619D01*
X14409523Y-17771428D01*
X14371428Y-17619047D01*
X14371428Y-17504761D01*
X14409523Y-17352380D01*
X14447619Y-17276190D01*
X14523809Y-17200000D01*
X14638095Y-17161904D01*
X14714285Y-17161904D01*
X14828571Y-17200000D01*
X14866666Y-17238095D01*
X15552380Y-17161904D02*
X15400000Y-17161904D01*
X15323809Y-17200000D01*
X15285714Y-17238095D01*
X15209523Y-17352380D01*
X15171428Y-17504761D01*
X15171428Y-17809523D01*
X15209523Y-17885714D01*
X15247619Y-17923809D01*
X15323809Y-17961904D01*
X15476190Y-17961904D01*
X15552380Y-17923809D01*
X15590476Y-17885714D01*
X15628571Y-17809523D01*
X15628571Y-17619047D01*
X15590476Y-17542857D01*
X15552380Y-17504761D01*
X15476190Y-17466666D01*
X15323809Y-17466666D01*
X15247619Y-17504761D01*
X15209523Y-17542857D01*
X15171428Y-17619047D01*
X16866666Y-9185714D02*
X16828571Y-9223809D01*
X16714285Y-9261904D01*
X16638095Y-9261904D01*
X16523809Y-9223809D01*
X16447619Y-9147619D01*
X16409523Y-9071428D01*
X16371428Y-8919047D01*
X16371428Y-8804761D01*
X16409523Y-8652380D01*
X16447619Y-8576190D01*
X16523809Y-8500000D01*
X16638095Y-8461904D01*
X16714285Y-8461904D01*
X16828571Y-8500000D01*
X16866666Y-8538095D01*
X17590476Y-8461904D02*
X17209523Y-8461904D01*
X17171428Y-8842857D01*
X17209523Y-8804761D01*
X17285714Y-8766666D01*
X17476190Y-8766666D01*
X17552380Y-8804761D01*
X17590476Y-8842857D01*
X17628571Y-8919047D01*
X17628571Y-9109523D01*
X17590476Y-9185714D01*
X17552380Y-9223809D01*
X17476190Y-9261904D01*
X17285714Y-9261904D01*
X17209523Y-9223809D01*
X17171428Y-9185714D01*
%LPC*%
D13*
G36*
X16450000Y-5800000D02*
G01*
X16350000Y-7950000D01*
X11450000Y-7800000D01*
X11550000Y-5600000D01*
X16450000Y-5800000D01*
G37*
X16450000Y-5800000D02*
X16350000Y-7950000D01*
X11450000Y-7800000D01*
X11550000Y-5600000D01*
X16450000Y-5800000D01*
G36*
X16450000Y-28200000D02*
G01*
X11550000Y-28400000D01*
X11450000Y-26200000D01*
X16350000Y-26050000D01*
X16450000Y-28200000D01*
G37*
X16450000Y-28200000D02*
X11550000Y-28400000D01*
X11450000Y-26200000D01*
X16350000Y-26050000D01*
X16450000Y-28200000D01*
G36*
X38100000Y-6500000D02*
G01*
X38500000Y-6600000D01*
X38800000Y-6900000D01*
X39000000Y-7200000D01*
X39000000Y-7700000D01*
X38800000Y-8100000D01*
X38500000Y-8400000D01*
X38100000Y-8500000D01*
X34900000Y-8400000D01*
X34600000Y-8600000D01*
X34500000Y-8900000D01*
X34600000Y-9200000D01*
X34900000Y-9400000D01*
X38200000Y-9500000D01*
X38600000Y-9700000D01*
X38900000Y-10000000D01*
X39000000Y-10300000D01*
X39000000Y-10600000D01*
X34000000Y-10500000D01*
X34100000Y-6400000D01*
X38100000Y-6500000D01*
G37*
X38100000Y-6500000D02*
X38500000Y-6600000D01*
X38800000Y-6900000D01*
X39000000Y-7200000D01*
X39000000Y-7700000D01*
X38800000Y-8100000D01*
X38500000Y-8400000D01*
X38100000Y-8500000D01*
X34900000Y-8400000D01*
X34600000Y-8600000D01*
X34500000Y-8900000D01*
X34600000Y-9200000D01*
X34900000Y-9400000D01*
X38200000Y-9500000D01*
X38600000Y-9700000D01*
X38900000Y-10000000D01*
X39000000Y-10300000D01*
X39000000Y-10600000D01*
X34000000Y-10500000D01*
X34100000Y-6400000D01*
X38100000Y-6500000D01*
G36*
X39000000Y-23700000D02*
G01*
X38900000Y-24000000D01*
X38600000Y-24300000D01*
X38200000Y-24500000D01*
X34900000Y-24600000D01*
X34600000Y-24800000D01*
X34500000Y-25100000D01*
X34600000Y-25400000D01*
X34900000Y-25600000D01*
X38100000Y-25500000D01*
X38500000Y-25600000D01*
X38800000Y-25900000D01*
X39000000Y-26300000D01*
X39000000Y-26800000D01*
X38800000Y-27100000D01*
X38500000Y-27400000D01*
X38100000Y-27500000D01*
X34100000Y-27600000D01*
X34000000Y-23500000D01*
X39000000Y-23400000D01*
X39000000Y-23700000D01*
G37*
X39000000Y-23700000D02*
X38900000Y-24000000D01*
X38600000Y-24300000D01*
X38200000Y-24500000D01*
X34900000Y-24600000D01*
X34600000Y-24800000D01*
X34500000Y-25100000D01*
X34600000Y-25400000D01*
X34900000Y-25600000D01*
X38100000Y-25500000D01*
X38500000Y-25600000D01*
X38800000Y-25900000D01*
X39000000Y-26300000D01*
X39000000Y-26800000D01*
X38800000Y-27100000D01*
X38500000Y-27400000D01*
X38100000Y-27500000D01*
X34100000Y-27600000D01*
X34000000Y-23500000D01*
X39000000Y-23400000D01*
X39000000Y-23700000D01*
G36*
X11800000Y-5600000D02*
G01*
X11600000Y-9700000D01*
X7000000Y-9600000D01*
X7100000Y-9100000D01*
X7400000Y-8700000D01*
X8000000Y-8500000D01*
X11100000Y-8600000D01*
X11400000Y-8400000D01*
X11400000Y-8100000D01*
X11300000Y-7700000D01*
X10800000Y-7600000D01*
X7900000Y-7500000D01*
X7400000Y-7300000D01*
X7100000Y-7000000D01*
X7000000Y-6400000D01*
X7300000Y-5800000D01*
X7900000Y-5500000D01*
X11800000Y-5600000D01*
G37*
X11800000Y-5600000D02*
X11600000Y-9700000D01*
X7000000Y-9600000D01*
X7100000Y-9100000D01*
X7400000Y-8700000D01*
X8000000Y-8500000D01*
X11100000Y-8600000D01*
X11400000Y-8400000D01*
X11400000Y-8100000D01*
X11300000Y-7700000D01*
X10800000Y-7600000D01*
X7900000Y-7500000D01*
X7400000Y-7300000D01*
X7100000Y-7000000D01*
X7000000Y-6400000D01*
X7300000Y-5800000D01*
X7900000Y-5500000D01*
X11800000Y-5600000D01*
G36*
X11800000Y-28400000D02*
G01*
X7900000Y-28500000D01*
X7300000Y-28200000D01*
X7000000Y-27600000D01*
X7100000Y-27000000D01*
X7400000Y-26700000D01*
X7900000Y-26500000D01*
X10800000Y-26400000D01*
X11300000Y-26300000D01*
X11400000Y-25900000D01*
X11400000Y-25600000D01*
X11100000Y-25400000D01*
X8000000Y-25500000D01*
X7400000Y-25300000D01*
X7100000Y-24900000D01*
X7000000Y-24400000D01*
X11600000Y-24300000D01*
X11800000Y-28400000D01*
G37*
X11800000Y-28400000D02*
X7900000Y-28500000D01*
X7300000Y-28200000D01*
X7000000Y-27600000D01*
X7100000Y-27000000D01*
X7400000Y-26700000D01*
X7900000Y-26500000D01*
X10800000Y-26400000D01*
X11300000Y-26300000D01*
X11400000Y-25900000D01*
X11400000Y-25600000D01*
X11100000Y-25400000D01*
X8000000Y-25500000D01*
X7400000Y-25300000D01*
X7100000Y-24900000D01*
X7000000Y-24400000D01*
X11600000Y-24300000D01*
X11800000Y-28400000D01*
D14*
X21051188Y-8431946D02*
X24948812Y-8568054D01*
X21151188Y-25568054D02*
X25048812Y-25431946D01*
D15*
G36*
X12224328Y-9848170D02*
G01*
X12277376Y-8249049D01*
X15375672Y-8351830D01*
X15322624Y-9950951D01*
X12224328Y-9848170D01*
G37*
G36*
X12277376Y-25750951D02*
G01*
X12224328Y-24151830D01*
X15322624Y-24049049D01*
X15375672Y-25648170D01*
X12277376Y-25750951D01*
G37*
D16*
X33500000Y-22500000D03*
X18000000Y-7000000D03*
D17*
X25625000Y-13100000D03*
X29775000Y-13100000D03*
D18*
X35100000Y-18800000D03*
X35100000Y-15200000D03*
D19*
X32500000Y-17000000D03*
D18*
X36800000Y-12000000D03*
D20*
X29720000Y-17100000D03*
X27180000Y-17100000D03*
X24640000Y-17100000D03*
D21*
X22100000Y-17100000D03*
D22*
X9100000Y-15150000D03*
D23*
X12350000Y-14150000D03*
X12350000Y-16150000D03*
D22*
X9100000Y-18900000D03*
D23*
X12350000Y-17900000D03*
X12350000Y-19900000D03*
D22*
X28350000Y-21800000D03*
D23*
X25100000Y-22800000D03*
X25100000Y-20800000D03*
D24*
X18100000Y-11750000D03*
X18100000Y-13650000D03*
X15900000Y-13650000D03*
X15900000Y-12700000D03*
X15900000Y-11750000D03*
X19500000Y-16150000D03*
X19500000Y-18050000D03*
X17300000Y-18050000D03*
X17300000Y-17100000D03*
X17300000Y-16150000D03*
X18100000Y-20350000D03*
X18100000Y-22250000D03*
X15900000Y-22250000D03*
X15900000Y-21300000D03*
X15900000Y-20350000D03*
D15*
G36*
X14555142Y-13301174D02*
G01*
X14578803Y-13304684D01*
X14602007Y-13310496D01*
X14624529Y-13318554D01*
X14646153Y-13328782D01*
X14666670Y-13341079D01*
X14685883Y-13355329D01*
X14703607Y-13371393D01*
X14719671Y-13389117D01*
X14733921Y-13408330D01*
X14746218Y-13428847D01*
X14756446Y-13450471D01*
X14764504Y-13472993D01*
X14770316Y-13496197D01*
X14773826Y-13519858D01*
X14775000Y-13543750D01*
X14775000Y-14031250D01*
X14773826Y-14055142D01*
X14770316Y-14078803D01*
X14764504Y-14102007D01*
X14756446Y-14124529D01*
X14746218Y-14146153D01*
X14733921Y-14166670D01*
X14719671Y-14185883D01*
X14703607Y-14203607D01*
X14685883Y-14219671D01*
X14666670Y-14233921D01*
X14646153Y-14246218D01*
X14624529Y-14256446D01*
X14602007Y-14264504D01*
X14578803Y-14270316D01*
X14555142Y-14273826D01*
X14531250Y-14275000D01*
X13968750Y-14275000D01*
X13944858Y-14273826D01*
X13921197Y-14270316D01*
X13897993Y-14264504D01*
X13875471Y-14256446D01*
X13853847Y-14246218D01*
X13833330Y-14233921D01*
X13814117Y-14219671D01*
X13796393Y-14203607D01*
X13780329Y-14185883D01*
X13766079Y-14166670D01*
X13753782Y-14146153D01*
X13743554Y-14124529D01*
X13735496Y-14102007D01*
X13729684Y-14078803D01*
X13726174Y-14055142D01*
X13725000Y-14031250D01*
X13725000Y-13543750D01*
X13726174Y-13519858D01*
X13729684Y-13496197D01*
X13735496Y-13472993D01*
X13743554Y-13450471D01*
X13753782Y-13428847D01*
X13766079Y-13408330D01*
X13780329Y-13389117D01*
X13796393Y-13371393D01*
X13814117Y-13355329D01*
X13833330Y-13341079D01*
X13853847Y-13328782D01*
X13875471Y-13318554D01*
X13897993Y-13310496D01*
X13921197Y-13304684D01*
X13944858Y-13301174D01*
X13968750Y-13300000D01*
X14531250Y-13300000D01*
X14555142Y-13301174D01*
G37*
G36*
X14555142Y-11726174D02*
G01*
X14578803Y-11729684D01*
X14602007Y-11735496D01*
X14624529Y-11743554D01*
X14646153Y-11753782D01*
X14666670Y-11766079D01*
X14685883Y-11780329D01*
X14703607Y-11796393D01*
X14719671Y-11814117D01*
X14733921Y-11833330D01*
X14746218Y-11853847D01*
X14756446Y-11875471D01*
X14764504Y-11897993D01*
X14770316Y-11921197D01*
X14773826Y-11944858D01*
X14775000Y-11968750D01*
X14775000Y-12456250D01*
X14773826Y-12480142D01*
X14770316Y-12503803D01*
X14764504Y-12527007D01*
X14756446Y-12549529D01*
X14746218Y-12571153D01*
X14733921Y-12591670D01*
X14719671Y-12610883D01*
X14703607Y-12628607D01*
X14685883Y-12644671D01*
X14666670Y-12658921D01*
X14646153Y-12671218D01*
X14624529Y-12681446D01*
X14602007Y-12689504D01*
X14578803Y-12695316D01*
X14555142Y-12698826D01*
X14531250Y-12700000D01*
X13968750Y-12700000D01*
X13944858Y-12698826D01*
X13921197Y-12695316D01*
X13897993Y-12689504D01*
X13875471Y-12681446D01*
X13853847Y-12671218D01*
X13833330Y-12658921D01*
X13814117Y-12644671D01*
X13796393Y-12628607D01*
X13780329Y-12610883D01*
X13766079Y-12591670D01*
X13753782Y-12571153D01*
X13743554Y-12549529D01*
X13735496Y-12527007D01*
X13729684Y-12503803D01*
X13726174Y-12480142D01*
X13725000Y-12456250D01*
X13725000Y-11968750D01*
X13726174Y-11944858D01*
X13729684Y-11921197D01*
X13735496Y-11897993D01*
X13743554Y-11875471D01*
X13753782Y-11853847D01*
X13766079Y-11833330D01*
X13780329Y-11814117D01*
X13796393Y-11796393D01*
X13814117Y-11780329D01*
X13833330Y-11766079D01*
X13853847Y-11753782D01*
X13875471Y-11743554D01*
X13897993Y-11735496D01*
X13921197Y-11729684D01*
X13944858Y-11726174D01*
X13968750Y-11725000D01*
X14531250Y-11725000D01*
X14555142Y-11726174D01*
G37*
G36*
X19880142Y-12526174D02*
G01*
X19903803Y-12529684D01*
X19927007Y-12535496D01*
X19949529Y-12543554D01*
X19971153Y-12553782D01*
X19991670Y-12566079D01*
X20010883Y-12580329D01*
X20028607Y-12596393D01*
X20044671Y-12614117D01*
X20058921Y-12633330D01*
X20071218Y-12653847D01*
X20081446Y-12675471D01*
X20089504Y-12697993D01*
X20095316Y-12721197D01*
X20098826Y-12744858D01*
X20100000Y-12768750D01*
X20100000Y-13331250D01*
X20098826Y-13355142D01*
X20095316Y-13378803D01*
X20089504Y-13402007D01*
X20081446Y-13424529D01*
X20071218Y-13446153D01*
X20058921Y-13466670D01*
X20044671Y-13485883D01*
X20028607Y-13503607D01*
X20010883Y-13519671D01*
X19991670Y-13533921D01*
X19971153Y-13546218D01*
X19949529Y-13556446D01*
X19927007Y-13564504D01*
X19903803Y-13570316D01*
X19880142Y-13573826D01*
X19856250Y-13575000D01*
X19368750Y-13575000D01*
X19344858Y-13573826D01*
X19321197Y-13570316D01*
X19297993Y-13564504D01*
X19275471Y-13556446D01*
X19253847Y-13546218D01*
X19233330Y-13533921D01*
X19214117Y-13519671D01*
X19196393Y-13503607D01*
X19180329Y-13485883D01*
X19166079Y-13466670D01*
X19153782Y-13446153D01*
X19143554Y-13424529D01*
X19135496Y-13402007D01*
X19129684Y-13378803D01*
X19126174Y-13355142D01*
X19125000Y-13331250D01*
X19125000Y-12768750D01*
X19126174Y-12744858D01*
X19129684Y-12721197D01*
X19135496Y-12697993D01*
X19143554Y-12675471D01*
X19153782Y-12653847D01*
X19166079Y-12633330D01*
X19180329Y-12614117D01*
X19196393Y-12596393D01*
X19214117Y-12580329D01*
X19233330Y-12566079D01*
X19253847Y-12553782D01*
X19275471Y-12543554D01*
X19297993Y-12535496D01*
X19321197Y-12529684D01*
X19344858Y-12526174D01*
X19368750Y-12525000D01*
X19856250Y-12525000D01*
X19880142Y-12526174D01*
G37*
G36*
X21455142Y-12526174D02*
G01*
X21478803Y-12529684D01*
X21502007Y-12535496D01*
X21524529Y-12543554D01*
X21546153Y-12553782D01*
X21566670Y-12566079D01*
X21585883Y-12580329D01*
X21603607Y-12596393D01*
X21619671Y-12614117D01*
X21633921Y-12633330D01*
X21646218Y-12653847D01*
X21656446Y-12675471D01*
X21664504Y-12697993D01*
X21670316Y-12721197D01*
X21673826Y-12744858D01*
X21675000Y-12768750D01*
X21675000Y-13331250D01*
X21673826Y-13355142D01*
X21670316Y-13378803D01*
X21664504Y-13402007D01*
X21656446Y-13424529D01*
X21646218Y-13446153D01*
X21633921Y-13466670D01*
X21619671Y-13485883D01*
X21603607Y-13503607D01*
X21585883Y-13519671D01*
X21566670Y-13533921D01*
X21546153Y-13546218D01*
X21524529Y-13556446D01*
X21502007Y-13564504D01*
X21478803Y-13570316D01*
X21455142Y-13573826D01*
X21431250Y-13575000D01*
X20943750Y-13575000D01*
X20919858Y-13573826D01*
X20896197Y-13570316D01*
X20872993Y-13564504D01*
X20850471Y-13556446D01*
X20828847Y-13546218D01*
X20808330Y-13533921D01*
X20789117Y-13519671D01*
X20771393Y-13503607D01*
X20755329Y-13485883D01*
X20741079Y-13466670D01*
X20728782Y-13446153D01*
X20718554Y-13424529D01*
X20710496Y-13402007D01*
X20704684Y-13378803D01*
X20701174Y-13355142D01*
X20700000Y-13331250D01*
X20700000Y-12768750D01*
X20701174Y-12744858D01*
X20704684Y-12721197D01*
X20710496Y-12697993D01*
X20718554Y-12675471D01*
X20728782Y-12653847D01*
X20741079Y-12633330D01*
X20755329Y-12614117D01*
X20771393Y-12596393D01*
X20789117Y-12580329D01*
X20808330Y-12566079D01*
X20828847Y-12553782D01*
X20850471Y-12543554D01*
X20872993Y-12535496D01*
X20896197Y-12529684D01*
X20919858Y-12526174D01*
X20943750Y-12525000D01*
X21431250Y-12525000D01*
X21455142Y-12526174D01*
G37*
G36*
X21455142Y-11026174D02*
G01*
X21478803Y-11029684D01*
X21502007Y-11035496D01*
X21524529Y-11043554D01*
X21546153Y-11053782D01*
X21566670Y-11066079D01*
X21585883Y-11080329D01*
X21603607Y-11096393D01*
X21619671Y-11114117D01*
X21633921Y-11133330D01*
X21646218Y-11153847D01*
X21656446Y-11175471D01*
X21664504Y-11197993D01*
X21670316Y-11221197D01*
X21673826Y-11244858D01*
X21675000Y-11268750D01*
X21675000Y-11831250D01*
X21673826Y-11855142D01*
X21670316Y-11878803D01*
X21664504Y-11902007D01*
X21656446Y-11924529D01*
X21646218Y-11946153D01*
X21633921Y-11966670D01*
X21619671Y-11985883D01*
X21603607Y-12003607D01*
X21585883Y-12019671D01*
X21566670Y-12033921D01*
X21546153Y-12046218D01*
X21524529Y-12056446D01*
X21502007Y-12064504D01*
X21478803Y-12070316D01*
X21455142Y-12073826D01*
X21431250Y-12075000D01*
X20943750Y-12075000D01*
X20919858Y-12073826D01*
X20896197Y-12070316D01*
X20872993Y-12064504D01*
X20850471Y-12056446D01*
X20828847Y-12046218D01*
X20808330Y-12033921D01*
X20789117Y-12019671D01*
X20771393Y-12003607D01*
X20755329Y-11985883D01*
X20741079Y-11966670D01*
X20728782Y-11946153D01*
X20718554Y-11924529D01*
X20710496Y-11902007D01*
X20704684Y-11878803D01*
X20701174Y-11855142D01*
X20700000Y-11831250D01*
X20700000Y-11268750D01*
X20701174Y-11244858D01*
X20704684Y-11221197D01*
X20710496Y-11197993D01*
X20718554Y-11175471D01*
X20728782Y-11153847D01*
X20741079Y-11133330D01*
X20755329Y-11114117D01*
X20771393Y-11096393D01*
X20789117Y-11080329D01*
X20808330Y-11066079D01*
X20828847Y-11053782D01*
X20850471Y-11043554D01*
X20872993Y-11035496D01*
X20896197Y-11029684D01*
X20919858Y-11026174D01*
X20943750Y-11025000D01*
X21431250Y-11025000D01*
X21455142Y-11026174D01*
G37*
G36*
X19880142Y-11026174D02*
G01*
X19903803Y-11029684D01*
X19927007Y-11035496D01*
X19949529Y-11043554D01*
X19971153Y-11053782D01*
X19991670Y-11066079D01*
X20010883Y-11080329D01*
X20028607Y-11096393D01*
X20044671Y-11114117D01*
X20058921Y-11133330D01*
X20071218Y-11153847D01*
X20081446Y-11175471D01*
X20089504Y-11197993D01*
X20095316Y-11221197D01*
X20098826Y-11244858D01*
X20100000Y-11268750D01*
X20100000Y-11831250D01*
X20098826Y-11855142D01*
X20095316Y-11878803D01*
X20089504Y-11902007D01*
X20081446Y-11924529D01*
X20071218Y-11946153D01*
X20058921Y-11966670D01*
X20044671Y-11985883D01*
X20028607Y-12003607D01*
X20010883Y-12019671D01*
X19991670Y-12033921D01*
X19971153Y-12046218D01*
X19949529Y-12056446D01*
X19927007Y-12064504D01*
X19903803Y-12070316D01*
X19880142Y-12073826D01*
X19856250Y-12075000D01*
X19368750Y-12075000D01*
X19344858Y-12073826D01*
X19321197Y-12070316D01*
X19297993Y-12064504D01*
X19275471Y-12056446D01*
X19253847Y-12046218D01*
X19233330Y-12033921D01*
X19214117Y-12019671D01*
X19196393Y-12003607D01*
X19180329Y-11985883D01*
X19166079Y-11966670D01*
X19153782Y-11946153D01*
X19143554Y-11924529D01*
X19135496Y-11902007D01*
X19129684Y-11878803D01*
X19126174Y-11855142D01*
X19125000Y-11831250D01*
X19125000Y-11268750D01*
X19126174Y-11244858D01*
X19129684Y-11221197D01*
X19135496Y-11197993D01*
X19143554Y-11175471D01*
X19153782Y-11153847D01*
X19166079Y-11133330D01*
X19180329Y-11114117D01*
X19196393Y-11096393D01*
X19214117Y-11080329D01*
X19233330Y-11066079D01*
X19253847Y-11053782D01*
X19275471Y-11043554D01*
X19297993Y-11035496D01*
X19321197Y-11029684D01*
X19344858Y-11026174D01*
X19368750Y-11025000D01*
X19856250Y-11025000D01*
X19880142Y-11026174D01*
G37*
G36*
X31705142Y-11726174D02*
G01*
X31728803Y-11729684D01*
X31752007Y-11735496D01*
X31774529Y-11743554D01*
X31796153Y-11753782D01*
X31816670Y-11766079D01*
X31835883Y-11780329D01*
X31853607Y-11796393D01*
X31869671Y-11814117D01*
X31883921Y-11833330D01*
X31896218Y-11853847D01*
X31906446Y-11875471D01*
X31914504Y-11897993D01*
X31920316Y-11921197D01*
X31923826Y-11944858D01*
X31925000Y-11968750D01*
X31925000Y-12456250D01*
X31923826Y-12480142D01*
X31920316Y-12503803D01*
X31914504Y-12527007D01*
X31906446Y-12549529D01*
X31896218Y-12571153D01*
X31883921Y-12591670D01*
X31869671Y-12610883D01*
X31853607Y-12628607D01*
X31835883Y-12644671D01*
X31816670Y-12658921D01*
X31796153Y-12671218D01*
X31774529Y-12681446D01*
X31752007Y-12689504D01*
X31728803Y-12695316D01*
X31705142Y-12698826D01*
X31681250Y-12700000D01*
X31118750Y-12700000D01*
X31094858Y-12698826D01*
X31071197Y-12695316D01*
X31047993Y-12689504D01*
X31025471Y-12681446D01*
X31003847Y-12671218D01*
X30983330Y-12658921D01*
X30964117Y-12644671D01*
X30946393Y-12628607D01*
X30930329Y-12610883D01*
X30916079Y-12591670D01*
X30903782Y-12571153D01*
X30893554Y-12549529D01*
X30885496Y-12527007D01*
X30879684Y-12503803D01*
X30876174Y-12480142D01*
X30875000Y-12456250D01*
X30875000Y-11968750D01*
X30876174Y-11944858D01*
X30879684Y-11921197D01*
X30885496Y-11897993D01*
X30893554Y-11875471D01*
X30903782Y-11853847D01*
X30916079Y-11833330D01*
X30930329Y-11814117D01*
X30946393Y-11796393D01*
X30964117Y-11780329D01*
X30983330Y-11766079D01*
X31003847Y-11753782D01*
X31025471Y-11743554D01*
X31047993Y-11735496D01*
X31071197Y-11729684D01*
X31094858Y-11726174D01*
X31118750Y-11725000D01*
X31681250Y-11725000D01*
X31705142Y-11726174D01*
G37*
G36*
X31705142Y-13301174D02*
G01*
X31728803Y-13304684D01*
X31752007Y-13310496D01*
X31774529Y-13318554D01*
X31796153Y-13328782D01*
X31816670Y-13341079D01*
X31835883Y-13355329D01*
X31853607Y-13371393D01*
X31869671Y-13389117D01*
X31883921Y-13408330D01*
X31896218Y-13428847D01*
X31906446Y-13450471D01*
X31914504Y-13472993D01*
X31920316Y-13496197D01*
X31923826Y-13519858D01*
X31925000Y-13543750D01*
X31925000Y-14031250D01*
X31923826Y-14055142D01*
X31920316Y-14078803D01*
X31914504Y-14102007D01*
X31906446Y-14124529D01*
X31896218Y-14146153D01*
X31883921Y-14166670D01*
X31869671Y-14185883D01*
X31853607Y-14203607D01*
X31835883Y-14219671D01*
X31816670Y-14233921D01*
X31796153Y-14246218D01*
X31774529Y-14256446D01*
X31752007Y-14264504D01*
X31728803Y-14270316D01*
X31705142Y-14273826D01*
X31681250Y-14275000D01*
X31118750Y-14275000D01*
X31094858Y-14273826D01*
X31071197Y-14270316D01*
X31047993Y-14264504D01*
X31025471Y-14256446D01*
X31003847Y-14246218D01*
X30983330Y-14233921D01*
X30964117Y-14219671D01*
X30946393Y-14203607D01*
X30930329Y-14185883D01*
X30916079Y-14166670D01*
X30903782Y-14146153D01*
X30893554Y-14124529D01*
X30885496Y-14102007D01*
X30879684Y-14078803D01*
X30876174Y-14055142D01*
X30875000Y-14031250D01*
X30875000Y-13543750D01*
X30876174Y-13519858D01*
X30879684Y-13496197D01*
X30885496Y-13472993D01*
X30893554Y-13450471D01*
X30903782Y-13428847D01*
X30916079Y-13408330D01*
X30930329Y-13389117D01*
X30946393Y-13371393D01*
X30964117Y-13355329D01*
X30983330Y-13341079D01*
X31003847Y-13328782D01*
X31025471Y-13318554D01*
X31047993Y-13310496D01*
X31071197Y-13304684D01*
X31094858Y-13301174D01*
X31118750Y-13300000D01*
X31681250Y-13300000D01*
X31705142Y-13301174D01*
G37*
G36*
X30605142Y-19726174D02*
G01*
X30628803Y-19729684D01*
X30652007Y-19735496D01*
X30674529Y-19743554D01*
X30696153Y-19753782D01*
X30716670Y-19766079D01*
X30735883Y-19780329D01*
X30753607Y-19796393D01*
X30769671Y-19814117D01*
X30783921Y-19833330D01*
X30796218Y-19853847D01*
X30806446Y-19875471D01*
X30814504Y-19897993D01*
X30820316Y-19921197D01*
X30823826Y-19944858D01*
X30825000Y-19968750D01*
X30825000Y-20456250D01*
X30823826Y-20480142D01*
X30820316Y-20503803D01*
X30814504Y-20527007D01*
X30806446Y-20549529D01*
X30796218Y-20571153D01*
X30783921Y-20591670D01*
X30769671Y-20610883D01*
X30753607Y-20628607D01*
X30735883Y-20644671D01*
X30716670Y-20658921D01*
X30696153Y-20671218D01*
X30674529Y-20681446D01*
X30652007Y-20689504D01*
X30628803Y-20695316D01*
X30605142Y-20698826D01*
X30581250Y-20700000D01*
X30018750Y-20700000D01*
X29994858Y-20698826D01*
X29971197Y-20695316D01*
X29947993Y-20689504D01*
X29925471Y-20681446D01*
X29903847Y-20671218D01*
X29883330Y-20658921D01*
X29864117Y-20644671D01*
X29846393Y-20628607D01*
X29830329Y-20610883D01*
X29816079Y-20591670D01*
X29803782Y-20571153D01*
X29793554Y-20549529D01*
X29785496Y-20527007D01*
X29779684Y-20503803D01*
X29776174Y-20480142D01*
X29775000Y-20456250D01*
X29775000Y-19968750D01*
X29776174Y-19944858D01*
X29779684Y-19921197D01*
X29785496Y-19897993D01*
X29793554Y-19875471D01*
X29803782Y-19853847D01*
X29816079Y-19833330D01*
X29830329Y-19814117D01*
X29846393Y-19796393D01*
X29864117Y-19780329D01*
X29883330Y-19766079D01*
X29903847Y-19753782D01*
X29925471Y-19743554D01*
X29947993Y-19735496D01*
X29971197Y-19729684D01*
X29994858Y-19726174D01*
X30018750Y-19725000D01*
X30581250Y-19725000D01*
X30605142Y-19726174D01*
G37*
G36*
X30605142Y-21301174D02*
G01*
X30628803Y-21304684D01*
X30652007Y-21310496D01*
X30674529Y-21318554D01*
X30696153Y-21328782D01*
X30716670Y-21341079D01*
X30735883Y-21355329D01*
X30753607Y-21371393D01*
X30769671Y-21389117D01*
X30783921Y-21408330D01*
X30796218Y-21428847D01*
X30806446Y-21450471D01*
X30814504Y-21472993D01*
X30820316Y-21496197D01*
X30823826Y-21519858D01*
X30825000Y-21543750D01*
X30825000Y-22031250D01*
X30823826Y-22055142D01*
X30820316Y-22078803D01*
X30814504Y-22102007D01*
X30806446Y-22124529D01*
X30796218Y-22146153D01*
X30783921Y-22166670D01*
X30769671Y-22185883D01*
X30753607Y-22203607D01*
X30735883Y-22219671D01*
X30716670Y-22233921D01*
X30696153Y-22246218D01*
X30674529Y-22256446D01*
X30652007Y-22264504D01*
X30628803Y-22270316D01*
X30605142Y-22273826D01*
X30581250Y-22275000D01*
X30018750Y-22275000D01*
X29994858Y-22273826D01*
X29971197Y-22270316D01*
X29947993Y-22264504D01*
X29925471Y-22256446D01*
X29903847Y-22246218D01*
X29883330Y-22233921D01*
X29864117Y-22219671D01*
X29846393Y-22203607D01*
X29830329Y-22185883D01*
X29816079Y-22166670D01*
X29803782Y-22146153D01*
X29793554Y-22124529D01*
X29785496Y-22102007D01*
X29779684Y-22078803D01*
X29776174Y-22055142D01*
X29775000Y-22031250D01*
X29775000Y-21543750D01*
X29776174Y-21519858D01*
X29779684Y-21496197D01*
X29785496Y-21472993D01*
X29793554Y-21450471D01*
X29803782Y-21428847D01*
X29816079Y-21408330D01*
X29830329Y-21389117D01*
X29846393Y-21371393D01*
X29864117Y-21355329D01*
X29883330Y-21341079D01*
X29903847Y-21328782D01*
X29925471Y-21318554D01*
X29947993Y-21310496D01*
X29971197Y-21304684D01*
X29994858Y-21301174D01*
X30018750Y-21300000D01*
X30581250Y-21300000D01*
X30605142Y-21301174D01*
G37*
G36*
X14505142Y-19726174D02*
G01*
X14528803Y-19729684D01*
X14552007Y-19735496D01*
X14574529Y-19743554D01*
X14596153Y-19753782D01*
X14616670Y-19766079D01*
X14635883Y-19780329D01*
X14653607Y-19796393D01*
X14669671Y-19814117D01*
X14683921Y-19833330D01*
X14696218Y-19853847D01*
X14706446Y-19875471D01*
X14714504Y-19897993D01*
X14720316Y-19921197D01*
X14723826Y-19944858D01*
X14725000Y-19968750D01*
X14725000Y-20456250D01*
X14723826Y-20480142D01*
X14720316Y-20503803D01*
X14714504Y-20527007D01*
X14706446Y-20549529D01*
X14696218Y-20571153D01*
X14683921Y-20591670D01*
X14669671Y-20610883D01*
X14653607Y-20628607D01*
X14635883Y-20644671D01*
X14616670Y-20658921D01*
X14596153Y-20671218D01*
X14574529Y-20681446D01*
X14552007Y-20689504D01*
X14528803Y-20695316D01*
X14505142Y-20698826D01*
X14481250Y-20700000D01*
X13918750Y-20700000D01*
X13894858Y-20698826D01*
X13871197Y-20695316D01*
X13847993Y-20689504D01*
X13825471Y-20681446D01*
X13803847Y-20671218D01*
X13783330Y-20658921D01*
X13764117Y-20644671D01*
X13746393Y-20628607D01*
X13730329Y-20610883D01*
X13716079Y-20591670D01*
X13703782Y-20571153D01*
X13693554Y-20549529D01*
X13685496Y-20527007D01*
X13679684Y-20503803D01*
X13676174Y-20480142D01*
X13675000Y-20456250D01*
X13675000Y-19968750D01*
X13676174Y-19944858D01*
X13679684Y-19921197D01*
X13685496Y-19897993D01*
X13693554Y-19875471D01*
X13703782Y-19853847D01*
X13716079Y-19833330D01*
X13730329Y-19814117D01*
X13746393Y-19796393D01*
X13764117Y-19780329D01*
X13783330Y-19766079D01*
X13803847Y-19753782D01*
X13825471Y-19743554D01*
X13847993Y-19735496D01*
X13871197Y-19729684D01*
X13894858Y-19726174D01*
X13918750Y-19725000D01*
X14481250Y-19725000D01*
X14505142Y-19726174D01*
G37*
G36*
X14505142Y-21301174D02*
G01*
X14528803Y-21304684D01*
X14552007Y-21310496D01*
X14574529Y-21318554D01*
X14596153Y-21328782D01*
X14616670Y-21341079D01*
X14635883Y-21355329D01*
X14653607Y-21371393D01*
X14669671Y-21389117D01*
X14683921Y-21408330D01*
X14696218Y-21428847D01*
X14706446Y-21450471D01*
X14714504Y-21472993D01*
X14720316Y-21496197D01*
X14723826Y-21519858D01*
X14725000Y-21543750D01*
X14725000Y-22031250D01*
X14723826Y-22055142D01*
X14720316Y-22078803D01*
X14714504Y-22102007D01*
X14706446Y-22124529D01*
X14696218Y-22146153D01*
X14683921Y-22166670D01*
X14669671Y-22185883D01*
X14653607Y-22203607D01*
X14635883Y-22219671D01*
X14616670Y-22233921D01*
X14596153Y-22246218D01*
X14574529Y-22256446D01*
X14552007Y-22264504D01*
X14528803Y-22270316D01*
X14505142Y-22273826D01*
X14481250Y-22275000D01*
X13918750Y-22275000D01*
X13894858Y-22273826D01*
X13871197Y-22270316D01*
X13847993Y-22264504D01*
X13825471Y-22256446D01*
X13803847Y-22246218D01*
X13783330Y-22233921D01*
X13764117Y-22219671D01*
X13746393Y-22203607D01*
X13730329Y-22185883D01*
X13716079Y-22166670D01*
X13703782Y-22146153D01*
X13693554Y-22124529D01*
X13685496Y-22102007D01*
X13679684Y-22078803D01*
X13676174Y-22055142D01*
X13675000Y-22031250D01*
X13675000Y-21543750D01*
X13676174Y-21519858D01*
X13679684Y-21496197D01*
X13685496Y-21472993D01*
X13693554Y-21450471D01*
X13703782Y-21428847D01*
X13716079Y-21408330D01*
X13730329Y-21389117D01*
X13746393Y-21371393D01*
X13764117Y-21355329D01*
X13783330Y-21341079D01*
X13803847Y-21328782D01*
X13825471Y-21318554D01*
X13847993Y-21310496D01*
X13871197Y-21304684D01*
X13894858Y-21301174D01*
X13918750Y-21300000D01*
X14481250Y-21300000D01*
X14505142Y-21301174D01*
G37*
G36*
X21455142Y-20626174D02*
G01*
X21478803Y-20629684D01*
X21502007Y-20635496D01*
X21524529Y-20643554D01*
X21546153Y-20653782D01*
X21566670Y-20666079D01*
X21585883Y-20680329D01*
X21603607Y-20696393D01*
X21619671Y-20714117D01*
X21633921Y-20733330D01*
X21646218Y-20753847D01*
X21656446Y-20775471D01*
X21664504Y-20797993D01*
X21670316Y-20821197D01*
X21673826Y-20844858D01*
X21675000Y-20868750D01*
X21675000Y-21431250D01*
X21673826Y-21455142D01*
X21670316Y-21478803D01*
X21664504Y-21502007D01*
X21656446Y-21524529D01*
X21646218Y-21546153D01*
X21633921Y-21566670D01*
X21619671Y-21585883D01*
X21603607Y-21603607D01*
X21585883Y-21619671D01*
X21566670Y-21633921D01*
X21546153Y-21646218D01*
X21524529Y-21656446D01*
X21502007Y-21664504D01*
X21478803Y-21670316D01*
X21455142Y-21673826D01*
X21431250Y-21675000D01*
X20943750Y-21675000D01*
X20919858Y-21673826D01*
X20896197Y-21670316D01*
X20872993Y-21664504D01*
X20850471Y-21656446D01*
X20828847Y-21646218D01*
X20808330Y-21633921D01*
X20789117Y-21619671D01*
X20771393Y-21603607D01*
X20755329Y-21585883D01*
X20741079Y-21566670D01*
X20728782Y-21546153D01*
X20718554Y-21524529D01*
X20710496Y-21502007D01*
X20704684Y-21478803D01*
X20701174Y-21455142D01*
X20700000Y-21431250D01*
X20700000Y-20868750D01*
X20701174Y-20844858D01*
X20704684Y-20821197D01*
X20710496Y-20797993D01*
X20718554Y-20775471D01*
X20728782Y-20753847D01*
X20741079Y-20733330D01*
X20755329Y-20714117D01*
X20771393Y-20696393D01*
X20789117Y-20680329D01*
X20808330Y-20666079D01*
X20828847Y-20653782D01*
X20850471Y-20643554D01*
X20872993Y-20635496D01*
X20896197Y-20629684D01*
X20919858Y-20626174D01*
X20943750Y-20625000D01*
X21431250Y-20625000D01*
X21455142Y-20626174D01*
G37*
G36*
X19880142Y-20626174D02*
G01*
X19903803Y-20629684D01*
X19927007Y-20635496D01*
X19949529Y-20643554D01*
X19971153Y-20653782D01*
X19991670Y-20666079D01*
X20010883Y-20680329D01*
X20028607Y-20696393D01*
X20044671Y-20714117D01*
X20058921Y-20733330D01*
X20071218Y-20753847D01*
X20081446Y-20775471D01*
X20089504Y-20797993D01*
X20095316Y-20821197D01*
X20098826Y-20844858D01*
X20100000Y-20868750D01*
X20100000Y-21431250D01*
X20098826Y-21455142D01*
X20095316Y-21478803D01*
X20089504Y-21502007D01*
X20081446Y-21524529D01*
X20071218Y-21546153D01*
X20058921Y-21566670D01*
X20044671Y-21585883D01*
X20028607Y-21603607D01*
X20010883Y-21619671D01*
X19991670Y-21633921D01*
X19971153Y-21646218D01*
X19949529Y-21656446D01*
X19927007Y-21664504D01*
X19903803Y-21670316D01*
X19880142Y-21673826D01*
X19856250Y-21675000D01*
X19368750Y-21675000D01*
X19344858Y-21673826D01*
X19321197Y-21670316D01*
X19297993Y-21664504D01*
X19275471Y-21656446D01*
X19253847Y-21646218D01*
X19233330Y-21633921D01*
X19214117Y-21619671D01*
X19196393Y-21603607D01*
X19180329Y-21585883D01*
X19166079Y-21566670D01*
X19153782Y-21546153D01*
X19143554Y-21524529D01*
X19135496Y-21502007D01*
X19129684Y-21478803D01*
X19126174Y-21455142D01*
X19125000Y-21431250D01*
X19125000Y-20868750D01*
X19126174Y-20844858D01*
X19129684Y-20821197D01*
X19135496Y-20797993D01*
X19143554Y-20775471D01*
X19153782Y-20753847D01*
X19166079Y-20733330D01*
X19180329Y-20714117D01*
X19196393Y-20696393D01*
X19214117Y-20680329D01*
X19233330Y-20666079D01*
X19253847Y-20653782D01*
X19275471Y-20643554D01*
X19297993Y-20635496D01*
X19321197Y-20629684D01*
X19344858Y-20626174D01*
X19368750Y-20625000D01*
X19856250Y-20625000D01*
X19880142Y-20626174D01*
G37*
G36*
X21455142Y-22126174D02*
G01*
X21478803Y-22129684D01*
X21502007Y-22135496D01*
X21524529Y-22143554D01*
X21546153Y-22153782D01*
X21566670Y-22166079D01*
X21585883Y-22180329D01*
X21603607Y-22196393D01*
X21619671Y-22214117D01*
X21633921Y-22233330D01*
X21646218Y-22253847D01*
X21656446Y-22275471D01*
X21664504Y-22297993D01*
X21670316Y-22321197D01*
X21673826Y-22344858D01*
X21675000Y-22368750D01*
X21675000Y-22931250D01*
X21673826Y-22955142D01*
X21670316Y-22978803D01*
X21664504Y-23002007D01*
X21656446Y-23024529D01*
X21646218Y-23046153D01*
X21633921Y-23066670D01*
X21619671Y-23085883D01*
X21603607Y-23103607D01*
X21585883Y-23119671D01*
X21566670Y-23133921D01*
X21546153Y-23146218D01*
X21524529Y-23156446D01*
X21502007Y-23164504D01*
X21478803Y-23170316D01*
X21455142Y-23173826D01*
X21431250Y-23175000D01*
X20943750Y-23175000D01*
X20919858Y-23173826D01*
X20896197Y-23170316D01*
X20872993Y-23164504D01*
X20850471Y-23156446D01*
X20828847Y-23146218D01*
X20808330Y-23133921D01*
X20789117Y-23119671D01*
X20771393Y-23103607D01*
X20755329Y-23085883D01*
X20741079Y-23066670D01*
X20728782Y-23046153D01*
X20718554Y-23024529D01*
X20710496Y-23002007D01*
X20704684Y-22978803D01*
X20701174Y-22955142D01*
X20700000Y-22931250D01*
X20700000Y-22368750D01*
X20701174Y-22344858D01*
X20704684Y-22321197D01*
X20710496Y-22297993D01*
X20718554Y-22275471D01*
X20728782Y-22253847D01*
X20741079Y-22233330D01*
X20755329Y-22214117D01*
X20771393Y-22196393D01*
X20789117Y-22180329D01*
X20808330Y-22166079D01*
X20828847Y-22153782D01*
X20850471Y-22143554D01*
X20872993Y-22135496D01*
X20896197Y-22129684D01*
X20919858Y-22126174D01*
X20943750Y-22125000D01*
X21431250Y-22125000D01*
X21455142Y-22126174D01*
G37*
G36*
X19880142Y-22126174D02*
G01*
X19903803Y-22129684D01*
X19927007Y-22135496D01*
X19949529Y-22143554D01*
X19971153Y-22153782D01*
X19991670Y-22166079D01*
X20010883Y-22180329D01*
X20028607Y-22196393D01*
X20044671Y-22214117D01*
X20058921Y-22233330D01*
X20071218Y-22253847D01*
X20081446Y-22275471D01*
X20089504Y-22297993D01*
X20095316Y-22321197D01*
X20098826Y-22344858D01*
X20100000Y-22368750D01*
X20100000Y-22931250D01*
X20098826Y-22955142D01*
X20095316Y-22978803D01*
X20089504Y-23002007D01*
X20081446Y-23024529D01*
X20071218Y-23046153D01*
X20058921Y-23066670D01*
X20044671Y-23085883D01*
X20028607Y-23103607D01*
X20010883Y-23119671D01*
X19991670Y-23133921D01*
X19971153Y-23146218D01*
X19949529Y-23156446D01*
X19927007Y-23164504D01*
X19903803Y-23170316D01*
X19880142Y-23173826D01*
X19856250Y-23175000D01*
X19368750Y-23175000D01*
X19344858Y-23173826D01*
X19321197Y-23170316D01*
X19297993Y-23164504D01*
X19275471Y-23156446D01*
X19253847Y-23146218D01*
X19233330Y-23133921D01*
X19214117Y-23119671D01*
X19196393Y-23103607D01*
X19180329Y-23085883D01*
X19166079Y-23066670D01*
X19153782Y-23046153D01*
X19143554Y-23024529D01*
X19135496Y-23002007D01*
X19129684Y-22978803D01*
X19126174Y-22955142D01*
X19125000Y-22931250D01*
X19125000Y-22368750D01*
X19126174Y-22344858D01*
X19129684Y-22321197D01*
X19135496Y-22297993D01*
X19143554Y-22275471D01*
X19153782Y-22253847D01*
X19166079Y-22233330D01*
X19180329Y-22214117D01*
X19196393Y-22196393D01*
X19214117Y-22180329D01*
X19233330Y-22166079D01*
X19253847Y-22153782D01*
X19275471Y-22143554D01*
X19297993Y-22135496D01*
X19321197Y-22129684D01*
X19344858Y-22126174D01*
X19368750Y-22125000D01*
X19856250Y-22125000D01*
X19880142Y-22126174D01*
G37*
D17*
X8675000Y-11400000D03*
X12825000Y-11400000D03*
D15*
G36*
X21455142Y-14026174D02*
G01*
X21478803Y-14029684D01*
X21502007Y-14035496D01*
X21524529Y-14043554D01*
X21546153Y-14053782D01*
X21566670Y-14066079D01*
X21585883Y-14080329D01*
X21603607Y-14096393D01*
X21619671Y-14114117D01*
X21633921Y-14133330D01*
X21646218Y-14153847D01*
X21656446Y-14175471D01*
X21664504Y-14197993D01*
X21670316Y-14221197D01*
X21673826Y-14244858D01*
X21675000Y-14268750D01*
X21675000Y-14831250D01*
X21673826Y-14855142D01*
X21670316Y-14878803D01*
X21664504Y-14902007D01*
X21656446Y-14924529D01*
X21646218Y-14946153D01*
X21633921Y-14966670D01*
X21619671Y-14985883D01*
X21603607Y-15003607D01*
X21585883Y-15019671D01*
X21566670Y-15033921D01*
X21546153Y-15046218D01*
X21524529Y-15056446D01*
X21502007Y-15064504D01*
X21478803Y-15070316D01*
X21455142Y-15073826D01*
X21431250Y-15075000D01*
X20943750Y-15075000D01*
X20919858Y-15073826D01*
X20896197Y-15070316D01*
X20872993Y-15064504D01*
X20850471Y-15056446D01*
X20828847Y-15046218D01*
X20808330Y-15033921D01*
X20789117Y-15019671D01*
X20771393Y-15003607D01*
X20755329Y-14985883D01*
X20741079Y-14966670D01*
X20728782Y-14946153D01*
X20718554Y-14924529D01*
X20710496Y-14902007D01*
X20704684Y-14878803D01*
X20701174Y-14855142D01*
X20700000Y-14831250D01*
X20700000Y-14268750D01*
X20701174Y-14244858D01*
X20704684Y-14221197D01*
X20710496Y-14197993D01*
X20718554Y-14175471D01*
X20728782Y-14153847D01*
X20741079Y-14133330D01*
X20755329Y-14114117D01*
X20771393Y-14096393D01*
X20789117Y-14080329D01*
X20808330Y-14066079D01*
X20828847Y-14053782D01*
X20850471Y-14043554D01*
X20872993Y-14035496D01*
X20896197Y-14029684D01*
X20919858Y-14026174D01*
X20943750Y-14025000D01*
X21431250Y-14025000D01*
X21455142Y-14026174D01*
G37*
G36*
X19880142Y-14026174D02*
G01*
X19903803Y-14029684D01*
X19927007Y-14035496D01*
X19949529Y-14043554D01*
X19971153Y-14053782D01*
X19991670Y-14066079D01*
X20010883Y-14080329D01*
X20028607Y-14096393D01*
X20044671Y-14114117D01*
X20058921Y-14133330D01*
X20071218Y-14153847D01*
X20081446Y-14175471D01*
X20089504Y-14197993D01*
X20095316Y-14221197D01*
X20098826Y-14244858D01*
X20100000Y-14268750D01*
X20100000Y-14831250D01*
X20098826Y-14855142D01*
X20095316Y-14878803D01*
X20089504Y-14902007D01*
X20081446Y-14924529D01*
X20071218Y-14946153D01*
X20058921Y-14966670D01*
X20044671Y-14985883D01*
X20028607Y-15003607D01*
X20010883Y-15019671D01*
X19991670Y-15033921D01*
X19971153Y-15046218D01*
X19949529Y-15056446D01*
X19927007Y-15064504D01*
X19903803Y-15070316D01*
X19880142Y-15073826D01*
X19856250Y-15075000D01*
X19368750Y-15075000D01*
X19344858Y-15073826D01*
X19321197Y-15070316D01*
X19297993Y-15064504D01*
X19275471Y-15056446D01*
X19253847Y-15046218D01*
X19233330Y-15033921D01*
X19214117Y-15019671D01*
X19196393Y-15003607D01*
X19180329Y-14985883D01*
X19166079Y-14966670D01*
X19153782Y-14946153D01*
X19143554Y-14924529D01*
X19135496Y-14902007D01*
X19129684Y-14878803D01*
X19126174Y-14855142D01*
X19125000Y-14831250D01*
X19125000Y-14268750D01*
X19126174Y-14244858D01*
X19129684Y-14221197D01*
X19135496Y-14197993D01*
X19143554Y-14175471D01*
X19153782Y-14153847D01*
X19166079Y-14133330D01*
X19180329Y-14114117D01*
X19196393Y-14096393D01*
X19214117Y-14080329D01*
X19233330Y-14066079D01*
X19253847Y-14053782D01*
X19275471Y-14043554D01*
X19297993Y-14035496D01*
X19321197Y-14029684D01*
X19344858Y-14026174D01*
X19368750Y-14025000D01*
X19856250Y-14025000D01*
X19880142Y-14026174D01*
G37*
D17*
X8675000Y-22650000D03*
X12825000Y-22650000D03*
D15*
G36*
X19880142Y-19126174D02*
G01*
X19903803Y-19129684D01*
X19927007Y-19135496D01*
X19949529Y-19143554D01*
X19971153Y-19153782D01*
X19991670Y-19166079D01*
X20010883Y-19180329D01*
X20028607Y-19196393D01*
X20044671Y-19214117D01*
X20058921Y-19233330D01*
X20071218Y-19253847D01*
X20081446Y-19275471D01*
X20089504Y-19297993D01*
X20095316Y-19321197D01*
X20098826Y-19344858D01*
X20100000Y-19368750D01*
X20100000Y-19931250D01*
X20098826Y-19955142D01*
X20095316Y-19978803D01*
X20089504Y-20002007D01*
X20081446Y-20024529D01*
X20071218Y-20046153D01*
X20058921Y-20066670D01*
X20044671Y-20085883D01*
X20028607Y-20103607D01*
X20010883Y-20119671D01*
X19991670Y-20133921D01*
X19971153Y-20146218D01*
X19949529Y-20156446D01*
X19927007Y-20164504D01*
X19903803Y-20170316D01*
X19880142Y-20173826D01*
X19856250Y-20175000D01*
X19368750Y-20175000D01*
X19344858Y-20173826D01*
X19321197Y-20170316D01*
X19297993Y-20164504D01*
X19275471Y-20156446D01*
X19253847Y-20146218D01*
X19233330Y-20133921D01*
X19214117Y-20119671D01*
X19196393Y-20103607D01*
X19180329Y-20085883D01*
X19166079Y-20066670D01*
X19153782Y-20046153D01*
X19143554Y-20024529D01*
X19135496Y-20002007D01*
X19129684Y-19978803D01*
X19126174Y-19955142D01*
X19125000Y-19931250D01*
X19125000Y-19368750D01*
X19126174Y-19344858D01*
X19129684Y-19321197D01*
X19135496Y-19297993D01*
X19143554Y-19275471D01*
X19153782Y-19253847D01*
X19166079Y-19233330D01*
X19180329Y-19214117D01*
X19196393Y-19196393D01*
X19214117Y-19180329D01*
X19233330Y-19166079D01*
X19253847Y-19153782D01*
X19275471Y-19143554D01*
X19297993Y-19135496D01*
X19321197Y-19129684D01*
X19344858Y-19126174D01*
X19368750Y-19125000D01*
X19856250Y-19125000D01*
X19880142Y-19126174D01*
G37*
G36*
X21455142Y-19126174D02*
G01*
X21478803Y-19129684D01*
X21502007Y-19135496D01*
X21524529Y-19143554D01*
X21546153Y-19153782D01*
X21566670Y-19166079D01*
X21585883Y-19180329D01*
X21603607Y-19196393D01*
X21619671Y-19214117D01*
X21633921Y-19233330D01*
X21646218Y-19253847D01*
X21656446Y-19275471D01*
X21664504Y-19297993D01*
X21670316Y-19321197D01*
X21673826Y-19344858D01*
X21675000Y-19368750D01*
X21675000Y-19931250D01*
X21673826Y-19955142D01*
X21670316Y-19978803D01*
X21664504Y-20002007D01*
X21656446Y-20024529D01*
X21646218Y-20046153D01*
X21633921Y-20066670D01*
X21619671Y-20085883D01*
X21603607Y-20103607D01*
X21585883Y-20119671D01*
X21566670Y-20133921D01*
X21546153Y-20146218D01*
X21524529Y-20156446D01*
X21502007Y-20164504D01*
X21478803Y-20170316D01*
X21455142Y-20173826D01*
X21431250Y-20175000D01*
X20943750Y-20175000D01*
X20919858Y-20173826D01*
X20896197Y-20170316D01*
X20872993Y-20164504D01*
X20850471Y-20156446D01*
X20828847Y-20146218D01*
X20808330Y-20133921D01*
X20789117Y-20119671D01*
X20771393Y-20103607D01*
X20755329Y-20085883D01*
X20741079Y-20066670D01*
X20728782Y-20046153D01*
X20718554Y-20024529D01*
X20710496Y-20002007D01*
X20704684Y-19978803D01*
X20701174Y-19955142D01*
X20700000Y-19931250D01*
X20700000Y-19368750D01*
X20701174Y-19344858D01*
X20704684Y-19321197D01*
X20710496Y-19297993D01*
X20718554Y-19275471D01*
X20728782Y-19253847D01*
X20741079Y-19233330D01*
X20755329Y-19214117D01*
X20771393Y-19196393D01*
X20789117Y-19180329D01*
X20808330Y-19166079D01*
X20828847Y-19153782D01*
X20850471Y-19143554D01*
X20872993Y-19135496D01*
X20896197Y-19129684D01*
X20919858Y-19126174D01*
X20943750Y-19125000D01*
X21431250Y-19125000D01*
X21455142Y-19126174D01*
G37*
G36*
X22880142Y-12476174D02*
G01*
X22903803Y-12479684D01*
X22927007Y-12485496D01*
X22949529Y-12493554D01*
X22971153Y-12503782D01*
X22991670Y-12516079D01*
X23010883Y-12530329D01*
X23028607Y-12546393D01*
X23044671Y-12564117D01*
X23058921Y-12583330D01*
X23071218Y-12603847D01*
X23081446Y-12625471D01*
X23089504Y-12647993D01*
X23095316Y-12671197D01*
X23098826Y-12694858D01*
X23100000Y-12718750D01*
X23100000Y-13281250D01*
X23098826Y-13305142D01*
X23095316Y-13328803D01*
X23089504Y-13352007D01*
X23081446Y-13374529D01*
X23071218Y-13396153D01*
X23058921Y-13416670D01*
X23044671Y-13435883D01*
X23028607Y-13453607D01*
X23010883Y-13469671D01*
X22991670Y-13483921D01*
X22971153Y-13496218D01*
X22949529Y-13506446D01*
X22927007Y-13514504D01*
X22903803Y-13520316D01*
X22880142Y-13523826D01*
X22856250Y-13525000D01*
X22368750Y-13525000D01*
X22344858Y-13523826D01*
X22321197Y-13520316D01*
X22297993Y-13514504D01*
X22275471Y-13506446D01*
X22253847Y-13496218D01*
X22233330Y-13483921D01*
X22214117Y-13469671D01*
X22196393Y-13453607D01*
X22180329Y-13435883D01*
X22166079Y-13416670D01*
X22153782Y-13396153D01*
X22143554Y-13374529D01*
X22135496Y-13352007D01*
X22129684Y-13328803D01*
X22126174Y-13305142D01*
X22125000Y-13281250D01*
X22125000Y-12718750D01*
X22126174Y-12694858D01*
X22129684Y-12671197D01*
X22135496Y-12647993D01*
X22143554Y-12625471D01*
X22153782Y-12603847D01*
X22166079Y-12583330D01*
X22180329Y-12564117D01*
X22196393Y-12546393D01*
X22214117Y-12530329D01*
X22233330Y-12516079D01*
X22253847Y-12503782D01*
X22275471Y-12493554D01*
X22297993Y-12485496D01*
X22321197Y-12479684D01*
X22344858Y-12476174D01*
X22368750Y-12475000D01*
X22856250Y-12475000D01*
X22880142Y-12476174D01*
G37*
G36*
X24455142Y-12476174D02*
G01*
X24478803Y-12479684D01*
X24502007Y-12485496D01*
X24524529Y-12493554D01*
X24546153Y-12503782D01*
X24566670Y-12516079D01*
X24585883Y-12530329D01*
X24603607Y-12546393D01*
X24619671Y-12564117D01*
X24633921Y-12583330D01*
X24646218Y-12603847D01*
X24656446Y-12625471D01*
X24664504Y-12647993D01*
X24670316Y-12671197D01*
X24673826Y-12694858D01*
X24675000Y-12718750D01*
X24675000Y-13281250D01*
X24673826Y-13305142D01*
X24670316Y-13328803D01*
X24664504Y-13352007D01*
X24656446Y-13374529D01*
X24646218Y-13396153D01*
X24633921Y-13416670D01*
X24619671Y-13435883D01*
X24603607Y-13453607D01*
X24585883Y-13469671D01*
X24566670Y-13483921D01*
X24546153Y-13496218D01*
X24524529Y-13506446D01*
X24502007Y-13514504D01*
X24478803Y-13520316D01*
X24455142Y-13523826D01*
X24431250Y-13525000D01*
X23943750Y-13525000D01*
X23919858Y-13523826D01*
X23896197Y-13520316D01*
X23872993Y-13514504D01*
X23850471Y-13506446D01*
X23828847Y-13496218D01*
X23808330Y-13483921D01*
X23789117Y-13469671D01*
X23771393Y-13453607D01*
X23755329Y-13435883D01*
X23741079Y-13416670D01*
X23728782Y-13396153D01*
X23718554Y-13374529D01*
X23710496Y-13352007D01*
X23704684Y-13328803D01*
X23701174Y-13305142D01*
X23700000Y-13281250D01*
X23700000Y-12718750D01*
X23701174Y-12694858D01*
X23704684Y-12671197D01*
X23710496Y-12647993D01*
X23718554Y-12625471D01*
X23728782Y-12603847D01*
X23741079Y-12583330D01*
X23755329Y-12564117D01*
X23771393Y-12546393D01*
X23789117Y-12530329D01*
X23808330Y-12516079D01*
X23828847Y-12503782D01*
X23850471Y-12493554D01*
X23872993Y-12485496D01*
X23896197Y-12479684D01*
X23919858Y-12476174D01*
X23943750Y-12475000D01*
X24431250Y-12475000D01*
X24455142Y-12476174D01*
G37*
G36*
X16480142Y-23276174D02*
G01*
X16503803Y-23279684D01*
X16527007Y-23285496D01*
X16549529Y-23293554D01*
X16571153Y-23303782D01*
X16591670Y-23316079D01*
X16610883Y-23330329D01*
X16628607Y-23346393D01*
X16644671Y-23364117D01*
X16658921Y-23383330D01*
X16671218Y-23403847D01*
X16681446Y-23425471D01*
X16689504Y-23447993D01*
X16695316Y-23471197D01*
X16698826Y-23494858D01*
X16700000Y-23518750D01*
X16700000Y-24081250D01*
X16698826Y-24105142D01*
X16695316Y-24128803D01*
X16689504Y-24152007D01*
X16681446Y-24174529D01*
X16671218Y-24196153D01*
X16658921Y-24216670D01*
X16644671Y-24235883D01*
X16628607Y-24253607D01*
X16610883Y-24269671D01*
X16591670Y-24283921D01*
X16571153Y-24296218D01*
X16549529Y-24306446D01*
X16527007Y-24314504D01*
X16503803Y-24320316D01*
X16480142Y-24323826D01*
X16456250Y-24325000D01*
X15968750Y-24325000D01*
X15944858Y-24323826D01*
X15921197Y-24320316D01*
X15897993Y-24314504D01*
X15875471Y-24306446D01*
X15853847Y-24296218D01*
X15833330Y-24283921D01*
X15814117Y-24269671D01*
X15796393Y-24253607D01*
X15780329Y-24235883D01*
X15766079Y-24216670D01*
X15753782Y-24196153D01*
X15743554Y-24174529D01*
X15735496Y-24152007D01*
X15729684Y-24128803D01*
X15726174Y-24105142D01*
X15725000Y-24081250D01*
X15725000Y-23518750D01*
X15726174Y-23494858D01*
X15729684Y-23471197D01*
X15735496Y-23447993D01*
X15743554Y-23425471D01*
X15753782Y-23403847D01*
X15766079Y-23383330D01*
X15780329Y-23364117D01*
X15796393Y-23346393D01*
X15814117Y-23330329D01*
X15833330Y-23316079D01*
X15853847Y-23303782D01*
X15875471Y-23293554D01*
X15897993Y-23285496D01*
X15921197Y-23279684D01*
X15944858Y-23276174D01*
X15968750Y-23275000D01*
X16456250Y-23275000D01*
X16480142Y-23276174D01*
G37*
G36*
X18055142Y-23276174D02*
G01*
X18078803Y-23279684D01*
X18102007Y-23285496D01*
X18124529Y-23293554D01*
X18146153Y-23303782D01*
X18166670Y-23316079D01*
X18185883Y-23330329D01*
X18203607Y-23346393D01*
X18219671Y-23364117D01*
X18233921Y-23383330D01*
X18246218Y-23403847D01*
X18256446Y-23425471D01*
X18264504Y-23447993D01*
X18270316Y-23471197D01*
X18273826Y-23494858D01*
X18275000Y-23518750D01*
X18275000Y-24081250D01*
X18273826Y-24105142D01*
X18270316Y-24128803D01*
X18264504Y-24152007D01*
X18256446Y-24174529D01*
X18246218Y-24196153D01*
X18233921Y-24216670D01*
X18219671Y-24235883D01*
X18203607Y-24253607D01*
X18185883Y-24269671D01*
X18166670Y-24283921D01*
X18146153Y-24296218D01*
X18124529Y-24306446D01*
X18102007Y-24314504D01*
X18078803Y-24320316D01*
X18055142Y-24323826D01*
X18031250Y-24325000D01*
X17543750Y-24325000D01*
X17519858Y-24323826D01*
X17496197Y-24320316D01*
X17472993Y-24314504D01*
X17450471Y-24306446D01*
X17428847Y-24296218D01*
X17408330Y-24283921D01*
X17389117Y-24269671D01*
X17371393Y-24253607D01*
X17355329Y-24235883D01*
X17341079Y-24216670D01*
X17328782Y-24196153D01*
X17318554Y-24174529D01*
X17310496Y-24152007D01*
X17304684Y-24128803D01*
X17301174Y-24105142D01*
X17300000Y-24081250D01*
X17300000Y-23518750D01*
X17301174Y-23494858D01*
X17304684Y-23471197D01*
X17310496Y-23447993D01*
X17318554Y-23425471D01*
X17328782Y-23403847D01*
X17341079Y-23383330D01*
X17355329Y-23364117D01*
X17371393Y-23346393D01*
X17389117Y-23330329D01*
X17408330Y-23316079D01*
X17428847Y-23303782D01*
X17450471Y-23293554D01*
X17472993Y-23285496D01*
X17496197Y-23279684D01*
X17519858Y-23276174D01*
X17543750Y-23275000D01*
X18031250Y-23275000D01*
X18055142Y-23276174D01*
G37*
G36*
X16055142Y-14776174D02*
G01*
X16078803Y-14779684D01*
X16102007Y-14785496D01*
X16124529Y-14793554D01*
X16146153Y-14803782D01*
X16166670Y-14816079D01*
X16185883Y-14830329D01*
X16203607Y-14846393D01*
X16219671Y-14864117D01*
X16233921Y-14883330D01*
X16246218Y-14903847D01*
X16256446Y-14925471D01*
X16264504Y-14947993D01*
X16270316Y-14971197D01*
X16273826Y-14994858D01*
X16275000Y-15018750D01*
X16275000Y-15581250D01*
X16273826Y-15605142D01*
X16270316Y-15628803D01*
X16264504Y-15652007D01*
X16256446Y-15674529D01*
X16246218Y-15696153D01*
X16233921Y-15716670D01*
X16219671Y-15735883D01*
X16203607Y-15753607D01*
X16185883Y-15769671D01*
X16166670Y-15783921D01*
X16146153Y-15796218D01*
X16124529Y-15806446D01*
X16102007Y-15814504D01*
X16078803Y-15820316D01*
X16055142Y-15823826D01*
X16031250Y-15825000D01*
X15543750Y-15825000D01*
X15519858Y-15823826D01*
X15496197Y-15820316D01*
X15472993Y-15814504D01*
X15450471Y-15806446D01*
X15428847Y-15796218D01*
X15408330Y-15783921D01*
X15389117Y-15769671D01*
X15371393Y-15753607D01*
X15355329Y-15735883D01*
X15341079Y-15716670D01*
X15328782Y-15696153D01*
X15318554Y-15674529D01*
X15310496Y-15652007D01*
X15304684Y-15628803D01*
X15301174Y-15605142D01*
X15300000Y-15581250D01*
X15300000Y-15018750D01*
X15301174Y-14994858D01*
X15304684Y-14971197D01*
X15310496Y-14947993D01*
X15318554Y-14925471D01*
X15328782Y-14903847D01*
X15341079Y-14883330D01*
X15355329Y-14864117D01*
X15371393Y-14846393D01*
X15389117Y-14830329D01*
X15408330Y-14816079D01*
X15428847Y-14803782D01*
X15450471Y-14793554D01*
X15472993Y-14785496D01*
X15496197Y-14779684D01*
X15519858Y-14776174D01*
X15543750Y-14775000D01*
X16031250Y-14775000D01*
X16055142Y-14776174D01*
G37*
G36*
X14480142Y-14776174D02*
G01*
X14503803Y-14779684D01*
X14527007Y-14785496D01*
X14549529Y-14793554D01*
X14571153Y-14803782D01*
X14591670Y-14816079D01*
X14610883Y-14830329D01*
X14628607Y-14846393D01*
X14644671Y-14864117D01*
X14658921Y-14883330D01*
X14671218Y-14903847D01*
X14681446Y-14925471D01*
X14689504Y-14947993D01*
X14695316Y-14971197D01*
X14698826Y-14994858D01*
X14700000Y-15018750D01*
X14700000Y-15581250D01*
X14698826Y-15605142D01*
X14695316Y-15628803D01*
X14689504Y-15652007D01*
X14681446Y-15674529D01*
X14671218Y-15696153D01*
X14658921Y-15716670D01*
X14644671Y-15735883D01*
X14628607Y-15753607D01*
X14610883Y-15769671D01*
X14591670Y-15783921D01*
X14571153Y-15796218D01*
X14549529Y-15806446D01*
X14527007Y-15814504D01*
X14503803Y-15820316D01*
X14480142Y-15823826D01*
X14456250Y-15825000D01*
X13968750Y-15825000D01*
X13944858Y-15823826D01*
X13921197Y-15820316D01*
X13897993Y-15814504D01*
X13875471Y-15806446D01*
X13853847Y-15796218D01*
X13833330Y-15783921D01*
X13814117Y-15769671D01*
X13796393Y-15753607D01*
X13780329Y-15735883D01*
X13766079Y-15716670D01*
X13753782Y-15696153D01*
X13743554Y-15674529D01*
X13735496Y-15652007D01*
X13729684Y-15628803D01*
X13726174Y-15605142D01*
X13725000Y-15581250D01*
X13725000Y-15018750D01*
X13726174Y-14994858D01*
X13729684Y-14971197D01*
X13735496Y-14947993D01*
X13743554Y-14925471D01*
X13753782Y-14903847D01*
X13766079Y-14883330D01*
X13780329Y-14864117D01*
X13796393Y-14846393D01*
X13814117Y-14830329D01*
X13833330Y-14816079D01*
X13853847Y-14803782D01*
X13875471Y-14793554D01*
X13897993Y-14785496D01*
X13921197Y-14779684D01*
X13944858Y-14776174D01*
X13968750Y-14775000D01*
X14456250Y-14775000D01*
X14480142Y-14776174D01*
G37*
G36*
X24455142Y-13976174D02*
G01*
X24478803Y-13979684D01*
X24502007Y-13985496D01*
X24524529Y-13993554D01*
X24546153Y-14003782D01*
X24566670Y-14016079D01*
X24585883Y-14030329D01*
X24603607Y-14046393D01*
X24619671Y-14064117D01*
X24633921Y-14083330D01*
X24646218Y-14103847D01*
X24656446Y-14125471D01*
X24664504Y-14147993D01*
X24670316Y-14171197D01*
X24673826Y-14194858D01*
X24675000Y-14218750D01*
X24675000Y-14781250D01*
X24673826Y-14805142D01*
X24670316Y-14828803D01*
X24664504Y-14852007D01*
X24656446Y-14874529D01*
X24646218Y-14896153D01*
X24633921Y-14916670D01*
X24619671Y-14935883D01*
X24603607Y-14953607D01*
X24585883Y-14969671D01*
X24566670Y-14983921D01*
X24546153Y-14996218D01*
X24524529Y-15006446D01*
X24502007Y-15014504D01*
X24478803Y-15020316D01*
X24455142Y-15023826D01*
X24431250Y-15025000D01*
X23943750Y-15025000D01*
X23919858Y-15023826D01*
X23896197Y-15020316D01*
X23872993Y-15014504D01*
X23850471Y-15006446D01*
X23828847Y-14996218D01*
X23808330Y-14983921D01*
X23789117Y-14969671D01*
X23771393Y-14953607D01*
X23755329Y-14935883D01*
X23741079Y-14916670D01*
X23728782Y-14896153D01*
X23718554Y-14874529D01*
X23710496Y-14852007D01*
X23704684Y-14828803D01*
X23701174Y-14805142D01*
X23700000Y-14781250D01*
X23700000Y-14218750D01*
X23701174Y-14194858D01*
X23704684Y-14171197D01*
X23710496Y-14147993D01*
X23718554Y-14125471D01*
X23728782Y-14103847D01*
X23741079Y-14083330D01*
X23755329Y-14064117D01*
X23771393Y-14046393D01*
X23789117Y-14030329D01*
X23808330Y-14016079D01*
X23828847Y-14003782D01*
X23850471Y-13993554D01*
X23872993Y-13985496D01*
X23896197Y-13979684D01*
X23919858Y-13976174D01*
X23943750Y-13975000D01*
X24431250Y-13975000D01*
X24455142Y-13976174D01*
G37*
G36*
X22880142Y-13976174D02*
G01*
X22903803Y-13979684D01*
X22927007Y-13985496D01*
X22949529Y-13993554D01*
X22971153Y-14003782D01*
X22991670Y-14016079D01*
X23010883Y-14030329D01*
X23028607Y-14046393D01*
X23044671Y-14064117D01*
X23058921Y-14083330D01*
X23071218Y-14103847D01*
X23081446Y-14125471D01*
X23089504Y-14147993D01*
X23095316Y-14171197D01*
X23098826Y-14194858D01*
X23100000Y-14218750D01*
X23100000Y-14781250D01*
X23098826Y-14805142D01*
X23095316Y-14828803D01*
X23089504Y-14852007D01*
X23081446Y-14874529D01*
X23071218Y-14896153D01*
X23058921Y-14916670D01*
X23044671Y-14935883D01*
X23028607Y-14953607D01*
X23010883Y-14969671D01*
X22991670Y-14983921D01*
X22971153Y-14996218D01*
X22949529Y-15006446D01*
X22927007Y-15014504D01*
X22903803Y-15020316D01*
X22880142Y-15023826D01*
X22856250Y-15025000D01*
X22368750Y-15025000D01*
X22344858Y-15023826D01*
X22321197Y-15020316D01*
X22297993Y-15014504D01*
X22275471Y-15006446D01*
X22253847Y-14996218D01*
X22233330Y-14983921D01*
X22214117Y-14969671D01*
X22196393Y-14953607D01*
X22180329Y-14935883D01*
X22166079Y-14916670D01*
X22153782Y-14896153D01*
X22143554Y-14874529D01*
X22135496Y-14852007D01*
X22129684Y-14828803D01*
X22126174Y-14805142D01*
X22125000Y-14781250D01*
X22125000Y-14218750D01*
X22126174Y-14194858D01*
X22129684Y-14171197D01*
X22135496Y-14147993D01*
X22143554Y-14125471D01*
X22153782Y-14103847D01*
X22166079Y-14083330D01*
X22180329Y-14064117D01*
X22196393Y-14046393D01*
X22214117Y-14030329D01*
X22233330Y-14016079D01*
X22253847Y-14003782D01*
X22275471Y-13993554D01*
X22297993Y-13985496D01*
X22321197Y-13979684D01*
X22344858Y-13976174D01*
X22368750Y-13975000D01*
X22856250Y-13975000D01*
X22880142Y-13976174D01*
G37*
G36*
X14480142Y-18276174D02*
G01*
X14503803Y-18279684D01*
X14527007Y-18285496D01*
X14549529Y-18293554D01*
X14571153Y-18303782D01*
X14591670Y-18316079D01*
X14610883Y-18330329D01*
X14628607Y-18346393D01*
X14644671Y-18364117D01*
X14658921Y-18383330D01*
X14671218Y-18403847D01*
X14681446Y-18425471D01*
X14689504Y-18447993D01*
X14695316Y-18471197D01*
X14698826Y-18494858D01*
X14700000Y-18518750D01*
X14700000Y-19081250D01*
X14698826Y-19105142D01*
X14695316Y-19128803D01*
X14689504Y-19152007D01*
X14681446Y-19174529D01*
X14671218Y-19196153D01*
X14658921Y-19216670D01*
X14644671Y-19235883D01*
X14628607Y-19253607D01*
X14610883Y-19269671D01*
X14591670Y-19283921D01*
X14571153Y-19296218D01*
X14549529Y-19306446D01*
X14527007Y-19314504D01*
X14503803Y-19320316D01*
X14480142Y-19323826D01*
X14456250Y-19325000D01*
X13968750Y-19325000D01*
X13944858Y-19323826D01*
X13921197Y-19320316D01*
X13897993Y-19314504D01*
X13875471Y-19306446D01*
X13853847Y-19296218D01*
X13833330Y-19283921D01*
X13814117Y-19269671D01*
X13796393Y-19253607D01*
X13780329Y-19235883D01*
X13766079Y-19216670D01*
X13753782Y-19196153D01*
X13743554Y-19174529D01*
X13735496Y-19152007D01*
X13729684Y-19128803D01*
X13726174Y-19105142D01*
X13725000Y-19081250D01*
X13725000Y-18518750D01*
X13726174Y-18494858D01*
X13729684Y-18471197D01*
X13735496Y-18447993D01*
X13743554Y-18425471D01*
X13753782Y-18403847D01*
X13766079Y-18383330D01*
X13780329Y-18364117D01*
X13796393Y-18346393D01*
X13814117Y-18330329D01*
X13833330Y-18316079D01*
X13853847Y-18303782D01*
X13875471Y-18293554D01*
X13897993Y-18285496D01*
X13921197Y-18279684D01*
X13944858Y-18276174D01*
X13968750Y-18275000D01*
X14456250Y-18275000D01*
X14480142Y-18276174D01*
G37*
G36*
X16055142Y-18276174D02*
G01*
X16078803Y-18279684D01*
X16102007Y-18285496D01*
X16124529Y-18293554D01*
X16146153Y-18303782D01*
X16166670Y-18316079D01*
X16185883Y-18330329D01*
X16203607Y-18346393D01*
X16219671Y-18364117D01*
X16233921Y-18383330D01*
X16246218Y-18403847D01*
X16256446Y-18425471D01*
X16264504Y-18447993D01*
X16270316Y-18471197D01*
X16273826Y-18494858D01*
X16275000Y-18518750D01*
X16275000Y-19081250D01*
X16273826Y-19105142D01*
X16270316Y-19128803D01*
X16264504Y-19152007D01*
X16256446Y-19174529D01*
X16246218Y-19196153D01*
X16233921Y-19216670D01*
X16219671Y-19235883D01*
X16203607Y-19253607D01*
X16185883Y-19269671D01*
X16166670Y-19283921D01*
X16146153Y-19296218D01*
X16124529Y-19306446D01*
X16102007Y-19314504D01*
X16078803Y-19320316D01*
X16055142Y-19323826D01*
X16031250Y-19325000D01*
X15543750Y-19325000D01*
X15519858Y-19323826D01*
X15496197Y-19320316D01*
X15472993Y-19314504D01*
X15450471Y-19306446D01*
X15428847Y-19296218D01*
X15408330Y-19283921D01*
X15389117Y-19269671D01*
X15371393Y-19253607D01*
X15355329Y-19235883D01*
X15341079Y-19216670D01*
X15328782Y-19196153D01*
X15318554Y-19174529D01*
X15310496Y-19152007D01*
X15304684Y-19128803D01*
X15301174Y-19105142D01*
X15300000Y-19081250D01*
X15300000Y-18518750D01*
X15301174Y-18494858D01*
X15304684Y-18471197D01*
X15310496Y-18447993D01*
X15318554Y-18425471D01*
X15328782Y-18403847D01*
X15341079Y-18383330D01*
X15355329Y-18364117D01*
X15371393Y-18346393D01*
X15389117Y-18330329D01*
X15408330Y-18316079D01*
X15428847Y-18303782D01*
X15450471Y-18293554D01*
X15472993Y-18285496D01*
X15496197Y-18279684D01*
X15519858Y-18276174D01*
X15543750Y-18275000D01*
X16031250Y-18275000D01*
X16055142Y-18276174D01*
G37*
G36*
X16480142Y-9676174D02*
G01*
X16503803Y-9679684D01*
X16527007Y-9685496D01*
X16549529Y-9693554D01*
X16571153Y-9703782D01*
X16591670Y-9716079D01*
X16610883Y-9730329D01*
X16628607Y-9746393D01*
X16644671Y-9764117D01*
X16658921Y-9783330D01*
X16671218Y-9803847D01*
X16681446Y-9825471D01*
X16689504Y-9847993D01*
X16695316Y-9871197D01*
X16698826Y-9894858D01*
X16700000Y-9918750D01*
X16700000Y-10481250D01*
X16698826Y-10505142D01*
X16695316Y-10528803D01*
X16689504Y-10552007D01*
X16681446Y-10574529D01*
X16671218Y-10596153D01*
X16658921Y-10616670D01*
X16644671Y-10635883D01*
X16628607Y-10653607D01*
X16610883Y-10669671D01*
X16591670Y-10683921D01*
X16571153Y-10696218D01*
X16549529Y-10706446D01*
X16527007Y-10714504D01*
X16503803Y-10720316D01*
X16480142Y-10723826D01*
X16456250Y-10725000D01*
X15968750Y-10725000D01*
X15944858Y-10723826D01*
X15921197Y-10720316D01*
X15897993Y-10714504D01*
X15875471Y-10706446D01*
X15853847Y-10696218D01*
X15833330Y-10683921D01*
X15814117Y-10669671D01*
X15796393Y-10653607D01*
X15780329Y-10635883D01*
X15766079Y-10616670D01*
X15753782Y-10596153D01*
X15743554Y-10574529D01*
X15735496Y-10552007D01*
X15729684Y-10528803D01*
X15726174Y-10505142D01*
X15725000Y-10481250D01*
X15725000Y-9918750D01*
X15726174Y-9894858D01*
X15729684Y-9871197D01*
X15735496Y-9847993D01*
X15743554Y-9825471D01*
X15753782Y-9803847D01*
X15766079Y-9783330D01*
X15780329Y-9764117D01*
X15796393Y-9746393D01*
X15814117Y-9730329D01*
X15833330Y-9716079D01*
X15853847Y-9703782D01*
X15875471Y-9693554D01*
X15897993Y-9685496D01*
X15921197Y-9679684D01*
X15944858Y-9676174D01*
X15968750Y-9675000D01*
X16456250Y-9675000D01*
X16480142Y-9676174D01*
G37*
G36*
X18055142Y-9676174D02*
G01*
X18078803Y-9679684D01*
X18102007Y-9685496D01*
X18124529Y-9693554D01*
X18146153Y-9703782D01*
X18166670Y-9716079D01*
X18185883Y-9730329D01*
X18203607Y-9746393D01*
X18219671Y-9764117D01*
X18233921Y-9783330D01*
X18246218Y-9803847D01*
X18256446Y-9825471D01*
X18264504Y-9847993D01*
X18270316Y-9871197D01*
X18273826Y-9894858D01*
X18275000Y-9918750D01*
X18275000Y-10481250D01*
X18273826Y-10505142D01*
X18270316Y-10528803D01*
X18264504Y-10552007D01*
X18256446Y-10574529D01*
X18246218Y-10596153D01*
X18233921Y-10616670D01*
X18219671Y-10635883D01*
X18203607Y-10653607D01*
X18185883Y-10669671D01*
X18166670Y-10683921D01*
X18146153Y-10696218D01*
X18124529Y-10706446D01*
X18102007Y-10714504D01*
X18078803Y-10720316D01*
X18055142Y-10723826D01*
X18031250Y-10725000D01*
X17543750Y-10725000D01*
X17519858Y-10723826D01*
X17496197Y-10720316D01*
X17472993Y-10714504D01*
X17450471Y-10706446D01*
X17428847Y-10696218D01*
X17408330Y-10683921D01*
X17389117Y-10669671D01*
X17371393Y-10653607D01*
X17355329Y-10635883D01*
X17341079Y-10616670D01*
X17328782Y-10596153D01*
X17318554Y-10574529D01*
X17310496Y-10552007D01*
X17304684Y-10528803D01*
X17301174Y-10505142D01*
X17300000Y-10481250D01*
X17300000Y-9918750D01*
X17301174Y-9894858D01*
X17304684Y-9871197D01*
X17310496Y-9847993D01*
X17318554Y-9825471D01*
X17328782Y-9803847D01*
X17341079Y-9783330D01*
X17355329Y-9764117D01*
X17371393Y-9746393D01*
X17389117Y-9730329D01*
X17408330Y-9716079D01*
X17428847Y-9703782D01*
X17450471Y-9693554D01*
X17472993Y-9685496D01*
X17496197Y-9679684D01*
X17519858Y-9676174D01*
X17543750Y-9675000D01*
X18031250Y-9675000D01*
X18055142Y-9676174D01*
G37*
M02*
