G04 #@! TF.GenerationSoftware,KiCad,Pcbnew,5.1.5+dfsg1-2build2*
G04 #@! TF.CreationDate,2021-01-13T09:20:08+02:00*
G04 #@! TF.ProjectId,differential-tweezer,64696666-6572-4656-9e74-69616c2d7477,rev?*
G04 #@! TF.SameCoordinates,Original*
G04 #@! TF.FileFunction,Copper,L4,Bot*
G04 #@! TF.FilePolarity,Positive*
%FSLAX46Y46*%
G04 Gerber Fmt 4.6, Leading zero omitted, Abs format (unit mm)*
G04 Created by KiCad (PCBNEW 5.1.5+dfsg1-2build2) date 2021-01-13 09:20:08*
%MOMM*%
%LPD*%
G04 APERTURE LIST*
%ADD10C,2.600000*%
%ADD11C,0.500000*%
%ADD12O,3.000000X1.500000*%
%ADD13C,1.500000*%
%ADD14O,1.700000X1.700000*%
%ADD15C,1.700000*%
%ADD16R,1.700000X3.300000*%
%ADD17R,0.700000X0.250000*%
%ADD18C,0.350000*%
%ADD19R,2.200000X3.900000*%
%ADD20R,0.900000X1.200000*%
%ADD21C,0.600000*%
%ADD22C,0.400000*%
%ADD23C,0.250000*%
%ADD24C,0.200000*%
%ADD25C,0.300000*%
%ADD26C,1.100000*%
%ADD27O,2.000000X0.750000*%
%ADD28C,0.350000*%
G04 APERTURE END LIST*
D10*
X21051188Y-8431946D02*
X24948812Y-8568054D01*
X21151188Y-25568054D02*
X25048812Y-25431946D01*
D11*
X18000000Y-7000000D03*
X36000000Y-22000000D03*
D12*
X35100000Y-18800000D03*
X35100000Y-15200000D03*
D13*
X32500000Y-17000000D03*
D12*
X36800000Y-12000000D03*
D14*
X29720000Y-17100000D03*
X27180000Y-17100000D03*
X24640000Y-17100000D03*
D15*
X22100000Y-17100000D03*
D16*
X17950000Y-17050000D03*
D17*
X16500000Y-15800000D03*
X16500000Y-16300000D03*
X16500000Y-16800000D03*
X16500000Y-17300000D03*
X16500000Y-17800000D03*
X16500000Y-18300000D03*
X19400000Y-18300000D03*
X19400000Y-17800000D03*
X19400000Y-17300000D03*
X19400000Y-16800000D03*
X19400000Y-16300000D03*
X19400000Y-15800000D03*
G04 #@! TA.AperFunction,SMDPad,CuDef*
D18*
G36*
X15427691Y-18226053D02*
G01*
X15448926Y-18229203D01*
X15469750Y-18234419D01*
X15489962Y-18241651D01*
X15509368Y-18250830D01*
X15527781Y-18261866D01*
X15545024Y-18274654D01*
X15560930Y-18289070D01*
X15575346Y-18304976D01*
X15588134Y-18322219D01*
X15599170Y-18340632D01*
X15608349Y-18360038D01*
X15615581Y-18380250D01*
X15620797Y-18401074D01*
X15623947Y-18422309D01*
X15625000Y-18443750D01*
X15625000Y-18956250D01*
X15623947Y-18977691D01*
X15620797Y-18998926D01*
X15615581Y-19019750D01*
X15608349Y-19039962D01*
X15599170Y-19059368D01*
X15588134Y-19077781D01*
X15575346Y-19095024D01*
X15560930Y-19110930D01*
X15545024Y-19125346D01*
X15527781Y-19138134D01*
X15509368Y-19149170D01*
X15489962Y-19158349D01*
X15469750Y-19165581D01*
X15448926Y-19170797D01*
X15427691Y-19173947D01*
X15406250Y-19175000D01*
X14968750Y-19175000D01*
X14947309Y-19173947D01*
X14926074Y-19170797D01*
X14905250Y-19165581D01*
X14885038Y-19158349D01*
X14865632Y-19149170D01*
X14847219Y-19138134D01*
X14829976Y-19125346D01*
X14814070Y-19110930D01*
X14799654Y-19095024D01*
X14786866Y-19077781D01*
X14775830Y-19059368D01*
X14766651Y-19039962D01*
X14759419Y-19019750D01*
X14754203Y-18998926D01*
X14751053Y-18977691D01*
X14750000Y-18956250D01*
X14750000Y-18443750D01*
X14751053Y-18422309D01*
X14754203Y-18401074D01*
X14759419Y-18380250D01*
X14766651Y-18360038D01*
X14775830Y-18340632D01*
X14786866Y-18322219D01*
X14799654Y-18304976D01*
X14814070Y-18289070D01*
X14829976Y-18274654D01*
X14847219Y-18261866D01*
X14865632Y-18250830D01*
X14885038Y-18241651D01*
X14905250Y-18234419D01*
X14926074Y-18229203D01*
X14947309Y-18226053D01*
X14968750Y-18225000D01*
X15406250Y-18225000D01*
X15427691Y-18226053D01*
G37*
G04 #@! TD.AperFunction*
G04 #@! TA.AperFunction,SMDPad,CuDef*
G36*
X13852691Y-18226053D02*
G01*
X13873926Y-18229203D01*
X13894750Y-18234419D01*
X13914962Y-18241651D01*
X13934368Y-18250830D01*
X13952781Y-18261866D01*
X13970024Y-18274654D01*
X13985930Y-18289070D01*
X14000346Y-18304976D01*
X14013134Y-18322219D01*
X14024170Y-18340632D01*
X14033349Y-18360038D01*
X14040581Y-18380250D01*
X14045797Y-18401074D01*
X14048947Y-18422309D01*
X14050000Y-18443750D01*
X14050000Y-18956250D01*
X14048947Y-18977691D01*
X14045797Y-18998926D01*
X14040581Y-19019750D01*
X14033349Y-19039962D01*
X14024170Y-19059368D01*
X14013134Y-19077781D01*
X14000346Y-19095024D01*
X13985930Y-19110930D01*
X13970024Y-19125346D01*
X13952781Y-19138134D01*
X13934368Y-19149170D01*
X13914962Y-19158349D01*
X13894750Y-19165581D01*
X13873926Y-19170797D01*
X13852691Y-19173947D01*
X13831250Y-19175000D01*
X13393750Y-19175000D01*
X13372309Y-19173947D01*
X13351074Y-19170797D01*
X13330250Y-19165581D01*
X13310038Y-19158349D01*
X13290632Y-19149170D01*
X13272219Y-19138134D01*
X13254976Y-19125346D01*
X13239070Y-19110930D01*
X13224654Y-19095024D01*
X13211866Y-19077781D01*
X13200830Y-19059368D01*
X13191651Y-19039962D01*
X13184419Y-19019750D01*
X13179203Y-18998926D01*
X13176053Y-18977691D01*
X13175000Y-18956250D01*
X13175000Y-18443750D01*
X13176053Y-18422309D01*
X13179203Y-18401074D01*
X13184419Y-18380250D01*
X13191651Y-18360038D01*
X13200830Y-18340632D01*
X13211866Y-18322219D01*
X13224654Y-18304976D01*
X13239070Y-18289070D01*
X13254976Y-18274654D01*
X13272219Y-18261866D01*
X13290632Y-18250830D01*
X13310038Y-18241651D01*
X13330250Y-18234419D01*
X13351074Y-18229203D01*
X13372309Y-18226053D01*
X13393750Y-18225000D01*
X13831250Y-18225000D01*
X13852691Y-18226053D01*
G37*
G04 #@! TD.AperFunction*
G04 #@! TA.AperFunction,SMDPad,CuDef*
G36*
X12377691Y-18476053D02*
G01*
X12398926Y-18479203D01*
X12419750Y-18484419D01*
X12439962Y-18491651D01*
X12459368Y-18500830D01*
X12477781Y-18511866D01*
X12495024Y-18524654D01*
X12510930Y-18539070D01*
X12525346Y-18554976D01*
X12538134Y-18572219D01*
X12549170Y-18590632D01*
X12558349Y-18610038D01*
X12565581Y-18630250D01*
X12570797Y-18651074D01*
X12573947Y-18672309D01*
X12575000Y-18693750D01*
X12575000Y-19131250D01*
X12573947Y-19152691D01*
X12570797Y-19173926D01*
X12565581Y-19194750D01*
X12558349Y-19214962D01*
X12549170Y-19234368D01*
X12538134Y-19252781D01*
X12525346Y-19270024D01*
X12510930Y-19285930D01*
X12495024Y-19300346D01*
X12477781Y-19313134D01*
X12459368Y-19324170D01*
X12439962Y-19333349D01*
X12419750Y-19340581D01*
X12398926Y-19345797D01*
X12377691Y-19348947D01*
X12356250Y-19350000D01*
X11843750Y-19350000D01*
X11822309Y-19348947D01*
X11801074Y-19345797D01*
X11780250Y-19340581D01*
X11760038Y-19333349D01*
X11740632Y-19324170D01*
X11722219Y-19313134D01*
X11704976Y-19300346D01*
X11689070Y-19285930D01*
X11674654Y-19270024D01*
X11661866Y-19252781D01*
X11650830Y-19234368D01*
X11641651Y-19214962D01*
X11634419Y-19194750D01*
X11629203Y-19173926D01*
X11626053Y-19152691D01*
X11625000Y-19131250D01*
X11625000Y-18693750D01*
X11626053Y-18672309D01*
X11629203Y-18651074D01*
X11634419Y-18630250D01*
X11641651Y-18610038D01*
X11650830Y-18590632D01*
X11661866Y-18572219D01*
X11674654Y-18554976D01*
X11689070Y-18539070D01*
X11704976Y-18524654D01*
X11722219Y-18511866D01*
X11740632Y-18500830D01*
X11760038Y-18491651D01*
X11780250Y-18484419D01*
X11801074Y-18479203D01*
X11822309Y-18476053D01*
X11843750Y-18475000D01*
X12356250Y-18475000D01*
X12377691Y-18476053D01*
G37*
G04 #@! TD.AperFunction*
G04 #@! TA.AperFunction,SMDPad,CuDef*
G36*
X12377691Y-20051053D02*
G01*
X12398926Y-20054203D01*
X12419750Y-20059419D01*
X12439962Y-20066651D01*
X12459368Y-20075830D01*
X12477781Y-20086866D01*
X12495024Y-20099654D01*
X12510930Y-20114070D01*
X12525346Y-20129976D01*
X12538134Y-20147219D01*
X12549170Y-20165632D01*
X12558349Y-20185038D01*
X12565581Y-20205250D01*
X12570797Y-20226074D01*
X12573947Y-20247309D01*
X12575000Y-20268750D01*
X12575000Y-20706250D01*
X12573947Y-20727691D01*
X12570797Y-20748926D01*
X12565581Y-20769750D01*
X12558349Y-20789962D01*
X12549170Y-20809368D01*
X12538134Y-20827781D01*
X12525346Y-20845024D01*
X12510930Y-20860930D01*
X12495024Y-20875346D01*
X12477781Y-20888134D01*
X12459368Y-20899170D01*
X12439962Y-20908349D01*
X12419750Y-20915581D01*
X12398926Y-20920797D01*
X12377691Y-20923947D01*
X12356250Y-20925000D01*
X11843750Y-20925000D01*
X11822309Y-20923947D01*
X11801074Y-20920797D01*
X11780250Y-20915581D01*
X11760038Y-20908349D01*
X11740632Y-20899170D01*
X11722219Y-20888134D01*
X11704976Y-20875346D01*
X11689070Y-20860930D01*
X11674654Y-20845024D01*
X11661866Y-20827781D01*
X11650830Y-20809368D01*
X11641651Y-20789962D01*
X11634419Y-20769750D01*
X11629203Y-20748926D01*
X11626053Y-20727691D01*
X11625000Y-20706250D01*
X11625000Y-20268750D01*
X11626053Y-20247309D01*
X11629203Y-20226074D01*
X11634419Y-20205250D01*
X11641651Y-20185038D01*
X11650830Y-20165632D01*
X11661866Y-20147219D01*
X11674654Y-20129976D01*
X11689070Y-20114070D01*
X11704976Y-20099654D01*
X11722219Y-20086866D01*
X11740632Y-20075830D01*
X11760038Y-20066651D01*
X11780250Y-20059419D01*
X11801074Y-20054203D01*
X11822309Y-20051053D01*
X11843750Y-20050000D01*
X12356250Y-20050000D01*
X12377691Y-20051053D01*
G37*
G04 #@! TD.AperFunction*
G04 #@! TA.AperFunction,SMDPad,CuDef*
G36*
X9377691Y-20051053D02*
G01*
X9398926Y-20054203D01*
X9419750Y-20059419D01*
X9439962Y-20066651D01*
X9459368Y-20075830D01*
X9477781Y-20086866D01*
X9495024Y-20099654D01*
X9510930Y-20114070D01*
X9525346Y-20129976D01*
X9538134Y-20147219D01*
X9549170Y-20165632D01*
X9558349Y-20185038D01*
X9565581Y-20205250D01*
X9570797Y-20226074D01*
X9573947Y-20247309D01*
X9575000Y-20268750D01*
X9575000Y-20706250D01*
X9573947Y-20727691D01*
X9570797Y-20748926D01*
X9565581Y-20769750D01*
X9558349Y-20789962D01*
X9549170Y-20809368D01*
X9538134Y-20827781D01*
X9525346Y-20845024D01*
X9510930Y-20860930D01*
X9495024Y-20875346D01*
X9477781Y-20888134D01*
X9459368Y-20899170D01*
X9439962Y-20908349D01*
X9419750Y-20915581D01*
X9398926Y-20920797D01*
X9377691Y-20923947D01*
X9356250Y-20925000D01*
X8843750Y-20925000D01*
X8822309Y-20923947D01*
X8801074Y-20920797D01*
X8780250Y-20915581D01*
X8760038Y-20908349D01*
X8740632Y-20899170D01*
X8722219Y-20888134D01*
X8704976Y-20875346D01*
X8689070Y-20860930D01*
X8674654Y-20845024D01*
X8661866Y-20827781D01*
X8650830Y-20809368D01*
X8641651Y-20789962D01*
X8634419Y-20769750D01*
X8629203Y-20748926D01*
X8626053Y-20727691D01*
X8625000Y-20706250D01*
X8625000Y-20268750D01*
X8626053Y-20247309D01*
X8629203Y-20226074D01*
X8634419Y-20205250D01*
X8641651Y-20185038D01*
X8650830Y-20165632D01*
X8661866Y-20147219D01*
X8674654Y-20129976D01*
X8689070Y-20114070D01*
X8704976Y-20099654D01*
X8722219Y-20086866D01*
X8740632Y-20075830D01*
X8760038Y-20066651D01*
X8780250Y-20059419D01*
X8801074Y-20054203D01*
X8822309Y-20051053D01*
X8843750Y-20050000D01*
X9356250Y-20050000D01*
X9377691Y-20051053D01*
G37*
G04 #@! TD.AperFunction*
G04 #@! TA.AperFunction,SMDPad,CuDef*
G36*
X9377691Y-18476053D02*
G01*
X9398926Y-18479203D01*
X9419750Y-18484419D01*
X9439962Y-18491651D01*
X9459368Y-18500830D01*
X9477781Y-18511866D01*
X9495024Y-18524654D01*
X9510930Y-18539070D01*
X9525346Y-18554976D01*
X9538134Y-18572219D01*
X9549170Y-18590632D01*
X9558349Y-18610038D01*
X9565581Y-18630250D01*
X9570797Y-18651074D01*
X9573947Y-18672309D01*
X9575000Y-18693750D01*
X9575000Y-19131250D01*
X9573947Y-19152691D01*
X9570797Y-19173926D01*
X9565581Y-19194750D01*
X9558349Y-19214962D01*
X9549170Y-19234368D01*
X9538134Y-19252781D01*
X9525346Y-19270024D01*
X9510930Y-19285930D01*
X9495024Y-19300346D01*
X9477781Y-19313134D01*
X9459368Y-19324170D01*
X9439962Y-19333349D01*
X9419750Y-19340581D01*
X9398926Y-19345797D01*
X9377691Y-19348947D01*
X9356250Y-19350000D01*
X8843750Y-19350000D01*
X8822309Y-19348947D01*
X8801074Y-19345797D01*
X8780250Y-19340581D01*
X8760038Y-19333349D01*
X8740632Y-19324170D01*
X8722219Y-19313134D01*
X8704976Y-19300346D01*
X8689070Y-19285930D01*
X8674654Y-19270024D01*
X8661866Y-19252781D01*
X8650830Y-19234368D01*
X8641651Y-19214962D01*
X8634419Y-19194750D01*
X8629203Y-19173926D01*
X8626053Y-19152691D01*
X8625000Y-19131250D01*
X8625000Y-18693750D01*
X8626053Y-18672309D01*
X8629203Y-18651074D01*
X8634419Y-18630250D01*
X8641651Y-18610038D01*
X8650830Y-18590632D01*
X8661866Y-18572219D01*
X8674654Y-18554976D01*
X8689070Y-18539070D01*
X8704976Y-18524654D01*
X8722219Y-18511866D01*
X8740632Y-18500830D01*
X8760038Y-18491651D01*
X8780250Y-18484419D01*
X8801074Y-18479203D01*
X8822309Y-18476053D01*
X8843750Y-18475000D01*
X9356250Y-18475000D01*
X9377691Y-18476053D01*
G37*
G04 #@! TD.AperFunction*
G04 #@! TA.AperFunction,SMDPad,CuDef*
G36*
X13802691Y-16126053D02*
G01*
X13823926Y-16129203D01*
X13844750Y-16134419D01*
X13864962Y-16141651D01*
X13884368Y-16150830D01*
X13902781Y-16161866D01*
X13920024Y-16174654D01*
X13935930Y-16189070D01*
X13950346Y-16204976D01*
X13963134Y-16222219D01*
X13974170Y-16240632D01*
X13983349Y-16260038D01*
X13990581Y-16280250D01*
X13995797Y-16301074D01*
X13998947Y-16322309D01*
X14000000Y-16343750D01*
X14000000Y-16856250D01*
X13998947Y-16877691D01*
X13995797Y-16898926D01*
X13990581Y-16919750D01*
X13983349Y-16939962D01*
X13974170Y-16959368D01*
X13963134Y-16977781D01*
X13950346Y-16995024D01*
X13935930Y-17010930D01*
X13920024Y-17025346D01*
X13902781Y-17038134D01*
X13884368Y-17049170D01*
X13864962Y-17058349D01*
X13844750Y-17065581D01*
X13823926Y-17070797D01*
X13802691Y-17073947D01*
X13781250Y-17075000D01*
X13343750Y-17075000D01*
X13322309Y-17073947D01*
X13301074Y-17070797D01*
X13280250Y-17065581D01*
X13260038Y-17058349D01*
X13240632Y-17049170D01*
X13222219Y-17038134D01*
X13204976Y-17025346D01*
X13189070Y-17010930D01*
X13174654Y-16995024D01*
X13161866Y-16977781D01*
X13150830Y-16959368D01*
X13141651Y-16939962D01*
X13134419Y-16919750D01*
X13129203Y-16898926D01*
X13126053Y-16877691D01*
X13125000Y-16856250D01*
X13125000Y-16343750D01*
X13126053Y-16322309D01*
X13129203Y-16301074D01*
X13134419Y-16280250D01*
X13141651Y-16260038D01*
X13150830Y-16240632D01*
X13161866Y-16222219D01*
X13174654Y-16204976D01*
X13189070Y-16189070D01*
X13204976Y-16174654D01*
X13222219Y-16161866D01*
X13240632Y-16150830D01*
X13260038Y-16141651D01*
X13280250Y-16134419D01*
X13301074Y-16129203D01*
X13322309Y-16126053D01*
X13343750Y-16125000D01*
X13781250Y-16125000D01*
X13802691Y-16126053D01*
G37*
G04 #@! TD.AperFunction*
G04 #@! TA.AperFunction,SMDPad,CuDef*
G36*
X15377691Y-16126053D02*
G01*
X15398926Y-16129203D01*
X15419750Y-16134419D01*
X15439962Y-16141651D01*
X15459368Y-16150830D01*
X15477781Y-16161866D01*
X15495024Y-16174654D01*
X15510930Y-16189070D01*
X15525346Y-16204976D01*
X15538134Y-16222219D01*
X15549170Y-16240632D01*
X15558349Y-16260038D01*
X15565581Y-16280250D01*
X15570797Y-16301074D01*
X15573947Y-16322309D01*
X15575000Y-16343750D01*
X15575000Y-16856250D01*
X15573947Y-16877691D01*
X15570797Y-16898926D01*
X15565581Y-16919750D01*
X15558349Y-16939962D01*
X15549170Y-16959368D01*
X15538134Y-16977781D01*
X15525346Y-16995024D01*
X15510930Y-17010930D01*
X15495024Y-17025346D01*
X15477781Y-17038134D01*
X15459368Y-17049170D01*
X15439962Y-17058349D01*
X15419750Y-17065581D01*
X15398926Y-17070797D01*
X15377691Y-17073947D01*
X15356250Y-17075000D01*
X14918750Y-17075000D01*
X14897309Y-17073947D01*
X14876074Y-17070797D01*
X14855250Y-17065581D01*
X14835038Y-17058349D01*
X14815632Y-17049170D01*
X14797219Y-17038134D01*
X14779976Y-17025346D01*
X14764070Y-17010930D01*
X14749654Y-16995024D01*
X14736866Y-16977781D01*
X14725830Y-16959368D01*
X14716651Y-16939962D01*
X14709419Y-16919750D01*
X14704203Y-16898926D01*
X14701053Y-16877691D01*
X14700000Y-16856250D01*
X14700000Y-16343750D01*
X14701053Y-16322309D01*
X14704203Y-16301074D01*
X14709419Y-16280250D01*
X14716651Y-16260038D01*
X14725830Y-16240632D01*
X14736866Y-16222219D01*
X14749654Y-16204976D01*
X14764070Y-16189070D01*
X14779976Y-16174654D01*
X14797219Y-16161866D01*
X14815632Y-16150830D01*
X14835038Y-16141651D01*
X14855250Y-16134419D01*
X14876074Y-16129203D01*
X14897309Y-16126053D01*
X14918750Y-16125000D01*
X15356250Y-16125000D01*
X15377691Y-16126053D01*
G37*
G04 #@! TD.AperFunction*
G04 #@! TA.AperFunction,SMDPad,CuDef*
G36*
X12377691Y-16651053D02*
G01*
X12398926Y-16654203D01*
X12419750Y-16659419D01*
X12439962Y-16666651D01*
X12459368Y-16675830D01*
X12477781Y-16686866D01*
X12495024Y-16699654D01*
X12510930Y-16714070D01*
X12525346Y-16729976D01*
X12538134Y-16747219D01*
X12549170Y-16765632D01*
X12558349Y-16785038D01*
X12565581Y-16805250D01*
X12570797Y-16826074D01*
X12573947Y-16847309D01*
X12575000Y-16868750D01*
X12575000Y-17306250D01*
X12573947Y-17327691D01*
X12570797Y-17348926D01*
X12565581Y-17369750D01*
X12558349Y-17389962D01*
X12549170Y-17409368D01*
X12538134Y-17427781D01*
X12525346Y-17445024D01*
X12510930Y-17460930D01*
X12495024Y-17475346D01*
X12477781Y-17488134D01*
X12459368Y-17499170D01*
X12439962Y-17508349D01*
X12419750Y-17515581D01*
X12398926Y-17520797D01*
X12377691Y-17523947D01*
X12356250Y-17525000D01*
X11843750Y-17525000D01*
X11822309Y-17523947D01*
X11801074Y-17520797D01*
X11780250Y-17515581D01*
X11760038Y-17508349D01*
X11740632Y-17499170D01*
X11722219Y-17488134D01*
X11704976Y-17475346D01*
X11689070Y-17460930D01*
X11674654Y-17445024D01*
X11661866Y-17427781D01*
X11650830Y-17409368D01*
X11641651Y-17389962D01*
X11634419Y-17369750D01*
X11629203Y-17348926D01*
X11626053Y-17327691D01*
X11625000Y-17306250D01*
X11625000Y-16868750D01*
X11626053Y-16847309D01*
X11629203Y-16826074D01*
X11634419Y-16805250D01*
X11641651Y-16785038D01*
X11650830Y-16765632D01*
X11661866Y-16747219D01*
X11674654Y-16729976D01*
X11689070Y-16714070D01*
X11704976Y-16699654D01*
X11722219Y-16686866D01*
X11740632Y-16675830D01*
X11760038Y-16666651D01*
X11780250Y-16659419D01*
X11801074Y-16654203D01*
X11822309Y-16651053D01*
X11843750Y-16650000D01*
X12356250Y-16650000D01*
X12377691Y-16651053D01*
G37*
G04 #@! TD.AperFunction*
G04 #@! TA.AperFunction,SMDPad,CuDef*
G36*
X12377691Y-15076053D02*
G01*
X12398926Y-15079203D01*
X12419750Y-15084419D01*
X12439962Y-15091651D01*
X12459368Y-15100830D01*
X12477781Y-15111866D01*
X12495024Y-15124654D01*
X12510930Y-15139070D01*
X12525346Y-15154976D01*
X12538134Y-15172219D01*
X12549170Y-15190632D01*
X12558349Y-15210038D01*
X12565581Y-15230250D01*
X12570797Y-15251074D01*
X12573947Y-15272309D01*
X12575000Y-15293750D01*
X12575000Y-15731250D01*
X12573947Y-15752691D01*
X12570797Y-15773926D01*
X12565581Y-15794750D01*
X12558349Y-15814962D01*
X12549170Y-15834368D01*
X12538134Y-15852781D01*
X12525346Y-15870024D01*
X12510930Y-15885930D01*
X12495024Y-15900346D01*
X12477781Y-15913134D01*
X12459368Y-15924170D01*
X12439962Y-15933349D01*
X12419750Y-15940581D01*
X12398926Y-15945797D01*
X12377691Y-15948947D01*
X12356250Y-15950000D01*
X11843750Y-15950000D01*
X11822309Y-15948947D01*
X11801074Y-15945797D01*
X11780250Y-15940581D01*
X11760038Y-15933349D01*
X11740632Y-15924170D01*
X11722219Y-15913134D01*
X11704976Y-15900346D01*
X11689070Y-15885930D01*
X11674654Y-15870024D01*
X11661866Y-15852781D01*
X11650830Y-15834368D01*
X11641651Y-15814962D01*
X11634419Y-15794750D01*
X11629203Y-15773926D01*
X11626053Y-15752691D01*
X11625000Y-15731250D01*
X11625000Y-15293750D01*
X11626053Y-15272309D01*
X11629203Y-15251074D01*
X11634419Y-15230250D01*
X11641651Y-15210038D01*
X11650830Y-15190632D01*
X11661866Y-15172219D01*
X11674654Y-15154976D01*
X11689070Y-15139070D01*
X11704976Y-15124654D01*
X11722219Y-15111866D01*
X11740632Y-15100830D01*
X11760038Y-15091651D01*
X11780250Y-15084419D01*
X11801074Y-15079203D01*
X11822309Y-15076053D01*
X11843750Y-15075000D01*
X12356250Y-15075000D01*
X12377691Y-15076053D01*
G37*
G04 #@! TD.AperFunction*
G04 #@! TA.AperFunction,SMDPad,CuDef*
G36*
X9377691Y-15076053D02*
G01*
X9398926Y-15079203D01*
X9419750Y-15084419D01*
X9439962Y-15091651D01*
X9459368Y-15100830D01*
X9477781Y-15111866D01*
X9495024Y-15124654D01*
X9510930Y-15139070D01*
X9525346Y-15154976D01*
X9538134Y-15172219D01*
X9549170Y-15190632D01*
X9558349Y-15210038D01*
X9565581Y-15230250D01*
X9570797Y-15251074D01*
X9573947Y-15272309D01*
X9575000Y-15293750D01*
X9575000Y-15731250D01*
X9573947Y-15752691D01*
X9570797Y-15773926D01*
X9565581Y-15794750D01*
X9558349Y-15814962D01*
X9549170Y-15834368D01*
X9538134Y-15852781D01*
X9525346Y-15870024D01*
X9510930Y-15885930D01*
X9495024Y-15900346D01*
X9477781Y-15913134D01*
X9459368Y-15924170D01*
X9439962Y-15933349D01*
X9419750Y-15940581D01*
X9398926Y-15945797D01*
X9377691Y-15948947D01*
X9356250Y-15950000D01*
X8843750Y-15950000D01*
X8822309Y-15948947D01*
X8801074Y-15945797D01*
X8780250Y-15940581D01*
X8760038Y-15933349D01*
X8740632Y-15924170D01*
X8722219Y-15913134D01*
X8704976Y-15900346D01*
X8689070Y-15885930D01*
X8674654Y-15870024D01*
X8661866Y-15852781D01*
X8650830Y-15834368D01*
X8641651Y-15814962D01*
X8634419Y-15794750D01*
X8629203Y-15773926D01*
X8626053Y-15752691D01*
X8625000Y-15731250D01*
X8625000Y-15293750D01*
X8626053Y-15272309D01*
X8629203Y-15251074D01*
X8634419Y-15230250D01*
X8641651Y-15210038D01*
X8650830Y-15190632D01*
X8661866Y-15172219D01*
X8674654Y-15154976D01*
X8689070Y-15139070D01*
X8704976Y-15124654D01*
X8722219Y-15111866D01*
X8740632Y-15100830D01*
X8760038Y-15091651D01*
X8780250Y-15084419D01*
X8801074Y-15079203D01*
X8822309Y-15076053D01*
X8843750Y-15075000D01*
X9356250Y-15075000D01*
X9377691Y-15076053D01*
G37*
G04 #@! TD.AperFunction*
G04 #@! TA.AperFunction,SMDPad,CuDef*
G36*
X9377691Y-16651053D02*
G01*
X9398926Y-16654203D01*
X9419750Y-16659419D01*
X9439962Y-16666651D01*
X9459368Y-16675830D01*
X9477781Y-16686866D01*
X9495024Y-16699654D01*
X9510930Y-16714070D01*
X9525346Y-16729976D01*
X9538134Y-16747219D01*
X9549170Y-16765632D01*
X9558349Y-16785038D01*
X9565581Y-16805250D01*
X9570797Y-16826074D01*
X9573947Y-16847309D01*
X9575000Y-16868750D01*
X9575000Y-17306250D01*
X9573947Y-17327691D01*
X9570797Y-17348926D01*
X9565581Y-17369750D01*
X9558349Y-17389962D01*
X9549170Y-17409368D01*
X9538134Y-17427781D01*
X9525346Y-17445024D01*
X9510930Y-17460930D01*
X9495024Y-17475346D01*
X9477781Y-17488134D01*
X9459368Y-17499170D01*
X9439962Y-17508349D01*
X9419750Y-17515581D01*
X9398926Y-17520797D01*
X9377691Y-17523947D01*
X9356250Y-17525000D01*
X8843750Y-17525000D01*
X8822309Y-17523947D01*
X8801074Y-17520797D01*
X8780250Y-17515581D01*
X8760038Y-17508349D01*
X8740632Y-17499170D01*
X8722219Y-17488134D01*
X8704976Y-17475346D01*
X8689070Y-17460930D01*
X8674654Y-17445024D01*
X8661866Y-17427781D01*
X8650830Y-17409368D01*
X8641651Y-17389962D01*
X8634419Y-17369750D01*
X8629203Y-17348926D01*
X8626053Y-17327691D01*
X8625000Y-17306250D01*
X8625000Y-16868750D01*
X8626053Y-16847309D01*
X8629203Y-16826074D01*
X8634419Y-16805250D01*
X8641651Y-16785038D01*
X8650830Y-16765632D01*
X8661866Y-16747219D01*
X8674654Y-16729976D01*
X8689070Y-16714070D01*
X8704976Y-16699654D01*
X8722219Y-16686866D01*
X8740632Y-16675830D01*
X8760038Y-16666651D01*
X8780250Y-16659419D01*
X8801074Y-16654203D01*
X8822309Y-16651053D01*
X8843750Y-16650000D01*
X9356250Y-16650000D01*
X9377691Y-16651053D01*
G37*
G04 #@! TD.AperFunction*
D19*
X22000000Y-21600000D03*
X18200000Y-21600000D03*
G04 #@! TA.AperFunction,SMDPad,CuDef*
D18*
G36*
X27027691Y-22726053D02*
G01*
X27048926Y-22729203D01*
X27069750Y-22734419D01*
X27089962Y-22741651D01*
X27109368Y-22750830D01*
X27127781Y-22761866D01*
X27145024Y-22774654D01*
X27160930Y-22789070D01*
X27175346Y-22804976D01*
X27188134Y-22822219D01*
X27199170Y-22840632D01*
X27208349Y-22860038D01*
X27215581Y-22880250D01*
X27220797Y-22901074D01*
X27223947Y-22922309D01*
X27225000Y-22943750D01*
X27225000Y-23456250D01*
X27223947Y-23477691D01*
X27220797Y-23498926D01*
X27215581Y-23519750D01*
X27208349Y-23539962D01*
X27199170Y-23559368D01*
X27188134Y-23577781D01*
X27175346Y-23595024D01*
X27160930Y-23610930D01*
X27145024Y-23625346D01*
X27127781Y-23638134D01*
X27109368Y-23649170D01*
X27089962Y-23658349D01*
X27069750Y-23665581D01*
X27048926Y-23670797D01*
X27027691Y-23673947D01*
X27006250Y-23675000D01*
X26568750Y-23675000D01*
X26547309Y-23673947D01*
X26526074Y-23670797D01*
X26505250Y-23665581D01*
X26485038Y-23658349D01*
X26465632Y-23649170D01*
X26447219Y-23638134D01*
X26429976Y-23625346D01*
X26414070Y-23610930D01*
X26399654Y-23595024D01*
X26386866Y-23577781D01*
X26375830Y-23559368D01*
X26366651Y-23539962D01*
X26359419Y-23519750D01*
X26354203Y-23498926D01*
X26351053Y-23477691D01*
X26350000Y-23456250D01*
X26350000Y-22943750D01*
X26351053Y-22922309D01*
X26354203Y-22901074D01*
X26359419Y-22880250D01*
X26366651Y-22860038D01*
X26375830Y-22840632D01*
X26386866Y-22822219D01*
X26399654Y-22804976D01*
X26414070Y-22789070D01*
X26429976Y-22774654D01*
X26447219Y-22761866D01*
X26465632Y-22750830D01*
X26485038Y-22741651D01*
X26505250Y-22734419D01*
X26526074Y-22729203D01*
X26547309Y-22726053D01*
X26568750Y-22725000D01*
X27006250Y-22725000D01*
X27027691Y-22726053D01*
G37*
G04 #@! TD.AperFunction*
G04 #@! TA.AperFunction,SMDPad,CuDef*
G36*
X25452691Y-22726053D02*
G01*
X25473926Y-22729203D01*
X25494750Y-22734419D01*
X25514962Y-22741651D01*
X25534368Y-22750830D01*
X25552781Y-22761866D01*
X25570024Y-22774654D01*
X25585930Y-22789070D01*
X25600346Y-22804976D01*
X25613134Y-22822219D01*
X25624170Y-22840632D01*
X25633349Y-22860038D01*
X25640581Y-22880250D01*
X25645797Y-22901074D01*
X25648947Y-22922309D01*
X25650000Y-22943750D01*
X25650000Y-23456250D01*
X25648947Y-23477691D01*
X25645797Y-23498926D01*
X25640581Y-23519750D01*
X25633349Y-23539962D01*
X25624170Y-23559368D01*
X25613134Y-23577781D01*
X25600346Y-23595024D01*
X25585930Y-23610930D01*
X25570024Y-23625346D01*
X25552781Y-23638134D01*
X25534368Y-23649170D01*
X25514962Y-23658349D01*
X25494750Y-23665581D01*
X25473926Y-23670797D01*
X25452691Y-23673947D01*
X25431250Y-23675000D01*
X24993750Y-23675000D01*
X24972309Y-23673947D01*
X24951074Y-23670797D01*
X24930250Y-23665581D01*
X24910038Y-23658349D01*
X24890632Y-23649170D01*
X24872219Y-23638134D01*
X24854976Y-23625346D01*
X24839070Y-23610930D01*
X24824654Y-23595024D01*
X24811866Y-23577781D01*
X24800830Y-23559368D01*
X24791651Y-23539962D01*
X24784419Y-23519750D01*
X24779203Y-23498926D01*
X24776053Y-23477691D01*
X24775000Y-23456250D01*
X24775000Y-22943750D01*
X24776053Y-22922309D01*
X24779203Y-22901074D01*
X24784419Y-22880250D01*
X24791651Y-22860038D01*
X24800830Y-22840632D01*
X24811866Y-22822219D01*
X24824654Y-22804976D01*
X24839070Y-22789070D01*
X24854976Y-22774654D01*
X24872219Y-22761866D01*
X24890632Y-22750830D01*
X24910038Y-22741651D01*
X24930250Y-22734419D01*
X24951074Y-22729203D01*
X24972309Y-22726053D01*
X24993750Y-22725000D01*
X25431250Y-22725000D01*
X25452691Y-22726053D01*
G37*
G04 #@! TD.AperFunction*
G04 #@! TA.AperFunction,SMDPad,CuDef*
G36*
X9377691Y-23051053D02*
G01*
X9398926Y-23054203D01*
X9419750Y-23059419D01*
X9439962Y-23066651D01*
X9459368Y-23075830D01*
X9477781Y-23086866D01*
X9495024Y-23099654D01*
X9510930Y-23114070D01*
X9525346Y-23129976D01*
X9538134Y-23147219D01*
X9549170Y-23165632D01*
X9558349Y-23185038D01*
X9565581Y-23205250D01*
X9570797Y-23226074D01*
X9573947Y-23247309D01*
X9575000Y-23268750D01*
X9575000Y-23706250D01*
X9573947Y-23727691D01*
X9570797Y-23748926D01*
X9565581Y-23769750D01*
X9558349Y-23789962D01*
X9549170Y-23809368D01*
X9538134Y-23827781D01*
X9525346Y-23845024D01*
X9510930Y-23860930D01*
X9495024Y-23875346D01*
X9477781Y-23888134D01*
X9459368Y-23899170D01*
X9439962Y-23908349D01*
X9419750Y-23915581D01*
X9398926Y-23920797D01*
X9377691Y-23923947D01*
X9356250Y-23925000D01*
X8843750Y-23925000D01*
X8822309Y-23923947D01*
X8801074Y-23920797D01*
X8780250Y-23915581D01*
X8760038Y-23908349D01*
X8740632Y-23899170D01*
X8722219Y-23888134D01*
X8704976Y-23875346D01*
X8689070Y-23860930D01*
X8674654Y-23845024D01*
X8661866Y-23827781D01*
X8650830Y-23809368D01*
X8641651Y-23789962D01*
X8634419Y-23769750D01*
X8629203Y-23748926D01*
X8626053Y-23727691D01*
X8625000Y-23706250D01*
X8625000Y-23268750D01*
X8626053Y-23247309D01*
X8629203Y-23226074D01*
X8634419Y-23205250D01*
X8641651Y-23185038D01*
X8650830Y-23165632D01*
X8661866Y-23147219D01*
X8674654Y-23129976D01*
X8689070Y-23114070D01*
X8704976Y-23099654D01*
X8722219Y-23086866D01*
X8740632Y-23075830D01*
X8760038Y-23066651D01*
X8780250Y-23059419D01*
X8801074Y-23054203D01*
X8822309Y-23051053D01*
X8843750Y-23050000D01*
X9356250Y-23050000D01*
X9377691Y-23051053D01*
G37*
G04 #@! TD.AperFunction*
G04 #@! TA.AperFunction,SMDPad,CuDef*
G36*
X9377691Y-21476053D02*
G01*
X9398926Y-21479203D01*
X9419750Y-21484419D01*
X9439962Y-21491651D01*
X9459368Y-21500830D01*
X9477781Y-21511866D01*
X9495024Y-21524654D01*
X9510930Y-21539070D01*
X9525346Y-21554976D01*
X9538134Y-21572219D01*
X9549170Y-21590632D01*
X9558349Y-21610038D01*
X9565581Y-21630250D01*
X9570797Y-21651074D01*
X9573947Y-21672309D01*
X9575000Y-21693750D01*
X9575000Y-22131250D01*
X9573947Y-22152691D01*
X9570797Y-22173926D01*
X9565581Y-22194750D01*
X9558349Y-22214962D01*
X9549170Y-22234368D01*
X9538134Y-22252781D01*
X9525346Y-22270024D01*
X9510930Y-22285930D01*
X9495024Y-22300346D01*
X9477781Y-22313134D01*
X9459368Y-22324170D01*
X9439962Y-22333349D01*
X9419750Y-22340581D01*
X9398926Y-22345797D01*
X9377691Y-22348947D01*
X9356250Y-22350000D01*
X8843750Y-22350000D01*
X8822309Y-22348947D01*
X8801074Y-22345797D01*
X8780250Y-22340581D01*
X8760038Y-22333349D01*
X8740632Y-22324170D01*
X8722219Y-22313134D01*
X8704976Y-22300346D01*
X8689070Y-22285930D01*
X8674654Y-22270024D01*
X8661866Y-22252781D01*
X8650830Y-22234368D01*
X8641651Y-22214962D01*
X8634419Y-22194750D01*
X8629203Y-22173926D01*
X8626053Y-22152691D01*
X8625000Y-22131250D01*
X8625000Y-21693750D01*
X8626053Y-21672309D01*
X8629203Y-21651074D01*
X8634419Y-21630250D01*
X8641651Y-21610038D01*
X8650830Y-21590632D01*
X8661866Y-21572219D01*
X8674654Y-21554976D01*
X8689070Y-21539070D01*
X8704976Y-21524654D01*
X8722219Y-21511866D01*
X8740632Y-21500830D01*
X8760038Y-21491651D01*
X8780250Y-21484419D01*
X8801074Y-21479203D01*
X8822309Y-21476053D01*
X8843750Y-21475000D01*
X9356250Y-21475000D01*
X9377691Y-21476053D01*
G37*
G04 #@! TD.AperFunction*
G04 #@! TA.AperFunction,SMDPad,CuDef*
G36*
X26627691Y-10626053D02*
G01*
X26648926Y-10629203D01*
X26669750Y-10634419D01*
X26689962Y-10641651D01*
X26709368Y-10650830D01*
X26727781Y-10661866D01*
X26745024Y-10674654D01*
X26760930Y-10689070D01*
X26775346Y-10704976D01*
X26788134Y-10722219D01*
X26799170Y-10740632D01*
X26808349Y-10760038D01*
X26815581Y-10780250D01*
X26820797Y-10801074D01*
X26823947Y-10822309D01*
X26825000Y-10843750D01*
X26825000Y-11356250D01*
X26823947Y-11377691D01*
X26820797Y-11398926D01*
X26815581Y-11419750D01*
X26808349Y-11439962D01*
X26799170Y-11459368D01*
X26788134Y-11477781D01*
X26775346Y-11495024D01*
X26760930Y-11510930D01*
X26745024Y-11525346D01*
X26727781Y-11538134D01*
X26709368Y-11549170D01*
X26689962Y-11558349D01*
X26669750Y-11565581D01*
X26648926Y-11570797D01*
X26627691Y-11573947D01*
X26606250Y-11575000D01*
X26168750Y-11575000D01*
X26147309Y-11573947D01*
X26126074Y-11570797D01*
X26105250Y-11565581D01*
X26085038Y-11558349D01*
X26065632Y-11549170D01*
X26047219Y-11538134D01*
X26029976Y-11525346D01*
X26014070Y-11510930D01*
X25999654Y-11495024D01*
X25986866Y-11477781D01*
X25975830Y-11459368D01*
X25966651Y-11439962D01*
X25959419Y-11419750D01*
X25954203Y-11398926D01*
X25951053Y-11377691D01*
X25950000Y-11356250D01*
X25950000Y-10843750D01*
X25951053Y-10822309D01*
X25954203Y-10801074D01*
X25959419Y-10780250D01*
X25966651Y-10760038D01*
X25975830Y-10740632D01*
X25986866Y-10722219D01*
X25999654Y-10704976D01*
X26014070Y-10689070D01*
X26029976Y-10674654D01*
X26047219Y-10661866D01*
X26065632Y-10650830D01*
X26085038Y-10641651D01*
X26105250Y-10634419D01*
X26126074Y-10629203D01*
X26147309Y-10626053D01*
X26168750Y-10625000D01*
X26606250Y-10625000D01*
X26627691Y-10626053D01*
G37*
G04 #@! TD.AperFunction*
G04 #@! TA.AperFunction,SMDPad,CuDef*
G36*
X25052691Y-10626053D02*
G01*
X25073926Y-10629203D01*
X25094750Y-10634419D01*
X25114962Y-10641651D01*
X25134368Y-10650830D01*
X25152781Y-10661866D01*
X25170024Y-10674654D01*
X25185930Y-10689070D01*
X25200346Y-10704976D01*
X25213134Y-10722219D01*
X25224170Y-10740632D01*
X25233349Y-10760038D01*
X25240581Y-10780250D01*
X25245797Y-10801074D01*
X25248947Y-10822309D01*
X25250000Y-10843750D01*
X25250000Y-11356250D01*
X25248947Y-11377691D01*
X25245797Y-11398926D01*
X25240581Y-11419750D01*
X25233349Y-11439962D01*
X25224170Y-11459368D01*
X25213134Y-11477781D01*
X25200346Y-11495024D01*
X25185930Y-11510930D01*
X25170024Y-11525346D01*
X25152781Y-11538134D01*
X25134368Y-11549170D01*
X25114962Y-11558349D01*
X25094750Y-11565581D01*
X25073926Y-11570797D01*
X25052691Y-11573947D01*
X25031250Y-11575000D01*
X24593750Y-11575000D01*
X24572309Y-11573947D01*
X24551074Y-11570797D01*
X24530250Y-11565581D01*
X24510038Y-11558349D01*
X24490632Y-11549170D01*
X24472219Y-11538134D01*
X24454976Y-11525346D01*
X24439070Y-11510930D01*
X24424654Y-11495024D01*
X24411866Y-11477781D01*
X24400830Y-11459368D01*
X24391651Y-11439962D01*
X24384419Y-11419750D01*
X24379203Y-11398926D01*
X24376053Y-11377691D01*
X24375000Y-11356250D01*
X24375000Y-10843750D01*
X24376053Y-10822309D01*
X24379203Y-10801074D01*
X24384419Y-10780250D01*
X24391651Y-10760038D01*
X24400830Y-10740632D01*
X24411866Y-10722219D01*
X24424654Y-10704976D01*
X24439070Y-10689070D01*
X24454976Y-10674654D01*
X24472219Y-10661866D01*
X24490632Y-10650830D01*
X24510038Y-10641651D01*
X24530250Y-10634419D01*
X24551074Y-10629203D01*
X24572309Y-10626053D01*
X24593750Y-10625000D01*
X25031250Y-10625000D01*
X25052691Y-10626053D01*
G37*
G04 #@! TD.AperFunction*
G04 #@! TA.AperFunction,SMDPad,CuDef*
G36*
X9377691Y-12076053D02*
G01*
X9398926Y-12079203D01*
X9419750Y-12084419D01*
X9439962Y-12091651D01*
X9459368Y-12100830D01*
X9477781Y-12111866D01*
X9495024Y-12124654D01*
X9510930Y-12139070D01*
X9525346Y-12154976D01*
X9538134Y-12172219D01*
X9549170Y-12190632D01*
X9558349Y-12210038D01*
X9565581Y-12230250D01*
X9570797Y-12251074D01*
X9573947Y-12272309D01*
X9575000Y-12293750D01*
X9575000Y-12731250D01*
X9573947Y-12752691D01*
X9570797Y-12773926D01*
X9565581Y-12794750D01*
X9558349Y-12814962D01*
X9549170Y-12834368D01*
X9538134Y-12852781D01*
X9525346Y-12870024D01*
X9510930Y-12885930D01*
X9495024Y-12900346D01*
X9477781Y-12913134D01*
X9459368Y-12924170D01*
X9439962Y-12933349D01*
X9419750Y-12940581D01*
X9398926Y-12945797D01*
X9377691Y-12948947D01*
X9356250Y-12950000D01*
X8843750Y-12950000D01*
X8822309Y-12948947D01*
X8801074Y-12945797D01*
X8780250Y-12940581D01*
X8760038Y-12933349D01*
X8740632Y-12924170D01*
X8722219Y-12913134D01*
X8704976Y-12900346D01*
X8689070Y-12885930D01*
X8674654Y-12870024D01*
X8661866Y-12852781D01*
X8650830Y-12834368D01*
X8641651Y-12814962D01*
X8634419Y-12794750D01*
X8629203Y-12773926D01*
X8626053Y-12752691D01*
X8625000Y-12731250D01*
X8625000Y-12293750D01*
X8626053Y-12272309D01*
X8629203Y-12251074D01*
X8634419Y-12230250D01*
X8641651Y-12210038D01*
X8650830Y-12190632D01*
X8661866Y-12172219D01*
X8674654Y-12154976D01*
X8689070Y-12139070D01*
X8704976Y-12124654D01*
X8722219Y-12111866D01*
X8740632Y-12100830D01*
X8760038Y-12091651D01*
X8780250Y-12084419D01*
X8801074Y-12079203D01*
X8822309Y-12076053D01*
X8843750Y-12075000D01*
X9356250Y-12075000D01*
X9377691Y-12076053D01*
G37*
G04 #@! TD.AperFunction*
G04 #@! TA.AperFunction,SMDPad,CuDef*
G36*
X9377691Y-13651053D02*
G01*
X9398926Y-13654203D01*
X9419750Y-13659419D01*
X9439962Y-13666651D01*
X9459368Y-13675830D01*
X9477781Y-13686866D01*
X9495024Y-13699654D01*
X9510930Y-13714070D01*
X9525346Y-13729976D01*
X9538134Y-13747219D01*
X9549170Y-13765632D01*
X9558349Y-13785038D01*
X9565581Y-13805250D01*
X9570797Y-13826074D01*
X9573947Y-13847309D01*
X9575000Y-13868750D01*
X9575000Y-14306250D01*
X9573947Y-14327691D01*
X9570797Y-14348926D01*
X9565581Y-14369750D01*
X9558349Y-14389962D01*
X9549170Y-14409368D01*
X9538134Y-14427781D01*
X9525346Y-14445024D01*
X9510930Y-14460930D01*
X9495024Y-14475346D01*
X9477781Y-14488134D01*
X9459368Y-14499170D01*
X9439962Y-14508349D01*
X9419750Y-14515581D01*
X9398926Y-14520797D01*
X9377691Y-14523947D01*
X9356250Y-14525000D01*
X8843750Y-14525000D01*
X8822309Y-14523947D01*
X8801074Y-14520797D01*
X8780250Y-14515581D01*
X8760038Y-14508349D01*
X8740632Y-14499170D01*
X8722219Y-14488134D01*
X8704976Y-14475346D01*
X8689070Y-14460930D01*
X8674654Y-14445024D01*
X8661866Y-14427781D01*
X8650830Y-14409368D01*
X8641651Y-14389962D01*
X8634419Y-14369750D01*
X8629203Y-14348926D01*
X8626053Y-14327691D01*
X8625000Y-14306250D01*
X8625000Y-13868750D01*
X8626053Y-13847309D01*
X8629203Y-13826074D01*
X8634419Y-13805250D01*
X8641651Y-13785038D01*
X8650830Y-13765632D01*
X8661866Y-13747219D01*
X8674654Y-13729976D01*
X8689070Y-13714070D01*
X8704976Y-13699654D01*
X8722219Y-13686866D01*
X8740632Y-13675830D01*
X8760038Y-13666651D01*
X8780250Y-13659419D01*
X8801074Y-13654203D01*
X8822309Y-13651053D01*
X8843750Y-13650000D01*
X9356250Y-13650000D01*
X9377691Y-13651053D01*
G37*
G04 #@! TD.AperFunction*
D19*
X22100000Y-12500000D03*
X18300000Y-12500000D03*
G04 #@! TA.AperFunction,SMDPad,CuDef*
D18*
G36*
X28252691Y-10526053D02*
G01*
X28273926Y-10529203D01*
X28294750Y-10534419D01*
X28314962Y-10541651D01*
X28334368Y-10550830D01*
X28352781Y-10561866D01*
X28370024Y-10574654D01*
X28385930Y-10589070D01*
X28400346Y-10604976D01*
X28413134Y-10622219D01*
X28424170Y-10640632D01*
X28433349Y-10660038D01*
X28440581Y-10680250D01*
X28445797Y-10701074D01*
X28448947Y-10722309D01*
X28450000Y-10743750D01*
X28450000Y-11256250D01*
X28448947Y-11277691D01*
X28445797Y-11298926D01*
X28440581Y-11319750D01*
X28433349Y-11339962D01*
X28424170Y-11359368D01*
X28413134Y-11377781D01*
X28400346Y-11395024D01*
X28385930Y-11410930D01*
X28370024Y-11425346D01*
X28352781Y-11438134D01*
X28334368Y-11449170D01*
X28314962Y-11458349D01*
X28294750Y-11465581D01*
X28273926Y-11470797D01*
X28252691Y-11473947D01*
X28231250Y-11475000D01*
X27793750Y-11475000D01*
X27772309Y-11473947D01*
X27751074Y-11470797D01*
X27730250Y-11465581D01*
X27710038Y-11458349D01*
X27690632Y-11449170D01*
X27672219Y-11438134D01*
X27654976Y-11425346D01*
X27639070Y-11410930D01*
X27624654Y-11395024D01*
X27611866Y-11377781D01*
X27600830Y-11359368D01*
X27591651Y-11339962D01*
X27584419Y-11319750D01*
X27579203Y-11298926D01*
X27576053Y-11277691D01*
X27575000Y-11256250D01*
X27575000Y-10743750D01*
X27576053Y-10722309D01*
X27579203Y-10701074D01*
X27584419Y-10680250D01*
X27591651Y-10660038D01*
X27600830Y-10640632D01*
X27611866Y-10622219D01*
X27624654Y-10604976D01*
X27639070Y-10589070D01*
X27654976Y-10574654D01*
X27672219Y-10561866D01*
X27690632Y-10550830D01*
X27710038Y-10541651D01*
X27730250Y-10534419D01*
X27751074Y-10529203D01*
X27772309Y-10526053D01*
X27793750Y-10525000D01*
X28231250Y-10525000D01*
X28252691Y-10526053D01*
G37*
G04 #@! TD.AperFunction*
G04 #@! TA.AperFunction,SMDPad,CuDef*
G36*
X29827691Y-10526053D02*
G01*
X29848926Y-10529203D01*
X29869750Y-10534419D01*
X29889962Y-10541651D01*
X29909368Y-10550830D01*
X29927781Y-10561866D01*
X29945024Y-10574654D01*
X29960930Y-10589070D01*
X29975346Y-10604976D01*
X29988134Y-10622219D01*
X29999170Y-10640632D01*
X30008349Y-10660038D01*
X30015581Y-10680250D01*
X30020797Y-10701074D01*
X30023947Y-10722309D01*
X30025000Y-10743750D01*
X30025000Y-11256250D01*
X30023947Y-11277691D01*
X30020797Y-11298926D01*
X30015581Y-11319750D01*
X30008349Y-11339962D01*
X29999170Y-11359368D01*
X29988134Y-11377781D01*
X29975346Y-11395024D01*
X29960930Y-11410930D01*
X29945024Y-11425346D01*
X29927781Y-11438134D01*
X29909368Y-11449170D01*
X29889962Y-11458349D01*
X29869750Y-11465581D01*
X29848926Y-11470797D01*
X29827691Y-11473947D01*
X29806250Y-11475000D01*
X29368750Y-11475000D01*
X29347309Y-11473947D01*
X29326074Y-11470797D01*
X29305250Y-11465581D01*
X29285038Y-11458349D01*
X29265632Y-11449170D01*
X29247219Y-11438134D01*
X29229976Y-11425346D01*
X29214070Y-11410930D01*
X29199654Y-11395024D01*
X29186866Y-11377781D01*
X29175830Y-11359368D01*
X29166651Y-11339962D01*
X29159419Y-11319750D01*
X29154203Y-11298926D01*
X29151053Y-11277691D01*
X29150000Y-11256250D01*
X29150000Y-10743750D01*
X29151053Y-10722309D01*
X29154203Y-10701074D01*
X29159419Y-10680250D01*
X29166651Y-10660038D01*
X29175830Y-10640632D01*
X29186866Y-10622219D01*
X29199654Y-10604976D01*
X29214070Y-10589070D01*
X29229976Y-10574654D01*
X29247219Y-10561866D01*
X29265632Y-10550830D01*
X29285038Y-10541651D01*
X29305250Y-10534419D01*
X29326074Y-10529203D01*
X29347309Y-10526053D01*
X29368750Y-10525000D01*
X29806250Y-10525000D01*
X29827691Y-10526053D01*
G37*
G04 #@! TD.AperFunction*
D20*
X12750000Y-22700000D03*
X16050000Y-22700000D03*
X16150000Y-11700000D03*
X12850000Y-11700000D03*
G04 #@! TA.AperFunction,SMDPad,CuDef*
D18*
G36*
X10877691Y-18476053D02*
G01*
X10898926Y-18479203D01*
X10919750Y-18484419D01*
X10939962Y-18491651D01*
X10959368Y-18500830D01*
X10977781Y-18511866D01*
X10995024Y-18524654D01*
X11010930Y-18539070D01*
X11025346Y-18554976D01*
X11038134Y-18572219D01*
X11049170Y-18590632D01*
X11058349Y-18610038D01*
X11065581Y-18630250D01*
X11070797Y-18651074D01*
X11073947Y-18672309D01*
X11075000Y-18693750D01*
X11075000Y-19131250D01*
X11073947Y-19152691D01*
X11070797Y-19173926D01*
X11065581Y-19194750D01*
X11058349Y-19214962D01*
X11049170Y-19234368D01*
X11038134Y-19252781D01*
X11025346Y-19270024D01*
X11010930Y-19285930D01*
X10995024Y-19300346D01*
X10977781Y-19313134D01*
X10959368Y-19324170D01*
X10939962Y-19333349D01*
X10919750Y-19340581D01*
X10898926Y-19345797D01*
X10877691Y-19348947D01*
X10856250Y-19350000D01*
X10343750Y-19350000D01*
X10322309Y-19348947D01*
X10301074Y-19345797D01*
X10280250Y-19340581D01*
X10260038Y-19333349D01*
X10240632Y-19324170D01*
X10222219Y-19313134D01*
X10204976Y-19300346D01*
X10189070Y-19285930D01*
X10174654Y-19270024D01*
X10161866Y-19252781D01*
X10150830Y-19234368D01*
X10141651Y-19214962D01*
X10134419Y-19194750D01*
X10129203Y-19173926D01*
X10126053Y-19152691D01*
X10125000Y-19131250D01*
X10125000Y-18693750D01*
X10126053Y-18672309D01*
X10129203Y-18651074D01*
X10134419Y-18630250D01*
X10141651Y-18610038D01*
X10150830Y-18590632D01*
X10161866Y-18572219D01*
X10174654Y-18554976D01*
X10189070Y-18539070D01*
X10204976Y-18524654D01*
X10222219Y-18511866D01*
X10240632Y-18500830D01*
X10260038Y-18491651D01*
X10280250Y-18484419D01*
X10301074Y-18479203D01*
X10322309Y-18476053D01*
X10343750Y-18475000D01*
X10856250Y-18475000D01*
X10877691Y-18476053D01*
G37*
G04 #@! TD.AperFunction*
G04 #@! TA.AperFunction,SMDPad,CuDef*
G36*
X10877691Y-20051053D02*
G01*
X10898926Y-20054203D01*
X10919750Y-20059419D01*
X10939962Y-20066651D01*
X10959368Y-20075830D01*
X10977781Y-20086866D01*
X10995024Y-20099654D01*
X11010930Y-20114070D01*
X11025346Y-20129976D01*
X11038134Y-20147219D01*
X11049170Y-20165632D01*
X11058349Y-20185038D01*
X11065581Y-20205250D01*
X11070797Y-20226074D01*
X11073947Y-20247309D01*
X11075000Y-20268750D01*
X11075000Y-20706250D01*
X11073947Y-20727691D01*
X11070797Y-20748926D01*
X11065581Y-20769750D01*
X11058349Y-20789962D01*
X11049170Y-20809368D01*
X11038134Y-20827781D01*
X11025346Y-20845024D01*
X11010930Y-20860930D01*
X10995024Y-20875346D01*
X10977781Y-20888134D01*
X10959368Y-20899170D01*
X10939962Y-20908349D01*
X10919750Y-20915581D01*
X10898926Y-20920797D01*
X10877691Y-20923947D01*
X10856250Y-20925000D01*
X10343750Y-20925000D01*
X10322309Y-20923947D01*
X10301074Y-20920797D01*
X10280250Y-20915581D01*
X10260038Y-20908349D01*
X10240632Y-20899170D01*
X10222219Y-20888134D01*
X10204976Y-20875346D01*
X10189070Y-20860930D01*
X10174654Y-20845024D01*
X10161866Y-20827781D01*
X10150830Y-20809368D01*
X10141651Y-20789962D01*
X10134419Y-20769750D01*
X10129203Y-20748926D01*
X10126053Y-20727691D01*
X10125000Y-20706250D01*
X10125000Y-20268750D01*
X10126053Y-20247309D01*
X10129203Y-20226074D01*
X10134419Y-20205250D01*
X10141651Y-20185038D01*
X10150830Y-20165632D01*
X10161866Y-20147219D01*
X10174654Y-20129976D01*
X10189070Y-20114070D01*
X10204976Y-20099654D01*
X10222219Y-20086866D01*
X10240632Y-20075830D01*
X10260038Y-20066651D01*
X10280250Y-20059419D01*
X10301074Y-20054203D01*
X10322309Y-20051053D01*
X10343750Y-20050000D01*
X10856250Y-20050000D01*
X10877691Y-20051053D01*
G37*
G04 #@! TD.AperFunction*
G04 #@! TA.AperFunction,SMDPad,CuDef*
G36*
X14530142Y-13101174D02*
G01*
X14553803Y-13104684D01*
X14577007Y-13110496D01*
X14599529Y-13118554D01*
X14621153Y-13128782D01*
X14641670Y-13141079D01*
X14660883Y-13155329D01*
X14678607Y-13171393D01*
X14694671Y-13189117D01*
X14708921Y-13208330D01*
X14721218Y-13228847D01*
X14731446Y-13250471D01*
X14739504Y-13272993D01*
X14745316Y-13296197D01*
X14748826Y-13319858D01*
X14750000Y-13343750D01*
X14750000Y-14256250D01*
X14748826Y-14280142D01*
X14745316Y-14303803D01*
X14739504Y-14327007D01*
X14731446Y-14349529D01*
X14721218Y-14371153D01*
X14708921Y-14391670D01*
X14694671Y-14410883D01*
X14678607Y-14428607D01*
X14660883Y-14444671D01*
X14641670Y-14458921D01*
X14621153Y-14471218D01*
X14599529Y-14481446D01*
X14577007Y-14489504D01*
X14553803Y-14495316D01*
X14530142Y-14498826D01*
X14506250Y-14500000D01*
X14018750Y-14500000D01*
X13994858Y-14498826D01*
X13971197Y-14495316D01*
X13947993Y-14489504D01*
X13925471Y-14481446D01*
X13903847Y-14471218D01*
X13883330Y-14458921D01*
X13864117Y-14444671D01*
X13846393Y-14428607D01*
X13830329Y-14410883D01*
X13816079Y-14391670D01*
X13803782Y-14371153D01*
X13793554Y-14349529D01*
X13785496Y-14327007D01*
X13779684Y-14303803D01*
X13776174Y-14280142D01*
X13775000Y-14256250D01*
X13775000Y-13343750D01*
X13776174Y-13319858D01*
X13779684Y-13296197D01*
X13785496Y-13272993D01*
X13793554Y-13250471D01*
X13803782Y-13228847D01*
X13816079Y-13208330D01*
X13830329Y-13189117D01*
X13846393Y-13171393D01*
X13864117Y-13155329D01*
X13883330Y-13141079D01*
X13903847Y-13128782D01*
X13925471Y-13118554D01*
X13947993Y-13110496D01*
X13971197Y-13104684D01*
X13994858Y-13101174D01*
X14018750Y-13100000D01*
X14506250Y-13100000D01*
X14530142Y-13101174D01*
G37*
G04 #@! TD.AperFunction*
G04 #@! TA.AperFunction,SMDPad,CuDef*
G36*
X16405142Y-13101174D02*
G01*
X16428803Y-13104684D01*
X16452007Y-13110496D01*
X16474529Y-13118554D01*
X16496153Y-13128782D01*
X16516670Y-13141079D01*
X16535883Y-13155329D01*
X16553607Y-13171393D01*
X16569671Y-13189117D01*
X16583921Y-13208330D01*
X16596218Y-13228847D01*
X16606446Y-13250471D01*
X16614504Y-13272993D01*
X16620316Y-13296197D01*
X16623826Y-13319858D01*
X16625000Y-13343750D01*
X16625000Y-14256250D01*
X16623826Y-14280142D01*
X16620316Y-14303803D01*
X16614504Y-14327007D01*
X16606446Y-14349529D01*
X16596218Y-14371153D01*
X16583921Y-14391670D01*
X16569671Y-14410883D01*
X16553607Y-14428607D01*
X16535883Y-14444671D01*
X16516670Y-14458921D01*
X16496153Y-14471218D01*
X16474529Y-14481446D01*
X16452007Y-14489504D01*
X16428803Y-14495316D01*
X16405142Y-14498826D01*
X16381250Y-14500000D01*
X15893750Y-14500000D01*
X15869858Y-14498826D01*
X15846197Y-14495316D01*
X15822993Y-14489504D01*
X15800471Y-14481446D01*
X15778847Y-14471218D01*
X15758330Y-14458921D01*
X15739117Y-14444671D01*
X15721393Y-14428607D01*
X15705329Y-14410883D01*
X15691079Y-14391670D01*
X15678782Y-14371153D01*
X15668554Y-14349529D01*
X15660496Y-14327007D01*
X15654684Y-14303803D01*
X15651174Y-14280142D01*
X15650000Y-14256250D01*
X15650000Y-13343750D01*
X15651174Y-13319858D01*
X15654684Y-13296197D01*
X15660496Y-13272993D01*
X15668554Y-13250471D01*
X15678782Y-13228847D01*
X15691079Y-13208330D01*
X15705329Y-13189117D01*
X15721393Y-13171393D01*
X15739117Y-13155329D01*
X15758330Y-13141079D01*
X15778847Y-13128782D01*
X15800471Y-13118554D01*
X15822993Y-13110496D01*
X15846197Y-13104684D01*
X15869858Y-13101174D01*
X15893750Y-13100000D01*
X16381250Y-13100000D01*
X16405142Y-13101174D01*
G37*
G04 #@! TD.AperFunction*
G04 #@! TA.AperFunction,SMDPad,CuDef*
G36*
X29780142Y-13951174D02*
G01*
X29803803Y-13954684D01*
X29827007Y-13960496D01*
X29849529Y-13968554D01*
X29871153Y-13978782D01*
X29891670Y-13991079D01*
X29910883Y-14005329D01*
X29928607Y-14021393D01*
X29944671Y-14039117D01*
X29958921Y-14058330D01*
X29971218Y-14078847D01*
X29981446Y-14100471D01*
X29989504Y-14122993D01*
X29995316Y-14146197D01*
X29998826Y-14169858D01*
X30000000Y-14193750D01*
X30000000Y-14681250D01*
X29998826Y-14705142D01*
X29995316Y-14728803D01*
X29989504Y-14752007D01*
X29981446Y-14774529D01*
X29971218Y-14796153D01*
X29958921Y-14816670D01*
X29944671Y-14835883D01*
X29928607Y-14853607D01*
X29910883Y-14869671D01*
X29891670Y-14883921D01*
X29871153Y-14896218D01*
X29849529Y-14906446D01*
X29827007Y-14914504D01*
X29803803Y-14920316D01*
X29780142Y-14923826D01*
X29756250Y-14925000D01*
X28843750Y-14925000D01*
X28819858Y-14923826D01*
X28796197Y-14920316D01*
X28772993Y-14914504D01*
X28750471Y-14906446D01*
X28728847Y-14896218D01*
X28708330Y-14883921D01*
X28689117Y-14869671D01*
X28671393Y-14853607D01*
X28655329Y-14835883D01*
X28641079Y-14816670D01*
X28628782Y-14796153D01*
X28618554Y-14774529D01*
X28610496Y-14752007D01*
X28604684Y-14728803D01*
X28601174Y-14705142D01*
X28600000Y-14681250D01*
X28600000Y-14193750D01*
X28601174Y-14169858D01*
X28604684Y-14146197D01*
X28610496Y-14122993D01*
X28618554Y-14100471D01*
X28628782Y-14078847D01*
X28641079Y-14058330D01*
X28655329Y-14039117D01*
X28671393Y-14021393D01*
X28689117Y-14005329D01*
X28708330Y-13991079D01*
X28728847Y-13978782D01*
X28750471Y-13968554D01*
X28772993Y-13960496D01*
X28796197Y-13954684D01*
X28819858Y-13951174D01*
X28843750Y-13950000D01*
X29756250Y-13950000D01*
X29780142Y-13951174D01*
G37*
G04 #@! TD.AperFunction*
G04 #@! TA.AperFunction,SMDPad,CuDef*
G36*
X29780142Y-12076174D02*
G01*
X29803803Y-12079684D01*
X29827007Y-12085496D01*
X29849529Y-12093554D01*
X29871153Y-12103782D01*
X29891670Y-12116079D01*
X29910883Y-12130329D01*
X29928607Y-12146393D01*
X29944671Y-12164117D01*
X29958921Y-12183330D01*
X29971218Y-12203847D01*
X29981446Y-12225471D01*
X29989504Y-12247993D01*
X29995316Y-12271197D01*
X29998826Y-12294858D01*
X30000000Y-12318750D01*
X30000000Y-12806250D01*
X29998826Y-12830142D01*
X29995316Y-12853803D01*
X29989504Y-12877007D01*
X29981446Y-12899529D01*
X29971218Y-12921153D01*
X29958921Y-12941670D01*
X29944671Y-12960883D01*
X29928607Y-12978607D01*
X29910883Y-12994671D01*
X29891670Y-13008921D01*
X29871153Y-13021218D01*
X29849529Y-13031446D01*
X29827007Y-13039504D01*
X29803803Y-13045316D01*
X29780142Y-13048826D01*
X29756250Y-13050000D01*
X28843750Y-13050000D01*
X28819858Y-13048826D01*
X28796197Y-13045316D01*
X28772993Y-13039504D01*
X28750471Y-13031446D01*
X28728847Y-13021218D01*
X28708330Y-13008921D01*
X28689117Y-12994671D01*
X28671393Y-12978607D01*
X28655329Y-12960883D01*
X28641079Y-12941670D01*
X28628782Y-12921153D01*
X28618554Y-12899529D01*
X28610496Y-12877007D01*
X28604684Y-12853803D01*
X28601174Y-12830142D01*
X28600000Y-12806250D01*
X28600000Y-12318750D01*
X28601174Y-12294858D01*
X28604684Y-12271197D01*
X28610496Y-12247993D01*
X28618554Y-12225471D01*
X28628782Y-12203847D01*
X28641079Y-12183330D01*
X28655329Y-12164117D01*
X28671393Y-12146393D01*
X28689117Y-12130329D01*
X28708330Y-12116079D01*
X28728847Y-12103782D01*
X28750471Y-12093554D01*
X28772993Y-12085496D01*
X28796197Y-12079684D01*
X28819858Y-12076174D01*
X28843750Y-12075000D01*
X29756250Y-12075000D01*
X29780142Y-12076174D01*
G37*
G04 #@! TD.AperFunction*
G04 #@! TA.AperFunction,SMDPad,CuDef*
G36*
X27380142Y-19276174D02*
G01*
X27403803Y-19279684D01*
X27427007Y-19285496D01*
X27449529Y-19293554D01*
X27471153Y-19303782D01*
X27491670Y-19316079D01*
X27510883Y-19330329D01*
X27528607Y-19346393D01*
X27544671Y-19364117D01*
X27558921Y-19383330D01*
X27571218Y-19403847D01*
X27581446Y-19425471D01*
X27589504Y-19447993D01*
X27595316Y-19471197D01*
X27598826Y-19494858D01*
X27600000Y-19518750D01*
X27600000Y-20006250D01*
X27598826Y-20030142D01*
X27595316Y-20053803D01*
X27589504Y-20077007D01*
X27581446Y-20099529D01*
X27571218Y-20121153D01*
X27558921Y-20141670D01*
X27544671Y-20160883D01*
X27528607Y-20178607D01*
X27510883Y-20194671D01*
X27491670Y-20208921D01*
X27471153Y-20221218D01*
X27449529Y-20231446D01*
X27427007Y-20239504D01*
X27403803Y-20245316D01*
X27380142Y-20248826D01*
X27356250Y-20250000D01*
X26443750Y-20250000D01*
X26419858Y-20248826D01*
X26396197Y-20245316D01*
X26372993Y-20239504D01*
X26350471Y-20231446D01*
X26328847Y-20221218D01*
X26308330Y-20208921D01*
X26289117Y-20194671D01*
X26271393Y-20178607D01*
X26255329Y-20160883D01*
X26241079Y-20141670D01*
X26228782Y-20121153D01*
X26218554Y-20099529D01*
X26210496Y-20077007D01*
X26204684Y-20053803D01*
X26201174Y-20030142D01*
X26200000Y-20006250D01*
X26200000Y-19518750D01*
X26201174Y-19494858D01*
X26204684Y-19471197D01*
X26210496Y-19447993D01*
X26218554Y-19425471D01*
X26228782Y-19403847D01*
X26241079Y-19383330D01*
X26255329Y-19364117D01*
X26271393Y-19346393D01*
X26289117Y-19330329D01*
X26308330Y-19316079D01*
X26328847Y-19303782D01*
X26350471Y-19293554D01*
X26372993Y-19285496D01*
X26396197Y-19279684D01*
X26419858Y-19276174D01*
X26443750Y-19275000D01*
X27356250Y-19275000D01*
X27380142Y-19276174D01*
G37*
G04 #@! TD.AperFunction*
G04 #@! TA.AperFunction,SMDPad,CuDef*
G36*
X27380142Y-21151174D02*
G01*
X27403803Y-21154684D01*
X27427007Y-21160496D01*
X27449529Y-21168554D01*
X27471153Y-21178782D01*
X27491670Y-21191079D01*
X27510883Y-21205329D01*
X27528607Y-21221393D01*
X27544671Y-21239117D01*
X27558921Y-21258330D01*
X27571218Y-21278847D01*
X27581446Y-21300471D01*
X27589504Y-21322993D01*
X27595316Y-21346197D01*
X27598826Y-21369858D01*
X27600000Y-21393750D01*
X27600000Y-21881250D01*
X27598826Y-21905142D01*
X27595316Y-21928803D01*
X27589504Y-21952007D01*
X27581446Y-21974529D01*
X27571218Y-21996153D01*
X27558921Y-22016670D01*
X27544671Y-22035883D01*
X27528607Y-22053607D01*
X27510883Y-22069671D01*
X27491670Y-22083921D01*
X27471153Y-22096218D01*
X27449529Y-22106446D01*
X27427007Y-22114504D01*
X27403803Y-22120316D01*
X27380142Y-22123826D01*
X27356250Y-22125000D01*
X26443750Y-22125000D01*
X26419858Y-22123826D01*
X26396197Y-22120316D01*
X26372993Y-22114504D01*
X26350471Y-22106446D01*
X26328847Y-22096218D01*
X26308330Y-22083921D01*
X26289117Y-22069671D01*
X26271393Y-22053607D01*
X26255329Y-22035883D01*
X26241079Y-22016670D01*
X26228782Y-21996153D01*
X26218554Y-21974529D01*
X26210496Y-21952007D01*
X26204684Y-21928803D01*
X26201174Y-21905142D01*
X26200000Y-21881250D01*
X26200000Y-21393750D01*
X26201174Y-21369858D01*
X26204684Y-21346197D01*
X26210496Y-21322993D01*
X26218554Y-21300471D01*
X26228782Y-21278847D01*
X26241079Y-21258330D01*
X26255329Y-21239117D01*
X26271393Y-21221393D01*
X26289117Y-21205329D01*
X26308330Y-21191079D01*
X26328847Y-21178782D01*
X26350471Y-21168554D01*
X26372993Y-21160496D01*
X26396197Y-21154684D01*
X26419858Y-21151174D01*
X26443750Y-21150000D01*
X27356250Y-21150000D01*
X27380142Y-21151174D01*
G37*
G04 #@! TD.AperFunction*
G04 #@! TA.AperFunction,SMDPad,CuDef*
G36*
X10877691Y-21476053D02*
G01*
X10898926Y-21479203D01*
X10919750Y-21484419D01*
X10939962Y-21491651D01*
X10959368Y-21500830D01*
X10977781Y-21511866D01*
X10995024Y-21524654D01*
X11010930Y-21539070D01*
X11025346Y-21554976D01*
X11038134Y-21572219D01*
X11049170Y-21590632D01*
X11058349Y-21610038D01*
X11065581Y-21630250D01*
X11070797Y-21651074D01*
X11073947Y-21672309D01*
X11075000Y-21693750D01*
X11075000Y-22131250D01*
X11073947Y-22152691D01*
X11070797Y-22173926D01*
X11065581Y-22194750D01*
X11058349Y-22214962D01*
X11049170Y-22234368D01*
X11038134Y-22252781D01*
X11025346Y-22270024D01*
X11010930Y-22285930D01*
X10995024Y-22300346D01*
X10977781Y-22313134D01*
X10959368Y-22324170D01*
X10939962Y-22333349D01*
X10919750Y-22340581D01*
X10898926Y-22345797D01*
X10877691Y-22348947D01*
X10856250Y-22350000D01*
X10343750Y-22350000D01*
X10322309Y-22348947D01*
X10301074Y-22345797D01*
X10280250Y-22340581D01*
X10260038Y-22333349D01*
X10240632Y-22324170D01*
X10222219Y-22313134D01*
X10204976Y-22300346D01*
X10189070Y-22285930D01*
X10174654Y-22270024D01*
X10161866Y-22252781D01*
X10150830Y-22234368D01*
X10141651Y-22214962D01*
X10134419Y-22194750D01*
X10129203Y-22173926D01*
X10126053Y-22152691D01*
X10125000Y-22131250D01*
X10125000Y-21693750D01*
X10126053Y-21672309D01*
X10129203Y-21651074D01*
X10134419Y-21630250D01*
X10141651Y-21610038D01*
X10150830Y-21590632D01*
X10161866Y-21572219D01*
X10174654Y-21554976D01*
X10189070Y-21539070D01*
X10204976Y-21524654D01*
X10222219Y-21511866D01*
X10240632Y-21500830D01*
X10260038Y-21491651D01*
X10280250Y-21484419D01*
X10301074Y-21479203D01*
X10322309Y-21476053D01*
X10343750Y-21475000D01*
X10856250Y-21475000D01*
X10877691Y-21476053D01*
G37*
G04 #@! TD.AperFunction*
G04 #@! TA.AperFunction,SMDPad,CuDef*
G36*
X10877691Y-23051053D02*
G01*
X10898926Y-23054203D01*
X10919750Y-23059419D01*
X10939962Y-23066651D01*
X10959368Y-23075830D01*
X10977781Y-23086866D01*
X10995024Y-23099654D01*
X11010930Y-23114070D01*
X11025346Y-23129976D01*
X11038134Y-23147219D01*
X11049170Y-23165632D01*
X11058349Y-23185038D01*
X11065581Y-23205250D01*
X11070797Y-23226074D01*
X11073947Y-23247309D01*
X11075000Y-23268750D01*
X11075000Y-23706250D01*
X11073947Y-23727691D01*
X11070797Y-23748926D01*
X11065581Y-23769750D01*
X11058349Y-23789962D01*
X11049170Y-23809368D01*
X11038134Y-23827781D01*
X11025346Y-23845024D01*
X11010930Y-23860930D01*
X10995024Y-23875346D01*
X10977781Y-23888134D01*
X10959368Y-23899170D01*
X10939962Y-23908349D01*
X10919750Y-23915581D01*
X10898926Y-23920797D01*
X10877691Y-23923947D01*
X10856250Y-23925000D01*
X10343750Y-23925000D01*
X10322309Y-23923947D01*
X10301074Y-23920797D01*
X10280250Y-23915581D01*
X10260038Y-23908349D01*
X10240632Y-23899170D01*
X10222219Y-23888134D01*
X10204976Y-23875346D01*
X10189070Y-23860930D01*
X10174654Y-23845024D01*
X10161866Y-23827781D01*
X10150830Y-23809368D01*
X10141651Y-23789962D01*
X10134419Y-23769750D01*
X10129203Y-23748926D01*
X10126053Y-23727691D01*
X10125000Y-23706250D01*
X10125000Y-23268750D01*
X10126053Y-23247309D01*
X10129203Y-23226074D01*
X10134419Y-23205250D01*
X10141651Y-23185038D01*
X10150830Y-23165632D01*
X10161866Y-23147219D01*
X10174654Y-23129976D01*
X10189070Y-23114070D01*
X10204976Y-23099654D01*
X10222219Y-23086866D01*
X10240632Y-23075830D01*
X10260038Y-23066651D01*
X10280250Y-23059419D01*
X10301074Y-23054203D01*
X10322309Y-23051053D01*
X10343750Y-23050000D01*
X10856250Y-23050000D01*
X10877691Y-23051053D01*
G37*
G04 #@! TD.AperFunction*
G04 #@! TA.AperFunction,SMDPad,CuDef*
G36*
X25480142Y-19276174D02*
G01*
X25503803Y-19279684D01*
X25527007Y-19285496D01*
X25549529Y-19293554D01*
X25571153Y-19303782D01*
X25591670Y-19316079D01*
X25610883Y-19330329D01*
X25628607Y-19346393D01*
X25644671Y-19364117D01*
X25658921Y-19383330D01*
X25671218Y-19403847D01*
X25681446Y-19425471D01*
X25689504Y-19447993D01*
X25695316Y-19471197D01*
X25698826Y-19494858D01*
X25700000Y-19518750D01*
X25700000Y-20006250D01*
X25698826Y-20030142D01*
X25695316Y-20053803D01*
X25689504Y-20077007D01*
X25681446Y-20099529D01*
X25671218Y-20121153D01*
X25658921Y-20141670D01*
X25644671Y-20160883D01*
X25628607Y-20178607D01*
X25610883Y-20194671D01*
X25591670Y-20208921D01*
X25571153Y-20221218D01*
X25549529Y-20231446D01*
X25527007Y-20239504D01*
X25503803Y-20245316D01*
X25480142Y-20248826D01*
X25456250Y-20250000D01*
X24543750Y-20250000D01*
X24519858Y-20248826D01*
X24496197Y-20245316D01*
X24472993Y-20239504D01*
X24450471Y-20231446D01*
X24428847Y-20221218D01*
X24408330Y-20208921D01*
X24389117Y-20194671D01*
X24371393Y-20178607D01*
X24355329Y-20160883D01*
X24341079Y-20141670D01*
X24328782Y-20121153D01*
X24318554Y-20099529D01*
X24310496Y-20077007D01*
X24304684Y-20053803D01*
X24301174Y-20030142D01*
X24300000Y-20006250D01*
X24300000Y-19518750D01*
X24301174Y-19494858D01*
X24304684Y-19471197D01*
X24310496Y-19447993D01*
X24318554Y-19425471D01*
X24328782Y-19403847D01*
X24341079Y-19383330D01*
X24355329Y-19364117D01*
X24371393Y-19346393D01*
X24389117Y-19330329D01*
X24408330Y-19316079D01*
X24428847Y-19303782D01*
X24450471Y-19293554D01*
X24472993Y-19285496D01*
X24496197Y-19279684D01*
X24519858Y-19276174D01*
X24543750Y-19275000D01*
X25456250Y-19275000D01*
X25480142Y-19276174D01*
G37*
G04 #@! TD.AperFunction*
G04 #@! TA.AperFunction,SMDPad,CuDef*
G36*
X25480142Y-21151174D02*
G01*
X25503803Y-21154684D01*
X25527007Y-21160496D01*
X25549529Y-21168554D01*
X25571153Y-21178782D01*
X25591670Y-21191079D01*
X25610883Y-21205329D01*
X25628607Y-21221393D01*
X25644671Y-21239117D01*
X25658921Y-21258330D01*
X25671218Y-21278847D01*
X25681446Y-21300471D01*
X25689504Y-21322993D01*
X25695316Y-21346197D01*
X25698826Y-21369858D01*
X25700000Y-21393750D01*
X25700000Y-21881250D01*
X25698826Y-21905142D01*
X25695316Y-21928803D01*
X25689504Y-21952007D01*
X25681446Y-21974529D01*
X25671218Y-21996153D01*
X25658921Y-22016670D01*
X25644671Y-22035883D01*
X25628607Y-22053607D01*
X25610883Y-22069671D01*
X25591670Y-22083921D01*
X25571153Y-22096218D01*
X25549529Y-22106446D01*
X25527007Y-22114504D01*
X25503803Y-22120316D01*
X25480142Y-22123826D01*
X25456250Y-22125000D01*
X24543750Y-22125000D01*
X24519858Y-22123826D01*
X24496197Y-22120316D01*
X24472993Y-22114504D01*
X24450471Y-22106446D01*
X24428847Y-22096218D01*
X24408330Y-22083921D01*
X24389117Y-22069671D01*
X24371393Y-22053607D01*
X24355329Y-22035883D01*
X24341079Y-22016670D01*
X24328782Y-21996153D01*
X24318554Y-21974529D01*
X24310496Y-21952007D01*
X24304684Y-21928803D01*
X24301174Y-21905142D01*
X24300000Y-21881250D01*
X24300000Y-21393750D01*
X24301174Y-21369858D01*
X24304684Y-21346197D01*
X24310496Y-21322993D01*
X24318554Y-21300471D01*
X24328782Y-21278847D01*
X24341079Y-21258330D01*
X24355329Y-21239117D01*
X24371393Y-21221393D01*
X24389117Y-21205329D01*
X24408330Y-21191079D01*
X24428847Y-21178782D01*
X24450471Y-21168554D01*
X24472993Y-21160496D01*
X24496197Y-21154684D01*
X24519858Y-21151174D01*
X24543750Y-21150000D01*
X25456250Y-21150000D01*
X25480142Y-21151174D01*
G37*
G04 #@! TD.AperFunction*
G04 #@! TA.AperFunction,SMDPad,CuDef*
G36*
X16305142Y-19901174D02*
G01*
X16328803Y-19904684D01*
X16352007Y-19910496D01*
X16374529Y-19918554D01*
X16396153Y-19928782D01*
X16416670Y-19941079D01*
X16435883Y-19955329D01*
X16453607Y-19971393D01*
X16469671Y-19989117D01*
X16483921Y-20008330D01*
X16496218Y-20028847D01*
X16506446Y-20050471D01*
X16514504Y-20072993D01*
X16520316Y-20096197D01*
X16523826Y-20119858D01*
X16525000Y-20143750D01*
X16525000Y-21056250D01*
X16523826Y-21080142D01*
X16520316Y-21103803D01*
X16514504Y-21127007D01*
X16506446Y-21149529D01*
X16496218Y-21171153D01*
X16483921Y-21191670D01*
X16469671Y-21210883D01*
X16453607Y-21228607D01*
X16435883Y-21244671D01*
X16416670Y-21258921D01*
X16396153Y-21271218D01*
X16374529Y-21281446D01*
X16352007Y-21289504D01*
X16328803Y-21295316D01*
X16305142Y-21298826D01*
X16281250Y-21300000D01*
X15793750Y-21300000D01*
X15769858Y-21298826D01*
X15746197Y-21295316D01*
X15722993Y-21289504D01*
X15700471Y-21281446D01*
X15678847Y-21271218D01*
X15658330Y-21258921D01*
X15639117Y-21244671D01*
X15621393Y-21228607D01*
X15605329Y-21210883D01*
X15591079Y-21191670D01*
X15578782Y-21171153D01*
X15568554Y-21149529D01*
X15560496Y-21127007D01*
X15554684Y-21103803D01*
X15551174Y-21080142D01*
X15550000Y-21056250D01*
X15550000Y-20143750D01*
X15551174Y-20119858D01*
X15554684Y-20096197D01*
X15560496Y-20072993D01*
X15568554Y-20050471D01*
X15578782Y-20028847D01*
X15591079Y-20008330D01*
X15605329Y-19989117D01*
X15621393Y-19971393D01*
X15639117Y-19955329D01*
X15658330Y-19941079D01*
X15678847Y-19928782D01*
X15700471Y-19918554D01*
X15722993Y-19910496D01*
X15746197Y-19904684D01*
X15769858Y-19901174D01*
X15793750Y-19900000D01*
X16281250Y-19900000D01*
X16305142Y-19901174D01*
G37*
G04 #@! TD.AperFunction*
G04 #@! TA.AperFunction,SMDPad,CuDef*
G36*
X14430142Y-19901174D02*
G01*
X14453803Y-19904684D01*
X14477007Y-19910496D01*
X14499529Y-19918554D01*
X14521153Y-19928782D01*
X14541670Y-19941079D01*
X14560883Y-19955329D01*
X14578607Y-19971393D01*
X14594671Y-19989117D01*
X14608921Y-20008330D01*
X14621218Y-20028847D01*
X14631446Y-20050471D01*
X14639504Y-20072993D01*
X14645316Y-20096197D01*
X14648826Y-20119858D01*
X14650000Y-20143750D01*
X14650000Y-21056250D01*
X14648826Y-21080142D01*
X14645316Y-21103803D01*
X14639504Y-21127007D01*
X14631446Y-21149529D01*
X14621218Y-21171153D01*
X14608921Y-21191670D01*
X14594671Y-21210883D01*
X14578607Y-21228607D01*
X14560883Y-21244671D01*
X14541670Y-21258921D01*
X14521153Y-21271218D01*
X14499529Y-21281446D01*
X14477007Y-21289504D01*
X14453803Y-21295316D01*
X14430142Y-21298826D01*
X14406250Y-21300000D01*
X13918750Y-21300000D01*
X13894858Y-21298826D01*
X13871197Y-21295316D01*
X13847993Y-21289504D01*
X13825471Y-21281446D01*
X13803847Y-21271218D01*
X13783330Y-21258921D01*
X13764117Y-21244671D01*
X13746393Y-21228607D01*
X13730329Y-21210883D01*
X13716079Y-21191670D01*
X13703782Y-21171153D01*
X13693554Y-21149529D01*
X13685496Y-21127007D01*
X13679684Y-21103803D01*
X13676174Y-21080142D01*
X13675000Y-21056250D01*
X13675000Y-20143750D01*
X13676174Y-20119858D01*
X13679684Y-20096197D01*
X13685496Y-20072993D01*
X13693554Y-20050471D01*
X13703782Y-20028847D01*
X13716079Y-20008330D01*
X13730329Y-19989117D01*
X13746393Y-19971393D01*
X13764117Y-19955329D01*
X13783330Y-19941079D01*
X13803847Y-19928782D01*
X13825471Y-19918554D01*
X13847993Y-19910496D01*
X13871197Y-19904684D01*
X13894858Y-19901174D01*
X13918750Y-19900000D01*
X14406250Y-19900000D01*
X14430142Y-19901174D01*
G37*
G04 #@! TD.AperFunction*
G04 #@! TA.AperFunction,SMDPad,CuDef*
G36*
X10877691Y-16651053D02*
G01*
X10898926Y-16654203D01*
X10919750Y-16659419D01*
X10939962Y-16666651D01*
X10959368Y-16675830D01*
X10977781Y-16686866D01*
X10995024Y-16699654D01*
X11010930Y-16714070D01*
X11025346Y-16729976D01*
X11038134Y-16747219D01*
X11049170Y-16765632D01*
X11058349Y-16785038D01*
X11065581Y-16805250D01*
X11070797Y-16826074D01*
X11073947Y-16847309D01*
X11075000Y-16868750D01*
X11075000Y-17306250D01*
X11073947Y-17327691D01*
X11070797Y-17348926D01*
X11065581Y-17369750D01*
X11058349Y-17389962D01*
X11049170Y-17409368D01*
X11038134Y-17427781D01*
X11025346Y-17445024D01*
X11010930Y-17460930D01*
X10995024Y-17475346D01*
X10977781Y-17488134D01*
X10959368Y-17499170D01*
X10939962Y-17508349D01*
X10919750Y-17515581D01*
X10898926Y-17520797D01*
X10877691Y-17523947D01*
X10856250Y-17525000D01*
X10343750Y-17525000D01*
X10322309Y-17523947D01*
X10301074Y-17520797D01*
X10280250Y-17515581D01*
X10260038Y-17508349D01*
X10240632Y-17499170D01*
X10222219Y-17488134D01*
X10204976Y-17475346D01*
X10189070Y-17460930D01*
X10174654Y-17445024D01*
X10161866Y-17427781D01*
X10150830Y-17409368D01*
X10141651Y-17389962D01*
X10134419Y-17369750D01*
X10129203Y-17348926D01*
X10126053Y-17327691D01*
X10125000Y-17306250D01*
X10125000Y-16868750D01*
X10126053Y-16847309D01*
X10129203Y-16826074D01*
X10134419Y-16805250D01*
X10141651Y-16785038D01*
X10150830Y-16765632D01*
X10161866Y-16747219D01*
X10174654Y-16729976D01*
X10189070Y-16714070D01*
X10204976Y-16699654D01*
X10222219Y-16686866D01*
X10240632Y-16675830D01*
X10260038Y-16666651D01*
X10280250Y-16659419D01*
X10301074Y-16654203D01*
X10322309Y-16651053D01*
X10343750Y-16650000D01*
X10856250Y-16650000D01*
X10877691Y-16651053D01*
G37*
G04 #@! TD.AperFunction*
G04 #@! TA.AperFunction,SMDPad,CuDef*
G36*
X10877691Y-15076053D02*
G01*
X10898926Y-15079203D01*
X10919750Y-15084419D01*
X10939962Y-15091651D01*
X10959368Y-15100830D01*
X10977781Y-15111866D01*
X10995024Y-15124654D01*
X11010930Y-15139070D01*
X11025346Y-15154976D01*
X11038134Y-15172219D01*
X11049170Y-15190632D01*
X11058349Y-15210038D01*
X11065581Y-15230250D01*
X11070797Y-15251074D01*
X11073947Y-15272309D01*
X11075000Y-15293750D01*
X11075000Y-15731250D01*
X11073947Y-15752691D01*
X11070797Y-15773926D01*
X11065581Y-15794750D01*
X11058349Y-15814962D01*
X11049170Y-15834368D01*
X11038134Y-15852781D01*
X11025346Y-15870024D01*
X11010930Y-15885930D01*
X10995024Y-15900346D01*
X10977781Y-15913134D01*
X10959368Y-15924170D01*
X10939962Y-15933349D01*
X10919750Y-15940581D01*
X10898926Y-15945797D01*
X10877691Y-15948947D01*
X10856250Y-15950000D01*
X10343750Y-15950000D01*
X10322309Y-15948947D01*
X10301074Y-15945797D01*
X10280250Y-15940581D01*
X10260038Y-15933349D01*
X10240632Y-15924170D01*
X10222219Y-15913134D01*
X10204976Y-15900346D01*
X10189070Y-15885930D01*
X10174654Y-15870024D01*
X10161866Y-15852781D01*
X10150830Y-15834368D01*
X10141651Y-15814962D01*
X10134419Y-15794750D01*
X10129203Y-15773926D01*
X10126053Y-15752691D01*
X10125000Y-15731250D01*
X10125000Y-15293750D01*
X10126053Y-15272309D01*
X10129203Y-15251074D01*
X10134419Y-15230250D01*
X10141651Y-15210038D01*
X10150830Y-15190632D01*
X10161866Y-15172219D01*
X10174654Y-15154976D01*
X10189070Y-15139070D01*
X10204976Y-15124654D01*
X10222219Y-15111866D01*
X10240632Y-15100830D01*
X10260038Y-15091651D01*
X10280250Y-15084419D01*
X10301074Y-15079203D01*
X10322309Y-15076053D01*
X10343750Y-15075000D01*
X10856250Y-15075000D01*
X10877691Y-15076053D01*
G37*
G04 #@! TD.AperFunction*
G04 #@! TA.AperFunction,SMDPad,CuDef*
G36*
X26980142Y-13951174D02*
G01*
X27003803Y-13954684D01*
X27027007Y-13960496D01*
X27049529Y-13968554D01*
X27071153Y-13978782D01*
X27091670Y-13991079D01*
X27110883Y-14005329D01*
X27128607Y-14021393D01*
X27144671Y-14039117D01*
X27158921Y-14058330D01*
X27171218Y-14078847D01*
X27181446Y-14100471D01*
X27189504Y-14122993D01*
X27195316Y-14146197D01*
X27198826Y-14169858D01*
X27200000Y-14193750D01*
X27200000Y-14681250D01*
X27198826Y-14705142D01*
X27195316Y-14728803D01*
X27189504Y-14752007D01*
X27181446Y-14774529D01*
X27171218Y-14796153D01*
X27158921Y-14816670D01*
X27144671Y-14835883D01*
X27128607Y-14853607D01*
X27110883Y-14869671D01*
X27091670Y-14883921D01*
X27071153Y-14896218D01*
X27049529Y-14906446D01*
X27027007Y-14914504D01*
X27003803Y-14920316D01*
X26980142Y-14923826D01*
X26956250Y-14925000D01*
X26043750Y-14925000D01*
X26019858Y-14923826D01*
X25996197Y-14920316D01*
X25972993Y-14914504D01*
X25950471Y-14906446D01*
X25928847Y-14896218D01*
X25908330Y-14883921D01*
X25889117Y-14869671D01*
X25871393Y-14853607D01*
X25855329Y-14835883D01*
X25841079Y-14816670D01*
X25828782Y-14796153D01*
X25818554Y-14774529D01*
X25810496Y-14752007D01*
X25804684Y-14728803D01*
X25801174Y-14705142D01*
X25800000Y-14681250D01*
X25800000Y-14193750D01*
X25801174Y-14169858D01*
X25804684Y-14146197D01*
X25810496Y-14122993D01*
X25818554Y-14100471D01*
X25828782Y-14078847D01*
X25841079Y-14058330D01*
X25855329Y-14039117D01*
X25871393Y-14021393D01*
X25889117Y-14005329D01*
X25908330Y-13991079D01*
X25928847Y-13978782D01*
X25950471Y-13968554D01*
X25972993Y-13960496D01*
X25996197Y-13954684D01*
X26019858Y-13951174D01*
X26043750Y-13950000D01*
X26956250Y-13950000D01*
X26980142Y-13951174D01*
G37*
G04 #@! TD.AperFunction*
G04 #@! TA.AperFunction,SMDPad,CuDef*
G36*
X26980142Y-12076174D02*
G01*
X27003803Y-12079684D01*
X27027007Y-12085496D01*
X27049529Y-12093554D01*
X27071153Y-12103782D01*
X27091670Y-12116079D01*
X27110883Y-12130329D01*
X27128607Y-12146393D01*
X27144671Y-12164117D01*
X27158921Y-12183330D01*
X27171218Y-12203847D01*
X27181446Y-12225471D01*
X27189504Y-12247993D01*
X27195316Y-12271197D01*
X27198826Y-12294858D01*
X27200000Y-12318750D01*
X27200000Y-12806250D01*
X27198826Y-12830142D01*
X27195316Y-12853803D01*
X27189504Y-12877007D01*
X27181446Y-12899529D01*
X27171218Y-12921153D01*
X27158921Y-12941670D01*
X27144671Y-12960883D01*
X27128607Y-12978607D01*
X27110883Y-12994671D01*
X27091670Y-13008921D01*
X27071153Y-13021218D01*
X27049529Y-13031446D01*
X27027007Y-13039504D01*
X27003803Y-13045316D01*
X26980142Y-13048826D01*
X26956250Y-13050000D01*
X26043750Y-13050000D01*
X26019858Y-13048826D01*
X25996197Y-13045316D01*
X25972993Y-13039504D01*
X25950471Y-13031446D01*
X25928847Y-13021218D01*
X25908330Y-13008921D01*
X25889117Y-12994671D01*
X25871393Y-12978607D01*
X25855329Y-12960883D01*
X25841079Y-12941670D01*
X25828782Y-12921153D01*
X25818554Y-12899529D01*
X25810496Y-12877007D01*
X25804684Y-12853803D01*
X25801174Y-12830142D01*
X25800000Y-12806250D01*
X25800000Y-12318750D01*
X25801174Y-12294858D01*
X25804684Y-12271197D01*
X25810496Y-12247993D01*
X25818554Y-12225471D01*
X25828782Y-12203847D01*
X25841079Y-12183330D01*
X25855329Y-12164117D01*
X25871393Y-12146393D01*
X25889117Y-12130329D01*
X25908330Y-12116079D01*
X25928847Y-12103782D01*
X25950471Y-12093554D01*
X25972993Y-12085496D01*
X25996197Y-12079684D01*
X26019858Y-12076174D01*
X26043750Y-12075000D01*
X26956250Y-12075000D01*
X26980142Y-12076174D01*
G37*
G04 #@! TD.AperFunction*
G04 #@! TA.AperFunction,SMDPad,CuDef*
G36*
X11527691Y-10626053D02*
G01*
X11548926Y-10629203D01*
X11569750Y-10634419D01*
X11589962Y-10641651D01*
X11609368Y-10650830D01*
X11627781Y-10661866D01*
X11645024Y-10674654D01*
X11660930Y-10689070D01*
X11675346Y-10704976D01*
X11688134Y-10722219D01*
X11699170Y-10740632D01*
X11708349Y-10760038D01*
X11715581Y-10780250D01*
X11720797Y-10801074D01*
X11723947Y-10822309D01*
X11725000Y-10843750D01*
X11725000Y-11356250D01*
X11723947Y-11377691D01*
X11720797Y-11398926D01*
X11715581Y-11419750D01*
X11708349Y-11439962D01*
X11699170Y-11459368D01*
X11688134Y-11477781D01*
X11675346Y-11495024D01*
X11660930Y-11510930D01*
X11645024Y-11525346D01*
X11627781Y-11538134D01*
X11609368Y-11549170D01*
X11589962Y-11558349D01*
X11569750Y-11565581D01*
X11548926Y-11570797D01*
X11527691Y-11573947D01*
X11506250Y-11575000D01*
X11068750Y-11575000D01*
X11047309Y-11573947D01*
X11026074Y-11570797D01*
X11005250Y-11565581D01*
X10985038Y-11558349D01*
X10965632Y-11549170D01*
X10947219Y-11538134D01*
X10929976Y-11525346D01*
X10914070Y-11510930D01*
X10899654Y-11495024D01*
X10886866Y-11477781D01*
X10875830Y-11459368D01*
X10866651Y-11439962D01*
X10859419Y-11419750D01*
X10854203Y-11398926D01*
X10851053Y-11377691D01*
X10850000Y-11356250D01*
X10850000Y-10843750D01*
X10851053Y-10822309D01*
X10854203Y-10801074D01*
X10859419Y-10780250D01*
X10866651Y-10760038D01*
X10875830Y-10740632D01*
X10886866Y-10722219D01*
X10899654Y-10704976D01*
X10914070Y-10689070D01*
X10929976Y-10674654D01*
X10947219Y-10661866D01*
X10965632Y-10650830D01*
X10985038Y-10641651D01*
X11005250Y-10634419D01*
X11026074Y-10629203D01*
X11047309Y-10626053D01*
X11068750Y-10625000D01*
X11506250Y-10625000D01*
X11527691Y-10626053D01*
G37*
G04 #@! TD.AperFunction*
G04 #@! TA.AperFunction,SMDPad,CuDef*
G36*
X9952691Y-10626053D02*
G01*
X9973926Y-10629203D01*
X9994750Y-10634419D01*
X10014962Y-10641651D01*
X10034368Y-10650830D01*
X10052781Y-10661866D01*
X10070024Y-10674654D01*
X10085930Y-10689070D01*
X10100346Y-10704976D01*
X10113134Y-10722219D01*
X10124170Y-10740632D01*
X10133349Y-10760038D01*
X10140581Y-10780250D01*
X10145797Y-10801074D01*
X10148947Y-10822309D01*
X10150000Y-10843750D01*
X10150000Y-11356250D01*
X10148947Y-11377691D01*
X10145797Y-11398926D01*
X10140581Y-11419750D01*
X10133349Y-11439962D01*
X10124170Y-11459368D01*
X10113134Y-11477781D01*
X10100346Y-11495024D01*
X10085930Y-11510930D01*
X10070024Y-11525346D01*
X10052781Y-11538134D01*
X10034368Y-11549170D01*
X10014962Y-11558349D01*
X9994750Y-11565581D01*
X9973926Y-11570797D01*
X9952691Y-11573947D01*
X9931250Y-11575000D01*
X9493750Y-11575000D01*
X9472309Y-11573947D01*
X9451074Y-11570797D01*
X9430250Y-11565581D01*
X9410038Y-11558349D01*
X9390632Y-11549170D01*
X9372219Y-11538134D01*
X9354976Y-11525346D01*
X9339070Y-11510930D01*
X9324654Y-11495024D01*
X9311866Y-11477781D01*
X9300830Y-11459368D01*
X9291651Y-11439962D01*
X9284419Y-11419750D01*
X9279203Y-11398926D01*
X9276053Y-11377691D01*
X9275000Y-11356250D01*
X9275000Y-10843750D01*
X9276053Y-10822309D01*
X9279203Y-10801074D01*
X9284419Y-10780250D01*
X9291651Y-10760038D01*
X9300830Y-10740632D01*
X9311866Y-10722219D01*
X9324654Y-10704976D01*
X9339070Y-10689070D01*
X9354976Y-10674654D01*
X9372219Y-10661866D01*
X9390632Y-10650830D01*
X9410038Y-10641651D01*
X9430250Y-10634419D01*
X9451074Y-10629203D01*
X9472309Y-10626053D01*
X9493750Y-10625000D01*
X9931250Y-10625000D01*
X9952691Y-10626053D01*
G37*
G04 #@! TD.AperFunction*
G04 #@! TA.AperFunction,SMDPad,CuDef*
G36*
X25080142Y-13951174D02*
G01*
X25103803Y-13954684D01*
X25127007Y-13960496D01*
X25149529Y-13968554D01*
X25171153Y-13978782D01*
X25191670Y-13991079D01*
X25210883Y-14005329D01*
X25228607Y-14021393D01*
X25244671Y-14039117D01*
X25258921Y-14058330D01*
X25271218Y-14078847D01*
X25281446Y-14100471D01*
X25289504Y-14122993D01*
X25295316Y-14146197D01*
X25298826Y-14169858D01*
X25300000Y-14193750D01*
X25300000Y-14681250D01*
X25298826Y-14705142D01*
X25295316Y-14728803D01*
X25289504Y-14752007D01*
X25281446Y-14774529D01*
X25271218Y-14796153D01*
X25258921Y-14816670D01*
X25244671Y-14835883D01*
X25228607Y-14853607D01*
X25210883Y-14869671D01*
X25191670Y-14883921D01*
X25171153Y-14896218D01*
X25149529Y-14906446D01*
X25127007Y-14914504D01*
X25103803Y-14920316D01*
X25080142Y-14923826D01*
X25056250Y-14925000D01*
X24143750Y-14925000D01*
X24119858Y-14923826D01*
X24096197Y-14920316D01*
X24072993Y-14914504D01*
X24050471Y-14906446D01*
X24028847Y-14896218D01*
X24008330Y-14883921D01*
X23989117Y-14869671D01*
X23971393Y-14853607D01*
X23955329Y-14835883D01*
X23941079Y-14816670D01*
X23928782Y-14796153D01*
X23918554Y-14774529D01*
X23910496Y-14752007D01*
X23904684Y-14728803D01*
X23901174Y-14705142D01*
X23900000Y-14681250D01*
X23900000Y-14193750D01*
X23901174Y-14169858D01*
X23904684Y-14146197D01*
X23910496Y-14122993D01*
X23918554Y-14100471D01*
X23928782Y-14078847D01*
X23941079Y-14058330D01*
X23955329Y-14039117D01*
X23971393Y-14021393D01*
X23989117Y-14005329D01*
X24008330Y-13991079D01*
X24028847Y-13978782D01*
X24050471Y-13968554D01*
X24072993Y-13960496D01*
X24096197Y-13954684D01*
X24119858Y-13951174D01*
X24143750Y-13950000D01*
X25056250Y-13950000D01*
X25080142Y-13951174D01*
G37*
G04 #@! TD.AperFunction*
G04 #@! TA.AperFunction,SMDPad,CuDef*
G36*
X25080142Y-12076174D02*
G01*
X25103803Y-12079684D01*
X25127007Y-12085496D01*
X25149529Y-12093554D01*
X25171153Y-12103782D01*
X25191670Y-12116079D01*
X25210883Y-12130329D01*
X25228607Y-12146393D01*
X25244671Y-12164117D01*
X25258921Y-12183330D01*
X25271218Y-12203847D01*
X25281446Y-12225471D01*
X25289504Y-12247993D01*
X25295316Y-12271197D01*
X25298826Y-12294858D01*
X25300000Y-12318750D01*
X25300000Y-12806250D01*
X25298826Y-12830142D01*
X25295316Y-12853803D01*
X25289504Y-12877007D01*
X25281446Y-12899529D01*
X25271218Y-12921153D01*
X25258921Y-12941670D01*
X25244671Y-12960883D01*
X25228607Y-12978607D01*
X25210883Y-12994671D01*
X25191670Y-13008921D01*
X25171153Y-13021218D01*
X25149529Y-13031446D01*
X25127007Y-13039504D01*
X25103803Y-13045316D01*
X25080142Y-13048826D01*
X25056250Y-13050000D01*
X24143750Y-13050000D01*
X24119858Y-13048826D01*
X24096197Y-13045316D01*
X24072993Y-13039504D01*
X24050471Y-13031446D01*
X24028847Y-13021218D01*
X24008330Y-13008921D01*
X23989117Y-12994671D01*
X23971393Y-12978607D01*
X23955329Y-12960883D01*
X23941079Y-12941670D01*
X23928782Y-12921153D01*
X23918554Y-12899529D01*
X23910496Y-12877007D01*
X23904684Y-12853803D01*
X23901174Y-12830142D01*
X23900000Y-12806250D01*
X23900000Y-12318750D01*
X23901174Y-12294858D01*
X23904684Y-12271197D01*
X23910496Y-12247993D01*
X23918554Y-12225471D01*
X23928782Y-12203847D01*
X23941079Y-12183330D01*
X23955329Y-12164117D01*
X23971393Y-12146393D01*
X23989117Y-12130329D01*
X24008330Y-12116079D01*
X24028847Y-12103782D01*
X24050471Y-12093554D01*
X24072993Y-12085496D01*
X24096197Y-12079684D01*
X24119858Y-12076174D01*
X24143750Y-12075000D01*
X25056250Y-12075000D01*
X25080142Y-12076174D01*
G37*
G04 #@! TD.AperFunction*
G04 #@! TA.AperFunction,SMDPad,CuDef*
G36*
X13005142Y-13101174D02*
G01*
X13028803Y-13104684D01*
X13052007Y-13110496D01*
X13074529Y-13118554D01*
X13096153Y-13128782D01*
X13116670Y-13141079D01*
X13135883Y-13155329D01*
X13153607Y-13171393D01*
X13169671Y-13189117D01*
X13183921Y-13208330D01*
X13196218Y-13228847D01*
X13206446Y-13250471D01*
X13214504Y-13272993D01*
X13220316Y-13296197D01*
X13223826Y-13319858D01*
X13225000Y-13343750D01*
X13225000Y-14256250D01*
X13223826Y-14280142D01*
X13220316Y-14303803D01*
X13214504Y-14327007D01*
X13206446Y-14349529D01*
X13196218Y-14371153D01*
X13183921Y-14391670D01*
X13169671Y-14410883D01*
X13153607Y-14428607D01*
X13135883Y-14444671D01*
X13116670Y-14458921D01*
X13096153Y-14471218D01*
X13074529Y-14481446D01*
X13052007Y-14489504D01*
X13028803Y-14495316D01*
X13005142Y-14498826D01*
X12981250Y-14500000D01*
X12493750Y-14500000D01*
X12469858Y-14498826D01*
X12446197Y-14495316D01*
X12422993Y-14489504D01*
X12400471Y-14481446D01*
X12378847Y-14471218D01*
X12358330Y-14458921D01*
X12339117Y-14444671D01*
X12321393Y-14428607D01*
X12305329Y-14410883D01*
X12291079Y-14391670D01*
X12278782Y-14371153D01*
X12268554Y-14349529D01*
X12260496Y-14327007D01*
X12254684Y-14303803D01*
X12251174Y-14280142D01*
X12250000Y-14256250D01*
X12250000Y-13343750D01*
X12251174Y-13319858D01*
X12254684Y-13296197D01*
X12260496Y-13272993D01*
X12268554Y-13250471D01*
X12278782Y-13228847D01*
X12291079Y-13208330D01*
X12305329Y-13189117D01*
X12321393Y-13171393D01*
X12339117Y-13155329D01*
X12358330Y-13141079D01*
X12378847Y-13128782D01*
X12400471Y-13118554D01*
X12422993Y-13110496D01*
X12446197Y-13104684D01*
X12469858Y-13101174D01*
X12493750Y-13100000D01*
X12981250Y-13100000D01*
X13005142Y-13101174D01*
G37*
G04 #@! TD.AperFunction*
G04 #@! TA.AperFunction,SMDPad,CuDef*
G36*
X11130142Y-13101174D02*
G01*
X11153803Y-13104684D01*
X11177007Y-13110496D01*
X11199529Y-13118554D01*
X11221153Y-13128782D01*
X11241670Y-13141079D01*
X11260883Y-13155329D01*
X11278607Y-13171393D01*
X11294671Y-13189117D01*
X11308921Y-13208330D01*
X11321218Y-13228847D01*
X11331446Y-13250471D01*
X11339504Y-13272993D01*
X11345316Y-13296197D01*
X11348826Y-13319858D01*
X11350000Y-13343750D01*
X11350000Y-14256250D01*
X11348826Y-14280142D01*
X11345316Y-14303803D01*
X11339504Y-14327007D01*
X11331446Y-14349529D01*
X11321218Y-14371153D01*
X11308921Y-14391670D01*
X11294671Y-14410883D01*
X11278607Y-14428607D01*
X11260883Y-14444671D01*
X11241670Y-14458921D01*
X11221153Y-14471218D01*
X11199529Y-14481446D01*
X11177007Y-14489504D01*
X11153803Y-14495316D01*
X11130142Y-14498826D01*
X11106250Y-14500000D01*
X10618750Y-14500000D01*
X10594858Y-14498826D01*
X10571197Y-14495316D01*
X10547993Y-14489504D01*
X10525471Y-14481446D01*
X10503847Y-14471218D01*
X10483330Y-14458921D01*
X10464117Y-14444671D01*
X10446393Y-14428607D01*
X10430329Y-14410883D01*
X10416079Y-14391670D01*
X10403782Y-14371153D01*
X10393554Y-14349529D01*
X10385496Y-14327007D01*
X10379684Y-14303803D01*
X10376174Y-14280142D01*
X10375000Y-14256250D01*
X10375000Y-13343750D01*
X10376174Y-13319858D01*
X10379684Y-13296197D01*
X10385496Y-13272993D01*
X10393554Y-13250471D01*
X10403782Y-13228847D01*
X10416079Y-13208330D01*
X10430329Y-13189117D01*
X10446393Y-13171393D01*
X10464117Y-13155329D01*
X10483330Y-13141079D01*
X10503847Y-13128782D01*
X10525471Y-13118554D01*
X10547993Y-13110496D01*
X10571197Y-13104684D01*
X10594858Y-13101174D01*
X10618750Y-13100000D01*
X11106250Y-13100000D01*
X11130142Y-13101174D01*
G37*
G04 #@! TD.AperFunction*
D21*
X25000000Y-18699998D03*
X26900000Y-18700000D03*
X7600000Y-11400000D03*
X7700000Y-22700000D03*
X7800000Y-18900000D03*
X7800000Y-15200000D03*
X14600000Y-15900000D03*
X13400000Y-12900000D03*
X15999980Y-9000000D03*
X18350000Y-18500000D03*
X18350000Y-17900000D03*
X11400000Y-21900000D03*
X18650000Y-21350000D03*
X20550000Y-19250000D03*
X18350000Y-17300000D03*
X11300000Y-11950000D03*
X18400000Y-23650000D03*
X29300000Y-15350000D03*
X35500000Y-26500000D03*
X38000000Y-26500000D03*
X8000000Y-27500000D03*
X8000000Y-6500000D03*
X35500000Y-7500000D03*
X38000000Y-7500000D03*
X26700000Y-15174990D03*
X24900002Y-15100000D03*
X23600002Y-21500000D03*
X15350000Y-27150000D03*
X10650000Y-27400000D03*
X15500000Y-6850000D03*
X10700000Y-6650000D03*
X14000000Y-11000000D03*
X25250000Y-11000000D03*
X16350000Y-18925000D03*
X22300000Y-19150000D03*
X18590026Y-10009974D03*
X22600000Y-15100000D03*
X14000000Y-23000000D03*
X23750000Y-22500000D03*
X13658058Y-17641942D03*
X17250000Y-14900000D03*
X20658602Y-18448566D03*
X20800000Y-15550000D03*
X20400000Y-13800000D03*
X27750000Y-13500000D03*
D22*
X12737500Y-13800000D02*
X14262500Y-13800000D01*
D23*
X17700000Y-16800000D02*
X17950000Y-17050000D01*
X16500000Y-16800000D02*
X17700000Y-16800000D01*
X17950000Y-16650000D02*
X17950000Y-17050000D01*
X17100000Y-15800000D02*
X17950000Y-16650000D01*
X16500000Y-15800000D02*
X17100000Y-15800000D01*
D22*
X25000000Y-19762500D02*
X25000000Y-18699998D01*
X26900000Y-19762500D02*
X26900000Y-18700000D01*
D23*
X15387500Y-16800000D02*
X15187500Y-16600000D01*
X16500000Y-16800000D02*
X15387500Y-16800000D01*
D22*
X14600000Y-16062500D02*
X15137500Y-16600000D01*
X14600000Y-15900000D02*
X14600000Y-16062500D01*
X13400000Y-13137500D02*
X12737500Y-13800000D01*
X13400000Y-12900000D02*
X13400000Y-13137500D01*
X17200000Y-20600000D02*
X18200000Y-21600000D01*
X16037500Y-20600000D02*
X17200000Y-20600000D01*
X17950000Y-17050000D02*
X17950000Y-17025736D01*
X17950000Y-17025736D02*
X17975736Y-17000000D01*
X17975736Y-17000000D02*
X18400000Y-17000000D01*
X17950000Y-16239950D02*
X18444975Y-15744975D01*
X17950000Y-17050000D02*
X17950000Y-16239950D01*
X17950000Y-17950000D02*
X18400000Y-18400000D01*
X17950000Y-17050000D02*
X17950000Y-17950000D01*
X18100001Y-17400001D02*
X18400000Y-17700000D01*
X17950000Y-17050000D02*
X17950000Y-17250000D01*
X17950000Y-17250000D02*
X18100001Y-17400001D01*
X17950000Y-17050000D02*
X17950000Y-16849998D01*
X17950000Y-16849998D02*
X18100001Y-16699997D01*
X18100001Y-16699997D02*
X18400000Y-16399998D01*
X11387500Y-21912500D02*
X11400000Y-21900000D01*
X10600000Y-21912500D02*
X11387500Y-21912500D01*
X18400000Y-21600000D02*
X18650000Y-21350000D01*
X18200000Y-21600000D02*
X18400000Y-21600000D01*
D23*
X18191116Y-17050000D02*
X18462498Y-17321382D01*
X17950000Y-17050000D02*
X18191116Y-17050000D01*
D22*
X11287500Y-11937500D02*
X11300000Y-11950000D01*
X11287500Y-11100000D02*
X11287500Y-11937500D01*
X18450000Y-21850000D02*
X18450000Y-23075736D01*
X18200000Y-21600000D02*
X18450000Y-21850000D01*
X18450000Y-23075736D02*
X18450000Y-23500000D01*
X24600000Y-17060000D02*
X24640000Y-17100000D01*
X24600000Y-14437500D02*
X24600000Y-17060000D01*
X26900000Y-17380000D02*
X27180000Y-17100000D01*
X26900000Y-18700000D02*
X26900000Y-17380000D01*
X26500000Y-14437500D02*
X26500000Y-15500000D01*
X29300000Y-14437500D02*
X29300000Y-15350000D01*
D23*
X35500000Y-26500000D02*
X38000000Y-26500000D01*
X35500000Y-7500000D02*
X38000000Y-7500000D01*
D22*
X26500000Y-15500000D02*
X26500000Y-15374990D01*
X26500000Y-15374990D02*
X26700000Y-15174990D01*
X24775000Y-15100000D02*
X24900002Y-15100000D01*
X24600000Y-14437500D02*
X24600000Y-14925000D01*
X24600000Y-14925000D02*
X24775000Y-15100000D01*
X27650000Y-15350000D02*
X29300000Y-15350000D01*
X27180000Y-15820000D02*
X27650000Y-15350000D01*
X27180000Y-17100000D02*
X27180000Y-15820000D01*
X27200000Y-17080000D02*
X27180000Y-17100000D01*
X27200000Y-15600000D02*
X27200000Y-17080000D01*
X27100000Y-15500000D02*
X27200000Y-15600000D01*
X26500000Y-15500000D02*
X27100000Y-15500000D01*
X24600000Y-17140000D02*
X24640000Y-17100000D01*
X24600000Y-18299998D02*
X24600000Y-17140000D01*
X25000000Y-18699998D02*
X24600000Y-18299998D01*
D23*
X8000000Y-27500000D02*
X10550000Y-27500000D01*
X10550000Y-27500000D02*
X10650000Y-27400000D01*
X8000000Y-6500000D02*
X10500000Y-6500000D01*
X10650000Y-6650000D02*
X10700000Y-6650000D01*
X10500000Y-6500000D02*
X10650000Y-6650000D01*
D22*
X10862500Y-13687500D02*
X12850000Y-11700000D01*
X10862500Y-13800000D02*
X10862500Y-13687500D01*
X9100000Y-14087500D02*
X9100000Y-15512500D01*
X10575000Y-14087500D02*
X10862500Y-13800000D01*
X9100000Y-14087500D02*
X10575000Y-14087500D01*
X10862500Y-14062500D02*
X10862500Y-13800000D01*
X12100000Y-15300000D02*
X10862500Y-14062500D01*
X12100000Y-15512500D02*
X12100000Y-15300000D01*
X9100000Y-11712500D02*
X9712500Y-11100000D01*
X9100000Y-12512500D02*
X9100000Y-11712500D01*
X24812500Y-12350000D02*
X24600000Y-12562500D01*
X24812500Y-11100000D02*
X24812500Y-12350000D01*
X13700001Y-10700001D02*
X14000000Y-11000000D01*
X13450000Y-10450000D02*
X13700001Y-10700001D01*
X12150000Y-10450000D02*
X13450000Y-10450000D01*
X10187500Y-10150000D02*
X11850000Y-10150000D01*
X9712500Y-10625000D02*
X10187500Y-10150000D01*
X9712500Y-11100000D02*
X9712500Y-10625000D01*
X11850000Y-10150000D02*
X12150000Y-10450000D01*
X24812500Y-11100000D02*
X24812500Y-11013236D01*
X24825736Y-11000000D02*
X25250000Y-11000000D01*
X24812500Y-11013236D02*
X24825736Y-11000000D01*
X26387500Y-12450000D02*
X26500000Y-12562500D01*
X26387500Y-11100000D02*
X26387500Y-12450000D01*
D23*
X22949999Y-16250001D02*
X22100000Y-17100000D01*
X23525001Y-15674999D02*
X22949999Y-16250001D01*
X23525001Y-13874999D02*
X23525001Y-15674999D01*
X25300000Y-13500000D02*
X23900000Y-13500000D01*
X23900000Y-13500000D02*
X23525001Y-13874999D01*
X26237500Y-12562500D02*
X25300000Y-13500000D01*
X26500000Y-12562500D02*
X26237500Y-12562500D01*
D22*
X10600000Y-17087500D02*
X12100000Y-17087500D01*
X13125000Y-17087500D02*
X13612500Y-16600000D01*
X12100000Y-17087500D02*
X13125000Y-17087500D01*
D23*
X13612500Y-16812500D02*
X13612500Y-16600000D01*
X13700000Y-16900000D02*
X13612500Y-16812500D01*
X13800000Y-16900000D02*
X13700000Y-16900000D01*
X14300000Y-17400000D02*
X13800000Y-16900000D01*
X15900000Y-17300000D02*
X15800000Y-17400000D01*
X15800000Y-17400000D02*
X14300000Y-17400000D01*
X16500000Y-17300000D02*
X15900000Y-17300000D01*
D22*
X9100000Y-17012500D02*
X10600000Y-15512500D01*
X9100000Y-17087500D02*
X9100000Y-17012500D01*
X9100000Y-20487500D02*
X9100000Y-21912500D01*
D23*
X12700000Y-22400000D02*
X12750000Y-22400000D01*
X12400000Y-22700000D02*
X12700000Y-22400000D01*
X9800000Y-22700000D02*
X12400000Y-22700000D01*
X9100000Y-22000000D02*
X9800000Y-22700000D01*
X9100000Y-21912500D02*
X9100000Y-22000000D01*
D22*
X13975000Y-20487500D02*
X14162500Y-20300000D01*
X12750000Y-20550000D02*
X12750000Y-22400000D01*
X12687500Y-20487500D02*
X12750000Y-20550000D01*
X12100000Y-20487500D02*
X12687500Y-20487500D01*
X12687500Y-20487500D02*
X13975000Y-20487500D01*
X9100000Y-23487500D02*
X10600000Y-23487500D01*
X25212500Y-21850000D02*
X25000000Y-21637500D01*
X25212500Y-23200000D02*
X25212500Y-21850000D01*
X14000000Y-23424264D02*
X14000000Y-23000000D01*
X11287501Y-23700001D02*
X13724263Y-23700001D01*
X10600000Y-23487500D02*
X11075000Y-23487500D01*
X11075000Y-23487500D02*
X11287501Y-23700001D01*
X13724263Y-23700001D02*
X14000000Y-23424264D01*
X25212500Y-22500000D02*
X25212500Y-23200000D01*
X23750000Y-22500000D02*
X25212500Y-22500000D01*
X26787500Y-21750000D02*
X26900000Y-21637500D01*
X26787500Y-23200000D02*
X26787500Y-21750000D01*
X29720000Y-19180000D02*
X29720000Y-17100000D01*
X27262500Y-21637500D02*
X29720000Y-19180000D01*
X26900000Y-21637500D02*
X27262500Y-21637500D01*
X29587500Y-12275000D02*
X29300000Y-12562500D01*
X29587500Y-11000000D02*
X29587500Y-12275000D01*
X29462500Y-12400000D02*
X29300000Y-12562500D01*
X36800000Y-12400000D02*
X29462500Y-12400000D01*
X18300000Y-13400000D02*
X18300000Y-12500000D01*
X17900000Y-13800000D02*
X18300000Y-13400000D01*
X16137500Y-13800000D02*
X17900000Y-13800000D01*
D23*
X16500000Y-16300000D02*
X16250000Y-16300000D01*
D22*
X16137500Y-13800000D02*
X15650000Y-14287500D01*
X15650000Y-14287500D02*
X15650000Y-15650000D01*
D23*
X15650000Y-15650000D02*
X15650000Y-15868506D01*
X15650000Y-15868506D02*
X15865747Y-16084253D01*
X15865747Y-16084253D02*
X15865747Y-16145747D01*
X16020000Y-16300000D02*
X16500000Y-16300000D01*
X15865747Y-16145747D02*
X16020000Y-16300000D01*
X13866116Y-17850000D02*
X13658058Y-17641942D01*
X16100000Y-17850000D02*
X13866116Y-17850000D01*
X16150000Y-17800000D02*
X16100000Y-17850000D01*
X16500000Y-17800000D02*
X16150000Y-17800000D01*
D22*
X17237500Y-14900000D02*
X17250000Y-14900000D01*
X16137500Y-13800000D02*
X17237500Y-14900000D01*
D23*
X19400000Y-17800000D02*
X20010036Y-17800000D01*
X20010036Y-17800000D02*
X20658602Y-18448566D01*
D22*
X20500000Y-15550000D02*
X18300000Y-13350000D01*
X18300000Y-13350000D02*
X18300000Y-12500000D01*
X20800000Y-15550000D02*
X20500000Y-15550000D01*
X19052512Y-12500000D02*
X20362249Y-13809737D01*
X18300000Y-12500000D02*
X19052512Y-12500000D01*
X28000000Y-11012500D02*
X28012500Y-11000000D01*
X28000000Y-13250000D02*
X28000000Y-11012500D01*
X27750000Y-13500000D02*
X28000000Y-13250000D01*
X10600000Y-18912500D02*
X12100000Y-18912500D01*
X13287500Y-18912500D02*
X13600000Y-18600000D01*
X12100000Y-18912500D02*
X13287500Y-18912500D01*
D23*
X13612500Y-18612500D02*
X13612500Y-18600000D01*
X14550000Y-19550000D02*
X13612500Y-18612500D01*
X16700000Y-19550000D02*
X14550000Y-19550000D01*
X19400000Y-18685002D02*
X18885002Y-19200000D01*
X17050000Y-19200000D02*
X16700000Y-19550000D01*
X18885002Y-19200000D02*
X17050000Y-19200000D01*
X19400000Y-18300000D02*
X19400000Y-18685002D01*
D22*
X9100000Y-18987500D02*
X10600000Y-20487500D01*
X9100000Y-18912500D02*
X9100000Y-18987500D01*
D23*
X20300000Y-16300000D02*
X19400000Y-16300000D01*
X20400000Y-16200000D02*
X20300000Y-16300000D01*
D22*
X21136004Y-16250000D02*
X20350000Y-16250000D01*
X21899999Y-15486005D02*
X21136004Y-16250000D01*
X21899999Y-14300001D02*
X21899999Y-15486005D01*
X22100000Y-14100000D02*
X21899999Y-14300001D01*
X22100000Y-12500000D02*
X22100000Y-14100000D01*
X21500000Y-11900000D02*
X22100000Y-12500000D01*
X21500000Y-11000000D02*
X21500000Y-11900000D01*
X21250000Y-10750000D02*
X21500000Y-11000000D01*
X20320002Y-10750000D02*
X21250000Y-10750000D01*
X18770002Y-9200000D02*
X20320002Y-10750000D01*
X17684545Y-9200000D02*
X18770002Y-9200000D01*
X16150000Y-10734545D02*
X17684545Y-9200000D01*
X16150000Y-11700000D02*
X16150000Y-10734545D01*
D23*
X20100000Y-16800000D02*
X20150000Y-16850000D01*
X19400000Y-16800000D02*
X20100000Y-16800000D01*
D22*
X22000000Y-21600000D02*
X21399998Y-20999998D01*
X21399998Y-20999998D02*
X21399998Y-18199998D01*
X21399998Y-18199998D02*
X20050000Y-16850000D01*
X22000000Y-22750000D02*
X22000000Y-21600000D01*
X20250000Y-23250000D02*
X21500000Y-23250000D01*
X19150000Y-24350000D02*
X20250000Y-23250000D01*
X17301434Y-24350000D02*
X19150000Y-24350000D01*
X21500000Y-23250000D02*
X22000000Y-22750000D01*
X16050000Y-23098566D02*
X17301434Y-24350000D01*
X16050000Y-22400000D02*
X16050000Y-23098566D01*
D23*
X16500000Y-18300000D02*
X15187500Y-18300000D01*
D24*
G36*
X38675000Y-23484104D02*
G01*
X38660616Y-23630805D01*
X38622627Y-23756629D01*
X38560924Y-23872675D01*
X38477853Y-23974531D01*
X38376586Y-24058307D01*
X38260973Y-24120819D01*
X38135410Y-24159687D01*
X37987450Y-24175238D01*
X34993478Y-24275038D01*
X34990738Y-24275057D01*
X34989734Y-24275163D01*
X34973221Y-24275713D01*
X34966514Y-24276600D01*
X34961306Y-24276600D01*
X34956793Y-24277074D01*
X34859818Y-24287951D01*
X34831010Y-24294075D01*
X34802110Y-24299797D01*
X34797774Y-24301139D01*
X34704759Y-24330645D01*
X34677715Y-24342237D01*
X34650451Y-24353474D01*
X34646459Y-24355632D01*
X34560946Y-24402643D01*
X34536644Y-24419283D01*
X34512106Y-24435587D01*
X34508609Y-24438480D01*
X34433857Y-24501205D01*
X34413255Y-24522244D01*
X34392348Y-24543005D01*
X34389480Y-24546521D01*
X34328334Y-24622571D01*
X34312213Y-24647207D01*
X34295733Y-24671640D01*
X34293602Y-24675647D01*
X34248392Y-24762126D01*
X34237356Y-24789440D01*
X34225943Y-24816591D01*
X34224631Y-24820935D01*
X34197079Y-24914547D01*
X34191557Y-24943494D01*
X34185637Y-24972337D01*
X34185194Y-24976854D01*
X34176349Y-25074036D01*
X34176555Y-25103496D01*
X34176350Y-25132946D01*
X34176792Y-25137462D01*
X34186992Y-25234511D01*
X34192919Y-25263385D01*
X34198435Y-25292299D01*
X34199746Y-25296644D01*
X34228602Y-25389863D01*
X34240036Y-25417063D01*
X34251053Y-25444330D01*
X34253183Y-25448337D01*
X34299596Y-25534175D01*
X34316069Y-25558597D01*
X34332197Y-25583242D01*
X34335065Y-25586759D01*
X34397266Y-25661948D01*
X34418192Y-25682728D01*
X34438775Y-25703747D01*
X34442271Y-25706640D01*
X34517892Y-25768316D01*
X34542439Y-25784625D01*
X34566736Y-25801261D01*
X34570727Y-25803420D01*
X34656888Y-25849232D01*
X34684139Y-25860464D01*
X34711193Y-25872059D01*
X34715528Y-25873401D01*
X34808946Y-25901606D01*
X34837845Y-25907328D01*
X34866657Y-25913452D01*
X34871170Y-25913927D01*
X34941799Y-25920852D01*
X34946996Y-25922241D01*
X34994876Y-25925351D01*
X37989504Y-25825530D01*
X38130805Y-25839384D01*
X38256629Y-25877373D01*
X38372675Y-25939076D01*
X38474532Y-26022148D01*
X38558310Y-26123418D01*
X38620819Y-26239027D01*
X38659686Y-26364586D01*
X38673425Y-26495303D01*
X38661513Y-26626190D01*
X38624405Y-26752273D01*
X38563510Y-26868755D01*
X38481158Y-26971180D01*
X38380472Y-27055665D01*
X38265296Y-27118984D01*
X38140017Y-27158725D01*
X37995063Y-27174984D01*
X8010496Y-28174471D01*
X7869195Y-28160616D01*
X7743371Y-28122627D01*
X7627325Y-28060924D01*
X7525469Y-27977853D01*
X7441693Y-27876586D01*
X7379181Y-27760973D01*
X7340313Y-27635410D01*
X7326575Y-27504698D01*
X7338487Y-27373810D01*
X7375595Y-27247726D01*
X7436488Y-27131249D01*
X7518843Y-27028820D01*
X7619529Y-26944334D01*
X7734700Y-26881018D01*
X7859985Y-26841275D01*
X8004937Y-26825016D01*
X11006522Y-26724962D01*
X11009262Y-26724943D01*
X11010266Y-26724837D01*
X11026779Y-26724287D01*
X11033486Y-26723400D01*
X11038694Y-26723400D01*
X11043207Y-26722926D01*
X11140182Y-26712049D01*
X11168983Y-26705927D01*
X11197891Y-26700203D01*
X11202226Y-26698861D01*
X11295241Y-26669355D01*
X11322310Y-26657753D01*
X11349548Y-26646526D01*
X11353541Y-26644368D01*
X11439053Y-26597357D01*
X11463360Y-26580713D01*
X11487894Y-26564413D01*
X11491391Y-26561520D01*
X11566143Y-26498796D01*
X11586764Y-26477737D01*
X11607652Y-26456995D01*
X11610520Y-26453479D01*
X11671666Y-26377429D01*
X11687780Y-26352804D01*
X11704268Y-26328360D01*
X11706398Y-26324353D01*
X11751609Y-26237874D01*
X11762647Y-26210552D01*
X11774057Y-26183410D01*
X11775369Y-26179065D01*
X11802920Y-26085454D01*
X11808439Y-26056522D01*
X11814363Y-26027662D01*
X11814807Y-26023146D01*
X11823651Y-25925963D01*
X11823445Y-25896504D01*
X11823650Y-25867055D01*
X11823208Y-25862538D01*
X11813008Y-25765490D01*
X11807083Y-25736629D01*
X11801565Y-25707701D01*
X11800254Y-25703356D01*
X11771398Y-25610137D01*
X11759969Y-25582950D01*
X11748947Y-25555669D01*
X11746817Y-25551662D01*
X11700404Y-25465825D01*
X11683936Y-25441411D01*
X11667803Y-25416758D01*
X11664935Y-25413241D01*
X11602733Y-25338052D01*
X11581827Y-25317292D01*
X11561225Y-25296253D01*
X11557728Y-25293360D01*
X11482108Y-25231684D01*
X11457576Y-25215385D01*
X11433264Y-25198739D01*
X11429273Y-25196580D01*
X11343112Y-25150768D01*
X11315861Y-25139536D01*
X11288807Y-25127941D01*
X11284472Y-25126599D01*
X11191054Y-25098394D01*
X11162163Y-25092674D01*
X11133344Y-25086548D01*
X11128830Y-25086073D01*
X11058200Y-25079148D01*
X11053004Y-25077759D01*
X11005124Y-25074649D01*
X8010496Y-25174471D01*
X7869195Y-25160616D01*
X7743371Y-25122627D01*
X7627325Y-25060924D01*
X7525469Y-24977853D01*
X7441693Y-24876586D01*
X7379181Y-24760973D01*
X7340313Y-24635410D01*
X7325000Y-24489716D01*
X7325000Y-24395050D01*
X13501550Y-24200001D01*
X13699703Y-24200001D01*
X13724263Y-24202420D01*
X13748823Y-24200001D01*
X13822280Y-24192766D01*
X13832926Y-24189536D01*
X16354244Y-24109916D01*
X16930509Y-24686181D01*
X16946170Y-24705264D01*
X17022305Y-24767746D01*
X17109167Y-24814175D01*
X17189308Y-24838485D01*
X17203417Y-24842765D01*
X17301434Y-24852419D01*
X17325994Y-24850000D01*
X19125440Y-24850000D01*
X19150000Y-24852419D01*
X19174560Y-24850000D01*
X19248017Y-24842765D01*
X19342267Y-24814175D01*
X19429129Y-24767746D01*
X19505264Y-24705264D01*
X19520929Y-24686176D01*
X20219242Y-23987863D01*
X24654797Y-23847793D01*
X24704742Y-23888781D01*
X24794678Y-23936853D01*
X24892264Y-23966455D01*
X24993750Y-23976451D01*
X25431250Y-23976451D01*
X25532736Y-23966455D01*
X25630322Y-23936853D01*
X25720258Y-23888781D01*
X25799088Y-23824088D01*
X25809560Y-23811327D01*
X26180818Y-23799603D01*
X26200912Y-23824088D01*
X26279742Y-23888781D01*
X26369678Y-23936853D01*
X26467264Y-23966455D01*
X26568750Y-23976451D01*
X27006250Y-23976451D01*
X27107736Y-23966455D01*
X27205322Y-23936853D01*
X27295258Y-23888781D01*
X27374088Y-23824088D01*
X27426464Y-23760267D01*
X38675000Y-23405050D01*
X38675000Y-23484104D01*
G37*
X38675000Y-23484104D02*
X38660616Y-23630805D01*
X38622627Y-23756629D01*
X38560924Y-23872675D01*
X38477853Y-23974531D01*
X38376586Y-24058307D01*
X38260973Y-24120819D01*
X38135410Y-24159687D01*
X37987450Y-24175238D01*
X34993478Y-24275038D01*
X34990738Y-24275057D01*
X34989734Y-24275163D01*
X34973221Y-24275713D01*
X34966514Y-24276600D01*
X34961306Y-24276600D01*
X34956793Y-24277074D01*
X34859818Y-24287951D01*
X34831010Y-24294075D01*
X34802110Y-24299797D01*
X34797774Y-24301139D01*
X34704759Y-24330645D01*
X34677715Y-24342237D01*
X34650451Y-24353474D01*
X34646459Y-24355632D01*
X34560946Y-24402643D01*
X34536644Y-24419283D01*
X34512106Y-24435587D01*
X34508609Y-24438480D01*
X34433857Y-24501205D01*
X34413255Y-24522244D01*
X34392348Y-24543005D01*
X34389480Y-24546521D01*
X34328334Y-24622571D01*
X34312213Y-24647207D01*
X34295733Y-24671640D01*
X34293602Y-24675647D01*
X34248392Y-24762126D01*
X34237356Y-24789440D01*
X34225943Y-24816591D01*
X34224631Y-24820935D01*
X34197079Y-24914547D01*
X34191557Y-24943494D01*
X34185637Y-24972337D01*
X34185194Y-24976854D01*
X34176349Y-25074036D01*
X34176555Y-25103496D01*
X34176350Y-25132946D01*
X34176792Y-25137462D01*
X34186992Y-25234511D01*
X34192919Y-25263385D01*
X34198435Y-25292299D01*
X34199746Y-25296644D01*
X34228602Y-25389863D01*
X34240036Y-25417063D01*
X34251053Y-25444330D01*
X34253183Y-25448337D01*
X34299596Y-25534175D01*
X34316069Y-25558597D01*
X34332197Y-25583242D01*
X34335065Y-25586759D01*
X34397266Y-25661948D01*
X34418192Y-25682728D01*
X34438775Y-25703747D01*
X34442271Y-25706640D01*
X34517892Y-25768316D01*
X34542439Y-25784625D01*
X34566736Y-25801261D01*
X34570727Y-25803420D01*
X34656888Y-25849232D01*
X34684139Y-25860464D01*
X34711193Y-25872059D01*
X34715528Y-25873401D01*
X34808946Y-25901606D01*
X34837845Y-25907328D01*
X34866657Y-25913452D01*
X34871170Y-25913927D01*
X34941799Y-25920852D01*
X34946996Y-25922241D01*
X34994876Y-25925351D01*
X37989504Y-25825530D01*
X38130805Y-25839384D01*
X38256629Y-25877373D01*
X38372675Y-25939076D01*
X38474532Y-26022148D01*
X38558310Y-26123418D01*
X38620819Y-26239027D01*
X38659686Y-26364586D01*
X38673425Y-26495303D01*
X38661513Y-26626190D01*
X38624405Y-26752273D01*
X38563510Y-26868755D01*
X38481158Y-26971180D01*
X38380472Y-27055665D01*
X38265296Y-27118984D01*
X38140017Y-27158725D01*
X37995063Y-27174984D01*
X8010496Y-28174471D01*
X7869195Y-28160616D01*
X7743371Y-28122627D01*
X7627325Y-28060924D01*
X7525469Y-27977853D01*
X7441693Y-27876586D01*
X7379181Y-27760973D01*
X7340313Y-27635410D01*
X7326575Y-27504698D01*
X7338487Y-27373810D01*
X7375595Y-27247726D01*
X7436488Y-27131249D01*
X7518843Y-27028820D01*
X7619529Y-26944334D01*
X7734700Y-26881018D01*
X7859985Y-26841275D01*
X8004937Y-26825016D01*
X11006522Y-26724962D01*
X11009262Y-26724943D01*
X11010266Y-26724837D01*
X11026779Y-26724287D01*
X11033486Y-26723400D01*
X11038694Y-26723400D01*
X11043207Y-26722926D01*
X11140182Y-26712049D01*
X11168983Y-26705927D01*
X11197891Y-26700203D01*
X11202226Y-26698861D01*
X11295241Y-26669355D01*
X11322310Y-26657753D01*
X11349548Y-26646526D01*
X11353541Y-26644368D01*
X11439053Y-26597357D01*
X11463360Y-26580713D01*
X11487894Y-26564413D01*
X11491391Y-26561520D01*
X11566143Y-26498796D01*
X11586764Y-26477737D01*
X11607652Y-26456995D01*
X11610520Y-26453479D01*
X11671666Y-26377429D01*
X11687780Y-26352804D01*
X11704268Y-26328360D01*
X11706398Y-26324353D01*
X11751609Y-26237874D01*
X11762647Y-26210552D01*
X11774057Y-26183410D01*
X11775369Y-26179065D01*
X11802920Y-26085454D01*
X11808439Y-26056522D01*
X11814363Y-26027662D01*
X11814807Y-26023146D01*
X11823651Y-25925963D01*
X11823445Y-25896504D01*
X11823650Y-25867055D01*
X11823208Y-25862538D01*
X11813008Y-25765490D01*
X11807083Y-25736629D01*
X11801565Y-25707701D01*
X11800254Y-25703356D01*
X11771398Y-25610137D01*
X11759969Y-25582950D01*
X11748947Y-25555669D01*
X11746817Y-25551662D01*
X11700404Y-25465825D01*
X11683936Y-25441411D01*
X11667803Y-25416758D01*
X11664935Y-25413241D01*
X11602733Y-25338052D01*
X11581827Y-25317292D01*
X11561225Y-25296253D01*
X11557728Y-25293360D01*
X11482108Y-25231684D01*
X11457576Y-25215385D01*
X11433264Y-25198739D01*
X11429273Y-25196580D01*
X11343112Y-25150768D01*
X11315861Y-25139536D01*
X11288807Y-25127941D01*
X11284472Y-25126599D01*
X11191054Y-25098394D01*
X11162163Y-25092674D01*
X11133344Y-25086548D01*
X11128830Y-25086073D01*
X11058200Y-25079148D01*
X11053004Y-25077759D01*
X11005124Y-25074649D01*
X8010496Y-25174471D01*
X7869195Y-25160616D01*
X7743371Y-25122627D01*
X7627325Y-25060924D01*
X7525469Y-24977853D01*
X7441693Y-24876586D01*
X7379181Y-24760973D01*
X7340313Y-24635410D01*
X7325000Y-24489716D01*
X7325000Y-24395050D01*
X13501550Y-24200001D01*
X13699703Y-24200001D01*
X13724263Y-24202420D01*
X13748823Y-24200001D01*
X13822280Y-24192766D01*
X13832926Y-24189536D01*
X16354244Y-24109916D01*
X16930509Y-24686181D01*
X16946170Y-24705264D01*
X17022305Y-24767746D01*
X17109167Y-24814175D01*
X17189308Y-24838485D01*
X17203417Y-24842765D01*
X17301434Y-24852419D01*
X17325994Y-24850000D01*
X19125440Y-24850000D01*
X19150000Y-24852419D01*
X19174560Y-24850000D01*
X19248017Y-24842765D01*
X19342267Y-24814175D01*
X19429129Y-24767746D01*
X19505264Y-24705264D01*
X19520929Y-24686176D01*
X20219242Y-23987863D01*
X24654797Y-23847793D01*
X24704742Y-23888781D01*
X24794678Y-23936853D01*
X24892264Y-23966455D01*
X24993750Y-23976451D01*
X25431250Y-23976451D01*
X25532736Y-23966455D01*
X25630322Y-23936853D01*
X25720258Y-23888781D01*
X25799088Y-23824088D01*
X25809560Y-23811327D01*
X26180818Y-23799603D01*
X26200912Y-23824088D01*
X26279742Y-23888781D01*
X26369678Y-23936853D01*
X26467264Y-23966455D01*
X26568750Y-23976451D01*
X27006250Y-23976451D01*
X27107736Y-23966455D01*
X27205322Y-23936853D01*
X27295258Y-23888781D01*
X27374088Y-23824088D01*
X27426464Y-23760267D01*
X38675000Y-23405050D01*
X38675000Y-23484104D01*
G36*
X37978700Y-6824470D02*
G01*
X38130805Y-6839384D01*
X38256629Y-6877373D01*
X38372675Y-6939076D01*
X38474532Y-7022148D01*
X38558310Y-7123418D01*
X38620819Y-7239027D01*
X38659686Y-7364586D01*
X38673425Y-7495303D01*
X38661513Y-7626190D01*
X38624405Y-7752273D01*
X38563510Y-7868755D01*
X38481158Y-7971180D01*
X38380472Y-8055665D01*
X38265296Y-8118984D01*
X38140017Y-8158725D01*
X37997321Y-8174731D01*
X34994876Y-8074649D01*
X34964839Y-8076600D01*
X34961306Y-8076600D01*
X34956793Y-8077074D01*
X34955763Y-8077190D01*
X34946996Y-8077759D01*
X34944328Y-8078472D01*
X34859818Y-8087951D01*
X34831010Y-8094075D01*
X34802110Y-8099797D01*
X34797774Y-8101139D01*
X34704759Y-8130645D01*
X34677715Y-8142237D01*
X34650451Y-8153474D01*
X34646459Y-8155632D01*
X34560946Y-8202643D01*
X34536644Y-8219283D01*
X34512106Y-8235587D01*
X34508609Y-8238480D01*
X34433857Y-8301205D01*
X34413255Y-8322244D01*
X34392348Y-8343005D01*
X34389480Y-8346521D01*
X34328334Y-8422571D01*
X34312213Y-8447207D01*
X34295733Y-8471640D01*
X34293602Y-8475647D01*
X34248392Y-8562126D01*
X34237356Y-8589440D01*
X34225943Y-8616591D01*
X34224631Y-8620935D01*
X34197079Y-8714547D01*
X34191557Y-8743494D01*
X34185637Y-8772337D01*
X34185194Y-8776854D01*
X34176349Y-8874036D01*
X34176555Y-8903496D01*
X34176350Y-8932946D01*
X34176792Y-8937462D01*
X34186992Y-9034511D01*
X34192919Y-9063385D01*
X34198435Y-9092299D01*
X34199746Y-9096644D01*
X34228602Y-9189863D01*
X34240036Y-9217063D01*
X34251053Y-9244330D01*
X34253183Y-9248337D01*
X34299596Y-9334175D01*
X34316069Y-9358597D01*
X34332197Y-9383242D01*
X34335065Y-9386759D01*
X34397266Y-9461948D01*
X34418192Y-9482728D01*
X34438775Y-9503747D01*
X34442271Y-9506640D01*
X34517892Y-9568316D01*
X34542439Y-9584625D01*
X34566736Y-9601261D01*
X34570727Y-9603420D01*
X34656888Y-9649232D01*
X34684139Y-9660464D01*
X34711193Y-9672059D01*
X34715528Y-9673401D01*
X34808946Y-9701606D01*
X34837845Y-9707328D01*
X34866657Y-9713452D01*
X34871170Y-9713927D01*
X34962866Y-9722917D01*
X34973221Y-9724287D01*
X37978700Y-9824470D01*
X38130805Y-9839384D01*
X38256629Y-9877373D01*
X38372675Y-9939076D01*
X38474532Y-10022148D01*
X38558310Y-10123418D01*
X38620819Y-10239027D01*
X38659686Y-10364586D01*
X38673383Y-10494899D01*
X20188266Y-9911158D01*
X19140931Y-8863824D01*
X19125266Y-8844736D01*
X19049131Y-8782254D01*
X18962269Y-8735825D01*
X18868019Y-8707235D01*
X18849713Y-8705432D01*
X18770002Y-8697581D01*
X18745442Y-8700000D01*
X17709094Y-8700000D01*
X17684544Y-8697582D01*
X17659994Y-8700000D01*
X17659985Y-8700000D01*
X17586528Y-8707235D01*
X17492278Y-8735825D01*
X17492276Y-8735826D01*
X17485777Y-8739300D01*
X17405416Y-8782254D01*
X17329281Y-8844736D01*
X17313625Y-8863813D01*
X16386342Y-9791098D01*
X11853942Y-9647969D01*
X11850000Y-9647581D01*
X11847972Y-9647781D01*
X7326070Y-9504984D01*
X7339384Y-9369195D01*
X7377373Y-9243371D01*
X7439076Y-9127325D01*
X7522148Y-9025468D01*
X7623418Y-8941690D01*
X7739027Y-8879181D01*
X7864586Y-8840314D01*
X8006511Y-8825397D01*
X11005124Y-8925351D01*
X11035161Y-8923400D01*
X11038694Y-8923400D01*
X11043207Y-8922926D01*
X11044237Y-8922810D01*
X11053004Y-8922241D01*
X11055672Y-8921528D01*
X11140182Y-8912049D01*
X11168983Y-8905927D01*
X11197891Y-8900203D01*
X11202226Y-8898861D01*
X11295241Y-8869355D01*
X11322310Y-8857753D01*
X11349548Y-8846526D01*
X11353541Y-8844368D01*
X11439053Y-8797357D01*
X11463360Y-8780713D01*
X11487894Y-8764413D01*
X11491391Y-8761520D01*
X11566143Y-8698796D01*
X11586764Y-8677737D01*
X11607652Y-8656995D01*
X11610520Y-8653479D01*
X11671666Y-8577429D01*
X11687780Y-8552804D01*
X11704268Y-8528360D01*
X11706398Y-8524353D01*
X11751609Y-8437874D01*
X11762647Y-8410552D01*
X11774057Y-8383410D01*
X11775369Y-8379065D01*
X11802920Y-8285454D01*
X11808439Y-8256522D01*
X11814363Y-8227662D01*
X11814807Y-8223146D01*
X11823651Y-8125963D01*
X11823445Y-8096504D01*
X11823650Y-8067055D01*
X11823208Y-8062538D01*
X11813008Y-7965490D01*
X11807083Y-7936629D01*
X11801565Y-7907701D01*
X11800254Y-7903356D01*
X11771398Y-7810137D01*
X11759969Y-7782950D01*
X11748947Y-7755669D01*
X11746817Y-7751662D01*
X11700404Y-7665825D01*
X11683936Y-7641411D01*
X11667803Y-7616758D01*
X11664935Y-7613241D01*
X11602733Y-7538052D01*
X11581827Y-7517292D01*
X11561225Y-7496253D01*
X11557728Y-7493360D01*
X11482108Y-7431684D01*
X11457576Y-7415385D01*
X11433264Y-7398739D01*
X11429273Y-7396580D01*
X11343112Y-7350768D01*
X11315861Y-7339536D01*
X11288807Y-7327941D01*
X11284472Y-7326599D01*
X11191054Y-7298394D01*
X11162163Y-7292674D01*
X11133344Y-7286548D01*
X11128830Y-7286073D01*
X11037134Y-7277083D01*
X11026779Y-7275713D01*
X8021299Y-7175530D01*
X7869195Y-7160616D01*
X7743371Y-7122627D01*
X7627325Y-7060924D01*
X7525469Y-6977853D01*
X7494903Y-6940905D01*
X17400000Y-6940905D01*
X17400000Y-7059095D01*
X17423058Y-7175014D01*
X17468287Y-7284207D01*
X17533950Y-7382478D01*
X17617522Y-7466050D01*
X17715793Y-7531713D01*
X17824986Y-7576942D01*
X17940905Y-7600000D01*
X18059095Y-7600000D01*
X18175014Y-7576942D01*
X18284207Y-7531713D01*
X18382478Y-7466050D01*
X18466050Y-7382478D01*
X18531713Y-7284207D01*
X18576942Y-7175014D01*
X18600000Y-7059095D01*
X18600000Y-6940905D01*
X18576942Y-6824986D01*
X18531713Y-6715793D01*
X18466050Y-6617522D01*
X18382478Y-6533950D01*
X18284207Y-6468287D01*
X18175014Y-6423058D01*
X18059095Y-6400000D01*
X17940905Y-6400000D01*
X17824986Y-6423058D01*
X17715793Y-6468287D01*
X17617522Y-6533950D01*
X17533950Y-6617522D01*
X17468287Y-6715793D01*
X17423058Y-6824986D01*
X17400000Y-6940905D01*
X7494903Y-6940905D01*
X7441693Y-6876586D01*
X7379181Y-6760973D01*
X7340313Y-6635410D01*
X7326575Y-6504698D01*
X7338487Y-6373810D01*
X7375595Y-6247726D01*
X7436488Y-6131249D01*
X7518843Y-6028820D01*
X7619529Y-5944334D01*
X7734700Y-5881018D01*
X7859985Y-5841275D01*
X8002679Y-5825269D01*
X37978700Y-6824470D01*
G37*
X37978700Y-6824470D02*
X38130805Y-6839384D01*
X38256629Y-6877373D01*
X38372675Y-6939076D01*
X38474532Y-7022148D01*
X38558310Y-7123418D01*
X38620819Y-7239027D01*
X38659686Y-7364586D01*
X38673425Y-7495303D01*
X38661513Y-7626190D01*
X38624405Y-7752273D01*
X38563510Y-7868755D01*
X38481158Y-7971180D01*
X38380472Y-8055665D01*
X38265296Y-8118984D01*
X38140017Y-8158725D01*
X37997321Y-8174731D01*
X34994876Y-8074649D01*
X34964839Y-8076600D01*
X34961306Y-8076600D01*
X34956793Y-8077074D01*
X34955763Y-8077190D01*
X34946996Y-8077759D01*
X34944328Y-8078472D01*
X34859818Y-8087951D01*
X34831010Y-8094075D01*
X34802110Y-8099797D01*
X34797774Y-8101139D01*
X34704759Y-8130645D01*
X34677715Y-8142237D01*
X34650451Y-8153474D01*
X34646459Y-8155632D01*
X34560946Y-8202643D01*
X34536644Y-8219283D01*
X34512106Y-8235587D01*
X34508609Y-8238480D01*
X34433857Y-8301205D01*
X34413255Y-8322244D01*
X34392348Y-8343005D01*
X34389480Y-8346521D01*
X34328334Y-8422571D01*
X34312213Y-8447207D01*
X34295733Y-8471640D01*
X34293602Y-8475647D01*
X34248392Y-8562126D01*
X34237356Y-8589440D01*
X34225943Y-8616591D01*
X34224631Y-8620935D01*
X34197079Y-8714547D01*
X34191557Y-8743494D01*
X34185637Y-8772337D01*
X34185194Y-8776854D01*
X34176349Y-8874036D01*
X34176555Y-8903496D01*
X34176350Y-8932946D01*
X34176792Y-8937462D01*
X34186992Y-9034511D01*
X34192919Y-9063385D01*
X34198435Y-9092299D01*
X34199746Y-9096644D01*
X34228602Y-9189863D01*
X34240036Y-9217063D01*
X34251053Y-9244330D01*
X34253183Y-9248337D01*
X34299596Y-9334175D01*
X34316069Y-9358597D01*
X34332197Y-9383242D01*
X34335065Y-9386759D01*
X34397266Y-9461948D01*
X34418192Y-9482728D01*
X34438775Y-9503747D01*
X34442271Y-9506640D01*
X34517892Y-9568316D01*
X34542439Y-9584625D01*
X34566736Y-9601261D01*
X34570727Y-9603420D01*
X34656888Y-9649232D01*
X34684139Y-9660464D01*
X34711193Y-9672059D01*
X34715528Y-9673401D01*
X34808946Y-9701606D01*
X34837845Y-9707328D01*
X34866657Y-9713452D01*
X34871170Y-9713927D01*
X34962866Y-9722917D01*
X34973221Y-9724287D01*
X37978700Y-9824470D01*
X38130805Y-9839384D01*
X38256629Y-9877373D01*
X38372675Y-9939076D01*
X38474532Y-10022148D01*
X38558310Y-10123418D01*
X38620819Y-10239027D01*
X38659686Y-10364586D01*
X38673383Y-10494899D01*
X20188266Y-9911158D01*
X19140931Y-8863824D01*
X19125266Y-8844736D01*
X19049131Y-8782254D01*
X18962269Y-8735825D01*
X18868019Y-8707235D01*
X18849713Y-8705432D01*
X18770002Y-8697581D01*
X18745442Y-8700000D01*
X17709094Y-8700000D01*
X17684544Y-8697582D01*
X17659994Y-8700000D01*
X17659985Y-8700000D01*
X17586528Y-8707235D01*
X17492278Y-8735825D01*
X17492276Y-8735826D01*
X17485777Y-8739300D01*
X17405416Y-8782254D01*
X17329281Y-8844736D01*
X17313625Y-8863813D01*
X16386342Y-9791098D01*
X11853942Y-9647969D01*
X11850000Y-9647581D01*
X11847972Y-9647781D01*
X7326070Y-9504984D01*
X7339384Y-9369195D01*
X7377373Y-9243371D01*
X7439076Y-9127325D01*
X7522148Y-9025468D01*
X7623418Y-8941690D01*
X7739027Y-8879181D01*
X7864586Y-8840314D01*
X8006511Y-8825397D01*
X11005124Y-8925351D01*
X11035161Y-8923400D01*
X11038694Y-8923400D01*
X11043207Y-8922926D01*
X11044237Y-8922810D01*
X11053004Y-8922241D01*
X11055672Y-8921528D01*
X11140182Y-8912049D01*
X11168983Y-8905927D01*
X11197891Y-8900203D01*
X11202226Y-8898861D01*
X11295241Y-8869355D01*
X11322310Y-8857753D01*
X11349548Y-8846526D01*
X11353541Y-8844368D01*
X11439053Y-8797357D01*
X11463360Y-8780713D01*
X11487894Y-8764413D01*
X11491391Y-8761520D01*
X11566143Y-8698796D01*
X11586764Y-8677737D01*
X11607652Y-8656995D01*
X11610520Y-8653479D01*
X11671666Y-8577429D01*
X11687780Y-8552804D01*
X11704268Y-8528360D01*
X11706398Y-8524353D01*
X11751609Y-8437874D01*
X11762647Y-8410552D01*
X11774057Y-8383410D01*
X11775369Y-8379065D01*
X11802920Y-8285454D01*
X11808439Y-8256522D01*
X11814363Y-8227662D01*
X11814807Y-8223146D01*
X11823651Y-8125963D01*
X11823445Y-8096504D01*
X11823650Y-8067055D01*
X11823208Y-8062538D01*
X11813008Y-7965490D01*
X11807083Y-7936629D01*
X11801565Y-7907701D01*
X11800254Y-7903356D01*
X11771398Y-7810137D01*
X11759969Y-7782950D01*
X11748947Y-7755669D01*
X11746817Y-7751662D01*
X11700404Y-7665825D01*
X11683936Y-7641411D01*
X11667803Y-7616758D01*
X11664935Y-7613241D01*
X11602733Y-7538052D01*
X11581827Y-7517292D01*
X11561225Y-7496253D01*
X11557728Y-7493360D01*
X11482108Y-7431684D01*
X11457576Y-7415385D01*
X11433264Y-7398739D01*
X11429273Y-7396580D01*
X11343112Y-7350768D01*
X11315861Y-7339536D01*
X11288807Y-7327941D01*
X11284472Y-7326599D01*
X11191054Y-7298394D01*
X11162163Y-7292674D01*
X11133344Y-7286548D01*
X11128830Y-7286073D01*
X11037134Y-7277083D01*
X11026779Y-7275713D01*
X8021299Y-7175530D01*
X7869195Y-7160616D01*
X7743371Y-7122627D01*
X7627325Y-7060924D01*
X7525469Y-6977853D01*
X7494903Y-6940905D01*
X17400000Y-6940905D01*
X17400000Y-7059095D01*
X17423058Y-7175014D01*
X17468287Y-7284207D01*
X17533950Y-7382478D01*
X17617522Y-7466050D01*
X17715793Y-7531713D01*
X17824986Y-7576942D01*
X17940905Y-7600000D01*
X18059095Y-7600000D01*
X18175014Y-7576942D01*
X18284207Y-7531713D01*
X18382478Y-7466050D01*
X18466050Y-7382478D01*
X18531713Y-7284207D01*
X18576942Y-7175014D01*
X18600000Y-7059095D01*
X18600000Y-6940905D01*
X18576942Y-6824986D01*
X18531713Y-6715793D01*
X18466050Y-6617522D01*
X18382478Y-6533950D01*
X18284207Y-6468287D01*
X18175014Y-6423058D01*
X18059095Y-6400000D01*
X17940905Y-6400000D01*
X17824986Y-6423058D01*
X17715793Y-6468287D01*
X17617522Y-6533950D01*
X17533950Y-6617522D01*
X17468287Y-6715793D01*
X17423058Y-6824986D01*
X17400000Y-6940905D01*
X7494903Y-6940905D01*
X7441693Y-6876586D01*
X7379181Y-6760973D01*
X7340313Y-6635410D01*
X7326575Y-6504698D01*
X7338487Y-6373810D01*
X7375595Y-6247726D01*
X7436488Y-6131249D01*
X7518843Y-6028820D01*
X7619529Y-5944334D01*
X7734700Y-5881018D01*
X7859985Y-5841275D01*
X8002679Y-5825269D01*
X37978700Y-6824470D01*
G36*
X38475000Y-23474327D02*
G01*
X38463485Y-23591769D01*
X38436831Y-23680049D01*
X38393539Y-23761470D01*
X38335261Y-23832925D01*
X38264209Y-23891706D01*
X38183093Y-23935565D01*
X38095008Y-23962832D01*
X37973646Y-23975588D01*
X34989427Y-24075061D01*
X34989334Y-24075062D01*
X34989300Y-24075066D01*
X34956737Y-24076151D01*
X34946129Y-24077554D01*
X34941790Y-24077554D01*
X34934500Y-24078321D01*
X34837525Y-24089198D01*
X34791006Y-24099086D01*
X34744303Y-24108333D01*
X34737301Y-24110501D01*
X34644285Y-24140007D01*
X34600572Y-24158742D01*
X34556557Y-24176884D01*
X34550109Y-24180371D01*
X34464596Y-24227382D01*
X34425346Y-24254257D01*
X34385698Y-24280599D01*
X34380050Y-24285271D01*
X34305299Y-24347996D01*
X34271990Y-24382011D01*
X34238245Y-24415520D01*
X34233612Y-24421200D01*
X34172466Y-24497250D01*
X34146412Y-24537065D01*
X34119802Y-24576516D01*
X34116361Y-24582988D01*
X34071151Y-24669467D01*
X34053336Y-24713562D01*
X34034887Y-24757448D01*
X34032769Y-24764466D01*
X34005217Y-24858077D01*
X33997220Y-24900000D01*
X19583240Y-24900000D01*
X19647370Y-24847370D01*
X19669296Y-24820653D01*
X20539950Y-23950000D01*
X20599247Y-23950000D01*
X20620871Y-23967746D01*
X20707733Y-24014175D01*
X20801983Y-24042765D01*
X20900000Y-24052419D01*
X23100000Y-24052419D01*
X23198017Y-24042765D01*
X23292267Y-24014175D01*
X23379129Y-23967746D01*
X23455264Y-23905264D01*
X23517746Y-23829129D01*
X23564175Y-23742267D01*
X23592765Y-23648017D01*
X23602419Y-23550000D01*
X23602419Y-23286317D01*
X23671207Y-23300000D01*
X23828793Y-23300000D01*
X23983351Y-23269257D01*
X24128942Y-23208951D01*
X24142338Y-23200000D01*
X24272581Y-23200000D01*
X24272581Y-23456250D01*
X24286438Y-23596943D01*
X24327477Y-23732229D01*
X24394120Y-23856910D01*
X24483807Y-23966193D01*
X24593090Y-24055880D01*
X24717771Y-24122523D01*
X24853057Y-24163562D01*
X24993750Y-24177419D01*
X25431250Y-24177419D01*
X25571943Y-24163562D01*
X25707229Y-24122523D01*
X25831910Y-24055880D01*
X25941193Y-23966193D01*
X26000000Y-23894537D01*
X26058807Y-23966193D01*
X26168090Y-24055880D01*
X26292771Y-24122523D01*
X26428057Y-24163562D01*
X26568750Y-24177419D01*
X27006250Y-24177419D01*
X27146943Y-24163562D01*
X27282229Y-24122523D01*
X27406910Y-24055880D01*
X27516193Y-23966193D01*
X27605880Y-23856910D01*
X27672523Y-23732229D01*
X27713562Y-23596943D01*
X27727419Y-23456250D01*
X27727419Y-22943750D01*
X27713562Y-22803057D01*
X27672523Y-22667771D01*
X27623553Y-22576154D01*
X27641797Y-22570620D01*
X27770799Y-22501667D01*
X27883871Y-22408871D01*
X27976667Y-22295799D01*
X28045620Y-22166797D01*
X28088082Y-22026820D01*
X28097998Y-21926131D01*
X35250000Y-21926131D01*
X35250000Y-22073869D01*
X35278822Y-22218767D01*
X35335359Y-22355258D01*
X35417437Y-22478097D01*
X35521903Y-22582563D01*
X35644742Y-22664641D01*
X35781233Y-22721178D01*
X35926131Y-22750000D01*
X36073869Y-22750000D01*
X36218767Y-22721178D01*
X36355258Y-22664641D01*
X36478097Y-22582563D01*
X36582563Y-22478097D01*
X36664641Y-22355258D01*
X36721178Y-22218767D01*
X36750000Y-22073869D01*
X36750000Y-21926131D01*
X36721178Y-21781233D01*
X36664641Y-21644742D01*
X36582563Y-21521903D01*
X36478097Y-21417437D01*
X36355258Y-21335359D01*
X36218767Y-21278822D01*
X36073869Y-21250000D01*
X35926131Y-21250000D01*
X35781233Y-21278822D01*
X35644742Y-21335359D01*
X35521903Y-21417437D01*
X35417437Y-21521903D01*
X35335359Y-21644742D01*
X35278822Y-21781233D01*
X35250000Y-21926131D01*
X28097998Y-21926131D01*
X28102419Y-21881250D01*
X28102419Y-21787530D01*
X30190663Y-19699287D01*
X30217369Y-19677370D01*
X30239287Y-19650663D01*
X30239292Y-19650658D01*
X30304845Y-19570782D01*
X30369845Y-19449175D01*
X30376427Y-19427478D01*
X30409872Y-19317224D01*
X30420000Y-19214390D01*
X30420000Y-19214387D01*
X30423387Y-19180000D01*
X30420000Y-19145613D01*
X30420000Y-19004549D01*
X33218338Y-19004549D01*
X33277972Y-19216988D01*
X33379921Y-19418118D01*
X33519150Y-19595494D01*
X33690308Y-19742300D01*
X33886817Y-19852894D01*
X34101126Y-19923026D01*
X34325000Y-19950000D01*
X35075000Y-19950000D01*
X35075000Y-18825000D01*
X35125000Y-18825000D01*
X35125000Y-19950000D01*
X35875000Y-19950000D01*
X36098874Y-19923026D01*
X36313183Y-19852894D01*
X36509692Y-19742300D01*
X36680850Y-19595494D01*
X36820079Y-19418118D01*
X36922028Y-19216988D01*
X36981662Y-19004549D01*
X36899702Y-18825000D01*
X35125000Y-18825000D01*
X35075000Y-18825000D01*
X33300298Y-18825000D01*
X33218338Y-19004549D01*
X30420000Y-19004549D01*
X30420000Y-18595451D01*
X33218338Y-18595451D01*
X33300298Y-18775000D01*
X35075000Y-18775000D01*
X35075000Y-17650000D01*
X35125000Y-17650000D01*
X35125000Y-18775000D01*
X36899702Y-18775000D01*
X36981662Y-18595451D01*
X36922028Y-18383012D01*
X36820079Y-18181882D01*
X36680850Y-18004506D01*
X36509692Y-17857700D01*
X36313183Y-17747106D01*
X36098874Y-17676974D01*
X35875000Y-17650000D01*
X35125000Y-17650000D01*
X35075000Y-17650000D01*
X34325000Y-17650000D01*
X34101126Y-17676974D01*
X33886817Y-17747106D01*
X33690308Y-17857700D01*
X33519150Y-18004506D01*
X33379921Y-18181882D01*
X33277972Y-18383012D01*
X33218338Y-18595451D01*
X30420000Y-18595451D01*
X30420000Y-18255906D01*
X30580575Y-18148613D01*
X30768613Y-17960575D01*
X30916354Y-17739465D01*
X31018120Y-17493780D01*
X31070000Y-17232963D01*
X31070000Y-16967037D01*
X31052068Y-16876886D01*
X31250000Y-16876886D01*
X31250000Y-17123114D01*
X31298037Y-17364611D01*
X31392265Y-17592097D01*
X31529062Y-17796828D01*
X31703172Y-17970938D01*
X31907903Y-18107735D01*
X32135389Y-18201963D01*
X32376886Y-18250000D01*
X32623114Y-18250000D01*
X32864611Y-18201963D01*
X33092097Y-18107735D01*
X33296828Y-17970938D01*
X33470938Y-17796828D01*
X33607735Y-17592097D01*
X33701963Y-17364611D01*
X33750000Y-17123114D01*
X33750000Y-16876886D01*
X33701963Y-16635389D01*
X33607735Y-16407903D01*
X33470938Y-16203172D01*
X33296828Y-16029062D01*
X33092097Y-15892265D01*
X32864611Y-15798037D01*
X32623114Y-15750000D01*
X32376886Y-15750000D01*
X32135389Y-15798037D01*
X31907903Y-15892265D01*
X31703172Y-16029062D01*
X31529062Y-16203172D01*
X31392265Y-16407903D01*
X31298037Y-16635389D01*
X31250000Y-16876886D01*
X31052068Y-16876886D01*
X31018120Y-16706220D01*
X30916354Y-16460535D01*
X30768613Y-16239425D01*
X30580575Y-16051387D01*
X30359465Y-15903646D01*
X30113780Y-15801880D01*
X29852963Y-15750000D01*
X29587037Y-15750000D01*
X29326220Y-15801880D01*
X29080535Y-15903646D01*
X28859425Y-16051387D01*
X28671387Y-16239425D01*
X28523646Y-16460535D01*
X28421880Y-16706220D01*
X28396899Y-16831808D01*
X28343853Y-16643985D01*
X28232526Y-16425691D01*
X28080751Y-16233310D01*
X27894360Y-16074235D01*
X27680517Y-15954580D01*
X27447439Y-15878943D01*
X27400196Y-15869547D01*
X27205000Y-15950272D01*
X27205000Y-17075000D01*
X27225000Y-17075000D01*
X27225000Y-17125000D01*
X27205000Y-17125000D01*
X27205000Y-18249728D01*
X27400196Y-18330453D01*
X27447439Y-18321057D01*
X27680517Y-18245420D01*
X27894360Y-18125765D01*
X28080751Y-17966690D01*
X28232526Y-17774309D01*
X28343853Y-17556015D01*
X28396899Y-17368192D01*
X28421880Y-17493780D01*
X28523646Y-17739465D01*
X28671387Y-17960575D01*
X28859425Y-18148613D01*
X29020000Y-18255906D01*
X29020000Y-18890050D01*
X28000120Y-19909931D01*
X28000000Y-19887500D01*
X27900000Y-19787500D01*
X26925000Y-19787500D01*
X26925000Y-19807500D01*
X26875000Y-19807500D01*
X26875000Y-19787500D01*
X25025000Y-19787500D01*
X25025000Y-19807500D01*
X24975000Y-19807500D01*
X24975000Y-19787500D01*
X24955000Y-19787500D01*
X24955000Y-19737500D01*
X24975000Y-19737500D01*
X24975000Y-18975000D01*
X25025000Y-18975000D01*
X25025000Y-19737500D01*
X26875000Y-19737500D01*
X26875000Y-18975000D01*
X26925000Y-18975000D01*
X26925000Y-19737500D01*
X27900000Y-19737500D01*
X28000000Y-19637500D01*
X28001935Y-19275000D01*
X27994212Y-19196586D01*
X27971340Y-19121186D01*
X27934197Y-19051697D01*
X27884211Y-18990789D01*
X27823303Y-18940803D01*
X27753814Y-18903660D01*
X27678414Y-18880788D01*
X27600000Y-18873065D01*
X27025000Y-18875000D01*
X26925000Y-18975000D01*
X26875000Y-18975000D01*
X26775000Y-18875000D01*
X26200000Y-18873065D01*
X26121586Y-18880788D01*
X26046186Y-18903660D01*
X25976697Y-18940803D01*
X25950000Y-18962713D01*
X25923303Y-18940803D01*
X25853814Y-18903660D01*
X25778414Y-18880788D01*
X25700000Y-18873065D01*
X25125000Y-18875000D01*
X25025000Y-18975000D01*
X24975000Y-18975000D01*
X24875000Y-18875000D01*
X24300000Y-18873065D01*
X24221586Y-18880788D01*
X24146186Y-18903660D01*
X24100000Y-18928347D01*
X24100000Y-18223327D01*
X24139483Y-18245420D01*
X24372561Y-18321057D01*
X24419804Y-18330453D01*
X24615000Y-18249728D01*
X24615000Y-17125000D01*
X24665000Y-17125000D01*
X24665000Y-18249728D01*
X24860196Y-18330453D01*
X24907439Y-18321057D01*
X25140517Y-18245420D01*
X25354360Y-18125765D01*
X25540751Y-17966690D01*
X25692526Y-17774309D01*
X25803853Y-17556015D01*
X25870454Y-17320196D01*
X25949546Y-17320196D01*
X26016147Y-17556015D01*
X26127474Y-17774309D01*
X26279249Y-17966690D01*
X26465640Y-18125765D01*
X26679483Y-18245420D01*
X26912561Y-18321057D01*
X26959804Y-18330453D01*
X27155000Y-18249728D01*
X27155000Y-17125000D01*
X26030249Y-17125000D01*
X25949546Y-17320196D01*
X25870454Y-17320196D01*
X25789751Y-17125000D01*
X24665000Y-17125000D01*
X24615000Y-17125000D01*
X24595000Y-17125000D01*
X24595000Y-17075000D01*
X24615000Y-17075000D01*
X24615000Y-15950272D01*
X24665000Y-15950272D01*
X24665000Y-17075000D01*
X25789751Y-17075000D01*
X25870454Y-16879804D01*
X25949546Y-16879804D01*
X26030249Y-17075000D01*
X27155000Y-17075000D01*
X27155000Y-15950272D01*
X26959804Y-15869547D01*
X26912561Y-15878943D01*
X26679483Y-15954580D01*
X26465640Y-16074235D01*
X26279249Y-16233310D01*
X26127474Y-16425691D01*
X26016147Y-16643985D01*
X25949546Y-16879804D01*
X25870454Y-16879804D01*
X25803853Y-16643985D01*
X25692526Y-16425691D01*
X25540751Y-16233310D01*
X25354360Y-16074235D01*
X25140517Y-15954580D01*
X24907439Y-15878943D01*
X24860196Y-15869547D01*
X24665000Y-15950272D01*
X24615000Y-15950272D01*
X24419804Y-15869547D01*
X24372561Y-15878943D01*
X24139483Y-15954580D01*
X24100000Y-15976673D01*
X24100000Y-15925099D01*
X24105220Y-15915333D01*
X24140958Y-15797520D01*
X24150001Y-15705703D01*
X24150001Y-15705701D01*
X24153025Y-15674999D01*
X24150001Y-15644297D01*
X24150001Y-15404549D01*
X33218338Y-15404549D01*
X33277972Y-15616988D01*
X33379921Y-15818118D01*
X33519150Y-15995494D01*
X33690308Y-16142300D01*
X33886817Y-16252894D01*
X34101126Y-16323026D01*
X34325000Y-16350000D01*
X35075000Y-16350000D01*
X35075000Y-15225000D01*
X35125000Y-15225000D01*
X35125000Y-16350000D01*
X35875000Y-16350000D01*
X36098874Y-16323026D01*
X36313183Y-16252894D01*
X36509692Y-16142300D01*
X36680850Y-15995494D01*
X36820079Y-15818118D01*
X36922028Y-15616988D01*
X36981662Y-15404549D01*
X36899702Y-15225000D01*
X35125000Y-15225000D01*
X35075000Y-15225000D01*
X33300298Y-15225000D01*
X33218338Y-15404549D01*
X24150001Y-15404549D01*
X24150001Y-15326094D01*
X24475000Y-15325000D01*
X24575000Y-15225000D01*
X24575000Y-14462500D01*
X24625000Y-14462500D01*
X24625000Y-15225000D01*
X24725000Y-15325000D01*
X25300000Y-15326935D01*
X25378414Y-15319212D01*
X25453814Y-15296340D01*
X25523303Y-15259197D01*
X25550000Y-15237287D01*
X25576697Y-15259197D01*
X25646186Y-15296340D01*
X25721586Y-15319212D01*
X25800000Y-15326935D01*
X26375000Y-15325000D01*
X26475000Y-15225000D01*
X26475000Y-14462500D01*
X26525000Y-14462500D01*
X26525000Y-15225000D01*
X26625000Y-15325000D01*
X27200000Y-15326935D01*
X27278414Y-15319212D01*
X27353814Y-15296340D01*
X27423303Y-15259197D01*
X27484211Y-15209211D01*
X27534197Y-15148303D01*
X27571340Y-15078814D01*
X27594212Y-15003414D01*
X27601935Y-14925000D01*
X28198065Y-14925000D01*
X28205788Y-15003414D01*
X28228660Y-15078814D01*
X28265803Y-15148303D01*
X28315789Y-15209211D01*
X28376697Y-15259197D01*
X28446186Y-15296340D01*
X28521586Y-15319212D01*
X28600000Y-15326935D01*
X29175000Y-15325000D01*
X29275000Y-15225000D01*
X29275000Y-14462500D01*
X29325000Y-14462500D01*
X29325000Y-15225000D01*
X29425000Y-15325000D01*
X30000000Y-15326935D01*
X30078414Y-15319212D01*
X30153814Y-15296340D01*
X30223303Y-15259197D01*
X30284211Y-15209211D01*
X30334197Y-15148303D01*
X30371340Y-15078814D01*
X30394212Y-15003414D01*
X30394996Y-14995451D01*
X33218338Y-14995451D01*
X33300298Y-15175000D01*
X35075000Y-15175000D01*
X35075000Y-14050000D01*
X35125000Y-14050000D01*
X35125000Y-15175000D01*
X36899702Y-15175000D01*
X36981662Y-14995451D01*
X36922028Y-14783012D01*
X36820079Y-14581882D01*
X36680850Y-14404506D01*
X36509692Y-14257700D01*
X36313183Y-14147106D01*
X36098874Y-14076974D01*
X35875000Y-14050000D01*
X35125000Y-14050000D01*
X35075000Y-14050000D01*
X34325000Y-14050000D01*
X34101126Y-14076974D01*
X33886817Y-14147106D01*
X33690308Y-14257700D01*
X33519150Y-14404506D01*
X33379921Y-14581882D01*
X33277972Y-14783012D01*
X33218338Y-14995451D01*
X30394996Y-14995451D01*
X30401935Y-14925000D01*
X30400000Y-14562500D01*
X30300000Y-14462500D01*
X29325000Y-14462500D01*
X29275000Y-14462500D01*
X28300000Y-14462500D01*
X28200000Y-14562500D01*
X28198065Y-14925000D01*
X27601935Y-14925000D01*
X27600000Y-14562500D01*
X27500000Y-14462500D01*
X26525000Y-14462500D01*
X26475000Y-14462500D01*
X24625000Y-14462500D01*
X24575000Y-14462500D01*
X24555000Y-14462500D01*
X24555000Y-14412500D01*
X24575000Y-14412500D01*
X24575000Y-14392500D01*
X24625000Y-14392500D01*
X24625000Y-14412500D01*
X26475000Y-14412500D01*
X26475000Y-14392500D01*
X26525000Y-14392500D01*
X26525000Y-14412500D01*
X27500000Y-14412500D01*
X27600000Y-14312500D01*
X27600142Y-14285865D01*
X27671207Y-14300000D01*
X27828793Y-14300000D01*
X27983351Y-14269257D01*
X28128942Y-14208951D01*
X28199197Y-14162008D01*
X28200000Y-14312500D01*
X28300000Y-14412500D01*
X29275000Y-14412500D01*
X29275000Y-14392500D01*
X29325000Y-14392500D01*
X29325000Y-14412500D01*
X30300000Y-14412500D01*
X30400000Y-14312500D01*
X30401935Y-13950000D01*
X30394212Y-13871586D01*
X30371340Y-13796186D01*
X30334197Y-13726697D01*
X30284211Y-13665789D01*
X30223303Y-13615803D01*
X30153814Y-13578660D01*
X30078414Y-13555788D01*
X30000000Y-13548065D01*
X29793399Y-13548760D01*
X29901820Y-13538082D01*
X30041797Y-13495620D01*
X30170799Y-13426667D01*
X30283871Y-13333871D01*
X30376667Y-13220799D01*
X30441235Y-13100000D01*
X35456261Y-13100000D01*
X35569331Y-13160437D01*
X35804957Y-13231913D01*
X35988595Y-13250000D01*
X37611405Y-13250000D01*
X37795043Y-13231913D01*
X38030669Y-13160437D01*
X38247823Y-13044366D01*
X38438160Y-12888160D01*
X38475001Y-12843269D01*
X38475000Y-23474327D01*
G37*
X38475000Y-23474327D02*
X38463485Y-23591769D01*
X38436831Y-23680049D01*
X38393539Y-23761470D01*
X38335261Y-23832925D01*
X38264209Y-23891706D01*
X38183093Y-23935565D01*
X38095008Y-23962832D01*
X37973646Y-23975588D01*
X34989427Y-24075061D01*
X34989334Y-24075062D01*
X34989300Y-24075066D01*
X34956737Y-24076151D01*
X34946129Y-24077554D01*
X34941790Y-24077554D01*
X34934500Y-24078321D01*
X34837525Y-24089198D01*
X34791006Y-24099086D01*
X34744303Y-24108333D01*
X34737301Y-24110501D01*
X34644285Y-24140007D01*
X34600572Y-24158742D01*
X34556557Y-24176884D01*
X34550109Y-24180371D01*
X34464596Y-24227382D01*
X34425346Y-24254257D01*
X34385698Y-24280599D01*
X34380050Y-24285271D01*
X34305299Y-24347996D01*
X34271990Y-24382011D01*
X34238245Y-24415520D01*
X34233612Y-24421200D01*
X34172466Y-24497250D01*
X34146412Y-24537065D01*
X34119802Y-24576516D01*
X34116361Y-24582988D01*
X34071151Y-24669467D01*
X34053336Y-24713562D01*
X34034887Y-24757448D01*
X34032769Y-24764466D01*
X34005217Y-24858077D01*
X33997220Y-24900000D01*
X19583240Y-24900000D01*
X19647370Y-24847370D01*
X19669296Y-24820653D01*
X20539950Y-23950000D01*
X20599247Y-23950000D01*
X20620871Y-23967746D01*
X20707733Y-24014175D01*
X20801983Y-24042765D01*
X20900000Y-24052419D01*
X23100000Y-24052419D01*
X23198017Y-24042765D01*
X23292267Y-24014175D01*
X23379129Y-23967746D01*
X23455264Y-23905264D01*
X23517746Y-23829129D01*
X23564175Y-23742267D01*
X23592765Y-23648017D01*
X23602419Y-23550000D01*
X23602419Y-23286317D01*
X23671207Y-23300000D01*
X23828793Y-23300000D01*
X23983351Y-23269257D01*
X24128942Y-23208951D01*
X24142338Y-23200000D01*
X24272581Y-23200000D01*
X24272581Y-23456250D01*
X24286438Y-23596943D01*
X24327477Y-23732229D01*
X24394120Y-23856910D01*
X24483807Y-23966193D01*
X24593090Y-24055880D01*
X24717771Y-24122523D01*
X24853057Y-24163562D01*
X24993750Y-24177419D01*
X25431250Y-24177419D01*
X25571943Y-24163562D01*
X25707229Y-24122523D01*
X25831910Y-24055880D01*
X25941193Y-23966193D01*
X26000000Y-23894537D01*
X26058807Y-23966193D01*
X26168090Y-24055880D01*
X26292771Y-24122523D01*
X26428057Y-24163562D01*
X26568750Y-24177419D01*
X27006250Y-24177419D01*
X27146943Y-24163562D01*
X27282229Y-24122523D01*
X27406910Y-24055880D01*
X27516193Y-23966193D01*
X27605880Y-23856910D01*
X27672523Y-23732229D01*
X27713562Y-23596943D01*
X27727419Y-23456250D01*
X27727419Y-22943750D01*
X27713562Y-22803057D01*
X27672523Y-22667771D01*
X27623553Y-22576154D01*
X27641797Y-22570620D01*
X27770799Y-22501667D01*
X27883871Y-22408871D01*
X27976667Y-22295799D01*
X28045620Y-22166797D01*
X28088082Y-22026820D01*
X28097998Y-21926131D01*
X35250000Y-21926131D01*
X35250000Y-22073869D01*
X35278822Y-22218767D01*
X35335359Y-22355258D01*
X35417437Y-22478097D01*
X35521903Y-22582563D01*
X35644742Y-22664641D01*
X35781233Y-22721178D01*
X35926131Y-22750000D01*
X36073869Y-22750000D01*
X36218767Y-22721178D01*
X36355258Y-22664641D01*
X36478097Y-22582563D01*
X36582563Y-22478097D01*
X36664641Y-22355258D01*
X36721178Y-22218767D01*
X36750000Y-22073869D01*
X36750000Y-21926131D01*
X36721178Y-21781233D01*
X36664641Y-21644742D01*
X36582563Y-21521903D01*
X36478097Y-21417437D01*
X36355258Y-21335359D01*
X36218767Y-21278822D01*
X36073869Y-21250000D01*
X35926131Y-21250000D01*
X35781233Y-21278822D01*
X35644742Y-21335359D01*
X35521903Y-21417437D01*
X35417437Y-21521903D01*
X35335359Y-21644742D01*
X35278822Y-21781233D01*
X35250000Y-21926131D01*
X28097998Y-21926131D01*
X28102419Y-21881250D01*
X28102419Y-21787530D01*
X30190663Y-19699287D01*
X30217369Y-19677370D01*
X30239287Y-19650663D01*
X30239292Y-19650658D01*
X30304845Y-19570782D01*
X30369845Y-19449175D01*
X30376427Y-19427478D01*
X30409872Y-19317224D01*
X30420000Y-19214390D01*
X30420000Y-19214387D01*
X30423387Y-19180000D01*
X30420000Y-19145613D01*
X30420000Y-19004549D01*
X33218338Y-19004549D01*
X33277972Y-19216988D01*
X33379921Y-19418118D01*
X33519150Y-19595494D01*
X33690308Y-19742300D01*
X33886817Y-19852894D01*
X34101126Y-19923026D01*
X34325000Y-19950000D01*
X35075000Y-19950000D01*
X35075000Y-18825000D01*
X35125000Y-18825000D01*
X35125000Y-19950000D01*
X35875000Y-19950000D01*
X36098874Y-19923026D01*
X36313183Y-19852894D01*
X36509692Y-19742300D01*
X36680850Y-19595494D01*
X36820079Y-19418118D01*
X36922028Y-19216988D01*
X36981662Y-19004549D01*
X36899702Y-18825000D01*
X35125000Y-18825000D01*
X35075000Y-18825000D01*
X33300298Y-18825000D01*
X33218338Y-19004549D01*
X30420000Y-19004549D01*
X30420000Y-18595451D01*
X33218338Y-18595451D01*
X33300298Y-18775000D01*
X35075000Y-18775000D01*
X35075000Y-17650000D01*
X35125000Y-17650000D01*
X35125000Y-18775000D01*
X36899702Y-18775000D01*
X36981662Y-18595451D01*
X36922028Y-18383012D01*
X36820079Y-18181882D01*
X36680850Y-18004506D01*
X36509692Y-17857700D01*
X36313183Y-17747106D01*
X36098874Y-17676974D01*
X35875000Y-17650000D01*
X35125000Y-17650000D01*
X35075000Y-17650000D01*
X34325000Y-17650000D01*
X34101126Y-17676974D01*
X33886817Y-17747106D01*
X33690308Y-17857700D01*
X33519150Y-18004506D01*
X33379921Y-18181882D01*
X33277972Y-18383012D01*
X33218338Y-18595451D01*
X30420000Y-18595451D01*
X30420000Y-18255906D01*
X30580575Y-18148613D01*
X30768613Y-17960575D01*
X30916354Y-17739465D01*
X31018120Y-17493780D01*
X31070000Y-17232963D01*
X31070000Y-16967037D01*
X31052068Y-16876886D01*
X31250000Y-16876886D01*
X31250000Y-17123114D01*
X31298037Y-17364611D01*
X31392265Y-17592097D01*
X31529062Y-17796828D01*
X31703172Y-17970938D01*
X31907903Y-18107735D01*
X32135389Y-18201963D01*
X32376886Y-18250000D01*
X32623114Y-18250000D01*
X32864611Y-18201963D01*
X33092097Y-18107735D01*
X33296828Y-17970938D01*
X33470938Y-17796828D01*
X33607735Y-17592097D01*
X33701963Y-17364611D01*
X33750000Y-17123114D01*
X33750000Y-16876886D01*
X33701963Y-16635389D01*
X33607735Y-16407903D01*
X33470938Y-16203172D01*
X33296828Y-16029062D01*
X33092097Y-15892265D01*
X32864611Y-15798037D01*
X32623114Y-15750000D01*
X32376886Y-15750000D01*
X32135389Y-15798037D01*
X31907903Y-15892265D01*
X31703172Y-16029062D01*
X31529062Y-16203172D01*
X31392265Y-16407903D01*
X31298037Y-16635389D01*
X31250000Y-16876886D01*
X31052068Y-16876886D01*
X31018120Y-16706220D01*
X30916354Y-16460535D01*
X30768613Y-16239425D01*
X30580575Y-16051387D01*
X30359465Y-15903646D01*
X30113780Y-15801880D01*
X29852963Y-15750000D01*
X29587037Y-15750000D01*
X29326220Y-15801880D01*
X29080535Y-15903646D01*
X28859425Y-16051387D01*
X28671387Y-16239425D01*
X28523646Y-16460535D01*
X28421880Y-16706220D01*
X28396899Y-16831808D01*
X28343853Y-16643985D01*
X28232526Y-16425691D01*
X28080751Y-16233310D01*
X27894360Y-16074235D01*
X27680517Y-15954580D01*
X27447439Y-15878943D01*
X27400196Y-15869547D01*
X27205000Y-15950272D01*
X27205000Y-17075000D01*
X27225000Y-17075000D01*
X27225000Y-17125000D01*
X27205000Y-17125000D01*
X27205000Y-18249728D01*
X27400196Y-18330453D01*
X27447439Y-18321057D01*
X27680517Y-18245420D01*
X27894360Y-18125765D01*
X28080751Y-17966690D01*
X28232526Y-17774309D01*
X28343853Y-17556015D01*
X28396899Y-17368192D01*
X28421880Y-17493780D01*
X28523646Y-17739465D01*
X28671387Y-17960575D01*
X28859425Y-18148613D01*
X29020000Y-18255906D01*
X29020000Y-18890050D01*
X28000120Y-19909931D01*
X28000000Y-19887500D01*
X27900000Y-19787500D01*
X26925000Y-19787500D01*
X26925000Y-19807500D01*
X26875000Y-19807500D01*
X26875000Y-19787500D01*
X25025000Y-19787500D01*
X25025000Y-19807500D01*
X24975000Y-19807500D01*
X24975000Y-19787500D01*
X24955000Y-19787500D01*
X24955000Y-19737500D01*
X24975000Y-19737500D01*
X24975000Y-18975000D01*
X25025000Y-18975000D01*
X25025000Y-19737500D01*
X26875000Y-19737500D01*
X26875000Y-18975000D01*
X26925000Y-18975000D01*
X26925000Y-19737500D01*
X27900000Y-19737500D01*
X28000000Y-19637500D01*
X28001935Y-19275000D01*
X27994212Y-19196586D01*
X27971340Y-19121186D01*
X27934197Y-19051697D01*
X27884211Y-18990789D01*
X27823303Y-18940803D01*
X27753814Y-18903660D01*
X27678414Y-18880788D01*
X27600000Y-18873065D01*
X27025000Y-18875000D01*
X26925000Y-18975000D01*
X26875000Y-18975000D01*
X26775000Y-18875000D01*
X26200000Y-18873065D01*
X26121586Y-18880788D01*
X26046186Y-18903660D01*
X25976697Y-18940803D01*
X25950000Y-18962713D01*
X25923303Y-18940803D01*
X25853814Y-18903660D01*
X25778414Y-18880788D01*
X25700000Y-18873065D01*
X25125000Y-18875000D01*
X25025000Y-18975000D01*
X24975000Y-18975000D01*
X24875000Y-18875000D01*
X24300000Y-18873065D01*
X24221586Y-18880788D01*
X24146186Y-18903660D01*
X24100000Y-18928347D01*
X24100000Y-18223327D01*
X24139483Y-18245420D01*
X24372561Y-18321057D01*
X24419804Y-18330453D01*
X24615000Y-18249728D01*
X24615000Y-17125000D01*
X24665000Y-17125000D01*
X24665000Y-18249728D01*
X24860196Y-18330453D01*
X24907439Y-18321057D01*
X25140517Y-18245420D01*
X25354360Y-18125765D01*
X25540751Y-17966690D01*
X25692526Y-17774309D01*
X25803853Y-17556015D01*
X25870454Y-17320196D01*
X25949546Y-17320196D01*
X26016147Y-17556015D01*
X26127474Y-17774309D01*
X26279249Y-17966690D01*
X26465640Y-18125765D01*
X26679483Y-18245420D01*
X26912561Y-18321057D01*
X26959804Y-18330453D01*
X27155000Y-18249728D01*
X27155000Y-17125000D01*
X26030249Y-17125000D01*
X25949546Y-17320196D01*
X25870454Y-17320196D01*
X25789751Y-17125000D01*
X24665000Y-17125000D01*
X24615000Y-17125000D01*
X24595000Y-17125000D01*
X24595000Y-17075000D01*
X24615000Y-17075000D01*
X24615000Y-15950272D01*
X24665000Y-15950272D01*
X24665000Y-17075000D01*
X25789751Y-17075000D01*
X25870454Y-16879804D01*
X25949546Y-16879804D01*
X26030249Y-17075000D01*
X27155000Y-17075000D01*
X27155000Y-15950272D01*
X26959804Y-15869547D01*
X26912561Y-15878943D01*
X26679483Y-15954580D01*
X26465640Y-16074235D01*
X26279249Y-16233310D01*
X26127474Y-16425691D01*
X26016147Y-16643985D01*
X25949546Y-16879804D01*
X25870454Y-16879804D01*
X25803853Y-16643985D01*
X25692526Y-16425691D01*
X25540751Y-16233310D01*
X25354360Y-16074235D01*
X25140517Y-15954580D01*
X24907439Y-15878943D01*
X24860196Y-15869547D01*
X24665000Y-15950272D01*
X24615000Y-15950272D01*
X24419804Y-15869547D01*
X24372561Y-15878943D01*
X24139483Y-15954580D01*
X24100000Y-15976673D01*
X24100000Y-15925099D01*
X24105220Y-15915333D01*
X24140958Y-15797520D01*
X24150001Y-15705703D01*
X24150001Y-15705701D01*
X24153025Y-15674999D01*
X24150001Y-15644297D01*
X24150001Y-15404549D01*
X33218338Y-15404549D01*
X33277972Y-15616988D01*
X33379921Y-15818118D01*
X33519150Y-15995494D01*
X33690308Y-16142300D01*
X33886817Y-16252894D01*
X34101126Y-16323026D01*
X34325000Y-16350000D01*
X35075000Y-16350000D01*
X35075000Y-15225000D01*
X35125000Y-15225000D01*
X35125000Y-16350000D01*
X35875000Y-16350000D01*
X36098874Y-16323026D01*
X36313183Y-16252894D01*
X36509692Y-16142300D01*
X36680850Y-15995494D01*
X36820079Y-15818118D01*
X36922028Y-15616988D01*
X36981662Y-15404549D01*
X36899702Y-15225000D01*
X35125000Y-15225000D01*
X35075000Y-15225000D01*
X33300298Y-15225000D01*
X33218338Y-15404549D01*
X24150001Y-15404549D01*
X24150001Y-15326094D01*
X24475000Y-15325000D01*
X24575000Y-15225000D01*
X24575000Y-14462500D01*
X24625000Y-14462500D01*
X24625000Y-15225000D01*
X24725000Y-15325000D01*
X25300000Y-15326935D01*
X25378414Y-15319212D01*
X25453814Y-15296340D01*
X25523303Y-15259197D01*
X25550000Y-15237287D01*
X25576697Y-15259197D01*
X25646186Y-15296340D01*
X25721586Y-15319212D01*
X25800000Y-15326935D01*
X26375000Y-15325000D01*
X26475000Y-15225000D01*
X26475000Y-14462500D01*
X26525000Y-14462500D01*
X26525000Y-15225000D01*
X26625000Y-15325000D01*
X27200000Y-15326935D01*
X27278414Y-15319212D01*
X27353814Y-15296340D01*
X27423303Y-15259197D01*
X27484211Y-15209211D01*
X27534197Y-15148303D01*
X27571340Y-15078814D01*
X27594212Y-15003414D01*
X27601935Y-14925000D01*
X28198065Y-14925000D01*
X28205788Y-15003414D01*
X28228660Y-15078814D01*
X28265803Y-15148303D01*
X28315789Y-15209211D01*
X28376697Y-15259197D01*
X28446186Y-15296340D01*
X28521586Y-15319212D01*
X28600000Y-15326935D01*
X29175000Y-15325000D01*
X29275000Y-15225000D01*
X29275000Y-14462500D01*
X29325000Y-14462500D01*
X29325000Y-15225000D01*
X29425000Y-15325000D01*
X30000000Y-15326935D01*
X30078414Y-15319212D01*
X30153814Y-15296340D01*
X30223303Y-15259197D01*
X30284211Y-15209211D01*
X30334197Y-15148303D01*
X30371340Y-15078814D01*
X30394212Y-15003414D01*
X30394996Y-14995451D01*
X33218338Y-14995451D01*
X33300298Y-15175000D01*
X35075000Y-15175000D01*
X35075000Y-14050000D01*
X35125000Y-14050000D01*
X35125000Y-15175000D01*
X36899702Y-15175000D01*
X36981662Y-14995451D01*
X36922028Y-14783012D01*
X36820079Y-14581882D01*
X36680850Y-14404506D01*
X36509692Y-14257700D01*
X36313183Y-14147106D01*
X36098874Y-14076974D01*
X35875000Y-14050000D01*
X35125000Y-14050000D01*
X35075000Y-14050000D01*
X34325000Y-14050000D01*
X34101126Y-14076974D01*
X33886817Y-14147106D01*
X33690308Y-14257700D01*
X33519150Y-14404506D01*
X33379921Y-14581882D01*
X33277972Y-14783012D01*
X33218338Y-14995451D01*
X30394996Y-14995451D01*
X30401935Y-14925000D01*
X30400000Y-14562500D01*
X30300000Y-14462500D01*
X29325000Y-14462500D01*
X29275000Y-14462500D01*
X28300000Y-14462500D01*
X28200000Y-14562500D01*
X28198065Y-14925000D01*
X27601935Y-14925000D01*
X27600000Y-14562500D01*
X27500000Y-14462500D01*
X26525000Y-14462500D01*
X26475000Y-14462500D01*
X24625000Y-14462500D01*
X24575000Y-14462500D01*
X24555000Y-14462500D01*
X24555000Y-14412500D01*
X24575000Y-14412500D01*
X24575000Y-14392500D01*
X24625000Y-14392500D01*
X24625000Y-14412500D01*
X26475000Y-14412500D01*
X26475000Y-14392500D01*
X26525000Y-14392500D01*
X26525000Y-14412500D01*
X27500000Y-14412500D01*
X27600000Y-14312500D01*
X27600142Y-14285865D01*
X27671207Y-14300000D01*
X27828793Y-14300000D01*
X27983351Y-14269257D01*
X28128942Y-14208951D01*
X28199197Y-14162008D01*
X28200000Y-14312500D01*
X28300000Y-14412500D01*
X29275000Y-14412500D01*
X29275000Y-14392500D01*
X29325000Y-14392500D01*
X29325000Y-14412500D01*
X30300000Y-14412500D01*
X30400000Y-14312500D01*
X30401935Y-13950000D01*
X30394212Y-13871586D01*
X30371340Y-13796186D01*
X30334197Y-13726697D01*
X30284211Y-13665789D01*
X30223303Y-13615803D01*
X30153814Y-13578660D01*
X30078414Y-13555788D01*
X30000000Y-13548065D01*
X29793399Y-13548760D01*
X29901820Y-13538082D01*
X30041797Y-13495620D01*
X30170799Y-13426667D01*
X30283871Y-13333871D01*
X30376667Y-13220799D01*
X30441235Y-13100000D01*
X35456261Y-13100000D01*
X35569331Y-13160437D01*
X35804957Y-13231913D01*
X35988595Y-13250000D01*
X37611405Y-13250000D01*
X37795043Y-13231913D01*
X38030669Y-13160437D01*
X38247823Y-13044366D01*
X38438160Y-12888160D01*
X38475001Y-12843269D01*
X38475000Y-23474327D01*
G36*
X11008283Y-9125567D02*
G01*
X11056338Y-9122446D01*
X11058210Y-9122446D01*
X11061230Y-9122128D01*
X11085623Y-9120544D01*
X11092856Y-9118611D01*
X11162474Y-9110802D01*
X11208986Y-9100916D01*
X11213612Y-9100000D01*
X16794596Y-9100000D01*
X15679342Y-10215254D01*
X15652631Y-10237175D01*
X15630710Y-10263886D01*
X15630708Y-10263888D01*
X15565155Y-10343764D01*
X15500155Y-10465371D01*
X15483787Y-10519331D01*
X15462165Y-10590611D01*
X15460129Y-10597322D01*
X15453480Y-10664824D01*
X15420871Y-10682254D01*
X15344736Y-10744736D01*
X15282254Y-10820871D01*
X15239958Y-10900000D01*
X14795782Y-10900000D01*
X14769257Y-10766649D01*
X14708951Y-10621058D01*
X14621401Y-10490030D01*
X14509970Y-10378599D01*
X14378942Y-10291049D01*
X14233351Y-10230743D01*
X14217549Y-10227600D01*
X13969296Y-9979347D01*
X13947370Y-9952630D01*
X13840781Y-9865155D01*
X13719175Y-9800155D01*
X13587224Y-9760128D01*
X13484390Y-9750000D01*
X13484387Y-9750000D01*
X13450000Y-9746613D01*
X13415613Y-9750000D01*
X12439949Y-9750000D01*
X12369296Y-9679347D01*
X12347370Y-9652630D01*
X12240781Y-9565155D01*
X12119175Y-9500155D01*
X11987224Y-9460128D01*
X11884390Y-9450000D01*
X11884387Y-9450000D01*
X11850000Y-9446613D01*
X11815613Y-9450000D01*
X10221886Y-9450000D01*
X10187499Y-9446613D01*
X10153112Y-9450000D01*
X10153110Y-9450000D01*
X10050276Y-9460128D01*
X9918325Y-9500155D01*
X9796719Y-9565155D01*
X9690130Y-9652630D01*
X9668204Y-9679347D01*
X9241842Y-10105709D01*
X9215131Y-10127630D01*
X9140191Y-10218944D01*
X9093090Y-10244120D01*
X8983807Y-10333807D01*
X8894120Y-10443090D01*
X8827477Y-10567771D01*
X8786438Y-10703057D01*
X8772581Y-10843750D01*
X8772581Y-11049970D01*
X8629342Y-11193209D01*
X8602631Y-11215130D01*
X8580710Y-11241841D01*
X8580708Y-11241843D01*
X8515155Y-11321719D01*
X8450155Y-11443326D01*
X8436213Y-11489287D01*
X8410128Y-11575276D01*
X8400000Y-11678110D01*
X8396613Y-11712500D01*
X8398414Y-11730785D01*
X8333807Y-11783807D01*
X8244120Y-11893090D01*
X8177477Y-12017771D01*
X8136438Y-12153057D01*
X8122581Y-12293750D01*
X8122581Y-12731250D01*
X8136438Y-12871943D01*
X8177477Y-13007229D01*
X8244120Y-13131910D01*
X8333807Y-13241193D01*
X8405463Y-13300000D01*
X8333807Y-13358807D01*
X8244120Y-13468090D01*
X8177477Y-13592771D01*
X8136438Y-13728057D01*
X8122581Y-13868750D01*
X8122581Y-14306250D01*
X8136438Y-14446943D01*
X8177477Y-14582229D01*
X8244120Y-14706910D01*
X8320518Y-14800000D01*
X8244120Y-14893090D01*
X8177477Y-15017771D01*
X8136438Y-15153057D01*
X8122581Y-15293750D01*
X8122581Y-15731250D01*
X8136438Y-15871943D01*
X8177477Y-16007229D01*
X8244120Y-16131910D01*
X8333807Y-16241193D01*
X8405463Y-16300000D01*
X8333807Y-16358807D01*
X8244120Y-16468090D01*
X8177477Y-16592771D01*
X8136438Y-16728057D01*
X8122581Y-16868750D01*
X8122581Y-17306250D01*
X8136438Y-17446943D01*
X8177477Y-17582229D01*
X8244120Y-17706910D01*
X8333807Y-17816193D01*
X8443090Y-17905880D01*
X8567771Y-17972523D01*
X8658350Y-18000000D01*
X8567771Y-18027477D01*
X8443090Y-18094120D01*
X8333807Y-18183807D01*
X8244120Y-18293090D01*
X8177477Y-18417771D01*
X8136438Y-18553057D01*
X8122581Y-18693750D01*
X8122581Y-19131250D01*
X8136438Y-19271943D01*
X8177477Y-19407229D01*
X8244120Y-19531910D01*
X8333807Y-19641193D01*
X8405463Y-19700000D01*
X8333807Y-19758807D01*
X8244120Y-19868090D01*
X8177477Y-19992771D01*
X8136438Y-20128057D01*
X8122581Y-20268750D01*
X8122581Y-20706250D01*
X8136438Y-20846943D01*
X8177477Y-20982229D01*
X8244120Y-21106910D01*
X8320518Y-21200000D01*
X8244120Y-21293090D01*
X8177477Y-21417771D01*
X8136438Y-21553057D01*
X8122581Y-21693750D01*
X8122581Y-22131250D01*
X8136438Y-22271943D01*
X8177477Y-22407229D01*
X8244120Y-22531910D01*
X8333807Y-22641193D01*
X8405463Y-22700000D01*
X8333807Y-22758807D01*
X8244120Y-22868090D01*
X8177477Y-22992771D01*
X8136438Y-23128057D01*
X8122581Y-23268750D01*
X8122581Y-23706250D01*
X8136438Y-23846943D01*
X8177477Y-23982229D01*
X8244120Y-24106910D01*
X8333807Y-24216193D01*
X8443090Y-24305880D01*
X8567771Y-24372523D01*
X8703057Y-24413562D01*
X8843750Y-24427419D01*
X9356250Y-24427419D01*
X9496943Y-24413562D01*
X9632229Y-24372523D01*
X9756910Y-24305880D01*
X9850000Y-24229482D01*
X9943090Y-24305880D01*
X10067771Y-24372523D01*
X10203057Y-24413562D01*
X10343750Y-24427419D01*
X10856250Y-24427419D01*
X10996943Y-24413562D01*
X11112656Y-24378461D01*
X11150277Y-24389873D01*
X11253111Y-24400001D01*
X11253114Y-24400001D01*
X11287501Y-24403388D01*
X11321888Y-24400001D01*
X13689876Y-24400001D01*
X13724263Y-24403388D01*
X13758650Y-24400001D01*
X13758653Y-24400001D01*
X13861487Y-24389873D01*
X13993438Y-24349846D01*
X14115044Y-24284846D01*
X14221633Y-24197371D01*
X14243559Y-24170654D01*
X14314213Y-24100000D01*
X16000000Y-24100000D01*
X16012403Y-24099228D01*
X16055345Y-24093860D01*
X16782142Y-24820658D01*
X16804064Y-24847370D01*
X16830775Y-24869291D01*
X16830776Y-24869292D01*
X16868194Y-24900000D01*
X11213861Y-24900000D01*
X11202194Y-24897690D01*
X11155636Y-24887793D01*
X11148346Y-24887027D01*
X11094020Y-24881700D01*
X11085623Y-24879456D01*
X11008283Y-24874433D01*
X10241271Y-24900000D01*
X7750681Y-24900000D01*
X7738530Y-24893539D01*
X7667075Y-24835261D01*
X7608294Y-24764209D01*
X7564435Y-24683093D01*
X7537168Y-24595008D01*
X7525000Y-24479236D01*
X7525000Y-9525674D01*
X7536516Y-9408230D01*
X7563168Y-9319952D01*
X7606461Y-9238530D01*
X7664740Y-9167073D01*
X7735790Y-9108295D01*
X7751131Y-9100000D01*
X10241275Y-9100000D01*
X11008283Y-9125567D01*
G37*
X11008283Y-9125567D02*
X11056338Y-9122446D01*
X11058210Y-9122446D01*
X11061230Y-9122128D01*
X11085623Y-9120544D01*
X11092856Y-9118611D01*
X11162474Y-9110802D01*
X11208986Y-9100916D01*
X11213612Y-9100000D01*
X16794596Y-9100000D01*
X15679342Y-10215254D01*
X15652631Y-10237175D01*
X15630710Y-10263886D01*
X15630708Y-10263888D01*
X15565155Y-10343764D01*
X15500155Y-10465371D01*
X15483787Y-10519331D01*
X15462165Y-10590611D01*
X15460129Y-10597322D01*
X15453480Y-10664824D01*
X15420871Y-10682254D01*
X15344736Y-10744736D01*
X15282254Y-10820871D01*
X15239958Y-10900000D01*
X14795782Y-10900000D01*
X14769257Y-10766649D01*
X14708951Y-10621058D01*
X14621401Y-10490030D01*
X14509970Y-10378599D01*
X14378942Y-10291049D01*
X14233351Y-10230743D01*
X14217549Y-10227600D01*
X13969296Y-9979347D01*
X13947370Y-9952630D01*
X13840781Y-9865155D01*
X13719175Y-9800155D01*
X13587224Y-9760128D01*
X13484390Y-9750000D01*
X13484387Y-9750000D01*
X13450000Y-9746613D01*
X13415613Y-9750000D01*
X12439949Y-9750000D01*
X12369296Y-9679347D01*
X12347370Y-9652630D01*
X12240781Y-9565155D01*
X12119175Y-9500155D01*
X11987224Y-9460128D01*
X11884390Y-9450000D01*
X11884387Y-9450000D01*
X11850000Y-9446613D01*
X11815613Y-9450000D01*
X10221886Y-9450000D01*
X10187499Y-9446613D01*
X10153112Y-9450000D01*
X10153110Y-9450000D01*
X10050276Y-9460128D01*
X9918325Y-9500155D01*
X9796719Y-9565155D01*
X9690130Y-9652630D01*
X9668204Y-9679347D01*
X9241842Y-10105709D01*
X9215131Y-10127630D01*
X9140191Y-10218944D01*
X9093090Y-10244120D01*
X8983807Y-10333807D01*
X8894120Y-10443090D01*
X8827477Y-10567771D01*
X8786438Y-10703057D01*
X8772581Y-10843750D01*
X8772581Y-11049970D01*
X8629342Y-11193209D01*
X8602631Y-11215130D01*
X8580710Y-11241841D01*
X8580708Y-11241843D01*
X8515155Y-11321719D01*
X8450155Y-11443326D01*
X8436213Y-11489287D01*
X8410128Y-11575276D01*
X8400000Y-11678110D01*
X8396613Y-11712500D01*
X8398414Y-11730785D01*
X8333807Y-11783807D01*
X8244120Y-11893090D01*
X8177477Y-12017771D01*
X8136438Y-12153057D01*
X8122581Y-12293750D01*
X8122581Y-12731250D01*
X8136438Y-12871943D01*
X8177477Y-13007229D01*
X8244120Y-13131910D01*
X8333807Y-13241193D01*
X8405463Y-13300000D01*
X8333807Y-13358807D01*
X8244120Y-13468090D01*
X8177477Y-13592771D01*
X8136438Y-13728057D01*
X8122581Y-13868750D01*
X8122581Y-14306250D01*
X8136438Y-14446943D01*
X8177477Y-14582229D01*
X8244120Y-14706910D01*
X8320518Y-14800000D01*
X8244120Y-14893090D01*
X8177477Y-15017771D01*
X8136438Y-15153057D01*
X8122581Y-15293750D01*
X8122581Y-15731250D01*
X8136438Y-15871943D01*
X8177477Y-16007229D01*
X8244120Y-16131910D01*
X8333807Y-16241193D01*
X8405463Y-16300000D01*
X8333807Y-16358807D01*
X8244120Y-16468090D01*
X8177477Y-16592771D01*
X8136438Y-16728057D01*
X8122581Y-16868750D01*
X8122581Y-17306250D01*
X8136438Y-17446943D01*
X8177477Y-17582229D01*
X8244120Y-17706910D01*
X8333807Y-17816193D01*
X8443090Y-17905880D01*
X8567771Y-17972523D01*
X8658350Y-18000000D01*
X8567771Y-18027477D01*
X8443090Y-18094120D01*
X8333807Y-18183807D01*
X8244120Y-18293090D01*
X8177477Y-18417771D01*
X8136438Y-18553057D01*
X8122581Y-18693750D01*
X8122581Y-19131250D01*
X8136438Y-19271943D01*
X8177477Y-19407229D01*
X8244120Y-19531910D01*
X8333807Y-19641193D01*
X8405463Y-19700000D01*
X8333807Y-19758807D01*
X8244120Y-19868090D01*
X8177477Y-19992771D01*
X8136438Y-20128057D01*
X8122581Y-20268750D01*
X8122581Y-20706250D01*
X8136438Y-20846943D01*
X8177477Y-20982229D01*
X8244120Y-21106910D01*
X8320518Y-21200000D01*
X8244120Y-21293090D01*
X8177477Y-21417771D01*
X8136438Y-21553057D01*
X8122581Y-21693750D01*
X8122581Y-22131250D01*
X8136438Y-22271943D01*
X8177477Y-22407229D01*
X8244120Y-22531910D01*
X8333807Y-22641193D01*
X8405463Y-22700000D01*
X8333807Y-22758807D01*
X8244120Y-22868090D01*
X8177477Y-22992771D01*
X8136438Y-23128057D01*
X8122581Y-23268750D01*
X8122581Y-23706250D01*
X8136438Y-23846943D01*
X8177477Y-23982229D01*
X8244120Y-24106910D01*
X8333807Y-24216193D01*
X8443090Y-24305880D01*
X8567771Y-24372523D01*
X8703057Y-24413562D01*
X8843750Y-24427419D01*
X9356250Y-24427419D01*
X9496943Y-24413562D01*
X9632229Y-24372523D01*
X9756910Y-24305880D01*
X9850000Y-24229482D01*
X9943090Y-24305880D01*
X10067771Y-24372523D01*
X10203057Y-24413562D01*
X10343750Y-24427419D01*
X10856250Y-24427419D01*
X10996943Y-24413562D01*
X11112656Y-24378461D01*
X11150277Y-24389873D01*
X11253111Y-24400001D01*
X11253114Y-24400001D01*
X11287501Y-24403388D01*
X11321888Y-24400001D01*
X13689876Y-24400001D01*
X13724263Y-24403388D01*
X13758650Y-24400001D01*
X13758653Y-24400001D01*
X13861487Y-24389873D01*
X13993438Y-24349846D01*
X14115044Y-24284846D01*
X14221633Y-24197371D01*
X14243559Y-24170654D01*
X14314213Y-24100000D01*
X16000000Y-24100000D01*
X16012403Y-24099228D01*
X16055345Y-24093860D01*
X16782142Y-24820658D01*
X16804064Y-24847370D01*
X16830775Y-24869291D01*
X16830776Y-24869292D01*
X16868194Y-24900000D01*
X11213861Y-24900000D01*
X11202194Y-24897690D01*
X11155636Y-24887793D01*
X11148346Y-24887027D01*
X11094020Y-24881700D01*
X11085623Y-24879456D01*
X11008283Y-24874433D01*
X10241271Y-24900000D01*
X7750681Y-24900000D01*
X7738530Y-24893539D01*
X7667075Y-24835261D01*
X7608294Y-24764209D01*
X7564435Y-24683093D01*
X7537168Y-24595008D01*
X7525000Y-24479236D01*
X7525000Y-9525674D01*
X7536516Y-9408230D01*
X7563168Y-9319952D01*
X7606461Y-9238530D01*
X7664740Y-9167073D01*
X7735790Y-9108295D01*
X7751131Y-9100000D01*
X10241275Y-9100000D01*
X11008283Y-9125567D01*
G36*
X33997656Y-9102028D02*
G01*
X34006572Y-9148768D01*
X34008691Y-9155785D01*
X34037547Y-9249004D01*
X34055970Y-9292831D01*
X34073812Y-9336991D01*
X34077254Y-9343463D01*
X34123667Y-9429301D01*
X34150264Y-9468732D01*
X34176329Y-9508564D01*
X34180962Y-9514244D01*
X34243164Y-9589433D01*
X34276905Y-9622939D01*
X34310216Y-9656956D01*
X34315864Y-9661628D01*
X34391485Y-9723304D01*
X34431102Y-9749625D01*
X34470386Y-9776524D01*
X34476834Y-9780010D01*
X34562995Y-9825822D01*
X34606983Y-9843952D01*
X34650719Y-9862698D01*
X34657721Y-9864865D01*
X34751139Y-9893070D01*
X34797812Y-9902312D01*
X34844364Y-9912207D01*
X34851654Y-9912973D01*
X34939989Y-9921634D01*
X34956737Y-9923849D01*
X37965597Y-10024144D01*
X38091770Y-10036516D01*
X38180048Y-10063168D01*
X38261470Y-10106461D01*
X38332927Y-10164740D01*
X38391705Y-10235790D01*
X38435565Y-10316907D01*
X38462832Y-10404992D01*
X38475001Y-10520773D01*
X38475001Y-11156731D01*
X38438160Y-11111840D01*
X38247823Y-10955634D01*
X38030669Y-10839563D01*
X37795043Y-10768087D01*
X37611405Y-10750000D01*
X35988595Y-10750000D01*
X35804957Y-10768087D01*
X35569331Y-10839563D01*
X35352177Y-10955634D01*
X35161840Y-11111840D01*
X35005634Y-11302177D01*
X34889563Y-11519331D01*
X34834758Y-11700000D01*
X30370517Y-11700000D01*
X30405880Y-11656910D01*
X30472523Y-11532229D01*
X30513562Y-11396943D01*
X30527419Y-11256250D01*
X30527419Y-10743750D01*
X30513562Y-10603057D01*
X30472523Y-10467771D01*
X30405880Y-10343090D01*
X30316193Y-10233807D01*
X30206910Y-10144120D01*
X30082229Y-10077477D01*
X29946943Y-10036438D01*
X29806250Y-10022581D01*
X29368750Y-10022581D01*
X29228057Y-10036438D01*
X29092771Y-10077477D01*
X28968090Y-10144120D01*
X28858807Y-10233807D01*
X28800000Y-10305463D01*
X28741193Y-10233807D01*
X28631910Y-10144120D01*
X28507229Y-10077477D01*
X28371943Y-10036438D01*
X28231250Y-10022581D01*
X27793750Y-10022581D01*
X27653057Y-10036438D01*
X27517771Y-10077477D01*
X27393090Y-10144120D01*
X27283807Y-10233807D01*
X27194120Y-10343090D01*
X27166389Y-10394971D01*
X27116193Y-10333807D01*
X27006910Y-10244120D01*
X26882229Y-10177477D01*
X26746943Y-10136438D01*
X26606250Y-10122581D01*
X26168750Y-10122581D01*
X26028057Y-10136438D01*
X25892771Y-10177477D01*
X25768090Y-10244120D01*
X25674123Y-10321238D01*
X25628942Y-10291049D01*
X25483351Y-10230743D01*
X25361561Y-10206518D01*
X25307229Y-10177477D01*
X25171943Y-10136438D01*
X25031250Y-10122581D01*
X24593750Y-10122581D01*
X24453057Y-10136438D01*
X24317771Y-10177477D01*
X24193090Y-10244120D01*
X24083807Y-10333807D01*
X23994120Y-10443090D01*
X23927477Y-10567771D01*
X23886438Y-10703057D01*
X23872581Y-10843750D01*
X23872581Y-10900000D01*
X23702419Y-10900000D01*
X23702419Y-10550000D01*
X23692765Y-10451983D01*
X23664175Y-10357733D01*
X23617746Y-10270871D01*
X23555264Y-10194736D01*
X23479129Y-10132254D01*
X23392267Y-10085825D01*
X23298017Y-10057235D01*
X23200000Y-10047581D01*
X21259828Y-10047581D01*
X21250000Y-10046613D01*
X21240172Y-10047581D01*
X21000000Y-10047581D01*
X20975440Y-10050000D01*
X20609952Y-10050000D01*
X19659951Y-9100000D01*
X33997240Y-9100000D01*
X33997656Y-9102028D01*
G37*
X33997656Y-9102028D02*
X34006572Y-9148768D01*
X34008691Y-9155785D01*
X34037547Y-9249004D01*
X34055970Y-9292831D01*
X34073812Y-9336991D01*
X34077254Y-9343463D01*
X34123667Y-9429301D01*
X34150264Y-9468732D01*
X34176329Y-9508564D01*
X34180962Y-9514244D01*
X34243164Y-9589433D01*
X34276905Y-9622939D01*
X34310216Y-9656956D01*
X34315864Y-9661628D01*
X34391485Y-9723304D01*
X34431102Y-9749625D01*
X34470386Y-9776524D01*
X34476834Y-9780010D01*
X34562995Y-9825822D01*
X34606983Y-9843952D01*
X34650719Y-9862698D01*
X34657721Y-9864865D01*
X34751139Y-9893070D01*
X34797812Y-9902312D01*
X34844364Y-9912207D01*
X34851654Y-9912973D01*
X34939989Y-9921634D01*
X34956737Y-9923849D01*
X37965597Y-10024144D01*
X38091770Y-10036516D01*
X38180048Y-10063168D01*
X38261470Y-10106461D01*
X38332927Y-10164740D01*
X38391705Y-10235790D01*
X38435565Y-10316907D01*
X38462832Y-10404992D01*
X38475001Y-10520773D01*
X38475001Y-11156731D01*
X38438160Y-11111840D01*
X38247823Y-10955634D01*
X38030669Y-10839563D01*
X37795043Y-10768087D01*
X37611405Y-10750000D01*
X35988595Y-10750000D01*
X35804957Y-10768087D01*
X35569331Y-10839563D01*
X35352177Y-10955634D01*
X35161840Y-11111840D01*
X35005634Y-11302177D01*
X34889563Y-11519331D01*
X34834758Y-11700000D01*
X30370517Y-11700000D01*
X30405880Y-11656910D01*
X30472523Y-11532229D01*
X30513562Y-11396943D01*
X30527419Y-11256250D01*
X30527419Y-10743750D01*
X30513562Y-10603057D01*
X30472523Y-10467771D01*
X30405880Y-10343090D01*
X30316193Y-10233807D01*
X30206910Y-10144120D01*
X30082229Y-10077477D01*
X29946943Y-10036438D01*
X29806250Y-10022581D01*
X29368750Y-10022581D01*
X29228057Y-10036438D01*
X29092771Y-10077477D01*
X28968090Y-10144120D01*
X28858807Y-10233807D01*
X28800000Y-10305463D01*
X28741193Y-10233807D01*
X28631910Y-10144120D01*
X28507229Y-10077477D01*
X28371943Y-10036438D01*
X28231250Y-10022581D01*
X27793750Y-10022581D01*
X27653057Y-10036438D01*
X27517771Y-10077477D01*
X27393090Y-10144120D01*
X27283807Y-10233807D01*
X27194120Y-10343090D01*
X27166389Y-10394971D01*
X27116193Y-10333807D01*
X27006910Y-10244120D01*
X26882229Y-10177477D01*
X26746943Y-10136438D01*
X26606250Y-10122581D01*
X26168750Y-10122581D01*
X26028057Y-10136438D01*
X25892771Y-10177477D01*
X25768090Y-10244120D01*
X25674123Y-10321238D01*
X25628942Y-10291049D01*
X25483351Y-10230743D01*
X25361561Y-10206518D01*
X25307229Y-10177477D01*
X25171943Y-10136438D01*
X25031250Y-10122581D01*
X24593750Y-10122581D01*
X24453057Y-10136438D01*
X24317771Y-10177477D01*
X24193090Y-10244120D01*
X24083807Y-10333807D01*
X23994120Y-10443090D01*
X23927477Y-10567771D01*
X23886438Y-10703057D01*
X23872581Y-10843750D01*
X23872581Y-10900000D01*
X23702419Y-10900000D01*
X23702419Y-10550000D01*
X23692765Y-10451983D01*
X23664175Y-10357733D01*
X23617746Y-10270871D01*
X23555264Y-10194736D01*
X23479129Y-10132254D01*
X23392267Y-10085825D01*
X23298017Y-10057235D01*
X23200000Y-10047581D01*
X21259828Y-10047581D01*
X21250000Y-10046613D01*
X21240172Y-10047581D01*
X21000000Y-10047581D01*
X20975440Y-10050000D01*
X20609952Y-10050000D01*
X19659951Y-9100000D01*
X33997240Y-9100000D01*
X33997656Y-9102028D01*
D25*
X25000000Y-18699998D03*
X26900000Y-18700000D03*
X7600000Y-11400000D03*
X7700000Y-22700000D03*
X7800000Y-18900000D03*
X7800000Y-15200000D03*
X14600000Y-15900000D03*
X13400000Y-12900000D03*
X15999980Y-9000000D03*
X18350000Y-18500000D03*
X18350000Y-17900000D03*
X11400000Y-21900000D03*
X18650000Y-21350000D03*
X20550000Y-19250000D03*
X18350000Y-17300000D03*
X11300000Y-11950000D03*
X18400000Y-23650000D03*
X29300000Y-15350000D03*
X35500000Y-26500000D03*
X38000000Y-26500000D03*
X8000000Y-27500000D03*
X8000000Y-6500000D03*
X35500000Y-7500000D03*
X38000000Y-7500000D03*
X26700000Y-15174990D03*
X24900002Y-15100000D03*
X23600002Y-21500000D03*
X15350000Y-27150000D03*
X10650000Y-27400000D03*
X15500000Y-6850000D03*
X10700000Y-6650000D03*
X14000000Y-11000000D03*
X25250000Y-11000000D03*
X16350000Y-18925000D03*
X22300000Y-19150000D03*
X18590026Y-10009974D03*
X22600000Y-15100000D03*
X14000000Y-23000000D03*
X23750000Y-22500000D03*
X13658058Y-17641942D03*
X17250000Y-14900000D03*
X20658602Y-18448566D03*
X20800000Y-15550000D03*
X20400000Y-13800000D03*
X27750000Y-13500000D03*
D26*
X21051188Y-8431946D02*
X24948812Y-8568054D01*
X21151188Y-25568054D02*
X25048812Y-25431946D01*
D27*
X35100000Y-18800000D03*
X35100000Y-15200000D03*
D28*
X32500000Y-17000000D03*
D27*
X36800000Y-12000000D03*
D28*
X29720000Y-17100000D03*
X27180000Y-17100000D03*
X24640000Y-17100000D03*
X22100000Y-17100000D03*
M02*
