G04 #@! TF.GenerationSoftware,KiCad,Pcbnew,5.1.9-73d0e3b20d~88~ubuntu20.04.1*
G04 #@! TF.CreationDate,2021-05-11T15:43:56+03:00*
G04 #@! TF.ProjectId,differential-tweezer,64696666-6572-4656-9e74-69616c2d7477,rev?*
G04 #@! TF.SameCoordinates,Original*
G04 #@! TF.FileFunction,Legend,Bot*
G04 #@! TF.FilePolarity,Positive*
%FSLAX46Y46*%
G04 Gerber Fmt 4.6, Leading zero omitted, Abs format (unit mm)*
G04 Created by KiCad (PCBNEW 5.1.9-73d0e3b20d~88~ubuntu20.04.1) date 2021-05-11 15:43:56*
%MOMM*%
%LPD*%
G01*
G04 APERTURE LIST*
%ADD10C,0.150000*%
%ADD11C,0.120000*%
%ADD12C,4.200000*%
%ADD13C,2.500000*%
%ADD14C,1.500000*%
%ADD15C,0.600000*%
G04 APERTURE END LIST*
D10*
X16761904Y-4502380D02*
X16761904Y-3502380D01*
X16523809Y-3502380D01*
X16380952Y-3550000D01*
X16285714Y-3645238D01*
X16238095Y-3740476D01*
X16190476Y-3930952D01*
X16190476Y-4073809D01*
X16238095Y-4264285D01*
X16285714Y-4359523D01*
X16380952Y-4454761D01*
X16523809Y-4502380D01*
X16761904Y-4502380D01*
X15761904Y-4502380D02*
X15761904Y-3835714D01*
X15761904Y-3502380D02*
X15809523Y-3550000D01*
X15761904Y-3597619D01*
X15714285Y-3550000D01*
X15761904Y-3502380D01*
X15761904Y-3597619D01*
X15428571Y-3835714D02*
X15047619Y-3835714D01*
X15285714Y-4502380D02*
X15285714Y-3645238D01*
X15238095Y-3550000D01*
X15142857Y-3502380D01*
X15047619Y-3502380D01*
X14857142Y-3835714D02*
X14476190Y-3835714D01*
X14714285Y-4502380D02*
X14714285Y-3645238D01*
X14666666Y-3550000D01*
X14571428Y-3502380D01*
X14476190Y-3502380D01*
X14142857Y-4407142D02*
X14095238Y-4454761D01*
X14142857Y-4502380D01*
X14190476Y-4454761D01*
X14142857Y-4407142D01*
X14142857Y-4502380D01*
X12476190Y-4502380D02*
X12476190Y-3978571D01*
X12523809Y-3883333D01*
X12619047Y-3835714D01*
X12809523Y-3835714D01*
X12904761Y-3883333D01*
X12476190Y-4454761D02*
X12571428Y-4502380D01*
X12809523Y-4502380D01*
X12904761Y-4454761D01*
X12952380Y-4359523D01*
X12952380Y-4264285D01*
X12904761Y-4169047D01*
X12809523Y-4121428D01*
X12571428Y-4121428D01*
X12476190Y-4073809D01*
X12000000Y-4502380D02*
X12000000Y-3835714D01*
X12000000Y-3930952D02*
X11952380Y-3883333D01*
X11857142Y-3835714D01*
X11714285Y-3835714D01*
X11619047Y-3883333D01*
X11571428Y-3978571D01*
X11571428Y-4502380D01*
X11571428Y-3978571D02*
X11523809Y-3883333D01*
X11428571Y-3835714D01*
X11285714Y-3835714D01*
X11190476Y-3883333D01*
X11142857Y-3978571D01*
X11142857Y-4502380D01*
X10666666Y-3835714D02*
X10666666Y-4835714D01*
X10666666Y-3883333D02*
X10571428Y-3835714D01*
X10380952Y-3835714D01*
X10285714Y-3883333D01*
X10238095Y-3930952D01*
X10190476Y-4026190D01*
X10190476Y-4311904D01*
X10238095Y-4407142D01*
X10285714Y-4454761D01*
X10380952Y-4502380D01*
X10571428Y-4502380D01*
X10666666Y-4454761D01*
X17880952Y-6152380D02*
X17880952Y-5152380D01*
X17880952Y-6104761D02*
X17976190Y-6152380D01*
X18166666Y-6152380D01*
X18261904Y-6104761D01*
X18309523Y-6057142D01*
X18357142Y-5961904D01*
X18357142Y-5676190D01*
X18309523Y-5580952D01*
X18261904Y-5533333D01*
X18166666Y-5485714D01*
X17976190Y-5485714D01*
X17880952Y-5533333D01*
X17023809Y-6104761D02*
X17119047Y-6152380D01*
X17309523Y-6152380D01*
X17404761Y-6104761D01*
X17452380Y-6009523D01*
X17452380Y-5628571D01*
X17404761Y-5533333D01*
X17309523Y-5485714D01*
X17119047Y-5485714D01*
X17023809Y-5533333D01*
X16976190Y-5628571D01*
X16976190Y-5723809D01*
X17452380Y-5819047D01*
X16642857Y-5485714D02*
X16404761Y-6152380D01*
X16166666Y-5485714D01*
X15785714Y-5628571D02*
X15452380Y-5628571D01*
X15309523Y-6152380D02*
X15785714Y-6152380D01*
X15785714Y-5152380D01*
X15309523Y-5152380D01*
X14880952Y-6152380D02*
X14880952Y-5485714D01*
X14880952Y-5580952D02*
X14833333Y-5533333D01*
X14738095Y-5485714D01*
X14595238Y-5485714D01*
X14500000Y-5533333D01*
X14452380Y-5628571D01*
X14452380Y-6152380D01*
X14452380Y-5628571D02*
X14404761Y-5533333D01*
X14309523Y-5485714D01*
X14166666Y-5485714D01*
X14071428Y-5533333D01*
X14023809Y-5628571D01*
X14023809Y-6152380D01*
X13547619Y-6152380D02*
X13547619Y-5152380D01*
X13547619Y-5533333D02*
X13452380Y-5485714D01*
X13261904Y-5485714D01*
X13166666Y-5533333D01*
X13119047Y-5580952D01*
X13071428Y-5676190D01*
X13071428Y-5961904D01*
X13119047Y-6057142D01*
X13166666Y-6104761D01*
X13261904Y-6152380D01*
X13452380Y-6152380D01*
X13547619Y-6104761D01*
X12261904Y-6104761D02*
X12357142Y-6152380D01*
X12547619Y-6152380D01*
X12642857Y-6104761D01*
X12690476Y-6009523D01*
X12690476Y-5628571D01*
X12642857Y-5533333D01*
X12547619Y-5485714D01*
X12357142Y-5485714D01*
X12261904Y-5533333D01*
X12214285Y-5628571D01*
X12214285Y-5723809D01*
X12690476Y-5819047D01*
X11357142Y-6152380D02*
X11357142Y-5152380D01*
X11357142Y-6104761D02*
X11452380Y-6152380D01*
X11642857Y-6152380D01*
X11738095Y-6104761D01*
X11785714Y-6057142D01*
X11833333Y-5961904D01*
X11833333Y-5676190D01*
X11785714Y-5580952D01*
X11738095Y-5533333D01*
X11642857Y-5485714D01*
X11452380Y-5485714D01*
X11357142Y-5533333D01*
X10452380Y-6152380D02*
X10452380Y-5152380D01*
X10452380Y-6104761D02*
X10547619Y-6152380D01*
X10738095Y-6152380D01*
X10833333Y-6104761D01*
X10880952Y-6057142D01*
X10928571Y-5961904D01*
X10928571Y-5676190D01*
X10880952Y-5580952D01*
X10833333Y-5533333D01*
X10738095Y-5485714D01*
X10547619Y-5485714D01*
X10452380Y-5533333D01*
X9595238Y-6104761D02*
X9690476Y-6152380D01*
X9880952Y-6152380D01*
X9976190Y-6104761D01*
X10023809Y-6009523D01*
X10023809Y-5628571D01*
X9976190Y-5533333D01*
X9880952Y-5485714D01*
X9690476Y-5485714D01*
X9595238Y-5533333D01*
X9547619Y-5628571D01*
X9547619Y-5723809D01*
X10023809Y-5819047D01*
X8690476Y-6152380D02*
X8690476Y-5152380D01*
X8690476Y-6104761D02*
X8785714Y-6152380D01*
X8976190Y-6152380D01*
X9071428Y-6104761D01*
X9119047Y-6057142D01*
X9166666Y-5961904D01*
X9166666Y-5676190D01*
X9119047Y-5580952D01*
X9071428Y-5533333D01*
X8976190Y-5485714D01*
X8785714Y-5485714D01*
X8690476Y-5533333D01*
X18380952Y-7802380D02*
X18714285Y-7326190D01*
X18952380Y-7802380D02*
X18952380Y-6802380D01*
X18571428Y-6802380D01*
X18476190Y-6850000D01*
X18428571Y-6897619D01*
X18380952Y-6992857D01*
X18380952Y-7135714D01*
X18428571Y-7230952D01*
X18476190Y-7278571D01*
X18571428Y-7326190D01*
X18952380Y-7326190D01*
X17571428Y-7754761D02*
X17666666Y-7802380D01*
X17857142Y-7802380D01*
X17952380Y-7754761D01*
X18000000Y-7659523D01*
X18000000Y-7278571D01*
X17952380Y-7183333D01*
X17857142Y-7135714D01*
X17666666Y-7135714D01*
X17571428Y-7183333D01*
X17523809Y-7278571D01*
X17523809Y-7373809D01*
X18000000Y-7469047D01*
X17190476Y-7135714D02*
X16952380Y-7802380D01*
X16714285Y-7135714D01*
X15619047Y-6897619D02*
X15571428Y-6850000D01*
X15476190Y-6802380D01*
X15238095Y-6802380D01*
X15142857Y-6850000D01*
X15095238Y-6897619D01*
X15047619Y-6992857D01*
X15047619Y-7088095D01*
X15095238Y-7230952D01*
X15666666Y-7802380D01*
X15047619Y-7802380D01*
X14571428Y-7754761D02*
X14571428Y-7802380D01*
X14619047Y-7897619D01*
X14666666Y-7945238D01*
X12904761Y-6802380D02*
X13380952Y-6802380D01*
X13428571Y-7278571D01*
X13380952Y-7230952D01*
X13285714Y-7183333D01*
X13047619Y-7183333D01*
X12952380Y-7230952D01*
X12904761Y-7278571D01*
X12857142Y-7373809D01*
X12857142Y-7611904D01*
X12904761Y-7707142D01*
X12952380Y-7754761D01*
X13047619Y-7802380D01*
X13285714Y-7802380D01*
X13380952Y-7754761D01*
X13428571Y-7707142D01*
X11714285Y-6754761D02*
X12571428Y-8040476D01*
X11428571Y-6897619D02*
X11380952Y-6850000D01*
X11285714Y-6802380D01*
X11047619Y-6802380D01*
X10952380Y-6850000D01*
X10904761Y-6897619D01*
X10857142Y-6992857D01*
X10857142Y-7088095D01*
X10904761Y-7230952D01*
X11476190Y-7802380D01*
X10857142Y-7802380D01*
X10238095Y-6802380D02*
X10142857Y-6802380D01*
X10047619Y-6850000D01*
X10000000Y-6897619D01*
X9952380Y-6992857D01*
X9904761Y-7183333D01*
X9904761Y-7421428D01*
X9952380Y-7611904D01*
X10000000Y-7707142D01*
X10047619Y-7754761D01*
X10142857Y-7802380D01*
X10238095Y-7802380D01*
X10333333Y-7754761D01*
X10380952Y-7707142D01*
X10428571Y-7611904D01*
X10476190Y-7421428D01*
X10476190Y-7183333D01*
X10428571Y-6992857D01*
X10380952Y-6897619D01*
X10333333Y-6850000D01*
X10238095Y-6802380D01*
X9523809Y-6897619D02*
X9476190Y-6850000D01*
X9380952Y-6802380D01*
X9142857Y-6802380D01*
X9047619Y-6850000D01*
X9000000Y-6897619D01*
X8952380Y-6992857D01*
X8952380Y-7088095D01*
X9000000Y-7230952D01*
X9571428Y-7802380D01*
X8952380Y-7802380D01*
X8000000Y-7802380D02*
X8571428Y-7802380D01*
X8285714Y-7802380D02*
X8285714Y-6802380D01*
X8380952Y-6945238D01*
X8476190Y-7040476D01*
X8571428Y-7088095D01*
D11*
G04 #@! TO.C,TP4*
X9450000Y-27000000D02*
G75*
G03*
X9450000Y-27000000I-1450000J0D01*
G01*
G04 #@! TO.C,TP3*
X12550000Y-24700000D02*
G75*
G03*
X12550000Y-24700000I-1450000J0D01*
G01*
G04 #@! TO.C,TP2*
X12550000Y-21100000D02*
G75*
G03*
X12550000Y-21100000I-1450000J0D01*
G01*
G04 #@! TO.C,TP1*
X25350000Y-33900000D02*
G75*
G03*
X25350000Y-33900000I-1450000J0D01*
G01*
G04 #@! TO.C,TP4*
D10*
X6261904Y-25752380D02*
X5690476Y-25752380D01*
X5976190Y-26752380D02*
X5976190Y-25752380D01*
X5357142Y-26752380D02*
X5357142Y-25752380D01*
X4976190Y-25752380D01*
X4880952Y-25800000D01*
X4833333Y-25847619D01*
X4785714Y-25942857D01*
X4785714Y-26085714D01*
X4833333Y-26180952D01*
X4880952Y-26228571D01*
X4976190Y-26276190D01*
X5357142Y-26276190D01*
X3928571Y-26085714D02*
X3928571Y-26752380D01*
X4166666Y-25704761D02*
X4404761Y-26419047D01*
X3785714Y-26419047D01*
X5661904Y-27200000D02*
X5757142Y-27152380D01*
X5900000Y-27152380D01*
X6042857Y-27200000D01*
X6138095Y-27295238D01*
X6185714Y-27390476D01*
X6233333Y-27580952D01*
X6233333Y-27723809D01*
X6185714Y-27914285D01*
X6138095Y-28009523D01*
X6042857Y-28104761D01*
X5900000Y-28152380D01*
X5804761Y-28152380D01*
X5661904Y-28104761D01*
X5614285Y-28057142D01*
X5614285Y-27723809D01*
X5804761Y-27723809D01*
X5185714Y-28152380D02*
X5185714Y-27152380D01*
X4614285Y-28152380D01*
X4614285Y-27152380D01*
X4138095Y-28152380D02*
X4138095Y-27152380D01*
X3900000Y-27152380D01*
X3757142Y-27200000D01*
X3661904Y-27295238D01*
X3614285Y-27390476D01*
X3566666Y-27580952D01*
X3566666Y-27723809D01*
X3614285Y-27914285D01*
X3661904Y-28009523D01*
X3757142Y-28104761D01*
X3900000Y-28152380D01*
X4138095Y-28152380D01*
G04 #@! TO.C,TP3*
X8861904Y-22652380D02*
X8290476Y-22652380D01*
X8576190Y-23652380D02*
X8576190Y-22652380D01*
X7957142Y-23652380D02*
X7957142Y-22652380D01*
X7576190Y-22652380D01*
X7480952Y-22700000D01*
X7433333Y-22747619D01*
X7385714Y-22842857D01*
X7385714Y-22985714D01*
X7433333Y-23080952D01*
X7480952Y-23128571D01*
X7576190Y-23176190D01*
X7957142Y-23176190D01*
X7052380Y-22652380D02*
X6433333Y-22652380D01*
X6766666Y-23033333D01*
X6623809Y-23033333D01*
X6528571Y-23080952D01*
X6480952Y-23128571D01*
X6433333Y-23223809D01*
X6433333Y-23461904D01*
X6480952Y-23557142D01*
X6528571Y-23604761D01*
X6623809Y-23652380D01*
X6909523Y-23652380D01*
X7004761Y-23604761D01*
X7052380Y-23557142D01*
X9185714Y-24671428D02*
X8423809Y-24671428D01*
X7519047Y-24052380D02*
X7709523Y-24052380D01*
X7804761Y-24100000D01*
X7852380Y-24147619D01*
X7947619Y-24290476D01*
X7995238Y-24480952D01*
X7995238Y-24861904D01*
X7947619Y-24957142D01*
X7900000Y-25004761D01*
X7804761Y-25052380D01*
X7614285Y-25052380D01*
X7519047Y-25004761D01*
X7471428Y-24957142D01*
X7423809Y-24861904D01*
X7423809Y-24623809D01*
X7471428Y-24528571D01*
X7519047Y-24480952D01*
X7614285Y-24433333D01*
X7804761Y-24433333D01*
X7900000Y-24480952D01*
X7947619Y-24528571D01*
X7995238Y-24623809D01*
X7138095Y-24052380D02*
X6804761Y-25052380D01*
X6471428Y-24052380D01*
G04 #@! TO.C,TP2*
X8861904Y-19352380D02*
X8290476Y-19352380D01*
X8576190Y-20352380D02*
X8576190Y-19352380D01*
X7957142Y-20352380D02*
X7957142Y-19352380D01*
X7576190Y-19352380D01*
X7480952Y-19400000D01*
X7433333Y-19447619D01*
X7385714Y-19542857D01*
X7385714Y-19685714D01*
X7433333Y-19780952D01*
X7480952Y-19828571D01*
X7576190Y-19876190D01*
X7957142Y-19876190D01*
X7004761Y-19447619D02*
X6957142Y-19400000D01*
X6861904Y-19352380D01*
X6623809Y-19352380D01*
X6528571Y-19400000D01*
X6480952Y-19447619D01*
X6433333Y-19542857D01*
X6433333Y-19638095D01*
X6480952Y-19780952D01*
X7052380Y-20352380D01*
X6433333Y-20352380D01*
X9185714Y-21271428D02*
X8423809Y-21271428D01*
X8804761Y-21652380D02*
X8804761Y-20890476D01*
X7519047Y-20652380D02*
X7709523Y-20652380D01*
X7804761Y-20700000D01*
X7852380Y-20747619D01*
X7947619Y-20890476D01*
X7995238Y-21080952D01*
X7995238Y-21461904D01*
X7947619Y-21557142D01*
X7900000Y-21604761D01*
X7804761Y-21652380D01*
X7614285Y-21652380D01*
X7519047Y-21604761D01*
X7471428Y-21557142D01*
X7423809Y-21461904D01*
X7423809Y-21223809D01*
X7471428Y-21128571D01*
X7519047Y-21080952D01*
X7614285Y-21033333D01*
X7804761Y-21033333D01*
X7900000Y-21080952D01*
X7947619Y-21128571D01*
X7995238Y-21223809D01*
X7138095Y-20652380D02*
X6804761Y-21652380D01*
X6471428Y-20652380D01*
G04 #@! TO.C,TP1*
X25161904Y-29952380D02*
X24590476Y-29952380D01*
X24876190Y-30952380D02*
X24876190Y-29952380D01*
X24257142Y-30952380D02*
X24257142Y-29952380D01*
X23876190Y-29952380D01*
X23780952Y-30000000D01*
X23733333Y-30047619D01*
X23685714Y-30142857D01*
X23685714Y-30285714D01*
X23733333Y-30380952D01*
X23780952Y-30428571D01*
X23876190Y-30476190D01*
X24257142Y-30476190D01*
X22733333Y-30952380D02*
X23304761Y-30952380D01*
X23019047Y-30952380D02*
X23019047Y-29952380D01*
X23114285Y-30095238D01*
X23209523Y-30190476D01*
X23304761Y-30238095D01*
X25185714Y-31871428D02*
X24423809Y-31871428D01*
X24804761Y-32252380D02*
X24804761Y-31490476D01*
X23471428Y-31252380D02*
X23947619Y-31252380D01*
X23995238Y-31728571D01*
X23947619Y-31680952D01*
X23852380Y-31633333D01*
X23614285Y-31633333D01*
X23519047Y-31680952D01*
X23471428Y-31728571D01*
X23423809Y-31823809D01*
X23423809Y-32061904D01*
X23471428Y-32157142D01*
X23519047Y-32204761D01*
X23614285Y-32252380D01*
X23852380Y-32252380D01*
X23947619Y-32204761D01*
X23995238Y-32157142D01*
X23138095Y-31252380D02*
X22804761Y-32252380D01*
X22471428Y-31252380D01*
G04 #@! TD*
%LPC*%
D12*
G04 #@! TO.C,H1*
X19400000Y-34700000D03*
G04 #@! TD*
D13*
G04 #@! TO.C,TP4*
X8000000Y-27000000D03*
G04 #@! TD*
G04 #@! TO.C,TP3*
X11100000Y-24700000D03*
G04 #@! TD*
G04 #@! TO.C,TP2*
X11100000Y-21100000D03*
G04 #@! TD*
G04 #@! TO.C,TP1*
X23900000Y-33900000D03*
G04 #@! TD*
D14*
G04 #@! TO.C,J2*
X14000000Y-2350000D03*
X14000000Y-9350000D03*
G04 #@! TD*
D15*
G04 #@! TO.C,J6*
X2718804Y-13791327D03*
X3349383Y-13223551D03*
X2750206Y-13192150D03*
G04 #@! TD*
G04 #@! TO.C,J5*
X2868804Y-11141327D03*
X3499383Y-10573551D03*
X2900206Y-10542150D03*
G04 #@! TD*
G04 #@! TO.C,J4*
X25099794Y-10542150D03*
X24500617Y-10573551D03*
X25131196Y-11141327D03*
G04 #@! TD*
G04 #@! TO.C,J3*
X25249794Y-13192150D03*
X24650617Y-13223551D03*
X25281196Y-13791327D03*
G04 #@! TD*
G04 #@! TO.C,J1*
X15200000Y-24200000D03*
X15200000Y-26300000D03*
X13000000Y-26300000D03*
X13000000Y-24200000D03*
X13000000Y-28400000D03*
X15200000Y-28400000D03*
X15700000Y-31200000D03*
X15700000Y-33300000D03*
X15700000Y-35400000D03*
X12500000Y-31200000D03*
X12500000Y-33300000D03*
X12500000Y-35400000D03*
G04 #@! TD*
M02*
