M48
METRIC
T1C0.300
T2C1.000
T3C1.100
T4C2.300
T5C2.400
%
G90
G05
T1
X2.719Y-13.791
X2.75Y-13.192
X2.869Y-10.991
X2.9Y-10.392
X3.349Y-13.224
X3.499Y-10.424
X4.1Y-29.8
X4.709Y-34.73
X5.0Y-26.95
X5.075Y-30.918
X5.1Y-18.5
X5.3Y-21.0
X5.4Y-6.4
X5.7Y-28.5
X5.7Y-29.3
X5.8Y-25.7
X5.9Y-23.0
X6.15Y-3.9
X6.3Y-28.5
X6.3Y-29.3
X6.5Y-32.8
X6.5Y-33.9
X6.7Y-35.8
X6.8Y-32.3
X6.9Y-28.5
X6.9Y-29.3
X7.5Y-28.5
X7.5Y-29.3
X7.8Y-9.0
X8.1Y-28.5
X8.1Y-29.3
X8.2Y-8.1
X8.3Y-23.0
X8.4Y-25.7
X8.4Y-31.2
X8.844Y-24.956
X9.2Y-12.25
X9.2Y-12.85
X9.2Y-13.45
X9.8Y-12.25
X9.8Y-12.85
X9.8Y-13.45
X10.4Y-9.8
X10.4Y-11.3
X10.4Y-12.25
X10.4Y-12.85
X10.4Y-13.45
X10.7Y-32.7
X10.9Y-10.55
X11.0Y-12.25
X11.0Y-12.85
X11.0Y-13.45
X11.3Y-21.4
X11.4Y-9.8
X11.4Y-11.3
X11.6Y-12.25
X11.6Y-12.85
X11.6Y-13.45
X12.4Y-31.3
X12.4Y-33.4
X12.4Y-35.5
X12.5Y-12.525
X12.9Y-24.2
X12.9Y-26.3
X12.9Y-28.4
X13.075Y-10.899
X13.9Y-11.25
X14.0Y-7.7
X15.1Y-24.2
X15.1Y-26.3
X15.1Y-28.4
X15.11Y-8.93
X15.6Y-31.3
X15.6Y-33.4
X15.6Y-35.5
X16.4Y-12.25
X16.4Y-12.85
X16.4Y-13.45
X16.6Y-9.85
X16.6Y-11.35
X16.95Y-30.25
X17.0Y-12.25
X17.0Y-12.85
X17.0Y-13.45
X17.1Y-10.6
X17.3Y-26.45
X17.6Y-9.85
X17.6Y-11.35
X17.6Y-12.25
X17.6Y-12.85
X17.6Y-13.45
X18.2Y-12.25
X18.2Y-12.85
X18.2Y-13.45
X18.55Y-26.85
X18.55Y-27.45
X18.6Y-24.47
X18.8Y-12.275
X18.8Y-12.85
X18.8Y-13.45
X18.85Y-29.55
X19.15Y-8.15
X19.15Y-26.85
X19.15Y-27.45
X19.45Y-29.55
X19.75Y-26.85
X19.75Y-27.45
X20.05Y-28.35
X20.05Y-28.95
X20.05Y-29.55
X20.8Y-28.35
X20.8Y-29.35
X21.35Y-24.15
X21.55Y-28.85
X21.85Y-3.9
X22.198Y-31.252
X22.3Y-28.35
X22.3Y-29.35
X22.3Y-35.9
X22.4Y-33.6
X22.6Y-6.3
X22.6Y-21.5
X22.9Y-18.5
X23.1Y-28.35
X23.1Y-28.95
X23.225Y-29.575
X24.0Y-21.65
X24.501Y-10.424
X24.651Y-13.224
X24.8Y-22.6
X24.987Y-25.8
X25.1Y-10.392
X25.131Y-10.991
X25.25Y-13.192
X25.281Y-13.791
X25.637Y-31.012
X25.65Y-32.5
T2
X14.0Y-21.7
T3
X9.7Y-3.9
X18.3Y-3.9
T4
X19.4Y-34.7
T5
X7.5Y-1.7
X7.5Y-6.1
X11.9Y-1.7
X11.9Y-6.1
X16.1Y-1.7
X16.1Y-6.1
X20.5Y-1.7
X20.5Y-6.1
T0
M30
