G04 #@! TF.GenerationSoftware,KiCad,Pcbnew,5.1.5+dfsg1-2build2*
G04 #@! TF.CreationDate,2021-01-13T09:20:08+02:00*
G04 #@! TF.ProjectId,differential-tweezer,64696666-6572-4656-9e74-69616c2d7477,rev?*
G04 #@! TF.SameCoordinates,Original*
G04 #@! TF.FileFunction,Legend,Bot*
G04 #@! TF.FilePolarity,Positive*
%FSLAX46Y46*%
G04 Gerber Fmt 4.6, Leading zero omitted, Abs format (unit mm)*
G04 Created by KiCad (PCBNEW 5.1.5+dfsg1-2build2) date 2021-01-13 09:20:08*
%MOMM*%
%LPD*%
G04 APERTURE LIST*
%ADD10C,0.160000*%
%ADD11C,0.120000*%
%ADD12C,0.150000*%
%ADD13C,0.100000*%
%ADD14C,2.700000*%
%ADD15C,1.000000*%
%ADD16O,3.100000X1.600000*%
%ADD17C,1.600000*%
%ADD18O,1.800000X1.800000*%
%ADD19C,1.800000*%
%ADD20R,1.800000X3.400000*%
%ADD21R,0.800000X0.350000*%
%ADD22C,0.350000*%
%ADD23R,2.300000X4.000000*%
%ADD24R,1.000000X1.300000*%
G04 APERTURE END LIST*
D10*
X37202380Y-13380952D02*
X37916666Y-13380952D01*
X38059523Y-13333333D01*
X38154761Y-13238095D01*
X38202380Y-13095238D01*
X38202380Y-13000000D01*
X38202380Y-14333333D02*
X38202380Y-13857142D01*
X37202380Y-13857142D01*
X38107142Y-15238095D02*
X38154761Y-15190476D01*
X38202380Y-15047619D01*
X38202380Y-14952380D01*
X38154761Y-14809523D01*
X38059523Y-14714285D01*
X37964285Y-14666666D01*
X37773809Y-14619047D01*
X37630952Y-14619047D01*
X37440476Y-14666666D01*
X37345238Y-14714285D01*
X37250000Y-14809523D01*
X37202380Y-14952380D01*
X37202380Y-15047619D01*
X37250000Y-15190476D01*
X37297619Y-15238095D01*
X37202380Y-15952380D02*
X37916666Y-15952380D01*
X38059523Y-15904761D01*
X38154761Y-15809523D01*
X38202380Y-15666666D01*
X38202380Y-15571428D01*
X38202380Y-16904761D02*
X38202380Y-16428571D01*
X37202380Y-16428571D01*
X38107142Y-17809523D02*
X38154761Y-17761904D01*
X38202380Y-17619047D01*
X38202380Y-17523809D01*
X38154761Y-17380952D01*
X38059523Y-17285714D01*
X37964285Y-17238095D01*
X37773809Y-17190476D01*
X37630952Y-17190476D01*
X37440476Y-17238095D01*
X37345238Y-17285714D01*
X37250000Y-17380952D01*
X37202380Y-17523809D01*
X37202380Y-17619047D01*
X37250000Y-17761904D01*
X37297619Y-17809523D01*
X37202380Y-18523809D02*
X37916666Y-18523809D01*
X38059523Y-18476190D01*
X38154761Y-18380952D01*
X38202380Y-18238095D01*
X38202380Y-18142857D01*
X38202380Y-19476190D02*
X38202380Y-19000000D01*
X37202380Y-19000000D01*
X38107142Y-20380952D02*
X38154761Y-20333333D01*
X38202380Y-20190476D01*
X38202380Y-20095238D01*
X38154761Y-19952380D01*
X38059523Y-19857142D01*
X37964285Y-19809523D01*
X37773809Y-19761904D01*
X37630952Y-19761904D01*
X37440476Y-19809523D01*
X37345238Y-19857142D01*
X37250000Y-19952380D01*
X37202380Y-20095238D01*
X37202380Y-20190476D01*
X37250000Y-20333333D01*
X37297619Y-20380952D01*
X37202380Y-21095238D02*
X37916666Y-21095238D01*
X38059523Y-21047619D01*
X38154761Y-20952380D01*
X38202380Y-20809523D01*
X38202380Y-20714285D01*
X38202380Y-22047619D02*
X38202380Y-21571428D01*
X37202380Y-21571428D01*
X38107142Y-22952380D02*
X38154761Y-22904761D01*
X38202380Y-22761904D01*
X38202380Y-22666666D01*
X38154761Y-22523809D01*
X38059523Y-22428571D01*
X37964285Y-22380952D01*
X37773809Y-22333333D01*
X37630952Y-22333333D01*
X37440476Y-22380952D01*
X37345238Y-22428571D01*
X37250000Y-22523809D01*
X37202380Y-22666666D01*
X37202380Y-22761904D01*
X37250000Y-22904761D01*
X37297619Y-22952380D01*
X33140476Y-21181904D02*
X33407142Y-20800952D01*
X33597619Y-21181904D02*
X33597619Y-20381904D01*
X33292857Y-20381904D01*
X33216666Y-20420000D01*
X33178571Y-20458095D01*
X33140476Y-20534285D01*
X33140476Y-20648571D01*
X33178571Y-20724761D01*
X33216666Y-20762857D01*
X33292857Y-20800952D01*
X33597619Y-20800952D01*
X32492857Y-21143809D02*
X32569047Y-21181904D01*
X32721428Y-21181904D01*
X32797619Y-21143809D01*
X32835714Y-21067619D01*
X32835714Y-20762857D01*
X32797619Y-20686666D01*
X32721428Y-20648571D01*
X32569047Y-20648571D01*
X32492857Y-20686666D01*
X32454761Y-20762857D01*
X32454761Y-20839047D01*
X32835714Y-20915238D01*
X32188095Y-20648571D02*
X31997619Y-21181904D01*
X31807142Y-20648571D01*
X30473809Y-21181904D02*
X30930952Y-21181904D01*
X30702380Y-21181904D02*
X30702380Y-20381904D01*
X30778571Y-20496190D01*
X30854761Y-20572380D01*
X30930952Y-20610476D01*
X34111904Y-21741904D02*
X34035714Y-21741904D01*
X33959523Y-21780000D01*
X33921428Y-21818095D01*
X33883333Y-21894285D01*
X33845238Y-22046666D01*
X33845238Y-22237142D01*
X33883333Y-22389523D01*
X33921428Y-22465714D01*
X33959523Y-22503809D01*
X34035714Y-22541904D01*
X34111904Y-22541904D01*
X34188095Y-22503809D01*
X34226190Y-22465714D01*
X34264285Y-22389523D01*
X34302380Y-22237142D01*
X34302380Y-22046666D01*
X34264285Y-21894285D01*
X34226190Y-21818095D01*
X34188095Y-21780000D01*
X34111904Y-21741904D01*
X33083333Y-22541904D02*
X33540476Y-22541904D01*
X33311904Y-22541904D02*
X33311904Y-21741904D01*
X33388095Y-21856190D01*
X33464285Y-21932380D01*
X33540476Y-21970476D01*
X32169047Y-21703809D02*
X32854761Y-22732380D01*
X31940476Y-21818095D02*
X31902380Y-21780000D01*
X31826190Y-21741904D01*
X31635714Y-21741904D01*
X31559523Y-21780000D01*
X31521428Y-21818095D01*
X31483333Y-21894285D01*
X31483333Y-21970476D01*
X31521428Y-22084761D01*
X31978571Y-22541904D01*
X31483333Y-22541904D01*
X30988095Y-21741904D02*
X30911904Y-21741904D01*
X30835714Y-21780000D01*
X30797619Y-21818095D01*
X30759523Y-21894285D01*
X30721428Y-22046666D01*
X30721428Y-22237142D01*
X30759523Y-22389523D01*
X30797619Y-22465714D01*
X30835714Y-22503809D01*
X30911904Y-22541904D01*
X30988095Y-22541904D01*
X31064285Y-22503809D01*
X31102380Y-22465714D01*
X31140476Y-22389523D01*
X31178571Y-22237142D01*
X31178571Y-22046666D01*
X31140476Y-21894285D01*
X31102380Y-21818095D01*
X31064285Y-21780000D01*
X30988095Y-21741904D01*
X30416666Y-21818095D02*
X30378571Y-21780000D01*
X30302380Y-21741904D01*
X30111904Y-21741904D01*
X30035714Y-21780000D01*
X29997619Y-21818095D01*
X29959523Y-21894285D01*
X29959523Y-21970476D01*
X29997619Y-22084761D01*
X30454761Y-22541904D01*
X29959523Y-22541904D01*
X29197619Y-22541904D02*
X29654761Y-22541904D01*
X29426190Y-22541904D02*
X29426190Y-21741904D01*
X29502380Y-21856190D01*
X29578571Y-21932380D01*
X29654761Y-21970476D01*
X32797619Y-14181904D02*
X32797619Y-13381904D01*
X32607142Y-13381904D01*
X32492857Y-13420000D01*
X32416666Y-13496190D01*
X32378571Y-13572380D01*
X32340476Y-13724761D01*
X32340476Y-13839047D01*
X32378571Y-13991428D01*
X32416666Y-14067619D01*
X32492857Y-14143809D01*
X32607142Y-14181904D01*
X32797619Y-14181904D01*
X31997619Y-14181904D02*
X31997619Y-13648571D01*
X31997619Y-13381904D02*
X32035714Y-13420000D01*
X31997619Y-13458095D01*
X31959523Y-13420000D01*
X31997619Y-13381904D01*
X31997619Y-13458095D01*
X31730952Y-13648571D02*
X31426190Y-13648571D01*
X31616666Y-14181904D02*
X31616666Y-13496190D01*
X31578571Y-13420000D01*
X31502380Y-13381904D01*
X31426190Y-13381904D01*
X31273809Y-13648571D02*
X30969047Y-13648571D01*
X31159523Y-14181904D02*
X31159523Y-13496190D01*
X31121428Y-13420000D01*
X31045238Y-13381904D01*
X30969047Y-13381904D01*
X30702380Y-14105714D02*
X30664285Y-14143809D01*
X30702380Y-14181904D01*
X30740476Y-14143809D01*
X30702380Y-14105714D01*
X30702380Y-14181904D01*
X32835714Y-15313333D02*
X32454761Y-15313333D01*
X32911904Y-15541904D02*
X32645238Y-14741904D01*
X32378571Y-15541904D01*
X32111904Y-15541904D02*
X32111904Y-15008571D01*
X32111904Y-15084761D02*
X32073809Y-15046666D01*
X31997619Y-15008571D01*
X31883333Y-15008571D01*
X31807142Y-15046666D01*
X31769047Y-15122857D01*
X31769047Y-15541904D01*
X31769047Y-15122857D02*
X31730952Y-15046666D01*
X31654761Y-15008571D01*
X31540476Y-15008571D01*
X31464285Y-15046666D01*
X31426190Y-15122857D01*
X31426190Y-15541904D01*
X31045238Y-15008571D02*
X31045238Y-15808571D01*
X31045238Y-15046666D02*
X30969047Y-15008571D01*
X30816666Y-15008571D01*
X30740476Y-15046666D01*
X30702380Y-15084761D01*
X30664285Y-15160952D01*
X30664285Y-15389523D01*
X30702380Y-15465714D01*
X30740476Y-15503809D01*
X30816666Y-15541904D01*
X30969047Y-15541904D01*
X31045238Y-15503809D01*
X35028571Y-11307142D02*
X34419047Y-11307142D01*
X34723809Y-11611904D02*
X34723809Y-11002380D01*
X33657142Y-10811904D02*
X34038095Y-10811904D01*
X34076190Y-11192857D01*
X34038095Y-11154761D01*
X33961904Y-11116666D01*
X33771428Y-11116666D01*
X33695238Y-11154761D01*
X33657142Y-11192857D01*
X33619047Y-11269047D01*
X33619047Y-11459523D01*
X33657142Y-11535714D01*
X33695238Y-11573809D01*
X33771428Y-11611904D01*
X33961904Y-11611904D01*
X34038095Y-11573809D01*
X34076190Y-11535714D01*
X33390476Y-10811904D02*
X33123809Y-11611904D01*
X32857142Y-10811904D01*
D11*
X24500000Y-18600000D02*
X24500000Y-18200000D01*
X24700000Y-18600000D02*
X24500000Y-18600000D01*
X27500000Y-18600000D02*
X27500000Y-18200000D01*
X27300000Y-18600000D02*
X27500000Y-18600000D01*
D10*
X31409523Y-18757142D02*
X30800000Y-18757142D01*
X30000000Y-19061904D02*
X30457142Y-19061904D01*
X30228571Y-19061904D02*
X30228571Y-18261904D01*
X30304761Y-18376190D01*
X30380952Y-18452380D01*
X30457142Y-18490476D01*
X29695238Y-18338095D02*
X29657142Y-18300000D01*
X29580952Y-18261904D01*
X29390476Y-18261904D01*
X29314285Y-18300000D01*
X29276190Y-18338095D01*
X29238095Y-18414285D01*
X29238095Y-18490476D01*
X29276190Y-18604761D01*
X29733333Y-19061904D01*
X29238095Y-19061904D01*
X29009523Y-18261904D02*
X28742857Y-19061904D01*
X28476190Y-18261904D01*
X26609523Y-18300000D02*
X26685714Y-18261904D01*
X26800000Y-18261904D01*
X26914285Y-18300000D01*
X26990476Y-18376190D01*
X27028571Y-18452380D01*
X27066666Y-18604761D01*
X27066666Y-18719047D01*
X27028571Y-18871428D01*
X26990476Y-18947619D01*
X26914285Y-19023809D01*
X26800000Y-19061904D01*
X26723809Y-19061904D01*
X26609523Y-19023809D01*
X26571428Y-18985714D01*
X26571428Y-18719047D01*
X26723809Y-18719047D01*
X26228571Y-19061904D02*
X26228571Y-18261904D01*
X25771428Y-19061904D01*
X25771428Y-18261904D01*
X25390476Y-19061904D02*
X25390476Y-18261904D01*
X25200000Y-18261904D01*
X25085714Y-18300000D01*
X25009523Y-18376190D01*
X24971428Y-18452380D01*
X24933333Y-18604761D01*
X24933333Y-18719047D01*
X24971428Y-18871428D01*
X25009523Y-18947619D01*
X25085714Y-19023809D01*
X25200000Y-19061904D01*
X25390476Y-19061904D01*
X23509523Y-18757142D02*
X22900000Y-18757142D01*
X23204761Y-19061904D02*
X23204761Y-18452380D01*
X22100000Y-19061904D02*
X22557142Y-19061904D01*
X22328571Y-19061904D02*
X22328571Y-18261904D01*
X22404761Y-18376190D01*
X22480952Y-18452380D01*
X22557142Y-18490476D01*
X21795238Y-18338095D02*
X21757142Y-18300000D01*
X21680952Y-18261904D01*
X21490476Y-18261904D01*
X21414285Y-18300000D01*
X21376190Y-18338095D01*
X21338095Y-18414285D01*
X21338095Y-18490476D01*
X21376190Y-18604761D01*
X21833333Y-19061904D01*
X21338095Y-19061904D01*
X21109523Y-18261904D02*
X20842857Y-19061904D01*
X20576190Y-18261904D01*
D12*
X19825000Y-14925000D02*
X16850000Y-14925000D01*
X19050000Y-19175000D02*
X16850000Y-19175000D01*
D11*
X14237221Y-18190000D02*
X14562779Y-18190000D01*
X14237221Y-19210000D02*
X14562779Y-19210000D01*
X11590000Y-19862779D02*
X11590000Y-19537221D01*
X12610000Y-19862779D02*
X12610000Y-19537221D01*
X9610000Y-19537221D02*
X9610000Y-19862779D01*
X8590000Y-19537221D02*
X8590000Y-19862779D01*
X14512779Y-17110000D02*
X14187221Y-17110000D01*
X14512779Y-16090000D02*
X14187221Y-16090000D01*
X12610000Y-16137221D02*
X12610000Y-16462779D01*
X11590000Y-16137221D02*
X11590000Y-16462779D01*
X8590000Y-16462779D02*
X8590000Y-16137221D01*
X9610000Y-16462779D02*
X9610000Y-16137221D01*
X17100000Y-19500000D02*
X23100000Y-19500000D01*
X17100000Y-23700000D02*
X23100000Y-23700000D01*
X25837221Y-22690000D02*
X26162779Y-22690000D01*
X25837221Y-23710000D02*
X26162779Y-23710000D01*
X9610000Y-22537221D02*
X9610000Y-22862779D01*
X8590000Y-22537221D02*
X8590000Y-22862779D01*
X25437221Y-10590000D02*
X25762779Y-10590000D01*
X25437221Y-11610000D02*
X25762779Y-11610000D01*
X8590000Y-13462779D02*
X8590000Y-13137221D01*
X9610000Y-13462779D02*
X9610000Y-13137221D01*
X17200000Y-10400000D02*
X23200000Y-10400000D01*
X17200000Y-14600000D02*
X23200000Y-14600000D01*
X28962779Y-11510000D02*
X28637221Y-11510000D01*
X28962779Y-10490000D02*
X28637221Y-10490000D01*
X16650000Y-21700000D02*
X12750000Y-21700000D01*
X16650000Y-23700000D02*
X12750000Y-23700000D01*
X16650000Y-21700000D02*
X16650000Y-23700000D01*
X12250000Y-12700000D02*
X16150000Y-12700000D01*
X12250000Y-10700000D02*
X16150000Y-10700000D01*
X12250000Y-12700000D02*
X12250000Y-10700000D01*
X10090000Y-19862779D02*
X10090000Y-19537221D01*
X11110000Y-19862779D02*
X11110000Y-19537221D01*
X15458578Y-14510000D02*
X14941422Y-14510000D01*
X15458578Y-13090000D02*
X14941422Y-13090000D01*
X30010000Y-13241422D02*
X30010000Y-13758578D01*
X28590000Y-13241422D02*
X28590000Y-13758578D01*
X26190000Y-20958578D02*
X26190000Y-20441422D01*
X27610000Y-20958578D02*
X27610000Y-20441422D01*
X10090000Y-22862779D02*
X10090000Y-22537221D01*
X11110000Y-22862779D02*
X11110000Y-22537221D01*
X24290000Y-20958578D02*
X24290000Y-20441422D01*
X25710000Y-20958578D02*
X25710000Y-20441422D01*
X14841422Y-19890000D02*
X15358578Y-19890000D01*
X14841422Y-21310000D02*
X15358578Y-21310000D01*
X11110000Y-16137221D02*
X11110000Y-16462779D01*
X10090000Y-16137221D02*
X10090000Y-16462779D01*
X27210000Y-13241422D02*
X27210000Y-13758578D01*
X25790000Y-13241422D02*
X25790000Y-13758578D01*
X10337221Y-10590000D02*
X10662779Y-10590000D01*
X10337221Y-11610000D02*
X10662779Y-11610000D01*
X25310000Y-13241422D02*
X25310000Y-13758578D01*
X23890000Y-13241422D02*
X23890000Y-13758578D01*
X11541422Y-13090000D02*
X12058578Y-13090000D01*
X11541422Y-14510000D02*
X12058578Y-14510000D01*
D10*
X21409523Y-14861904D02*
X21409523Y-15509523D01*
X21371428Y-15585714D01*
X21333333Y-15623809D01*
X21257142Y-15661904D01*
X21104761Y-15661904D01*
X21028571Y-15623809D01*
X20990476Y-15585714D01*
X20952380Y-15509523D01*
X20952380Y-14861904D01*
X20152380Y-15661904D02*
X20609523Y-15661904D01*
X20380952Y-15661904D02*
X20380952Y-14861904D01*
X20457142Y-14976190D01*
X20533333Y-15052380D01*
X20609523Y-15090476D01*
X14533333Y-18061904D02*
X14800000Y-17680952D01*
X14990476Y-18061904D02*
X14990476Y-17261904D01*
X14685714Y-17261904D01*
X14609523Y-17300000D01*
X14571428Y-17338095D01*
X14533333Y-17414285D01*
X14533333Y-17528571D01*
X14571428Y-17604761D01*
X14609523Y-17642857D01*
X14685714Y-17680952D01*
X14990476Y-17680952D01*
X13847619Y-17261904D02*
X14000000Y-17261904D01*
X14076190Y-17300000D01*
X14114285Y-17338095D01*
X14190476Y-17452380D01*
X14228571Y-17604761D01*
X14228571Y-17909523D01*
X14190476Y-17985714D01*
X14152380Y-18023809D01*
X14076190Y-18061904D01*
X13923809Y-18061904D01*
X13847619Y-18023809D01*
X13809523Y-17985714D01*
X13771428Y-17909523D01*
X13771428Y-17719047D01*
X13809523Y-17642857D01*
X13847619Y-17604761D01*
X13923809Y-17566666D01*
X14076190Y-17566666D01*
X14152380Y-17604761D01*
X14190476Y-17642857D01*
X14228571Y-17719047D01*
X8031904Y-19566666D02*
X7650952Y-19300000D01*
X8031904Y-19109523D02*
X7231904Y-19109523D01*
X7231904Y-19414285D01*
X7270000Y-19490476D01*
X7308095Y-19528571D01*
X7384285Y-19566666D01*
X7498571Y-19566666D01*
X7574761Y-19528571D01*
X7612857Y-19490476D01*
X7650952Y-19414285D01*
X7650952Y-19109523D01*
X7498571Y-20252380D02*
X8031904Y-20252380D01*
X7193809Y-20061904D02*
X7765238Y-19871428D01*
X7765238Y-20366666D01*
X14533333Y-15761904D02*
X14800000Y-15380952D01*
X14990476Y-15761904D02*
X14990476Y-14961904D01*
X14685714Y-14961904D01*
X14609523Y-15000000D01*
X14571428Y-15038095D01*
X14533333Y-15114285D01*
X14533333Y-15228571D01*
X14571428Y-15304761D01*
X14609523Y-15342857D01*
X14685714Y-15380952D01*
X14990476Y-15380952D01*
X14266666Y-14961904D02*
X13771428Y-14961904D01*
X14038095Y-15266666D01*
X13923809Y-15266666D01*
X13847619Y-15304761D01*
X13809523Y-15342857D01*
X13771428Y-15419047D01*
X13771428Y-15609523D01*
X13809523Y-15685714D01*
X13847619Y-15723809D01*
X13923809Y-15761904D01*
X14152380Y-15761904D01*
X14228571Y-15723809D01*
X14266666Y-15685714D01*
X8161904Y-16166666D02*
X7780952Y-15900000D01*
X8161904Y-15709523D02*
X7361904Y-15709523D01*
X7361904Y-16014285D01*
X7400000Y-16090476D01*
X7438095Y-16128571D01*
X7514285Y-16166666D01*
X7628571Y-16166666D01*
X7704761Y-16128571D01*
X7742857Y-16090476D01*
X7780952Y-16014285D01*
X7780952Y-15709523D01*
X8161904Y-16928571D02*
X8161904Y-16471428D01*
X8161904Y-16700000D02*
X7361904Y-16700000D01*
X7476190Y-16623809D01*
X7552380Y-16547619D01*
X7590476Y-16471428D01*
X20233333Y-22161904D02*
X20614285Y-22161904D01*
X20614285Y-21361904D01*
X20042857Y-21361904D02*
X19509523Y-21361904D01*
X19852380Y-22161904D01*
X24033333Y-23561904D02*
X24414285Y-23561904D01*
X24414285Y-22761904D01*
X23423809Y-22761904D02*
X23576190Y-22761904D01*
X23652380Y-22800000D01*
X23690476Y-22838095D01*
X23766666Y-22952380D01*
X23804761Y-23104761D01*
X23804761Y-23409523D01*
X23766666Y-23485714D01*
X23728571Y-23523809D01*
X23652380Y-23561904D01*
X23500000Y-23561904D01*
X23423809Y-23523809D01*
X23385714Y-23485714D01*
X23347619Y-23409523D01*
X23347619Y-23219047D01*
X23385714Y-23142857D01*
X23423809Y-23104761D01*
X23500000Y-23066666D01*
X23652380Y-23066666D01*
X23728571Y-23104761D01*
X23766666Y-23142857D01*
X23804761Y-23219047D01*
X8031904Y-22566666D02*
X8031904Y-22185714D01*
X7231904Y-22185714D01*
X7231904Y-23214285D02*
X7231904Y-22833333D01*
X7612857Y-22795238D01*
X7574761Y-22833333D01*
X7536666Y-22909523D01*
X7536666Y-23100000D01*
X7574761Y-23176190D01*
X7612857Y-23214285D01*
X7689047Y-23252380D01*
X7879523Y-23252380D01*
X7955714Y-23214285D01*
X7993809Y-23176190D01*
X8031904Y-23100000D01*
X8031904Y-22909523D01*
X7993809Y-22833333D01*
X7955714Y-22795238D01*
X8261904Y-13166666D02*
X8261904Y-12785714D01*
X7461904Y-12785714D01*
X7461904Y-13357142D02*
X7461904Y-13852380D01*
X7766666Y-13585714D01*
X7766666Y-13700000D01*
X7804761Y-13776190D01*
X7842857Y-13814285D01*
X7919047Y-13852380D01*
X8109523Y-13852380D01*
X8185714Y-13814285D01*
X8223809Y-13776190D01*
X8261904Y-13700000D01*
X8261904Y-13471428D01*
X8223809Y-13395238D01*
X8185714Y-13357142D01*
X20333333Y-12761904D02*
X20714285Y-12761904D01*
X20714285Y-11961904D01*
X20104761Y-12038095D02*
X20066666Y-12000000D01*
X19990476Y-11961904D01*
X19800000Y-11961904D01*
X19723809Y-12000000D01*
X19685714Y-12038095D01*
X19647619Y-12114285D01*
X19647619Y-12190476D01*
X19685714Y-12304761D01*
X20142857Y-12761904D01*
X19647619Y-12761904D01*
X14990476Y-23461904D02*
X14990476Y-22661904D01*
X14800000Y-22661904D01*
X14685714Y-22700000D01*
X14609523Y-22776190D01*
X14571428Y-22852380D01*
X14533333Y-23004761D01*
X14533333Y-23119047D01*
X14571428Y-23271428D01*
X14609523Y-23347619D01*
X14685714Y-23423809D01*
X14800000Y-23461904D01*
X14990476Y-23461904D01*
X14228571Y-22738095D02*
X14190476Y-22700000D01*
X14114285Y-22661904D01*
X13923809Y-22661904D01*
X13847619Y-22700000D01*
X13809523Y-22738095D01*
X13771428Y-22814285D01*
X13771428Y-22890476D01*
X13809523Y-23004761D01*
X14266666Y-23461904D01*
X13771428Y-23461904D01*
X14890476Y-11761904D02*
X14890476Y-10961904D01*
X14700000Y-10961904D01*
X14585714Y-11000000D01*
X14509523Y-11076190D01*
X14471428Y-11152380D01*
X14433333Y-11304761D01*
X14433333Y-11419047D01*
X14471428Y-11571428D01*
X14509523Y-11647619D01*
X14585714Y-11723809D01*
X14700000Y-11761904D01*
X14890476Y-11761904D01*
X13671428Y-11761904D02*
X14128571Y-11761904D01*
X13900000Y-11761904D02*
X13900000Y-10961904D01*
X13976190Y-11076190D01*
X14052380Y-11152380D01*
X14128571Y-11190476D01*
X8333333Y-11385714D02*
X8371428Y-11423809D01*
X8485714Y-11461904D01*
X8561904Y-11461904D01*
X8676190Y-11423809D01*
X8752380Y-11347619D01*
X8790476Y-11271428D01*
X8828571Y-11119047D01*
X8828571Y-11004761D01*
X8790476Y-10852380D01*
X8752380Y-10776190D01*
X8676190Y-10700000D01*
X8561904Y-10661904D01*
X8485714Y-10661904D01*
X8371428Y-10700000D01*
X8333333Y-10738095D01*
X8066666Y-10661904D02*
X7571428Y-10661904D01*
X7838095Y-10966666D01*
X7723809Y-10966666D01*
X7647619Y-11004761D01*
X7609523Y-11042857D01*
X7571428Y-11119047D01*
X7571428Y-11309523D01*
X7609523Y-11385714D01*
X7647619Y-11423809D01*
X7723809Y-11461904D01*
X7952380Y-11461904D01*
X8028571Y-11423809D01*
X8066666Y-11385714D01*
X11433333Y-12685714D02*
X11471428Y-12723809D01*
X11585714Y-12761904D01*
X11661904Y-12761904D01*
X11776190Y-12723809D01*
X11852380Y-12647619D01*
X11890476Y-12571428D01*
X11928571Y-12419047D01*
X11928571Y-12304761D01*
X11890476Y-12152380D01*
X11852380Y-12076190D01*
X11776190Y-12000000D01*
X11661904Y-11961904D01*
X11585714Y-11961904D01*
X11471428Y-12000000D01*
X11433333Y-12038095D01*
X10671428Y-12761904D02*
X11128571Y-12761904D01*
X10900000Y-12761904D02*
X10900000Y-11961904D01*
X10976190Y-12076190D01*
X11052380Y-12152380D01*
X11128571Y-12190476D01*
%LPC*%
D13*
G36*
X16450000Y-5800000D02*
G01*
X16350000Y-7950000D01*
X11450000Y-7800000D01*
X11550000Y-5600000D01*
X16450000Y-5800000D01*
G37*
X16450000Y-5800000D02*
X16350000Y-7950000D01*
X11450000Y-7800000D01*
X11550000Y-5600000D01*
X16450000Y-5800000D01*
G36*
X16450000Y-28200000D02*
G01*
X11550000Y-28400000D01*
X11450000Y-26200000D01*
X16350000Y-26050000D01*
X16450000Y-28200000D01*
G37*
X16450000Y-28200000D02*
X11550000Y-28400000D01*
X11450000Y-26200000D01*
X16350000Y-26050000D01*
X16450000Y-28200000D01*
G36*
X39000000Y-23700000D02*
G01*
X38900000Y-24000000D01*
X38600000Y-24300000D01*
X38200000Y-24500000D01*
X34900000Y-24600000D01*
X34600000Y-24800000D01*
X34500000Y-25100000D01*
X34600000Y-25400000D01*
X34900000Y-25600000D01*
X38100000Y-25500000D01*
X38500000Y-25600000D01*
X38800000Y-25900000D01*
X39000000Y-26300000D01*
X39000000Y-26800000D01*
X38800000Y-27100000D01*
X38500000Y-27400000D01*
X38100000Y-27500000D01*
X34100000Y-27600000D01*
X34000000Y-23500000D01*
X39000000Y-23400000D01*
X39000000Y-23700000D01*
G37*
X39000000Y-23700000D02*
X38900000Y-24000000D01*
X38600000Y-24300000D01*
X38200000Y-24500000D01*
X34900000Y-24600000D01*
X34600000Y-24800000D01*
X34500000Y-25100000D01*
X34600000Y-25400000D01*
X34900000Y-25600000D01*
X38100000Y-25500000D01*
X38500000Y-25600000D01*
X38800000Y-25900000D01*
X39000000Y-26300000D01*
X39000000Y-26800000D01*
X38800000Y-27100000D01*
X38500000Y-27400000D01*
X38100000Y-27500000D01*
X34100000Y-27600000D01*
X34000000Y-23500000D01*
X39000000Y-23400000D01*
X39000000Y-23700000D01*
G36*
X38100000Y-6500000D02*
G01*
X38500000Y-6600000D01*
X38800000Y-6900000D01*
X39000000Y-7200000D01*
X39000000Y-7700000D01*
X38800000Y-8100000D01*
X38500000Y-8400000D01*
X38100000Y-8500000D01*
X34900000Y-8400000D01*
X34600000Y-8600000D01*
X34500000Y-8900000D01*
X34600000Y-9200000D01*
X34900000Y-9400000D01*
X38200000Y-9500000D01*
X38600000Y-9700000D01*
X38900000Y-10000000D01*
X39000000Y-10300000D01*
X39000000Y-10600000D01*
X34000000Y-10500000D01*
X34100000Y-6400000D01*
X38100000Y-6500000D01*
G37*
X38100000Y-6500000D02*
X38500000Y-6600000D01*
X38800000Y-6900000D01*
X39000000Y-7200000D01*
X39000000Y-7700000D01*
X38800000Y-8100000D01*
X38500000Y-8400000D01*
X38100000Y-8500000D01*
X34900000Y-8400000D01*
X34600000Y-8600000D01*
X34500000Y-8900000D01*
X34600000Y-9200000D01*
X34900000Y-9400000D01*
X38200000Y-9500000D01*
X38600000Y-9700000D01*
X38900000Y-10000000D01*
X39000000Y-10300000D01*
X39000000Y-10600000D01*
X34000000Y-10500000D01*
X34100000Y-6400000D01*
X38100000Y-6500000D01*
G36*
X11800000Y-28400000D02*
G01*
X7900000Y-28500000D01*
X7300000Y-28200000D01*
X7000000Y-27600000D01*
X7100000Y-27000000D01*
X7400000Y-26700000D01*
X7900000Y-26500000D01*
X10800000Y-26400000D01*
X11300000Y-26300000D01*
X11400000Y-25900000D01*
X11400000Y-25600000D01*
X11100000Y-25400000D01*
X8000000Y-25500000D01*
X7400000Y-25300000D01*
X7100000Y-24900000D01*
X7000000Y-24400000D01*
X11600000Y-24300000D01*
X11800000Y-28400000D01*
G37*
X11800000Y-28400000D02*
X7900000Y-28500000D01*
X7300000Y-28200000D01*
X7000000Y-27600000D01*
X7100000Y-27000000D01*
X7400000Y-26700000D01*
X7900000Y-26500000D01*
X10800000Y-26400000D01*
X11300000Y-26300000D01*
X11400000Y-25900000D01*
X11400000Y-25600000D01*
X11100000Y-25400000D01*
X8000000Y-25500000D01*
X7400000Y-25300000D01*
X7100000Y-24900000D01*
X7000000Y-24400000D01*
X11600000Y-24300000D01*
X11800000Y-28400000D01*
G36*
X11800000Y-5600000D02*
G01*
X11600000Y-9700000D01*
X7000000Y-9600000D01*
X7100000Y-9100000D01*
X7400000Y-8700000D01*
X8000000Y-8500000D01*
X11100000Y-8600000D01*
X11400000Y-8400000D01*
X11400000Y-8100000D01*
X11300000Y-7700000D01*
X10800000Y-7600000D01*
X7900000Y-7500000D01*
X7400000Y-7300000D01*
X7100000Y-7000000D01*
X7000000Y-6400000D01*
X7300000Y-5800000D01*
X7900000Y-5500000D01*
X11800000Y-5600000D01*
G37*
X11800000Y-5600000D02*
X11600000Y-9700000D01*
X7000000Y-9600000D01*
X7100000Y-9100000D01*
X7400000Y-8700000D01*
X8000000Y-8500000D01*
X11100000Y-8600000D01*
X11400000Y-8400000D01*
X11400000Y-8100000D01*
X11300000Y-7700000D01*
X10800000Y-7600000D01*
X7900000Y-7500000D01*
X7400000Y-7300000D01*
X7100000Y-7000000D01*
X7000000Y-6400000D01*
X7300000Y-5800000D01*
X7900000Y-5500000D01*
X11800000Y-5600000D01*
D14*
X21051188Y-8431946D02*
X24948812Y-8568054D01*
X21151188Y-25568054D02*
X25048812Y-25431946D01*
D15*
X18000000Y-7000000D03*
X36000000Y-22000000D03*
D16*
X35100000Y-18800000D03*
X35100000Y-15200000D03*
D17*
X32500000Y-17000000D03*
D16*
X36800000Y-12000000D03*
D18*
X29720000Y-17100000D03*
X27180000Y-17100000D03*
X24640000Y-17100000D03*
D19*
X22100000Y-17100000D03*
D20*
X17950000Y-17050000D03*
D21*
X16500000Y-15800000D03*
X16500000Y-16300000D03*
X16500000Y-16800000D03*
X16500000Y-17300000D03*
X16500000Y-17800000D03*
X16500000Y-18300000D03*
X19400000Y-18300000D03*
X19400000Y-17800000D03*
X19400000Y-17300000D03*
X19400000Y-16800000D03*
X19400000Y-16300000D03*
X19400000Y-15800000D03*
D22*
G36*
X15455142Y-18176174D02*
G01*
X15478803Y-18179684D01*
X15502007Y-18185496D01*
X15524529Y-18193554D01*
X15546153Y-18203782D01*
X15566670Y-18216079D01*
X15585883Y-18230329D01*
X15603607Y-18246393D01*
X15619671Y-18264117D01*
X15633921Y-18283330D01*
X15646218Y-18303847D01*
X15656446Y-18325471D01*
X15664504Y-18347993D01*
X15670316Y-18371197D01*
X15673826Y-18394858D01*
X15675000Y-18418750D01*
X15675000Y-18981250D01*
X15673826Y-19005142D01*
X15670316Y-19028803D01*
X15664504Y-19052007D01*
X15656446Y-19074529D01*
X15646218Y-19096153D01*
X15633921Y-19116670D01*
X15619671Y-19135883D01*
X15603607Y-19153607D01*
X15585883Y-19169671D01*
X15566670Y-19183921D01*
X15546153Y-19196218D01*
X15524529Y-19206446D01*
X15502007Y-19214504D01*
X15478803Y-19220316D01*
X15455142Y-19223826D01*
X15431250Y-19225000D01*
X14943750Y-19225000D01*
X14919858Y-19223826D01*
X14896197Y-19220316D01*
X14872993Y-19214504D01*
X14850471Y-19206446D01*
X14828847Y-19196218D01*
X14808330Y-19183921D01*
X14789117Y-19169671D01*
X14771393Y-19153607D01*
X14755329Y-19135883D01*
X14741079Y-19116670D01*
X14728782Y-19096153D01*
X14718554Y-19074529D01*
X14710496Y-19052007D01*
X14704684Y-19028803D01*
X14701174Y-19005142D01*
X14700000Y-18981250D01*
X14700000Y-18418750D01*
X14701174Y-18394858D01*
X14704684Y-18371197D01*
X14710496Y-18347993D01*
X14718554Y-18325471D01*
X14728782Y-18303847D01*
X14741079Y-18283330D01*
X14755329Y-18264117D01*
X14771393Y-18246393D01*
X14789117Y-18230329D01*
X14808330Y-18216079D01*
X14828847Y-18203782D01*
X14850471Y-18193554D01*
X14872993Y-18185496D01*
X14896197Y-18179684D01*
X14919858Y-18176174D01*
X14943750Y-18175000D01*
X15431250Y-18175000D01*
X15455142Y-18176174D01*
G37*
G36*
X13880142Y-18176174D02*
G01*
X13903803Y-18179684D01*
X13927007Y-18185496D01*
X13949529Y-18193554D01*
X13971153Y-18203782D01*
X13991670Y-18216079D01*
X14010883Y-18230329D01*
X14028607Y-18246393D01*
X14044671Y-18264117D01*
X14058921Y-18283330D01*
X14071218Y-18303847D01*
X14081446Y-18325471D01*
X14089504Y-18347993D01*
X14095316Y-18371197D01*
X14098826Y-18394858D01*
X14100000Y-18418750D01*
X14100000Y-18981250D01*
X14098826Y-19005142D01*
X14095316Y-19028803D01*
X14089504Y-19052007D01*
X14081446Y-19074529D01*
X14071218Y-19096153D01*
X14058921Y-19116670D01*
X14044671Y-19135883D01*
X14028607Y-19153607D01*
X14010883Y-19169671D01*
X13991670Y-19183921D01*
X13971153Y-19196218D01*
X13949529Y-19206446D01*
X13927007Y-19214504D01*
X13903803Y-19220316D01*
X13880142Y-19223826D01*
X13856250Y-19225000D01*
X13368750Y-19225000D01*
X13344858Y-19223826D01*
X13321197Y-19220316D01*
X13297993Y-19214504D01*
X13275471Y-19206446D01*
X13253847Y-19196218D01*
X13233330Y-19183921D01*
X13214117Y-19169671D01*
X13196393Y-19153607D01*
X13180329Y-19135883D01*
X13166079Y-19116670D01*
X13153782Y-19096153D01*
X13143554Y-19074529D01*
X13135496Y-19052007D01*
X13129684Y-19028803D01*
X13126174Y-19005142D01*
X13125000Y-18981250D01*
X13125000Y-18418750D01*
X13126174Y-18394858D01*
X13129684Y-18371197D01*
X13135496Y-18347993D01*
X13143554Y-18325471D01*
X13153782Y-18303847D01*
X13166079Y-18283330D01*
X13180329Y-18264117D01*
X13196393Y-18246393D01*
X13214117Y-18230329D01*
X13233330Y-18216079D01*
X13253847Y-18203782D01*
X13275471Y-18193554D01*
X13297993Y-18185496D01*
X13321197Y-18179684D01*
X13344858Y-18176174D01*
X13368750Y-18175000D01*
X13856250Y-18175000D01*
X13880142Y-18176174D01*
G37*
G36*
X12405142Y-18426174D02*
G01*
X12428803Y-18429684D01*
X12452007Y-18435496D01*
X12474529Y-18443554D01*
X12496153Y-18453782D01*
X12516670Y-18466079D01*
X12535883Y-18480329D01*
X12553607Y-18496393D01*
X12569671Y-18514117D01*
X12583921Y-18533330D01*
X12596218Y-18553847D01*
X12606446Y-18575471D01*
X12614504Y-18597993D01*
X12620316Y-18621197D01*
X12623826Y-18644858D01*
X12625000Y-18668750D01*
X12625000Y-19156250D01*
X12623826Y-19180142D01*
X12620316Y-19203803D01*
X12614504Y-19227007D01*
X12606446Y-19249529D01*
X12596218Y-19271153D01*
X12583921Y-19291670D01*
X12569671Y-19310883D01*
X12553607Y-19328607D01*
X12535883Y-19344671D01*
X12516670Y-19358921D01*
X12496153Y-19371218D01*
X12474529Y-19381446D01*
X12452007Y-19389504D01*
X12428803Y-19395316D01*
X12405142Y-19398826D01*
X12381250Y-19400000D01*
X11818750Y-19400000D01*
X11794858Y-19398826D01*
X11771197Y-19395316D01*
X11747993Y-19389504D01*
X11725471Y-19381446D01*
X11703847Y-19371218D01*
X11683330Y-19358921D01*
X11664117Y-19344671D01*
X11646393Y-19328607D01*
X11630329Y-19310883D01*
X11616079Y-19291670D01*
X11603782Y-19271153D01*
X11593554Y-19249529D01*
X11585496Y-19227007D01*
X11579684Y-19203803D01*
X11576174Y-19180142D01*
X11575000Y-19156250D01*
X11575000Y-18668750D01*
X11576174Y-18644858D01*
X11579684Y-18621197D01*
X11585496Y-18597993D01*
X11593554Y-18575471D01*
X11603782Y-18553847D01*
X11616079Y-18533330D01*
X11630329Y-18514117D01*
X11646393Y-18496393D01*
X11664117Y-18480329D01*
X11683330Y-18466079D01*
X11703847Y-18453782D01*
X11725471Y-18443554D01*
X11747993Y-18435496D01*
X11771197Y-18429684D01*
X11794858Y-18426174D01*
X11818750Y-18425000D01*
X12381250Y-18425000D01*
X12405142Y-18426174D01*
G37*
G36*
X12405142Y-20001174D02*
G01*
X12428803Y-20004684D01*
X12452007Y-20010496D01*
X12474529Y-20018554D01*
X12496153Y-20028782D01*
X12516670Y-20041079D01*
X12535883Y-20055329D01*
X12553607Y-20071393D01*
X12569671Y-20089117D01*
X12583921Y-20108330D01*
X12596218Y-20128847D01*
X12606446Y-20150471D01*
X12614504Y-20172993D01*
X12620316Y-20196197D01*
X12623826Y-20219858D01*
X12625000Y-20243750D01*
X12625000Y-20731250D01*
X12623826Y-20755142D01*
X12620316Y-20778803D01*
X12614504Y-20802007D01*
X12606446Y-20824529D01*
X12596218Y-20846153D01*
X12583921Y-20866670D01*
X12569671Y-20885883D01*
X12553607Y-20903607D01*
X12535883Y-20919671D01*
X12516670Y-20933921D01*
X12496153Y-20946218D01*
X12474529Y-20956446D01*
X12452007Y-20964504D01*
X12428803Y-20970316D01*
X12405142Y-20973826D01*
X12381250Y-20975000D01*
X11818750Y-20975000D01*
X11794858Y-20973826D01*
X11771197Y-20970316D01*
X11747993Y-20964504D01*
X11725471Y-20956446D01*
X11703847Y-20946218D01*
X11683330Y-20933921D01*
X11664117Y-20919671D01*
X11646393Y-20903607D01*
X11630329Y-20885883D01*
X11616079Y-20866670D01*
X11603782Y-20846153D01*
X11593554Y-20824529D01*
X11585496Y-20802007D01*
X11579684Y-20778803D01*
X11576174Y-20755142D01*
X11575000Y-20731250D01*
X11575000Y-20243750D01*
X11576174Y-20219858D01*
X11579684Y-20196197D01*
X11585496Y-20172993D01*
X11593554Y-20150471D01*
X11603782Y-20128847D01*
X11616079Y-20108330D01*
X11630329Y-20089117D01*
X11646393Y-20071393D01*
X11664117Y-20055329D01*
X11683330Y-20041079D01*
X11703847Y-20028782D01*
X11725471Y-20018554D01*
X11747993Y-20010496D01*
X11771197Y-20004684D01*
X11794858Y-20001174D01*
X11818750Y-20000000D01*
X12381250Y-20000000D01*
X12405142Y-20001174D01*
G37*
G36*
X9405142Y-20001174D02*
G01*
X9428803Y-20004684D01*
X9452007Y-20010496D01*
X9474529Y-20018554D01*
X9496153Y-20028782D01*
X9516670Y-20041079D01*
X9535883Y-20055329D01*
X9553607Y-20071393D01*
X9569671Y-20089117D01*
X9583921Y-20108330D01*
X9596218Y-20128847D01*
X9606446Y-20150471D01*
X9614504Y-20172993D01*
X9620316Y-20196197D01*
X9623826Y-20219858D01*
X9625000Y-20243750D01*
X9625000Y-20731250D01*
X9623826Y-20755142D01*
X9620316Y-20778803D01*
X9614504Y-20802007D01*
X9606446Y-20824529D01*
X9596218Y-20846153D01*
X9583921Y-20866670D01*
X9569671Y-20885883D01*
X9553607Y-20903607D01*
X9535883Y-20919671D01*
X9516670Y-20933921D01*
X9496153Y-20946218D01*
X9474529Y-20956446D01*
X9452007Y-20964504D01*
X9428803Y-20970316D01*
X9405142Y-20973826D01*
X9381250Y-20975000D01*
X8818750Y-20975000D01*
X8794858Y-20973826D01*
X8771197Y-20970316D01*
X8747993Y-20964504D01*
X8725471Y-20956446D01*
X8703847Y-20946218D01*
X8683330Y-20933921D01*
X8664117Y-20919671D01*
X8646393Y-20903607D01*
X8630329Y-20885883D01*
X8616079Y-20866670D01*
X8603782Y-20846153D01*
X8593554Y-20824529D01*
X8585496Y-20802007D01*
X8579684Y-20778803D01*
X8576174Y-20755142D01*
X8575000Y-20731250D01*
X8575000Y-20243750D01*
X8576174Y-20219858D01*
X8579684Y-20196197D01*
X8585496Y-20172993D01*
X8593554Y-20150471D01*
X8603782Y-20128847D01*
X8616079Y-20108330D01*
X8630329Y-20089117D01*
X8646393Y-20071393D01*
X8664117Y-20055329D01*
X8683330Y-20041079D01*
X8703847Y-20028782D01*
X8725471Y-20018554D01*
X8747993Y-20010496D01*
X8771197Y-20004684D01*
X8794858Y-20001174D01*
X8818750Y-20000000D01*
X9381250Y-20000000D01*
X9405142Y-20001174D01*
G37*
G36*
X9405142Y-18426174D02*
G01*
X9428803Y-18429684D01*
X9452007Y-18435496D01*
X9474529Y-18443554D01*
X9496153Y-18453782D01*
X9516670Y-18466079D01*
X9535883Y-18480329D01*
X9553607Y-18496393D01*
X9569671Y-18514117D01*
X9583921Y-18533330D01*
X9596218Y-18553847D01*
X9606446Y-18575471D01*
X9614504Y-18597993D01*
X9620316Y-18621197D01*
X9623826Y-18644858D01*
X9625000Y-18668750D01*
X9625000Y-19156250D01*
X9623826Y-19180142D01*
X9620316Y-19203803D01*
X9614504Y-19227007D01*
X9606446Y-19249529D01*
X9596218Y-19271153D01*
X9583921Y-19291670D01*
X9569671Y-19310883D01*
X9553607Y-19328607D01*
X9535883Y-19344671D01*
X9516670Y-19358921D01*
X9496153Y-19371218D01*
X9474529Y-19381446D01*
X9452007Y-19389504D01*
X9428803Y-19395316D01*
X9405142Y-19398826D01*
X9381250Y-19400000D01*
X8818750Y-19400000D01*
X8794858Y-19398826D01*
X8771197Y-19395316D01*
X8747993Y-19389504D01*
X8725471Y-19381446D01*
X8703847Y-19371218D01*
X8683330Y-19358921D01*
X8664117Y-19344671D01*
X8646393Y-19328607D01*
X8630329Y-19310883D01*
X8616079Y-19291670D01*
X8603782Y-19271153D01*
X8593554Y-19249529D01*
X8585496Y-19227007D01*
X8579684Y-19203803D01*
X8576174Y-19180142D01*
X8575000Y-19156250D01*
X8575000Y-18668750D01*
X8576174Y-18644858D01*
X8579684Y-18621197D01*
X8585496Y-18597993D01*
X8593554Y-18575471D01*
X8603782Y-18553847D01*
X8616079Y-18533330D01*
X8630329Y-18514117D01*
X8646393Y-18496393D01*
X8664117Y-18480329D01*
X8683330Y-18466079D01*
X8703847Y-18453782D01*
X8725471Y-18443554D01*
X8747993Y-18435496D01*
X8771197Y-18429684D01*
X8794858Y-18426174D01*
X8818750Y-18425000D01*
X9381250Y-18425000D01*
X9405142Y-18426174D01*
G37*
G36*
X13830142Y-16076174D02*
G01*
X13853803Y-16079684D01*
X13877007Y-16085496D01*
X13899529Y-16093554D01*
X13921153Y-16103782D01*
X13941670Y-16116079D01*
X13960883Y-16130329D01*
X13978607Y-16146393D01*
X13994671Y-16164117D01*
X14008921Y-16183330D01*
X14021218Y-16203847D01*
X14031446Y-16225471D01*
X14039504Y-16247993D01*
X14045316Y-16271197D01*
X14048826Y-16294858D01*
X14050000Y-16318750D01*
X14050000Y-16881250D01*
X14048826Y-16905142D01*
X14045316Y-16928803D01*
X14039504Y-16952007D01*
X14031446Y-16974529D01*
X14021218Y-16996153D01*
X14008921Y-17016670D01*
X13994671Y-17035883D01*
X13978607Y-17053607D01*
X13960883Y-17069671D01*
X13941670Y-17083921D01*
X13921153Y-17096218D01*
X13899529Y-17106446D01*
X13877007Y-17114504D01*
X13853803Y-17120316D01*
X13830142Y-17123826D01*
X13806250Y-17125000D01*
X13318750Y-17125000D01*
X13294858Y-17123826D01*
X13271197Y-17120316D01*
X13247993Y-17114504D01*
X13225471Y-17106446D01*
X13203847Y-17096218D01*
X13183330Y-17083921D01*
X13164117Y-17069671D01*
X13146393Y-17053607D01*
X13130329Y-17035883D01*
X13116079Y-17016670D01*
X13103782Y-16996153D01*
X13093554Y-16974529D01*
X13085496Y-16952007D01*
X13079684Y-16928803D01*
X13076174Y-16905142D01*
X13075000Y-16881250D01*
X13075000Y-16318750D01*
X13076174Y-16294858D01*
X13079684Y-16271197D01*
X13085496Y-16247993D01*
X13093554Y-16225471D01*
X13103782Y-16203847D01*
X13116079Y-16183330D01*
X13130329Y-16164117D01*
X13146393Y-16146393D01*
X13164117Y-16130329D01*
X13183330Y-16116079D01*
X13203847Y-16103782D01*
X13225471Y-16093554D01*
X13247993Y-16085496D01*
X13271197Y-16079684D01*
X13294858Y-16076174D01*
X13318750Y-16075000D01*
X13806250Y-16075000D01*
X13830142Y-16076174D01*
G37*
G36*
X15405142Y-16076174D02*
G01*
X15428803Y-16079684D01*
X15452007Y-16085496D01*
X15474529Y-16093554D01*
X15496153Y-16103782D01*
X15516670Y-16116079D01*
X15535883Y-16130329D01*
X15553607Y-16146393D01*
X15569671Y-16164117D01*
X15583921Y-16183330D01*
X15596218Y-16203847D01*
X15606446Y-16225471D01*
X15614504Y-16247993D01*
X15620316Y-16271197D01*
X15623826Y-16294858D01*
X15625000Y-16318750D01*
X15625000Y-16881250D01*
X15623826Y-16905142D01*
X15620316Y-16928803D01*
X15614504Y-16952007D01*
X15606446Y-16974529D01*
X15596218Y-16996153D01*
X15583921Y-17016670D01*
X15569671Y-17035883D01*
X15553607Y-17053607D01*
X15535883Y-17069671D01*
X15516670Y-17083921D01*
X15496153Y-17096218D01*
X15474529Y-17106446D01*
X15452007Y-17114504D01*
X15428803Y-17120316D01*
X15405142Y-17123826D01*
X15381250Y-17125000D01*
X14893750Y-17125000D01*
X14869858Y-17123826D01*
X14846197Y-17120316D01*
X14822993Y-17114504D01*
X14800471Y-17106446D01*
X14778847Y-17096218D01*
X14758330Y-17083921D01*
X14739117Y-17069671D01*
X14721393Y-17053607D01*
X14705329Y-17035883D01*
X14691079Y-17016670D01*
X14678782Y-16996153D01*
X14668554Y-16974529D01*
X14660496Y-16952007D01*
X14654684Y-16928803D01*
X14651174Y-16905142D01*
X14650000Y-16881250D01*
X14650000Y-16318750D01*
X14651174Y-16294858D01*
X14654684Y-16271197D01*
X14660496Y-16247993D01*
X14668554Y-16225471D01*
X14678782Y-16203847D01*
X14691079Y-16183330D01*
X14705329Y-16164117D01*
X14721393Y-16146393D01*
X14739117Y-16130329D01*
X14758330Y-16116079D01*
X14778847Y-16103782D01*
X14800471Y-16093554D01*
X14822993Y-16085496D01*
X14846197Y-16079684D01*
X14869858Y-16076174D01*
X14893750Y-16075000D01*
X15381250Y-16075000D01*
X15405142Y-16076174D01*
G37*
G36*
X12405142Y-16601174D02*
G01*
X12428803Y-16604684D01*
X12452007Y-16610496D01*
X12474529Y-16618554D01*
X12496153Y-16628782D01*
X12516670Y-16641079D01*
X12535883Y-16655329D01*
X12553607Y-16671393D01*
X12569671Y-16689117D01*
X12583921Y-16708330D01*
X12596218Y-16728847D01*
X12606446Y-16750471D01*
X12614504Y-16772993D01*
X12620316Y-16796197D01*
X12623826Y-16819858D01*
X12625000Y-16843750D01*
X12625000Y-17331250D01*
X12623826Y-17355142D01*
X12620316Y-17378803D01*
X12614504Y-17402007D01*
X12606446Y-17424529D01*
X12596218Y-17446153D01*
X12583921Y-17466670D01*
X12569671Y-17485883D01*
X12553607Y-17503607D01*
X12535883Y-17519671D01*
X12516670Y-17533921D01*
X12496153Y-17546218D01*
X12474529Y-17556446D01*
X12452007Y-17564504D01*
X12428803Y-17570316D01*
X12405142Y-17573826D01*
X12381250Y-17575000D01*
X11818750Y-17575000D01*
X11794858Y-17573826D01*
X11771197Y-17570316D01*
X11747993Y-17564504D01*
X11725471Y-17556446D01*
X11703847Y-17546218D01*
X11683330Y-17533921D01*
X11664117Y-17519671D01*
X11646393Y-17503607D01*
X11630329Y-17485883D01*
X11616079Y-17466670D01*
X11603782Y-17446153D01*
X11593554Y-17424529D01*
X11585496Y-17402007D01*
X11579684Y-17378803D01*
X11576174Y-17355142D01*
X11575000Y-17331250D01*
X11575000Y-16843750D01*
X11576174Y-16819858D01*
X11579684Y-16796197D01*
X11585496Y-16772993D01*
X11593554Y-16750471D01*
X11603782Y-16728847D01*
X11616079Y-16708330D01*
X11630329Y-16689117D01*
X11646393Y-16671393D01*
X11664117Y-16655329D01*
X11683330Y-16641079D01*
X11703847Y-16628782D01*
X11725471Y-16618554D01*
X11747993Y-16610496D01*
X11771197Y-16604684D01*
X11794858Y-16601174D01*
X11818750Y-16600000D01*
X12381250Y-16600000D01*
X12405142Y-16601174D01*
G37*
G36*
X12405142Y-15026174D02*
G01*
X12428803Y-15029684D01*
X12452007Y-15035496D01*
X12474529Y-15043554D01*
X12496153Y-15053782D01*
X12516670Y-15066079D01*
X12535883Y-15080329D01*
X12553607Y-15096393D01*
X12569671Y-15114117D01*
X12583921Y-15133330D01*
X12596218Y-15153847D01*
X12606446Y-15175471D01*
X12614504Y-15197993D01*
X12620316Y-15221197D01*
X12623826Y-15244858D01*
X12625000Y-15268750D01*
X12625000Y-15756250D01*
X12623826Y-15780142D01*
X12620316Y-15803803D01*
X12614504Y-15827007D01*
X12606446Y-15849529D01*
X12596218Y-15871153D01*
X12583921Y-15891670D01*
X12569671Y-15910883D01*
X12553607Y-15928607D01*
X12535883Y-15944671D01*
X12516670Y-15958921D01*
X12496153Y-15971218D01*
X12474529Y-15981446D01*
X12452007Y-15989504D01*
X12428803Y-15995316D01*
X12405142Y-15998826D01*
X12381250Y-16000000D01*
X11818750Y-16000000D01*
X11794858Y-15998826D01*
X11771197Y-15995316D01*
X11747993Y-15989504D01*
X11725471Y-15981446D01*
X11703847Y-15971218D01*
X11683330Y-15958921D01*
X11664117Y-15944671D01*
X11646393Y-15928607D01*
X11630329Y-15910883D01*
X11616079Y-15891670D01*
X11603782Y-15871153D01*
X11593554Y-15849529D01*
X11585496Y-15827007D01*
X11579684Y-15803803D01*
X11576174Y-15780142D01*
X11575000Y-15756250D01*
X11575000Y-15268750D01*
X11576174Y-15244858D01*
X11579684Y-15221197D01*
X11585496Y-15197993D01*
X11593554Y-15175471D01*
X11603782Y-15153847D01*
X11616079Y-15133330D01*
X11630329Y-15114117D01*
X11646393Y-15096393D01*
X11664117Y-15080329D01*
X11683330Y-15066079D01*
X11703847Y-15053782D01*
X11725471Y-15043554D01*
X11747993Y-15035496D01*
X11771197Y-15029684D01*
X11794858Y-15026174D01*
X11818750Y-15025000D01*
X12381250Y-15025000D01*
X12405142Y-15026174D01*
G37*
G36*
X9405142Y-15026174D02*
G01*
X9428803Y-15029684D01*
X9452007Y-15035496D01*
X9474529Y-15043554D01*
X9496153Y-15053782D01*
X9516670Y-15066079D01*
X9535883Y-15080329D01*
X9553607Y-15096393D01*
X9569671Y-15114117D01*
X9583921Y-15133330D01*
X9596218Y-15153847D01*
X9606446Y-15175471D01*
X9614504Y-15197993D01*
X9620316Y-15221197D01*
X9623826Y-15244858D01*
X9625000Y-15268750D01*
X9625000Y-15756250D01*
X9623826Y-15780142D01*
X9620316Y-15803803D01*
X9614504Y-15827007D01*
X9606446Y-15849529D01*
X9596218Y-15871153D01*
X9583921Y-15891670D01*
X9569671Y-15910883D01*
X9553607Y-15928607D01*
X9535883Y-15944671D01*
X9516670Y-15958921D01*
X9496153Y-15971218D01*
X9474529Y-15981446D01*
X9452007Y-15989504D01*
X9428803Y-15995316D01*
X9405142Y-15998826D01*
X9381250Y-16000000D01*
X8818750Y-16000000D01*
X8794858Y-15998826D01*
X8771197Y-15995316D01*
X8747993Y-15989504D01*
X8725471Y-15981446D01*
X8703847Y-15971218D01*
X8683330Y-15958921D01*
X8664117Y-15944671D01*
X8646393Y-15928607D01*
X8630329Y-15910883D01*
X8616079Y-15891670D01*
X8603782Y-15871153D01*
X8593554Y-15849529D01*
X8585496Y-15827007D01*
X8579684Y-15803803D01*
X8576174Y-15780142D01*
X8575000Y-15756250D01*
X8575000Y-15268750D01*
X8576174Y-15244858D01*
X8579684Y-15221197D01*
X8585496Y-15197993D01*
X8593554Y-15175471D01*
X8603782Y-15153847D01*
X8616079Y-15133330D01*
X8630329Y-15114117D01*
X8646393Y-15096393D01*
X8664117Y-15080329D01*
X8683330Y-15066079D01*
X8703847Y-15053782D01*
X8725471Y-15043554D01*
X8747993Y-15035496D01*
X8771197Y-15029684D01*
X8794858Y-15026174D01*
X8818750Y-15025000D01*
X9381250Y-15025000D01*
X9405142Y-15026174D01*
G37*
G36*
X9405142Y-16601174D02*
G01*
X9428803Y-16604684D01*
X9452007Y-16610496D01*
X9474529Y-16618554D01*
X9496153Y-16628782D01*
X9516670Y-16641079D01*
X9535883Y-16655329D01*
X9553607Y-16671393D01*
X9569671Y-16689117D01*
X9583921Y-16708330D01*
X9596218Y-16728847D01*
X9606446Y-16750471D01*
X9614504Y-16772993D01*
X9620316Y-16796197D01*
X9623826Y-16819858D01*
X9625000Y-16843750D01*
X9625000Y-17331250D01*
X9623826Y-17355142D01*
X9620316Y-17378803D01*
X9614504Y-17402007D01*
X9606446Y-17424529D01*
X9596218Y-17446153D01*
X9583921Y-17466670D01*
X9569671Y-17485883D01*
X9553607Y-17503607D01*
X9535883Y-17519671D01*
X9516670Y-17533921D01*
X9496153Y-17546218D01*
X9474529Y-17556446D01*
X9452007Y-17564504D01*
X9428803Y-17570316D01*
X9405142Y-17573826D01*
X9381250Y-17575000D01*
X8818750Y-17575000D01*
X8794858Y-17573826D01*
X8771197Y-17570316D01*
X8747993Y-17564504D01*
X8725471Y-17556446D01*
X8703847Y-17546218D01*
X8683330Y-17533921D01*
X8664117Y-17519671D01*
X8646393Y-17503607D01*
X8630329Y-17485883D01*
X8616079Y-17466670D01*
X8603782Y-17446153D01*
X8593554Y-17424529D01*
X8585496Y-17402007D01*
X8579684Y-17378803D01*
X8576174Y-17355142D01*
X8575000Y-17331250D01*
X8575000Y-16843750D01*
X8576174Y-16819858D01*
X8579684Y-16796197D01*
X8585496Y-16772993D01*
X8593554Y-16750471D01*
X8603782Y-16728847D01*
X8616079Y-16708330D01*
X8630329Y-16689117D01*
X8646393Y-16671393D01*
X8664117Y-16655329D01*
X8683330Y-16641079D01*
X8703847Y-16628782D01*
X8725471Y-16618554D01*
X8747993Y-16610496D01*
X8771197Y-16604684D01*
X8794858Y-16601174D01*
X8818750Y-16600000D01*
X9381250Y-16600000D01*
X9405142Y-16601174D01*
G37*
D23*
X22000000Y-21600000D03*
X18200000Y-21600000D03*
D22*
G36*
X27055142Y-22676174D02*
G01*
X27078803Y-22679684D01*
X27102007Y-22685496D01*
X27124529Y-22693554D01*
X27146153Y-22703782D01*
X27166670Y-22716079D01*
X27185883Y-22730329D01*
X27203607Y-22746393D01*
X27219671Y-22764117D01*
X27233921Y-22783330D01*
X27246218Y-22803847D01*
X27256446Y-22825471D01*
X27264504Y-22847993D01*
X27270316Y-22871197D01*
X27273826Y-22894858D01*
X27275000Y-22918750D01*
X27275000Y-23481250D01*
X27273826Y-23505142D01*
X27270316Y-23528803D01*
X27264504Y-23552007D01*
X27256446Y-23574529D01*
X27246218Y-23596153D01*
X27233921Y-23616670D01*
X27219671Y-23635883D01*
X27203607Y-23653607D01*
X27185883Y-23669671D01*
X27166670Y-23683921D01*
X27146153Y-23696218D01*
X27124529Y-23706446D01*
X27102007Y-23714504D01*
X27078803Y-23720316D01*
X27055142Y-23723826D01*
X27031250Y-23725000D01*
X26543750Y-23725000D01*
X26519858Y-23723826D01*
X26496197Y-23720316D01*
X26472993Y-23714504D01*
X26450471Y-23706446D01*
X26428847Y-23696218D01*
X26408330Y-23683921D01*
X26389117Y-23669671D01*
X26371393Y-23653607D01*
X26355329Y-23635883D01*
X26341079Y-23616670D01*
X26328782Y-23596153D01*
X26318554Y-23574529D01*
X26310496Y-23552007D01*
X26304684Y-23528803D01*
X26301174Y-23505142D01*
X26300000Y-23481250D01*
X26300000Y-22918750D01*
X26301174Y-22894858D01*
X26304684Y-22871197D01*
X26310496Y-22847993D01*
X26318554Y-22825471D01*
X26328782Y-22803847D01*
X26341079Y-22783330D01*
X26355329Y-22764117D01*
X26371393Y-22746393D01*
X26389117Y-22730329D01*
X26408330Y-22716079D01*
X26428847Y-22703782D01*
X26450471Y-22693554D01*
X26472993Y-22685496D01*
X26496197Y-22679684D01*
X26519858Y-22676174D01*
X26543750Y-22675000D01*
X27031250Y-22675000D01*
X27055142Y-22676174D01*
G37*
G36*
X25480142Y-22676174D02*
G01*
X25503803Y-22679684D01*
X25527007Y-22685496D01*
X25549529Y-22693554D01*
X25571153Y-22703782D01*
X25591670Y-22716079D01*
X25610883Y-22730329D01*
X25628607Y-22746393D01*
X25644671Y-22764117D01*
X25658921Y-22783330D01*
X25671218Y-22803847D01*
X25681446Y-22825471D01*
X25689504Y-22847993D01*
X25695316Y-22871197D01*
X25698826Y-22894858D01*
X25700000Y-22918750D01*
X25700000Y-23481250D01*
X25698826Y-23505142D01*
X25695316Y-23528803D01*
X25689504Y-23552007D01*
X25681446Y-23574529D01*
X25671218Y-23596153D01*
X25658921Y-23616670D01*
X25644671Y-23635883D01*
X25628607Y-23653607D01*
X25610883Y-23669671D01*
X25591670Y-23683921D01*
X25571153Y-23696218D01*
X25549529Y-23706446D01*
X25527007Y-23714504D01*
X25503803Y-23720316D01*
X25480142Y-23723826D01*
X25456250Y-23725000D01*
X24968750Y-23725000D01*
X24944858Y-23723826D01*
X24921197Y-23720316D01*
X24897993Y-23714504D01*
X24875471Y-23706446D01*
X24853847Y-23696218D01*
X24833330Y-23683921D01*
X24814117Y-23669671D01*
X24796393Y-23653607D01*
X24780329Y-23635883D01*
X24766079Y-23616670D01*
X24753782Y-23596153D01*
X24743554Y-23574529D01*
X24735496Y-23552007D01*
X24729684Y-23528803D01*
X24726174Y-23505142D01*
X24725000Y-23481250D01*
X24725000Y-22918750D01*
X24726174Y-22894858D01*
X24729684Y-22871197D01*
X24735496Y-22847993D01*
X24743554Y-22825471D01*
X24753782Y-22803847D01*
X24766079Y-22783330D01*
X24780329Y-22764117D01*
X24796393Y-22746393D01*
X24814117Y-22730329D01*
X24833330Y-22716079D01*
X24853847Y-22703782D01*
X24875471Y-22693554D01*
X24897993Y-22685496D01*
X24921197Y-22679684D01*
X24944858Y-22676174D01*
X24968750Y-22675000D01*
X25456250Y-22675000D01*
X25480142Y-22676174D01*
G37*
G36*
X9405142Y-23001174D02*
G01*
X9428803Y-23004684D01*
X9452007Y-23010496D01*
X9474529Y-23018554D01*
X9496153Y-23028782D01*
X9516670Y-23041079D01*
X9535883Y-23055329D01*
X9553607Y-23071393D01*
X9569671Y-23089117D01*
X9583921Y-23108330D01*
X9596218Y-23128847D01*
X9606446Y-23150471D01*
X9614504Y-23172993D01*
X9620316Y-23196197D01*
X9623826Y-23219858D01*
X9625000Y-23243750D01*
X9625000Y-23731250D01*
X9623826Y-23755142D01*
X9620316Y-23778803D01*
X9614504Y-23802007D01*
X9606446Y-23824529D01*
X9596218Y-23846153D01*
X9583921Y-23866670D01*
X9569671Y-23885883D01*
X9553607Y-23903607D01*
X9535883Y-23919671D01*
X9516670Y-23933921D01*
X9496153Y-23946218D01*
X9474529Y-23956446D01*
X9452007Y-23964504D01*
X9428803Y-23970316D01*
X9405142Y-23973826D01*
X9381250Y-23975000D01*
X8818750Y-23975000D01*
X8794858Y-23973826D01*
X8771197Y-23970316D01*
X8747993Y-23964504D01*
X8725471Y-23956446D01*
X8703847Y-23946218D01*
X8683330Y-23933921D01*
X8664117Y-23919671D01*
X8646393Y-23903607D01*
X8630329Y-23885883D01*
X8616079Y-23866670D01*
X8603782Y-23846153D01*
X8593554Y-23824529D01*
X8585496Y-23802007D01*
X8579684Y-23778803D01*
X8576174Y-23755142D01*
X8575000Y-23731250D01*
X8575000Y-23243750D01*
X8576174Y-23219858D01*
X8579684Y-23196197D01*
X8585496Y-23172993D01*
X8593554Y-23150471D01*
X8603782Y-23128847D01*
X8616079Y-23108330D01*
X8630329Y-23089117D01*
X8646393Y-23071393D01*
X8664117Y-23055329D01*
X8683330Y-23041079D01*
X8703847Y-23028782D01*
X8725471Y-23018554D01*
X8747993Y-23010496D01*
X8771197Y-23004684D01*
X8794858Y-23001174D01*
X8818750Y-23000000D01*
X9381250Y-23000000D01*
X9405142Y-23001174D01*
G37*
G36*
X9405142Y-21426174D02*
G01*
X9428803Y-21429684D01*
X9452007Y-21435496D01*
X9474529Y-21443554D01*
X9496153Y-21453782D01*
X9516670Y-21466079D01*
X9535883Y-21480329D01*
X9553607Y-21496393D01*
X9569671Y-21514117D01*
X9583921Y-21533330D01*
X9596218Y-21553847D01*
X9606446Y-21575471D01*
X9614504Y-21597993D01*
X9620316Y-21621197D01*
X9623826Y-21644858D01*
X9625000Y-21668750D01*
X9625000Y-22156250D01*
X9623826Y-22180142D01*
X9620316Y-22203803D01*
X9614504Y-22227007D01*
X9606446Y-22249529D01*
X9596218Y-22271153D01*
X9583921Y-22291670D01*
X9569671Y-22310883D01*
X9553607Y-22328607D01*
X9535883Y-22344671D01*
X9516670Y-22358921D01*
X9496153Y-22371218D01*
X9474529Y-22381446D01*
X9452007Y-22389504D01*
X9428803Y-22395316D01*
X9405142Y-22398826D01*
X9381250Y-22400000D01*
X8818750Y-22400000D01*
X8794858Y-22398826D01*
X8771197Y-22395316D01*
X8747993Y-22389504D01*
X8725471Y-22381446D01*
X8703847Y-22371218D01*
X8683330Y-22358921D01*
X8664117Y-22344671D01*
X8646393Y-22328607D01*
X8630329Y-22310883D01*
X8616079Y-22291670D01*
X8603782Y-22271153D01*
X8593554Y-22249529D01*
X8585496Y-22227007D01*
X8579684Y-22203803D01*
X8576174Y-22180142D01*
X8575000Y-22156250D01*
X8575000Y-21668750D01*
X8576174Y-21644858D01*
X8579684Y-21621197D01*
X8585496Y-21597993D01*
X8593554Y-21575471D01*
X8603782Y-21553847D01*
X8616079Y-21533330D01*
X8630329Y-21514117D01*
X8646393Y-21496393D01*
X8664117Y-21480329D01*
X8683330Y-21466079D01*
X8703847Y-21453782D01*
X8725471Y-21443554D01*
X8747993Y-21435496D01*
X8771197Y-21429684D01*
X8794858Y-21426174D01*
X8818750Y-21425000D01*
X9381250Y-21425000D01*
X9405142Y-21426174D01*
G37*
G36*
X26655142Y-10576174D02*
G01*
X26678803Y-10579684D01*
X26702007Y-10585496D01*
X26724529Y-10593554D01*
X26746153Y-10603782D01*
X26766670Y-10616079D01*
X26785883Y-10630329D01*
X26803607Y-10646393D01*
X26819671Y-10664117D01*
X26833921Y-10683330D01*
X26846218Y-10703847D01*
X26856446Y-10725471D01*
X26864504Y-10747993D01*
X26870316Y-10771197D01*
X26873826Y-10794858D01*
X26875000Y-10818750D01*
X26875000Y-11381250D01*
X26873826Y-11405142D01*
X26870316Y-11428803D01*
X26864504Y-11452007D01*
X26856446Y-11474529D01*
X26846218Y-11496153D01*
X26833921Y-11516670D01*
X26819671Y-11535883D01*
X26803607Y-11553607D01*
X26785883Y-11569671D01*
X26766670Y-11583921D01*
X26746153Y-11596218D01*
X26724529Y-11606446D01*
X26702007Y-11614504D01*
X26678803Y-11620316D01*
X26655142Y-11623826D01*
X26631250Y-11625000D01*
X26143750Y-11625000D01*
X26119858Y-11623826D01*
X26096197Y-11620316D01*
X26072993Y-11614504D01*
X26050471Y-11606446D01*
X26028847Y-11596218D01*
X26008330Y-11583921D01*
X25989117Y-11569671D01*
X25971393Y-11553607D01*
X25955329Y-11535883D01*
X25941079Y-11516670D01*
X25928782Y-11496153D01*
X25918554Y-11474529D01*
X25910496Y-11452007D01*
X25904684Y-11428803D01*
X25901174Y-11405142D01*
X25900000Y-11381250D01*
X25900000Y-10818750D01*
X25901174Y-10794858D01*
X25904684Y-10771197D01*
X25910496Y-10747993D01*
X25918554Y-10725471D01*
X25928782Y-10703847D01*
X25941079Y-10683330D01*
X25955329Y-10664117D01*
X25971393Y-10646393D01*
X25989117Y-10630329D01*
X26008330Y-10616079D01*
X26028847Y-10603782D01*
X26050471Y-10593554D01*
X26072993Y-10585496D01*
X26096197Y-10579684D01*
X26119858Y-10576174D01*
X26143750Y-10575000D01*
X26631250Y-10575000D01*
X26655142Y-10576174D01*
G37*
G36*
X25080142Y-10576174D02*
G01*
X25103803Y-10579684D01*
X25127007Y-10585496D01*
X25149529Y-10593554D01*
X25171153Y-10603782D01*
X25191670Y-10616079D01*
X25210883Y-10630329D01*
X25228607Y-10646393D01*
X25244671Y-10664117D01*
X25258921Y-10683330D01*
X25271218Y-10703847D01*
X25281446Y-10725471D01*
X25289504Y-10747993D01*
X25295316Y-10771197D01*
X25298826Y-10794858D01*
X25300000Y-10818750D01*
X25300000Y-11381250D01*
X25298826Y-11405142D01*
X25295316Y-11428803D01*
X25289504Y-11452007D01*
X25281446Y-11474529D01*
X25271218Y-11496153D01*
X25258921Y-11516670D01*
X25244671Y-11535883D01*
X25228607Y-11553607D01*
X25210883Y-11569671D01*
X25191670Y-11583921D01*
X25171153Y-11596218D01*
X25149529Y-11606446D01*
X25127007Y-11614504D01*
X25103803Y-11620316D01*
X25080142Y-11623826D01*
X25056250Y-11625000D01*
X24568750Y-11625000D01*
X24544858Y-11623826D01*
X24521197Y-11620316D01*
X24497993Y-11614504D01*
X24475471Y-11606446D01*
X24453847Y-11596218D01*
X24433330Y-11583921D01*
X24414117Y-11569671D01*
X24396393Y-11553607D01*
X24380329Y-11535883D01*
X24366079Y-11516670D01*
X24353782Y-11496153D01*
X24343554Y-11474529D01*
X24335496Y-11452007D01*
X24329684Y-11428803D01*
X24326174Y-11405142D01*
X24325000Y-11381250D01*
X24325000Y-10818750D01*
X24326174Y-10794858D01*
X24329684Y-10771197D01*
X24335496Y-10747993D01*
X24343554Y-10725471D01*
X24353782Y-10703847D01*
X24366079Y-10683330D01*
X24380329Y-10664117D01*
X24396393Y-10646393D01*
X24414117Y-10630329D01*
X24433330Y-10616079D01*
X24453847Y-10603782D01*
X24475471Y-10593554D01*
X24497993Y-10585496D01*
X24521197Y-10579684D01*
X24544858Y-10576174D01*
X24568750Y-10575000D01*
X25056250Y-10575000D01*
X25080142Y-10576174D01*
G37*
G36*
X9405142Y-12026174D02*
G01*
X9428803Y-12029684D01*
X9452007Y-12035496D01*
X9474529Y-12043554D01*
X9496153Y-12053782D01*
X9516670Y-12066079D01*
X9535883Y-12080329D01*
X9553607Y-12096393D01*
X9569671Y-12114117D01*
X9583921Y-12133330D01*
X9596218Y-12153847D01*
X9606446Y-12175471D01*
X9614504Y-12197993D01*
X9620316Y-12221197D01*
X9623826Y-12244858D01*
X9625000Y-12268750D01*
X9625000Y-12756250D01*
X9623826Y-12780142D01*
X9620316Y-12803803D01*
X9614504Y-12827007D01*
X9606446Y-12849529D01*
X9596218Y-12871153D01*
X9583921Y-12891670D01*
X9569671Y-12910883D01*
X9553607Y-12928607D01*
X9535883Y-12944671D01*
X9516670Y-12958921D01*
X9496153Y-12971218D01*
X9474529Y-12981446D01*
X9452007Y-12989504D01*
X9428803Y-12995316D01*
X9405142Y-12998826D01*
X9381250Y-13000000D01*
X8818750Y-13000000D01*
X8794858Y-12998826D01*
X8771197Y-12995316D01*
X8747993Y-12989504D01*
X8725471Y-12981446D01*
X8703847Y-12971218D01*
X8683330Y-12958921D01*
X8664117Y-12944671D01*
X8646393Y-12928607D01*
X8630329Y-12910883D01*
X8616079Y-12891670D01*
X8603782Y-12871153D01*
X8593554Y-12849529D01*
X8585496Y-12827007D01*
X8579684Y-12803803D01*
X8576174Y-12780142D01*
X8575000Y-12756250D01*
X8575000Y-12268750D01*
X8576174Y-12244858D01*
X8579684Y-12221197D01*
X8585496Y-12197993D01*
X8593554Y-12175471D01*
X8603782Y-12153847D01*
X8616079Y-12133330D01*
X8630329Y-12114117D01*
X8646393Y-12096393D01*
X8664117Y-12080329D01*
X8683330Y-12066079D01*
X8703847Y-12053782D01*
X8725471Y-12043554D01*
X8747993Y-12035496D01*
X8771197Y-12029684D01*
X8794858Y-12026174D01*
X8818750Y-12025000D01*
X9381250Y-12025000D01*
X9405142Y-12026174D01*
G37*
G36*
X9405142Y-13601174D02*
G01*
X9428803Y-13604684D01*
X9452007Y-13610496D01*
X9474529Y-13618554D01*
X9496153Y-13628782D01*
X9516670Y-13641079D01*
X9535883Y-13655329D01*
X9553607Y-13671393D01*
X9569671Y-13689117D01*
X9583921Y-13708330D01*
X9596218Y-13728847D01*
X9606446Y-13750471D01*
X9614504Y-13772993D01*
X9620316Y-13796197D01*
X9623826Y-13819858D01*
X9625000Y-13843750D01*
X9625000Y-14331250D01*
X9623826Y-14355142D01*
X9620316Y-14378803D01*
X9614504Y-14402007D01*
X9606446Y-14424529D01*
X9596218Y-14446153D01*
X9583921Y-14466670D01*
X9569671Y-14485883D01*
X9553607Y-14503607D01*
X9535883Y-14519671D01*
X9516670Y-14533921D01*
X9496153Y-14546218D01*
X9474529Y-14556446D01*
X9452007Y-14564504D01*
X9428803Y-14570316D01*
X9405142Y-14573826D01*
X9381250Y-14575000D01*
X8818750Y-14575000D01*
X8794858Y-14573826D01*
X8771197Y-14570316D01*
X8747993Y-14564504D01*
X8725471Y-14556446D01*
X8703847Y-14546218D01*
X8683330Y-14533921D01*
X8664117Y-14519671D01*
X8646393Y-14503607D01*
X8630329Y-14485883D01*
X8616079Y-14466670D01*
X8603782Y-14446153D01*
X8593554Y-14424529D01*
X8585496Y-14402007D01*
X8579684Y-14378803D01*
X8576174Y-14355142D01*
X8575000Y-14331250D01*
X8575000Y-13843750D01*
X8576174Y-13819858D01*
X8579684Y-13796197D01*
X8585496Y-13772993D01*
X8593554Y-13750471D01*
X8603782Y-13728847D01*
X8616079Y-13708330D01*
X8630329Y-13689117D01*
X8646393Y-13671393D01*
X8664117Y-13655329D01*
X8683330Y-13641079D01*
X8703847Y-13628782D01*
X8725471Y-13618554D01*
X8747993Y-13610496D01*
X8771197Y-13604684D01*
X8794858Y-13601174D01*
X8818750Y-13600000D01*
X9381250Y-13600000D01*
X9405142Y-13601174D01*
G37*
D23*
X22100000Y-12500000D03*
X18300000Y-12500000D03*
D22*
G36*
X28280142Y-10476174D02*
G01*
X28303803Y-10479684D01*
X28327007Y-10485496D01*
X28349529Y-10493554D01*
X28371153Y-10503782D01*
X28391670Y-10516079D01*
X28410883Y-10530329D01*
X28428607Y-10546393D01*
X28444671Y-10564117D01*
X28458921Y-10583330D01*
X28471218Y-10603847D01*
X28481446Y-10625471D01*
X28489504Y-10647993D01*
X28495316Y-10671197D01*
X28498826Y-10694858D01*
X28500000Y-10718750D01*
X28500000Y-11281250D01*
X28498826Y-11305142D01*
X28495316Y-11328803D01*
X28489504Y-11352007D01*
X28481446Y-11374529D01*
X28471218Y-11396153D01*
X28458921Y-11416670D01*
X28444671Y-11435883D01*
X28428607Y-11453607D01*
X28410883Y-11469671D01*
X28391670Y-11483921D01*
X28371153Y-11496218D01*
X28349529Y-11506446D01*
X28327007Y-11514504D01*
X28303803Y-11520316D01*
X28280142Y-11523826D01*
X28256250Y-11525000D01*
X27768750Y-11525000D01*
X27744858Y-11523826D01*
X27721197Y-11520316D01*
X27697993Y-11514504D01*
X27675471Y-11506446D01*
X27653847Y-11496218D01*
X27633330Y-11483921D01*
X27614117Y-11469671D01*
X27596393Y-11453607D01*
X27580329Y-11435883D01*
X27566079Y-11416670D01*
X27553782Y-11396153D01*
X27543554Y-11374529D01*
X27535496Y-11352007D01*
X27529684Y-11328803D01*
X27526174Y-11305142D01*
X27525000Y-11281250D01*
X27525000Y-10718750D01*
X27526174Y-10694858D01*
X27529684Y-10671197D01*
X27535496Y-10647993D01*
X27543554Y-10625471D01*
X27553782Y-10603847D01*
X27566079Y-10583330D01*
X27580329Y-10564117D01*
X27596393Y-10546393D01*
X27614117Y-10530329D01*
X27633330Y-10516079D01*
X27653847Y-10503782D01*
X27675471Y-10493554D01*
X27697993Y-10485496D01*
X27721197Y-10479684D01*
X27744858Y-10476174D01*
X27768750Y-10475000D01*
X28256250Y-10475000D01*
X28280142Y-10476174D01*
G37*
G36*
X29855142Y-10476174D02*
G01*
X29878803Y-10479684D01*
X29902007Y-10485496D01*
X29924529Y-10493554D01*
X29946153Y-10503782D01*
X29966670Y-10516079D01*
X29985883Y-10530329D01*
X30003607Y-10546393D01*
X30019671Y-10564117D01*
X30033921Y-10583330D01*
X30046218Y-10603847D01*
X30056446Y-10625471D01*
X30064504Y-10647993D01*
X30070316Y-10671197D01*
X30073826Y-10694858D01*
X30075000Y-10718750D01*
X30075000Y-11281250D01*
X30073826Y-11305142D01*
X30070316Y-11328803D01*
X30064504Y-11352007D01*
X30056446Y-11374529D01*
X30046218Y-11396153D01*
X30033921Y-11416670D01*
X30019671Y-11435883D01*
X30003607Y-11453607D01*
X29985883Y-11469671D01*
X29966670Y-11483921D01*
X29946153Y-11496218D01*
X29924529Y-11506446D01*
X29902007Y-11514504D01*
X29878803Y-11520316D01*
X29855142Y-11523826D01*
X29831250Y-11525000D01*
X29343750Y-11525000D01*
X29319858Y-11523826D01*
X29296197Y-11520316D01*
X29272993Y-11514504D01*
X29250471Y-11506446D01*
X29228847Y-11496218D01*
X29208330Y-11483921D01*
X29189117Y-11469671D01*
X29171393Y-11453607D01*
X29155329Y-11435883D01*
X29141079Y-11416670D01*
X29128782Y-11396153D01*
X29118554Y-11374529D01*
X29110496Y-11352007D01*
X29104684Y-11328803D01*
X29101174Y-11305142D01*
X29100000Y-11281250D01*
X29100000Y-10718750D01*
X29101174Y-10694858D01*
X29104684Y-10671197D01*
X29110496Y-10647993D01*
X29118554Y-10625471D01*
X29128782Y-10603847D01*
X29141079Y-10583330D01*
X29155329Y-10564117D01*
X29171393Y-10546393D01*
X29189117Y-10530329D01*
X29208330Y-10516079D01*
X29228847Y-10503782D01*
X29250471Y-10493554D01*
X29272993Y-10485496D01*
X29296197Y-10479684D01*
X29319858Y-10476174D01*
X29343750Y-10475000D01*
X29831250Y-10475000D01*
X29855142Y-10476174D01*
G37*
D24*
X12750000Y-22700000D03*
X16050000Y-22700000D03*
X16150000Y-11700000D03*
X12850000Y-11700000D03*
D22*
G36*
X10905142Y-18426174D02*
G01*
X10928803Y-18429684D01*
X10952007Y-18435496D01*
X10974529Y-18443554D01*
X10996153Y-18453782D01*
X11016670Y-18466079D01*
X11035883Y-18480329D01*
X11053607Y-18496393D01*
X11069671Y-18514117D01*
X11083921Y-18533330D01*
X11096218Y-18553847D01*
X11106446Y-18575471D01*
X11114504Y-18597993D01*
X11120316Y-18621197D01*
X11123826Y-18644858D01*
X11125000Y-18668750D01*
X11125000Y-19156250D01*
X11123826Y-19180142D01*
X11120316Y-19203803D01*
X11114504Y-19227007D01*
X11106446Y-19249529D01*
X11096218Y-19271153D01*
X11083921Y-19291670D01*
X11069671Y-19310883D01*
X11053607Y-19328607D01*
X11035883Y-19344671D01*
X11016670Y-19358921D01*
X10996153Y-19371218D01*
X10974529Y-19381446D01*
X10952007Y-19389504D01*
X10928803Y-19395316D01*
X10905142Y-19398826D01*
X10881250Y-19400000D01*
X10318750Y-19400000D01*
X10294858Y-19398826D01*
X10271197Y-19395316D01*
X10247993Y-19389504D01*
X10225471Y-19381446D01*
X10203847Y-19371218D01*
X10183330Y-19358921D01*
X10164117Y-19344671D01*
X10146393Y-19328607D01*
X10130329Y-19310883D01*
X10116079Y-19291670D01*
X10103782Y-19271153D01*
X10093554Y-19249529D01*
X10085496Y-19227007D01*
X10079684Y-19203803D01*
X10076174Y-19180142D01*
X10075000Y-19156250D01*
X10075000Y-18668750D01*
X10076174Y-18644858D01*
X10079684Y-18621197D01*
X10085496Y-18597993D01*
X10093554Y-18575471D01*
X10103782Y-18553847D01*
X10116079Y-18533330D01*
X10130329Y-18514117D01*
X10146393Y-18496393D01*
X10164117Y-18480329D01*
X10183330Y-18466079D01*
X10203847Y-18453782D01*
X10225471Y-18443554D01*
X10247993Y-18435496D01*
X10271197Y-18429684D01*
X10294858Y-18426174D01*
X10318750Y-18425000D01*
X10881250Y-18425000D01*
X10905142Y-18426174D01*
G37*
G36*
X10905142Y-20001174D02*
G01*
X10928803Y-20004684D01*
X10952007Y-20010496D01*
X10974529Y-20018554D01*
X10996153Y-20028782D01*
X11016670Y-20041079D01*
X11035883Y-20055329D01*
X11053607Y-20071393D01*
X11069671Y-20089117D01*
X11083921Y-20108330D01*
X11096218Y-20128847D01*
X11106446Y-20150471D01*
X11114504Y-20172993D01*
X11120316Y-20196197D01*
X11123826Y-20219858D01*
X11125000Y-20243750D01*
X11125000Y-20731250D01*
X11123826Y-20755142D01*
X11120316Y-20778803D01*
X11114504Y-20802007D01*
X11106446Y-20824529D01*
X11096218Y-20846153D01*
X11083921Y-20866670D01*
X11069671Y-20885883D01*
X11053607Y-20903607D01*
X11035883Y-20919671D01*
X11016670Y-20933921D01*
X10996153Y-20946218D01*
X10974529Y-20956446D01*
X10952007Y-20964504D01*
X10928803Y-20970316D01*
X10905142Y-20973826D01*
X10881250Y-20975000D01*
X10318750Y-20975000D01*
X10294858Y-20973826D01*
X10271197Y-20970316D01*
X10247993Y-20964504D01*
X10225471Y-20956446D01*
X10203847Y-20946218D01*
X10183330Y-20933921D01*
X10164117Y-20919671D01*
X10146393Y-20903607D01*
X10130329Y-20885883D01*
X10116079Y-20866670D01*
X10103782Y-20846153D01*
X10093554Y-20824529D01*
X10085496Y-20802007D01*
X10079684Y-20778803D01*
X10076174Y-20755142D01*
X10075000Y-20731250D01*
X10075000Y-20243750D01*
X10076174Y-20219858D01*
X10079684Y-20196197D01*
X10085496Y-20172993D01*
X10093554Y-20150471D01*
X10103782Y-20128847D01*
X10116079Y-20108330D01*
X10130329Y-20089117D01*
X10146393Y-20071393D01*
X10164117Y-20055329D01*
X10183330Y-20041079D01*
X10203847Y-20028782D01*
X10225471Y-20018554D01*
X10247993Y-20010496D01*
X10271197Y-20004684D01*
X10294858Y-20001174D01*
X10318750Y-20000000D01*
X10881250Y-20000000D01*
X10905142Y-20001174D01*
G37*
G36*
X14557592Y-13051294D02*
G01*
X14583681Y-13055164D01*
X14609264Y-13061572D01*
X14634096Y-13070457D01*
X14657938Y-13081734D01*
X14680560Y-13095293D01*
X14701743Y-13111003D01*
X14721285Y-13128715D01*
X14738997Y-13148257D01*
X14754707Y-13169440D01*
X14768266Y-13192062D01*
X14779543Y-13215904D01*
X14788428Y-13240736D01*
X14794836Y-13266319D01*
X14798706Y-13292408D01*
X14800000Y-13318750D01*
X14800000Y-14281250D01*
X14798706Y-14307592D01*
X14794836Y-14333681D01*
X14788428Y-14359264D01*
X14779543Y-14384096D01*
X14768266Y-14407938D01*
X14754707Y-14430560D01*
X14738997Y-14451743D01*
X14721285Y-14471285D01*
X14701743Y-14488997D01*
X14680560Y-14504707D01*
X14657938Y-14518266D01*
X14634096Y-14529543D01*
X14609264Y-14538428D01*
X14583681Y-14544836D01*
X14557592Y-14548706D01*
X14531250Y-14550000D01*
X13993750Y-14550000D01*
X13967408Y-14548706D01*
X13941319Y-14544836D01*
X13915736Y-14538428D01*
X13890904Y-14529543D01*
X13867062Y-14518266D01*
X13844440Y-14504707D01*
X13823257Y-14488997D01*
X13803715Y-14471285D01*
X13786003Y-14451743D01*
X13770293Y-14430560D01*
X13756734Y-14407938D01*
X13745457Y-14384096D01*
X13736572Y-14359264D01*
X13730164Y-14333681D01*
X13726294Y-14307592D01*
X13725000Y-14281250D01*
X13725000Y-13318750D01*
X13726294Y-13292408D01*
X13730164Y-13266319D01*
X13736572Y-13240736D01*
X13745457Y-13215904D01*
X13756734Y-13192062D01*
X13770293Y-13169440D01*
X13786003Y-13148257D01*
X13803715Y-13128715D01*
X13823257Y-13111003D01*
X13844440Y-13095293D01*
X13867062Y-13081734D01*
X13890904Y-13070457D01*
X13915736Y-13061572D01*
X13941319Y-13055164D01*
X13967408Y-13051294D01*
X13993750Y-13050000D01*
X14531250Y-13050000D01*
X14557592Y-13051294D01*
G37*
G36*
X16432592Y-13051294D02*
G01*
X16458681Y-13055164D01*
X16484264Y-13061572D01*
X16509096Y-13070457D01*
X16532938Y-13081734D01*
X16555560Y-13095293D01*
X16576743Y-13111003D01*
X16596285Y-13128715D01*
X16613997Y-13148257D01*
X16629707Y-13169440D01*
X16643266Y-13192062D01*
X16654543Y-13215904D01*
X16663428Y-13240736D01*
X16669836Y-13266319D01*
X16673706Y-13292408D01*
X16675000Y-13318750D01*
X16675000Y-14281250D01*
X16673706Y-14307592D01*
X16669836Y-14333681D01*
X16663428Y-14359264D01*
X16654543Y-14384096D01*
X16643266Y-14407938D01*
X16629707Y-14430560D01*
X16613997Y-14451743D01*
X16596285Y-14471285D01*
X16576743Y-14488997D01*
X16555560Y-14504707D01*
X16532938Y-14518266D01*
X16509096Y-14529543D01*
X16484264Y-14538428D01*
X16458681Y-14544836D01*
X16432592Y-14548706D01*
X16406250Y-14550000D01*
X15868750Y-14550000D01*
X15842408Y-14548706D01*
X15816319Y-14544836D01*
X15790736Y-14538428D01*
X15765904Y-14529543D01*
X15742062Y-14518266D01*
X15719440Y-14504707D01*
X15698257Y-14488997D01*
X15678715Y-14471285D01*
X15661003Y-14451743D01*
X15645293Y-14430560D01*
X15631734Y-14407938D01*
X15620457Y-14384096D01*
X15611572Y-14359264D01*
X15605164Y-14333681D01*
X15601294Y-14307592D01*
X15600000Y-14281250D01*
X15600000Y-13318750D01*
X15601294Y-13292408D01*
X15605164Y-13266319D01*
X15611572Y-13240736D01*
X15620457Y-13215904D01*
X15631734Y-13192062D01*
X15645293Y-13169440D01*
X15661003Y-13148257D01*
X15678715Y-13128715D01*
X15698257Y-13111003D01*
X15719440Y-13095293D01*
X15742062Y-13081734D01*
X15765904Y-13070457D01*
X15790736Y-13061572D01*
X15816319Y-13055164D01*
X15842408Y-13051294D01*
X15868750Y-13050000D01*
X16406250Y-13050000D01*
X16432592Y-13051294D01*
G37*
G36*
X29807592Y-13901294D02*
G01*
X29833681Y-13905164D01*
X29859264Y-13911572D01*
X29884096Y-13920457D01*
X29907938Y-13931734D01*
X29930560Y-13945293D01*
X29951743Y-13961003D01*
X29971285Y-13978715D01*
X29988997Y-13998257D01*
X30004707Y-14019440D01*
X30018266Y-14042062D01*
X30029543Y-14065904D01*
X30038428Y-14090736D01*
X30044836Y-14116319D01*
X30048706Y-14142408D01*
X30050000Y-14168750D01*
X30050000Y-14706250D01*
X30048706Y-14732592D01*
X30044836Y-14758681D01*
X30038428Y-14784264D01*
X30029543Y-14809096D01*
X30018266Y-14832938D01*
X30004707Y-14855560D01*
X29988997Y-14876743D01*
X29971285Y-14896285D01*
X29951743Y-14913997D01*
X29930560Y-14929707D01*
X29907938Y-14943266D01*
X29884096Y-14954543D01*
X29859264Y-14963428D01*
X29833681Y-14969836D01*
X29807592Y-14973706D01*
X29781250Y-14975000D01*
X28818750Y-14975000D01*
X28792408Y-14973706D01*
X28766319Y-14969836D01*
X28740736Y-14963428D01*
X28715904Y-14954543D01*
X28692062Y-14943266D01*
X28669440Y-14929707D01*
X28648257Y-14913997D01*
X28628715Y-14896285D01*
X28611003Y-14876743D01*
X28595293Y-14855560D01*
X28581734Y-14832938D01*
X28570457Y-14809096D01*
X28561572Y-14784264D01*
X28555164Y-14758681D01*
X28551294Y-14732592D01*
X28550000Y-14706250D01*
X28550000Y-14168750D01*
X28551294Y-14142408D01*
X28555164Y-14116319D01*
X28561572Y-14090736D01*
X28570457Y-14065904D01*
X28581734Y-14042062D01*
X28595293Y-14019440D01*
X28611003Y-13998257D01*
X28628715Y-13978715D01*
X28648257Y-13961003D01*
X28669440Y-13945293D01*
X28692062Y-13931734D01*
X28715904Y-13920457D01*
X28740736Y-13911572D01*
X28766319Y-13905164D01*
X28792408Y-13901294D01*
X28818750Y-13900000D01*
X29781250Y-13900000D01*
X29807592Y-13901294D01*
G37*
G36*
X29807592Y-12026294D02*
G01*
X29833681Y-12030164D01*
X29859264Y-12036572D01*
X29884096Y-12045457D01*
X29907938Y-12056734D01*
X29930560Y-12070293D01*
X29951743Y-12086003D01*
X29971285Y-12103715D01*
X29988997Y-12123257D01*
X30004707Y-12144440D01*
X30018266Y-12167062D01*
X30029543Y-12190904D01*
X30038428Y-12215736D01*
X30044836Y-12241319D01*
X30048706Y-12267408D01*
X30050000Y-12293750D01*
X30050000Y-12831250D01*
X30048706Y-12857592D01*
X30044836Y-12883681D01*
X30038428Y-12909264D01*
X30029543Y-12934096D01*
X30018266Y-12957938D01*
X30004707Y-12980560D01*
X29988997Y-13001743D01*
X29971285Y-13021285D01*
X29951743Y-13038997D01*
X29930560Y-13054707D01*
X29907938Y-13068266D01*
X29884096Y-13079543D01*
X29859264Y-13088428D01*
X29833681Y-13094836D01*
X29807592Y-13098706D01*
X29781250Y-13100000D01*
X28818750Y-13100000D01*
X28792408Y-13098706D01*
X28766319Y-13094836D01*
X28740736Y-13088428D01*
X28715904Y-13079543D01*
X28692062Y-13068266D01*
X28669440Y-13054707D01*
X28648257Y-13038997D01*
X28628715Y-13021285D01*
X28611003Y-13001743D01*
X28595293Y-12980560D01*
X28581734Y-12957938D01*
X28570457Y-12934096D01*
X28561572Y-12909264D01*
X28555164Y-12883681D01*
X28551294Y-12857592D01*
X28550000Y-12831250D01*
X28550000Y-12293750D01*
X28551294Y-12267408D01*
X28555164Y-12241319D01*
X28561572Y-12215736D01*
X28570457Y-12190904D01*
X28581734Y-12167062D01*
X28595293Y-12144440D01*
X28611003Y-12123257D01*
X28628715Y-12103715D01*
X28648257Y-12086003D01*
X28669440Y-12070293D01*
X28692062Y-12056734D01*
X28715904Y-12045457D01*
X28740736Y-12036572D01*
X28766319Y-12030164D01*
X28792408Y-12026294D01*
X28818750Y-12025000D01*
X29781250Y-12025000D01*
X29807592Y-12026294D01*
G37*
G36*
X27407592Y-19226294D02*
G01*
X27433681Y-19230164D01*
X27459264Y-19236572D01*
X27484096Y-19245457D01*
X27507938Y-19256734D01*
X27530560Y-19270293D01*
X27551743Y-19286003D01*
X27571285Y-19303715D01*
X27588997Y-19323257D01*
X27604707Y-19344440D01*
X27618266Y-19367062D01*
X27629543Y-19390904D01*
X27638428Y-19415736D01*
X27644836Y-19441319D01*
X27648706Y-19467408D01*
X27650000Y-19493750D01*
X27650000Y-20031250D01*
X27648706Y-20057592D01*
X27644836Y-20083681D01*
X27638428Y-20109264D01*
X27629543Y-20134096D01*
X27618266Y-20157938D01*
X27604707Y-20180560D01*
X27588997Y-20201743D01*
X27571285Y-20221285D01*
X27551743Y-20238997D01*
X27530560Y-20254707D01*
X27507938Y-20268266D01*
X27484096Y-20279543D01*
X27459264Y-20288428D01*
X27433681Y-20294836D01*
X27407592Y-20298706D01*
X27381250Y-20300000D01*
X26418750Y-20300000D01*
X26392408Y-20298706D01*
X26366319Y-20294836D01*
X26340736Y-20288428D01*
X26315904Y-20279543D01*
X26292062Y-20268266D01*
X26269440Y-20254707D01*
X26248257Y-20238997D01*
X26228715Y-20221285D01*
X26211003Y-20201743D01*
X26195293Y-20180560D01*
X26181734Y-20157938D01*
X26170457Y-20134096D01*
X26161572Y-20109264D01*
X26155164Y-20083681D01*
X26151294Y-20057592D01*
X26150000Y-20031250D01*
X26150000Y-19493750D01*
X26151294Y-19467408D01*
X26155164Y-19441319D01*
X26161572Y-19415736D01*
X26170457Y-19390904D01*
X26181734Y-19367062D01*
X26195293Y-19344440D01*
X26211003Y-19323257D01*
X26228715Y-19303715D01*
X26248257Y-19286003D01*
X26269440Y-19270293D01*
X26292062Y-19256734D01*
X26315904Y-19245457D01*
X26340736Y-19236572D01*
X26366319Y-19230164D01*
X26392408Y-19226294D01*
X26418750Y-19225000D01*
X27381250Y-19225000D01*
X27407592Y-19226294D01*
G37*
G36*
X27407592Y-21101294D02*
G01*
X27433681Y-21105164D01*
X27459264Y-21111572D01*
X27484096Y-21120457D01*
X27507938Y-21131734D01*
X27530560Y-21145293D01*
X27551743Y-21161003D01*
X27571285Y-21178715D01*
X27588997Y-21198257D01*
X27604707Y-21219440D01*
X27618266Y-21242062D01*
X27629543Y-21265904D01*
X27638428Y-21290736D01*
X27644836Y-21316319D01*
X27648706Y-21342408D01*
X27650000Y-21368750D01*
X27650000Y-21906250D01*
X27648706Y-21932592D01*
X27644836Y-21958681D01*
X27638428Y-21984264D01*
X27629543Y-22009096D01*
X27618266Y-22032938D01*
X27604707Y-22055560D01*
X27588997Y-22076743D01*
X27571285Y-22096285D01*
X27551743Y-22113997D01*
X27530560Y-22129707D01*
X27507938Y-22143266D01*
X27484096Y-22154543D01*
X27459264Y-22163428D01*
X27433681Y-22169836D01*
X27407592Y-22173706D01*
X27381250Y-22175000D01*
X26418750Y-22175000D01*
X26392408Y-22173706D01*
X26366319Y-22169836D01*
X26340736Y-22163428D01*
X26315904Y-22154543D01*
X26292062Y-22143266D01*
X26269440Y-22129707D01*
X26248257Y-22113997D01*
X26228715Y-22096285D01*
X26211003Y-22076743D01*
X26195293Y-22055560D01*
X26181734Y-22032938D01*
X26170457Y-22009096D01*
X26161572Y-21984264D01*
X26155164Y-21958681D01*
X26151294Y-21932592D01*
X26150000Y-21906250D01*
X26150000Y-21368750D01*
X26151294Y-21342408D01*
X26155164Y-21316319D01*
X26161572Y-21290736D01*
X26170457Y-21265904D01*
X26181734Y-21242062D01*
X26195293Y-21219440D01*
X26211003Y-21198257D01*
X26228715Y-21178715D01*
X26248257Y-21161003D01*
X26269440Y-21145293D01*
X26292062Y-21131734D01*
X26315904Y-21120457D01*
X26340736Y-21111572D01*
X26366319Y-21105164D01*
X26392408Y-21101294D01*
X26418750Y-21100000D01*
X27381250Y-21100000D01*
X27407592Y-21101294D01*
G37*
G36*
X10905142Y-21426174D02*
G01*
X10928803Y-21429684D01*
X10952007Y-21435496D01*
X10974529Y-21443554D01*
X10996153Y-21453782D01*
X11016670Y-21466079D01*
X11035883Y-21480329D01*
X11053607Y-21496393D01*
X11069671Y-21514117D01*
X11083921Y-21533330D01*
X11096218Y-21553847D01*
X11106446Y-21575471D01*
X11114504Y-21597993D01*
X11120316Y-21621197D01*
X11123826Y-21644858D01*
X11125000Y-21668750D01*
X11125000Y-22156250D01*
X11123826Y-22180142D01*
X11120316Y-22203803D01*
X11114504Y-22227007D01*
X11106446Y-22249529D01*
X11096218Y-22271153D01*
X11083921Y-22291670D01*
X11069671Y-22310883D01*
X11053607Y-22328607D01*
X11035883Y-22344671D01*
X11016670Y-22358921D01*
X10996153Y-22371218D01*
X10974529Y-22381446D01*
X10952007Y-22389504D01*
X10928803Y-22395316D01*
X10905142Y-22398826D01*
X10881250Y-22400000D01*
X10318750Y-22400000D01*
X10294858Y-22398826D01*
X10271197Y-22395316D01*
X10247993Y-22389504D01*
X10225471Y-22381446D01*
X10203847Y-22371218D01*
X10183330Y-22358921D01*
X10164117Y-22344671D01*
X10146393Y-22328607D01*
X10130329Y-22310883D01*
X10116079Y-22291670D01*
X10103782Y-22271153D01*
X10093554Y-22249529D01*
X10085496Y-22227007D01*
X10079684Y-22203803D01*
X10076174Y-22180142D01*
X10075000Y-22156250D01*
X10075000Y-21668750D01*
X10076174Y-21644858D01*
X10079684Y-21621197D01*
X10085496Y-21597993D01*
X10093554Y-21575471D01*
X10103782Y-21553847D01*
X10116079Y-21533330D01*
X10130329Y-21514117D01*
X10146393Y-21496393D01*
X10164117Y-21480329D01*
X10183330Y-21466079D01*
X10203847Y-21453782D01*
X10225471Y-21443554D01*
X10247993Y-21435496D01*
X10271197Y-21429684D01*
X10294858Y-21426174D01*
X10318750Y-21425000D01*
X10881250Y-21425000D01*
X10905142Y-21426174D01*
G37*
G36*
X10905142Y-23001174D02*
G01*
X10928803Y-23004684D01*
X10952007Y-23010496D01*
X10974529Y-23018554D01*
X10996153Y-23028782D01*
X11016670Y-23041079D01*
X11035883Y-23055329D01*
X11053607Y-23071393D01*
X11069671Y-23089117D01*
X11083921Y-23108330D01*
X11096218Y-23128847D01*
X11106446Y-23150471D01*
X11114504Y-23172993D01*
X11120316Y-23196197D01*
X11123826Y-23219858D01*
X11125000Y-23243750D01*
X11125000Y-23731250D01*
X11123826Y-23755142D01*
X11120316Y-23778803D01*
X11114504Y-23802007D01*
X11106446Y-23824529D01*
X11096218Y-23846153D01*
X11083921Y-23866670D01*
X11069671Y-23885883D01*
X11053607Y-23903607D01*
X11035883Y-23919671D01*
X11016670Y-23933921D01*
X10996153Y-23946218D01*
X10974529Y-23956446D01*
X10952007Y-23964504D01*
X10928803Y-23970316D01*
X10905142Y-23973826D01*
X10881250Y-23975000D01*
X10318750Y-23975000D01*
X10294858Y-23973826D01*
X10271197Y-23970316D01*
X10247993Y-23964504D01*
X10225471Y-23956446D01*
X10203847Y-23946218D01*
X10183330Y-23933921D01*
X10164117Y-23919671D01*
X10146393Y-23903607D01*
X10130329Y-23885883D01*
X10116079Y-23866670D01*
X10103782Y-23846153D01*
X10093554Y-23824529D01*
X10085496Y-23802007D01*
X10079684Y-23778803D01*
X10076174Y-23755142D01*
X10075000Y-23731250D01*
X10075000Y-23243750D01*
X10076174Y-23219858D01*
X10079684Y-23196197D01*
X10085496Y-23172993D01*
X10093554Y-23150471D01*
X10103782Y-23128847D01*
X10116079Y-23108330D01*
X10130329Y-23089117D01*
X10146393Y-23071393D01*
X10164117Y-23055329D01*
X10183330Y-23041079D01*
X10203847Y-23028782D01*
X10225471Y-23018554D01*
X10247993Y-23010496D01*
X10271197Y-23004684D01*
X10294858Y-23001174D01*
X10318750Y-23000000D01*
X10881250Y-23000000D01*
X10905142Y-23001174D01*
G37*
G36*
X25507592Y-19226294D02*
G01*
X25533681Y-19230164D01*
X25559264Y-19236572D01*
X25584096Y-19245457D01*
X25607938Y-19256734D01*
X25630560Y-19270293D01*
X25651743Y-19286003D01*
X25671285Y-19303715D01*
X25688997Y-19323257D01*
X25704707Y-19344440D01*
X25718266Y-19367062D01*
X25729543Y-19390904D01*
X25738428Y-19415736D01*
X25744836Y-19441319D01*
X25748706Y-19467408D01*
X25750000Y-19493750D01*
X25750000Y-20031250D01*
X25748706Y-20057592D01*
X25744836Y-20083681D01*
X25738428Y-20109264D01*
X25729543Y-20134096D01*
X25718266Y-20157938D01*
X25704707Y-20180560D01*
X25688997Y-20201743D01*
X25671285Y-20221285D01*
X25651743Y-20238997D01*
X25630560Y-20254707D01*
X25607938Y-20268266D01*
X25584096Y-20279543D01*
X25559264Y-20288428D01*
X25533681Y-20294836D01*
X25507592Y-20298706D01*
X25481250Y-20300000D01*
X24518750Y-20300000D01*
X24492408Y-20298706D01*
X24466319Y-20294836D01*
X24440736Y-20288428D01*
X24415904Y-20279543D01*
X24392062Y-20268266D01*
X24369440Y-20254707D01*
X24348257Y-20238997D01*
X24328715Y-20221285D01*
X24311003Y-20201743D01*
X24295293Y-20180560D01*
X24281734Y-20157938D01*
X24270457Y-20134096D01*
X24261572Y-20109264D01*
X24255164Y-20083681D01*
X24251294Y-20057592D01*
X24250000Y-20031250D01*
X24250000Y-19493750D01*
X24251294Y-19467408D01*
X24255164Y-19441319D01*
X24261572Y-19415736D01*
X24270457Y-19390904D01*
X24281734Y-19367062D01*
X24295293Y-19344440D01*
X24311003Y-19323257D01*
X24328715Y-19303715D01*
X24348257Y-19286003D01*
X24369440Y-19270293D01*
X24392062Y-19256734D01*
X24415904Y-19245457D01*
X24440736Y-19236572D01*
X24466319Y-19230164D01*
X24492408Y-19226294D01*
X24518750Y-19225000D01*
X25481250Y-19225000D01*
X25507592Y-19226294D01*
G37*
G36*
X25507592Y-21101294D02*
G01*
X25533681Y-21105164D01*
X25559264Y-21111572D01*
X25584096Y-21120457D01*
X25607938Y-21131734D01*
X25630560Y-21145293D01*
X25651743Y-21161003D01*
X25671285Y-21178715D01*
X25688997Y-21198257D01*
X25704707Y-21219440D01*
X25718266Y-21242062D01*
X25729543Y-21265904D01*
X25738428Y-21290736D01*
X25744836Y-21316319D01*
X25748706Y-21342408D01*
X25750000Y-21368750D01*
X25750000Y-21906250D01*
X25748706Y-21932592D01*
X25744836Y-21958681D01*
X25738428Y-21984264D01*
X25729543Y-22009096D01*
X25718266Y-22032938D01*
X25704707Y-22055560D01*
X25688997Y-22076743D01*
X25671285Y-22096285D01*
X25651743Y-22113997D01*
X25630560Y-22129707D01*
X25607938Y-22143266D01*
X25584096Y-22154543D01*
X25559264Y-22163428D01*
X25533681Y-22169836D01*
X25507592Y-22173706D01*
X25481250Y-22175000D01*
X24518750Y-22175000D01*
X24492408Y-22173706D01*
X24466319Y-22169836D01*
X24440736Y-22163428D01*
X24415904Y-22154543D01*
X24392062Y-22143266D01*
X24369440Y-22129707D01*
X24348257Y-22113997D01*
X24328715Y-22096285D01*
X24311003Y-22076743D01*
X24295293Y-22055560D01*
X24281734Y-22032938D01*
X24270457Y-22009096D01*
X24261572Y-21984264D01*
X24255164Y-21958681D01*
X24251294Y-21932592D01*
X24250000Y-21906250D01*
X24250000Y-21368750D01*
X24251294Y-21342408D01*
X24255164Y-21316319D01*
X24261572Y-21290736D01*
X24270457Y-21265904D01*
X24281734Y-21242062D01*
X24295293Y-21219440D01*
X24311003Y-21198257D01*
X24328715Y-21178715D01*
X24348257Y-21161003D01*
X24369440Y-21145293D01*
X24392062Y-21131734D01*
X24415904Y-21120457D01*
X24440736Y-21111572D01*
X24466319Y-21105164D01*
X24492408Y-21101294D01*
X24518750Y-21100000D01*
X25481250Y-21100000D01*
X25507592Y-21101294D01*
G37*
G36*
X16332592Y-19851294D02*
G01*
X16358681Y-19855164D01*
X16384264Y-19861572D01*
X16409096Y-19870457D01*
X16432938Y-19881734D01*
X16455560Y-19895293D01*
X16476743Y-19911003D01*
X16496285Y-19928715D01*
X16513997Y-19948257D01*
X16529707Y-19969440D01*
X16543266Y-19992062D01*
X16554543Y-20015904D01*
X16563428Y-20040736D01*
X16569836Y-20066319D01*
X16573706Y-20092408D01*
X16575000Y-20118750D01*
X16575000Y-21081250D01*
X16573706Y-21107592D01*
X16569836Y-21133681D01*
X16563428Y-21159264D01*
X16554543Y-21184096D01*
X16543266Y-21207938D01*
X16529707Y-21230560D01*
X16513997Y-21251743D01*
X16496285Y-21271285D01*
X16476743Y-21288997D01*
X16455560Y-21304707D01*
X16432938Y-21318266D01*
X16409096Y-21329543D01*
X16384264Y-21338428D01*
X16358681Y-21344836D01*
X16332592Y-21348706D01*
X16306250Y-21350000D01*
X15768750Y-21350000D01*
X15742408Y-21348706D01*
X15716319Y-21344836D01*
X15690736Y-21338428D01*
X15665904Y-21329543D01*
X15642062Y-21318266D01*
X15619440Y-21304707D01*
X15598257Y-21288997D01*
X15578715Y-21271285D01*
X15561003Y-21251743D01*
X15545293Y-21230560D01*
X15531734Y-21207938D01*
X15520457Y-21184096D01*
X15511572Y-21159264D01*
X15505164Y-21133681D01*
X15501294Y-21107592D01*
X15500000Y-21081250D01*
X15500000Y-20118750D01*
X15501294Y-20092408D01*
X15505164Y-20066319D01*
X15511572Y-20040736D01*
X15520457Y-20015904D01*
X15531734Y-19992062D01*
X15545293Y-19969440D01*
X15561003Y-19948257D01*
X15578715Y-19928715D01*
X15598257Y-19911003D01*
X15619440Y-19895293D01*
X15642062Y-19881734D01*
X15665904Y-19870457D01*
X15690736Y-19861572D01*
X15716319Y-19855164D01*
X15742408Y-19851294D01*
X15768750Y-19850000D01*
X16306250Y-19850000D01*
X16332592Y-19851294D01*
G37*
G36*
X14457592Y-19851294D02*
G01*
X14483681Y-19855164D01*
X14509264Y-19861572D01*
X14534096Y-19870457D01*
X14557938Y-19881734D01*
X14580560Y-19895293D01*
X14601743Y-19911003D01*
X14621285Y-19928715D01*
X14638997Y-19948257D01*
X14654707Y-19969440D01*
X14668266Y-19992062D01*
X14679543Y-20015904D01*
X14688428Y-20040736D01*
X14694836Y-20066319D01*
X14698706Y-20092408D01*
X14700000Y-20118750D01*
X14700000Y-21081250D01*
X14698706Y-21107592D01*
X14694836Y-21133681D01*
X14688428Y-21159264D01*
X14679543Y-21184096D01*
X14668266Y-21207938D01*
X14654707Y-21230560D01*
X14638997Y-21251743D01*
X14621285Y-21271285D01*
X14601743Y-21288997D01*
X14580560Y-21304707D01*
X14557938Y-21318266D01*
X14534096Y-21329543D01*
X14509264Y-21338428D01*
X14483681Y-21344836D01*
X14457592Y-21348706D01*
X14431250Y-21350000D01*
X13893750Y-21350000D01*
X13867408Y-21348706D01*
X13841319Y-21344836D01*
X13815736Y-21338428D01*
X13790904Y-21329543D01*
X13767062Y-21318266D01*
X13744440Y-21304707D01*
X13723257Y-21288997D01*
X13703715Y-21271285D01*
X13686003Y-21251743D01*
X13670293Y-21230560D01*
X13656734Y-21207938D01*
X13645457Y-21184096D01*
X13636572Y-21159264D01*
X13630164Y-21133681D01*
X13626294Y-21107592D01*
X13625000Y-21081250D01*
X13625000Y-20118750D01*
X13626294Y-20092408D01*
X13630164Y-20066319D01*
X13636572Y-20040736D01*
X13645457Y-20015904D01*
X13656734Y-19992062D01*
X13670293Y-19969440D01*
X13686003Y-19948257D01*
X13703715Y-19928715D01*
X13723257Y-19911003D01*
X13744440Y-19895293D01*
X13767062Y-19881734D01*
X13790904Y-19870457D01*
X13815736Y-19861572D01*
X13841319Y-19855164D01*
X13867408Y-19851294D01*
X13893750Y-19850000D01*
X14431250Y-19850000D01*
X14457592Y-19851294D01*
G37*
G36*
X10905142Y-16601174D02*
G01*
X10928803Y-16604684D01*
X10952007Y-16610496D01*
X10974529Y-16618554D01*
X10996153Y-16628782D01*
X11016670Y-16641079D01*
X11035883Y-16655329D01*
X11053607Y-16671393D01*
X11069671Y-16689117D01*
X11083921Y-16708330D01*
X11096218Y-16728847D01*
X11106446Y-16750471D01*
X11114504Y-16772993D01*
X11120316Y-16796197D01*
X11123826Y-16819858D01*
X11125000Y-16843750D01*
X11125000Y-17331250D01*
X11123826Y-17355142D01*
X11120316Y-17378803D01*
X11114504Y-17402007D01*
X11106446Y-17424529D01*
X11096218Y-17446153D01*
X11083921Y-17466670D01*
X11069671Y-17485883D01*
X11053607Y-17503607D01*
X11035883Y-17519671D01*
X11016670Y-17533921D01*
X10996153Y-17546218D01*
X10974529Y-17556446D01*
X10952007Y-17564504D01*
X10928803Y-17570316D01*
X10905142Y-17573826D01*
X10881250Y-17575000D01*
X10318750Y-17575000D01*
X10294858Y-17573826D01*
X10271197Y-17570316D01*
X10247993Y-17564504D01*
X10225471Y-17556446D01*
X10203847Y-17546218D01*
X10183330Y-17533921D01*
X10164117Y-17519671D01*
X10146393Y-17503607D01*
X10130329Y-17485883D01*
X10116079Y-17466670D01*
X10103782Y-17446153D01*
X10093554Y-17424529D01*
X10085496Y-17402007D01*
X10079684Y-17378803D01*
X10076174Y-17355142D01*
X10075000Y-17331250D01*
X10075000Y-16843750D01*
X10076174Y-16819858D01*
X10079684Y-16796197D01*
X10085496Y-16772993D01*
X10093554Y-16750471D01*
X10103782Y-16728847D01*
X10116079Y-16708330D01*
X10130329Y-16689117D01*
X10146393Y-16671393D01*
X10164117Y-16655329D01*
X10183330Y-16641079D01*
X10203847Y-16628782D01*
X10225471Y-16618554D01*
X10247993Y-16610496D01*
X10271197Y-16604684D01*
X10294858Y-16601174D01*
X10318750Y-16600000D01*
X10881250Y-16600000D01*
X10905142Y-16601174D01*
G37*
G36*
X10905142Y-15026174D02*
G01*
X10928803Y-15029684D01*
X10952007Y-15035496D01*
X10974529Y-15043554D01*
X10996153Y-15053782D01*
X11016670Y-15066079D01*
X11035883Y-15080329D01*
X11053607Y-15096393D01*
X11069671Y-15114117D01*
X11083921Y-15133330D01*
X11096218Y-15153847D01*
X11106446Y-15175471D01*
X11114504Y-15197993D01*
X11120316Y-15221197D01*
X11123826Y-15244858D01*
X11125000Y-15268750D01*
X11125000Y-15756250D01*
X11123826Y-15780142D01*
X11120316Y-15803803D01*
X11114504Y-15827007D01*
X11106446Y-15849529D01*
X11096218Y-15871153D01*
X11083921Y-15891670D01*
X11069671Y-15910883D01*
X11053607Y-15928607D01*
X11035883Y-15944671D01*
X11016670Y-15958921D01*
X10996153Y-15971218D01*
X10974529Y-15981446D01*
X10952007Y-15989504D01*
X10928803Y-15995316D01*
X10905142Y-15998826D01*
X10881250Y-16000000D01*
X10318750Y-16000000D01*
X10294858Y-15998826D01*
X10271197Y-15995316D01*
X10247993Y-15989504D01*
X10225471Y-15981446D01*
X10203847Y-15971218D01*
X10183330Y-15958921D01*
X10164117Y-15944671D01*
X10146393Y-15928607D01*
X10130329Y-15910883D01*
X10116079Y-15891670D01*
X10103782Y-15871153D01*
X10093554Y-15849529D01*
X10085496Y-15827007D01*
X10079684Y-15803803D01*
X10076174Y-15780142D01*
X10075000Y-15756250D01*
X10075000Y-15268750D01*
X10076174Y-15244858D01*
X10079684Y-15221197D01*
X10085496Y-15197993D01*
X10093554Y-15175471D01*
X10103782Y-15153847D01*
X10116079Y-15133330D01*
X10130329Y-15114117D01*
X10146393Y-15096393D01*
X10164117Y-15080329D01*
X10183330Y-15066079D01*
X10203847Y-15053782D01*
X10225471Y-15043554D01*
X10247993Y-15035496D01*
X10271197Y-15029684D01*
X10294858Y-15026174D01*
X10318750Y-15025000D01*
X10881250Y-15025000D01*
X10905142Y-15026174D01*
G37*
G36*
X27007592Y-13901294D02*
G01*
X27033681Y-13905164D01*
X27059264Y-13911572D01*
X27084096Y-13920457D01*
X27107938Y-13931734D01*
X27130560Y-13945293D01*
X27151743Y-13961003D01*
X27171285Y-13978715D01*
X27188997Y-13998257D01*
X27204707Y-14019440D01*
X27218266Y-14042062D01*
X27229543Y-14065904D01*
X27238428Y-14090736D01*
X27244836Y-14116319D01*
X27248706Y-14142408D01*
X27250000Y-14168750D01*
X27250000Y-14706250D01*
X27248706Y-14732592D01*
X27244836Y-14758681D01*
X27238428Y-14784264D01*
X27229543Y-14809096D01*
X27218266Y-14832938D01*
X27204707Y-14855560D01*
X27188997Y-14876743D01*
X27171285Y-14896285D01*
X27151743Y-14913997D01*
X27130560Y-14929707D01*
X27107938Y-14943266D01*
X27084096Y-14954543D01*
X27059264Y-14963428D01*
X27033681Y-14969836D01*
X27007592Y-14973706D01*
X26981250Y-14975000D01*
X26018750Y-14975000D01*
X25992408Y-14973706D01*
X25966319Y-14969836D01*
X25940736Y-14963428D01*
X25915904Y-14954543D01*
X25892062Y-14943266D01*
X25869440Y-14929707D01*
X25848257Y-14913997D01*
X25828715Y-14896285D01*
X25811003Y-14876743D01*
X25795293Y-14855560D01*
X25781734Y-14832938D01*
X25770457Y-14809096D01*
X25761572Y-14784264D01*
X25755164Y-14758681D01*
X25751294Y-14732592D01*
X25750000Y-14706250D01*
X25750000Y-14168750D01*
X25751294Y-14142408D01*
X25755164Y-14116319D01*
X25761572Y-14090736D01*
X25770457Y-14065904D01*
X25781734Y-14042062D01*
X25795293Y-14019440D01*
X25811003Y-13998257D01*
X25828715Y-13978715D01*
X25848257Y-13961003D01*
X25869440Y-13945293D01*
X25892062Y-13931734D01*
X25915904Y-13920457D01*
X25940736Y-13911572D01*
X25966319Y-13905164D01*
X25992408Y-13901294D01*
X26018750Y-13900000D01*
X26981250Y-13900000D01*
X27007592Y-13901294D01*
G37*
G36*
X27007592Y-12026294D02*
G01*
X27033681Y-12030164D01*
X27059264Y-12036572D01*
X27084096Y-12045457D01*
X27107938Y-12056734D01*
X27130560Y-12070293D01*
X27151743Y-12086003D01*
X27171285Y-12103715D01*
X27188997Y-12123257D01*
X27204707Y-12144440D01*
X27218266Y-12167062D01*
X27229543Y-12190904D01*
X27238428Y-12215736D01*
X27244836Y-12241319D01*
X27248706Y-12267408D01*
X27250000Y-12293750D01*
X27250000Y-12831250D01*
X27248706Y-12857592D01*
X27244836Y-12883681D01*
X27238428Y-12909264D01*
X27229543Y-12934096D01*
X27218266Y-12957938D01*
X27204707Y-12980560D01*
X27188997Y-13001743D01*
X27171285Y-13021285D01*
X27151743Y-13038997D01*
X27130560Y-13054707D01*
X27107938Y-13068266D01*
X27084096Y-13079543D01*
X27059264Y-13088428D01*
X27033681Y-13094836D01*
X27007592Y-13098706D01*
X26981250Y-13100000D01*
X26018750Y-13100000D01*
X25992408Y-13098706D01*
X25966319Y-13094836D01*
X25940736Y-13088428D01*
X25915904Y-13079543D01*
X25892062Y-13068266D01*
X25869440Y-13054707D01*
X25848257Y-13038997D01*
X25828715Y-13021285D01*
X25811003Y-13001743D01*
X25795293Y-12980560D01*
X25781734Y-12957938D01*
X25770457Y-12934096D01*
X25761572Y-12909264D01*
X25755164Y-12883681D01*
X25751294Y-12857592D01*
X25750000Y-12831250D01*
X25750000Y-12293750D01*
X25751294Y-12267408D01*
X25755164Y-12241319D01*
X25761572Y-12215736D01*
X25770457Y-12190904D01*
X25781734Y-12167062D01*
X25795293Y-12144440D01*
X25811003Y-12123257D01*
X25828715Y-12103715D01*
X25848257Y-12086003D01*
X25869440Y-12070293D01*
X25892062Y-12056734D01*
X25915904Y-12045457D01*
X25940736Y-12036572D01*
X25966319Y-12030164D01*
X25992408Y-12026294D01*
X26018750Y-12025000D01*
X26981250Y-12025000D01*
X27007592Y-12026294D01*
G37*
G36*
X11555142Y-10576174D02*
G01*
X11578803Y-10579684D01*
X11602007Y-10585496D01*
X11624529Y-10593554D01*
X11646153Y-10603782D01*
X11666670Y-10616079D01*
X11685883Y-10630329D01*
X11703607Y-10646393D01*
X11719671Y-10664117D01*
X11733921Y-10683330D01*
X11746218Y-10703847D01*
X11756446Y-10725471D01*
X11764504Y-10747993D01*
X11770316Y-10771197D01*
X11773826Y-10794858D01*
X11775000Y-10818750D01*
X11775000Y-11381250D01*
X11773826Y-11405142D01*
X11770316Y-11428803D01*
X11764504Y-11452007D01*
X11756446Y-11474529D01*
X11746218Y-11496153D01*
X11733921Y-11516670D01*
X11719671Y-11535883D01*
X11703607Y-11553607D01*
X11685883Y-11569671D01*
X11666670Y-11583921D01*
X11646153Y-11596218D01*
X11624529Y-11606446D01*
X11602007Y-11614504D01*
X11578803Y-11620316D01*
X11555142Y-11623826D01*
X11531250Y-11625000D01*
X11043750Y-11625000D01*
X11019858Y-11623826D01*
X10996197Y-11620316D01*
X10972993Y-11614504D01*
X10950471Y-11606446D01*
X10928847Y-11596218D01*
X10908330Y-11583921D01*
X10889117Y-11569671D01*
X10871393Y-11553607D01*
X10855329Y-11535883D01*
X10841079Y-11516670D01*
X10828782Y-11496153D01*
X10818554Y-11474529D01*
X10810496Y-11452007D01*
X10804684Y-11428803D01*
X10801174Y-11405142D01*
X10800000Y-11381250D01*
X10800000Y-10818750D01*
X10801174Y-10794858D01*
X10804684Y-10771197D01*
X10810496Y-10747993D01*
X10818554Y-10725471D01*
X10828782Y-10703847D01*
X10841079Y-10683330D01*
X10855329Y-10664117D01*
X10871393Y-10646393D01*
X10889117Y-10630329D01*
X10908330Y-10616079D01*
X10928847Y-10603782D01*
X10950471Y-10593554D01*
X10972993Y-10585496D01*
X10996197Y-10579684D01*
X11019858Y-10576174D01*
X11043750Y-10575000D01*
X11531250Y-10575000D01*
X11555142Y-10576174D01*
G37*
G36*
X9980142Y-10576174D02*
G01*
X10003803Y-10579684D01*
X10027007Y-10585496D01*
X10049529Y-10593554D01*
X10071153Y-10603782D01*
X10091670Y-10616079D01*
X10110883Y-10630329D01*
X10128607Y-10646393D01*
X10144671Y-10664117D01*
X10158921Y-10683330D01*
X10171218Y-10703847D01*
X10181446Y-10725471D01*
X10189504Y-10747993D01*
X10195316Y-10771197D01*
X10198826Y-10794858D01*
X10200000Y-10818750D01*
X10200000Y-11381250D01*
X10198826Y-11405142D01*
X10195316Y-11428803D01*
X10189504Y-11452007D01*
X10181446Y-11474529D01*
X10171218Y-11496153D01*
X10158921Y-11516670D01*
X10144671Y-11535883D01*
X10128607Y-11553607D01*
X10110883Y-11569671D01*
X10091670Y-11583921D01*
X10071153Y-11596218D01*
X10049529Y-11606446D01*
X10027007Y-11614504D01*
X10003803Y-11620316D01*
X9980142Y-11623826D01*
X9956250Y-11625000D01*
X9468750Y-11625000D01*
X9444858Y-11623826D01*
X9421197Y-11620316D01*
X9397993Y-11614504D01*
X9375471Y-11606446D01*
X9353847Y-11596218D01*
X9333330Y-11583921D01*
X9314117Y-11569671D01*
X9296393Y-11553607D01*
X9280329Y-11535883D01*
X9266079Y-11516670D01*
X9253782Y-11496153D01*
X9243554Y-11474529D01*
X9235496Y-11452007D01*
X9229684Y-11428803D01*
X9226174Y-11405142D01*
X9225000Y-11381250D01*
X9225000Y-10818750D01*
X9226174Y-10794858D01*
X9229684Y-10771197D01*
X9235496Y-10747993D01*
X9243554Y-10725471D01*
X9253782Y-10703847D01*
X9266079Y-10683330D01*
X9280329Y-10664117D01*
X9296393Y-10646393D01*
X9314117Y-10630329D01*
X9333330Y-10616079D01*
X9353847Y-10603782D01*
X9375471Y-10593554D01*
X9397993Y-10585496D01*
X9421197Y-10579684D01*
X9444858Y-10576174D01*
X9468750Y-10575000D01*
X9956250Y-10575000D01*
X9980142Y-10576174D01*
G37*
G36*
X25107592Y-13901294D02*
G01*
X25133681Y-13905164D01*
X25159264Y-13911572D01*
X25184096Y-13920457D01*
X25207938Y-13931734D01*
X25230560Y-13945293D01*
X25251743Y-13961003D01*
X25271285Y-13978715D01*
X25288997Y-13998257D01*
X25304707Y-14019440D01*
X25318266Y-14042062D01*
X25329543Y-14065904D01*
X25338428Y-14090736D01*
X25344836Y-14116319D01*
X25348706Y-14142408D01*
X25350000Y-14168750D01*
X25350000Y-14706250D01*
X25348706Y-14732592D01*
X25344836Y-14758681D01*
X25338428Y-14784264D01*
X25329543Y-14809096D01*
X25318266Y-14832938D01*
X25304707Y-14855560D01*
X25288997Y-14876743D01*
X25271285Y-14896285D01*
X25251743Y-14913997D01*
X25230560Y-14929707D01*
X25207938Y-14943266D01*
X25184096Y-14954543D01*
X25159264Y-14963428D01*
X25133681Y-14969836D01*
X25107592Y-14973706D01*
X25081250Y-14975000D01*
X24118750Y-14975000D01*
X24092408Y-14973706D01*
X24066319Y-14969836D01*
X24040736Y-14963428D01*
X24015904Y-14954543D01*
X23992062Y-14943266D01*
X23969440Y-14929707D01*
X23948257Y-14913997D01*
X23928715Y-14896285D01*
X23911003Y-14876743D01*
X23895293Y-14855560D01*
X23881734Y-14832938D01*
X23870457Y-14809096D01*
X23861572Y-14784264D01*
X23855164Y-14758681D01*
X23851294Y-14732592D01*
X23850000Y-14706250D01*
X23850000Y-14168750D01*
X23851294Y-14142408D01*
X23855164Y-14116319D01*
X23861572Y-14090736D01*
X23870457Y-14065904D01*
X23881734Y-14042062D01*
X23895293Y-14019440D01*
X23911003Y-13998257D01*
X23928715Y-13978715D01*
X23948257Y-13961003D01*
X23969440Y-13945293D01*
X23992062Y-13931734D01*
X24015904Y-13920457D01*
X24040736Y-13911572D01*
X24066319Y-13905164D01*
X24092408Y-13901294D01*
X24118750Y-13900000D01*
X25081250Y-13900000D01*
X25107592Y-13901294D01*
G37*
G36*
X25107592Y-12026294D02*
G01*
X25133681Y-12030164D01*
X25159264Y-12036572D01*
X25184096Y-12045457D01*
X25207938Y-12056734D01*
X25230560Y-12070293D01*
X25251743Y-12086003D01*
X25271285Y-12103715D01*
X25288997Y-12123257D01*
X25304707Y-12144440D01*
X25318266Y-12167062D01*
X25329543Y-12190904D01*
X25338428Y-12215736D01*
X25344836Y-12241319D01*
X25348706Y-12267408D01*
X25350000Y-12293750D01*
X25350000Y-12831250D01*
X25348706Y-12857592D01*
X25344836Y-12883681D01*
X25338428Y-12909264D01*
X25329543Y-12934096D01*
X25318266Y-12957938D01*
X25304707Y-12980560D01*
X25288997Y-13001743D01*
X25271285Y-13021285D01*
X25251743Y-13038997D01*
X25230560Y-13054707D01*
X25207938Y-13068266D01*
X25184096Y-13079543D01*
X25159264Y-13088428D01*
X25133681Y-13094836D01*
X25107592Y-13098706D01*
X25081250Y-13100000D01*
X24118750Y-13100000D01*
X24092408Y-13098706D01*
X24066319Y-13094836D01*
X24040736Y-13088428D01*
X24015904Y-13079543D01*
X23992062Y-13068266D01*
X23969440Y-13054707D01*
X23948257Y-13038997D01*
X23928715Y-13021285D01*
X23911003Y-13001743D01*
X23895293Y-12980560D01*
X23881734Y-12957938D01*
X23870457Y-12934096D01*
X23861572Y-12909264D01*
X23855164Y-12883681D01*
X23851294Y-12857592D01*
X23850000Y-12831250D01*
X23850000Y-12293750D01*
X23851294Y-12267408D01*
X23855164Y-12241319D01*
X23861572Y-12215736D01*
X23870457Y-12190904D01*
X23881734Y-12167062D01*
X23895293Y-12144440D01*
X23911003Y-12123257D01*
X23928715Y-12103715D01*
X23948257Y-12086003D01*
X23969440Y-12070293D01*
X23992062Y-12056734D01*
X24015904Y-12045457D01*
X24040736Y-12036572D01*
X24066319Y-12030164D01*
X24092408Y-12026294D01*
X24118750Y-12025000D01*
X25081250Y-12025000D01*
X25107592Y-12026294D01*
G37*
G36*
X13032592Y-13051294D02*
G01*
X13058681Y-13055164D01*
X13084264Y-13061572D01*
X13109096Y-13070457D01*
X13132938Y-13081734D01*
X13155560Y-13095293D01*
X13176743Y-13111003D01*
X13196285Y-13128715D01*
X13213997Y-13148257D01*
X13229707Y-13169440D01*
X13243266Y-13192062D01*
X13254543Y-13215904D01*
X13263428Y-13240736D01*
X13269836Y-13266319D01*
X13273706Y-13292408D01*
X13275000Y-13318750D01*
X13275000Y-14281250D01*
X13273706Y-14307592D01*
X13269836Y-14333681D01*
X13263428Y-14359264D01*
X13254543Y-14384096D01*
X13243266Y-14407938D01*
X13229707Y-14430560D01*
X13213997Y-14451743D01*
X13196285Y-14471285D01*
X13176743Y-14488997D01*
X13155560Y-14504707D01*
X13132938Y-14518266D01*
X13109096Y-14529543D01*
X13084264Y-14538428D01*
X13058681Y-14544836D01*
X13032592Y-14548706D01*
X13006250Y-14550000D01*
X12468750Y-14550000D01*
X12442408Y-14548706D01*
X12416319Y-14544836D01*
X12390736Y-14538428D01*
X12365904Y-14529543D01*
X12342062Y-14518266D01*
X12319440Y-14504707D01*
X12298257Y-14488997D01*
X12278715Y-14471285D01*
X12261003Y-14451743D01*
X12245293Y-14430560D01*
X12231734Y-14407938D01*
X12220457Y-14384096D01*
X12211572Y-14359264D01*
X12205164Y-14333681D01*
X12201294Y-14307592D01*
X12200000Y-14281250D01*
X12200000Y-13318750D01*
X12201294Y-13292408D01*
X12205164Y-13266319D01*
X12211572Y-13240736D01*
X12220457Y-13215904D01*
X12231734Y-13192062D01*
X12245293Y-13169440D01*
X12261003Y-13148257D01*
X12278715Y-13128715D01*
X12298257Y-13111003D01*
X12319440Y-13095293D01*
X12342062Y-13081734D01*
X12365904Y-13070457D01*
X12390736Y-13061572D01*
X12416319Y-13055164D01*
X12442408Y-13051294D01*
X12468750Y-13050000D01*
X13006250Y-13050000D01*
X13032592Y-13051294D01*
G37*
G36*
X11157592Y-13051294D02*
G01*
X11183681Y-13055164D01*
X11209264Y-13061572D01*
X11234096Y-13070457D01*
X11257938Y-13081734D01*
X11280560Y-13095293D01*
X11301743Y-13111003D01*
X11321285Y-13128715D01*
X11338997Y-13148257D01*
X11354707Y-13169440D01*
X11368266Y-13192062D01*
X11379543Y-13215904D01*
X11388428Y-13240736D01*
X11394836Y-13266319D01*
X11398706Y-13292408D01*
X11400000Y-13318750D01*
X11400000Y-14281250D01*
X11398706Y-14307592D01*
X11394836Y-14333681D01*
X11388428Y-14359264D01*
X11379543Y-14384096D01*
X11368266Y-14407938D01*
X11354707Y-14430560D01*
X11338997Y-14451743D01*
X11321285Y-14471285D01*
X11301743Y-14488997D01*
X11280560Y-14504707D01*
X11257938Y-14518266D01*
X11234096Y-14529543D01*
X11209264Y-14538428D01*
X11183681Y-14544836D01*
X11157592Y-14548706D01*
X11131250Y-14550000D01*
X10593750Y-14550000D01*
X10567408Y-14548706D01*
X10541319Y-14544836D01*
X10515736Y-14538428D01*
X10490904Y-14529543D01*
X10467062Y-14518266D01*
X10444440Y-14504707D01*
X10423257Y-14488997D01*
X10403715Y-14471285D01*
X10386003Y-14451743D01*
X10370293Y-14430560D01*
X10356734Y-14407938D01*
X10345457Y-14384096D01*
X10336572Y-14359264D01*
X10330164Y-14333681D01*
X10326294Y-14307592D01*
X10325000Y-14281250D01*
X10325000Y-13318750D01*
X10326294Y-13292408D01*
X10330164Y-13266319D01*
X10336572Y-13240736D01*
X10345457Y-13215904D01*
X10356734Y-13192062D01*
X10370293Y-13169440D01*
X10386003Y-13148257D01*
X10403715Y-13128715D01*
X10423257Y-13111003D01*
X10444440Y-13095293D01*
X10467062Y-13081734D01*
X10490904Y-13070457D01*
X10515736Y-13061572D01*
X10541319Y-13055164D01*
X10567408Y-13051294D01*
X10593750Y-13050000D01*
X11131250Y-13050000D01*
X11157592Y-13051294D01*
G37*
M02*
