G04 #@! TF.GenerationSoftware,KiCad,Pcbnew,5.1.9-73d0e3b20d~88~ubuntu20.04.1*
G04 #@! TF.CreationDate,2021-05-11T15:43:56+03:00*
G04 #@! TF.ProjectId,differential-tweezer,64696666-6572-4656-9e74-69616c2d7477,rev?*
G04 #@! TF.SameCoordinates,Original*
G04 #@! TF.FileFunction,Copper,L3,Inr*
G04 #@! TF.FilePolarity,Positive*
%FSLAX46Y46*%
G04 Gerber Fmt 4.6, Leading zero omitted, Abs format (unit mm)*
G04 Created by KiCad (PCBNEW 5.1.9-73d0e3b20d~88~ubuntu20.04.1) date 2021-05-11 15:43:56*
%MOMM*%
%LPD*%
G01*
G04 APERTURE LIST*
G04 #@! TA.AperFunction,ComponentPad*
%ADD10C,4.200000*%
G04 #@! TD*
G04 #@! TA.AperFunction,ComponentPad*
%ADD11C,0.600000*%
G04 #@! TD*
G04 #@! TA.AperFunction,ViaPad*
%ADD12C,0.600000*%
G04 #@! TD*
G04 #@! TA.AperFunction,Conductor*
%ADD13C,0.200000*%
G04 #@! TD*
G04 #@! TA.AperFunction,Conductor*
%ADD14C,0.350000*%
G04 #@! TD*
%ADD15C,0.300000*%
%ADD16C,0.350000*%
%ADD17C,0.250000*%
G04 APERTURE END LIST*
D10*
G04 #@! TO.N,GND*
G04 #@! TO.C,H1*
X19400000Y-34700000D03*
G04 #@! TD*
D11*
G04 #@! TO.N,/IN-*
G04 #@! TO.C,J6*
X2718804Y-13791327D03*
X3349383Y-13223551D03*
X2750206Y-13192150D03*
G04 #@! TD*
G04 #@! TO.N,GND*
G04 #@! TO.C,J5*
X2868804Y-11141327D03*
X3499383Y-10573551D03*
X2900206Y-10542150D03*
G04 #@! TD*
G04 #@! TO.N,GND*
G04 #@! TO.C,J4*
X25099794Y-10542150D03*
X24500617Y-10573551D03*
X25131196Y-11141327D03*
G04 #@! TD*
G04 #@! TO.N,/IN+*
G04 #@! TO.C,J3*
X25249794Y-13192150D03*
X24650617Y-13223551D03*
X25281196Y-13791327D03*
G04 #@! TD*
G04 #@! TO.N,GND*
G04 #@! TO.C,J1*
X15200000Y-24200000D03*
X15200000Y-26300000D03*
X13000000Y-26300000D03*
X13000000Y-24200000D03*
X13000000Y-28400000D03*
X15200000Y-28400000D03*
G04 #@! TO.N,+5V*
X15700000Y-31200000D03*
X15700000Y-33300000D03*
X15700000Y-35400000D03*
X12500000Y-31200000D03*
X12500000Y-33300000D03*
X12500000Y-35400000D03*
G04 #@! TD*
G04 #@! TO.N,-6V*
G04 #@! TO.C,U4*
X20350000Y-27600000D03*
X21350000Y-27600000D03*
X20350000Y-29100000D03*
X21350000Y-29100000D03*
X20850000Y-28350000D03*
G04 #@! TD*
G04 #@! TO.N,-6V*
G04 #@! TO.C,U3*
X6450000Y-6650000D03*
X6450000Y-7650000D03*
X4950000Y-6650000D03*
X4950000Y-7650000D03*
X5700000Y-7150000D03*
G04 #@! TD*
G04 #@! TO.N,-6V*
G04 #@! TO.C,U2*
X21650000Y-6700000D03*
X21650000Y-7700000D03*
X20150000Y-6700000D03*
X20150000Y-7700000D03*
X20900000Y-7200000D03*
G04 #@! TD*
D12*
G04 #@! TO.N,GND*
X17500000Y-2000000D03*
X10500000Y-1900000D03*
X9600000Y-34400000D03*
X8300000Y-28700000D03*
X8300000Y-29500000D03*
X5900000Y-29500000D03*
X5900000Y-28700000D03*
X7100000Y-28700000D03*
X7100000Y-29500000D03*
X7100000Y-25000000D03*
X7100000Y-23400000D03*
X7100000Y-20500000D03*
X25600000Y-26400000D03*
X18700000Y-30900000D03*
X5100000Y-18500000D03*
X6600000Y-1600000D03*
X20300000Y-2875000D03*
X23500000Y-5700000D03*
X21700000Y-19400000D03*
X5300000Y-33000000D03*
X25000000Y-36250000D03*
X21750000Y-36400000D03*
X22200000Y-31900000D03*
X19200000Y-22800000D03*
G04 #@! TO.N,Net-(C19-Pad2)*
X23222845Y-29687541D03*
X15500000Y-4800000D03*
G04 #@! TO.N,Net-(C6-Pad1)*
X8643750Y-24956250D03*
X11000000Y-31200000D03*
G04 #@! TO.N,+6V*
X17976915Y-28223085D03*
X6000000Y-3500000D03*
X20431250Y-4868750D03*
X21500000Y-22800000D03*
X11600000Y-20500000D03*
G04 #@! TO.N,-6V*
X5500000Y-20500000D03*
X21500000Y-21500000D03*
G04 #@! TO.N,Net-(R18-Pad2)*
X24600000Y-29300000D03*
X16600000Y-4800000D03*
G04 #@! TO.N,Net-(C26-Pad1)*
X5200000Y-27125000D03*
X9100000Y-31300000D03*
X5000000Y-31000034D03*
G04 #@! TO.N,+5V*
X24887502Y-34787500D03*
G04 #@! TD*
D13*
G04 #@! TO.N,+6V*
X21333689Y-329861D02*
X21366090Y-339644D01*
X21395982Y-355537D01*
X21434178Y-386690D01*
X24912503Y-3865016D01*
X24944127Y-3903516D01*
X24960123Y-3933348D01*
X24970019Y-3965717D01*
X24975644Y-4021095D01*
X25266513Y-9963558D01*
X25158889Y-9942150D01*
X25040699Y-9942150D01*
X24924780Y-9965208D01*
X24815587Y-10010437D01*
X24774804Y-10037688D01*
X24675631Y-9996609D01*
X24559712Y-9973551D01*
X24441522Y-9973551D01*
X24325603Y-9996609D01*
X24216410Y-10041838D01*
X24118139Y-10107501D01*
X24034567Y-10191073D01*
X23968904Y-10289344D01*
X23923675Y-10398537D01*
X23900617Y-10514456D01*
X23900617Y-10632646D01*
X23923675Y-10748565D01*
X23968904Y-10857758D01*
X24034567Y-10956029D01*
X24118139Y-11039601D01*
X24216410Y-11105264D01*
X24325603Y-11150493D01*
X24441522Y-11173551D01*
X24531196Y-11173551D01*
X24531196Y-11200422D01*
X24554254Y-11316341D01*
X24599483Y-11425534D01*
X24665146Y-11523805D01*
X24748718Y-11607377D01*
X24846989Y-11673040D01*
X24956182Y-11718269D01*
X25072101Y-11741327D01*
X25190291Y-11741327D01*
X25306210Y-11718269D01*
X25351484Y-11699516D01*
X25361297Y-11900000D01*
X21041422Y-11900000D01*
X17600000Y-8458578D01*
X17600000Y-6640905D01*
X19550000Y-6640905D01*
X19550000Y-6759095D01*
X19573058Y-6875014D01*
X19618287Y-6984207D01*
X19683950Y-7082478D01*
X19767522Y-7166050D01*
X19818331Y-7200000D01*
X19767522Y-7233950D01*
X19683950Y-7317522D01*
X19618287Y-7415793D01*
X19573058Y-7524986D01*
X19550000Y-7640905D01*
X19550000Y-7759095D01*
X19573058Y-7875014D01*
X19618287Y-7984207D01*
X19683950Y-8082478D01*
X19767522Y-8166050D01*
X19865793Y-8231713D01*
X19974986Y-8276942D01*
X20090905Y-8300000D01*
X20209095Y-8300000D01*
X20325014Y-8276942D01*
X20434207Y-8231713D01*
X20532478Y-8166050D01*
X20616050Y-8082478D01*
X20681713Y-7984207D01*
X20726942Y-7875014D01*
X20745633Y-7781049D01*
X20840905Y-7800000D01*
X20959095Y-7800000D01*
X21054367Y-7781049D01*
X21073058Y-7875014D01*
X21118287Y-7984207D01*
X21183950Y-8082478D01*
X21267522Y-8166050D01*
X21365793Y-8231713D01*
X21474986Y-8276942D01*
X21590905Y-8300000D01*
X21709095Y-8300000D01*
X21825014Y-8276942D01*
X21934207Y-8231713D01*
X22032478Y-8166050D01*
X22116050Y-8082478D01*
X22181713Y-7984207D01*
X22226942Y-7875014D01*
X22250000Y-7759095D01*
X22250000Y-7640905D01*
X22226942Y-7524986D01*
X22181713Y-7415793D01*
X22116050Y-7317522D01*
X22032478Y-7233950D01*
X21981669Y-7200000D01*
X22032478Y-7166050D01*
X22116050Y-7082478D01*
X22181713Y-6984207D01*
X22226942Y-6875014D01*
X22250000Y-6759095D01*
X22250000Y-6640905D01*
X22226942Y-6524986D01*
X22181713Y-6415793D01*
X22116050Y-6317522D01*
X22032478Y-6233950D01*
X21934207Y-6168287D01*
X21825014Y-6123058D01*
X21709095Y-6100000D01*
X21590905Y-6100000D01*
X21474986Y-6123058D01*
X21365793Y-6168287D01*
X21267522Y-6233950D01*
X21183950Y-6317522D01*
X21118287Y-6415793D01*
X21073058Y-6524986D01*
X21054367Y-6618951D01*
X20959095Y-6600000D01*
X20840905Y-6600000D01*
X20745633Y-6618951D01*
X20726942Y-6524986D01*
X20681713Y-6415793D01*
X20616050Y-6317522D01*
X20532478Y-6233950D01*
X20434207Y-6168287D01*
X20325014Y-6123058D01*
X20209095Y-6100000D01*
X20090905Y-6100000D01*
X19974986Y-6123058D01*
X19865793Y-6168287D01*
X19767522Y-6233950D01*
X19683950Y-6317522D01*
X19618287Y-6415793D01*
X19573058Y-6524986D01*
X19550000Y-6640905D01*
X17600000Y-6640905D01*
X17600000Y-5640905D01*
X22900000Y-5640905D01*
X22900000Y-5759095D01*
X22923058Y-5875014D01*
X22968287Y-5984207D01*
X23033950Y-6082478D01*
X23117522Y-6166050D01*
X23215793Y-6231713D01*
X23324986Y-6276942D01*
X23440905Y-6300000D01*
X23559095Y-6300000D01*
X23675014Y-6276942D01*
X23784207Y-6231713D01*
X23882478Y-6166050D01*
X23966050Y-6082478D01*
X24031713Y-5984207D01*
X24076942Y-5875014D01*
X24100000Y-5759095D01*
X24100000Y-5640905D01*
X24076942Y-5524986D01*
X24031713Y-5415793D01*
X23966050Y-5317522D01*
X23882478Y-5233950D01*
X23784207Y-5168287D01*
X23675014Y-5123058D01*
X23559095Y-5100000D01*
X23440905Y-5100000D01*
X23324986Y-5123058D01*
X23215793Y-5168287D01*
X23117522Y-5233950D01*
X23033950Y-5317522D01*
X22968287Y-5415793D01*
X22923058Y-5524986D01*
X22900000Y-5640905D01*
X17600000Y-5640905D01*
X17600000Y-4500000D01*
X17598079Y-4480491D01*
X17592388Y-4461732D01*
X17583147Y-4444443D01*
X17570711Y-4429289D01*
X17070711Y-3929289D01*
X17055557Y-3916853D01*
X17038268Y-3907612D01*
X17019509Y-3901921D01*
X17000000Y-3900000D01*
X15000000Y-3900000D01*
X14980491Y-3901921D01*
X14961732Y-3907612D01*
X14944443Y-3916853D01*
X14929289Y-3929289D01*
X14429289Y-4429289D01*
X14416853Y-4444443D01*
X14407612Y-4461732D01*
X14401921Y-4480491D01*
X14400000Y-4500000D01*
X14400000Y-8379173D01*
X14306274Y-8340350D01*
X14103416Y-8300000D01*
X13896584Y-8300000D01*
X13693726Y-8340350D01*
X13502638Y-8419502D01*
X13330664Y-8534411D01*
X13184411Y-8680664D01*
X13069502Y-8852638D01*
X12990350Y-9043726D01*
X12950000Y-9246584D01*
X12950000Y-9453416D01*
X12990350Y-9656274D01*
X13069502Y-9847362D01*
X13184411Y-10019336D01*
X13330664Y-10165589D01*
X13502638Y-10280498D01*
X13693726Y-10359650D01*
X13896584Y-10400000D01*
X14103416Y-10400000D01*
X14306274Y-10359650D01*
X14497362Y-10280498D01*
X14582313Y-10223735D01*
X22400000Y-18041422D01*
X22400000Y-30000000D01*
X22401921Y-30019509D01*
X22407612Y-30038268D01*
X22416853Y-30055557D01*
X22429289Y-30070711D01*
X22929289Y-30570711D01*
X22944443Y-30583147D01*
X22961732Y-30592388D01*
X22980491Y-30598079D01*
X23000000Y-30600000D01*
X26276618Y-30600000D01*
X26472559Y-34603087D01*
X26450137Y-35002386D01*
X26354262Y-35375413D01*
X26187761Y-35722709D01*
X25956971Y-36031055D01*
X25670689Y-36288697D01*
X25595099Y-36333733D01*
X25600000Y-36309095D01*
X25600000Y-36190905D01*
X25576942Y-36074986D01*
X25531713Y-35965793D01*
X25466050Y-35867522D01*
X25382478Y-35783950D01*
X25284207Y-35718287D01*
X25175014Y-35673058D01*
X25059095Y-35650000D01*
X24940905Y-35650000D01*
X24824986Y-35673058D01*
X24715793Y-35718287D01*
X24617522Y-35783950D01*
X24533950Y-35867522D01*
X24468287Y-35965793D01*
X24423058Y-36074986D01*
X24400000Y-36190905D01*
X24400000Y-36309095D01*
X24423058Y-36425014D01*
X24468287Y-36534207D01*
X24533950Y-36632478D01*
X24574563Y-36673091D01*
X24496049Y-36675000D01*
X22285527Y-36675000D01*
X22326942Y-36575014D01*
X22350000Y-36459095D01*
X22350000Y-36340905D01*
X22326942Y-36224986D01*
X22281713Y-36115793D01*
X22216050Y-36017522D01*
X22132478Y-35933950D01*
X22034207Y-35868287D01*
X21925014Y-35823058D01*
X21809095Y-35800000D01*
X21690905Y-35800000D01*
X21574986Y-35823058D01*
X21521153Y-35845356D01*
X21526853Y-35836826D01*
X21707770Y-35400054D01*
X21800000Y-34936379D01*
X21800000Y-34728405D01*
X24287502Y-34728405D01*
X24287502Y-34846595D01*
X24310560Y-34962514D01*
X24355789Y-35071707D01*
X24421452Y-35169978D01*
X24505024Y-35253550D01*
X24603295Y-35319213D01*
X24712488Y-35364442D01*
X24828407Y-35387500D01*
X24946597Y-35387500D01*
X25062516Y-35364442D01*
X25171709Y-35319213D01*
X25269980Y-35253550D01*
X25353552Y-35169978D01*
X25419215Y-35071707D01*
X25464444Y-34962514D01*
X25487502Y-34846595D01*
X25487502Y-34728405D01*
X25464444Y-34612486D01*
X25419215Y-34503293D01*
X25353552Y-34405022D01*
X25269980Y-34321450D01*
X25171709Y-34255787D01*
X25062516Y-34210558D01*
X24946597Y-34187500D01*
X24828407Y-34187500D01*
X24712488Y-34210558D01*
X24603295Y-34255787D01*
X24505024Y-34321450D01*
X24421452Y-34405022D01*
X24355789Y-34503293D01*
X24310560Y-34612486D01*
X24287502Y-34728405D01*
X21800000Y-34728405D01*
X21800000Y-34463621D01*
X21707770Y-33999946D01*
X21526853Y-33563174D01*
X21264202Y-33170089D01*
X20929911Y-32835798D01*
X20536826Y-32573147D01*
X20100054Y-32392230D01*
X19636379Y-32300000D01*
X19163621Y-32300000D01*
X18699946Y-32392230D01*
X18263174Y-32573147D01*
X17870089Y-32835798D01*
X17535798Y-33170089D01*
X17273147Y-33563174D01*
X17092230Y-33999946D01*
X17000000Y-34463621D01*
X17000000Y-34936379D01*
X17092230Y-35400054D01*
X17273147Y-35836826D01*
X17535798Y-36229911D01*
X17870089Y-36564202D01*
X18035910Y-36675000D01*
X3515896Y-36675000D01*
X3116690Y-36635858D01*
X2747981Y-36524538D01*
X2407913Y-36343721D01*
X2109445Y-36100297D01*
X1863945Y-35803538D01*
X1680758Y-35464740D01*
X1642425Y-35340905D01*
X11900000Y-35340905D01*
X11900000Y-35459095D01*
X11923058Y-35575014D01*
X11968287Y-35684207D01*
X12033950Y-35782478D01*
X12117522Y-35866050D01*
X12215793Y-35931713D01*
X12324986Y-35976942D01*
X12440905Y-36000000D01*
X12559095Y-36000000D01*
X12675014Y-35976942D01*
X12784207Y-35931713D01*
X12882478Y-35866050D01*
X12966050Y-35782478D01*
X13031713Y-35684207D01*
X13076942Y-35575014D01*
X13100000Y-35459095D01*
X13100000Y-35340905D01*
X15100000Y-35340905D01*
X15100000Y-35459095D01*
X15123058Y-35575014D01*
X15168287Y-35684207D01*
X15233950Y-35782478D01*
X15317522Y-35866050D01*
X15415793Y-35931713D01*
X15524986Y-35976942D01*
X15640905Y-36000000D01*
X15759095Y-36000000D01*
X15875014Y-35976942D01*
X15984207Y-35931713D01*
X16082478Y-35866050D01*
X16166050Y-35782478D01*
X16231713Y-35684207D01*
X16276942Y-35575014D01*
X16300000Y-35459095D01*
X16300000Y-35340905D01*
X16276942Y-35224986D01*
X16231713Y-35115793D01*
X16166050Y-35017522D01*
X16082478Y-34933950D01*
X15984207Y-34868287D01*
X15875014Y-34823058D01*
X15759095Y-34800000D01*
X15640905Y-34800000D01*
X15524986Y-34823058D01*
X15415793Y-34868287D01*
X15317522Y-34933950D01*
X15233950Y-35017522D01*
X15168287Y-35115793D01*
X15123058Y-35224986D01*
X15100000Y-35340905D01*
X13100000Y-35340905D01*
X13076942Y-35224986D01*
X13031713Y-35115793D01*
X12966050Y-35017522D01*
X12882478Y-34933950D01*
X12784207Y-34868287D01*
X12675014Y-34823058D01*
X12559095Y-34800000D01*
X12440905Y-34800000D01*
X12324986Y-34823058D01*
X12215793Y-34868287D01*
X12117522Y-34933950D01*
X12033950Y-35017522D01*
X11968287Y-35115793D01*
X11923058Y-35224986D01*
X11900000Y-35340905D01*
X1642425Y-35340905D01*
X1566866Y-35096819D01*
X1525351Y-34701830D01*
X1526856Y-34615017D01*
X1540272Y-34340905D01*
X9000000Y-34340905D01*
X9000000Y-34459095D01*
X9023058Y-34575014D01*
X9068287Y-34684207D01*
X9133950Y-34782478D01*
X9217522Y-34866050D01*
X9315793Y-34931713D01*
X9424986Y-34976942D01*
X9540905Y-35000000D01*
X9659095Y-35000000D01*
X9775014Y-34976942D01*
X9884207Y-34931713D01*
X9982478Y-34866050D01*
X10066050Y-34782478D01*
X10131713Y-34684207D01*
X10176942Y-34575014D01*
X10200000Y-34459095D01*
X10200000Y-34340905D01*
X10176942Y-34224986D01*
X10131713Y-34115793D01*
X10066050Y-34017522D01*
X9982478Y-33933950D01*
X9884207Y-33868287D01*
X9775014Y-33823058D01*
X9659095Y-33800000D01*
X9540905Y-33800000D01*
X9424986Y-33823058D01*
X9315793Y-33868287D01*
X9217522Y-33933950D01*
X9133950Y-34017522D01*
X9068287Y-34115793D01*
X9023058Y-34224986D01*
X9000000Y-34340905D01*
X1540272Y-34340905D01*
X1608799Y-32940905D01*
X4700000Y-32940905D01*
X4700000Y-33059095D01*
X4723058Y-33175014D01*
X4768287Y-33284207D01*
X4833950Y-33382478D01*
X4917522Y-33466050D01*
X5015793Y-33531713D01*
X5124986Y-33576942D01*
X5240905Y-33600000D01*
X5359095Y-33600000D01*
X5475014Y-33576942D01*
X5584207Y-33531713D01*
X5682478Y-33466050D01*
X5766050Y-33382478D01*
X5831713Y-33284207D01*
X5849649Y-33240905D01*
X11900000Y-33240905D01*
X11900000Y-33359095D01*
X11923058Y-33475014D01*
X11968287Y-33584207D01*
X12033950Y-33682478D01*
X12117522Y-33766050D01*
X12215793Y-33831713D01*
X12324986Y-33876942D01*
X12440905Y-33900000D01*
X12559095Y-33900000D01*
X12675014Y-33876942D01*
X12784207Y-33831713D01*
X12882478Y-33766050D01*
X12966050Y-33682478D01*
X13031713Y-33584207D01*
X13076942Y-33475014D01*
X13100000Y-33359095D01*
X13100000Y-33240905D01*
X15100000Y-33240905D01*
X15100000Y-33359095D01*
X15123058Y-33475014D01*
X15168287Y-33584207D01*
X15233950Y-33682478D01*
X15317522Y-33766050D01*
X15415793Y-33831713D01*
X15524986Y-33876942D01*
X15640905Y-33900000D01*
X15759095Y-33900000D01*
X15875014Y-33876942D01*
X15984207Y-33831713D01*
X16082478Y-33766050D01*
X16166050Y-33682478D01*
X16231713Y-33584207D01*
X16276942Y-33475014D01*
X16300000Y-33359095D01*
X16300000Y-33240905D01*
X16276942Y-33124986D01*
X16231713Y-33015793D01*
X16166050Y-32917522D01*
X16082478Y-32833950D01*
X15984207Y-32768287D01*
X15875014Y-32723058D01*
X15759095Y-32700000D01*
X15640905Y-32700000D01*
X15524986Y-32723058D01*
X15415793Y-32768287D01*
X15317522Y-32833950D01*
X15233950Y-32917522D01*
X15168287Y-33015793D01*
X15123058Y-33124986D01*
X15100000Y-33240905D01*
X13100000Y-33240905D01*
X13076942Y-33124986D01*
X13031713Y-33015793D01*
X12966050Y-32917522D01*
X12882478Y-32833950D01*
X12784207Y-32768287D01*
X12675014Y-32723058D01*
X12559095Y-32700000D01*
X12440905Y-32700000D01*
X12324986Y-32723058D01*
X12215793Y-32768287D01*
X12117522Y-32833950D01*
X12033950Y-32917522D01*
X11968287Y-33015793D01*
X11923058Y-33124986D01*
X11900000Y-33240905D01*
X5849649Y-33240905D01*
X5876942Y-33175014D01*
X5900000Y-33059095D01*
X5900000Y-32940905D01*
X5876942Y-32824986D01*
X5831713Y-32715793D01*
X5766050Y-32617522D01*
X5682478Y-32533950D01*
X5584207Y-32468287D01*
X5475014Y-32423058D01*
X5359095Y-32400000D01*
X5240905Y-32400000D01*
X5124986Y-32423058D01*
X5015793Y-32468287D01*
X4917522Y-32533950D01*
X4833950Y-32617522D01*
X4768287Y-32715793D01*
X4723058Y-32824986D01*
X4700000Y-32940905D01*
X1608799Y-32940905D01*
X1706693Y-30940939D01*
X4400000Y-30940939D01*
X4400000Y-31059129D01*
X4423058Y-31175048D01*
X4468287Y-31284241D01*
X4533950Y-31382512D01*
X4617522Y-31466084D01*
X4715793Y-31531747D01*
X4824986Y-31576976D01*
X4940905Y-31600034D01*
X5059095Y-31600034D01*
X5175014Y-31576976D01*
X5284207Y-31531747D01*
X5382478Y-31466084D01*
X5466050Y-31382512D01*
X5531713Y-31284241D01*
X5549663Y-31240905D01*
X8500000Y-31240905D01*
X8500000Y-31359095D01*
X8523058Y-31475014D01*
X8568287Y-31584207D01*
X8633950Y-31682478D01*
X8717522Y-31766050D01*
X8815793Y-31831713D01*
X8924986Y-31876942D01*
X9040905Y-31900000D01*
X9159095Y-31900000D01*
X9275014Y-31876942D01*
X9362015Y-31840905D01*
X21600000Y-31840905D01*
X21600000Y-31959095D01*
X21623058Y-32075014D01*
X21668287Y-32184207D01*
X21733950Y-32282478D01*
X21817522Y-32366050D01*
X21915793Y-32431713D01*
X22024986Y-32476942D01*
X22140905Y-32500000D01*
X22259095Y-32500000D01*
X22375014Y-32476942D01*
X22484207Y-32431713D01*
X22582478Y-32366050D01*
X22666050Y-32282478D01*
X22731713Y-32184207D01*
X22776942Y-32075014D01*
X22800000Y-31959095D01*
X22800000Y-31840905D01*
X22776942Y-31724986D01*
X22731713Y-31615793D01*
X22666050Y-31517522D01*
X22582478Y-31433950D01*
X22484207Y-31368287D01*
X22375014Y-31323058D01*
X22259095Y-31300000D01*
X22140905Y-31300000D01*
X22024986Y-31323058D01*
X21915793Y-31368287D01*
X21817522Y-31433950D01*
X21733950Y-31517522D01*
X21668287Y-31615793D01*
X21623058Y-31724986D01*
X21600000Y-31840905D01*
X9362015Y-31840905D01*
X9384207Y-31831713D01*
X9482478Y-31766050D01*
X9566050Y-31682478D01*
X9631713Y-31584207D01*
X9676942Y-31475014D01*
X9700000Y-31359095D01*
X9700000Y-31240905D01*
X9680109Y-31140905D01*
X10400000Y-31140905D01*
X10400000Y-31259095D01*
X10423058Y-31375014D01*
X10468287Y-31484207D01*
X10533950Y-31582478D01*
X10617522Y-31666050D01*
X10715793Y-31731713D01*
X10824986Y-31776942D01*
X10940905Y-31800000D01*
X11059095Y-31800000D01*
X11175014Y-31776942D01*
X11284207Y-31731713D01*
X11382478Y-31666050D01*
X11466050Y-31582478D01*
X11531713Y-31484207D01*
X11576942Y-31375014D01*
X11600000Y-31259095D01*
X11600000Y-31140905D01*
X11900000Y-31140905D01*
X11900000Y-31259095D01*
X11923058Y-31375014D01*
X11968287Y-31484207D01*
X12033950Y-31582478D01*
X12117522Y-31666050D01*
X12215793Y-31731713D01*
X12324986Y-31776942D01*
X12440905Y-31800000D01*
X12559095Y-31800000D01*
X12675014Y-31776942D01*
X12784207Y-31731713D01*
X12882478Y-31666050D01*
X12966050Y-31582478D01*
X13031713Y-31484207D01*
X13076942Y-31375014D01*
X13100000Y-31259095D01*
X13100000Y-31140905D01*
X15100000Y-31140905D01*
X15100000Y-31259095D01*
X15123058Y-31375014D01*
X15168287Y-31484207D01*
X15233950Y-31582478D01*
X15317522Y-31666050D01*
X15415793Y-31731713D01*
X15524986Y-31776942D01*
X15640905Y-31800000D01*
X15759095Y-31800000D01*
X15875014Y-31776942D01*
X15984207Y-31731713D01*
X16082478Y-31666050D01*
X16166050Y-31582478D01*
X16231713Y-31484207D01*
X16276942Y-31375014D01*
X16300000Y-31259095D01*
X16300000Y-31140905D01*
X16276942Y-31024986D01*
X16231713Y-30915793D01*
X16181675Y-30840905D01*
X18100000Y-30840905D01*
X18100000Y-30959095D01*
X18123058Y-31075014D01*
X18168287Y-31184207D01*
X18233950Y-31282478D01*
X18317522Y-31366050D01*
X18415793Y-31431713D01*
X18524986Y-31476942D01*
X18640905Y-31500000D01*
X18759095Y-31500000D01*
X18875014Y-31476942D01*
X18984207Y-31431713D01*
X19082478Y-31366050D01*
X19166050Y-31282478D01*
X19231713Y-31184207D01*
X19276942Y-31075014D01*
X19300000Y-30959095D01*
X19300000Y-30840905D01*
X19276942Y-30724986D01*
X19231713Y-30615793D01*
X19166050Y-30517522D01*
X19082478Y-30433950D01*
X18984207Y-30368287D01*
X18875014Y-30323058D01*
X18759095Y-30300000D01*
X18640905Y-30300000D01*
X18524986Y-30323058D01*
X18415793Y-30368287D01*
X18317522Y-30433950D01*
X18233950Y-30517522D01*
X18168287Y-30615793D01*
X18123058Y-30724986D01*
X18100000Y-30840905D01*
X16181675Y-30840905D01*
X16166050Y-30817522D01*
X16082478Y-30733950D01*
X15984207Y-30668287D01*
X15875014Y-30623058D01*
X15759095Y-30600000D01*
X15640905Y-30600000D01*
X15524986Y-30623058D01*
X15415793Y-30668287D01*
X15317522Y-30733950D01*
X15233950Y-30817522D01*
X15168287Y-30915793D01*
X15123058Y-31024986D01*
X15100000Y-31140905D01*
X13100000Y-31140905D01*
X13076942Y-31024986D01*
X13031713Y-30915793D01*
X12966050Y-30817522D01*
X12882478Y-30733950D01*
X12784207Y-30668287D01*
X12675014Y-30623058D01*
X12559095Y-30600000D01*
X12440905Y-30600000D01*
X12324986Y-30623058D01*
X12215793Y-30668287D01*
X12117522Y-30733950D01*
X12033950Y-30817522D01*
X11968287Y-30915793D01*
X11923058Y-31024986D01*
X11900000Y-31140905D01*
X11600000Y-31140905D01*
X11576942Y-31024986D01*
X11531713Y-30915793D01*
X11466050Y-30817522D01*
X11382478Y-30733950D01*
X11284207Y-30668287D01*
X11175014Y-30623058D01*
X11059095Y-30600000D01*
X10940905Y-30600000D01*
X10824986Y-30623058D01*
X10715793Y-30668287D01*
X10617522Y-30733950D01*
X10533950Y-30817522D01*
X10468287Y-30915793D01*
X10423058Y-31024986D01*
X10400000Y-31140905D01*
X9680109Y-31140905D01*
X9676942Y-31124986D01*
X9631713Y-31015793D01*
X9566050Y-30917522D01*
X9482478Y-30833950D01*
X9384207Y-30768287D01*
X9275014Y-30723058D01*
X9159095Y-30700000D01*
X9040905Y-30700000D01*
X8924986Y-30723058D01*
X8815793Y-30768287D01*
X8717522Y-30833950D01*
X8633950Y-30917522D01*
X8568287Y-31015793D01*
X8523058Y-31124986D01*
X8500000Y-31240905D01*
X5549663Y-31240905D01*
X5576942Y-31175048D01*
X5600000Y-31059129D01*
X5600000Y-30940939D01*
X5576942Y-30825020D01*
X5531713Y-30715827D01*
X5466050Y-30617556D01*
X5382478Y-30533984D01*
X5284207Y-30468321D01*
X5175014Y-30423092D01*
X5059095Y-30400034D01*
X4940905Y-30400034D01*
X4824986Y-30423092D01*
X4715793Y-30468321D01*
X4617522Y-30533984D01*
X4533950Y-30617556D01*
X4468287Y-30715827D01*
X4423058Y-30825020D01*
X4400000Y-30940939D01*
X1706693Y-30940939D01*
X1819273Y-28640905D01*
X5300000Y-28640905D01*
X5300000Y-28759095D01*
X5323058Y-28875014D01*
X5368287Y-28984207D01*
X5433950Y-29082478D01*
X5451472Y-29100000D01*
X5433950Y-29117522D01*
X5368287Y-29215793D01*
X5323058Y-29324986D01*
X5300000Y-29440905D01*
X5300000Y-29559095D01*
X5323058Y-29675014D01*
X5368287Y-29784207D01*
X5433950Y-29882478D01*
X5517522Y-29966050D01*
X5615793Y-30031713D01*
X5724986Y-30076942D01*
X5840905Y-30100000D01*
X5959095Y-30100000D01*
X6075014Y-30076942D01*
X6184207Y-30031713D01*
X6282478Y-29966050D01*
X6366050Y-29882478D01*
X6431713Y-29784207D01*
X6476942Y-29675014D01*
X6500000Y-29559095D01*
X6523058Y-29675014D01*
X6568287Y-29784207D01*
X6633950Y-29882478D01*
X6717522Y-29966050D01*
X6815793Y-30031713D01*
X6924986Y-30076942D01*
X7040905Y-30100000D01*
X7159095Y-30100000D01*
X7275014Y-30076942D01*
X7384207Y-30031713D01*
X7482478Y-29966050D01*
X7566050Y-29882478D01*
X7631713Y-29784207D01*
X7676942Y-29675014D01*
X7700000Y-29559095D01*
X7723058Y-29675014D01*
X7768287Y-29784207D01*
X7833950Y-29882478D01*
X7917522Y-29966050D01*
X8015793Y-30031713D01*
X8124986Y-30076942D01*
X8240905Y-30100000D01*
X8359095Y-30100000D01*
X8475014Y-30076942D01*
X8584207Y-30031713D01*
X8682478Y-29966050D01*
X8766050Y-29882478D01*
X8831713Y-29784207D01*
X8876942Y-29675014D01*
X8900000Y-29559095D01*
X8900000Y-29440905D01*
X8876942Y-29324986D01*
X8831713Y-29215793D01*
X8766050Y-29117522D01*
X8748528Y-29100000D01*
X8766050Y-29082478D01*
X8831713Y-28984207D01*
X8876942Y-28875014D01*
X8900000Y-28759095D01*
X8900000Y-28640905D01*
X8876942Y-28524986D01*
X8831713Y-28415793D01*
X8781675Y-28340905D01*
X12400000Y-28340905D01*
X12400000Y-28459095D01*
X12423058Y-28575014D01*
X12468287Y-28684207D01*
X12533950Y-28782478D01*
X12617522Y-28866050D01*
X12715793Y-28931713D01*
X12824986Y-28976942D01*
X12940905Y-29000000D01*
X13059095Y-29000000D01*
X13175014Y-28976942D01*
X13284207Y-28931713D01*
X13382478Y-28866050D01*
X13466050Y-28782478D01*
X13531713Y-28684207D01*
X13576942Y-28575014D01*
X13600000Y-28459095D01*
X13600000Y-28340905D01*
X14600000Y-28340905D01*
X14600000Y-28459095D01*
X14623058Y-28575014D01*
X14668287Y-28684207D01*
X14733950Y-28782478D01*
X14817522Y-28866050D01*
X14915793Y-28931713D01*
X15024986Y-28976942D01*
X15140905Y-29000000D01*
X15259095Y-29000000D01*
X15375014Y-28976942D01*
X15484207Y-28931713D01*
X15582478Y-28866050D01*
X15666050Y-28782478D01*
X15731713Y-28684207D01*
X15776942Y-28575014D01*
X15800000Y-28459095D01*
X15800000Y-28340905D01*
X15776942Y-28224986D01*
X15731713Y-28115793D01*
X15666050Y-28017522D01*
X15582478Y-27933950D01*
X15484207Y-27868287D01*
X15375014Y-27823058D01*
X15259095Y-27800000D01*
X15140905Y-27800000D01*
X15024986Y-27823058D01*
X14915793Y-27868287D01*
X14817522Y-27933950D01*
X14733950Y-28017522D01*
X14668287Y-28115793D01*
X14623058Y-28224986D01*
X14600000Y-28340905D01*
X13600000Y-28340905D01*
X13576942Y-28224986D01*
X13531713Y-28115793D01*
X13466050Y-28017522D01*
X13382478Y-27933950D01*
X13284207Y-27868287D01*
X13175014Y-27823058D01*
X13059095Y-27800000D01*
X12940905Y-27800000D01*
X12824986Y-27823058D01*
X12715793Y-27868287D01*
X12617522Y-27933950D01*
X12533950Y-28017522D01*
X12468287Y-28115793D01*
X12423058Y-28224986D01*
X12400000Y-28340905D01*
X8781675Y-28340905D01*
X8766050Y-28317522D01*
X8682478Y-28233950D01*
X8584207Y-28168287D01*
X8475014Y-28123058D01*
X8359095Y-28100000D01*
X8240905Y-28100000D01*
X8124986Y-28123058D01*
X8015793Y-28168287D01*
X7917522Y-28233950D01*
X7833950Y-28317522D01*
X7768287Y-28415793D01*
X7723058Y-28524986D01*
X7700000Y-28640905D01*
X7676942Y-28524986D01*
X7631713Y-28415793D01*
X7566050Y-28317522D01*
X7482478Y-28233950D01*
X7384207Y-28168287D01*
X7275014Y-28123058D01*
X7159095Y-28100000D01*
X7040905Y-28100000D01*
X6924986Y-28123058D01*
X6815793Y-28168287D01*
X6717522Y-28233950D01*
X6633950Y-28317522D01*
X6568287Y-28415793D01*
X6523058Y-28524986D01*
X6500000Y-28640905D01*
X6476942Y-28524986D01*
X6431713Y-28415793D01*
X6366050Y-28317522D01*
X6282478Y-28233950D01*
X6184207Y-28168287D01*
X6075014Y-28123058D01*
X5959095Y-28100000D01*
X5840905Y-28100000D01*
X5724986Y-28123058D01*
X5615793Y-28168287D01*
X5517522Y-28233950D01*
X5433950Y-28317522D01*
X5368287Y-28415793D01*
X5323058Y-28524986D01*
X5300000Y-28640905D01*
X1819273Y-28640905D01*
X1896366Y-27065905D01*
X4600000Y-27065905D01*
X4600000Y-27184095D01*
X4623058Y-27300014D01*
X4668287Y-27409207D01*
X4733950Y-27507478D01*
X4817522Y-27591050D01*
X4915793Y-27656713D01*
X5024986Y-27701942D01*
X5140905Y-27725000D01*
X5259095Y-27725000D01*
X5375014Y-27701942D01*
X5484207Y-27656713D01*
X5582478Y-27591050D01*
X5632623Y-27540905D01*
X19750000Y-27540905D01*
X19750000Y-27659095D01*
X19773058Y-27775014D01*
X19818287Y-27884207D01*
X19883950Y-27982478D01*
X19967522Y-28066050D01*
X20065793Y-28131713D01*
X20174986Y-28176942D01*
X20268951Y-28195633D01*
X20250000Y-28290905D01*
X20250000Y-28409095D01*
X20268951Y-28504367D01*
X20174986Y-28523058D01*
X20065793Y-28568287D01*
X19967522Y-28633950D01*
X19883950Y-28717522D01*
X19818287Y-28815793D01*
X19773058Y-28924986D01*
X19750000Y-29040905D01*
X19750000Y-29159095D01*
X19773058Y-29275014D01*
X19818287Y-29384207D01*
X19883950Y-29482478D01*
X19967522Y-29566050D01*
X20065793Y-29631713D01*
X20174986Y-29676942D01*
X20290905Y-29700000D01*
X20409095Y-29700000D01*
X20525014Y-29676942D01*
X20634207Y-29631713D01*
X20732478Y-29566050D01*
X20816050Y-29482478D01*
X20850000Y-29431669D01*
X20883950Y-29482478D01*
X20967522Y-29566050D01*
X21065793Y-29631713D01*
X21174986Y-29676942D01*
X21290905Y-29700000D01*
X21409095Y-29700000D01*
X21525014Y-29676942D01*
X21634207Y-29631713D01*
X21732478Y-29566050D01*
X21816050Y-29482478D01*
X21881713Y-29384207D01*
X21926942Y-29275014D01*
X21950000Y-29159095D01*
X21950000Y-29040905D01*
X21926942Y-28924986D01*
X21881713Y-28815793D01*
X21816050Y-28717522D01*
X21732478Y-28633950D01*
X21634207Y-28568287D01*
X21525014Y-28523058D01*
X21431049Y-28504367D01*
X21450000Y-28409095D01*
X21450000Y-28290905D01*
X21431049Y-28195633D01*
X21525014Y-28176942D01*
X21634207Y-28131713D01*
X21732478Y-28066050D01*
X21816050Y-27982478D01*
X21881713Y-27884207D01*
X21926942Y-27775014D01*
X21950000Y-27659095D01*
X21950000Y-27540905D01*
X21926942Y-27424986D01*
X21881713Y-27315793D01*
X21816050Y-27217522D01*
X21732478Y-27133950D01*
X21634207Y-27068287D01*
X21525014Y-27023058D01*
X21409095Y-27000000D01*
X21290905Y-27000000D01*
X21174986Y-27023058D01*
X21065793Y-27068287D01*
X20967522Y-27133950D01*
X20883950Y-27217522D01*
X20850000Y-27268331D01*
X20816050Y-27217522D01*
X20732478Y-27133950D01*
X20634207Y-27068287D01*
X20525014Y-27023058D01*
X20409095Y-27000000D01*
X20290905Y-27000000D01*
X20174986Y-27023058D01*
X20065793Y-27068287D01*
X19967522Y-27133950D01*
X19883950Y-27217522D01*
X19818287Y-27315793D01*
X19773058Y-27424986D01*
X19750000Y-27540905D01*
X5632623Y-27540905D01*
X5666050Y-27507478D01*
X5731713Y-27409207D01*
X5776942Y-27300014D01*
X5800000Y-27184095D01*
X5800000Y-27065905D01*
X5776942Y-26949986D01*
X5731713Y-26840793D01*
X5666050Y-26742522D01*
X5582478Y-26658950D01*
X5484207Y-26593287D01*
X5375014Y-26548058D01*
X5259095Y-26525000D01*
X5140905Y-26525000D01*
X5024986Y-26548058D01*
X4915793Y-26593287D01*
X4817522Y-26658950D01*
X4733950Y-26742522D01*
X4668287Y-26840793D01*
X4623058Y-26949986D01*
X4600000Y-27065905D01*
X1896366Y-27065905D01*
X1936747Y-26240905D01*
X12400000Y-26240905D01*
X12400000Y-26359095D01*
X12423058Y-26475014D01*
X12468287Y-26584207D01*
X12533950Y-26682478D01*
X12617522Y-26766050D01*
X12715793Y-26831713D01*
X12824986Y-26876942D01*
X12940905Y-26900000D01*
X13059095Y-26900000D01*
X13175014Y-26876942D01*
X13284207Y-26831713D01*
X13382478Y-26766050D01*
X13466050Y-26682478D01*
X13531713Y-26584207D01*
X13576942Y-26475014D01*
X13600000Y-26359095D01*
X13600000Y-26240905D01*
X14600000Y-26240905D01*
X14600000Y-26359095D01*
X14623058Y-26475014D01*
X14668287Y-26584207D01*
X14733950Y-26682478D01*
X14817522Y-26766050D01*
X14915793Y-26831713D01*
X15024986Y-26876942D01*
X15140905Y-26900000D01*
X15259095Y-26900000D01*
X15375014Y-26876942D01*
X15484207Y-26831713D01*
X15582478Y-26766050D01*
X15666050Y-26682478D01*
X15731713Y-26584207D01*
X15776942Y-26475014D01*
X15800000Y-26359095D01*
X15800000Y-26240905D01*
X15776942Y-26124986D01*
X15731713Y-26015793D01*
X15666050Y-25917522D01*
X15582478Y-25833950D01*
X15484207Y-25768287D01*
X15375014Y-25723058D01*
X15259095Y-25700000D01*
X15140905Y-25700000D01*
X15024986Y-25723058D01*
X14915793Y-25768287D01*
X14817522Y-25833950D01*
X14733950Y-25917522D01*
X14668287Y-26015793D01*
X14623058Y-26124986D01*
X14600000Y-26240905D01*
X13600000Y-26240905D01*
X13576942Y-26124986D01*
X13531713Y-26015793D01*
X13466050Y-25917522D01*
X13382478Y-25833950D01*
X13284207Y-25768287D01*
X13175014Y-25723058D01*
X13059095Y-25700000D01*
X12940905Y-25700000D01*
X12824986Y-25723058D01*
X12715793Y-25768287D01*
X12617522Y-25833950D01*
X12533950Y-25917522D01*
X12468287Y-26015793D01*
X12423058Y-26124986D01*
X12400000Y-26240905D01*
X1936747Y-26240905D01*
X2000379Y-24940905D01*
X6500000Y-24940905D01*
X6500000Y-25059095D01*
X6523058Y-25175014D01*
X6568287Y-25284207D01*
X6633950Y-25382478D01*
X6717522Y-25466050D01*
X6815793Y-25531713D01*
X6924986Y-25576942D01*
X7040905Y-25600000D01*
X7159095Y-25600000D01*
X7275014Y-25576942D01*
X7384207Y-25531713D01*
X7482478Y-25466050D01*
X7566050Y-25382478D01*
X7631713Y-25284207D01*
X7676942Y-25175014D01*
X7700000Y-25059095D01*
X7700000Y-24940905D01*
X7691298Y-24897155D01*
X8043750Y-24897155D01*
X8043750Y-25015345D01*
X8066808Y-25131264D01*
X8112037Y-25240457D01*
X8177700Y-25338728D01*
X8261272Y-25422300D01*
X8359543Y-25487963D01*
X8468736Y-25533192D01*
X8584655Y-25556250D01*
X8702845Y-25556250D01*
X8818764Y-25533192D01*
X8927957Y-25487963D01*
X9026228Y-25422300D01*
X9109800Y-25338728D01*
X9175463Y-25240457D01*
X9220692Y-25131264D01*
X9243750Y-25015345D01*
X9243750Y-24897155D01*
X9220692Y-24781236D01*
X9175463Y-24672043D01*
X9109800Y-24573772D01*
X9026228Y-24490200D01*
X8927957Y-24424537D01*
X8818764Y-24379308D01*
X8702845Y-24356250D01*
X8584655Y-24356250D01*
X8468736Y-24379308D01*
X8359543Y-24424537D01*
X8261272Y-24490200D01*
X8177700Y-24573772D01*
X8112037Y-24672043D01*
X8066808Y-24781236D01*
X8043750Y-24897155D01*
X7691298Y-24897155D01*
X7676942Y-24824986D01*
X7631713Y-24715793D01*
X7566050Y-24617522D01*
X7482478Y-24533950D01*
X7384207Y-24468287D01*
X7275014Y-24423058D01*
X7159095Y-24400000D01*
X7040905Y-24400000D01*
X6924986Y-24423058D01*
X6815793Y-24468287D01*
X6717522Y-24533950D01*
X6633950Y-24617522D01*
X6568287Y-24715793D01*
X6523058Y-24824986D01*
X6500000Y-24940905D01*
X2000379Y-24940905D01*
X2039537Y-24140905D01*
X12400000Y-24140905D01*
X12400000Y-24259095D01*
X12423058Y-24375014D01*
X12468287Y-24484207D01*
X12533950Y-24582478D01*
X12617522Y-24666050D01*
X12715793Y-24731713D01*
X12824986Y-24776942D01*
X12940905Y-24800000D01*
X13059095Y-24800000D01*
X13175014Y-24776942D01*
X13284207Y-24731713D01*
X13382478Y-24666050D01*
X13466050Y-24582478D01*
X13531713Y-24484207D01*
X13576942Y-24375014D01*
X13600000Y-24259095D01*
X13600000Y-24140905D01*
X14600000Y-24140905D01*
X14600000Y-24259095D01*
X14623058Y-24375014D01*
X14668287Y-24484207D01*
X14733950Y-24582478D01*
X14817522Y-24666050D01*
X14915793Y-24731713D01*
X15024986Y-24776942D01*
X15140905Y-24800000D01*
X15259095Y-24800000D01*
X15375014Y-24776942D01*
X15484207Y-24731713D01*
X15582478Y-24666050D01*
X15666050Y-24582478D01*
X15731713Y-24484207D01*
X15776942Y-24375014D01*
X15800000Y-24259095D01*
X15800000Y-24140905D01*
X15776942Y-24024986D01*
X15731713Y-23915793D01*
X15666050Y-23817522D01*
X15582478Y-23733950D01*
X15484207Y-23668287D01*
X15375014Y-23623058D01*
X15259095Y-23600000D01*
X15140905Y-23600000D01*
X15024986Y-23623058D01*
X14915793Y-23668287D01*
X14817522Y-23733950D01*
X14733950Y-23817522D01*
X14668287Y-23915793D01*
X14623058Y-24024986D01*
X14600000Y-24140905D01*
X13600000Y-24140905D01*
X13576942Y-24024986D01*
X13531713Y-23915793D01*
X13466050Y-23817522D01*
X13382478Y-23733950D01*
X13284207Y-23668287D01*
X13175014Y-23623058D01*
X13059095Y-23600000D01*
X12940905Y-23600000D01*
X12824986Y-23623058D01*
X12715793Y-23668287D01*
X12617522Y-23733950D01*
X12533950Y-23817522D01*
X12468287Y-23915793D01*
X12423058Y-24024986D01*
X12400000Y-24140905D01*
X2039537Y-24140905D01*
X2078695Y-23340905D01*
X6500000Y-23340905D01*
X6500000Y-23459095D01*
X6523058Y-23575014D01*
X6568287Y-23684207D01*
X6633950Y-23782478D01*
X6717522Y-23866050D01*
X6815793Y-23931713D01*
X6924986Y-23976942D01*
X7040905Y-24000000D01*
X7159095Y-24000000D01*
X7275014Y-23976942D01*
X7384207Y-23931713D01*
X7482478Y-23866050D01*
X7566050Y-23782478D01*
X7631713Y-23684207D01*
X7676942Y-23575014D01*
X7700000Y-23459095D01*
X7700000Y-23340905D01*
X7676942Y-23224986D01*
X7631713Y-23115793D01*
X7566050Y-23017522D01*
X7482478Y-22933950D01*
X7384207Y-22868287D01*
X7275014Y-22823058D01*
X7159095Y-22800000D01*
X7040905Y-22800000D01*
X6924986Y-22823058D01*
X6815793Y-22868287D01*
X6717522Y-22933950D01*
X6633950Y-23017522D01*
X6568287Y-23115793D01*
X6523058Y-23224986D01*
X6500000Y-23340905D01*
X2078695Y-23340905D01*
X2108063Y-22740905D01*
X18600000Y-22740905D01*
X18600000Y-22859095D01*
X18623058Y-22975014D01*
X18668287Y-23084207D01*
X18733950Y-23182478D01*
X18817522Y-23266050D01*
X18915793Y-23331713D01*
X19024986Y-23376942D01*
X19140905Y-23400000D01*
X19259095Y-23400000D01*
X19375014Y-23376942D01*
X19484207Y-23331713D01*
X19582478Y-23266050D01*
X19666050Y-23182478D01*
X19731713Y-23084207D01*
X19776942Y-22975014D01*
X19800000Y-22859095D01*
X19800000Y-22740905D01*
X19776942Y-22624986D01*
X19731713Y-22515793D01*
X19666050Y-22417522D01*
X19582478Y-22333950D01*
X19484207Y-22268287D01*
X19375014Y-22223058D01*
X19259095Y-22200000D01*
X19140905Y-22200000D01*
X19024986Y-22223058D01*
X18915793Y-22268287D01*
X18817522Y-22333950D01*
X18733950Y-22417522D01*
X18668287Y-22515793D01*
X18623058Y-22624986D01*
X18600000Y-22740905D01*
X2108063Y-22740905D01*
X2171695Y-21440905D01*
X20900000Y-21440905D01*
X20900000Y-21559095D01*
X20923058Y-21675014D01*
X20968287Y-21784207D01*
X21033950Y-21882478D01*
X21117522Y-21966050D01*
X21215793Y-22031713D01*
X21324986Y-22076942D01*
X21440905Y-22100000D01*
X21559095Y-22100000D01*
X21675014Y-22076942D01*
X21784207Y-22031713D01*
X21882478Y-21966050D01*
X21966050Y-21882478D01*
X22031713Y-21784207D01*
X22076942Y-21675014D01*
X22100000Y-21559095D01*
X22100000Y-21440905D01*
X22076942Y-21324986D01*
X22031713Y-21215793D01*
X21966050Y-21117522D01*
X21882478Y-21033950D01*
X21784207Y-20968287D01*
X21675014Y-20923058D01*
X21559095Y-20900000D01*
X21440905Y-20900000D01*
X21324986Y-20923058D01*
X21215793Y-20968287D01*
X21117522Y-21033950D01*
X21033950Y-21117522D01*
X20968287Y-21215793D01*
X20923058Y-21324986D01*
X20900000Y-21440905D01*
X2171695Y-21440905D01*
X2220644Y-20440905D01*
X4900000Y-20440905D01*
X4900000Y-20559095D01*
X4923058Y-20675014D01*
X4968287Y-20784207D01*
X5033950Y-20882478D01*
X5117522Y-20966050D01*
X5215793Y-21031713D01*
X5324986Y-21076942D01*
X5440905Y-21100000D01*
X5559095Y-21100000D01*
X5675014Y-21076942D01*
X5784207Y-21031713D01*
X5882478Y-20966050D01*
X5966050Y-20882478D01*
X6031713Y-20784207D01*
X6076942Y-20675014D01*
X6100000Y-20559095D01*
X6100000Y-20440905D01*
X6500000Y-20440905D01*
X6500000Y-20559095D01*
X6523058Y-20675014D01*
X6568287Y-20784207D01*
X6633950Y-20882478D01*
X6717522Y-20966050D01*
X6815793Y-21031713D01*
X6924986Y-21076942D01*
X7040905Y-21100000D01*
X7159095Y-21100000D01*
X7275014Y-21076942D01*
X7384207Y-21031713D01*
X7482478Y-20966050D01*
X7566050Y-20882478D01*
X7631713Y-20784207D01*
X7676942Y-20675014D01*
X7700000Y-20559095D01*
X7700000Y-20440905D01*
X7676942Y-20324986D01*
X7631713Y-20215793D01*
X7566050Y-20117522D01*
X7482478Y-20033950D01*
X7384207Y-19968287D01*
X7275014Y-19923058D01*
X7159095Y-19900000D01*
X7040905Y-19900000D01*
X6924986Y-19923058D01*
X6815793Y-19968287D01*
X6717522Y-20033950D01*
X6633950Y-20117522D01*
X6568287Y-20215793D01*
X6523058Y-20324986D01*
X6500000Y-20440905D01*
X6100000Y-20440905D01*
X6076942Y-20324986D01*
X6031713Y-20215793D01*
X5966050Y-20117522D01*
X5882478Y-20033950D01*
X5784207Y-19968287D01*
X5675014Y-19923058D01*
X5559095Y-19900000D01*
X5440905Y-19900000D01*
X5324986Y-19923058D01*
X5215793Y-19968287D01*
X5117522Y-20033950D01*
X5033950Y-20117522D01*
X4968287Y-20215793D01*
X4923058Y-20324986D01*
X4900000Y-20440905D01*
X2220644Y-20440905D01*
X2274486Y-19340905D01*
X21100000Y-19340905D01*
X21100000Y-19459095D01*
X21123058Y-19575014D01*
X21168287Y-19684207D01*
X21233950Y-19782478D01*
X21317522Y-19866050D01*
X21415793Y-19931713D01*
X21524986Y-19976942D01*
X21640905Y-20000000D01*
X21759095Y-20000000D01*
X21875014Y-19976942D01*
X21984207Y-19931713D01*
X22082478Y-19866050D01*
X22166050Y-19782478D01*
X22231713Y-19684207D01*
X22276942Y-19575014D01*
X22300000Y-19459095D01*
X22300000Y-19340905D01*
X22276942Y-19224986D01*
X22231713Y-19115793D01*
X22166050Y-19017522D01*
X22082478Y-18933950D01*
X21984207Y-18868287D01*
X21875014Y-18823058D01*
X21759095Y-18800000D01*
X21640905Y-18800000D01*
X21524986Y-18823058D01*
X21415793Y-18868287D01*
X21317522Y-18933950D01*
X21233950Y-19017522D01*
X21168287Y-19115793D01*
X21123058Y-19224986D01*
X21100000Y-19340905D01*
X2274486Y-19340905D01*
X2318540Y-18440905D01*
X4500000Y-18440905D01*
X4500000Y-18559095D01*
X4523058Y-18675014D01*
X4568287Y-18784207D01*
X4633950Y-18882478D01*
X4717522Y-18966050D01*
X4815793Y-19031713D01*
X4924986Y-19076942D01*
X5040905Y-19100000D01*
X5159095Y-19100000D01*
X5275014Y-19076942D01*
X5384207Y-19031713D01*
X5482478Y-18966050D01*
X5566050Y-18882478D01*
X5631713Y-18784207D01*
X5676942Y-18675014D01*
X5700000Y-18559095D01*
X5700000Y-18440905D01*
X5676942Y-18324986D01*
X5631713Y-18215793D01*
X5566050Y-18117522D01*
X5482478Y-18033950D01*
X5384207Y-17968287D01*
X5275014Y-17923058D01*
X5159095Y-17900000D01*
X5040905Y-17900000D01*
X4924986Y-17923058D01*
X4815793Y-17968287D01*
X4717522Y-18033950D01*
X4633950Y-18117522D01*
X4568287Y-18215793D01*
X4523058Y-18324986D01*
X4500000Y-18440905D01*
X2318540Y-18440905D01*
X2482070Y-15100000D01*
X3500000Y-15100000D01*
X3519509Y-15098079D01*
X3538268Y-15092388D01*
X3555557Y-15083147D01*
X3570711Y-15070711D01*
X4070711Y-14570711D01*
X4083147Y-14555557D01*
X4092388Y-14538268D01*
X4098079Y-14519509D01*
X4100000Y-14500000D01*
X4100000Y-12500000D01*
X4098079Y-12480491D01*
X4092388Y-12461732D01*
X4083147Y-12444443D01*
X4070711Y-12429289D01*
X3570711Y-11929289D01*
X3555557Y-11916853D01*
X3538268Y-11907612D01*
X3519509Y-11901921D01*
X3500000Y-11900000D01*
X2638702Y-11900000D01*
X2648515Y-11699516D01*
X2693790Y-11718269D01*
X2809709Y-11741327D01*
X2927899Y-11741327D01*
X3043818Y-11718269D01*
X3153011Y-11673040D01*
X3251282Y-11607377D01*
X3334854Y-11523805D01*
X3400517Y-11425534D01*
X3445746Y-11316341D01*
X3468804Y-11200422D01*
X3468804Y-11173551D01*
X3558478Y-11173551D01*
X3674397Y-11150493D01*
X3783590Y-11105264D01*
X3881861Y-11039601D01*
X3965433Y-10956029D01*
X4031096Y-10857758D01*
X4076325Y-10748565D01*
X4099383Y-10632646D01*
X4099383Y-10514456D01*
X4076325Y-10398537D01*
X4031096Y-10289344D01*
X3965433Y-10191073D01*
X3881861Y-10107501D01*
X3783590Y-10041838D01*
X3674397Y-9996609D01*
X3558478Y-9973551D01*
X3440288Y-9973551D01*
X3324369Y-9996609D01*
X3225196Y-10037688D01*
X3184413Y-10010437D01*
X3075220Y-9965208D01*
X2959301Y-9942150D01*
X2841111Y-9942150D01*
X2733486Y-9963558D01*
X2898569Y-6590905D01*
X4350000Y-6590905D01*
X4350000Y-6709095D01*
X4373058Y-6825014D01*
X4418287Y-6934207D01*
X4483950Y-7032478D01*
X4567522Y-7116050D01*
X4618331Y-7150000D01*
X4567522Y-7183950D01*
X4483950Y-7267522D01*
X4418287Y-7365793D01*
X4373058Y-7474986D01*
X4350000Y-7590905D01*
X4350000Y-7709095D01*
X4373058Y-7825014D01*
X4418287Y-7934207D01*
X4483950Y-8032478D01*
X4567522Y-8116050D01*
X4665793Y-8181713D01*
X4774986Y-8226942D01*
X4890905Y-8250000D01*
X5009095Y-8250000D01*
X5125014Y-8226942D01*
X5234207Y-8181713D01*
X5332478Y-8116050D01*
X5416050Y-8032478D01*
X5481713Y-7934207D01*
X5526942Y-7825014D01*
X5545633Y-7731049D01*
X5640905Y-7750000D01*
X5759095Y-7750000D01*
X5854367Y-7731049D01*
X5873058Y-7825014D01*
X5918287Y-7934207D01*
X5983950Y-8032478D01*
X6067522Y-8116050D01*
X6165793Y-8181713D01*
X6274986Y-8226942D01*
X6390905Y-8250000D01*
X6509095Y-8250000D01*
X6625014Y-8226942D01*
X6734207Y-8181713D01*
X6832478Y-8116050D01*
X6916050Y-8032478D01*
X6981713Y-7934207D01*
X7026942Y-7825014D01*
X7050000Y-7709095D01*
X7050000Y-7590905D01*
X7026942Y-7474986D01*
X6981713Y-7365793D01*
X6916050Y-7267522D01*
X6832478Y-7183950D01*
X6781669Y-7150000D01*
X6832478Y-7116050D01*
X6916050Y-7032478D01*
X6981713Y-6934207D01*
X7026942Y-6825014D01*
X7050000Y-6709095D01*
X7050000Y-6590905D01*
X7026942Y-6474986D01*
X6981713Y-6365793D01*
X6916050Y-6267522D01*
X6832478Y-6183950D01*
X6734207Y-6118287D01*
X6625014Y-6073058D01*
X6509095Y-6050000D01*
X6390905Y-6050000D01*
X6274986Y-6073058D01*
X6165793Y-6118287D01*
X6067522Y-6183950D01*
X5983950Y-6267522D01*
X5918287Y-6365793D01*
X5873058Y-6474986D01*
X5854367Y-6568951D01*
X5759095Y-6550000D01*
X5640905Y-6550000D01*
X5545633Y-6568951D01*
X5526942Y-6474986D01*
X5481713Y-6365793D01*
X5416050Y-6267522D01*
X5332478Y-6183950D01*
X5234207Y-6118287D01*
X5125014Y-6073058D01*
X5009095Y-6050000D01*
X4890905Y-6050000D01*
X4774986Y-6073058D01*
X4665793Y-6118287D01*
X4567522Y-6183950D01*
X4483950Y-6267522D01*
X4418287Y-6365793D01*
X4373058Y-6474986D01*
X4350000Y-6590905D01*
X2898569Y-6590905D01*
X3024222Y-4023827D01*
X3029861Y-3966311D01*
X3039644Y-3933910D01*
X3055537Y-3904018D01*
X3086690Y-3865822D01*
X5411607Y-1540905D01*
X6000000Y-1540905D01*
X6000000Y-1659095D01*
X6023058Y-1775014D01*
X6068287Y-1884207D01*
X6133950Y-1982478D01*
X6217522Y-2066050D01*
X6315793Y-2131713D01*
X6424986Y-2176942D01*
X6540905Y-2200000D01*
X6659095Y-2200000D01*
X6775014Y-2176942D01*
X6884207Y-2131713D01*
X6982478Y-2066050D01*
X7066050Y-1982478D01*
X7131713Y-1884207D01*
X7149649Y-1840905D01*
X9900000Y-1840905D01*
X9900000Y-1959095D01*
X9923058Y-2075014D01*
X9968287Y-2184207D01*
X10033950Y-2282478D01*
X10117522Y-2366050D01*
X10215793Y-2431713D01*
X10324986Y-2476942D01*
X10440905Y-2500000D01*
X10559095Y-2500000D01*
X10675014Y-2476942D01*
X10784207Y-2431713D01*
X10882478Y-2366050D01*
X10966050Y-2282478D01*
X10990033Y-2246584D01*
X12950000Y-2246584D01*
X12950000Y-2453416D01*
X12990350Y-2656274D01*
X13069502Y-2847362D01*
X13184411Y-3019336D01*
X13330664Y-3165589D01*
X13502638Y-3280498D01*
X13693726Y-3359650D01*
X13896584Y-3400000D01*
X14103416Y-3400000D01*
X14306274Y-3359650D01*
X14497362Y-3280498D01*
X14669336Y-3165589D01*
X14815589Y-3019336D01*
X14930498Y-2847362D01*
X14943528Y-2815905D01*
X19700000Y-2815905D01*
X19700000Y-2934095D01*
X19723058Y-3050014D01*
X19768287Y-3159207D01*
X19833950Y-3257478D01*
X19917522Y-3341050D01*
X20015793Y-3406713D01*
X20124986Y-3451942D01*
X20240905Y-3475000D01*
X20359095Y-3475000D01*
X20475014Y-3451942D01*
X20584207Y-3406713D01*
X20682478Y-3341050D01*
X20766050Y-3257478D01*
X20831713Y-3159207D01*
X20876942Y-3050014D01*
X20900000Y-2934095D01*
X20900000Y-2815905D01*
X20876942Y-2699986D01*
X20831713Y-2590793D01*
X20766050Y-2492522D01*
X20682478Y-2408950D01*
X20584207Y-2343287D01*
X20475014Y-2298058D01*
X20359095Y-2275000D01*
X20240905Y-2275000D01*
X20124986Y-2298058D01*
X20015793Y-2343287D01*
X19917522Y-2408950D01*
X19833950Y-2492522D01*
X19768287Y-2590793D01*
X19723058Y-2699986D01*
X19700000Y-2815905D01*
X14943528Y-2815905D01*
X15009650Y-2656274D01*
X15050000Y-2453416D01*
X15050000Y-2246584D01*
X15009650Y-2043726D01*
X14967060Y-1940905D01*
X16900000Y-1940905D01*
X16900000Y-2059095D01*
X16923058Y-2175014D01*
X16968287Y-2284207D01*
X17033950Y-2382478D01*
X17117522Y-2466050D01*
X17215793Y-2531713D01*
X17324986Y-2576942D01*
X17440905Y-2600000D01*
X17559095Y-2600000D01*
X17675014Y-2576942D01*
X17784207Y-2531713D01*
X17882478Y-2466050D01*
X17966050Y-2382478D01*
X18031713Y-2284207D01*
X18076942Y-2175014D01*
X18100000Y-2059095D01*
X18100000Y-1940905D01*
X18076942Y-1824986D01*
X18031713Y-1715793D01*
X17966050Y-1617522D01*
X17882478Y-1533950D01*
X17784207Y-1468287D01*
X17675014Y-1423058D01*
X17559095Y-1400000D01*
X17440905Y-1400000D01*
X17324986Y-1423058D01*
X17215793Y-1468287D01*
X17117522Y-1533950D01*
X17033950Y-1617522D01*
X16968287Y-1715793D01*
X16923058Y-1824986D01*
X16900000Y-1940905D01*
X14967060Y-1940905D01*
X14930498Y-1852638D01*
X14815589Y-1680664D01*
X14669336Y-1534411D01*
X14497362Y-1419502D01*
X14306274Y-1340350D01*
X14103416Y-1300000D01*
X13896584Y-1300000D01*
X13693726Y-1340350D01*
X13502638Y-1419502D01*
X13330664Y-1534411D01*
X13184411Y-1680664D01*
X13069502Y-1852638D01*
X12990350Y-2043726D01*
X12950000Y-2246584D01*
X10990033Y-2246584D01*
X11031713Y-2184207D01*
X11076942Y-2075014D01*
X11100000Y-1959095D01*
X11100000Y-1840905D01*
X11076942Y-1724986D01*
X11031713Y-1615793D01*
X10966050Y-1517522D01*
X10882478Y-1433950D01*
X10784207Y-1368287D01*
X10675014Y-1323058D01*
X10559095Y-1300000D01*
X10440905Y-1300000D01*
X10324986Y-1323058D01*
X10215793Y-1368287D01*
X10117522Y-1433950D01*
X10033950Y-1517522D01*
X9968287Y-1615793D01*
X9923058Y-1724986D01*
X9900000Y-1840905D01*
X7149649Y-1840905D01*
X7176942Y-1775014D01*
X7200000Y-1659095D01*
X7200000Y-1540905D01*
X7176942Y-1424986D01*
X7131713Y-1315793D01*
X7066050Y-1217522D01*
X6982478Y-1133950D01*
X6884207Y-1068287D01*
X6775014Y-1023058D01*
X6659095Y-1000000D01*
X6540905Y-1000000D01*
X6424986Y-1023058D01*
X6315793Y-1068287D01*
X6217522Y-1133950D01*
X6133950Y-1217522D01*
X6068287Y-1315793D01*
X6023058Y-1424986D01*
X6000000Y-1540905D01*
X5411607Y-1540905D01*
X6565016Y-387497D01*
X6603516Y-355873D01*
X6633348Y-339877D01*
X6665717Y-329981D01*
X6714754Y-325000D01*
X21284106Y-325000D01*
X21333689Y-329861D01*
G04 #@! TA.AperFunction,Conductor*
D14*
G36*
X21333689Y-329861D02*
G01*
X21366090Y-339644D01*
X21395982Y-355537D01*
X21434178Y-386690D01*
X24912503Y-3865016D01*
X24944127Y-3903516D01*
X24960123Y-3933348D01*
X24970019Y-3965717D01*
X24975644Y-4021095D01*
X25266513Y-9963558D01*
X25158889Y-9942150D01*
X25040699Y-9942150D01*
X24924780Y-9965208D01*
X24815587Y-10010437D01*
X24774804Y-10037688D01*
X24675631Y-9996609D01*
X24559712Y-9973551D01*
X24441522Y-9973551D01*
X24325603Y-9996609D01*
X24216410Y-10041838D01*
X24118139Y-10107501D01*
X24034567Y-10191073D01*
X23968904Y-10289344D01*
X23923675Y-10398537D01*
X23900617Y-10514456D01*
X23900617Y-10632646D01*
X23923675Y-10748565D01*
X23968904Y-10857758D01*
X24034567Y-10956029D01*
X24118139Y-11039601D01*
X24216410Y-11105264D01*
X24325603Y-11150493D01*
X24441522Y-11173551D01*
X24531196Y-11173551D01*
X24531196Y-11200422D01*
X24554254Y-11316341D01*
X24599483Y-11425534D01*
X24665146Y-11523805D01*
X24748718Y-11607377D01*
X24846989Y-11673040D01*
X24956182Y-11718269D01*
X25072101Y-11741327D01*
X25190291Y-11741327D01*
X25306210Y-11718269D01*
X25351484Y-11699516D01*
X25361297Y-11900000D01*
X21041422Y-11900000D01*
X17600000Y-8458578D01*
X17600000Y-6640905D01*
X19550000Y-6640905D01*
X19550000Y-6759095D01*
X19573058Y-6875014D01*
X19618287Y-6984207D01*
X19683950Y-7082478D01*
X19767522Y-7166050D01*
X19818331Y-7200000D01*
X19767522Y-7233950D01*
X19683950Y-7317522D01*
X19618287Y-7415793D01*
X19573058Y-7524986D01*
X19550000Y-7640905D01*
X19550000Y-7759095D01*
X19573058Y-7875014D01*
X19618287Y-7984207D01*
X19683950Y-8082478D01*
X19767522Y-8166050D01*
X19865793Y-8231713D01*
X19974986Y-8276942D01*
X20090905Y-8300000D01*
X20209095Y-8300000D01*
X20325014Y-8276942D01*
X20434207Y-8231713D01*
X20532478Y-8166050D01*
X20616050Y-8082478D01*
X20681713Y-7984207D01*
X20726942Y-7875014D01*
X20745633Y-7781049D01*
X20840905Y-7800000D01*
X20959095Y-7800000D01*
X21054367Y-7781049D01*
X21073058Y-7875014D01*
X21118287Y-7984207D01*
X21183950Y-8082478D01*
X21267522Y-8166050D01*
X21365793Y-8231713D01*
X21474986Y-8276942D01*
X21590905Y-8300000D01*
X21709095Y-8300000D01*
X21825014Y-8276942D01*
X21934207Y-8231713D01*
X22032478Y-8166050D01*
X22116050Y-8082478D01*
X22181713Y-7984207D01*
X22226942Y-7875014D01*
X22250000Y-7759095D01*
X22250000Y-7640905D01*
X22226942Y-7524986D01*
X22181713Y-7415793D01*
X22116050Y-7317522D01*
X22032478Y-7233950D01*
X21981669Y-7200000D01*
X22032478Y-7166050D01*
X22116050Y-7082478D01*
X22181713Y-6984207D01*
X22226942Y-6875014D01*
X22250000Y-6759095D01*
X22250000Y-6640905D01*
X22226942Y-6524986D01*
X22181713Y-6415793D01*
X22116050Y-6317522D01*
X22032478Y-6233950D01*
X21934207Y-6168287D01*
X21825014Y-6123058D01*
X21709095Y-6100000D01*
X21590905Y-6100000D01*
X21474986Y-6123058D01*
X21365793Y-6168287D01*
X21267522Y-6233950D01*
X21183950Y-6317522D01*
X21118287Y-6415793D01*
X21073058Y-6524986D01*
X21054367Y-6618951D01*
X20959095Y-6600000D01*
X20840905Y-6600000D01*
X20745633Y-6618951D01*
X20726942Y-6524986D01*
X20681713Y-6415793D01*
X20616050Y-6317522D01*
X20532478Y-6233950D01*
X20434207Y-6168287D01*
X20325014Y-6123058D01*
X20209095Y-6100000D01*
X20090905Y-6100000D01*
X19974986Y-6123058D01*
X19865793Y-6168287D01*
X19767522Y-6233950D01*
X19683950Y-6317522D01*
X19618287Y-6415793D01*
X19573058Y-6524986D01*
X19550000Y-6640905D01*
X17600000Y-6640905D01*
X17600000Y-5640905D01*
X22900000Y-5640905D01*
X22900000Y-5759095D01*
X22923058Y-5875014D01*
X22968287Y-5984207D01*
X23033950Y-6082478D01*
X23117522Y-6166050D01*
X23215793Y-6231713D01*
X23324986Y-6276942D01*
X23440905Y-6300000D01*
X23559095Y-6300000D01*
X23675014Y-6276942D01*
X23784207Y-6231713D01*
X23882478Y-6166050D01*
X23966050Y-6082478D01*
X24031713Y-5984207D01*
X24076942Y-5875014D01*
X24100000Y-5759095D01*
X24100000Y-5640905D01*
X24076942Y-5524986D01*
X24031713Y-5415793D01*
X23966050Y-5317522D01*
X23882478Y-5233950D01*
X23784207Y-5168287D01*
X23675014Y-5123058D01*
X23559095Y-5100000D01*
X23440905Y-5100000D01*
X23324986Y-5123058D01*
X23215793Y-5168287D01*
X23117522Y-5233950D01*
X23033950Y-5317522D01*
X22968287Y-5415793D01*
X22923058Y-5524986D01*
X22900000Y-5640905D01*
X17600000Y-5640905D01*
X17600000Y-4500000D01*
X17598079Y-4480491D01*
X17592388Y-4461732D01*
X17583147Y-4444443D01*
X17570711Y-4429289D01*
X17070711Y-3929289D01*
X17055557Y-3916853D01*
X17038268Y-3907612D01*
X17019509Y-3901921D01*
X17000000Y-3900000D01*
X15000000Y-3900000D01*
X14980491Y-3901921D01*
X14961732Y-3907612D01*
X14944443Y-3916853D01*
X14929289Y-3929289D01*
X14429289Y-4429289D01*
X14416853Y-4444443D01*
X14407612Y-4461732D01*
X14401921Y-4480491D01*
X14400000Y-4500000D01*
X14400000Y-8379173D01*
X14306274Y-8340350D01*
X14103416Y-8300000D01*
X13896584Y-8300000D01*
X13693726Y-8340350D01*
X13502638Y-8419502D01*
X13330664Y-8534411D01*
X13184411Y-8680664D01*
X13069502Y-8852638D01*
X12990350Y-9043726D01*
X12950000Y-9246584D01*
X12950000Y-9453416D01*
X12990350Y-9656274D01*
X13069502Y-9847362D01*
X13184411Y-10019336D01*
X13330664Y-10165589D01*
X13502638Y-10280498D01*
X13693726Y-10359650D01*
X13896584Y-10400000D01*
X14103416Y-10400000D01*
X14306274Y-10359650D01*
X14497362Y-10280498D01*
X14582313Y-10223735D01*
X22400000Y-18041422D01*
X22400000Y-30000000D01*
X22401921Y-30019509D01*
X22407612Y-30038268D01*
X22416853Y-30055557D01*
X22429289Y-30070711D01*
X22929289Y-30570711D01*
X22944443Y-30583147D01*
X22961732Y-30592388D01*
X22980491Y-30598079D01*
X23000000Y-30600000D01*
X26276618Y-30600000D01*
X26472559Y-34603087D01*
X26450137Y-35002386D01*
X26354262Y-35375413D01*
X26187761Y-35722709D01*
X25956971Y-36031055D01*
X25670689Y-36288697D01*
X25595099Y-36333733D01*
X25600000Y-36309095D01*
X25600000Y-36190905D01*
X25576942Y-36074986D01*
X25531713Y-35965793D01*
X25466050Y-35867522D01*
X25382478Y-35783950D01*
X25284207Y-35718287D01*
X25175014Y-35673058D01*
X25059095Y-35650000D01*
X24940905Y-35650000D01*
X24824986Y-35673058D01*
X24715793Y-35718287D01*
X24617522Y-35783950D01*
X24533950Y-35867522D01*
X24468287Y-35965793D01*
X24423058Y-36074986D01*
X24400000Y-36190905D01*
X24400000Y-36309095D01*
X24423058Y-36425014D01*
X24468287Y-36534207D01*
X24533950Y-36632478D01*
X24574563Y-36673091D01*
X24496049Y-36675000D01*
X22285527Y-36675000D01*
X22326942Y-36575014D01*
X22350000Y-36459095D01*
X22350000Y-36340905D01*
X22326942Y-36224986D01*
X22281713Y-36115793D01*
X22216050Y-36017522D01*
X22132478Y-35933950D01*
X22034207Y-35868287D01*
X21925014Y-35823058D01*
X21809095Y-35800000D01*
X21690905Y-35800000D01*
X21574986Y-35823058D01*
X21521153Y-35845356D01*
X21526853Y-35836826D01*
X21707770Y-35400054D01*
X21800000Y-34936379D01*
X21800000Y-34728405D01*
X24287502Y-34728405D01*
X24287502Y-34846595D01*
X24310560Y-34962514D01*
X24355789Y-35071707D01*
X24421452Y-35169978D01*
X24505024Y-35253550D01*
X24603295Y-35319213D01*
X24712488Y-35364442D01*
X24828407Y-35387500D01*
X24946597Y-35387500D01*
X25062516Y-35364442D01*
X25171709Y-35319213D01*
X25269980Y-35253550D01*
X25353552Y-35169978D01*
X25419215Y-35071707D01*
X25464444Y-34962514D01*
X25487502Y-34846595D01*
X25487502Y-34728405D01*
X25464444Y-34612486D01*
X25419215Y-34503293D01*
X25353552Y-34405022D01*
X25269980Y-34321450D01*
X25171709Y-34255787D01*
X25062516Y-34210558D01*
X24946597Y-34187500D01*
X24828407Y-34187500D01*
X24712488Y-34210558D01*
X24603295Y-34255787D01*
X24505024Y-34321450D01*
X24421452Y-34405022D01*
X24355789Y-34503293D01*
X24310560Y-34612486D01*
X24287502Y-34728405D01*
X21800000Y-34728405D01*
X21800000Y-34463621D01*
X21707770Y-33999946D01*
X21526853Y-33563174D01*
X21264202Y-33170089D01*
X20929911Y-32835798D01*
X20536826Y-32573147D01*
X20100054Y-32392230D01*
X19636379Y-32300000D01*
X19163621Y-32300000D01*
X18699946Y-32392230D01*
X18263174Y-32573147D01*
X17870089Y-32835798D01*
X17535798Y-33170089D01*
X17273147Y-33563174D01*
X17092230Y-33999946D01*
X17000000Y-34463621D01*
X17000000Y-34936379D01*
X17092230Y-35400054D01*
X17273147Y-35836826D01*
X17535798Y-36229911D01*
X17870089Y-36564202D01*
X18035910Y-36675000D01*
X3515896Y-36675000D01*
X3116690Y-36635858D01*
X2747981Y-36524538D01*
X2407913Y-36343721D01*
X2109445Y-36100297D01*
X1863945Y-35803538D01*
X1680758Y-35464740D01*
X1642425Y-35340905D01*
X11900000Y-35340905D01*
X11900000Y-35459095D01*
X11923058Y-35575014D01*
X11968287Y-35684207D01*
X12033950Y-35782478D01*
X12117522Y-35866050D01*
X12215793Y-35931713D01*
X12324986Y-35976942D01*
X12440905Y-36000000D01*
X12559095Y-36000000D01*
X12675014Y-35976942D01*
X12784207Y-35931713D01*
X12882478Y-35866050D01*
X12966050Y-35782478D01*
X13031713Y-35684207D01*
X13076942Y-35575014D01*
X13100000Y-35459095D01*
X13100000Y-35340905D01*
X15100000Y-35340905D01*
X15100000Y-35459095D01*
X15123058Y-35575014D01*
X15168287Y-35684207D01*
X15233950Y-35782478D01*
X15317522Y-35866050D01*
X15415793Y-35931713D01*
X15524986Y-35976942D01*
X15640905Y-36000000D01*
X15759095Y-36000000D01*
X15875014Y-35976942D01*
X15984207Y-35931713D01*
X16082478Y-35866050D01*
X16166050Y-35782478D01*
X16231713Y-35684207D01*
X16276942Y-35575014D01*
X16300000Y-35459095D01*
X16300000Y-35340905D01*
X16276942Y-35224986D01*
X16231713Y-35115793D01*
X16166050Y-35017522D01*
X16082478Y-34933950D01*
X15984207Y-34868287D01*
X15875014Y-34823058D01*
X15759095Y-34800000D01*
X15640905Y-34800000D01*
X15524986Y-34823058D01*
X15415793Y-34868287D01*
X15317522Y-34933950D01*
X15233950Y-35017522D01*
X15168287Y-35115793D01*
X15123058Y-35224986D01*
X15100000Y-35340905D01*
X13100000Y-35340905D01*
X13076942Y-35224986D01*
X13031713Y-35115793D01*
X12966050Y-35017522D01*
X12882478Y-34933950D01*
X12784207Y-34868287D01*
X12675014Y-34823058D01*
X12559095Y-34800000D01*
X12440905Y-34800000D01*
X12324986Y-34823058D01*
X12215793Y-34868287D01*
X12117522Y-34933950D01*
X12033950Y-35017522D01*
X11968287Y-35115793D01*
X11923058Y-35224986D01*
X11900000Y-35340905D01*
X1642425Y-35340905D01*
X1566866Y-35096819D01*
X1525351Y-34701830D01*
X1526856Y-34615017D01*
X1540272Y-34340905D01*
X9000000Y-34340905D01*
X9000000Y-34459095D01*
X9023058Y-34575014D01*
X9068287Y-34684207D01*
X9133950Y-34782478D01*
X9217522Y-34866050D01*
X9315793Y-34931713D01*
X9424986Y-34976942D01*
X9540905Y-35000000D01*
X9659095Y-35000000D01*
X9775014Y-34976942D01*
X9884207Y-34931713D01*
X9982478Y-34866050D01*
X10066050Y-34782478D01*
X10131713Y-34684207D01*
X10176942Y-34575014D01*
X10200000Y-34459095D01*
X10200000Y-34340905D01*
X10176942Y-34224986D01*
X10131713Y-34115793D01*
X10066050Y-34017522D01*
X9982478Y-33933950D01*
X9884207Y-33868287D01*
X9775014Y-33823058D01*
X9659095Y-33800000D01*
X9540905Y-33800000D01*
X9424986Y-33823058D01*
X9315793Y-33868287D01*
X9217522Y-33933950D01*
X9133950Y-34017522D01*
X9068287Y-34115793D01*
X9023058Y-34224986D01*
X9000000Y-34340905D01*
X1540272Y-34340905D01*
X1608799Y-32940905D01*
X4700000Y-32940905D01*
X4700000Y-33059095D01*
X4723058Y-33175014D01*
X4768287Y-33284207D01*
X4833950Y-33382478D01*
X4917522Y-33466050D01*
X5015793Y-33531713D01*
X5124986Y-33576942D01*
X5240905Y-33600000D01*
X5359095Y-33600000D01*
X5475014Y-33576942D01*
X5584207Y-33531713D01*
X5682478Y-33466050D01*
X5766050Y-33382478D01*
X5831713Y-33284207D01*
X5849649Y-33240905D01*
X11900000Y-33240905D01*
X11900000Y-33359095D01*
X11923058Y-33475014D01*
X11968287Y-33584207D01*
X12033950Y-33682478D01*
X12117522Y-33766050D01*
X12215793Y-33831713D01*
X12324986Y-33876942D01*
X12440905Y-33900000D01*
X12559095Y-33900000D01*
X12675014Y-33876942D01*
X12784207Y-33831713D01*
X12882478Y-33766050D01*
X12966050Y-33682478D01*
X13031713Y-33584207D01*
X13076942Y-33475014D01*
X13100000Y-33359095D01*
X13100000Y-33240905D01*
X15100000Y-33240905D01*
X15100000Y-33359095D01*
X15123058Y-33475014D01*
X15168287Y-33584207D01*
X15233950Y-33682478D01*
X15317522Y-33766050D01*
X15415793Y-33831713D01*
X15524986Y-33876942D01*
X15640905Y-33900000D01*
X15759095Y-33900000D01*
X15875014Y-33876942D01*
X15984207Y-33831713D01*
X16082478Y-33766050D01*
X16166050Y-33682478D01*
X16231713Y-33584207D01*
X16276942Y-33475014D01*
X16300000Y-33359095D01*
X16300000Y-33240905D01*
X16276942Y-33124986D01*
X16231713Y-33015793D01*
X16166050Y-32917522D01*
X16082478Y-32833950D01*
X15984207Y-32768287D01*
X15875014Y-32723058D01*
X15759095Y-32700000D01*
X15640905Y-32700000D01*
X15524986Y-32723058D01*
X15415793Y-32768287D01*
X15317522Y-32833950D01*
X15233950Y-32917522D01*
X15168287Y-33015793D01*
X15123058Y-33124986D01*
X15100000Y-33240905D01*
X13100000Y-33240905D01*
X13076942Y-33124986D01*
X13031713Y-33015793D01*
X12966050Y-32917522D01*
X12882478Y-32833950D01*
X12784207Y-32768287D01*
X12675014Y-32723058D01*
X12559095Y-32700000D01*
X12440905Y-32700000D01*
X12324986Y-32723058D01*
X12215793Y-32768287D01*
X12117522Y-32833950D01*
X12033950Y-32917522D01*
X11968287Y-33015793D01*
X11923058Y-33124986D01*
X11900000Y-33240905D01*
X5849649Y-33240905D01*
X5876942Y-33175014D01*
X5900000Y-33059095D01*
X5900000Y-32940905D01*
X5876942Y-32824986D01*
X5831713Y-32715793D01*
X5766050Y-32617522D01*
X5682478Y-32533950D01*
X5584207Y-32468287D01*
X5475014Y-32423058D01*
X5359095Y-32400000D01*
X5240905Y-32400000D01*
X5124986Y-32423058D01*
X5015793Y-32468287D01*
X4917522Y-32533950D01*
X4833950Y-32617522D01*
X4768287Y-32715793D01*
X4723058Y-32824986D01*
X4700000Y-32940905D01*
X1608799Y-32940905D01*
X1706693Y-30940939D01*
X4400000Y-30940939D01*
X4400000Y-31059129D01*
X4423058Y-31175048D01*
X4468287Y-31284241D01*
X4533950Y-31382512D01*
X4617522Y-31466084D01*
X4715793Y-31531747D01*
X4824986Y-31576976D01*
X4940905Y-31600034D01*
X5059095Y-31600034D01*
X5175014Y-31576976D01*
X5284207Y-31531747D01*
X5382478Y-31466084D01*
X5466050Y-31382512D01*
X5531713Y-31284241D01*
X5549663Y-31240905D01*
X8500000Y-31240905D01*
X8500000Y-31359095D01*
X8523058Y-31475014D01*
X8568287Y-31584207D01*
X8633950Y-31682478D01*
X8717522Y-31766050D01*
X8815793Y-31831713D01*
X8924986Y-31876942D01*
X9040905Y-31900000D01*
X9159095Y-31900000D01*
X9275014Y-31876942D01*
X9362015Y-31840905D01*
X21600000Y-31840905D01*
X21600000Y-31959095D01*
X21623058Y-32075014D01*
X21668287Y-32184207D01*
X21733950Y-32282478D01*
X21817522Y-32366050D01*
X21915793Y-32431713D01*
X22024986Y-32476942D01*
X22140905Y-32500000D01*
X22259095Y-32500000D01*
X22375014Y-32476942D01*
X22484207Y-32431713D01*
X22582478Y-32366050D01*
X22666050Y-32282478D01*
X22731713Y-32184207D01*
X22776942Y-32075014D01*
X22800000Y-31959095D01*
X22800000Y-31840905D01*
X22776942Y-31724986D01*
X22731713Y-31615793D01*
X22666050Y-31517522D01*
X22582478Y-31433950D01*
X22484207Y-31368287D01*
X22375014Y-31323058D01*
X22259095Y-31300000D01*
X22140905Y-31300000D01*
X22024986Y-31323058D01*
X21915793Y-31368287D01*
X21817522Y-31433950D01*
X21733950Y-31517522D01*
X21668287Y-31615793D01*
X21623058Y-31724986D01*
X21600000Y-31840905D01*
X9362015Y-31840905D01*
X9384207Y-31831713D01*
X9482478Y-31766050D01*
X9566050Y-31682478D01*
X9631713Y-31584207D01*
X9676942Y-31475014D01*
X9700000Y-31359095D01*
X9700000Y-31240905D01*
X9680109Y-31140905D01*
X10400000Y-31140905D01*
X10400000Y-31259095D01*
X10423058Y-31375014D01*
X10468287Y-31484207D01*
X10533950Y-31582478D01*
X10617522Y-31666050D01*
X10715793Y-31731713D01*
X10824986Y-31776942D01*
X10940905Y-31800000D01*
X11059095Y-31800000D01*
X11175014Y-31776942D01*
X11284207Y-31731713D01*
X11382478Y-31666050D01*
X11466050Y-31582478D01*
X11531713Y-31484207D01*
X11576942Y-31375014D01*
X11600000Y-31259095D01*
X11600000Y-31140905D01*
X11900000Y-31140905D01*
X11900000Y-31259095D01*
X11923058Y-31375014D01*
X11968287Y-31484207D01*
X12033950Y-31582478D01*
X12117522Y-31666050D01*
X12215793Y-31731713D01*
X12324986Y-31776942D01*
X12440905Y-31800000D01*
X12559095Y-31800000D01*
X12675014Y-31776942D01*
X12784207Y-31731713D01*
X12882478Y-31666050D01*
X12966050Y-31582478D01*
X13031713Y-31484207D01*
X13076942Y-31375014D01*
X13100000Y-31259095D01*
X13100000Y-31140905D01*
X15100000Y-31140905D01*
X15100000Y-31259095D01*
X15123058Y-31375014D01*
X15168287Y-31484207D01*
X15233950Y-31582478D01*
X15317522Y-31666050D01*
X15415793Y-31731713D01*
X15524986Y-31776942D01*
X15640905Y-31800000D01*
X15759095Y-31800000D01*
X15875014Y-31776942D01*
X15984207Y-31731713D01*
X16082478Y-31666050D01*
X16166050Y-31582478D01*
X16231713Y-31484207D01*
X16276942Y-31375014D01*
X16300000Y-31259095D01*
X16300000Y-31140905D01*
X16276942Y-31024986D01*
X16231713Y-30915793D01*
X16181675Y-30840905D01*
X18100000Y-30840905D01*
X18100000Y-30959095D01*
X18123058Y-31075014D01*
X18168287Y-31184207D01*
X18233950Y-31282478D01*
X18317522Y-31366050D01*
X18415793Y-31431713D01*
X18524986Y-31476942D01*
X18640905Y-31500000D01*
X18759095Y-31500000D01*
X18875014Y-31476942D01*
X18984207Y-31431713D01*
X19082478Y-31366050D01*
X19166050Y-31282478D01*
X19231713Y-31184207D01*
X19276942Y-31075014D01*
X19300000Y-30959095D01*
X19300000Y-30840905D01*
X19276942Y-30724986D01*
X19231713Y-30615793D01*
X19166050Y-30517522D01*
X19082478Y-30433950D01*
X18984207Y-30368287D01*
X18875014Y-30323058D01*
X18759095Y-30300000D01*
X18640905Y-30300000D01*
X18524986Y-30323058D01*
X18415793Y-30368287D01*
X18317522Y-30433950D01*
X18233950Y-30517522D01*
X18168287Y-30615793D01*
X18123058Y-30724986D01*
X18100000Y-30840905D01*
X16181675Y-30840905D01*
X16166050Y-30817522D01*
X16082478Y-30733950D01*
X15984207Y-30668287D01*
X15875014Y-30623058D01*
X15759095Y-30600000D01*
X15640905Y-30600000D01*
X15524986Y-30623058D01*
X15415793Y-30668287D01*
X15317522Y-30733950D01*
X15233950Y-30817522D01*
X15168287Y-30915793D01*
X15123058Y-31024986D01*
X15100000Y-31140905D01*
X13100000Y-31140905D01*
X13076942Y-31024986D01*
X13031713Y-30915793D01*
X12966050Y-30817522D01*
X12882478Y-30733950D01*
X12784207Y-30668287D01*
X12675014Y-30623058D01*
X12559095Y-30600000D01*
X12440905Y-30600000D01*
X12324986Y-30623058D01*
X12215793Y-30668287D01*
X12117522Y-30733950D01*
X12033950Y-30817522D01*
X11968287Y-30915793D01*
X11923058Y-31024986D01*
X11900000Y-31140905D01*
X11600000Y-31140905D01*
X11576942Y-31024986D01*
X11531713Y-30915793D01*
X11466050Y-30817522D01*
X11382478Y-30733950D01*
X11284207Y-30668287D01*
X11175014Y-30623058D01*
X11059095Y-30600000D01*
X10940905Y-30600000D01*
X10824986Y-30623058D01*
X10715793Y-30668287D01*
X10617522Y-30733950D01*
X10533950Y-30817522D01*
X10468287Y-30915793D01*
X10423058Y-31024986D01*
X10400000Y-31140905D01*
X9680109Y-31140905D01*
X9676942Y-31124986D01*
X9631713Y-31015793D01*
X9566050Y-30917522D01*
X9482478Y-30833950D01*
X9384207Y-30768287D01*
X9275014Y-30723058D01*
X9159095Y-30700000D01*
X9040905Y-30700000D01*
X8924986Y-30723058D01*
X8815793Y-30768287D01*
X8717522Y-30833950D01*
X8633950Y-30917522D01*
X8568287Y-31015793D01*
X8523058Y-31124986D01*
X8500000Y-31240905D01*
X5549663Y-31240905D01*
X5576942Y-31175048D01*
X5600000Y-31059129D01*
X5600000Y-30940939D01*
X5576942Y-30825020D01*
X5531713Y-30715827D01*
X5466050Y-30617556D01*
X5382478Y-30533984D01*
X5284207Y-30468321D01*
X5175014Y-30423092D01*
X5059095Y-30400034D01*
X4940905Y-30400034D01*
X4824986Y-30423092D01*
X4715793Y-30468321D01*
X4617522Y-30533984D01*
X4533950Y-30617556D01*
X4468287Y-30715827D01*
X4423058Y-30825020D01*
X4400000Y-30940939D01*
X1706693Y-30940939D01*
X1819273Y-28640905D01*
X5300000Y-28640905D01*
X5300000Y-28759095D01*
X5323058Y-28875014D01*
X5368287Y-28984207D01*
X5433950Y-29082478D01*
X5451472Y-29100000D01*
X5433950Y-29117522D01*
X5368287Y-29215793D01*
X5323058Y-29324986D01*
X5300000Y-29440905D01*
X5300000Y-29559095D01*
X5323058Y-29675014D01*
X5368287Y-29784207D01*
X5433950Y-29882478D01*
X5517522Y-29966050D01*
X5615793Y-30031713D01*
X5724986Y-30076942D01*
X5840905Y-30100000D01*
X5959095Y-30100000D01*
X6075014Y-30076942D01*
X6184207Y-30031713D01*
X6282478Y-29966050D01*
X6366050Y-29882478D01*
X6431713Y-29784207D01*
X6476942Y-29675014D01*
X6500000Y-29559095D01*
X6523058Y-29675014D01*
X6568287Y-29784207D01*
X6633950Y-29882478D01*
X6717522Y-29966050D01*
X6815793Y-30031713D01*
X6924986Y-30076942D01*
X7040905Y-30100000D01*
X7159095Y-30100000D01*
X7275014Y-30076942D01*
X7384207Y-30031713D01*
X7482478Y-29966050D01*
X7566050Y-29882478D01*
X7631713Y-29784207D01*
X7676942Y-29675014D01*
X7700000Y-29559095D01*
X7723058Y-29675014D01*
X7768287Y-29784207D01*
X7833950Y-29882478D01*
X7917522Y-29966050D01*
X8015793Y-30031713D01*
X8124986Y-30076942D01*
X8240905Y-30100000D01*
X8359095Y-30100000D01*
X8475014Y-30076942D01*
X8584207Y-30031713D01*
X8682478Y-29966050D01*
X8766050Y-29882478D01*
X8831713Y-29784207D01*
X8876942Y-29675014D01*
X8900000Y-29559095D01*
X8900000Y-29440905D01*
X8876942Y-29324986D01*
X8831713Y-29215793D01*
X8766050Y-29117522D01*
X8748528Y-29100000D01*
X8766050Y-29082478D01*
X8831713Y-28984207D01*
X8876942Y-28875014D01*
X8900000Y-28759095D01*
X8900000Y-28640905D01*
X8876942Y-28524986D01*
X8831713Y-28415793D01*
X8781675Y-28340905D01*
X12400000Y-28340905D01*
X12400000Y-28459095D01*
X12423058Y-28575014D01*
X12468287Y-28684207D01*
X12533950Y-28782478D01*
X12617522Y-28866050D01*
X12715793Y-28931713D01*
X12824986Y-28976942D01*
X12940905Y-29000000D01*
X13059095Y-29000000D01*
X13175014Y-28976942D01*
X13284207Y-28931713D01*
X13382478Y-28866050D01*
X13466050Y-28782478D01*
X13531713Y-28684207D01*
X13576942Y-28575014D01*
X13600000Y-28459095D01*
X13600000Y-28340905D01*
X14600000Y-28340905D01*
X14600000Y-28459095D01*
X14623058Y-28575014D01*
X14668287Y-28684207D01*
X14733950Y-28782478D01*
X14817522Y-28866050D01*
X14915793Y-28931713D01*
X15024986Y-28976942D01*
X15140905Y-29000000D01*
X15259095Y-29000000D01*
X15375014Y-28976942D01*
X15484207Y-28931713D01*
X15582478Y-28866050D01*
X15666050Y-28782478D01*
X15731713Y-28684207D01*
X15776942Y-28575014D01*
X15800000Y-28459095D01*
X15800000Y-28340905D01*
X15776942Y-28224986D01*
X15731713Y-28115793D01*
X15666050Y-28017522D01*
X15582478Y-27933950D01*
X15484207Y-27868287D01*
X15375014Y-27823058D01*
X15259095Y-27800000D01*
X15140905Y-27800000D01*
X15024986Y-27823058D01*
X14915793Y-27868287D01*
X14817522Y-27933950D01*
X14733950Y-28017522D01*
X14668287Y-28115793D01*
X14623058Y-28224986D01*
X14600000Y-28340905D01*
X13600000Y-28340905D01*
X13576942Y-28224986D01*
X13531713Y-28115793D01*
X13466050Y-28017522D01*
X13382478Y-27933950D01*
X13284207Y-27868287D01*
X13175014Y-27823058D01*
X13059095Y-27800000D01*
X12940905Y-27800000D01*
X12824986Y-27823058D01*
X12715793Y-27868287D01*
X12617522Y-27933950D01*
X12533950Y-28017522D01*
X12468287Y-28115793D01*
X12423058Y-28224986D01*
X12400000Y-28340905D01*
X8781675Y-28340905D01*
X8766050Y-28317522D01*
X8682478Y-28233950D01*
X8584207Y-28168287D01*
X8475014Y-28123058D01*
X8359095Y-28100000D01*
X8240905Y-28100000D01*
X8124986Y-28123058D01*
X8015793Y-28168287D01*
X7917522Y-28233950D01*
X7833950Y-28317522D01*
X7768287Y-28415793D01*
X7723058Y-28524986D01*
X7700000Y-28640905D01*
X7676942Y-28524986D01*
X7631713Y-28415793D01*
X7566050Y-28317522D01*
X7482478Y-28233950D01*
X7384207Y-28168287D01*
X7275014Y-28123058D01*
X7159095Y-28100000D01*
X7040905Y-28100000D01*
X6924986Y-28123058D01*
X6815793Y-28168287D01*
X6717522Y-28233950D01*
X6633950Y-28317522D01*
X6568287Y-28415793D01*
X6523058Y-28524986D01*
X6500000Y-28640905D01*
X6476942Y-28524986D01*
X6431713Y-28415793D01*
X6366050Y-28317522D01*
X6282478Y-28233950D01*
X6184207Y-28168287D01*
X6075014Y-28123058D01*
X5959095Y-28100000D01*
X5840905Y-28100000D01*
X5724986Y-28123058D01*
X5615793Y-28168287D01*
X5517522Y-28233950D01*
X5433950Y-28317522D01*
X5368287Y-28415793D01*
X5323058Y-28524986D01*
X5300000Y-28640905D01*
X1819273Y-28640905D01*
X1896366Y-27065905D01*
X4600000Y-27065905D01*
X4600000Y-27184095D01*
X4623058Y-27300014D01*
X4668287Y-27409207D01*
X4733950Y-27507478D01*
X4817522Y-27591050D01*
X4915793Y-27656713D01*
X5024986Y-27701942D01*
X5140905Y-27725000D01*
X5259095Y-27725000D01*
X5375014Y-27701942D01*
X5484207Y-27656713D01*
X5582478Y-27591050D01*
X5632623Y-27540905D01*
X19750000Y-27540905D01*
X19750000Y-27659095D01*
X19773058Y-27775014D01*
X19818287Y-27884207D01*
X19883950Y-27982478D01*
X19967522Y-28066050D01*
X20065793Y-28131713D01*
X20174986Y-28176942D01*
X20268951Y-28195633D01*
X20250000Y-28290905D01*
X20250000Y-28409095D01*
X20268951Y-28504367D01*
X20174986Y-28523058D01*
X20065793Y-28568287D01*
X19967522Y-28633950D01*
X19883950Y-28717522D01*
X19818287Y-28815793D01*
X19773058Y-28924986D01*
X19750000Y-29040905D01*
X19750000Y-29159095D01*
X19773058Y-29275014D01*
X19818287Y-29384207D01*
X19883950Y-29482478D01*
X19967522Y-29566050D01*
X20065793Y-29631713D01*
X20174986Y-29676942D01*
X20290905Y-29700000D01*
X20409095Y-29700000D01*
X20525014Y-29676942D01*
X20634207Y-29631713D01*
X20732478Y-29566050D01*
X20816050Y-29482478D01*
X20850000Y-29431669D01*
X20883950Y-29482478D01*
X20967522Y-29566050D01*
X21065793Y-29631713D01*
X21174986Y-29676942D01*
X21290905Y-29700000D01*
X21409095Y-29700000D01*
X21525014Y-29676942D01*
X21634207Y-29631713D01*
X21732478Y-29566050D01*
X21816050Y-29482478D01*
X21881713Y-29384207D01*
X21926942Y-29275014D01*
X21950000Y-29159095D01*
X21950000Y-29040905D01*
X21926942Y-28924986D01*
X21881713Y-28815793D01*
X21816050Y-28717522D01*
X21732478Y-28633950D01*
X21634207Y-28568287D01*
X21525014Y-28523058D01*
X21431049Y-28504367D01*
X21450000Y-28409095D01*
X21450000Y-28290905D01*
X21431049Y-28195633D01*
X21525014Y-28176942D01*
X21634207Y-28131713D01*
X21732478Y-28066050D01*
X21816050Y-27982478D01*
X21881713Y-27884207D01*
X21926942Y-27775014D01*
X21950000Y-27659095D01*
X21950000Y-27540905D01*
X21926942Y-27424986D01*
X21881713Y-27315793D01*
X21816050Y-27217522D01*
X21732478Y-27133950D01*
X21634207Y-27068287D01*
X21525014Y-27023058D01*
X21409095Y-27000000D01*
X21290905Y-27000000D01*
X21174986Y-27023058D01*
X21065793Y-27068287D01*
X20967522Y-27133950D01*
X20883950Y-27217522D01*
X20850000Y-27268331D01*
X20816050Y-27217522D01*
X20732478Y-27133950D01*
X20634207Y-27068287D01*
X20525014Y-27023058D01*
X20409095Y-27000000D01*
X20290905Y-27000000D01*
X20174986Y-27023058D01*
X20065793Y-27068287D01*
X19967522Y-27133950D01*
X19883950Y-27217522D01*
X19818287Y-27315793D01*
X19773058Y-27424986D01*
X19750000Y-27540905D01*
X5632623Y-27540905D01*
X5666050Y-27507478D01*
X5731713Y-27409207D01*
X5776942Y-27300014D01*
X5800000Y-27184095D01*
X5800000Y-27065905D01*
X5776942Y-26949986D01*
X5731713Y-26840793D01*
X5666050Y-26742522D01*
X5582478Y-26658950D01*
X5484207Y-26593287D01*
X5375014Y-26548058D01*
X5259095Y-26525000D01*
X5140905Y-26525000D01*
X5024986Y-26548058D01*
X4915793Y-26593287D01*
X4817522Y-26658950D01*
X4733950Y-26742522D01*
X4668287Y-26840793D01*
X4623058Y-26949986D01*
X4600000Y-27065905D01*
X1896366Y-27065905D01*
X1936747Y-26240905D01*
X12400000Y-26240905D01*
X12400000Y-26359095D01*
X12423058Y-26475014D01*
X12468287Y-26584207D01*
X12533950Y-26682478D01*
X12617522Y-26766050D01*
X12715793Y-26831713D01*
X12824986Y-26876942D01*
X12940905Y-26900000D01*
X13059095Y-26900000D01*
X13175014Y-26876942D01*
X13284207Y-26831713D01*
X13382478Y-26766050D01*
X13466050Y-26682478D01*
X13531713Y-26584207D01*
X13576942Y-26475014D01*
X13600000Y-26359095D01*
X13600000Y-26240905D01*
X14600000Y-26240905D01*
X14600000Y-26359095D01*
X14623058Y-26475014D01*
X14668287Y-26584207D01*
X14733950Y-26682478D01*
X14817522Y-26766050D01*
X14915793Y-26831713D01*
X15024986Y-26876942D01*
X15140905Y-26900000D01*
X15259095Y-26900000D01*
X15375014Y-26876942D01*
X15484207Y-26831713D01*
X15582478Y-26766050D01*
X15666050Y-26682478D01*
X15731713Y-26584207D01*
X15776942Y-26475014D01*
X15800000Y-26359095D01*
X15800000Y-26240905D01*
X15776942Y-26124986D01*
X15731713Y-26015793D01*
X15666050Y-25917522D01*
X15582478Y-25833950D01*
X15484207Y-25768287D01*
X15375014Y-25723058D01*
X15259095Y-25700000D01*
X15140905Y-25700000D01*
X15024986Y-25723058D01*
X14915793Y-25768287D01*
X14817522Y-25833950D01*
X14733950Y-25917522D01*
X14668287Y-26015793D01*
X14623058Y-26124986D01*
X14600000Y-26240905D01*
X13600000Y-26240905D01*
X13576942Y-26124986D01*
X13531713Y-26015793D01*
X13466050Y-25917522D01*
X13382478Y-25833950D01*
X13284207Y-25768287D01*
X13175014Y-25723058D01*
X13059095Y-25700000D01*
X12940905Y-25700000D01*
X12824986Y-25723058D01*
X12715793Y-25768287D01*
X12617522Y-25833950D01*
X12533950Y-25917522D01*
X12468287Y-26015793D01*
X12423058Y-26124986D01*
X12400000Y-26240905D01*
X1936747Y-26240905D01*
X2000379Y-24940905D01*
X6500000Y-24940905D01*
X6500000Y-25059095D01*
X6523058Y-25175014D01*
X6568287Y-25284207D01*
X6633950Y-25382478D01*
X6717522Y-25466050D01*
X6815793Y-25531713D01*
X6924986Y-25576942D01*
X7040905Y-25600000D01*
X7159095Y-25600000D01*
X7275014Y-25576942D01*
X7384207Y-25531713D01*
X7482478Y-25466050D01*
X7566050Y-25382478D01*
X7631713Y-25284207D01*
X7676942Y-25175014D01*
X7700000Y-25059095D01*
X7700000Y-24940905D01*
X7691298Y-24897155D01*
X8043750Y-24897155D01*
X8043750Y-25015345D01*
X8066808Y-25131264D01*
X8112037Y-25240457D01*
X8177700Y-25338728D01*
X8261272Y-25422300D01*
X8359543Y-25487963D01*
X8468736Y-25533192D01*
X8584655Y-25556250D01*
X8702845Y-25556250D01*
X8818764Y-25533192D01*
X8927957Y-25487963D01*
X9026228Y-25422300D01*
X9109800Y-25338728D01*
X9175463Y-25240457D01*
X9220692Y-25131264D01*
X9243750Y-25015345D01*
X9243750Y-24897155D01*
X9220692Y-24781236D01*
X9175463Y-24672043D01*
X9109800Y-24573772D01*
X9026228Y-24490200D01*
X8927957Y-24424537D01*
X8818764Y-24379308D01*
X8702845Y-24356250D01*
X8584655Y-24356250D01*
X8468736Y-24379308D01*
X8359543Y-24424537D01*
X8261272Y-24490200D01*
X8177700Y-24573772D01*
X8112037Y-24672043D01*
X8066808Y-24781236D01*
X8043750Y-24897155D01*
X7691298Y-24897155D01*
X7676942Y-24824986D01*
X7631713Y-24715793D01*
X7566050Y-24617522D01*
X7482478Y-24533950D01*
X7384207Y-24468287D01*
X7275014Y-24423058D01*
X7159095Y-24400000D01*
X7040905Y-24400000D01*
X6924986Y-24423058D01*
X6815793Y-24468287D01*
X6717522Y-24533950D01*
X6633950Y-24617522D01*
X6568287Y-24715793D01*
X6523058Y-24824986D01*
X6500000Y-24940905D01*
X2000379Y-24940905D01*
X2039537Y-24140905D01*
X12400000Y-24140905D01*
X12400000Y-24259095D01*
X12423058Y-24375014D01*
X12468287Y-24484207D01*
X12533950Y-24582478D01*
X12617522Y-24666050D01*
X12715793Y-24731713D01*
X12824986Y-24776942D01*
X12940905Y-24800000D01*
X13059095Y-24800000D01*
X13175014Y-24776942D01*
X13284207Y-24731713D01*
X13382478Y-24666050D01*
X13466050Y-24582478D01*
X13531713Y-24484207D01*
X13576942Y-24375014D01*
X13600000Y-24259095D01*
X13600000Y-24140905D01*
X14600000Y-24140905D01*
X14600000Y-24259095D01*
X14623058Y-24375014D01*
X14668287Y-24484207D01*
X14733950Y-24582478D01*
X14817522Y-24666050D01*
X14915793Y-24731713D01*
X15024986Y-24776942D01*
X15140905Y-24800000D01*
X15259095Y-24800000D01*
X15375014Y-24776942D01*
X15484207Y-24731713D01*
X15582478Y-24666050D01*
X15666050Y-24582478D01*
X15731713Y-24484207D01*
X15776942Y-24375014D01*
X15800000Y-24259095D01*
X15800000Y-24140905D01*
X15776942Y-24024986D01*
X15731713Y-23915793D01*
X15666050Y-23817522D01*
X15582478Y-23733950D01*
X15484207Y-23668287D01*
X15375014Y-23623058D01*
X15259095Y-23600000D01*
X15140905Y-23600000D01*
X15024986Y-23623058D01*
X14915793Y-23668287D01*
X14817522Y-23733950D01*
X14733950Y-23817522D01*
X14668287Y-23915793D01*
X14623058Y-24024986D01*
X14600000Y-24140905D01*
X13600000Y-24140905D01*
X13576942Y-24024986D01*
X13531713Y-23915793D01*
X13466050Y-23817522D01*
X13382478Y-23733950D01*
X13284207Y-23668287D01*
X13175014Y-23623058D01*
X13059095Y-23600000D01*
X12940905Y-23600000D01*
X12824986Y-23623058D01*
X12715793Y-23668287D01*
X12617522Y-23733950D01*
X12533950Y-23817522D01*
X12468287Y-23915793D01*
X12423058Y-24024986D01*
X12400000Y-24140905D01*
X2039537Y-24140905D01*
X2078695Y-23340905D01*
X6500000Y-23340905D01*
X6500000Y-23459095D01*
X6523058Y-23575014D01*
X6568287Y-23684207D01*
X6633950Y-23782478D01*
X6717522Y-23866050D01*
X6815793Y-23931713D01*
X6924986Y-23976942D01*
X7040905Y-24000000D01*
X7159095Y-24000000D01*
X7275014Y-23976942D01*
X7384207Y-23931713D01*
X7482478Y-23866050D01*
X7566050Y-23782478D01*
X7631713Y-23684207D01*
X7676942Y-23575014D01*
X7700000Y-23459095D01*
X7700000Y-23340905D01*
X7676942Y-23224986D01*
X7631713Y-23115793D01*
X7566050Y-23017522D01*
X7482478Y-22933950D01*
X7384207Y-22868287D01*
X7275014Y-22823058D01*
X7159095Y-22800000D01*
X7040905Y-22800000D01*
X6924986Y-22823058D01*
X6815793Y-22868287D01*
X6717522Y-22933950D01*
X6633950Y-23017522D01*
X6568287Y-23115793D01*
X6523058Y-23224986D01*
X6500000Y-23340905D01*
X2078695Y-23340905D01*
X2108063Y-22740905D01*
X18600000Y-22740905D01*
X18600000Y-22859095D01*
X18623058Y-22975014D01*
X18668287Y-23084207D01*
X18733950Y-23182478D01*
X18817522Y-23266050D01*
X18915793Y-23331713D01*
X19024986Y-23376942D01*
X19140905Y-23400000D01*
X19259095Y-23400000D01*
X19375014Y-23376942D01*
X19484207Y-23331713D01*
X19582478Y-23266050D01*
X19666050Y-23182478D01*
X19731713Y-23084207D01*
X19776942Y-22975014D01*
X19800000Y-22859095D01*
X19800000Y-22740905D01*
X19776942Y-22624986D01*
X19731713Y-22515793D01*
X19666050Y-22417522D01*
X19582478Y-22333950D01*
X19484207Y-22268287D01*
X19375014Y-22223058D01*
X19259095Y-22200000D01*
X19140905Y-22200000D01*
X19024986Y-22223058D01*
X18915793Y-22268287D01*
X18817522Y-22333950D01*
X18733950Y-22417522D01*
X18668287Y-22515793D01*
X18623058Y-22624986D01*
X18600000Y-22740905D01*
X2108063Y-22740905D01*
X2171695Y-21440905D01*
X20900000Y-21440905D01*
X20900000Y-21559095D01*
X20923058Y-21675014D01*
X20968287Y-21784207D01*
X21033950Y-21882478D01*
X21117522Y-21966050D01*
X21215793Y-22031713D01*
X21324986Y-22076942D01*
X21440905Y-22100000D01*
X21559095Y-22100000D01*
X21675014Y-22076942D01*
X21784207Y-22031713D01*
X21882478Y-21966050D01*
X21966050Y-21882478D01*
X22031713Y-21784207D01*
X22076942Y-21675014D01*
X22100000Y-21559095D01*
X22100000Y-21440905D01*
X22076942Y-21324986D01*
X22031713Y-21215793D01*
X21966050Y-21117522D01*
X21882478Y-21033950D01*
X21784207Y-20968287D01*
X21675014Y-20923058D01*
X21559095Y-20900000D01*
X21440905Y-20900000D01*
X21324986Y-20923058D01*
X21215793Y-20968287D01*
X21117522Y-21033950D01*
X21033950Y-21117522D01*
X20968287Y-21215793D01*
X20923058Y-21324986D01*
X20900000Y-21440905D01*
X2171695Y-21440905D01*
X2220644Y-20440905D01*
X4900000Y-20440905D01*
X4900000Y-20559095D01*
X4923058Y-20675014D01*
X4968287Y-20784207D01*
X5033950Y-20882478D01*
X5117522Y-20966050D01*
X5215793Y-21031713D01*
X5324986Y-21076942D01*
X5440905Y-21100000D01*
X5559095Y-21100000D01*
X5675014Y-21076942D01*
X5784207Y-21031713D01*
X5882478Y-20966050D01*
X5966050Y-20882478D01*
X6031713Y-20784207D01*
X6076942Y-20675014D01*
X6100000Y-20559095D01*
X6100000Y-20440905D01*
X6500000Y-20440905D01*
X6500000Y-20559095D01*
X6523058Y-20675014D01*
X6568287Y-20784207D01*
X6633950Y-20882478D01*
X6717522Y-20966050D01*
X6815793Y-21031713D01*
X6924986Y-21076942D01*
X7040905Y-21100000D01*
X7159095Y-21100000D01*
X7275014Y-21076942D01*
X7384207Y-21031713D01*
X7482478Y-20966050D01*
X7566050Y-20882478D01*
X7631713Y-20784207D01*
X7676942Y-20675014D01*
X7700000Y-20559095D01*
X7700000Y-20440905D01*
X7676942Y-20324986D01*
X7631713Y-20215793D01*
X7566050Y-20117522D01*
X7482478Y-20033950D01*
X7384207Y-19968287D01*
X7275014Y-19923058D01*
X7159095Y-19900000D01*
X7040905Y-19900000D01*
X6924986Y-19923058D01*
X6815793Y-19968287D01*
X6717522Y-20033950D01*
X6633950Y-20117522D01*
X6568287Y-20215793D01*
X6523058Y-20324986D01*
X6500000Y-20440905D01*
X6100000Y-20440905D01*
X6076942Y-20324986D01*
X6031713Y-20215793D01*
X5966050Y-20117522D01*
X5882478Y-20033950D01*
X5784207Y-19968287D01*
X5675014Y-19923058D01*
X5559095Y-19900000D01*
X5440905Y-19900000D01*
X5324986Y-19923058D01*
X5215793Y-19968287D01*
X5117522Y-20033950D01*
X5033950Y-20117522D01*
X4968287Y-20215793D01*
X4923058Y-20324986D01*
X4900000Y-20440905D01*
X2220644Y-20440905D01*
X2274486Y-19340905D01*
X21100000Y-19340905D01*
X21100000Y-19459095D01*
X21123058Y-19575014D01*
X21168287Y-19684207D01*
X21233950Y-19782478D01*
X21317522Y-19866050D01*
X21415793Y-19931713D01*
X21524986Y-19976942D01*
X21640905Y-20000000D01*
X21759095Y-20000000D01*
X21875014Y-19976942D01*
X21984207Y-19931713D01*
X22082478Y-19866050D01*
X22166050Y-19782478D01*
X22231713Y-19684207D01*
X22276942Y-19575014D01*
X22300000Y-19459095D01*
X22300000Y-19340905D01*
X22276942Y-19224986D01*
X22231713Y-19115793D01*
X22166050Y-19017522D01*
X22082478Y-18933950D01*
X21984207Y-18868287D01*
X21875014Y-18823058D01*
X21759095Y-18800000D01*
X21640905Y-18800000D01*
X21524986Y-18823058D01*
X21415793Y-18868287D01*
X21317522Y-18933950D01*
X21233950Y-19017522D01*
X21168287Y-19115793D01*
X21123058Y-19224986D01*
X21100000Y-19340905D01*
X2274486Y-19340905D01*
X2318540Y-18440905D01*
X4500000Y-18440905D01*
X4500000Y-18559095D01*
X4523058Y-18675014D01*
X4568287Y-18784207D01*
X4633950Y-18882478D01*
X4717522Y-18966050D01*
X4815793Y-19031713D01*
X4924986Y-19076942D01*
X5040905Y-19100000D01*
X5159095Y-19100000D01*
X5275014Y-19076942D01*
X5384207Y-19031713D01*
X5482478Y-18966050D01*
X5566050Y-18882478D01*
X5631713Y-18784207D01*
X5676942Y-18675014D01*
X5700000Y-18559095D01*
X5700000Y-18440905D01*
X5676942Y-18324986D01*
X5631713Y-18215793D01*
X5566050Y-18117522D01*
X5482478Y-18033950D01*
X5384207Y-17968287D01*
X5275014Y-17923058D01*
X5159095Y-17900000D01*
X5040905Y-17900000D01*
X4924986Y-17923058D01*
X4815793Y-17968287D01*
X4717522Y-18033950D01*
X4633950Y-18117522D01*
X4568287Y-18215793D01*
X4523058Y-18324986D01*
X4500000Y-18440905D01*
X2318540Y-18440905D01*
X2482070Y-15100000D01*
X3500000Y-15100000D01*
X3519509Y-15098079D01*
X3538268Y-15092388D01*
X3555557Y-15083147D01*
X3570711Y-15070711D01*
X4070711Y-14570711D01*
X4083147Y-14555557D01*
X4092388Y-14538268D01*
X4098079Y-14519509D01*
X4100000Y-14500000D01*
X4100000Y-12500000D01*
X4098079Y-12480491D01*
X4092388Y-12461732D01*
X4083147Y-12444443D01*
X4070711Y-12429289D01*
X3570711Y-11929289D01*
X3555557Y-11916853D01*
X3538268Y-11907612D01*
X3519509Y-11901921D01*
X3500000Y-11900000D01*
X2638702Y-11900000D01*
X2648515Y-11699516D01*
X2693790Y-11718269D01*
X2809709Y-11741327D01*
X2927899Y-11741327D01*
X3043818Y-11718269D01*
X3153011Y-11673040D01*
X3251282Y-11607377D01*
X3334854Y-11523805D01*
X3400517Y-11425534D01*
X3445746Y-11316341D01*
X3468804Y-11200422D01*
X3468804Y-11173551D01*
X3558478Y-11173551D01*
X3674397Y-11150493D01*
X3783590Y-11105264D01*
X3881861Y-11039601D01*
X3965433Y-10956029D01*
X4031096Y-10857758D01*
X4076325Y-10748565D01*
X4099383Y-10632646D01*
X4099383Y-10514456D01*
X4076325Y-10398537D01*
X4031096Y-10289344D01*
X3965433Y-10191073D01*
X3881861Y-10107501D01*
X3783590Y-10041838D01*
X3674397Y-9996609D01*
X3558478Y-9973551D01*
X3440288Y-9973551D01*
X3324369Y-9996609D01*
X3225196Y-10037688D01*
X3184413Y-10010437D01*
X3075220Y-9965208D01*
X2959301Y-9942150D01*
X2841111Y-9942150D01*
X2733486Y-9963558D01*
X2898569Y-6590905D01*
X4350000Y-6590905D01*
X4350000Y-6709095D01*
X4373058Y-6825014D01*
X4418287Y-6934207D01*
X4483950Y-7032478D01*
X4567522Y-7116050D01*
X4618331Y-7150000D01*
X4567522Y-7183950D01*
X4483950Y-7267522D01*
X4418287Y-7365793D01*
X4373058Y-7474986D01*
X4350000Y-7590905D01*
X4350000Y-7709095D01*
X4373058Y-7825014D01*
X4418287Y-7934207D01*
X4483950Y-8032478D01*
X4567522Y-8116050D01*
X4665793Y-8181713D01*
X4774986Y-8226942D01*
X4890905Y-8250000D01*
X5009095Y-8250000D01*
X5125014Y-8226942D01*
X5234207Y-8181713D01*
X5332478Y-8116050D01*
X5416050Y-8032478D01*
X5481713Y-7934207D01*
X5526942Y-7825014D01*
X5545633Y-7731049D01*
X5640905Y-7750000D01*
X5759095Y-7750000D01*
X5854367Y-7731049D01*
X5873058Y-7825014D01*
X5918287Y-7934207D01*
X5983950Y-8032478D01*
X6067522Y-8116050D01*
X6165793Y-8181713D01*
X6274986Y-8226942D01*
X6390905Y-8250000D01*
X6509095Y-8250000D01*
X6625014Y-8226942D01*
X6734207Y-8181713D01*
X6832478Y-8116050D01*
X6916050Y-8032478D01*
X6981713Y-7934207D01*
X7026942Y-7825014D01*
X7050000Y-7709095D01*
X7050000Y-7590905D01*
X7026942Y-7474986D01*
X6981713Y-7365793D01*
X6916050Y-7267522D01*
X6832478Y-7183950D01*
X6781669Y-7150000D01*
X6832478Y-7116050D01*
X6916050Y-7032478D01*
X6981713Y-6934207D01*
X7026942Y-6825014D01*
X7050000Y-6709095D01*
X7050000Y-6590905D01*
X7026942Y-6474986D01*
X6981713Y-6365793D01*
X6916050Y-6267522D01*
X6832478Y-6183950D01*
X6734207Y-6118287D01*
X6625014Y-6073058D01*
X6509095Y-6050000D01*
X6390905Y-6050000D01*
X6274986Y-6073058D01*
X6165793Y-6118287D01*
X6067522Y-6183950D01*
X5983950Y-6267522D01*
X5918287Y-6365793D01*
X5873058Y-6474986D01*
X5854367Y-6568951D01*
X5759095Y-6550000D01*
X5640905Y-6550000D01*
X5545633Y-6568951D01*
X5526942Y-6474986D01*
X5481713Y-6365793D01*
X5416050Y-6267522D01*
X5332478Y-6183950D01*
X5234207Y-6118287D01*
X5125014Y-6073058D01*
X5009095Y-6050000D01*
X4890905Y-6050000D01*
X4774986Y-6073058D01*
X4665793Y-6118287D01*
X4567522Y-6183950D01*
X4483950Y-6267522D01*
X4418287Y-6365793D01*
X4373058Y-6474986D01*
X4350000Y-6590905D01*
X2898569Y-6590905D01*
X3024222Y-4023827D01*
X3029861Y-3966311D01*
X3039644Y-3933910D01*
X3055537Y-3904018D01*
X3086690Y-3865822D01*
X5411607Y-1540905D01*
X6000000Y-1540905D01*
X6000000Y-1659095D01*
X6023058Y-1775014D01*
X6068287Y-1884207D01*
X6133950Y-1982478D01*
X6217522Y-2066050D01*
X6315793Y-2131713D01*
X6424986Y-2176942D01*
X6540905Y-2200000D01*
X6659095Y-2200000D01*
X6775014Y-2176942D01*
X6884207Y-2131713D01*
X6982478Y-2066050D01*
X7066050Y-1982478D01*
X7131713Y-1884207D01*
X7149649Y-1840905D01*
X9900000Y-1840905D01*
X9900000Y-1959095D01*
X9923058Y-2075014D01*
X9968287Y-2184207D01*
X10033950Y-2282478D01*
X10117522Y-2366050D01*
X10215793Y-2431713D01*
X10324986Y-2476942D01*
X10440905Y-2500000D01*
X10559095Y-2500000D01*
X10675014Y-2476942D01*
X10784207Y-2431713D01*
X10882478Y-2366050D01*
X10966050Y-2282478D01*
X10990033Y-2246584D01*
X12950000Y-2246584D01*
X12950000Y-2453416D01*
X12990350Y-2656274D01*
X13069502Y-2847362D01*
X13184411Y-3019336D01*
X13330664Y-3165589D01*
X13502638Y-3280498D01*
X13693726Y-3359650D01*
X13896584Y-3400000D01*
X14103416Y-3400000D01*
X14306274Y-3359650D01*
X14497362Y-3280498D01*
X14669336Y-3165589D01*
X14815589Y-3019336D01*
X14930498Y-2847362D01*
X14943528Y-2815905D01*
X19700000Y-2815905D01*
X19700000Y-2934095D01*
X19723058Y-3050014D01*
X19768287Y-3159207D01*
X19833950Y-3257478D01*
X19917522Y-3341050D01*
X20015793Y-3406713D01*
X20124986Y-3451942D01*
X20240905Y-3475000D01*
X20359095Y-3475000D01*
X20475014Y-3451942D01*
X20584207Y-3406713D01*
X20682478Y-3341050D01*
X20766050Y-3257478D01*
X20831713Y-3159207D01*
X20876942Y-3050014D01*
X20900000Y-2934095D01*
X20900000Y-2815905D01*
X20876942Y-2699986D01*
X20831713Y-2590793D01*
X20766050Y-2492522D01*
X20682478Y-2408950D01*
X20584207Y-2343287D01*
X20475014Y-2298058D01*
X20359095Y-2275000D01*
X20240905Y-2275000D01*
X20124986Y-2298058D01*
X20015793Y-2343287D01*
X19917522Y-2408950D01*
X19833950Y-2492522D01*
X19768287Y-2590793D01*
X19723058Y-2699986D01*
X19700000Y-2815905D01*
X14943528Y-2815905D01*
X15009650Y-2656274D01*
X15050000Y-2453416D01*
X15050000Y-2246584D01*
X15009650Y-2043726D01*
X14967060Y-1940905D01*
X16900000Y-1940905D01*
X16900000Y-2059095D01*
X16923058Y-2175014D01*
X16968287Y-2284207D01*
X17033950Y-2382478D01*
X17117522Y-2466050D01*
X17215793Y-2531713D01*
X17324986Y-2576942D01*
X17440905Y-2600000D01*
X17559095Y-2600000D01*
X17675014Y-2576942D01*
X17784207Y-2531713D01*
X17882478Y-2466050D01*
X17966050Y-2382478D01*
X18031713Y-2284207D01*
X18076942Y-2175014D01*
X18100000Y-2059095D01*
X18100000Y-1940905D01*
X18076942Y-1824986D01*
X18031713Y-1715793D01*
X17966050Y-1617522D01*
X17882478Y-1533950D01*
X17784207Y-1468287D01*
X17675014Y-1423058D01*
X17559095Y-1400000D01*
X17440905Y-1400000D01*
X17324986Y-1423058D01*
X17215793Y-1468287D01*
X17117522Y-1533950D01*
X17033950Y-1617522D01*
X16968287Y-1715793D01*
X16923058Y-1824986D01*
X16900000Y-1940905D01*
X14967060Y-1940905D01*
X14930498Y-1852638D01*
X14815589Y-1680664D01*
X14669336Y-1534411D01*
X14497362Y-1419502D01*
X14306274Y-1340350D01*
X14103416Y-1300000D01*
X13896584Y-1300000D01*
X13693726Y-1340350D01*
X13502638Y-1419502D01*
X13330664Y-1534411D01*
X13184411Y-1680664D01*
X13069502Y-1852638D01*
X12990350Y-2043726D01*
X12950000Y-2246584D01*
X10990033Y-2246584D01*
X11031713Y-2184207D01*
X11076942Y-2075014D01*
X11100000Y-1959095D01*
X11100000Y-1840905D01*
X11076942Y-1724986D01*
X11031713Y-1615793D01*
X10966050Y-1517522D01*
X10882478Y-1433950D01*
X10784207Y-1368287D01*
X10675014Y-1323058D01*
X10559095Y-1300000D01*
X10440905Y-1300000D01*
X10324986Y-1323058D01*
X10215793Y-1368287D01*
X10117522Y-1433950D01*
X10033950Y-1517522D01*
X9968287Y-1615793D01*
X9923058Y-1724986D01*
X9900000Y-1840905D01*
X7149649Y-1840905D01*
X7176942Y-1775014D01*
X7200000Y-1659095D01*
X7200000Y-1540905D01*
X7176942Y-1424986D01*
X7131713Y-1315793D01*
X7066050Y-1217522D01*
X6982478Y-1133950D01*
X6884207Y-1068287D01*
X6775014Y-1023058D01*
X6659095Y-1000000D01*
X6540905Y-1000000D01*
X6424986Y-1023058D01*
X6315793Y-1068287D01*
X6217522Y-1133950D01*
X6133950Y-1217522D01*
X6068287Y-1315793D01*
X6023058Y-1424986D01*
X6000000Y-1540905D01*
X5411607Y-1540905D01*
X6565016Y-387497D01*
X6603516Y-355873D01*
X6633348Y-339877D01*
X6665717Y-329981D01*
X6714754Y-325000D01*
X21284106Y-325000D01*
X21333689Y-329861D01*
G37*
G04 #@! TD.AperFunction*
G04 #@! TD*
D15*
X17500000Y-2000000D03*
X10500000Y-1900000D03*
X9600000Y-34400000D03*
X8300000Y-28700000D03*
X8300000Y-29500000D03*
X5900000Y-29500000D03*
X5900000Y-28700000D03*
X7100000Y-28700000D03*
X7100000Y-29500000D03*
X7100000Y-25000000D03*
X7100000Y-23400000D03*
X7100000Y-20500000D03*
X25600000Y-26400000D03*
X18700000Y-30900000D03*
X5100000Y-18500000D03*
X6600000Y-1600000D03*
X20300000Y-2875000D03*
X23500000Y-5700000D03*
X21700000Y-19400000D03*
X5300000Y-33000000D03*
X25000000Y-36250000D03*
X21750000Y-36400000D03*
X22200000Y-31900000D03*
X19200000Y-22800000D03*
X23222845Y-29687541D03*
X15500000Y-4800000D03*
X8643750Y-24956250D03*
X11000000Y-31200000D03*
X17976915Y-28223085D03*
X6000000Y-3500000D03*
X20431250Y-4868750D03*
X21500000Y-22800000D03*
X11600000Y-20500000D03*
X5500000Y-20500000D03*
X21500000Y-21500000D03*
X24600000Y-29300000D03*
X16600000Y-4800000D03*
X5200000Y-27125000D03*
X9100000Y-31300000D03*
X5000000Y-31000034D03*
X24887502Y-34787500D03*
D16*
X19400000Y-34700000D03*
X14000000Y-2350000D03*
X14000000Y-9350000D03*
D15*
X2718804Y-13791327D03*
X3349383Y-13223551D03*
X2750206Y-13192150D03*
X2868804Y-11141327D03*
X3499383Y-10573551D03*
X2900206Y-10542150D03*
X25099794Y-10542150D03*
X24500617Y-10573551D03*
X25131196Y-11141327D03*
X25249794Y-13192150D03*
X24650617Y-13223551D03*
X25281196Y-13791327D03*
X15200000Y-24200000D03*
X15200000Y-26300000D03*
X13000000Y-26300000D03*
X13000000Y-24200000D03*
X13000000Y-28400000D03*
X15200000Y-28400000D03*
X15700000Y-31200000D03*
X15700000Y-33300000D03*
X15700000Y-35400000D03*
X12500000Y-31200000D03*
X12500000Y-33300000D03*
X12500000Y-35400000D03*
D17*
X20350000Y-27600000D03*
X21350000Y-27600000D03*
X20350000Y-29100000D03*
X21350000Y-29100000D03*
X20850000Y-28350000D03*
X6450000Y-6650000D03*
X6450000Y-7650000D03*
X4950000Y-6650000D03*
X4950000Y-7650000D03*
X5700000Y-7150000D03*
X21650000Y-6700000D03*
X21650000Y-7700000D03*
X20150000Y-6700000D03*
X20150000Y-7700000D03*
X20900000Y-7200000D03*
M02*
