M48
METRIC
T1C0.300
T2C0.500
T3C0.750
T4C1.000
T5C1.100
%
G90
G05
T1
X7.6Y-11.4
X7.7Y-22.7
X7.8Y-15.2
X7.8Y-18.9
X8.0Y-6.5
X8.0Y-27.5
X10.65Y-27.4
X10.7Y-6.65
X11.3Y-11.95
X11.4Y-21.9
X13.4Y-12.9
X13.658Y-17.642
X14.0Y-11.0
X14.0Y-23.0
X14.6Y-15.9
X15.35Y-27.15
X15.5Y-6.85
X16.0Y-9.0
X16.35Y-18.925
X17.25Y-14.9
X18.35Y-17.3
X18.35Y-17.9
X18.35Y-18.5
X18.4Y-23.65
X18.59Y-10.01
X18.65Y-21.35
X20.4Y-13.8
X20.55Y-19.25
X20.659Y-18.449
X20.8Y-15.55
X22.3Y-19.15
X22.6Y-15.1
X23.6Y-21.5
X23.75Y-22.5
X24.9Y-15.1
X25.0Y-18.7
X25.25Y-11.0
X26.7Y-15.175
X26.9Y-18.7
X27.75Y-13.5
X29.3Y-15.35
X35.5Y-7.5
X35.5Y-26.5
X38.0Y-7.5
X38.0Y-26.5
T2
X32.5Y-17.0
T4
X22.1Y-17.1
X24.64Y-17.1
X27.18Y-17.1
X29.72Y-17.1
T3
G00X36.175Y-12.0
M15
G01X37.425Y-12.0
M16
G05
G00X34.475Y-15.2
M15
G01X35.725Y-15.2
M16
G05
G00X34.475Y-18.8
M15
G01X35.725Y-18.8
M16
G05
T5
G00X21.051Y-8.432
M15
G01X24.949Y-8.568
M16
G05
G00X21.151Y-25.568
M15
G01X25.049Y-25.432
M16
G05
T0
M30
