G04 #@! TF.GenerationSoftware,KiCad,Pcbnew,5.1.9-73d0e3b20d~88~ubuntu20.04.1*
G04 #@! TF.CreationDate,2021-05-11T15:43:56+03:00*
G04 #@! TF.ProjectId,differential-tweezer,64696666-6572-4656-9e74-69616c2d7477,rev?*
G04 #@! TF.SameCoordinates,Original*
G04 #@! TF.FileFunction,Copper,L1,Top*
G04 #@! TF.FilePolarity,Positive*
%FSLAX46Y46*%
G04 Gerber Fmt 4.6, Leading zero omitted, Abs format (unit mm)*
G04 Created by KiCad (PCBNEW 5.1.9-73d0e3b20d~88~ubuntu20.04.1) date 2021-05-11 15:43:56*
%MOMM*%
%LPD*%
G01*
G04 APERTURE LIST*
G04 #@! TA.AperFunction,ComponentPad*
%ADD10C,4.200000*%
G04 #@! TD*
G04 #@! TA.AperFunction,SMDPad,CuDef*
%ADD11R,3.200000X1.800000*%
G04 #@! TD*
G04 #@! TA.AperFunction,SMDPad,CuDef*
%ADD12R,2.000000X1.500000*%
G04 #@! TD*
G04 #@! TA.AperFunction,ComponentPad*
%ADD13C,0.600000*%
G04 #@! TD*
G04 #@! TA.AperFunction,SMDPad,CuDef*
%ADD14R,1.500000X2.000000*%
G04 #@! TD*
G04 #@! TA.AperFunction,SMDPad,CuDef*
%ADD15R,2.000000X2.000000*%
G04 #@! TD*
G04 #@! TA.AperFunction,SMDPad,CuDef*
%ADD16R,3.000000X5.000000*%
G04 #@! TD*
G04 #@! TA.AperFunction,SMDPad,CuDef*
%ADD17R,4.000000X5.000000*%
G04 #@! TD*
G04 #@! TA.AperFunction,SMDPad,CuDef*
%ADD18R,0.700000X0.600000*%
G04 #@! TD*
G04 #@! TA.AperFunction,SMDPad,CuDef*
%ADD19O,0.650000X0.400000*%
G04 #@! TD*
G04 #@! TA.AperFunction,SMDPad,CuDef*
%ADD20R,0.300000X0.400000*%
G04 #@! TD*
G04 #@! TA.AperFunction,SMDPad,CuDef*
%ADD21R,1.650000X2.400000*%
G04 #@! TD*
G04 #@! TA.AperFunction,SMDPad,CuDef*
%ADD22R,0.650000X1.000000*%
G04 #@! TD*
G04 #@! TA.AperFunction,SMDPad,CuDef*
%ADD23O,0.400000X0.650000*%
G04 #@! TD*
G04 #@! TA.AperFunction,SMDPad,CuDef*
%ADD24R,0.400000X0.300000*%
G04 #@! TD*
G04 #@! TA.AperFunction,SMDPad,CuDef*
%ADD25R,2.400000X1.650000*%
G04 #@! TD*
G04 #@! TA.AperFunction,SMDPad,CuDef*
%ADD26R,1.000000X0.650000*%
G04 #@! TD*
G04 #@! TA.AperFunction,SMDPad,CuDef*
%ADD27R,3.300000X1.700000*%
G04 #@! TD*
G04 #@! TA.AperFunction,SMDPad,CuDef*
%ADD28R,0.250000X0.700000*%
G04 #@! TD*
G04 #@! TA.AperFunction,SMDPad,CuDef*
%ADD29R,1.600000X1.500000*%
G04 #@! TD*
G04 #@! TA.AperFunction,SMDPad,CuDef*
%ADD30R,1.200000X1.200000*%
G04 #@! TD*
G04 #@! TA.AperFunction,SMDPad,CuDef*
%ADD31R,1.000000X0.850000*%
G04 #@! TD*
G04 #@! TA.AperFunction,ViaPad*
%ADD32C,0.600000*%
G04 #@! TD*
G04 #@! TA.AperFunction,Conductor*
%ADD33C,0.250000*%
G04 #@! TD*
G04 #@! TA.AperFunction,Conductor*
%ADD34C,0.400000*%
G04 #@! TD*
%ADD35C,0.300000*%
%ADD36C,0.350000*%
%ADD37C,0.250000*%
G04 APERTURE END LIST*
G04 #@! TO.P,R7,2*
G04 #@! TO.N,Net-(R12-Pad2)*
G04 #@! TA.AperFunction,SMDPad,CuDef*
G36*
G01*
X20350000Y-25543750D02*
X20350000Y-26056250D01*
G75*
G02*
X20131250Y-26275000I-218750J0D01*
G01*
X19693750Y-26275000D01*
G75*
G02*
X19475000Y-26056250I0J218750D01*
G01*
X19475000Y-25543750D01*
G75*
G02*
X19693750Y-25325000I218750J0D01*
G01*
X20131250Y-25325000D01*
G75*
G02*
X20350000Y-25543750I0J-218750D01*
G01*
G37*
G04 #@! TD.AperFunction*
G04 #@! TO.P,R7,1*
G04 #@! TO.N,/OFFSET_TRIM*
G04 #@! TA.AperFunction,SMDPad,CuDef*
G36*
G01*
X21925000Y-25543750D02*
X21925000Y-26056250D01*
G75*
G02*
X21706250Y-26275000I-218750J0D01*
G01*
X21268750Y-26275000D01*
G75*
G02*
X21050000Y-26056250I0J218750D01*
G01*
X21050000Y-25543750D01*
G75*
G02*
X21268750Y-25325000I218750J0D01*
G01*
X21706250Y-25325000D01*
G75*
G02*
X21925000Y-25543750I0J-218750D01*
G01*
G37*
G04 #@! TD.AperFunction*
G04 #@! TD*
G04 #@! TO.P,C10,2*
G04 #@! TO.N,GND*
G04 #@! TA.AperFunction,SMDPad,CuDef*
G36*
G01*
X24050000Y-26056250D02*
X24050000Y-25543750D01*
G75*
G02*
X24268750Y-25325000I218750J0D01*
G01*
X24706250Y-25325000D01*
G75*
G02*
X24925000Y-25543750I0J-218750D01*
G01*
X24925000Y-26056250D01*
G75*
G02*
X24706250Y-26275000I-218750J0D01*
G01*
X24268750Y-26275000D01*
G75*
G02*
X24050000Y-26056250I0J218750D01*
G01*
G37*
G04 #@! TD.AperFunction*
G04 #@! TO.P,C10,1*
G04 #@! TO.N,/OFFSET_TRIM*
G04 #@! TA.AperFunction,SMDPad,CuDef*
G36*
G01*
X22475000Y-26056250D02*
X22475000Y-25543750D01*
G75*
G02*
X22693750Y-25325000I218750J0D01*
G01*
X23131250Y-25325000D01*
G75*
G02*
X23350000Y-25543750I0J-218750D01*
G01*
X23350000Y-26056250D01*
G75*
G02*
X23131250Y-26275000I-218750J0D01*
G01*
X22693750Y-26275000D01*
G75*
G02*
X22475000Y-26056250I0J218750D01*
G01*
G37*
G04 #@! TD.AperFunction*
G04 #@! TD*
D10*
G04 #@! TO.P,H1,1*
G04 #@! TO.N,GND*
X19400000Y-34700000D03*
G04 #@! TD*
D11*
G04 #@! TO.P,SW1,4*
G04 #@! TO.N,N/C*
X19150000Y-17500000D03*
G04 #@! TO.P,SW1,3*
X8850000Y-17500000D03*
G04 #@! TO.P,SW1,2*
G04 #@! TO.N,Net-(R16-Pad1)*
X19150000Y-14900000D03*
G04 #@! TO.P,SW1,1*
G04 #@! TO.N,Net-(R17-Pad1)*
X8850000Y-14900000D03*
G04 #@! TD*
G04 #@! TO.P,R12,2*
G04 #@! TO.N,Net-(R12-Pad2)*
G04 #@! TA.AperFunction,SMDPad,CuDef*
G36*
G01*
X22150000Y-13343750D02*
X22150000Y-13856250D01*
G75*
G02*
X21931250Y-14075000I-218750J0D01*
G01*
X21493750Y-14075000D01*
G75*
G02*
X21275000Y-13856250I0J218750D01*
G01*
X21275000Y-13343750D01*
G75*
G02*
X21493750Y-13125000I218750J0D01*
G01*
X21931250Y-13125000D01*
G75*
G02*
X22150000Y-13343750I0J-218750D01*
G01*
G37*
G04 #@! TD.AperFunction*
G04 #@! TO.P,R12,1*
G04 #@! TO.N,/IN+*
G04 #@! TA.AperFunction,SMDPad,CuDef*
G36*
G01*
X23725000Y-13343750D02*
X23725000Y-13856250D01*
G75*
G02*
X23506250Y-14075000I-218750J0D01*
G01*
X23068750Y-14075000D01*
G75*
G02*
X22850000Y-13856250I0J218750D01*
G01*
X22850000Y-13343750D01*
G75*
G02*
X23068750Y-13125000I218750J0D01*
G01*
X23506250Y-13125000D01*
G75*
G02*
X23725000Y-13343750I0J-218750D01*
G01*
G37*
G04 #@! TD.AperFunction*
G04 #@! TD*
G04 #@! TO.P,L8,2*
G04 #@! TO.N,-6V*
G04 #@! TA.AperFunction,SMDPad,CuDef*
G36*
G01*
X3606250Y-21600000D02*
X3093750Y-21600000D01*
G75*
G02*
X2875000Y-21381250I0J218750D01*
G01*
X2875000Y-20943750D01*
G75*
G02*
X3093750Y-20725000I218750J0D01*
G01*
X3606250Y-20725000D01*
G75*
G02*
X3825000Y-20943750I0J-218750D01*
G01*
X3825000Y-21381250D01*
G75*
G02*
X3606250Y-21600000I-218750J0D01*
G01*
G37*
G04 #@! TD.AperFunction*
G04 #@! TO.P,L8,1*
G04 #@! TO.N,Net-(C9-Pad1)*
G04 #@! TA.AperFunction,SMDPad,CuDef*
G36*
G01*
X3606250Y-23175000D02*
X3093750Y-23175000D01*
G75*
G02*
X2875000Y-22956250I0J218750D01*
G01*
X2875000Y-22518750D01*
G75*
G02*
X3093750Y-22300000I218750J0D01*
G01*
X3606250Y-22300000D01*
G75*
G02*
X3825000Y-22518750I0J-218750D01*
G01*
X3825000Y-22956250D01*
G75*
G02*
X3606250Y-23175000I-218750J0D01*
G01*
G37*
G04 #@! TD.AperFunction*
G04 #@! TD*
G04 #@! TO.P,L7,2*
G04 #@! TO.N,+6V*
G04 #@! TA.AperFunction,SMDPad,CuDef*
G36*
G01*
X11106250Y-21600000D02*
X10593750Y-21600000D01*
G75*
G02*
X10375000Y-21381250I0J218750D01*
G01*
X10375000Y-20943750D01*
G75*
G02*
X10593750Y-20725000I218750J0D01*
G01*
X11106250Y-20725000D01*
G75*
G02*
X11325000Y-20943750I0J-218750D01*
G01*
X11325000Y-21381250D01*
G75*
G02*
X11106250Y-21600000I-218750J0D01*
G01*
G37*
G04 #@! TD.AperFunction*
G04 #@! TO.P,L7,1*
G04 #@! TO.N,Net-(C8-Pad1)*
G04 #@! TA.AperFunction,SMDPad,CuDef*
G36*
G01*
X11106250Y-23175000D02*
X10593750Y-23175000D01*
G75*
G02*
X10375000Y-22956250I0J218750D01*
G01*
X10375000Y-22518750D01*
G75*
G02*
X10593750Y-22300000I218750J0D01*
G01*
X11106250Y-22300000D01*
G75*
G02*
X11325000Y-22518750I0J-218750D01*
G01*
X11325000Y-22956250D01*
G75*
G02*
X11106250Y-23175000I-218750J0D01*
G01*
G37*
G04 #@! TD.AperFunction*
G04 #@! TD*
G04 #@! TO.P,L1,2*
G04 #@! TO.N,Net-(C2-Pad1)*
G04 #@! TA.AperFunction,SMDPad,CuDef*
G36*
G01*
X25856250Y-33650000D02*
X25343750Y-33650000D01*
G75*
G02*
X25125000Y-33431250I0J218750D01*
G01*
X25125000Y-32993750D01*
G75*
G02*
X25343750Y-32775000I218750J0D01*
G01*
X25856250Y-32775000D01*
G75*
G02*
X26075000Y-32993750I0J-218750D01*
G01*
X26075000Y-33431250D01*
G75*
G02*
X25856250Y-33650000I-218750J0D01*
G01*
G37*
G04 #@! TD.AperFunction*
G04 #@! TO.P,L1,1*
G04 #@! TO.N,+5V*
G04 #@! TA.AperFunction,SMDPad,CuDef*
G36*
G01*
X25856250Y-35225000D02*
X25343750Y-35225000D01*
G75*
G02*
X25125000Y-35006250I0J218750D01*
G01*
X25125000Y-34568750D01*
G75*
G02*
X25343750Y-34350000I218750J0D01*
G01*
X25856250Y-34350000D01*
G75*
G02*
X26075000Y-34568750I0J-218750D01*
G01*
X26075000Y-35006250D01*
G75*
G02*
X25856250Y-35225000I-218750J0D01*
G01*
G37*
G04 #@! TD.AperFunction*
G04 #@! TD*
D12*
G04 #@! TO.P,J2,R2*
G04 #@! TO.N,GND*
X17500000Y-1950000D03*
G04 #@! TO.P,J2,T*
G04 #@! TO.N,/CONN_IN+*
X17500000Y-9150000D03*
G04 #@! TO.P,J2,TN*
G04 #@! TO.N,N/C*
X17500000Y-11350000D03*
G04 #@! TO.P,J2,S*
G04 #@! TO.N,GND*
X10500000Y-1950000D03*
G04 #@! TO.P,J2,R1*
G04 #@! TO.N,/CONN_IN-*
X10500000Y-5350000D03*
G04 #@! TO.P,J2,R1N*
G04 #@! TO.N,N/C*
X10500000Y-10850000D03*
G04 #@! TD*
G04 #@! TO.P,J6,1*
G04 #@! TO.N,/IN-*
G04 #@! TA.AperFunction,SMDPad,CuDef*
G36*
G01*
X3759302Y-13044760D02*
X3738367Y-13444212D01*
G75*
G02*
X3685819Y-13491526I-49931J2617D01*
G01*
X3585956Y-13486292D01*
G75*
G02*
X3538642Y-13433744I2617J49931D01*
G01*
X3559577Y-13034292D01*
G75*
G02*
X3612125Y-12986978I49931J-2617D01*
G01*
X3711988Y-12992212D01*
G75*
G02*
X3759302Y-13044760I-2617J-49931D01*
G01*
G37*
G04 #@! TD.AperFunction*
G04 #@! TA.AperFunction,SMDPad,CuDef*
G36*
G01*
X2868386Y-12847863D02*
X3267838Y-12868798D01*
G75*
G02*
X3315152Y-12921346I-2617J-49931D01*
G01*
X3309918Y-13021209D01*
G75*
G02*
X3257370Y-13068523I-49931J2617D01*
G01*
X2857918Y-13047588D01*
G75*
G02*
X2810604Y-12995040I2617J49931D01*
G01*
X2815838Y-12895177D01*
G75*
G02*
X2868386Y-12847863I49931J-2617D01*
G01*
G37*
G04 #@! TD.AperFunction*
G04 #@! TA.AperFunction,SMDPad,CuDef*
G36*
G01*
X2978928Y-13604685D02*
X2579476Y-13583750D01*
G75*
G02*
X2532162Y-13531202I2617J49931D01*
G01*
X2537396Y-13431339D01*
G75*
G02*
X2589944Y-13384025I49931J-2617D01*
G01*
X2989396Y-13404960D01*
G75*
G02*
X3036710Y-13457508I-2617J-49931D01*
G01*
X3031476Y-13557371D01*
G75*
G02*
X2978928Y-13604685I-49931J2617D01*
G01*
G37*
G04 #@! TD.AperFunction*
G04 #@! TA.AperFunction,SMDPad,CuDef*
G36*
G01*
X2950143Y-14153932D02*
X2550691Y-14132997D01*
G75*
G02*
X2503377Y-14080449I2617J49931D01*
G01*
X2508611Y-13980586D01*
G75*
G02*
X2561159Y-13933272I49931J-2617D01*
G01*
X2960611Y-13954207D01*
G75*
G02*
X3007925Y-14006755I-2617J-49931D01*
G01*
X3002691Y-14106618D01*
G75*
G02*
X2950143Y-14153932I-49931J2617D01*
G01*
G37*
G04 #@! TD.AperFunction*
D13*
X2718804Y-13791327D03*
X3349383Y-13223551D03*
X2750206Y-13192150D03*
G04 #@! TA.AperFunction,SMDPad,CuDef*
G36*
G01*
X2925178Y-14152623D02*
X2575657Y-14134305D01*
G75*
G02*
X2410056Y-13950386I9159J174760D01*
G01*
X2459775Y-13001688D01*
G75*
G02*
X2643694Y-12836087I174760J-9159D01*
G01*
X2993215Y-12854405D01*
G75*
G02*
X3158816Y-13038324I-9159J-174760D01*
G01*
X3109097Y-13987022D01*
G75*
G02*
X2925178Y-14152623I-174760J9159D01*
G01*
G37*
G04 #@! TD.AperFunction*
G04 #@! TA.AperFunction,SMDPad,CuDef*
G36*
G01*
X2441458Y-13351209D02*
X2459776Y-13001688D01*
G75*
G02*
X2643695Y-12836087I174760J-9159D01*
G01*
X3592393Y-12885806D01*
G75*
G02*
X3757994Y-13069725I-9159J-174760D01*
G01*
X3739676Y-13419246D01*
G75*
G02*
X3555757Y-13584847I-174760J9159D01*
G01*
X2607059Y-13535128D01*
G75*
G02*
X2441458Y-13351209I9159J174760D01*
G01*
G37*
G04 #@! TD.AperFunction*
G04 #@! TD*
G04 #@! TO.P,J5,1*
G04 #@! TO.N,GND*
G04 #@! TA.AperFunction,SMDPad,CuDef*
G36*
G01*
X3909302Y-10394760D02*
X3888367Y-10794212D01*
G75*
G02*
X3835819Y-10841526I-49931J2617D01*
G01*
X3735956Y-10836292D01*
G75*
G02*
X3688642Y-10783744I2617J49931D01*
G01*
X3709577Y-10384292D01*
G75*
G02*
X3762125Y-10336978I49931J-2617D01*
G01*
X3861988Y-10342212D01*
G75*
G02*
X3909302Y-10394760I-2617J-49931D01*
G01*
G37*
G04 #@! TD.AperFunction*
G04 #@! TA.AperFunction,SMDPad,CuDef*
G36*
G01*
X3018386Y-10197863D02*
X3417838Y-10218798D01*
G75*
G02*
X3465152Y-10271346I-2617J-49931D01*
G01*
X3459918Y-10371209D01*
G75*
G02*
X3407370Y-10418523I-49931J2617D01*
G01*
X3007918Y-10397588D01*
G75*
G02*
X2960604Y-10345040I2617J49931D01*
G01*
X2965838Y-10245177D01*
G75*
G02*
X3018386Y-10197863I49931J-2617D01*
G01*
G37*
G04 #@! TD.AperFunction*
G04 #@! TA.AperFunction,SMDPad,CuDef*
G36*
G01*
X3128928Y-10954685D02*
X2729476Y-10933750D01*
G75*
G02*
X2682162Y-10881202I2617J49931D01*
G01*
X2687396Y-10781339D01*
G75*
G02*
X2739944Y-10734025I49931J-2617D01*
G01*
X3139396Y-10754960D01*
G75*
G02*
X3186710Y-10807508I-2617J-49931D01*
G01*
X3181476Y-10907371D01*
G75*
G02*
X3128928Y-10954685I-49931J2617D01*
G01*
G37*
G04 #@! TD.AperFunction*
G04 #@! TA.AperFunction,SMDPad,CuDef*
G36*
G01*
X3100143Y-11503932D02*
X2700691Y-11482997D01*
G75*
G02*
X2653377Y-11430449I2617J49931D01*
G01*
X2658611Y-11330586D01*
G75*
G02*
X2711159Y-11283272I49931J-2617D01*
G01*
X3110611Y-11304207D01*
G75*
G02*
X3157925Y-11356755I-2617J-49931D01*
G01*
X3152691Y-11456618D01*
G75*
G02*
X3100143Y-11503932I-49931J2617D01*
G01*
G37*
G04 #@! TD.AperFunction*
X2868804Y-11141327D03*
X3499383Y-10573551D03*
X2900206Y-10542150D03*
G04 #@! TA.AperFunction,SMDPad,CuDef*
G36*
G01*
X3075178Y-11502623D02*
X2725657Y-11484305D01*
G75*
G02*
X2560056Y-11300386I9159J174760D01*
G01*
X2609775Y-10351688D01*
G75*
G02*
X2793694Y-10186087I174760J-9159D01*
G01*
X3143215Y-10204405D01*
G75*
G02*
X3308816Y-10388324I-9159J-174760D01*
G01*
X3259097Y-11337022D01*
G75*
G02*
X3075178Y-11502623I-174760J9159D01*
G01*
G37*
G04 #@! TD.AperFunction*
G04 #@! TA.AperFunction,SMDPad,CuDef*
G36*
G01*
X2591458Y-10701209D02*
X2609776Y-10351688D01*
G75*
G02*
X2793695Y-10186087I174760J-9159D01*
G01*
X3742393Y-10235806D01*
G75*
G02*
X3907994Y-10419725I-9159J-174760D01*
G01*
X3889676Y-10769246D01*
G75*
G02*
X3705757Y-10934847I-174760J9159D01*
G01*
X2757059Y-10885128D01*
G75*
G02*
X2591458Y-10701209I9159J174760D01*
G01*
G37*
G04 #@! TD.AperFunction*
G04 #@! TD*
G04 #@! TO.P,J4,1*
G04 #@! TO.N,GND*
G04 #@! TA.AperFunction,SMDPad,CuDef*
G36*
G01*
X25299309Y-11482997D02*
X24899857Y-11503932D01*
G75*
G02*
X24847309Y-11456618I-2617J49931D01*
G01*
X24842075Y-11356755D01*
G75*
G02*
X24889389Y-11304207I49931J2617D01*
G01*
X25288841Y-11283272D01*
G75*
G02*
X25341389Y-11330586I2617J-49931D01*
G01*
X25346623Y-11430449D01*
G75*
G02*
X25299309Y-11482997I-49931J-2617D01*
G01*
G37*
G04 #@! TD.AperFunction*
G04 #@! TA.AperFunction,SMDPad,CuDef*
G36*
G01*
X25270524Y-10933750D02*
X24871072Y-10954685D01*
G75*
G02*
X24818524Y-10907371I-2617J49931D01*
G01*
X24813290Y-10807508D01*
G75*
G02*
X24860604Y-10754960I49931J2617D01*
G01*
X25260056Y-10734025D01*
G75*
G02*
X25312604Y-10781339I2617J-49931D01*
G01*
X25317838Y-10881202D01*
G75*
G02*
X25270524Y-10933750I-49931J-2617D01*
G01*
G37*
G04 #@! TD.AperFunction*
G04 #@! TA.AperFunction,SMDPad,CuDef*
G36*
G01*
X24111633Y-10794212D02*
X24090698Y-10394760D01*
G75*
G02*
X24138012Y-10342212I49931J2617D01*
G01*
X24237875Y-10336978D01*
G75*
G02*
X24290423Y-10384292I2617J-49931D01*
G01*
X24311358Y-10783744D01*
G75*
G02*
X24264044Y-10836292I-49931J-2617D01*
G01*
X24164181Y-10841526D01*
G75*
G02*
X24111633Y-10794212I-2617J49931D01*
G01*
G37*
G04 #@! TD.AperFunction*
G04 #@! TA.AperFunction,SMDPad,CuDef*
G36*
G01*
X24821352Y-10005988D02*
X25220804Y-9985053D01*
G75*
G02*
X25273352Y-10032367I2617J-49931D01*
G01*
X25278586Y-10132230D01*
G75*
G02*
X25231272Y-10184778I-49931J-2617D01*
G01*
X24831820Y-10205713D01*
G75*
G02*
X24779272Y-10158399I-2617J49931D01*
G01*
X24774038Y-10058536D01*
G75*
G02*
X24821352Y-10005988I49931J2617D01*
G01*
G37*
G04 #@! TD.AperFunction*
G04 #@! TA.AperFunction,SMDPad,CuDef*
G36*
G01*
X24891016Y-9902199D02*
X25140673Y-9889115D01*
G75*
G02*
X25272044Y-10007402I6542J-124829D01*
G01*
X25295595Y-10456786D01*
G75*
G02*
X25177308Y-10588157I-124829J-6542D01*
G01*
X24927651Y-10601241D01*
G75*
G02*
X24796280Y-10482954I-6542J124829D01*
G01*
X24772729Y-10033570D01*
G75*
G02*
X24891016Y-9902199I124829J6542D01*
G01*
G37*
G04 #@! TD.AperFunction*
G04 #@! TA.AperFunction,SMDPad,CuDef*
G36*
G01*
X24110324Y-10769246D02*
X24092006Y-10419725D01*
G75*
G02*
X24257607Y-10235806I174760J9159D01*
G01*
X25206305Y-10186087D01*
G75*
G02*
X25390224Y-10351688I9159J-174760D01*
G01*
X25408542Y-10701209D01*
G75*
G02*
X25242941Y-10885128I-174760J-9159D01*
G01*
X24294243Y-10934847D01*
G75*
G02*
X24110324Y-10769246I-9159J174760D01*
G01*
G37*
G04 #@! TD.AperFunction*
G04 #@! TA.AperFunction,SMDPad,CuDef*
G36*
G01*
X24856785Y-10204405D02*
X25206306Y-10186087D01*
G75*
G02*
X25390225Y-10351688I9159J-174760D01*
G01*
X25439944Y-11300386D01*
G75*
G02*
X25274343Y-11484305I-174760J-9159D01*
G01*
X24924822Y-11502623D01*
G75*
G02*
X24740903Y-11337022I-9159J174760D01*
G01*
X24691184Y-10388324D01*
G75*
G02*
X24856785Y-10204405I174760J9159D01*
G01*
G37*
G04 #@! TD.AperFunction*
X25099794Y-10542150D03*
X24500617Y-10573551D03*
X25131196Y-11141327D03*
G04 #@! TD*
G04 #@! TO.P,J3,1*
G04 #@! TO.N,/IN+*
G04 #@! TA.AperFunction,SMDPad,CuDef*
G36*
G01*
X25449309Y-14132997D02*
X25049857Y-14153932D01*
G75*
G02*
X24997309Y-14106618I-2617J49931D01*
G01*
X24992075Y-14006755D01*
G75*
G02*
X25039389Y-13954207I49931J2617D01*
G01*
X25438841Y-13933272D01*
G75*
G02*
X25491389Y-13980586I2617J-49931D01*
G01*
X25496623Y-14080449D01*
G75*
G02*
X25449309Y-14132997I-49931J-2617D01*
G01*
G37*
G04 #@! TD.AperFunction*
G04 #@! TA.AperFunction,SMDPad,CuDef*
G36*
G01*
X25420524Y-13583750D02*
X25021072Y-13604685D01*
G75*
G02*
X24968524Y-13557371I-2617J49931D01*
G01*
X24963290Y-13457508D01*
G75*
G02*
X25010604Y-13404960I49931J2617D01*
G01*
X25410056Y-13384025D01*
G75*
G02*
X25462604Y-13431339I2617J-49931D01*
G01*
X25467838Y-13531202D01*
G75*
G02*
X25420524Y-13583750I-49931J-2617D01*
G01*
G37*
G04 #@! TD.AperFunction*
G04 #@! TA.AperFunction,SMDPad,CuDef*
G36*
G01*
X24261633Y-13444212D02*
X24240698Y-13044760D01*
G75*
G02*
X24288012Y-12992212I49931J2617D01*
G01*
X24387875Y-12986978D01*
G75*
G02*
X24440423Y-13034292I2617J-49931D01*
G01*
X24461358Y-13433744D01*
G75*
G02*
X24414044Y-13486292I-49931J-2617D01*
G01*
X24314181Y-13491526D01*
G75*
G02*
X24261633Y-13444212I-2617J49931D01*
G01*
G37*
G04 #@! TD.AperFunction*
G04 #@! TA.AperFunction,SMDPad,CuDef*
G36*
G01*
X24971352Y-12655988D02*
X25370804Y-12635053D01*
G75*
G02*
X25423352Y-12682367I2617J-49931D01*
G01*
X25428586Y-12782230D01*
G75*
G02*
X25381272Y-12834778I-49931J-2617D01*
G01*
X24981820Y-12855713D01*
G75*
G02*
X24929272Y-12808399I-2617J49931D01*
G01*
X24924038Y-12708536D01*
G75*
G02*
X24971352Y-12655988I49931J2617D01*
G01*
G37*
G04 #@! TD.AperFunction*
G04 #@! TA.AperFunction,SMDPad,CuDef*
G36*
G01*
X25041016Y-12552199D02*
X25290673Y-12539115D01*
G75*
G02*
X25422044Y-12657402I6542J-124829D01*
G01*
X25445595Y-13106786D01*
G75*
G02*
X25327308Y-13238157I-124829J-6542D01*
G01*
X25077651Y-13251241D01*
G75*
G02*
X24946280Y-13132954I-6542J124829D01*
G01*
X24922729Y-12683570D01*
G75*
G02*
X25041016Y-12552199I124829J6542D01*
G01*
G37*
G04 #@! TD.AperFunction*
G04 #@! TA.AperFunction,SMDPad,CuDef*
G36*
G01*
X24260324Y-13419246D02*
X24242006Y-13069725D01*
G75*
G02*
X24407607Y-12885806I174760J9159D01*
G01*
X25356305Y-12836087D01*
G75*
G02*
X25540224Y-13001688I9159J-174760D01*
G01*
X25558542Y-13351209D01*
G75*
G02*
X25392941Y-13535128I-174760J-9159D01*
G01*
X24444243Y-13584847D01*
G75*
G02*
X24260324Y-13419246I-9159J174760D01*
G01*
G37*
G04 #@! TD.AperFunction*
G04 #@! TA.AperFunction,SMDPad,CuDef*
G36*
G01*
X25006785Y-12854405D02*
X25356306Y-12836087D01*
G75*
G02*
X25540225Y-13001688I9159J-174760D01*
G01*
X25589944Y-13950386D01*
G75*
G02*
X25424343Y-14134305I-174760J-9159D01*
G01*
X25074822Y-14152623D01*
G75*
G02*
X24890903Y-13987022I-9159J174760D01*
G01*
X24841184Y-13038324D01*
G75*
G02*
X25006785Y-12854405I174760J9159D01*
G01*
G37*
G04 #@! TD.AperFunction*
X25249794Y-13192150D03*
X24650617Y-13223551D03*
X25281196Y-13791327D03*
G04 #@! TD*
D14*
G04 #@! TO.P,J1,2*
G04 #@! TO.N,GND*
X14100000Y-24800000D03*
X14100000Y-27800000D03*
D15*
G04 #@! TO.P,J1,3*
G04 #@! TO.N,+5V*
X14100000Y-31800000D03*
D13*
G04 #@! TO.P,J1,2*
G04 #@! TO.N,GND*
X15200000Y-24200000D03*
X15200000Y-26300000D03*
X13000000Y-26300000D03*
X13000000Y-24200000D03*
X13000000Y-28400000D03*
X15200000Y-28400000D03*
G04 #@! TO.P,J1,3*
G04 #@! TO.N,+5V*
X15700000Y-31200000D03*
X15700000Y-33300000D03*
X15700000Y-35400000D03*
X12500000Y-31200000D03*
X12500000Y-33300000D03*
X12500000Y-35400000D03*
D15*
X14100000Y-34800000D03*
D16*
G04 #@! TO.P,J1,2*
G04 #@! TO.N,GND*
X14100000Y-26300000D03*
D17*
G04 #@! TO.P,J1,3*
G04 #@! TO.N,+5V*
X14100000Y-33300000D03*
G04 #@! TO.P,J1,1*
G04 #@! TO.N,/OUT*
G04 #@! TA.AperFunction,SMDPad,CuDef*
G36*
G01*
X14475000Y-22300000D02*
X13725000Y-22300000D01*
G75*
G02*
X13350000Y-21925000I0J375000D01*
G01*
X13350000Y-20675000D01*
G75*
G02*
X13725000Y-20300000I375000J0D01*
G01*
X14475000Y-20300000D01*
G75*
G02*
X14850000Y-20675000I0J-375000D01*
G01*
X14850000Y-21925000D01*
G75*
G02*
X14475000Y-22300000I-375000J0D01*
G01*
G37*
G04 #@! TD.AperFunction*
G04 #@! TD*
G04 #@! TO.P,R15,2*
G04 #@! TO.N,Net-(R15-Pad2)*
G04 #@! TA.AperFunction,SMDPad,CuDef*
G36*
G01*
X6150000Y-10406250D02*
X6150000Y-9893750D01*
G75*
G02*
X6368750Y-9675000I218750J0D01*
G01*
X6806250Y-9675000D01*
G75*
G02*
X7025000Y-9893750I0J-218750D01*
G01*
X7025000Y-10406250D01*
G75*
G02*
X6806250Y-10625000I-218750J0D01*
G01*
X6368750Y-10625000D01*
G75*
G02*
X6150000Y-10406250I0J218750D01*
G01*
G37*
G04 #@! TD.AperFunction*
G04 #@! TO.P,R15,1*
G04 #@! TO.N,Net-(R15-Pad1)*
G04 #@! TA.AperFunction,SMDPad,CuDef*
G36*
G01*
X4575000Y-10406250D02*
X4575000Y-9893750D01*
G75*
G02*
X4793750Y-9675000I218750J0D01*
G01*
X5231250Y-9675000D01*
G75*
G02*
X5450000Y-9893750I0J-218750D01*
G01*
X5450000Y-10406250D01*
G75*
G02*
X5231250Y-10625000I-218750J0D01*
G01*
X4793750Y-10625000D01*
G75*
G02*
X4575000Y-10406250I0J218750D01*
G01*
G37*
G04 #@! TD.AperFunction*
G04 #@! TD*
G04 #@! TO.P,C26,2*
G04 #@! TO.N,GND*
G04 #@! TA.AperFunction,SMDPad,CuDef*
G36*
G01*
X8643750Y-33250000D02*
X9156250Y-33250000D01*
G75*
G02*
X9375000Y-33468750I0J-218750D01*
G01*
X9375000Y-33906250D01*
G75*
G02*
X9156250Y-34125000I-218750J0D01*
G01*
X8643750Y-34125000D01*
G75*
G02*
X8425000Y-33906250I0J218750D01*
G01*
X8425000Y-33468750D01*
G75*
G02*
X8643750Y-33250000I218750J0D01*
G01*
G37*
G04 #@! TD.AperFunction*
G04 #@! TO.P,C26,1*
G04 #@! TO.N,Net-(C26-Pad1)*
G04 #@! TA.AperFunction,SMDPad,CuDef*
G36*
G01*
X8643750Y-31675000D02*
X9156250Y-31675000D01*
G75*
G02*
X9375000Y-31893750I0J-218750D01*
G01*
X9375000Y-32331250D01*
G75*
G02*
X9156250Y-32550000I-218750J0D01*
G01*
X8643750Y-32550000D01*
G75*
G02*
X8425000Y-32331250I0J218750D01*
G01*
X8425000Y-31893750D01*
G75*
G02*
X8643750Y-31675000I218750J0D01*
G01*
G37*
G04 #@! TD.AperFunction*
G04 #@! TD*
D18*
G04 #@! TO.P,D2,1*
G04 #@! TO.N,Net-(C6-Pad1)*
X10800000Y-24500000D03*
G04 #@! TO.P,D2,2*
G04 #@! TO.N,Net-(D2-Pad2)*
X10800000Y-25900000D03*
G04 #@! TD*
G04 #@! TO.P,D1,1*
G04 #@! TO.N,Net-(D1-Pad1)*
X3400000Y-25900000D03*
G04 #@! TO.P,D1,2*
G04 #@! TO.N,Net-(C7-Pad1)*
X3400000Y-24500000D03*
G04 #@! TD*
D19*
G04 #@! TO.P,U4,8*
G04 #@! TO.N,Net-(U4-Pad8)*
X19300000Y-29325000D03*
G04 #@! TO.P,U4,7*
G04 #@! TO.N,+6V*
X19300000Y-28675000D03*
D20*
G04 #@! TO.P,U4,6*
G04 #@! TO.N,Net-(C19-Pad1)*
X19100000Y-28025000D03*
G04 #@! TO.P,U4,5*
G04 #@! TO.N,Net-(U4-Pad5)*
X19100000Y-27375000D03*
G04 #@! TO.P,U4,4*
G04 #@! TO.N,-6V*
X22600000Y-27375000D03*
D19*
G04 #@! TO.P,U4,3*
G04 #@! TO.N,Net-(R18-Pad2)*
X22400000Y-28025000D03*
D20*
G04 #@! TO.P,U4,2*
G04 #@! TO.N,Net-(C19-Pad2)*
X22600000Y-28675000D03*
G04 #@! TO.P,U4,1*
G04 #@! TO.N,Net-(U4-Pad1)*
X22600000Y-29325000D03*
D21*
G04 #@! TO.P,U4,9*
G04 #@! TO.N,-6V*
X20850000Y-28350000D03*
D22*
X20400000Y-27725000D03*
X21300000Y-27725000D03*
X20400000Y-28975000D03*
X21300000Y-28975000D03*
D13*
X20350000Y-27600000D03*
X21350000Y-27600000D03*
X20350000Y-29100000D03*
X21350000Y-29100000D03*
X20850000Y-28350000D03*
D20*
G04 #@! TO.P,U4,8*
G04 #@! TO.N,Net-(U4-Pad8)*
X19100000Y-29325000D03*
G04 #@! TO.P,U4,7*
G04 #@! TO.N,+6V*
X19100000Y-28675000D03*
D19*
G04 #@! TO.P,U4,6*
G04 #@! TO.N,Net-(C19-Pad1)*
X19300000Y-28025000D03*
G04 #@! TO.P,U4,5*
G04 #@! TO.N,Net-(U4-Pad5)*
X19300000Y-27375000D03*
G04 #@! TO.P,U4,4*
G04 #@! TO.N,-6V*
X22400000Y-27375000D03*
D20*
G04 #@! TO.P,U4,3*
G04 #@! TO.N,Net-(R18-Pad2)*
X22600000Y-28025000D03*
D19*
G04 #@! TO.P,U4,2*
G04 #@! TO.N,Net-(C19-Pad2)*
X22400000Y-28675000D03*
G04 #@! TO.P,U4,1*
G04 #@! TO.N,Net-(U4-Pad1)*
X22400000Y-29325000D03*
G04 #@! TD*
D23*
G04 #@! TO.P,U3,8*
G04 #@! TO.N,Net-(U3-Pad8)*
X4725000Y-5600000D03*
G04 #@! TO.P,U3,7*
G04 #@! TO.N,+6V*
X5375000Y-5600000D03*
D24*
G04 #@! TO.P,U3,6*
G04 #@! TO.N,Net-(R15-Pad2)*
X6025000Y-5400000D03*
G04 #@! TO.P,U3,5*
G04 #@! TO.N,Net-(U3-Pad5)*
X6675000Y-5400000D03*
G04 #@! TO.P,U3,4*
G04 #@! TO.N,-6V*
X6675000Y-8900000D03*
D23*
G04 #@! TO.P,U3,3*
G04 #@! TO.N,/IN-*
X6025000Y-8700000D03*
D24*
G04 #@! TO.P,U3,2*
G04 #@! TO.N,Net-(R15-Pad1)*
X5375000Y-8900000D03*
G04 #@! TO.P,U3,1*
G04 #@! TO.N,Net-(U3-Pad1)*
X4725000Y-8900000D03*
D25*
G04 #@! TO.P,U3,9*
G04 #@! TO.N,-6V*
X5700000Y-7150000D03*
D26*
X6325000Y-6700000D03*
X6325000Y-7600000D03*
X5075000Y-6700000D03*
X5075000Y-7600000D03*
D13*
X6450000Y-6650000D03*
X6450000Y-7650000D03*
X4950000Y-6650000D03*
X4950000Y-7650000D03*
X5700000Y-7150000D03*
D24*
G04 #@! TO.P,U3,8*
G04 #@! TO.N,Net-(U3-Pad8)*
X4725000Y-5400000D03*
G04 #@! TO.P,U3,7*
G04 #@! TO.N,+6V*
X5375000Y-5400000D03*
D23*
G04 #@! TO.P,U3,6*
G04 #@! TO.N,Net-(R15-Pad2)*
X6025000Y-5600000D03*
G04 #@! TO.P,U3,5*
G04 #@! TO.N,Net-(U3-Pad5)*
X6675000Y-5600000D03*
G04 #@! TO.P,U3,4*
G04 #@! TO.N,-6V*
X6675000Y-8700000D03*
D24*
G04 #@! TO.P,U3,3*
G04 #@! TO.N,/IN-*
X6025000Y-8900000D03*
D23*
G04 #@! TO.P,U3,2*
G04 #@! TO.N,Net-(R15-Pad1)*
X5375000Y-8700000D03*
G04 #@! TO.P,U3,1*
G04 #@! TO.N,Net-(U3-Pad1)*
X4725000Y-8700000D03*
G04 #@! TD*
G04 #@! TO.P,U2,8*
G04 #@! TO.N,Net-(U2-Pad8)*
X19925000Y-5650000D03*
G04 #@! TO.P,U2,7*
G04 #@! TO.N,+6V*
X20575000Y-5650000D03*
D24*
G04 #@! TO.P,U2,6*
G04 #@! TO.N,Net-(R14-Pad1)*
X21225000Y-5450000D03*
G04 #@! TO.P,U2,5*
G04 #@! TO.N,Net-(U2-Pad5)*
X21875000Y-5450000D03*
G04 #@! TO.P,U2,4*
G04 #@! TO.N,-6V*
X21875000Y-8950000D03*
D23*
G04 #@! TO.P,U2,3*
G04 #@! TO.N,/IN+*
X21225000Y-8750000D03*
D24*
G04 #@! TO.P,U2,2*
G04 #@! TO.N,Net-(R14-Pad2)*
X20575000Y-8950000D03*
G04 #@! TO.P,U2,1*
G04 #@! TO.N,Net-(U2-Pad1)*
X19925000Y-8950000D03*
D25*
G04 #@! TO.P,U2,9*
G04 #@! TO.N,-6V*
X20900000Y-7200000D03*
D26*
X21525000Y-6750000D03*
X21525000Y-7650000D03*
X20275000Y-6750000D03*
X20275000Y-7650000D03*
D13*
X21650000Y-6700000D03*
X21650000Y-7700000D03*
X20150000Y-6700000D03*
X20150000Y-7700000D03*
X20900000Y-7200000D03*
D24*
G04 #@! TO.P,U2,8*
G04 #@! TO.N,Net-(U2-Pad8)*
X19925000Y-5450000D03*
G04 #@! TO.P,U2,7*
G04 #@! TO.N,+6V*
X20575000Y-5450000D03*
D23*
G04 #@! TO.P,U2,6*
G04 #@! TO.N,Net-(R14-Pad1)*
X21225000Y-5650000D03*
G04 #@! TO.P,U2,5*
G04 #@! TO.N,Net-(U2-Pad5)*
X21875000Y-5650000D03*
G04 #@! TO.P,U2,4*
G04 #@! TO.N,-6V*
X21875000Y-8750000D03*
D24*
G04 #@! TO.P,U2,3*
G04 #@! TO.N,/IN+*
X21225000Y-8950000D03*
D23*
G04 #@! TO.P,U2,2*
G04 #@! TO.N,Net-(R14-Pad2)*
X20575000Y-8750000D03*
G04 #@! TO.P,U2,1*
G04 #@! TO.N,Net-(U2-Pad1)*
X19925000Y-8750000D03*
G04 #@! TD*
D27*
G04 #@! TO.P,U1,13*
G04 #@! TO.N,GND*
X7100000Y-29100000D03*
D28*
G04 #@! TO.P,U1,12*
X8350000Y-30550000D03*
G04 #@! TO.P,U1,11*
G04 #@! TO.N,Net-(C26-Pad1)*
X7850000Y-30550000D03*
G04 #@! TO.P,U1,10*
G04 #@! TO.N,GND*
X7350000Y-30550000D03*
G04 #@! TO.P,U1,9*
G04 #@! TO.N,Net-(C4-Pad2)*
X6850000Y-30550000D03*
G04 #@! TO.P,U1,8*
G04 #@! TO.N,Net-(C26-Pad1)*
X6350000Y-30550000D03*
G04 #@! TO.P,U1,7*
G04 #@! TO.N,Net-(R1-Pad2)*
X5850000Y-30550000D03*
G04 #@! TO.P,U1,6*
G04 #@! TO.N,Net-(C5-Pad2)*
X5850000Y-27650000D03*
G04 #@! TO.P,U1,5*
G04 #@! TO.N,Net-(C26-Pad1)*
X6350000Y-27650000D03*
G04 #@! TO.P,U1,4*
G04 #@! TO.N,Net-(U1-Pad4)*
X6850000Y-27650000D03*
G04 #@! TO.P,U1,3*
G04 #@! TO.N,Net-(D1-Pad1)*
X7350000Y-27650000D03*
G04 #@! TO.P,U1,2*
G04 #@! TO.N,Net-(D2-Pad2)*
X7850000Y-27650000D03*
G04 #@! TO.P,U1,1*
G04 #@! TO.N,N/C*
X8350000Y-27650000D03*
G04 #@! TD*
D29*
G04 #@! TO.P,RV2,2*
G04 #@! TO.N,/OFFSET_TRIM*
X22900000Y-24050000D03*
D30*
G04 #@! TO.P,RV2,3*
G04 #@! TO.N,-6V*
X21900000Y-20800000D03*
G04 #@! TO.P,RV2,1*
G04 #@! TO.N,+6V*
X23900000Y-20800000D03*
G04 #@! TD*
D29*
G04 #@! TO.P,RV1,2*
G04 #@! TO.N,GND*
X19200000Y-24050000D03*
D30*
G04 #@! TO.P,RV1,3*
G04 #@! TO.N,Net-(R13-Pad2)*
X18200000Y-20800000D03*
G04 #@! TO.P,RV1,1*
G04 #@! TO.N,Net-(R12-Pad2)*
X20200000Y-20800000D03*
G04 #@! TD*
G04 #@! TO.P,R22,2*
G04 #@! TO.N,Net-(C19-Pad1)*
G04 #@! TA.AperFunction,SMDPad,CuDef*
G36*
G01*
X17043750Y-26900000D02*
X17556250Y-26900000D01*
G75*
G02*
X17775000Y-27118750I0J-218750D01*
G01*
X17775000Y-27556250D01*
G75*
G02*
X17556250Y-27775000I-218750J0D01*
G01*
X17043750Y-27775000D01*
G75*
G02*
X16825000Y-27556250I0J218750D01*
G01*
X16825000Y-27118750D01*
G75*
G02*
X17043750Y-26900000I218750J0D01*
G01*
G37*
G04 #@! TD.AperFunction*
G04 #@! TO.P,R22,1*
G04 #@! TO.N,/OUT*
G04 #@! TA.AperFunction,SMDPad,CuDef*
G36*
G01*
X17043750Y-25325000D02*
X17556250Y-25325000D01*
G75*
G02*
X17775000Y-25543750I0J-218750D01*
G01*
X17775000Y-25981250D01*
G75*
G02*
X17556250Y-26200000I-218750J0D01*
G01*
X17043750Y-26200000D01*
G75*
G02*
X16825000Y-25981250I0J218750D01*
G01*
X16825000Y-25543750D01*
G75*
G02*
X17043750Y-25325000I218750J0D01*
G01*
G37*
G04 #@! TD.AperFunction*
G04 #@! TD*
G04 #@! TO.P,R21,2*
G04 #@! TO.N,Net-(C19-Pad1)*
G04 #@! TA.AperFunction,SMDPad,CuDef*
G36*
G01*
X23443750Y-31350000D02*
X23956250Y-31350000D01*
G75*
G02*
X24175000Y-31568750I0J-218750D01*
G01*
X24175000Y-32006250D01*
G75*
G02*
X23956250Y-32225000I-218750J0D01*
G01*
X23443750Y-32225000D01*
G75*
G02*
X23225000Y-32006250I0J218750D01*
G01*
X23225000Y-31568750D01*
G75*
G02*
X23443750Y-31350000I218750J0D01*
G01*
G37*
G04 #@! TD.AperFunction*
G04 #@! TO.P,R21,1*
G04 #@! TO.N,Net-(C19-Pad2)*
G04 #@! TA.AperFunction,SMDPad,CuDef*
G36*
G01*
X23443750Y-29775000D02*
X23956250Y-29775000D01*
G75*
G02*
X24175000Y-29993750I0J-218750D01*
G01*
X24175000Y-30431250D01*
G75*
G02*
X23956250Y-30650000I-218750J0D01*
G01*
X23443750Y-30650000D01*
G75*
G02*
X23225000Y-30431250I0J218750D01*
G01*
X23225000Y-29993750D01*
G75*
G02*
X23443750Y-29775000I218750J0D01*
G01*
G37*
G04 #@! TD.AperFunction*
G04 #@! TD*
G04 #@! TO.P,R20,2*
G04 #@! TO.N,GND*
G04 #@! TA.AperFunction,SMDPad,CuDef*
G36*
G01*
X25150000Y-29056250D02*
X25150000Y-28543750D01*
G75*
G02*
X25368750Y-28325000I218750J0D01*
G01*
X25806250Y-28325000D01*
G75*
G02*
X26025000Y-28543750I0J-218750D01*
G01*
X26025000Y-29056250D01*
G75*
G02*
X25806250Y-29275000I-218750J0D01*
G01*
X25368750Y-29275000D01*
G75*
G02*
X25150000Y-29056250I0J218750D01*
G01*
G37*
G04 #@! TD.AperFunction*
G04 #@! TO.P,R20,1*
G04 #@! TO.N,Net-(R18-Pad2)*
G04 #@! TA.AperFunction,SMDPad,CuDef*
G36*
G01*
X23575000Y-29056250D02*
X23575000Y-28543750D01*
G75*
G02*
X23793750Y-28325000I218750J0D01*
G01*
X24231250Y-28325000D01*
G75*
G02*
X24450000Y-28543750I0J-218750D01*
G01*
X24450000Y-29056250D01*
G75*
G02*
X24231250Y-29275000I-218750J0D01*
G01*
X23793750Y-29275000D01*
G75*
G02*
X23575000Y-29056250I0J218750D01*
G01*
G37*
G04 #@! TD.AperFunction*
G04 #@! TD*
G04 #@! TO.P,R19,2*
G04 #@! TO.N,Net-(C19-Pad2)*
G04 #@! TA.AperFunction,SMDPad,CuDef*
G36*
G01*
X8356250Y-2950000D02*
X7843750Y-2950000D01*
G75*
G02*
X7625000Y-2731250I0J218750D01*
G01*
X7625000Y-2293750D01*
G75*
G02*
X7843750Y-2075000I218750J0D01*
G01*
X8356250Y-2075000D01*
G75*
G02*
X8575000Y-2293750I0J-218750D01*
G01*
X8575000Y-2731250D01*
G75*
G02*
X8356250Y-2950000I-218750J0D01*
G01*
G37*
G04 #@! TD.AperFunction*
G04 #@! TO.P,R19,1*
G04 #@! TO.N,Net-(R15-Pad2)*
G04 #@! TA.AperFunction,SMDPad,CuDef*
G36*
G01*
X8356250Y-4525000D02*
X7843750Y-4525000D01*
G75*
G02*
X7625000Y-4306250I0J218750D01*
G01*
X7625000Y-3868750D01*
G75*
G02*
X7843750Y-3650000I218750J0D01*
G01*
X8356250Y-3650000D01*
G75*
G02*
X8575000Y-3868750I0J-218750D01*
G01*
X8575000Y-4306250D01*
G75*
G02*
X8356250Y-4525000I-218750J0D01*
G01*
G37*
G04 #@! TD.AperFunction*
G04 #@! TD*
G04 #@! TO.P,R18,2*
G04 #@! TO.N,Net-(R18-Pad2)*
G04 #@! TA.AperFunction,SMDPad,CuDef*
G36*
G01*
X21606250Y-3150000D02*
X21093750Y-3150000D01*
G75*
G02*
X20875000Y-2931250I0J218750D01*
G01*
X20875000Y-2493750D01*
G75*
G02*
X21093750Y-2275000I218750J0D01*
G01*
X21606250Y-2275000D01*
G75*
G02*
X21825000Y-2493750I0J-218750D01*
G01*
X21825000Y-2931250D01*
G75*
G02*
X21606250Y-3150000I-218750J0D01*
G01*
G37*
G04 #@! TD.AperFunction*
G04 #@! TO.P,R18,1*
G04 #@! TO.N,Net-(R14-Pad1)*
G04 #@! TA.AperFunction,SMDPad,CuDef*
G36*
G01*
X21606250Y-4725000D02*
X21093750Y-4725000D01*
G75*
G02*
X20875000Y-4506250I0J218750D01*
G01*
X20875000Y-4068750D01*
G75*
G02*
X21093750Y-3850000I218750J0D01*
G01*
X21606250Y-3850000D01*
G75*
G02*
X21825000Y-4068750I0J-218750D01*
G01*
X21825000Y-4506250D01*
G75*
G02*
X21606250Y-4725000I-218750J0D01*
G01*
G37*
G04 #@! TD.AperFunction*
G04 #@! TD*
G04 #@! TO.P,R17,2*
G04 #@! TO.N,Net-(R15-Pad1)*
G04 #@! TA.AperFunction,SMDPad,CuDef*
G36*
G01*
X5450000Y-11693750D02*
X5450000Y-12206250D01*
G75*
G02*
X5231250Y-12425000I-218750J0D01*
G01*
X4793750Y-12425000D01*
G75*
G02*
X4575000Y-12206250I0J218750D01*
G01*
X4575000Y-11693750D01*
G75*
G02*
X4793750Y-11475000I218750J0D01*
G01*
X5231250Y-11475000D01*
G75*
G02*
X5450000Y-11693750I0J-218750D01*
G01*
G37*
G04 #@! TD.AperFunction*
G04 #@! TO.P,R17,1*
G04 #@! TO.N,Net-(R17-Pad1)*
G04 #@! TA.AperFunction,SMDPad,CuDef*
G36*
G01*
X7025000Y-11693750D02*
X7025000Y-12206250D01*
G75*
G02*
X6806250Y-12425000I-218750J0D01*
G01*
X6368750Y-12425000D01*
G75*
G02*
X6150000Y-12206250I0J218750D01*
G01*
X6150000Y-11693750D01*
G75*
G02*
X6368750Y-11475000I218750J0D01*
G01*
X6806250Y-11475000D01*
G75*
G02*
X7025000Y-11693750I0J-218750D01*
G01*
G37*
G04 #@! TD.AperFunction*
G04 #@! TD*
G04 #@! TO.P,R16,2*
G04 #@! TO.N,Net-(R14-Pad2)*
G04 #@! TA.AperFunction,SMDPad,CuDef*
G36*
G01*
X19906250Y-10450000D02*
X19393750Y-10450000D01*
G75*
G02*
X19175000Y-10231250I0J218750D01*
G01*
X19175000Y-9793750D01*
G75*
G02*
X19393750Y-9575000I218750J0D01*
G01*
X19906250Y-9575000D01*
G75*
G02*
X20125000Y-9793750I0J-218750D01*
G01*
X20125000Y-10231250D01*
G75*
G02*
X19906250Y-10450000I-218750J0D01*
G01*
G37*
G04 #@! TD.AperFunction*
G04 #@! TO.P,R16,1*
G04 #@! TO.N,Net-(R16-Pad1)*
G04 #@! TA.AperFunction,SMDPad,CuDef*
G36*
G01*
X19906250Y-12025000D02*
X19393750Y-12025000D01*
G75*
G02*
X19175000Y-11806250I0J218750D01*
G01*
X19175000Y-11368750D01*
G75*
G02*
X19393750Y-11150000I218750J0D01*
G01*
X19906250Y-11150000D01*
G75*
G02*
X20125000Y-11368750I0J-218750D01*
G01*
X20125000Y-11806250D01*
G75*
G02*
X19906250Y-12025000I-218750J0D01*
G01*
G37*
G04 #@! TD.AperFunction*
G04 #@! TD*
G04 #@! TO.P,R14,2*
G04 #@! TO.N,Net-(R14-Pad2)*
G04 #@! TA.AperFunction,SMDPad,CuDef*
G36*
G01*
X18043750Y-6900000D02*
X18556250Y-6900000D01*
G75*
G02*
X18775000Y-7118750I0J-218750D01*
G01*
X18775000Y-7556250D01*
G75*
G02*
X18556250Y-7775000I-218750J0D01*
G01*
X18043750Y-7775000D01*
G75*
G02*
X17825000Y-7556250I0J218750D01*
G01*
X17825000Y-7118750D01*
G75*
G02*
X18043750Y-6900000I218750J0D01*
G01*
G37*
G04 #@! TD.AperFunction*
G04 #@! TO.P,R14,1*
G04 #@! TO.N,Net-(R14-Pad1)*
G04 #@! TA.AperFunction,SMDPad,CuDef*
G36*
G01*
X18043750Y-5325000D02*
X18556250Y-5325000D01*
G75*
G02*
X18775000Y-5543750I0J-218750D01*
G01*
X18775000Y-5981250D01*
G75*
G02*
X18556250Y-6200000I-218750J0D01*
G01*
X18043750Y-6200000D01*
G75*
G02*
X17825000Y-5981250I0J218750D01*
G01*
X17825000Y-5543750D01*
G75*
G02*
X18043750Y-5325000I218750J0D01*
G01*
G37*
G04 #@! TD.AperFunction*
G04 #@! TD*
G04 #@! TO.P,R13,2*
G04 #@! TO.N,Net-(R13-Pad2)*
G04 #@! TA.AperFunction,SMDPad,CuDef*
G36*
G01*
X8243750Y-11250000D02*
X8756250Y-11250000D01*
G75*
G02*
X8975000Y-11468750I0J-218750D01*
G01*
X8975000Y-11906250D01*
G75*
G02*
X8756250Y-12125000I-218750J0D01*
G01*
X8243750Y-12125000D01*
G75*
G02*
X8025000Y-11906250I0J218750D01*
G01*
X8025000Y-11468750D01*
G75*
G02*
X8243750Y-11250000I218750J0D01*
G01*
G37*
G04 #@! TD.AperFunction*
G04 #@! TO.P,R13,1*
G04 #@! TO.N,/IN-*
G04 #@! TA.AperFunction,SMDPad,CuDef*
G36*
G01*
X8243750Y-9675000D02*
X8756250Y-9675000D01*
G75*
G02*
X8975000Y-9893750I0J-218750D01*
G01*
X8975000Y-10331250D01*
G75*
G02*
X8756250Y-10550000I-218750J0D01*
G01*
X8243750Y-10550000D01*
G75*
G02*
X8025000Y-10331250I0J218750D01*
G01*
X8025000Y-9893750D01*
G75*
G02*
X8243750Y-9675000I218750J0D01*
G01*
G37*
G04 #@! TD.AperFunction*
G04 #@! TD*
G04 #@! TO.P,R10,2*
G04 #@! TO.N,/CONN_IN-*
G04 #@! TA.AperFunction,SMDPad,CuDef*
G36*
G01*
X10256250Y-7537500D02*
X9743750Y-7537500D01*
G75*
G02*
X9525000Y-7318750I0J218750D01*
G01*
X9525000Y-6881250D01*
G75*
G02*
X9743750Y-6662500I218750J0D01*
G01*
X10256250Y-6662500D01*
G75*
G02*
X10475000Y-6881250I0J-218750D01*
G01*
X10475000Y-7318750D01*
G75*
G02*
X10256250Y-7537500I-218750J0D01*
G01*
G37*
G04 #@! TD.AperFunction*
G04 #@! TO.P,R10,1*
G04 #@! TO.N,/IN-*
G04 #@! TA.AperFunction,SMDPad,CuDef*
G36*
G01*
X10256250Y-9112500D02*
X9743750Y-9112500D01*
G75*
G02*
X9525000Y-8893750I0J218750D01*
G01*
X9525000Y-8456250D01*
G75*
G02*
X9743750Y-8237500I218750J0D01*
G01*
X10256250Y-8237500D01*
G75*
G02*
X10475000Y-8456250I0J-218750D01*
G01*
X10475000Y-8893750D01*
G75*
G02*
X10256250Y-9112500I-218750J0D01*
G01*
G37*
G04 #@! TD.AperFunction*
G04 #@! TD*
G04 #@! TO.P,R9,2*
G04 #@! TO.N,/CONN_IN+*
G04 #@! TA.AperFunction,SMDPad,CuDef*
G36*
G01*
X21550000Y-9993750D02*
X21550000Y-10506250D01*
G75*
G02*
X21331250Y-10725000I-218750J0D01*
G01*
X20893750Y-10725000D01*
G75*
G02*
X20675000Y-10506250I0J218750D01*
G01*
X20675000Y-9993750D01*
G75*
G02*
X20893750Y-9775000I218750J0D01*
G01*
X21331250Y-9775000D01*
G75*
G02*
X21550000Y-9993750I0J-218750D01*
G01*
G37*
G04 #@! TD.AperFunction*
G04 #@! TO.P,R9,1*
G04 #@! TO.N,/IN+*
G04 #@! TA.AperFunction,SMDPad,CuDef*
G36*
G01*
X23125000Y-9993750D02*
X23125000Y-10506250D01*
G75*
G02*
X22906250Y-10725000I-218750J0D01*
G01*
X22468750Y-10725000D01*
G75*
G02*
X22250000Y-10506250I0J218750D01*
G01*
X22250000Y-9993750D01*
G75*
G02*
X22468750Y-9775000I218750J0D01*
G01*
X22906250Y-9775000D01*
G75*
G02*
X23125000Y-9993750I0J-218750D01*
G01*
G37*
G04 #@! TD.AperFunction*
G04 #@! TD*
G04 #@! TO.P,R6,2*
G04 #@! TO.N,Net-(C4-Pad2)*
G04 #@! TA.AperFunction,SMDPad,CuDef*
G36*
G01*
X6156250Y-32550000D02*
X5643750Y-32550000D01*
G75*
G02*
X5425000Y-32331250I0J218750D01*
G01*
X5425000Y-31893750D01*
G75*
G02*
X5643750Y-31675000I218750J0D01*
G01*
X6156250Y-31675000D01*
G75*
G02*
X6375000Y-31893750I0J-218750D01*
G01*
X6375000Y-32331250D01*
G75*
G02*
X6156250Y-32550000I-218750J0D01*
G01*
G37*
G04 #@! TD.AperFunction*
G04 #@! TO.P,R6,1*
G04 #@! TO.N,GND*
G04 #@! TA.AperFunction,SMDPad,CuDef*
G36*
G01*
X6156250Y-34125000D02*
X5643750Y-34125000D01*
G75*
G02*
X5425000Y-33906250I0J218750D01*
G01*
X5425000Y-33468750D01*
G75*
G02*
X5643750Y-33250000I218750J0D01*
G01*
X6156250Y-33250000D01*
G75*
G02*
X6375000Y-33468750I0J-218750D01*
G01*
X6375000Y-33906250D01*
G75*
G02*
X6156250Y-34125000I-218750J0D01*
G01*
G37*
G04 #@! TD.AperFunction*
G04 #@! TD*
G04 #@! TO.P,R5,2*
G04 #@! TO.N,Net-(C7-Pad1)*
G04 #@! TA.AperFunction,SMDPad,CuDef*
G36*
G01*
X3250000Y-34943750D02*
X3250000Y-35456250D01*
G75*
G02*
X3031250Y-35675000I-218750J0D01*
G01*
X2593750Y-35675000D01*
G75*
G02*
X2375000Y-35456250I0J218750D01*
G01*
X2375000Y-34943750D01*
G75*
G02*
X2593750Y-34725000I218750J0D01*
G01*
X3031250Y-34725000D01*
G75*
G02*
X3250000Y-34943750I0J-218750D01*
G01*
G37*
G04 #@! TD.AperFunction*
G04 #@! TO.P,R5,1*
G04 #@! TO.N,Net-(C5-Pad1)*
G04 #@! TA.AperFunction,SMDPad,CuDef*
G36*
G01*
X4825000Y-34943750D02*
X4825000Y-35456250D01*
G75*
G02*
X4606250Y-35675000I-218750J0D01*
G01*
X4168750Y-35675000D01*
G75*
G02*
X3950000Y-35456250I0J218750D01*
G01*
X3950000Y-34943750D01*
G75*
G02*
X4168750Y-34725000I218750J0D01*
G01*
X4606250Y-34725000D01*
G75*
G02*
X4825000Y-34943750I0J-218750D01*
G01*
G37*
G04 #@! TD.AperFunction*
G04 #@! TD*
G04 #@! TO.P,R4,2*
G04 #@! TO.N,Net-(C6-Pad1)*
G04 #@! TA.AperFunction,SMDPad,CuDef*
G36*
G01*
X10656250Y-32550000D02*
X10143750Y-32550000D01*
G75*
G02*
X9925000Y-32331250I0J218750D01*
G01*
X9925000Y-31893750D01*
G75*
G02*
X10143750Y-31675000I218750J0D01*
G01*
X10656250Y-31675000D01*
G75*
G02*
X10875000Y-31893750I0J-218750D01*
G01*
X10875000Y-32331250D01*
G75*
G02*
X10656250Y-32550000I-218750J0D01*
G01*
G37*
G04 #@! TD.AperFunction*
G04 #@! TO.P,R4,1*
G04 #@! TO.N,Net-(C4-Pad1)*
G04 #@! TA.AperFunction,SMDPad,CuDef*
G36*
G01*
X10656250Y-34125000D02*
X10143750Y-34125000D01*
G75*
G02*
X9925000Y-33906250I0J218750D01*
G01*
X9925000Y-33468750D01*
G75*
G02*
X10143750Y-33250000I218750J0D01*
G01*
X10656250Y-33250000D01*
G75*
G02*
X10875000Y-33468750I0J-218750D01*
G01*
X10875000Y-33906250D01*
G75*
G02*
X10656250Y-34125000I-218750J0D01*
G01*
G37*
G04 #@! TD.AperFunction*
G04 #@! TD*
G04 #@! TO.P,R3,2*
G04 #@! TO.N,Net-(C5-Pad2)*
G04 #@! TA.AperFunction,SMDPad,CuDef*
G36*
G01*
X3156250Y-32550000D02*
X2643750Y-32550000D01*
G75*
G02*
X2425000Y-32331250I0J218750D01*
G01*
X2425000Y-31893750D01*
G75*
G02*
X2643750Y-31675000I218750J0D01*
G01*
X3156250Y-31675000D01*
G75*
G02*
X3375000Y-31893750I0J-218750D01*
G01*
X3375000Y-32331250D01*
G75*
G02*
X3156250Y-32550000I-218750J0D01*
G01*
G37*
G04 #@! TD.AperFunction*
G04 #@! TO.P,R3,1*
G04 #@! TO.N,Net-(C7-Pad1)*
G04 #@! TA.AperFunction,SMDPad,CuDef*
G36*
G01*
X3156250Y-34125000D02*
X2643750Y-34125000D01*
G75*
G02*
X2425000Y-33906250I0J218750D01*
G01*
X2425000Y-33468750D01*
G75*
G02*
X2643750Y-33250000I218750J0D01*
G01*
X3156250Y-33250000D01*
G75*
G02*
X3375000Y-33468750I0J-218750D01*
G01*
X3375000Y-33906250D01*
G75*
G02*
X3156250Y-34125000I-218750J0D01*
G01*
G37*
G04 #@! TD.AperFunction*
G04 #@! TD*
G04 #@! TO.P,R2,2*
G04 #@! TO.N,Net-(C4-Pad2)*
G04 #@! TA.AperFunction,SMDPad,CuDef*
G36*
G01*
X9250000Y-34943750D02*
X9250000Y-35456250D01*
G75*
G02*
X9031250Y-35675000I-218750J0D01*
G01*
X8593750Y-35675000D01*
G75*
G02*
X8375000Y-35456250I0J218750D01*
G01*
X8375000Y-34943750D01*
G75*
G02*
X8593750Y-34725000I218750J0D01*
G01*
X9031250Y-34725000D01*
G75*
G02*
X9250000Y-34943750I0J-218750D01*
G01*
G37*
G04 #@! TD.AperFunction*
G04 #@! TO.P,R2,1*
G04 #@! TO.N,Net-(C6-Pad1)*
G04 #@! TA.AperFunction,SMDPad,CuDef*
G36*
G01*
X10825000Y-34943750D02*
X10825000Y-35456250D01*
G75*
G02*
X10606250Y-35675000I-218750J0D01*
G01*
X10168750Y-35675000D01*
G75*
G02*
X9950000Y-35456250I0J218750D01*
G01*
X9950000Y-34943750D01*
G75*
G02*
X10168750Y-34725000I218750J0D01*
G01*
X10606250Y-34725000D01*
G75*
G02*
X10825000Y-34943750I0J-218750D01*
G01*
G37*
G04 #@! TD.AperFunction*
G04 #@! TD*
G04 #@! TO.P,R1,2*
G04 #@! TO.N,Net-(R1-Pad2)*
G04 #@! TA.AperFunction,SMDPad,CuDef*
G36*
G01*
X4656250Y-32550000D02*
X4143750Y-32550000D01*
G75*
G02*
X3925000Y-32331250I0J218750D01*
G01*
X3925000Y-31893750D01*
G75*
G02*
X4143750Y-31675000I218750J0D01*
G01*
X4656250Y-31675000D01*
G75*
G02*
X4875000Y-31893750I0J-218750D01*
G01*
X4875000Y-32331250D01*
G75*
G02*
X4656250Y-32550000I-218750J0D01*
G01*
G37*
G04 #@! TD.AperFunction*
G04 #@! TO.P,R1,1*
G04 #@! TO.N,Net-(C5-Pad2)*
G04 #@! TA.AperFunction,SMDPad,CuDef*
G36*
G01*
X4656250Y-34125000D02*
X4143750Y-34125000D01*
G75*
G02*
X3925000Y-33906250I0J218750D01*
G01*
X3925000Y-33468750D01*
G75*
G02*
X4143750Y-33250000I218750J0D01*
G01*
X4656250Y-33250000D01*
G75*
G02*
X4875000Y-33468750I0J-218750D01*
G01*
X4875000Y-33906250D01*
G75*
G02*
X4656250Y-34125000I-218750J0D01*
G01*
G37*
G04 #@! TD.AperFunction*
G04 #@! TD*
G04 #@! TO.P,L6,2*
G04 #@! TO.N,Net-(C9-Pad1)*
G04 #@! TA.AperFunction,SMDPad,CuDef*
G36*
G01*
X5250000Y-23943750D02*
X5250000Y-24456250D01*
G75*
G02*
X5031250Y-24675000I-218750J0D01*
G01*
X4593750Y-24675000D01*
G75*
G02*
X4375000Y-24456250I0J218750D01*
G01*
X4375000Y-23943750D01*
G75*
G02*
X4593750Y-23725000I218750J0D01*
G01*
X5031250Y-23725000D01*
G75*
G02*
X5250000Y-23943750I0J-218750D01*
G01*
G37*
G04 #@! TD.AperFunction*
G04 #@! TO.P,L6,1*
G04 #@! TO.N,Net-(C7-Pad1)*
G04 #@! TA.AperFunction,SMDPad,CuDef*
G36*
G01*
X6825000Y-23943750D02*
X6825000Y-24456250D01*
G75*
G02*
X6606250Y-24675000I-218750J0D01*
G01*
X6168750Y-24675000D01*
G75*
G02*
X5950000Y-24456250I0J218750D01*
G01*
X5950000Y-23943750D01*
G75*
G02*
X6168750Y-23725000I218750J0D01*
G01*
X6606250Y-23725000D01*
G75*
G02*
X6825000Y-23943750I0J-218750D01*
G01*
G37*
G04 #@! TD.AperFunction*
G04 #@! TD*
G04 #@! TO.P,L5,2*
G04 #@! TO.N,Net-(C8-Pad1)*
G04 #@! TA.AperFunction,SMDPad,CuDef*
G36*
G01*
X8950000Y-24456250D02*
X8950000Y-23943750D01*
G75*
G02*
X9168750Y-23725000I218750J0D01*
G01*
X9606250Y-23725000D01*
G75*
G02*
X9825000Y-23943750I0J-218750D01*
G01*
X9825000Y-24456250D01*
G75*
G02*
X9606250Y-24675000I-218750J0D01*
G01*
X9168750Y-24675000D01*
G75*
G02*
X8950000Y-24456250I0J218750D01*
G01*
G37*
G04 #@! TD.AperFunction*
G04 #@! TO.P,L5,1*
G04 #@! TO.N,Net-(C6-Pad1)*
G04 #@! TA.AperFunction,SMDPad,CuDef*
G36*
G01*
X7375000Y-24456250D02*
X7375000Y-23943750D01*
G75*
G02*
X7593750Y-23725000I218750J0D01*
G01*
X8031250Y-23725000D01*
G75*
G02*
X8250000Y-23943750I0J-218750D01*
G01*
X8250000Y-24456250D01*
G75*
G02*
X8031250Y-24675000I-218750J0D01*
G01*
X7593750Y-24675000D01*
G75*
G02*
X7375000Y-24456250I0J218750D01*
G01*
G37*
G04 #@! TD.AperFunction*
G04 #@! TD*
G04 #@! TO.P,L4,2*
G04 #@! TO.N,Net-(D1-Pad1)*
G04 #@! TA.AperFunction,SMDPad,CuDef*
G36*
G01*
X4256250Y-27750000D02*
X3343750Y-27750000D01*
G75*
G02*
X3100000Y-27506250I0J243750D01*
G01*
X3100000Y-27018750D01*
G75*
G02*
X3343750Y-26775000I243750J0D01*
G01*
X4256250Y-26775000D01*
G75*
G02*
X4500000Y-27018750I0J-243750D01*
G01*
X4500000Y-27506250D01*
G75*
G02*
X4256250Y-27750000I-243750J0D01*
G01*
G37*
G04 #@! TD.AperFunction*
G04 #@! TO.P,L4,1*
G04 #@! TO.N,GND*
G04 #@! TA.AperFunction,SMDPad,CuDef*
G36*
G01*
X4256250Y-29625000D02*
X3343750Y-29625000D01*
G75*
G02*
X3100000Y-29381250I0J243750D01*
G01*
X3100000Y-28893750D01*
G75*
G02*
X3343750Y-28650000I243750J0D01*
G01*
X4256250Y-28650000D01*
G75*
G02*
X4500000Y-28893750I0J-243750D01*
G01*
X4500000Y-29381250D01*
G75*
G02*
X4256250Y-29625000I-243750J0D01*
G01*
G37*
G04 #@! TD.AperFunction*
G04 #@! TD*
G04 #@! TO.P,L3,2*
G04 #@! TO.N,Net-(D2-Pad2)*
G04 #@! TA.AperFunction,SMDPad,CuDef*
G36*
G01*
X10856250Y-27750000D02*
X9943750Y-27750000D01*
G75*
G02*
X9700000Y-27506250I0J243750D01*
G01*
X9700000Y-27018750D01*
G75*
G02*
X9943750Y-26775000I243750J0D01*
G01*
X10856250Y-26775000D01*
G75*
G02*
X11100000Y-27018750I0J-243750D01*
G01*
X11100000Y-27506250D01*
G75*
G02*
X10856250Y-27750000I-243750J0D01*
G01*
G37*
G04 #@! TD.AperFunction*
G04 #@! TO.P,L3,1*
G04 #@! TO.N,Net-(C26-Pad1)*
G04 #@! TA.AperFunction,SMDPad,CuDef*
G36*
G01*
X10856250Y-29625000D02*
X9943750Y-29625000D01*
G75*
G02*
X9700000Y-29381250I0J243750D01*
G01*
X9700000Y-28893750D01*
G75*
G02*
X9943750Y-28650000I243750J0D01*
G01*
X10856250Y-28650000D01*
G75*
G02*
X11100000Y-28893750I0J-243750D01*
G01*
X11100000Y-29381250D01*
G75*
G02*
X10856250Y-29625000I-243750J0D01*
G01*
G37*
G04 #@! TD.AperFunction*
G04 #@! TD*
G04 #@! TO.P,L2,2*
G04 #@! TO.N,Net-(C26-Pad1)*
G04 #@! TA.AperFunction,SMDPad,CuDef*
G36*
G01*
X23000000Y-32993750D02*
X23000000Y-33506250D01*
G75*
G02*
X22781250Y-33725000I-218750J0D01*
G01*
X22343750Y-33725000D01*
G75*
G02*
X22125000Y-33506250I0J218750D01*
G01*
X22125000Y-32993750D01*
G75*
G02*
X22343750Y-32775000I218750J0D01*
G01*
X22781250Y-32775000D01*
G75*
G02*
X23000000Y-32993750I0J-218750D01*
G01*
G37*
G04 #@! TD.AperFunction*
G04 #@! TO.P,L2,1*
G04 #@! TO.N,Net-(C2-Pad1)*
G04 #@! TA.AperFunction,SMDPad,CuDef*
G36*
G01*
X24575000Y-32993750D02*
X24575000Y-33506250D01*
G75*
G02*
X24356250Y-33725000I-218750J0D01*
G01*
X23918750Y-33725000D01*
G75*
G02*
X23700000Y-33506250I0J218750D01*
G01*
X23700000Y-32993750D01*
G75*
G02*
X23918750Y-32775000I218750J0D01*
G01*
X24356250Y-32775000D01*
G75*
G02*
X24575000Y-32993750I0J-218750D01*
G01*
G37*
G04 #@! TD.AperFunction*
G04 #@! TD*
G04 #@! TO.P,C25,2*
G04 #@! TO.N,-6V*
G04 #@! TA.AperFunction,SMDPad,CuDef*
G36*
G01*
X24450000Y-27043750D02*
X24450000Y-27556250D01*
G75*
G02*
X24231250Y-27775000I-218750J0D01*
G01*
X23793750Y-27775000D01*
G75*
G02*
X23575000Y-27556250I0J218750D01*
G01*
X23575000Y-27043750D01*
G75*
G02*
X23793750Y-26825000I218750J0D01*
G01*
X24231250Y-26825000D01*
G75*
G02*
X24450000Y-27043750I0J-218750D01*
G01*
G37*
G04 #@! TD.AperFunction*
G04 #@! TO.P,C25,1*
G04 #@! TO.N,GND*
G04 #@! TA.AperFunction,SMDPad,CuDef*
G36*
G01*
X26025000Y-27043750D02*
X26025000Y-27556250D01*
G75*
G02*
X25806250Y-27775000I-218750J0D01*
G01*
X25368750Y-27775000D01*
G75*
G02*
X25150000Y-27556250I0J218750D01*
G01*
X25150000Y-27043750D01*
G75*
G02*
X25368750Y-26825000I218750J0D01*
G01*
X25806250Y-26825000D01*
G75*
G02*
X26025000Y-27043750I0J-218750D01*
G01*
G37*
G04 #@! TD.AperFunction*
G04 #@! TD*
G04 #@! TO.P,C24,2*
G04 #@! TO.N,GND*
G04 #@! TA.AperFunction,SMDPad,CuDef*
G36*
G01*
X17693750Y-29850000D02*
X18206250Y-29850000D01*
G75*
G02*
X18425000Y-30068750I0J-218750D01*
G01*
X18425000Y-30506250D01*
G75*
G02*
X18206250Y-30725000I-218750J0D01*
G01*
X17693750Y-30725000D01*
G75*
G02*
X17475000Y-30506250I0J218750D01*
G01*
X17475000Y-30068750D01*
G75*
G02*
X17693750Y-29850000I218750J0D01*
G01*
G37*
G04 #@! TD.AperFunction*
G04 #@! TO.P,C24,1*
G04 #@! TO.N,+6V*
G04 #@! TA.AperFunction,SMDPad,CuDef*
G36*
G01*
X17693750Y-28275000D02*
X18206250Y-28275000D01*
G75*
G02*
X18425000Y-28493750I0J-218750D01*
G01*
X18425000Y-28931250D01*
G75*
G02*
X18206250Y-29150000I-218750J0D01*
G01*
X17693750Y-29150000D01*
G75*
G02*
X17475000Y-28931250I0J218750D01*
G01*
X17475000Y-28493750D01*
G75*
G02*
X17693750Y-28275000I218750J0D01*
G01*
G37*
G04 #@! TD.AperFunction*
G04 #@! TD*
G04 #@! TO.P,C23,2*
G04 #@! TO.N,-6V*
G04 #@! TA.AperFunction,SMDPad,CuDef*
G36*
G01*
X4843750Y-3650000D02*
X5356250Y-3650000D01*
G75*
G02*
X5575000Y-3868750I0J-218750D01*
G01*
X5575000Y-4306250D01*
G75*
G02*
X5356250Y-4525000I-218750J0D01*
G01*
X4843750Y-4525000D01*
G75*
G02*
X4625000Y-4306250I0J218750D01*
G01*
X4625000Y-3868750D01*
G75*
G02*
X4843750Y-3650000I218750J0D01*
G01*
G37*
G04 #@! TD.AperFunction*
G04 #@! TO.P,C23,1*
G04 #@! TO.N,GND*
G04 #@! TA.AperFunction,SMDPad,CuDef*
G36*
G01*
X4843750Y-2075000D02*
X5356250Y-2075000D01*
G75*
G02*
X5575000Y-2293750I0J-218750D01*
G01*
X5575000Y-2731250D01*
G75*
G02*
X5356250Y-2950000I-218750J0D01*
G01*
X4843750Y-2950000D01*
G75*
G02*
X4625000Y-2731250I0J218750D01*
G01*
X4625000Y-2293750D01*
G75*
G02*
X4843750Y-2075000I218750J0D01*
G01*
G37*
G04 #@! TD.AperFunction*
G04 #@! TD*
G04 #@! TO.P,C22,2*
G04 #@! TO.N,GND*
G04 #@! TA.AperFunction,SMDPad,CuDef*
G36*
G01*
X6856250Y-2950000D02*
X6343750Y-2950000D01*
G75*
G02*
X6125000Y-2731250I0J218750D01*
G01*
X6125000Y-2293750D01*
G75*
G02*
X6343750Y-2075000I218750J0D01*
G01*
X6856250Y-2075000D01*
G75*
G02*
X7075000Y-2293750I0J-218750D01*
G01*
X7075000Y-2731250D01*
G75*
G02*
X6856250Y-2950000I-218750J0D01*
G01*
G37*
G04 #@! TD.AperFunction*
G04 #@! TO.P,C22,1*
G04 #@! TO.N,+6V*
G04 #@! TA.AperFunction,SMDPad,CuDef*
G36*
G01*
X6856250Y-4525000D02*
X6343750Y-4525000D01*
G75*
G02*
X6125000Y-4306250I0J218750D01*
G01*
X6125000Y-3868750D01*
G75*
G02*
X6343750Y-3650000I218750J0D01*
G01*
X6856250Y-3650000D01*
G75*
G02*
X7075000Y-3868750I0J-218750D01*
G01*
X7075000Y-4306250D01*
G75*
G02*
X6856250Y-4525000I-218750J0D01*
G01*
G37*
G04 #@! TD.AperFunction*
G04 #@! TD*
G04 #@! TO.P,C21,2*
G04 #@! TO.N,-6V*
G04 #@! TA.AperFunction,SMDPad,CuDef*
G36*
G01*
X23243750Y-7550000D02*
X23756250Y-7550000D01*
G75*
G02*
X23975000Y-7768750I0J-218750D01*
G01*
X23975000Y-8206250D01*
G75*
G02*
X23756250Y-8425000I-218750J0D01*
G01*
X23243750Y-8425000D01*
G75*
G02*
X23025000Y-8206250I0J218750D01*
G01*
X23025000Y-7768750D01*
G75*
G02*
X23243750Y-7550000I218750J0D01*
G01*
G37*
G04 #@! TD.AperFunction*
G04 #@! TO.P,C21,1*
G04 #@! TO.N,GND*
G04 #@! TA.AperFunction,SMDPad,CuDef*
G36*
G01*
X23243750Y-5975000D02*
X23756250Y-5975000D01*
G75*
G02*
X23975000Y-6193750I0J-218750D01*
G01*
X23975000Y-6631250D01*
G75*
G02*
X23756250Y-6850000I-218750J0D01*
G01*
X23243750Y-6850000D01*
G75*
G02*
X23025000Y-6631250I0J218750D01*
G01*
X23025000Y-6193750D01*
G75*
G02*
X23243750Y-5975000I218750J0D01*
G01*
G37*
G04 #@! TD.AperFunction*
G04 #@! TD*
G04 #@! TO.P,C20,2*
G04 #@! TO.N,GND*
G04 #@! TA.AperFunction,SMDPad,CuDef*
G36*
G01*
X20106250Y-3150000D02*
X19593750Y-3150000D01*
G75*
G02*
X19375000Y-2931250I0J218750D01*
G01*
X19375000Y-2493750D01*
G75*
G02*
X19593750Y-2275000I218750J0D01*
G01*
X20106250Y-2275000D01*
G75*
G02*
X20325000Y-2493750I0J-218750D01*
G01*
X20325000Y-2931250D01*
G75*
G02*
X20106250Y-3150000I-218750J0D01*
G01*
G37*
G04 #@! TD.AperFunction*
G04 #@! TO.P,C20,1*
G04 #@! TO.N,+6V*
G04 #@! TA.AperFunction,SMDPad,CuDef*
G36*
G01*
X20106250Y-4725000D02*
X19593750Y-4725000D01*
G75*
G02*
X19375000Y-4506250I0J218750D01*
G01*
X19375000Y-4068750D01*
G75*
G02*
X19593750Y-3850000I218750J0D01*
G01*
X20106250Y-3850000D01*
G75*
G02*
X20325000Y-4068750I0J-218750D01*
G01*
X20325000Y-4506250D01*
G75*
G02*
X20106250Y-4725000I-218750J0D01*
G01*
G37*
G04 #@! TD.AperFunction*
G04 #@! TD*
G04 #@! TO.P,C19,2*
G04 #@! TO.N,Net-(C19-Pad2)*
G04 #@! TA.AperFunction,SMDPad,CuDef*
G36*
G01*
X25456250Y-30650000D02*
X24943750Y-30650000D01*
G75*
G02*
X24725000Y-30431250I0J218750D01*
G01*
X24725000Y-29993750D01*
G75*
G02*
X24943750Y-29775000I218750J0D01*
G01*
X25456250Y-29775000D01*
G75*
G02*
X25675000Y-29993750I0J-218750D01*
G01*
X25675000Y-30431250D01*
G75*
G02*
X25456250Y-30650000I-218750J0D01*
G01*
G37*
G04 #@! TD.AperFunction*
G04 #@! TO.P,C19,1*
G04 #@! TO.N,Net-(C19-Pad1)*
G04 #@! TA.AperFunction,SMDPad,CuDef*
G36*
G01*
X25456250Y-32225000D02*
X24943750Y-32225000D01*
G75*
G02*
X24725000Y-32006250I0J218750D01*
G01*
X24725000Y-31568750D01*
G75*
G02*
X24943750Y-31350000I218750J0D01*
G01*
X25456250Y-31350000D01*
G75*
G02*
X25675000Y-31568750I0J-218750D01*
G01*
X25675000Y-32006250D01*
G75*
G02*
X25456250Y-32225000I-218750J0D01*
G01*
G37*
G04 #@! TD.AperFunction*
G04 #@! TD*
D31*
G04 #@! TO.P,C17,2*
G04 #@! TO.N,GND*
X5100000Y-19275000D03*
G04 #@! TO.P,C17,1*
G04 #@! TO.N,/IN-*
X5100000Y-15125000D03*
G04 #@! TD*
G04 #@! TO.P,C16,2*
G04 #@! TO.N,GND*
X22900000Y-19275000D03*
G04 #@! TO.P,C16,1*
G04 #@! TO.N,/IN+*
X22900000Y-15125000D03*
G04 #@! TD*
G04 #@! TO.P,C15,2*
G04 #@! TO.N,/CONN_IN-*
G04 #@! TA.AperFunction,SMDPad,CuDef*
G36*
G01*
X8756250Y-7550000D02*
X8243750Y-7550000D01*
G75*
G02*
X8025000Y-7331250I0J218750D01*
G01*
X8025000Y-6893750D01*
G75*
G02*
X8243750Y-6675000I218750J0D01*
G01*
X8756250Y-6675000D01*
G75*
G02*
X8975000Y-6893750I0J-218750D01*
G01*
X8975000Y-7331250D01*
G75*
G02*
X8756250Y-7550000I-218750J0D01*
G01*
G37*
G04 #@! TD.AperFunction*
G04 #@! TO.P,C15,1*
G04 #@! TO.N,/IN-*
G04 #@! TA.AperFunction,SMDPad,CuDef*
G36*
G01*
X8756250Y-9125000D02*
X8243750Y-9125000D01*
G75*
G02*
X8025000Y-8906250I0J218750D01*
G01*
X8025000Y-8468750D01*
G75*
G02*
X8243750Y-8250000I218750J0D01*
G01*
X8756250Y-8250000D01*
G75*
G02*
X8975000Y-8468750I0J-218750D01*
G01*
X8975000Y-8906250D01*
G75*
G02*
X8756250Y-9125000I-218750J0D01*
G01*
G37*
G04 #@! TD.AperFunction*
G04 #@! TD*
G04 #@! TO.P,C14,2*
G04 #@! TO.N,/CONN_IN+*
G04 #@! TA.AperFunction,SMDPad,CuDef*
G36*
G01*
X21550000Y-11493750D02*
X21550000Y-12006250D01*
G75*
G02*
X21331250Y-12225000I-218750J0D01*
G01*
X20893750Y-12225000D01*
G75*
G02*
X20675000Y-12006250I0J218750D01*
G01*
X20675000Y-11493750D01*
G75*
G02*
X20893750Y-11275000I218750J0D01*
G01*
X21331250Y-11275000D01*
G75*
G02*
X21550000Y-11493750I0J-218750D01*
G01*
G37*
G04 #@! TD.AperFunction*
G04 #@! TO.P,C14,1*
G04 #@! TO.N,/IN+*
G04 #@! TA.AperFunction,SMDPad,CuDef*
G36*
G01*
X23125000Y-11493750D02*
X23125000Y-12006250D01*
G75*
G02*
X22906250Y-12225000I-218750J0D01*
G01*
X22468750Y-12225000D01*
G75*
G02*
X22250000Y-12006250I0J218750D01*
G01*
X22250000Y-11493750D01*
G75*
G02*
X22468750Y-11275000I218750J0D01*
G01*
X22906250Y-11275000D01*
G75*
G02*
X23125000Y-11493750I0J-218750D01*
G01*
G37*
G04 #@! TD.AperFunction*
G04 #@! TD*
G04 #@! TO.P,C13,2*
G04 #@! TO.N,GND*
G04 #@! TA.AperFunction,SMDPad,CuDef*
G36*
G01*
X5950000Y-21456250D02*
X5950000Y-20943750D01*
G75*
G02*
X6168750Y-20725000I218750J0D01*
G01*
X6606250Y-20725000D01*
G75*
G02*
X6825000Y-20943750I0J-218750D01*
G01*
X6825000Y-21456250D01*
G75*
G02*
X6606250Y-21675000I-218750J0D01*
G01*
X6168750Y-21675000D01*
G75*
G02*
X5950000Y-21456250I0J218750D01*
G01*
G37*
G04 #@! TD.AperFunction*
G04 #@! TO.P,C13,1*
G04 #@! TO.N,-6V*
G04 #@! TA.AperFunction,SMDPad,CuDef*
G36*
G01*
X4375000Y-21456250D02*
X4375000Y-20943750D01*
G75*
G02*
X4593750Y-20725000I218750J0D01*
G01*
X5031250Y-20725000D01*
G75*
G02*
X5250000Y-20943750I0J-218750D01*
G01*
X5250000Y-21456250D01*
G75*
G02*
X5031250Y-21675000I-218750J0D01*
G01*
X4593750Y-21675000D01*
G75*
G02*
X4375000Y-21456250I0J218750D01*
G01*
G37*
G04 #@! TD.AperFunction*
G04 #@! TD*
G04 #@! TO.P,C12,2*
G04 #@! TO.N,GND*
G04 #@! TA.AperFunction,SMDPad,CuDef*
G36*
G01*
X8250000Y-20943750D02*
X8250000Y-21456250D01*
G75*
G02*
X8031250Y-21675000I-218750J0D01*
G01*
X7593750Y-21675000D01*
G75*
G02*
X7375000Y-21456250I0J218750D01*
G01*
X7375000Y-20943750D01*
G75*
G02*
X7593750Y-20725000I218750J0D01*
G01*
X8031250Y-20725000D01*
G75*
G02*
X8250000Y-20943750I0J-218750D01*
G01*
G37*
G04 #@! TD.AperFunction*
G04 #@! TO.P,C12,1*
G04 #@! TO.N,+6V*
G04 #@! TA.AperFunction,SMDPad,CuDef*
G36*
G01*
X9825000Y-20943750D02*
X9825000Y-21456250D01*
G75*
G02*
X9606250Y-21675000I-218750J0D01*
G01*
X9168750Y-21675000D01*
G75*
G02*
X8950000Y-21456250I0J218750D01*
G01*
X8950000Y-20943750D01*
G75*
G02*
X9168750Y-20725000I218750J0D01*
G01*
X9606250Y-20725000D01*
G75*
G02*
X9825000Y-20943750I0J-218750D01*
G01*
G37*
G04 #@! TD.AperFunction*
G04 #@! TD*
G04 #@! TO.P,C9,2*
G04 #@! TO.N,GND*
G04 #@! TA.AperFunction,SMDPad,CuDef*
G36*
G01*
X5950000Y-22956250D02*
X5950000Y-22443750D01*
G75*
G02*
X6168750Y-22225000I218750J0D01*
G01*
X6606250Y-22225000D01*
G75*
G02*
X6825000Y-22443750I0J-218750D01*
G01*
X6825000Y-22956250D01*
G75*
G02*
X6606250Y-23175000I-218750J0D01*
G01*
X6168750Y-23175000D01*
G75*
G02*
X5950000Y-22956250I0J218750D01*
G01*
G37*
G04 #@! TD.AperFunction*
G04 #@! TO.P,C9,1*
G04 #@! TO.N,Net-(C9-Pad1)*
G04 #@! TA.AperFunction,SMDPad,CuDef*
G36*
G01*
X4375000Y-22956250D02*
X4375000Y-22443750D01*
G75*
G02*
X4593750Y-22225000I218750J0D01*
G01*
X5031250Y-22225000D01*
G75*
G02*
X5250000Y-22443750I0J-218750D01*
G01*
X5250000Y-22956250D01*
G75*
G02*
X5031250Y-23175000I-218750J0D01*
G01*
X4593750Y-23175000D01*
G75*
G02*
X4375000Y-22956250I0J218750D01*
G01*
G37*
G04 #@! TD.AperFunction*
G04 #@! TD*
G04 #@! TO.P,C8,2*
G04 #@! TO.N,GND*
G04 #@! TA.AperFunction,SMDPad,CuDef*
G36*
G01*
X8250000Y-22443750D02*
X8250000Y-22956250D01*
G75*
G02*
X8031250Y-23175000I-218750J0D01*
G01*
X7593750Y-23175000D01*
G75*
G02*
X7375000Y-22956250I0J218750D01*
G01*
X7375000Y-22443750D01*
G75*
G02*
X7593750Y-22225000I218750J0D01*
G01*
X8031250Y-22225000D01*
G75*
G02*
X8250000Y-22443750I0J-218750D01*
G01*
G37*
G04 #@! TD.AperFunction*
G04 #@! TO.P,C8,1*
G04 #@! TO.N,Net-(C8-Pad1)*
G04 #@! TA.AperFunction,SMDPad,CuDef*
G36*
G01*
X9825000Y-22443750D02*
X9825000Y-22956250D01*
G75*
G02*
X9606250Y-23175000I-218750J0D01*
G01*
X9168750Y-23175000D01*
G75*
G02*
X8950000Y-22956250I0J218750D01*
G01*
X8950000Y-22443750D01*
G75*
G02*
X9168750Y-22225000I218750J0D01*
G01*
X9606250Y-22225000D01*
G75*
G02*
X9825000Y-22443750I0J-218750D01*
G01*
G37*
G04 #@! TD.AperFunction*
G04 #@! TD*
G04 #@! TO.P,C7,2*
G04 #@! TO.N,GND*
G04 #@! TA.AperFunction,SMDPad,CuDef*
G36*
G01*
X5950000Y-25956250D02*
X5950000Y-25443750D01*
G75*
G02*
X6168750Y-25225000I218750J0D01*
G01*
X6606250Y-25225000D01*
G75*
G02*
X6825000Y-25443750I0J-218750D01*
G01*
X6825000Y-25956250D01*
G75*
G02*
X6606250Y-26175000I-218750J0D01*
G01*
X6168750Y-26175000D01*
G75*
G02*
X5950000Y-25956250I0J218750D01*
G01*
G37*
G04 #@! TD.AperFunction*
G04 #@! TO.P,C7,1*
G04 #@! TO.N,Net-(C7-Pad1)*
G04 #@! TA.AperFunction,SMDPad,CuDef*
G36*
G01*
X4375000Y-25956250D02*
X4375000Y-25443750D01*
G75*
G02*
X4593750Y-25225000I218750J0D01*
G01*
X5031250Y-25225000D01*
G75*
G02*
X5250000Y-25443750I0J-218750D01*
G01*
X5250000Y-25956250D01*
G75*
G02*
X5031250Y-26175000I-218750J0D01*
G01*
X4593750Y-26175000D01*
G75*
G02*
X4375000Y-25956250I0J218750D01*
G01*
G37*
G04 #@! TD.AperFunction*
G04 #@! TD*
G04 #@! TO.P,C6,2*
G04 #@! TO.N,GND*
G04 #@! TA.AperFunction,SMDPad,CuDef*
G36*
G01*
X8250000Y-25443750D02*
X8250000Y-25956250D01*
G75*
G02*
X8031250Y-26175000I-218750J0D01*
G01*
X7593750Y-26175000D01*
G75*
G02*
X7375000Y-25956250I0J218750D01*
G01*
X7375000Y-25443750D01*
G75*
G02*
X7593750Y-25225000I218750J0D01*
G01*
X8031250Y-25225000D01*
G75*
G02*
X8250000Y-25443750I0J-218750D01*
G01*
G37*
G04 #@! TD.AperFunction*
G04 #@! TO.P,C6,1*
G04 #@! TO.N,Net-(C6-Pad1)*
G04 #@! TA.AperFunction,SMDPad,CuDef*
G36*
G01*
X9825000Y-25443750D02*
X9825000Y-25956250D01*
G75*
G02*
X9606250Y-26175000I-218750J0D01*
G01*
X9168750Y-26175000D01*
G75*
G02*
X8950000Y-25956250I0J218750D01*
G01*
X8950000Y-25443750D01*
G75*
G02*
X9168750Y-25225000I218750J0D01*
G01*
X9606250Y-25225000D01*
G75*
G02*
X9825000Y-25443750I0J-218750D01*
G01*
G37*
G04 #@! TD.AperFunction*
G04 #@! TD*
G04 #@! TO.P,C5,2*
G04 #@! TO.N,Net-(C5-Pad2)*
G04 #@! TA.AperFunction,SMDPad,CuDef*
G36*
G01*
X6250000Y-34943750D02*
X6250000Y-35456250D01*
G75*
G02*
X6031250Y-35675000I-218750J0D01*
G01*
X5593750Y-35675000D01*
G75*
G02*
X5375000Y-35456250I0J218750D01*
G01*
X5375000Y-34943750D01*
G75*
G02*
X5593750Y-34725000I218750J0D01*
G01*
X6031250Y-34725000D01*
G75*
G02*
X6250000Y-34943750I0J-218750D01*
G01*
G37*
G04 #@! TD.AperFunction*
G04 #@! TO.P,C5,1*
G04 #@! TO.N,Net-(C5-Pad1)*
G04 #@! TA.AperFunction,SMDPad,CuDef*
G36*
G01*
X7825000Y-34943750D02*
X7825000Y-35456250D01*
G75*
G02*
X7606250Y-35675000I-218750J0D01*
G01*
X7168750Y-35675000D01*
G75*
G02*
X6950000Y-35456250I0J218750D01*
G01*
X6950000Y-34943750D01*
G75*
G02*
X7168750Y-34725000I218750J0D01*
G01*
X7606250Y-34725000D01*
G75*
G02*
X7825000Y-34943750I0J-218750D01*
G01*
G37*
G04 #@! TD.AperFunction*
G04 #@! TD*
G04 #@! TO.P,C4,2*
G04 #@! TO.N,Net-(C4-Pad2)*
G04 #@! TA.AperFunction,SMDPad,CuDef*
G36*
G01*
X7143750Y-33250000D02*
X7656250Y-33250000D01*
G75*
G02*
X7875000Y-33468750I0J-218750D01*
G01*
X7875000Y-33906250D01*
G75*
G02*
X7656250Y-34125000I-218750J0D01*
G01*
X7143750Y-34125000D01*
G75*
G02*
X6925000Y-33906250I0J218750D01*
G01*
X6925000Y-33468750D01*
G75*
G02*
X7143750Y-33250000I218750J0D01*
G01*
G37*
G04 #@! TD.AperFunction*
G04 #@! TO.P,C4,1*
G04 #@! TO.N,Net-(C4-Pad1)*
G04 #@! TA.AperFunction,SMDPad,CuDef*
G36*
G01*
X7143750Y-31675000D02*
X7656250Y-31675000D01*
G75*
G02*
X7875000Y-31893750I0J-218750D01*
G01*
X7875000Y-32331250D01*
G75*
G02*
X7656250Y-32550000I-218750J0D01*
G01*
X7143750Y-32550000D01*
G75*
G02*
X6925000Y-32331250I0J218750D01*
G01*
X6925000Y-31893750D01*
G75*
G02*
X7143750Y-31675000I218750J0D01*
G01*
G37*
G04 #@! TD.AperFunction*
G04 #@! TD*
G04 #@! TO.P,C3,2*
G04 #@! TO.N,GND*
G04 #@! TA.AperFunction,SMDPad,CuDef*
G36*
G01*
X21000000Y-31356250D02*
X21000000Y-30843750D01*
G75*
G02*
X21218750Y-30625000I218750J0D01*
G01*
X21656250Y-30625000D01*
G75*
G02*
X21875000Y-30843750I0J-218750D01*
G01*
X21875000Y-31356250D01*
G75*
G02*
X21656250Y-31575000I-218750J0D01*
G01*
X21218750Y-31575000D01*
G75*
G02*
X21000000Y-31356250I0J218750D01*
G01*
G37*
G04 #@! TD.AperFunction*
G04 #@! TO.P,C3,1*
G04 #@! TO.N,Net-(C26-Pad1)*
G04 #@! TA.AperFunction,SMDPad,CuDef*
G36*
G01*
X19425000Y-31356250D02*
X19425000Y-30843750D01*
G75*
G02*
X19643750Y-30625000I218750J0D01*
G01*
X20081250Y-30625000D01*
G75*
G02*
X20300000Y-30843750I0J-218750D01*
G01*
X20300000Y-31356250D01*
G75*
G02*
X20081250Y-31575000I-218750J0D01*
G01*
X19643750Y-31575000D01*
G75*
G02*
X19425000Y-31356250I0J218750D01*
G01*
G37*
G04 #@! TD.AperFunction*
G04 #@! TD*
G04 #@! TO.P,C2,2*
G04 #@! TO.N,GND*
G04 #@! TA.AperFunction,SMDPad,CuDef*
G36*
G01*
X22393750Y-35850000D02*
X22906250Y-35850000D01*
G75*
G02*
X23125000Y-36068750I0J-218750D01*
G01*
X23125000Y-36506250D01*
G75*
G02*
X22906250Y-36725000I-218750J0D01*
G01*
X22393750Y-36725000D01*
G75*
G02*
X22175000Y-36506250I0J218750D01*
G01*
X22175000Y-36068750D01*
G75*
G02*
X22393750Y-35850000I218750J0D01*
G01*
G37*
G04 #@! TD.AperFunction*
G04 #@! TO.P,C2,1*
G04 #@! TO.N,Net-(C2-Pad1)*
G04 #@! TA.AperFunction,SMDPad,CuDef*
G36*
G01*
X22393750Y-34275000D02*
X22906250Y-34275000D01*
G75*
G02*
X23125000Y-34493750I0J-218750D01*
G01*
X23125000Y-34931250D01*
G75*
G02*
X22906250Y-35150000I-218750J0D01*
G01*
X22393750Y-35150000D01*
G75*
G02*
X22175000Y-34931250I0J218750D01*
G01*
X22175000Y-34493750D01*
G75*
G02*
X22393750Y-34275000I218750J0D01*
G01*
G37*
G04 #@! TD.AperFunction*
G04 #@! TD*
G04 #@! TO.P,C1,2*
G04 #@! TO.N,GND*
G04 #@! TA.AperFunction,SMDPad,CuDef*
G36*
G01*
X23893750Y-35850000D02*
X24406250Y-35850000D01*
G75*
G02*
X24625000Y-36068750I0J-218750D01*
G01*
X24625000Y-36506250D01*
G75*
G02*
X24406250Y-36725000I-218750J0D01*
G01*
X23893750Y-36725000D01*
G75*
G02*
X23675000Y-36506250I0J218750D01*
G01*
X23675000Y-36068750D01*
G75*
G02*
X23893750Y-35850000I218750J0D01*
G01*
G37*
G04 #@! TD.AperFunction*
G04 #@! TO.P,C1,1*
G04 #@! TO.N,+5V*
G04 #@! TA.AperFunction,SMDPad,CuDef*
G36*
G01*
X23893750Y-34275000D02*
X24406250Y-34275000D01*
G75*
G02*
X24625000Y-34493750I0J-218750D01*
G01*
X24625000Y-34931250D01*
G75*
G02*
X24406250Y-35150000I-218750J0D01*
G01*
X23893750Y-35150000D01*
G75*
G02*
X23675000Y-34931250I0J218750D01*
G01*
X23675000Y-34493750D01*
G75*
G02*
X23893750Y-34275000I218750J0D01*
G01*
G37*
G04 #@! TD.AperFunction*
G04 #@! TD*
D32*
G04 #@! TO.N,GND*
X17500000Y-2000000D03*
X10500000Y-1900000D03*
X9600000Y-34400000D03*
X8300000Y-28700000D03*
X8300000Y-29500000D03*
X5900000Y-29500000D03*
X5900000Y-28700000D03*
X7100000Y-28700000D03*
X7100000Y-29500000D03*
X7100000Y-25000000D03*
X7100000Y-23400000D03*
X7100000Y-20500000D03*
X25600000Y-26400000D03*
X18700000Y-30900000D03*
X5100000Y-18500000D03*
X6600000Y-1600000D03*
X20300000Y-2875000D03*
X23500000Y-5700000D03*
X21700000Y-19400000D03*
X5300000Y-33000000D03*
X25000000Y-36250000D03*
X21750000Y-36400000D03*
X22200000Y-31900000D03*
X19200000Y-22800000D03*
G04 #@! TO.N,Net-(C19-Pad2)*
X23222845Y-29687541D03*
X15500000Y-4800000D03*
G04 #@! TO.N,Net-(C6-Pad1)*
X8643750Y-24956250D03*
X11000000Y-31200000D03*
G04 #@! TO.N,+6V*
X17976915Y-28223085D03*
X6000000Y-3500000D03*
X20431250Y-4868750D03*
X21500000Y-22800000D03*
X11600000Y-20500000D03*
G04 #@! TO.N,-6V*
X5500000Y-20500000D03*
X21500000Y-21500000D03*
G04 #@! TO.N,Net-(R18-Pad2)*
X24600000Y-29300000D03*
X16600000Y-4800000D03*
G04 #@! TO.N,Net-(C26-Pad1)*
X5200000Y-27125000D03*
X9100000Y-31300000D03*
X5000000Y-31000034D03*
G04 #@! TO.N,+5V*
X24887502Y-34787500D03*
G04 #@! TD*
D33*
G04 #@! TO.N,GND*
X7350000Y-29350000D02*
X7100000Y-29100000D01*
X7350000Y-30550000D02*
X7350000Y-29350000D01*
X7500000Y-29100000D02*
X7100000Y-29100000D01*
X8350000Y-29950000D02*
X7500000Y-29100000D01*
X8350000Y-30550000D02*
X8350000Y-29950000D01*
D34*
X7062500Y-29137500D02*
X7100000Y-29100000D01*
X3800000Y-29137500D02*
X7062500Y-29137500D01*
X17500000Y-1950000D02*
X17500000Y-2000000D01*
X10500000Y-1950000D02*
X10500000Y-1900000D01*
X15200000Y-28400000D02*
X15589964Y-28400000D01*
X8900000Y-33700000D02*
X9600000Y-34400000D01*
X8900000Y-33687500D02*
X8900000Y-33700000D01*
X7900000Y-29100000D02*
X8300000Y-28700000D01*
X7100000Y-29100000D02*
X7900000Y-29100000D01*
X7900000Y-29100000D02*
X8300000Y-29500000D01*
X6300000Y-29100000D02*
X5900000Y-29500000D01*
X7100000Y-29100000D02*
X6300000Y-29100000D01*
X6300000Y-29100000D02*
X5900000Y-28700000D01*
X7100000Y-29100000D02*
X7100000Y-28700000D01*
X7100000Y-29100000D02*
X7100000Y-29500000D01*
X7100000Y-25700000D02*
X7100000Y-25000000D01*
X7812500Y-25700000D02*
X7100000Y-25700000D01*
X7100000Y-25700000D02*
X6387500Y-25700000D01*
X7812500Y-22700000D02*
X7800000Y-22700000D01*
X7800000Y-22700000D02*
X7100000Y-23400000D01*
X6400000Y-22700000D02*
X7100000Y-23400000D01*
X6387500Y-22700000D02*
X6400000Y-22700000D01*
X6400000Y-21200000D02*
X7100000Y-20500000D01*
X6387500Y-21200000D02*
X6400000Y-21200000D01*
X7800000Y-21200000D02*
X7100000Y-20500000D01*
X7812500Y-21200000D02*
X7800000Y-21200000D01*
X25587500Y-28800000D02*
X25587500Y-27300000D01*
X25587500Y-26412500D02*
X25600000Y-26400000D01*
X25587500Y-27300000D02*
X25587500Y-26412500D01*
X17950000Y-30287500D02*
X18087500Y-30287500D01*
X18087500Y-30287500D02*
X18700000Y-30900000D01*
X5100000Y-19275000D02*
X5100000Y-18500000D01*
X5100000Y-2512500D02*
X6600000Y-2512500D01*
X6600000Y-2512500D02*
X6600000Y-1600000D01*
X20137500Y-2712500D02*
X20300000Y-2875000D01*
X19850000Y-2712500D02*
X20137500Y-2712500D01*
X23500000Y-6412500D02*
X23500000Y-5700000D01*
X22900000Y-19275000D02*
X21825000Y-19275000D01*
X21825000Y-19275000D02*
X21700000Y-19400000D01*
X5900000Y-33600000D02*
X5300000Y-33000000D01*
X5900000Y-33687500D02*
X5900000Y-33600000D01*
X24962500Y-36287500D02*
X25000000Y-36250000D01*
X24150000Y-36287500D02*
X24962500Y-36287500D01*
X21862500Y-36287500D02*
X21750000Y-36400000D01*
X22650000Y-36287500D02*
X21862500Y-36287500D01*
X21437500Y-31137500D02*
X22200000Y-31900000D01*
X21437500Y-31100000D02*
X21437500Y-31137500D01*
X25000000Y-25800000D02*
X25600000Y-26400000D01*
X24487500Y-25800000D02*
X25000000Y-25800000D01*
X19200000Y-24050000D02*
X19200000Y-22800000D01*
G04 #@! TO.N,Net-(C2-Pad1)*
X22675000Y-34712500D02*
X24137500Y-33250000D01*
X22650000Y-34712500D02*
X22675000Y-34712500D01*
X25562500Y-33250000D02*
X25600000Y-33212500D01*
X24137500Y-33250000D02*
X25562500Y-33250000D01*
G04 #@! TO.N,Net-(C8-Pad1)*
X9387500Y-24200000D02*
X9387500Y-22700000D01*
X9425000Y-22737500D02*
X9387500Y-22700000D01*
X10850000Y-22737500D02*
X9425000Y-22737500D01*
G04 #@! TO.N,Net-(C9-Pad1)*
X4812500Y-24200000D02*
X4812500Y-22700000D01*
X3387500Y-22700000D02*
X3350000Y-22737500D01*
X4812500Y-22700000D02*
X3387500Y-22700000D01*
G04 #@! TO.N,Net-(C19-Pad2)*
X23150001Y-29662501D02*
X23700000Y-30212500D01*
X23150001Y-28804999D02*
X23150001Y-29662501D01*
X23020002Y-28675000D02*
X23150001Y-28804999D01*
X22400000Y-28675000D02*
X23020002Y-28675000D01*
X25200000Y-30212500D02*
X23700000Y-30212500D01*
X23700000Y-30164696D02*
X23222845Y-29687541D01*
X23700000Y-30212500D02*
X23700000Y-30164696D01*
X8100000Y-2512500D02*
X9387500Y-3800000D01*
X14500000Y-3800000D02*
X15500000Y-4800000D01*
X9387500Y-3800000D02*
X14500000Y-3800000D01*
D33*
G04 #@! TO.N,Net-(R15-Pad2)*
X7337490Y-4850010D02*
X8100000Y-4087500D01*
X6289988Y-4850010D02*
X7337490Y-4850010D01*
X6025000Y-5114998D02*
X6289988Y-4850010D01*
X6025000Y-5600000D02*
X6025000Y-5114998D01*
D34*
X7550000Y-4637500D02*
X8100000Y-4087500D01*
X7550000Y-9187500D02*
X7550000Y-4637500D01*
X6587500Y-10150000D02*
X7550000Y-9187500D01*
D33*
G04 #@! TO.N,Net-(C4-Pad2)*
X6850000Y-31362500D02*
X6100000Y-32112500D01*
X6850000Y-30550000D02*
X6850000Y-31362500D01*
X6100000Y-32187500D02*
X7600000Y-33687500D01*
X6100000Y-32112500D02*
X6100000Y-32187500D01*
X7400000Y-33787500D02*
X8812500Y-35200000D01*
X7600000Y-33687500D02*
X7600000Y-33787500D01*
G04 #@! TO.N,Net-(C4-Pad1)*
X9837490Y-32924990D02*
X10600000Y-33687500D01*
X8412490Y-32924990D02*
X9837490Y-32924990D01*
X7600000Y-32112500D02*
X8412490Y-32924990D01*
G04 #@! TO.N,Net-(C5-Pad2)*
X4400000Y-33787500D02*
X5812500Y-35200000D01*
X3100000Y-32287500D02*
X4600000Y-33787500D01*
X2700000Y-31712500D02*
X3100000Y-32112500D01*
X3000000Y-28200000D02*
X2700000Y-28500000D01*
X4914998Y-28200000D02*
X3000000Y-28200000D01*
X3100000Y-32112500D02*
X3100000Y-32287500D01*
X2700000Y-28500000D02*
X2700000Y-31712500D01*
X5364997Y-27750001D02*
X4914998Y-28200000D01*
X5749999Y-27750001D02*
X5364997Y-27750001D01*
X5850000Y-27650000D02*
X5749999Y-27750001D01*
G04 #@! TO.N,Net-(C5-Pad1)*
X6487500Y-36100000D02*
X7387500Y-35200000D01*
X5243750Y-36100000D02*
X6487500Y-36100000D01*
X4387500Y-35243750D02*
X5243750Y-36100000D01*
X4387500Y-35200000D02*
X4387500Y-35243750D01*
D34*
G04 #@! TO.N,Net-(C6-Pad1)*
X9600000Y-25700000D02*
X10800000Y-24500000D01*
X9387500Y-25700000D02*
X9600000Y-25700000D01*
X7812500Y-24200000D02*
X7887500Y-24200000D01*
D33*
X10587500Y-35012500D02*
X10587500Y-35200000D01*
X11200010Y-34399990D02*
X10587500Y-35012500D01*
X11200010Y-32900010D02*
X11200010Y-34399990D01*
X10412500Y-32112500D02*
X11200010Y-32900010D01*
X10400000Y-32112500D02*
X10412500Y-32112500D01*
D34*
X9387500Y-25700000D02*
X8643750Y-24956250D01*
X7887500Y-24200000D02*
X8643750Y-24956250D01*
X10400000Y-31800000D02*
X11000000Y-31200000D01*
X10400000Y-32112500D02*
X10400000Y-31800000D01*
G04 #@! TO.N,Net-(C7-Pad1)*
X4887500Y-25700000D02*
X6387500Y-24200000D01*
X4812500Y-25700000D02*
X4887500Y-25700000D01*
X3612500Y-24500000D02*
X4812500Y-25700000D01*
X3400000Y-24500000D02*
X3612500Y-24500000D01*
D33*
X2887500Y-33687500D02*
X3100000Y-33687500D01*
X2000000Y-32800000D02*
X2887500Y-33687500D01*
X2000000Y-25900000D02*
X2000000Y-32800000D01*
X3400000Y-24500000D02*
X2000000Y-25900000D01*
X2700000Y-35087500D02*
X2812500Y-35200000D01*
X2900000Y-33687500D02*
X2900000Y-35087500D01*
G04 #@! TO.N,+6V*
X6402498Y-4087500D02*
X6600000Y-4087500D01*
X5375000Y-5114998D02*
X6402498Y-4087500D01*
X5375000Y-5400000D02*
X5375000Y-5114998D01*
D34*
X17987500Y-28675000D02*
X17950000Y-28712500D01*
X19300000Y-28675000D02*
X17987500Y-28675000D01*
X10812500Y-21200000D02*
X10850000Y-21162500D01*
X9387500Y-21200000D02*
X10812500Y-21200000D01*
X17950000Y-28250000D02*
X17976915Y-28223085D01*
X17950000Y-28712500D02*
X17950000Y-28250000D01*
X20575000Y-5450000D02*
X20575000Y-5012500D01*
X6587500Y-4087500D02*
X6000000Y-3500000D01*
X6600000Y-4087500D02*
X6587500Y-4087500D01*
X19850000Y-4287500D02*
X20431250Y-4868750D01*
X20575000Y-5012500D02*
X20431250Y-4868750D01*
X23900000Y-21800000D02*
X22900000Y-22800000D01*
X23900000Y-20800000D02*
X23900000Y-21800000D01*
X22900000Y-22800000D02*
X21500000Y-22800000D01*
X9387500Y-21200000D02*
X10900000Y-21200000D01*
X10900000Y-21200000D02*
X11600000Y-20500000D01*
G04 #@! TO.N,-6V*
X4450000Y-6700000D02*
X5075000Y-6700000D01*
X4100000Y-4612500D02*
X4100000Y-6350000D01*
X4625000Y-4087500D02*
X4100000Y-4612500D01*
X4100000Y-6350000D02*
X4450000Y-6700000D01*
X5100000Y-4087500D02*
X4625000Y-4087500D01*
X6675000Y-7950000D02*
X6325000Y-7600000D01*
X6675000Y-8700000D02*
X6675000Y-7950000D01*
X21875000Y-8000000D02*
X21525000Y-7650000D01*
X21875000Y-8750000D02*
X21875000Y-8000000D01*
X23162500Y-7650000D02*
X23500000Y-7987500D01*
X21525000Y-7650000D02*
X23162500Y-7650000D01*
X21575000Y-27375000D02*
X21350000Y-27600000D01*
X22400000Y-27375000D02*
X21575000Y-27375000D01*
X4775000Y-21162500D02*
X4812500Y-21200000D01*
X3350000Y-21162500D02*
X4775000Y-21162500D01*
X23937500Y-27375000D02*
X24012500Y-27300000D01*
X22600000Y-27375000D02*
X23937500Y-27375000D01*
X4812500Y-21187500D02*
X5500000Y-20500000D01*
X4812500Y-21200000D02*
X4812500Y-21187500D01*
X21900000Y-21100000D02*
X21500000Y-21500000D01*
X21900000Y-20800000D02*
X21900000Y-21100000D01*
G04 #@! TO.N,Net-(C19-Pad1)*
X25200000Y-31787500D02*
X23700000Y-31787500D01*
X18081280Y-27337500D02*
X17300000Y-27337500D01*
X18768780Y-28025000D02*
X18081280Y-27337500D01*
X19100000Y-28025000D02*
X18768780Y-28025000D01*
D33*
X17100000Y-27537500D02*
X17300000Y-27337500D01*
X17100000Y-29106494D02*
X17100000Y-27537500D01*
X18406494Y-29500000D02*
X17493506Y-29500000D01*
X17493506Y-29500000D02*
X17100000Y-29106494D01*
X19006494Y-30100000D02*
X18406494Y-29500000D01*
D34*
X19106494Y-30200000D02*
X19006494Y-30100000D01*
X22112500Y-30200000D02*
X19106494Y-30200000D01*
X23700000Y-31787500D02*
X22112500Y-30200000D01*
G04 #@! TO.N,Net-(D1-Pad1)*
X3400000Y-26862500D02*
X3800000Y-27262500D01*
D33*
X4137500Y-27262500D02*
X3800000Y-27262500D01*
X6800000Y-26500000D02*
X4900000Y-26500000D01*
X4900000Y-26500000D02*
X4137500Y-27262500D01*
X7350000Y-27050000D02*
X6800000Y-26500000D01*
X7350000Y-27650000D02*
X7350000Y-27050000D01*
D34*
X3400000Y-25900000D02*
X3400000Y-26862500D01*
G04 #@! TO.N,Net-(D2-Pad2)*
X10800000Y-26862500D02*
X10400000Y-27262500D01*
X10800000Y-25900000D02*
X10800000Y-26862500D01*
D33*
X7850000Y-27650000D02*
X7850000Y-27050000D01*
D34*
X10714473Y-26776973D02*
X8123027Y-26776973D01*
X10800000Y-26862500D02*
X10714473Y-26776973D01*
X8123027Y-26776973D02*
X7950000Y-26950000D01*
D33*
X7850000Y-27050000D02*
X7950000Y-26950000D01*
G04 #@! TO.N,Net-(R1-Pad2)*
X4700029Y-30374966D02*
X4302014Y-30772981D01*
X5674966Y-30374966D02*
X4700029Y-30374966D01*
X5850000Y-30550000D02*
X5674966Y-30374966D01*
X4302014Y-31814514D02*
X4600000Y-32112500D01*
X4302014Y-30772981D02*
X4302014Y-31814514D01*
D34*
G04 #@! TO.N,Net-(R12-Pad2)*
X20600000Y-21200000D02*
X20200000Y-20800000D01*
X20600000Y-25112500D02*
X20600000Y-21200000D01*
X19912500Y-25800000D02*
X20600000Y-25112500D01*
X20600000Y-20400000D02*
X20200000Y-20800000D01*
X20600000Y-19300000D02*
X20600000Y-20400000D01*
X21712500Y-18187500D02*
X20600000Y-19300000D01*
X21712500Y-13600000D02*
X21712500Y-18187500D01*
G04 #@! TO.N,Net-(R13-Pad2)*
X18000000Y-20800000D02*
X18200000Y-20800000D01*
X8887500Y-11687500D02*
X18000000Y-20800000D01*
X8500000Y-11687500D02*
X8887500Y-11687500D01*
G04 #@! TO.N,Net-(R14-Pad2)*
X19875040Y-10012500D02*
X19600000Y-10012500D01*
X20575000Y-9312540D02*
X19875040Y-10012500D01*
X20575000Y-8750000D02*
X20575000Y-9312540D01*
X19050000Y-8087500D02*
X18300000Y-7337500D01*
X19050000Y-9412500D02*
X19050000Y-8087500D01*
X19650000Y-10012500D02*
X19050000Y-9412500D01*
G04 #@! TO.N,Net-(R14-Pad1)*
X21225000Y-4412500D02*
X21350000Y-4287500D01*
X21225000Y-5650000D02*
X21225000Y-4412500D01*
D33*
X20562500Y-3500000D02*
X19393506Y-3500000D01*
D34*
X18300000Y-4593506D02*
X18971753Y-3921753D01*
X18300000Y-5762500D02*
X18300000Y-4593506D01*
D33*
X19393506Y-3500000D02*
X18971753Y-3921753D01*
D34*
X21350000Y-4287500D02*
X20756250Y-3693750D01*
D33*
X20756250Y-3693750D02*
X20562500Y-3500000D01*
D34*
G04 #@! TO.N,Net-(R15-Pad1)*
X5012500Y-9675000D02*
X5012500Y-10150000D01*
X5375000Y-9312500D02*
X5012500Y-9675000D01*
X5375000Y-8900000D02*
X5375000Y-9312500D01*
X5012500Y-10150000D02*
X5012500Y-11950000D01*
G04 #@! TO.N,Net-(R16-Pad1)*
X19650000Y-14400000D02*
X19150000Y-14900000D01*
X19650000Y-11587500D02*
X19650000Y-14400000D01*
G04 #@! TO.N,Net-(R17-Pad1)*
X6587500Y-11950000D02*
X6587500Y-13437500D01*
X8050000Y-14900000D02*
X8850000Y-14900000D01*
X6587500Y-13437500D02*
X8050000Y-14900000D01*
G04 #@! TO.N,Net-(R18-Pad2)*
X23237500Y-28025000D02*
X24012500Y-28800000D01*
X22400000Y-28025000D02*
X23237500Y-28025000D01*
X24100000Y-28800000D02*
X24600000Y-29300000D01*
X24012500Y-28800000D02*
X24100000Y-28800000D01*
X17112132Y-4800000D02*
X16600000Y-4800000D01*
X18900001Y-3012131D02*
X17112132Y-4800000D01*
X18900001Y-2312439D02*
X18900001Y-3012131D01*
X19412440Y-1800000D02*
X18900001Y-2312439D01*
X20437500Y-1800000D02*
X19412440Y-1800000D01*
X21350000Y-2712500D02*
X20437500Y-1800000D01*
D33*
G04 #@! TO.N,Net-(C26-Pad1)*
X5350001Y-26974999D02*
X5200000Y-27125000D01*
X6274999Y-26974999D02*
X5350001Y-26974999D01*
X6350000Y-27050000D02*
X6274999Y-26974999D01*
X6350000Y-27650000D02*
X6350000Y-27050000D01*
X8852498Y-32112500D02*
X9100000Y-32112500D01*
X7850000Y-30550000D02*
X7850000Y-31110002D01*
D34*
X9306250Y-31506250D02*
X9100000Y-31300000D01*
X9506250Y-31506250D02*
X9306250Y-31506250D01*
X10400000Y-30612500D02*
X9506250Y-31506250D01*
X9506250Y-31506250D02*
X8900000Y-32112500D01*
X10400000Y-30400000D02*
X10400000Y-30612500D01*
D33*
X6350000Y-30550000D02*
X6350000Y-31150000D01*
X6152954Y-31347046D02*
X5347012Y-31347046D01*
X6350000Y-31150000D02*
X6152954Y-31347046D01*
X5347012Y-31347046D02*
X5000000Y-31000034D01*
D34*
X10400000Y-29900000D02*
X10400000Y-30400000D01*
X10400000Y-29137500D02*
X10400000Y-29900000D01*
X10600000Y-30100000D02*
X10400000Y-29900000D01*
X16300000Y-30100000D02*
X10600000Y-30100000D01*
X22125000Y-33250000D02*
X20875000Y-32000000D01*
X18200000Y-32000000D02*
X16300000Y-30100000D01*
X22562500Y-33250000D02*
X22125000Y-33250000D01*
X19862500Y-31862500D02*
X20000000Y-32000000D01*
X20000000Y-32000000D02*
X18200000Y-32000000D01*
X19862500Y-31100000D02*
X19862500Y-31862500D01*
X20875000Y-32000000D02*
X20000000Y-32000000D01*
X8852498Y-32112500D02*
X8069999Y-31330001D01*
X8900000Y-32112500D02*
X8852498Y-32112500D01*
D33*
X7850000Y-31110002D02*
X8069999Y-31330001D01*
D34*
G04 #@! TO.N,/CONN_IN+*
X21100000Y-10237500D02*
X21062500Y-10200000D01*
X21062500Y-11700000D02*
X21100000Y-11662500D01*
D33*
X20975010Y-10824990D02*
X21100000Y-10700000D01*
X19218496Y-10824990D02*
X20975010Y-10824990D01*
D34*
X21100000Y-10700000D02*
X21100000Y-10237500D01*
X21100000Y-11662500D02*
X21100000Y-10700000D01*
X17543506Y-9150000D02*
X18496753Y-10103247D01*
X17500000Y-9150000D02*
X17543506Y-9150000D01*
D33*
X18496753Y-10103247D02*
X19218496Y-10824990D01*
D34*
G04 #@! TO.N,/IN+*
X22700000Y-10262500D02*
X22637500Y-10200000D01*
X22700000Y-11637500D02*
X22700000Y-10262500D01*
X22637500Y-11700000D02*
X22700000Y-11637500D01*
D33*
X21450001Y-9425001D02*
X21862501Y-9425001D01*
X21225000Y-9200000D02*
X21450001Y-9425001D01*
X21225000Y-8950000D02*
X21225000Y-9200000D01*
D34*
X22687500Y-10250000D02*
X22118750Y-9681250D01*
D33*
X21862501Y-9425001D02*
X22118750Y-9681250D01*
D34*
X23287500Y-12350000D02*
X22687500Y-11750000D01*
X23287500Y-13600000D02*
X23287500Y-12350000D01*
X22900000Y-13987500D02*
X23287500Y-13600000D01*
X22900000Y-15125000D02*
X22900000Y-13987500D01*
X23287500Y-13212500D02*
X23287500Y-13600000D01*
X23289533Y-13210467D02*
X23287500Y-13212500D01*
X24900274Y-13210467D02*
X23289533Y-13210467D01*
G04 #@! TO.N,/CONN_IN-*
X9987500Y-7112500D02*
X10000000Y-7100000D01*
X8500000Y-7112500D02*
X9987500Y-7112500D01*
X10000000Y-5850000D02*
X10500000Y-5350000D01*
X10000000Y-7100000D02*
X10000000Y-5850000D01*
G04 #@! TO.N,/IN-*
X8512500Y-8675000D02*
X8500000Y-8687500D01*
X10000000Y-8675000D02*
X8512500Y-8675000D01*
X7537510Y-11074990D02*
X8500000Y-10112500D01*
X5775010Y-11074990D02*
X7537510Y-11074990D01*
D33*
X5800000Y-11099980D02*
X5800000Y-12450000D01*
X5775010Y-11074990D02*
X5800000Y-11099980D01*
X5800000Y-11050000D02*
X5775010Y-11074990D01*
X5800000Y-9693506D02*
X5800000Y-11050000D01*
X6025000Y-9468506D02*
X5800000Y-9693506D01*
X6025000Y-9000000D02*
X6025000Y-9468506D01*
X5925000Y-8900000D02*
X6025000Y-9000000D01*
D34*
X5026449Y-13223551D02*
X5400000Y-12850000D01*
X3349383Y-13223551D02*
X5026449Y-13223551D01*
D33*
X5800000Y-12450000D02*
X5400000Y-12850000D01*
D34*
X5026449Y-15051449D02*
X5100000Y-15125000D01*
X5026449Y-13223551D02*
X5026449Y-15051449D01*
X8500000Y-10112500D02*
X8500000Y-8687500D01*
G04 #@! TO.N,/OFFSET_TRIM*
X21487500Y-25800000D02*
X22912500Y-25800000D01*
X22912500Y-24062500D02*
X22900000Y-24050000D01*
X22912500Y-25800000D02*
X22912500Y-24062500D01*
G04 #@! TO.N,+5V*
X24150000Y-34712500D02*
X24225000Y-34787500D01*
X25600000Y-34787500D02*
X24225000Y-34787500D01*
X24225000Y-34787500D02*
X24887502Y-34787500D01*
G04 #@! TO.N,/OUT*
X14900000Y-22400000D02*
X14100000Y-21600000D01*
X14100000Y-21600000D02*
X14100000Y-21300000D01*
X16200000Y-22400000D02*
X14900000Y-22400000D01*
X17300000Y-23500000D02*
X16200000Y-22400000D01*
X17300000Y-25762500D02*
X17300000Y-23500000D01*
G04 #@! TD*
D35*
X17500000Y-2000000D03*
X10500000Y-1900000D03*
X9600000Y-34400000D03*
X8300000Y-28700000D03*
X8300000Y-29500000D03*
X5900000Y-29500000D03*
X5900000Y-28700000D03*
X7100000Y-28700000D03*
X7100000Y-29500000D03*
X7100000Y-25000000D03*
X7100000Y-23400000D03*
X7100000Y-20500000D03*
X25600000Y-26400000D03*
X18700000Y-30900000D03*
X5100000Y-18500000D03*
X6600000Y-1600000D03*
X20300000Y-2875000D03*
X23500000Y-5700000D03*
X21700000Y-19400000D03*
X5300000Y-33000000D03*
X25000000Y-36250000D03*
X21750000Y-36400000D03*
X22200000Y-31900000D03*
X19200000Y-22800000D03*
X23222845Y-29687541D03*
X15500000Y-4800000D03*
X8643750Y-24956250D03*
X11000000Y-31200000D03*
X17976915Y-28223085D03*
X6000000Y-3500000D03*
X20431250Y-4868750D03*
X21500000Y-22800000D03*
X11600000Y-20500000D03*
X5500000Y-20500000D03*
X21500000Y-21500000D03*
X24600000Y-29300000D03*
X16600000Y-4800000D03*
X5200000Y-27125000D03*
X9100000Y-31300000D03*
X5000000Y-31000034D03*
X24887502Y-34787500D03*
D36*
X19400000Y-34700000D03*
X14000000Y-2350000D03*
X14000000Y-9350000D03*
D35*
X2718804Y-13791327D03*
X3349383Y-13223551D03*
X2750206Y-13192150D03*
X2868804Y-11141327D03*
X3499383Y-10573551D03*
X2900206Y-10542150D03*
X25099794Y-10542150D03*
X24500617Y-10573551D03*
X25131196Y-11141327D03*
X25249794Y-13192150D03*
X24650617Y-13223551D03*
X25281196Y-13791327D03*
X15200000Y-24200000D03*
X15200000Y-26300000D03*
X13000000Y-26300000D03*
X13000000Y-24200000D03*
X13000000Y-28400000D03*
X15200000Y-28400000D03*
X15700000Y-31200000D03*
X15700000Y-33300000D03*
X15700000Y-35400000D03*
X12500000Y-31200000D03*
X12500000Y-33300000D03*
X12500000Y-35400000D03*
D37*
X20350000Y-27600000D03*
X21350000Y-27600000D03*
X20350000Y-29100000D03*
X21350000Y-29100000D03*
X20850000Y-28350000D03*
X6450000Y-6650000D03*
X6450000Y-7650000D03*
X4950000Y-6650000D03*
X4950000Y-7650000D03*
X5700000Y-7150000D03*
X21650000Y-6700000D03*
X21650000Y-7700000D03*
X20150000Y-6700000D03*
X20150000Y-7700000D03*
X20900000Y-7200000D03*
M02*
