G04 #@! TF.GenerationSoftware,KiCad,Pcbnew,5.1.5+dfsg1-2build2*
G04 #@! TF.CreationDate,2021-01-13T09:20:08+02:00*
G04 #@! TF.ProjectId,differential-tweezer,64696666-6572-4656-9e74-69616c2d7477,rev?*
G04 #@! TF.SameCoordinates,Original*
G04 #@! TF.FileFunction,Paste,Top*
G04 #@! TF.FilePolarity,Positive*
%FSLAX46Y46*%
G04 Gerber Fmt 4.6, Leading zero omitted, Abs format (unit mm)*
G04 Created by KiCad (PCBNEW 5.1.5+dfsg1-2build2) date 2021-01-13 09:20:08*
%MOMM*%
%LPD*%
G04 APERTURE LIST*
%ADD10R,0.850000X1.000000*%
%ADD11R,1.500000X1.600000*%
%ADD12R,1.200000X1.200000*%
%ADD13R,1.060000X0.650000*%
%ADD14C,0.350000*%
G04 APERTURE END LIST*
D10*
X25625000Y-13100000D03*
X29775000Y-13100000D03*
D11*
X9100000Y-15150000D03*
D12*
X12350000Y-14150000D03*
X12350000Y-16150000D03*
D11*
X9100000Y-18900000D03*
D12*
X12350000Y-17900000D03*
X12350000Y-19900000D03*
D11*
X28350000Y-21800000D03*
D12*
X25100000Y-22800000D03*
X25100000Y-20800000D03*
D13*
X18100000Y-11750000D03*
X18100000Y-13650000D03*
X15900000Y-13650000D03*
X15900000Y-12700000D03*
X15900000Y-11750000D03*
X19500000Y-16150000D03*
X19500000Y-18050000D03*
X17300000Y-18050000D03*
X17300000Y-17100000D03*
X17300000Y-16150000D03*
X18100000Y-20350000D03*
X18100000Y-22250000D03*
X15900000Y-22250000D03*
X15900000Y-21300000D03*
X15900000Y-20350000D03*
D14*
G36*
X14527691Y-13351053D02*
G01*
X14548926Y-13354203D01*
X14569750Y-13359419D01*
X14589962Y-13366651D01*
X14609368Y-13375830D01*
X14627781Y-13386866D01*
X14645024Y-13399654D01*
X14660930Y-13414070D01*
X14675346Y-13429976D01*
X14688134Y-13447219D01*
X14699170Y-13465632D01*
X14708349Y-13485038D01*
X14715581Y-13505250D01*
X14720797Y-13526074D01*
X14723947Y-13547309D01*
X14725000Y-13568750D01*
X14725000Y-14006250D01*
X14723947Y-14027691D01*
X14720797Y-14048926D01*
X14715581Y-14069750D01*
X14708349Y-14089962D01*
X14699170Y-14109368D01*
X14688134Y-14127781D01*
X14675346Y-14145024D01*
X14660930Y-14160930D01*
X14645024Y-14175346D01*
X14627781Y-14188134D01*
X14609368Y-14199170D01*
X14589962Y-14208349D01*
X14569750Y-14215581D01*
X14548926Y-14220797D01*
X14527691Y-14223947D01*
X14506250Y-14225000D01*
X13993750Y-14225000D01*
X13972309Y-14223947D01*
X13951074Y-14220797D01*
X13930250Y-14215581D01*
X13910038Y-14208349D01*
X13890632Y-14199170D01*
X13872219Y-14188134D01*
X13854976Y-14175346D01*
X13839070Y-14160930D01*
X13824654Y-14145024D01*
X13811866Y-14127781D01*
X13800830Y-14109368D01*
X13791651Y-14089962D01*
X13784419Y-14069750D01*
X13779203Y-14048926D01*
X13776053Y-14027691D01*
X13775000Y-14006250D01*
X13775000Y-13568750D01*
X13776053Y-13547309D01*
X13779203Y-13526074D01*
X13784419Y-13505250D01*
X13791651Y-13485038D01*
X13800830Y-13465632D01*
X13811866Y-13447219D01*
X13824654Y-13429976D01*
X13839070Y-13414070D01*
X13854976Y-13399654D01*
X13872219Y-13386866D01*
X13890632Y-13375830D01*
X13910038Y-13366651D01*
X13930250Y-13359419D01*
X13951074Y-13354203D01*
X13972309Y-13351053D01*
X13993750Y-13350000D01*
X14506250Y-13350000D01*
X14527691Y-13351053D01*
G37*
G36*
X14527691Y-11776053D02*
G01*
X14548926Y-11779203D01*
X14569750Y-11784419D01*
X14589962Y-11791651D01*
X14609368Y-11800830D01*
X14627781Y-11811866D01*
X14645024Y-11824654D01*
X14660930Y-11839070D01*
X14675346Y-11854976D01*
X14688134Y-11872219D01*
X14699170Y-11890632D01*
X14708349Y-11910038D01*
X14715581Y-11930250D01*
X14720797Y-11951074D01*
X14723947Y-11972309D01*
X14725000Y-11993750D01*
X14725000Y-12431250D01*
X14723947Y-12452691D01*
X14720797Y-12473926D01*
X14715581Y-12494750D01*
X14708349Y-12514962D01*
X14699170Y-12534368D01*
X14688134Y-12552781D01*
X14675346Y-12570024D01*
X14660930Y-12585930D01*
X14645024Y-12600346D01*
X14627781Y-12613134D01*
X14609368Y-12624170D01*
X14589962Y-12633349D01*
X14569750Y-12640581D01*
X14548926Y-12645797D01*
X14527691Y-12648947D01*
X14506250Y-12650000D01*
X13993750Y-12650000D01*
X13972309Y-12648947D01*
X13951074Y-12645797D01*
X13930250Y-12640581D01*
X13910038Y-12633349D01*
X13890632Y-12624170D01*
X13872219Y-12613134D01*
X13854976Y-12600346D01*
X13839070Y-12585930D01*
X13824654Y-12570024D01*
X13811866Y-12552781D01*
X13800830Y-12534368D01*
X13791651Y-12514962D01*
X13784419Y-12494750D01*
X13779203Y-12473926D01*
X13776053Y-12452691D01*
X13775000Y-12431250D01*
X13775000Y-11993750D01*
X13776053Y-11972309D01*
X13779203Y-11951074D01*
X13784419Y-11930250D01*
X13791651Y-11910038D01*
X13800830Y-11890632D01*
X13811866Y-11872219D01*
X13824654Y-11854976D01*
X13839070Y-11839070D01*
X13854976Y-11824654D01*
X13872219Y-11811866D01*
X13890632Y-11800830D01*
X13910038Y-11791651D01*
X13930250Y-11784419D01*
X13951074Y-11779203D01*
X13972309Y-11776053D01*
X13993750Y-11775000D01*
X14506250Y-11775000D01*
X14527691Y-11776053D01*
G37*
G36*
X19852691Y-12576053D02*
G01*
X19873926Y-12579203D01*
X19894750Y-12584419D01*
X19914962Y-12591651D01*
X19934368Y-12600830D01*
X19952781Y-12611866D01*
X19970024Y-12624654D01*
X19985930Y-12639070D01*
X20000346Y-12654976D01*
X20013134Y-12672219D01*
X20024170Y-12690632D01*
X20033349Y-12710038D01*
X20040581Y-12730250D01*
X20045797Y-12751074D01*
X20048947Y-12772309D01*
X20050000Y-12793750D01*
X20050000Y-13306250D01*
X20048947Y-13327691D01*
X20045797Y-13348926D01*
X20040581Y-13369750D01*
X20033349Y-13389962D01*
X20024170Y-13409368D01*
X20013134Y-13427781D01*
X20000346Y-13445024D01*
X19985930Y-13460930D01*
X19970024Y-13475346D01*
X19952781Y-13488134D01*
X19934368Y-13499170D01*
X19914962Y-13508349D01*
X19894750Y-13515581D01*
X19873926Y-13520797D01*
X19852691Y-13523947D01*
X19831250Y-13525000D01*
X19393750Y-13525000D01*
X19372309Y-13523947D01*
X19351074Y-13520797D01*
X19330250Y-13515581D01*
X19310038Y-13508349D01*
X19290632Y-13499170D01*
X19272219Y-13488134D01*
X19254976Y-13475346D01*
X19239070Y-13460930D01*
X19224654Y-13445024D01*
X19211866Y-13427781D01*
X19200830Y-13409368D01*
X19191651Y-13389962D01*
X19184419Y-13369750D01*
X19179203Y-13348926D01*
X19176053Y-13327691D01*
X19175000Y-13306250D01*
X19175000Y-12793750D01*
X19176053Y-12772309D01*
X19179203Y-12751074D01*
X19184419Y-12730250D01*
X19191651Y-12710038D01*
X19200830Y-12690632D01*
X19211866Y-12672219D01*
X19224654Y-12654976D01*
X19239070Y-12639070D01*
X19254976Y-12624654D01*
X19272219Y-12611866D01*
X19290632Y-12600830D01*
X19310038Y-12591651D01*
X19330250Y-12584419D01*
X19351074Y-12579203D01*
X19372309Y-12576053D01*
X19393750Y-12575000D01*
X19831250Y-12575000D01*
X19852691Y-12576053D01*
G37*
G36*
X21427691Y-12576053D02*
G01*
X21448926Y-12579203D01*
X21469750Y-12584419D01*
X21489962Y-12591651D01*
X21509368Y-12600830D01*
X21527781Y-12611866D01*
X21545024Y-12624654D01*
X21560930Y-12639070D01*
X21575346Y-12654976D01*
X21588134Y-12672219D01*
X21599170Y-12690632D01*
X21608349Y-12710038D01*
X21615581Y-12730250D01*
X21620797Y-12751074D01*
X21623947Y-12772309D01*
X21625000Y-12793750D01*
X21625000Y-13306250D01*
X21623947Y-13327691D01*
X21620797Y-13348926D01*
X21615581Y-13369750D01*
X21608349Y-13389962D01*
X21599170Y-13409368D01*
X21588134Y-13427781D01*
X21575346Y-13445024D01*
X21560930Y-13460930D01*
X21545024Y-13475346D01*
X21527781Y-13488134D01*
X21509368Y-13499170D01*
X21489962Y-13508349D01*
X21469750Y-13515581D01*
X21448926Y-13520797D01*
X21427691Y-13523947D01*
X21406250Y-13525000D01*
X20968750Y-13525000D01*
X20947309Y-13523947D01*
X20926074Y-13520797D01*
X20905250Y-13515581D01*
X20885038Y-13508349D01*
X20865632Y-13499170D01*
X20847219Y-13488134D01*
X20829976Y-13475346D01*
X20814070Y-13460930D01*
X20799654Y-13445024D01*
X20786866Y-13427781D01*
X20775830Y-13409368D01*
X20766651Y-13389962D01*
X20759419Y-13369750D01*
X20754203Y-13348926D01*
X20751053Y-13327691D01*
X20750000Y-13306250D01*
X20750000Y-12793750D01*
X20751053Y-12772309D01*
X20754203Y-12751074D01*
X20759419Y-12730250D01*
X20766651Y-12710038D01*
X20775830Y-12690632D01*
X20786866Y-12672219D01*
X20799654Y-12654976D01*
X20814070Y-12639070D01*
X20829976Y-12624654D01*
X20847219Y-12611866D01*
X20865632Y-12600830D01*
X20885038Y-12591651D01*
X20905250Y-12584419D01*
X20926074Y-12579203D01*
X20947309Y-12576053D01*
X20968750Y-12575000D01*
X21406250Y-12575000D01*
X21427691Y-12576053D01*
G37*
G36*
X21427691Y-11076053D02*
G01*
X21448926Y-11079203D01*
X21469750Y-11084419D01*
X21489962Y-11091651D01*
X21509368Y-11100830D01*
X21527781Y-11111866D01*
X21545024Y-11124654D01*
X21560930Y-11139070D01*
X21575346Y-11154976D01*
X21588134Y-11172219D01*
X21599170Y-11190632D01*
X21608349Y-11210038D01*
X21615581Y-11230250D01*
X21620797Y-11251074D01*
X21623947Y-11272309D01*
X21625000Y-11293750D01*
X21625000Y-11806250D01*
X21623947Y-11827691D01*
X21620797Y-11848926D01*
X21615581Y-11869750D01*
X21608349Y-11889962D01*
X21599170Y-11909368D01*
X21588134Y-11927781D01*
X21575346Y-11945024D01*
X21560930Y-11960930D01*
X21545024Y-11975346D01*
X21527781Y-11988134D01*
X21509368Y-11999170D01*
X21489962Y-12008349D01*
X21469750Y-12015581D01*
X21448926Y-12020797D01*
X21427691Y-12023947D01*
X21406250Y-12025000D01*
X20968750Y-12025000D01*
X20947309Y-12023947D01*
X20926074Y-12020797D01*
X20905250Y-12015581D01*
X20885038Y-12008349D01*
X20865632Y-11999170D01*
X20847219Y-11988134D01*
X20829976Y-11975346D01*
X20814070Y-11960930D01*
X20799654Y-11945024D01*
X20786866Y-11927781D01*
X20775830Y-11909368D01*
X20766651Y-11889962D01*
X20759419Y-11869750D01*
X20754203Y-11848926D01*
X20751053Y-11827691D01*
X20750000Y-11806250D01*
X20750000Y-11293750D01*
X20751053Y-11272309D01*
X20754203Y-11251074D01*
X20759419Y-11230250D01*
X20766651Y-11210038D01*
X20775830Y-11190632D01*
X20786866Y-11172219D01*
X20799654Y-11154976D01*
X20814070Y-11139070D01*
X20829976Y-11124654D01*
X20847219Y-11111866D01*
X20865632Y-11100830D01*
X20885038Y-11091651D01*
X20905250Y-11084419D01*
X20926074Y-11079203D01*
X20947309Y-11076053D01*
X20968750Y-11075000D01*
X21406250Y-11075000D01*
X21427691Y-11076053D01*
G37*
G36*
X19852691Y-11076053D02*
G01*
X19873926Y-11079203D01*
X19894750Y-11084419D01*
X19914962Y-11091651D01*
X19934368Y-11100830D01*
X19952781Y-11111866D01*
X19970024Y-11124654D01*
X19985930Y-11139070D01*
X20000346Y-11154976D01*
X20013134Y-11172219D01*
X20024170Y-11190632D01*
X20033349Y-11210038D01*
X20040581Y-11230250D01*
X20045797Y-11251074D01*
X20048947Y-11272309D01*
X20050000Y-11293750D01*
X20050000Y-11806250D01*
X20048947Y-11827691D01*
X20045797Y-11848926D01*
X20040581Y-11869750D01*
X20033349Y-11889962D01*
X20024170Y-11909368D01*
X20013134Y-11927781D01*
X20000346Y-11945024D01*
X19985930Y-11960930D01*
X19970024Y-11975346D01*
X19952781Y-11988134D01*
X19934368Y-11999170D01*
X19914962Y-12008349D01*
X19894750Y-12015581D01*
X19873926Y-12020797D01*
X19852691Y-12023947D01*
X19831250Y-12025000D01*
X19393750Y-12025000D01*
X19372309Y-12023947D01*
X19351074Y-12020797D01*
X19330250Y-12015581D01*
X19310038Y-12008349D01*
X19290632Y-11999170D01*
X19272219Y-11988134D01*
X19254976Y-11975346D01*
X19239070Y-11960930D01*
X19224654Y-11945024D01*
X19211866Y-11927781D01*
X19200830Y-11909368D01*
X19191651Y-11889962D01*
X19184419Y-11869750D01*
X19179203Y-11848926D01*
X19176053Y-11827691D01*
X19175000Y-11806250D01*
X19175000Y-11293750D01*
X19176053Y-11272309D01*
X19179203Y-11251074D01*
X19184419Y-11230250D01*
X19191651Y-11210038D01*
X19200830Y-11190632D01*
X19211866Y-11172219D01*
X19224654Y-11154976D01*
X19239070Y-11139070D01*
X19254976Y-11124654D01*
X19272219Y-11111866D01*
X19290632Y-11100830D01*
X19310038Y-11091651D01*
X19330250Y-11084419D01*
X19351074Y-11079203D01*
X19372309Y-11076053D01*
X19393750Y-11075000D01*
X19831250Y-11075000D01*
X19852691Y-11076053D01*
G37*
G36*
X31677691Y-11776053D02*
G01*
X31698926Y-11779203D01*
X31719750Y-11784419D01*
X31739962Y-11791651D01*
X31759368Y-11800830D01*
X31777781Y-11811866D01*
X31795024Y-11824654D01*
X31810930Y-11839070D01*
X31825346Y-11854976D01*
X31838134Y-11872219D01*
X31849170Y-11890632D01*
X31858349Y-11910038D01*
X31865581Y-11930250D01*
X31870797Y-11951074D01*
X31873947Y-11972309D01*
X31875000Y-11993750D01*
X31875000Y-12431250D01*
X31873947Y-12452691D01*
X31870797Y-12473926D01*
X31865581Y-12494750D01*
X31858349Y-12514962D01*
X31849170Y-12534368D01*
X31838134Y-12552781D01*
X31825346Y-12570024D01*
X31810930Y-12585930D01*
X31795024Y-12600346D01*
X31777781Y-12613134D01*
X31759368Y-12624170D01*
X31739962Y-12633349D01*
X31719750Y-12640581D01*
X31698926Y-12645797D01*
X31677691Y-12648947D01*
X31656250Y-12650000D01*
X31143750Y-12650000D01*
X31122309Y-12648947D01*
X31101074Y-12645797D01*
X31080250Y-12640581D01*
X31060038Y-12633349D01*
X31040632Y-12624170D01*
X31022219Y-12613134D01*
X31004976Y-12600346D01*
X30989070Y-12585930D01*
X30974654Y-12570024D01*
X30961866Y-12552781D01*
X30950830Y-12534368D01*
X30941651Y-12514962D01*
X30934419Y-12494750D01*
X30929203Y-12473926D01*
X30926053Y-12452691D01*
X30925000Y-12431250D01*
X30925000Y-11993750D01*
X30926053Y-11972309D01*
X30929203Y-11951074D01*
X30934419Y-11930250D01*
X30941651Y-11910038D01*
X30950830Y-11890632D01*
X30961866Y-11872219D01*
X30974654Y-11854976D01*
X30989070Y-11839070D01*
X31004976Y-11824654D01*
X31022219Y-11811866D01*
X31040632Y-11800830D01*
X31060038Y-11791651D01*
X31080250Y-11784419D01*
X31101074Y-11779203D01*
X31122309Y-11776053D01*
X31143750Y-11775000D01*
X31656250Y-11775000D01*
X31677691Y-11776053D01*
G37*
G36*
X31677691Y-13351053D02*
G01*
X31698926Y-13354203D01*
X31719750Y-13359419D01*
X31739962Y-13366651D01*
X31759368Y-13375830D01*
X31777781Y-13386866D01*
X31795024Y-13399654D01*
X31810930Y-13414070D01*
X31825346Y-13429976D01*
X31838134Y-13447219D01*
X31849170Y-13465632D01*
X31858349Y-13485038D01*
X31865581Y-13505250D01*
X31870797Y-13526074D01*
X31873947Y-13547309D01*
X31875000Y-13568750D01*
X31875000Y-14006250D01*
X31873947Y-14027691D01*
X31870797Y-14048926D01*
X31865581Y-14069750D01*
X31858349Y-14089962D01*
X31849170Y-14109368D01*
X31838134Y-14127781D01*
X31825346Y-14145024D01*
X31810930Y-14160930D01*
X31795024Y-14175346D01*
X31777781Y-14188134D01*
X31759368Y-14199170D01*
X31739962Y-14208349D01*
X31719750Y-14215581D01*
X31698926Y-14220797D01*
X31677691Y-14223947D01*
X31656250Y-14225000D01*
X31143750Y-14225000D01*
X31122309Y-14223947D01*
X31101074Y-14220797D01*
X31080250Y-14215581D01*
X31060038Y-14208349D01*
X31040632Y-14199170D01*
X31022219Y-14188134D01*
X31004976Y-14175346D01*
X30989070Y-14160930D01*
X30974654Y-14145024D01*
X30961866Y-14127781D01*
X30950830Y-14109368D01*
X30941651Y-14089962D01*
X30934419Y-14069750D01*
X30929203Y-14048926D01*
X30926053Y-14027691D01*
X30925000Y-14006250D01*
X30925000Y-13568750D01*
X30926053Y-13547309D01*
X30929203Y-13526074D01*
X30934419Y-13505250D01*
X30941651Y-13485038D01*
X30950830Y-13465632D01*
X30961866Y-13447219D01*
X30974654Y-13429976D01*
X30989070Y-13414070D01*
X31004976Y-13399654D01*
X31022219Y-13386866D01*
X31040632Y-13375830D01*
X31060038Y-13366651D01*
X31080250Y-13359419D01*
X31101074Y-13354203D01*
X31122309Y-13351053D01*
X31143750Y-13350000D01*
X31656250Y-13350000D01*
X31677691Y-13351053D01*
G37*
G36*
X30577691Y-19776053D02*
G01*
X30598926Y-19779203D01*
X30619750Y-19784419D01*
X30639962Y-19791651D01*
X30659368Y-19800830D01*
X30677781Y-19811866D01*
X30695024Y-19824654D01*
X30710930Y-19839070D01*
X30725346Y-19854976D01*
X30738134Y-19872219D01*
X30749170Y-19890632D01*
X30758349Y-19910038D01*
X30765581Y-19930250D01*
X30770797Y-19951074D01*
X30773947Y-19972309D01*
X30775000Y-19993750D01*
X30775000Y-20431250D01*
X30773947Y-20452691D01*
X30770797Y-20473926D01*
X30765581Y-20494750D01*
X30758349Y-20514962D01*
X30749170Y-20534368D01*
X30738134Y-20552781D01*
X30725346Y-20570024D01*
X30710930Y-20585930D01*
X30695024Y-20600346D01*
X30677781Y-20613134D01*
X30659368Y-20624170D01*
X30639962Y-20633349D01*
X30619750Y-20640581D01*
X30598926Y-20645797D01*
X30577691Y-20648947D01*
X30556250Y-20650000D01*
X30043750Y-20650000D01*
X30022309Y-20648947D01*
X30001074Y-20645797D01*
X29980250Y-20640581D01*
X29960038Y-20633349D01*
X29940632Y-20624170D01*
X29922219Y-20613134D01*
X29904976Y-20600346D01*
X29889070Y-20585930D01*
X29874654Y-20570024D01*
X29861866Y-20552781D01*
X29850830Y-20534368D01*
X29841651Y-20514962D01*
X29834419Y-20494750D01*
X29829203Y-20473926D01*
X29826053Y-20452691D01*
X29825000Y-20431250D01*
X29825000Y-19993750D01*
X29826053Y-19972309D01*
X29829203Y-19951074D01*
X29834419Y-19930250D01*
X29841651Y-19910038D01*
X29850830Y-19890632D01*
X29861866Y-19872219D01*
X29874654Y-19854976D01*
X29889070Y-19839070D01*
X29904976Y-19824654D01*
X29922219Y-19811866D01*
X29940632Y-19800830D01*
X29960038Y-19791651D01*
X29980250Y-19784419D01*
X30001074Y-19779203D01*
X30022309Y-19776053D01*
X30043750Y-19775000D01*
X30556250Y-19775000D01*
X30577691Y-19776053D01*
G37*
G36*
X30577691Y-21351053D02*
G01*
X30598926Y-21354203D01*
X30619750Y-21359419D01*
X30639962Y-21366651D01*
X30659368Y-21375830D01*
X30677781Y-21386866D01*
X30695024Y-21399654D01*
X30710930Y-21414070D01*
X30725346Y-21429976D01*
X30738134Y-21447219D01*
X30749170Y-21465632D01*
X30758349Y-21485038D01*
X30765581Y-21505250D01*
X30770797Y-21526074D01*
X30773947Y-21547309D01*
X30775000Y-21568750D01*
X30775000Y-22006250D01*
X30773947Y-22027691D01*
X30770797Y-22048926D01*
X30765581Y-22069750D01*
X30758349Y-22089962D01*
X30749170Y-22109368D01*
X30738134Y-22127781D01*
X30725346Y-22145024D01*
X30710930Y-22160930D01*
X30695024Y-22175346D01*
X30677781Y-22188134D01*
X30659368Y-22199170D01*
X30639962Y-22208349D01*
X30619750Y-22215581D01*
X30598926Y-22220797D01*
X30577691Y-22223947D01*
X30556250Y-22225000D01*
X30043750Y-22225000D01*
X30022309Y-22223947D01*
X30001074Y-22220797D01*
X29980250Y-22215581D01*
X29960038Y-22208349D01*
X29940632Y-22199170D01*
X29922219Y-22188134D01*
X29904976Y-22175346D01*
X29889070Y-22160930D01*
X29874654Y-22145024D01*
X29861866Y-22127781D01*
X29850830Y-22109368D01*
X29841651Y-22089962D01*
X29834419Y-22069750D01*
X29829203Y-22048926D01*
X29826053Y-22027691D01*
X29825000Y-22006250D01*
X29825000Y-21568750D01*
X29826053Y-21547309D01*
X29829203Y-21526074D01*
X29834419Y-21505250D01*
X29841651Y-21485038D01*
X29850830Y-21465632D01*
X29861866Y-21447219D01*
X29874654Y-21429976D01*
X29889070Y-21414070D01*
X29904976Y-21399654D01*
X29922219Y-21386866D01*
X29940632Y-21375830D01*
X29960038Y-21366651D01*
X29980250Y-21359419D01*
X30001074Y-21354203D01*
X30022309Y-21351053D01*
X30043750Y-21350000D01*
X30556250Y-21350000D01*
X30577691Y-21351053D01*
G37*
G36*
X14477691Y-19776053D02*
G01*
X14498926Y-19779203D01*
X14519750Y-19784419D01*
X14539962Y-19791651D01*
X14559368Y-19800830D01*
X14577781Y-19811866D01*
X14595024Y-19824654D01*
X14610930Y-19839070D01*
X14625346Y-19854976D01*
X14638134Y-19872219D01*
X14649170Y-19890632D01*
X14658349Y-19910038D01*
X14665581Y-19930250D01*
X14670797Y-19951074D01*
X14673947Y-19972309D01*
X14675000Y-19993750D01*
X14675000Y-20431250D01*
X14673947Y-20452691D01*
X14670797Y-20473926D01*
X14665581Y-20494750D01*
X14658349Y-20514962D01*
X14649170Y-20534368D01*
X14638134Y-20552781D01*
X14625346Y-20570024D01*
X14610930Y-20585930D01*
X14595024Y-20600346D01*
X14577781Y-20613134D01*
X14559368Y-20624170D01*
X14539962Y-20633349D01*
X14519750Y-20640581D01*
X14498926Y-20645797D01*
X14477691Y-20648947D01*
X14456250Y-20650000D01*
X13943750Y-20650000D01*
X13922309Y-20648947D01*
X13901074Y-20645797D01*
X13880250Y-20640581D01*
X13860038Y-20633349D01*
X13840632Y-20624170D01*
X13822219Y-20613134D01*
X13804976Y-20600346D01*
X13789070Y-20585930D01*
X13774654Y-20570024D01*
X13761866Y-20552781D01*
X13750830Y-20534368D01*
X13741651Y-20514962D01*
X13734419Y-20494750D01*
X13729203Y-20473926D01*
X13726053Y-20452691D01*
X13725000Y-20431250D01*
X13725000Y-19993750D01*
X13726053Y-19972309D01*
X13729203Y-19951074D01*
X13734419Y-19930250D01*
X13741651Y-19910038D01*
X13750830Y-19890632D01*
X13761866Y-19872219D01*
X13774654Y-19854976D01*
X13789070Y-19839070D01*
X13804976Y-19824654D01*
X13822219Y-19811866D01*
X13840632Y-19800830D01*
X13860038Y-19791651D01*
X13880250Y-19784419D01*
X13901074Y-19779203D01*
X13922309Y-19776053D01*
X13943750Y-19775000D01*
X14456250Y-19775000D01*
X14477691Y-19776053D01*
G37*
G36*
X14477691Y-21351053D02*
G01*
X14498926Y-21354203D01*
X14519750Y-21359419D01*
X14539962Y-21366651D01*
X14559368Y-21375830D01*
X14577781Y-21386866D01*
X14595024Y-21399654D01*
X14610930Y-21414070D01*
X14625346Y-21429976D01*
X14638134Y-21447219D01*
X14649170Y-21465632D01*
X14658349Y-21485038D01*
X14665581Y-21505250D01*
X14670797Y-21526074D01*
X14673947Y-21547309D01*
X14675000Y-21568750D01*
X14675000Y-22006250D01*
X14673947Y-22027691D01*
X14670797Y-22048926D01*
X14665581Y-22069750D01*
X14658349Y-22089962D01*
X14649170Y-22109368D01*
X14638134Y-22127781D01*
X14625346Y-22145024D01*
X14610930Y-22160930D01*
X14595024Y-22175346D01*
X14577781Y-22188134D01*
X14559368Y-22199170D01*
X14539962Y-22208349D01*
X14519750Y-22215581D01*
X14498926Y-22220797D01*
X14477691Y-22223947D01*
X14456250Y-22225000D01*
X13943750Y-22225000D01*
X13922309Y-22223947D01*
X13901074Y-22220797D01*
X13880250Y-22215581D01*
X13860038Y-22208349D01*
X13840632Y-22199170D01*
X13822219Y-22188134D01*
X13804976Y-22175346D01*
X13789070Y-22160930D01*
X13774654Y-22145024D01*
X13761866Y-22127781D01*
X13750830Y-22109368D01*
X13741651Y-22089962D01*
X13734419Y-22069750D01*
X13729203Y-22048926D01*
X13726053Y-22027691D01*
X13725000Y-22006250D01*
X13725000Y-21568750D01*
X13726053Y-21547309D01*
X13729203Y-21526074D01*
X13734419Y-21505250D01*
X13741651Y-21485038D01*
X13750830Y-21465632D01*
X13761866Y-21447219D01*
X13774654Y-21429976D01*
X13789070Y-21414070D01*
X13804976Y-21399654D01*
X13822219Y-21386866D01*
X13840632Y-21375830D01*
X13860038Y-21366651D01*
X13880250Y-21359419D01*
X13901074Y-21354203D01*
X13922309Y-21351053D01*
X13943750Y-21350000D01*
X14456250Y-21350000D01*
X14477691Y-21351053D01*
G37*
G36*
X21427691Y-20676053D02*
G01*
X21448926Y-20679203D01*
X21469750Y-20684419D01*
X21489962Y-20691651D01*
X21509368Y-20700830D01*
X21527781Y-20711866D01*
X21545024Y-20724654D01*
X21560930Y-20739070D01*
X21575346Y-20754976D01*
X21588134Y-20772219D01*
X21599170Y-20790632D01*
X21608349Y-20810038D01*
X21615581Y-20830250D01*
X21620797Y-20851074D01*
X21623947Y-20872309D01*
X21625000Y-20893750D01*
X21625000Y-21406250D01*
X21623947Y-21427691D01*
X21620797Y-21448926D01*
X21615581Y-21469750D01*
X21608349Y-21489962D01*
X21599170Y-21509368D01*
X21588134Y-21527781D01*
X21575346Y-21545024D01*
X21560930Y-21560930D01*
X21545024Y-21575346D01*
X21527781Y-21588134D01*
X21509368Y-21599170D01*
X21489962Y-21608349D01*
X21469750Y-21615581D01*
X21448926Y-21620797D01*
X21427691Y-21623947D01*
X21406250Y-21625000D01*
X20968750Y-21625000D01*
X20947309Y-21623947D01*
X20926074Y-21620797D01*
X20905250Y-21615581D01*
X20885038Y-21608349D01*
X20865632Y-21599170D01*
X20847219Y-21588134D01*
X20829976Y-21575346D01*
X20814070Y-21560930D01*
X20799654Y-21545024D01*
X20786866Y-21527781D01*
X20775830Y-21509368D01*
X20766651Y-21489962D01*
X20759419Y-21469750D01*
X20754203Y-21448926D01*
X20751053Y-21427691D01*
X20750000Y-21406250D01*
X20750000Y-20893750D01*
X20751053Y-20872309D01*
X20754203Y-20851074D01*
X20759419Y-20830250D01*
X20766651Y-20810038D01*
X20775830Y-20790632D01*
X20786866Y-20772219D01*
X20799654Y-20754976D01*
X20814070Y-20739070D01*
X20829976Y-20724654D01*
X20847219Y-20711866D01*
X20865632Y-20700830D01*
X20885038Y-20691651D01*
X20905250Y-20684419D01*
X20926074Y-20679203D01*
X20947309Y-20676053D01*
X20968750Y-20675000D01*
X21406250Y-20675000D01*
X21427691Y-20676053D01*
G37*
G36*
X19852691Y-20676053D02*
G01*
X19873926Y-20679203D01*
X19894750Y-20684419D01*
X19914962Y-20691651D01*
X19934368Y-20700830D01*
X19952781Y-20711866D01*
X19970024Y-20724654D01*
X19985930Y-20739070D01*
X20000346Y-20754976D01*
X20013134Y-20772219D01*
X20024170Y-20790632D01*
X20033349Y-20810038D01*
X20040581Y-20830250D01*
X20045797Y-20851074D01*
X20048947Y-20872309D01*
X20050000Y-20893750D01*
X20050000Y-21406250D01*
X20048947Y-21427691D01*
X20045797Y-21448926D01*
X20040581Y-21469750D01*
X20033349Y-21489962D01*
X20024170Y-21509368D01*
X20013134Y-21527781D01*
X20000346Y-21545024D01*
X19985930Y-21560930D01*
X19970024Y-21575346D01*
X19952781Y-21588134D01*
X19934368Y-21599170D01*
X19914962Y-21608349D01*
X19894750Y-21615581D01*
X19873926Y-21620797D01*
X19852691Y-21623947D01*
X19831250Y-21625000D01*
X19393750Y-21625000D01*
X19372309Y-21623947D01*
X19351074Y-21620797D01*
X19330250Y-21615581D01*
X19310038Y-21608349D01*
X19290632Y-21599170D01*
X19272219Y-21588134D01*
X19254976Y-21575346D01*
X19239070Y-21560930D01*
X19224654Y-21545024D01*
X19211866Y-21527781D01*
X19200830Y-21509368D01*
X19191651Y-21489962D01*
X19184419Y-21469750D01*
X19179203Y-21448926D01*
X19176053Y-21427691D01*
X19175000Y-21406250D01*
X19175000Y-20893750D01*
X19176053Y-20872309D01*
X19179203Y-20851074D01*
X19184419Y-20830250D01*
X19191651Y-20810038D01*
X19200830Y-20790632D01*
X19211866Y-20772219D01*
X19224654Y-20754976D01*
X19239070Y-20739070D01*
X19254976Y-20724654D01*
X19272219Y-20711866D01*
X19290632Y-20700830D01*
X19310038Y-20691651D01*
X19330250Y-20684419D01*
X19351074Y-20679203D01*
X19372309Y-20676053D01*
X19393750Y-20675000D01*
X19831250Y-20675000D01*
X19852691Y-20676053D01*
G37*
G36*
X21427691Y-22176053D02*
G01*
X21448926Y-22179203D01*
X21469750Y-22184419D01*
X21489962Y-22191651D01*
X21509368Y-22200830D01*
X21527781Y-22211866D01*
X21545024Y-22224654D01*
X21560930Y-22239070D01*
X21575346Y-22254976D01*
X21588134Y-22272219D01*
X21599170Y-22290632D01*
X21608349Y-22310038D01*
X21615581Y-22330250D01*
X21620797Y-22351074D01*
X21623947Y-22372309D01*
X21625000Y-22393750D01*
X21625000Y-22906250D01*
X21623947Y-22927691D01*
X21620797Y-22948926D01*
X21615581Y-22969750D01*
X21608349Y-22989962D01*
X21599170Y-23009368D01*
X21588134Y-23027781D01*
X21575346Y-23045024D01*
X21560930Y-23060930D01*
X21545024Y-23075346D01*
X21527781Y-23088134D01*
X21509368Y-23099170D01*
X21489962Y-23108349D01*
X21469750Y-23115581D01*
X21448926Y-23120797D01*
X21427691Y-23123947D01*
X21406250Y-23125000D01*
X20968750Y-23125000D01*
X20947309Y-23123947D01*
X20926074Y-23120797D01*
X20905250Y-23115581D01*
X20885038Y-23108349D01*
X20865632Y-23099170D01*
X20847219Y-23088134D01*
X20829976Y-23075346D01*
X20814070Y-23060930D01*
X20799654Y-23045024D01*
X20786866Y-23027781D01*
X20775830Y-23009368D01*
X20766651Y-22989962D01*
X20759419Y-22969750D01*
X20754203Y-22948926D01*
X20751053Y-22927691D01*
X20750000Y-22906250D01*
X20750000Y-22393750D01*
X20751053Y-22372309D01*
X20754203Y-22351074D01*
X20759419Y-22330250D01*
X20766651Y-22310038D01*
X20775830Y-22290632D01*
X20786866Y-22272219D01*
X20799654Y-22254976D01*
X20814070Y-22239070D01*
X20829976Y-22224654D01*
X20847219Y-22211866D01*
X20865632Y-22200830D01*
X20885038Y-22191651D01*
X20905250Y-22184419D01*
X20926074Y-22179203D01*
X20947309Y-22176053D01*
X20968750Y-22175000D01*
X21406250Y-22175000D01*
X21427691Y-22176053D01*
G37*
G36*
X19852691Y-22176053D02*
G01*
X19873926Y-22179203D01*
X19894750Y-22184419D01*
X19914962Y-22191651D01*
X19934368Y-22200830D01*
X19952781Y-22211866D01*
X19970024Y-22224654D01*
X19985930Y-22239070D01*
X20000346Y-22254976D01*
X20013134Y-22272219D01*
X20024170Y-22290632D01*
X20033349Y-22310038D01*
X20040581Y-22330250D01*
X20045797Y-22351074D01*
X20048947Y-22372309D01*
X20050000Y-22393750D01*
X20050000Y-22906250D01*
X20048947Y-22927691D01*
X20045797Y-22948926D01*
X20040581Y-22969750D01*
X20033349Y-22989962D01*
X20024170Y-23009368D01*
X20013134Y-23027781D01*
X20000346Y-23045024D01*
X19985930Y-23060930D01*
X19970024Y-23075346D01*
X19952781Y-23088134D01*
X19934368Y-23099170D01*
X19914962Y-23108349D01*
X19894750Y-23115581D01*
X19873926Y-23120797D01*
X19852691Y-23123947D01*
X19831250Y-23125000D01*
X19393750Y-23125000D01*
X19372309Y-23123947D01*
X19351074Y-23120797D01*
X19330250Y-23115581D01*
X19310038Y-23108349D01*
X19290632Y-23099170D01*
X19272219Y-23088134D01*
X19254976Y-23075346D01*
X19239070Y-23060930D01*
X19224654Y-23045024D01*
X19211866Y-23027781D01*
X19200830Y-23009368D01*
X19191651Y-22989962D01*
X19184419Y-22969750D01*
X19179203Y-22948926D01*
X19176053Y-22927691D01*
X19175000Y-22906250D01*
X19175000Y-22393750D01*
X19176053Y-22372309D01*
X19179203Y-22351074D01*
X19184419Y-22330250D01*
X19191651Y-22310038D01*
X19200830Y-22290632D01*
X19211866Y-22272219D01*
X19224654Y-22254976D01*
X19239070Y-22239070D01*
X19254976Y-22224654D01*
X19272219Y-22211866D01*
X19290632Y-22200830D01*
X19310038Y-22191651D01*
X19330250Y-22184419D01*
X19351074Y-22179203D01*
X19372309Y-22176053D01*
X19393750Y-22175000D01*
X19831250Y-22175000D01*
X19852691Y-22176053D01*
G37*
D10*
X8675000Y-11400000D03*
X12825000Y-11400000D03*
D14*
G36*
X21427691Y-14076053D02*
G01*
X21448926Y-14079203D01*
X21469750Y-14084419D01*
X21489962Y-14091651D01*
X21509368Y-14100830D01*
X21527781Y-14111866D01*
X21545024Y-14124654D01*
X21560930Y-14139070D01*
X21575346Y-14154976D01*
X21588134Y-14172219D01*
X21599170Y-14190632D01*
X21608349Y-14210038D01*
X21615581Y-14230250D01*
X21620797Y-14251074D01*
X21623947Y-14272309D01*
X21625000Y-14293750D01*
X21625000Y-14806250D01*
X21623947Y-14827691D01*
X21620797Y-14848926D01*
X21615581Y-14869750D01*
X21608349Y-14889962D01*
X21599170Y-14909368D01*
X21588134Y-14927781D01*
X21575346Y-14945024D01*
X21560930Y-14960930D01*
X21545024Y-14975346D01*
X21527781Y-14988134D01*
X21509368Y-14999170D01*
X21489962Y-15008349D01*
X21469750Y-15015581D01*
X21448926Y-15020797D01*
X21427691Y-15023947D01*
X21406250Y-15025000D01*
X20968750Y-15025000D01*
X20947309Y-15023947D01*
X20926074Y-15020797D01*
X20905250Y-15015581D01*
X20885038Y-15008349D01*
X20865632Y-14999170D01*
X20847219Y-14988134D01*
X20829976Y-14975346D01*
X20814070Y-14960930D01*
X20799654Y-14945024D01*
X20786866Y-14927781D01*
X20775830Y-14909368D01*
X20766651Y-14889962D01*
X20759419Y-14869750D01*
X20754203Y-14848926D01*
X20751053Y-14827691D01*
X20750000Y-14806250D01*
X20750000Y-14293750D01*
X20751053Y-14272309D01*
X20754203Y-14251074D01*
X20759419Y-14230250D01*
X20766651Y-14210038D01*
X20775830Y-14190632D01*
X20786866Y-14172219D01*
X20799654Y-14154976D01*
X20814070Y-14139070D01*
X20829976Y-14124654D01*
X20847219Y-14111866D01*
X20865632Y-14100830D01*
X20885038Y-14091651D01*
X20905250Y-14084419D01*
X20926074Y-14079203D01*
X20947309Y-14076053D01*
X20968750Y-14075000D01*
X21406250Y-14075000D01*
X21427691Y-14076053D01*
G37*
G36*
X19852691Y-14076053D02*
G01*
X19873926Y-14079203D01*
X19894750Y-14084419D01*
X19914962Y-14091651D01*
X19934368Y-14100830D01*
X19952781Y-14111866D01*
X19970024Y-14124654D01*
X19985930Y-14139070D01*
X20000346Y-14154976D01*
X20013134Y-14172219D01*
X20024170Y-14190632D01*
X20033349Y-14210038D01*
X20040581Y-14230250D01*
X20045797Y-14251074D01*
X20048947Y-14272309D01*
X20050000Y-14293750D01*
X20050000Y-14806250D01*
X20048947Y-14827691D01*
X20045797Y-14848926D01*
X20040581Y-14869750D01*
X20033349Y-14889962D01*
X20024170Y-14909368D01*
X20013134Y-14927781D01*
X20000346Y-14945024D01*
X19985930Y-14960930D01*
X19970024Y-14975346D01*
X19952781Y-14988134D01*
X19934368Y-14999170D01*
X19914962Y-15008349D01*
X19894750Y-15015581D01*
X19873926Y-15020797D01*
X19852691Y-15023947D01*
X19831250Y-15025000D01*
X19393750Y-15025000D01*
X19372309Y-15023947D01*
X19351074Y-15020797D01*
X19330250Y-15015581D01*
X19310038Y-15008349D01*
X19290632Y-14999170D01*
X19272219Y-14988134D01*
X19254976Y-14975346D01*
X19239070Y-14960930D01*
X19224654Y-14945024D01*
X19211866Y-14927781D01*
X19200830Y-14909368D01*
X19191651Y-14889962D01*
X19184419Y-14869750D01*
X19179203Y-14848926D01*
X19176053Y-14827691D01*
X19175000Y-14806250D01*
X19175000Y-14293750D01*
X19176053Y-14272309D01*
X19179203Y-14251074D01*
X19184419Y-14230250D01*
X19191651Y-14210038D01*
X19200830Y-14190632D01*
X19211866Y-14172219D01*
X19224654Y-14154976D01*
X19239070Y-14139070D01*
X19254976Y-14124654D01*
X19272219Y-14111866D01*
X19290632Y-14100830D01*
X19310038Y-14091651D01*
X19330250Y-14084419D01*
X19351074Y-14079203D01*
X19372309Y-14076053D01*
X19393750Y-14075000D01*
X19831250Y-14075000D01*
X19852691Y-14076053D01*
G37*
D10*
X8675000Y-22650000D03*
X12825000Y-22650000D03*
D14*
G36*
X19852691Y-19176053D02*
G01*
X19873926Y-19179203D01*
X19894750Y-19184419D01*
X19914962Y-19191651D01*
X19934368Y-19200830D01*
X19952781Y-19211866D01*
X19970024Y-19224654D01*
X19985930Y-19239070D01*
X20000346Y-19254976D01*
X20013134Y-19272219D01*
X20024170Y-19290632D01*
X20033349Y-19310038D01*
X20040581Y-19330250D01*
X20045797Y-19351074D01*
X20048947Y-19372309D01*
X20050000Y-19393750D01*
X20050000Y-19906250D01*
X20048947Y-19927691D01*
X20045797Y-19948926D01*
X20040581Y-19969750D01*
X20033349Y-19989962D01*
X20024170Y-20009368D01*
X20013134Y-20027781D01*
X20000346Y-20045024D01*
X19985930Y-20060930D01*
X19970024Y-20075346D01*
X19952781Y-20088134D01*
X19934368Y-20099170D01*
X19914962Y-20108349D01*
X19894750Y-20115581D01*
X19873926Y-20120797D01*
X19852691Y-20123947D01*
X19831250Y-20125000D01*
X19393750Y-20125000D01*
X19372309Y-20123947D01*
X19351074Y-20120797D01*
X19330250Y-20115581D01*
X19310038Y-20108349D01*
X19290632Y-20099170D01*
X19272219Y-20088134D01*
X19254976Y-20075346D01*
X19239070Y-20060930D01*
X19224654Y-20045024D01*
X19211866Y-20027781D01*
X19200830Y-20009368D01*
X19191651Y-19989962D01*
X19184419Y-19969750D01*
X19179203Y-19948926D01*
X19176053Y-19927691D01*
X19175000Y-19906250D01*
X19175000Y-19393750D01*
X19176053Y-19372309D01*
X19179203Y-19351074D01*
X19184419Y-19330250D01*
X19191651Y-19310038D01*
X19200830Y-19290632D01*
X19211866Y-19272219D01*
X19224654Y-19254976D01*
X19239070Y-19239070D01*
X19254976Y-19224654D01*
X19272219Y-19211866D01*
X19290632Y-19200830D01*
X19310038Y-19191651D01*
X19330250Y-19184419D01*
X19351074Y-19179203D01*
X19372309Y-19176053D01*
X19393750Y-19175000D01*
X19831250Y-19175000D01*
X19852691Y-19176053D01*
G37*
G36*
X21427691Y-19176053D02*
G01*
X21448926Y-19179203D01*
X21469750Y-19184419D01*
X21489962Y-19191651D01*
X21509368Y-19200830D01*
X21527781Y-19211866D01*
X21545024Y-19224654D01*
X21560930Y-19239070D01*
X21575346Y-19254976D01*
X21588134Y-19272219D01*
X21599170Y-19290632D01*
X21608349Y-19310038D01*
X21615581Y-19330250D01*
X21620797Y-19351074D01*
X21623947Y-19372309D01*
X21625000Y-19393750D01*
X21625000Y-19906250D01*
X21623947Y-19927691D01*
X21620797Y-19948926D01*
X21615581Y-19969750D01*
X21608349Y-19989962D01*
X21599170Y-20009368D01*
X21588134Y-20027781D01*
X21575346Y-20045024D01*
X21560930Y-20060930D01*
X21545024Y-20075346D01*
X21527781Y-20088134D01*
X21509368Y-20099170D01*
X21489962Y-20108349D01*
X21469750Y-20115581D01*
X21448926Y-20120797D01*
X21427691Y-20123947D01*
X21406250Y-20125000D01*
X20968750Y-20125000D01*
X20947309Y-20123947D01*
X20926074Y-20120797D01*
X20905250Y-20115581D01*
X20885038Y-20108349D01*
X20865632Y-20099170D01*
X20847219Y-20088134D01*
X20829976Y-20075346D01*
X20814070Y-20060930D01*
X20799654Y-20045024D01*
X20786866Y-20027781D01*
X20775830Y-20009368D01*
X20766651Y-19989962D01*
X20759419Y-19969750D01*
X20754203Y-19948926D01*
X20751053Y-19927691D01*
X20750000Y-19906250D01*
X20750000Y-19393750D01*
X20751053Y-19372309D01*
X20754203Y-19351074D01*
X20759419Y-19330250D01*
X20766651Y-19310038D01*
X20775830Y-19290632D01*
X20786866Y-19272219D01*
X20799654Y-19254976D01*
X20814070Y-19239070D01*
X20829976Y-19224654D01*
X20847219Y-19211866D01*
X20865632Y-19200830D01*
X20885038Y-19191651D01*
X20905250Y-19184419D01*
X20926074Y-19179203D01*
X20947309Y-19176053D01*
X20968750Y-19175000D01*
X21406250Y-19175000D01*
X21427691Y-19176053D01*
G37*
G36*
X22852691Y-12526053D02*
G01*
X22873926Y-12529203D01*
X22894750Y-12534419D01*
X22914962Y-12541651D01*
X22934368Y-12550830D01*
X22952781Y-12561866D01*
X22970024Y-12574654D01*
X22985930Y-12589070D01*
X23000346Y-12604976D01*
X23013134Y-12622219D01*
X23024170Y-12640632D01*
X23033349Y-12660038D01*
X23040581Y-12680250D01*
X23045797Y-12701074D01*
X23048947Y-12722309D01*
X23050000Y-12743750D01*
X23050000Y-13256250D01*
X23048947Y-13277691D01*
X23045797Y-13298926D01*
X23040581Y-13319750D01*
X23033349Y-13339962D01*
X23024170Y-13359368D01*
X23013134Y-13377781D01*
X23000346Y-13395024D01*
X22985930Y-13410930D01*
X22970024Y-13425346D01*
X22952781Y-13438134D01*
X22934368Y-13449170D01*
X22914962Y-13458349D01*
X22894750Y-13465581D01*
X22873926Y-13470797D01*
X22852691Y-13473947D01*
X22831250Y-13475000D01*
X22393750Y-13475000D01*
X22372309Y-13473947D01*
X22351074Y-13470797D01*
X22330250Y-13465581D01*
X22310038Y-13458349D01*
X22290632Y-13449170D01*
X22272219Y-13438134D01*
X22254976Y-13425346D01*
X22239070Y-13410930D01*
X22224654Y-13395024D01*
X22211866Y-13377781D01*
X22200830Y-13359368D01*
X22191651Y-13339962D01*
X22184419Y-13319750D01*
X22179203Y-13298926D01*
X22176053Y-13277691D01*
X22175000Y-13256250D01*
X22175000Y-12743750D01*
X22176053Y-12722309D01*
X22179203Y-12701074D01*
X22184419Y-12680250D01*
X22191651Y-12660038D01*
X22200830Y-12640632D01*
X22211866Y-12622219D01*
X22224654Y-12604976D01*
X22239070Y-12589070D01*
X22254976Y-12574654D01*
X22272219Y-12561866D01*
X22290632Y-12550830D01*
X22310038Y-12541651D01*
X22330250Y-12534419D01*
X22351074Y-12529203D01*
X22372309Y-12526053D01*
X22393750Y-12525000D01*
X22831250Y-12525000D01*
X22852691Y-12526053D01*
G37*
G36*
X24427691Y-12526053D02*
G01*
X24448926Y-12529203D01*
X24469750Y-12534419D01*
X24489962Y-12541651D01*
X24509368Y-12550830D01*
X24527781Y-12561866D01*
X24545024Y-12574654D01*
X24560930Y-12589070D01*
X24575346Y-12604976D01*
X24588134Y-12622219D01*
X24599170Y-12640632D01*
X24608349Y-12660038D01*
X24615581Y-12680250D01*
X24620797Y-12701074D01*
X24623947Y-12722309D01*
X24625000Y-12743750D01*
X24625000Y-13256250D01*
X24623947Y-13277691D01*
X24620797Y-13298926D01*
X24615581Y-13319750D01*
X24608349Y-13339962D01*
X24599170Y-13359368D01*
X24588134Y-13377781D01*
X24575346Y-13395024D01*
X24560930Y-13410930D01*
X24545024Y-13425346D01*
X24527781Y-13438134D01*
X24509368Y-13449170D01*
X24489962Y-13458349D01*
X24469750Y-13465581D01*
X24448926Y-13470797D01*
X24427691Y-13473947D01*
X24406250Y-13475000D01*
X23968750Y-13475000D01*
X23947309Y-13473947D01*
X23926074Y-13470797D01*
X23905250Y-13465581D01*
X23885038Y-13458349D01*
X23865632Y-13449170D01*
X23847219Y-13438134D01*
X23829976Y-13425346D01*
X23814070Y-13410930D01*
X23799654Y-13395024D01*
X23786866Y-13377781D01*
X23775830Y-13359368D01*
X23766651Y-13339962D01*
X23759419Y-13319750D01*
X23754203Y-13298926D01*
X23751053Y-13277691D01*
X23750000Y-13256250D01*
X23750000Y-12743750D01*
X23751053Y-12722309D01*
X23754203Y-12701074D01*
X23759419Y-12680250D01*
X23766651Y-12660038D01*
X23775830Y-12640632D01*
X23786866Y-12622219D01*
X23799654Y-12604976D01*
X23814070Y-12589070D01*
X23829976Y-12574654D01*
X23847219Y-12561866D01*
X23865632Y-12550830D01*
X23885038Y-12541651D01*
X23905250Y-12534419D01*
X23926074Y-12529203D01*
X23947309Y-12526053D01*
X23968750Y-12525000D01*
X24406250Y-12525000D01*
X24427691Y-12526053D01*
G37*
G36*
X16452691Y-23326053D02*
G01*
X16473926Y-23329203D01*
X16494750Y-23334419D01*
X16514962Y-23341651D01*
X16534368Y-23350830D01*
X16552781Y-23361866D01*
X16570024Y-23374654D01*
X16585930Y-23389070D01*
X16600346Y-23404976D01*
X16613134Y-23422219D01*
X16624170Y-23440632D01*
X16633349Y-23460038D01*
X16640581Y-23480250D01*
X16645797Y-23501074D01*
X16648947Y-23522309D01*
X16650000Y-23543750D01*
X16650000Y-24056250D01*
X16648947Y-24077691D01*
X16645797Y-24098926D01*
X16640581Y-24119750D01*
X16633349Y-24139962D01*
X16624170Y-24159368D01*
X16613134Y-24177781D01*
X16600346Y-24195024D01*
X16585930Y-24210930D01*
X16570024Y-24225346D01*
X16552781Y-24238134D01*
X16534368Y-24249170D01*
X16514962Y-24258349D01*
X16494750Y-24265581D01*
X16473926Y-24270797D01*
X16452691Y-24273947D01*
X16431250Y-24275000D01*
X15993750Y-24275000D01*
X15972309Y-24273947D01*
X15951074Y-24270797D01*
X15930250Y-24265581D01*
X15910038Y-24258349D01*
X15890632Y-24249170D01*
X15872219Y-24238134D01*
X15854976Y-24225346D01*
X15839070Y-24210930D01*
X15824654Y-24195024D01*
X15811866Y-24177781D01*
X15800830Y-24159368D01*
X15791651Y-24139962D01*
X15784419Y-24119750D01*
X15779203Y-24098926D01*
X15776053Y-24077691D01*
X15775000Y-24056250D01*
X15775000Y-23543750D01*
X15776053Y-23522309D01*
X15779203Y-23501074D01*
X15784419Y-23480250D01*
X15791651Y-23460038D01*
X15800830Y-23440632D01*
X15811866Y-23422219D01*
X15824654Y-23404976D01*
X15839070Y-23389070D01*
X15854976Y-23374654D01*
X15872219Y-23361866D01*
X15890632Y-23350830D01*
X15910038Y-23341651D01*
X15930250Y-23334419D01*
X15951074Y-23329203D01*
X15972309Y-23326053D01*
X15993750Y-23325000D01*
X16431250Y-23325000D01*
X16452691Y-23326053D01*
G37*
G36*
X18027691Y-23326053D02*
G01*
X18048926Y-23329203D01*
X18069750Y-23334419D01*
X18089962Y-23341651D01*
X18109368Y-23350830D01*
X18127781Y-23361866D01*
X18145024Y-23374654D01*
X18160930Y-23389070D01*
X18175346Y-23404976D01*
X18188134Y-23422219D01*
X18199170Y-23440632D01*
X18208349Y-23460038D01*
X18215581Y-23480250D01*
X18220797Y-23501074D01*
X18223947Y-23522309D01*
X18225000Y-23543750D01*
X18225000Y-24056250D01*
X18223947Y-24077691D01*
X18220797Y-24098926D01*
X18215581Y-24119750D01*
X18208349Y-24139962D01*
X18199170Y-24159368D01*
X18188134Y-24177781D01*
X18175346Y-24195024D01*
X18160930Y-24210930D01*
X18145024Y-24225346D01*
X18127781Y-24238134D01*
X18109368Y-24249170D01*
X18089962Y-24258349D01*
X18069750Y-24265581D01*
X18048926Y-24270797D01*
X18027691Y-24273947D01*
X18006250Y-24275000D01*
X17568750Y-24275000D01*
X17547309Y-24273947D01*
X17526074Y-24270797D01*
X17505250Y-24265581D01*
X17485038Y-24258349D01*
X17465632Y-24249170D01*
X17447219Y-24238134D01*
X17429976Y-24225346D01*
X17414070Y-24210930D01*
X17399654Y-24195024D01*
X17386866Y-24177781D01*
X17375830Y-24159368D01*
X17366651Y-24139962D01*
X17359419Y-24119750D01*
X17354203Y-24098926D01*
X17351053Y-24077691D01*
X17350000Y-24056250D01*
X17350000Y-23543750D01*
X17351053Y-23522309D01*
X17354203Y-23501074D01*
X17359419Y-23480250D01*
X17366651Y-23460038D01*
X17375830Y-23440632D01*
X17386866Y-23422219D01*
X17399654Y-23404976D01*
X17414070Y-23389070D01*
X17429976Y-23374654D01*
X17447219Y-23361866D01*
X17465632Y-23350830D01*
X17485038Y-23341651D01*
X17505250Y-23334419D01*
X17526074Y-23329203D01*
X17547309Y-23326053D01*
X17568750Y-23325000D01*
X18006250Y-23325000D01*
X18027691Y-23326053D01*
G37*
G36*
X16027691Y-14826053D02*
G01*
X16048926Y-14829203D01*
X16069750Y-14834419D01*
X16089962Y-14841651D01*
X16109368Y-14850830D01*
X16127781Y-14861866D01*
X16145024Y-14874654D01*
X16160930Y-14889070D01*
X16175346Y-14904976D01*
X16188134Y-14922219D01*
X16199170Y-14940632D01*
X16208349Y-14960038D01*
X16215581Y-14980250D01*
X16220797Y-15001074D01*
X16223947Y-15022309D01*
X16225000Y-15043750D01*
X16225000Y-15556250D01*
X16223947Y-15577691D01*
X16220797Y-15598926D01*
X16215581Y-15619750D01*
X16208349Y-15639962D01*
X16199170Y-15659368D01*
X16188134Y-15677781D01*
X16175346Y-15695024D01*
X16160930Y-15710930D01*
X16145024Y-15725346D01*
X16127781Y-15738134D01*
X16109368Y-15749170D01*
X16089962Y-15758349D01*
X16069750Y-15765581D01*
X16048926Y-15770797D01*
X16027691Y-15773947D01*
X16006250Y-15775000D01*
X15568750Y-15775000D01*
X15547309Y-15773947D01*
X15526074Y-15770797D01*
X15505250Y-15765581D01*
X15485038Y-15758349D01*
X15465632Y-15749170D01*
X15447219Y-15738134D01*
X15429976Y-15725346D01*
X15414070Y-15710930D01*
X15399654Y-15695024D01*
X15386866Y-15677781D01*
X15375830Y-15659368D01*
X15366651Y-15639962D01*
X15359419Y-15619750D01*
X15354203Y-15598926D01*
X15351053Y-15577691D01*
X15350000Y-15556250D01*
X15350000Y-15043750D01*
X15351053Y-15022309D01*
X15354203Y-15001074D01*
X15359419Y-14980250D01*
X15366651Y-14960038D01*
X15375830Y-14940632D01*
X15386866Y-14922219D01*
X15399654Y-14904976D01*
X15414070Y-14889070D01*
X15429976Y-14874654D01*
X15447219Y-14861866D01*
X15465632Y-14850830D01*
X15485038Y-14841651D01*
X15505250Y-14834419D01*
X15526074Y-14829203D01*
X15547309Y-14826053D01*
X15568750Y-14825000D01*
X16006250Y-14825000D01*
X16027691Y-14826053D01*
G37*
G36*
X14452691Y-14826053D02*
G01*
X14473926Y-14829203D01*
X14494750Y-14834419D01*
X14514962Y-14841651D01*
X14534368Y-14850830D01*
X14552781Y-14861866D01*
X14570024Y-14874654D01*
X14585930Y-14889070D01*
X14600346Y-14904976D01*
X14613134Y-14922219D01*
X14624170Y-14940632D01*
X14633349Y-14960038D01*
X14640581Y-14980250D01*
X14645797Y-15001074D01*
X14648947Y-15022309D01*
X14650000Y-15043750D01*
X14650000Y-15556250D01*
X14648947Y-15577691D01*
X14645797Y-15598926D01*
X14640581Y-15619750D01*
X14633349Y-15639962D01*
X14624170Y-15659368D01*
X14613134Y-15677781D01*
X14600346Y-15695024D01*
X14585930Y-15710930D01*
X14570024Y-15725346D01*
X14552781Y-15738134D01*
X14534368Y-15749170D01*
X14514962Y-15758349D01*
X14494750Y-15765581D01*
X14473926Y-15770797D01*
X14452691Y-15773947D01*
X14431250Y-15775000D01*
X13993750Y-15775000D01*
X13972309Y-15773947D01*
X13951074Y-15770797D01*
X13930250Y-15765581D01*
X13910038Y-15758349D01*
X13890632Y-15749170D01*
X13872219Y-15738134D01*
X13854976Y-15725346D01*
X13839070Y-15710930D01*
X13824654Y-15695024D01*
X13811866Y-15677781D01*
X13800830Y-15659368D01*
X13791651Y-15639962D01*
X13784419Y-15619750D01*
X13779203Y-15598926D01*
X13776053Y-15577691D01*
X13775000Y-15556250D01*
X13775000Y-15043750D01*
X13776053Y-15022309D01*
X13779203Y-15001074D01*
X13784419Y-14980250D01*
X13791651Y-14960038D01*
X13800830Y-14940632D01*
X13811866Y-14922219D01*
X13824654Y-14904976D01*
X13839070Y-14889070D01*
X13854976Y-14874654D01*
X13872219Y-14861866D01*
X13890632Y-14850830D01*
X13910038Y-14841651D01*
X13930250Y-14834419D01*
X13951074Y-14829203D01*
X13972309Y-14826053D01*
X13993750Y-14825000D01*
X14431250Y-14825000D01*
X14452691Y-14826053D01*
G37*
G36*
X24427691Y-14026053D02*
G01*
X24448926Y-14029203D01*
X24469750Y-14034419D01*
X24489962Y-14041651D01*
X24509368Y-14050830D01*
X24527781Y-14061866D01*
X24545024Y-14074654D01*
X24560930Y-14089070D01*
X24575346Y-14104976D01*
X24588134Y-14122219D01*
X24599170Y-14140632D01*
X24608349Y-14160038D01*
X24615581Y-14180250D01*
X24620797Y-14201074D01*
X24623947Y-14222309D01*
X24625000Y-14243750D01*
X24625000Y-14756250D01*
X24623947Y-14777691D01*
X24620797Y-14798926D01*
X24615581Y-14819750D01*
X24608349Y-14839962D01*
X24599170Y-14859368D01*
X24588134Y-14877781D01*
X24575346Y-14895024D01*
X24560930Y-14910930D01*
X24545024Y-14925346D01*
X24527781Y-14938134D01*
X24509368Y-14949170D01*
X24489962Y-14958349D01*
X24469750Y-14965581D01*
X24448926Y-14970797D01*
X24427691Y-14973947D01*
X24406250Y-14975000D01*
X23968750Y-14975000D01*
X23947309Y-14973947D01*
X23926074Y-14970797D01*
X23905250Y-14965581D01*
X23885038Y-14958349D01*
X23865632Y-14949170D01*
X23847219Y-14938134D01*
X23829976Y-14925346D01*
X23814070Y-14910930D01*
X23799654Y-14895024D01*
X23786866Y-14877781D01*
X23775830Y-14859368D01*
X23766651Y-14839962D01*
X23759419Y-14819750D01*
X23754203Y-14798926D01*
X23751053Y-14777691D01*
X23750000Y-14756250D01*
X23750000Y-14243750D01*
X23751053Y-14222309D01*
X23754203Y-14201074D01*
X23759419Y-14180250D01*
X23766651Y-14160038D01*
X23775830Y-14140632D01*
X23786866Y-14122219D01*
X23799654Y-14104976D01*
X23814070Y-14089070D01*
X23829976Y-14074654D01*
X23847219Y-14061866D01*
X23865632Y-14050830D01*
X23885038Y-14041651D01*
X23905250Y-14034419D01*
X23926074Y-14029203D01*
X23947309Y-14026053D01*
X23968750Y-14025000D01*
X24406250Y-14025000D01*
X24427691Y-14026053D01*
G37*
G36*
X22852691Y-14026053D02*
G01*
X22873926Y-14029203D01*
X22894750Y-14034419D01*
X22914962Y-14041651D01*
X22934368Y-14050830D01*
X22952781Y-14061866D01*
X22970024Y-14074654D01*
X22985930Y-14089070D01*
X23000346Y-14104976D01*
X23013134Y-14122219D01*
X23024170Y-14140632D01*
X23033349Y-14160038D01*
X23040581Y-14180250D01*
X23045797Y-14201074D01*
X23048947Y-14222309D01*
X23050000Y-14243750D01*
X23050000Y-14756250D01*
X23048947Y-14777691D01*
X23045797Y-14798926D01*
X23040581Y-14819750D01*
X23033349Y-14839962D01*
X23024170Y-14859368D01*
X23013134Y-14877781D01*
X23000346Y-14895024D01*
X22985930Y-14910930D01*
X22970024Y-14925346D01*
X22952781Y-14938134D01*
X22934368Y-14949170D01*
X22914962Y-14958349D01*
X22894750Y-14965581D01*
X22873926Y-14970797D01*
X22852691Y-14973947D01*
X22831250Y-14975000D01*
X22393750Y-14975000D01*
X22372309Y-14973947D01*
X22351074Y-14970797D01*
X22330250Y-14965581D01*
X22310038Y-14958349D01*
X22290632Y-14949170D01*
X22272219Y-14938134D01*
X22254976Y-14925346D01*
X22239070Y-14910930D01*
X22224654Y-14895024D01*
X22211866Y-14877781D01*
X22200830Y-14859368D01*
X22191651Y-14839962D01*
X22184419Y-14819750D01*
X22179203Y-14798926D01*
X22176053Y-14777691D01*
X22175000Y-14756250D01*
X22175000Y-14243750D01*
X22176053Y-14222309D01*
X22179203Y-14201074D01*
X22184419Y-14180250D01*
X22191651Y-14160038D01*
X22200830Y-14140632D01*
X22211866Y-14122219D01*
X22224654Y-14104976D01*
X22239070Y-14089070D01*
X22254976Y-14074654D01*
X22272219Y-14061866D01*
X22290632Y-14050830D01*
X22310038Y-14041651D01*
X22330250Y-14034419D01*
X22351074Y-14029203D01*
X22372309Y-14026053D01*
X22393750Y-14025000D01*
X22831250Y-14025000D01*
X22852691Y-14026053D01*
G37*
G36*
X14452691Y-18326053D02*
G01*
X14473926Y-18329203D01*
X14494750Y-18334419D01*
X14514962Y-18341651D01*
X14534368Y-18350830D01*
X14552781Y-18361866D01*
X14570024Y-18374654D01*
X14585930Y-18389070D01*
X14600346Y-18404976D01*
X14613134Y-18422219D01*
X14624170Y-18440632D01*
X14633349Y-18460038D01*
X14640581Y-18480250D01*
X14645797Y-18501074D01*
X14648947Y-18522309D01*
X14650000Y-18543750D01*
X14650000Y-19056250D01*
X14648947Y-19077691D01*
X14645797Y-19098926D01*
X14640581Y-19119750D01*
X14633349Y-19139962D01*
X14624170Y-19159368D01*
X14613134Y-19177781D01*
X14600346Y-19195024D01*
X14585930Y-19210930D01*
X14570024Y-19225346D01*
X14552781Y-19238134D01*
X14534368Y-19249170D01*
X14514962Y-19258349D01*
X14494750Y-19265581D01*
X14473926Y-19270797D01*
X14452691Y-19273947D01*
X14431250Y-19275000D01*
X13993750Y-19275000D01*
X13972309Y-19273947D01*
X13951074Y-19270797D01*
X13930250Y-19265581D01*
X13910038Y-19258349D01*
X13890632Y-19249170D01*
X13872219Y-19238134D01*
X13854976Y-19225346D01*
X13839070Y-19210930D01*
X13824654Y-19195024D01*
X13811866Y-19177781D01*
X13800830Y-19159368D01*
X13791651Y-19139962D01*
X13784419Y-19119750D01*
X13779203Y-19098926D01*
X13776053Y-19077691D01*
X13775000Y-19056250D01*
X13775000Y-18543750D01*
X13776053Y-18522309D01*
X13779203Y-18501074D01*
X13784419Y-18480250D01*
X13791651Y-18460038D01*
X13800830Y-18440632D01*
X13811866Y-18422219D01*
X13824654Y-18404976D01*
X13839070Y-18389070D01*
X13854976Y-18374654D01*
X13872219Y-18361866D01*
X13890632Y-18350830D01*
X13910038Y-18341651D01*
X13930250Y-18334419D01*
X13951074Y-18329203D01*
X13972309Y-18326053D01*
X13993750Y-18325000D01*
X14431250Y-18325000D01*
X14452691Y-18326053D01*
G37*
G36*
X16027691Y-18326053D02*
G01*
X16048926Y-18329203D01*
X16069750Y-18334419D01*
X16089962Y-18341651D01*
X16109368Y-18350830D01*
X16127781Y-18361866D01*
X16145024Y-18374654D01*
X16160930Y-18389070D01*
X16175346Y-18404976D01*
X16188134Y-18422219D01*
X16199170Y-18440632D01*
X16208349Y-18460038D01*
X16215581Y-18480250D01*
X16220797Y-18501074D01*
X16223947Y-18522309D01*
X16225000Y-18543750D01*
X16225000Y-19056250D01*
X16223947Y-19077691D01*
X16220797Y-19098926D01*
X16215581Y-19119750D01*
X16208349Y-19139962D01*
X16199170Y-19159368D01*
X16188134Y-19177781D01*
X16175346Y-19195024D01*
X16160930Y-19210930D01*
X16145024Y-19225346D01*
X16127781Y-19238134D01*
X16109368Y-19249170D01*
X16089962Y-19258349D01*
X16069750Y-19265581D01*
X16048926Y-19270797D01*
X16027691Y-19273947D01*
X16006250Y-19275000D01*
X15568750Y-19275000D01*
X15547309Y-19273947D01*
X15526074Y-19270797D01*
X15505250Y-19265581D01*
X15485038Y-19258349D01*
X15465632Y-19249170D01*
X15447219Y-19238134D01*
X15429976Y-19225346D01*
X15414070Y-19210930D01*
X15399654Y-19195024D01*
X15386866Y-19177781D01*
X15375830Y-19159368D01*
X15366651Y-19139962D01*
X15359419Y-19119750D01*
X15354203Y-19098926D01*
X15351053Y-19077691D01*
X15350000Y-19056250D01*
X15350000Y-18543750D01*
X15351053Y-18522309D01*
X15354203Y-18501074D01*
X15359419Y-18480250D01*
X15366651Y-18460038D01*
X15375830Y-18440632D01*
X15386866Y-18422219D01*
X15399654Y-18404976D01*
X15414070Y-18389070D01*
X15429976Y-18374654D01*
X15447219Y-18361866D01*
X15465632Y-18350830D01*
X15485038Y-18341651D01*
X15505250Y-18334419D01*
X15526074Y-18329203D01*
X15547309Y-18326053D01*
X15568750Y-18325000D01*
X16006250Y-18325000D01*
X16027691Y-18326053D01*
G37*
G36*
X16452691Y-9726053D02*
G01*
X16473926Y-9729203D01*
X16494750Y-9734419D01*
X16514962Y-9741651D01*
X16534368Y-9750830D01*
X16552781Y-9761866D01*
X16570024Y-9774654D01*
X16585930Y-9789070D01*
X16600346Y-9804976D01*
X16613134Y-9822219D01*
X16624170Y-9840632D01*
X16633349Y-9860038D01*
X16640581Y-9880250D01*
X16645797Y-9901074D01*
X16648947Y-9922309D01*
X16650000Y-9943750D01*
X16650000Y-10456250D01*
X16648947Y-10477691D01*
X16645797Y-10498926D01*
X16640581Y-10519750D01*
X16633349Y-10539962D01*
X16624170Y-10559368D01*
X16613134Y-10577781D01*
X16600346Y-10595024D01*
X16585930Y-10610930D01*
X16570024Y-10625346D01*
X16552781Y-10638134D01*
X16534368Y-10649170D01*
X16514962Y-10658349D01*
X16494750Y-10665581D01*
X16473926Y-10670797D01*
X16452691Y-10673947D01*
X16431250Y-10675000D01*
X15993750Y-10675000D01*
X15972309Y-10673947D01*
X15951074Y-10670797D01*
X15930250Y-10665581D01*
X15910038Y-10658349D01*
X15890632Y-10649170D01*
X15872219Y-10638134D01*
X15854976Y-10625346D01*
X15839070Y-10610930D01*
X15824654Y-10595024D01*
X15811866Y-10577781D01*
X15800830Y-10559368D01*
X15791651Y-10539962D01*
X15784419Y-10519750D01*
X15779203Y-10498926D01*
X15776053Y-10477691D01*
X15775000Y-10456250D01*
X15775000Y-9943750D01*
X15776053Y-9922309D01*
X15779203Y-9901074D01*
X15784419Y-9880250D01*
X15791651Y-9860038D01*
X15800830Y-9840632D01*
X15811866Y-9822219D01*
X15824654Y-9804976D01*
X15839070Y-9789070D01*
X15854976Y-9774654D01*
X15872219Y-9761866D01*
X15890632Y-9750830D01*
X15910038Y-9741651D01*
X15930250Y-9734419D01*
X15951074Y-9729203D01*
X15972309Y-9726053D01*
X15993750Y-9725000D01*
X16431250Y-9725000D01*
X16452691Y-9726053D01*
G37*
G36*
X18027691Y-9726053D02*
G01*
X18048926Y-9729203D01*
X18069750Y-9734419D01*
X18089962Y-9741651D01*
X18109368Y-9750830D01*
X18127781Y-9761866D01*
X18145024Y-9774654D01*
X18160930Y-9789070D01*
X18175346Y-9804976D01*
X18188134Y-9822219D01*
X18199170Y-9840632D01*
X18208349Y-9860038D01*
X18215581Y-9880250D01*
X18220797Y-9901074D01*
X18223947Y-9922309D01*
X18225000Y-9943750D01*
X18225000Y-10456250D01*
X18223947Y-10477691D01*
X18220797Y-10498926D01*
X18215581Y-10519750D01*
X18208349Y-10539962D01*
X18199170Y-10559368D01*
X18188134Y-10577781D01*
X18175346Y-10595024D01*
X18160930Y-10610930D01*
X18145024Y-10625346D01*
X18127781Y-10638134D01*
X18109368Y-10649170D01*
X18089962Y-10658349D01*
X18069750Y-10665581D01*
X18048926Y-10670797D01*
X18027691Y-10673947D01*
X18006250Y-10675000D01*
X17568750Y-10675000D01*
X17547309Y-10673947D01*
X17526074Y-10670797D01*
X17505250Y-10665581D01*
X17485038Y-10658349D01*
X17465632Y-10649170D01*
X17447219Y-10638134D01*
X17429976Y-10625346D01*
X17414070Y-10610930D01*
X17399654Y-10595024D01*
X17386866Y-10577781D01*
X17375830Y-10559368D01*
X17366651Y-10539962D01*
X17359419Y-10519750D01*
X17354203Y-10498926D01*
X17351053Y-10477691D01*
X17350000Y-10456250D01*
X17350000Y-9943750D01*
X17351053Y-9922309D01*
X17354203Y-9901074D01*
X17359419Y-9880250D01*
X17366651Y-9860038D01*
X17375830Y-9840632D01*
X17386866Y-9822219D01*
X17399654Y-9804976D01*
X17414070Y-9789070D01*
X17429976Y-9774654D01*
X17447219Y-9761866D01*
X17465632Y-9750830D01*
X17485038Y-9741651D01*
X17505250Y-9734419D01*
X17526074Y-9729203D01*
X17547309Y-9726053D01*
X17568750Y-9725000D01*
X18006250Y-9725000D01*
X18027691Y-9726053D01*
G37*
M02*
