G04 #@! TF.GenerationSoftware,KiCad,Pcbnew,5.1.9-73d0e3b20d~88~ubuntu20.04.1*
G04 #@! TF.CreationDate,2021-06-04T14:41:46+03:00*
G04 #@! TF.ProjectId,cable_to_square_pin,6361626c-655f-4746-9f5f-737175617265,rev?*
G04 #@! TF.SameCoordinates,Original*
G04 #@! TF.FileFunction,Paste,Top*
G04 #@! TF.FilePolarity,Positive*
%FSLAX46Y46*%
G04 Gerber Fmt 4.6, Leading zero omitted, Abs format (unit mm)*
G04 Created by KiCad (PCBNEW 5.1.9-73d0e3b20d~88~ubuntu20.04.1) date 2021-06-04 14:41:46*
%MOMM*%
%LPD*%
G01*
G04 APERTURE LIST*
G04 APERTURE END LIST*
G04 #@! TO.C,J1*
G36*
G01*
X107860000Y-121020000D02*
X111460000Y-121020000D01*
G75*
G02*
X111810000Y-121370000I0J-350000D01*
G01*
X111810000Y-122070000D01*
G75*
G02*
X111460000Y-122420000I-350000J0D01*
G01*
X107860000Y-122420000D01*
G75*
G02*
X107510000Y-122070000I0J350000D01*
G01*
X107510000Y-121370000D01*
G75*
G02*
X107860000Y-121020000I350000J0D01*
G01*
G37*
G04 #@! TD*
G04 #@! TO.C,C1*
G36*
G01*
X106910000Y-75956250D02*
X106910000Y-75443750D01*
G75*
G02*
X107128750Y-75225000I218750J0D01*
G01*
X107566250Y-75225000D01*
G75*
G02*
X107785000Y-75443750I0J-218750D01*
G01*
X107785000Y-75956250D01*
G75*
G02*
X107566250Y-76175000I-218750J0D01*
G01*
X107128750Y-76175000D01*
G75*
G02*
X106910000Y-75956250I0J218750D01*
G01*
G37*
G36*
G01*
X105335000Y-75956250D02*
X105335000Y-75443750D01*
G75*
G02*
X105553750Y-75225000I218750J0D01*
G01*
X105991250Y-75225000D01*
G75*
G02*
X106210000Y-75443750I0J-218750D01*
G01*
X106210000Y-75956250D01*
G75*
G02*
X105991250Y-76175000I-218750J0D01*
G01*
X105553750Y-76175000D01*
G75*
G02*
X105335000Y-75956250I0J218750D01*
G01*
G37*
G04 #@! TD*
G04 #@! TO.C,R1*
G36*
G01*
X106910000Y-76556250D02*
X106910000Y-76043750D01*
G75*
G02*
X107128750Y-75825000I218750J0D01*
G01*
X107566250Y-75825000D01*
G75*
G02*
X107785000Y-76043750I0J-218750D01*
G01*
X107785000Y-76556250D01*
G75*
G02*
X107566250Y-76775000I-218750J0D01*
G01*
X107128750Y-76775000D01*
G75*
G02*
X106910000Y-76556250I0J218750D01*
G01*
G37*
G36*
G01*
X105335000Y-76556250D02*
X105335000Y-76043750D01*
G75*
G02*
X105553750Y-75825000I218750J0D01*
G01*
X105991250Y-75825000D01*
G75*
G02*
X106210000Y-76043750I0J-218750D01*
G01*
X106210000Y-76556250D01*
G75*
G02*
X105991250Y-76775000I-218750J0D01*
G01*
X105553750Y-76775000D01*
G75*
G02*
X105335000Y-76556250I0J218750D01*
G01*
G37*
G04 #@! TD*
G04 #@! TO.C,J1*
G36*
G01*
X107860000Y-85460000D02*
X111460000Y-85460000D01*
G75*
G02*
X111810000Y-85810000I0J-350000D01*
G01*
X111810000Y-86510000D01*
G75*
G02*
X111460000Y-86860000I-350000J0D01*
G01*
X107860000Y-86860000D01*
G75*
G02*
X107510000Y-86510000I0J350000D01*
G01*
X107510000Y-85810000D01*
G75*
G02*
X107860000Y-85460000I350000J0D01*
G01*
G37*
G04 #@! TD*
G04 #@! TO.C,R1*
G36*
G01*
X105335000Y-112116250D02*
X105335000Y-111603750D01*
G75*
G02*
X105553750Y-111385000I218750J0D01*
G01*
X105991250Y-111385000D01*
G75*
G02*
X106210000Y-111603750I0J-218750D01*
G01*
X106210000Y-112116250D01*
G75*
G02*
X105991250Y-112335000I-218750J0D01*
G01*
X105553750Y-112335000D01*
G75*
G02*
X105335000Y-112116250I0J218750D01*
G01*
G37*
G36*
G01*
X106910000Y-112116250D02*
X106910000Y-111603750D01*
G75*
G02*
X107128750Y-111385000I218750J0D01*
G01*
X107566250Y-111385000D01*
G75*
G02*
X107785000Y-111603750I0J-218750D01*
G01*
X107785000Y-112116250D01*
G75*
G02*
X107566250Y-112335000I-218750J0D01*
G01*
X107128750Y-112335000D01*
G75*
G02*
X106910000Y-112116250I0J218750D01*
G01*
G37*
G04 #@! TD*
G04 #@! TO.C,R1*
G36*
G01*
X106910000Y-117196250D02*
X106910000Y-116683750D01*
G75*
G02*
X107128750Y-116465000I218750J0D01*
G01*
X107566250Y-116465000D01*
G75*
G02*
X107785000Y-116683750I0J-218750D01*
G01*
X107785000Y-117196250D01*
G75*
G02*
X107566250Y-117415000I-218750J0D01*
G01*
X107128750Y-117415000D01*
G75*
G02*
X106910000Y-117196250I0J218750D01*
G01*
G37*
G36*
G01*
X105335000Y-117196250D02*
X105335000Y-116683750D01*
G75*
G02*
X105553750Y-116465000I218750J0D01*
G01*
X105991250Y-116465000D01*
G75*
G02*
X106210000Y-116683750I0J-218750D01*
G01*
X106210000Y-117196250D01*
G75*
G02*
X105991250Y-117415000I-218750J0D01*
G01*
X105553750Y-117415000D01*
G75*
G02*
X105335000Y-117196250I0J218750D01*
G01*
G37*
G04 #@! TD*
G04 #@! TO.C,J1*
G36*
G01*
X107860000Y-80380000D02*
X111460000Y-80380000D01*
G75*
G02*
X111810000Y-80730000I0J-350000D01*
G01*
X111810000Y-81430000D01*
G75*
G02*
X111460000Y-81780000I-350000J0D01*
G01*
X107860000Y-81780000D01*
G75*
G02*
X107510000Y-81430000I0J350000D01*
G01*
X107510000Y-80730000D01*
G75*
G02*
X107860000Y-80380000I350000J0D01*
G01*
G37*
G04 #@! TD*
G04 #@! TO.C,R1*
G36*
G01*
X105335000Y-81636250D02*
X105335000Y-81123750D01*
G75*
G02*
X105553750Y-80905000I218750J0D01*
G01*
X105991250Y-80905000D01*
G75*
G02*
X106210000Y-81123750I0J-218750D01*
G01*
X106210000Y-81636250D01*
G75*
G02*
X105991250Y-81855000I-218750J0D01*
G01*
X105553750Y-81855000D01*
G75*
G02*
X105335000Y-81636250I0J218750D01*
G01*
G37*
G36*
G01*
X106910000Y-81636250D02*
X106910000Y-81123750D01*
G75*
G02*
X107128750Y-80905000I218750J0D01*
G01*
X107566250Y-80905000D01*
G75*
G02*
X107785000Y-81123750I0J-218750D01*
G01*
X107785000Y-81636250D01*
G75*
G02*
X107566250Y-81855000I-218750J0D01*
G01*
X107128750Y-81855000D01*
G75*
G02*
X106910000Y-81636250I0J218750D01*
G01*
G37*
G04 #@! TD*
G04 #@! TO.C,J1*
G36*
G01*
X107860000Y-95620000D02*
X111460000Y-95620000D01*
G75*
G02*
X111810000Y-95970000I0J-350000D01*
G01*
X111810000Y-96670000D01*
G75*
G02*
X111460000Y-97020000I-350000J0D01*
G01*
X107860000Y-97020000D01*
G75*
G02*
X107510000Y-96670000I0J350000D01*
G01*
X107510000Y-95970000D01*
G75*
G02*
X107860000Y-95620000I350000J0D01*
G01*
G37*
G04 #@! TD*
G04 #@! TO.C,R1*
G36*
G01*
X105335000Y-91796250D02*
X105335000Y-91283750D01*
G75*
G02*
X105553750Y-91065000I218750J0D01*
G01*
X105991250Y-91065000D01*
G75*
G02*
X106210000Y-91283750I0J-218750D01*
G01*
X106210000Y-91796250D01*
G75*
G02*
X105991250Y-92015000I-218750J0D01*
G01*
X105553750Y-92015000D01*
G75*
G02*
X105335000Y-91796250I0J218750D01*
G01*
G37*
G36*
G01*
X106910000Y-91796250D02*
X106910000Y-91283750D01*
G75*
G02*
X107128750Y-91065000I218750J0D01*
G01*
X107566250Y-91065000D01*
G75*
G02*
X107785000Y-91283750I0J-218750D01*
G01*
X107785000Y-91796250D01*
G75*
G02*
X107566250Y-92015000I-218750J0D01*
G01*
X107128750Y-92015000D01*
G75*
G02*
X106910000Y-91796250I0J218750D01*
G01*
G37*
G04 #@! TD*
G04 #@! TO.C,J1*
G36*
G01*
X107860000Y-100700000D02*
X111460000Y-100700000D01*
G75*
G02*
X111810000Y-101050000I0J-350000D01*
G01*
X111810000Y-101750000D01*
G75*
G02*
X111460000Y-102100000I-350000J0D01*
G01*
X107860000Y-102100000D01*
G75*
G02*
X107510000Y-101750000I0J350000D01*
G01*
X107510000Y-101050000D01*
G75*
G02*
X107860000Y-100700000I350000J0D01*
G01*
G37*
G04 #@! TD*
G04 #@! TO.C,J1*
G36*
G01*
X107860000Y-115940000D02*
X111460000Y-115940000D01*
G75*
G02*
X111810000Y-116290000I0J-350000D01*
G01*
X111810000Y-116990000D01*
G75*
G02*
X111460000Y-117340000I-350000J0D01*
G01*
X107860000Y-117340000D01*
G75*
G02*
X107510000Y-116990000I0J350000D01*
G01*
X107510000Y-116290000D01*
G75*
G02*
X107860000Y-115940000I350000J0D01*
G01*
G37*
G04 #@! TD*
G04 #@! TO.C,C1*
G36*
G01*
X105335000Y-111516250D02*
X105335000Y-111003750D01*
G75*
G02*
X105553750Y-110785000I218750J0D01*
G01*
X105991250Y-110785000D01*
G75*
G02*
X106210000Y-111003750I0J-218750D01*
G01*
X106210000Y-111516250D01*
G75*
G02*
X105991250Y-111735000I-218750J0D01*
G01*
X105553750Y-111735000D01*
G75*
G02*
X105335000Y-111516250I0J218750D01*
G01*
G37*
G36*
G01*
X106910000Y-111516250D02*
X106910000Y-111003750D01*
G75*
G02*
X107128750Y-110785000I218750J0D01*
G01*
X107566250Y-110785000D01*
G75*
G02*
X107785000Y-111003750I0J-218750D01*
G01*
X107785000Y-111516250D01*
G75*
G02*
X107566250Y-111735000I-218750J0D01*
G01*
X107128750Y-111735000D01*
G75*
G02*
X106910000Y-111516250I0J218750D01*
G01*
G37*
G04 #@! TD*
G04 #@! TO.C,C1*
G36*
G01*
X106910000Y-96276250D02*
X106910000Y-95763750D01*
G75*
G02*
X107128750Y-95545000I218750J0D01*
G01*
X107566250Y-95545000D01*
G75*
G02*
X107785000Y-95763750I0J-218750D01*
G01*
X107785000Y-96276250D01*
G75*
G02*
X107566250Y-96495000I-218750J0D01*
G01*
X107128750Y-96495000D01*
G75*
G02*
X106910000Y-96276250I0J218750D01*
G01*
G37*
G36*
G01*
X105335000Y-96276250D02*
X105335000Y-95763750D01*
G75*
G02*
X105553750Y-95545000I218750J0D01*
G01*
X105991250Y-95545000D01*
G75*
G02*
X106210000Y-95763750I0J-218750D01*
G01*
X106210000Y-96276250D01*
G75*
G02*
X105991250Y-96495000I-218750J0D01*
G01*
X105553750Y-96495000D01*
G75*
G02*
X105335000Y-96276250I0J218750D01*
G01*
G37*
G04 #@! TD*
G04 #@! TO.C,C1*
G36*
G01*
X105335000Y-81036250D02*
X105335000Y-80523750D01*
G75*
G02*
X105553750Y-80305000I218750J0D01*
G01*
X105991250Y-80305000D01*
G75*
G02*
X106210000Y-80523750I0J-218750D01*
G01*
X106210000Y-81036250D01*
G75*
G02*
X105991250Y-81255000I-218750J0D01*
G01*
X105553750Y-81255000D01*
G75*
G02*
X105335000Y-81036250I0J218750D01*
G01*
G37*
G36*
G01*
X106910000Y-81036250D02*
X106910000Y-80523750D01*
G75*
G02*
X107128750Y-80305000I218750J0D01*
G01*
X107566250Y-80305000D01*
G75*
G02*
X107785000Y-80523750I0J-218750D01*
G01*
X107785000Y-81036250D01*
G75*
G02*
X107566250Y-81255000I-218750J0D01*
G01*
X107128750Y-81255000D01*
G75*
G02*
X106910000Y-81036250I0J218750D01*
G01*
G37*
G04 #@! TD*
G04 #@! TO.C,J1*
G36*
G01*
X107860000Y-75300000D02*
X111460000Y-75300000D01*
G75*
G02*
X111810000Y-75650000I0J-350000D01*
G01*
X111810000Y-76350000D01*
G75*
G02*
X111460000Y-76700000I-350000J0D01*
G01*
X107860000Y-76700000D01*
G75*
G02*
X107510000Y-76350000I0J350000D01*
G01*
X107510000Y-75650000D01*
G75*
G02*
X107860000Y-75300000I350000J0D01*
G01*
G37*
G04 #@! TD*
G04 #@! TO.C,R1*
G36*
G01*
X106910000Y-107036250D02*
X106910000Y-106523750D01*
G75*
G02*
X107128750Y-106305000I218750J0D01*
G01*
X107566250Y-106305000D01*
G75*
G02*
X107785000Y-106523750I0J-218750D01*
G01*
X107785000Y-107036250D01*
G75*
G02*
X107566250Y-107255000I-218750J0D01*
G01*
X107128750Y-107255000D01*
G75*
G02*
X106910000Y-107036250I0J218750D01*
G01*
G37*
G36*
G01*
X105335000Y-107036250D02*
X105335000Y-106523750D01*
G75*
G02*
X105553750Y-106305000I218750J0D01*
G01*
X105991250Y-106305000D01*
G75*
G02*
X106210000Y-106523750I0J-218750D01*
G01*
X106210000Y-107036250D01*
G75*
G02*
X105991250Y-107255000I-218750J0D01*
G01*
X105553750Y-107255000D01*
G75*
G02*
X105335000Y-107036250I0J218750D01*
G01*
G37*
G04 #@! TD*
G04 #@! TO.C,J1*
G36*
G01*
X107860000Y-110860000D02*
X111460000Y-110860000D01*
G75*
G02*
X111810000Y-111210000I0J-350000D01*
G01*
X111810000Y-111910000D01*
G75*
G02*
X111460000Y-112260000I-350000J0D01*
G01*
X107860000Y-112260000D01*
G75*
G02*
X107510000Y-111910000I0J350000D01*
G01*
X107510000Y-111210000D01*
G75*
G02*
X107860000Y-110860000I350000J0D01*
G01*
G37*
G04 #@! TD*
G04 #@! TO.C,J1*
G36*
G01*
X107860000Y-90540000D02*
X111460000Y-90540000D01*
G75*
G02*
X111810000Y-90890000I0J-350000D01*
G01*
X111810000Y-91590000D01*
G75*
G02*
X111460000Y-91940000I-350000J0D01*
G01*
X107860000Y-91940000D01*
G75*
G02*
X107510000Y-91590000I0J350000D01*
G01*
X107510000Y-90890000D01*
G75*
G02*
X107860000Y-90540000I350000J0D01*
G01*
G37*
G04 #@! TD*
G04 #@! TO.C,C1*
G36*
G01*
X105335000Y-101356250D02*
X105335000Y-100843750D01*
G75*
G02*
X105553750Y-100625000I218750J0D01*
G01*
X105991250Y-100625000D01*
G75*
G02*
X106210000Y-100843750I0J-218750D01*
G01*
X106210000Y-101356250D01*
G75*
G02*
X105991250Y-101575000I-218750J0D01*
G01*
X105553750Y-101575000D01*
G75*
G02*
X105335000Y-101356250I0J218750D01*
G01*
G37*
G36*
G01*
X106910000Y-101356250D02*
X106910000Y-100843750D01*
G75*
G02*
X107128750Y-100625000I218750J0D01*
G01*
X107566250Y-100625000D01*
G75*
G02*
X107785000Y-100843750I0J-218750D01*
G01*
X107785000Y-101356250D01*
G75*
G02*
X107566250Y-101575000I-218750J0D01*
G01*
X107128750Y-101575000D01*
G75*
G02*
X106910000Y-101356250I0J218750D01*
G01*
G37*
G04 #@! TD*
G04 #@! TO.C,C1*
G36*
G01*
X105335000Y-91196250D02*
X105335000Y-90683750D01*
G75*
G02*
X105553750Y-90465000I218750J0D01*
G01*
X105991250Y-90465000D01*
G75*
G02*
X106210000Y-90683750I0J-218750D01*
G01*
X106210000Y-91196250D01*
G75*
G02*
X105991250Y-91415000I-218750J0D01*
G01*
X105553750Y-91415000D01*
G75*
G02*
X105335000Y-91196250I0J218750D01*
G01*
G37*
G36*
G01*
X106910000Y-91196250D02*
X106910000Y-90683750D01*
G75*
G02*
X107128750Y-90465000I218750J0D01*
G01*
X107566250Y-90465000D01*
G75*
G02*
X107785000Y-90683750I0J-218750D01*
G01*
X107785000Y-91196250D01*
G75*
G02*
X107566250Y-91415000I-218750J0D01*
G01*
X107128750Y-91415000D01*
G75*
G02*
X106910000Y-91196250I0J218750D01*
G01*
G37*
G04 #@! TD*
G04 #@! TO.C,C1*
G36*
G01*
X106910000Y-116596250D02*
X106910000Y-116083750D01*
G75*
G02*
X107128750Y-115865000I218750J0D01*
G01*
X107566250Y-115865000D01*
G75*
G02*
X107785000Y-116083750I0J-218750D01*
G01*
X107785000Y-116596250D01*
G75*
G02*
X107566250Y-116815000I-218750J0D01*
G01*
X107128750Y-116815000D01*
G75*
G02*
X106910000Y-116596250I0J218750D01*
G01*
G37*
G36*
G01*
X105335000Y-116596250D02*
X105335000Y-116083750D01*
G75*
G02*
X105553750Y-115865000I218750J0D01*
G01*
X105991250Y-115865000D01*
G75*
G02*
X106210000Y-116083750I0J-218750D01*
G01*
X106210000Y-116596250D01*
G75*
G02*
X105991250Y-116815000I-218750J0D01*
G01*
X105553750Y-116815000D01*
G75*
G02*
X105335000Y-116596250I0J218750D01*
G01*
G37*
G04 #@! TD*
G04 #@! TO.C,J1*
G36*
G01*
X107860000Y-105780000D02*
X111460000Y-105780000D01*
G75*
G02*
X111810000Y-106130000I0J-350000D01*
G01*
X111810000Y-106830000D01*
G75*
G02*
X111460000Y-107180000I-350000J0D01*
G01*
X107860000Y-107180000D01*
G75*
G02*
X107510000Y-106830000I0J350000D01*
G01*
X107510000Y-106130000D01*
G75*
G02*
X107860000Y-105780000I350000J0D01*
G01*
G37*
G04 #@! TD*
G04 #@! TO.C,R1*
G36*
G01*
X106910000Y-86716250D02*
X106910000Y-86203750D01*
G75*
G02*
X107128750Y-85985000I218750J0D01*
G01*
X107566250Y-85985000D01*
G75*
G02*
X107785000Y-86203750I0J-218750D01*
G01*
X107785000Y-86716250D01*
G75*
G02*
X107566250Y-86935000I-218750J0D01*
G01*
X107128750Y-86935000D01*
G75*
G02*
X106910000Y-86716250I0J218750D01*
G01*
G37*
G36*
G01*
X105335000Y-86716250D02*
X105335000Y-86203750D01*
G75*
G02*
X105553750Y-85985000I218750J0D01*
G01*
X105991250Y-85985000D01*
G75*
G02*
X106210000Y-86203750I0J-218750D01*
G01*
X106210000Y-86716250D01*
G75*
G02*
X105991250Y-86935000I-218750J0D01*
G01*
X105553750Y-86935000D01*
G75*
G02*
X105335000Y-86716250I0J218750D01*
G01*
G37*
G04 #@! TD*
G04 #@! TO.C,C1*
G36*
G01*
X106910000Y-106436250D02*
X106910000Y-105923750D01*
G75*
G02*
X107128750Y-105705000I218750J0D01*
G01*
X107566250Y-105705000D01*
G75*
G02*
X107785000Y-105923750I0J-218750D01*
G01*
X107785000Y-106436250D01*
G75*
G02*
X107566250Y-106655000I-218750J0D01*
G01*
X107128750Y-106655000D01*
G75*
G02*
X106910000Y-106436250I0J218750D01*
G01*
G37*
G36*
G01*
X105335000Y-106436250D02*
X105335000Y-105923750D01*
G75*
G02*
X105553750Y-105705000I218750J0D01*
G01*
X105991250Y-105705000D01*
G75*
G02*
X106210000Y-105923750I0J-218750D01*
G01*
X106210000Y-106436250D01*
G75*
G02*
X105991250Y-106655000I-218750J0D01*
G01*
X105553750Y-106655000D01*
G75*
G02*
X105335000Y-106436250I0J218750D01*
G01*
G37*
G04 #@! TD*
G04 #@! TO.C,R1*
G36*
G01*
X105335000Y-122276250D02*
X105335000Y-121763750D01*
G75*
G02*
X105553750Y-121545000I218750J0D01*
G01*
X105991250Y-121545000D01*
G75*
G02*
X106210000Y-121763750I0J-218750D01*
G01*
X106210000Y-122276250D01*
G75*
G02*
X105991250Y-122495000I-218750J0D01*
G01*
X105553750Y-122495000D01*
G75*
G02*
X105335000Y-122276250I0J218750D01*
G01*
G37*
G36*
G01*
X106910000Y-122276250D02*
X106910000Y-121763750D01*
G75*
G02*
X107128750Y-121545000I218750J0D01*
G01*
X107566250Y-121545000D01*
G75*
G02*
X107785000Y-121763750I0J-218750D01*
G01*
X107785000Y-122276250D01*
G75*
G02*
X107566250Y-122495000I-218750J0D01*
G01*
X107128750Y-122495000D01*
G75*
G02*
X106910000Y-122276250I0J218750D01*
G01*
G37*
G04 #@! TD*
G04 #@! TO.C,R1*
G36*
G01*
X105335000Y-101956250D02*
X105335000Y-101443750D01*
G75*
G02*
X105553750Y-101225000I218750J0D01*
G01*
X105991250Y-101225000D01*
G75*
G02*
X106210000Y-101443750I0J-218750D01*
G01*
X106210000Y-101956250D01*
G75*
G02*
X105991250Y-102175000I-218750J0D01*
G01*
X105553750Y-102175000D01*
G75*
G02*
X105335000Y-101956250I0J218750D01*
G01*
G37*
G36*
G01*
X106910000Y-101956250D02*
X106910000Y-101443750D01*
G75*
G02*
X107128750Y-101225000I218750J0D01*
G01*
X107566250Y-101225000D01*
G75*
G02*
X107785000Y-101443750I0J-218750D01*
G01*
X107785000Y-101956250D01*
G75*
G02*
X107566250Y-102175000I-218750J0D01*
G01*
X107128750Y-102175000D01*
G75*
G02*
X106910000Y-101956250I0J218750D01*
G01*
G37*
G04 #@! TD*
G04 #@! TO.C,C1*
G36*
G01*
X105335000Y-121676250D02*
X105335000Y-121163750D01*
G75*
G02*
X105553750Y-120945000I218750J0D01*
G01*
X105991250Y-120945000D01*
G75*
G02*
X106210000Y-121163750I0J-218750D01*
G01*
X106210000Y-121676250D01*
G75*
G02*
X105991250Y-121895000I-218750J0D01*
G01*
X105553750Y-121895000D01*
G75*
G02*
X105335000Y-121676250I0J218750D01*
G01*
G37*
G36*
G01*
X106910000Y-121676250D02*
X106910000Y-121163750D01*
G75*
G02*
X107128750Y-120945000I218750J0D01*
G01*
X107566250Y-120945000D01*
G75*
G02*
X107785000Y-121163750I0J-218750D01*
G01*
X107785000Y-121676250D01*
G75*
G02*
X107566250Y-121895000I-218750J0D01*
G01*
X107128750Y-121895000D01*
G75*
G02*
X106910000Y-121676250I0J218750D01*
G01*
G37*
G04 #@! TD*
G04 #@! TO.C,C1*
G36*
G01*
X106910000Y-86116250D02*
X106910000Y-85603750D01*
G75*
G02*
X107128750Y-85385000I218750J0D01*
G01*
X107566250Y-85385000D01*
G75*
G02*
X107785000Y-85603750I0J-218750D01*
G01*
X107785000Y-86116250D01*
G75*
G02*
X107566250Y-86335000I-218750J0D01*
G01*
X107128750Y-86335000D01*
G75*
G02*
X106910000Y-86116250I0J218750D01*
G01*
G37*
G36*
G01*
X105335000Y-86116250D02*
X105335000Y-85603750D01*
G75*
G02*
X105553750Y-85385000I218750J0D01*
G01*
X105991250Y-85385000D01*
G75*
G02*
X106210000Y-85603750I0J-218750D01*
G01*
X106210000Y-86116250D01*
G75*
G02*
X105991250Y-86335000I-218750J0D01*
G01*
X105553750Y-86335000D01*
G75*
G02*
X105335000Y-86116250I0J218750D01*
G01*
G37*
G04 #@! TD*
G04 #@! TO.C,R1*
G36*
G01*
X106910000Y-96876250D02*
X106910000Y-96363750D01*
G75*
G02*
X107128750Y-96145000I218750J0D01*
G01*
X107566250Y-96145000D01*
G75*
G02*
X107785000Y-96363750I0J-218750D01*
G01*
X107785000Y-96876250D01*
G75*
G02*
X107566250Y-97095000I-218750J0D01*
G01*
X107128750Y-97095000D01*
G75*
G02*
X106910000Y-96876250I0J218750D01*
G01*
G37*
G36*
G01*
X105335000Y-96876250D02*
X105335000Y-96363750D01*
G75*
G02*
X105553750Y-96145000I218750J0D01*
G01*
X105991250Y-96145000D01*
G75*
G02*
X106210000Y-96363750I0J-218750D01*
G01*
X106210000Y-96876250D01*
G75*
G02*
X105991250Y-97095000I-218750J0D01*
G01*
X105553750Y-97095000D01*
G75*
G02*
X105335000Y-96876250I0J218750D01*
G01*
G37*
G04 #@! TD*
G04 #@! TO.C,J1*
G36*
G01*
X84100000Y-117340000D02*
X80500000Y-117340000D01*
G75*
G02*
X80150000Y-116990000I0J350000D01*
G01*
X80150000Y-116290000D01*
G75*
G02*
X80500000Y-115940000I350000J0D01*
G01*
X84100000Y-115940000D01*
G75*
G02*
X84450000Y-116290000I0J-350000D01*
G01*
X84450000Y-116990000D01*
G75*
G02*
X84100000Y-117340000I-350000J0D01*
G01*
G37*
G04 #@! TD*
G04 #@! TO.C,R1*
G36*
G01*
X86625000Y-121163750D02*
X86625000Y-121676250D01*
G75*
G02*
X86406250Y-121895000I-218750J0D01*
G01*
X85968750Y-121895000D01*
G75*
G02*
X85750000Y-121676250I0J218750D01*
G01*
X85750000Y-121163750D01*
G75*
G02*
X85968750Y-120945000I218750J0D01*
G01*
X86406250Y-120945000D01*
G75*
G02*
X86625000Y-121163750I0J-218750D01*
G01*
G37*
G36*
G01*
X85050000Y-121163750D02*
X85050000Y-121676250D01*
G75*
G02*
X84831250Y-121895000I-218750J0D01*
G01*
X84393750Y-121895000D01*
G75*
G02*
X84175000Y-121676250I0J218750D01*
G01*
X84175000Y-121163750D01*
G75*
G02*
X84393750Y-120945000I218750J0D01*
G01*
X84831250Y-120945000D01*
G75*
G02*
X85050000Y-121163750I0J-218750D01*
G01*
G37*
G04 #@! TD*
G04 #@! TO.C,J1*
G36*
G01*
X84100000Y-112260000D02*
X80500000Y-112260000D01*
G75*
G02*
X80150000Y-111910000I0J350000D01*
G01*
X80150000Y-111210000D01*
G75*
G02*
X80500000Y-110860000I350000J0D01*
G01*
X84100000Y-110860000D01*
G75*
G02*
X84450000Y-111210000I0J-350000D01*
G01*
X84450000Y-111910000D01*
G75*
G02*
X84100000Y-112260000I-350000J0D01*
G01*
G37*
G04 #@! TD*
G04 #@! TO.C,C1*
G36*
G01*
X85050000Y-116683750D02*
X85050000Y-117196250D01*
G75*
G02*
X84831250Y-117415000I-218750J0D01*
G01*
X84393750Y-117415000D01*
G75*
G02*
X84175000Y-117196250I0J218750D01*
G01*
X84175000Y-116683750D01*
G75*
G02*
X84393750Y-116465000I218750J0D01*
G01*
X84831250Y-116465000D01*
G75*
G02*
X85050000Y-116683750I0J-218750D01*
G01*
G37*
G36*
G01*
X86625000Y-116683750D02*
X86625000Y-117196250D01*
G75*
G02*
X86406250Y-117415000I-218750J0D01*
G01*
X85968750Y-117415000D01*
G75*
G02*
X85750000Y-117196250I0J218750D01*
G01*
X85750000Y-116683750D01*
G75*
G02*
X85968750Y-116465000I218750J0D01*
G01*
X86406250Y-116465000D01*
G75*
G02*
X86625000Y-116683750I0J-218750D01*
G01*
G37*
G04 #@! TD*
G04 #@! TO.C,J1*
G36*
G01*
X84100000Y-122420000D02*
X80500000Y-122420000D01*
G75*
G02*
X80150000Y-122070000I0J350000D01*
G01*
X80150000Y-121370000D01*
G75*
G02*
X80500000Y-121020000I350000J0D01*
G01*
X84100000Y-121020000D01*
G75*
G02*
X84450000Y-121370000I0J-350000D01*
G01*
X84450000Y-122070000D01*
G75*
G02*
X84100000Y-122420000I-350000J0D01*
G01*
G37*
G04 #@! TD*
G04 #@! TO.C,C1*
G36*
G01*
X86625000Y-111603750D02*
X86625000Y-112116250D01*
G75*
G02*
X86406250Y-112335000I-218750J0D01*
G01*
X85968750Y-112335000D01*
G75*
G02*
X85750000Y-112116250I0J218750D01*
G01*
X85750000Y-111603750D01*
G75*
G02*
X85968750Y-111385000I218750J0D01*
G01*
X86406250Y-111385000D01*
G75*
G02*
X86625000Y-111603750I0J-218750D01*
G01*
G37*
G36*
G01*
X85050000Y-111603750D02*
X85050000Y-112116250D01*
G75*
G02*
X84831250Y-112335000I-218750J0D01*
G01*
X84393750Y-112335000D01*
G75*
G02*
X84175000Y-112116250I0J218750D01*
G01*
X84175000Y-111603750D01*
G75*
G02*
X84393750Y-111385000I218750J0D01*
G01*
X84831250Y-111385000D01*
G75*
G02*
X85050000Y-111603750I0J-218750D01*
G01*
G37*
G04 #@! TD*
G04 #@! TO.C,C1*
G36*
G01*
X86625000Y-121763750D02*
X86625000Y-122276250D01*
G75*
G02*
X86406250Y-122495000I-218750J0D01*
G01*
X85968750Y-122495000D01*
G75*
G02*
X85750000Y-122276250I0J218750D01*
G01*
X85750000Y-121763750D01*
G75*
G02*
X85968750Y-121545000I218750J0D01*
G01*
X86406250Y-121545000D01*
G75*
G02*
X86625000Y-121763750I0J-218750D01*
G01*
G37*
G36*
G01*
X85050000Y-121763750D02*
X85050000Y-122276250D01*
G75*
G02*
X84831250Y-122495000I-218750J0D01*
G01*
X84393750Y-122495000D01*
G75*
G02*
X84175000Y-122276250I0J218750D01*
G01*
X84175000Y-121763750D01*
G75*
G02*
X84393750Y-121545000I218750J0D01*
G01*
X84831250Y-121545000D01*
G75*
G02*
X85050000Y-121763750I0J-218750D01*
G01*
G37*
G04 #@! TD*
G04 #@! TO.C,R1*
G36*
G01*
X86625000Y-111003750D02*
X86625000Y-111516250D01*
G75*
G02*
X86406250Y-111735000I-218750J0D01*
G01*
X85968750Y-111735000D01*
G75*
G02*
X85750000Y-111516250I0J218750D01*
G01*
X85750000Y-111003750D01*
G75*
G02*
X85968750Y-110785000I218750J0D01*
G01*
X86406250Y-110785000D01*
G75*
G02*
X86625000Y-111003750I0J-218750D01*
G01*
G37*
G36*
G01*
X85050000Y-111003750D02*
X85050000Y-111516250D01*
G75*
G02*
X84831250Y-111735000I-218750J0D01*
G01*
X84393750Y-111735000D01*
G75*
G02*
X84175000Y-111516250I0J218750D01*
G01*
X84175000Y-111003750D01*
G75*
G02*
X84393750Y-110785000I218750J0D01*
G01*
X84831250Y-110785000D01*
G75*
G02*
X85050000Y-111003750I0J-218750D01*
G01*
G37*
G04 #@! TD*
G04 #@! TO.C,R1*
G36*
G01*
X85050000Y-116083750D02*
X85050000Y-116596250D01*
G75*
G02*
X84831250Y-116815000I-218750J0D01*
G01*
X84393750Y-116815000D01*
G75*
G02*
X84175000Y-116596250I0J218750D01*
G01*
X84175000Y-116083750D01*
G75*
G02*
X84393750Y-115865000I218750J0D01*
G01*
X84831250Y-115865000D01*
G75*
G02*
X85050000Y-116083750I0J-218750D01*
G01*
G37*
G36*
G01*
X86625000Y-116083750D02*
X86625000Y-116596250D01*
G75*
G02*
X86406250Y-116815000I-218750J0D01*
G01*
X85968750Y-116815000D01*
G75*
G02*
X85750000Y-116596250I0J218750D01*
G01*
X85750000Y-116083750D01*
G75*
G02*
X85968750Y-115865000I218750J0D01*
G01*
X86406250Y-115865000D01*
G75*
G02*
X86625000Y-116083750I0J-218750D01*
G01*
G37*
G04 #@! TD*
G04 #@! TO.C,R1*
G36*
G01*
X86625000Y-100843750D02*
X86625000Y-101356250D01*
G75*
G02*
X86406250Y-101575000I-218750J0D01*
G01*
X85968750Y-101575000D01*
G75*
G02*
X85750000Y-101356250I0J218750D01*
G01*
X85750000Y-100843750D01*
G75*
G02*
X85968750Y-100625000I218750J0D01*
G01*
X86406250Y-100625000D01*
G75*
G02*
X86625000Y-100843750I0J-218750D01*
G01*
G37*
G36*
G01*
X85050000Y-100843750D02*
X85050000Y-101356250D01*
G75*
G02*
X84831250Y-101575000I-218750J0D01*
G01*
X84393750Y-101575000D01*
G75*
G02*
X84175000Y-101356250I0J218750D01*
G01*
X84175000Y-100843750D01*
G75*
G02*
X84393750Y-100625000I218750J0D01*
G01*
X84831250Y-100625000D01*
G75*
G02*
X85050000Y-100843750I0J-218750D01*
G01*
G37*
G04 #@! TD*
G04 #@! TO.C,R1*
G36*
G01*
X85050000Y-95763750D02*
X85050000Y-96276250D01*
G75*
G02*
X84831250Y-96495000I-218750J0D01*
G01*
X84393750Y-96495000D01*
G75*
G02*
X84175000Y-96276250I0J218750D01*
G01*
X84175000Y-95763750D01*
G75*
G02*
X84393750Y-95545000I218750J0D01*
G01*
X84831250Y-95545000D01*
G75*
G02*
X85050000Y-95763750I0J-218750D01*
G01*
G37*
G36*
G01*
X86625000Y-95763750D02*
X86625000Y-96276250D01*
G75*
G02*
X86406250Y-96495000I-218750J0D01*
G01*
X85968750Y-96495000D01*
G75*
G02*
X85750000Y-96276250I0J218750D01*
G01*
X85750000Y-95763750D01*
G75*
G02*
X85968750Y-95545000I218750J0D01*
G01*
X86406250Y-95545000D01*
G75*
G02*
X86625000Y-95763750I0J-218750D01*
G01*
G37*
G04 #@! TD*
G04 #@! TO.C,J1*
G36*
G01*
X84100000Y-97020000D02*
X80500000Y-97020000D01*
G75*
G02*
X80150000Y-96670000I0J350000D01*
G01*
X80150000Y-95970000D01*
G75*
G02*
X80500000Y-95620000I350000J0D01*
G01*
X84100000Y-95620000D01*
G75*
G02*
X84450000Y-95970000I0J-350000D01*
G01*
X84450000Y-96670000D01*
G75*
G02*
X84100000Y-97020000I-350000J0D01*
G01*
G37*
G04 #@! TD*
G04 #@! TO.C,C1*
G36*
G01*
X86625000Y-101443750D02*
X86625000Y-101956250D01*
G75*
G02*
X86406250Y-102175000I-218750J0D01*
G01*
X85968750Y-102175000D01*
G75*
G02*
X85750000Y-101956250I0J218750D01*
G01*
X85750000Y-101443750D01*
G75*
G02*
X85968750Y-101225000I218750J0D01*
G01*
X86406250Y-101225000D01*
G75*
G02*
X86625000Y-101443750I0J-218750D01*
G01*
G37*
G36*
G01*
X85050000Y-101443750D02*
X85050000Y-101956250D01*
G75*
G02*
X84831250Y-102175000I-218750J0D01*
G01*
X84393750Y-102175000D01*
G75*
G02*
X84175000Y-101956250I0J218750D01*
G01*
X84175000Y-101443750D01*
G75*
G02*
X84393750Y-101225000I218750J0D01*
G01*
X84831250Y-101225000D01*
G75*
G02*
X85050000Y-101443750I0J-218750D01*
G01*
G37*
G04 #@! TD*
G04 #@! TO.C,R1*
G36*
G01*
X85050000Y-105923750D02*
X85050000Y-106436250D01*
G75*
G02*
X84831250Y-106655000I-218750J0D01*
G01*
X84393750Y-106655000D01*
G75*
G02*
X84175000Y-106436250I0J218750D01*
G01*
X84175000Y-105923750D01*
G75*
G02*
X84393750Y-105705000I218750J0D01*
G01*
X84831250Y-105705000D01*
G75*
G02*
X85050000Y-105923750I0J-218750D01*
G01*
G37*
G36*
G01*
X86625000Y-105923750D02*
X86625000Y-106436250D01*
G75*
G02*
X86406250Y-106655000I-218750J0D01*
G01*
X85968750Y-106655000D01*
G75*
G02*
X85750000Y-106436250I0J218750D01*
G01*
X85750000Y-105923750D01*
G75*
G02*
X85968750Y-105705000I218750J0D01*
G01*
X86406250Y-105705000D01*
G75*
G02*
X86625000Y-105923750I0J-218750D01*
G01*
G37*
G04 #@! TD*
G04 #@! TO.C,J1*
G36*
G01*
X84100000Y-102100000D02*
X80500000Y-102100000D01*
G75*
G02*
X80150000Y-101750000I0J350000D01*
G01*
X80150000Y-101050000D01*
G75*
G02*
X80500000Y-100700000I350000J0D01*
G01*
X84100000Y-100700000D01*
G75*
G02*
X84450000Y-101050000I0J-350000D01*
G01*
X84450000Y-101750000D01*
G75*
G02*
X84100000Y-102100000I-350000J0D01*
G01*
G37*
G04 #@! TD*
G04 #@! TO.C,C1*
G36*
G01*
X85050000Y-96363750D02*
X85050000Y-96876250D01*
G75*
G02*
X84831250Y-97095000I-218750J0D01*
G01*
X84393750Y-97095000D01*
G75*
G02*
X84175000Y-96876250I0J218750D01*
G01*
X84175000Y-96363750D01*
G75*
G02*
X84393750Y-96145000I218750J0D01*
G01*
X84831250Y-96145000D01*
G75*
G02*
X85050000Y-96363750I0J-218750D01*
G01*
G37*
G36*
G01*
X86625000Y-96363750D02*
X86625000Y-96876250D01*
G75*
G02*
X86406250Y-97095000I-218750J0D01*
G01*
X85968750Y-97095000D01*
G75*
G02*
X85750000Y-96876250I0J218750D01*
G01*
X85750000Y-96363750D01*
G75*
G02*
X85968750Y-96145000I218750J0D01*
G01*
X86406250Y-96145000D01*
G75*
G02*
X86625000Y-96363750I0J-218750D01*
G01*
G37*
G04 #@! TD*
G04 #@! TO.C,J1*
G36*
G01*
X84100000Y-107180000D02*
X80500000Y-107180000D01*
G75*
G02*
X80150000Y-106830000I0J350000D01*
G01*
X80150000Y-106130000D01*
G75*
G02*
X80500000Y-105780000I350000J0D01*
G01*
X84100000Y-105780000D01*
G75*
G02*
X84450000Y-106130000I0J-350000D01*
G01*
X84450000Y-106830000D01*
G75*
G02*
X84100000Y-107180000I-350000J0D01*
G01*
G37*
G04 #@! TD*
G04 #@! TO.C,C1*
G36*
G01*
X85050000Y-106523750D02*
X85050000Y-107036250D01*
G75*
G02*
X84831250Y-107255000I-218750J0D01*
G01*
X84393750Y-107255000D01*
G75*
G02*
X84175000Y-107036250I0J218750D01*
G01*
X84175000Y-106523750D01*
G75*
G02*
X84393750Y-106305000I218750J0D01*
G01*
X84831250Y-106305000D01*
G75*
G02*
X85050000Y-106523750I0J-218750D01*
G01*
G37*
G36*
G01*
X86625000Y-106523750D02*
X86625000Y-107036250D01*
G75*
G02*
X86406250Y-107255000I-218750J0D01*
G01*
X85968750Y-107255000D01*
G75*
G02*
X85750000Y-107036250I0J218750D01*
G01*
X85750000Y-106523750D01*
G75*
G02*
X85968750Y-106305000I218750J0D01*
G01*
X86406250Y-106305000D01*
G75*
G02*
X86625000Y-106523750I0J-218750D01*
G01*
G37*
G04 #@! TD*
G04 #@! TO.C,R1*
G36*
G01*
X86625000Y-90683750D02*
X86625000Y-91196250D01*
G75*
G02*
X86406250Y-91415000I-218750J0D01*
G01*
X85968750Y-91415000D01*
G75*
G02*
X85750000Y-91196250I0J218750D01*
G01*
X85750000Y-90683750D01*
G75*
G02*
X85968750Y-90465000I218750J0D01*
G01*
X86406250Y-90465000D01*
G75*
G02*
X86625000Y-90683750I0J-218750D01*
G01*
G37*
G36*
G01*
X85050000Y-90683750D02*
X85050000Y-91196250D01*
G75*
G02*
X84831250Y-91415000I-218750J0D01*
G01*
X84393750Y-91415000D01*
G75*
G02*
X84175000Y-91196250I0J218750D01*
G01*
X84175000Y-90683750D01*
G75*
G02*
X84393750Y-90465000I218750J0D01*
G01*
X84831250Y-90465000D01*
G75*
G02*
X85050000Y-90683750I0J-218750D01*
G01*
G37*
G04 #@! TD*
G04 #@! TO.C,C1*
G36*
G01*
X86625000Y-91283750D02*
X86625000Y-91796250D01*
G75*
G02*
X86406250Y-92015000I-218750J0D01*
G01*
X85968750Y-92015000D01*
G75*
G02*
X85750000Y-91796250I0J218750D01*
G01*
X85750000Y-91283750D01*
G75*
G02*
X85968750Y-91065000I218750J0D01*
G01*
X86406250Y-91065000D01*
G75*
G02*
X86625000Y-91283750I0J-218750D01*
G01*
G37*
G36*
G01*
X85050000Y-91283750D02*
X85050000Y-91796250D01*
G75*
G02*
X84831250Y-92015000I-218750J0D01*
G01*
X84393750Y-92015000D01*
G75*
G02*
X84175000Y-91796250I0J218750D01*
G01*
X84175000Y-91283750D01*
G75*
G02*
X84393750Y-91065000I218750J0D01*
G01*
X84831250Y-91065000D01*
G75*
G02*
X85050000Y-91283750I0J-218750D01*
G01*
G37*
G04 #@! TD*
G04 #@! TO.C,J1*
G36*
G01*
X84100000Y-91940000D02*
X80500000Y-91940000D01*
G75*
G02*
X80150000Y-91590000I0J350000D01*
G01*
X80150000Y-90890000D01*
G75*
G02*
X80500000Y-90540000I350000J0D01*
G01*
X84100000Y-90540000D01*
G75*
G02*
X84450000Y-90890000I0J-350000D01*
G01*
X84450000Y-91590000D01*
G75*
G02*
X84100000Y-91940000I-350000J0D01*
G01*
G37*
G04 #@! TD*
G04 #@! TO.C,R1*
G36*
G01*
X85050000Y-85603750D02*
X85050000Y-86116250D01*
G75*
G02*
X84831250Y-86335000I-218750J0D01*
G01*
X84393750Y-86335000D01*
G75*
G02*
X84175000Y-86116250I0J218750D01*
G01*
X84175000Y-85603750D01*
G75*
G02*
X84393750Y-85385000I218750J0D01*
G01*
X84831250Y-85385000D01*
G75*
G02*
X85050000Y-85603750I0J-218750D01*
G01*
G37*
G36*
G01*
X86625000Y-85603750D02*
X86625000Y-86116250D01*
G75*
G02*
X86406250Y-86335000I-218750J0D01*
G01*
X85968750Y-86335000D01*
G75*
G02*
X85750000Y-86116250I0J218750D01*
G01*
X85750000Y-85603750D01*
G75*
G02*
X85968750Y-85385000I218750J0D01*
G01*
X86406250Y-85385000D01*
G75*
G02*
X86625000Y-85603750I0J-218750D01*
G01*
G37*
G04 #@! TD*
G04 #@! TO.C,J1*
G36*
G01*
X84100000Y-86860000D02*
X80500000Y-86860000D01*
G75*
G02*
X80150000Y-86510000I0J350000D01*
G01*
X80150000Y-85810000D01*
G75*
G02*
X80500000Y-85460000I350000J0D01*
G01*
X84100000Y-85460000D01*
G75*
G02*
X84450000Y-85810000I0J-350000D01*
G01*
X84450000Y-86510000D01*
G75*
G02*
X84100000Y-86860000I-350000J0D01*
G01*
G37*
G04 #@! TD*
G04 #@! TO.C,C1*
G36*
G01*
X85050000Y-86203750D02*
X85050000Y-86716250D01*
G75*
G02*
X84831250Y-86935000I-218750J0D01*
G01*
X84393750Y-86935000D01*
G75*
G02*
X84175000Y-86716250I0J218750D01*
G01*
X84175000Y-86203750D01*
G75*
G02*
X84393750Y-85985000I218750J0D01*
G01*
X84831250Y-85985000D01*
G75*
G02*
X85050000Y-86203750I0J-218750D01*
G01*
G37*
G36*
G01*
X86625000Y-86203750D02*
X86625000Y-86716250D01*
G75*
G02*
X86406250Y-86935000I-218750J0D01*
G01*
X85968750Y-86935000D01*
G75*
G02*
X85750000Y-86716250I0J218750D01*
G01*
X85750000Y-86203750D01*
G75*
G02*
X85968750Y-85985000I218750J0D01*
G01*
X86406250Y-85985000D01*
G75*
G02*
X86625000Y-86203750I0J-218750D01*
G01*
G37*
G04 #@! TD*
G04 #@! TO.C,J1*
G36*
G01*
X84100000Y-81780000D02*
X80500000Y-81780000D01*
G75*
G02*
X80150000Y-81430000I0J350000D01*
G01*
X80150000Y-80730000D01*
G75*
G02*
X80500000Y-80380000I350000J0D01*
G01*
X84100000Y-80380000D01*
G75*
G02*
X84450000Y-80730000I0J-350000D01*
G01*
X84450000Y-81430000D01*
G75*
G02*
X84100000Y-81780000I-350000J0D01*
G01*
G37*
G04 #@! TD*
G04 #@! TO.C,R1*
G36*
G01*
X86625000Y-80523750D02*
X86625000Y-81036250D01*
G75*
G02*
X86406250Y-81255000I-218750J0D01*
G01*
X85968750Y-81255000D01*
G75*
G02*
X85750000Y-81036250I0J218750D01*
G01*
X85750000Y-80523750D01*
G75*
G02*
X85968750Y-80305000I218750J0D01*
G01*
X86406250Y-80305000D01*
G75*
G02*
X86625000Y-80523750I0J-218750D01*
G01*
G37*
G36*
G01*
X85050000Y-80523750D02*
X85050000Y-81036250D01*
G75*
G02*
X84831250Y-81255000I-218750J0D01*
G01*
X84393750Y-81255000D01*
G75*
G02*
X84175000Y-81036250I0J218750D01*
G01*
X84175000Y-80523750D01*
G75*
G02*
X84393750Y-80305000I218750J0D01*
G01*
X84831250Y-80305000D01*
G75*
G02*
X85050000Y-80523750I0J-218750D01*
G01*
G37*
G04 #@! TD*
G04 #@! TO.C,C1*
G36*
G01*
X86625000Y-81123750D02*
X86625000Y-81636250D01*
G75*
G02*
X86406250Y-81855000I-218750J0D01*
G01*
X85968750Y-81855000D01*
G75*
G02*
X85750000Y-81636250I0J218750D01*
G01*
X85750000Y-81123750D01*
G75*
G02*
X85968750Y-80905000I218750J0D01*
G01*
X86406250Y-80905000D01*
G75*
G02*
X86625000Y-81123750I0J-218750D01*
G01*
G37*
G36*
G01*
X85050000Y-81123750D02*
X85050000Y-81636250D01*
G75*
G02*
X84831250Y-81855000I-218750J0D01*
G01*
X84393750Y-81855000D01*
G75*
G02*
X84175000Y-81636250I0J218750D01*
G01*
X84175000Y-81123750D01*
G75*
G02*
X84393750Y-80905000I218750J0D01*
G01*
X84831250Y-80905000D01*
G75*
G02*
X85050000Y-81123750I0J-218750D01*
G01*
G37*
G04 #@! TD*
G04 #@! TO.C,J1*
G36*
G01*
X84100000Y-76700000D02*
X80500000Y-76700000D01*
G75*
G02*
X80150000Y-76350000I0J350000D01*
G01*
X80150000Y-75650000D01*
G75*
G02*
X80500000Y-75300000I350000J0D01*
G01*
X84100000Y-75300000D01*
G75*
G02*
X84450000Y-75650000I0J-350000D01*
G01*
X84450000Y-76350000D01*
G75*
G02*
X84100000Y-76700000I-350000J0D01*
G01*
G37*
G04 #@! TD*
G04 #@! TO.C,R1*
G36*
G01*
X85050000Y-75443750D02*
X85050000Y-75956250D01*
G75*
G02*
X84831250Y-76175000I-218750J0D01*
G01*
X84393750Y-76175000D01*
G75*
G02*
X84175000Y-75956250I0J218750D01*
G01*
X84175000Y-75443750D01*
G75*
G02*
X84393750Y-75225000I218750J0D01*
G01*
X84831250Y-75225000D01*
G75*
G02*
X85050000Y-75443750I0J-218750D01*
G01*
G37*
G36*
G01*
X86625000Y-75443750D02*
X86625000Y-75956250D01*
G75*
G02*
X86406250Y-76175000I-218750J0D01*
G01*
X85968750Y-76175000D01*
G75*
G02*
X85750000Y-75956250I0J218750D01*
G01*
X85750000Y-75443750D01*
G75*
G02*
X85968750Y-75225000I218750J0D01*
G01*
X86406250Y-75225000D01*
G75*
G02*
X86625000Y-75443750I0J-218750D01*
G01*
G37*
G04 #@! TD*
G04 #@! TO.C,C1*
G36*
G01*
X85050000Y-76043750D02*
X85050000Y-76556250D01*
G75*
G02*
X84831250Y-76775000I-218750J0D01*
G01*
X84393750Y-76775000D01*
G75*
G02*
X84175000Y-76556250I0J218750D01*
G01*
X84175000Y-76043750D01*
G75*
G02*
X84393750Y-75825000I218750J0D01*
G01*
X84831250Y-75825000D01*
G75*
G02*
X85050000Y-76043750I0J-218750D01*
G01*
G37*
G36*
G01*
X86625000Y-76043750D02*
X86625000Y-76556250D01*
G75*
G02*
X86406250Y-76775000I-218750J0D01*
G01*
X85968750Y-76775000D01*
G75*
G02*
X85750000Y-76556250I0J218750D01*
G01*
X85750000Y-76043750D01*
G75*
G02*
X85968750Y-75825000I218750J0D01*
G01*
X86406250Y-75825000D01*
G75*
G02*
X86625000Y-76043750I0J-218750D01*
G01*
G37*
G04 #@! TD*
M02*
