G04 #@! TF.GenerationSoftware,KiCad,Pcbnew,5.1.9-73d0e3b20d~88~ubuntu20.04.1*
G04 #@! TF.CreationDate,2021-06-04T14:41:46+03:00*
G04 #@! TF.ProjectId,cable_to_square_pin,6361626c-655f-4746-9f5f-737175617265,rev?*
G04 #@! TF.SameCoordinates,Original*
G04 #@! TF.FileFunction,Soldermask,Bot*
G04 #@! TF.FilePolarity,Negative*
%FSLAX46Y46*%
G04 Gerber Fmt 4.6, Leading zero omitted, Abs format (unit mm)*
G04 Created by KiCad (PCBNEW 5.1.9-73d0e3b20d~88~ubuntu20.04.1) date 2021-06-04 14:41:46*
%MOMM*%
%LPD*%
G01*
G04 APERTURE LIST*
%ADD10C,0.010000*%
G04 APERTURE END LIST*
D10*
G04 #@! TO.C,E1*
G36*
X106810000Y-76500000D02*
G01*
X106810000Y-75500000D01*
X106260000Y-75500000D01*
X106260000Y-76500000D01*
X106810000Y-76500000D01*
G37*
X106810000Y-76500000D02*
X106810000Y-75500000D01*
X106260000Y-75500000D01*
X106260000Y-76500000D01*
X106810000Y-76500000D01*
G36*
X106810000Y-101900000D02*
G01*
X106810000Y-100900000D01*
X106260000Y-100900000D01*
X106260000Y-101900000D01*
X106810000Y-101900000D01*
G37*
X106810000Y-101900000D02*
X106810000Y-100900000D01*
X106260000Y-100900000D01*
X106260000Y-101900000D01*
X106810000Y-101900000D01*
G36*
X106810000Y-86660000D02*
G01*
X106810000Y-85660000D01*
X106260000Y-85660000D01*
X106260000Y-86660000D01*
X106810000Y-86660000D01*
G37*
X106810000Y-86660000D02*
X106810000Y-85660000D01*
X106260000Y-85660000D01*
X106260000Y-86660000D01*
X106810000Y-86660000D01*
G36*
X106810000Y-81580000D02*
G01*
X106810000Y-80580000D01*
X106260000Y-80580000D01*
X106260000Y-81580000D01*
X106810000Y-81580000D01*
G37*
X106810000Y-81580000D02*
X106810000Y-80580000D01*
X106260000Y-80580000D01*
X106260000Y-81580000D01*
X106810000Y-81580000D01*
G36*
X106810000Y-122220000D02*
G01*
X106810000Y-121220000D01*
X106260000Y-121220000D01*
X106260000Y-122220000D01*
X106810000Y-122220000D01*
G37*
X106810000Y-122220000D02*
X106810000Y-121220000D01*
X106260000Y-121220000D01*
X106260000Y-122220000D01*
X106810000Y-122220000D01*
G36*
X106810000Y-112060000D02*
G01*
X106810000Y-111060000D01*
X106260000Y-111060000D01*
X106260000Y-112060000D01*
X106810000Y-112060000D01*
G37*
X106810000Y-112060000D02*
X106810000Y-111060000D01*
X106260000Y-111060000D01*
X106260000Y-112060000D01*
X106810000Y-112060000D01*
G36*
X106810000Y-96820000D02*
G01*
X106810000Y-95820000D01*
X106260000Y-95820000D01*
X106260000Y-96820000D01*
X106810000Y-96820000D01*
G37*
X106810000Y-96820000D02*
X106810000Y-95820000D01*
X106260000Y-95820000D01*
X106260000Y-96820000D01*
X106810000Y-96820000D01*
G36*
X106810000Y-91740000D02*
G01*
X106810000Y-90740000D01*
X106260000Y-90740000D01*
X106260000Y-91740000D01*
X106810000Y-91740000D01*
G37*
X106810000Y-91740000D02*
X106810000Y-90740000D01*
X106260000Y-90740000D01*
X106260000Y-91740000D01*
X106810000Y-91740000D01*
G36*
X106810000Y-106980000D02*
G01*
X106810000Y-105980000D01*
X106260000Y-105980000D01*
X106260000Y-106980000D01*
X106810000Y-106980000D01*
G37*
X106810000Y-106980000D02*
X106810000Y-105980000D01*
X106260000Y-105980000D01*
X106260000Y-106980000D01*
X106810000Y-106980000D01*
G36*
X106810000Y-117140000D02*
G01*
X106810000Y-116140000D01*
X106260000Y-116140000D01*
X106260000Y-117140000D01*
X106810000Y-117140000D01*
G37*
X106810000Y-117140000D02*
X106810000Y-116140000D01*
X106260000Y-116140000D01*
X106260000Y-117140000D01*
X106810000Y-117140000D01*
G36*
X85150000Y-111060000D02*
G01*
X85150000Y-112060000D01*
X85700000Y-112060000D01*
X85700000Y-111060000D01*
X85150000Y-111060000D01*
G37*
X85150000Y-111060000D02*
X85150000Y-112060000D01*
X85700000Y-112060000D01*
X85700000Y-111060000D01*
X85150000Y-111060000D01*
G36*
X85150000Y-116140000D02*
G01*
X85150000Y-117140000D01*
X85700000Y-117140000D01*
X85700000Y-116140000D01*
X85150000Y-116140000D01*
G37*
X85150000Y-116140000D02*
X85150000Y-117140000D01*
X85700000Y-117140000D01*
X85700000Y-116140000D01*
X85150000Y-116140000D01*
G36*
X85150000Y-121220000D02*
G01*
X85150000Y-122220000D01*
X85700000Y-122220000D01*
X85700000Y-121220000D01*
X85150000Y-121220000D01*
G37*
X85150000Y-121220000D02*
X85150000Y-122220000D01*
X85700000Y-122220000D01*
X85700000Y-121220000D01*
X85150000Y-121220000D01*
G36*
X85150000Y-100900000D02*
G01*
X85150000Y-101900000D01*
X85700000Y-101900000D01*
X85700000Y-100900000D01*
X85150000Y-100900000D01*
G37*
X85150000Y-100900000D02*
X85150000Y-101900000D01*
X85700000Y-101900000D01*
X85700000Y-100900000D01*
X85150000Y-100900000D01*
G36*
X85150000Y-105980000D02*
G01*
X85150000Y-106980000D01*
X85700000Y-106980000D01*
X85700000Y-105980000D01*
X85150000Y-105980000D01*
G37*
X85150000Y-105980000D02*
X85150000Y-106980000D01*
X85700000Y-106980000D01*
X85700000Y-105980000D01*
X85150000Y-105980000D01*
G36*
X85150000Y-95820000D02*
G01*
X85150000Y-96820000D01*
X85700000Y-96820000D01*
X85700000Y-95820000D01*
X85150000Y-95820000D01*
G37*
X85150000Y-95820000D02*
X85150000Y-96820000D01*
X85700000Y-96820000D01*
X85700000Y-95820000D01*
X85150000Y-95820000D01*
G36*
X85150000Y-90740000D02*
G01*
X85150000Y-91740000D01*
X85700000Y-91740000D01*
X85700000Y-90740000D01*
X85150000Y-90740000D01*
G37*
X85150000Y-90740000D02*
X85150000Y-91740000D01*
X85700000Y-91740000D01*
X85700000Y-90740000D01*
X85150000Y-90740000D01*
G36*
X85150000Y-85660000D02*
G01*
X85150000Y-86660000D01*
X85700000Y-86660000D01*
X85700000Y-85660000D01*
X85150000Y-85660000D01*
G37*
X85150000Y-85660000D02*
X85150000Y-86660000D01*
X85700000Y-86660000D01*
X85700000Y-85660000D01*
X85150000Y-85660000D01*
G36*
X85150000Y-80580000D02*
G01*
X85150000Y-81580000D01*
X85700000Y-81580000D01*
X85700000Y-80580000D01*
X85150000Y-80580000D01*
G37*
X85150000Y-80580000D02*
X85150000Y-81580000D01*
X85700000Y-81580000D01*
X85700000Y-80580000D01*
X85150000Y-80580000D01*
G36*
X85150000Y-75500000D02*
G01*
X85150000Y-76500000D01*
X85700000Y-76500000D01*
X85700000Y-75500000D01*
X85150000Y-75500000D01*
G37*
X85150000Y-75500000D02*
X85150000Y-76500000D01*
X85700000Y-76500000D01*
X85700000Y-75500000D01*
X85150000Y-75500000D01*
G04 #@! TD*
G04 #@! TO.C,J3*
G36*
G01*
X105360000Y-121345000D02*
X105360000Y-122095000D01*
G75*
G02*
X104985000Y-122470000I-375000J0D01*
G01*
X102735000Y-122470000D01*
G75*
G02*
X102360000Y-122095000I0J375000D01*
G01*
X102360000Y-121345000D01*
G75*
G02*
X102735000Y-120970000I375000J0D01*
G01*
X104985000Y-120970000D01*
G75*
G02*
X105360000Y-121345000I0J-375000D01*
G01*
G37*
G04 #@! TD*
G04 #@! TO.C,J3*
G36*
G01*
X105360000Y-101025000D02*
X105360000Y-101775000D01*
G75*
G02*
X104985000Y-102150000I-375000J0D01*
G01*
X102735000Y-102150000D01*
G75*
G02*
X102360000Y-101775000I0J375000D01*
G01*
X102360000Y-101025000D01*
G75*
G02*
X102735000Y-100650000I375000J0D01*
G01*
X104985000Y-100650000D01*
G75*
G02*
X105360000Y-101025000I0J-375000D01*
G01*
G37*
G04 #@! TD*
G04 #@! TO.C,J3*
G36*
G01*
X105360000Y-90865000D02*
X105360000Y-91615000D01*
G75*
G02*
X104985000Y-91990000I-375000J0D01*
G01*
X102735000Y-91990000D01*
G75*
G02*
X102360000Y-91615000I0J375000D01*
G01*
X102360000Y-90865000D01*
G75*
G02*
X102735000Y-90490000I375000J0D01*
G01*
X104985000Y-90490000D01*
G75*
G02*
X105360000Y-90865000I0J-375000D01*
G01*
G37*
G04 #@! TD*
G04 #@! TO.C,J3*
G36*
G01*
X105360000Y-111185000D02*
X105360000Y-111935000D01*
G75*
G02*
X104985000Y-112310000I-375000J0D01*
G01*
X102735000Y-112310000D01*
G75*
G02*
X102360000Y-111935000I0J375000D01*
G01*
X102360000Y-111185000D01*
G75*
G02*
X102735000Y-110810000I375000J0D01*
G01*
X104985000Y-110810000D01*
G75*
G02*
X105360000Y-111185000I0J-375000D01*
G01*
G37*
G04 #@! TD*
G04 #@! TO.C,J3*
G36*
G01*
X105360000Y-75625000D02*
X105360000Y-76375000D01*
G75*
G02*
X104985000Y-76750000I-375000J0D01*
G01*
X102735000Y-76750000D01*
G75*
G02*
X102360000Y-76375000I0J375000D01*
G01*
X102360000Y-75625000D01*
G75*
G02*
X102735000Y-75250000I375000J0D01*
G01*
X104985000Y-75250000D01*
G75*
G02*
X105360000Y-75625000I0J-375000D01*
G01*
G37*
G04 #@! TD*
G04 #@! TO.C,J3*
G36*
G01*
X105360000Y-85785000D02*
X105360000Y-86535000D01*
G75*
G02*
X104985000Y-86910000I-375000J0D01*
G01*
X102735000Y-86910000D01*
G75*
G02*
X102360000Y-86535000I0J375000D01*
G01*
X102360000Y-85785000D01*
G75*
G02*
X102735000Y-85410000I375000J0D01*
G01*
X104985000Y-85410000D01*
G75*
G02*
X105360000Y-85785000I0J-375000D01*
G01*
G37*
G04 #@! TD*
G04 #@! TO.C,J3*
G36*
G01*
X105360000Y-106105000D02*
X105360000Y-106855000D01*
G75*
G02*
X104985000Y-107230000I-375000J0D01*
G01*
X102735000Y-107230000D01*
G75*
G02*
X102360000Y-106855000I0J375000D01*
G01*
X102360000Y-106105000D01*
G75*
G02*
X102735000Y-105730000I375000J0D01*
G01*
X104985000Y-105730000D01*
G75*
G02*
X105360000Y-106105000I0J-375000D01*
G01*
G37*
G04 #@! TD*
G04 #@! TO.C,J3*
G36*
G01*
X105360000Y-116265000D02*
X105360000Y-117015000D01*
G75*
G02*
X104985000Y-117390000I-375000J0D01*
G01*
X102735000Y-117390000D01*
G75*
G02*
X102360000Y-117015000I0J375000D01*
G01*
X102360000Y-116265000D01*
G75*
G02*
X102735000Y-115890000I375000J0D01*
G01*
X104985000Y-115890000D01*
G75*
G02*
X105360000Y-116265000I0J-375000D01*
G01*
G37*
G04 #@! TD*
G04 #@! TO.C,J3*
G36*
G01*
X105360000Y-80705000D02*
X105360000Y-81455000D01*
G75*
G02*
X104985000Y-81830000I-375000J0D01*
G01*
X102735000Y-81830000D01*
G75*
G02*
X102360000Y-81455000I0J375000D01*
G01*
X102360000Y-80705000D01*
G75*
G02*
X102735000Y-80330000I375000J0D01*
G01*
X104985000Y-80330000D01*
G75*
G02*
X105360000Y-80705000I0J-375000D01*
G01*
G37*
G04 #@! TD*
G04 #@! TO.C,J3*
G36*
G01*
X105360000Y-95945000D02*
X105360000Y-96695000D01*
G75*
G02*
X104985000Y-97070000I-375000J0D01*
G01*
X102735000Y-97070000D01*
G75*
G02*
X102360000Y-96695000I0J375000D01*
G01*
X102360000Y-95945000D01*
G75*
G02*
X102735000Y-95570000I375000J0D01*
G01*
X104985000Y-95570000D01*
G75*
G02*
X105360000Y-95945000I0J-375000D01*
G01*
G37*
G04 #@! TD*
G04 #@! TO.C,J3*
G36*
G01*
X86600000Y-111935000D02*
X86600000Y-111185000D01*
G75*
G02*
X86975000Y-110810000I375000J0D01*
G01*
X89225000Y-110810000D01*
G75*
G02*
X89600000Y-111185000I0J-375000D01*
G01*
X89600000Y-111935000D01*
G75*
G02*
X89225000Y-112310000I-375000J0D01*
G01*
X86975000Y-112310000D01*
G75*
G02*
X86600000Y-111935000I0J375000D01*
G01*
G37*
G04 #@! TD*
G04 #@! TO.C,J3*
G36*
G01*
X86600000Y-122095000D02*
X86600000Y-121345000D01*
G75*
G02*
X86975000Y-120970000I375000J0D01*
G01*
X89225000Y-120970000D01*
G75*
G02*
X89600000Y-121345000I0J-375000D01*
G01*
X89600000Y-122095000D01*
G75*
G02*
X89225000Y-122470000I-375000J0D01*
G01*
X86975000Y-122470000D01*
G75*
G02*
X86600000Y-122095000I0J375000D01*
G01*
G37*
G04 #@! TD*
G04 #@! TO.C,J3*
G36*
G01*
X86600000Y-117015000D02*
X86600000Y-116265000D01*
G75*
G02*
X86975000Y-115890000I375000J0D01*
G01*
X89225000Y-115890000D01*
G75*
G02*
X89600000Y-116265000I0J-375000D01*
G01*
X89600000Y-117015000D01*
G75*
G02*
X89225000Y-117390000I-375000J0D01*
G01*
X86975000Y-117390000D01*
G75*
G02*
X86600000Y-117015000I0J375000D01*
G01*
G37*
G04 #@! TD*
G04 #@! TO.C,J3*
G36*
G01*
X86600000Y-101775000D02*
X86600000Y-101025000D01*
G75*
G02*
X86975000Y-100650000I375000J0D01*
G01*
X89225000Y-100650000D01*
G75*
G02*
X89600000Y-101025000I0J-375000D01*
G01*
X89600000Y-101775000D01*
G75*
G02*
X89225000Y-102150000I-375000J0D01*
G01*
X86975000Y-102150000D01*
G75*
G02*
X86600000Y-101775000I0J375000D01*
G01*
G37*
G04 #@! TD*
G04 #@! TO.C,J3*
G36*
G01*
X86600000Y-106855000D02*
X86600000Y-106105000D01*
G75*
G02*
X86975000Y-105730000I375000J0D01*
G01*
X89225000Y-105730000D01*
G75*
G02*
X89600000Y-106105000I0J-375000D01*
G01*
X89600000Y-106855000D01*
G75*
G02*
X89225000Y-107230000I-375000J0D01*
G01*
X86975000Y-107230000D01*
G75*
G02*
X86600000Y-106855000I0J375000D01*
G01*
G37*
G04 #@! TD*
G04 #@! TO.C,J3*
G36*
G01*
X86600000Y-96695000D02*
X86600000Y-95945000D01*
G75*
G02*
X86975000Y-95570000I375000J0D01*
G01*
X89225000Y-95570000D01*
G75*
G02*
X89600000Y-95945000I0J-375000D01*
G01*
X89600000Y-96695000D01*
G75*
G02*
X89225000Y-97070000I-375000J0D01*
G01*
X86975000Y-97070000D01*
G75*
G02*
X86600000Y-96695000I0J375000D01*
G01*
G37*
G04 #@! TD*
G04 #@! TO.C,J3*
G36*
G01*
X86600000Y-91615000D02*
X86600000Y-90865000D01*
G75*
G02*
X86975000Y-90490000I375000J0D01*
G01*
X89225000Y-90490000D01*
G75*
G02*
X89600000Y-90865000I0J-375000D01*
G01*
X89600000Y-91615000D01*
G75*
G02*
X89225000Y-91990000I-375000J0D01*
G01*
X86975000Y-91990000D01*
G75*
G02*
X86600000Y-91615000I0J375000D01*
G01*
G37*
G04 #@! TD*
G04 #@! TO.C,J3*
G36*
G01*
X86600000Y-86535000D02*
X86600000Y-85785000D01*
G75*
G02*
X86975000Y-85410000I375000J0D01*
G01*
X89225000Y-85410000D01*
G75*
G02*
X89600000Y-85785000I0J-375000D01*
G01*
X89600000Y-86535000D01*
G75*
G02*
X89225000Y-86910000I-375000J0D01*
G01*
X86975000Y-86910000D01*
G75*
G02*
X86600000Y-86535000I0J375000D01*
G01*
G37*
G04 #@! TD*
G04 #@! TO.C,J3*
G36*
G01*
X86600000Y-81455000D02*
X86600000Y-80705000D01*
G75*
G02*
X86975000Y-80330000I375000J0D01*
G01*
X89225000Y-80330000D01*
G75*
G02*
X89600000Y-80705000I0J-375000D01*
G01*
X89600000Y-81455000D01*
G75*
G02*
X89225000Y-81830000I-375000J0D01*
G01*
X86975000Y-81830000D01*
G75*
G02*
X86600000Y-81455000I0J375000D01*
G01*
G37*
G04 #@! TD*
G04 #@! TO.C,J3*
G36*
G01*
X86600000Y-76375000D02*
X86600000Y-75625000D01*
G75*
G02*
X86975000Y-75250000I375000J0D01*
G01*
X89225000Y-75250000D01*
G75*
G02*
X89600000Y-75625000I0J-375000D01*
G01*
X89600000Y-76375000D01*
G75*
G02*
X89225000Y-76750000I-375000J0D01*
G01*
X86975000Y-76750000D01*
G75*
G02*
X86600000Y-76375000I0J375000D01*
G01*
G37*
G04 #@! TD*
M02*
