G04 #@! TF.GenerationSoftware,KiCad,Pcbnew,5.1.9-73d0e3b20d~88~ubuntu20.04.1*
G04 #@! TF.CreationDate,2021-08-20T12:23:30+03:00*
G04 #@! TF.ProjectId,tweezer-tips,74776565-7a65-4722-9d74-6970732e6b69,rev?*
G04 #@! TF.SameCoordinates,Original*
G04 #@! TF.FileFunction,Copper,L1,Top*
G04 #@! TF.FilePolarity,Positive*
%FSLAX46Y46*%
G04 Gerber Fmt 4.6, Leading zero omitted, Abs format (unit mm)*
G04 Created by KiCad (PCBNEW 5.1.9-73d0e3b20d~88~ubuntu20.04.1) date 2021-08-20 12:23:30*
%MOMM*%
%LPD*%
G01*
G04 APERTURE LIST*
G04 #@! TA.AperFunction,SMDPad,CuDef*
%ADD10C,0.350000*%
G04 #@! TD*
G04 #@! TA.AperFunction,SMDPad,CuDef*
%ADD11R,2.000000X0.500000*%
G04 #@! TD*
G04 #@! TA.AperFunction,SMDPad,CuDef*
%ADD12C,1.000000*%
G04 #@! TD*
G04 #@! TA.AperFunction,ViaPad*
%ADD13C,0.800000*%
G04 #@! TD*
G04 #@! TA.AperFunction,Conductor*
%ADD14C,0.500000*%
G04 #@! TD*
G04 #@! TA.AperFunction,Conductor*
%ADD15C,0.200000*%
G04 #@! TD*
G04 #@! TA.AperFunction,Conductor*
%ADD16C,0.350000*%
G04 #@! TD*
G04 #@! TA.AperFunction,Conductor*
%ADD17C,0.150000*%
G04 #@! TD*
%ADD18C,0.350000*%
G04 APERTURE END LIST*
G04 #@! TA.AperFunction,SMDPad,CuDef*
D10*
G04 #@! TO.P,E2,2*
G04 #@! TO.N,GND*
G36*
X87550000Y-10897487D02*
G01*
X87302513Y-10650000D01*
X87550000Y-10402513D01*
X87797487Y-10650000D01*
X87550000Y-10897487D01*
G37*
G04 #@! TD.AperFunction*
G04 #@! TA.AperFunction,SMDPad,CuDef*
G36*
X88050000Y-10897487D02*
G01*
X87802513Y-10650000D01*
X88050000Y-10402513D01*
X88297487Y-10650000D01*
X88050000Y-10897487D01*
G37*
G04 #@! TD.AperFunction*
G04 #@! TA.AperFunction,SMDPad,CuDef*
G36*
G01*
X87050000Y-10950000D02*
X87050000Y-10550000D01*
G75*
G02*
X87100000Y-10500000I50000J0D01*
G01*
X89000000Y-10500000D01*
G75*
G02*
X89050000Y-10550000I0J-50000D01*
G01*
X89050000Y-10950000D01*
G75*
G02*
X89000000Y-11000000I-50000J0D01*
G01*
X87100000Y-11000000D01*
G75*
G02*
X87050000Y-10950000I0J50000D01*
G01*
G37*
G04 #@! TD.AperFunction*
G04 #@! TA.AperFunction,SMDPad,CuDef*
G36*
X88550000Y-10897487D02*
G01*
X88302513Y-10650000D01*
X88550000Y-10402513D01*
X88797487Y-10650000D01*
X88550000Y-10897487D01*
G37*
G04 #@! TD.AperFunction*
G04 #@! TA.AperFunction,SMDPad,CuDef*
G36*
X87550000Y-9597487D02*
G01*
X87302513Y-9350000D01*
X87550000Y-9102513D01*
X87797487Y-9350000D01*
X87550000Y-9597487D01*
G37*
G04 #@! TD.AperFunction*
G04 #@! TA.AperFunction,SMDPad,CuDef*
G36*
X88050000Y-9597487D02*
G01*
X87802513Y-9350000D01*
X88050000Y-9102513D01*
X88297487Y-9350000D01*
X88050000Y-9597487D01*
G37*
G04 #@! TD.AperFunction*
G04 #@! TA.AperFunction,SMDPad,CuDef*
G04 #@! TO.P,E2,1*
G04 #@! TO.N,/AMP*
G36*
X88300000Y-9646447D02*
G01*
X88653553Y-10000000D01*
X88300000Y-10353553D01*
X87946447Y-10000000D01*
X88300000Y-9646447D01*
G37*
G04 #@! TD.AperFunction*
G04 #@! TA.AperFunction,SMDPad,CuDef*
G36*
X87800000Y-9646447D02*
G01*
X88153553Y-10000000D01*
X87800000Y-10353553D01*
X87446447Y-10000000D01*
X87800000Y-9646447D01*
G37*
G04 #@! TD.AperFunction*
G04 #@! TO.P,E2,2*
G04 #@! TO.N,GND*
G04 #@! TA.AperFunction,SMDPad,CuDef*
G36*
G01*
X87050000Y-9450000D02*
X87050000Y-9050000D01*
G75*
G02*
X87100000Y-9000000I50000J0D01*
G01*
X89000000Y-9000000D01*
G75*
G02*
X89050000Y-9050000I0J-50000D01*
G01*
X89050000Y-9450000D01*
G75*
G02*
X89000000Y-9500000I-50000J0D01*
G01*
X87100000Y-9500000D01*
G75*
G02*
X87050000Y-9450000I0J50000D01*
G01*
G37*
G04 #@! TD.AperFunction*
G04 #@! TA.AperFunction,SMDPad,CuDef*
G36*
X88550000Y-9597487D02*
G01*
X88302513Y-9350000D01*
X88550000Y-9102513D01*
X88797487Y-9350000D01*
X88550000Y-9597487D01*
G37*
G04 #@! TD.AperFunction*
D11*
G04 #@! TO.P,E2,1*
G04 #@! TO.N,/AMP*
X88050000Y-10000000D03*
G04 #@! TD*
G04 #@! TA.AperFunction,SMDPad,CuDef*
D10*
G04 #@! TO.P,E1,2*
G04 #@! TO.N,GND*
G36*
X21200000Y-10897487D02*
G01*
X20952513Y-10650000D01*
X21200000Y-10402513D01*
X21447487Y-10650000D01*
X21200000Y-10897487D01*
G37*
G04 #@! TD.AperFunction*
G04 #@! TA.AperFunction,SMDPad,CuDef*
G36*
X21700000Y-10897487D02*
G01*
X21452513Y-10650000D01*
X21700000Y-10402513D01*
X21947487Y-10650000D01*
X21700000Y-10897487D01*
G37*
G04 #@! TD.AperFunction*
G04 #@! TA.AperFunction,SMDPad,CuDef*
G36*
G01*
X20700000Y-10950000D02*
X20700000Y-10550000D01*
G75*
G02*
X20750000Y-10500000I50000J0D01*
G01*
X22650000Y-10500000D01*
G75*
G02*
X22700000Y-10550000I0J-50000D01*
G01*
X22700000Y-10950000D01*
G75*
G02*
X22650000Y-11000000I-50000J0D01*
G01*
X20750000Y-11000000D01*
G75*
G02*
X20700000Y-10950000I0J50000D01*
G01*
G37*
G04 #@! TD.AperFunction*
G04 #@! TA.AperFunction,SMDPad,CuDef*
G36*
X22200000Y-10897487D02*
G01*
X21952513Y-10650000D01*
X22200000Y-10402513D01*
X22447487Y-10650000D01*
X22200000Y-10897487D01*
G37*
G04 #@! TD.AperFunction*
G04 #@! TA.AperFunction,SMDPad,CuDef*
G36*
X21200000Y-9597487D02*
G01*
X20952513Y-9350000D01*
X21200000Y-9102513D01*
X21447487Y-9350000D01*
X21200000Y-9597487D01*
G37*
G04 #@! TD.AperFunction*
G04 #@! TA.AperFunction,SMDPad,CuDef*
G36*
X21700000Y-9597487D02*
G01*
X21452513Y-9350000D01*
X21700000Y-9102513D01*
X21947487Y-9350000D01*
X21700000Y-9597487D01*
G37*
G04 #@! TD.AperFunction*
G04 #@! TA.AperFunction,SMDPad,CuDef*
G04 #@! TO.P,E1,1*
G04 #@! TO.N,/TIP*
G36*
X21950000Y-9646447D02*
G01*
X22303553Y-10000000D01*
X21950000Y-10353553D01*
X21596447Y-10000000D01*
X21950000Y-9646447D01*
G37*
G04 #@! TD.AperFunction*
G04 #@! TA.AperFunction,SMDPad,CuDef*
G36*
X21450000Y-9646447D02*
G01*
X21803553Y-10000000D01*
X21450000Y-10353553D01*
X21096447Y-10000000D01*
X21450000Y-9646447D01*
G37*
G04 #@! TD.AperFunction*
G04 #@! TO.P,E1,2*
G04 #@! TO.N,GND*
G04 #@! TA.AperFunction,SMDPad,CuDef*
G36*
G01*
X20700000Y-9450000D02*
X20700000Y-9050000D01*
G75*
G02*
X20750000Y-9000000I50000J0D01*
G01*
X22650000Y-9000000D01*
G75*
G02*
X22700000Y-9050000I0J-50000D01*
G01*
X22700000Y-9450000D01*
G75*
G02*
X22650000Y-9500000I-50000J0D01*
G01*
X20750000Y-9500000D01*
G75*
G02*
X20700000Y-9450000I0J50000D01*
G01*
G37*
G04 #@! TD.AperFunction*
G04 #@! TA.AperFunction,SMDPad,CuDef*
G36*
X22200000Y-9597487D02*
G01*
X21952513Y-9350000D01*
X22200000Y-9102513D01*
X22447487Y-9350000D01*
X22200000Y-9597487D01*
G37*
G04 #@! TD.AperFunction*
D11*
G04 #@! TO.P,E1,1*
G04 #@! TO.N,/TIP*
X21700000Y-10000000D03*
G04 #@! TD*
D12*
G04 #@! TO.P,J2,1*
G04 #@! TO.N,/AMP*
X101650000Y-10010000D03*
G04 #@! TD*
G04 #@! TO.P,C2,2*
G04 #@! TO.N,GND*
G04 #@! TA.AperFunction,SMDPad,CuDef*
G36*
G01*
X34350000Y-9456250D02*
X34350000Y-8943750D01*
G75*
G02*
X34568750Y-8725000I218750J0D01*
G01*
X35006250Y-8725000D01*
G75*
G02*
X35225000Y-8943750I0J-218750D01*
G01*
X35225000Y-9456250D01*
G75*
G02*
X35006250Y-9675000I-218750J0D01*
G01*
X34568750Y-9675000D01*
G75*
G02*
X34350000Y-9456250I0J218750D01*
G01*
G37*
G04 #@! TD.AperFunction*
G04 #@! TO.P,C2,1*
G04 #@! TO.N,/AMP*
G04 #@! TA.AperFunction,SMDPad,CuDef*
G36*
G01*
X32775000Y-9456250D02*
X32775000Y-8943750D01*
G75*
G02*
X32993750Y-8725000I218750J0D01*
G01*
X33431250Y-8725000D01*
G75*
G02*
X33650000Y-8943750I0J-218750D01*
G01*
X33650000Y-9456250D01*
G75*
G02*
X33431250Y-9675000I-218750J0D01*
G01*
X32993750Y-9675000D01*
G75*
G02*
X32775000Y-9456250I0J218750D01*
G01*
G37*
G04 #@! TD.AperFunction*
G04 #@! TD*
G04 #@! TO.P,R2,2*
G04 #@! TO.N,/TIP*
G04 #@! TA.AperFunction,SMDPad,CuDef*
G36*
G01*
X27650000Y-9743750D02*
X27650000Y-10256250D01*
G75*
G02*
X27431250Y-10475000I-218750J0D01*
G01*
X26993750Y-10475000D01*
G75*
G02*
X26775000Y-10256250I0J218750D01*
G01*
X26775000Y-9743750D01*
G75*
G02*
X26993750Y-9525000I218750J0D01*
G01*
X27431250Y-9525000D01*
G75*
G02*
X27650000Y-9743750I0J-218750D01*
G01*
G37*
G04 #@! TD.AperFunction*
G04 #@! TO.P,R2,1*
G04 #@! TO.N,Net-(C1-Pad1)*
G04 #@! TA.AperFunction,SMDPad,CuDef*
G36*
G01*
X29225000Y-9743750D02*
X29225000Y-10256250D01*
G75*
G02*
X29006250Y-10475000I-218750J0D01*
G01*
X28568750Y-10475000D01*
G75*
G02*
X28350000Y-10256250I0J218750D01*
G01*
X28350000Y-9743750D01*
G75*
G02*
X28568750Y-9525000I218750J0D01*
G01*
X29006250Y-9525000D01*
G75*
G02*
X29225000Y-9743750I0J-218750D01*
G01*
G37*
G04 #@! TD.AperFunction*
G04 #@! TD*
G04 #@! TO.P,J3,1*
G04 #@! TO.N,GND*
X96650000Y-10000000D03*
G04 #@! TD*
G04 #@! TO.P,J1,1*
G04 #@! TO.N,/TIP*
X15000000Y-10000000D03*
G04 #@! TD*
G04 #@! TO.P,R1,2*
G04 #@! TO.N,Net-(C1-Pad1)*
G04 #@! TA.AperFunction,SMDPad,CuDef*
G36*
G01*
X30650000Y-10543750D02*
X30650000Y-11056250D01*
G75*
G02*
X30431250Y-11275000I-218750J0D01*
G01*
X29993750Y-11275000D01*
G75*
G02*
X29775000Y-11056250I0J218750D01*
G01*
X29775000Y-10543750D01*
G75*
G02*
X29993750Y-10325000I218750J0D01*
G01*
X30431250Y-10325000D01*
G75*
G02*
X30650000Y-10543750I0J-218750D01*
G01*
G37*
G04 #@! TD.AperFunction*
G04 #@! TO.P,R1,1*
G04 #@! TO.N,/AMP*
G04 #@! TA.AperFunction,SMDPad,CuDef*
G36*
G01*
X32225000Y-10543750D02*
X32225000Y-11056250D01*
G75*
G02*
X32006250Y-11275000I-218750J0D01*
G01*
X31568750Y-11275000D01*
G75*
G02*
X31350000Y-11056250I0J218750D01*
G01*
X31350000Y-10543750D01*
G75*
G02*
X31568750Y-10325000I218750J0D01*
G01*
X32006250Y-10325000D01*
G75*
G02*
X32225000Y-10543750I0J-218750D01*
G01*
G37*
G04 #@! TD.AperFunction*
G04 #@! TD*
G04 #@! TO.P,C1,2*
G04 #@! TO.N,/AMP*
G04 #@! TA.AperFunction,SMDPad,CuDef*
G36*
G01*
X31350000Y-9456250D02*
X31350000Y-8943750D01*
G75*
G02*
X31568750Y-8725000I218750J0D01*
G01*
X32006250Y-8725000D01*
G75*
G02*
X32225000Y-8943750I0J-218750D01*
G01*
X32225000Y-9456250D01*
G75*
G02*
X32006250Y-9675000I-218750J0D01*
G01*
X31568750Y-9675000D01*
G75*
G02*
X31350000Y-9456250I0J218750D01*
G01*
G37*
G04 #@! TD.AperFunction*
G04 #@! TO.P,C1,1*
G04 #@! TO.N,Net-(C1-Pad1)*
G04 #@! TA.AperFunction,SMDPad,CuDef*
G36*
G01*
X29775000Y-9456250D02*
X29775000Y-8943750D01*
G75*
G02*
X29993750Y-8725000I218750J0D01*
G01*
X30431250Y-8725000D01*
G75*
G02*
X30650000Y-8943750I0J-218750D01*
G01*
X30650000Y-9456250D01*
G75*
G02*
X30431250Y-9675000I-218750J0D01*
G01*
X29993750Y-9675000D01*
G75*
G02*
X29775000Y-9456250I0J218750D01*
G01*
G37*
G04 #@! TD.AperFunction*
G04 #@! TD*
D13*
G04 #@! TO.N,GND*
X98300000Y-9000000D03*
X95000000Y-11000000D03*
X98300000Y-11000000D03*
X88000000Y-8600000D03*
X88000000Y-11400000D03*
X36000000Y-8900000D03*
X105000000Y-9000000D03*
X95000000Y-9000000D03*
X108300000Y-11000000D03*
X108300000Y-9000000D03*
X105000000Y-11000000D03*
X124500000Y-10000000D03*
X22900000Y-10790000D03*
X22900014Y-9200000D03*
X36000000Y-11200000D03*
G04 #@! TO.N,/AMP*
X100000000Y-9000000D03*
X100000000Y-11000000D03*
X103300000Y-11000000D03*
X103300000Y-9000000D03*
G04 #@! TD*
D14*
G04 #@! TO.N,GND*
X88050000Y-8650000D02*
X88000000Y-8600000D01*
X88050000Y-9000000D02*
X88050000Y-8650000D01*
X88050000Y-11350000D02*
X88000000Y-11400000D01*
X88050000Y-10900000D02*
X88050000Y-11350000D01*
X88050000Y-9000000D02*
X87350000Y-8300000D01*
X108300000Y-9000000D02*
X108300000Y-11000000D01*
X108300000Y-9000000D02*
X109100000Y-9800000D01*
X109300000Y-10000000D02*
X124500000Y-10000000D01*
X108300000Y-9000000D02*
X109300000Y-10000000D01*
X21700000Y-9250000D02*
X22850014Y-9250000D01*
X22850014Y-9250000D02*
X22900014Y-9200000D01*
X22860000Y-10750000D02*
X21730000Y-10750000D01*
X22900000Y-10790000D02*
X22860000Y-10750000D01*
X35087500Y-8900000D02*
X34787500Y-9200000D01*
X36000000Y-8900000D02*
X35087500Y-8900000D01*
X88050000Y-10750000D02*
X88500000Y-11200000D01*
X88000000Y-11400000D02*
X87600000Y-11000000D01*
X88000000Y-8600000D02*
X88100000Y-8600000D01*
X88000000Y-8600000D02*
X88400000Y-9000000D01*
X88000000Y-8600000D02*
X87900000Y-8600000D01*
X87900000Y-8600000D02*
X87600000Y-8900000D01*
G04 #@! TO.N,/AMP*
X101010000Y-10010000D02*
X100000000Y-9000000D01*
X101650000Y-10010000D02*
X101010000Y-10010000D01*
X100990000Y-10010000D02*
X100000000Y-11000000D01*
X101650000Y-10010000D02*
X100990000Y-10010000D01*
X102310000Y-10010000D02*
X103300000Y-11000000D01*
X101650000Y-10010000D02*
X102310000Y-10010000D01*
X102290000Y-10010000D02*
X103300000Y-9000000D01*
X101650000Y-10010000D02*
X102290000Y-10010000D01*
X99600000Y-11850000D02*
X100800000Y-11200000D01*
X91200000Y-10000000D02*
X88300000Y-10000000D01*
X93500000Y-12300000D02*
X91200000Y-10000000D01*
X98750000Y-12300000D02*
X93500000Y-12300000D01*
X99300000Y-12000000D02*
X98750000Y-12300000D01*
X99300000Y-12000000D02*
X100100000Y-10400000D01*
X100000000Y-11600000D02*
X99300000Y-12000000D01*
X100000000Y-11000000D02*
X100000000Y-11600000D01*
X31787500Y-10800000D02*
X31787500Y-9200000D01*
X33212500Y-9200000D02*
X31787500Y-9200000D01*
X35900000Y-10000000D02*
X88300000Y-10000000D01*
X35190001Y-10709999D02*
X35900000Y-10000000D01*
X31787500Y-10800000D02*
X31877501Y-10709999D01*
X33212500Y-10532498D02*
X33390001Y-10709999D01*
X33212500Y-9200000D02*
X33212500Y-10532498D01*
X33390001Y-10709999D02*
X35190001Y-10709999D01*
X31877501Y-10709999D02*
X33390001Y-10709999D01*
G04 #@! TO.N,/TIP*
X20800000Y-10000000D02*
X20600000Y-10000000D01*
X27212500Y-10000000D02*
X20800000Y-10000000D01*
X20800000Y-10000000D02*
X15000000Y-10000000D01*
X20600000Y-10000000D02*
X19800000Y-9200000D01*
X20600000Y-10000000D02*
X19900000Y-10700000D01*
X19900000Y-10700000D02*
X19700000Y-10900000D01*
G04 #@! TO.N,Net-(C1-Pad1)*
X29412500Y-10000000D02*
X30212500Y-9200000D01*
X29412500Y-10000000D02*
X30212500Y-10800000D01*
X28787500Y-10000000D02*
X29412500Y-10000000D01*
G04 #@! TD*
D15*
G04 #@! TO.N,/TIP*
X19900000Y-10988769D02*
X5024752Y-10175868D01*
X4966311Y-10170139D01*
X4933910Y-10160356D01*
X4904016Y-10144462D01*
X4877786Y-10123068D01*
X4856211Y-10096989D01*
X4840111Y-10067213D01*
X4830101Y-10034875D01*
X4826563Y-10001212D01*
X4829631Y-9967498D01*
X4839187Y-9935030D01*
X4854872Y-9905027D01*
X4876081Y-9878648D01*
X4902011Y-9856891D01*
X4931674Y-9840584D01*
X4963937Y-9830349D01*
X5014258Y-9824705D01*
X19900000Y-9011230D01*
X19900000Y-10988769D01*
G04 #@! TA.AperFunction,Conductor*
D16*
G36*
X19900000Y-10988769D02*
G01*
X5024752Y-10175868D01*
X4966311Y-10170139D01*
X4933910Y-10160356D01*
X4904016Y-10144462D01*
X4877786Y-10123068D01*
X4856211Y-10096989D01*
X4840111Y-10067213D01*
X4830101Y-10034875D01*
X4826563Y-10001212D01*
X4829631Y-9967498D01*
X4839187Y-9935030D01*
X4854872Y-9905027D01*
X4876081Y-9878648D01*
X4902011Y-9856891D01*
X4931674Y-9840584D01*
X4963937Y-9830349D01*
X5014258Y-9824705D01*
X19900000Y-9011230D01*
X19900000Y-10988769D01*
G37*
G04 #@! TD.AperFunction*
G04 #@! TD*
D15*
G04 #@! TO.N,/AMP*
X103600000Y-9041422D02*
X103600000Y-10958578D01*
X103258578Y-11300000D01*
X100041422Y-11300000D01*
X99700000Y-10958578D01*
X99700000Y-9041422D01*
X100041422Y-8700000D01*
X103258578Y-8700000D01*
X103600000Y-9041422D01*
G04 #@! TA.AperFunction,Conductor*
D16*
G36*
X103600000Y-9041422D02*
G01*
X103600000Y-10958578D01*
X103258578Y-11300000D01*
X100041422Y-11300000D01*
X99700000Y-10958578D01*
X99700000Y-9041422D01*
X100041422Y-8700000D01*
X103258578Y-8700000D01*
X103600000Y-9041422D01*
G37*
G04 #@! TD.AperFunction*
G04 #@! TD*
D17*
G04 #@! TO.N,GND*
X87050000Y-11028749D02*
X87419155Y-11028749D01*
X87501986Y-11073023D01*
X87648074Y-11117339D01*
X87800000Y-11132302D01*
X87951926Y-11117339D01*
X88050000Y-11087588D01*
X88148074Y-11117339D01*
X88300000Y-11132302D01*
X88451926Y-11117339D01*
X88598014Y-11073023D01*
X88680845Y-11028749D01*
X89050000Y-11028749D01*
X89088065Y-11025000D01*
X90775433Y-11025000D01*
X92468419Y-12717988D01*
X83318961Y-13200000D01*
X70011410Y-13200000D01*
X68036547Y-13143622D01*
X35958921Y-11390647D01*
X36324568Y-11025000D01*
X87011935Y-11025000D01*
X87050000Y-11028749D01*
G04 #@! TA.AperFunction,Conductor*
D16*
G36*
X87050000Y-11028749D02*
G01*
X87419155Y-11028749D01*
X87501986Y-11073023D01*
X87648074Y-11117339D01*
X87800000Y-11132302D01*
X87951926Y-11117339D01*
X88050000Y-11087588D01*
X88148074Y-11117339D01*
X88300000Y-11132302D01*
X88451926Y-11117339D01*
X88598014Y-11073023D01*
X88680845Y-11028749D01*
X89050000Y-11028749D01*
X89088065Y-11025000D01*
X90775433Y-11025000D01*
X92468419Y-12717988D01*
X83318961Y-13200000D01*
X70011410Y-13200000D01*
X68036547Y-13143622D01*
X35958921Y-11390647D01*
X36324568Y-11025000D01*
X87011935Y-11025000D01*
X87050000Y-11028749D01*
G37*
G04 #@! TD.AperFunction*
D17*
X124800001Y-8985305D02*
X124800000Y-11014696D01*
X104475000Y-12085458D01*
X104475000Y-7914542D01*
X124800001Y-8985305D01*
G04 #@! TA.AperFunction,Conductor*
D16*
G36*
X124800001Y-8985305D02*
G01*
X124800000Y-11014696D01*
X104475000Y-12085458D01*
X104475000Y-7914542D01*
X124800001Y-8985305D01*
G37*
G04 #@! TD.AperFunction*
D17*
X98825000Y-7616889D02*
X98825000Y-10658032D01*
X98526973Y-11254087D01*
X98488632Y-11275000D01*
X93924569Y-11275000D01*
X91960397Y-9310829D01*
X91928291Y-9271709D01*
X91772215Y-9143620D01*
X91594148Y-9048442D01*
X91400935Y-8989831D01*
X91250351Y-8975000D01*
X91250350Y-8975000D01*
X91200000Y-8970041D01*
X91149650Y-8975000D01*
X89088065Y-8975000D01*
X89050000Y-8971251D01*
X88680845Y-8971251D01*
X88598014Y-8926977D01*
X88451926Y-8882661D01*
X88300000Y-8867698D01*
X88148074Y-8882661D01*
X88050000Y-8912412D01*
X87951926Y-8882661D01*
X87800000Y-8867698D01*
X87648074Y-8882661D01*
X87501986Y-8926977D01*
X87419155Y-8971251D01*
X87050000Y-8971251D01*
X87011935Y-8975000D01*
X35950342Y-8975000D01*
X35899999Y-8970042D01*
X35849656Y-8975000D01*
X35849649Y-8975000D01*
X35717665Y-8987999D01*
X35699064Y-8989831D01*
X35662381Y-9000959D01*
X35505852Y-9048442D01*
X35327785Y-9143620D01*
X35171709Y-9271709D01*
X35139612Y-9310819D01*
X34765433Y-9684999D01*
X34399224Y-9684999D01*
X34409582Y-9650852D01*
X34428749Y-9456250D01*
X34428749Y-8943750D01*
X34409582Y-8749148D01*
X34393132Y-8694920D01*
X68036547Y-6856378D01*
X70011410Y-6800000D01*
X83318961Y-6800000D01*
X98825000Y-7616889D01*
G04 #@! TA.AperFunction,Conductor*
D16*
G36*
X98825000Y-7616889D02*
G01*
X98825000Y-10658032D01*
X98526973Y-11254087D01*
X98488632Y-11275000D01*
X93924569Y-11275000D01*
X91960397Y-9310829D01*
X91928291Y-9271709D01*
X91772215Y-9143620D01*
X91594148Y-9048442D01*
X91400935Y-8989831D01*
X91250351Y-8975000D01*
X91250350Y-8975000D01*
X91200000Y-8970041D01*
X91149650Y-8975000D01*
X89088065Y-8975000D01*
X89050000Y-8971251D01*
X88680845Y-8971251D01*
X88598014Y-8926977D01*
X88451926Y-8882661D01*
X88300000Y-8867698D01*
X88148074Y-8882661D01*
X88050000Y-8912412D01*
X87951926Y-8882661D01*
X87800000Y-8867698D01*
X87648074Y-8882661D01*
X87501986Y-8926977D01*
X87419155Y-8971251D01*
X87050000Y-8971251D01*
X87011935Y-8975000D01*
X35950342Y-8975000D01*
X35899999Y-8970042D01*
X35849656Y-8975000D01*
X35849649Y-8975000D01*
X35717665Y-8987999D01*
X35699064Y-8989831D01*
X35662381Y-9000959D01*
X35505852Y-9048442D01*
X35327785Y-9143620D01*
X35171709Y-9271709D01*
X35139612Y-9310819D01*
X34765433Y-9684999D01*
X34399224Y-9684999D01*
X34409582Y-9650852D01*
X34428749Y-9456250D01*
X34428749Y-8943750D01*
X34409582Y-8749148D01*
X34393132Y-8694920D01*
X68036547Y-6856378D01*
X70011410Y-6800000D01*
X83318961Y-6800000D01*
X98825000Y-7616889D01*
G37*
G04 #@! TD.AperFunction*
G04 #@! TD*
D18*
X98300000Y-9000000D03*
X95000000Y-11000000D03*
X98300000Y-11000000D03*
X88000000Y-8600000D03*
X88000000Y-11400000D03*
X36000000Y-8900000D03*
X105000000Y-9000000D03*
X95000000Y-9000000D03*
X108300000Y-11000000D03*
X108300000Y-9000000D03*
X105000000Y-11000000D03*
X124500000Y-10000000D03*
X22900000Y-10790000D03*
X22900014Y-9200000D03*
X36000000Y-11200000D03*
X100000000Y-9000000D03*
X100000000Y-11000000D03*
X103300000Y-11000000D03*
X103300000Y-9000000D03*
M02*
