G04 #@! TF.GenerationSoftware,KiCad,Pcbnew,5.1.9-73d0e3b20d~88~ubuntu20.04.1*
G04 #@! TF.CreationDate,2021-08-20T12:23:30+03:00*
G04 #@! TF.ProjectId,tweezer-tips,74776565-7a65-4722-9d74-6970732e6b69,rev?*
G04 #@! TF.SameCoordinates,Original*
G04 #@! TF.FileFunction,Soldermask,Top*
G04 #@! TF.FilePolarity,Negative*
%FSLAX46Y46*%
G04 Gerber Fmt 4.6, Leading zero omitted, Abs format (unit mm)*
G04 Created by KiCad (PCBNEW 5.1.9-73d0e3b20d~88~ubuntu20.04.1) date 2021-08-20 12:23:30*
%MOMM*%
%LPD*%
G01*
G04 APERTURE LIST*
%ADD10C,0.010000*%
%ADD11C,0.100000*%
%ADD12C,1.102000*%
G04 APERTURE END LIST*
D10*
G36*
X108450000Y-8750000D02*
G01*
X108550000Y-8850000D01*
X108600000Y-9000000D01*
X108600000Y-11000000D01*
X108550000Y-11150000D01*
X108450000Y-11250000D01*
X108300000Y-11300000D01*
X105000000Y-11300000D01*
X104850000Y-11250000D01*
X104750000Y-11150000D01*
X104700000Y-11000000D01*
X104700000Y-9000000D01*
X104750000Y-8850000D01*
X104850000Y-8750000D01*
X105000000Y-8700000D01*
X108300000Y-8700000D01*
X108450000Y-8750000D01*
G37*
X108450000Y-8750000D02*
X108550000Y-8850000D01*
X108600000Y-9000000D01*
X108600000Y-11000000D01*
X108550000Y-11150000D01*
X108450000Y-11250000D01*
X108300000Y-11300000D01*
X105000000Y-11300000D01*
X104850000Y-11250000D01*
X104750000Y-11150000D01*
X104700000Y-11000000D01*
X104700000Y-9000000D01*
X104750000Y-8850000D01*
X104850000Y-8750000D01*
X105000000Y-8700000D01*
X108300000Y-8700000D01*
X108450000Y-8750000D01*
G36*
X103450000Y-8750000D02*
G01*
X103550000Y-8850000D01*
X103600000Y-9000000D01*
X103600000Y-11000000D01*
X103550000Y-11150000D01*
X103450000Y-11250000D01*
X103300000Y-11300000D01*
X100000000Y-11300000D01*
X99850000Y-11250000D01*
X99750000Y-11150000D01*
X99700000Y-11000000D01*
X99700000Y-9000000D01*
X99750000Y-8850000D01*
X99850000Y-8750000D01*
X100000000Y-8700000D01*
X103300000Y-8700000D01*
X103450000Y-8750000D01*
G37*
X103450000Y-8750000D02*
X103550000Y-8850000D01*
X103600000Y-9000000D01*
X103600000Y-11000000D01*
X103550000Y-11150000D01*
X103450000Y-11250000D01*
X103300000Y-11300000D01*
X100000000Y-11300000D01*
X99850000Y-11250000D01*
X99750000Y-11150000D01*
X99700000Y-11000000D01*
X99700000Y-9000000D01*
X99750000Y-8850000D01*
X99850000Y-8750000D01*
X100000000Y-8700000D01*
X103300000Y-8700000D01*
X103450000Y-8750000D01*
G36*
X98450000Y-8750000D02*
G01*
X98550000Y-8850000D01*
X98600000Y-9000000D01*
X98600000Y-11000000D01*
X98550000Y-11150000D01*
X98450000Y-11250000D01*
X98300000Y-11300000D01*
X95000000Y-11300000D01*
X94850000Y-11250000D01*
X94750000Y-11150000D01*
X94700000Y-11000000D01*
X94700000Y-9000000D01*
X94750000Y-8850000D01*
X94850000Y-8750000D01*
X95000000Y-8700000D01*
X98300000Y-8700000D01*
X98450000Y-8750000D01*
G37*
X98450000Y-8750000D02*
X98550000Y-8850000D01*
X98600000Y-9000000D01*
X98600000Y-11000000D01*
X98550000Y-11150000D01*
X98450000Y-11250000D01*
X98300000Y-11300000D01*
X95000000Y-11300000D01*
X94850000Y-11250000D01*
X94750000Y-11150000D01*
X94700000Y-11000000D01*
X94700000Y-9000000D01*
X94750000Y-8850000D01*
X94850000Y-8750000D01*
X95000000Y-8700000D01*
X98300000Y-8700000D01*
X98450000Y-8750000D01*
D11*
G36*
X19750000Y-11500000D02*
G01*
X4500000Y-10500000D01*
X4500000Y-9500000D01*
X19750000Y-8500000D01*
X19750000Y-11500000D01*
G37*
X19750000Y-11500000D02*
X4500000Y-10500000D01*
X4500000Y-9500000D01*
X19750000Y-8500000D01*
X19750000Y-11500000D01*
D10*
G04 #@! TO.C,E2*
G36*
X89050000Y-10650000D02*
G01*
X87050000Y-10650000D01*
X87050000Y-9350000D01*
X89050000Y-9350000D01*
X89050000Y-10650000D01*
G37*
X89050000Y-10650000D02*
X87050000Y-10650000D01*
X87050000Y-9350000D01*
X89050000Y-9350000D01*
X89050000Y-10650000D01*
G04 #@! TO.C,E1*
G36*
X22700000Y-10650000D02*
G01*
X20700000Y-10650000D01*
X20700000Y-9350000D01*
X22700000Y-9350000D01*
X22700000Y-10650000D01*
G37*
X22700000Y-10650000D02*
X20700000Y-10650000D01*
X20700000Y-9350000D01*
X22700000Y-9350000D01*
X22700000Y-10650000D01*
G36*
X108450000Y-8750000D02*
G01*
X108550000Y-8850000D01*
X108600000Y-9000000D01*
X108600000Y-11000000D01*
X108550000Y-11150000D01*
X108450000Y-11250000D01*
X108300000Y-11300000D01*
X105000000Y-11300000D01*
X104850000Y-11250000D01*
X104750000Y-11150000D01*
X104700000Y-11000000D01*
X104700000Y-9000000D01*
X104750000Y-8850000D01*
X104850000Y-8750000D01*
X105000000Y-8700000D01*
X108300000Y-8700000D01*
X108450000Y-8750000D01*
G37*
X108450000Y-8750000D02*
X108550000Y-8850000D01*
X108600000Y-9000000D01*
X108600000Y-11000000D01*
X108550000Y-11150000D01*
X108450000Y-11250000D01*
X108300000Y-11300000D01*
X105000000Y-11300000D01*
X104850000Y-11250000D01*
X104750000Y-11150000D01*
X104700000Y-11000000D01*
X104700000Y-9000000D01*
X104750000Y-8850000D01*
X104850000Y-8750000D01*
X105000000Y-8700000D01*
X108300000Y-8700000D01*
X108450000Y-8750000D01*
G36*
X103450000Y-8750000D02*
G01*
X103550000Y-8850000D01*
X103600000Y-9000000D01*
X103600000Y-11000000D01*
X103550000Y-11150000D01*
X103450000Y-11250000D01*
X103300000Y-11300000D01*
X100000000Y-11300000D01*
X99850000Y-11250000D01*
X99750000Y-11150000D01*
X99700000Y-11000000D01*
X99700000Y-9000000D01*
X99750000Y-8850000D01*
X99850000Y-8750000D01*
X100000000Y-8700000D01*
X103300000Y-8700000D01*
X103450000Y-8750000D01*
G37*
X103450000Y-8750000D02*
X103550000Y-8850000D01*
X103600000Y-9000000D01*
X103600000Y-11000000D01*
X103550000Y-11150000D01*
X103450000Y-11250000D01*
X103300000Y-11300000D01*
X100000000Y-11300000D01*
X99850000Y-11250000D01*
X99750000Y-11150000D01*
X99700000Y-11000000D01*
X99700000Y-9000000D01*
X99750000Y-8850000D01*
X99850000Y-8750000D01*
X100000000Y-8700000D01*
X103300000Y-8700000D01*
X103450000Y-8750000D01*
G36*
X98450000Y-8750000D02*
G01*
X98550000Y-8850000D01*
X98600000Y-9000000D01*
X98600000Y-11000000D01*
X98550000Y-11150000D01*
X98450000Y-11250000D01*
X98300000Y-11300000D01*
X95000000Y-11300000D01*
X94850000Y-11250000D01*
X94750000Y-11150000D01*
X94700000Y-11000000D01*
X94700000Y-9000000D01*
X94750000Y-8850000D01*
X94850000Y-8750000D01*
X95000000Y-8700000D01*
X98300000Y-8700000D01*
X98450000Y-8750000D01*
G37*
X98450000Y-8750000D02*
X98550000Y-8850000D01*
X98600000Y-9000000D01*
X98600000Y-11000000D01*
X98550000Y-11150000D01*
X98450000Y-11250000D01*
X98300000Y-11300000D01*
X95000000Y-11300000D01*
X94850000Y-11250000D01*
X94750000Y-11150000D01*
X94700000Y-11000000D01*
X94700000Y-9000000D01*
X94750000Y-8850000D01*
X94850000Y-8750000D01*
X95000000Y-8700000D01*
X98300000Y-8700000D01*
X98450000Y-8750000D01*
D11*
G36*
X19750000Y-11500000D02*
G01*
X4500000Y-10500000D01*
X4500000Y-9500000D01*
X19750000Y-8500000D01*
X19750000Y-11500000D01*
G37*
X19750000Y-11500000D02*
X4500000Y-10500000D01*
X4500000Y-9500000D01*
X19750000Y-8500000D01*
X19750000Y-11500000D01*
D10*
G04 #@! TO.C,E2*
G36*
X89050000Y-10650000D02*
G01*
X87050000Y-10650000D01*
X87050000Y-9350000D01*
X89050000Y-9350000D01*
X89050000Y-10650000D01*
G37*
X89050000Y-10650000D02*
X87050000Y-10650000D01*
X87050000Y-9350000D01*
X89050000Y-9350000D01*
X89050000Y-10650000D01*
G04 #@! TO.C,E1*
G36*
X22700000Y-10650000D02*
G01*
X20700000Y-10650000D01*
X20700000Y-9350000D01*
X22700000Y-9350000D01*
X22700000Y-10650000D01*
G37*
X22700000Y-10650000D02*
X20700000Y-10650000D01*
X20700000Y-9350000D01*
X22700000Y-9350000D01*
X22700000Y-10650000D01*
G04 #@! TD*
G04 #@! TO.C,E2*
G36*
G01*
X88336062Y-9610385D02*
X88689615Y-9963938D01*
G75*
G02*
X88689615Y-10036062I-36062J-36062D01*
G01*
X88336062Y-10389615D01*
G75*
G02*
X88263938Y-10389615I-36062J36062D01*
G01*
X87910385Y-10036062D01*
G75*
G02*
X87910385Y-9963938I36062J36062D01*
G01*
X88263938Y-9610385D01*
G75*
G02*
X88336062Y-9610385I36062J-36062D01*
G01*
G37*
G36*
G01*
X87836062Y-9610385D02*
X88189615Y-9963938D01*
G75*
G02*
X88189615Y-10036062I-36062J-36062D01*
G01*
X87836062Y-10389615D01*
G75*
G02*
X87763938Y-10389615I-36062J36062D01*
G01*
X87410385Y-10036062D01*
G75*
G02*
X87410385Y-9963938I36062J36062D01*
G01*
X87763938Y-9610385D01*
G75*
G02*
X87836062Y-9610385I36062J-36062D01*
G01*
G37*
G36*
G01*
X86999000Y-10250000D02*
X86999000Y-9750000D01*
G75*
G02*
X87050000Y-9699000I51000J0D01*
G01*
X89050000Y-9699000D01*
G75*
G02*
X89101000Y-9750000I0J-51000D01*
G01*
X89101000Y-10250000D01*
G75*
G02*
X89050000Y-10301000I-51000J0D01*
G01*
X87050000Y-10301000D01*
G75*
G02*
X86999000Y-10250000I0J51000D01*
G01*
G37*
G04 #@! TD*
G04 #@! TO.C,E1*
G36*
G01*
X21986062Y-9610385D02*
X22339615Y-9963938D01*
G75*
G02*
X22339615Y-10036062I-36062J-36062D01*
G01*
X21986062Y-10389615D01*
G75*
G02*
X21913938Y-10389615I-36062J36062D01*
G01*
X21560385Y-10036062D01*
G75*
G02*
X21560385Y-9963938I36062J36062D01*
G01*
X21913938Y-9610385D01*
G75*
G02*
X21986062Y-9610385I36062J-36062D01*
G01*
G37*
G36*
G01*
X21486062Y-9610385D02*
X21839615Y-9963938D01*
G75*
G02*
X21839615Y-10036062I-36062J-36062D01*
G01*
X21486062Y-10389615D01*
G75*
G02*
X21413938Y-10389615I-36062J36062D01*
G01*
X21060385Y-10036062D01*
G75*
G02*
X21060385Y-9963938I36062J36062D01*
G01*
X21413938Y-9610385D01*
G75*
G02*
X21486062Y-9610385I36062J-36062D01*
G01*
G37*
G36*
G01*
X20649000Y-10250000D02*
X20649000Y-9750000D01*
G75*
G02*
X20700000Y-9699000I51000J0D01*
G01*
X22700000Y-9699000D01*
G75*
G02*
X22751000Y-9750000I0J-51000D01*
G01*
X22751000Y-10250000D01*
G75*
G02*
X22700000Y-10301000I-51000J0D01*
G01*
X20700000Y-10301000D01*
G75*
G02*
X20649000Y-10250000I0J51000D01*
G01*
G37*
G04 #@! TD*
D12*
G04 #@! TO.C,J2*
X101650000Y-10010000D03*
G04 #@! TD*
G04 #@! TO.C,C2*
G36*
G01*
X34299000Y-9481750D02*
X34299000Y-8918250D01*
G75*
G02*
X34543250Y-8674000I244250J0D01*
G01*
X35031750Y-8674000D01*
G75*
G02*
X35276000Y-8918250I0J-244250D01*
G01*
X35276000Y-9481750D01*
G75*
G02*
X35031750Y-9726000I-244250J0D01*
G01*
X34543250Y-9726000D01*
G75*
G02*
X34299000Y-9481750I0J244250D01*
G01*
G37*
G36*
G01*
X32724000Y-9481750D02*
X32724000Y-8918250D01*
G75*
G02*
X32968250Y-8674000I244250J0D01*
G01*
X33456750Y-8674000D01*
G75*
G02*
X33701000Y-8918250I0J-244250D01*
G01*
X33701000Y-9481750D01*
G75*
G02*
X33456750Y-9726000I-244250J0D01*
G01*
X32968250Y-9726000D01*
G75*
G02*
X32724000Y-9481750I0J244250D01*
G01*
G37*
G04 #@! TD*
G04 #@! TO.C,R2*
G36*
G01*
X27701000Y-9718250D02*
X27701000Y-10281750D01*
G75*
G02*
X27456750Y-10526000I-244250J0D01*
G01*
X26968250Y-10526000D01*
G75*
G02*
X26724000Y-10281750I0J244250D01*
G01*
X26724000Y-9718250D01*
G75*
G02*
X26968250Y-9474000I244250J0D01*
G01*
X27456750Y-9474000D01*
G75*
G02*
X27701000Y-9718250I0J-244250D01*
G01*
G37*
G36*
G01*
X29276000Y-9718250D02*
X29276000Y-10281750D01*
G75*
G02*
X29031750Y-10526000I-244250J0D01*
G01*
X28543250Y-10526000D01*
G75*
G02*
X28299000Y-10281750I0J244250D01*
G01*
X28299000Y-9718250D01*
G75*
G02*
X28543250Y-9474000I244250J0D01*
G01*
X29031750Y-9474000D01*
G75*
G02*
X29276000Y-9718250I0J-244250D01*
G01*
G37*
G04 #@! TD*
G04 #@! TO.C,J3*
X96650000Y-10000000D03*
G04 #@! TD*
G04 #@! TO.C,J1*
X15000000Y-10000000D03*
G04 #@! TD*
G04 #@! TO.C,R1*
G36*
G01*
X30701000Y-10518250D02*
X30701000Y-11081750D01*
G75*
G02*
X30456750Y-11326000I-244250J0D01*
G01*
X29968250Y-11326000D01*
G75*
G02*
X29724000Y-11081750I0J244250D01*
G01*
X29724000Y-10518250D01*
G75*
G02*
X29968250Y-10274000I244250J0D01*
G01*
X30456750Y-10274000D01*
G75*
G02*
X30701000Y-10518250I0J-244250D01*
G01*
G37*
G36*
G01*
X32276000Y-10518250D02*
X32276000Y-11081750D01*
G75*
G02*
X32031750Y-11326000I-244250J0D01*
G01*
X31543250Y-11326000D01*
G75*
G02*
X31299000Y-11081750I0J244250D01*
G01*
X31299000Y-10518250D01*
G75*
G02*
X31543250Y-10274000I244250J0D01*
G01*
X32031750Y-10274000D01*
G75*
G02*
X32276000Y-10518250I0J-244250D01*
G01*
G37*
G04 #@! TD*
G04 #@! TO.C,C1*
G36*
G01*
X31299000Y-9481750D02*
X31299000Y-8918250D01*
G75*
G02*
X31543250Y-8674000I244250J0D01*
G01*
X32031750Y-8674000D01*
G75*
G02*
X32276000Y-8918250I0J-244250D01*
G01*
X32276000Y-9481750D01*
G75*
G02*
X32031750Y-9726000I-244250J0D01*
G01*
X31543250Y-9726000D01*
G75*
G02*
X31299000Y-9481750I0J244250D01*
G01*
G37*
G36*
G01*
X29724000Y-9481750D02*
X29724000Y-8918250D01*
G75*
G02*
X29968250Y-8674000I244250J0D01*
G01*
X30456750Y-8674000D01*
G75*
G02*
X30701000Y-8918250I0J-244250D01*
G01*
X30701000Y-9481750D01*
G75*
G02*
X30456750Y-9726000I-244250J0D01*
G01*
X29968250Y-9726000D01*
G75*
G02*
X29724000Y-9481750I0J244250D01*
G01*
G37*
G04 #@! TD*
M02*
