G04 #@! TF.GenerationSoftware,KiCad,Pcbnew,5.1.9-73d0e3b20d~88~ubuntu20.04.1*
G04 #@! TF.CreationDate,2021-08-20T12:23:30+03:00*
G04 #@! TF.ProjectId,tweezer-tips,74776565-7a65-4722-9d74-6970732e6b69,rev?*
G04 #@! TF.SameCoordinates,Original*
G04 #@! TF.FileFunction,Legend,Top*
G04 #@! TF.FilePolarity,Positive*
%FSLAX46Y46*%
G04 Gerber Fmt 4.6, Leading zero omitted, Abs format (unit mm)*
G04 Created by KiCad (PCBNEW 5.1.9-73d0e3b20d~88~ubuntu20.04.1) date 2021-08-20 12:23:30*
%MOMM*%
%LPD*%
G01*
G04 APERTURE LIST*
%ADD10C,0.150000*%
%ADD11C,0.120000*%
%ADD12C,0.010000*%
%ADD13C,0.100000*%
%ADD14C,1.102000*%
G04 APERTURE END LIST*
D10*
X44580952Y-9482142D02*
X44533333Y-9529761D01*
X44390476Y-9577380D01*
X44295238Y-9577380D01*
X44152380Y-9529761D01*
X44057142Y-9434523D01*
X44009523Y-9339285D01*
X43961904Y-9148809D01*
X43961904Y-9005952D01*
X44009523Y-8815476D01*
X44057142Y-8720238D01*
X44152380Y-8625000D01*
X44295238Y-8577380D01*
X44390476Y-8577380D01*
X44533333Y-8625000D01*
X44580952Y-8672619D01*
X44961904Y-9291666D02*
X45438095Y-9291666D01*
X44866666Y-9577380D02*
X45200000Y-8577380D01*
X45533333Y-9577380D01*
X45723809Y-8577380D02*
X46295238Y-8577380D01*
X46009523Y-9577380D02*
X46009523Y-8577380D01*
X47390476Y-9577380D02*
X47390476Y-8577380D01*
X43366666Y-11227380D02*
X42795238Y-11227380D01*
X43080952Y-11227380D02*
X43080952Y-10227380D01*
X42985714Y-10370238D01*
X42890476Y-10465476D01*
X42795238Y-10513095D01*
X43985714Y-10227380D02*
X44080952Y-10227380D01*
X44176190Y-10275000D01*
X44223809Y-10322619D01*
X44271428Y-10417857D01*
X44319047Y-10608333D01*
X44319047Y-10846428D01*
X44271428Y-11036904D01*
X44223809Y-11132142D01*
X44176190Y-11179761D01*
X44080952Y-11227380D01*
X43985714Y-11227380D01*
X43890476Y-11179761D01*
X43842857Y-11132142D01*
X43795238Y-11036904D01*
X43747619Y-10846428D01*
X43747619Y-10608333D01*
X43795238Y-10417857D01*
X43842857Y-10322619D01*
X43890476Y-10275000D01*
X43985714Y-10227380D01*
X44938095Y-10227380D02*
X45033333Y-10227380D01*
X45128571Y-10275000D01*
X45176190Y-10322619D01*
X45223809Y-10417857D01*
X45271428Y-10608333D01*
X45271428Y-10846428D01*
X45223809Y-11036904D01*
X45176190Y-11132142D01*
X45128571Y-11179761D01*
X45033333Y-11227380D01*
X44938095Y-11227380D01*
X44842857Y-11179761D01*
X44795238Y-11132142D01*
X44747619Y-11036904D01*
X44700000Y-10846428D01*
X44700000Y-10608333D01*
X44747619Y-10417857D01*
X44795238Y-10322619D01*
X44842857Y-10275000D01*
X44938095Y-10227380D01*
X46319047Y-10227380D02*
X46652380Y-11227380D01*
X46985714Y-10227380D01*
X47319047Y-10560714D02*
X47319047Y-11560714D01*
X47319047Y-10608333D02*
X47414285Y-10560714D01*
X47604761Y-10560714D01*
X47700000Y-10608333D01*
X47747619Y-10655952D01*
X47795238Y-10751190D01*
X47795238Y-11036904D01*
X47747619Y-11132142D01*
X47700000Y-11179761D01*
X47604761Y-11227380D01*
X47414285Y-11227380D01*
X47319047Y-11179761D01*
X48223809Y-11227380D02*
X48223809Y-10227380D01*
X48319047Y-10846428D02*
X48604761Y-11227380D01*
X48604761Y-10560714D02*
X48223809Y-10941666D01*
D11*
G04 #@! TO.C,C2*
X33837221Y-8690000D02*
X34162779Y-8690000D01*
X33837221Y-9710000D02*
X34162779Y-9710000D01*
G04 #@! TO.C,R2*
X28162779Y-10510000D02*
X27837221Y-10510000D01*
X28162779Y-9490000D02*
X27837221Y-9490000D01*
G04 #@! TO.C,R1*
X31162779Y-11310000D02*
X30837221Y-11310000D01*
X31162779Y-10290000D02*
X30837221Y-10290000D01*
G04 #@! TO.C,C1*
X30837221Y-8690000D02*
X31162779Y-8690000D01*
X30837221Y-9710000D02*
X31162779Y-9710000D01*
G04 #@! TO.C,C2*
D10*
X33866666Y-10785714D02*
X33828571Y-10823809D01*
X33714285Y-10861904D01*
X33638095Y-10861904D01*
X33523809Y-10823809D01*
X33447619Y-10747619D01*
X33409523Y-10671428D01*
X33371428Y-10519047D01*
X33371428Y-10404761D01*
X33409523Y-10252380D01*
X33447619Y-10176190D01*
X33523809Y-10100000D01*
X33638095Y-10061904D01*
X33714285Y-10061904D01*
X33828571Y-10100000D01*
X33866666Y-10138095D01*
X34171428Y-10138095D02*
X34209523Y-10100000D01*
X34285714Y-10061904D01*
X34476190Y-10061904D01*
X34552380Y-10100000D01*
X34590476Y-10138095D01*
X34628571Y-10214285D01*
X34628571Y-10290476D01*
X34590476Y-10404761D01*
X34133333Y-10861904D01*
X34628571Y-10861904D01*
G04 #@! TO.C,R2*
X25366666Y-10361904D02*
X25100000Y-9980952D01*
X24909523Y-10361904D02*
X24909523Y-9561904D01*
X25214285Y-9561904D01*
X25290476Y-9600000D01*
X25328571Y-9638095D01*
X25366666Y-9714285D01*
X25366666Y-9828571D01*
X25328571Y-9904761D01*
X25290476Y-9942857D01*
X25214285Y-9980952D01*
X24909523Y-9980952D01*
X25671428Y-9638095D02*
X25709523Y-9600000D01*
X25785714Y-9561904D01*
X25976190Y-9561904D01*
X26052380Y-9600000D01*
X26090476Y-9638095D01*
X26128571Y-9714285D01*
X26128571Y-9790476D01*
X26090476Y-9904761D01*
X25633333Y-10361904D01*
X26128571Y-10361904D01*
G04 #@! TO.C,R1*
X28666666Y-11561904D02*
X28400000Y-11180952D01*
X28209523Y-11561904D02*
X28209523Y-10761904D01*
X28514285Y-10761904D01*
X28590476Y-10800000D01*
X28628571Y-10838095D01*
X28666666Y-10914285D01*
X28666666Y-11028571D01*
X28628571Y-11104761D01*
X28590476Y-11142857D01*
X28514285Y-11180952D01*
X28209523Y-11180952D01*
X29428571Y-11561904D02*
X28971428Y-11561904D01*
X29200000Y-11561904D02*
X29200000Y-10761904D01*
X29123809Y-10876190D01*
X29047619Y-10952380D01*
X28971428Y-10990476D01*
G04 #@! TO.C,C1*
X28666666Y-9185714D02*
X28628571Y-9223809D01*
X28514285Y-9261904D01*
X28438095Y-9261904D01*
X28323809Y-9223809D01*
X28247619Y-9147619D01*
X28209523Y-9071428D01*
X28171428Y-8919047D01*
X28171428Y-8804761D01*
X28209523Y-8652380D01*
X28247619Y-8576190D01*
X28323809Y-8500000D01*
X28438095Y-8461904D01*
X28514285Y-8461904D01*
X28628571Y-8500000D01*
X28666666Y-8538095D01*
X29428571Y-9261904D02*
X28971428Y-9261904D01*
X29200000Y-9261904D02*
X29200000Y-8461904D01*
X29123809Y-8576190D01*
X29047619Y-8652380D01*
X28971428Y-8690476D01*
G04 #@! TD*
%LPC*%
D12*
G36*
X108450000Y-8750000D02*
G01*
X108550000Y-8850000D01*
X108600000Y-9000000D01*
X108600000Y-11000000D01*
X108550000Y-11150000D01*
X108450000Y-11250000D01*
X108300000Y-11300000D01*
X105000000Y-11300000D01*
X104850000Y-11250000D01*
X104750000Y-11150000D01*
X104700000Y-11000000D01*
X104700000Y-9000000D01*
X104750000Y-8850000D01*
X104850000Y-8750000D01*
X105000000Y-8700000D01*
X108300000Y-8700000D01*
X108450000Y-8750000D01*
G37*
X108450000Y-8750000D02*
X108550000Y-8850000D01*
X108600000Y-9000000D01*
X108600000Y-11000000D01*
X108550000Y-11150000D01*
X108450000Y-11250000D01*
X108300000Y-11300000D01*
X105000000Y-11300000D01*
X104850000Y-11250000D01*
X104750000Y-11150000D01*
X104700000Y-11000000D01*
X104700000Y-9000000D01*
X104750000Y-8850000D01*
X104850000Y-8750000D01*
X105000000Y-8700000D01*
X108300000Y-8700000D01*
X108450000Y-8750000D01*
G36*
X103450000Y-8750000D02*
G01*
X103550000Y-8850000D01*
X103600000Y-9000000D01*
X103600000Y-11000000D01*
X103550000Y-11150000D01*
X103450000Y-11250000D01*
X103300000Y-11300000D01*
X100000000Y-11300000D01*
X99850000Y-11250000D01*
X99750000Y-11150000D01*
X99700000Y-11000000D01*
X99700000Y-9000000D01*
X99750000Y-8850000D01*
X99850000Y-8750000D01*
X100000000Y-8700000D01*
X103300000Y-8700000D01*
X103450000Y-8750000D01*
G37*
X103450000Y-8750000D02*
X103550000Y-8850000D01*
X103600000Y-9000000D01*
X103600000Y-11000000D01*
X103550000Y-11150000D01*
X103450000Y-11250000D01*
X103300000Y-11300000D01*
X100000000Y-11300000D01*
X99850000Y-11250000D01*
X99750000Y-11150000D01*
X99700000Y-11000000D01*
X99700000Y-9000000D01*
X99750000Y-8850000D01*
X99850000Y-8750000D01*
X100000000Y-8700000D01*
X103300000Y-8700000D01*
X103450000Y-8750000D01*
G36*
X98450000Y-8750000D02*
G01*
X98550000Y-8850000D01*
X98600000Y-9000000D01*
X98600000Y-11000000D01*
X98550000Y-11150000D01*
X98450000Y-11250000D01*
X98300000Y-11300000D01*
X95000000Y-11300000D01*
X94850000Y-11250000D01*
X94750000Y-11150000D01*
X94700000Y-11000000D01*
X94700000Y-9000000D01*
X94750000Y-8850000D01*
X94850000Y-8750000D01*
X95000000Y-8700000D01*
X98300000Y-8700000D01*
X98450000Y-8750000D01*
G37*
X98450000Y-8750000D02*
X98550000Y-8850000D01*
X98600000Y-9000000D01*
X98600000Y-11000000D01*
X98550000Y-11150000D01*
X98450000Y-11250000D01*
X98300000Y-11300000D01*
X95000000Y-11300000D01*
X94850000Y-11250000D01*
X94750000Y-11150000D01*
X94700000Y-11000000D01*
X94700000Y-9000000D01*
X94750000Y-8850000D01*
X94850000Y-8750000D01*
X95000000Y-8700000D01*
X98300000Y-8700000D01*
X98450000Y-8750000D01*
D13*
G36*
X19750000Y-11500000D02*
G01*
X4500000Y-10500000D01*
X4500000Y-9500000D01*
X19750000Y-8500000D01*
X19750000Y-11500000D01*
G37*
X19750000Y-11500000D02*
X4500000Y-10500000D01*
X4500000Y-9500000D01*
X19750000Y-8500000D01*
X19750000Y-11500000D01*
D12*
G04 #@! TO.C,E2*
G36*
X89050000Y-10650000D02*
G01*
X87050000Y-10650000D01*
X87050000Y-9350000D01*
X89050000Y-9350000D01*
X89050000Y-10650000D01*
G37*
X89050000Y-10650000D02*
X87050000Y-10650000D01*
X87050000Y-9350000D01*
X89050000Y-9350000D01*
X89050000Y-10650000D01*
G04 #@! TO.C,E1*
G36*
X22700000Y-10650000D02*
G01*
X20700000Y-10650000D01*
X20700000Y-9350000D01*
X22700000Y-9350000D01*
X22700000Y-10650000D01*
G37*
X22700000Y-10650000D02*
X20700000Y-10650000D01*
X20700000Y-9350000D01*
X22700000Y-9350000D01*
X22700000Y-10650000D01*
G04 #@! TD*
G04 #@! TO.C,E2*
G36*
G01*
X88336062Y-9610385D02*
X88689615Y-9963938D01*
G75*
G02*
X88689615Y-10036062I-36062J-36062D01*
G01*
X88336062Y-10389615D01*
G75*
G02*
X88263938Y-10389615I-36062J36062D01*
G01*
X87910385Y-10036062D01*
G75*
G02*
X87910385Y-9963938I36062J36062D01*
G01*
X88263938Y-9610385D01*
G75*
G02*
X88336062Y-9610385I36062J-36062D01*
G01*
G37*
G36*
G01*
X87836062Y-9610385D02*
X88189615Y-9963938D01*
G75*
G02*
X88189615Y-10036062I-36062J-36062D01*
G01*
X87836062Y-10389615D01*
G75*
G02*
X87763938Y-10389615I-36062J36062D01*
G01*
X87410385Y-10036062D01*
G75*
G02*
X87410385Y-9963938I36062J36062D01*
G01*
X87763938Y-9610385D01*
G75*
G02*
X87836062Y-9610385I36062J-36062D01*
G01*
G37*
G36*
G01*
X86999000Y-10250000D02*
X86999000Y-9750000D01*
G75*
G02*
X87050000Y-9699000I51000J0D01*
G01*
X89050000Y-9699000D01*
G75*
G02*
X89101000Y-9750000I0J-51000D01*
G01*
X89101000Y-10250000D01*
G75*
G02*
X89050000Y-10301000I-51000J0D01*
G01*
X87050000Y-10301000D01*
G75*
G02*
X86999000Y-10250000I0J51000D01*
G01*
G37*
G04 #@! TD*
G04 #@! TO.C,E1*
G36*
G01*
X21986062Y-9610385D02*
X22339615Y-9963938D01*
G75*
G02*
X22339615Y-10036062I-36062J-36062D01*
G01*
X21986062Y-10389615D01*
G75*
G02*
X21913938Y-10389615I-36062J36062D01*
G01*
X21560385Y-10036062D01*
G75*
G02*
X21560385Y-9963938I36062J36062D01*
G01*
X21913938Y-9610385D01*
G75*
G02*
X21986062Y-9610385I36062J-36062D01*
G01*
G37*
G36*
G01*
X21486062Y-9610385D02*
X21839615Y-9963938D01*
G75*
G02*
X21839615Y-10036062I-36062J-36062D01*
G01*
X21486062Y-10389615D01*
G75*
G02*
X21413938Y-10389615I-36062J36062D01*
G01*
X21060385Y-10036062D01*
G75*
G02*
X21060385Y-9963938I36062J36062D01*
G01*
X21413938Y-9610385D01*
G75*
G02*
X21486062Y-9610385I36062J-36062D01*
G01*
G37*
G36*
G01*
X20649000Y-10250000D02*
X20649000Y-9750000D01*
G75*
G02*
X20700000Y-9699000I51000J0D01*
G01*
X22700000Y-9699000D01*
G75*
G02*
X22751000Y-9750000I0J-51000D01*
G01*
X22751000Y-10250000D01*
G75*
G02*
X22700000Y-10301000I-51000J0D01*
G01*
X20700000Y-10301000D01*
G75*
G02*
X20649000Y-10250000I0J51000D01*
G01*
G37*
G04 #@! TD*
D14*
G04 #@! TO.C,J2*
X101650000Y-10010000D03*
G04 #@! TD*
G04 #@! TO.C,C2*
G36*
G01*
X34299000Y-9481750D02*
X34299000Y-8918250D01*
G75*
G02*
X34543250Y-8674000I244250J0D01*
G01*
X35031750Y-8674000D01*
G75*
G02*
X35276000Y-8918250I0J-244250D01*
G01*
X35276000Y-9481750D01*
G75*
G02*
X35031750Y-9726000I-244250J0D01*
G01*
X34543250Y-9726000D01*
G75*
G02*
X34299000Y-9481750I0J244250D01*
G01*
G37*
G36*
G01*
X32724000Y-9481750D02*
X32724000Y-8918250D01*
G75*
G02*
X32968250Y-8674000I244250J0D01*
G01*
X33456750Y-8674000D01*
G75*
G02*
X33701000Y-8918250I0J-244250D01*
G01*
X33701000Y-9481750D01*
G75*
G02*
X33456750Y-9726000I-244250J0D01*
G01*
X32968250Y-9726000D01*
G75*
G02*
X32724000Y-9481750I0J244250D01*
G01*
G37*
G04 #@! TD*
G04 #@! TO.C,R2*
G36*
G01*
X27701000Y-9718250D02*
X27701000Y-10281750D01*
G75*
G02*
X27456750Y-10526000I-244250J0D01*
G01*
X26968250Y-10526000D01*
G75*
G02*
X26724000Y-10281750I0J244250D01*
G01*
X26724000Y-9718250D01*
G75*
G02*
X26968250Y-9474000I244250J0D01*
G01*
X27456750Y-9474000D01*
G75*
G02*
X27701000Y-9718250I0J-244250D01*
G01*
G37*
G36*
G01*
X29276000Y-9718250D02*
X29276000Y-10281750D01*
G75*
G02*
X29031750Y-10526000I-244250J0D01*
G01*
X28543250Y-10526000D01*
G75*
G02*
X28299000Y-10281750I0J244250D01*
G01*
X28299000Y-9718250D01*
G75*
G02*
X28543250Y-9474000I244250J0D01*
G01*
X29031750Y-9474000D01*
G75*
G02*
X29276000Y-9718250I0J-244250D01*
G01*
G37*
G04 #@! TD*
G04 #@! TO.C,J3*
X96650000Y-10000000D03*
G04 #@! TD*
G04 #@! TO.C,J1*
X15000000Y-10000000D03*
G04 #@! TD*
G04 #@! TO.C,R1*
G36*
G01*
X30701000Y-10518250D02*
X30701000Y-11081750D01*
G75*
G02*
X30456750Y-11326000I-244250J0D01*
G01*
X29968250Y-11326000D01*
G75*
G02*
X29724000Y-11081750I0J244250D01*
G01*
X29724000Y-10518250D01*
G75*
G02*
X29968250Y-10274000I244250J0D01*
G01*
X30456750Y-10274000D01*
G75*
G02*
X30701000Y-10518250I0J-244250D01*
G01*
G37*
G36*
G01*
X32276000Y-10518250D02*
X32276000Y-11081750D01*
G75*
G02*
X32031750Y-11326000I-244250J0D01*
G01*
X31543250Y-11326000D01*
G75*
G02*
X31299000Y-11081750I0J244250D01*
G01*
X31299000Y-10518250D01*
G75*
G02*
X31543250Y-10274000I244250J0D01*
G01*
X32031750Y-10274000D01*
G75*
G02*
X32276000Y-10518250I0J-244250D01*
G01*
G37*
G04 #@! TD*
G04 #@! TO.C,C1*
G36*
G01*
X31299000Y-9481750D02*
X31299000Y-8918250D01*
G75*
G02*
X31543250Y-8674000I244250J0D01*
G01*
X32031750Y-8674000D01*
G75*
G02*
X32276000Y-8918250I0J-244250D01*
G01*
X32276000Y-9481750D01*
G75*
G02*
X32031750Y-9726000I-244250J0D01*
G01*
X31543250Y-9726000D01*
G75*
G02*
X31299000Y-9481750I0J244250D01*
G01*
G37*
G36*
G01*
X29724000Y-9481750D02*
X29724000Y-8918250D01*
G75*
G02*
X29968250Y-8674000I244250J0D01*
G01*
X30456750Y-8674000D01*
G75*
G02*
X30701000Y-8918250I0J-244250D01*
G01*
X30701000Y-9481750D01*
G75*
G02*
X30456750Y-9726000I-244250J0D01*
G01*
X29968250Y-9726000D01*
G75*
G02*
X29724000Y-9481750I0J244250D01*
G01*
G37*
G04 #@! TD*
M02*
