M48
METRIC
T1C0.400
T2C1.520
T3C3.200
%
G90
G05
T1
X90.2Y-95.7
X90.3Y-101.5
X90.3Y-102.3
X90.3Y-103.1
X91.0Y-95.7
X91.8Y-95.7
X92.4Y-101.5
X94.0Y-96.0
X94.0Y-98.0
X94.0Y-100.0
X94.0Y-102.0
X94.0Y-104.0
X94.0Y-106.0
X96.0Y-96.0
X96.0Y-98.0
X96.0Y-100.0
X96.0Y-102.0
X96.0Y-104.0
X96.0Y-106.0
X99.0Y-100.0
X99.0Y-102.0
X99.0Y-104.0
X99.0Y-106.0
X99.3Y-90.0
X99.3Y-90.8
X101.0Y-98.0
X103.1Y-114.8
X103.1Y-115.6
X105.2Y-101.2
X105.2Y-105.6
X111.7Y-95.8
X111.7Y-98.8
X111.7Y-107.4
X111.7Y-110.4
X117.0Y-94.925
X117.0Y-99.7
X117.0Y-106.5
X117.0Y-111.3
T2
X76.5Y-92.8
X76.5Y-97.88
X76.5Y-102.96
X76.5Y-108.04
X76.5Y-113.12
T3
X86.0Y-91.5
X86.0Y-114.5
X107.3Y-114.5
X107.6Y-91.5
T0
M30
