G04 #@! TF.GenerationSoftware,KiCad,Pcbnew,5.1.9-73d0e3b20d~88~ubuntu20.04.1*
G04 #@! TF.CreationDate,2021-08-23T08:34:32+03:00*
G04 #@! TF.ProjectId,multirange_adapter,6d756c74-6972-4616-9e67-655f61646170,rev?*
G04 #@! TF.SameCoordinates,Original*
G04 #@! TF.FileFunction,Profile,NP*
%FSLAX46Y46*%
G04 Gerber Fmt 4.6, Leading zero omitted, Abs format (unit mm)*
G04 Created by KiCad (PCBNEW 5.1.9-73d0e3b20d~88~ubuntu20.04.1) date 2021-08-23 08:34:32*
%MOMM*%
%LPD*%
G01*
G04 APERTURE LIST*
G04 #@! TA.AperFunction,Profile*
%ADD10C,0.050000*%
G04 #@! TD*
G04 APERTURE END LIST*
D10*
X113300000Y-96050000D02*
G75*
G02*
X113800000Y-95550000I500000J0D01*
G01*
X113800000Y-99050000D02*
G75*
G02*
X113300000Y-98550000I0J500000D01*
G01*
X113300000Y-96050000D02*
X113300000Y-98550000D01*
X113750000Y-110650000D02*
G75*
G02*
X113250000Y-110150000I0J500000D01*
G01*
X113250000Y-107650000D02*
G75*
G02*
X113750000Y-107150000I500000J0D01*
G01*
X72500000Y-89000000D02*
X72500000Y-117000000D01*
X116000000Y-118000000D02*
X117000000Y-118000000D01*
X118000000Y-110650000D02*
X118000000Y-117000000D01*
X113750000Y-110650000D02*
X118000000Y-110650000D01*
X113250000Y-107650000D02*
X113250000Y-110150000D01*
X118000000Y-107150000D02*
X113750000Y-107150000D01*
X118000000Y-99050000D02*
X118000000Y-107150000D01*
X113800000Y-99050000D02*
X118000000Y-99050000D01*
X118000000Y-95550000D02*
X113800000Y-95550000D01*
X118000000Y-95000000D02*
X118000000Y-95550000D01*
X118000000Y-89000000D02*
X118000000Y-95000000D01*
X117000000Y-88000000D02*
G75*
G02*
X118000000Y-89000000I0J-1000000D01*
G01*
X118000000Y-117000000D02*
G75*
G02*
X117000000Y-118000000I-1000000J0D01*
G01*
X73500000Y-118000000D02*
G75*
G02*
X72500000Y-117000000I0J1000000D01*
G01*
X72500000Y-89000000D02*
G75*
G02*
X73500000Y-88000000I1000000J0D01*
G01*
X73500000Y-88000000D02*
X117000000Y-88000000D01*
X73500000Y-118000000D02*
X116000000Y-118000000D01*
M02*
