G04 #@! TF.GenerationSoftware,KiCad,Pcbnew,5.1.9-73d0e3b20d~88~ubuntu20.04.1*
G04 #@! TF.CreationDate,2021-08-23T08:34:32+03:00*
G04 #@! TF.ProjectId,multirange_adapter,6d756c74-6972-4616-9e67-655f61646170,rev?*
G04 #@! TF.SameCoordinates,Original*
G04 #@! TF.FileFunction,Legend,Bot*
G04 #@! TF.FilePolarity,Positive*
%FSLAX46Y46*%
G04 Gerber Fmt 4.6, Leading zero omitted, Abs format (unit mm)*
G04 Created by KiCad (PCBNEW 5.1.9-73d0e3b20d~88~ubuntu20.04.1) date 2021-08-23 08:34:32*
%MOMM*%
%LPD*%
G01*
G04 APERTURE LIST*
%ADD10C,0.150000*%
%ADD11C,5.500000*%
%ADD12C,3.000000*%
%ADD13R,3.000000X3.000000*%
G04 APERTURE END LIST*
D10*
X102300000Y-104852380D02*
X102300000Y-103852380D01*
X101728571Y-104852380D01*
X101728571Y-103852380D01*
X101109523Y-104852380D02*
X101204761Y-104804761D01*
X101252380Y-104757142D01*
X101300000Y-104661904D01*
X101300000Y-104376190D01*
X101252380Y-104280952D01*
X101204761Y-104233333D01*
X101109523Y-104185714D01*
X100966666Y-104185714D01*
X100871428Y-104233333D01*
X100823809Y-104280952D01*
X100776190Y-104376190D01*
X100776190Y-104661904D01*
X100823809Y-104757142D01*
X100871428Y-104804761D01*
X100966666Y-104852380D01*
X101109523Y-104852380D01*
X100490476Y-104185714D02*
X100109523Y-104185714D01*
X100347619Y-103852380D02*
X100347619Y-104709523D01*
X100300000Y-104804761D01*
X100204761Y-104852380D01*
X100109523Y-104852380D01*
X99395238Y-104804761D02*
X99490476Y-104852380D01*
X99680952Y-104852380D01*
X99776190Y-104804761D01*
X99823809Y-104709523D01*
X99823809Y-104328571D01*
X99776190Y-104233333D01*
X99680952Y-104185714D01*
X99490476Y-104185714D01*
X99395238Y-104233333D01*
X99347619Y-104328571D01*
X99347619Y-104423809D01*
X99823809Y-104519047D01*
X98919047Y-104757142D02*
X98871428Y-104804761D01*
X98919047Y-104852380D01*
X98966666Y-104804761D01*
X98919047Y-104757142D01*
X98919047Y-104852380D01*
X98919047Y-104233333D02*
X98871428Y-104280952D01*
X98919047Y-104328571D01*
X98966666Y-104280952D01*
X98919047Y-104233333D01*
X98919047Y-104328571D01*
X97347619Y-104328571D02*
X97680952Y-104328571D01*
X97680952Y-104852380D02*
X97680952Y-103852380D01*
X97204761Y-103852380D01*
X96300000Y-104852380D02*
X96871428Y-104852380D01*
X96585714Y-104852380D02*
X96585714Y-103852380D01*
X96680952Y-103995238D01*
X96776190Y-104090476D01*
X96871428Y-104138095D01*
X95109523Y-104852380D02*
X95109523Y-104185714D01*
X95109523Y-103852380D02*
X95157142Y-103900000D01*
X95109523Y-103947619D01*
X95061904Y-103900000D01*
X95109523Y-103852380D01*
X95109523Y-103947619D01*
X94680952Y-104804761D02*
X94585714Y-104852380D01*
X94395238Y-104852380D01*
X94300000Y-104804761D01*
X94252380Y-104709523D01*
X94252380Y-104661904D01*
X94300000Y-104566666D01*
X94395238Y-104519047D01*
X94538095Y-104519047D01*
X94633333Y-104471428D01*
X94680952Y-104376190D01*
X94680952Y-104328571D01*
X94633333Y-104233333D01*
X94538095Y-104185714D01*
X94395238Y-104185714D01*
X94300000Y-104233333D01*
X92633333Y-104852380D02*
X92633333Y-104328571D01*
X92680952Y-104233333D01*
X92776190Y-104185714D01*
X92966666Y-104185714D01*
X93061904Y-104233333D01*
X92633333Y-104804761D02*
X92728571Y-104852380D01*
X92966666Y-104852380D01*
X93061904Y-104804761D01*
X93109523Y-104709523D01*
X93109523Y-104614285D01*
X93061904Y-104519047D01*
X92966666Y-104471428D01*
X92728571Y-104471428D01*
X92633333Y-104423809D01*
X91728571Y-104185714D02*
X91728571Y-104852380D01*
X92157142Y-104185714D02*
X92157142Y-104709523D01*
X92109523Y-104804761D01*
X92014285Y-104852380D01*
X91871428Y-104852380D01*
X91776190Y-104804761D01*
X91728571Y-104757142D01*
X91395238Y-104185714D02*
X91014285Y-104185714D01*
X91252380Y-103852380D02*
X91252380Y-104709523D01*
X91204761Y-104804761D01*
X91109523Y-104852380D01*
X91014285Y-104852380D01*
X90538095Y-104852380D02*
X90633333Y-104804761D01*
X90680952Y-104757142D01*
X90728571Y-104661904D01*
X90728571Y-104376190D01*
X90680952Y-104280952D01*
X90633333Y-104233333D01*
X90538095Y-104185714D01*
X90395238Y-104185714D01*
X90300000Y-104233333D01*
X90252380Y-104280952D01*
X90204761Y-104376190D01*
X90204761Y-104661904D01*
X90252380Y-104757142D01*
X90300000Y-104804761D01*
X90395238Y-104852380D01*
X90538095Y-104852380D01*
X89776190Y-104471428D02*
X89014285Y-104471428D01*
X88538095Y-104852380D02*
X88538095Y-104185714D01*
X88538095Y-104376190D02*
X88490476Y-104280952D01*
X88442857Y-104233333D01*
X88347619Y-104185714D01*
X88252380Y-104185714D01*
X87538095Y-104804761D02*
X87633333Y-104852380D01*
X87823809Y-104852380D01*
X87919047Y-104804761D01*
X87966666Y-104709523D01*
X87966666Y-104328571D01*
X87919047Y-104233333D01*
X87823809Y-104185714D01*
X87633333Y-104185714D01*
X87538095Y-104233333D01*
X87490476Y-104328571D01*
X87490476Y-104423809D01*
X87966666Y-104519047D01*
X87109523Y-104804761D02*
X87014285Y-104852380D01*
X86823809Y-104852380D01*
X86728571Y-104804761D01*
X86680952Y-104709523D01*
X86680952Y-104661904D01*
X86728571Y-104566666D01*
X86823809Y-104519047D01*
X86966666Y-104519047D01*
X87061904Y-104471428D01*
X87109523Y-104376190D01*
X87109523Y-104328571D01*
X87061904Y-104233333D01*
X86966666Y-104185714D01*
X86823809Y-104185714D01*
X86728571Y-104233333D01*
X85871428Y-104804761D02*
X85966666Y-104852380D01*
X86157142Y-104852380D01*
X86252380Y-104804761D01*
X86300000Y-104709523D01*
X86300000Y-104328571D01*
X86252380Y-104233333D01*
X86157142Y-104185714D01*
X85966666Y-104185714D01*
X85871428Y-104233333D01*
X85823809Y-104328571D01*
X85823809Y-104423809D01*
X86300000Y-104519047D01*
X85538095Y-104185714D02*
X85157142Y-104185714D01*
X85395238Y-103852380D02*
X85395238Y-104709523D01*
X85347619Y-104804761D01*
X85252380Y-104852380D01*
X85157142Y-104852380D01*
X101300000Y-105835714D02*
X100919047Y-105835714D01*
X101157142Y-105502380D02*
X101157142Y-106359523D01*
X101109523Y-106454761D01*
X101014285Y-106502380D01*
X100919047Y-106502380D01*
X100585714Y-106502380D02*
X100585714Y-105502380D01*
X100157142Y-106502380D02*
X100157142Y-105978571D01*
X100204761Y-105883333D01*
X100300000Y-105835714D01*
X100442857Y-105835714D01*
X100538095Y-105883333D01*
X100585714Y-105930952D01*
X99300000Y-106454761D02*
X99395238Y-106502380D01*
X99585714Y-106502380D01*
X99680952Y-106454761D01*
X99728571Y-106359523D01*
X99728571Y-105978571D01*
X99680952Y-105883333D01*
X99585714Y-105835714D01*
X99395238Y-105835714D01*
X99300000Y-105883333D01*
X99252380Y-105978571D01*
X99252380Y-106073809D01*
X99728571Y-106169047D01*
X98823809Y-106502380D02*
X98823809Y-105835714D01*
X98823809Y-106026190D02*
X98776190Y-105930952D01*
X98728571Y-105883333D01*
X98633333Y-105835714D01*
X98538095Y-105835714D01*
X98204761Y-106502380D02*
X98204761Y-105835714D01*
X98204761Y-105930952D02*
X98157142Y-105883333D01*
X98061904Y-105835714D01*
X97919047Y-105835714D01*
X97823809Y-105883333D01*
X97776190Y-105978571D01*
X97776190Y-106502380D01*
X97776190Y-105978571D02*
X97728571Y-105883333D01*
X97633333Y-105835714D01*
X97490476Y-105835714D01*
X97395238Y-105883333D01*
X97347619Y-105978571D01*
X97347619Y-106502380D01*
X96442857Y-106502380D02*
X96442857Y-105978571D01*
X96490476Y-105883333D01*
X96585714Y-105835714D01*
X96776190Y-105835714D01*
X96871428Y-105883333D01*
X96442857Y-106454761D02*
X96538095Y-106502380D01*
X96776190Y-106502380D01*
X96871428Y-106454761D01*
X96919047Y-106359523D01*
X96919047Y-106264285D01*
X96871428Y-106169047D01*
X96776190Y-106121428D01*
X96538095Y-106121428D01*
X96442857Y-106073809D01*
X95823809Y-106502380D02*
X95919047Y-106454761D01*
X95966666Y-106359523D01*
X95966666Y-105502380D01*
X94252380Y-106454761D02*
X94347619Y-106502380D01*
X94538095Y-106502380D01*
X94633333Y-106454761D01*
X94680952Y-106407142D01*
X94728571Y-106311904D01*
X94728571Y-106026190D01*
X94680952Y-105930952D01*
X94633333Y-105883333D01*
X94538095Y-105835714D01*
X94347619Y-105835714D01*
X94252380Y-105883333D01*
X93395238Y-105835714D02*
X93395238Y-106502380D01*
X93823809Y-105835714D02*
X93823809Y-106359523D01*
X93776190Y-106454761D01*
X93680952Y-106502380D01*
X93538095Y-106502380D01*
X93442857Y-106454761D01*
X93395238Y-106407142D01*
X93061904Y-105835714D02*
X92680952Y-105835714D01*
X92919047Y-105502380D02*
X92919047Y-106359523D01*
X92871428Y-106454761D01*
X92776190Y-106502380D01*
X92680952Y-106502380D01*
X92204761Y-106502380D02*
X92300000Y-106454761D01*
X92347619Y-106407142D01*
X92395238Y-106311904D01*
X92395238Y-106026190D01*
X92347619Y-105930952D01*
X92300000Y-105883333D01*
X92204761Y-105835714D01*
X92061904Y-105835714D01*
X91966666Y-105883333D01*
X91919047Y-105930952D01*
X91871428Y-106026190D01*
X91871428Y-106311904D01*
X91919047Y-106407142D01*
X91966666Y-106454761D01*
X92061904Y-106502380D01*
X92204761Y-106502380D01*
X91585714Y-105835714D02*
X91204761Y-105835714D01*
X91442857Y-106502380D02*
X91442857Y-105645238D01*
X91395238Y-105550000D01*
X91300000Y-105502380D01*
X91204761Y-105502380D01*
X91014285Y-105835714D02*
X90633333Y-105835714D01*
X90871428Y-106502380D02*
X90871428Y-105645238D01*
X90823809Y-105550000D01*
X90728571Y-105502380D01*
X90633333Y-105502380D01*
X90252380Y-106454761D02*
X90252380Y-106502380D01*
X90300000Y-106597619D01*
X90347619Y-106645238D01*
X89204761Y-105835714D02*
X88823809Y-105835714D01*
X89061904Y-105502380D02*
X89061904Y-106359523D01*
X89014285Y-106454761D01*
X88919047Y-106502380D01*
X88823809Y-106502380D01*
X88585714Y-105835714D02*
X88347619Y-106502380D01*
X88109523Y-105835714D02*
X88347619Y-106502380D01*
X88442857Y-106740476D01*
X88490476Y-106788095D01*
X88585714Y-106835714D01*
X87728571Y-105835714D02*
X87728571Y-106835714D01*
X87728571Y-105883333D02*
X87633333Y-105835714D01*
X87442857Y-105835714D01*
X87347619Y-105883333D01*
X87300000Y-105930952D01*
X87252380Y-106026190D01*
X87252380Y-106311904D01*
X87300000Y-106407142D01*
X87347619Y-106454761D01*
X87442857Y-106502380D01*
X87633333Y-106502380D01*
X87728571Y-106454761D01*
X86442857Y-106454761D02*
X86538095Y-106502380D01*
X86728571Y-106502380D01*
X86823809Y-106454761D01*
X86871428Y-106359523D01*
X86871428Y-105978571D01*
X86823809Y-105883333D01*
X86728571Y-105835714D01*
X86538095Y-105835714D01*
X86442857Y-105883333D01*
X86395238Y-105978571D01*
X86395238Y-106073809D01*
X86871428Y-106169047D01*
X102514285Y-108104761D02*
X102371428Y-108152380D01*
X102133333Y-108152380D01*
X102038095Y-108104761D01*
X101990476Y-108057142D01*
X101942857Y-107961904D01*
X101942857Y-107866666D01*
X101990476Y-107771428D01*
X102038095Y-107723809D01*
X102133333Y-107676190D01*
X102323809Y-107628571D01*
X102419047Y-107580952D01*
X102466666Y-107533333D01*
X102514285Y-107438095D01*
X102514285Y-107342857D01*
X102466666Y-107247619D01*
X102419047Y-107200000D01*
X102323809Y-107152380D01*
X102085714Y-107152380D01*
X101942857Y-107200000D01*
X101561904Y-107866666D02*
X101085714Y-107866666D01*
X101657142Y-108152380D02*
X101323809Y-107152380D01*
X100990476Y-108152380D01*
X100514285Y-107580952D02*
X100609523Y-107533333D01*
X100657142Y-107485714D01*
X100704761Y-107390476D01*
X100704761Y-107342857D01*
X100657142Y-107247619D01*
X100609523Y-107200000D01*
X100514285Y-107152380D01*
X100323809Y-107152380D01*
X100228571Y-107200000D01*
X100180952Y-107247619D01*
X100133333Y-107342857D01*
X100133333Y-107390476D01*
X100180952Y-107485714D01*
X100228571Y-107533333D01*
X100323809Y-107580952D01*
X100514285Y-107580952D01*
X100609523Y-107628571D01*
X100657142Y-107676190D01*
X100704761Y-107771428D01*
X100704761Y-107961904D01*
X100657142Y-108057142D01*
X100609523Y-108104761D01*
X100514285Y-108152380D01*
X100323809Y-108152380D01*
X100228571Y-108104761D01*
X100180952Y-108057142D01*
X100133333Y-107961904D01*
X100133333Y-107771428D01*
X100180952Y-107676190D01*
X100228571Y-107628571D01*
X100323809Y-107580952D01*
X99752380Y-107247619D02*
X99704761Y-107200000D01*
X99609523Y-107152380D01*
X99371428Y-107152380D01*
X99276190Y-107200000D01*
X99228571Y-107247619D01*
X99180952Y-107342857D01*
X99180952Y-107438095D01*
X99228571Y-107580952D01*
X99800000Y-108152380D01*
X99180952Y-108152380D01*
X98800000Y-108104761D02*
X98657142Y-108152380D01*
X98419047Y-108152380D01*
X98323809Y-108104761D01*
X98276190Y-108057142D01*
X98228571Y-107961904D01*
X98228571Y-107866666D01*
X98276190Y-107771428D01*
X98323809Y-107723809D01*
X98419047Y-107676190D01*
X98609523Y-107628571D01*
X98704761Y-107580952D01*
X98752380Y-107533333D01*
X98800000Y-107438095D01*
X98800000Y-107342857D01*
X98752380Y-107247619D01*
X98704761Y-107200000D01*
X98609523Y-107152380D01*
X98371428Y-107152380D01*
X98228571Y-107200000D01*
X97466666Y-107628571D02*
X97323809Y-107676190D01*
X97276190Y-107723809D01*
X97228571Y-107819047D01*
X97228571Y-107961904D01*
X97276190Y-108057142D01*
X97323809Y-108104761D01*
X97419047Y-108152380D01*
X97800000Y-108152380D01*
X97800000Y-107152380D01*
X97466666Y-107152380D01*
X97371428Y-107200000D01*
X97323809Y-107247619D01*
X97276190Y-107342857D01*
X97276190Y-107438095D01*
X97323809Y-107533333D01*
X97371428Y-107580952D01*
X97466666Y-107628571D01*
X97800000Y-107628571D01*
X96609523Y-107152380D02*
X96514285Y-107152380D01*
X96419047Y-107200000D01*
X96371428Y-107247619D01*
X96323809Y-107342857D01*
X96276190Y-107533333D01*
X96276190Y-107771428D01*
X96323809Y-107961904D01*
X96371428Y-108057142D01*
X96419047Y-108104761D01*
X96514285Y-108152380D01*
X96609523Y-108152380D01*
X96704761Y-108104761D01*
X96752380Y-108057142D01*
X96800000Y-107961904D01*
X96847619Y-107771428D01*
X96847619Y-107533333D01*
X96800000Y-107342857D01*
X96752380Y-107247619D01*
X96704761Y-107200000D01*
X96609523Y-107152380D01*
X94942857Y-108152380D02*
X95038095Y-108104761D01*
X95085714Y-108057142D01*
X95133333Y-107961904D01*
X95133333Y-107676190D01*
X95085714Y-107580952D01*
X95038095Y-107533333D01*
X94942857Y-107485714D01*
X94800000Y-107485714D01*
X94704761Y-107533333D01*
X94657142Y-107580952D01*
X94609523Y-107676190D01*
X94609523Y-107961904D01*
X94657142Y-108057142D01*
X94704761Y-108104761D01*
X94800000Y-108152380D01*
X94942857Y-108152380D01*
X94180952Y-108152380D02*
X94180952Y-107485714D01*
X94180952Y-107676190D02*
X94133333Y-107580952D01*
X94085714Y-107533333D01*
X93990476Y-107485714D01*
X93895238Y-107485714D01*
X92419047Y-108104761D02*
X92514285Y-108152380D01*
X92704761Y-108152380D01*
X92800000Y-108104761D01*
X92847619Y-108009523D01*
X92847619Y-107628571D01*
X92800000Y-107533333D01*
X92704761Y-107485714D01*
X92514285Y-107485714D01*
X92419047Y-107533333D01*
X92371428Y-107628571D01*
X92371428Y-107723809D01*
X92847619Y-107819047D01*
X91514285Y-107485714D02*
X91514285Y-108485714D01*
X91514285Y-108104761D02*
X91609523Y-108152380D01*
X91800000Y-108152380D01*
X91895238Y-108104761D01*
X91942857Y-108057142D01*
X91990476Y-107961904D01*
X91990476Y-107676190D01*
X91942857Y-107580952D01*
X91895238Y-107533333D01*
X91800000Y-107485714D01*
X91609523Y-107485714D01*
X91514285Y-107533333D01*
X90609523Y-107485714D02*
X90609523Y-108152380D01*
X91038095Y-107485714D02*
X91038095Y-108009523D01*
X90990476Y-108104761D01*
X90895238Y-108152380D01*
X90752380Y-108152380D01*
X90657142Y-108104761D01*
X90609523Y-108057142D01*
X90133333Y-108152380D02*
X90133333Y-107485714D01*
X90133333Y-107152380D02*
X90180952Y-107200000D01*
X90133333Y-107247619D01*
X90085714Y-107200000D01*
X90133333Y-107152380D01*
X90133333Y-107247619D01*
X89752380Y-107485714D02*
X89514285Y-108152380D01*
X89276190Y-107485714D01*
X88466666Y-108152380D02*
X88466666Y-107628571D01*
X88514285Y-107533333D01*
X88609523Y-107485714D01*
X88800000Y-107485714D01*
X88895238Y-107533333D01*
X88466666Y-108104761D02*
X88561904Y-108152380D01*
X88800000Y-108152380D01*
X88895238Y-108104761D01*
X88942857Y-108009523D01*
X88942857Y-107914285D01*
X88895238Y-107819047D01*
X88800000Y-107771428D01*
X88561904Y-107771428D01*
X88466666Y-107723809D01*
X87847619Y-108152380D02*
X87942857Y-108104761D01*
X87990476Y-108009523D01*
X87990476Y-107152380D01*
X87085714Y-108104761D02*
X87180952Y-108152380D01*
X87371428Y-108152380D01*
X87466666Y-108104761D01*
X87514285Y-108009523D01*
X87514285Y-107628571D01*
X87466666Y-107533333D01*
X87371428Y-107485714D01*
X87180952Y-107485714D01*
X87085714Y-107533333D01*
X87038095Y-107628571D01*
X87038095Y-107723809D01*
X87514285Y-107819047D01*
X86609523Y-107485714D02*
X86609523Y-108152380D01*
X86609523Y-107580952D02*
X86561904Y-107533333D01*
X86466666Y-107485714D01*
X86323809Y-107485714D01*
X86228571Y-107533333D01*
X86180952Y-107628571D01*
X86180952Y-108152380D01*
X85847619Y-107485714D02*
X85466666Y-107485714D01*
X85704761Y-107152380D02*
X85704761Y-108009523D01*
X85657142Y-108104761D01*
X85561904Y-108152380D01*
X85466666Y-108152380D01*
X85133333Y-108057142D02*
X85085714Y-108104761D01*
X85133333Y-108152380D01*
X85180952Y-108104761D01*
X85133333Y-108057142D01*
X85133333Y-108152380D01*
X103909523Y-96977380D02*
X103909523Y-95977380D01*
X103576190Y-96691666D01*
X103242857Y-95977380D01*
X103242857Y-96977380D01*
X102338095Y-96310714D02*
X102338095Y-96977380D01*
X102766666Y-96310714D02*
X102766666Y-96834523D01*
X102719047Y-96929761D01*
X102623809Y-96977380D01*
X102480952Y-96977380D01*
X102385714Y-96929761D01*
X102338095Y-96882142D01*
X101719047Y-96977380D02*
X101814285Y-96929761D01*
X101861904Y-96834523D01*
X101861904Y-95977380D01*
X101480952Y-96310714D02*
X101100000Y-96310714D01*
X101338095Y-95977380D02*
X101338095Y-96834523D01*
X101290476Y-96929761D01*
X101195238Y-96977380D01*
X101100000Y-96977380D01*
X100766666Y-96977380D02*
X100766666Y-96310714D01*
X100766666Y-95977380D02*
X100814285Y-96025000D01*
X100766666Y-96072619D01*
X100719047Y-96025000D01*
X100766666Y-95977380D01*
X100766666Y-96072619D01*
X100290476Y-96977380D02*
X100290476Y-96310714D01*
X100290476Y-96501190D02*
X100242857Y-96405952D01*
X100195238Y-96358333D01*
X100100000Y-96310714D01*
X100004761Y-96310714D01*
X99242857Y-96977380D02*
X99242857Y-96453571D01*
X99290476Y-96358333D01*
X99385714Y-96310714D01*
X99576190Y-96310714D01*
X99671428Y-96358333D01*
X99242857Y-96929761D02*
X99338095Y-96977380D01*
X99576190Y-96977380D01*
X99671428Y-96929761D01*
X99719047Y-96834523D01*
X99719047Y-96739285D01*
X99671428Y-96644047D01*
X99576190Y-96596428D01*
X99338095Y-96596428D01*
X99242857Y-96548809D01*
X98766666Y-96310714D02*
X98766666Y-96977380D01*
X98766666Y-96405952D02*
X98719047Y-96358333D01*
X98623809Y-96310714D01*
X98480952Y-96310714D01*
X98385714Y-96358333D01*
X98338095Y-96453571D01*
X98338095Y-96977380D01*
X97433333Y-96310714D02*
X97433333Y-97120238D01*
X97480952Y-97215476D01*
X97528571Y-97263095D01*
X97623809Y-97310714D01*
X97766666Y-97310714D01*
X97861904Y-97263095D01*
X97433333Y-96929761D02*
X97528571Y-96977380D01*
X97719047Y-96977380D01*
X97814285Y-96929761D01*
X97861904Y-96882142D01*
X97909523Y-96786904D01*
X97909523Y-96501190D01*
X97861904Y-96405952D01*
X97814285Y-96358333D01*
X97719047Y-96310714D01*
X97528571Y-96310714D01*
X97433333Y-96358333D01*
X96576190Y-96929761D02*
X96671428Y-96977380D01*
X96861904Y-96977380D01*
X96957142Y-96929761D01*
X97004761Y-96834523D01*
X97004761Y-96453571D01*
X96957142Y-96358333D01*
X96861904Y-96310714D01*
X96671428Y-96310714D01*
X96576190Y-96358333D01*
X96528571Y-96453571D01*
X96528571Y-96548809D01*
X97004761Y-96644047D01*
X95433333Y-96310714D02*
X95195238Y-96977380D01*
X94957142Y-96310714D01*
X94433333Y-96977380D02*
X94528571Y-96929761D01*
X94576190Y-96882142D01*
X94623809Y-96786904D01*
X94623809Y-96501190D01*
X94576190Y-96405952D01*
X94528571Y-96358333D01*
X94433333Y-96310714D01*
X94290476Y-96310714D01*
X94195238Y-96358333D01*
X94147619Y-96405952D01*
X94100000Y-96501190D01*
X94100000Y-96786904D01*
X94147619Y-96882142D01*
X94195238Y-96929761D01*
X94290476Y-96977380D01*
X94433333Y-96977380D01*
X93528571Y-96977380D02*
X93623809Y-96929761D01*
X93671428Y-96834523D01*
X93671428Y-95977380D01*
X93290476Y-96310714D02*
X92909523Y-96310714D01*
X93147619Y-95977380D02*
X93147619Y-96834523D01*
X93100000Y-96929761D01*
X93004761Y-96977380D01*
X92909523Y-96977380D01*
X92147619Y-96977380D02*
X92147619Y-96453571D01*
X92195238Y-96358333D01*
X92290476Y-96310714D01*
X92480952Y-96310714D01*
X92576190Y-96358333D01*
X92147619Y-96929761D02*
X92242857Y-96977380D01*
X92480952Y-96977380D01*
X92576190Y-96929761D01*
X92623809Y-96834523D01*
X92623809Y-96739285D01*
X92576190Y-96644047D01*
X92480952Y-96596428D01*
X92242857Y-96596428D01*
X92147619Y-96548809D01*
X91242857Y-96310714D02*
X91242857Y-97120238D01*
X91290476Y-97215476D01*
X91338095Y-97263095D01*
X91433333Y-97310714D01*
X91576190Y-97310714D01*
X91671428Y-97263095D01*
X91242857Y-96929761D02*
X91338095Y-96977380D01*
X91528571Y-96977380D01*
X91623809Y-96929761D01*
X91671428Y-96882142D01*
X91719047Y-96786904D01*
X91719047Y-96501190D01*
X91671428Y-96405952D01*
X91623809Y-96358333D01*
X91528571Y-96310714D01*
X91338095Y-96310714D01*
X91242857Y-96358333D01*
X90385714Y-96929761D02*
X90480952Y-96977380D01*
X90671428Y-96977380D01*
X90766666Y-96929761D01*
X90814285Y-96834523D01*
X90814285Y-96453571D01*
X90766666Y-96358333D01*
X90671428Y-96310714D01*
X90480952Y-96310714D01*
X90385714Y-96358333D01*
X90338095Y-96453571D01*
X90338095Y-96548809D01*
X90814285Y-96644047D01*
X88338095Y-96977380D02*
X88385714Y-96977380D01*
X88480952Y-96929761D01*
X88623809Y-96786904D01*
X88861904Y-96501190D01*
X88957142Y-96358333D01*
X89004761Y-96215476D01*
X89004761Y-96120238D01*
X88957142Y-96025000D01*
X88861904Y-95977380D01*
X88814285Y-95977380D01*
X88719047Y-96025000D01*
X88671428Y-96120238D01*
X88671428Y-96167857D01*
X88719047Y-96263095D01*
X88766666Y-96310714D01*
X89052380Y-96501190D01*
X89100000Y-96548809D01*
X89147619Y-96644047D01*
X89147619Y-96786904D01*
X89100000Y-96882142D01*
X89052380Y-96929761D01*
X88957142Y-96977380D01*
X88814285Y-96977380D01*
X88719047Y-96929761D01*
X88671428Y-96882142D01*
X88528571Y-96691666D01*
X88480952Y-96548809D01*
X88480952Y-96453571D01*
X86719047Y-96929761D02*
X86814285Y-96977380D01*
X87004761Y-96977380D01*
X87100000Y-96929761D01*
X87147619Y-96882142D01*
X87195238Y-96786904D01*
X87195238Y-96501190D01*
X87147619Y-96405952D01*
X87100000Y-96358333D01*
X87004761Y-96310714D01*
X86814285Y-96310714D01*
X86719047Y-96358333D01*
X85861904Y-96310714D02*
X85861904Y-96977380D01*
X86290476Y-96310714D02*
X86290476Y-96834523D01*
X86242857Y-96929761D01*
X86147619Y-96977380D01*
X86004761Y-96977380D01*
X85909523Y-96929761D01*
X85861904Y-96882142D01*
X85385714Y-96977380D02*
X85385714Y-96310714D01*
X85385714Y-96501190D02*
X85338095Y-96405952D01*
X85290476Y-96358333D01*
X85195238Y-96310714D01*
X85100000Y-96310714D01*
X84766666Y-96977380D02*
X84766666Y-96310714D01*
X84766666Y-96501190D02*
X84719047Y-96405952D01*
X84671428Y-96358333D01*
X84576190Y-96310714D01*
X84480952Y-96310714D01*
X83766666Y-96929761D02*
X83861904Y-96977380D01*
X84052380Y-96977380D01*
X84147619Y-96929761D01*
X84195238Y-96834523D01*
X84195238Y-96453571D01*
X84147619Y-96358333D01*
X84052380Y-96310714D01*
X83861904Y-96310714D01*
X83766666Y-96358333D01*
X83719047Y-96453571D01*
X83719047Y-96548809D01*
X84195238Y-96644047D01*
X83290476Y-96310714D02*
X83290476Y-96977380D01*
X83290476Y-96405952D02*
X83242857Y-96358333D01*
X83147619Y-96310714D01*
X83004761Y-96310714D01*
X82909523Y-96358333D01*
X82861904Y-96453571D01*
X82861904Y-96977380D01*
X82528571Y-96310714D02*
X82147619Y-96310714D01*
X82385714Y-95977380D02*
X82385714Y-96834523D01*
X82338095Y-96929761D01*
X82242857Y-96977380D01*
X82147619Y-96977380D01*
X104004761Y-98627380D02*
X104004761Y-97960714D01*
X104004761Y-97627380D02*
X104052380Y-97675000D01*
X104004761Y-97722619D01*
X103957142Y-97675000D01*
X104004761Y-97627380D01*
X104004761Y-97722619D01*
X103528571Y-97960714D02*
X103528571Y-98627380D01*
X103528571Y-98055952D02*
X103480952Y-98008333D01*
X103385714Y-97960714D01*
X103242857Y-97960714D01*
X103147619Y-98008333D01*
X103100000Y-98103571D01*
X103100000Y-98627380D01*
X102623809Y-97960714D02*
X102623809Y-98960714D01*
X102623809Y-98008333D02*
X102528571Y-97960714D01*
X102338095Y-97960714D01*
X102242857Y-98008333D01*
X102195238Y-98055952D01*
X102147619Y-98151190D01*
X102147619Y-98436904D01*
X102195238Y-98532142D01*
X102242857Y-98579761D01*
X102338095Y-98627380D01*
X102528571Y-98627380D01*
X102623809Y-98579761D01*
X101290476Y-97960714D02*
X101290476Y-98627380D01*
X101719047Y-97960714D02*
X101719047Y-98484523D01*
X101671428Y-98579761D01*
X101576190Y-98627380D01*
X101433333Y-98627380D01*
X101338095Y-98579761D01*
X101290476Y-98532142D01*
X100957142Y-97960714D02*
X100576190Y-97960714D01*
X100814285Y-97627380D02*
X100814285Y-98484523D01*
X100766666Y-98579761D01*
X100671428Y-98627380D01*
X100576190Y-98627380D01*
X99052380Y-98627380D02*
X99052380Y-98103571D01*
X99100000Y-98008333D01*
X99195238Y-97960714D01*
X99385714Y-97960714D01*
X99480952Y-98008333D01*
X99052380Y-98579761D02*
X99147619Y-98627380D01*
X99385714Y-98627380D01*
X99480952Y-98579761D01*
X99528571Y-98484523D01*
X99528571Y-98389285D01*
X99480952Y-98294047D01*
X99385714Y-98246428D01*
X99147619Y-98246428D01*
X99052380Y-98198809D01*
X98147619Y-98627380D02*
X98147619Y-97627380D01*
X98147619Y-98579761D02*
X98242857Y-98627380D01*
X98433333Y-98627380D01*
X98528571Y-98579761D01*
X98576190Y-98532142D01*
X98623809Y-98436904D01*
X98623809Y-98151190D01*
X98576190Y-98055952D01*
X98528571Y-98008333D01*
X98433333Y-97960714D01*
X98242857Y-97960714D01*
X98147619Y-98008333D01*
X97242857Y-98627380D02*
X97242857Y-98103571D01*
X97290476Y-98008333D01*
X97385714Y-97960714D01*
X97576190Y-97960714D01*
X97671428Y-98008333D01*
X97242857Y-98579761D02*
X97338095Y-98627380D01*
X97576190Y-98627380D01*
X97671428Y-98579761D01*
X97719047Y-98484523D01*
X97719047Y-98389285D01*
X97671428Y-98294047D01*
X97576190Y-98246428D01*
X97338095Y-98246428D01*
X97242857Y-98198809D01*
X96766666Y-97960714D02*
X96766666Y-98960714D01*
X96766666Y-98008333D02*
X96671428Y-97960714D01*
X96480952Y-97960714D01*
X96385714Y-98008333D01*
X96338095Y-98055952D01*
X96290476Y-98151190D01*
X96290476Y-98436904D01*
X96338095Y-98532142D01*
X96385714Y-98579761D01*
X96480952Y-98627380D01*
X96671428Y-98627380D01*
X96766666Y-98579761D01*
X96004761Y-97960714D02*
X95623809Y-97960714D01*
X95861904Y-97627380D02*
X95861904Y-98484523D01*
X95814285Y-98579761D01*
X95719047Y-98627380D01*
X95623809Y-98627380D01*
X94909523Y-98579761D02*
X95004761Y-98627380D01*
X95195238Y-98627380D01*
X95290476Y-98579761D01*
X95338095Y-98484523D01*
X95338095Y-98103571D01*
X95290476Y-98008333D01*
X95195238Y-97960714D01*
X95004761Y-97960714D01*
X94909523Y-98008333D01*
X94861904Y-98103571D01*
X94861904Y-98198809D01*
X95338095Y-98294047D01*
X94433333Y-98627380D02*
X94433333Y-97960714D01*
X94433333Y-98151190D02*
X94385714Y-98055952D01*
X94338095Y-98008333D01*
X94242857Y-97960714D01*
X94147619Y-97960714D01*
X93195238Y-97960714D02*
X92814285Y-97960714D01*
X93052380Y-98627380D02*
X93052380Y-97770238D01*
X93004761Y-97675000D01*
X92909523Y-97627380D01*
X92814285Y-97627380D01*
X92338095Y-98627380D02*
X92433333Y-98579761D01*
X92480952Y-98532142D01*
X92528571Y-98436904D01*
X92528571Y-98151190D01*
X92480952Y-98055952D01*
X92433333Y-98008333D01*
X92338095Y-97960714D01*
X92195238Y-97960714D01*
X92100000Y-98008333D01*
X92052380Y-98055952D01*
X92004761Y-98151190D01*
X92004761Y-98436904D01*
X92052380Y-98532142D01*
X92100000Y-98579761D01*
X92195238Y-98627380D01*
X92338095Y-98627380D01*
X91576190Y-98627380D02*
X91576190Y-97960714D01*
X91576190Y-98151190D02*
X91528571Y-98055952D01*
X91480952Y-98008333D01*
X91385714Y-97960714D01*
X91290476Y-97960714D01*
X90195238Y-98627380D02*
X90195238Y-97627380D01*
X89957142Y-97627380D01*
X89814285Y-97675000D01*
X89719047Y-97770238D01*
X89671428Y-97865476D01*
X89623809Y-98055952D01*
X89623809Y-98198809D01*
X89671428Y-98389285D01*
X89719047Y-98484523D01*
X89814285Y-98579761D01*
X89957142Y-98627380D01*
X90195238Y-98627380D01*
X89195238Y-98103571D02*
X88861904Y-98103571D01*
X88719047Y-98627380D02*
X89195238Y-98627380D01*
X89195238Y-97627380D01*
X88719047Y-97627380D01*
X88290476Y-98627380D02*
X88290476Y-97627380D01*
X88052380Y-97627380D01*
X87909523Y-97675000D01*
X87814285Y-97770238D01*
X87766666Y-97865476D01*
X87719047Y-98055952D01*
X87719047Y-98198809D01*
X87766666Y-98389285D01*
X87814285Y-98484523D01*
X87909523Y-98579761D01*
X88052380Y-98627380D01*
X88290476Y-98627380D01*
X87290476Y-98627380D02*
X87290476Y-97627380D01*
X86909523Y-97627380D01*
X86814285Y-97675000D01*
X86766666Y-97722619D01*
X86719047Y-97817857D01*
X86719047Y-97960714D01*
X86766666Y-98055952D01*
X86814285Y-98103571D01*
X86909523Y-98151190D01*
X87290476Y-98151190D01*
X86290476Y-98246428D02*
X85528571Y-98246428D01*
X84528571Y-98627380D02*
X85100000Y-98627380D01*
X84814285Y-98627380D02*
X84814285Y-97627380D01*
X84909523Y-97770238D01*
X85004761Y-97865476D01*
X85100000Y-97913095D01*
X83909523Y-97627380D02*
X83814285Y-97627380D01*
X83719047Y-97675000D01*
X83671428Y-97722619D01*
X83623809Y-97817857D01*
X83576190Y-98008333D01*
X83576190Y-98246428D01*
X83623809Y-98436904D01*
X83671428Y-98532142D01*
X83719047Y-98579761D01*
X83814285Y-98627380D01*
X83909523Y-98627380D01*
X84004761Y-98579761D01*
X84052380Y-98532142D01*
X84100000Y-98436904D01*
X84147619Y-98246428D01*
X84147619Y-98008333D01*
X84100000Y-97817857D01*
X84052380Y-97722619D01*
X84004761Y-97675000D01*
X83909523Y-97627380D01*
X82957142Y-97627380D02*
X82861904Y-97627380D01*
X82766666Y-97675000D01*
X82719047Y-97722619D01*
X82671428Y-97817857D01*
X82623809Y-98008333D01*
X82623809Y-98246428D01*
X82671428Y-98436904D01*
X82719047Y-98532142D01*
X82766666Y-98579761D01*
X82861904Y-98627380D01*
X82957142Y-98627380D01*
X83052380Y-98579761D01*
X83100000Y-98532142D01*
X83147619Y-98436904D01*
X83195238Y-98246428D01*
X83195238Y-98008333D01*
X83147619Y-97817857D01*
X83100000Y-97722619D01*
X83052380Y-97675000D01*
X82957142Y-97627380D01*
X82195238Y-98532142D02*
X82147619Y-98579761D01*
X82195238Y-98627380D01*
X82242857Y-98579761D01*
X82195238Y-98532142D01*
X82195238Y-98627380D01*
X97980952Y-101927380D02*
X98314285Y-101451190D01*
X98552380Y-101927380D02*
X98552380Y-100927380D01*
X98171428Y-100927380D01*
X98076190Y-100975000D01*
X98028571Y-101022619D01*
X97980952Y-101117857D01*
X97980952Y-101260714D01*
X98028571Y-101355952D01*
X98076190Y-101403571D01*
X98171428Y-101451190D01*
X98552380Y-101451190D01*
X97171428Y-101879761D02*
X97266666Y-101927380D01*
X97457142Y-101927380D01*
X97552380Y-101879761D01*
X97600000Y-101784523D01*
X97600000Y-101403571D01*
X97552380Y-101308333D01*
X97457142Y-101260714D01*
X97266666Y-101260714D01*
X97171428Y-101308333D01*
X97123809Y-101403571D01*
X97123809Y-101498809D01*
X97600000Y-101594047D01*
X96790476Y-101260714D02*
X96552380Y-101927380D01*
X96314285Y-101260714D01*
X94647619Y-101927380D02*
X95219047Y-101927380D01*
X94933333Y-101927380D02*
X94933333Y-100927380D01*
X95028571Y-101070238D01*
X95123809Y-101165476D01*
X95219047Y-101213095D01*
X94171428Y-101879761D02*
X94171428Y-101927380D01*
X94219047Y-102022619D01*
X94266666Y-102070238D01*
X92838095Y-101355952D02*
X92933333Y-101308333D01*
X92980952Y-101260714D01*
X93028571Y-101165476D01*
X93028571Y-101117857D01*
X92980952Y-101022619D01*
X92933333Y-100975000D01*
X92838095Y-100927380D01*
X92647619Y-100927380D01*
X92552380Y-100975000D01*
X92504761Y-101022619D01*
X92457142Y-101117857D01*
X92457142Y-101165476D01*
X92504761Y-101260714D01*
X92552380Y-101308333D01*
X92647619Y-101355952D01*
X92838095Y-101355952D01*
X92933333Y-101403571D01*
X92980952Y-101451190D01*
X93028571Y-101546428D01*
X93028571Y-101736904D01*
X92980952Y-101832142D01*
X92933333Y-101879761D01*
X92838095Y-101927380D01*
X92647619Y-101927380D01*
X92552380Y-101879761D01*
X92504761Y-101832142D01*
X92457142Y-101736904D01*
X92457142Y-101546428D01*
X92504761Y-101451190D01*
X92552380Y-101403571D01*
X92647619Y-101355952D01*
X91314285Y-100879761D02*
X92171428Y-102165476D01*
X91028571Y-101022619D02*
X90980952Y-100975000D01*
X90885714Y-100927380D01*
X90647619Y-100927380D01*
X90552380Y-100975000D01*
X90504761Y-101022619D01*
X90457142Y-101117857D01*
X90457142Y-101213095D01*
X90504761Y-101355952D01*
X91076190Y-101927380D01*
X90457142Y-101927380D01*
X89838095Y-100927380D02*
X89742857Y-100927380D01*
X89647619Y-100975000D01*
X89600000Y-101022619D01*
X89552380Y-101117857D01*
X89504761Y-101308333D01*
X89504761Y-101546428D01*
X89552380Y-101736904D01*
X89600000Y-101832142D01*
X89647619Y-101879761D01*
X89742857Y-101927380D01*
X89838095Y-101927380D01*
X89933333Y-101879761D01*
X89980952Y-101832142D01*
X90028571Y-101736904D01*
X90076190Y-101546428D01*
X90076190Y-101308333D01*
X90028571Y-101117857D01*
X89980952Y-101022619D01*
X89933333Y-100975000D01*
X89838095Y-100927380D01*
X89123809Y-101022619D02*
X89076190Y-100975000D01*
X88980952Y-100927380D01*
X88742857Y-100927380D01*
X88647619Y-100975000D01*
X88600000Y-101022619D01*
X88552380Y-101117857D01*
X88552380Y-101213095D01*
X88600000Y-101355952D01*
X89171428Y-101927380D01*
X88552380Y-101927380D01*
X87600000Y-101927380D02*
X88171428Y-101927380D01*
X87885714Y-101927380D02*
X87885714Y-100927380D01*
X87980952Y-101070238D01*
X88076190Y-101165476D01*
X88171428Y-101213095D01*
%LPC*%
D11*
G04 #@! TO.C,H4*
X107300000Y-114500000D03*
G04 #@! TD*
G04 #@! TO.C,H3*
X107600000Y-91500000D03*
G04 #@! TD*
G04 #@! TO.C,H2*
X86000000Y-114500000D03*
G04 #@! TD*
G04 #@! TO.C,H1*
X86000000Y-91500000D03*
G04 #@! TD*
D12*
G04 #@! TO.C,J1*
X76500000Y-113120000D03*
X76500000Y-108040000D03*
D13*
X76500000Y-92800000D03*
D12*
X76500000Y-102960000D03*
X76500000Y-97880000D03*
G04 #@! TD*
M02*
