G04 #@! TF.GenerationSoftware,KiCad,Pcbnew,5.1.9-73d0e3b20d~88~ubuntu20.04.1*
G04 #@! TF.CreationDate,2021-08-23T08:34:32+03:00*
G04 #@! TF.ProjectId,multirange_adapter,6d756c74-6972-4616-9e67-655f61646170,rev?*
G04 #@! TF.SameCoordinates,Original*
G04 #@! TF.FileFunction,Soldermask,Top*
G04 #@! TF.FilePolarity,Negative*
%FSLAX46Y46*%
G04 Gerber Fmt 4.6, Leading zero omitted, Abs format (unit mm)*
G04 Created by KiCad (PCBNEW 5.1.9-73d0e3b20d~88~ubuntu20.04.1) date 2021-08-23 08:34:32*
%MOMM*%
%LPD*%
G01*
G04 APERTURE LIST*
%ADD10C,0.350000*%
%ADD11R,2.600000X1.100000*%
%ADD12R,3.150000X1.000000*%
%ADD13C,5.500000*%
%ADD14C,3.000000*%
%ADD15R,3.000000X3.000000*%
%ADD16R,1.800000X2.500000*%
G04 APERTURE END LIST*
D10*
G04 #@! TO.C,J4*
G36*
X110250000Y-106600000D02*
G01*
X117750000Y-106600000D01*
X117750000Y-106950000D01*
X113050000Y-106950000D01*
X113050000Y-108150000D01*
X110250000Y-108150000D01*
X110250000Y-106600000D01*
G37*
G36*
X110250000Y-109650000D02*
G01*
X113050000Y-109650000D01*
X113050000Y-110850000D01*
X117750000Y-110850000D01*
X117750000Y-111200000D01*
X110250000Y-111200000D01*
X110250000Y-109650000D01*
G37*
D11*
X111550000Y-108900000D03*
G04 #@! TD*
D10*
G04 #@! TO.C,J3*
G36*
X110250000Y-95000000D02*
G01*
X117750000Y-95000000D01*
X117750000Y-95350000D01*
X113050000Y-95350000D01*
X113050000Y-96550000D01*
X110250000Y-96550000D01*
X110250000Y-95000000D01*
G37*
G36*
X110250000Y-98050000D02*
G01*
X113050000Y-98050000D01*
X113050000Y-99250000D01*
X117750000Y-99250000D01*
X117750000Y-99600000D01*
X110250000Y-99600000D01*
X110250000Y-98050000D01*
G37*
D11*
X111550000Y-97300000D03*
G04 #@! TD*
G04 #@! TO.C,C2*
G36*
G01*
X112256250Y-104250000D02*
X111743750Y-104250000D01*
G75*
G02*
X111525000Y-104031250I0J218750D01*
G01*
X111525000Y-103593750D01*
G75*
G02*
X111743750Y-103375000I218750J0D01*
G01*
X112256250Y-103375000D01*
G75*
G02*
X112475000Y-103593750I0J-218750D01*
G01*
X112475000Y-104031250D01*
G75*
G02*
X112256250Y-104250000I-218750J0D01*
G01*
G37*
G36*
G01*
X112256250Y-105825000D02*
X111743750Y-105825000D01*
G75*
G02*
X111525000Y-105606250I0J218750D01*
G01*
X111525000Y-105168750D01*
G75*
G02*
X111743750Y-104950000I218750J0D01*
G01*
X112256250Y-104950000D01*
G75*
G02*
X112475000Y-105168750I0J-218750D01*
G01*
X112475000Y-105606250D01*
G75*
G02*
X112256250Y-105825000I-218750J0D01*
G01*
G37*
G04 #@! TD*
G04 #@! TO.C,C1*
G36*
G01*
X111743750Y-101937500D02*
X112256250Y-101937500D01*
G75*
G02*
X112475000Y-102156250I0J-218750D01*
G01*
X112475000Y-102593750D01*
G75*
G02*
X112256250Y-102812500I-218750J0D01*
G01*
X111743750Y-102812500D01*
G75*
G02*
X111525000Y-102593750I0J218750D01*
G01*
X111525000Y-102156250D01*
G75*
G02*
X111743750Y-101937500I218750J0D01*
G01*
G37*
G36*
G01*
X111743750Y-100362500D02*
X112256250Y-100362500D01*
G75*
G02*
X112475000Y-100581250I0J-218750D01*
G01*
X112475000Y-101018750D01*
G75*
G02*
X112256250Y-101237500I-218750J0D01*
G01*
X111743750Y-101237500D01*
G75*
G02*
X111525000Y-101018750I0J218750D01*
G01*
X111525000Y-100581250D01*
G75*
G02*
X111743750Y-100362500I218750J0D01*
G01*
G37*
G04 #@! TD*
G04 #@! TO.C,R7*
G36*
G01*
X110756250Y-104250000D02*
X110243750Y-104250000D01*
G75*
G02*
X110025000Y-104031250I0J218750D01*
G01*
X110025000Y-103593750D01*
G75*
G02*
X110243750Y-103375000I218750J0D01*
G01*
X110756250Y-103375000D01*
G75*
G02*
X110975000Y-103593750I0J-218750D01*
G01*
X110975000Y-104031250D01*
G75*
G02*
X110756250Y-104250000I-218750J0D01*
G01*
G37*
G36*
G01*
X110756250Y-105825000D02*
X110243750Y-105825000D01*
G75*
G02*
X110025000Y-105606250I0J218750D01*
G01*
X110025000Y-105168750D01*
G75*
G02*
X110243750Y-104950000I218750J0D01*
G01*
X110756250Y-104950000D01*
G75*
G02*
X110975000Y-105168750I0J-218750D01*
G01*
X110975000Y-105606250D01*
G75*
G02*
X110756250Y-105825000I-218750J0D01*
G01*
G37*
G04 #@! TD*
G04 #@! TO.C,R6*
G36*
G01*
X110243750Y-101950000D02*
X110756250Y-101950000D01*
G75*
G02*
X110975000Y-102168750I0J-218750D01*
G01*
X110975000Y-102606250D01*
G75*
G02*
X110756250Y-102825000I-218750J0D01*
G01*
X110243750Y-102825000D01*
G75*
G02*
X110025000Y-102606250I0J218750D01*
G01*
X110025000Y-102168750D01*
G75*
G02*
X110243750Y-101950000I218750J0D01*
G01*
G37*
G36*
G01*
X110243750Y-100375000D02*
X110756250Y-100375000D01*
G75*
G02*
X110975000Y-100593750I0J-218750D01*
G01*
X110975000Y-101031250D01*
G75*
G02*
X110756250Y-101250000I-218750J0D01*
G01*
X110243750Y-101250000D01*
G75*
G02*
X110025000Y-101031250I0J218750D01*
G01*
X110025000Y-100593750D01*
G75*
G02*
X110243750Y-100375000I218750J0D01*
G01*
G37*
G04 #@! TD*
G04 #@! TO.C,R1*
G36*
G01*
X102056250Y-92850000D02*
X101543750Y-92850000D01*
G75*
G02*
X101325000Y-92631250I0J218750D01*
G01*
X101325000Y-92193750D01*
G75*
G02*
X101543750Y-91975000I218750J0D01*
G01*
X102056250Y-91975000D01*
G75*
G02*
X102275000Y-92193750I0J-218750D01*
G01*
X102275000Y-92631250D01*
G75*
G02*
X102056250Y-92850000I-218750J0D01*
G01*
G37*
G36*
G01*
X102056250Y-94425000D02*
X101543750Y-94425000D01*
G75*
G02*
X101325000Y-94206250I0J218750D01*
G01*
X101325000Y-93768750D01*
G75*
G02*
X101543750Y-93550000I218750J0D01*
G01*
X102056250Y-93550000D01*
G75*
G02*
X102275000Y-93768750I0J-218750D01*
G01*
X102275000Y-94206250D01*
G75*
G02*
X102056250Y-94425000I-218750J0D01*
G01*
G37*
G04 #@! TD*
D12*
G04 #@! TO.C,J2*
X87525000Y-107980000D03*
X82475000Y-107980000D03*
X87525000Y-105440000D03*
X82475000Y-105440000D03*
X87525000Y-102900000D03*
X82475000Y-102900000D03*
X87525000Y-100360000D03*
X82475000Y-100360000D03*
X87525000Y-97820000D03*
X82475000Y-97820000D03*
G04 #@! TD*
D13*
G04 #@! TO.C,H4*
X107300000Y-114500000D03*
G04 #@! TD*
G04 #@! TO.C,H3*
X107600000Y-91500000D03*
G04 #@! TD*
G04 #@! TO.C,H2*
X86000000Y-114500000D03*
G04 #@! TD*
G04 #@! TO.C,H1*
X86000000Y-91500000D03*
G04 #@! TD*
G04 #@! TO.C,R3*
G36*
G01*
X92275000Y-100074999D02*
X92275000Y-102925001D01*
G75*
G02*
X92025001Y-103175000I-249999J0D01*
G01*
X91174999Y-103175000D01*
G75*
G02*
X90925000Y-102925001I0J249999D01*
G01*
X90925000Y-100074999D01*
G75*
G02*
X91174999Y-99825000I249999J0D01*
G01*
X92025001Y-99825000D01*
G75*
G02*
X92275000Y-100074999I0J-249999D01*
G01*
G37*
G36*
G01*
X98075000Y-100074999D02*
X98075000Y-102925001D01*
G75*
G02*
X97825001Y-103175000I-249999J0D01*
G01*
X96974999Y-103175000D01*
G75*
G02*
X96725000Y-102925001I0J249999D01*
G01*
X96725000Y-100074999D01*
G75*
G02*
X96974999Y-99825000I249999J0D01*
G01*
X97825001Y-99825000D01*
G75*
G02*
X98075000Y-100074999I0J-249999D01*
G01*
G37*
G04 #@! TD*
G04 #@! TO.C,R5*
G36*
G01*
X91425000Y-108075000D02*
X91425000Y-109325000D01*
G75*
G02*
X91175000Y-109575000I-250000J0D01*
G01*
X90425000Y-109575000D01*
G75*
G02*
X90175000Y-109325000I0J250000D01*
G01*
X90175000Y-108075000D01*
G75*
G02*
X90425000Y-107825000I250000J0D01*
G01*
X91175000Y-107825000D01*
G75*
G02*
X91425000Y-108075000I0J-250000D01*
G01*
G37*
G36*
G01*
X94225000Y-108075000D02*
X94225000Y-109325000D01*
G75*
G02*
X93975000Y-109575000I-250000J0D01*
G01*
X93225000Y-109575000D01*
G75*
G02*
X92975000Y-109325000I0J250000D01*
G01*
X92975000Y-108075000D01*
G75*
G02*
X93225000Y-107825000I250000J0D01*
G01*
X93975000Y-107825000D01*
G75*
G02*
X94225000Y-108075000I0J-250000D01*
G01*
G37*
G04 #@! TD*
G04 #@! TO.C,R2*
G36*
G01*
X97575000Y-109325000D02*
X97575000Y-108075000D01*
G75*
G02*
X97825000Y-107825000I250000J0D01*
G01*
X98575000Y-107825000D01*
G75*
G02*
X98825000Y-108075000I0J-250000D01*
G01*
X98825000Y-109325000D01*
G75*
G02*
X98575000Y-109575000I-250000J0D01*
G01*
X97825000Y-109575000D01*
G75*
G02*
X97575000Y-109325000I0J250000D01*
G01*
G37*
G36*
G01*
X94775000Y-109325000D02*
X94775000Y-108075000D01*
G75*
G02*
X95025000Y-107825000I250000J0D01*
G01*
X95775000Y-107825000D01*
G75*
G02*
X96025000Y-108075000I0J-250000D01*
G01*
X96025000Y-109325000D01*
G75*
G02*
X95775000Y-109575000I-250000J0D01*
G01*
X95025000Y-109575000D01*
G75*
G02*
X94775000Y-109325000I0J250000D01*
G01*
G37*
G04 #@! TD*
G04 #@! TO.C,SW2*
G36*
G01*
X106400000Y-106400000D02*
X108300000Y-106400000D01*
G75*
G02*
X108600000Y-106700000I0J-300000D01*
G01*
X108600000Y-107300000D01*
G75*
G02*
X108300000Y-107600000I-300000J0D01*
G01*
X106400000Y-107600000D01*
G75*
G02*
X106100000Y-107300000I0J300000D01*
G01*
X106100000Y-106700000D01*
G75*
G02*
X106400000Y-106400000I300000J0D01*
G01*
G37*
G36*
G01*
X106400000Y-104400000D02*
X108300000Y-104400000D01*
G75*
G02*
X108600000Y-104700000I0J-300000D01*
G01*
X108600000Y-105300000D01*
G75*
G02*
X108300000Y-105600000I-300000J0D01*
G01*
X106400000Y-105600000D01*
G75*
G02*
X106100000Y-105300000I0J300000D01*
G01*
X106100000Y-104700000D01*
G75*
G02*
X106400000Y-104400000I300000J0D01*
G01*
G37*
G36*
G01*
X106400000Y-100400000D02*
X108300000Y-100400000D01*
G75*
G02*
X108600000Y-100700000I0J-300000D01*
G01*
X108600000Y-101300000D01*
G75*
G02*
X108300000Y-101600000I-300000J0D01*
G01*
X106400000Y-101600000D01*
G75*
G02*
X106100000Y-101300000I0J300000D01*
G01*
X106100000Y-100700000D01*
G75*
G02*
X106400000Y-100400000I300000J0D01*
G01*
G37*
G36*
G01*
X106400000Y-98400000D02*
X108300000Y-98400000D01*
G75*
G02*
X108600000Y-98700000I0J-300000D01*
G01*
X108600000Y-99300000D01*
G75*
G02*
X108300000Y-99600000I-300000J0D01*
G01*
X106400000Y-99600000D01*
G75*
G02*
X106100000Y-99300000I0J300000D01*
G01*
X106100000Y-98700000D01*
G75*
G02*
X106400000Y-98400000I300000J0D01*
G01*
G37*
G36*
G01*
X100900000Y-106400000D02*
X102800000Y-106400000D01*
G75*
G02*
X103100000Y-106700000I0J-300000D01*
G01*
X103100000Y-107300000D01*
G75*
G02*
X102800000Y-107600000I-300000J0D01*
G01*
X100900000Y-107600000D01*
G75*
G02*
X100600000Y-107300000I0J300000D01*
G01*
X100600000Y-106700000D01*
G75*
G02*
X100900000Y-106400000I300000J0D01*
G01*
G37*
G36*
G01*
X100900000Y-104400000D02*
X102800000Y-104400000D01*
G75*
G02*
X103100000Y-104700000I0J-300000D01*
G01*
X103100000Y-105300000D01*
G75*
G02*
X102800000Y-105600000I-300000J0D01*
G01*
X100900000Y-105600000D01*
G75*
G02*
X100600000Y-105300000I0J300000D01*
G01*
X100600000Y-104700000D01*
G75*
G02*
X100900000Y-104400000I300000J0D01*
G01*
G37*
G36*
G01*
X100900000Y-100400000D02*
X102800000Y-100400000D01*
G75*
G02*
X103100000Y-100700000I0J-300000D01*
G01*
X103100000Y-101300000D01*
G75*
G02*
X102800000Y-101600000I-300000J0D01*
G01*
X100900000Y-101600000D01*
G75*
G02*
X100600000Y-101300000I0J300000D01*
G01*
X100600000Y-100700000D01*
G75*
G02*
X100900000Y-100400000I300000J0D01*
G01*
G37*
G36*
G01*
X100900000Y-98400000D02*
X102800000Y-98400000D01*
G75*
G02*
X103100000Y-98700000I0J-300000D01*
G01*
X103100000Y-99300000D01*
G75*
G02*
X102800000Y-99600000I-300000J0D01*
G01*
X100900000Y-99600000D01*
G75*
G02*
X100600000Y-99300000I0J300000D01*
G01*
X100600000Y-98700000D01*
G75*
G02*
X100900000Y-98400000I300000J0D01*
G01*
G37*
G04 #@! TD*
G04 #@! TO.C,R4*
G36*
G01*
X92275000Y-104074999D02*
X92275000Y-106925001D01*
G75*
G02*
X92025001Y-107175000I-249999J0D01*
G01*
X91174999Y-107175000D01*
G75*
G02*
X90925000Y-106925001I0J249999D01*
G01*
X90925000Y-104074999D01*
G75*
G02*
X91174999Y-103825000I249999J0D01*
G01*
X92025001Y-103825000D01*
G75*
G02*
X92275000Y-104074999I0J-249999D01*
G01*
G37*
G36*
G01*
X98075000Y-104074999D02*
X98075000Y-106925001D01*
G75*
G02*
X97825001Y-107175000I-249999J0D01*
G01*
X96974999Y-107175000D01*
G75*
G02*
X96725000Y-106925001I0J249999D01*
G01*
X96725000Y-104074999D01*
G75*
G02*
X96974999Y-103825000I249999J0D01*
G01*
X97825001Y-103825000D01*
G75*
G02*
X98075000Y-104074999I0J-249999D01*
G01*
G37*
G04 #@! TD*
D14*
G04 #@! TO.C,J1*
X76500000Y-113120000D03*
X76500000Y-108040000D03*
D15*
X76500000Y-92800000D03*
D14*
X76500000Y-102960000D03*
X76500000Y-97880000D03*
G04 #@! TD*
G04 #@! TO.C,F1*
G36*
G01*
X97600000Y-98400000D02*
X97600000Y-98000000D01*
G75*
G02*
X97800000Y-97800000I200000J0D01*
G01*
X99000000Y-97800000D01*
G75*
G02*
X99200000Y-98000000I0J-200000D01*
G01*
X99200000Y-98400000D01*
G75*
G02*
X99000000Y-98600000I-200000J0D01*
G01*
X97800000Y-98600000D01*
G75*
G02*
X97600000Y-98400000I0J200000D01*
G01*
G37*
G36*
G01*
X97600000Y-97000000D02*
X97600000Y-96600000D01*
G75*
G02*
X97800000Y-96400000I200000J0D01*
G01*
X99000000Y-96400000D01*
G75*
G02*
X99200000Y-96600000I0J-200000D01*
G01*
X99200000Y-97000000D01*
G75*
G02*
X99000000Y-97200000I-200000J0D01*
G01*
X97800000Y-97200000D01*
G75*
G02*
X97600000Y-97000000I0J200000D01*
G01*
G37*
G36*
G01*
X90200000Y-98400000D02*
X90200000Y-98000000D01*
G75*
G02*
X90400000Y-97800000I200000J0D01*
G01*
X91600000Y-97800000D01*
G75*
G02*
X91800000Y-98000000I0J-200000D01*
G01*
X91800000Y-98400000D01*
G75*
G02*
X91600000Y-98600000I-200000J0D01*
G01*
X90400000Y-98600000D01*
G75*
G02*
X90200000Y-98400000I0J200000D01*
G01*
G37*
G36*
G01*
X90200000Y-97000000D02*
X90200000Y-96600000D01*
G75*
G02*
X90400000Y-96400000I200000J0D01*
G01*
X91600000Y-96400000D01*
G75*
G02*
X91800000Y-96600000I0J-200000D01*
G01*
X91800000Y-97000000D01*
G75*
G02*
X91600000Y-97200000I-200000J0D01*
G01*
X90400000Y-97200000D01*
G75*
G02*
X90200000Y-97000000I0J200000D01*
G01*
G37*
G04 #@! TD*
D16*
G04 #@! TO.C,D6*
X101500000Y-115500000D03*
X101500000Y-111500000D03*
G04 #@! TD*
G04 #@! TO.C,D4*
X98000000Y-115500000D03*
X98000000Y-111500000D03*
G04 #@! TD*
G04 #@! TO.C,D2*
X93500000Y-94000000D03*
X93500000Y-90000000D03*
G04 #@! TD*
G04 #@! TO.C,D5*
X91000000Y-111500000D03*
X91000000Y-115500000D03*
G04 #@! TD*
G04 #@! TO.C,D3*
X94500000Y-111500000D03*
X94500000Y-115500000D03*
G04 #@! TD*
G04 #@! TO.C,D1*
X97500000Y-90000000D03*
X97500000Y-94000000D03*
G04 #@! TD*
M02*
