M48
METRIC
T1C0.400
%
G90
G05
T1
X82.3Y-76.0
X82.3Y-81.08
X82.3Y-86.16
X82.3Y-91.24
X82.3Y-96.32
X82.3Y-101.4
X82.3Y-106.48
X82.3Y-111.56
X82.3Y-116.64
X82.3Y-121.72
X109.66Y-76.0
X109.66Y-81.08
X109.66Y-86.16
X109.66Y-91.24
X109.66Y-96.32
X109.66Y-101.4
X109.66Y-106.48
X109.66Y-111.56
X109.66Y-116.64
X109.66Y-121.72
T0
M30
