G04 #@! TF.GenerationSoftware,KiCad,Pcbnew,5.1.9-73d0e3b20d~88~ubuntu20.04.1*
G04 #@! TF.CreationDate,2021-06-04T14:41:47+03:00*
G04 #@! TF.ProjectId,cable_to_square_pin,6361626c-655f-4746-9f5f-737175617265,rev?*
G04 #@! TF.SameCoordinates,Original*
G04 #@! TF.FileFunction,Profile,NP*
%FSLAX46Y46*%
G04 Gerber Fmt 4.6, Leading zero omitted, Abs format (unit mm)*
G04 Created by KiCad (PCBNEW 5.1.9-73d0e3b20d~88~ubuntu20.04.1) date 2021-06-04 14:41:47*
%MOMM*%
%LPD*%
G01*
G04 APERTURE LIST*
G04 #@! TA.AperFunction,Profile*
%ADD10C,0.050000*%
G04 #@! TD*
G04 APERTURE END LIST*
D10*
X99960000Y-120720000D02*
G75*
G02*
X99960000Y-117640000I0J1540000D01*
G01*
X99960000Y-115640000D02*
G75*
G02*
X99960000Y-112560000I0J1540000D01*
G01*
X99960000Y-110560000D02*
G75*
G02*
X99960000Y-107480000I0J1540000D01*
G01*
X99960000Y-105480000D02*
G75*
G02*
X99960000Y-102400000I0J1540000D01*
G01*
X99960000Y-100400000D02*
G75*
G02*
X99960000Y-97320000I0J1540000D01*
G01*
X99960000Y-95320000D02*
G75*
G02*
X99960000Y-92240000I0J1540000D01*
G01*
X99960000Y-90240000D02*
G75*
G02*
X99960000Y-87160000I0J1540000D01*
G01*
X99960000Y-85160000D02*
G75*
G02*
X99960000Y-82080000I0J1540000D01*
G01*
X99960000Y-80080000D02*
G75*
G02*
X99960000Y-77000000I0J1540000D01*
G01*
X92000000Y-117640000D02*
G75*
G02*
X92000000Y-120720000I0J-1540000D01*
G01*
X92000000Y-112560000D02*
G75*
G02*
X92000000Y-115640000I0J-1540000D01*
G01*
X92000000Y-107480000D02*
G75*
G02*
X92000000Y-110560000I0J-1540000D01*
G01*
X92000000Y-102400000D02*
G75*
G02*
X92000000Y-105480000I0J-1540000D01*
G01*
X92000000Y-97320000D02*
G75*
G02*
X92000000Y-100400000I0J-1540000D01*
G01*
X92000000Y-87160000D02*
G75*
G02*
X92000000Y-90240000I0J-1540000D01*
G01*
X92000000Y-92240000D02*
G75*
G02*
X92000000Y-95320000I0J-1540000D01*
G01*
X92000000Y-82080000D02*
G75*
G02*
X92000000Y-85160000I0J-1540000D01*
G01*
X92000000Y-77000000D02*
G75*
G02*
X92000000Y-80080000I0J-1540000D01*
G01*
X92000000Y-122720000D02*
X99960000Y-122720000D01*
X99960000Y-75000000D02*
X92000000Y-75000000D01*
X99960000Y-97320000D02*
X112060000Y-97320000D01*
X99960000Y-77000000D02*
X112060000Y-77000000D01*
X112060000Y-97320000D02*
X112060000Y-95320000D01*
X99960000Y-107480000D02*
X112060000Y-107480000D01*
X112060000Y-80080000D02*
X99960000Y-80080000D01*
X112060000Y-115640000D02*
X99960000Y-115640000D01*
X99960000Y-82080000D02*
X112060000Y-82080000D01*
X112060000Y-112560000D02*
X112060000Y-110560000D01*
X112060000Y-77000000D02*
X112060000Y-75000000D01*
X112060000Y-85160000D02*
X99960000Y-85160000D01*
X112060000Y-110560000D02*
X99960000Y-110560000D01*
X112060000Y-82080000D02*
X112060000Y-80080000D01*
X99960000Y-102400000D02*
X112060000Y-102400000D01*
X112060000Y-90240000D02*
X99960000Y-90240000D01*
X112060000Y-75000000D02*
X99960000Y-75000000D01*
X99960000Y-92240000D02*
X112060000Y-92240000D01*
X112060000Y-100400000D02*
X99960000Y-100400000D01*
X99960000Y-112560000D02*
X112060000Y-112560000D01*
X112060000Y-95320000D02*
X99960000Y-95320000D01*
X99960000Y-117640000D02*
X112060000Y-117640000D01*
X112060000Y-107480000D02*
X112060000Y-105480000D01*
X112060000Y-105480000D02*
X99960000Y-105480000D01*
X112060000Y-87160000D02*
X112060000Y-85160000D01*
X112060000Y-122720000D02*
X112060000Y-120720000D01*
X112060000Y-102400000D02*
X112060000Y-100400000D01*
X112060000Y-117640000D02*
X112060000Y-115640000D01*
X99960000Y-122720000D02*
X112060000Y-122720000D01*
X112060000Y-120720000D02*
X99960000Y-120720000D01*
X112060000Y-92240000D02*
X112060000Y-90240000D01*
X99960000Y-87160000D02*
X112060000Y-87160000D01*
X92000000Y-115640000D02*
X79900000Y-115640000D01*
X79900000Y-115640000D02*
X79900000Y-117640000D01*
X92000000Y-110560000D02*
X79900000Y-110560000D01*
X79900000Y-122720000D02*
X92000000Y-122720000D01*
X92000000Y-120720000D02*
X79900000Y-120720000D01*
X79900000Y-112560000D02*
X92000000Y-112560000D01*
X79900000Y-117640000D02*
X92000000Y-117640000D01*
X79900000Y-110560000D02*
X79900000Y-112560000D01*
X79900000Y-120720000D02*
X79900000Y-122720000D01*
X92000000Y-105480000D02*
X79900000Y-105480000D01*
X79900000Y-97320000D02*
X92000000Y-97320000D01*
X79900000Y-100400000D02*
X79900000Y-102400000D01*
X79900000Y-102400000D02*
X92000000Y-102400000D01*
X92000000Y-100400000D02*
X79900000Y-100400000D01*
X92000000Y-95320000D02*
X79900000Y-95320000D01*
X79900000Y-105480000D02*
X79900000Y-107480000D01*
X79900000Y-107480000D02*
X92000000Y-107480000D01*
X79900000Y-95320000D02*
X79900000Y-97320000D01*
X79900000Y-90240000D02*
X79900000Y-92240000D01*
X79900000Y-92240000D02*
X92000000Y-92240000D01*
X92000000Y-90240000D02*
X79900000Y-90240000D01*
X79900000Y-87160000D02*
X92000000Y-87160000D01*
X92000000Y-85160000D02*
X79900000Y-85160000D01*
X79900000Y-85160000D02*
X79900000Y-87160000D01*
X79900000Y-80080000D02*
X79900000Y-82080000D01*
X92000000Y-80080000D02*
X79900000Y-80080000D01*
X79900000Y-82080000D02*
X92000000Y-82080000D01*
X79900000Y-77000000D02*
X92000000Y-77000000D01*
X79900000Y-75000000D02*
X79900000Y-77000000D01*
X92000000Y-75000000D02*
X79900000Y-75000000D01*
M02*
