G04 #@! TF.GenerationSoftware,KiCad,Pcbnew,5.1.9-73d0e3b20d~88~ubuntu20.04.1*
G04 #@! TF.CreationDate,2021-08-23T08:35:41+03:00*
G04 #@! TF.ProjectId,multirange_frontplate,6d756c74-6972-4616-9e67-655f66726f6e,rev?*
G04 #@! TF.SameCoordinates,Original*
G04 #@! TF.FileFunction,Profile,NP*
%FSLAX46Y46*%
G04 Gerber Fmt 4.6, Leading zero omitted, Abs format (unit mm)*
G04 Created by KiCad (PCBNEW 5.1.9-73d0e3b20d~88~ubuntu20.04.1) date 2021-08-23 08:35:41*
%MOMM*%
%LPD*%
G01*
G04 APERTURE LIST*
G04 #@! TA.AperFunction,Profile*
%ADD10C,0.050000*%
G04 #@! TD*
G04 APERTURE END LIST*
D10*
X105500000Y-106000000D02*
G75*
G02*
X105000000Y-106500000I-500000J0D01*
G01*
X104000000Y-106500000D02*
G75*
G02*
X103500000Y-106000000I0J500000D01*
G01*
X105000000Y-99500000D02*
G75*
G02*
X105500000Y-100000000I0J-500000D01*
G01*
X103500000Y-100000000D02*
G75*
G02*
X104000000Y-99500000I500000J0D01*
G01*
X88000000Y-109500000D02*
G75*
G02*
X87500000Y-110000000I-500000J0D01*
G01*
X82500000Y-110000000D02*
G75*
G02*
X82000000Y-109500000I0J500000D01*
G01*
X82000000Y-96500000D02*
G75*
G02*
X82500000Y-96000000I500000J0D01*
G01*
X87500000Y-96000000D02*
G75*
G02*
X88000000Y-96500000I0J-500000D01*
G01*
X80000000Y-90000000D02*
G75*
G02*
X80500000Y-90500000I0J-500000D01*
G01*
X80500000Y-115500000D02*
G75*
G02*
X80000000Y-116000000I-500000J0D01*
G01*
X103500000Y-100000000D02*
X103500000Y-106000000D01*
X105000000Y-99500000D02*
X104000000Y-99500000D01*
X105500000Y-106000000D02*
X105500000Y-100000000D01*
X104000000Y-106500000D02*
X105000000Y-106500000D01*
X72500000Y-89000000D02*
X72500000Y-89500000D01*
X72500000Y-117000000D02*
X72500000Y-116500000D01*
X72500000Y-116500000D02*
G75*
G02*
X73000000Y-116000000I500000J0D01*
G01*
X73000000Y-90000000D02*
G75*
G02*
X72500000Y-89500000I0J500000D01*
G01*
X80000000Y-90000000D02*
X73000000Y-90000000D01*
X80500000Y-115500000D02*
X80500000Y-90500000D01*
X73000000Y-116000000D02*
X80000000Y-116000000D01*
X87500000Y-110000000D02*
X82500000Y-110000000D01*
X88000000Y-96500000D02*
X88000000Y-109500000D01*
X82500000Y-96000000D02*
X87500000Y-96000000D01*
X82000000Y-109500000D02*
X82000000Y-96500000D01*
X116000000Y-118000000D02*
X117000000Y-118000000D01*
X118000000Y-95000000D02*
X118000000Y-117000000D01*
X118000000Y-89000000D02*
X118000000Y-95000000D01*
X117000000Y-88000000D02*
G75*
G02*
X118000000Y-89000000I0J-1000000D01*
G01*
X118000000Y-117000000D02*
G75*
G02*
X117000000Y-118000000I-1000000J0D01*
G01*
X73500000Y-118000000D02*
G75*
G02*
X72500000Y-117000000I0J1000000D01*
G01*
X72500000Y-89000000D02*
G75*
G02*
X73500000Y-88000000I1000000J0D01*
G01*
X73500000Y-88000000D02*
X117000000Y-88000000D01*
X73500000Y-118000000D02*
X116000000Y-118000000D01*
M02*
