G04 #@! TF.GenerationSoftware,KiCad,Pcbnew,5.1.9-73d0e3b20d~88~ubuntu20.04.1*
G04 #@! TF.CreationDate,2021-08-23T08:35:41+03:00*
G04 #@! TF.ProjectId,multirange_frontplate,6d756c74-6972-4616-9e67-655f66726f6e,rev?*
G04 #@! TF.SameCoordinates,Original*
G04 #@! TF.FileFunction,Copper,L2,Bot*
G04 #@! TF.FilePolarity,Positive*
%FSLAX46Y46*%
G04 Gerber Fmt 4.6, Leading zero omitted, Abs format (unit mm)*
G04 Created by KiCad (PCBNEW 5.1.9-73d0e3b20d~88~ubuntu20.04.1) date 2021-08-23 08:35:41*
%MOMM*%
%LPD*%
G01*
G04 APERTURE LIST*
G04 #@! TA.AperFunction,ComponentPad*
%ADD10C,5.500000*%
G04 #@! TD*
G04 #@! TA.AperFunction,Conductor*
%ADD11C,0.254000*%
G04 #@! TD*
G04 #@! TA.AperFunction,Conductor*
%ADD12C,0.350000*%
G04 #@! TD*
%ADD13C,0.350000*%
G04 APERTURE END LIST*
D10*
G04 #@! TO.P,H4,1*
G04 #@! TO.N,GND*
X107300000Y-114500000D03*
G04 #@! TD*
G04 #@! TO.P,H3,1*
G04 #@! TO.N,GND*
X107600000Y-91500000D03*
G04 #@! TD*
G04 #@! TO.P,H2,1*
G04 #@! TO.N,GND*
X86000000Y-114500000D03*
G04 #@! TD*
G04 #@! TO.P,H1,1*
G04 #@! TO.N,GND*
X86000000Y-91500000D03*
G04 #@! TD*
D11*
G04 #@! TO.N,GND*
X117106022Y-88464563D02*
X117207999Y-88495353D01*
X117302061Y-88545366D01*
X117384613Y-88612694D01*
X117452515Y-88694774D01*
X117503182Y-88788481D01*
X117534684Y-88890245D01*
X117548000Y-89016939D01*
X117548001Y-94977786D01*
X117548000Y-94977796D01*
X117548001Y-116977881D01*
X117535436Y-117106023D01*
X117504648Y-117207999D01*
X117454634Y-117302061D01*
X117387307Y-117384612D01*
X117305227Y-117452515D01*
X117211520Y-117503182D01*
X117109755Y-117534684D01*
X116983062Y-117548000D01*
X73522109Y-117548000D01*
X73393977Y-117535436D01*
X73292001Y-117504648D01*
X73197939Y-117454634D01*
X73115388Y-117387307D01*
X73047485Y-117305227D01*
X72996818Y-117211520D01*
X72965316Y-117109755D01*
X72952000Y-116983062D01*
X72952000Y-116522106D01*
X72955040Y-116491098D01*
X72957626Y-116482532D01*
X72961823Y-116474640D01*
X72967480Y-116467704D01*
X72974373Y-116462002D01*
X72982239Y-116457749D01*
X72990784Y-116455103D01*
X73020312Y-116452000D01*
X80022205Y-116452000D01*
X80041427Y-116450107D01*
X80044456Y-116450128D01*
X80050737Y-116449512D01*
X80147786Y-116439312D01*
X80187917Y-116431074D01*
X80228157Y-116423398D01*
X80234199Y-116421574D01*
X80327418Y-116392718D01*
X80365211Y-116376831D01*
X80403170Y-116361495D01*
X80408732Y-116358538D01*
X80408740Y-116358534D01*
X80408747Y-116358529D01*
X80494580Y-116312119D01*
X80528526Y-116289222D01*
X80562822Y-116266779D01*
X80567707Y-116262794D01*
X80567713Y-116262790D01*
X80567718Y-116262785D01*
X80642901Y-116200589D01*
X80671781Y-116171507D01*
X80701035Y-116142860D01*
X80705058Y-116137997D01*
X80705061Y-116137994D01*
X80705063Y-116137990D01*
X80766734Y-116062376D01*
X80789412Y-116028243D01*
X80812553Y-115994447D01*
X80815545Y-115988911D01*
X80815552Y-115988901D01*
X80815556Y-115988891D01*
X80861366Y-115902734D01*
X80876962Y-115864896D01*
X80893115Y-115827208D01*
X80894981Y-115821179D01*
X80923186Y-115727761D01*
X80931148Y-115687552D01*
X80939661Y-115647499D01*
X80940321Y-115641223D01*
X80949843Y-115544105D01*
X80952000Y-115522205D01*
X80952000Y-109522204D01*
X81548000Y-109522204D01*
X81549893Y-109541426D01*
X81549872Y-109544456D01*
X81550488Y-109550737D01*
X81560688Y-109647786D01*
X81568926Y-109687917D01*
X81576602Y-109728157D01*
X81578426Y-109734199D01*
X81607282Y-109827418D01*
X81623169Y-109865211D01*
X81638505Y-109903170D01*
X81641462Y-109908732D01*
X81641466Y-109908740D01*
X81641471Y-109908747D01*
X81687881Y-109994580D01*
X81710778Y-110028526D01*
X81733221Y-110062822D01*
X81737206Y-110067707D01*
X81737210Y-110067713D01*
X81737215Y-110067718D01*
X81799411Y-110142901D01*
X81828493Y-110171781D01*
X81857140Y-110201035D01*
X81862003Y-110205058D01*
X81862006Y-110205061D01*
X81862010Y-110205063D01*
X81937624Y-110266734D01*
X81971757Y-110289412D01*
X82005553Y-110312553D01*
X82011089Y-110315545D01*
X82011099Y-110315552D01*
X82011109Y-110315556D01*
X82097266Y-110361366D01*
X82135104Y-110376962D01*
X82172792Y-110393115D01*
X82178821Y-110394981D01*
X82272239Y-110423186D01*
X82312448Y-110431148D01*
X82352501Y-110439661D01*
X82358771Y-110440320D01*
X82358774Y-110440321D01*
X82358777Y-110440321D01*
X82455895Y-110449843D01*
X82477795Y-110452000D01*
X87522205Y-110452000D01*
X87541427Y-110450107D01*
X87544456Y-110450128D01*
X87550737Y-110449512D01*
X87647786Y-110439312D01*
X87687917Y-110431074D01*
X87728157Y-110423398D01*
X87734199Y-110421574D01*
X87827418Y-110392718D01*
X87865211Y-110376831D01*
X87903170Y-110361495D01*
X87908732Y-110358538D01*
X87908740Y-110358534D01*
X87908747Y-110358529D01*
X87994580Y-110312119D01*
X88028526Y-110289222D01*
X88062822Y-110266779D01*
X88067707Y-110262794D01*
X88067713Y-110262790D01*
X88067718Y-110262785D01*
X88142901Y-110200589D01*
X88171781Y-110171507D01*
X88201035Y-110142860D01*
X88205058Y-110137997D01*
X88205061Y-110137994D01*
X88205063Y-110137990D01*
X88266734Y-110062376D01*
X88289412Y-110028243D01*
X88312553Y-109994447D01*
X88315545Y-109988911D01*
X88315552Y-109988901D01*
X88315556Y-109988891D01*
X88361366Y-109902734D01*
X88376962Y-109864896D01*
X88393115Y-109827208D01*
X88394981Y-109821179D01*
X88423186Y-109727761D01*
X88431148Y-109687552D01*
X88439661Y-109647499D01*
X88440321Y-109641223D01*
X88449843Y-109544105D01*
X88452000Y-109522205D01*
X88452000Y-99977796D01*
X103048000Y-99977796D01*
X103048001Y-106022205D01*
X103049893Y-106041417D01*
X103049872Y-106044456D01*
X103050488Y-106050737D01*
X103060688Y-106147786D01*
X103068926Y-106187917D01*
X103076602Y-106228157D01*
X103078426Y-106234199D01*
X103107282Y-106327418D01*
X103123169Y-106365211D01*
X103138505Y-106403170D01*
X103141462Y-106408732D01*
X103141466Y-106408740D01*
X103141471Y-106408747D01*
X103187881Y-106494580D01*
X103210778Y-106528526D01*
X103233221Y-106562822D01*
X103237206Y-106567707D01*
X103237210Y-106567713D01*
X103237215Y-106567718D01*
X103299411Y-106642901D01*
X103328493Y-106671781D01*
X103357140Y-106701035D01*
X103362003Y-106705058D01*
X103362006Y-106705061D01*
X103362010Y-106705063D01*
X103437624Y-106766734D01*
X103471757Y-106789412D01*
X103505553Y-106812553D01*
X103511089Y-106815545D01*
X103511099Y-106815552D01*
X103511109Y-106815556D01*
X103597266Y-106861366D01*
X103635104Y-106876962D01*
X103672792Y-106893115D01*
X103678821Y-106894981D01*
X103772239Y-106923186D01*
X103812448Y-106931148D01*
X103852501Y-106939661D01*
X103858771Y-106940320D01*
X103858774Y-106940321D01*
X103858777Y-106940321D01*
X103955895Y-106949843D01*
X103977795Y-106952000D01*
X105022205Y-106952000D01*
X105041427Y-106950107D01*
X105044456Y-106950128D01*
X105050737Y-106949512D01*
X105147786Y-106939312D01*
X105187917Y-106931074D01*
X105228157Y-106923398D01*
X105234199Y-106921574D01*
X105327418Y-106892718D01*
X105365211Y-106876831D01*
X105403170Y-106861495D01*
X105408732Y-106858538D01*
X105408740Y-106858534D01*
X105408747Y-106858529D01*
X105494580Y-106812119D01*
X105528526Y-106789222D01*
X105562822Y-106766779D01*
X105567707Y-106762794D01*
X105567713Y-106762790D01*
X105567718Y-106762785D01*
X105642901Y-106700589D01*
X105671781Y-106671507D01*
X105701035Y-106642860D01*
X105705058Y-106637997D01*
X105705061Y-106637994D01*
X105705063Y-106637990D01*
X105766734Y-106562376D01*
X105789412Y-106528243D01*
X105812553Y-106494447D01*
X105815545Y-106488911D01*
X105815552Y-106488901D01*
X105815556Y-106488891D01*
X105861366Y-106402734D01*
X105876962Y-106364896D01*
X105893115Y-106327208D01*
X105894981Y-106321179D01*
X105923186Y-106227761D01*
X105931148Y-106187552D01*
X105939661Y-106147499D01*
X105940321Y-106141223D01*
X105949843Y-106044105D01*
X105952000Y-106022205D01*
X105952000Y-99977795D01*
X105950107Y-99958573D01*
X105950128Y-99955544D01*
X105949512Y-99949263D01*
X105939312Y-99852215D01*
X105931077Y-99812097D01*
X105923398Y-99771843D01*
X105921574Y-99765801D01*
X105892718Y-99672582D01*
X105876831Y-99634789D01*
X105861495Y-99596830D01*
X105858532Y-99591257D01*
X105812119Y-99505420D01*
X105789212Y-99471458D01*
X105766779Y-99437178D01*
X105762798Y-99432298D01*
X105762790Y-99432286D01*
X105762781Y-99432277D01*
X105700588Y-99357099D01*
X105671526Y-99328238D01*
X105642860Y-99298965D01*
X105637997Y-99294942D01*
X105637994Y-99294939D01*
X105637990Y-99294937D01*
X105562376Y-99233266D01*
X105528240Y-99210586D01*
X105494446Y-99187447D01*
X105488895Y-99184445D01*
X105402734Y-99138634D01*
X105364896Y-99123038D01*
X105327208Y-99106885D01*
X105321179Y-99105019D01*
X105227761Y-99076814D01*
X105187566Y-99068855D01*
X105147500Y-99060339D01*
X105141229Y-99059680D01*
X105141226Y-99059679D01*
X105141223Y-99059679D01*
X105044106Y-99050157D01*
X105044105Y-99050157D01*
X105022205Y-99048000D01*
X103977795Y-99048000D01*
X103958573Y-99049893D01*
X103955544Y-99049872D01*
X103949263Y-99050488D01*
X103852215Y-99060688D01*
X103812097Y-99068923D01*
X103771843Y-99076602D01*
X103765801Y-99078426D01*
X103672582Y-99107282D01*
X103634789Y-99123169D01*
X103596830Y-99138505D01*
X103591264Y-99141464D01*
X103591260Y-99141466D01*
X103591257Y-99141468D01*
X103505420Y-99187881D01*
X103471458Y-99210788D01*
X103437178Y-99233221D01*
X103432298Y-99237202D01*
X103432286Y-99237210D01*
X103432277Y-99237219D01*
X103357099Y-99299412D01*
X103328238Y-99328474D01*
X103298965Y-99357140D01*
X103294942Y-99362003D01*
X103294939Y-99362006D01*
X103294937Y-99362009D01*
X103233266Y-99437624D01*
X103210586Y-99471760D01*
X103187447Y-99505554D01*
X103184445Y-99511105D01*
X103138634Y-99597266D01*
X103123038Y-99635104D01*
X103106885Y-99672792D01*
X103105019Y-99678821D01*
X103076814Y-99772239D01*
X103068855Y-99812434D01*
X103060339Y-99852500D01*
X103059679Y-99858777D01*
X103050157Y-99955894D01*
X103048000Y-99977796D01*
X88452000Y-99977796D01*
X88452000Y-96477795D01*
X88450107Y-96458573D01*
X88450128Y-96455544D01*
X88449512Y-96449263D01*
X88439312Y-96352215D01*
X88431077Y-96312097D01*
X88423398Y-96271843D01*
X88421574Y-96265801D01*
X88392718Y-96172582D01*
X88376831Y-96134789D01*
X88361495Y-96096830D01*
X88358532Y-96091257D01*
X88312119Y-96005420D01*
X88289212Y-95971458D01*
X88266779Y-95937178D01*
X88262798Y-95932298D01*
X88262790Y-95932286D01*
X88262781Y-95932277D01*
X88200588Y-95857099D01*
X88171526Y-95828238D01*
X88142860Y-95798965D01*
X88137997Y-95794942D01*
X88137994Y-95794939D01*
X88137990Y-95794937D01*
X88062376Y-95733266D01*
X88028240Y-95710586D01*
X87994446Y-95687447D01*
X87988895Y-95684445D01*
X87902734Y-95638634D01*
X87864896Y-95623038D01*
X87827208Y-95606885D01*
X87821179Y-95605019D01*
X87727761Y-95576814D01*
X87687566Y-95568855D01*
X87647500Y-95560339D01*
X87641229Y-95559680D01*
X87641226Y-95559679D01*
X87641223Y-95559679D01*
X87544106Y-95550157D01*
X87544105Y-95550157D01*
X87522205Y-95548000D01*
X82477795Y-95548000D01*
X82458573Y-95549893D01*
X82455544Y-95549872D01*
X82449263Y-95550488D01*
X82352215Y-95560688D01*
X82312097Y-95568923D01*
X82271843Y-95576602D01*
X82265801Y-95578426D01*
X82172582Y-95607282D01*
X82134789Y-95623169D01*
X82096830Y-95638505D01*
X82091264Y-95641464D01*
X82091260Y-95641466D01*
X82091257Y-95641468D01*
X82005420Y-95687881D01*
X81971458Y-95710788D01*
X81937178Y-95733221D01*
X81932298Y-95737202D01*
X81932286Y-95737210D01*
X81932277Y-95737219D01*
X81857099Y-95799412D01*
X81828238Y-95828474D01*
X81798965Y-95857140D01*
X81794942Y-95862003D01*
X81794939Y-95862006D01*
X81794937Y-95862009D01*
X81733266Y-95937624D01*
X81710586Y-95971760D01*
X81687447Y-96005554D01*
X81684445Y-96011105D01*
X81638634Y-96097266D01*
X81623038Y-96135104D01*
X81606885Y-96172792D01*
X81605019Y-96178821D01*
X81576814Y-96272239D01*
X81568855Y-96312434D01*
X81560339Y-96352500D01*
X81559679Y-96358777D01*
X81550157Y-96455894D01*
X81550157Y-96455905D01*
X81548001Y-96477795D01*
X81548000Y-109522204D01*
X80952000Y-109522204D01*
X80952000Y-90477795D01*
X80950107Y-90458573D01*
X80950128Y-90455544D01*
X80949512Y-90449263D01*
X80939312Y-90352215D01*
X80931077Y-90312097D01*
X80923398Y-90271843D01*
X80921574Y-90265801D01*
X80892718Y-90172582D01*
X80876831Y-90134789D01*
X80861495Y-90096830D01*
X80858532Y-90091257D01*
X80812119Y-90005420D01*
X80789212Y-89971458D01*
X80766779Y-89937178D01*
X80762798Y-89932298D01*
X80762790Y-89932286D01*
X80762781Y-89932277D01*
X80700588Y-89857099D01*
X80671526Y-89828238D01*
X80642860Y-89798965D01*
X80637997Y-89794942D01*
X80637994Y-89794939D01*
X80637990Y-89794937D01*
X80562376Y-89733266D01*
X80528240Y-89710586D01*
X80494446Y-89687447D01*
X80488895Y-89684445D01*
X80402734Y-89638634D01*
X80364896Y-89623038D01*
X80327208Y-89606885D01*
X80321179Y-89605019D01*
X80227761Y-89576814D01*
X80187566Y-89568855D01*
X80147500Y-89560339D01*
X80141229Y-89559680D01*
X80141226Y-89559679D01*
X80141223Y-89559679D01*
X80044106Y-89550157D01*
X80044105Y-89550157D01*
X80022205Y-89548000D01*
X73022106Y-89548000D01*
X72991098Y-89544960D01*
X72982535Y-89542374D01*
X72974638Y-89538176D01*
X72967703Y-89532519D01*
X72962004Y-89525630D01*
X72957748Y-89517760D01*
X72955103Y-89509216D01*
X72952000Y-89479689D01*
X72952000Y-89022109D01*
X72964563Y-88893978D01*
X72995353Y-88792001D01*
X73045366Y-88697939D01*
X73112694Y-88615387D01*
X73194774Y-88547485D01*
X73288481Y-88496818D01*
X73390245Y-88465316D01*
X73516938Y-88452000D01*
X116977891Y-88452000D01*
X117106022Y-88464563D01*
G04 #@! TA.AperFunction,Conductor*
D12*
G36*
X117106022Y-88464563D02*
G01*
X117207999Y-88495353D01*
X117302061Y-88545366D01*
X117384613Y-88612694D01*
X117452515Y-88694774D01*
X117503182Y-88788481D01*
X117534684Y-88890245D01*
X117548000Y-89016939D01*
X117548001Y-94977786D01*
X117548000Y-94977796D01*
X117548001Y-116977881D01*
X117535436Y-117106023D01*
X117504648Y-117207999D01*
X117454634Y-117302061D01*
X117387307Y-117384612D01*
X117305227Y-117452515D01*
X117211520Y-117503182D01*
X117109755Y-117534684D01*
X116983062Y-117548000D01*
X73522109Y-117548000D01*
X73393977Y-117535436D01*
X73292001Y-117504648D01*
X73197939Y-117454634D01*
X73115388Y-117387307D01*
X73047485Y-117305227D01*
X72996818Y-117211520D01*
X72965316Y-117109755D01*
X72952000Y-116983062D01*
X72952000Y-116522106D01*
X72955040Y-116491098D01*
X72957626Y-116482532D01*
X72961823Y-116474640D01*
X72967480Y-116467704D01*
X72974373Y-116462002D01*
X72982239Y-116457749D01*
X72990784Y-116455103D01*
X73020312Y-116452000D01*
X80022205Y-116452000D01*
X80041427Y-116450107D01*
X80044456Y-116450128D01*
X80050737Y-116449512D01*
X80147786Y-116439312D01*
X80187917Y-116431074D01*
X80228157Y-116423398D01*
X80234199Y-116421574D01*
X80327418Y-116392718D01*
X80365211Y-116376831D01*
X80403170Y-116361495D01*
X80408732Y-116358538D01*
X80408740Y-116358534D01*
X80408747Y-116358529D01*
X80494580Y-116312119D01*
X80528526Y-116289222D01*
X80562822Y-116266779D01*
X80567707Y-116262794D01*
X80567713Y-116262790D01*
X80567718Y-116262785D01*
X80642901Y-116200589D01*
X80671781Y-116171507D01*
X80701035Y-116142860D01*
X80705058Y-116137997D01*
X80705061Y-116137994D01*
X80705063Y-116137990D01*
X80766734Y-116062376D01*
X80789412Y-116028243D01*
X80812553Y-115994447D01*
X80815545Y-115988911D01*
X80815552Y-115988901D01*
X80815556Y-115988891D01*
X80861366Y-115902734D01*
X80876962Y-115864896D01*
X80893115Y-115827208D01*
X80894981Y-115821179D01*
X80923186Y-115727761D01*
X80931148Y-115687552D01*
X80939661Y-115647499D01*
X80940321Y-115641223D01*
X80949843Y-115544105D01*
X80952000Y-115522205D01*
X80952000Y-109522204D01*
X81548000Y-109522204D01*
X81549893Y-109541426D01*
X81549872Y-109544456D01*
X81550488Y-109550737D01*
X81560688Y-109647786D01*
X81568926Y-109687917D01*
X81576602Y-109728157D01*
X81578426Y-109734199D01*
X81607282Y-109827418D01*
X81623169Y-109865211D01*
X81638505Y-109903170D01*
X81641462Y-109908732D01*
X81641466Y-109908740D01*
X81641471Y-109908747D01*
X81687881Y-109994580D01*
X81710778Y-110028526D01*
X81733221Y-110062822D01*
X81737206Y-110067707D01*
X81737210Y-110067713D01*
X81737215Y-110067718D01*
X81799411Y-110142901D01*
X81828493Y-110171781D01*
X81857140Y-110201035D01*
X81862003Y-110205058D01*
X81862006Y-110205061D01*
X81862010Y-110205063D01*
X81937624Y-110266734D01*
X81971757Y-110289412D01*
X82005553Y-110312553D01*
X82011089Y-110315545D01*
X82011099Y-110315552D01*
X82011109Y-110315556D01*
X82097266Y-110361366D01*
X82135104Y-110376962D01*
X82172792Y-110393115D01*
X82178821Y-110394981D01*
X82272239Y-110423186D01*
X82312448Y-110431148D01*
X82352501Y-110439661D01*
X82358771Y-110440320D01*
X82358774Y-110440321D01*
X82358777Y-110440321D01*
X82455895Y-110449843D01*
X82477795Y-110452000D01*
X87522205Y-110452000D01*
X87541427Y-110450107D01*
X87544456Y-110450128D01*
X87550737Y-110449512D01*
X87647786Y-110439312D01*
X87687917Y-110431074D01*
X87728157Y-110423398D01*
X87734199Y-110421574D01*
X87827418Y-110392718D01*
X87865211Y-110376831D01*
X87903170Y-110361495D01*
X87908732Y-110358538D01*
X87908740Y-110358534D01*
X87908747Y-110358529D01*
X87994580Y-110312119D01*
X88028526Y-110289222D01*
X88062822Y-110266779D01*
X88067707Y-110262794D01*
X88067713Y-110262790D01*
X88067718Y-110262785D01*
X88142901Y-110200589D01*
X88171781Y-110171507D01*
X88201035Y-110142860D01*
X88205058Y-110137997D01*
X88205061Y-110137994D01*
X88205063Y-110137990D01*
X88266734Y-110062376D01*
X88289412Y-110028243D01*
X88312553Y-109994447D01*
X88315545Y-109988911D01*
X88315552Y-109988901D01*
X88315556Y-109988891D01*
X88361366Y-109902734D01*
X88376962Y-109864896D01*
X88393115Y-109827208D01*
X88394981Y-109821179D01*
X88423186Y-109727761D01*
X88431148Y-109687552D01*
X88439661Y-109647499D01*
X88440321Y-109641223D01*
X88449843Y-109544105D01*
X88452000Y-109522205D01*
X88452000Y-99977796D01*
X103048000Y-99977796D01*
X103048001Y-106022205D01*
X103049893Y-106041417D01*
X103049872Y-106044456D01*
X103050488Y-106050737D01*
X103060688Y-106147786D01*
X103068926Y-106187917D01*
X103076602Y-106228157D01*
X103078426Y-106234199D01*
X103107282Y-106327418D01*
X103123169Y-106365211D01*
X103138505Y-106403170D01*
X103141462Y-106408732D01*
X103141466Y-106408740D01*
X103141471Y-106408747D01*
X103187881Y-106494580D01*
X103210778Y-106528526D01*
X103233221Y-106562822D01*
X103237206Y-106567707D01*
X103237210Y-106567713D01*
X103237215Y-106567718D01*
X103299411Y-106642901D01*
X103328493Y-106671781D01*
X103357140Y-106701035D01*
X103362003Y-106705058D01*
X103362006Y-106705061D01*
X103362010Y-106705063D01*
X103437624Y-106766734D01*
X103471757Y-106789412D01*
X103505553Y-106812553D01*
X103511089Y-106815545D01*
X103511099Y-106815552D01*
X103511109Y-106815556D01*
X103597266Y-106861366D01*
X103635104Y-106876962D01*
X103672792Y-106893115D01*
X103678821Y-106894981D01*
X103772239Y-106923186D01*
X103812448Y-106931148D01*
X103852501Y-106939661D01*
X103858771Y-106940320D01*
X103858774Y-106940321D01*
X103858777Y-106940321D01*
X103955895Y-106949843D01*
X103977795Y-106952000D01*
X105022205Y-106952000D01*
X105041427Y-106950107D01*
X105044456Y-106950128D01*
X105050737Y-106949512D01*
X105147786Y-106939312D01*
X105187917Y-106931074D01*
X105228157Y-106923398D01*
X105234199Y-106921574D01*
X105327418Y-106892718D01*
X105365211Y-106876831D01*
X105403170Y-106861495D01*
X105408732Y-106858538D01*
X105408740Y-106858534D01*
X105408747Y-106858529D01*
X105494580Y-106812119D01*
X105528526Y-106789222D01*
X105562822Y-106766779D01*
X105567707Y-106762794D01*
X105567713Y-106762790D01*
X105567718Y-106762785D01*
X105642901Y-106700589D01*
X105671781Y-106671507D01*
X105701035Y-106642860D01*
X105705058Y-106637997D01*
X105705061Y-106637994D01*
X105705063Y-106637990D01*
X105766734Y-106562376D01*
X105789412Y-106528243D01*
X105812553Y-106494447D01*
X105815545Y-106488911D01*
X105815552Y-106488901D01*
X105815556Y-106488891D01*
X105861366Y-106402734D01*
X105876962Y-106364896D01*
X105893115Y-106327208D01*
X105894981Y-106321179D01*
X105923186Y-106227761D01*
X105931148Y-106187552D01*
X105939661Y-106147499D01*
X105940321Y-106141223D01*
X105949843Y-106044105D01*
X105952000Y-106022205D01*
X105952000Y-99977795D01*
X105950107Y-99958573D01*
X105950128Y-99955544D01*
X105949512Y-99949263D01*
X105939312Y-99852215D01*
X105931077Y-99812097D01*
X105923398Y-99771843D01*
X105921574Y-99765801D01*
X105892718Y-99672582D01*
X105876831Y-99634789D01*
X105861495Y-99596830D01*
X105858532Y-99591257D01*
X105812119Y-99505420D01*
X105789212Y-99471458D01*
X105766779Y-99437178D01*
X105762798Y-99432298D01*
X105762790Y-99432286D01*
X105762781Y-99432277D01*
X105700588Y-99357099D01*
X105671526Y-99328238D01*
X105642860Y-99298965D01*
X105637997Y-99294942D01*
X105637994Y-99294939D01*
X105637990Y-99294937D01*
X105562376Y-99233266D01*
X105528240Y-99210586D01*
X105494446Y-99187447D01*
X105488895Y-99184445D01*
X105402734Y-99138634D01*
X105364896Y-99123038D01*
X105327208Y-99106885D01*
X105321179Y-99105019D01*
X105227761Y-99076814D01*
X105187566Y-99068855D01*
X105147500Y-99060339D01*
X105141229Y-99059680D01*
X105141226Y-99059679D01*
X105141223Y-99059679D01*
X105044106Y-99050157D01*
X105044105Y-99050157D01*
X105022205Y-99048000D01*
X103977795Y-99048000D01*
X103958573Y-99049893D01*
X103955544Y-99049872D01*
X103949263Y-99050488D01*
X103852215Y-99060688D01*
X103812097Y-99068923D01*
X103771843Y-99076602D01*
X103765801Y-99078426D01*
X103672582Y-99107282D01*
X103634789Y-99123169D01*
X103596830Y-99138505D01*
X103591264Y-99141464D01*
X103591260Y-99141466D01*
X103591257Y-99141468D01*
X103505420Y-99187881D01*
X103471458Y-99210788D01*
X103437178Y-99233221D01*
X103432298Y-99237202D01*
X103432286Y-99237210D01*
X103432277Y-99237219D01*
X103357099Y-99299412D01*
X103328238Y-99328474D01*
X103298965Y-99357140D01*
X103294942Y-99362003D01*
X103294939Y-99362006D01*
X103294937Y-99362009D01*
X103233266Y-99437624D01*
X103210586Y-99471760D01*
X103187447Y-99505554D01*
X103184445Y-99511105D01*
X103138634Y-99597266D01*
X103123038Y-99635104D01*
X103106885Y-99672792D01*
X103105019Y-99678821D01*
X103076814Y-99772239D01*
X103068855Y-99812434D01*
X103060339Y-99852500D01*
X103059679Y-99858777D01*
X103050157Y-99955894D01*
X103048000Y-99977796D01*
X88452000Y-99977796D01*
X88452000Y-96477795D01*
X88450107Y-96458573D01*
X88450128Y-96455544D01*
X88449512Y-96449263D01*
X88439312Y-96352215D01*
X88431077Y-96312097D01*
X88423398Y-96271843D01*
X88421574Y-96265801D01*
X88392718Y-96172582D01*
X88376831Y-96134789D01*
X88361495Y-96096830D01*
X88358532Y-96091257D01*
X88312119Y-96005420D01*
X88289212Y-95971458D01*
X88266779Y-95937178D01*
X88262798Y-95932298D01*
X88262790Y-95932286D01*
X88262781Y-95932277D01*
X88200588Y-95857099D01*
X88171526Y-95828238D01*
X88142860Y-95798965D01*
X88137997Y-95794942D01*
X88137994Y-95794939D01*
X88137990Y-95794937D01*
X88062376Y-95733266D01*
X88028240Y-95710586D01*
X87994446Y-95687447D01*
X87988895Y-95684445D01*
X87902734Y-95638634D01*
X87864896Y-95623038D01*
X87827208Y-95606885D01*
X87821179Y-95605019D01*
X87727761Y-95576814D01*
X87687566Y-95568855D01*
X87647500Y-95560339D01*
X87641229Y-95559680D01*
X87641226Y-95559679D01*
X87641223Y-95559679D01*
X87544106Y-95550157D01*
X87544105Y-95550157D01*
X87522205Y-95548000D01*
X82477795Y-95548000D01*
X82458573Y-95549893D01*
X82455544Y-95549872D01*
X82449263Y-95550488D01*
X82352215Y-95560688D01*
X82312097Y-95568923D01*
X82271843Y-95576602D01*
X82265801Y-95578426D01*
X82172582Y-95607282D01*
X82134789Y-95623169D01*
X82096830Y-95638505D01*
X82091264Y-95641464D01*
X82091260Y-95641466D01*
X82091257Y-95641468D01*
X82005420Y-95687881D01*
X81971458Y-95710788D01*
X81937178Y-95733221D01*
X81932298Y-95737202D01*
X81932286Y-95737210D01*
X81932277Y-95737219D01*
X81857099Y-95799412D01*
X81828238Y-95828474D01*
X81798965Y-95857140D01*
X81794942Y-95862003D01*
X81794939Y-95862006D01*
X81794937Y-95862009D01*
X81733266Y-95937624D01*
X81710586Y-95971760D01*
X81687447Y-96005554D01*
X81684445Y-96011105D01*
X81638634Y-96097266D01*
X81623038Y-96135104D01*
X81606885Y-96172792D01*
X81605019Y-96178821D01*
X81576814Y-96272239D01*
X81568855Y-96312434D01*
X81560339Y-96352500D01*
X81559679Y-96358777D01*
X81550157Y-96455894D01*
X81550157Y-96455905D01*
X81548001Y-96477795D01*
X81548000Y-109522204D01*
X80952000Y-109522204D01*
X80952000Y-90477795D01*
X80950107Y-90458573D01*
X80950128Y-90455544D01*
X80949512Y-90449263D01*
X80939312Y-90352215D01*
X80931077Y-90312097D01*
X80923398Y-90271843D01*
X80921574Y-90265801D01*
X80892718Y-90172582D01*
X80876831Y-90134789D01*
X80861495Y-90096830D01*
X80858532Y-90091257D01*
X80812119Y-90005420D01*
X80789212Y-89971458D01*
X80766779Y-89937178D01*
X80762798Y-89932298D01*
X80762790Y-89932286D01*
X80762781Y-89932277D01*
X80700588Y-89857099D01*
X80671526Y-89828238D01*
X80642860Y-89798965D01*
X80637997Y-89794942D01*
X80637994Y-89794939D01*
X80637990Y-89794937D01*
X80562376Y-89733266D01*
X80528240Y-89710586D01*
X80494446Y-89687447D01*
X80488895Y-89684445D01*
X80402734Y-89638634D01*
X80364896Y-89623038D01*
X80327208Y-89606885D01*
X80321179Y-89605019D01*
X80227761Y-89576814D01*
X80187566Y-89568855D01*
X80147500Y-89560339D01*
X80141229Y-89559680D01*
X80141226Y-89559679D01*
X80141223Y-89559679D01*
X80044106Y-89550157D01*
X80044105Y-89550157D01*
X80022205Y-89548000D01*
X73022106Y-89548000D01*
X72991098Y-89544960D01*
X72982535Y-89542374D01*
X72974638Y-89538176D01*
X72967703Y-89532519D01*
X72962004Y-89525630D01*
X72957748Y-89517760D01*
X72955103Y-89509216D01*
X72952000Y-89479689D01*
X72952000Y-89022109D01*
X72964563Y-88893978D01*
X72995353Y-88792001D01*
X73045366Y-88697939D01*
X73112694Y-88615387D01*
X73194774Y-88547485D01*
X73288481Y-88496818D01*
X73390245Y-88465316D01*
X73516938Y-88452000D01*
X116977891Y-88452000D01*
X117106022Y-88464563D01*
G37*
G04 #@! TD.AperFunction*
G04 #@! TD*
D13*
X107300000Y-114500000D03*
X107600000Y-91500000D03*
X86000000Y-114500000D03*
X86000000Y-91500000D03*
M02*
