G04 #@! TF.GenerationSoftware,KiCad,Pcbnew,5.1.9-73d0e3b20d~88~ubuntu20.04.1*
G04 #@! TF.CreationDate,2021-08-23T08:35:41+03:00*
G04 #@! TF.ProjectId,multirange_frontplate,6d756c74-6972-4616-9e67-655f66726f6e,rev?*
G04 #@! TF.SameCoordinates,Original*
G04 #@! TF.FileFunction,Legend,Bot*
G04 #@! TF.FilePolarity,Positive*
%FSLAX46Y46*%
G04 Gerber Fmt 4.6, Leading zero omitted, Abs format (unit mm)*
G04 Created by KiCad (PCBNEW 5.1.9-73d0e3b20d~88~ubuntu20.04.1) date 2021-08-23 08:35:41*
%MOMM*%
%LPD*%
G01*
G04 APERTURE LIST*
%ADD10C,0.150000*%
%ADD11C,5.500000*%
G04 APERTURE END LIST*
D10*
X105119047Y-96452380D02*
X105119047Y-97166666D01*
X105166666Y-97309523D01*
X105261904Y-97404761D01*
X105404761Y-97452380D01*
X105500000Y-97452380D01*
X104166666Y-97452380D02*
X104642857Y-97452380D01*
X104642857Y-96452380D01*
X103261904Y-97357142D02*
X103309523Y-97404761D01*
X103452380Y-97452380D01*
X103547619Y-97452380D01*
X103690476Y-97404761D01*
X103785714Y-97309523D01*
X103833333Y-97214285D01*
X103880952Y-97023809D01*
X103880952Y-96880952D01*
X103833333Y-96690476D01*
X103785714Y-96595238D01*
X103690476Y-96500000D01*
X103547619Y-96452380D01*
X103452380Y-96452380D01*
X103309523Y-96500000D01*
X103261904Y-96547619D01*
X102547619Y-96452380D02*
X102547619Y-97166666D01*
X102595238Y-97309523D01*
X102690476Y-97404761D01*
X102833333Y-97452380D01*
X102928571Y-97452380D01*
X101595238Y-97452380D02*
X102071428Y-97452380D01*
X102071428Y-96452380D01*
X100690476Y-97357142D02*
X100738095Y-97404761D01*
X100880952Y-97452380D01*
X100976190Y-97452380D01*
X101119047Y-97404761D01*
X101214285Y-97309523D01*
X101261904Y-97214285D01*
X101309523Y-97023809D01*
X101309523Y-96880952D01*
X101261904Y-96690476D01*
X101214285Y-96595238D01*
X101119047Y-96500000D01*
X100976190Y-96452380D01*
X100880952Y-96452380D01*
X100738095Y-96500000D01*
X100690476Y-96547619D01*
X99976190Y-96452380D02*
X99976190Y-97166666D01*
X100023809Y-97309523D01*
X100119047Y-97404761D01*
X100261904Y-97452380D01*
X100357142Y-97452380D01*
X99023809Y-97452380D02*
X99500000Y-97452380D01*
X99500000Y-96452380D01*
X98119047Y-97357142D02*
X98166666Y-97404761D01*
X98309523Y-97452380D01*
X98404761Y-97452380D01*
X98547619Y-97404761D01*
X98642857Y-97309523D01*
X98690476Y-97214285D01*
X98738095Y-97023809D01*
X98738095Y-96880952D01*
X98690476Y-96690476D01*
X98642857Y-96595238D01*
X98547619Y-96500000D01*
X98404761Y-96452380D01*
X98309523Y-96452380D01*
X98166666Y-96500000D01*
X98119047Y-96547619D01*
X97404761Y-96452380D02*
X97404761Y-97166666D01*
X97452380Y-97309523D01*
X97547619Y-97404761D01*
X97690476Y-97452380D01*
X97785714Y-97452380D01*
X96452380Y-97452380D02*
X96928571Y-97452380D01*
X96928571Y-96452380D01*
X95547619Y-97357142D02*
X95595238Y-97404761D01*
X95738095Y-97452380D01*
X95833333Y-97452380D01*
X95976190Y-97404761D01*
X96071428Y-97309523D01*
X96119047Y-97214285D01*
X96166666Y-97023809D01*
X96166666Y-96880952D01*
X96119047Y-96690476D01*
X96071428Y-96595238D01*
X95976190Y-96500000D01*
X95833333Y-96452380D01*
X95738095Y-96452380D01*
X95595238Y-96500000D01*
X95547619Y-96547619D01*
%LPC*%
D11*
G04 #@! TO.C,H4*
X107300000Y-114500000D03*
G04 #@! TD*
G04 #@! TO.C,H3*
X107600000Y-91500000D03*
G04 #@! TD*
G04 #@! TO.C,H2*
X86000000Y-114500000D03*
G04 #@! TD*
G04 #@! TO.C,H1*
X86000000Y-91500000D03*
G04 #@! TD*
M02*
