G04 #@! TF.GenerationSoftware,KiCad,Pcbnew,5.1.9-73d0e3b20d~88~ubuntu20.04.1*
G04 #@! TF.CreationDate,2021-06-04T14:43:21+03:00*
G04 #@! TF.ProjectId,cable_to_banana,6361626c-655f-4746-9f5f-62616e616e61,rev?*
G04 #@! TF.SameCoordinates,Original*
G04 #@! TF.FileFunction,Copper,L1,Top*
G04 #@! TF.FilePolarity,Positive*
%FSLAX46Y46*%
G04 Gerber Fmt 4.6, Leading zero omitted, Abs format (unit mm)*
G04 Created by KiCad (PCBNEW 5.1.9-73d0e3b20d~88~ubuntu20.04.1) date 2021-06-04 14:43:21*
%MOMM*%
%LPD*%
G01*
G04 APERTURE LIST*
G04 #@! TA.AperFunction,ViaPad*
%ADD10C,0.800000*%
G04 #@! TD*
G04 #@! TA.AperFunction,Conductor*
%ADD11C,0.500000*%
G04 #@! TD*
G04 #@! TA.AperFunction,Conductor*
%ADD12C,0.700000*%
G04 #@! TD*
G04 #@! TA.AperFunction,Conductor*
%ADD13C,0.600000*%
G04 #@! TD*
%ADD14C,0.350000*%
G04 APERTURE END LIST*
G04 #@! TO.P,R5,2*
G04 #@! TO.N,Net-(C4-Pad1)*
G04 #@! TA.AperFunction,SMDPad,CuDef*
G36*
G01*
X133650000Y-108465000D02*
X133650000Y-109935000D01*
G75*
G02*
X133510000Y-110075000I-140000J0D01*
G01*
X133090000Y-110075000D01*
G75*
G02*
X132950000Y-109935000I0J140000D01*
G01*
X132950000Y-108465000D01*
G75*
G02*
X133090000Y-108325000I140000J0D01*
G01*
X133510000Y-108325000D01*
G75*
G02*
X133650000Y-108465000I0J-140000D01*
G01*
G37*
G04 #@! TD.AperFunction*
G04 #@! TO.P,R5,1*
G04 #@! TO.N,Net-(C5-Pad1)*
G04 #@! TA.AperFunction,SMDPad,CuDef*
G36*
G01*
X136450000Y-108465000D02*
X136450000Y-109935000D01*
G75*
G02*
X136310000Y-110075000I-140000J0D01*
G01*
X135890000Y-110075000D01*
G75*
G02*
X135750000Y-109935000I0J140000D01*
G01*
X135750000Y-108465000D01*
G75*
G02*
X135890000Y-108325000I140000J0D01*
G01*
X136310000Y-108325000D01*
G75*
G02*
X136450000Y-108465000I0J-140000D01*
G01*
G37*
G04 #@! TD.AperFunction*
G04 #@! TD*
G04 #@! TO.P,R4,2*
G04 #@! TO.N,Net-(C3-Pad1)*
G04 #@! TA.AperFunction,SMDPad,CuDef*
G36*
G01*
X130250000Y-108465000D02*
X130250000Y-109935000D01*
G75*
G02*
X130110000Y-110075000I-140000J0D01*
G01*
X129690000Y-110075000D01*
G75*
G02*
X129550000Y-109935000I0J140000D01*
G01*
X129550000Y-108465000D01*
G75*
G02*
X129690000Y-108325000I140000J0D01*
G01*
X130110000Y-108325000D01*
G75*
G02*
X130250000Y-108465000I0J-140000D01*
G01*
G37*
G04 #@! TD.AperFunction*
G04 #@! TO.P,R4,1*
G04 #@! TO.N,Net-(C4-Pad1)*
G04 #@! TA.AperFunction,SMDPad,CuDef*
G36*
G01*
X133050000Y-108465000D02*
X133050000Y-109935000D01*
G75*
G02*
X132910000Y-110075000I-140000J0D01*
G01*
X132490000Y-110075000D01*
G75*
G02*
X132350000Y-109935000I0J140000D01*
G01*
X132350000Y-108465000D01*
G75*
G02*
X132490000Y-108325000I140000J0D01*
G01*
X132910000Y-108325000D01*
G75*
G02*
X133050000Y-108465000I0J-140000D01*
G01*
G37*
G04 #@! TD.AperFunction*
G04 #@! TD*
G04 #@! TO.P,R3,2*
G04 #@! TO.N,Net-(C2-Pad1)*
G04 #@! TA.AperFunction,SMDPad,CuDef*
G36*
G01*
X126850000Y-108465000D02*
X126850000Y-109935000D01*
G75*
G02*
X126710000Y-110075000I-140000J0D01*
G01*
X126290000Y-110075000D01*
G75*
G02*
X126150000Y-109935000I0J140000D01*
G01*
X126150000Y-108465000D01*
G75*
G02*
X126290000Y-108325000I140000J0D01*
G01*
X126710000Y-108325000D01*
G75*
G02*
X126850000Y-108465000I0J-140000D01*
G01*
G37*
G04 #@! TD.AperFunction*
G04 #@! TO.P,R3,1*
G04 #@! TO.N,Net-(C3-Pad1)*
G04 #@! TA.AperFunction,SMDPad,CuDef*
G36*
G01*
X129650000Y-108465000D02*
X129650000Y-109935000D01*
G75*
G02*
X129510000Y-110075000I-140000J0D01*
G01*
X129090000Y-110075000D01*
G75*
G02*
X128950000Y-109935000I0J140000D01*
G01*
X128950000Y-108465000D01*
G75*
G02*
X129090000Y-108325000I140000J0D01*
G01*
X129510000Y-108325000D01*
G75*
G02*
X129650000Y-108465000I0J-140000D01*
G01*
G37*
G04 #@! TD.AperFunction*
G04 #@! TD*
G04 #@! TO.P,R2,2*
G04 #@! TO.N,Net-(C1-Pad1)*
G04 #@! TA.AperFunction,SMDPad,CuDef*
G36*
G01*
X123450000Y-108465000D02*
X123450000Y-109935000D01*
G75*
G02*
X123310000Y-110075000I-140000J0D01*
G01*
X122890000Y-110075000D01*
G75*
G02*
X122750000Y-109935000I0J140000D01*
G01*
X122750000Y-108465000D01*
G75*
G02*
X122890000Y-108325000I140000J0D01*
G01*
X123310000Y-108325000D01*
G75*
G02*
X123450000Y-108465000I0J-140000D01*
G01*
G37*
G04 #@! TD.AperFunction*
G04 #@! TO.P,R2,1*
G04 #@! TO.N,Net-(C2-Pad1)*
G04 #@! TA.AperFunction,SMDPad,CuDef*
G36*
G01*
X126250000Y-108465000D02*
X126250000Y-109935000D01*
G75*
G02*
X126110000Y-110075000I-140000J0D01*
G01*
X125690000Y-110075000D01*
G75*
G02*
X125550000Y-109935000I0J140000D01*
G01*
X125550000Y-108465000D01*
G75*
G02*
X125690000Y-108325000I140000J0D01*
G01*
X126110000Y-108325000D01*
G75*
G02*
X126250000Y-108465000I0J-140000D01*
G01*
G37*
G04 #@! TD.AperFunction*
G04 #@! TD*
G04 #@! TO.P,R1,2*
G04 #@! TO.N,Net-(C1-Pad2)*
G04 #@! TA.AperFunction,SMDPad,CuDef*
G36*
G01*
X120050000Y-108465000D02*
X120050000Y-109935000D01*
G75*
G02*
X119910000Y-110075000I-140000J0D01*
G01*
X119490000Y-110075000D01*
G75*
G02*
X119350000Y-109935000I0J140000D01*
G01*
X119350000Y-108465000D01*
G75*
G02*
X119490000Y-108325000I140000J0D01*
G01*
X119910000Y-108325000D01*
G75*
G02*
X120050000Y-108465000I0J-140000D01*
G01*
G37*
G04 #@! TD.AperFunction*
G04 #@! TO.P,R1,1*
G04 #@! TO.N,Net-(C1-Pad1)*
G04 #@! TA.AperFunction,SMDPad,CuDef*
G36*
G01*
X122850000Y-108465000D02*
X122850000Y-109935000D01*
G75*
G02*
X122710000Y-110075000I-140000J0D01*
G01*
X122290000Y-110075000D01*
G75*
G02*
X122150000Y-109935000I0J140000D01*
G01*
X122150000Y-108465000D01*
G75*
G02*
X122290000Y-108325000I140000J0D01*
G01*
X122710000Y-108325000D01*
G75*
G02*
X122850000Y-108465000I0J-140000D01*
G01*
G37*
G04 #@! TD.AperFunction*
G04 #@! TD*
G04 #@! TO.P,C5,2*
G04 #@! TO.N,Net-(C4-Pad1)*
G04 #@! TA.AperFunction,SMDPad,CuDef*
G36*
G01*
X133650000Y-106065000D02*
X133650000Y-107535000D01*
G75*
G02*
X133510000Y-107675000I-140000J0D01*
G01*
X133090000Y-107675000D01*
G75*
G02*
X132950000Y-107535000I0J140000D01*
G01*
X132950000Y-106065000D01*
G75*
G02*
X133090000Y-105925000I140000J0D01*
G01*
X133510000Y-105925000D01*
G75*
G02*
X133650000Y-106065000I0J-140000D01*
G01*
G37*
G04 #@! TD.AperFunction*
G04 #@! TO.P,C5,1*
G04 #@! TO.N,Net-(C5-Pad1)*
G04 #@! TA.AperFunction,SMDPad,CuDef*
G36*
G01*
X136450000Y-106065000D02*
X136450000Y-107535000D01*
G75*
G02*
X136310000Y-107675000I-140000J0D01*
G01*
X135890000Y-107675000D01*
G75*
G02*
X135750000Y-107535000I0J140000D01*
G01*
X135750000Y-106065000D01*
G75*
G02*
X135890000Y-105925000I140000J0D01*
G01*
X136310000Y-105925000D01*
G75*
G02*
X136450000Y-106065000I0J-140000D01*
G01*
G37*
G04 #@! TD.AperFunction*
G04 #@! TD*
G04 #@! TO.P,C4,2*
G04 #@! TO.N,Net-(C3-Pad1)*
G04 #@! TA.AperFunction,SMDPad,CuDef*
G36*
G01*
X130250000Y-106065000D02*
X130250000Y-107535000D01*
G75*
G02*
X130110000Y-107675000I-140000J0D01*
G01*
X129690000Y-107675000D01*
G75*
G02*
X129550000Y-107535000I0J140000D01*
G01*
X129550000Y-106065000D01*
G75*
G02*
X129690000Y-105925000I140000J0D01*
G01*
X130110000Y-105925000D01*
G75*
G02*
X130250000Y-106065000I0J-140000D01*
G01*
G37*
G04 #@! TD.AperFunction*
G04 #@! TO.P,C4,1*
G04 #@! TO.N,Net-(C4-Pad1)*
G04 #@! TA.AperFunction,SMDPad,CuDef*
G36*
G01*
X133050000Y-106065000D02*
X133050000Y-107535000D01*
G75*
G02*
X132910000Y-107675000I-140000J0D01*
G01*
X132490000Y-107675000D01*
G75*
G02*
X132350000Y-107535000I0J140000D01*
G01*
X132350000Y-106065000D01*
G75*
G02*
X132490000Y-105925000I140000J0D01*
G01*
X132910000Y-105925000D01*
G75*
G02*
X133050000Y-106065000I0J-140000D01*
G01*
G37*
G04 #@! TD.AperFunction*
G04 #@! TD*
G04 #@! TO.P,C3,2*
G04 #@! TO.N,Net-(C2-Pad1)*
G04 #@! TA.AperFunction,SMDPad,CuDef*
G36*
G01*
X126850000Y-106065000D02*
X126850000Y-107535000D01*
G75*
G02*
X126710000Y-107675000I-140000J0D01*
G01*
X126290000Y-107675000D01*
G75*
G02*
X126150000Y-107535000I0J140000D01*
G01*
X126150000Y-106065000D01*
G75*
G02*
X126290000Y-105925000I140000J0D01*
G01*
X126710000Y-105925000D01*
G75*
G02*
X126850000Y-106065000I0J-140000D01*
G01*
G37*
G04 #@! TD.AperFunction*
G04 #@! TO.P,C3,1*
G04 #@! TO.N,Net-(C3-Pad1)*
G04 #@! TA.AperFunction,SMDPad,CuDef*
G36*
G01*
X129650000Y-106065000D02*
X129650000Y-107535000D01*
G75*
G02*
X129510000Y-107675000I-140000J0D01*
G01*
X129090000Y-107675000D01*
G75*
G02*
X128950000Y-107535000I0J140000D01*
G01*
X128950000Y-106065000D01*
G75*
G02*
X129090000Y-105925000I140000J0D01*
G01*
X129510000Y-105925000D01*
G75*
G02*
X129650000Y-106065000I0J-140000D01*
G01*
G37*
G04 #@! TD.AperFunction*
G04 #@! TD*
G04 #@! TO.P,C2,2*
G04 #@! TO.N,Net-(C1-Pad1)*
G04 #@! TA.AperFunction,SMDPad,CuDef*
G36*
G01*
X123450000Y-106065000D02*
X123450000Y-107535000D01*
G75*
G02*
X123310000Y-107675000I-140000J0D01*
G01*
X122890000Y-107675000D01*
G75*
G02*
X122750000Y-107535000I0J140000D01*
G01*
X122750000Y-106065000D01*
G75*
G02*
X122890000Y-105925000I140000J0D01*
G01*
X123310000Y-105925000D01*
G75*
G02*
X123450000Y-106065000I0J-140000D01*
G01*
G37*
G04 #@! TD.AperFunction*
G04 #@! TO.P,C2,1*
G04 #@! TO.N,Net-(C2-Pad1)*
G04 #@! TA.AperFunction,SMDPad,CuDef*
G36*
G01*
X126250000Y-106065000D02*
X126250000Y-107535000D01*
G75*
G02*
X126110000Y-107675000I-140000J0D01*
G01*
X125690000Y-107675000D01*
G75*
G02*
X125550000Y-107535000I0J140000D01*
G01*
X125550000Y-106065000D01*
G75*
G02*
X125690000Y-105925000I140000J0D01*
G01*
X126110000Y-105925000D01*
G75*
G02*
X126250000Y-106065000I0J-140000D01*
G01*
G37*
G04 #@! TD.AperFunction*
G04 #@! TD*
G04 #@! TO.P,C1,2*
G04 #@! TO.N,Net-(C1-Pad2)*
G04 #@! TA.AperFunction,SMDPad,CuDef*
G36*
G01*
X120050000Y-106065000D02*
X120050000Y-107535000D01*
G75*
G02*
X119910000Y-107675000I-140000J0D01*
G01*
X119490000Y-107675000D01*
G75*
G02*
X119350000Y-107535000I0J140000D01*
G01*
X119350000Y-106065000D01*
G75*
G02*
X119490000Y-105925000I140000J0D01*
G01*
X119910000Y-105925000D01*
G75*
G02*
X120050000Y-106065000I0J-140000D01*
G01*
G37*
G04 #@! TD.AperFunction*
G04 #@! TO.P,C1,1*
G04 #@! TO.N,Net-(C1-Pad1)*
G04 #@! TA.AperFunction,SMDPad,CuDef*
G36*
G01*
X122850000Y-106065000D02*
X122850000Y-107535000D01*
G75*
G02*
X122710000Y-107675000I-140000J0D01*
G01*
X122290000Y-107675000D01*
G75*
G02*
X122150000Y-107535000I0J140000D01*
G01*
X122150000Y-106065000D01*
G75*
G02*
X122290000Y-105925000I140000J0D01*
G01*
X122710000Y-105925000D01*
G75*
G02*
X122850000Y-106065000I0J-140000D01*
G01*
G37*
G04 #@! TD.AperFunction*
G04 #@! TD*
G04 #@! TO.P,R6,2*
G04 #@! TO.N,Net-(C5-Pad1)*
G04 #@! TA.AperFunction,SMDPad,CuDef*
G36*
G01*
X137456250Y-106350000D02*
X136943750Y-106350000D01*
G75*
G02*
X136725000Y-106131250I0J218750D01*
G01*
X136725000Y-105693750D01*
G75*
G02*
X136943750Y-105475000I218750J0D01*
G01*
X137456250Y-105475000D01*
G75*
G02*
X137675000Y-105693750I0J-218750D01*
G01*
X137675000Y-106131250D01*
G75*
G02*
X137456250Y-106350000I-218750J0D01*
G01*
G37*
G04 #@! TD.AperFunction*
G04 #@! TO.P,R6,1*
G04 #@! TO.N,GND*
G04 #@! TA.AperFunction,SMDPad,CuDef*
G36*
G01*
X137456250Y-107925000D02*
X136943750Y-107925000D01*
G75*
G02*
X136725000Y-107706250I0J218750D01*
G01*
X136725000Y-107268750D01*
G75*
G02*
X136943750Y-107050000I218750J0D01*
G01*
X137456250Y-107050000D01*
G75*
G02*
X137675000Y-107268750I0J-218750D01*
G01*
X137675000Y-107706250D01*
G75*
G02*
X137456250Y-107925000I-218750J0D01*
G01*
G37*
G04 #@! TD.AperFunction*
G04 #@! TD*
G04 #@! TO.P,C6,2*
G04 #@! TO.N,Net-(C5-Pad1)*
G04 #@! TA.AperFunction,SMDPad,CuDef*
G36*
G01*
X136943750Y-109650000D02*
X137456250Y-109650000D01*
G75*
G02*
X137675000Y-109868750I0J-218750D01*
G01*
X137675000Y-110306250D01*
G75*
G02*
X137456250Y-110525000I-218750J0D01*
G01*
X136943750Y-110525000D01*
G75*
G02*
X136725000Y-110306250I0J218750D01*
G01*
X136725000Y-109868750D01*
G75*
G02*
X136943750Y-109650000I218750J0D01*
G01*
G37*
G04 #@! TD.AperFunction*
G04 #@! TO.P,C6,1*
G04 #@! TO.N,GND*
G04 #@! TA.AperFunction,SMDPad,CuDef*
G36*
G01*
X136943750Y-108075000D02*
X137456250Y-108075000D01*
G75*
G02*
X137675000Y-108293750I0J-218750D01*
G01*
X137675000Y-108731250D01*
G75*
G02*
X137456250Y-108950000I-218750J0D01*
G01*
X136943750Y-108950000D01*
G75*
G02*
X136725000Y-108731250I0J218750D01*
G01*
X136725000Y-108293750D01*
G75*
G02*
X136943750Y-108075000I218750J0D01*
G01*
G37*
G04 #@! TD.AperFunction*
G04 #@! TD*
D10*
G04 #@! TO.N,Net-(C1-Pad2)*
X119700000Y-108000000D03*
G04 #@! TO.N,GND*
X137200000Y-108000000D03*
G04 #@! TO.N,Net-(C5-Pad1)*
X136100000Y-110300000D03*
G04 #@! TD*
D11*
G04 #@! TO.N,Net-(C1-Pad2)*
X119700000Y-106800000D02*
X119700000Y-108000000D01*
X119700000Y-108000000D02*
X119700000Y-109200000D01*
D12*
X119700000Y-109200000D02*
X119700000Y-106800000D01*
D11*
G04 #@! TO.N,Net-(C1-Pad1)*
X123100000Y-106800000D02*
X122500000Y-106800000D01*
X122500000Y-109200000D02*
X123100000Y-109200000D01*
D12*
X123100000Y-109200000D02*
X123100000Y-106800000D01*
X122500000Y-106800000D02*
X122500000Y-109200000D01*
D11*
G04 #@! TO.N,Net-(C2-Pad1)*
X126500000Y-109200000D02*
X125900000Y-109200000D01*
X126500000Y-106800000D02*
X125900000Y-106800000D01*
D12*
X126500000Y-109200000D02*
X126500000Y-106800000D01*
X125900000Y-106800000D02*
X125900000Y-109200000D01*
D11*
G04 #@! TO.N,Net-(C3-Pad1)*
X129300000Y-109200000D02*
X129900000Y-109200000D01*
X129900000Y-106800000D02*
X129300000Y-106800000D01*
D12*
X129300000Y-106800000D02*
X129300000Y-109200000D01*
X129900000Y-109200000D02*
X129900000Y-106800000D01*
D11*
G04 #@! TO.N,GND*
X137200000Y-108512500D02*
X137200000Y-107487500D01*
G04 #@! TO.N,Net-(C4-Pad1)*
X132700000Y-109200000D02*
X133300000Y-109200000D01*
X133300000Y-106800000D02*
X132700000Y-106800000D01*
D12*
X132700000Y-106800000D02*
X132700000Y-109200000D01*
X133300000Y-109200000D02*
X133300000Y-106800000D01*
D11*
G04 #@! TO.N,Net-(C5-Pad1)*
X136100000Y-109700000D02*
X136100000Y-109200000D01*
X136487500Y-110087500D02*
X136100000Y-109700000D01*
X137200000Y-110087500D02*
X136487500Y-110087500D01*
X136100000Y-106400000D02*
X136100000Y-106800000D01*
X136587500Y-105912500D02*
X136100000Y-106400000D01*
X137200000Y-105912500D02*
X136587500Y-105912500D01*
D12*
X136100000Y-106800000D02*
X136100000Y-108000000D01*
X136100000Y-108000000D02*
X136100000Y-109200000D01*
D13*
X136100000Y-109200000D02*
X136100000Y-110300000D01*
G04 #@! TD*
D14*
X119700000Y-108000000D03*
X137200000Y-108000000D03*
X136100000Y-110300000D03*
M02*
